<svg xmlns="http://www.w3.org/2000/svg" width="300" height="600" viewBox="0 0 300 600">
  <defs>
    <style>
      .cls-1 {
        fill: #4b286d;
        fill-rule: evenodd;
      }
    </style>
  </defs>
  <path id="携手让所有人_紧密连接_" data-name="携手让所有人 紧密连接 " class="cls-1" d="M90.215,156.613V154.5H83.574v-1.16h4.959v-2.117H83.574v-1.131h4.959v-2.117H83.6l-0.029-1.131h5.742v-2.117H83.545a7.3,7.3,0,0,0-.841-1.537,12.771,12.771,0,0,0-1.305-1.595,21.555,21.555,0,0,0-2.2.986,15.233,15.233,0,0,1,2.175,2.146H77.136a16.483,16.483,0,0,0,.609-2.407A15.282,15.282,0,0,0,75.8,141.5a18.907,18.907,0,0,1-1.305,4.031,17.172,17.172,0,0,1-1.682,3.016l0.029-1.1H70.379v-5.423h-2.2v5.423H64.666v2.117h3.509v6.09q-0.668.32-2.306,0.986t-1.986.812l1.624,1.653,2.668-1.1v7.134a0.567,0.567,0,0,1-.493.522H65.159q0.115,0.318.377,1.073t0.435,1.131a16.218,16.218,0,0,0,2.465-.058,3.02,3.02,0,0,0,1.349-.885,2.026,2.026,0,0,0,.594-1.377v-8.613l2.755-1.247c0-.193.01-0.537,0.029-1.03a8.668,8.668,0,0,0-.029-1.261l-2.755,1.16v-4.988h1.479l-1.015.928,1.769,1.479a12.1,12.1,0,0,0,1.682-1.653v6.293H90.215Zm-4.93,4.727a11.038,11.038,0,0,0,.928-1.624V157.86H73.163v2.117h3.886a7.6,7.6,0,0,1-.551,2.146,5.719,5.719,0,0,1-1.073,1.638,5.545,5.545,0,0,1-1.726,1.2,16.162,16.162,0,0,1-3.146.957l1.45,2a13.028,13.028,0,0,0,3.886-1.682,6.851,6.851,0,0,0,1.551-1.407,7.112,7.112,0,0,0,1.233-2.218,9.032,9.032,0,0,0,.522-2.639h4.437a8.382,8.382,0,0,1-1.392,1.682v1.8h4.872q-0.029.146-.073,0.667a2.931,2.931,0,0,1-.159.812,1.367,1.367,0,0,1-.29.464,0.9,0.9,0,0,1-.478.232,2.994,2.994,0,0,1-.942-0.044,7.237,7.237,0,0,0-.812-0.1q-0.435-.087-2.726-0.667l0.7,2.378q0.058,0,1.7.29a6.97,6.97,0,0,0,2.566.087,3.213,3.213,0,0,0,1.479-.7,2.843,2.843,0,0,0,.362-0.377,3.328,3.328,0,0,0,.493-0.957,8.889,8.889,0,0,0,.334-2.32q0.087-1.653.116-1.885H85.285ZM81.37,147.971H76.5V146.84H81.37v1.131Zm0,3.248H76.5v-1.131H81.37v1.131Zm0,3.277H76.5v-1.16H81.37v1.16Zm36.859,4v-2.117H107.557v-4.408h8.294v-2.117h-8.294v-4.292a40.283,40.283,0,0,0,9.4-2.291l-1.218-1.653a43.813,43.813,0,0,1-9.657,2,84.287,84.287,0,0,1-11.049.522l1.3,2.146q6.669-.174,9.019-0.464v4.031H96.624v2.117h8.729v4.408H94.217V158.5h11.136v6.09a0.93,0.93,0,0,1-1.015,1.015q-0.755.029-3.654-.232l0.812,2.378h4q2.058,0,2.059-2.32V158.5h10.672Zm29.464,7.917v-1.972h-8.9V153.568h7.424v-2.117H138.79v-9.4H136.7v22.388h-6.989v1.972h17.98Zm-16.646-19.662a11.393,11.393,0,0,0-4.321-4.176l-1.711,1.189a8.752,8.752,0,0,1,2.3,1.827,9.8,9.8,0,0,1,1.784,2.552Zm3.074,14.732-0.058-2.291q-0.87.407-2.755,1.305t-2.668,1.247v-12.5h-5.974v2.117h3.886v11.194a0.322,0.322,0,0,1-.174.261,2.467,2.467,0,0,1-.479.232c-0.2.077-.333,0.126-0.391,0.145l1.45,2.088Zm43.442-8.7v-2.117h-9.715v-4.06a22.763,22.763,0,0,0,8.874-3.509l-1.711-1.711q-0.9.581-2.349,1.319a20.4,20.4,0,0,1-3.379,1.32,17.967,17.967,0,0,1-3.726.725V154.5a22.378,22.378,0,0,1-.464,4.669,15.371,15.371,0,0,1-1.421,3.987,12.789,12.789,0,0,1-2.465,3.263l2.088,1.276q0.029-.03.826-0.972a10.33,10.33,0,0,0,1.088-1.464,22.867,22.867,0,0,0,2.61-9.657q0.029-.377.029-1.392a11.6,11.6,0,0,1,.058-1.421h3.451v14.848h2.2V152.785h4Zm-14.094-11.31a20.646,20.646,0,0,1-8.758,2.726v12.151a15.065,15.065,0,0,1-3.538,10.266l1.943,1.305a15.31,15.31,0,0,0,2.508-4.075,24.34,24.34,0,0,0,1.407-6.452h6.612V148.2H157v-2.146a23.751,23.751,0,0,0,8.149-2.929Zm-2.03,13.8H157v-4.9l4.437,0.058v4.843Zm44.457-7.772V145.39H191.135q0.7-2.377.957-3.6l-2.233-.493a40.1,40.1,0,0,1-1.131,4.089h-6.9v2.117h6.09a19.3,19.3,0,0,1-2.973,5.263,37.929,37.929,0,0,1-4.886,5.177l2.03,1.334q2.639-2.7,3.523-3.712a19.308,19.308,0,0,0,1.378-1.74v13.833h2.291v-6.119h10.9v2.871a0.478,0.478,0,0,1-.145.348,0.51,0.51,0,0,1-.377.145,21.432,21.432,0,0,1-3.654-.145q0.261,0.667,1.015,2.233h1.667a11.615,11.615,0,0,0,2.19-.145,2.508,2.508,0,0,0,1.029-.725,1.959,1.959,0,0,0,.479-1.1V150.2H189.25q0.377-.783,1.044-2.7h15.6Zm-5.713,7.163h-10.9v-2.349h10.9v2.349Zm0,4.756h-10.9v-2.639h10.9v2.639Zm34.916,5.858a21.433,21.433,0,0,1-4.814-2.813,19.065,19.065,0,0,1-3.683-3.886,26.866,26.866,0,0,1-2.987-5.655,3.672,3.672,0,0,0-.16-0.348,1.887,1.887,0,0,1-.174-0.493,1.822,1.822,0,0,1-.014-0.522,82.429,82.429,0,0,0,.435-9.164h-2.32q0,0.494-.015,1.856t-0.043,2.508q-0.03,1.146-.131,2.61a21.1,21.1,0,0,1-.435,3,12.04,12.04,0,0,1-.913,2.726,18.331,18.331,0,0,1-2.074,3.436,27.319,27.319,0,0,1-2.682,2.886,29.774,29.774,0,0,1-5.278,3.944l1.74,1.711a25.339,25.339,0,0,0,4.814-3.437,24.307,24.307,0,0,0,3.871-4.321,16.529,16.529,0,0,0,2.074-3.842,23.618,23.618,0,0,0,3.016,5.263,20.355,20.355,0,0,0,3.6,3.6,30.683,30.683,0,0,0,4.5,2.828ZM118.867,184.25a20.864,20.864,0,0,1-5.365-1.537,13.409,13.409,0,0,0,3.509-3.393v-1.711H103.874V179.7h2.349a13.228,13.228,0,0,0,3.016,2.929,6.246,6.246,0,0,1-1,.435q-0.653.232-4.045,1.1l1.74,1.8a24.974,24.974,0,0,0,5.423-1.943,22.854,22.854,0,0,0,5.974,2.291Zm-2.523,10.411a13.107,13.107,0,0,0-4.872-4.872l-1.769,1.247a6.854,6.854,0,0,1,1.8,1.247l-9.86,1.16a26.537,26.537,0,0,0,3.422-1.349,27.743,27.743,0,0,0,4-2.305,26.838,26.838,0,0,0,3.335-2.639l-2-1.305q-1.161,1.044-3.19,2.552l-5.568.464a18.031,18.031,0,0,0,2.552-1.726q0.7-.623,1.189-1.145l-1.595-1.595-1.044,1.044v-9.048h-2.088v9.425l1.624,0.058a20.238,20.238,0,0,1-4.988,3.364l0.986,2.175,6.032-.957q-3.016,1.451-4.771,2.117t-3.292,1.1l1.218,2.465q4.118-.754,7.54-1.1v4.2c0,0.077,0,.246.014,0.507a0.9,0.9,0,0,1-.072.508,0.306,0.306,0,0,1-.261.116,11.778,11.778,0,0,1-1.407-.145l-0.884-.145a1.791,1.791,0,0,0-.261-0.029l1.015,2.262h1.943a3.193,3.193,0,0,0,1.334-.653,2.058,2.058,0,0,0,.783-1.145v-5.684l5.713-.841q0.029,0.058.435,0.58t0.667,0.9q0.261,0.376.406,0.609Zm1.363,5.017a23.512,23.512,0,0,0-8.033-4.466l-1.276,1.711a20.511,20.511,0,0,1,4.147,1.8,23.591,23.591,0,0,1,3.712,2.668Zm-20.532-12.3v-9.773H95.087v9.773h2.088Zm5.481,8.207a26.969,26.969,0,0,1-8.468,4.031l1.508,1.885a29.434,29.434,0,0,0,4.48-1.871,19.265,19.265,0,0,0,3.843-2.479Zm11.31-15.892a10.628,10.628,0,0,1-2.668,1.885,7.809,7.809,0,0,1-1.334-.87,13.49,13.49,0,0,1-1.16-1.015h5.162Zm34.162,11.571a21.014,21.014,0,0,0-2.059-2.9,14.244,14.244,0,0,0-2.465-2.407l-1.74,1.218a14.463,14.463,0,0,1,4.408,5.539ZM147,185.381V179.32h-9.686a6.3,6.3,0,0,0-1.465-1.508,12.7,12.7,0,0,0-2.218-1.421L131.8,177.9a6.919,6.919,0,0,1,2.639,1.421H123.826v6.061h2.2v-3.944h18.763v3.944H147ZM137.456,185a10.172,10.172,0,0,0-1.784-1.9,6.208,6.208,0,0,0-2.334-1.261l-1.479,1.276a14.009,14.009,0,0,1,2.711,1.8,5.911,5.911,0,0,1,1.407,1.624Zm4.524-2.465a34.224,34.224,0,0,1-9.6,6.844v-4.466h-2.2v5.51a49.132,49.132,0,0,1-7.511,2.523L124,194.835a62.316,62.316,0,0,0,6.786-2.407,3.07,3.07,0,0,0,1.015.826,2.818,2.818,0,0,0,1.363.363h5.365a3.524,3.524,0,0,0,1.8-.334,2.472,2.472,0,0,0,.841-0.913,15.455,15.455,0,0,0,.986-3.422c-0.02-.019-0.295-0.131-0.827-0.334s-0.942-.343-1.232-0.42a17.5,17.5,0,0,1-.406,2.247,3.932,3.932,0,0,1-.261.624,0.853,0.853,0,0,1-.725.435h-4.93q-1.161,0-.928-0.116a53.643,53.643,0,0,0,6.7-4,26.239,26.239,0,0,0,3.915-3.48Zm-14.326,1.653a11.747,11.747,0,0,1-4.437,5.365l1.653,1.479a14.941,14.941,0,0,0,2.871-2.77,17.6,17.6,0,0,0,1.74-2.827Zm17.2,18.154v-7.221h-2.2V199.1h-6.264V194.11h-2.2V199.1h-6.206v-3.973h-2.2l-0.029,6.09h16.907v1.131h2.2Zm31.32-8.294v-2.117h-7.656v-2.842h5.452v-2.117h-5.452v-3.219h-2.2v3.219H162.8q0.725-1.594,1.711-4.35h10.556v-2.117h-9.86l0.754-2.523-2.117-.9a19.11,19.11,0,0,1-.841,3.422h-4.321v2.117h3.625q-0.319,1.044-1.914,4.7v1.769h5.916v2.842h-7.917v2.117h7.917v4.959h2.2v-4.959h7.656Zm-18.3-11.223a16.657,16.657,0,0,0-1.813-2.6,14.3,14.3,0,0,0-2.334-2.276l-1.653,1.421a16.662,16.662,0,0,1,4,4.727Zm19.256,16.733q-2.379.174-2.987,0.174h-9.57a14.51,14.51,0,0,1-2.436-.247,11.226,11.226,0,0,1-2.871-.928,7.894,7.894,0,0,1-2.349-1.609V186.425h-5.539v2.117h3.335v8.178q-0.609.581-1.32,1.189t-1.653,1.348q-0.942.739-1,.769l1.479,1.566q1.594-1.276,3.538-3.1a9.4,9.4,0,0,0,3.712,2.45,12.133,12.133,0,0,0,4.379.914h12.035Zm29,1.044a29.248,29.248,0,0,0-6.119-3.306,23.177,23.177,0,0,0,1.783-2.494,8.588,8.588,0,0,0,.595-1.247h3.161v-2.088h-8.729q0.057-.115.377-0.74t0.522-1.116l-1.74-.87h10.15v-2.088H200.5a13.071,13.071,0,0,0,2.61-4.263l-1.595-.783h3.509v-2.088H197.95l0.667-.638a10.375,10.375,0,0,0-3.8-2.7l-1.711,1.624a8.8,8.8,0,0,1,1.711.826,8.247,8.247,0,0,1,1.189.885h-6.641v2.088l3.364,0.087-1.8.812a14.946,14.946,0,0,1,2.146,2.334,6.89,6.89,0,0,1,.928,1.813h-5.423v2.088h6.931a17.082,17.082,0,0,1-1.276,2.726h-5.017v2.088h3.712a22.384,22.384,0,0,1-3.045,3.625,41.968,41.968,0,0,1,5.858,1.015,10.481,10.481,0,0,1-3.277,1.348q-2.088.537-5.278,1.03l1.45,2.059q2.262-.435,4.147-0.972a19.606,19.606,0,0,0,3.32-1.247,16.625,16.625,0,0,0,2.393-1.406,21.2,21.2,0,0,1,6.09,3.364Zm-16.53-9.4v-2.2l-3.335,1.073v-5.51h3.045v-2.088h-3.045v-5.742h-2.2v5.742h-3.48v2.088h3.48v6.38l-3.915,1.3,1.392,1.827,2.523-.812v6.438a0.878,0.878,0,0,1-.2.507,0.673,0.673,0,0,1-.464.305,12,12,0,0,1-2.436,0l0.783,2.088c0.116,0,.435,0,0.957.014a9.249,9.249,0,0,0,1.247-.043,4.819,4.819,0,0,0,.754-0.145,2.1,2.1,0,0,0,1.145-.87,2.632,2.632,0,0,0,.421-1.479V192.37Zm11.31-9.6a19.079,19.079,0,0,1-1.595,3.03,6.914,6.914,0,0,1-1.856,2.016l-2.552-.029,1.247-.464a9.328,9.328,0,0,0-3.1-4.553h7.859Zm-0.928,11.948a7.543,7.543,0,0,1-2.146,3.016q-0.291-.058-1.668-0.406t-1.986-.464q0.609-.783,1.537-2.146h4.263Z"/>
</svg>
