<svg xmlns="http://www.w3.org/2000/svg" width="300" height="600" viewBox="0 0 300 600">
  <defs>
    <style>
      .cls-1 {
        fill: #4b286d;
        fill-rule: evenodd;
      }
    </style>
  </defs>
  <path id="我们为需要帮助的人_提供上网及_手机补贴计划_" data-name="我们为需要帮助的人 提供上网及 手机补贴计划 " class="cls-1" d="M43.094,123.469a14.118,14.118,0,0,0-2.842-2.1L38.4,123.049a11.264,11.264,0,0,1,3,2.03,8.441,8.441,0,0,1,1.986,2.784,13.777,13.777,0,0,0,1.856-1.595A9.475,9.475,0,0,0,43.094,123.469Zm1.16,15.675a16.493,16.493,0,0,1-.725,4.031q-0.116.32-.594-0.189a23.127,23.127,0,0,1-1.609-2.1,13.188,13.188,0,0,1-1.16-1.914,25.559,25.559,0,0,0,4.35-6.119l-1.972-.841a22.037,22.037,0,0,1-3.248,4.756,31.881,31.881,0,0,1-1.16-5.539h7.511v-2.2H37.932q-0.116-1.421-.189-4.191t-0.072-4.683H35.438a86.863,86.863,0,0,0,.174,8.874H30.218V124.3q0.377-.146,1.029-0.479t3.35-1.9l-1.45-1.653a35.2,35.2,0,0,1-3.813,1.841,19.033,19.033,0,0,1-3.379.972,23.511,23.511,0,0,1-4.147.377,18.144,18.144,0,0,1,1.363,2.175,20.17,20.17,0,0,0,2.494-.261,12.474,12.474,0,0,0,2.262-.522v4.176H21.982v2.2h5.945v4.843q-3.538.9-6.7,1.508l1.624,2.117,5.075-1.363v4.727a0.721,0.721,0,0,1-.667.754l-3.567-.087,0.812,2.262q0.406-.03,1.566,0a14.306,14.306,0,0,0,1.813-.044A4.657,4.657,0,0,0,29,145.7a2.275,2.275,0,0,0,1.218-2v-6l4.5-1.189v-2.233l-4.5,1.131v-4.176h5.6a35.691,35.691,0,0,0,1.624,7.279,27.634,27.634,0,0,1-6.554,4.205l1.943,1.624a30.785,30.785,0,0,0,5.626-3.654,15.764,15.764,0,0,0,3.132,3.944A4.894,4.894,0,0,0,43.5,145.8a3.088,3.088,0,0,0,1.073.015,2.051,2.051,0,0,0,.957-1.015,17.846,17.846,0,0,0,.986-4.785ZM63.8,125.253a10.382,10.382,0,0,0-3.509-4.466l-1.8,1.1a11.935,11.935,0,0,1,3.364,4.553ZM74.472,121.8H64.032v2.117h8.236v18.995a0.842,0.842,0,0,1-.087.464,0.39,0.39,0,0,1-.261.145l-3.306-.232,0.783,2.291a14.436,14.436,0,0,0,3.451-.087,1.926,1.926,0,0,0,1.624-1.827V121.8ZM61.045,145.93V126.674h-2.2V145.93h2.2ZM55.738,120a34.129,34.129,0,0,1-2.364,8.584,23.916,23.916,0,0,1-3.987,6.177l1.682,1.508a17.935,17.935,0,0,0,1.537-1.871,13.578,13.578,0,0,0,1.247-2.015V145.93h2.2V127.892a58.485,58.485,0,0,0,1.711-7.25Zm32.074,5.1a14.274,14.274,0,0,0-3.77-3.857l-1.8,1.363a13.2,13.2,0,0,1,2.581,2.146,6.305,6.305,0,0,1,1.1,1.827Zm10.034,13.05a16.722,16.722,0,0,0-3.973-5.916l-1.827,1.073a20.364,20.364,0,0,1,2.712,3.451,10.868,10.868,0,0,1,1.117,2.61Zm-5.974-11.223v-6.7l-2.2.058v6.641H79.837v2.117h9.831a22.619,22.619,0,0,1-1.073,6.873,11.228,11.228,0,0,1-3.089,4.988,14.06,14.06,0,0,1-5.234,3.306l1.508,1.943a19.683,19.683,0,0,0,3.538-2.117,13.8,13.8,0,0,0,2.9-2.755,16.208,16.208,0,0,0,2.262-4.162A18.829,18.829,0,0,0,91.553,133q0.232-1.856.275-2.741t0.043-1.2H99.5q-0.116,5.453-.464,9.12a29.38,29.38,0,0,1-.812,5.177,0.985,0.985,0,0,1-.783.551,8.075,8.075,0,0,1-1.987-.29q-1.349-.32-1.581-0.348l0.348,2.262a15.791,15.791,0,0,0,3.393.507,2.647,2.647,0,0,0,1.363-.362,2.994,2.994,0,0,0,.928-0.827,2.785,2.785,0,0,0,.522-1.058q0.376-1.8.652-4.292t0.435-7.12q0.159-4.625.189-5.437H91.872Zm37.961,2.581v-1.8H123.4v1.8h6.438Zm0,3.1V130.85H123.4v1.769h6.438Zm3.045-3.509-0.058-4.263H122.177v-1.276H131.2v-2.117H110.838v2.117h9.135v1.276H109.417v4.437l2.059-.058v-2.407h8.5V133.4h2.2v-6.583H130.7v2.291h2.175Zm-14.21.522v-1.769H112.2v1.769h6.467Zm0,2.987V130.85H112.2v1.769h6.467Zm14.761,3.1V133.75H108.75v1.972h11.136a8.986,8.986,0,0,1-.9,1.943h-8.149v8.642H112.9v-6.67h4.2v5.1h2.059v-5.017l3.77-.058v5.075h2.2v-5.1h3.944v3.422a0.513,0.513,0,0,1-.435.638,5.091,5.091,0,0,1-1.291.029q-0.913-.058-1.174-0.058l0.725,2.117c0.154,0,.449.009,0.884,0.029a9.083,9.083,0,0,0,1.16-.015,3.283,3.283,0,0,0,.943-0.217,1.948,1.948,0,0,0,1.392-1.8v-6.119h-9.947a18.058,18.058,0,0,0,.7-1.943h11.4Zm29.145-11.977v-2.117h-24.65v2.117h8.236v1.943l-5.945-.058v7.8h8.526l-2.117,2.262h-8.41v2h6.438l-3.1,3.48q5.249,0.55,6.844.841a27.627,27.627,0,0,1-5.206,1.45,51.074,51.074,0,0,1-6.22.638l1.537,2.03a41.945,41.945,0,0,0,7.453-1.189,23.628,23.628,0,0,0,6-2.291,44.649,44.649,0,0,1,4.408,1.566,46.232,46.232,0,0,1,4.437,2.059l1.566-1.711a35.636,35.636,0,0,0-3.393-1.769,34.728,34.728,0,0,0-4.611-1.8,12.478,12.478,0,0,0,1.58-1.479,13.687,13.687,0,0,0,1.436-1.827h4.959v-2H149.5l1.218-1.334-1.189-.928h10.933v-7.8l-6.032.058v-1.943h8.149Zm-4.379,7.569h-3.77v-3.6h3.77v3.6Zm-6.032-5.713h-3.741v-1.856h3.741V125.6Zm0,5.713h-3.741v-3.6h3.741v3.6Zm-6-3.6-0.058,3.6H142.39v-3.6h3.77Zm8.584,9.976a11.672,11.672,0,0,1-3.132,2.581l-1.943-.348q-0.813-.145-2.045-0.29t-1.58-.2l1.595-1.74h7.1Zm36.076-8.033a13.506,13.506,0,0,0-2.958-3.045l2.755-3.393v-1.972h-8.584v13.311h2.088V123.368h3.77l-2.726,3.567q0.231,0.174.928,0.71t1.218,0.986a7.076,7.076,0,0,1,.884.9,6.592,6.592,0,0,1,.595.856,1.257,1.257,0,0,1,.174.739,0.709,0.709,0,0,1-.406.595,5.757,5.757,0,0,1-2.03.159q-1.335-.072-1.508-0.072l0.928,2.32,1.8-.058a4.81,4.81,0,0,0,1.493-.29,3.255,3.255,0,0,0,1.16-.7,3.578,3.578,0,0,0,.682-0.87,2.751,2.751,0,0,0-.261-2.552h0Zm-2.291,5.307h-8.5v-2.7h-2.2v2.7l-5.713-.058q1.333-.725,2.088-3.306h6.612v-2.117h-6.177a5.364,5.364,0,0,0,.072-0.943q0.015-.71.015-0.768h4.408v-2.117h-4.35v-1.74h4.843V121.8h-4.843v-1.624h-2.2V121.8H167.1v2.117h5.481v1.74h-4.64v2.117h4.64a6.924,6.924,0,0,1-.145,1.711h-5.568V131.6h5.046a4.88,4.88,0,0,1-1.7,2.146,14.22,14.22,0,0,1-4.19,2l1.247,2.146q1.8-.841,2.131-1.044a4.354,4.354,0,0,0,.508-0.348v7.221h2.2v-6.641h5.713v8.787h2.2v-8.787h6.409v3.654a0.466,0.466,0,0,1-.232.391,0.759,0.759,0,0,1-.522.131l-2.784-.232,0.841,2.436q0.29-.029,1.7-0.015a4.107,4.107,0,0,0,2.045-.362,2.212,2.212,0,0,0,.725-0.711,1.7,1.7,0,0,0,.319-0.942v-6.467Zm31.784-8.5h-6.206l0.145-6.351H211.99q0.028,2.523-.087,6.351h-4.147v2.117h4.06q-0.145,2.234-.551,5.452a10.4,10.4,0,0,1-1.1,3.61,13.524,13.524,0,0,1-1.871,2.784,20.091,20.091,0,0,1-2.175,2.088,17.806,17.806,0,0,1-2.682,1.813l1.392,1.566,0.116,0.319a28,28,0,0,0,3.523-2.77,19.037,19.037,0,0,0,2.683-3.03,11.178,11.178,0,0,0,.957-1.639,15.969,15.969,0,0,0,.768-2,16.866,16.866,0,0,0,.58-2.61q0.217-1.464.377-3.306t0.218-2.276h3.915q-0.609,11.136-2.059,14.21a1.214,1.214,0,0,1-1.189.435,26.911,26.911,0,0,1-3.161-.725l0.261,2.407q0.318,0.057,1.595.319a6.505,6.505,0,0,0,1.87.188,6.439,6.439,0,0,0,.8-0.13,3.045,3.045,0,0,0,1.566-1.088,4.273,4.273,0,0,0,.9-1.783,70.923,70.923,0,0,0,1.45-10.324ZM208.539,140.1V137.81l-1.827.667V121.715h-9.077v19.43l-2.639.783q0.144,0.174.638,0.841t0.783,1.131Zm-4.031-12.528h-4.553v-3.741h4.553v3.741Zm0,6.09h-4.669v-3.944l4.669-.058v4Zm0,5.481-4.669,1.334v-4.7h4.669v3.364Zm39.585-1.073a21.688,21.688,0,0,0-1.711-3.625A25.549,25.549,0,0,0,239.859,131l-1.8,1.189A24.551,24.551,0,0,1,242.005,139Zm-3.886-13.195q0.115-.406.478-1.508t0.522-1.74q0.159-.638.247-1.131l-2.32-.522a27.149,27.149,0,0,1-4.35,11.165v-5.829h-4.437a19.156,19.156,0,0,0,1.566-4.263l-2.088-.841a18.081,18.081,0,0,1-1.769,5.1h-2.668v20.1h2.291v-2.349h4.814v1.885h2.291V132.01l1.508,0.957a23.826,23.826,0,0,0,3.364-6.09h6.177q-0.117,5.1-.348,7.96a49.141,49.141,0,0,1-.609,4.887,18.336,18.336,0,0,1-.957,3.422,1.111,1.111,0,0,1-1.1.522,21.538,21.538,0,0,1-4.379-1.218l0.377,2.436a28.593,28.593,0,0,0,3.813.9,5.088,5.088,0,0,0,1.349,0,2.278,2.278,0,0,0,1.363-.856,5.059,5.059,0,0,0,.87-1.551,28.722,28.722,0,0,0,.942-3.741q0.363-1.972.508-3.741t0.217-3.335q0.072-1.566.1-4.234t0.058-3.451h-7.83Zm-7.714,8.149h-4.814v-5.6h4.814v5.6Zm0,7.917h-4.814v-5.8h4.814v5.8Zm46.313,2.842a21.433,21.433,0,0,1-4.814-2.813,19.065,19.065,0,0,1-3.683-3.886,26.866,26.866,0,0,1-2.987-5.655,3.672,3.672,0,0,0-.16-0.348,1.887,1.887,0,0,1-.174-0.493,1.822,1.822,0,0,1-.014-0.522,82.429,82.429,0,0,0,.435-9.164h-2.32q0,0.493-.015,1.856t-0.043,2.508q-0.03,1.146-.131,2.61a21.1,21.1,0,0,1-.435,3,12.04,12.04,0,0,1-.913,2.726,18.331,18.331,0,0,1-2.074,3.436,27.319,27.319,0,0,1-2.682,2.886,29.774,29.774,0,0,1-5.278,3.944l1.74,1.711a25.339,25.339,0,0,0,4.814-3.437,24.307,24.307,0,0,0,3.871-4.321,16.529,16.529,0,0,0,2.074-3.842,23.618,23.618,0,0,0,3.016,5.263,20.355,20.355,0,0,0,3.6,3.6,30.683,30.683,0,0,0,4.5,2.828ZM102.167,166.317V156.2h-12.7v10.121h12.7Zm-2.059,11.324q-0.7.015-1.682-.058t-1.334-.13v-2.987h5.713v-2.117H97.092v-2.523h7.337v-2.117H88.276v2.117h6.612v7.134a9.961,9.961,0,0,1-2.175-1.1,5.527,5.527,0,0,1-1.363-1.189,20.729,20.729,0,0,0,.261-3.451l-2.175-.29a10.618,10.618,0,0,1-.725,5.089,7.556,7.556,0,0,1-2.987,3.524l1.508,1.624a8.457,8.457,0,0,0,1.9-1.61,10.659,10.659,0,0,0,1.581-2.595,10.072,10.072,0,0,0,3.582,1.972,14.7,14.7,0,0,0,4.394.725l6,0.058,0.87-2.262Q100.8,177.627,100.108,177.641Zm-11.6-14.891v-2.117H85.376v-5.51h-2.2v5.51H79.489v2.117h3.683v6.09a22.809,22.809,0,0,1-2.32.826l-2,.624,1.45,1.856a27.829,27.829,0,0,0,2.871-1.131v6.641a1.455,1.455,0,0,1-.087.754,0.55,0.55,0,0,1-.464.406,4.933,4.933,0,0,1-1.45.043q-1.015-.072-1.45-0.072l0.7,2.117a11.16,11.16,0,0,0,3.306-.174,2.214,2.214,0,0,0,1.189-.812,2.042,2.042,0,0,0,.464-1.247v-8.41l2.668-1.189,0.058-2.349-2.726,1.218V162.75h3.132Zm11.455-2.639H91.669v-1.8h8.294v1.8Zm0,4.089H91.669v-1.972h8.294V164.2Zm33.785,7.076v-2.117H129.6v-6.351h3.335v-2.2H129.6v-5.655H127.31v5.713l-5.365-.058v-5.655h-2.2v5.713l-3.19-.058v2.2h3.19v6.351h-4.089v2.117h18.1Zm-1.465,5.756a19.831,19.831,0,0,0-2.189-2.334,33.48,33.48,0,0,0-2.61-2.146l-1.856,1.305a25.682,25.682,0,0,1,3.828,3.32,19.8,19.8,0,0,1,2.871,3.843,11.582,11.582,0,0,0,.957-0.682,9.757,9.757,0,0,1,.87-0.623A22.192,22.192,0,0,0,132.283,177.032ZM115.014,154.6q-0.522,1.653-1.465,3.9a34,34,0,0,1-2.479,4.727,25.575,25.575,0,0,1-3.335,4.336l1.885,1.334A23.415,23.415,0,0,0,112,165.94v15.138h2.2V162.373a59.044,59.044,0,0,0,2.871-6.815Zm6.5,17.748a24.69,24.69,0,0,1-6.264,7.134l1.682,1.624a24,24,0,0,0,6.467-7.54Zm5.8-3.19h-5.365V162.75l5.365,0.058v6.351Zm35.032,9.628V176.67h-12.5V166h9.947v-2.117h-9.947v-8.41h-2.2v21.2h-9.512v2.117h24.215Zm24.737-5.539a27.353,27.353,0,0,0-3.364-6.206,58.871,58.871,0,0,0,1.972-7.018l-2-.58a27.568,27.568,0,0,1-.8,3.306q-0.507,1.653-.565,1.885c-0.039.155-.068,0.261-0.087,0.319q-0.435-.609-1.45-1.827t-1.247-1.479l-1.74,1.189q1.768,2.06,3.538,4.553a21.419,21.419,0,0,1-4.727,6.815L178.7,175.6a20.437,20.437,0,0,0,2.247-2.987,32.307,32.307,0,0,0,1.784-3.364q0.724,1.276,1.406,2.8a16.668,16.668,0,0,1,.972,2.683Zm2.726-16.675H167.62v24.418h2.2v-22.3H187.6v19.633a0.589,0.589,0,0,1-.377.261l-3.074-.116,0.812,2.175h2.9a1.824,1.824,0,0,0,1.319-.653,1.951,1.951,0,0,0,.624-1.348V156.573Zm-10.788,14.181a13.742,13.742,0,0,0-1.088-2.32q-0.594-.986-1.435-2.175a55.016,55.016,0,0,0,1.566-6.09l-2.03-.522a20.872,20.872,0,0,1-1.1,4.64q-0.117-.115-1-1.146t-1.29-1.435l-0.58-.58-1.769,1.218a24.664,24.664,0,0,1,3.8,4.35,20.791,20.791,0,0,1-1.871,4.089,19.2,19.2,0,0,1-2.1,2.7,10.174,10.174,0,0,1,.957.638,12.1,12.1,0,0,0,1.044.7q0.231-.348,1.218-1.726a20.543,20.543,0,0,0,1.493-2.349,14.4,14.4,0,0,0,.8-1.783,8.621,8.621,0,0,1,.826,1.508q0.363,0.841.711,1.769Zm41.644,8.149a24.551,24.551,0,0,1-8.584-4.06,24.475,24.475,0,0,0,3.683-4.872,15.255,15.255,0,0,0,1.827-6h-5.742q2.349-3.1,3.77-5.22v-1.914H197.142v2.2h3.886q0.087,2.581-.116,6.264-0.174,3.248-.392,4.756t-0.42,2.407a14.288,14.288,0,0,1-4.466,7.25q0.057,0.029.971,0.58t1.378,0.783a22.515,22.515,0,0,0,3.683-5.655q1.247-2.784,1.653-9.077A26.263,26.263,0,0,0,205.552,171a22.1,22.1,0,0,0,3.1,3.93,22.276,22.276,0,0,1-8.294,4.118l1.421,1.943a21.571,21.571,0,0,0,8.555-4.553,26.4,26.4,0,0,0,8.961,4.553Zm-5.742-12.818a15.316,15.316,0,0,1-1.813,3.842,19.731,19.731,0,0,1-2.682,3.437,26.439,26.439,0,0,1-2.683-3.132,17.643,17.643,0,0,1-1.29-2.262,47.313,47.313,0,0,1-2.03-4.7q-0.581-1.681-.928-2.9v-1.334h9.077q-1.335,2-3.828,5.133v1.914h6.177ZM89.436,206.6v-2.117H78.764v-4.408h8.294v-2.117H78.764v-4.292a40.267,40.267,0,0,0,9.4-2.291l-1.218-1.653a43.8,43.8,0,0,1-9.657,2,84.282,84.282,0,0,1-11.049.522l1.305,2.146q6.67-.174,9.019-0.464v4.031H67.831v2.117H76.56v4.408H65.424V206.6H76.56v6.09a0.93,0.93,0,0,1-1.015,1.015q-0.754.029-3.654-.232l0.812,2.378h4q2.059,0,2.059-2.32V206.6H89.436Zm28.768,1.508q-0.03.174-.189,1.232t-0.319,1.74a4.372,4.372,0,0,1-.391,1.1,0.66,0.66,0,0,1-.551.421h-0.928q-0.522,0-.522-0.377V191.2h-8.932v14.964a8.421,8.421,0,0,1-1.16,4.292,16.877,16.877,0,0,1-3.248,3.915l1.972,1.624a15.6,15.6,0,0,0,3.407-4.539,11.254,11.254,0,0,0,1.233-5V193.287H113.1V212.92a1.8,1.8,0,0,0,.246.9,1.509,1.509,0,0,0,.8.652,2.979,2.979,0,0,0,1.1.218h1.972a2.1,2.1,0,0,0,1.247-.392,1.975,1.975,0,0,0,.754-1,33.815,33.815,0,0,0,1.015-3.828Zm-13.021-3.19a12.634,12.634,0,0,0-3.219-5.1l-0.9.551v-2.871h4V195.4h-4v-5.51H98.774v5.51H94.395v2.088h4.176a21.238,21.238,0,0,1-1.2,3.784,18.807,18.807,0,0,1-1.871,3.495,17.83,17.83,0,0,1-1.972,2.436l1.711,1.479a17.9,17.9,0,0,0,2.146-2.654,18.608,18.608,0,0,0,1.392-2.421v12.122h2.291l0.087-13.572a11.8,11.8,0,0,1,1.218,2.059,11.611,11.611,0,0,1,.725,2Zm43.065,0.551a23.884,23.884,0,0,0-2.886-3.886,29.558,29.558,0,0,0-3.639-3.625l-1.392,1.392a28.787,28.787,0,0,1,3.262,3.509,25.366,25.366,0,0,1,2.712,4.06Zm-8.816,9.86V189.633h-2.2v25.694h2.2Zm-8.7-21.866a22.762,22.762,0,0,0-4.234-4l-1.566,1.392a19.577,19.577,0,0,1,2.32,2,11.822,11.822,0,0,1,1.711,2.059Zm2.987,6.177a15.791,15.791,0,0,1-3.132,3.132l-0.406-.232v-0.174a16.491,16.491,0,0,0,1.667-3.176,17.722,17.722,0,0,0,1.175-4.045h-9.889v2.117h6.96a15.289,15.289,0,0,1-2.828,5.408,15.941,15.941,0,0,1-5.118,3.959l1.189,1.943q1.159-.7,2.523-1.639a13.068,13.068,0,0,0,2.117-1.754v10.15h2.2V204.858a8.963,8.963,0,0,1,1.74,1.609,15.731,15.731,0,0,1,1.711,2.277l1.711-1.421a14.348,14.348,0,0,0-1.392-1.885,9.516,9.516,0,0,0-1.45-1.392,22.019,22.019,0,0,0,2.871-2.958Zm43.442-1.856v-2.117H170.23v-5.916h-2.2v13.514h-3.538V215.82h2.2v-2.088H172.9v2.088h2.2V203.263H170.23v-5.481h6.931Zm-14.239,10.179V191.083h-9.686v16.878h2.2V193.2h5.278v14.761h2.2Zm-3.77-12.441h-2.2v8.439a10.957,10.957,0,0,1-1.378,5.539,14.525,14.525,0,0,1-4.393,4.524l1.305,1.8a16.827,16.827,0,0,0,4.973-5.075,12.786,12.786,0,0,0,1.7-6.728v-8.5Zm5.075,18.328a13.514,13.514,0,0,0-2-2.915,11.036,11.036,0,0,0-2.494-2.1l-1.363,1.45a13.449,13.449,0,0,1,2.769,2.755,16.413,16.413,0,0,1,1.378,2.436Zm8.671-2.233h-6.206V205.38H172.9v6.235Zm33.234-11.136v-2.117h-6.757v-8.613h-2.2v8.613h-6.757v2.117h6.757v15.312h2.2V200.479h6.757Zm-17.777-6.641a12.835,12.835,0,0,0-1.726-2.378,12.638,12.638,0,0,0-2.218-1.943l-1.566,1.334a13.453,13.453,0,0,1,3.683,4.379Zm3.538,18.3V209.73l-4.35,2.378V197.637h-6.438v2.117h4.234V212.2a1.388,1.388,0,0,1-.174.725,2.8,2.8,0,0,1-.58.638l1.3,1.856Zm42.079-22.475h-2.2v23.084a0.657,0.657,0,0,1-.189.565,1.279,1.279,0,0,1-.478.189l-3.016-.087,0.783,2.233q0.29,0,1.305.029a8.625,8.625,0,0,0,1.537-.058,4.041,4.041,0,0,0,.87-0.232,2.207,2.207,0,0,0,1.392-2.2V189.662Zm-15.631,1.015q-0.378.376-1.624,1.363a10.727,10.727,0,0,1,4.2,4.205,7.688,7.688,0,0,0,.957-0.74q0.579-.507.812-0.681a12,12,0,0,0-4.35-4.147h0Zm10.295,18.908V193.171h-2.2v16.414h2.2Zm-4.408-.29q-0.2,1.073-.928,3.712a0.337,0.337,0,0,1-.261.217,0.668,0.668,0,0,1-.261-0.1,12.069,12.069,0,0,1-3.712-5.017,24.925,24.925,0,0,0,5.162-6.96l-1.74-1.276a31.333,31.333,0,0,1-1.972,3.175,24.807,24.807,0,0,1-2.32,2.857,33.614,33.614,0,0,1-1.421-6.525l8.613-1.276-0.29-2.146-8.555,1.3-0.261-4.176v-3.335h-2.291q-0.03,2.436.232,7.83l-4.089.609,0.29,2.088,4.089-.58a38.552,38.552,0,0,0,.725,3.973,33.447,33.447,0,0,0,1.1,3.8,26.275,26.275,0,0,1-7.076,3.915l1.711,1.827a20.324,20.324,0,0,0,2.552-1.2q1.275-.71,3.683-2.392a26.639,26.639,0,0,0,2.523,3.857,6.152,6.152,0,0,0,1.566,1.58,4.572,4.572,0,0,0,1.334.566,1.811,1.811,0,0,0,1.319-.058,2.047,2.047,0,0,0,.682-0.7,13.384,13.384,0,0,0,1.682-4.756Z"/>
</svg>
