<svg xmlns="http://www.w3.org/2000/svg" width="728" height="90" viewBox="0 0 728 90">
  <defs>
    <style>
      .cls-1 {
        fill-rule: evenodd;
      }
    </style>
  </defs>
  <path class="cls-1" d="M49.888,21.386l-1.461,9.486-1.46-9.486H42.243l-0.25,12.135h2.894l0.078-11.234,1.991,11.234h2.936l1.993-11.234,0.078,11.234h2.9L54.606,21.386H49.888Zm-26.81,3.128a1.575,1.575,0,0,1-.012-0.637,0.965,0.965,0,0,1,1.06-.818,1.013,1.013,0,0,1,1.076,1.1v0.751H28.09V24.06c0-2.64-2.271-3.061-3.908-3.061-2.057,0-3.738.715-4.045,2.7a4.393,4.393,0,0,0,.023,1.636c0.5,2.481,4.617,3.2,5.216,4.768a1.638,1.638,0,0,1,.023.9,1.01,1.01,0,0,1-1.131.82,1.053,1.053,0,0,1-1.156-1.1l0-1.168H20v0.928C20,33.185,22.033,34,24.21,34c2.092,0,3.81-.747,4.09-2.778a6.32,6.32,0,0,0-.012-1.986C27.8,26.689,23.408,25.935,23.078,24.514Zm37.659,0.03a1.694,1.694,0,0,1-.01-0.627,0.96,0.96,0,0,1,1.049-.812A1,1,0,0,1,62.837,24.2v0.742h2.855V24.094c0-2.615-2.237-3.025-3.856-3.025-2.039,0-3.705.7-4.01,2.672a4.242,4.242,0,0,0,.028,1.617c0.5,2.453,4.571,3.165,5.162,4.716a1.711,1.711,0,0,1,.021.889,0.991,0.991,0,0,1-1.116.81,1.046,1.046,0,0,1-1.154-1.088V29.52H57.694v0.925c0,2.683,2,3.492,4.164,3.492,2.068,0,3.776-.74,4.05-2.748a6.188,6.188,0,0,0-.02-1.967C65.409,26.705,61.066,25.949,60.737,24.544ZM32.4,21.386L30.252,33.521H33.38L35,22.287l1.578,11.234H39.68L37.544,21.386H32.4ZM96.9,26.71v1.77h1.187v1.756a2.337,2.337,0,0,1-.03.461,1.233,1.233,0,0,1-2.366,0,3.118,3.118,0,0,1-.03-0.461V24.689a2.6,2.6,0,0,1,.053-0.573,1.2,1.2,0,0,1,2.308,0,3.366,3.366,0,0,1,.036.468v0.673h2.916v-0.4a7.677,7.677,0,0,0-.022-0.8c-0.22-2.276-2.009-3-4.061-3s-3.809.727-4.065,3c-0.023.208-.058,0.581-0.058,0.8v5.1a7.314,7.314,0,0,0,.046.8c0.19,2.214,2.021,3,4.069,3s3.879-.785,4.073-3c0.034-.406.038-0.578,0.042-0.8V26.71H96.9Zm-9.873,4.447L84.3,21.386h-4.3V33.394H82.85L82.684,23.312l2.929,10.082h4.121V21.386H86.873ZM76.8,21.386H73.867v8.977a2.254,2.254,0,0,1-.026.461,1.138,1.138,0,0,1-2.217,0,2.049,2.049,0,0,1-.029-0.461V21.386H68.668v8.7c0,0.224.013,0.682,0.026,0.8,0.2,2.267,1.907,3,4.035,3s3.837-.736,4.042-3a6.615,6.615,0,0,0,.025-0.8v-8.7Z"/>
  <path class="cls-1" d="M40.017,43.746a3.982,3.982,0,0,0-3.1-1.364,4.8,4.8,0,0,0-4.79,5.078A4.86,4.86,0,0,0,36.88,52.52a3.955,3.955,0,0,0,3.137-1.482v1.283h2.229v-9.74H40.017v1.165Zm-2.774,6.711a3.017,3.017,0,1,1,2.889-3.031A2.94,2.94,0,0,1,37.243,50.456Zm17.835-6.711a3.986,3.986,0,0,0-3.1-1.364,4.8,4.8,0,0,0-4.789,5.078,4.858,4.858,0,0,0,4.756,5.061,3.955,3.955,0,0,0,3.138-1.482v1.283h2.229v-9.74H55.079v1.165ZM52.3,50.456a3.017,3.017,0,1,1,2.89-3.031A2.939,2.939,0,0,1,52.3,50.456Zm20.809-1.315-2.691-6.56H68.041L72.007,51.8,70.271,56h2.3L78,42.581H75.655Zm-5.318-6.56H65.153l-2.18,3.08-2.2-3.08H58.051l3.5,4.779-3.634,4.961h2.724l2.3-3.247L65.3,52.321h2.725l-3.7-4.945Zm-24.011,9.74h2.245V40H43.783V52.321ZM24.9,47.684h3.848a3.415,3.415,0,0,1-3.485,2.63,4.046,4.046,0,0,1-.082-8.09,3.724,3.724,0,0,1,3.484,2.114l1.981-1.2a6.242,6.242,0,1,0-5.383,9.373,5.834,5.834,0,0,0,5.9-6.094v-0.9H24.9v2.164Z"/>
  <path class="cls-1" d="M19,68.743l2.044-1.663a3.026,3.026,0,0,0,2.637,1.68A1.678,1.678,0,0,0,25.511,67.1c0-1.052-1.219-1.375-2.505-1.782-1.615-.526-3.412-1.171-3.412-3.53a3.706,3.706,0,0,1,3.989-3.547,5.08,5.08,0,0,1,4.038,1.8L25.774,61.48A2.448,2.448,0,0,0,23.6,60.292,1.46,1.46,0,0,0,21.918,61.7c0,0.984,1.154,1.306,2.456,1.748,1.632,0.543,3.478,1.29,3.478,3.665A3.908,3.908,0,0,1,23.7,70.966,5.855,5.855,0,0,1,19,68.743Zm9.823-.119c0-2.121,1.665-3.394,3.165-4.429,1.187-.849,2.274-1.544,2.274-2.495a1.477,1.477,0,0,0-1.648-1.477,2.329,2.329,0,0,0-2.11,1.765l-1.928-1a4.26,4.26,0,0,1,4.055-2.749c2.439,0,3.906,1.527,3.906,3.479,0,1.969-1.566,3.055-3,4.056-1.253.866-2.456,1.646-2.472,2.817h5.423V70.8H28.823V68.624Zm8.29,0.611,1.945-1.493a2.187,2.187,0,0,0,1.9,1.12,1.62,1.62,0,0,0,1.78-1.646,1.809,1.809,0,0,0-2.06-1.714H39.437V63.381h1.236a1.669,1.669,0,0,0,1.912-1.646,1.512,1.512,0,0,0-1.7-1.493,1.9,1.9,0,0,0-1.829,1.188l-1.912-1.018a4.119,4.119,0,0,1,3.709-2.172c2.34,0,3.906,1.341,3.906,3.479a3.214,3.214,0,0,1-1.368,2.664,3.175,3.175,0,0,1,1.582,2.834c0,2.138-1.418,3.75-4.005,3.75A4.7,4.7,0,0,1,37.113,69.235ZM48.6,68.743l2.044-1.663a3.026,3.026,0,0,0,2.637,1.68A1.678,1.678,0,0,0,55.111,67.1c0-1.052-1.22-1.375-2.505-1.782-1.615-.526-3.412-1.171-3.412-3.53a3.706,3.706,0,0,1,3.989-3.547,5.08,5.08,0,0,1,4.038,1.8L55.375,61.48A2.448,2.448,0,0,0,53.2,60.292,1.46,1.46,0,0,0,51.518,61.7c0,0.984,1.154,1.306,2.456,1.748,1.632,0.543,3.478,1.29,3.478,3.665A3.908,3.908,0,0,1,53.3,70.966,5.855,5.855,0,0,1,48.6,68.743Zm9.516-2.885a5.051,5.051,0,0,1,5.011-5.193,4.888,4.888,0,0,1,4.961,5.108v0.866H60.243a2.989,2.989,0,0,0,5.637.594l1.829,1.086A4.864,4.864,0,0,1,63.21,71,4.966,4.966,0,0,1,58.117,65.858Zm2.241-1.137H65.83a2.573,2.573,0,0,0-2.7-2.036A2.865,2.865,0,0,0,60.358,64.721Zm8.751-3.852h2.209v1.476a2.455,2.455,0,0,1,2.472-1.476,3.318,3.318,0,0,1,1.7.424l-0.841,2.172a2.211,2.211,0,0,0-1.335-.39c-1.286,0-1.978.713-1.978,2.427V70.8H69.109V60.869ZM77.294,57a1.434,1.434,0,0,1,0,2.868,1.313,1.313,0,0,1-1.4-1.425A1.335,1.335,0,0,1,77.294,57Zm-1.121,3.869h2.242V70.8H76.174V60.869Zm3.247,4.989a5.051,5.051,0,0,1,5.011-5.193,4.888,4.888,0,0,1,4.961,5.108v0.866H81.546a2.989,2.989,0,0,0,5.637.594l1.829,1.086A4.864,4.864,0,0,1,84.513,71,4.966,4.966,0,0,1,79.42,65.858Zm2.242-1.137h5.472a2.573,2.573,0,0,0-2.7-2.036A2.865,2.865,0,0,0,81.662,64.721Zm8.1,3.869,2.06-1.018a2.507,2.507,0,0,0,2.324,1.442c1.088,0,1.648-.56,1.648-1.2,0-.713-1.072-0.883-2.258-1.137-1.665-.339-3.379-0.916-3.379-2.987,0-1.6,1.483-3.055,3.791-3.038A4.266,4.266,0,0,1,97.885,62.7l-1.9.985a2.269,2.269,0,0,0-2.044-1.137c-1.055,0-1.549.509-1.549,1.069,0,0.662.775,0.831,2.209,1.154,1.582,0.339,3.4.9,3.4,2.987,0,1.392-1.2,3.258-3.956,3.241A4.363,4.363,0,0,1,89.759,68.59Z"/>
</svg>
