<svg xmlns="http://www.w3.org/2000/svg" width="300" height="600" viewBox="0 0 300 600">
  <defs>
    <style>
      .cls-1 {
        fill: #4b286d;
        fill-rule: evenodd;
      }
    </style>
  </defs>
  <path id="By_giving_back_hum_bana_rahe_hain_communities_ko_stronger._" data-name="By giving back, hum bana rahe hain communities ko stronger. " class="cls-1" d="M59.925,97.27a5.531,5.531,0,0,0,3.095-5.136c0-3.325-2.272-6.124-7.144-6.124H46.13v23.441H56.369c5,0,7.605-2.634,7.605-6.584A5.719,5.719,0,0,0,59.925,97.27Zm-4.247-8.757c3.128,0,4.642,1.514,4.642,3.72,0,2.5-1.514,4.017-4.642,4.017H48.9V88.512h6.782Zm0.56,18.437H48.9V98.718H56.2c3.128,0,5,1.284,5,4.149C61.209,105.4,59.53,106.949,56.237,106.949Zm21.15-14.486-2.4,7.046c-0.856,2.469-1.679,4.939-2.436,7.374-0.79-2.436-1.58-4.872-2.436-7.342l-2.4-7.078h-2.9L71.2,110.011c-0.2.527-.4,1.086-0.593,1.58a2.976,2.976,0,0,1-3.095,2.107H65.963V115.9a13.1,13.1,0,0,0,1.58.1c2.7,0,4.445-.889,5.531-3.885l7.177-19.655H77.388Zm24.162,0v2.469a6.857,6.857,0,0,0-5.828-2.864c-4.774,0-7.9,3.457-7.9,8.889s3.128,8.889,7.9,8.889a6.864,6.864,0,0,0,5.7-2.7v1.646c0,3.522-1.877,5.267-5.268,5.267-2.667,0-4.28-1.086-4.609-3.226H88.907c0.362,3.292,2.9,5.465,7.243,5.465,5.367,0,7.9-3.1,7.9-7.506V92.463h-2.5Zm-5.5,15.013c-3.292,0-5.465-2.535-5.465-6.519s2.173-6.519,5.465-6.519,5.465,2.4,5.465,6.519S99.344,107.476,96.052,107.476ZM109.06,90.06a1.778,1.778,0,1,0-1.777-1.778A1.792,1.792,0,0,0,109.06,90.06Zm-1.317,19.391h2.634V92.463h-2.634v16.988Zm17.735-16.988L122.68,100c-0.79,2.14-1.679,4.478-2.4,6.618-0.724-2.14-1.613-4.445-2.4-6.585l-2.8-7.572H112.21l6.651,16.988h2.765l6.683-16.988h-2.831Zm6.033-2.4a1.778,1.778,0,1,0-1.778-1.778A1.792,1.792,0,0,0,131.511,90.06Zm-1.317,19.391h2.634V92.463h-2.634v16.988Zm14.083-17.383A6.258,6.258,0,0,0,138.944,95V92.463h-2.5v16.988h2.634V99.838c0-3.753,2.469-5.4,4.675-5.4,2.436,0,3.885,1.152,3.885,3.786v11.226h2.633V97.961C150.269,94.208,148.064,92.068,144.277,92.068Zm22.56,0.4v2.469a6.855,6.855,0,0,0-5.827-2.864c-4.774,0-7.9,3.457-7.9,8.889s3.128,8.889,7.9,8.889a6.862,6.862,0,0,0,5.7-2.7v1.646c0,3.522-1.876,5.267-5.267,5.267-2.667,0-4.28-1.086-4.609-3.226H154.2c0.362,3.292,2.9,5.465,7.243,5.465,5.366,0,7.9-3.1,7.9-7.506V92.463h-2.5Zm-5.5,15.013c-3.292,0-5.465-2.535-5.465-6.519s2.173-6.519,5.465-6.519,5.465,2.4,5.465,6.519S164.631,107.476,161.339,107.476Zm26.532-15.408a6.672,6.672,0,0,0-5.7,2.831V86.01h-2.634v23.441h2.5v-2.634a6.676,6.676,0,0,0,5.827,3.029c4.774,0,7.9-3.457,7.9-8.889S192.645,92.068,187.871,92.068Zm-0.329,15.408c-3.292,0-5.465-2.4-5.465-6.519s2.173-6.519,5.465-6.519,5.465,2.272,5.465,6.387S190.834,107.476,187.542,107.476Zm24.93-.165a0.778,0.778,0,0,1-.921-0.823V97.006c0-2.864-1.68-4.938-6.388-4.938-4.971,0-6.716,2.338-6.913,5.63h2.634c0.164-2.535,1.382-3.358,4.279-3.358s3.82,0.889,3.82,2.667c0,1.514-.955,2.14-2.667,2.338l-2.436.263c-4.676.494-6.289,2.6-6.289,5.268,0,3.193,2.3,4.971,5.992,4.971a6.228,6.228,0,0,0,5.531-2.732c0.132,1.613.988,2.436,2.865,2.436a9.995,9.995,0,0,0,1.448-.1v-2.14h-0.955Zm-8.757.3c-2.338,0-3.391-1.119-3.391-2.8,0-1.646.856-2.7,3.951-3.062l2.469-.3a4.39,4.39,0,0,0,2.239-.724v2.008C208.983,106.093,206.25,107.607,203.715,107.607Zm18.626,2.239a7.006,7.006,0,0,0,7.308-6.222h-2.7a4.463,4.463,0,0,1-4.609,3.852c-2.832,0-5.1-2.074-5.1-6.519s2.205-6.519,5.1-6.519a4.423,4.423,0,0,1,4.576,3.786h2.732c-0.526-3.753-3.259-6.157-7.308-6.157-4.708,0-7.869,3.424-7.869,8.889S217.7,109.846,222.341,109.846Zm21.328-.4h3.062l-6.914-10.864,6.453-6.124h-3.49l-7.868,7.605V86.01h-2.634v23.441h2.634v-6.288l3.029-2.831Zm6.356-3.292a1.766,1.766,0,0,0-1.844,1.778,1.715,1.715,0,0,0,1.844,1.712h0.2c-0.132,1.646-.79,2.271-1.811,2.568l-0.23.065v1.745l0.329-.065c2.14-.428,3.688-1.877,3.688-5.005C252.2,107.147,251.374,106.159,250.025,106.159ZM54.032,131.571a6.259,6.259,0,0,0-5.2,2.732v-8.79H46.2v23.441H48.83v-9.613c0-3.754,2.469-5.4,4.675-5.4,2.436,0,3.885,1.152,3.885,3.786v11.227h2.634v-11.49C60.023,133.711,57.818,131.571,54.032,131.571Zm20.749,0.4v9.613c0,3.753-2.469,5.4-4.675,5.4-2.436,0-3.885-1.153-3.885-3.787V131.966H63.587v11.49c0,3.753,2.206,5.893,5.992,5.893a6.258,6.258,0,0,0,5.334-2.93v2.535h2.5V131.966H74.781Zm24.183-.4a5.868,5.868,0,0,0-5.235,3.193,5.32,5.32,0,0,0-5.235-3.193,5.457,5.457,0,0,0-4.906,2.9v-2.5h-2.5v16.988H83.72V139.67c0-4.083,2.272-5.729,4.346-5.729,2.206,0,3.556,1.12,3.556,3.753v11.26h2.634V139.67c0-4.083,2.206-5.729,4.346-5.729,2.239,0,3.556,1.12,3.556,3.753v11.26h2.634V137.431C104.791,134.139,102.914,131.571,98.963,131.571Zm24.359,0a6.673,6.673,0,0,0-5.7,2.831v-8.889h-2.634v23.441h2.5V146.32a6.678,6.678,0,0,0,5.828,3.029c4.774,0,7.9-3.457,7.9-8.889S128.1,131.571,123.322,131.571Zm-0.329,15.408c-3.293,0-5.466-2.4-5.466-6.519s2.173-6.519,5.466-6.519,5.465,2.272,5.465,6.387S126.285,146.979,122.993,146.979Zm24.93-.165a0.779,0.779,0,0,1-.922-0.823v-9.482c0-2.864-1.679-4.938-6.387-4.938-4.971,0-6.716,2.337-6.914,5.63h2.634c0.165-2.536,1.383-3.359,4.28-3.359s3.819,0.889,3.819,2.667c0,1.515-.955,2.14-2.667,2.338l-2.436.263c-4.675.494-6.288,2.6-6.288,5.268,0,3.193,2.3,4.971,5.992,4.971a6.228,6.228,0,0,0,5.531-2.733c0.131,1.614.987,2.437,2.864,2.437a10,10,0,0,0,1.449-.1v-2.14h-0.955Zm-8.758.3c-2.337,0-3.391-1.119-3.391-2.8,0-1.646.856-2.7,3.951-3.062l2.469-.3a4.377,4.377,0,0,0,2.239-.725v2.009C144.433,145.6,141.7,147.11,139.165,147.11Zm19.676-15.539a6.258,6.258,0,0,0-5.333,2.93v-2.535h-2.5v16.988h2.633v-9.613c0-3.754,2.47-5.4,4.675-5.4,2.437,0,3.885,1.152,3.885,3.786v11.227h2.634v-11.49C164.833,133.711,162.627,131.571,158.841,131.571Zm23.577,15.243a0.779,0.779,0,0,1-.922-0.823v-9.482c0-2.864-1.679-4.938-6.387-4.938-4.971,0-6.716,2.337-6.913,5.63h2.633c0.165-2.536,1.383-3.359,4.28-3.359s3.819,0.889,3.819,2.667c0,1.515-.954,2.14-2.666,2.338l-2.437.263c-4.675.494-6.288,2.6-6.288,5.268,0,3.193,2.305,4.971,5.992,4.971a6.226,6.226,0,0,0,5.531-2.733c0.132,1.614.988,2.437,2.864,2.437a10,10,0,0,0,1.449-.1v-2.14h-0.955Zm-8.757.3c-2.338,0-3.391-1.119-3.391-2.8,0-1.646.856-2.7,3.95-3.062l2.47-.3a4.373,4.373,0,0,0,2.238-.725v2.009C178.928,145.6,176.2,147.11,173.661,147.11ZM199.9,131.7a5.933,5.933,0,0,0-5.465,3.26v-3h-2.5v16.988h2.634v-9.679c0-3.293,2.172-5,5.564-5h0.658v-2.535C200.424,131.7,200.16,131.7,199.9,131.7Zm16.9,15.112a0.779,0.779,0,0,1-.922-0.823v-9.482c0-2.864-1.679-4.938-6.387-4.938-4.971,0-6.716,2.337-6.913,5.63h2.633c0.165-2.536,1.383-3.359,4.28-3.359s3.819,0.889,3.819,2.667c0,1.515-.954,2.14-2.666,2.338l-2.437.263c-4.675.494-6.288,2.6-6.288,5.268,0,3.193,2.305,4.971,5.992,4.971a6.226,6.226,0,0,0,5.531-2.733c0.132,1.614.988,2.437,2.864,2.437a10,10,0,0,0,1.449-.1v-2.14H216.8Zm-8.757.3c-2.338,0-3.391-1.119-3.391-2.8,0-1.646.856-2.7,3.95-3.062l2.47-.3a4.373,4.373,0,0,0,2.238-.725v2.009C213.311,145.6,210.579,147.11,208.044,147.11Zm19.676-15.539a6.258,6.258,0,0,0-5.2,2.732v-8.79h-2.634v23.441h2.634v-9.613c0-3.754,2.469-5.4,4.675-5.4,2.436,0,3.885,1.152,3.885,3.786v11.227h2.634v-11.49C233.712,133.711,231.506,131.571,227.72,131.571Zm24.413,8.889c0-4.873-2.733-8.889-7.8-8.889-4.708,0-7.835,3.555-7.835,8.889,0,5.5,3.259,8.889,7.9,8.889a7.086,7.086,0,0,0,7.309-5.564h-2.733a4.363,4.363,0,0,1-4.51,3.161c-2.963,0-4.971-1.745-5.235-5.564h12.906V140.46Zm-7.8-6.486c3.029,0,4.708,2.239,4.972,5.037H239.293C239.721,135.653,241.664,133.974,244.33,133.974Zm-208.055,37.1a6.259,6.259,0,0,0-5.2,2.732v-8.79H28.439v23.441h2.634v-9.614c0-3.753,2.469-5.4,4.675-5.4,2.436,0,3.885,1.152,3.885,3.786v11.227h2.634v-11.49C42.267,173.214,40.061,171.074,36.275,171.074Zm23.577,15.243a0.779,0.779,0,0,1-.922-0.823v-9.482c0-2.864-1.679-4.938-6.387-4.938-4.971,0-6.716,2.337-6.914,5.629h2.634c0.165-2.535,1.383-3.358,4.28-3.358s3.819,0.889,3.819,2.667c0,1.514-.955,2.14-2.667,2.338l-2.436.263c-4.675.494-6.288,2.6-6.288,5.268,0,3.193,2.3,4.971,5.992,4.971a6.226,6.226,0,0,0,5.531-2.733c0.132,1.614.988,2.437,2.864,2.437a9.995,9.995,0,0,0,1.449-.1v-2.14H59.852Zm-8.757.3c-2.338,0-3.391-1.119-3.391-2.8,0-1.646.856-2.7,3.951-3.062l2.469-.3a4.386,4.386,0,0,0,2.239-.725v2.009C56.362,185.1,53.63,186.613,51.095,186.613ZM64.16,169.065a1.778,1.778,0,1,0-1.778-1.778A1.792,1.792,0,0,0,64.16,169.065Zm-1.317,19.392h2.634V171.469H62.843v16.988Zm14.084-17.383A6.259,6.259,0,0,0,71.593,174v-2.535h-2.5v16.988h2.634v-9.614c0-3.753,2.469-5.4,4.675-5.4,2.436,0,3.885,1.152,3.885,3.786v11.227h2.634v-11.49C82.918,173.214,80.712,171.074,76.926,171.074Zm23.24,17.778a7.007,7.007,0,0,0,7.309-6.223h-2.7a4.463,4.463,0,0,1-4.61,3.852c-2.831,0-5.1-2.074-5.1-6.518s2.206-6.519,5.1-6.519a4.424,4.424,0,0,1,4.577,3.786h2.732c-0.527-3.753-3.259-6.156-7.309-6.156-4.708,0-7.868,3.424-7.868,8.889S95.524,188.852,100.166,188.852Zm17.24,0c4.774,0,8.231-3.457,8.231-8.889s-3.457-8.889-8.231-8.889-8.231,3.456-8.231,8.889S112.632,188.852,117.406,188.852Zm0-2.371c-3.292,0-5.465-2.4-5.465-6.518s2.173-6.519,5.465-6.519,5.465,2.4,5.465,6.519S120.7,186.481,117.406,186.481Zm28.947-15.407a5.866,5.866,0,0,0-5.235,3.193,5.319,5.319,0,0,0-5.235-3.193,5.456,5.456,0,0,0-4.905,2.9v-2.5h-2.5v16.988h2.633v-9.284c0-4.083,2.272-5.729,4.346-5.729,2.206,0,3.556,1.119,3.556,3.753v11.26h2.634v-9.284c0-4.083,2.206-5.729,4.345-5.729,2.239,0,3.556,1.119,3.556,3.753v11.26h2.634V176.934C152.18,173.642,150.3,171.074,146.353,171.074Zm27.385,0a5.868,5.868,0,0,0-5.235,3.193,5.319,5.319,0,0,0-5.235-3.193,5.457,5.457,0,0,0-4.905,2.9v-2.5h-2.5v16.988H158.5v-9.284c0-4.083,2.271-5.729,4.345-5.729,2.206,0,3.556,1.119,3.556,3.753v11.26h2.634v-9.284c0-4.083,2.206-5.729,4.346-5.729,2.238,0,3.555,1.119,3.555,3.753v11.26h2.634V176.934C179.565,173.642,177.689,171.074,173.738,171.074Zm20.619,0.395v9.613c0,3.753-2.469,5.4-4.675,5.4-2.436,0-3.884-1.152-3.884-3.786V171.469h-2.634v11.49c0,3.753,2.206,5.893,5.992,5.893a6.258,6.258,0,0,0,5.333-2.93v2.535h2.5V171.469h-2.634Zm14.142-.395a6.259,6.259,0,0,0-5.334,2.93v-2.535h-2.5v16.988H203.3v-9.614c0-3.753,2.469-5.4,4.675-5.4,2.436,0,3.885,1.152,3.885,3.786v11.227h2.634v-11.49C214.491,173.214,212.285,171.074,208.5,171.074Zm10.915-2.009a1.778,1.778,0,1,0-1.778-1.778A1.792,1.792,0,0,0,219.414,169.065ZM218.1,188.457h2.634V171.469H218.1v16.988Zm13.544-14.684v-2.3h-3.49v-4.807h-2.634v4.807h-2.8v2.3h2.8v11.26c0,2.6,1.613,3.523,4.247,3.523q0.79,0,1.877-.1v-2.206h-1.548c-1.514,0-1.942-.56-1.942-1.449V173.773h3.49Zm3.5-4.708a1.778,1.778,0,1,0-1.778-1.778A1.791,1.791,0,0,0,235.136,169.065Zm-1.317,19.392h2.633V171.469h-2.633v16.988Zm20.981-8.494c0-4.873-2.733-8.889-7.8-8.889-4.708,0-7.836,3.555-7.836,8.889,0,5.5,3.26,8.889,7.9,8.889a7.089,7.089,0,0,0,7.309-5.564h-2.733a4.365,4.365,0,0,1-4.51,3.161c-2.964,0-4.972-1.745-5.235-5.564H254.8v-0.922Zm-7.8-6.486c3.029,0,4.708,2.239,4.971,5.037H241.96C242.388,175.156,244.33,173.477,247,173.477Zm16.637,15.375c4.181,0,6.749-1.844,6.749-5.07,0-2.766-1.679-4.181-5.86-5l-1.515-.3c-2.172-.428-3.424-1.02-3.424-2.634,0-1.58,1.284-2.5,3.556-2.5,2.6,0,4.148.725,4.28,3.358h2.634c-0.066-3.621-2.371-5.629-6.914-5.629-3.885,0-6.189,1.909-6.189,4.806,0,2.634,1.613,4.313,5.3,5l1.58,0.3c2.964,0.56,3.885,1.251,3.885,2.765,0,1.679-1.218,2.634-4.082,2.634-3,0-4.247-.955-4.543-3.523h-2.667C256.687,187.041,259.321,188.852,263.634,188.852ZM80.012,227.96h3.062L76.16,217.1l6.453-6.124h-3.49l-7.869,7.606V204.519H68.621V227.96h2.634v-6.289l3.029-2.831Zm11.343,0.395c4.774,0,8.231-3.457,8.231-8.889s-3.457-8.89-8.231-8.89-8.231,3.457-8.231,8.89S86.581,228.355,91.355,228.355Zm0-2.371c-3.292,0-5.465-2.4-5.465-6.518s2.173-6.519,5.465-6.519,5.465,2.4,5.465,6.519S94.647,225.984,91.355,225.984Zm23.6,2.371c4.181,0,6.749-1.844,6.749-5.07,0-2.766-1.679-4.182-5.86-5l-1.514-.3c-2.173-.428-3.424-1.021-3.424-2.634,0-1.58,1.284-2.5,3.555-2.5,2.6,0,4.149.724,4.28,3.358h2.634c-0.066-3.621-2.37-5.63-6.914-5.63-3.884,0-6.189,1.91-6.189,4.807,0,2.634,1.613,4.313,5.3,5l1.581,0.3c2.963,0.559,3.885,1.251,3.885,2.765,0,1.679-1.218,2.634-4.083,2.634-3,0-4.247-.955-4.543-3.523h-2.667C108.011,226.544,110.644,228.355,114.957,228.355Zm16.7-15.079v-2.305h-3.489v-4.806h-2.634v4.806h-2.8v2.305h2.8v11.26c0,2.6,1.613,3.522,4.247,3.522q0.791,0,1.876-.1v-2.206h-1.547c-1.514,0-1.942-.56-1.942-1.449V213.276h3.489Zm10.241-2.568a5.934,5.934,0,0,0-5.465,3.259v-3h-2.5V227.96h2.634v-9.68c0-3.292,2.173-5,5.564-5h0.658v-2.535C142.428,210.708,142.165,210.708,141.9,210.708Zm10.089,17.647c4.774,0,8.231-3.457,8.231-8.889s-3.457-8.89-8.231-8.89-8.23,3.457-8.23,8.89S147.217,228.355,151.99,228.355Zm0-2.371c-3.292,0-5.465-2.4-5.465-6.518s2.173-6.519,5.465-6.519,5.466,2.4,5.466,6.519S155.283,225.984,151.99,225.984ZM170.9,210.576a6.259,6.259,0,0,0-5.334,2.931v-2.536h-2.5V227.96h2.634v-9.614c0-3.753,2.469-5.4,4.675-5.4,2.436,0,3.885,1.152,3.885,3.786V227.96h2.634V216.47C176.888,212.716,174.682,210.576,170.9,210.576Zm22.559,0.4v2.47a6.856,6.856,0,0,0-5.827-2.865c-4.774,0-7.9,3.457-7.9,8.89s3.127,8.889,7.9,8.889a6.866,6.866,0,0,0,5.7-2.7V227.3c0,3.523-1.877,5.268-5.268,5.268-2.667,0-4.28-1.087-4.609-3.227h-2.634c0.362,3.293,2.9,5.466,7.243,5.466,5.366,0,7.9-3.095,7.9-7.507v-16.33h-2.5Zm-5.5,15.013c-3.292,0-5.465-2.535-5.465-6.518s2.173-6.519,5.465-6.519,5.465,2.4,5.465,6.519S191.25,225.984,187.957,225.984Zm26.534-6.518c0-4.873-2.733-8.89-7.8-8.89-4.708,0-7.836,3.556-7.836,8.89,0,5.5,3.26,8.889,7.9,8.889a7.088,7.088,0,0,0,7.309-5.564H211.33a4.364,4.364,0,0,1-4.51,3.16c-2.963,0-4.972-1.745-5.235-5.564h12.906v-0.921Zm-7.8-6.486c3.029,0,4.708,2.239,4.971,5.037H201.651C202.079,214.659,204.021,212.98,206.688,212.98Zm18.609-2.272a5.934,5.934,0,0,0-5.465,3.259v-3h-2.5V227.96h2.634v-9.68c0-3.292,2.173-5,5.564-5h0.658v-2.535C225.824,210.708,225.561,210.708,225.3,210.708ZM227.5,228.19a1.891,1.891,0,0,0,1.876-1.942,1.928,1.928,0,0,0-3.852,0A1.894,1.894,0,0,0,227.5,228.19Z"/>
</svg>
