<svg xmlns="http://www.w3.org/2000/svg" width="300" height="600" viewBox="0 0 300 600">
  <defs>
    <style>
      .cls-1 {
        fill: #4b286d;
        fill-rule: evenodd;
      }
    </style>
  </defs>
  <path id="Last_year_alone_we_gave_125_million." data-name="Last year alone, we gave   $125 million." class="cls-1" d="M46.27,125.949V105.01H43.5v23.441H58.056v-2.5H46.27Zm28.2,0.362a0.779,0.779,0,0,1-.922-0.823v-9.482c0-2.864-1.679-4.938-6.387-4.938-4.971,0-6.716,2.337-6.914,5.63h2.634c0.165-2.535,1.383-3.358,4.28-3.358s3.819,0.888,3.819,2.666c0,1.515-.955,2.14-2.667,2.338l-2.436.263c-4.675.494-6.288,2.6-6.288,5.268,0,3.193,2.3,4.971,5.992,4.971a6.228,6.228,0,0,0,5.531-2.732c0.132,1.613.988,2.436,2.864,2.436a9.995,9.995,0,0,0,1.449-.1v-2.14H74.466Zm-8.757.3c-2.338,0-3.391-1.119-3.391-2.8,0-1.646.856-2.7,3.951-3.062l2.469-.3a4.385,4.385,0,0,0,2.239-.724v2.008C70.976,125.093,68.244,126.607,65.709,126.607Zm17.944,2.239c4.181,0,6.749-1.843,6.749-5.07,0-2.765-1.679-4.181-5.86-5l-1.514-.3c-2.173-.428-3.424-1.021-3.424-2.634,0-1.581,1.284-2.5,3.556-2.5,2.6,0,4.148.724,4.28,3.358h2.634c-0.066-3.622-2.37-5.63-6.914-5.63-3.885,0-6.19,1.909-6.19,4.807,0,2.633,1.613,4.313,5.3,5l1.58,0.3c2.963,0.56,3.885,1.251,3.885,2.766,0,1.679-1.218,2.634-4.082,2.634-3,0-4.247-.955-4.543-3.523H76.443C76.706,127.035,79.34,128.846,83.653,128.846Zm16.7-15.078v-2.305h-3.49v-4.807H94.232v4.807h-2.8v2.305h2.8v11.259c0,2.6,1.613,3.523,4.247,3.523q0.79,0,1.877-.1v-2.206H98.809c-1.514,0-1.942-.559-1.942-1.448V113.768h3.49Zm19.817-2.305-2.4,7.045c-0.856,2.47-1.679,4.939-2.436,7.375-0.79-2.436-1.58-4.872-2.436-7.342l-2.4-7.078h-2.9l6.387,17.548c-0.2.527-.4,1.086-0.592,1.58A2.976,2.976,0,0,1,110.3,132.7h-1.548V134.9a13.117,13.117,0,0,0,1.581.1c2.7,0,4.444-.889,5.531-3.885l7.177-19.655h-2.864Zm18.9,8.494c0-4.873-2.733-8.889-7.8-8.889-4.708,0-7.835,3.556-7.835,8.889,0,5.5,3.259,8.889,7.9,8.889a7.086,7.086,0,0,0,7.309-5.564h-2.733a4.363,4.363,0,0,1-4.51,3.161c-2.963,0-4.971-1.745-5.235-5.564h12.906v-0.922Zm-7.8-6.486c3.029,0,4.708,2.239,4.972,5.037H126.235C126.663,115.15,128.6,113.471,131.272,113.471Zm24.417,12.84a0.779,0.779,0,0,1-.922-0.823v-9.482c0-2.864-1.679-4.938-6.387-4.938-4.971,0-6.716,2.337-6.914,5.63H144.1c0.165-2.535,1.383-3.358,4.28-3.358s3.819,0.888,3.819,2.666c0,1.515-.955,2.14-2.667,2.338l-2.436.263c-4.675.494-6.288,2.6-6.288,5.268,0,3.193,2.3,4.971,5.992,4.971a6.228,6.228,0,0,0,5.531-2.732c0.132,1.613.988,2.436,2.864,2.436a10,10,0,0,0,1.449-.1v-2.14h-0.955Zm-8.757.3c-2.338,0-3.392-1.119-3.392-2.8,0-1.646.856-2.7,3.951-3.062l2.469-.3a4.386,4.386,0,0,0,2.239-.724v2.008C152.2,125.093,149.467,126.607,146.932,126.607ZM166.739,111.2a5.933,5.933,0,0,0-5.465,3.259v-3h-2.5v16.988h2.634v-9.679c0-3.292,2.172-5,5.564-5h0.658v-2.535C167.266,111.2,167,111.2,166.739,111.2Zm23.833,15.111a0.778,0.778,0,0,1-.921-0.823v-9.482c0-2.864-1.68-4.938-6.388-4.938-4.971,0-6.716,2.337-6.913,5.63h2.634c0.164-2.535,1.382-3.358,4.279-3.358s3.82,0.888,3.82,2.666c0,1.515-.955,2.14-2.667,2.338l-2.437.263c-4.675.494-6.288,2.6-6.288,5.268,0,3.193,2.305,4.971,5.992,4.971a6.228,6.228,0,0,0,5.531-2.732c0.132,1.613.988,2.436,2.865,2.436a9.995,9.995,0,0,0,1.448-.1v-2.14h-0.955Zm-8.757.3c-2.338,0-3.391-1.119-3.391-2.8,0-1.646.856-2.7,3.951-3.062l2.469-.3a4.39,4.39,0,0,0,2.239-.724v2.008C187.083,125.093,184.35,126.607,181.815,126.607Zm15.491,1.943a16.686,16.686,0,0,0,1.679-.1v-2.206h-1.251c-1.251,0-1.613-.559-1.613-1.448V105.01h-2.634v20.017C193.487,127.628,194.936,128.55,197.306,128.55Zm10.492,0.3c4.774,0,8.231-3.457,8.231-8.889s-3.457-8.889-8.231-8.889-8.231,3.457-8.231,8.889S203.024,128.846,207.8,128.846Zm0-2.37c-3.292,0-5.465-2.4-5.465-6.519s2.173-6.519,5.465-6.519,5.465,2.4,5.465,6.519S211.09,126.476,207.8,126.476ZM226.7,111.068A6.258,6.258,0,0,0,221.37,114v-2.535h-2.5v16.988H221.5v-9.613c0-3.754,2.47-5.4,4.675-5.4,2.437,0,3.885,1.153,3.885,3.786v11.227H232.7v-11.49C232.7,113.208,230.489,111.068,226.7,111.068Zm24.413,8.889c0-4.873-2.732-8.889-7.8-8.889-4.708,0-7.836,3.556-7.836,8.889,0,5.5,3.26,8.889,7.9,8.889a7.088,7.088,0,0,0,7.309-5.564h-2.733a4.364,4.364,0,0,1-4.511,3.161c-2.963,0-4.971-1.745-5.234-5.564h12.905v-0.922Zm-7.8-6.486c3.029,0,4.708,2.239,4.971,5.037H238.277C238.705,115.15,240.647,113.471,243.314,113.471Zm11.336,11.688a1.766,1.766,0,0,0-1.843,1.778,1.715,1.715,0,0,0,1.843,1.712h0.2c-0.132,1.646-.79,2.271-1.811,2.568l-0.23.065v1.745l0.329-.065c2.14-.428,3.687-1.877,3.687-5C256.823,126.147,256,125.159,254.65,125.159ZM113.486,150.966l-2.4,7.671c-0.626,2.041-1.251,4.082-1.811,6.123-0.592-2.041-1.218-4.082-1.843-6.123l-2.371-7.671h-2.765l-2.371,7.671c-0.659,2.074-1.251,4.115-1.811,6.189-0.593-2.074-1.185-4.115-1.844-6.189l-2.4-7.671H91.033L96.7,167.954h2.765l2.469-7.869c0.593-1.876,1.186-3.852,1.745-5.761,0.527,1.909,1.12,3.885,1.712,5.761l2.5,7.869h2.765l5.663-16.988h-2.832Zm18.971,8.494c0-4.873-2.733-8.889-7.8-8.889-4.708,0-7.835,3.555-7.835,8.889,0,5.5,3.259,8.889,7.9,8.889a7.086,7.086,0,0,0,7.309-5.564H129.3a4.363,4.363,0,0,1-4.51,3.161c-2.963,0-4.971-1.745-5.235-5.564h12.906V159.46Zm-7.8-6.486c3.029,0,4.708,2.239,4.972,5.037H119.617C120.045,154.653,121.988,152.974,124.654,152.974Zm30.088-2.008v2.469a6.855,6.855,0,0,0-5.827-2.864c-4.774,0-7.9,3.457-7.9,8.889s3.127,8.889,7.9,8.889a6.866,6.866,0,0,0,5.7-2.7V167.3c0,3.522-1.877,5.267-5.268,5.267-2.667,0-4.28-1.086-4.609-3.226H142.1c0.362,3.292,2.9,5.465,7.243,5.465,5.367,0,7.9-3.095,7.9-7.506v-16.33h-2.5Zm-5.5,15.013c-3.292,0-5.465-2.535-5.465-6.519s2.173-6.519,5.465-6.519,5.466,2.4,5.466,6.519S152.537,165.979,149.244,165.979Zm25.642-.165a0.779,0.779,0,0,1-.922-0.823v-9.482c0-2.864-1.679-4.938-6.387-4.938-4.972,0-6.716,2.337-6.914,5.63H163.3c0.164-2.536,1.383-3.359,4.28-3.359s3.819,0.889,3.819,2.667c0,1.515-.955,2.14-2.667,2.338l-2.436.263c-4.675.494-6.288,2.6-6.288,5.268,0,3.193,2.3,4.971,5.991,4.971a6.225,6.225,0,0,0,5.531-2.733c0.132,1.614.988,2.437,2.865,2.437a9.985,9.985,0,0,0,1.448-.1v-2.14h-0.954Zm-8.758.3c-2.337,0-3.391-1.119-3.391-2.8,0-1.646.856-2.7,3.951-3.062l2.469-.3a4.377,4.377,0,0,0,2.239-.725v2.009C171.4,164.6,168.663,166.11,166.128,166.11Zm22.54-15.144-2.8,7.539c-0.79,2.14-1.679,4.478-2.4,6.618-0.725-2.14-1.614-4.445-2.4-6.585l-2.8-7.572H175.4l6.65,16.988h2.765l6.684-16.988h-2.832Zm18.817,8.494c0-4.873-2.733-8.889-7.8-8.889-4.708,0-7.835,3.555-7.835,8.889,0,5.5,3.259,8.889,7.9,8.889a7.086,7.086,0,0,0,7.309-5.564h-2.733a4.363,4.363,0,0,1-4.51,3.161c-2.963,0-4.971-1.745-5.235-5.564h12.906V159.46Zm-7.8-6.486c3.029,0,4.708,2.239,4.972,5.037H194.645C195.073,154.653,197.016,152.974,199.682,152.974ZM87.137,201.1c0-3.391-1.91-5.5-7.309-6.684l-0.691-.164V186.09c3.292,0.428,4.379,2.14,4.576,4.741h2.831c-0.1-3.49-1.877-6.716-7.408-7.243V180.2h-2.3v3.292c-4.543.2-7.44,2.5-7.44,6.124,0,4.28,3.128,5.893,7.111,6.782l0.329,0.066v8.922c-3.062-.33-5.3-1.91-5.366-5.663H68.6c0.066,5.333,3.424,7.8,8.231,8.2v3.358h2.3v-3.325C84.272,207.72,87.137,205.053,87.137,201.1Zm-14.881-11.49c0-2.074,1.547-3.457,4.576-3.622v7.737C73.177,192.806,72.256,191.687,72.256,189.613Zm6.881,15.836v-8.462c3.72,0.889,5.136,1.976,5.136,4.116C84.272,203.8,82.4,205.251,79.136,205.449Zm17.746-21.433H94.644c-0.593,2.831-2.3,3.555-5.334,3.753l-0.527.033v2.173h5.333v17.482h2.766V184.016Zm6.365,20.939c0.2-2.6,1.515-4.017,4.215-5.6l2.5-1.449c3.753-2.173,5.333-4.642,5.333-7.638,0-3.984-3.029-6.782-7.473-6.782-4.84,0-7.77,2.7-7.7,7.539h2.732c0-3.588,1.976-5.037,4.906-5.037,3,0,4.642,1.811,4.642,4.28s-1.284,3.951-4.115,5.6l-2.963,1.712a9.6,9.6,0,0,0-5.1,8.593l-0.066,1.284h15.473v-2.5H103.248ZM125.3,192.181a6.691,6.691,0,0,0-4.444,1.712l1.119-7.375h9.877v-2.5H119.737l-1.975,13.5h2.568a4.9,4.9,0,0,1,4.807-2.831,5.4,5.4,0,0,1,0,10.8,4.943,4.943,0,0,1-5.2-4.543h-2.766c0.264,4.214,3.424,7.046,7.968,7.046,5.07,0,8.131-3.457,8.131-7.9S130.437,192.181,125.3,192.181Zm35.389-2.107a5.866,5.866,0,0,0-5.235,3.193,5.319,5.319,0,0,0-5.235-3.193,5.456,5.456,0,0,0-4.905,2.9v-2.5h-2.5v16.988h2.633v-9.284c0-4.083,2.272-5.729,4.346-5.729,2.206,0,3.556,1.119,3.556,3.753v11.26h2.634v-9.284c0-4.083,2.205-5.729,4.345-5.729,2.239,0,3.556,1.119,3.556,3.753v11.26h2.634V195.934C166.517,192.642,164.64,190.074,160.69,190.074Zm10.782-2.009a1.778,1.778,0,1,0-1.778-1.778A1.792,1.792,0,0,0,171.472,188.065Zm-1.317,19.392h2.634V190.469h-2.634v16.988Zm10.008,0.1a16.7,16.7,0,0,0,1.679-.1v-2.206h-1.251c-1.251,0-1.614-.56-1.614-1.449V184.016h-2.633v20.017C176.344,206.634,177.792,207.556,180.163,207.556Zm7.374,0a16.719,16.719,0,0,0,1.679-.1v-2.206h-1.251c-1.252,0-1.614-.56-1.614-1.449V184.016h-2.633v20.017C183.718,206.634,185.166,207.556,187.537,207.556Zm4.907-19.491a1.778,1.778,0,1,0-1.777-1.778A1.792,1.792,0,0,0,192.444,188.065Zm-1.316,19.392h2.633V190.469h-2.633v16.988Zm13.573,0.4c4.774,0,8.231-3.457,8.231-8.889s-3.457-8.889-8.231-8.889-8.231,3.456-8.231,8.889S199.927,207.852,204.7,207.852Zm0-2.371c-3.292,0-5.465-2.4-5.465-6.518s2.173-6.519,5.465-6.519,5.465,2.4,5.465,6.519S207.993,205.481,204.7,205.481Zm18.905-15.407a6.258,6.258,0,0,0-5.333,2.93v-2.535h-2.5v16.988H218.4v-9.614c0-3.753,2.469-5.4,4.675-5.4,2.437,0,3.885,1.152,3.885,3.786v11.227H229.6v-11.49C229.6,192.214,227.392,190.074,223.606,190.074Zm11.182,17.613a1.891,1.891,0,0,0,1.876-1.942,1.928,1.928,0,0,0-3.852,0A1.894,1.894,0,0,0,234.788,207.687Z"/>
</svg>
