<svg xmlns="http://www.w3.org/2000/svg" width="320" height="50" viewBox="0 0 640 100">
  <defs>
    <style>
      .cls-1 {
        fill: #4b286d;
        fill-rule: evenodd;
      }
    </style>
  </defs>
  <path id="數據不夠_全家不高興_" data-name="數據不夠， 全家不高興？ " class="cls-1" d="M56.484,13.039a38.847,38.847,0,0,1-.961,8.374A17.169,17.169,0,0,1,52.528,27.9V27.125h-6.8l-0.037-1.257,6.729,0.037,0.037-4.1h2.218V19.287H52.454l-0.037-3.7H45.725l-0.037-2.477-2.773.037v2.44H36.223v3.7H33.561L33.6,21.8h2.625v4.1l6.692-.037v1.257H36.26v6.026h6.4l-1.109,1.7-7.468.037-0.037,2.588H39.7a8.526,8.526,0,0,1-1.054,1.257q-0.721.74-2.163,2.144a21.254,21.254,0,0,1,5.435.924q-2.626,1.405-8.578,2.033l1.146,2.551a25,25,0,0,0,10.685-3.549q0.369,0.186,1.775.906t2.144,1.146l1,0.573,1.553-2.255Q48.682,41.619,47.5,41.1a10.044,10.044,0,0,0,2.81-3.66l4.474,0.037V34.89l-9.946-.037,0.555-1-1.59-.7h8.726V29.6l1.479,1a10.125,10.125,0,0,0,.684-0.98q0.462-.721.647-0.98a46.229,46.229,0,0,0,2.329,8.5,28.924,28.924,0,0,1-3.013,4.6,17.036,17.036,0,0,1-2.828,2.717l1.849,1.886a24.371,24.371,0,0,0,3.087-3.124,26.948,26.948,0,0,0,2.274-3.346,20.253,20.253,0,0,0,5.62,6.544l1.922-2.033a19.114,19.114,0,0,1-3.568-3.346,18.05,18.05,0,0,1-2.5-3.9q2.625-5.4,3.217-14.419h1.775v-2.7H58.444A26.2,26.2,0,0,0,59,13.63ZM42.915,17.956v1.331h-4.03l0.037-1.368Zm6.877-.037v1.368H45.725V17.919h4.067Zm0,5.62-4.1.037L45.725,21.8h4.067v1.738ZM42.915,21.8v1.738L38.922,23.5l-0.037-1.7h4.03Zm6.951,9.058H45.725l-0.037-1.442h4.178V30.86Zm-10.907,0V29.418l3.993-.037L42.915,30.86H38.959Zm2.625,8.282,1.442-1.7,4.252,0.037a9.1,9.1,0,0,1-2.329,2.551ZM61.143,22.689a34.729,34.729,0,0,1-.665,6.267,47.48,47.48,0,0,1-1.331,4.862Q58.961,33.3,58.721,32.5t-0.518-2q-0.277-1.2-.573-3.05t-0.444-2.551q0.111-.406.388-1.2t0.351-1.017h3.217ZM92.237,26.2a0.83,0.83,0,0,1-.961-1l6.174-.628V22.245l-6.174.592V21.506h7.8q-0.037.148-.3,0.887t-0.388,1.2q-0.13.463-.166,0.61L100.74,24.8q1.035-3.068,1.276-4.122a14.815,14.815,0,0,0,.314-1.83H91.238V17.587L99.7,17.55V15.331l-8.467-.037v-2H88.465l-0.037,5.546H81.4V30.12a32.508,32.508,0,0,1-1,9.317,14.982,14.982,0,0,1-2.884,5.287l2.4,1.7A21.409,21.409,0,0,0,84.177,33l0.037-11.461h4.252l-0.037,1.59-3.623.3,0.037,2.477,3.734-.481a4.739,4.739,0,0,0,.222,1.368,2.425,2.425,0,0,0,.98,1.183,2.608,2.608,0,0,0,1.46.481h7.838V26.238Zm-14.53,6.544,3.106-1.368V28.53L77.743,29.9V23.243h2.995v-2.7H77.706l-0.037-7.173H74.9l0.037,7.21H71.051l0.037,2.662H74.9v7.875l-5.065,2.218,1.7,2.144,3.4-1.442v8.725a1.084,1.084,0,0,1-.259.739,0.885,0.885,0,0,1-.7.3q-1.553,0-3.18-.111l1.183,2.662H73.1q0.795,0,1.423-.055a4.619,4.619,0,0,0,1.22-.277,3.17,3.17,0,0,0,1.534-1.072,2.784,2.784,0,0,0,.462-1.627ZM103.4,42.1a7.662,7.662,0,0,1-4.067-5.472,18.46,18.46,0,0,0,1.535-1.386q0.387-.425.684-0.795L99.668,32.6a16.73,16.73,0,0,1-2.034,1.922,8.7,8.7,0,0,1-2.107,1.294A12.106,12.106,0,0,0,93.789,33.6q1.886-1.072,2.292-1.386t0.518-.425l4.918-.037,0.037-2.4H85.138v2.4l7.136,0.074a23.671,23.671,0,0,1-7.986,2.107l1.479,2.218a31.859,31.859,0,0,0,5.8-1.479,1.887,1.887,0,0,1,.333.351c0.148,0.185.234,0.29,0.259,0.314a15.534,15.534,0,0,1-3.623,1.812,35.135,35.135,0,0,1-4.806,1.294l1.627,2.071a31.69,31.69,0,0,0,3.882-1.146,24.164,24.164,0,0,0,4.178-2.07l0.444,0.924a18.826,18.826,0,0,1-4.88,2.791,35.087,35.087,0,0,1-5.435,1.46L85.175,44.5a29.722,29.722,0,0,0,5.028-1.59,30.778,30.778,0,0,0,4.326-2.366,6.992,6.992,0,0,1,.055,2.551,1.278,1.278,0,0,1-.462.666,4.506,4.506,0,0,1-2.385.055q-1.572-.277-2.163-0.314L90.5,46.092q0.111,0,1.405.074a10.215,10.215,0,0,0,2.107-.056,4.625,4.625,0,0,0,1.442-.462A3.1,3.1,0,0,0,96.969,43.3a14.2,14.2,0,0,0-.444-5.047l0.629-.37q1.146,4.548,4.437,6.063Zm19,4.1h3.032l-0.074-24.439q0.444-.628,1.238-1.96t0.98-1.627l10.242,0.037V15.442l-27.8-.074v2.81h14.419a18.121,18.121,0,0,1-1.4,2q-1.11,1.442-1.258,1.664a27.479,27.479,0,0,1-5.786,5.99,48.351,48.351,0,0,1-7.708,4.732l1.848,2.4q8.577-4.769,12.275-9.354V46.2Zm4.03-20.187a23.794,23.794,0,0,1,5.9,3.7,37.723,37.723,0,0,1,5.38,5.4l2.255-1.923A34.536,34.536,0,0,0,128.4,24.057Zm46.77-5.768q0,4.252-.444,10.574a59.079,59.079,0,0,1-1.515,10.907,1.669,1.669,0,0,1-.869,1.091,3.55,3.55,0,0,1-1.683.2q-1.59-.184-4.436-0.776l0.7,3.143q2.476,0.369,3.106.425t1,0.055a5.37,5.37,0,0,0,3.143-.7,4.316,4.316,0,0,0,1.738-2.588,59.7,59.7,0,0,0,1.626-11.5q0.406-5.657.518-13.532H165.775a22.993,22.993,0,0,0,.887-4.658l-2.773-.555a20.762,20.762,0,0,1-1.9,7.339,35.231,35.231,0,0,1-4.492,7.006l2.477,1.627q0.518-.628,1.627-2.329V39.141l2.662-.037V37.182h3.7v1.959h2.7V24.5h-8.134a27.606,27.606,0,0,0,2.255-4.252h8.43Zm-8.947,6.914h3.7V34.52h-3.7V27.162ZM153.093,12.521a25.315,25.315,0,0,1-3.124,5.213,30.718,30.718,0,0,1-4.529,4.511l2.292,1.7a31.312,31.312,0,0,0,4.659-4.769h4.7a10.954,10.954,0,0,1-1.368,2.311,13.485,13.485,0,0,1-2,2.163,10.6,10.6,0,0,0-.906-1.2q-0.611-.721-1.2-1.312l-2.107,1.59a14.984,14.984,0,0,1,2.329,2.588,30.1,30.1,0,0,1-6.655,3.4l2.07,2.181a29.924,29.924,0,0,0,8.319-5.287,15.261,15.261,0,0,0,3.254-4.085,15.03,15.03,0,0,0,1.7-5.047h-6.4q0.407-.7,1.442-2.662Zm1.516,14.271a19,19,0,0,1-3.7,4.862,39.559,39.559,0,0,1-5.62,4.27l2.292,1.812a33.362,33.362,0,0,0,6.323-5.287h3.327a14.435,14.435,0,0,1-2.773,5.1,12.318,12.318,0,0,0-2.107-2.7l-2.367,1.516a10.992,10.992,0,0,1,1.627,1.5,7.967,7.967,0,0,1,1.109,1.534,37.7,37.7,0,0,1-3.937,2.514,39.364,39.364,0,0,1-4.307,2.108l1.811,2.218a44.106,44.106,0,0,0,7.173-4.085,18.127,18.127,0,0,0,3.623-3.568,19.631,19.631,0,0,0,3.4-8.8H155.9a18.456,18.456,0,0,0,1.035-1.812Zm44.7-.222h-4.067v4.067h2a3.661,3.661,0,0,1-2.218,3.66l1.072,1.368a5.3,5.3,0,0,0,1.9-1.442,5.467,5.467,0,0,0,1.017-1.867,6.578,6.578,0,0,0,.3-1.9V26.571Zm-151,56.307H35.188V85.65l29.393-.037V82.877H51.2V77.442H58.85V74.78H51.2L51.16,69.641h8.763l-0.037-1.664a34.478,34.478,0,0,0,4.807,2.033L66.319,67.5a28.694,28.694,0,0,1-7.228-3.4,23.508,23.508,0,0,1-4.751-4.067,17.368,17.368,0,0,1-2.662-4.067l-10.722-.037L40.993,58.7l5.435-.037a19.739,19.739,0,0,1-5.509,5.416,32.377,32.377,0,0,1-7.69,3.79l1.627,2.477a30.6,30.6,0,0,0,4.622-2.034L39.44,69.641l8.873-.037L48.35,74.78H40.734v2.7l7.579-.037v5.435ZM49.9,58.7a19.067,19.067,0,0,0,1.849,2.736,21.5,21.5,0,0,0,2.976,3.05,27.389,27.389,0,0,0,3.309,2.459l-16.453-.074a23.281,23.281,0,0,0,3.272-2.385,20.189,20.189,0,0,0,2.958-3.069,17.916,17.916,0,0,0,1.793-2.754Zm51.577-.259h-12.5a13.748,13.748,0,0,0-2.237-2.884A12.731,12.731,0,0,0,84.287,53.6l-2.329,1.738a27.367,27.367,0,0,1,2.9,2.329,5.444,5.444,0,0,1,.61.776H72.124v6.877H74.97l-0.037-4.252h23.7v4.1h2.847V58.439Zm1.774,23.773a10.282,10.282,0,0,1-3.2-2,17.339,17.339,0,0,1-2.828-3.29,14.566,14.566,0,0,1-1.886-3.845,27.017,27.017,0,0,0,4.1-3.7L97.3,67.5q-3.549,4.252-6.84,5.324a9.763,9.763,0,0,0-1.5-2.348,8.731,8.731,0,0,0-1.978-1.793,26.5,26.5,0,0,0,3.549-2.366h6.8V63.689H76.486l-0.037,2.662,9.317,0.037q-4.585,2.773-13.458,4.178l1.922,2.44a32.255,32.255,0,0,0,10.02-2.921A11.179,11.179,0,0,1,86.1,71.342a24.362,24.362,0,0,1-3.439,2.033,26.058,26.058,0,0,1-4.9,1.793,53.111,53.111,0,0,1-6.156,1.239l1.959,2.4A27.881,27.881,0,0,0,81.052,77a34.336,34.336,0,0,0,6.563-3.549,15.278,15.278,0,0,1,1,2.144,24.441,24.441,0,0,1-7.764,4.492,51.024,51.024,0,0,1-9.983,2.422L72.9,85.059a59.617,59.617,0,0,0,6.156-1.5,38.257,38.257,0,0,0,5.62-2.163A20.439,20.439,0,0,0,89.2,78.478a30.878,30.878,0,0,1-.148,4.954,1.616,1.616,0,0,1-.407.7,2.031,2.031,0,0,1-.665.518,12.375,12.375,0,0,1-2.7-.24,30.915,30.915,0,0,1-3.512-.943L82.92,86.76q4.769,0.887,6.47.259a3.194,3.194,0,0,0,1.645-1.276,7.162,7.162,0,0,0,.869-3.2,21.251,21.251,0,0,0-.019-3.642,27.5,27.5,0,0,0-.536-3.642l1.775-.739a22.108,22.108,0,0,0,1.516,3.309,18.082,18.082,0,0,0,2.828,3.79,11.5,11.5,0,0,0,3.938,2.773ZM122.406,87.2h3.032l-0.074-24.439q0.444-.628,1.238-1.96t0.98-1.627l10.242,0.037V56.442l-27.8-.074v2.81h14.419a18.121,18.121,0,0,1-1.4,2q-1.11,1.442-1.258,1.664a27.479,27.479,0,0,1-5.786,5.99,48.344,48.344,0,0,1-7.708,4.733l1.848,2.4q8.577-4.769,12.275-9.354V87.2Zm4.03-20.187a23.794,23.794,0,0,1,5.9,3.7,37.723,37.723,0,0,1,5.38,5.4l2.255-1.923A34.536,34.536,0,0,0,128.4,65.057Zm25.326-5.583,0.037,7.432h18.08V61.433H151.762ZM154.5,64.1h12.645v2.07H154.535ZM168.1,82.434V74.522l-14.53.037-0.037,7.875H168.1ZM156.31,77.258h9.021l0.037,2.514-9.058-.037V77.258ZM145.81,59.77l30.1,0.037-0.037-2.7H162.262a15.984,15.984,0,0,0-1.146-1.7,13.926,13.926,0,0,0-1.479-1.664l-2.847,1.183q0.739,0.555,1.479,1.2a12.743,12.743,0,0,1,1.035.98H145.773Zm22.035,26.805q0.222,0,1.923-.019a15.714,15.714,0,0,0,2.477-.166,2.7,2.7,0,0,0,1.645-1.072,3.24,3.24,0,0,0,.684-2.033V70.344l-27.323.037-0.036,16.933,2.92-.037V73.043l21.555-.037v9.428a1.718,1.718,0,0,1-.222.869,0.864,0.864,0,0,1-.554.462,10.328,10.328,0,0,1-2.052.037q-1.386-.074-1.793-0.074Zm23.662-30.983V56l-1.552-1.7a14.268,14.268,0,0,1-6.064,3.882l1.22,18.043h-2.995l-0.036,2.7h31.537v-2.7h-3.106l1.442-20.113h-7.542v2.662H209l-0.258,3.439h-3.882v2.662h3.734l-0.37,4.067h-3.364v2.7h3.253l-0.333,4.622-3.808-.037L203.93,55.592H191.507Zm2.81,2.7h6.84V76.222l-6.8.037Zm-2.773,17.932h-3.7l-0.3-4.585h3.217v-2.7h-3.4l-0.3-4.067h3.808v-2.7h-3.956l-0.148-2.551a17.589,17.589,0,0,0,4.769-2.958V76.222Zm3.439-12.164,0.037,10.426h5.62V64.058h-5.657Zm2.255,7.764-0.037-5.1h1.146v5.1h-1.109Zm3.808-9.169v-2.7h-6.433v2.7h6.433ZM183.3,86.907a29.5,29.5,0,0,0,11.572-6.027L193.1,78.958a28.373,28.373,0,0,1-11.572,5.435Zm30.872-2.292a37.335,37.335,0,0,0-3.531-2.44,24.7,24.7,0,0,0-3.272-1.645,32.227,32.227,0,0,0-5.176-1.423l-1.849,2.255A28.275,28.275,0,0,1,212.36,86.8Zm28.173-23.182a6.891,6.891,0,0,0-1.775-2.311,8.219,8.219,0,0,0-2.718-1.516,10.421,10.421,0,0,0-3.383-.536,9.571,9.571,0,0,0-3.364.592,7.741,7.741,0,0,0-2.718,1.682,8.248,8.248,0,0,0-1.793,2.57,10.2,10.2,0,0,0-.7,2.81l3.327,0.37a8.416,8.416,0,0,1,1.11-3.087,4.347,4.347,0,0,1,1.922-1.793,5.63,5.63,0,0,1,2.255-.481,5.078,5.078,0,0,1,2.847.85,4.706,4.706,0,0,1,1.793,1.959,4.881,4.881,0,0,1,.5,1.96,4.12,4.12,0,0,1-.241,1.331,4.378,4.378,0,0,1-.813,1.386,14.245,14.245,0,0,1-1.608,1.571,19.835,19.835,0,0,0-2.866,2.921,6.086,6.086,0,0,0-1.146,2.644,14.814,14.814,0,0,0-.166,3.124h3.1a18.485,18.485,0,0,1,.2-2.459,4.223,4.223,0,0,1,.758-1.83,14.816,14.816,0,0,1,2.107-2.144q0.924-.813,1.83-1.756a8.9,8.9,0,0,0,1.535-2.2,6.207,6.207,0,0,0,.628-2.81A6.6,6.6,0,0,0,242.345,61.433Zm-6.064,22.553v-3.7h-3.7v3.7h3.7Z"/>
</svg>
