<svg xmlns="http://www.w3.org/2000/svg" width="320" height="50" viewBox="0 0 640 100">
  <defs>
    <style>
      .cls-1 {
        fill: #4b286d;
        fill-rule: evenodd;
      }
    </style>
  </defs>
  <path id="TELUS家庭優惠計劃_無限數據_節省更多_" data-name="TELUS家庭優惠計劃 無限數據 節省更多 " class="cls-1" d="M52.973,17.511H31.861v2.81h8.948V43.837h3.217V20.321h8.948v-2.81Zm21.074,2.81v-2.81h-18.3V43.837H73.9v-2.81H58.851v-9.5H72.568v-2.81H58.851V20.321h15.2Zm6.432,20.706V17.511H77.373V43.837H93.716v-2.81H80.479Zm25.068,3.365c6.581,0,10.353-3.734,10.353-10.316V17.511h-3.106V34.076c0,5.176-2.662,7.506-7.247,7.506S98.3,39.252,98.3,34.076V17.511H95.194V34.076C95.194,40.657,98.966,44.392,105.547,44.392Zm24.439,0.037c6.322,0,9.872-3.069,9.872-7.728,0-3.808-2.145-6.175-8.208-7.506l-2.33-.518c-4.954-1.109-6.175-2.366-6.175-4.881,0-2.477,1.96-4.067,5.768-4.067,5.251,0,6.841,2.034,7.1,5.435h3.179c-0.111-4.289-2.514-8.245-10.279-8.245-5.472,0-8.984,2.662-8.984,6.877,0,4.807,3.512,6.618,7.986,7.617l2.33,0.518c4.658,1.035,6.4,2.255,6.4,4.77,0,3.254-2.44,4.918-6.655,4.918-4.289,0-7.654-1.59-7.728-6.471h-3.217C119.115,41.729,123.7,44.429,129.986,44.429Zm44.181-26.99h-12.5a13.722,13.722,0,0,0-2.237-2.884,12.744,12.744,0,0,0-2.458-1.96l-2.329,1.738a27.5,27.5,0,0,1,2.9,2.329,5.449,5.449,0,0,1,.61.776H144.811v6.877h2.847l-0.037-4.252h23.7v4.1h2.847V17.439Zm1.775,23.773a10.261,10.261,0,0,1-3.2-2,17.321,17.321,0,0,1-2.829-3.291,14.567,14.567,0,0,1-1.885-3.845,27.05,27.05,0,0,0,4.1-3.7L169.989,26.5q-3.549,4.252-6.84,5.324a9.739,9.739,0,0,0-1.5-2.348,8.754,8.754,0,0,0-1.978-1.793,26.455,26.455,0,0,0,3.549-2.366h6.8V22.689H149.174l-0.037,2.662,9.317,0.037Q153.868,28.161,145,29.566l1.922,2.44a32.255,32.255,0,0,0,10.02-2.921,11.175,11.175,0,0,1,1.848,1.257,24.353,24.353,0,0,1-3.438,2.033,26.06,26.06,0,0,1-4.9,1.793,53.058,53.058,0,0,1-6.156,1.239l1.96,2.4A27.886,27.886,0,0,0,153.74,36a34.335,34.335,0,0,0,6.562-3.549,15.266,15.266,0,0,1,1,2.144,24.45,24.45,0,0,1-7.765,4.492,51.009,51.009,0,0,1-9.982,2.422l2.033,2.551a59.594,59.594,0,0,0,6.156-1.5,38.26,38.26,0,0,0,5.62-2.163,20.435,20.435,0,0,0,4.529-2.921,30.876,30.876,0,0,1-.148,4.954,1.614,1.614,0,0,1-.406.7,2.032,2.032,0,0,1-.666.518,12.375,12.375,0,0,1-2.7-.24,30.922,30.922,0,0,1-3.512-.943l1.146,3.291q4.768,0.887,6.47.259a3.194,3.194,0,0,0,1.645-1.276,7.163,7.163,0,0,0,.869-3.2,21.258,21.258,0,0,0-.018-3.642,27.53,27.53,0,0,0-.536-3.642l1.774-.739a22.142,22.142,0,0,0,1.516,3.309,18.115,18.115,0,0,0,2.828,3.79,11.506,11.506,0,0,0,3.938,2.773Zm5.435,4.548a16.435,16.435,0,0,0,3.493-6.285,27.793,27.793,0,0,0,.98-7.69V18.991h26.694v-2.7H199.493l0.629-.629a12.99,12.99,0,0,0-2.7-2.181,11.516,11.516,0,0,0-3.069-1.331q-0.74.776-2.108,2a9.56,9.56,0,0,1,4.474,2.144H182.892V31.784a25.583,25.583,0,0,1-.813,6.969,12.882,12.882,0,0,1-3.106,5.269Zm32.461-3.993q-7.209.37-13.31,0.148a15.842,15.842,0,0,1-2.773-.388,15.164,15.164,0,0,1-4.362-2.052q2-3.327,2.181-9.8h-4.585A22.153,22.153,0,0,0,193.356,27a26.856,26.856,0,0,0,2.107-3.124V22.8l1.812,2.329q1.4,0.037,2.939-.074a22.1,22.1,0,0,0,2.5-.3v4.1H196.5v2.662h6.212l-0.037,5.435h-7.654v2.7h17.673v-2.7h-7.209V31.525h6.285v-2.7l-6.285.037V24.279a28.188,28.188,0,0,0,6.322-2.44l-1.886-2.07q-4.844,2.81-14.456,2.625V21.432H186.7v2.662h5.361a46.918,46.918,0,0,1-4.992,5.546v2.736h5.657a13.615,13.615,0,0,1-.481,2.514,15.041,15.041,0,0,1-.924,2.44,20.816,20.816,0,0,1-2.4-4.215l-2.329,1.4a31.042,31.042,0,0,0,2.015,3.66,17.541,17.541,0,0,0,1.238,1.7,22.544,22.544,0,0,1-2.495,2.348,15.873,15.873,0,0,1-2.718,1.793l1.96,2.107a24.532,24.532,0,0,0,2.939-2.089,23.441,23.441,0,0,0,2.5-2.348,13.82,13.82,0,0,0,8.466,2.81l12.164,0.148Zm26.177-5.879A2.3,2.3,0,0,0,241.882,35a4.4,4.4,0,0,0,.906-2.218,11.489,11.489,0,0,1,3.549,3.475l1.923-1.331a14.756,14.756,0,0,0-2.071-2.625h2.071L248.3,28.05h-2.921V18.437h-7.1l0.333-1.072L249.221,17.4V15.035H226.3V17.4h9.613l-0.555,1.035H228.3V28.05h-2.773v4.584h2.662V30.453l6.692-.037-0.7.628a7.1,7.1,0,0,1,1.627.739q0.7,0.444,1.479,1.017t1.072,0.795l1.923-1.479a8.4,8.4,0,0,0-2.514-1.7H245.6v1.442a4.793,4.793,0,0,0-1.22-.85l-2.367,1.146-1.109-.37c-0.025.37-.055,0.709-0.092,1.017a1.812,1.812,0,0,1-.259.776,0.714,0.714,0,0,1-.647.314h-4.733a0.812,0.812,0,0,1-.647-0.277,0.667,0.667,0,0,1-.166-0.61V31.229l-2.144.037q0.036,0.37.037,1.571a6.317,6.317,0,0,0,.111,1.534l0.3,0.776-0.776-.407a10.722,10.722,0,0,1-6.4,5.583l1.811,1.849a13.1,13.1,0,0,0,2.089-1.017,14.469,14.469,0,0,0,2.274-1.83,11.738,11.738,0,0,0,3.217,3.106,28.432,28.432,0,0,1-10.094,1.479l1.183,2.477a31.644,31.644,0,0,0,11.647-2.44,28.943,28.943,0,0,0,11.017,2.292L250,43.763a27.982,27.982,0,0,1-5.324-.3,20.444,20.444,0,0,1-4.251-1,11.644,11.644,0,0,0,2.088-1.553,26.407,26.407,0,0,0,2.126-2.108v-2l-11.128-.037a5.492,5.492,0,0,0,.406-0.887h6.1Zm2.625-12.016v1.072H231.068V23.872H242.64Zm-11.572-3.106L242.64,20.8v1.072l-11.572-.037V20.766Zm0,7.284V27.014H242.64V28.05H231.068Zm-7.247,18.486V22.726q0.629-1.737,1.442-4.4t1.22-4.4l-2.551-.961a47.3,47.3,0,0,1-3.254,9.89,28.172,28.172,0,0,1-4.843,7.561l2.514,1.627a20.877,20.877,0,0,0,2.7-3.512V46.536h2.773ZM241.2,39.178q-0.222.148-.832,0.573t-1.072.7a7.02,7.02,0,0,1-.906.462q-0.444.185-.85,0.333l-0.925-.61q-0.7-.462-1.183-0.813a4.025,4.025,0,0,1-.776-0.721Zm-11.277-7.986a11.612,11.612,0,0,1-2.347,2.144,12.861,12.861,0,0,1-2.089,1.109l1.885,2.033a12.439,12.439,0,0,0,4.4-3.882Zm39.006,1.183q-12.09.111-14.6,0.074l1.516,2.847q6.1-.185,13.347-0.259l-1.923,1.294a12.406,12.406,0,0,1,5.4,4.7l2.4-1.627c-0.074-.123-0.229-0.351-0.462-0.684a12.168,12.168,0,0,0-.962-1.165,7.975,7.975,0,0,0-1.294-1.146q-0.684-.48-1.479-0.943t-0.979-.573q6.654,0,11.794-.222a16.219,16.219,0,0,1,1.7,2.144l2.478-1.627a15.172,15.172,0,0,0-5.029-4.548h0.777l0.037-11.092-9.872-.037V18.215H286.23V15.553l-14.456-.037V12.558h-2.847v2.995H254.545l-0.037,2.662,14.419,0.037v1.257l-9.76-.037v11.2l9.76-.037v1.738Zm0-4.437H262.05V26.2h6.877v1.738Zm2.884-1.7h6.877v1.7h-6.877v-1.7Zm-9.761-2.662V22.134h6.877v1.442H262.05Zm9.724-1.442h6.951v1.442h-6.951V22.134Zm-0.037,10.094,0.037-1.59,5.62,0.074-0.924.555a10.339,10.339,0,0,0,1.811.85Zm-8.06,4.252v3.993a8.877,8.877,0,0,0,.3,2.144,4.238,4.238,0,0,0,1.183,1.479,3.289,3.289,0,0,0,1.7.739h5.952a10.776,10.776,0,0,0,3.772-.259,2.952,2.952,0,0,0,.924-0.629,3.316,3.316,0,0,0,.647-0.906,6.734,6.734,0,0,0,.388-1q0.147-.5.314-1.368t0.241-1.165a24.351,24.351,0,0,0-2.662-1.109,10.446,10.446,0,0,0-.315,1.461,7.936,7.936,0,0,1-.332,1.442,1.25,1.25,0,0,1-.444.61,2.133,2.133,0,0,1-.5.259h-7.284a1.364,1.364,0,0,1-.61-0.444,1.249,1.249,0,0,1-.314-0.629V36.479h-2.958Zm-8.06,6.951a15.9,15.9,0,0,0,4.2-2.144,12.293,12.293,0,0,0,3.161-3.18q-0.408-.369-2-1.553a14.731,14.731,0,0,1-7.542,4.622Zm31.723-.924a14.61,14.61,0,0,0-2.718-3.143,15.686,15.686,0,0,0-4.233-2.514l-2.108,1.59a16.006,16.006,0,0,1,6.729,5.768Zm3.549-24.18v2.7h15.233v-2.7l-6.212-.074,0.592-.333a11.526,11.526,0,0,0-4.03-5.4l-2.293,1.59a16.574,16.574,0,0,1,2.089,2.163,10.16,10.16,0,0,1,1.239,2.052h-6.618ZM312.481,46.2h2.81V26.682l8.651-.037V23.983h-8.614L315.291,13l-2.81-.037,0.037,11.018h-7.727v2.662l7.69,0.037V46.2Zm-8.652-.7V33.374l-10.389.037V45.538l2.773-.037V43.726h4.806l0.037,1.775h2.773Zm-2.81-4.474h-4.806V36.073l4.806-.037v4.991Zm3.587-18.006H292.59v2.736l12.016-.037v-2.7Zm-11.942,7.616h11.868v-2.7h-11.9Zm56.715,11.535V33.115h-17.6v9.058h17.6Zm-2.773-6.729v1.072h-4.695V35.444h4.695Zm-7.32,1.072h-4.7V35.444h4.7v1.072Zm7.32,2.181v1.035l-4.658.037L341.911,38.7h4.695Zm-11.979,0h4.7l0.037,1.072h-4.77Zm17.155-9.1-9.908.037V28.53h7.8V26.275l-7.8-.037V25.351l7.431,0.037v-3.7h2.441V19.25h-2.441V15.775l-7.431-.037V13.261h-2.81v2.514h-6.988v2.4l6.988-.037V19.25l-9.724-.037V21.69h9.724v1.294h-6.951v2.4l6.951-.037-0.037.924h-7.616V28.53h7.653V29.64h-10.5v2.292h23.218V29.6ZM346.5,19.213l-4.621.037-0.037-1.109H346.5v1.072Zm-4.621,2.477H346.5v1.294l-4.621-.037V21.69Zm15.011-8.282V42.358a1.009,1.009,0,0,1-.241.684,0.93,0.93,0,0,1-.647.314,9.811,9.811,0,0,1-2.126.018q-1.645-.092-1.756-0.092l1,2.884q0.627-.037,2.4-0.037a5.766,5.766,0,0,0,2.662-.481,3.322,3.322,0,0,0,1-.943,2.285,2.285,0,0,0,.518-1.386V13.409h-2.81Zm-4.511,25.1,2.773-.037,0.037-21.555h-2.81V38.513Zm-22.553,7.764,22.072-1.331V42.617l-23.514,1.109ZM35.077,65.685a22.051,22.051,0,0,0,3.993-3.291v4.067l-4.252-.037v2.736h4.215v5.694H33.82l-0.037,2.7H65.247L65.21,74.817H60.7V69.2h3.475V66.425l-3.475.037V60.916h3.365L64.027,58.18H42.583a34.8,34.8,0,0,0,1.886-3.291l-2.81-1.072a26.011,26.011,0,0,1-8.541,9.724Zm16.564,9.132H48.091l-0.037-5.657h3.586v5.657Zm6.285-8.356H54.451V60.916h3.475v5.546Zm-9.8-.037V60.916h3.549v5.509H48.128Zm9.8,2.736-0.037,5.694H54.451V69.161h3.475ZM45.282,66.425h-3.4l0.037-5.509h3.364v5.509Zm-0.037,8.393H41.88l0.037-5.62,3.364-.037ZM35.262,87.166a35.9,35.9,0,0,0,3.864-4.418,14.413,14.413,0,0,0,1.682-3.161l-2.181-1.4a22.92,22.92,0,0,1-5.842,7.32ZM58,79.735a15.779,15.779,0,0,1,3.18,3.217,23.832,23.832,0,0,1,2.514,4.141,8.887,8.887,0,0,0,1.442-.684q0.887-.5,1.146-0.647a20.69,20.69,0,0,0-6.026-7.395ZM56.743,85.5a22.691,22.691,0,0,0-3.956-6.84,13.908,13.908,0,0,0-1.5.462q-0.869.315-1.165,0.425a19.652,19.652,0,0,1,3.808,6.914Zm-14.53-5.731a14.713,14.713,0,0,1,2.2,3.143,20.2,20.2,0,0,1,1.423,3.734l2.773-1a19.966,19.966,0,0,0-1.849-4.2,15.938,15.938,0,0,0-2-2.607Zm60.6,5.028a15.481,15.481,0,0,1-3.975-2.311,11.37,11.37,0,0,1-2.828-3.2q3.217-2.366,4.455-3.457t1.83-1.645l-2.107-1.922L94.825,77a12.833,12.833,0,0,1-.906-2.366,27.082,27.082,0,0,1-.536-2.958l6.248-.037L99.594,55.777H83.955V82.4a2.386,2.386,0,0,1-.518,1.627,4.063,4.063,0,0,1-1.257.961q0.517,0.444,1.386,1.128t0.943,0.721l7.912-3.475v-2.81q-0.333.148-2.607,1.035t-3.087,1.294l0.037-11.129,3.845-.037a21.094,21.094,0,0,0,1.331,5.916,17.989,17.989,0,0,0,3.7,5.657,14.65,14.65,0,0,0,5.472,3.845ZM86.765,58.439H96.821v3.808H86.765V58.439Zm9.946,10.5-9.946.074V64.946l10.019-.037ZM82.476,58.4V55.666H72.087l0.037,31.648,2.736-.074V58.4l4.621,0.037q-0.74,2.4-3.254,8.245A10.815,10.815,0,0,1,80,72.3a3.791,3.791,0,0,1-.019,2.015,2.43,2.43,0,0,1-.758,1.165,2.02,2.02,0,0,1-.407.222,2.072,2.072,0,0,1-.591.148,2.857,2.857,0,0,1-.721-0.018q-0.388-.056-2.163-0.425l0.665,3.069a7.033,7.033,0,0,0,3.586-.111,4.389,4.389,0,0,0,2-1.4,4.81,4.81,0,0,0,1.146-2.218,8.83,8.83,0,0,0,.074-2.791,7.413,7.413,0,0,0-1.054-2.865A14.076,14.076,0,0,0,79.37,66.2Zm47.953-4.363a38.9,38.9,0,0,1-.961,8.374,17.175,17.175,0,0,1-2.995,6.489V68.125h-6.8l-0.037-1.257,6.729,0.037,0.037-4.1h2.218V60.287H126.4l-0.037-3.7H119.67l-0.037-2.477-2.773.037v2.44h-6.692v3.7h-2.662l0.037,2.514h2.625v4.1l6.692-.037v1.257h-6.655v6.026h6.4l-1.109,1.7-7.468.037-0.037,2.588h5.657a8.583,8.583,0,0,1-1.054,1.257q-0.722.74-2.163,2.144a21.259,21.259,0,0,1,5.435.924q-2.626,1.406-8.578,2.034l1.146,2.551a25,25,0,0,0,10.685-3.549q0.371,0.186,1.775.906t2.145,1.146l1,0.573,1.553-2.255q-2.96-1.589-4.141-2.108a10.05,10.05,0,0,0,2.81-3.66l4.473,0.037V75.89l-9.945-.037,0.554-1-1.59-.7h8.726V70.6l1.479,1a10.2,10.2,0,0,0,.684-0.98q0.462-.721.647-0.98a46.261,46.261,0,0,0,2.329,8.5,28.953,28.953,0,0,1-3.013,4.6,17,17,0,0,1-2.829,2.717l1.849,1.886a24.349,24.349,0,0,0,3.087-3.124,26.894,26.894,0,0,0,2.274-3.346,20.256,20.256,0,0,0,5.62,6.544l1.922-2.034a19.1,19.1,0,0,1-3.567-3.346,18.056,18.056,0,0,1-2.5-3.9q2.625-5.4,3.217-14.419h1.774v-2.7h-7.061a26.23,26.23,0,0,0,.554-6.4ZM116.86,58.956v1.331h-4.03l0.037-1.368Zm6.877-.037v1.368H119.67V58.919h4.067Zm0,5.62-4.1.037L119.67,62.8h4.067v1.738ZM116.86,62.8v1.738l-3.993-.037-0.037-1.7h4.03Zm6.951,9.058H119.67l-0.037-1.442h4.178V71.86Zm-10.907,0V70.418l3.993-.037L116.86,71.86H112.9Zm2.625,8.282,1.442-1.7,4.252,0.037a9.1,9.1,0,0,1-2.329,2.551Zm19.559-16.453a34.706,34.706,0,0,1-.666,6.267,47.454,47.454,0,0,1-1.331,4.862q-0.186-.517-0.425-1.313t-0.518-2q-0.278-1.2-.573-3.05t-0.444-2.551q0.111-.406.389-1.2c0.185-.53.3-0.869,0.351-1.017h3.217ZM166.181,67.2a0.83,0.83,0,0,1-.961-1l6.174-.629V63.245l-6.174.592V62.506h7.8c-0.025.1-.123,0.395-0.3,0.887s-0.3.894-.388,1.2-0.142.512-.166,0.61l2.514,0.592q1.035-3.068,1.276-4.122a14.815,14.815,0,0,0,.314-1.83H165.183V58.587l8.467-.037V56.331l-8.467-.037v-2H162.41l-0.037,5.546h-7.025V71.12a32.492,32.492,0,0,1-1,9.317,14.974,14.974,0,0,1-2.884,5.287l2.4,1.7A21.409,21.409,0,0,0,158.121,74l0.037-11.462h4.252l-0.037,1.59-3.623.3,0.037,2.477,3.734-.481a4.726,4.726,0,0,0,.222,1.368,2.423,2.423,0,0,0,.98,1.183,2.606,2.606,0,0,0,1.46.481h7.838V67.238Zm-14.53,6.544,3.106-1.368V69.53L151.688,70.9V64.243h3v-2.7h-3.032l-0.037-7.173h-2.773l0.037,7.21H145l0.037,2.662h3.808v7.875l-5.065,2.218,1.7,2.144,3.4-1.442v8.726a1.08,1.08,0,0,1-.259.739,0.882,0.882,0,0,1-.7.3q-1.552,0-3.18-.111l1.183,2.662h1.128q0.8,0,1.424-.055a4.629,4.629,0,0,0,1.22-.277,3.169,3.169,0,0,0,1.534-1.072,2.783,2.783,0,0,0,.462-1.627Zm25.7,9.354a7.73,7.73,0,0,1-2.754-2.366,7.65,7.65,0,0,1-1.313-3.106,18.208,18.208,0,0,0,1.534-1.387q0.389-.425.684-0.795L173.613,73.6a16.735,16.735,0,0,1-2.034,1.922,8.694,8.694,0,0,1-2.107,1.294,12.1,12.1,0,0,0-1.738-2.218q1.886-1.072,2.292-1.386t0.518-.425l4.917-.037,0.037-2.4H159.083v2.4l7.135,0.074a23.66,23.66,0,0,1-7.986,2.107l1.479,2.218a31.853,31.853,0,0,0,5.8-1.479,1.889,1.889,0,0,1,.333.351c0.147,0.185.234,0.29,0.258,0.314a15.528,15.528,0,0,1-3.623,1.812,35.168,35.168,0,0,1-4.806,1.294l1.626,2.07a31.667,31.667,0,0,0,3.883-1.146,24.148,24.148,0,0,0,4.177-2.07l0.444,0.924a18.817,18.817,0,0,1-4.88,2.791,35.119,35.119,0,0,1-5.435,1.46L159.12,85.5a29.74,29.74,0,0,0,5.028-1.59,30.818,30.818,0,0,0,4.326-2.366,7,7,0,0,1,.055,2.551,1.28,1.28,0,0,1-.462.666,4.507,4.507,0,0,1-2.385.055q-1.572-.277-2.163-0.314l0.925,2.588q0.111,0,1.405.074a10.211,10.211,0,0,0,2.107-.056,4.621,4.621,0,0,0,1.442-.462,3.1,3.1,0,0,0,1.516-2.348,14.2,14.2,0,0,0-.444-5.047l0.629-.37q1.144,4.548,4.436,6.064Zm17.414,4.1q1.109-.629,10.685-3.993,0.369,0.629,1.035,1.886t0.777,1.479q0.96-.444,2.514-1.368a30.849,30.849,0,0,0-2.958-4.843,16.312,16.312,0,0,0-2.662-2.7l-2.477,1.368a11.438,11.438,0,0,1,2.218,2.144l-7.062,2.329V77.295h10.8V64.65H194.022l0.037,18.227a2.41,2.41,0,0,1-.444,1.571,3.079,3.079,0,0,1-1.072.832Zm10.057-19.928,0.037,2.255-8.06-.037V67.275h8.023Zm0,4.843V74.67h-7.987V72.118h7.987Zm3.475-12.164,0.037-2.662-9.946.037q0.037-.074.222-0.629t0.333-1.035q0.147-.48.222-0.776l-2.551-.961a16.373,16.373,0,0,1-5.546,9.28l2.181,1.849a17.4,17.4,0,0,0,2.5-2.588,12.651,12.651,0,0,0,1.682-2.514h2.7a18.309,18.309,0,0,1,2.514,4.215l0.555-.24q0.3-.129,1.922-1.017a13.637,13.637,0,0,0-1.959-2.958h5.139Zm15.861-.111V57.219l-10.907-.037q0.369-1.256.629-2.514l-2.514-.924a16.01,16.01,0,0,1-1.9,4.936,13.1,13.1,0,0,1-3.568,3.9l2.366,1.886a13.984,13.984,0,0,0,3.845-4.622h3.217a16.365,16.365,0,0,1,2.329,4.141,6.327,6.327,0,0,0,.721-0.3q0.389-.185.98-0.536t0.813-.462a20.536,20.536,0,0,0-1.849-2.847h5.842Zm-5.176,7.321,0.037,10.685a0.99,0.99,0,0,1-.277.7,0.84,0.84,0,0,1-.721.259l-4.1-.222,1.22,2.884q0.555-.036,2.311,0a7.885,7.885,0,0,0,2.384-.185,4.394,4.394,0,0,0,1.276-.85,2.133,2.133,0,0,0,.554-1.054,4.924,4.924,0,0,0,.13-0.98V64.539L210.142,64.5V87.24h2.809l-0.036-20.076h6.063Zm10.611,4.1q2.958-.222,6.692-0.85V87.425l2.773-.037V85.244h14.234V87.2l2.773-.037V68.051l-11.239-.074a18.528,18.528,0,0,0,4.769-2.588,29.829,29.829,0,0,0,3.919-3.364l-2.07-1.849a24.072,24.072,0,0,1-5.232,4.011,30.243,30.243,0,0,1-7.265,2.828A53.5,53.5,0,0,1,228.221,68.5Zm9.5,4.326h14.2v2.218H239.054Zm-0.037-4.843h14.2l0.037,2.329-14.234.037V70.75Zm14.2,9.539,0.037,2.255-14.2-.037-0.037-2.218h14.2Zm-13.79-18.745,0.776,2.736,3,0.037a3.09,3.09,0,0,0,2.107-.573,2.062,2.062,0,0,0,.74-1.682l-0.037-7.875h-2.773l-0.037,6.729a0.715,0.715,0,0,1-.7.85Zm-0.444-5.583a27.017,27.017,0,0,1-9.65,7.025l2.293,2.181a28.326,28.326,0,0,0,9.354-7.321Zm21.962,7.21a34.119,34.119,0,0,0-3.42-3.383,20.31,20.31,0,0,0-3.42-2.4,18.909,18.909,0,0,0-3-1.349L249,57.958a22.211,22.211,0,0,1,9.612,7.173ZM298.8,84.319q-3.438-.074-7.228-0.5a62.58,62.58,0,0,1-6.673-1.072,17.76,17.76,0,0,1-4.511-1.534,11.015,11.015,0,0,0,1.553-2.791,14.077,14.077,0,0,0,.85-3.272h10.8V61.47H283.31V58.734l14.308,0.037V56.146H266.081v2.625l14.493-.037V61.47H269.963l-0.037,13.68h10.056a11.711,11.711,0,0,1-.757,2.44,10.159,10.159,0,0,1-1.276,2.218,43.572,43.572,0,0,1-5.4-4.215l-2.144,1.442a25.175,25.175,0,0,0,5.361,4.732,32.041,32.041,0,0,1-5.565,2.089,49.994,49.994,0,0,1-5.194,1.165l1.663,2.477a25.974,25.974,0,0,0,10.611-3.512l1.147-.776a34.532,34.532,0,0,0,7.061,2.459,67.208,67.208,0,0,0,11.573,1.5Zm-7.912-17.377h-7.542l0.037-2.847h7.5v2.847ZM272.7,64.1l7.875,0.037v2.81H272.7V64.1Zm18.227,5.472v2.921h-7.838l0.185-2.921h7.653Zm-18.227,0h7.8l-0.148,2.921-7.653-.037V69.567Zm36.64,9.243a68.279,68.279,0,0,0,7.487-3.66,29.6,29.6,0,0,0,4.2-2.995h9.465a15.674,15.674,0,0,1-1.719,2.385,16.042,16.042,0,0,1-2.7,2.459,30.146,30.146,0,0,1-3.605,2.255,11.55,11.55,0,0,0-3.808-4.03l-2.662,1.516a13.248,13.248,0,0,1,4.067,3.7Q314.107,83.025,303.5,84.8l1.849,2.551a99.942,99.942,0,0,0,10.759-2.44,45.8,45.8,0,0,0,6.525-2.569,27.432,27.432,0,0,0,5.306-3.365,22.039,22.039,0,0,0,3.715-3.753,25.414,25.414,0,0,0,2.2-3.4l0.037-2.477-9.982-.037a16.923,16.923,0,0,0,1.959-2.625L323.684,65.5a26.417,26.417,0,0,0,2.717-2.422,26.1,26.1,0,0,0,2.5-2.828V57.773H318.471a27.1,27.1,0,0,0,2.7-2.958l-2.588-1.368q-5.066,6.175-14.272,8.947l2.441,2.292a39.429,39.429,0,0,0,8.1-4.1h10.168a34.936,34.936,0,0,1-3.439,2.884,32.694,32.694,0,0,1-3.919,2.366,14.658,14.658,0,0,0-1.978-2.052,11.77,11.77,0,0,0-2.163-1.608l-2.588,1.664a12.9,12.9,0,0,1,4.141,3.106,42.319,42.319,0,0,1-5.157,1.7q-3.457.962-6.378,1.627l1.775,2.477a74.29,74.29,0,0,0,10.869-3.309,45.037,45.037,0,0,0,6.914-3.42,26.021,26.021,0,0,1-6.6,5.971,47.03,47.03,0,0,1-9.3,4.455Z"/>
</svg>
