<svg id="Bunny" xmlns="http://www.w3.org/2000/svg" width="1517" height="188" viewBox="0 0 1517 188">
  <defs>
    <style>
      .cls-1 {
        fill: #248700;
        fill-rule: evenodd;
      }
    </style>
  </defs>
  <g id="PUNJ">
    <path id="cta" class="cls-1" d="M1367.04,128.506h-3.35v9.8c0,3.781-1.78,6.2-5.57,6.2-3.47,0-7.23-3.026-7.23-6.747,0-2.6,1.63-4.629,5.57-4.629h0.93v2.36h-0.93c-2.19,0-2.98.818-2.98,2.179,0,2.45,2.66,4.538,4.81,4.538,2.1,0,2.95-1.514,2.95-3.933v-9.771h-13.03v-2.3h18.83v2.3Zm-7.94-5.235c-1.4-.272-4.4-0.483-4.4-5.384h2.3c0,2.814,1.05,2.875,2.16,3.026,2.25,0.363,4.34,1.422,4.34,5.324h-2.27C1361.23,124.362,1360.33,123.453,1359.1,123.271Zm24.37,5.235h-3.73v9.923c0,3.781-1.81,6.2-5.51,6.2-3.56,0-7.29-3.024-7.29-6.776,0-2.571,1.63-4.6,5.57-4.6h4.78v-4.749h-12.65v-2.3h18.83v2.3Zm-6.18,9.891v-2.782h-4.78c-2.19,0-2.97.817-2.97,2.177,0,2.45,2.62,4.538,4.83,4.538C1376.41,142.33,1377.29,140.818,1377.29,138.4Zm33.3-9.891h-3.93v16.033h-2.42v-7.473h-6.5a30.55,30.55,0,0,1-1.02,7.473h-2.45a31.759,31.759,0,0,0,1.13-7.473,6.259,6.259,0,0,0-1.83-4.053l3.5-1.27a20.478,20.478,0,0,1,.64,3.025h6.53v-6.262h-13.82v-2.3h20.17v2.3Zm7.66,0h-4.17v8.742h-2.39v-8.742h-4.2v-2.3h10.76v2.3Zm17.48,0H1422.7c0.09,2.056,1.9,3.843,4.99,3.843a15.039,15.039,0,0,0,3.85-.424V134.1a12.827,12.827,0,0,1-3.36.546l-0.32,4.294-0.05.546a7.622,7.622,0,0,0-4.29-1.634,3.148,3.148,0,0,0-2.71,1.21,6.068,6.068,0,0,0,5.89,3.51,8.249,8.249,0,0,0,6.12-2.664v2.451c-0.96,1.331-3.5,2.541-6.53,2.541a7.974,7.974,0,0,1-8.04-5.838,5.244,5.244,0,0,1,5.27-3.418,5.829,5.829,0,0,1,2.3.424l0.15-1.512a6.233,6.233,0,0,1-5.66-6.051h-4.75v-2.3h20.17v2.3Zm-9.65-5.235c-1.4-.272-4.4-0.483-4.4-5.384h2.3c0,2.814,1.05,2.875,2.15,3.026,2.25,0.363,4.35,1.422,4.35,5.324h-2.28C1428.2,124.362,1427.3,123.453,1426.08,123.271Z"/>
  </g>
</svg>
