<svg xmlns="http://www.w3.org/2000/svg" width="728" height="90" viewBox="0 0 728 90">
  <defs>
    <style>
      .cls-1 {
        fill: #4c286c;
        fill-rule: evenodd;
      }
    </style>
  </defs>
  <path class="cls-1" d="M233.219,42.4a9.04,9.04,0,0,0,1.324-1.213,7.356,7.356,0,0,0,1.174-1.762,10.457,10.457,0,0,0,.775-2.2h-1.274V34h1.873v1.4l4.272,0.025V33h1.9v2.4h4.4V33.85h1.874v3.375h-7.394a6.913,6.913,0,0,1,1.548,1.425h6.421l-0.025,1.825H244.01v0.3h5.146V42.55H244.01V42.8h5.146v1.825l-5.121.025V44.9h6.595v1.825H235.617V43a5.248,5.248,0,0,0-.949.775v1.5q-0.8.376-1.8,0.95v7.7a2.012,2.012,0,0,1-.55,1.05,1.663,1.663,0,0,1-.9.551,6.734,6.734,0,0,1-1.187.074h-0.912a18.581,18.581,0,0,0-.7-1.824c0.216,0,.583.02,1.1,0.063a3.283,3.283,0,0,0,1.1-.038l0.15-.225v-6.6a4.31,4.31,0,0,0-.425.2q-0.4.2-.7,0.325c-0.2.084-.383,0.158-0.55,0.225L228,46.276a26.238,26.238,0,0,0,2.972-1.451v-4.85H228.4v-1.8l2.573-.025V33.325h1.9v4.85h1.7v1.8h-1.7V44.15l1.474-.675Zm5.771,11.775,0.025-2.45a7.7,7.7,0,0,1-1.574.625l-0.775-.9,0.025,4.2h-1.873l-0.025-8.7h14.888l0.025,6.4a1.745,1.745,0,0,1-.412,1.113,2.179,2.179,0,0,1-.987.712,8.839,8.839,0,0,1-2.2.1,11.048,11.048,0,0,1-.6-1.525l-0.05.425H238.99Zm-2.324-5.425v1.925l0.675-.175a6.729,6.729,0,0,0,1.823-.9,1.5,1.5,0,0,0,.6-0.849h-3.1Zm4.372-10.1-0.574-.3a12.686,12.686,0,0,1,1.5-1.075l-4.946-.05a10.987,10.987,0,0,1,1.249.45,7.861,7.861,0,0,1-.5.975h3.272Zm-3.522,1.825v0.3h4.621V40.5Zm0,2.075v0.275l4.621-.025V42.55h-4.621Zm0,2.075,0.025,0.275h4.6V44.65Zm6.045,7.725-0.025-.574h-2.648l-0.025.574h2.7Zm0-2.375a1.713,1.713,0,0,1-.15-1.224h-1.849a2.607,2.607,0,0,1-.1.537,1.742,1.742,0,0,1-.35.687h2.448Zm1.723-.774a0.443,0.443,0,0,0,.3.325l2.2,0.024v-0.8h-2.5V49.2Zm0.175,4.25c0.1,0,.412.024,0.937,0.075a3.052,3.052,0,0,0,1.087-.025,0.72,0.72,0,0,0,.3-0.425V51.35h-2.323v2.1ZM263.544,37q-2.048.251-7.743,0.4l-1.125-1.85a72.4,72.4,0,0,0,9.518-.45,37.691,37.691,0,0,0,8.318-1.725l1.049,1.425a33.437,33.437,0,0,1-8.068,1.975v3.7h7.119V42.3h-7.119v3.825l9.167-.025v1.825h-9.192V53.9q0,2-1.774,2h-3.447l-0.7-2.051q2.5,0.226,3.148.2a0.986,0.986,0,0,0,.637-0.225,0.864,0.864,0,0,0,.212-0.65v-5.25H254l-0.025-1.8h9.567L263.57,42.3h-7.494l-0.026-1.825h7.494V37Zm21.907-1.725,6.02,0.025c-0.033-.033-0.075-0.079-0.125-0.138s-0.483-.429-1.3-1.112l1.723-.9a14.329,14.329,0,0,1,1.848,2.15h6.47v1.75l-14.138-.025V38.7h-7.619l-0.025-1.75h3.447a9.188,9.188,0,0,0-.624-1.3,8.248,8.248,0,0,0-1.3-1.575l1.673-.9a8.764,8.764,0,0,1,1.162,1.5,14.222,14.222,0,0,1,.987,1.825l-0.949.4,2.723,0.05Zm0.125,6.6-6.3.025V40.125h6.3v1.75Zm0,3.35h-6.3V43.45h6.3v1.775Zm-0.35,6.926-0.049,3.224H283.4v-1.7h-2.1V55.4h-1.8V47.125h5.671v4.75A11.115,11.115,0,0,0,289.9,49.9l-4.246-.051v-1.7h3.522v-1h-2.548V45.5l2.548-.025V44.7h-3.347L285.8,43.05h3.347V42.025h-2.773v-4.25h5.746v4.25H290.9a5.161,5.161,0,0,0,0,1.025h3.6l0.025-1.025-1.3.025V37.775h5.77V42h-2.723v1.05h3.348V44.7h-3.373v0.8h2.623v1.675h-2.623v0.976h3.647l0.026,1.675h-1.624l1.149,1.05a10.678,10.678,0,0,1-2.5,1.95,9.716,9.716,0,0,0,2.073,1.013,8.079,8.079,0,0,0,1.724.362l-0.8,1.649a11.952,11.952,0,0,1-3.709-1.412,6.92,6.92,0,0,1-2.56-2.588,9.316,9.316,0,0,1-.9-2h-0.6a7.857,7.857,0,0,1-1.6,1.551v2.024q2.173-.574,3.148-0.774l0.049,1.675q-3.771,1.05-5.021,1.55l-0.948-1.5c0.4-.15.645-0.246,0.736-0.287a0.453,0.453,0,0,0,.188-0.138V52.526a19.536,19.536,0,0,1-2.523.85Zm-3.9-3.325-0.025,3.149h2.048V48.825H281.33Zm6.719-8.326h2.373V39.3h-2.373v1.2Zm2.848,4.2v0.8h3.6V44.7h-3.6Zm0.1,2.475v0.976h3.5l0.025-.976H291Zm3.647,2.625a9.164,9.164,0,0,0,.474,1.063,5.43,5.43,0,0,0,.55.913,10.487,10.487,0,0,0,2.473-1.976h-3.5Zm2.622-10.5h-2.322v1.15h2.322V39.3Zm20.259-5.9q0,1.649.063,4.037t0.162,3.613h6.644v1.875h-6.469a27.349,27.349,0,0,0,1,4.8,19,19,0,0,0,2.8-4.1l1.7,0.725a22.037,22.037,0,0,1-3.747,5.275,11.448,11.448,0,0,0,1,1.65,20.388,20.388,0,0,0,1.386,1.813c0.276,0.291.446,0.346,0.513,0.162a14.214,14.214,0,0,0,.624-3.475l1.949,0.75a15.418,15.418,0,0,1-.85,4.125,1.765,1.765,0,0,1-.824.875,2.686,2.686,0,0,1-.924-0.013A4.22,4.22,0,0,1,320.9,54.5a13.578,13.578,0,0,1-2.7-3.4,26.469,26.469,0,0,1-4.846,3.15l-1.673-1.4a23.777,23.777,0,0,0,5.645-3.625,30.746,30.746,0,0,1-1.4-6.275h-4.8l0.025,3.6,3.8-.975,0.025,1.925-3.822,1.025L311.13,53.7a1.992,1.992,0,0,1-1.074,1.724,4.015,4.015,0,0,1-.961.213,12.386,12.386,0,0,1-1.562.037q-1-.025-1.349,0l-0.7-1.95,3.072,0.075a0.628,0.628,0,0,0,.413-0.2,0.637,0.637,0,0,0,.162-0.449V49.075L304.76,50.25l-1.4-1.825q2.624-.5,5.746-1.3V42.95l-5.1-.025-0.025-1.875h5.1v-3.6a10.661,10.661,0,0,1-1.923.45,16.741,16.741,0,0,1-2.124.225,15.583,15.583,0,0,0-1.174-1.875,20.241,20.241,0,0,0,3.572-.325,16.42,16.42,0,0,0,2.911-.837,30.417,30.417,0,0,0,3.284-1.588l1.249,1.425q-2.324,1.35-2.885,1.637t-0.887.413V41.05l4.646-.025a74.62,74.62,0,0,1-.15-7.625h1.924Zm2.223,1.05a12.149,12.149,0,0,1,2.448,1.812,8.184,8.184,0,0,1,1.849,2.413,11.857,11.857,0,0,1-1.6,1.375,7.291,7.291,0,0,0-1.711-2.4,9.7,9.7,0,0,0-2.585-1.75Zm15.388-.575a48.978,48.978,0,0,1-1.6,4.9V55.95h-1.949V42.8c-0.05.084-.2,0.309-0.449,0.675s-0.475.688-.675,0.962-0.391.529-.574,0.763l-1.749-.95a30.822,30.822,0,0,0,1.786-2.825,32.49,32.49,0,0,0,1.786-3.725q0.849-2.075,1.649-4.525Zm7.269,10.275h-4.672l-0.025,11.8-1.923-.05L335.76,34.575h6.62Zm-4.622-1.825h2.673l-0.025-2.1h-2.648v2.1Zm0.075-5.9v2.05l2.573-.025,0.025-2.05Zm6.77,17.2h0.412q0.237,0,1.036.025t1.124,0a0.589,0.589,0,0,0,.413-0.226,0.848,0.848,0,0,0,.162-0.55L347.75,44.15h-4.521V34.575l6.494,0.05,0.026,18.05a4.06,4.06,0,0,1-.238,1.625,2.267,2.267,0,0,1-.712.85,3.5,3.5,0,0,1-.874.313,5.126,5.126,0,0,1-1.312.074,10.153,10.153,0,0,0-1.111-.012Zm0.5-17.25-0.025,2.05h2.673l0.05-2.075Zm-0.025,3.85v2.1l2.673,0.025V40.225H345.1ZM368.809,33.7c-0.051.284-.121,0.608-0.213,0.975s-0.243.867-.45,1.5-0.346,1.067-.412,1.3h6.745q-0.026.576-.05,2.687t-0.075,3.425q-0.051,1.313-.163,2.863t-0.412,3.388a23.1,23.1,0,0,1-.874,3.563,3.636,3.636,0,0,1-.874,1.474,2.223,2.223,0,0,1-1.049.625,4.4,4.4,0,0,1-1.163,0,24.517,24.517,0,0,1-3.284-.775l-0.325-2.1a18.512,18.512,0,0,0,3.772,1.05,0.926,0.926,0,0,0,.95-0.45,15.793,15.793,0,0,0,.823-2.949,79.163,79.163,0,0,0,.825-11.05h-5.321a20.26,20.26,0,0,1-2.9,5.225l-1.3-.825V55.15l-1.924.024a9.2,9.2,0,0,1-.025-1.212c0.017-.476.025-0.754,0.025-0.838l-4.2.025v2.024h-1.973v-17.3h2.3a15.219,15.219,0,0,0,1.524-4.425l1.8,0.725a15.912,15.912,0,0,1-1.348,3.7h3.822L363.037,42.8a22.064,22.064,0,0,0,3.773-9.55Zm-11.916,5.95,0.024,4.85,4.147,0.025V39.65h-4.171Zm4.221,11.7-0.025-5.05-4.147.025v5Zm8.169-1.7a21.88,21.88,0,0,0-3.4-5.875l1.549-1.025a22.081,22.081,0,0,1,2.174,2.975,18.741,18.741,0,0,1,1.473,3.125Zm17.835-.476q-0.674-.825-1.511-1.7a8.573,8.573,0,0,0-1.461-1.274v9.724h-1.973v-9.45a19.417,19.417,0,0,1-2.849,2.476L377.9,47.375A32.141,32.141,0,0,0,381.81,44a21.667,21.667,0,0,0,2.835-3.725H378.5l0.05-1.85,8.268,0.025V40.1a22.968,22.968,0,0,1-2.7,4.3l0.026,0.875,0.724-.725a7.754,7.754,0,0,1,1.573,1.062,21.69,21.69,0,0,1,2.149,2.188Zm-5.171-15.8a19.444,19.444,0,0,1,1.449,1.738,9.949,9.949,0,0,1,1.224,2.337q-0.225.1-.812,0.425a8.961,8.961,0,0,1-.961.475,11.825,11.825,0,0,0-2.523-4.075Zm11.941,8.175,5.719,0.025L399.558,43.4l-5.67-.025,0.049,8.925,6.545,0.025V54.2l-15.062.024L385.4,52.3h6.494V43.375h-5.37v-1.85h5.37v-7.95l2.048-.025ZM425.112,54.8H407.426a1.982,1.982,0,0,1-.911-0.237,1.684,1.684,0,0,1-.737-0.812,2.921,2.921,0,0,1-.275-1.275V36.625l-1.574-.025V34.75l21.058,0.025v1.85H407.4l0.024,15.35a1.028,1.028,0,0,0,.226.75,1.112,1.112,0,0,0,.8.226h16.661V54.8Zm-9.592-3.474h-7.069V44.4l7.069,0.025v6.9Zm-5.2-5.1V49.5l3.3,0.025L413.6,46.2Zm11.416-3.15L410.5,43.1l0.025-5.575H421.74v5.55Zm-9.342-1.7h7.443V39.2H412.4v2.175Zm11.54,3.025v6.85h-7.144V44.4h7.144Zm-1.874,1.8-3.372.024v3.2l3.347,0.025Zm27.528,9.575a45.427,45.427,0,0,1-7.819-1.013A23.321,23.321,0,0,1,437,53.1l-0.774.525A17.553,17.553,0,0,1,429.059,56l-1.124-1.675a33.707,33.707,0,0,0,3.509-.788,21.506,21.506,0,0,0,3.759-1.412,17.056,17.056,0,0,1-3.622-3.2l1.449-.975a29.56,29.56,0,0,0,3.647,2.849,6.853,6.853,0,0,0,.862-1.5,7.981,7.981,0,0,0,.512-1.649h-6.794l0.025-9.25h7.168V36.55l-9.791.025V34.8h21.307v1.775L440.3,36.55V38.4h6.945v9.25h-7.3a9.468,9.468,0,0,1-.574,2.212,7.443,7.443,0,0,1-1.049,1.888,11.949,11.949,0,0,0,3.048,1.037,42.194,42.194,0,0,0,4.508.726q2.56,0.287,4.884.337ZM433.131,42.1h5.319V40.2l-5.319-.025V42.1Zm0,3.726,5.17,0.024,0.1-1.975h-5.27v1.951Zm7.143-1.951-0.125,1.975h5.3V43.875h-5.171Zm5.146-3.7h-5.071L440.324,42.1h5.1V40.175Zm8.368,12.75a13.52,13.52,0,0,0,2.9.95,0.728,0.728,0,0,0,.3-0.013,0.584,0.584,0,0,0,.287-0.187A1.159,1.159,0,0,0,457.5,53.3a14.025,14.025,0,0,0,.338-1.375,27.667,27.667,0,0,0,.65-4.7l-4.6.025a53.275,53.275,0,0,0,.7-7.2h3.846V36.4h-4.82V34.625h6.694l-0.025,7.2-3.822.025q-0.1,1.7-.325,3.625l4.2-.025a30.013,30.013,0,0,1-1.1,8.6,2.33,2.33,0,0,1-.675,1.075,2.1,2.1,0,0,1-1.049.525,10.7,10.7,0,0,1-3.472-.7ZM472.2,50a16.26,16.26,0,0,1,3.273,4.849q-0.251.126-.825,0.463a7.416,7.416,0,0,1-.949.487,10.148,10.148,0,0,0-.849-2l-11.966,1.225c-0.149-.25-0.329-0.58-0.537-0.988s-0.346-.679-0.412-0.812q0.849,0,1.873-.062t2.7-.237l2.149-.225-0.025-3.35h-4.971l-0.025-6.975h5.045V40.35q-2.648.175-5.22,0.55l-1.025-1.625a20.738,20.738,0,0,0,6.2-6.1q0.324,0.2.849,0.575t0.724,0.5a21.969,21.969,0,0,1-1.91,2.338,14.958,14.958,0,0,1-2.536,2.212q1.124-.025,3.5-0.187t4-.312a10.386,10.386,0,0,0-2.523-1.775l1.648-1.1a19.233,19.233,0,0,1,2.7,2.337,16.179,16.179,0,0,1,2.223,2.812l-1.6.975a9.09,9.09,0,0,0-1.1-1.675l-4.047.325,0.025,2.175h4.9V49.35H468.5V52.5l3.247-.35a18.3,18.3,0,0,0-1.6-1.551Zm-8.668-2.475,3.147,0.024V44.175H463.53v3.35Zm5.021-3.326,0.025,3.3,3.1,0.025V44.2h-3.122Zm11.49-2.7V39.575h7.8a52.891,52.891,0,0,0,.174-6.3,9.576,9.576,0,0,0,1.1.175q0.675,0.075.924,0.125a59.236,59.236,0,0,1-.125,6h8.943l0.025,1.925h-7.344a21.507,21.507,0,0,0,1.623,5.276,14.516,14.516,0,0,0,2.674,3.824A19.409,19.409,0,0,0,500,53.776l-1.349,1.5a27.823,27.823,0,0,1-2.972-2.088,15.32,15.32,0,0,1-2.61-2.687,15.7,15.7,0,0,1-2.024-3.662,23.763,23.763,0,0,1-1.336-5.338,21.646,21.646,0,0,1-3.16,8.238,18.261,18.261,0,0,1-6.308,5.413l-1.423-1.725a15.462,15.462,0,0,0,4.2-2.875,15.748,15.748,0,0,0,2.96-3.974A17.253,17.253,0,0,0,487.66,41.5h-7.619Z"/>
</svg>
