<svg xmlns="http://www.w3.org/2000/svg" width="728" height="90" viewBox="0 0 728 90">
  <defs>
    <style>
      .cls-1 {
        fill: #4c286c;
        fill-rule: evenodd;
      }
    </style>
  </defs>
  <path class="cls-1" d="M283.148,36.16a7.767,7.767,0,0,0-1.34-1.315,11.9,11.9,0,0,0-1.841-1.14l1.979-1.052a12.844,12.844,0,0,1,3.029,2.7,21.113,21.113,0,0,1,2.655,4.083c-0.15.083-.418,0.25-0.8,0.5a5.829,5.829,0,0,1-.952.526,19.3,19.3,0,0,0-1.4-2.554l-0.863.074q-0.589.051-5.547,0.451t-8.439,1.027l-1.2-1.8a18.889,18.889,0,0,0,3.644-3.131,24.889,24.889,0,0,0,2.892-3.808h-7.337V28.871l8.714,0.05,0.026-4.558h-6.887l-0.025-1.9,6.886,0.051V18.252l2.055-.025-0.051,4.283,6.862,0.05v1.8h-6.862v4.508h8.74v1.853h-9.816a24.2,24.2,0,0,1-5.134,6.362Zm14.875-17.382Q298,19,297.935,19.328t-0.388,1.4h14.025V22.56l-7.639.05,0.025,3.206h6.386v1.853h-6.386v4.057h8.64V33.58l-8.64-.026v7.213H301.98V33.58h-9.767V31.7l3.1,0.024v-5.91l6.662-.026V22.584h-5.159a26.709,26.709,0,0,1-1.54,2.743,12.145,12.145,0,0,1-1.916,2.266l-1.577-1.277A16.341,16.341,0,0,0,296.421,18Zm-0.777,8.891v4.057h4.709l0.025-4.057h-4.734ZM328.425,30a4.466,4.466,0,0,1-.2,1.29,3.706,3.706,0,0,1-.689,1.265,3.588,3.588,0,0,1-1.29.977L325.52,32.6a2.479,2.479,0,0,0,1.5-2.479H325.67V27.368h2.755V30Zm27.021-11.771q0,1.652.063,4.044t0.163,3.62h6.661v1.878h-6.486a27.568,27.568,0,0,0,1,4.809,18.99,18.99,0,0,0,2.806-4.108l1.7,0.727a22.052,22.052,0,0,1-3.756,5.284,11.371,11.371,0,0,0,1,1.653,20.093,20.093,0,0,0,1.39,1.816q0.414,0.439.514,0.162a14.236,14.236,0,0,0,.626-3.481l1.954,0.751a15.429,15.429,0,0,1-.852,4.133,1.773,1.773,0,0,1-.826.877,2.674,2.674,0,0,1-.927-0.013,4.225,4.225,0,0,1-1.653-1.015,13.618,13.618,0,0,1-2.7-3.406,26.584,26.584,0,0,1-4.857,3.155l-1.679-1.4a23.905,23.905,0,0,0,5.66-3.632,30.915,30.915,0,0,1-1.4-6.287h-4.808l0.026,3.607,3.806-.977,0.025,1.928-3.831,1.027-0.026,5.184a2,2,0,0,1-1.077,1.729,4.065,4.065,0,0,1-.964.212,12.348,12.348,0,0,1-1.565.038q-1-.026-1.353,0l-0.7-1.954,3.08,0.075a0.623,0.623,0,0,0,.576-0.652V33.93l-4.383,1.177-1.4-1.828q2.629-.5,5.76-1.3V27.794l-5.109-.024-0.025-1.878h5.109V22.284a10.649,10.649,0,0,1-1.928.451,16.6,16.6,0,0,1-2.129.225,15.812,15.812,0,0,0-1.177-1.878,20.3,20.3,0,0,0,3.581-.325,16.506,16.506,0,0,0,2.918-.839,30.534,30.534,0,0,0,3.292-1.591l1.253,1.428q-2.329,1.351-2.893,1.64t-0.888.414v4.083l4.657-.025a74.322,74.322,0,0,1-.15-7.639h1.928Zm2.229,1.052a12.228,12.228,0,0,1,2.454,1.816,8.167,8.167,0,0,1,1.853,2.417,11.948,11.948,0,0,1-1.6,1.378,7.3,7.3,0,0,0-1.716-2.4,9.719,9.719,0,0,0-2.591-1.753ZM373.1,18.7a48.908,48.908,0,0,1-1.6,4.909V40.818h-1.953V27.644c-0.051.083-.2,0.309-0.451,0.676s-0.476.689-.676,0.964-0.393.53-.576,0.764L366.09,29.1a31.133,31.133,0,0,0,1.79-2.829,32.775,32.775,0,0,0,1.792-3.733q0.85-2.078,1.652-4.533ZM380.389,29h-4.683l-0.024,11.821-1.929-.05L373.728,19.4h6.637Zm-4.633-1.829h2.681l-0.026-2.1h-2.655v2.1Zm0.075-5.91v2.054l2.58-.026,0.026-2.053Zm6.788,17.231h0.412c0.159,0,.5.009,1.04,0.026s0.91,0.017,1.127,0a0.594,0.594,0,0,0,.413-0.225,0.848,0.848,0,0,0,.162-0.552L385.749,29h-4.533V19.4l6.511,0.05,0.025,18.084a4.081,4.081,0,0,1-.237,1.628,2.267,2.267,0,0,1-.715.851,3.5,3.5,0,0,1-.876.313,5.138,5.138,0,0,1-1.315.075,10.29,10.29,0,0,0-1.114-.013Zm0.5-17.282-0.025,2.055h2.679l0.051-2.079Zm-0.025,3.858v2.1l2.679,0.026V25.064h-2.679Zm12.2,7.413q-0.2.076-1.039,0.364c-0.56.192-.985,0.33-1.278,0.413s-0.488.142-.588,0.175l-1.177-1.652a39.869,39.869,0,0,0,4.082-1.153V24.963h-3.256v-1.8h3.256V18.5h1.9V23.16h2.88v1.8h-2.88v5.009L400,29.046v1.829a11.547,11.547,0,0,1-1.5.551,12.864,12.864,0,0,0-1.3.451V39.04a1.3,1.3,0,0,1-.35.839,1.865,1.865,0,0,1-.751.563,3.609,3.609,0,0,1-.827.188,10.042,10.042,0,0,1-1.415.038c-0.61-.018-0.989-0.025-1.139-0.025l-0.626-1.879a17,17,0,0,0,2.629.1,0.487,0.487,0,0,0,.388-0.175,0.477,0.477,0,0,0,.188-0.4V32.477Zm2.855,6.462a18.679,18.679,0,0,0,6.587-3.331,16.527,16.527,0,0,1-2.981-5.209h-1.3V28.571h10.518a11,11,0,0,1-3.431,7.162,15.2,15.2,0,0,0,6.386,3.232l-1.228,1.753a13.434,13.434,0,0,1-3.368-1.516,27.361,27.361,0,0,1-3.242-2.217,18.4,18.4,0,0,1-3.031,2.066,20.752,20.752,0,0,1-3.631,1.565Zm0.15-11.722q2.5-1.177,2.955-2.93a10.746,10.746,0,0,0,.213-1.214q0.114-.839.138-3.544h8.539l0.026,5.385a0.589,0.589,0,0,0,.7.626h2.5v1.753h-3.08a3.121,3.121,0,0,1-1.052-.4,1.818,1.818,0,0,1-.739-0.827,2.7,2.7,0,0,1-.238-1.127V21.357l-4.708-.025a20.314,20.314,0,0,1-.288,2.88,6.193,6.193,0,0,1-.538,1.554A7.868,7.868,0,0,1,399.8,28.72ZM403.78,30.4a11.756,11.756,0,0,0,1.089,2.216,6,6,0,0,0,1.314,1.691,12.377,12.377,0,0,0,1.541-1.84,8.292,8.292,0,0,0,.989-2.066H403.78Zm13.2,7.964a22.131,22.131,0,0,0,6.511-5.046,20.647,20.647,0,0,0,3.882-7.151,32.624,32.624,0,0,1-.4-4.508h-4.332V19.779l6.335-.024a28.323,28.323,0,0,0,.352,6.136,16.725,16.725,0,0,0,2.729,6.674,22.359,22.359,0,0,0,6.161,5.773l-1.2,1.652A23.051,23.051,0,0,1,434.4,38.1a23.6,23.6,0,0,1-2.517-2.43,19.589,19.589,0,0,1-2.179-2.955,15.611,15.611,0,0,1-1.528-3.344,20.137,20.137,0,0,1-4.057,6.236,23.611,23.611,0,0,1-5.96,4.408Zm34.384-.275a0.431,0.431,0,0,0,.275-0.25,1.008,1.008,0,0,0,.125-0.5V25.965a22.739,22.739,0,0,0,6.062-4.383L444.2,21.558V19.679h16.453v1.678a21.707,21.707,0,0,1-6.836,5.585L453.79,38.088a2.124,2.124,0,0,1-.475,1.3,1.67,1.67,0,0,1-1.353.652l-3.681.05-0.9-2h3.982Zm-211.2,31.031h-2.1v-13.3H234V54.171l0.4-.025c2.3-.15,3.6-0.7,4.056-2.855h1.7V69.119Zm15.45-4.456h-2.4v4.456h-2.1V64.663h-8.938V62.634l8.763-11.343h2.278V62.759h2.4v1.9Zm-11.241-1.9H251.1V54.046Zm12.747-2.553c0-5.909,2.128-9.315,6.459-9.315s6.46,3.406,6.46,9.315-2.128,9.315-6.46,9.315S257.115,66.115,257.115,60.206Zm10.716,0c0-4.958-1.5-7.412-4.257-7.412s-4.256,2.454-4.256,7.412,1.5,7.412,4.256,7.412S267.831,65.163,267.831,60.206Zm10.846-9.77v-2.1l1.928-.024,0.026,2.129h3.18l0.026,1.753-3.206-.025-0.026,1.728-1.928-.024V52.189h-5.484l0.025-1.753h5.459Zm-0.55,17.582a15.212,15.212,0,0,0-.777-1.729q3.129,0,5.86-.2V64.311H277.1v6.512h-1.978V64.311h-1.4V62.583h1.4L275.1,61.506h1.979l0.024,1.077h6.111l0.025-1.153h-6.911V53.967H292.05V61.43h-6.887l-0.024,1.127,8.489,0.025v5.96a1.856,1.856,0,0,1-1.453,1.753,12.528,12.528,0,0,1-1.9.1h-1.6a14.326,14.326,0,0,0-.525-1.829q1.3,0.1,1.915.125a9.2,9.2,0,0,0,1.19-.026,0.532,0.532,0,0,0,.363-0.262,0.826,0.826,0,0,0,.163-0.464V64.311h-2.93a6.491,6.491,0,0,1,1.289,1.164,10.2,10.2,0,0,1,1.29,2.167l-1.628.9c-0.083-.183-0.184-0.413-0.3-0.689a3.177,3.177,0,0,0-.251-0.513Zm0.1-12.3V56.8h4.984V55.72h-4.984Zm0,2.856v1.1h4.984v-1.1h-4.984Zm6.237-6.438V50.41l3.28-.025V48.256l1.878-.024v2.153h5.334v1.753h-5.334l0.025,1.729h-1.878V52.138h-3.3Zm0.676,6.412,0.024,1.127h5.009V58.55h-5.033Zm3.28,5.811-3.256-.05-0.024,1.628q0.525,0,1.539-.075l1.34-.1-1.077-.7Zm-3.256-8.641V56.8h4.984l-0.025-1.077h-4.959Zm12.948,6.387a19.926,19.926,0,0,0,3.068-3.907,20.234,20.234,0,0,0,2.015-4.434l1.679,0.852a20.9,20.9,0,0,1-5.21,8.791Zm11.845-13.475V67.416a2.3,2.3,0,0,1-.951,2.18,5.013,5.013,0,0,1-2.63.538q-1.629-.038-1.953-0.013L303.6,68.068q1.728,0.126,3.681.075a0.584,0.584,0,0,0,.451-0.238,0.759,0.759,0,0,0,.2-0.489V48.632h2.028Zm7.788,14.677a19.719,19.719,0,0,0-5.684-8.615l1.777-.952a21.636,21.636,0,0,1,3.569,4.133,16.307,16.307,0,0,1,2.141,4.558Zm13.1-13V67.416h-1.9l0.026-1.828h-2.856v1.878H324.18V50.285Zm-1.9,1.753h-2.83v4.783h2.83V52.064Zm0,11.772,0.026-5.21h-2.83v5.21h2.8Zm12.622,4.884a1.962,1.962,0,0,1-.213.789,2.3,2.3,0,0,1-.714.851,1.689,1.689,0,0,1-1.052.388H336.8q-0.375-1.252-.651-1.954,2.1,0.151,2.353.151a4.117,4.117,0,0,0,.477-0.025,0.44,0.44,0,0,0,.375-0.15,0.551,0.551,0,0,0,.176-0.4l-0.026-5.986h-8.063V60.6l8.063-.025,0.026-2.2,2.028-.025V60.6l3.556-.025v1.8h-3.531Zm3.055-12.6v1.8l-13-.026-0.025-1.753,5.384-.024V52.865H332.47V51.086l4.507,0.025V48.106h2l0.024,2.98h4.633v1.779h-4.607v3.28Zm-10.543,6.812a6.987,6.987,0,0,1,2.2,1.665,9.845,9.845,0,0,1,1.552,2.117l-1.6,1.3a9.786,9.786,0,0,0-1.69-2.355,5.754,5.754,0,0,0-2.042-1.452Zm13.5,4.558a16.614,16.614,0,0,0,3.781-5.635,16.744,16.744,0,0,1,1.627.827,16.545,16.545,0,0,1-3.856,5.936ZM367.2,57.874v1.8L350.25,59.7l0.025-1.878,7.512,0.05V54.042h-9.365V52.213h9.391V48.432h1.953v3.781h9.392v1.829h-9.417V57.9Zm-2.1,7.088q-0.126.351-.427,1.339a9.918,9.918,0,0,1-.613,1.6,4.572,4.572,0,0,1-.739,1.064,1.793,1.793,0,0,1-.726.463,4.021,4.021,0,0,1-1.3.163l-5.183.025a2.638,2.638,0,0,1-1.065-.225,1.691,1.691,0,0,1-.764-0.614,1.892,1.892,0,0,1-.3-0.79V62.156h1.9v5.185a1.165,1.165,0,0,0,.149.251,0.682,0.682,0,0,0,.477.225h5.108a1.428,1.428,0,0,0,.464-0.238,1.747,1.747,0,0,0,.488-0.613,6.711,6.711,0,0,0,.464-1.315q0.237-.889.337-1.165Zm-5.009.525A14.485,14.485,0,0,0,356.21,61.1l1.452-1.127a21.413,21.413,0,0,1,4.058,4.208Zm5.834-3.681a22,22,0,0,1,2.493,2.492,18.238,18.238,0,0,1,1.89,2.742q-1.127.828-1.577,1.1a17.765,17.765,0,0,0-4.132-5.16Zm13.875,1.7a14.04,14.04,0,0,1-1.04,2.617,11.928,11.928,0,0,1-1.464,2.241l-1.453-.726a11,11,0,0,1-.6,1.641,13.055,13.055,0,0,1-.827,1.565l-1.7-1.153a10.89,10.89,0,0,0,1.44-3.932,28.817,28.817,0,0,0,.488-5.51V49.508l10.218,0.025v1.753h-2.405q-0.5,1.253-.8,1.853h3.08l-0.025,8.942h-2.654l0.024,6.361a1.84,1.84,0,0,1-.337,1.015,1.924,1.924,0,0,1-.764.713,3.032,3.032,0,0,1-.751.226,8.284,8.284,0,0,1-1.227.087c-0.535.009-.876,0.022-1.027,0.038l-0.676-1.9q0.324,0.025,1.2.1a4.175,4.175,0,0,0,1.352-.051,0.711,0.711,0,0,0,.276-0.288,0.9,0.9,0,0,0,.125-0.464l-0.025-5.86-2.93.026V53.14h2.178a6.051,6.051,0,0,0,.9-1.853H376.57L376.546,61.43q0,1.277-.138,2.843a23.339,23.339,0,0,1-.363,2.642,10.184,10.184,0,0,0,2.028-4.032Zm-0.7-5.059q-0.025.575,0.025,1.879h3.681l0.025-1.854Zm3.731-1.729V54.869H379.1l0.025,1.853h3.706Zm1.027,6.162a12.382,12.382,0,0,1,2.2,4.333l-1.729.9a12.764,12.764,0,0,0-.825-2.479,9.823,9.823,0,0,0-1.353-2.1Zm0.326,6.562a10.166,10.166,0,0,0,2.329-1.4,9.888,9.888,0,0,0,1.878-1.953l1.3,1.252a10.015,10.015,0,0,1-4.207,3.431ZM395.1,51.212H391.5a8.827,8.827,0,0,1-.676,1.854l3.081-.026V65.989l-7.914-.024,0.025-12.9h2.579a6.184,6.184,0,0,0,.927-1.878H385.01l0.025-1.779H395.1v1.8Zm-7.313,13.024h4.233V62.207h-4.257Zm0-9.442v1.978h4.233V54.793h-4.233Zm0,3.707v1.928l4.233,0.025V58.5h-4.233ZM394.3,70.747a11.461,11.461,0,0,0-1.879-1.978,7.574,7.574,0,0,0-2.2-1.353l1.353-1.352A14.087,14.087,0,0,1,395.6,69.37Zm12.872-21.264v19.11a1.3,1.3,0,0,1-.226.626,2.149,2.149,0,0,1-.775.7,2.194,2.194,0,0,1-1.127.326h-2.23q-0.075-.251-0.726-1.928,0.351,0,1.277.025a9.006,9.006,0,0,0,1.453-.051,0.615,0.615,0,0,0,.313-0.225,0.912,0.912,0,0,0,.163-0.5V62.833l-3.406.024q-0.126,1.8-.35,3.156a11.066,11.066,0,0,1-2.154,4.884l-1.553-1.177a10.347,10.347,0,0,0,1.24-2.217,10.974,10.974,0,0,0,.714-2.8,29.205,29.205,0,0,0,.2-3.644V49.508Zm-5.259,1.879v3.832h3.33V51.337ZM405.3,57l-3.381.024V61h3.33Zm5.409,2.68V70.823l-1.928.05V49.508h10.042a30.7,30.7,0,0,1-.751,5.436,1.847,1.847,0,0,1-.751,1.065,2.406,2.406,0,0,1-1.228.488,11.923,11.923,0,0,1-2.83-.175l-0.551-2q0.325,0.05,1.365.225a13.694,13.694,0,0,0,1.69.2,0.433,0.433,0,0,0,.4-0.376,8.647,8.647,0,0,0,.3-1.427q0.15-1,.2-1.578H410.7l-0.025,6.462h8.164a19.645,19.645,0,0,1-.877,4.457,23.911,23.911,0,0,1-1.578,3.832,10.939,10.939,0,0,0,1,1.027,27.369,27.369,0,0,0,2.905,2.1l-1.127,1.427a17.23,17.23,0,0,1-3.756-2.88,15.429,15.429,0,0,1-1.377,1.478q-0.953.926-1.928,1.728-0.276-.251-0.739-0.764t-0.563-.613a16.825,16.825,0,0,0,3.329-3.306,15.974,15.974,0,0,1-2.528-6.637h-0.9Zm2.78-.026a14.125,14.125,0,0,0,.525,2.167,12.864,12.864,0,0,0,1.127,2.617q0.4-.826.839-2a26.592,26.592,0,0,0,.84-2.781h-3.331Zm19.984-.45a18.917,18.917,0,0,0,1.978-.877,11.315,11.315,0,0,0,1.728-1.077q-0.2-.226-0.7-0.939a13.462,13.462,0,0,1-1.126-2.092,9.317,9.317,0,0,1-1.7,1.8l-1.753-1.076a12.012,12.012,0,0,0,2.367-2.543,15.724,15.724,0,0,0,1.966-4.42l1.728,0.576a14.723,14.723,0,0,1-.6,1.953l7.162,0.026v1.853h-2.028a11.291,11.291,0,0,1-2.6,4.884,10.751,10.751,0,0,0,2.655,1.6,18.484,18.484,0,0,0,3.331,1.077l-1.053,1.753a19.38,19.38,0,0,1-3.293-1.241,16.381,16.381,0,0,1-3.042-1.89,22.938,22.938,0,0,1-5.986,3.055l-1.052-1.654,1.052-.35-1.077-.25,0.351-1.2h-1.152V68.618a2.222,2.222,0,0,1-.476,1.5,2.011,2.011,0,0,1-1.352.652,15.32,15.32,0,0,1-2.429.075l-0.676-2.029q1.375,0.1,2.253.075a0.885,0.885,0,0,0,.564-0.138,0.692,0.692,0,0,0,.162-0.538V58.174a20.066,20.066,0,0,1-1.7,5.223,13.248,13.248,0,0,1-3.03,3.945l-1.453-1.3a11.3,11.3,0,0,0,2.717-3.393,17.843,17.843,0,0,0,1.566-4.471H423.4V56.321h5.635a14.4,14.4,0,0,0-3.781-2.48l1.377-1.277q0.351,0.175.914,0.475t0.864,0.476a10.182,10.182,0,0,0,2.229-2.153h-6.31V49.508h8.614v1.679a16.857,16.857,0,0,1-3.031,3.431l1.278,1.2-0.526.5h3.431Zm-2.48,9.893a6.748,6.748,0,0,0,1.753-.526,6.358,6.358,0,0,0,1.766-1.215,6.531,6.531,0,0,0,1.39-1.878,8.512,8.512,0,0,0,.726-2.041h-3.506V61.581H436.9a15,15,0,0,0,.05-1.779H438.9a15.226,15.226,0,0,1-.049,1.779h4.357a37.759,37.759,0,0,1-.851,6.912,2.2,2.2,0,0,1-.665,1.114,2.953,2.953,0,0,1-1.815.489,14.506,14.506,0,0,1-2.379-.2l-0.476-2.029a11.3,11.3,0,0,0,2.63.326,1.72,1.72,0,0,0,.613-0.1,0.712,0.712,0,0,0,.363-0.576,16.149,16.149,0,0,0,.414-1.917q0.212-1.263.287-2.166h-2.78a9.273,9.273,0,0,1-1.051,3.23,8.041,8.041,0,0,1-2.33,2.705,8.993,8.993,0,0,1-3.1,1.528Zm5.76-16.706A9.458,9.458,0,0,0,438.6,55.97a8.071,8.071,0,0,0,1.878-3.582h-3.732Zm19.309-2.078V67.416h-1.9l0.026-1.828h-2.856v1.878H449.4V50.285Zm-1.9,1.753h-2.83v4.783h2.83V52.064Zm0,11.772,0.026-5.21h-2.83v5.21h2.8Zm12.622,4.884a1.962,1.962,0,0,1-.213.789,2.3,2.3,0,0,1-.714.851,1.691,1.691,0,0,1-1.052.388h-2.779q-0.375-1.252-.651-1.954,2.1,0.151,2.353.151a4.117,4.117,0,0,0,.477-0.025,0.44,0.44,0,0,0,.375-0.15,0.551,0.551,0,0,0,.176-0.4l-0.026-5.986h-8.064V60.6l8.064-.025,0.026-2.2,2.028-.025V60.6l3.556-.025v1.8H466.8Zm3.055-12.6v1.8l-13-.026-0.025-1.753,5.384-.024V52.865h-4.507V51.086l4.507,0.025V48.106h2l0.024,2.98h4.633v1.779h-4.607v3.28Zm-10.543,6.812a6.987,6.987,0,0,1,2.2,1.665,9.845,9.845,0,0,1,1.552,2.117l-1.6,1.3a9.786,9.786,0,0,0-1.69-2.355,5.754,5.754,0,0,0-2.042-1.452Zm15.477,7.84V49.508l8.665-.025v7.965h-6.787l0.05,13.324h-1.928Zm1.9-19.46-0.025,1.227h4.883v-1.2Zm0,3.03-0.025,1.278h4.883V54.342h-4.858ZM489.338,58.7l-0.024,8.641h-9.842V58.7h9.866Zm-7.963,1.828v1.528h6.035L487.385,60.5Zm0.025,3.357v1.652h6.01l-0.025-1.652H481.4Zm3.957-6.488-0.025-7.939L494,49.484V68.268a1.84,1.84,0,0,1-.414,1.19,2.407,2.407,0,0,1-.964.739,3,3,0,0,1-.939.2q-0.488.025-1.165,0.013t-0.976.012l-0.777-2a13.327,13.327,0,0,0,2.755.125,0.708,0.708,0,0,0,.6-0.6V57.423Zm1.928-6.111v1.2h4.784v-1.2h-4.784Zm0,4.358h4.784v-1.3h-4.784v1.3Z"/>
</svg>
