<svg xmlns="http://www.w3.org/2000/svg" width="320" height="50" viewBox="0 0 320 50">
  <defs>
    <style>
      .cls-1 {
        fill: #4b286d;
        fill-rule: evenodd;
      }
    </style>
  </defs>
  <path id="By_giving_back_hum_bana_rahe_hain_communities_ko_stronger._" data-name="By giving back, hum bana rahe hain communities ko stronger. " class="cls-1" d="M27.984,14.442a2.52,2.52,0,0,0,1.41-2.34c0-1.515-1.035-2.79-3.255-2.79H21.7V19.992h4.665c2.28,0,3.465-1.2,3.465-3A2.605,2.605,0,0,0,27.984,14.442Zm-1.935-3.989c1.425,0,2.115.69,2.115,1.695,0,1.14-.69,1.83-2.115,1.83h-3.09V10.453h3.09Zm0.255,8.4H22.959V15.1h3.33c1.425,0,2.28.585,2.28,1.89C28.569,18.147,27.8,18.852,26.3,18.852Zm9.658-6.6-1.095,3.21c-0.39,1.125-.765,2.25-1.11,3.36-0.36-1.11-.72-2.22-1.11-3.345l-1.1-3.225h-1.32l2.91,7.994c-0.09.24-.18,0.495-0.27,0.72a1.356,1.356,0,0,1-1.41.96H30.757v1a5.984,5.984,0,0,0,.72.045A2.339,2.339,0,0,0,34,21.206l3.27-8.954h-1.3Zm11.011,0v1.125a3.124,3.124,0,0,0-2.655-1.3c-2.175,0-3.6,1.575-3.6,4.05s1.425,4.049,3.6,4.049a3.128,3.128,0,0,0,2.6-1.23v0.75a2.141,2.141,0,0,1-2.4,2.4c-1.215,0-1.95-.495-2.1-1.47h-1.2c0.165,1.5,1.32,2.49,3.3,2.49,2.445,0,3.6-1.41,3.6-3.42V12.252h-1.14Zm-2.505,6.839c-1.5,0-2.49-1.155-2.49-2.97s0.99-2.97,2.49-2.97,2.49,1.095,2.49,2.97S45.968,19.092,44.468,19.092Zm5.949-7.934a0.81,0.81,0,1,0-.81-0.81A0.816,0.816,0,0,0,50.416,11.158Zm-0.6,8.834h1.2V12.252h-1.2v7.739Zm8.1-7.739-1.275,3.435c-0.36.975-.765,2.04-1.095,3.015-0.33-.975-0.735-2.025-1.095-3l-1.275-3.45h-1.3l3.03,7.739h1.26l3.045-7.739h-1.29Zm2.77-1.095a0.81,0.81,0,1,0-.81-0.81A0.816,0.816,0,0,0,60.687,11.158Zm-0.6,8.834h1.2V12.252h-1.2v7.739Zm6.438-7.919a2.852,2.852,0,0,0-2.43,1.335V12.252h-1.14v7.739h1.2V15.612a2.2,2.2,0,0,1,2.13-2.46,1.552,1.552,0,0,1,1.77,1.725v5.114h1.2V14.757A2.468,2.468,0,0,0,66.525,12.072Zm10.3,0.18v1.125a3.124,3.124,0,0,0-2.655-1.3c-2.175,0-3.6,1.575-3.6,4.05s1.425,4.049,3.6,4.049a3.128,3.128,0,0,0,2.595-1.23v0.75a2.141,2.141,0,0,1-2.4,2.4c-1.215,0-1.95-.495-2.1-1.47h-1.2c0.165,1.5,1.32,2.49,3.3,2.49,2.445,0,3.6-1.41,3.6-3.42V12.252h-1.14ZM74.32,19.092c-1.5,0-2.49-1.155-2.49-2.97s0.99-2.97,2.49-2.97,2.49,1.095,2.49,2.97S75.82,19.092,74.32,19.092Zm12.091-7.019a3.041,3.041,0,0,0-2.6,1.29V9.313h-1.2V19.992h1.14v-1.2a3.043,3.043,0,0,0,2.655,1.38c2.175,0,3.6-1.575,3.6-4.049S88.586,12.072,86.411,12.072Zm-0.15,7.019c-1.5,0-2.49-1.095-2.49-2.97s0.99-2.97,2.49-2.97,2.49,1.035,2.49,2.91S87.761,19.092,86.261,19.092Zm11.379-.075a0.355,0.355,0,0,1-.42-0.375V14.322c0-1.3-.765-2.25-2.91-2.25-2.265,0-3.06,1.065-3.15,2.565h1.2c0.075-1.155.63-1.53,1.95-1.53s1.74,0.4,1.74,1.215a1.078,1.078,0,0,1-1.215,1.065l-1.11.12c-2.13.225-2.865,1.185-2.865,2.4,0,1.455,1.05,2.265,2.73,2.265a2.837,2.837,0,0,0,2.52-1.245,1.11,1.11,0,0,0,1.305,1.11,4.564,4.564,0,0,0,.66-0.045V19.017H97.64Zm-3.99.135a1.282,1.282,0,0,1-1.545-1.275c0-.75.39-1.23,1.8-1.395l1.125-.135a2,2,0,0,0,1.02-.33v0.915A2.223,2.223,0,0,1,93.65,19.152Zm8.507,1.02a3.193,3.193,0,0,0,3.331-2.835h-1.23a2.033,2.033,0,0,1-2.1,1.755c-1.29,0-2.325-.945-2.325-2.97s1-2.97,2.325-2.97a2.015,2.015,0,0,1,2.086,1.725h1.245a3.137,3.137,0,0,0-3.331-2.8c-2.145,0-3.585,1.56-3.585,4.05S100.042,20.171,102.157,20.171Zm9.738-.18h1.4l-3.15-4.949,2.94-2.79h-1.59l-3.585,3.465v-6.4h-1.2V19.992h1.2V17.127l1.38-1.29Zm2.917-1.5a0.8,0.8,0,0,0-.84.81,0.781,0.781,0,0,0,.84.78h0.09a1.11,1.11,0,0,1-.825,1.17l-0.105.03v0.795l0.15-.03a2.034,2.034,0,0,0,1.68-2.28A1.053,1.053,0,0,0,114.812,18.492Zm8.911-6.419a2.851,2.851,0,0,0-2.37,1.245v-4h-1.2V19.992h1.2V15.612a2.2,2.2,0,0,1,2.13-2.46,1.552,1.552,0,0,1,1.77,1.725v5.114h1.2V14.757A2.468,2.468,0,0,0,123.723,12.072Zm9.473,0.18v4.38a2.2,2.2,0,0,1-2.13,2.46,1.552,1.552,0,0,1-1.77-1.725V12.252h-1.2v5.234a2.467,2.467,0,0,0,2.73,2.685,2.852,2.852,0,0,0,2.43-1.335v1.155h1.14V12.252h-1.2Zm11.038-.18a2.673,2.673,0,0,0-2.385,1.455,2.424,2.424,0,0,0-2.385-1.455,2.486,2.486,0,0,0-2.235,1.32v-1.14h-1.14v7.739h1.2V15.762c0-1.86,1.035-2.61,1.98-2.61a1.479,1.479,0,0,1,1.62,1.71v5.129h1.2V15.762c0-1.86,1-2.61,1.98-2.61a1.473,1.473,0,0,1,1.62,1.71v5.129h1.2V14.742A2.46,2.46,0,0,0,144.234,12.072Zm11.1,0a3.041,3.041,0,0,0-2.595,1.29V9.313h-1.2V19.992h1.14v-1.2a3.043,3.043,0,0,0,2.655,1.38c2.175,0,3.6-1.575,3.6-4.049S157.511,12.072,155.336,12.072Zm-0.15,7.019c-1.5,0-2.49-1.095-2.49-2.97s0.99-2.97,2.49-2.97,2.49,1.035,2.49,2.91S156.686,19.092,155.186,19.092Zm11.379-.075a0.355,0.355,0,0,1-.42-0.375V14.322c0-1.3-.765-2.25-2.91-2.25-2.265,0-3.06,1.065-3.15,2.565h1.2c0.075-1.155.63-1.53,1.95-1.53s1.74,0.4,1.74,1.215a1.078,1.078,0,0,1-1.215,1.065l-1.11.12c-2.13.225-2.865,1.185-2.865,2.4,0,1.455,1.05,2.265,2.73,2.265a2.837,2.837,0,0,0,2.52-1.245,1.11,1.11,0,0,0,1.305,1.11,4.564,4.564,0,0,0,.66-0.045V19.017h-0.435Zm-3.99.135a1.282,1.282,0,0,1-1.545-1.275c0-.75.39-1.23,1.8-1.395l1.125-.135a2,2,0,0,0,1.02-.33v0.915A2.223,2.223,0,0,1,162.575,19.152Zm8.986-7.079a2.851,2.851,0,0,0-2.43,1.335V12.252h-1.14v7.739h1.2V15.612a2.2,2.2,0,0,1,2.13-2.46,1.552,1.552,0,0,1,1.77,1.725v5.114h1.2V14.757A2.468,2.468,0,0,0,171.561,12.072Zm10.763,6.944a0.355,0.355,0,0,1-.42-0.375V14.322c0-1.3-.765-2.25-2.91-2.25-2.265,0-3.06,1.065-3.15,2.565h1.2c0.075-1.155.63-1.53,1.95-1.53s1.74,0.4,1.74,1.215a1.078,1.078,0,0,1-1.215,1.065l-1.11.12c-2.13.225-2.865,1.185-2.865,2.4,0,1.455,1.05,2.265,2.73,2.265a2.837,2.837,0,0,0,2.52-1.245,1.11,1.11,0,0,0,1.3,1.11,4.564,4.564,0,0,0,.66-0.045V19.017h-0.435Zm-3.99.135a1.282,1.282,0,0,1-1.545-1.275c0-.75.39-1.23,1.8-1.395l1.125-.135a2,2,0,0,0,1.02-.33v0.915A2.223,2.223,0,0,1,178.334,19.152Zm11.956-7.019a2.7,2.7,0,0,0-2.49,1.485V12.252h-1.14v7.739h1.2V15.582c0-1.5.99-2.28,2.535-2.28h0.3V12.147C190.53,12.132,190.41,12.132,190.29,12.132Zm7.724,6.884a0.355,0.355,0,0,1-.42-0.375V14.322c0-1.3-.765-2.25-2.91-2.25-2.265,0-3.06,1.065-3.15,2.565h1.2c0.075-1.155.63-1.53,1.95-1.53s1.74,0.4,1.74,1.215a1.078,1.078,0,0,1-1.215,1.065l-1.11.12c-2.13.225-2.865,1.185-2.865,2.4,0,1.455,1.05,2.265,2.73,2.265a2.837,2.837,0,0,0,2.52-1.245,1.11,1.11,0,0,0,1.3,1.11,4.564,4.564,0,0,0,.66-0.045V19.017h-0.435Zm-3.99.135a1.282,1.282,0,0,1-1.545-1.275c0-.75.39-1.23,1.8-1.395l1.125-.135a2,2,0,0,0,1.02-.33v0.915A2.223,2.223,0,0,1,194.024,19.152Zm8.986-7.079a2.851,2.851,0,0,0-2.37,1.245v-4h-1.2V19.992h1.2V15.612a2.2,2.2,0,0,1,2.13-2.46,1.552,1.552,0,0,1,1.77,1.725v5.114h1.2V14.757A2.468,2.468,0,0,0,203.01,12.072Zm11.145,4.05c0-2.22-1.245-4.049-3.555-4.049-2.145,0-3.57,1.62-3.57,4.05,0,2.5,1.485,4.049,3.6,4.049a3.229,3.229,0,0,0,3.33-2.535h-1.245a1.988,1.988,0,0,1-2.055,1.44c-1.35,0-2.265-.795-2.385-2.535h5.88v-0.42ZM210.6,13.167a2.269,2.269,0,0,1,2.265,2.295h-4.56A2.276,2.276,0,0,1,210.6,13.167ZM27.381,29.572a2.852,2.852,0,0,0-2.37,1.245v-4h-1.2V37.492h1.2V33.112a2.2,2.2,0,0,1,2.13-2.46,1.552,1.552,0,0,1,1.77,1.725v5.114h1.2V32.257A2.468,2.468,0,0,0,27.381,29.572Zm10.764,6.944a0.355,0.355,0,0,1-.42-0.375V31.822c0-1.3-.765-2.25-2.91-2.25-2.265,0-3.06,1.065-3.15,2.565h1.2c0.075-1.155.63-1.53,1.95-1.53s1.74,0.4,1.74,1.215a1.078,1.078,0,0,1-1.215,1.065l-1.11.12c-2.13.225-2.865,1.185-2.865,2.4,0,1.455,1.05,2.265,2.73,2.265a2.837,2.837,0,0,0,2.52-1.245,1.11,1.11,0,0,0,1.3,1.11,4.564,4.564,0,0,0,.66-0.045V36.517H38.145Zm-3.99.135a1.282,1.282,0,0,1-1.545-1.275c0-.75.39-1.23,1.8-1.395l1.125-.135a2,2,0,0,0,1.02-.33v0.915A2.223,2.223,0,0,1,34.154,36.652Zm5.974-7.994a0.81,0.81,0,1,0-.81-0.81A0.816,0.816,0,0,0,40.128,28.658Zm-0.6,8.834h1.2V29.752h-1.2v7.739Zm6.438-7.919a2.852,2.852,0,0,0-2.43,1.335V29.752H42.4v7.739h1.2V33.112a2.2,2.2,0,0,1,2.13-2.46,1.552,1.552,0,0,1,1.77,1.725v5.114h1.2V32.257A2.468,2.468,0,0,0,45.967,29.572Zm10.591,8.1a3.192,3.192,0,0,0,3.33-2.835h-1.23a2.033,2.033,0,0,1-2.1,1.755c-1.29,0-2.325-.945-2.325-2.97s1.005-2.97,2.325-2.97a2.015,2.015,0,0,1,2.085,1.725h1.245a3.136,3.136,0,0,0-3.33-2.8c-2.145,0-3.585,1.56-3.585,4.049S54.443,37.671,56.558,37.671Zm7.875,0a3.708,3.708,0,0,0,3.75-4.05,3.761,3.761,0,1,0-7.5,0A3.708,3.708,0,0,0,64.433,37.671Zm0-1.08c-1.5,0-2.49-1.095-2.49-2.97s0.99-2.97,2.49-2.97,2.49,1.095,2.49,2.97S65.933,36.592,64.433,36.592Zm13.21-7.019a2.673,2.673,0,0,0-2.385,1.455,2.424,2.424,0,0,0-2.385-1.455,2.486,2.486,0,0,0-2.235,1.32v-1.14H69.5v7.739h1.2v-4.23c0-1.86,1.035-2.61,1.98-2.61a1.479,1.479,0,0,1,1.62,1.71v5.129h1.2v-4.23c0-1.86,1-2.61,1.98-2.61a1.473,1.473,0,0,1,1.62,1.71v5.129h1.2V32.242A2.46,2.46,0,0,0,77.643,29.572Zm12.5,0a2.674,2.674,0,0,0-2.385,1.455,2.424,2.424,0,0,0-2.385-1.455,2.486,2.486,0,0,0-2.235,1.32v-1.14H82v7.739h1.2v-4.23c0-1.86,1.035-2.61,1.98-2.61a1.479,1.479,0,0,1,1.62,1.71v5.129H88v-4.23c0-1.86,1.005-2.61,1.98-2.61a1.473,1.473,0,0,1,1.62,1.71v5.129h1.2V32.242A2.46,2.46,0,0,0,90.141,29.572Zm9.416,0.18v4.38a2.2,2.2,0,0,1-2.13,2.46,1.552,1.552,0,0,1-1.77-1.725V29.752h-1.2v5.234a2.467,2.467,0,0,0,2.73,2.685,2.852,2.852,0,0,0,2.43-1.335v1.155h1.14V29.752h-1.2Zm6.463-.18a2.851,2.851,0,0,0-2.43,1.335V29.752h-1.14v7.739h1.2V33.112a2.2,2.2,0,0,1,2.13-2.46,1.552,1.552,0,0,1,1.77,1.725v5.114h1.2V32.257A2.468,2.468,0,0,0,106.019,29.572Zm5-.915a0.81,0.81,0,1,0-.81-0.81A0.816,0.816,0,0,0,111.015,28.658Zm-0.6,8.834h1.2V29.752h-1.2v7.739Zm6.191-6.689v-1.05h-1.59v-2.19h-1.2v2.19h-1.275V30.8h1.275v5.129c0,1.185.735,1.6,1.935,1.6q0.36,0,.855-0.045v-1h-0.7c-0.69,0-.885-0.255-0.885-0.66V30.8h1.59Zm1.615-2.145a0.81,0.81,0,1,0-.81-0.81A0.816,0.816,0,0,0,118.221,28.658Zm-0.6,8.834h1.2V29.752h-1.2v7.739Zm9.581-3.87c0-2.22-1.245-4.049-3.556-4.049-2.145,0-3.57,1.62-3.57,4.049,0,2.5,1.485,4.05,3.6,4.05a3.229,3.229,0,0,0,3.331-2.535h-1.245a1.99,1.99,0,0,1-2.056,1.44c-1.35,0-2.265-.795-2.385-2.535H127.2v-0.42Zm-3.556-2.955a2.27,2.27,0,0,1,2.266,2.295h-4.561A2.276,2.276,0,0,1,123.646,30.667Zm7.6,7c1.9,0,3.075-.84,3.075-2.31,0-1.26-.765-1.9-2.67-2.28l-0.69-.135c-0.99-.2-1.56-0.465-1.56-1.2s0.585-1.14,1.62-1.14c1.185,0,1.89.33,1.95,1.53h1.2c-0.03-1.65-1.08-2.565-3.15-2.565-1.77,0-2.821.87-2.821,2.19,0,1.2.735,1.965,2.416,2.28l0.72,0.135c1.35,0.255,1.77.57,1.77,1.26,0,0.765-.555,1.2-1.86,1.2-1.365,0-1.935-.435-2.07-1.6h-1.216C128.081,36.847,129.282,37.671,131.247,37.671Zm12.316-.18h1.4l-3.15-4.949,2.94-2.79h-1.59l-3.585,3.465v-6.4h-1.2V37.492h1.2V34.627l1.38-1.29Zm5.191,0.18a3.708,3.708,0,0,0,3.75-4.05,3.761,3.761,0,1,0-7.5,0A3.708,3.708,0,0,0,148.754,37.671Zm0-1.08c-1.5,0-2.49-1.095-2.49-2.97s0.99-2.97,2.49-2.97,2.49,1.095,2.49,2.97S150.254,36.592,148.754,36.592Zm10.756,1.08c1.905,0,3.075-.84,3.075-2.31,0-1.26-.765-1.9-2.67-2.28l-0.69-.135c-0.99-.2-1.56-0.465-1.56-1.2s0.585-1.14,1.62-1.14c1.185,0,1.89.33,1.95,1.53h1.2c-0.03-1.65-1.08-2.565-3.15-2.565-1.77,0-2.82.87-2.82,2.19,0,1.2.735,1.965,2.415,2.28l0.72,0.135c1.35,0.255,1.77.57,1.77,1.26,0,0.765-.555,1.2-1.86,1.2-1.365,0-1.935-.435-2.07-1.6h-1.215C156.345,36.847,157.545,37.671,159.51,37.671Zm7.63-6.869v-1.05h-1.59v-2.19h-1.2v2.19h-1.275V30.8h1.275v5.129c0,1.185.735,1.6,1.935,1.6q0.36,0,.855-0.045v-1h-0.7c-0.69,0-.885-0.255-0.885-0.66V30.8h1.59Zm4.686-1.17a2.7,2.7,0,0,0-2.49,1.485V29.752H168.2v7.739h1.2v-4.41c0-1.5.99-2.28,2.535-2.28h0.3V29.647C172.066,29.632,171.946,29.632,171.826,29.632Zm4.619,8.039a3.708,3.708,0,0,0,3.75-4.05,3.761,3.761,0,1,0-7.5,0A3.708,3.708,0,0,0,176.445,37.671Zm0-1.08c-1.5,0-2.49-1.095-2.49-2.97s0.99-2.97,2.49-2.97,2.49,1.095,2.49,2.97S177.945,36.592,176.445,36.592Zm8.635-7.019a2.851,2.851,0,0,0-2.43,1.335V29.752h-1.14v7.739h1.2V33.112a2.2,2.2,0,0,1,2.13-2.46,1.552,1.552,0,0,1,1.77,1.725v5.114h1.2V32.257A2.468,2.468,0,0,0,185.08,29.572Zm10.3,0.18v1.125a3.124,3.124,0,0,0-2.655-1.3c-2.175,0-3.6,1.575-3.6,4.049s1.425,4.05,3.6,4.05a3.128,3.128,0,0,0,2.595-1.23v0.75a2.141,2.141,0,0,1-2.4,2.4c-1.215,0-1.95-.495-2.1-1.47h-1.2c0.165,1.5,1.32,2.49,3.3,2.49,2.445,0,3.6-1.41,3.6-3.42V29.752h-1.14Zm-2.5,6.839c-1.5,0-2.49-1.155-2.49-2.97s0.99-2.97,2.49-2.97,2.49,1.095,2.49,2.97S194.375,36.592,192.875,36.592Zm12.109-2.97c0-2.22-1.245-4.049-3.555-4.049-2.145,0-3.57,1.62-3.57,4.049,0,2.5,1.485,4.05,3.6,4.05a3.229,3.229,0,0,0,3.33-2.535h-1.245a1.988,1.988,0,0,1-2.055,1.44c-1.35,0-2.265-.795-2.385-2.535h5.88v-0.42Zm-3.555-2.955a2.269,2.269,0,0,1,2.265,2.295h-4.56A2.276,2.276,0,0,1,201.429,30.667Zm8.5-1.035a2.7,2.7,0,0,0-2.49,1.485V29.752H206.3v7.739h1.2v-4.41c0-1.5.99-2.28,2.535-2.28h0.3V29.647C210.169,29.632,210.049,29.632,209.929,29.632Zm1.034,7.964a0.862,0.862,0,0,0,.855-0.885,0.878,0.878,0,0,0-1.755,0A0.863,0.863,0,0,0,210.963,37.6Z"/>
</svg>
