<svg xmlns="http://www.w3.org/2000/svg" width="728" height="90" viewBox="0 0 728 90">
  <defs>
    <style>
      .cls-1 {
        fill: #248700;
        fill-rule: evenodd;
      }
    </style>
  </defs>
  <path class="cls-1" d="M643.961,67.424a0.241,0.241,0,0,0,.153-0.141A0.582,0.582,0,0,0,644.183,67V60.6a12.618,12.618,0,0,0,3.367-2.468l-7.567-.014V57.061h9.139V58a12.077,12.077,0,0,1-3.8,3.144l-0.014,6.275a1.2,1.2,0,0,1-.264.733,0.922,0.922,0,0,1-.751.367l-2.045.028-0.5-1.128h2.212Zm14.467-.014a1.79,1.79,0,0,1-.236.958,0.794,0.794,0,0,1-.724.381h-1.1l-0.585-1.043h1.224a0.322,0.322,0,0,0,.264-0.12,0.425,0.425,0,0,0,.1-0.275V65.633h-2.907a6.559,6.559,0,0,1-1.475,3.328l-0.793-.734a6.578,6.578,0,0,0,.723-1.064,4.882,4.882,0,0,0,.307-0.818,6.886,6.886,0,0,0,.194-1.064V60.9l-0.361.409-0.877-.606a8.527,8.527,0,0,0,2.309-4.442l0.9,0.367a6.354,6.354,0,0,1-.167.873h2.463a16.9,16.9,0,0,1-.724,2.27h1.46V60.4a3.449,3.449,0,0,0,1.266-.974,2.7,2.7,0,0,0,.64-1.494h-1.516v-1.03h5.272a12.009,12.009,0,0,1-.626,3.173,0.949,0.949,0,0,1-.334.444,0.933,0.933,0,0,1-.529.191,2.957,2.957,0,0,1-.619-0.049q-0.4-.063-0.549-0.078l-0.32-1.17a4.909,4.909,0,0,0,.988.325,0.42,0.42,0,0,0,.514-0.4q0.1-.338.293-1.409H661.35a5.207,5.207,0,0,1-.758,1.995A4.12,4.12,0,0,1,658.9,61.3l-0.446-.621Zm-3.575-8.883a9.667,9.667,0,0,1-.6,1.24l1.6-.014q0.153-.267.313-0.627a5.085,5.085,0,0,0,.229-0.6h-1.544Zm0.543,3.666V60.768h-0.932v1.424H655.4Zm-0.932.959,0.014,1.48H655.4v-1.48h-0.932Zm2.893-2.383H656.4v1.424h0.974Zm0.014,2.383H656.4l0.015,1.466,0.959,0.014v-1.48Zm4.967,2.665v3.1h-1.044l-0.014-3.1H658.6V64.8l2.7-.014V63.321H660.32a5.148,5.148,0,0,1-.709,1.269l-1.071-.381a3.935,3.935,0,0,0,.772-1.162,6.333,6.333,0,0,0,.424-1.967l0.96,0.3a4.894,4.894,0,0,1-.1.917l0.681,0.014,0.014-1.467,1.044-.014v1.466h1.627l-0.014,1.029h-1.613v1.467h2.351v1.03h-2.351Zm15.8,3.045a25.031,25.031,0,0,1-4.354-.571,12.844,12.844,0,0,1-2.657-.938l-0.431.3a9.681,9.681,0,0,1-3.993,1.34l-0.626-.944a18.573,18.573,0,0,0,1.955-.445,11.863,11.863,0,0,0,2.093-.8A9.553,9.553,0,0,1,668.11,65l0.808-.55a16.356,16.356,0,0,0,2.03,1.607,3.831,3.831,0,0,0,.48-0.846,4.453,4.453,0,0,0,.285-0.931H667.93l0.013-5.217h3.993V58.019l-5.453.014v-1h11.865v1l-5.383-.014v1.044h3.868V64.28h-4.062a5.536,5.536,0,0,1-.32,1.248,4.268,4.268,0,0,1-.585,1.064,6.63,6.63,0,0,0,1.7.585,23.322,23.322,0,0,0,2.511.409q1.425,0.162,2.719.19Zm-9.167-7.713h2.963V60.078l-2.963-.014v1.085Zm0,2.1,2.88,0.015,0.055-1.114h-2.935v1.1Zm3.978-1.1-0.07,1.114h2.95V62.15h-2.88Zm2.866-2.086h-2.824l-0.014,1.085h2.838V60.064Zm6.135,4.709a17.608,17.608,0,0,0,3.5-1.7,9.872,9.872,0,0,0,2.484-2.277,16.9,16.9,0,0,1-2.6,1.3,27.7,27.7,0,0,1-4.09,1.262l-0.668-.944q1.1-.254,2.4-0.621a15.7,15.7,0,0,0,1.941-.649,4.861,4.861,0,0,0-1.559-1.184l0.975-.634a4.49,4.49,0,0,1,.814.614,5.6,5.6,0,0,1,.744.782,12.286,12.286,0,0,0,1.474-.9,13.081,13.081,0,0,0,1.293-1.1h-3.825a14.729,14.729,0,0,1-3.047,1.565l-0.918-.874A10.7,10.7,0,0,0,686.236,56l0.975,0.521a10.4,10.4,0,0,1-1.016,1.128h3.923V58.6a11.813,11.813,0,0,1-1.962,2l0.821,0.451a6.478,6.478,0,0,1-.738,1L692,62.066l-0.013.945a9.966,9.966,0,0,1-.828,1.3,8.372,8.372,0,0,1-1.4,1.431,10.3,10.3,0,0,1-2,1.282A17.076,17.076,0,0,1,685.3,68a37.337,37.337,0,0,1-4.048.931l-0.695-.973a27.33,27.33,0,0,0,6.231-1.664,4.987,4.987,0,0,0-1.53-1.411l1-.577a4.371,4.371,0,0,1,1.433,1.536,11.308,11.308,0,0,0,1.356-.86,6.011,6.011,0,0,0,1.016-.938,5.9,5.9,0,0,0,.646-0.909h-3.561a11.005,11.005,0,0,1-1.578,1.142,25.718,25.718,0,0,1-2.817,1.4Z"/>
</svg>
