<svg xmlns="http://www.w3.org/2000/svg" width="728" height="90" viewBox="0 0 728 90">
  <defs>
    <style>
      .cls-1 {
        fill: #4c286c;
        fill-rule: evenodd;
      }
    </style>
  </defs>
  <path class="cls-1" d="M274.233,42.38a9.1,9.1,0,0,0,1.327-1.211,7.375,7.375,0,0,0,1.177-1.759,10.424,10.424,0,0,0,.776-2.2h-1.277V34h1.878v1.4l4.281,0.025V33h1.9v2.4H288.7V33.847h1.878v3.368h-7.41a6.936,6.936,0,0,1,1.552,1.423h6.434l-0.025,1.821h-6.084v0.3h5.157v1.771h-5.157v0.249h5.157V44.6l-5.132.025v0.249h6.609V46.7H276.636V42.978a5.288,5.288,0,0,0-.951.774v1.5q-0.8.374-1.8,0.947v7.685a2.009,2.009,0,0,1-.551,1.048,1.67,1.67,0,0,1-.9.55,6.757,6.757,0,0,1-1.189.074h-0.914a18.784,18.784,0,0,0-.7-1.821c0.216,0,.584.02,1.1,0.062a3.307,3.307,0,0,0,1.1-.038l0.15-.224V46.945a4.265,4.265,0,0,0-.426.2c-0.267.134-.5,0.242-0.7,0.325s-0.384.158-.55,0.224L269,46.247A26.34,26.34,0,0,0,271.98,44.8v-4.84H269.4v-1.8l2.579-.025V33.323h1.9v4.84h1.7v1.8h-1.7v4.167l1.477-.674Zm5.783,11.751,0.025-2.445a7.76,7.76,0,0,1-1.577.624l-0.776-.9,0.025,4.192h-1.878l-0.025-8.683h14.921l0.025,6.387a1.735,1.735,0,0,1-.413,1.111,2.178,2.178,0,0,1-.989.71,8.894,8.894,0,0,1-2.2.1,11.119,11.119,0,0,1-.6-1.522l-0.05.424h-6.484Zm-2.328-5.414v1.921l0.676-.175a6.759,6.759,0,0,0,1.827-.9,1.491,1.491,0,0,0,.6-0.848h-3.1Zm4.381-10.079-0.576-.3a12.861,12.861,0,0,1,1.5-1.073l-4.957-.05a11.043,11.043,0,0,1,1.252.449,7.8,7.8,0,0,1-.5.973h3.28Zm-3.53,1.821v0.3h4.632V40.483Zm0,2.071V42.8l4.632-.025V42.529h-4.632Zm0,2.071,0.025,0.275h4.607V44.625Zm6.058,7.709-0.025-.573h-2.653l-0.025.573h2.7Zm0-2.37a1.713,1.713,0,0,1-.15-1.222H282.6a2.62,2.62,0,0,1-.1.536,1.728,1.728,0,0,1-.351.686H284.6Zm1.728-.773a0.442,0.442,0,0,0,.3.325l2.2,0.024v-0.8h-2.5v0.449Zm0.175,4.242c0.1,0,.413.024,0.939,0.075a3.068,3.068,0,0,0,1.089-.025,0.716,0.716,0,0,0,.3-0.424V51.311H286.5v2.1ZM304.625,36.99q-2.052.25-7.76,0.4l-1.127-1.846a72.862,72.862,0,0,0,9.539-.449,37.912,37.912,0,0,0,8.336-1.722l1.052,1.422a33.627,33.627,0,0,1-8.087,1.971v3.692h7.135V42.28h-7.135V46.1l9.188-.025v1.822h-9.213v5.964q0,2-1.777,2h-3.455l-0.7-2.047q2.5,0.225,3.155.2a0.99,0.99,0,0,0,.638-0.224,0.857,0.857,0,0,0,.212-0.649v-5.24h-9.563l-0.025-1.8h9.588l0.026-3.817H297.14l-0.025-1.822h7.51V36.99Zm21.956-1.721,6.034,0.025q-0.051-.05-0.126-0.137t-1.3-1.11l1.727-.9a14.4,14.4,0,0,1,1.853,2.146h6.484V37.04l-14.17-.025v1.671h-7.636l-0.025-1.747h3.455a9.183,9.183,0,0,0-.626-1.3,8.2,8.2,0,0,0-1.3-1.572l1.678-.9a8.75,8.75,0,0,1,1.164,1.5,14.079,14.079,0,0,1,.989,1.821l-0.952.4,2.729,0.05Zm0.125,6.587-6.309.025V40.109h6.309v1.747Zm0,3.343H320.4V43.428h6.309V45.2Zm-0.35,6.911-0.05,3.218h-1.778v-1.7h-2.1v1.722h-1.8V47.1h5.683v4.741a11.165,11.165,0,0,0,4.731-1.971l-4.256-.051v-1.7h3.531v-1h-2.554V45.473l2.554-.025V44.675h-3.355l-0.025-1.647h3.354V42.006h-2.778V37.764h5.758v4.242h-1.227a5.14,5.14,0,0,0,0,1.023h3.605l0.025-1.023-1.3.025V37.764h5.783V41.98h-2.729v1.048h3.355v1.647H337.4v0.8h2.629v1.672H337.4v0.974h3.655l0.026,1.671h-1.628l1.152,1.048a10.677,10.677,0,0,1-2.5,1.946,9.772,9.772,0,0,0,2.078,1.011,8.128,8.128,0,0,0,1.728.362L341.1,55.8a12.009,12.009,0,0,1-3.718-1.409,6.922,6.922,0,0,1-2.566-2.583,9.254,9.254,0,0,1-.9-2h-0.6a7.847,7.847,0,0,1-1.6,1.548v2.02q2.178-.573,3.155-0.773l0.05,1.672q-3.78,1.048-5.032,1.547l-0.951-1.5q0.6-.225.738-0.286a0.446,0.446,0,0,0,.188-0.138V52.485a19.559,19.559,0,0,1-2.529.848Zm-3.9-3.319-0.025,3.143h2.052V48.792h-2.027Zm6.734-8.309h2.378v-1.2h-2.378v1.2Zm2.854,4.192v0.8h3.605v-0.8h-3.605Zm0.1,2.47v0.974h3.5l0.025-.974h-3.53Zm3.655,2.62a9.037,9.037,0,0,0,.476,1.06,5.347,5.347,0,0,0,.551.911,10.534,10.534,0,0,0,2.478-1.972h-3.5Zm2.629-10.479H336.1v1.148h2.328V39.286Zm8.837-3.693a17.888,17.888,0,0,0,7.586-2.345L356.3,34.67a20.543,20.543,0,0,1-7.035,2.52v1.846H355v7.908h-5.708a20.861,20.861,0,0,1-1.214,5.552A13.2,13.2,0,0,1,345.908,56l-1.677-1.123a12.93,12.93,0,0,0,3.054-8.832Zm2.028,5.315v4.217h3.78V40.957Zm3.6,13.8a10.994,10.994,0,0,0,2.128-2.807,12.881,12.881,0,0,0,1.214-3.418,19.7,19.7,0,0,0,.388-4.03L356.6,36.067a15.544,15.544,0,0,0,4.294-.961,19.741,19.741,0,0,0,3.918-1.934l1.477,1.472a19.19,19.19,0,0,1-7.636,3.019v3.468l8.362,0.05-0.025,1.8-3.4.025,0.025,12.749H361.63V43l-2.954-.025a9.9,9.9,0,0,0-.05,1.223q0,0.873-.025,1.2a19.624,19.624,0,0,1-2.253,8.308,8.9,8.9,0,0,1-.939,1.26q-0.688.81-.714,0.835Zm16.273-7.285a32.653,32.653,0,0,0,4.218-4.454,16.541,16.541,0,0,0,2.566-4.529l-5.257-.025V36.591h5.958c0.067-.166.164-0.445,0.289-0.836s0.354-1.276.688-2.657l1.928,0.425q-0.227,1.047-.827,3.093h12.744v1.8L378,38.438q-0.577,1.647-.9,2.321h11.341V53.507a1.679,1.679,0,0,1-.412.948,2.177,2.177,0,0,1-.889.624,10.054,10.054,0,0,1-1.891.125h-1.439q-0.651-1.348-.876-1.921a18.553,18.553,0,0,0,3.153.125,0.462,0.462,0,0,0,.339-0.137,0.4,0.4,0,0,0,.138-0.287V50.513l-9.438-.024v5.289h-1.979v-11.9a16.26,16.26,0,0,1-1.189,1.5q-0.763.873-3.041,3.193Zm7.911,1.272h9.464V46.446l-9.464-.024v2.27Zm0.051-6.112V44.6l9.388,0.025V42.579h-9.388Zm29.716-8.533a70.477,70.477,0,0,1-.376,7.884,1.451,1.451,0,0,0,.163.873,3.116,3.116,0,0,1,.138.3,23.128,23.128,0,0,0,2.578,4.865,16.41,16.41,0,0,0,3.18,3.343,18.526,18.526,0,0,0,4.156,2.421l-1.452,1.622a26.577,26.577,0,0,1-3.881-2.433,17.536,17.536,0,0,1-3.1-3.094,20.327,20.327,0,0,1-2.6-4.528,14.157,14.157,0,0,1-1.79,3.306,20.952,20.952,0,0,1-3.342,3.717,21.839,21.839,0,0,1-4.155,2.957l-1.5-1.473a25.664,25.664,0,0,0,4.556-3.393,23.614,23.614,0,0,0,2.315-2.482,15.732,15.732,0,0,0,1.79-2.957,10.305,10.305,0,0,0,.789-2.345,18.089,18.089,0,0,0,.376-2.583q0.087-1.26.112-2.246t0.037-2.158q0.014-1.172.013-1.6h2Zm19.577,0.125a23.335,23.335,0,0,1-.676,2.956,26,26,0,0,1-.976,2.782V55.978h-1.877V43.2q-1.6,2.046-1.979,2.42l-0.525.523-1.4-1.347a20.943,20.943,0,0,0,3.818-5.252,19.793,19.793,0,0,0,1.89-6.15Zm9.589,12.3a9.518,9.518,0,0,0,2.29,3.555,16.7,16.7,0,0,0,3.968,2.708l-1.476,1.4a13.1,13.1,0,0,1-6.509-7.061L434.232,55.9h-1.9l0.024-8.509a11.277,11.277,0,0,1-1.5,2.669,15.165,15.165,0,0,1-2.24,2.5,12.7,12.7,0,0,1-2.291,1.647l-1.4-1.447a11.015,11.015,0,0,0,1.853-1.16,11.838,11.838,0,0,0,2.128-2.146,15.693,15.693,0,0,0,1.852-2.981h-5.106V44.65h6.708V42.629l-4.956.025V34.62h11.541v8.034h-4.707v2h6.56v1.821H436.01Zm1.051-10.055h-7.785l0.024,4.416h7.737Zm8.037,17.49q0.249,0,.9.05a10.906,10.906,0,0,0,1.115.037,2.645,2.645,0,0,0,.814-0.136,0.694,0.694,0,0,0,.25-0.574V47.27a13.69,13.69,0,0,1-1.352.561,14.658,14.658,0,0,1-1.453.462l-1.251-1.572q0.176-.05,1.79-0.561t2.266-.761v-5.29h-3.43V38.338h3.43l-0.025-4.965h1.927v4.965h3l0.026,1.771h-3.03V44.75l2.879-1.173V45.6l-2.879,1.073-0.024,7.186a1.863,1.863,0,0,1-.526,1.435,2.134,2.134,0,0,1-1.5.486H445.7Zm13.443,1.822a13.058,13.058,0,0,1-.725-1.922,23.718,23.718,0,0,0,2.853.125,0.665,0.665,0,0,0,.5-0.424V47.844h-8.788V46.072h8.788l0.025-1.92h1.9v1.92h3.68v1.772h-3.7v6.063a2.069,2.069,0,0,1-.563,1.235,2.539,2.539,0,0,1-1.44.611Zm1.978-18.863h4.732v1.772l-4.732.025v3.094l6.109-.025V43.5l-13.795.025v-1.8h5.758V38.637h-4.856l0.024-1.772h4.832V33.348h1.928v3.518Zm-2.8,16.093a17.274,17.274,0,0,0-4.506-3.019l1.251-1.372a16.129,16.129,0,0,1,4.532,2.994Zm11.366,2a19.568,19.568,0,0,0,2.328-2.607,11.871,11.871,0,0,0,1.515-2.607,10.548,10.548,0,0,0,.638-2.121l-3.455-.025-0.024-1.572a18.181,18.181,0,0,0,3.4-4.815h-3.905v-1.8h6.008v1.647a27.945,27.945,0,0,1-1.339,2.533,13.209,13.209,0,0,1-1.59,2.208h3.029q-0.2,1.772-.475,3.031a8.706,8.706,0,0,1-.777,2.209,9.593,9.593,0,0,0,3.5,1.572,20.932,20.932,0,0,0,4.932.4l7.21-.1,2-.075L491.337,54.8H480.421a11.6,11.6,0,0,1-6.783-2.145,11.643,11.643,0,0,1-.664,1.011,29.206,29.206,0,0,1-1.89,2.233Zm3.955-15.993a10.145,10.145,0,0,0-2.929-4.391l1.578-1.073a12.37,12.37,0,0,1,2.954,4.441ZM482.3,50.339H475.49v-1.8H482.3V47.194l-5.457.025,0.025-8.907H482.3V37.165l-6.734.025V35.368l6.734-.025v-1.9h1.9v1.9l6.585,0.025v1.8H484.2v1.148h5.482V47.22l-5.482-.025v1.348h7.035v1.8l-7.035.025v2.42l-1.9.024v-2.47Zm-3.555-10.2,0.026,1.721H482.3V40.109Zm0,3.543V45.4H482.3V43.677h-3.555Zm9.063-3.568-3.605.025v1.721h3.58ZM484.2,43.652V45.4h3.58V43.677Zm10.791-2.046,5.456,0.025v-0.25h-4.2V36.466h4.2v-0.3h-5.031V34.695h5.031l-0.024-1.073h1.828v1.073h5.132l-0.025,1.447-5.107.025,0.024,0.3h4.282v1.946a6.381,6.381,0,0,0,1.489-.711,1.927,1.927,0,0,0,.764-0.961q0.05-.449.05-2.17h5.557v2.42a0.376,0.376,0,0,0,.426.425h1.728v1.647h-2.454a1.342,1.342,0,0,1-.714-0.274,1.738,1.738,0,0,1-.512-0.574,2.113,2.113,0,0,1-.188-0.7,7.337,7.337,0,0,1-.038-0.761V36.267h-2.078a3.6,3.6,0,0,1-2.353,3.318l7.335,0.05v1.522a9.489,9.489,0,0,1-2.253,2.246,18.4,18.4,0,0,0,3.655,1.223L515.7,46.147a14.176,14.176,0,0,1-3.93-1.746,17.907,17.907,0,0,1-4.056,1.572l-1.1-1.572a15.834,15.834,0,0,0,3.605-1.148,7.95,7.95,0,0,1-1.6-1.9h-1.226V39.61h0.175l-1-.848v2.594h-4.306v0.275h5.507v1.547h-5.507v0.948h2.528l-0.025-.724h1.753v2.3h-1.053l0.727,0.6a9.072,9.072,0,0,1-1.239.624,7.765,7.765,0,0,1-1.264.424q0.525,0,2.215.037t2.541,0.013a40.054,40.054,0,0,0,3.5-2l1.677,1.223a31.964,31.964,0,0,1-7.761,3.493q1.653,0,6.109-.1a12.82,12.82,0,0,0-2-.624q0.375-.4,1.477-1.372A13.81,13.81,0,0,1,517,51.561l-1.377,1.273a13,13,0,0,0-1.452-1.4q-4.381.2-6.909,0.374v2.121a1.892,1.892,0,0,1-.289,1,1.936,1.936,0,0,1-.763.724,2.389,2.389,0,0,1-.7.211,6.437,6.437,0,0,1-1.139.038,10.385,10.385,0,0,0-1.04,0l-0.876-1.8a23.7,23.7,0,0,0,2.529.1,0.674,0.674,0,0,0,.475-0.275l-0.024-2.02-1.752.1,0.85,1A21.13,21.13,0,0,1,501,54.443a25.632,25.632,0,0,1-4.657.761q-0.2-.3-0.626-0.861t-0.651-.911a19.257,19.257,0,0,0,7.586-1.347q-3.405.25-4.832,0.449a10.382,10.382,0,0,1-.6-0.948q-0.375-.649-0.6-0.973,2.729-.4,4.33-0.7a27.919,27.919,0,0,0,3.33-.849q-2.2,0-5.458.325l-1.076-1.946a12.257,12.257,0,0,0,5.958-1.7l-7.485-.05V43.4H497.9v0.724h2.529V43.178h-5.432V41.606Zm5.456-3.692h-2.478v0.324h2.478V37.914Zm0,1.671H498V39.91l2.452-.025v-0.3Zm4.357-1.7h-2.553l0.024,0.324,2.529,0.025V37.889Zm0,1.721-2.529-.025v0.3h2.529V39.61Zm11.842,14.421-1.1,1.521a16.759,16.759,0,0,0-8.036-2l1.026-1.622A18.16,18.16,0,0,1,516.648,54.031Zm-5.859-12.65q0.125,0.149.464,0.474a5.127,5.127,0,0,0,.587.5c0.118-.083.343-0.245,0.677-0.486a6.654,6.654,0,0,0,.626-0.486h-2.354Z"/>
</svg>
