<svg xmlns="http://www.w3.org/2000/svg" width="728" height="90" viewBox="0 0 728 90">
  <defs>
    <style>
      .cls-1 {
        fill: #4c286c;
        fill-rule: evenodd;
      }
    </style>
  </defs>
  <path class="cls-1" d="M296.526,18.228q0,1.655.062,4.05t0.163,3.625H303.4v1.881h-6.479a27.632,27.632,0,0,0,1,4.815,19.04,19.04,0,0,0,2.8-4.114l1.7,0.728a22.1,22.1,0,0,1-3.752,5.291,11.367,11.367,0,0,0,1,1.656,19.986,19.986,0,0,0,1.389,1.818q0.414,0.44.513,0.163a14.281,14.281,0,0,0,.625-3.486l1.952,0.752a15.471,15.471,0,0,1-.851,4.138,1.769,1.769,0,0,1-.825.878,2.663,2.663,0,0,1-.926-0.013,4.214,4.214,0,0,1-1.651-1.016,13.629,13.629,0,0,1-2.7-3.41,26.531,26.531,0,0,1-4.853,3.16l-1.676-1.4a23.854,23.854,0,0,0,5.654-3.637,31.065,31.065,0,0,1-1.4-6.3h-4.8l0.026,3.612,3.8-.979,0.026,1.931L290.147,33.4l-0.026,5.191a2,2,0,0,1-1.075,1.731,4.061,4.061,0,0,1-.963.213,12.308,12.308,0,0,1-1.563.038q-1-.026-1.352,0l-0.7-1.956,3.077,0.075a0.629,0.629,0,0,0,.413-0.2,0.639,0.639,0,0,0,.162-0.452V33.953l-4.378,1.178-1.4-1.83q2.627-.5,5.754-1.3V27.808l-5.1-.024L282.968,25.9h5.1V22.291a10.592,10.592,0,0,1-1.926.452,16.53,16.53,0,0,1-2.126.225,15.694,15.694,0,0,0-1.176-1.881,20.231,20.231,0,0,0,3.577-.325,16.449,16.449,0,0,0,2.915-.841,30.374,30.374,0,0,0,3.289-1.593l1.251,1.43q-2.327,1.353-2.89,1.642a9.758,9.758,0,0,1-.887.415V25.9l4.652-.026a74.8,74.8,0,0,1-.149-7.649h1.926Zm2.226,1.053A12.244,12.244,0,0,1,301.2,21.1a8.2,8.2,0,0,1,1.851,2.421,11.945,11.945,0,0,1-1.6,1.379,7.305,7.305,0,0,0-1.714-2.408,9.7,9.7,0,0,0-2.589-1.756Zm15.41-.577a48.979,48.979,0,0,1-1.6,4.916V40.85H310.61V27.658c-0.051.083-.2,0.31-0.45,0.677s-0.476.69-.676,0.965-0.392.531-.575,0.765l-1.751-.953a31.178,31.178,0,0,0,1.788-2.833,32.853,32.853,0,0,0,1.789-3.738q0.851-2.081,1.651-4.539Zm7.279,10.308h-4.678L316.739,40.85l-1.927-.05-0.024-21.393h6.629Zm-4.628-1.831h2.678l-0.026-2.106h-2.652v2.106Zm0.076-5.918v2.056l2.576-.025,0.026-2.056Zm6.779,17.254h0.413q0.237,0,1.038.026t1.126,0a0.589,0.589,0,0,0,.412-0.225,0.85,0.85,0,0,0,.163-0.553L326.8,29.012h-4.528V19.406l6.5,0.05L328.8,37.565a4.088,4.088,0,0,1-.238,1.63,2.264,2.264,0,0,1-.713.852,3.506,3.506,0,0,1-.876.313,5.115,5.115,0,0,1-1.313.075,10.253,10.253,0,0,0-1.113-.013Zm0.5-17.305-0.026,2.057h2.677l0.051-2.082Zm-0.026,3.863v2.106l2.677,0.026V25.075h-2.677Zm14.009-2.86a3.973,3.973,0,0,0-1.063-1.479,9.272,9.272,0,0,0-1.939-1.129l1.477-1.179a5.8,5.8,0,0,1,1.863,1.2,9.342,9.342,0,0,1,1.538,1.855l-1.125.677,1.726,0.05c0.034-.216.075-0.564,0.125-1.04s0.117-1.518.2-3.122L342.98,18.4a27.808,27.808,0,0,1-.275,3.837l8-.026q-0.476,3.111-.75,4.315l2.177,0.024a26.811,26.811,0,0,1-.651,4.188l2.376,0.026a41.821,41.821,0,0,1-.349,4.564q-0.226,1.631-.351,2.432a7.614,7.614,0,0,1-.425,1.58q-0.8,1.53-3.328,1.329l-2.2-.3-0.225-1.907c0.2,0.034.541,0.084,1.026,0.151l1.275,0.175a8.151,8.151,0,0,0,1.1.075,0.894,0.894,0,0,0,.425-0.2,1.317,1.317,0,0,0,.349-0.4q0.1-.426.226-1.254t0.3-2.407q0.174-1.58.225-2.032l-13.483.025a18.161,18.161,0,0,1-4.628,4.414l-1.4-1.5a21.838,21.838,0,0,0,3.028-2.37,12.19,12.19,0,0,0,2.176-2.646,13.525,13.525,0,0,0,1.251-2.132h-2.777V26.5l3.5,0.025a18.34,18.34,0,0,0,.8-2.434l-5.9-.024V22.215h3.677Zm-4.2,17.406a14.467,14.467,0,0,0,2.352-2.6,8.444,8.444,0,0,0,1.126-2.746l1.726,0.326a7.234,7.234,0,0,1-.5,1.905,9.027,9.027,0,0,1-.85,1.606,16.265,16.265,0,0,1-1.951,2.357Zm6.63,0.125a7.365,7.365,0,0,0-.95-4.992l1.9-.3a9.468,9.468,0,0,1,1.051,4.866Zm8.931-8.979c0.016-.067.05-0.2,0.1-0.413s0.116-.573.2-1.091,0.133-.811.15-0.878h-8.981q-0.474.979-1.276,2.357Zm-7.08-6.7q0,0.05-.225,1a7.075,7.075,0,0,1-.475,1.455l6.154,0.05a12.024,12.024,0,0,0,.287-1.317q0.163-.916.238-1.191H342.43Zm2.627,9.857a8.029,8.029,0,0,1,1.626,4.113l-1.926.527a7.985,7.985,0,0,0-.226-1.706,5.784,5.784,0,0,0-.55-1.429,7.135,7.135,0,0,0-.725-1.079Zm3.727-.778a6.972,6.972,0,0,1,1.852,3.611q-0.326.077-.889,0.251c-0.375.118-.663,0.2-0.862,0.251a5.8,5.8,0,0,0-.464-1.542,10.407,10.407,0,0,0-1.363-2.069Zm17.886,0.2a7.872,7.872,0,0,0,.776-1.63l-9.606.024v-1.78h21.288V31.7l-9.831.026a17.129,17.129,0,0,1-.6,1.655h8.581v5.292a1.683,1.683,0,0,1-1.2,1.555,2.789,2.789,0,0,1-.813.188,7.706,7.706,0,0,1-1,.013c-0.375-.017-0.63-0.025-0.763-0.025l-0.626-1.83c0.151,0,.488.017,1.014,0.05A4.4,4.4,0,0,0,375,38.593a0.444,0.444,0,0,0,.375-0.552V35.107h-3.427V39.52H370.1V35.107l-3.252.05V39.47l-1.825.026V35.081l-3.578.025V40.85h-1.826v-7.5h7.054ZM377.2,19.356v1.806l-7.73.026-0.025,1.1H378.6l0.051,3.687L376.777,26,376.752,24l-7.354.026,0.024,5.668H367.5l0.025-5.667L360.166,24l0.026,2.082-1.752.05-0.025-3.812,9.056-.025V21.162h-7.83v-1.78ZM366.37,26.429h-5.553V24.9h5.553v1.529Zm0.026,2.584h-5.579v-1.53H366.4v1.53Zm9.631-4.238v1.555h-5.554V24.774h5.554Zm-5.554,4.213V27.457H376v1.529h-5.528Zm14.509,0.7-0.025-6.722,5.153,0.051V21.337l-7.1-.024V19.532h21.263v1.756H397.24l-0.025,1.731,5.254-.051-0.026,6.722h-9.431l1.026,0.828-1.051,1.154h11.082l-0.024,1.73-4.253.025a12.805,12.805,0,0,1-1.239,1.555,10.787,10.787,0,0,1-1.363,1.279,29.879,29.879,0,0,1,3.978,1.556,30.814,30.814,0,0,1,2.927,1.529l-1.352,1.48a39.6,39.6,0,0,0-3.827-1.781,38.455,38.455,0,0,0-3.8-1.354,20.326,20.326,0,0,1-5.178,1.981,36.078,36.078,0,0,1-6.429,1.029l-1.326-1.756a43.794,43.794,0,0,0,5.366-.553,23.638,23.638,0,0,0,4.491-1.254q-1.377-.25-5.9-0.727l2.676-2.96h-5.553v-1.78l7.255-.025,1.826-1.931Zm1.9-1.805h3.177l0.05-3.135h-3.227v3.135Zm4.5,5.518-1.376,1.5q0.3,0.05,1.364.175t1.763,0.251l1.676,0.3a10.489,10.489,0,0,0,2.7-2.206Zm0.676-12.114v1.68h3.2v-1.68h-3.2Zm0,3.461v3.16h3.227l-0.025-3.16h-3.2Zm5.178,0v3.16h3.252l-0.025-3.16H397.24Zm31.019,12.715a1.5,1.5,0,0,1-.274.8,2.086,2.086,0,0,1-.7.678q-0.6.35-4.1,0.275l-0.576-1.73q2.553,0.1,2.815.1h0.537a0.535,0.535,0,0,0,.476-0.3V36.562h-7V40.7l-1.952-.026V36.586h-6.5l-0.025,2.96-1.827.026L409.1,34.856h8.355v-0.7h-6.88V28.084h6.98a8.738,8.738,0,0,0,1.351-1.053l-10.982.878-0.651-1.48q1.926-.05,5.454-0.326V25.3l-4.1-.024-0.05-1.606,4.178-.024-0.025-.4h-5.1v-1.68H412.7v-0.5l-4.152-.025-0.026-1.63H412.7V18.253l1.826-.026,0.025,1.2,4.128,0.024v1.58h-4.153v0.527h4.753v1.68h-4.728v0.4h4.128v1.68h-4.128v0.6l4.953-.4,0.15,0.727,0.276-.276,1.551,0.853a9.9,9.9,0,0,1-.826.777,1.789,1.789,0,0,1-.625.427l6.3,0.05v6.069l-6.879.026-0.024.677h8.829v2.608Zm-3.776-7.148V29.765l-12.058.025-0.025.552Zm0.024,2.157V31.9l-12.082-.026-0.025.577Zm-1.2-5.016L422.656,25.8c0.2,0,.567.017,1.1,0.05a7.148,7.148,0,0,0,1.226,0,0.639,0.639,0,0,0,.362-0.175,0.63,0.63,0,0,0,.113-0.426l0.025-3.16-6.053.051,0.024-1.756,6.029-.026-0.025-2.207h1.926v2.233h2.227l-0.026,1.78-2.2-.024V25.7a1.617,1.617,0,0,1-.45,1.1,2.088,2.088,0,0,1-1.125.652h-2.5Zm0.475-1.831a12.443,12.443,0,0,0-1.964-1.154,9.282,9.282,0,0,0-2.189-.777l1.051-1.254a11.724,11.724,0,0,1,4.128,1.931Zm20.138,9.857-10.457,3.285q-0.251-.4-0.675-0.978t-0.55-.727l2.226-.678,0.025-16.8h7.905l-0.025,14.5,1.551-.577v1.982Zm-3.5-9.029-3.978.05v3.411h3.978V26.454Zm-3.978,9.355,3.978-1.154,0.025-2.91h-4v4.064Zm4-14.4-3.928-.024v3.285l3.9-.025ZM454.077,23.7L453.8,28.561a61.354,61.354,0,0,1-1.251,8.929,3.689,3.689,0,0,1-.776,1.542,2.621,2.621,0,0,1-1.35.941,5.348,5.348,0,0,1-.688.113,5.563,5.563,0,0,1-1.613-.163q-1.1-.226-1.376-0.276l-0.226-2.081a23.355,23.355,0,0,0,2.727.627,1.046,1.046,0,0,0,1.026-.376q1.251-2.658,1.776-12.289l-3.377-.025q-0.025.226-.2,2.145t-0.412,3.26a15.186,15.186,0,0,1-.688,2.571,9.57,9.57,0,0,1-1.2,2.282,16.416,16.416,0,0,1-2.314,2.622,24.182,24.182,0,0,1-3.039,2.394l-0.1-.275-1.2-1.355a15.293,15.293,0,0,0,2.314-1.568,17.313,17.313,0,0,0,1.876-1.806,11.721,11.721,0,0,0,1.614-2.407,9.015,9.015,0,0,0,.95-3.123q0.349-2.783.476-4.714l-3.5-.025V23.72h3.577q0.1-3.309.074-5.518l1.952,0.025L448.723,23.7h5.354Zm18.887-5.167c-0.051.285-.121,0.61-0.213,0.979s-0.243.869-.451,1.5-0.346,1.07-.412,1.3h6.754q-0.024.578-.05,2.7t-0.075,3.436q-0.051,1.317-.163,2.871t-0.413,3.4a23.126,23.126,0,0,1-.875,3.574,3.624,3.624,0,0,1-.876,1.479,2.212,2.212,0,0,1-1.05.627,4.316,4.316,0,0,1-1.164,0,24.623,24.623,0,0,1-3.289-.777l-0.326-2.107a18.551,18.551,0,0,0,3.778,1.054,0.929,0.929,0,0,0,.951-0.452,15.881,15.881,0,0,0,.825-2.96,79.777,79.777,0,0,0,.826-11.085h-5.329a20.3,20.3,0,0,1-2.9,5.241l-1.3-.828V40.047l-1.927.025a9.3,9.3,0,0,1-.024-1.217q0.024-.714.024-0.841l-4.2.025v2.032H459.1V22.717h2.3a15.291,15.291,0,0,0,1.526-4.439l1.8,0.728a15.912,15.912,0,0,1-1.351,3.711h3.828l-0.025,4.942a22.167,22.167,0,0,0,3.777-9.581ZM461.03,24.5l0.026,4.865,4.153,0.026V24.5H461.03Zm4.229,11.738-0.026-5.066-4.152.024V36.21Zm8.18-1.706a21.948,21.948,0,0,0-3.4-5.894l1.552-1.029a22.18,22.18,0,0,1,2.176,2.985,18.8,18.8,0,0,1,1.476,3.135ZM494.7,18.88a71.206,71.206,0,0,1-.375,7.925,1.551,1.551,0,0,0,.013.452,1.619,1.619,0,0,0,.149.426,3.2,3.2,0,0,1,.138.3,23.291,23.291,0,0,0,2.577,4.891,16.45,16.45,0,0,0,3.177,3.361,18.482,18.482,0,0,0,4.153,2.433l-1.451,1.63a26.424,26.424,0,0,1-3.878-2.445,17.6,17.6,0,0,1-3.1-3.109,20.505,20.505,0,0,1-2.6-4.553,14.216,14.216,0,0,1-1.788,3.323,21.058,21.058,0,0,1-3.34,3.737,21.861,21.861,0,0,1-4.152,2.971l-1.5-1.479a25.69,25.69,0,0,0,4.553-3.411,23.789,23.789,0,0,0,2.314-2.5,15.846,15.846,0,0,0,1.788-2.972,10.431,10.431,0,0,0,.788-2.357,18.264,18.264,0,0,0,.376-2.6q0.086-1.265.112-2.257c0.017-.66.028-1.383,0.037-2.169s0.013-1.321.013-1.6h2ZM257.526,53.265h3.2l-0.025-4.79h1.951v4.79h2.652l0.025,1.806h-2.7v4.49l2.351-1.053-0.049,2.031-2.277,1.029-0.025,7.273a1.775,1.775,0,0,1-.4,1.079,1.906,1.906,0,0,1-1.025.7,9.591,9.591,0,0,1-2.853.151l-0.6-1.831q0.375,0,1.251.063a4.256,4.256,0,0,0,1.251-.037,0.476,0.476,0,0,0,.4-0.352,1.253,1.253,0,0,0,.075-0.651V62.218a23.889,23.889,0,0,1-2.476.979L257,61.591q0.375-.125,1.7-0.539a19.709,19.709,0,0,0,2-.715l0.025-5.267h-3.177Zm5.4,16.328a6.531,6.531,0,0,0,2.577-3.048,9.224,9.224,0,0,0,.626-4.4l1.876,0.251a17.861,17.861,0,0,1-.226,2.984,4.3,4.3,0,0,0,1.376,1.154,11.084,11.084,0,0,0,1.7.827l-0.024-6.169-5.7-.025v-1.78l13.934-.025V61.19h-6.354v2.182h4.952v1.856h-4.928v2.559c0.2,0.033.584,0.07,1.152,0.113s1.05,0.059,1.451.05,1.967-.063,4.7-0.163l-0.751,1.955-5.178-.05a12.613,12.613,0,0,1-3.789-.627,8.646,8.646,0,0,1-3.09-1.706,9.255,9.255,0,0,1-1.363,2.245A7.279,7.279,0,0,1,264.23,71Zm3.252-20.165,10.908-.024v8.778l-10.933-.05Zm1.851,1.807v1.579l7.181-.024v-1.53Zm0.026,3.41-0.026,1.68h7.181v-1.7Zm21.914-5.793a50.522,50.522,0,0,1-2.452,5.894L287.5,70.9l-1.9.025V57.829a20.253,20.253,0,0,1-2.052,2.559l-1.626-1.154a22.031,22.031,0,0,0,2.877-3.749,29.4,29.4,0,0,0,2.139-4.088q0.813-1.943,1.263-3.373ZM288.4,69.542a21.335,21.335,0,0,0,5.4-6.17l1.626,1.053a20.735,20.735,0,0,1-5.578,6.521Zm5.8-21.218-0.025,4.891,4.653,0.05,0.026-4.941h1.926l0.024,4.865,2.853,0.026-0.026,1.907h-2.851l0.024,5.467h3.553v1.857l-15.61.024-0.025-1.881h3.5l0.025-5.467-2.752.024,0.025-1.931,2.727,0.05-0.025-4.915Zm0,6.746v5.518h4.578l0.025-5.467Zm4.753,8.477A28.968,28.968,0,0,1,301.2,65.4a17.249,17.249,0,0,1,1.889,2.018,19.405,19.405,0,0,1,1.613,2.32,8.784,8.784,0,0,0-.751.54,9.916,9.916,0,0,1-.825.589,17.137,17.137,0,0,0-2.476-3.323,22.269,22.269,0,0,0-3.3-2.871Zm17.361,3.561V48.776h1.927l0.024,7.273,8.556,0.025V57.88h-8.556l-0.024,9.229h10.781v1.857l-20.888-.026V67.109h8.18ZM353.287,49.5l0.025,19.212a1.832,1.832,0,0,1-.45,1.291,1.554,1.554,0,0,1-1.2.489h-3.3l-0.651-1.83,2.952,0.1a0.621,0.621,0,0,0,.5-0.188,0.68,0.68,0,0,0,.226-0.514V51.334H342.68V70.871h-1.9l0.025-7.449-1.551.5a4.157,4.157,0,0,0-.15-1.079,46.45,46.45,0,0,0-5.228.878L332.6,61.967a16.357,16.357,0,0,0,4.1-4.69,20.332,20.332,0,0,0-3.326.452L332.3,56.1a22.674,22.674,0,0,0,2.839-3.537,11.689,11.689,0,0,0,1.588-3.862l1.7,0.752a15.889,15.889,0,0,1-.951,2.558A21.629,21.629,0,0,1,335,55.673q2-.151,2.7-0.251a9.925,9.925,0,0,0,.726-1.982l1.751,0.778a19.247,19.247,0,0,1-2.027,4.063,16.213,16.213,0,0,1-2.6,3.16,29.556,29.556,0,0,0,3-.352,4.9,4.9,0,0,0-1-1.3l1.726-.551a7.363,7.363,0,0,1,.976,1.593,6.44,6.44,0,0,1,.5,1.767L340.8,49.5h12.483ZM332.3,69.718a14.554,14.554,0,0,0,1.1-2.458,9.135,9.135,0,0,0,.4-3.035l1.626,0.427a10.924,10.924,0,0,1-1.527,5.542Zm3.4-.326a6.731,6.731,0,0,0-.2-4.891l1.726-.151a6.6,6.6,0,0,1,.513,2.345,8.7,8.7,0,0,1-.238,2.521Zm3-.727a6.656,6.656,0,0,0-1.075-4.239l1.676-.4a6.389,6.389,0,0,1,.826,1.931,10.741,10.741,0,0,1,.275,2.307Zm4.078-11.111-0.024-1.831h2.476a6.017,6.017,0,0,0-2.377-3.336l1.451-.852q1.451,0.7,2.527,3.536l-1.276.6,1.351,0.05a8.382,8.382,0,0,0,1.851-4.314l1.826,0.8q-0.124.4-.538,1.479a8.6,8.6,0,0,1-1.113,2.032h2.3v1.831l-4.7-.026a5.547,5.547,0,0,1,1.089,1.179,7.04,7.04,0,0,1,.813,1.5l-0.476.3,3.027,0.024v1.831h-4.627v2.006a0.662,0.662,0,0,0,.187.489,0.549,0.549,0,0,0,.388.188h3.427l0.026,1.781-4.054.024a1.827,1.827,0,0,1-1.426-.526,2.091,2.091,0,0,1-.45-1.5l0.025-2.458h-1.376V60.538h3.653a5.544,5.544,0,0,0-2-2.282l1.251-.678Zm19.038,11.612a19.188,19.188,0,0,0,7.154-3.562,19.151,19.151,0,0,1-2.677-3.4,22.736,22.736,0,0,1-1.926-4.026,24.72,24.72,0,0,1-1.426,7.85,19.455,19.455,0,0,1-3.177,4.891q-0.4-.2-1.188-0.678t-0.838-.5a12.359,12.359,0,0,0,3.852-6.27q0.176-.776.363-2.081t0.338-4.114q0.174-3.184.1-5.417H359.04V49.954h15.936V51.61q-1.077,1.63-3.253,4.489h4.954a13.263,13.263,0,0,1-1.576,5.217,21.159,21.159,0,0,1-3.177,4.214,21.15,21.15,0,0,0,7.405,3.511l-1.176,1.806a22.748,22.748,0,0,1-7.73-3.937,18.588,18.588,0,0,1-7.38,3.937Zm2.7-16.152q0.3,1.054.8,2.508a40.849,40.849,0,0,0,1.751,4.063,15.257,15.257,0,0,0,1.113,1.956A22.751,22.751,0,0,0,370.5,64.25a17.146,17.146,0,0,0,2.327-2.972,13.088,13.088,0,0,0,1.55-3.3h-5.328V56.3q2.151-2.708,3.3-4.439H364.52v1.153Zm28.042-1.079q-2.051.251-7.755,0.4l-1.126-1.855a72.557,72.557,0,0,0,9.532-.452,37.648,37.648,0,0,0,8.33-1.731l1.051,1.43a33.428,33.428,0,0,1-8.081,1.981v3.712h7.13v1.831h-7.13v3.837l9.181-.025V62.9h-9.206V68.89q0,2.006-1.776,2.006H389.26l-0.7-2.056q2.5,0.225,3.153.2a0.989,0.989,0,0,0,.638-0.226,0.864,0.864,0,0,0,.212-0.651V62.9h-9.556l-0.025-1.807h9.581l0.025-3.837h-7.5l-0.025-1.831h7.5V51.935Zm27.793-3.386,1.9,0.026q0,5.468.625,12.765h2.552a15.01,15.01,0,0,0-1.776-1.328l0.951-.828-1.2.225-0.7-1.5a19.254,19.254,0,0,0,2.7-3.36l-2.1.5-0.876-1.429q0.8-1.079,1.7-2.546a19,19,0,0,0,1.351-2.545l1.6,1.053a20.634,20.634,0,0,1-2.2,3.336l1.6-.2q0.174-.25,1.076-1.781l1.475,0.853a24.394,24.394,0,0,1-3.8,5.542l1.7-.251-0.45-1,1.4-.652a13.719,13.719,0,0,1,1.552,4.063l-1.626.6a6.555,6.555,0,0,0-.375-1.379l-2.2.3q0.3,0.2.975,0.7a14.762,14.762,0,0,1,1.451,1.254l-0.3.376h1.851V63.1h-6.028a13.684,13.684,0,0,0,.925,2.659,25.045,25.045,0,0,0,3.027-2.433l1.251,1.2a33.291,33.291,0,0,1-3.277,2.683,6.407,6.407,0,0,0,.725.664,6.17,6.17,0,0,0,.826.564,0.766,0.766,0,0,0,.6.088,0.52,0.52,0,0,0,.325-0.415l0.526-2.683,1.826,0.752a17.835,17.835,0,0,1-.951,3.185,1.9,1.9,0,0,1-1.351,1.18,2.768,2.768,0,0,1-1.876-.452,11.056,11.056,0,0,1-2.276-1.857,21.228,21.228,0,0,1-2.739,1.23,22.029,22.029,0,0,1-3.19.9l-0.926-1.7a16.423,16.423,0,0,0,5.829-1.881,12.464,12.464,0,0,1-1.15-3.688h-3.353l-0.149.953a13.51,13.51,0,0,1,3.427,2.157L420.2,67.661a10.35,10.35,0,0,0-2.826-1.857A10.12,10.12,0,0,1,414,70.444l-1.375-1.429a8.875,8.875,0,0,0,1.526-1.4,7.453,7.453,0,0,0,1.276-2.069,9.076,9.076,0,0,0,.65-2.445H413.25V61.34h2.9V59.911H418V61.34h3.027l-0.125-1.429-1.551.477-0.45-1.355-3.677.552-0.751-1.354a22.605,22.605,0,0,0,2.727-3.637l-2.077.476L414.5,53.792v1.329H412.45v2.056l0.475-.452a14.816,14.816,0,0,1,2.352,3.461l-1.351,1.053a19.52,19.52,0,0,0-1.476-2.558V70.9h-1.877V60.914a28.468,28.468,0,0,1-2.051,4.063l-1.725-.928a23.6,23.6,0,0,0,3.7-8.928h-2.752V53.365l2.827,0.024V48.549h1.877V53.39h2.1a22.233,22.233,0,0,0,2.652-4.715l1.626,0.929a22.575,22.575,0,0,1-2.026,3.41l1.4-.251q0.526-.977.851-1.756l1.4,0.752Zm0.125,3.511a25.194,25.194,0,0,1-3.7,5.593l1.676-.225-0.5-.9,1.526-.677a17.845,17.845,0,0,1,.725,1.706q0.376,1,.576,1.73Q420.48,55.12,420.48,52.06Zm19.463,2.434a3.421,3.421,0,0,1-.364,1.266,14.793,14.793,0,0,1-1.038,1.881,18.664,18.664,0,0,1-1.225,1.744l-0.025.5,0.475,0.075a12.889,12.889,0,0,0,1.826-2.809l1.376,1.129a7.853,7.853,0,0,1-1.751,2.458,10.465,10.465,0,0,1,1.8,1.63l-1.026,1.279a9.789,9.789,0,0,0-1.4-1.2,6.694,6.694,0,0,0-1.275-.752v9.1h-1.9V61.065a9.978,9.978,0,0,1-.95.865q-0.627.514-1.226,0.915l-1.175-1.429a22.2,22.2,0,0,0,2.739-2.307,16.71,16.71,0,0,0,2.025-2.37,11.6,11.6,0,0,0,1.114-1.944l-5.253-.026V52.888h7.255v1.606Zm-3.5-1.731a8.772,8.772,0,0,0-2.977-3.511l1.776-1.079a9.117,9.117,0,0,1,2.852,3.662Zm16.786,15.6a2.307,2.307,0,0,1-.275,1.079,2.043,2.043,0,0,1-.6.752,3.064,3.064,0,0,1-1.864.376q-0.987,0-1.213.025l-0.85-2.056a11.082,11.082,0,0,0,2.277.1,0.584,0.584,0,0,0,.5-0.288,1.09,1.09,0,0,0,.149-0.54V65.454l-3.276.025v4.064H446.2V65.478h-3.228v5.267h-1.876v-15.2l5.1-.025,0.024-2.056-6.179.026,0.026-1.831H446.2V48.374h1.876L448.1,51.66h2.452a8.172,8.172,0,0,0-1.926-1.906l1.676-.928a6.232,6.232,0,0,1,1.138,1.129,9.132,9.132,0,0,1,1.088,1.706h2.1v1.831H448.1l-0.024,2.031h5.153V68.363ZM442.994,57.378v2.106h3.2V57.353Zm0,3.837v2.434h3.2V61.215h-3.2Zm8.355-3.862H448.1v2.106l3.252,0.026V57.353Zm-3.252,6.3h3.252V61.215l-3.252.026v2.408Zm14.535,2.182a10.353,10.353,0,0,1-3.677,4.891,6.445,6.445,0,0,1-.989-0.577q-0.588-.4-0.788-0.527a12.61,12.61,0,0,0,2.439-2.156,7.305,7.305,0,0,0,1.439-2.584ZM467.51,49.4V64.551l-8.38-.025V49.4h8.38Zm-1.977,4.188V51.284l-4.427-.025v2.333h4.427ZM461.106,55.4l0.025,2.508h4.4V55.422Zm0,7.273,4.427-.024v-2.91l-4.427.025V62.67Zm4.252,2.283a11.23,11.23,0,0,1,3.353,4.64l-0.739.526q-0.562.4-.912,0.6a9.038,9.038,0,0,0-1.076-2.307,12.377,12.377,0,0,0-2.276-2.483Zm3.528-4.992h3.026l-0.024-11.712h1.926V53.39h5.978v1.881l-5.953-.024v4.714h4.228v10.86H476.19l-0.025-1.78-5.328-.025v1.756H468.86Zm7.279,1.906-5.328.026v5.291h5.328V61.867Zm10.757-9.982a6.881,6.881,0,0,0-.838-1.392,11.221,11.221,0,0,0-1.414-1.467l1.552-1.079a7.815,7.815,0,0,1,2.727,3.662l-0.4.225,4.2,0.05v1.831H482.444V51.885h4.478Zm4.8,5.016-8.131.026V55.07h8.131V56.9Zm-8.106,1.5h8.055v1.831h-8.03Zm5.7,11.913-0.026-1.2h-3.252v1.2l-1.876.025V62.118l7.03-.026v8.227h-1.876ZM489.3,63.9l-3.252.025v3.361H489.3V63.9Zm7.755-6.345-5.2-.026V55.723h5.228l-0.026-7.474,1.9,0.026,0.025,7.449h5.828v1.806l-5.853.026V70.8h-1.9V57.554ZM507.81,69.115l15.911-.752v1.58l-14.935.9Zm15.835-8h-15.71V59.56h7.1V58.808h-5.178v-1.53h5.153l0.025-.627-4.7.026v-1.63h4.7V54.168h-6.579v-1.68l6.579,0.024V51.76l-4.728.026v-1.63h4.728V48.449h1.9v1.68l5.029,0.025v2.357h1.651v1.656H521.97v2.508l-5.029-.026v0.6l5.279,0.024v1.53h-5.279V59.56l6.7-.026v1.58Zm-13.533,6.947V61.917h11.907v6.145H510.112ZM515.19,63.5h-3.177v0.727h3.177V63.5Zm-3.177,2.934h3.228l-0.026-.727h-3.177Zm8.055-14.672h-3.151l0.024,0.752,3.127-.024V51.76Zm-3.127,3.26,3.127,0.026V54.168h-3.127V55.02Zm0.025,8.477v0.727h3.177V63.5h-3.177Zm0,2.207,0.026,0.727,3.151-.025V65.7h-3.177ZM529,48.549V68.84a1.555,1.555,0,0,1-.35.941,2.267,2.267,0,0,1-.676.64,3.9,3.9,0,0,1-1.8.325q-1.2,0-1.626.025l-0.675-1.956c0.05,0,.446.022,1.188,0.063a6.555,6.555,0,0,0,1.439-.013,0.629,0.629,0,0,0,.438-0.212,0.692,0.692,0,0,0,.162-0.464V48.549H529Zm-4.953,2.383h1.9l-0.025,14.622-1.876.025V50.932Z"/>
</svg>
