<svg id="Frame_1" data-name="Frame 1" xmlns="http://www.w3.org/2000/svg" width="320" height="50" viewBox="0 0 320 50">
  <defs>
    <style>
      .cls-1 {
        fill: #4b286d;
        fill-rule: evenodd;
      }
    </style>
  </defs>
  <path id="家裏忘記關燈_" data-name="家裏忘記關燈?" class="cls-1" d="M26.561,20.338H21.485a5.611,5.611,0,0,0-.909-1.179,5.176,5.176,0,0,0-1-.8l-0.946.71a11.127,11.127,0,0,1,1.179.952,2.218,2.218,0,0,1,.248.317H14.637v2.811h1.156L15.778,21.41H25.4v1.677h1.156v-2.75Zm0.721,9.717a4.168,4.168,0,0,1-1.3-.816,7.075,7.075,0,0,1-1.149-1.345,5.973,5.973,0,0,1-.766-1.572,11,11,0,0,0,1.667-1.511l-0.871-.771a6.519,6.519,0,0,1-2.778,2.176,4,4,0,0,0-.608-0.96,3.557,3.557,0,0,0-.8-0.733,10.764,10.764,0,0,0,1.442-.967h2.763V22.483h-8.47l-0.015,1.088,3.784,0.015a15.439,15.439,0,0,1-5.466,1.708l0.781,1a13.04,13.04,0,0,0,4.07-1.194,4.536,4.536,0,0,1,.751.514,9.882,9.882,0,0,1-1.4.831,10.544,10.544,0,0,1-1.99.733,21.447,21.447,0,0,1-2.5.506l0.8,0.982a11.265,11.265,0,0,0,3.041-.741,13.914,13.914,0,0,0,2.665-1.451,6.258,6.258,0,0,1,.406.877,9.913,9.913,0,0,1-3.154,1.836,20.611,20.611,0,0,1-4.055.99l0.826,1.043a24.076,24.076,0,0,0,2.5-.612,15.477,15.477,0,0,0,2.283-.884,8.3,8.3,0,0,0,1.84-1.194,12.7,12.7,0,0,1-.06,2.025,0.661,0.661,0,0,1-.165.287,0.824,0.824,0,0,1-.27.212,5,5,0,0,1-1.1-.1,12.5,12.5,0,0,1-1.427-.385l0.465,1.345a5.807,5.807,0,0,0,2.628.106,1.3,1.3,0,0,0,.668-0.521,2.939,2.939,0,0,0,.353-1.307,8.733,8.733,0,0,0-.008-1.489,11.3,11.3,0,0,0-.218-1.488l0.721-.3a9.065,9.065,0,0,0,.616,1.352,7.388,7.388,0,0,0,1.149,1.549,4.671,4.671,0,0,0,1.6,1.133Zm14.143-9.565V19.446H36.064a4.872,4.872,0,0,0-1.382-1.194l-1.081.771a5.129,5.129,0,0,1,.991.423l-5.181.015v1.028H41.425Zm0.826,10.533a11.417,11.417,0,0,1-1.734-.363,9.591,9.591,0,0,1-1.344-.468A5.956,5.956,0,0,0,40.749,29.1l-0.8-.74a8.01,8.01,0,0,1-1.787,1.284,5.512,5.512,0,0,1-1.487-1.33h4.776V27.274l-5.421-.015V26.669h4.325l0.015-1.043h-4.34V25.113h4.025L40.073,20.9l-9.326-.015v4.231H34.8v0.5l-4.415.015v1.043H34.8l-0.015.589-5.466.015v1.043l3.589,0.03a13.209,13.209,0,0,1-1.765.929,23.861,23.861,0,0,1-2.275.9l0.676,0.907a16.293,16.293,0,0,0,2.883-1.164v0.771a0.446,0.446,0,0,1-.165.31,1.028,1.028,0,0,1-.481.234l0.751,0.907,3.844-.967,0.015-1.1-2.793.71-0.015-1.572q0.766-.619.878-0.74t0.158-.166l0.8,0.015A4.955,4.955,0,0,0,36.732,30a8.493,8.493,0,0,0,2.125,1.292,11.372,11.372,0,0,0,2.733.786Zm-3.334-9.082-0.015.574L36.019,22.5V21.924Zm0,1.572-0.015.574-2.868.015-0.015-.589h2.9Zm-4.115-1L31.9,22.5V21.924l2.883,0.015Zm0,1.572H31.889V23.511L34.8,23.526v0.559Zm20.434,0.438H47.382a0.4,0.4,0,0,1-.293-0.113,0.4,0.4,0,0,1-.113-0.295l-0.015-2.554,9.356,0.015V20.489H51.076l0.45-.3A6.15,6.15,0,0,0,49.2,18.328l-0.856.68a7.948,7.948,0,0,1,1.126.733,4.556,4.556,0,0,1,.781.748H44.123l0.015,1.088h1.607v2.69a1.341,1.341,0,0,0,.368.99,1.324,1.324,0,0,0,.984.37h8.124Zm-3.214,3.733a8.139,8.139,0,0,0-.488-0.8,5.478,5.478,0,0,0-.781-0.9,4.192,4.192,0,0,0-.984-0.7l-0.9.619A5.686,5.686,0,0,1,51,28.83Zm-4.565-1.39V30.1a1.355,1.355,0,0,0,.2.733,1.077,1.077,0,0,0,.541.453,1.874,1.874,0,0,0,.668.129h3.349a1.461,1.461,0,0,0,1.4-1.043,6.468,6.468,0,0,0,.375-1.36l-1.021-.484a6.07,6.07,0,0,1-.345,1.345,0.693,0.693,0,0,1-.631.438h-3a0.359,0.359,0,0,1-.263-0.113,0.381,0.381,0,0,1-.113-0.28V26.866H47.457Zm9.611,3.264a8.84,8.84,0,0,0-2.688-3.022l-0.856.65a7.708,7.708,0,0,1,1.442,1.352,8.6,8.6,0,0,1,1.111,1.685Zm-12.69.892a7.884,7.884,0,0,0,2.373-3.34l-0.916-.544a7.4,7.4,0,0,1-2.3,3.037ZM63.47,31.958V26.835H59.115L59.1,31.988l1.126-.015V30.825h2.1v1.133H63.47Zm-1.126-2.221h-2.1l-0.015-1.813h2.1ZM61.5,20.746L62,20.5a4.713,4.713,0,0,0-.721-1.133,7.032,7.032,0,0,0-.961-0.937l-0.931.62a6.169,6.169,0,0,1,1.457,1.723H58.169v1.088l6.022,0.015,0.015-1.1Zm2.988,3.415v5.682a2.308,2.308,0,0,0,.165.846,1.321,1.321,0,0,0,.458.627,1.093,1.093,0,0,0,.638.2h4.01a1.288,1.288,0,0,0,.721-0.242,1.843,1.843,0,0,0,.556-0.559,2.062,2.062,0,0,0,.255-0.559q0.015-.105.113-0.483t0.135-.627q0.037-.249.053-0.446l-1.156-.438a7.725,7.725,0,0,1-.24,1.8,0.687,0.687,0,0,1-.21.31,0.48,0.48,0,0,1-.315.128H66.188a0.417,0.417,0,0,1-.36-0.2,0.709,0.709,0,0,1-.135-0.408l-0.015-4.518h3.559v0.816h1.216l-0.015-6.589-6.262.015V20.64h5.061v3.521H64.491ZM63.635,22.65H58.8l0.015,1.088H63.62Zm0.015,2.01H58.845l-0.015,1.1H63.65v-1.1Zm20.712,2.947a6.2,6.2,0,0,0-.916-1.813l-0.931.348,0.36,0.453-1.352.121a10.309,10.309,0,0,0,2.313-2.357l-0.871-.589a6.79,6.79,0,0,1-.826,1.088l-1.006.076a6.262,6.262,0,0,0,1.322-1.254l-0.586-.348h2.493v4.277Zm-2.913-4.292a6.539,6.539,0,0,1-1.081,1.126,10.957,10.957,0,0,1-1.1.808l0.285,0.907,1.5-.227q-0.6.469-1.382,0.982l0.36,0.952q1.5-.166,3.229-0.287a3.052,3.052,0,0,1,.165.559l0.931-.287V30.4a0.314,0.314,0,0,1-.3.363q-0.676.045-1.607,0.045L82.8,31.837l0.743-.015a6.447,6.447,0,0,0,1.134-.106,0.924,0.924,0,0,0,.571-0.4,1.256,1.256,0,0,0,.225-0.733V19.174H79.932V23.33Zm-0.39-3.083h3.289v0.5h-3.3Zm0.015,1.541h3.274l-0.015.514-3.274-.015Zm-2.868,6.181-0.075.982H76.538v-0.71h-1.1l-0.015,1.753h2.448a2.2,2.2,0,0,1-.954.521,6.959,6.959,0,0,1-2.05.174l0.405,1.073a6.437,6.437,0,0,0,2.673-.559,1.928,1.928,0,0,0,1.006-1.118,7.567,7.567,0,0,0,.3-2.116l0.631-.166a6.877,6.877,0,0,0-1.006-1.844l-0.916.393,0.361,0.393q-0.631.091-1.2,0.121A9.9,9.9,0,0,0,78.5,25.785a15.5,15.5,0,0,0,1.284-1.292L78.9,23.919q-0.391.484-.811,0.937l-1.1.106a6.625,6.625,0,0,0,1.2-1.224l-0.481-.363h1.307V19.219H73.49L73.475,32.185h1.141L74.6,23.375h2.568a8.211,8.211,0,0,1-2.3,1.828l0.39,0.982q0.931-.166,1.517-0.212a11.018,11.018,0,0,1-1.757,1.1l0.436,0.982q1.787-.227,3.349-0.348l0.12,0.242H78.205ZM77.92,20.277v0.5H74.6l0.015-.5h3.3ZM77.9,21.818l0.015,0.514H74.6l0.015-.514H77.9Zm2.973,10.034V29.994l2.613-.015V28.211L82.38,28.2v0.741H80.893l-0.015-.952H79.767v3.869h1.111ZM91.77,30.4l-0.015,1.073h8.77V30.4l-3.018-.015a6.057,6.057,0,0,0,.9-1.813l-0.9-.317h1.306L98.8,24.9H93.467v3.355l1.186,0.03-0.991.378a3.284,3.284,0,0,1,.8.756,3.978,3.978,0,0,1,.571.982H91.77ZM94.593,26h3.078v1.148H94.593V26Zm0.691,4.367,0.766-.363a3.912,3.912,0,0,0-1.291-1.753h2.613A6.341,6.341,0,0,1,96.23,30.4ZM89.548,18.8l0.03,4.715L89.5,26.805a6.722,6.722,0,0,1-2.192,4.866l0.916,0.74a8.289,8.289,0,0,0,2.208-4,3.447,3.447,0,0,1,.969.725,3.961,3.961,0,0,1,.773,1.118,9.744,9.744,0,0,0,.976-0.68,8.675,8.675,0,0,0-1.209-1.413,5.485,5.485,0,0,0-1.359-.96q0.09-.65.105-3.007a6.468,6.468,0,0,0,1.982-1.708l-0.293-.295a4.16,4.16,0,0,0-.353-0.325q-0.135-.106-0.18-0.136a7.685,7.685,0,0,1-.593.756,2.854,2.854,0,0,1-.563.514q-0.06-2.252-.015-4.2H89.548Zm11.608,5.848a5.318,5.318,0,0,1-1.247-.839,10.771,10.771,0,0,1-1.1-1.065,5.142,5.142,0,0,0,1.562-1.481q-0.03-.03-0.3-0.272a3.551,3.551,0,0,0-.466-0.363,4.783,4.783,0,0,1-1.322,1.33,1.854,1.854,0,0,1-.36-0.62,7.05,7.05,0,0,0,1.622-1.647q-0.105-.075-0.361-0.3a3.655,3.655,0,0,0-.42-0.332,5.1,5.1,0,0,1-1.276,1.36,14.176,14.176,0,0,1-.616-1.934,3.158,3.158,0,0,0-.533.181q-0.323.136-.443,0.181a12.018,12.018,0,0,0,1.667,3.989H94.744a4.253,4.253,0,0,0,.541-1.043,6.6,6.6,0,0,0,.375-1.36,7.394,7.394,0,0,0,.105-1.118H91.71v1.118h2.808a6.046,6.046,0,0,1-.255.808q-0.2.521-.33,0.793a2.982,2.982,0,0,0-.488-0.642q-0.293-.295-0.773-0.688l-0.841.71a3.864,3.864,0,0,1,1.517,1.481,5.129,5.129,0,0,1-.826.824,9.994,9.994,0,0,1-1.577.99l0.916,0.876a10.12,10.12,0,0,0,2.223-1.889L94.1,23.934h4.025l0.03-.257a6.281,6.281,0,0,0,1.111,1.111,8.143,8.143,0,0,0,1.141.763Zm-12.78.756a5.189,5.189,0,0,0,.511-1.216,6.444,6.444,0,0,0,.255-1.3,4.733,4.733,0,0,0,0-.929l-1.1-.257a5.541,5.541,0,0,1-.826,3.415Zm16.343,2.917h1.187a3.128,3.128,0,0,1,.195-1.345,3.763,3.763,0,0,1,1.126-1.284,3.528,3.528,0,0,0,1.577-2.7c0-1.9-1.307-2.856-3.3-2.856-2.057,0-3.454,1.118-3.484,3.551h1.232c0.1-1.9,1.006-2.4,2.3-2.4,1.4,0,1.983.68,1.983,1.723a2.931,2.931,0,0,1-1.322,2.04,4.161,4.161,0,0,0-1.216,1.481A4.089,4.089,0,0,0,104.719,28.316Zm0.616,2.916a0.865,0.865,0,0,0,.856-0.892,0.879,0.879,0,0,0-1.757,0A0.866,0.866,0,0,0,105.335,31.233Z"/>
</svg>
