<svg id="Frame_3" data-name="Frame 3" xmlns="http://www.w3.org/2000/svg" width="320" height="50" viewBox="0 0 320 50">
  <defs>
    <style>
      .cls-1 {
        fill: #4b286d;
        fill-rule: evenodd;
      }
    </style>
  </defs>
  <path id="使用TELUS_智能插座及燈泡_" data-name="使用TELUS 智能插座及燈泡 " class="cls-1" d="M21.624,11.92l-0.015.99h-3.39V17.1l3.33-.03a5.813,5.813,0,0,1-.24,1.245,4.443,4.443,0,0,1-.375.795,9.208,9.208,0,0,1-1.68-1.815l-0.975.615a16.57,16.57,0,0,0,1.905,2.1,7.789,7.789,0,0,1-3.015,1.68l0.885,1A12.9,12.9,0,0,0,20,21.625a8.605,8.605,0,0,0,1.177-.93,9.483,9.483,0,0,0,2.745,1.192,14.314,14.314,0,0,0,3.075.623l0.69-1.08A15.169,15.169,0,0,1,21.909,19.8a5.151,5.151,0,0,0,.563-1.3,13.579,13.579,0,0,0,.277-1.433l3.45-.015,0.015-4.125-3.42-.015V11.89l4.05,0.03V10.78h-4.05V9.1l-1.185-.015v1.7h-3.93l0.39-1.26-1.05-.39q-0.645,2.07-1.2,3.39a13.87,13.87,0,0,1-2.16,3.57l0.84,0.75q0.96-1.23,1.275-1.695V22.72h1.08l0.015-9.69L17.3,11.89Zm3.435,4.035H22.794v-1.95h2.28Zm-3.48,0H19.3v-1.9h2.28v1.9Zm9.366-6.15V16.48a10,10,0,0,1-.165,1.793A7.327,7.327,0,0,1,30.3,19.9,9.544,9.544,0,0,1,28.905,22l0.96,0.72a9.948,9.948,0,0,0,1.515-2.273,9.523,9.523,0,0,0,.675-2.843H35.34v3.57h1.17v-3.57h3.27v3.21a0.362,0.362,0,0,1-.06.218,0.248,0.248,0,0,1-.18.1,4.1,4.1,0,0,1-.562.022q-0.292-.007-1.028-0.037l0.36,1.17,1.71-.03a0.972,0.972,0,0,0,.413-0.187A1.219,1.219,0,0,0,40.8,21.6a1.3,1.3,0,0,0,.15-0.562V9.805h-10Zm4.395,1.11V13.09H32.115V10.915H35.34Zm4.41,3.27L39.735,16.5H36.51l0.015-2.31H39.75Zm-3.24-3.27h3.24v2.16l-3.225.015Zm-4.4,3.27H35.34V16.5H32.115v-2.31Zm19.173-3.24H42.723v1.14h3.63v9.54h1.3v-9.54h3.63v-1.14Zm8.565,1.14v-1.14H52.428v10.68h7.365v-1.14h-6.1V16.631h5.565v-1.14H53.688v-3.4h6.165Zm2.469,8.4v-9.54h-1.26v10.68h6.63v-1.14h-5.37ZM72.6,21.85c2.67,0,4.2-1.515,4.2-4.185v-6.72h-1.26v6.72c0,2.1-1.08,3.045-2.94,3.045s-2.94-.945-2.94-3.045v-6.72H68.4v6.72C68.4,20.335,69.925,21.85,72.6,21.85Zm9.932,0.015c2.565,0,4-1.245,4-3.135,0-1.545-.87-2.5-3.33-3.045l-0.945-.21c-2.01-.45-2.5-0.96-2.5-1.98,0-1,.8-1.65,2.34-1.65,2.13,0,2.775.825,2.88,2.2h1.29c-0.045-1.74-1.02-3.345-4.17-3.345-2.22,0-3.645,1.08-3.645,2.79,0,1.95,1.425,2.685,3.24,3.09l0.945,0.21c1.89,0.42,2.595.915,2.595,1.935,0,1.32-.99,1.995-2.7,1.995-1.74,0-3.1-.645-3.135-2.625h-1.3C78.117,20.77,79.977,21.865,82.527,21.865Zm-67.937,8.97-0.015,1.11h2.67a2.387,2.387,0,0,1-.54.81,3.6,3.6,0,0,1-1.08.727,6.2,6.2,0,0,1-1.485.472l0.54,1.125a6.9,6.9,0,0,0,1.072-.345,4.21,4.21,0,0,0,.7-0.345v6.255l1.125,0.015V39.7H23.8v0.885h1.17L24.954,34.27l-8.37-.03a3.857,3.857,0,0,0,1.245-1.02,5.288,5.288,0,0,1,1.125.165,12.305,12.305,0,0,1,1.785.675l0.6-.915a5.7,5.7,0,0,0-1.177-.54,10.672,10.672,0,0,0-1.793-.39l0.12-.285h2.49V30.85l-2.325-.015a5.453,5.453,0,0,0,.075-1.29l1.755-.015V28.45l-3.465-.015a3.06,3.06,0,0,0,.255-0.825l-1.1-.42a6.038,6.038,0,0,1-.555,1.785,4.029,4.029,0,0,1-1.11,1.335l1.05,0.465a5.757,5.757,0,0,0,.66-0.608,3.268,3.268,0,0,0,.48-0.637h0.9a5.021,5.021,0,0,1-.075,1.32Zm9.21,5.61H17.574V35.35L23.8,35.365v1.08Zm-0.015,2.16h-6.21V37.54H23.8Zm2.58-5.475V28.165H21.4V33.13h4.965Zm-1.14-1.08h-2.7l0.015-2.79h2.685v2.79ZM34.61,32.4H29.195v8.19l1.14,0.015q-0.015-1.695,0-3.135h3.12v1.41a0.485,0.485,0,0,1-.068.24,0.239,0.239,0,0,1-.172.135,3.8,3.8,0,0,1-.833,0q-0.517-.045-0.742-0.06l0.42,1.155a10.365,10.365,0,0,0,1.62-.045,0.934,0.934,0,0,0,.668-0.353,1.872,1.872,0,0,0,.262-0.758V32.4ZM30.35,34.39l-0.015-.915h3.12v0.9Zm-0.015,1.08H33.47l-0.015.915h-3.12V35.47Zm0.99-8.5q-0.915,1.56-1.23,2a8.874,8.874,0,0,1-.607.758,5.666,5.666,0,0,1-.562.547,1.492,1.492,0,0,1-.315.277,3.467,3.467,0,0,0-.33.262L29.1,31.81q0.27-.03,1.567-0.2t2.1-.255q0.8-.082,1.358-0.113,0.27,0.6.307,0.712T34.5,32.17a4.948,4.948,0,0,0,.645-0.255q0.39-.18.435-0.2a9.284,9.284,0,0,0-.9-1.687A6.617,6.617,0,0,0,33.47,28.66l-1.005.555a9.543,9.543,0,0,1,.93.99l-3.195.27a7.61,7.61,0,0,0,1.095-1.26A15.259,15.259,0,0,0,32.36,27.49Zm8.97,3.405q-0.33,2.025-.7,2.025H37.61a1.057,1.057,0,0,1-.517-0.128,0.364,0.364,0,0,1-.233-0.307V30.865a14.7,14.7,0,0,0,2.58-1.02,9.628,9.628,0,0,0,1.65-1.1L40.4,27.9a9.633,9.633,0,0,1-1.763,1.117,10.2,10.2,0,0,1-1.778.728l-0.015-2.6-1.125.015,0.015,5.205a1.178,1.178,0,0,0,.428.773,1.387,1.387,0,0,0,.953.337h2.67a0.942,0.942,0,0,0,.66-0.307,1.834,1.834,0,0,0,.45-0.668,16.293,16.293,0,0,0,.495-1.71ZM35.69,33.9v4.8a1.136,1.136,0,0,0,.24.675,1.323,1.323,0,0,0,.57.465,1.573,1.573,0,0,0,.585.135l2.715-.015a1.711,1.711,0,0,0,.54-0.157,1.187,1.187,0,0,0,.435-0.337,2.432,2.432,0,0,0,.285-0.5,5.676,5.676,0,0,0,.278-0.9q0.142-.592.2-0.757L40.475,36.9a6.583,6.583,0,0,1-.36,1.575,0.66,0.66,0,0,1-.45.42h-2.31a0.616,0.616,0,0,1-.413-0.112,0.34,0.34,0,0,1-.127-0.263l0.015-1.41a12.688,12.688,0,0,0,2.287-.7A9.125,9.125,0,0,0,41.24,35.2l-0.765-.8a8.426,8.426,0,0,1-1.77.975,12.287,12.287,0,0,1-1.875.6l-0.015-2.1Zm14.622-2.37a3.817,3.817,0,0,1-.862.832,5.256,5.256,0,0,1-1.538.682v7.65h1.14V39.61h5.1l0.015,1.02h1.125V32.365h-2.85l-0.015,1.11h1.725l-0.015,1.77h-1.4v1.1h1.41v2.145h-2.01V31.36h4.065l-0.015-1.08H52.157V29.02a13.336,13.336,0,0,0,3.54-1.05l-0.78-.885a11.645,11.645,0,0,1-2.835.855,31.956,31.956,0,0,1-5.01.36l0.6,1.155Q49.036,29.4,51,29.2v1.08H47.357V30.19h-1.14V27.325H45.092V30.19h-2.01V31.3h2.01v3.015q-1.335.63-2.265,0.99l0.78,0.855,1.47-.69v3.705l-0.06.21a0.62,0.62,0,0,1-.15.128,1.177,1.177,0,0,1-.6.052,3.169,3.169,0,0,0-.72.015l0.465,1.1q0.165-.015.637-0.015a2.633,2.633,0,0,0,.72-0.075,1.065,1.065,0,0,0,.412-0.225,1.221,1.221,0,0,0,.315-0.48,1.641,1.641,0,0,0,.1-0.57V34.945l1.3-.585V33.145q-1.11.615-1.29,0.69L46.2,31.3h1.155v0.06H51v0.975ZM51,38.485h-1.95v-2.13h1.455v-1.08H49.052v-1.5a6.527,6.527,0,0,0,1.3-.7A2.718,2.718,0,0,0,51,32.41v6.075Zm7.3,2.13a13.106,13.106,0,0,0,1.3-2.625,10.41,10.41,0,0,0,.45-2.9l0.855,0.48a4.783,4.783,0,0,0,.885-0.84,4.837,4.837,0,0,0,.6-0.99,8.77,8.77,0,0,1,1.47,1.5l0.66-.54V35.98h-3.7l0.015,1.095,3.69,0.015,0.015,1.515H60v1.11H70.451l0.03-1.08-4.8-.015V37.09l3.93-.015V35.95l-3.945.015V35.14l0.885,0.525a5.724,5.724,0,0,0,.862-1.065,8.647,8.647,0,0,0,.593-1.215,7.175,7.175,0,0,1,.757.788q0.367,0.443.877,1.178a3.036,3.036,0,0,0,.255-0.18q0.135-.1.337-0.285t0.278-.24A9.749,9.749,0,0,0,68.246,32.2a16.566,16.566,0,0,0,.15-1.7L67.3,30.34a7.437,7.437,0,0,1-.345,2.52,5.84,5.84,0,0,1-1.29,2.115v-4.92l-1.14-.03V34.27q-0.51-.555-0.915-0.915a10.2,10.2,0,0,0-.87-0.69A9.566,9.566,0,0,0,63,30.6L61.9,30.4a5.759,5.759,0,0,1-.21,2,4.412,4.412,0,0,1-.742,1.47,7.219,7.219,0,0,1-.907.968V29.71H70.3V28.6h-4.95a9.453,9.453,0,0,0-.66-0.893,6.6,6.6,0,0,0-.735-0.772l-1.155.63a9.3,9.3,0,0,1,.758.593A2.915,2.915,0,0,1,64,28.6h-5.13l-0.015,2.34q0,0.6.03,2.348a26.508,26.508,0,0,1-.1,3.082,6.21,6.21,0,0,1-.668,2.153q-0.308.593-.8,1.4Zm17.059,0a11.151,11.151,0,0,0,4.425-2.355,13.648,13.648,0,0,0,4.635,2.355l0.7-1.08a12.7,12.7,0,0,1-4.44-2.1,12.648,12.648,0,0,0,1.905-2.52,7.911,7.911,0,0,0,.945-3.12h-2.97q1.305-1.71,1.95-2.685V28.12H72.96v1.14h2.01q0.045,1.335-.06,3.24-0.09,1.68-.2,2.46T74.49,36.205a7.387,7.387,0,0,1-2.31,3.75q0.03,0.015.5,0.3T73.4,40.66A11.632,11.632,0,0,0,75.3,37.735a14.741,14.741,0,0,0,.855-4.695,13.6,13.6,0,0,0,1.155,2.407,11.456,11.456,0,0,0,1.6,2.033,11.516,11.516,0,0,1-4.29,2.13ZM76.245,29.26h4.7q-0.69,1.035-1.98,2.655v1h3.2a7.807,7.807,0,0,1-.93,1.972A10.272,10.272,0,0,1,79.83,36.67a13.713,13.713,0,0,1-1.388-1.62,9.1,9.1,0,0,1-.668-1.17,24.517,24.517,0,0,1-1.05-2.43q-0.3-.87-0.48-1.5V29.26ZM90.9,38.905L90.89,39.97h8.76V38.905l-3.015-.015a6,6,0,0,0,.9-1.8l-0.9-.315h1.3l-0.015-3.33H92.6v3.33l1.185,0.03-0.99.375a3.272,3.272,0,0,1,.795.75,3.934,3.934,0,0,1,.57.975H90.9Zm2.82-4.365H96.8v1.14H93.725V34.54Zm0.69,4.335,0.765-.36a3.885,3.885,0,0,0-1.29-1.74H96.5a6.282,6.282,0,0,1-1.14,2.13Zm-5.73-11.49,0.03,4.68-0.075,3.27a6.654,6.654,0,0,1-2.19,4.83L87.365,40.9a8.213,8.213,0,0,0,2.2-3.975,3.441,3.441,0,0,1,.968.72,3.932,3.932,0,0,1,.773,1.11,9.727,9.727,0,0,0,.975-0.675,8.631,8.631,0,0,0-1.207-1.4,5.48,5.48,0,0,0-1.358-.953q0.09-.645.105-2.985a6.446,6.446,0,0,0,1.98-1.7l-0.292-.293a4.128,4.128,0,0,0-.353-0.323q-0.135-.1-0.18-0.135a7.649,7.649,0,0,1-.592.75,2.848,2.848,0,0,1-.562.51q-0.06-2.235-.015-4.17H88.685Zm11.6,5.8a5.319,5.319,0,0,1-1.245-.832A10.746,10.746,0,0,1,97.94,31.3a5.122,5.122,0,0,0,1.56-1.47q-0.03-.03-0.3-0.27a3.522,3.522,0,0,0-.465-0.36,4.765,4.765,0,0,1-1.32,1.32,1.837,1.837,0,0,1-.36-0.615,7.021,7.021,0,0,0,1.62-1.635q-0.1-.075-0.36-0.3a3.647,3.647,0,0,0-.42-0.33,5.081,5.081,0,0,1-1.275,1.35A14,14,0,0,1,96,27.07a3.163,3.163,0,0,0-.533.18q-0.323.135-.442,0.18a11.89,11.89,0,0,0,1.665,3.96h-2.82a4.214,4.214,0,0,0,.54-1.035,6.52,6.52,0,0,0,.375-1.35,7.3,7.3,0,0,0,.105-1.11h-4.05v1.11h2.8a5.985,5.985,0,0,1-.255.8q-0.2.517-.33,0.788a2.964,2.964,0,0,0-.487-0.638q-0.293-.293-0.773-0.682l-0.84.7a3.846,3.846,0,0,1,1.515,1.47,5.107,5.107,0,0,1-.825.817,9.993,9.993,0,0,1-1.575.983l0.915,0.87a10.089,10.089,0,0,0,2.22-1.875l0.015,0.24h4.02l0.03-.255a6.253,6.253,0,0,0,1.11,1.1,8.111,8.111,0,0,0,1.14.758Zm-12.765.75a5.139,5.139,0,0,0,.51-1.207,6.368,6.368,0,0,0,.255-1.29,4.665,4.665,0,0,0,0-.923l-1.095-.255a5.473,5.473,0,0,1-.825,3.39Zm20.493-5.1a9.968,9.968,0,0,0,.21-1.7l-1.08-.27a8.928,8.928,0,0,1-2.7,6.2l0.945,0.81,1.05-1.11-0.015,5.415,0.075,0.54a1.617,1.617,0,0,0,.577.8,1.735,1.735,0,0,0,.908.375h5.07a1.722,1.722,0,0,0,.8-0.15,1.671,1.671,0,0,0,.473-0.375,6.063,6.063,0,0,0,.765-2.1,5.329,5.329,0,0,0-.563-0.248q-0.368-.142-0.532-0.218l-0.135.825c-0.021.07-.06,0.228-0.12,0.472a1.368,1.368,0,0,1-.233.54,0.629,0.629,0,0,1-.382.218H108.4l-0.375-.045a0.758,0.758,0,0,1-.315-0.2,0.517,0.517,0,0,1-.15-0.323V35.965H110.9v-4.44l-3.78.015a11.566,11.566,0,0,0,.57-1.515h4.77q0,0.105-.053,1.53t-0.127,2.663a19.92,19.92,0,0,1-.21,2.032,0.339,0.339,0,0,1-.27.165,4.242,4.242,0,0,1-.683-0.082q-0.458-.082-0.667-0.113l0.285,1.125a4.277,4.277,0,0,0,1.77.045,1.351,1.351,0,0,0,.78-1.065q0.255-2.445.375-7.47Zm1.785,6.06h-2.235V32.62h2.235V34.9Zm-5.04-2.265a5.843,5.843,0,0,0-.668-0.892,5.053,5.053,0,0,0-.885-0.78,9.44,9.44,0,0,0-1.147-.668l-0.945.69a9.432,9.432,0,0,1,1.042.57,4.473,4.473,0,0,1,.863.742,7.38,7.38,0,0,1,.765,1Zm1.185-3.06a6.8,6.8,0,0,0-.743-0.892,6.577,6.577,0,0,0-.99-0.84,4.284,4.284,0,0,0-.952-0.518l-0.84.705a6.391,6.391,0,0,1,1.425.96,6.228,6.228,0,0,1,1.185,1.32Zm-3.45,10.5q0.12-.165.54-0.72t0.712-1.005a7.526,7.526,0,0,0,.533-0.975,9.862,9.862,0,0,0,.442-1.185,10.245,10.245,0,0,0,.323-1.455c-0.261-.11-0.6-0.275-1.02-0.495a9.487,9.487,0,0,1-.48,1.845,10.585,10.585,0,0,1-.863,1.807,7.225,7.225,0,0,1-1.252,1.553Z"/>
</svg>
