<svg id="Frame_4" data-name="Frame 4" xmlns="http://www.w3.org/2000/svg" width="320" height="50" viewBox="0 0 320 50">
  <defs>
    <style>
      .cls-1 {
        fill: #4b286d;
        fill-rule: evenodd;
      }
    </style>
  </defs>
  <path id="家居節能更有效_" data-name="家居節能更有效 " class="cls-1" d="M26.454,19.915h-5.07a5.57,5.57,0,0,0-.907-1.17,5.161,5.161,0,0,0-1-.8l-0.945.705a11.1,11.1,0,0,1,1.178.945,2.192,2.192,0,0,1,.247.315H14.544v2.79H15.7L15.684,20.98H25.3v1.665h1.155v-2.73Zm0.72,9.645a4.169,4.169,0,0,1-1.3-.81,7.039,7.039,0,0,1-1.148-1.335,5.914,5.914,0,0,1-.765-1.56,10.954,10.954,0,0,0,1.665-1.5l-0.87-.765a6.506,6.506,0,0,1-2.775,2.16,3.958,3.958,0,0,0-.608-0.953,3.539,3.539,0,0,0-.8-0.727,10.743,10.743,0,0,0,1.44-.96h2.76V22.045h-8.46L16.3,23.125l3.78,0.015a15.49,15.49,0,0,1-5.46,1.7l0.78,0.99a13.085,13.085,0,0,0,4.065-1.185,4.528,4.528,0,0,1,.75.51,9.884,9.884,0,0,1-1.395.825,10.576,10.576,0,0,1-1.987.727,21.551,21.551,0,0,1-2.5.5l0.8,0.975a11.31,11.31,0,0,0,3.037-.735,13.933,13.933,0,0,0,2.663-1.44,6.2,6.2,0,0,1,.405.87,9.916,9.916,0,0,1-3.15,1.823,20.707,20.707,0,0,1-4.05.982l0.825,1.035a24.214,24.214,0,0,0,2.5-.607,15.517,15.517,0,0,0,2.28-.878,8.293,8.293,0,0,0,1.837-1.185,12.516,12.516,0,0,1-.06,2.01,0.655,0.655,0,0,1-.165.285,0.824,0.824,0,0,1-.27.21,5.022,5.022,0,0,1-1.095-.1,12.547,12.547,0,0,1-1.425-.383l0.465,1.335a5.835,5.835,0,0,0,2.625.105,1.3,1.3,0,0,0,.668-0.518,2.9,2.9,0,0,0,.352-1.3,8.615,8.615,0,0,0-.008-1.477,11.146,11.146,0,0,0-.217-1.477l0.72-.3a8.985,8.985,0,0,0,.615,1.343,7.341,7.341,0,0,0,1.148,1.537,4.667,4.667,0,0,0,1.6,1.125ZM29.3,31.72a7.144,7.144,0,0,0,1.267-2.16,9.275,9.275,0,0,0,.5-2.648q0.082-1.508.1-1.718l4.365,0.015,0.015,1.605h-3.6l0.015,4.8,1.11-.015,0.015-.885h6.135V31.6h1.14V26.8l-3.69.015L36.65,25.21h4.77V24.115l-4.77.015,0.015-1.56H35.54l-0.015,1.545H31.1l0.015-1.665H40.67V18.9H29.96v6.36a18.912,18.912,0,0,1-.09,2.242,7.632,7.632,0,0,1-.27,1.23,6.707,6.707,0,0,1-.5,1.177,6.367,6.367,0,0,1-.788,1.14Zm1.8-11.73h8.43l0.015,1.38L31.1,21.355V19.99Zm1.965,9.645L33.08,27.91l6.15-.015-0.015,1.74h-6.15Zm11.118,1.95q0.45-.255,4.335-1.62,0.15,0.255.42,0.765t0.315,0.6q0.39-.18,1.02-0.555a12.529,12.529,0,0,0-1.2-1.965,6.619,6.619,0,0,0-1.08-1.1l-1.005.555a4.641,4.641,0,0,1,.9.87l-2.865.945v-2.52H49.4v-5.13h-5.52l0.015,7.4a0.978,0.978,0,0,1-.18.637,1.249,1.249,0,0,1-.435.337Zm4.08-8.085,0.015,0.915-3.27-.015V23.5h3.255Zm0,1.965V26.5h-3.24V25.465h3.24Zm1.41-4.935,0.015-1.08-4.035.015q0.015-.03.09-0.255t0.135-.42q0.06-.195.09-0.315l-1.035-.39a6.641,6.641,0,0,1-2.25,3.765l0.885,0.75a7.058,7.058,0,0,0,1.013-1.05,5.136,5.136,0,0,0,.682-1.02h1.095a7.424,7.424,0,0,1,1.02,1.71l0.225-.1q0.12-.052.78-0.413a5.525,5.525,0,0,0-.795-1.2h2.085Zm6.435-.045V19.42l-4.425-.015q0.15-.51.255-1.02l-1.02-.375a6.486,6.486,0,0,1-.773,2A5.314,5.314,0,0,1,48.7,21.6l0.96,0.765a5.675,5.675,0,0,0,1.56-1.875h1.3a6.63,6.63,0,0,1,.945,1.68,2.578,2.578,0,0,0,.293-0.12q0.157-.075.4-0.218t0.33-.187a8.339,8.339,0,0,0-.75-1.155h2.37Zm-2.1,2.97,0.015,4.335a0.4,0.4,0,0,1-.112.285,0.34,0.34,0,0,1-.292.105l-1.665-.09,0.5,1.17q0.225-.015.938,0a3.2,3.2,0,0,0,.968-0.075,1.779,1.779,0,0,0,.517-0.345,0.867,0.867,0,0,0,.225-0.427,2.016,2.016,0,0,0,.052-0.4V22.39l-4.725-.015V31.6h1.14l-0.015-8.145h2.46Zm9.587-.06H58.179v8.19l1.14,0.015q-0.015-1.695,0-3.135h3.12v1.41a0.485,0.485,0,0,1-.068.24,0.238,0.238,0,0,1-.172.135,3.805,3.805,0,0,1-.832,0q-0.518-.045-0.742-0.06l0.42,1.155a10.367,10.367,0,0,0,1.62-.045,0.934,0.934,0,0,0,.667-0.352,1.872,1.872,0,0,0,.263-0.758V23.4Zm-4.26,2-0.015-.915h3.12v0.9Zm-0.015,1.08h3.135l-0.015.915h-3.12V26.47Zm0.99-8.505q-0.915,1.56-1.23,2a8.874,8.874,0,0,1-.607.758,5.644,5.644,0,0,1-.562.547,1.487,1.487,0,0,1-.315.277,3.486,3.486,0,0,0-.33.262l0.825,1.005q0.27-.03,1.568-0.2t2.1-.255q0.8-.082,1.358-0.113,0.27,0.6.308,0.712t0.067,0.218a4.937,4.937,0,0,0,.645-0.255q0.39-.18.435-0.2a9.278,9.278,0,0,0-.9-1.687,6.617,6.617,0,0,0-1.215-1.373l-1,.555a9.554,9.554,0,0,1,.93.99l-3.195.27a7.606,7.606,0,0,0,1.095-1.26,15.26,15.26,0,0,0,1.065-1.725Zm8.97,3.405q-0.33,2.025-.7,2.025h-1.98a1.057,1.057,0,0,1-.518-0.127,0.364,0.364,0,0,1-.232-0.308V21.865a14.7,14.7,0,0,0,2.58-1.02,9.625,9.625,0,0,0,1.65-1.1l-0.69-.855a9.626,9.626,0,0,1-1.763,1.117,10.2,10.2,0,0,1-1.777.728l-0.015-2.6L64.7,18.16l0.015,5.205a1.179,1.179,0,0,0,.427.772,1.387,1.387,0,0,0,.953.338h2.67a0.942,0.942,0,0,0,.66-0.308,1.833,1.833,0,0,0,.45-0.668,16.263,16.263,0,0,0,.5-1.71ZM64.674,24.9v4.8a1.136,1.136,0,0,0,.24.675,1.323,1.323,0,0,0,.57.465,1.573,1.573,0,0,0,.585.135l2.715-.015a1.711,1.711,0,0,0,.54-0.158,1.186,1.186,0,0,0,.435-0.337,2.427,2.427,0,0,0,.285-0.5,5.665,5.665,0,0,0,.278-0.9q0.142-.592.2-0.758L69.459,27.9a6.578,6.578,0,0,1-.36,1.575,0.66,0.66,0,0,1-.45.42h-2.31a0.616,0.616,0,0,1-.413-0.113,0.341,0.341,0,0,1-.127-0.262l0.015-1.41a12.689,12.689,0,0,0,2.288-.7A9.122,9.122,0,0,0,70.224,26.2l-0.765-.795a8.424,8.424,0,0,1-1.77.975,12.28,12.28,0,0,1-1.875.6L65.8,24.88Zm20.681,5.52q-1.4-.03-2.933-0.2a25.41,25.41,0,0,1-2.707-.435,7.213,7.213,0,0,1-1.83-.622,4.472,4.472,0,0,0,.63-1.133A5.709,5.709,0,0,0,78.86,26.7h4.38v-5.55H79.07v-1.11l5.805,0.015V18.985H72.08V20.05l5.88-.015v1.11H73.655L73.64,26.7h4.08a4.778,4.778,0,0,1-.307.99,4.119,4.119,0,0,1-.517.9,17.716,17.716,0,0,1-2.19-1.71l-0.87.585a10.23,10.23,0,0,0,2.175,1.92,13,13,0,0,1-2.258.848,20.315,20.315,0,0,1-2.107.472l0.675,1.005a10.54,10.54,0,0,0,4.305-1.425l0.465-.315a14.011,14.011,0,0,0,2.865,1,27.26,27.26,0,0,0,4.7.607Zm-3.21-7.05h-3.06L79.1,22.21h3.045v1.155Zm-7.38-1.155,3.2,0.015v1.14h-3.2V22.21Zm7.395,2.22v1.185H78.98l0.075-1.185H82.16Zm-7.395,0H77.93l-0.06,1.185L74.765,25.6V24.43Zm12.318,2.835q1.365-1.395,1.823-1.92a9.919,9.919,0,0,0,.712-0.9V31.6H90.8V28.42l5.655,0.015V29.92a0.244,0.244,0,0,1-.082.172,0.275,0.275,0,0,1-.2.082,11.092,11.092,0,0,1-1.89-.075q0.135,0.345.525,1.155H95.67A5.983,5.983,0,0,0,96.8,31.18a1.3,1.3,0,0,0,.532-0.375,1.012,1.012,0,0,0,.248-0.57V22.57h-6.8q0.195-.405.54-1.395l8.07-.015V20.08H91.763q0.36-1.23.495-1.86L91.1,17.965q-0.3,1.245-.413,1.6t-0.172.5h-3.57V21.16l3.15,0.015A9.98,9.98,0,0,1,88.56,23.9a19.6,19.6,0,0,1-2.527,2.677Zm9.345-3.6V24.9L90.8,24.88V23.665h5.625Zm-5.655,2.31,5.67,0.015v1.35h-5.67V25.975Zm23.53,4.74a8.276,8.276,0,0,1-2.895-2.865,11.248,11.248,0,0,0,1.118-2.678,13.593,13.593,0,0,0,.487-2.992h0.9V21.1h-3.855a19.732,19.732,0,0,0,.135-2.8,3.522,3.522,0,0,0-.6-0.12q-0.36-.045-0.45-0.06,0,1.005-.105,2.22a10.163,10.163,0,0,1-1.995,5.415l1,0.54a11.778,11.778,0,0,0,.975-1.605,12.647,12.647,0,0,0,1.11,3.135,10.777,10.777,0,0,1-3.12,2.955L107.9,31.57a13.691,13.691,0,0,0,1.605-1.335,12.16,12.16,0,0,0,1.26-1.38,10.136,10.136,0,0,0,1.2,1.44,11.92,11.92,0,0,0,1.47,1.29Zm-4.425-8.535h1.95a11.43,11.43,0,0,1-.18,1.8,10.212,10.212,0,0,1-.4,1.59,6.935,6.935,0,0,1-.443,1.035,8.822,8.822,0,0,1-.585-1.665q-0.315-1.155-.5-2.1Zm-4.71-1.77,0.42-.285a8.018,8.018,0,0,0-.915-1.14,6.879,6.879,0,0,0-1.08-.945l-0.93.645a7.189,7.189,0,0,1,1.065.87,4.563,4.563,0,0,1,.705.87l-3.135.015v1.11h6.54V20.44Zm2.775,3.8a6.365,6.365,0,0,0-1.98-2.475l-0.96.585a5.213,5.213,0,0,1,1.125,1.027,6.464,6.464,0,0,1,.8,1.3Zm-5.97,1.365A8.972,8.972,0,0,0,103.278,24a9.294,9.294,0,0,0,.87-1.852l-0.99-.375a8.7,8.7,0,0,1-.562,1.215,5.48,5.48,0,0,1-.728,1,7.437,7.437,0,0,1-.855.8ZM101.7,31.6a9.869,9.869,0,0,0,3.57-3.405,11.556,11.556,0,0,1,.8,1.058,7.46,7.46,0,0,1,.652,1.148l1.02-.72a17.4,17.4,0,0,0-1.95-2.58,6.245,6.245,0,0,0,.42-1.058,9.485,9.485,0,0,0,.3-1.177l-1-.33a11.161,11.161,0,0,1-.6,1.785,8.232,8.232,0,0,0-.765-0.555,8.111,8.111,0,0,0-.915-0.525l-0.84.69a10.067,10.067,0,0,1,1.1.683,7.13,7.13,0,0,1,.922.758A8.328,8.328,0,0,1,101,30.64Z"/>
</svg>
