<svg id="Frame_5" data-name="Frame 5" xmlns="http://www.w3.org/2000/svg" width="320" height="50" viewBox="0 0 320 50">
  <defs>
    <style>
      .cls-1 {
        fill: #4b286d;
        fill-rule: evenodd;
      }
    </style>
  </defs>
  <path id="智能家居安防_讓家庭生活更輕鬆_" data-name="智能家居安防 讓家庭生活更輕鬆 " class="cls-1" d="M13.929,12.475v1.74h2.265a5.951,5.951,0,0,1-2.415,2.055A7.916,7.916,0,0,1,15.2,17.905a6.541,6.541,0,0,0,.99-0.72V22.66l2.07-.015V22.21h4.71v0.435h2.04V16.57H19.989a2.94,2.94,0,0,1,.45-0.6,2.7,2.7,0,0,1,.63-0.495,5.346,5.346,0,0,1-.9-0.548,7.26,7.26,0,0,1-.84-0.712h1.605v-1.74H18.759l-0.015-.51h2l0.015-1.845h-3.51a3.781,3.781,0,0,0,.345-0.645l-1.95-.225a8.491,8.491,0,0,1-1.875,2.46,6.252,6.252,0,0,1,1.155.765h-0.99Zm4.335,6.21V18.3h4.725v0.39H18.264Zm0,1.77v-0.39h4.725v0.39H18.264Zm4.8-4.65h1.785l-0.015.54h1.92V10.12H21.129v6.24h1.935V15.805Zm-4.035.765h-2.25a8.714,8.714,0,0,0,.885-1.14,9.046,9.046,0,0,0,1.365,1.14h0Zm-3.285-4.095,0.42-.5h0.51v0.5h-0.93Zm7.32-.51h1.77V13.93h-1.77V11.965Zm10.061,7.9v0.555a0.4,0.4,0,0,1-.045.225,0.175,0.175,0,0,1-.15.06,5.307,5.307,0,0,1-1.2.015,4.035,4.035,0,0,1,.495.885,3.375,3.375,0,0,1,.24.945,5.908,5.908,0,0,0,1.23-.082,1.97,1.97,0,0,0,.69-0.232,1.266,1.266,0,0,0,.39-0.435,1.106,1.106,0,0,0,.15-0.54V14.47H29.21v8.085h1.785V19.87h2.13Zm0-1.5h-2.13V18.025h2.13V18.37Zm0-1.845h-2.13V16.18h2.13v0.345ZM39.74,9.61l-0.27.135-1.98,1.1-0.09.015V9.34H35.525q-0.285,0-.285.18a0.371,0.371,0,0,0,.142.255,0.387,0.387,0,0,1,.143.2v3.27c-0.01.01-.02,0.005-0.03-0.015a0.043,0.043,0,0,0-.03-0.03q-0.825-1.755-1.455-2.82l-1.65.645a7.58,7.58,0,0,1,.585,1.035h-1.41q0.12-.24.57-1.1t0.66-1.305L31.88,9.423q-0.66-.172-1-0.247l-0.06.165-0.87,2.1-0.36.675H28.31l0.615,2,4.23-.36,0.435-.075,0.255,0.6a9.989,9.989,0,0,1,1.35-.652q0.255-.068.345-0.082a4.114,4.114,0,0,0,.09.78,1.675,1.675,0,0,0,.555.8,1.358,1.358,0,0,0,.885.353h2.55l0.7-.045a1.517,1.517,0,0,0,.36-0.12,1.477,1.477,0,0,0,.285-0.187,1.637,1.637,0,0,0,.277-0.315,1.935,1.935,0,0,0,.24-0.488,12.643,12.643,0,0,0,.292-1.3l-0.24-.06a4.3,4.3,0,0,1-1.425-.735,4.962,4.962,0,0,1-.165.87,1.553,1.553,0,0,1-.218.54,0.653,0.653,0,0,1-.292.165l-1.815-.015q-0.225,0-.225-0.465v-0.5l0.615-.315q0.195-.1,1.455-0.713a20.068,20.068,0,0,0,1.83-.967Zm-2.28,6.045H35.585q-0.27,0-.27.135a0.327,0.327,0,0,0,.142.24,0.329,0.329,0,0,1,.142.24v4.035a2.532,2.532,0,0,0,.225,1.2,1.84,1.84,0,0,0,.563.6,1.277,1.277,0,0,0,.727.24H40.04L40.5,22.33a1.467,1.467,0,0,0,.6-0.367,1.783,1.783,0,0,0,.375-0.585,5.584,5.584,0,0,0,.248-0.84q0.112-.5.127-0.562-0.12-.045-0.615-0.2a2.584,2.584,0,0,1-.675-0.277q-0.18-.127-0.24-0.172l-0.18-.165a5.826,5.826,0,0,1-.225.915,0.586,0.586,0,0,1-.435.495H37.76a0.3,0.3,0,0,1-.3-0.285V19.36q1.455-.645,3.975-2.1-0.2-.12-0.78-0.555a8.578,8.578,0,0,0-.915-0.615,17.756,17.756,0,0,1-2.28,1.29V15.655Zm6.348-5.235v3.585h1.77v-1.83h8.85v1.77h1.8V10.42h-4.98q-0.06-.12-0.142-0.278t-0.578-.938l-2.235.27q0.075,0.105.337,0.4a2.343,2.343,0,0,1,.383.548h-5.2ZM54.1,14.17V12.52h-8.2l0.015,1.665,2.1,0.03a16.593,16.593,0,0,1-2.062.555,19.02,19.02,0,0,1-2.452.39,4.116,4.116,0,0,1,.577.825,3.2,3.2,0,0,1,.368.915,13.66,13.66,0,0,0,4.125-1.185,0.052,0.052,0,0,1,.082-0.008,0.133,0.133,0,0,1,.038.1,11.49,11.49,0,0,1-4.935,1.77,3.166,3.166,0,0,1,.54.728q0.225,0.413.48,1a13.223,13.223,0,0,0,4.665-2.04l0.06,0.15a9.191,9.191,0,0,1-1.365.908,21.966,21.966,0,0,1-2.265,1.1,13.055,13.055,0,0,1-2.52.81,4.591,4.591,0,0,1,.675.9,6.584,6.584,0,0,1,.42.93,22.17,22.17,0,0,0,2.4-.84l0.72-.315a3.687,3.687,0,0,1,.352.788,2.463,2.463,0,0,1,.127.848q0.45,0.015,1.02.015a5.322,5.322,0,0,0,1.17-.135,2.435,2.435,0,0,0,1.035-.5,1.381,1.381,0,0,0,.375-0.473,2.544,2.544,0,0,0,.2-0.607,9.587,9.587,0,0,0,.1-1.32,6.707,6.707,0,0,0,1.567,1.267,18.81,18.81,0,0,0,2.138,1.088h0.12a2.8,2.8,0,0,1,1.125-1.755,10.447,10.447,0,0,1-4.335-2.46,17.807,17.807,0,0,0,2.685-2.04L53.453,14.56a11.008,11.008,0,0,1-2.115,1.71,8.451,8.451,0,0,0-.63-1.057q-0.15-.172-0.21-0.232a5.612,5.612,0,0,0,.547-0.36,3.684,3.684,0,0,0,.518-0.45H54.1ZM49.853,20.1a0.816,0.816,0,0,1-.21.375,0.748,0.748,0,0,1-.465.1,2.428,2.428,0,0,0-.39,0l-0.54-.045a9.522,9.522,0,0,0,1.635-1.14A2.409,2.409,0,0,1,49.853,20.1Zm18.378,2.46h2v-4.9H66.821V16.615h4.515v-1.77H66.821v-0.96h3.645v-4.2H59.381v5.58a16.078,16.078,0,0,1-.315,3.3,7.564,7.564,0,0,1-1.1,2.67A2.905,2.905,0,0,1,59.7,22.42a6.951,6.951,0,0,0,.983-2.115,17.688,17.688,0,0,0,.563-3.69H64.8V17.65h-3.24v4.89h2V22.105h4.68v0.45Zm0.255-10.35H61.3V11.41h7.185v0.8ZM64.8,14.83H61.3V13.885H64.8V14.83Zm3.435,5.505h-4.68v-0.93h4.68v0.93Zm5.246-5.94h2.01v-1.68h8.235V14.44h2.01V10.87h-4.98q-0.45-1.095-.735-1.62L77.961,9.6a3.865,3.865,0,0,1,.3.533q0.12,0.263.315,0.742h-5.1V14.4ZM86.241,16.84V15h-7.11q0.225-.51.63-1.7L77.8,12.82,76.941,15H73l-0.015,1.86,3.09-.015-1.5,2.325a5.838,5.838,0,0,1,1.155.232,3.4,3.4,0,0,1,.825.323l0.39-.48a16.083,16.083,0,0,1,1.62.57,8.152,8.152,0,0,1-2.407.645,15.314,15.314,0,0,1-3.127.075,4.862,4.862,0,0,1,.6,1,2.732,2.732,0,0,1,.255,1.02,16.377,16.377,0,0,0,4.1-.435,8.314,8.314,0,0,0,2.933-1.3,16.427,16.427,0,0,1,3.345,1.83,5.477,5.477,0,0,1,.487-0.7,3.332,3.332,0,0,1,.615-0.608,2.055,2.055,0,0,1,.532-0.3,32.111,32.111,0,0,0-3.54-1.845,10.641,10.641,0,0,0,1.35-2.355h2.535Zm-7.92,0h3.135a3.863,3.863,0,0,1-.405.75q-0.24.345-.66,0.855l-2.58-.81Zm17.955-2.01,0.03-1.485H101V11.47l-3.39-.03a4.743,4.743,0,0,1,.885-0.27,3.969,3.969,0,0,0-.757-0.982,11.252,11.252,0,0,0-1.013-.908l-1.7.705a5.589,5.589,0,0,1,1.245,1.485H93.2q0.045-.12.255-0.562a6.627,6.627,0,0,0,.285-0.668l-0.855-.63H88.1v12.9h1.905V18.52a1.64,1.64,0,0,1,.45.683,2.974,2.974,0,0,1,.24.922,4.755,4.755,0,0,0,1.185-.262,2.427,2.427,0,0,0,.9-0.547,2.461,2.461,0,0,0,.51-0.705,2.834,2.834,0,0,0,.27-1.395,3.758,3.758,0,0,0-.42-1.462,6.7,6.7,0,0,0-.99-1.433q0.165-.345.435-1.087t0.36-.968v1.1l1.47-.015V15.46q0,0.39-.007.712t-0.045.652a6.411,6.411,0,0,1-.113.668,4.2,4.2,0,0,1-.225.7,5.8,5.8,0,0,1-.353.7,6.609,6.609,0,0,1-.442.66,5.969,5.969,0,0,1-2.1,1.62,4.664,4.664,0,0,1,1.177.69,3.507,3.507,0,0,1,.653.69,8.025,8.025,0,0,0,1.26-1.117,9.429,9.429,0,0,0,.99-1.267,7.922,7.922,0,0,0,.975-3.57l2.2-.015q0,1.74-.045,2.3t-0.105.923a0.919,0.919,0,0,1-.315.435,4.025,4.025,0,0,1-.968.21,5.233,5.233,0,0,1-1.043.015,4.357,4.357,0,0,1,.578.967A4.075,4.075,0,0,1,96.8,22.51l0.24-.015a5,5,0,0,0,1.965-.427,1.805,1.805,0,0,0,.9-0.923,4.185,4.185,0,0,0,.24-1.095q0.075-.69.075-2.28l0.015-2.94h-3.96Zm-6.015-.33a5.3,5.3,0,0,1,1.44,2.55,1.7,1.7,0,0,1-.1.473,0.627,0.627,0,0,1-.1.143,1.316,1.316,0,0,1-.645.322,5.62,5.62,0,0,1-.855.082l0.015-6.555h1.32ZM18.519,39.13a11.686,11.686,0,0,0,1.515-.51v0.855a0.263,0.263,0,0,1-.112.082q-0.083.038-.443,0.173l0.57,0.9q0.75-.3,3.015-0.93L23.034,38.7q-0.585.12-1.89,0.465V37.945a4.722,4.722,0,0,0,.96-0.93h0.36a5.594,5.594,0,0,0,.54,1.2,4.16,4.16,0,0,0,1.537,1.552,7.188,7.188,0,0,0,2.228.848l0.48-.99a4.844,4.844,0,0,1-1.035-.218,5.825,5.825,0,0,1-1.245-.607,6.391,6.391,0,0,0,1.5-1.17L25.779,37h0.975L26.739,36h-2.19V35.41h1.575V34.405H24.549v-0.48h2.025v-0.99h-2.01v-0.63H26.2V29.77H22.734v2.565l0.78-.015-0.015.615h-2.16a3.143,3.143,0,0,1,0-.615h0.735V29.77h-3.45v2.55h1.665v0.615h-2.01l0.015,0.99H20.3V34.39l-1.53.015V35.4H20.3V36H18.189v1.02l2.55,0.03A6.671,6.671,0,0,1,17.9,38.23V35.38H14.5v4.965h1.08V39.31h1.26v1.02H17.9l0.03-1.935Zm4.995-3.72L23.5,36H21.4V35.41h2.115ZM23.5,33.925v0.48h-2.16v-0.48H23.5Zm2.19,3.06A6.3,6.3,0,0,1,24.2,38.17a3.256,3.256,0,0,1-.33-0.547,5.49,5.49,0,0,1-.285-0.638h2.1Zm-8.88-.585v1.89h-1.23l0.015-1.89h1.215Zm8.355-5.025H23.769v-0.69h1.395v0.69Zm-5.535-.69h1.425v0.72H19.629v-0.72Zm-1.575-1.41-1.635-.03,0.57-.24a8.466,8.466,0,0,0-.593-1.1,5.277,5.277,0,0,0-.7-0.9l-1,.54a4.957,4.957,0,0,1,.78.945,5.558,5.558,0,0,1,.375.78h-2.07l0.015,1.05h4.575v-1l8.49,0.015v-1.05H22.974A8.626,8.626,0,0,0,21.864,27l-1.035.54q0.735,0.615.78,0.668c0.03,0.035.055,0.063,0.075,0.082l-3.615-.015Zm0.09,1.9h-3.78v1.065l3.78-.015V31.18Zm0,2h-3.78V34.24h3.78V33.175Zm22.908-4.26h-5.07a5.576,5.576,0,0,0-.907-1.17,5.168,5.168,0,0,0-1-.8l-0.945.705a11.114,11.114,0,0,1,1.178.945,2.207,2.207,0,0,1,.248.315H29.142v2.79H30.3L30.282,29.98H39.9v1.665h1.155v-2.73Zm0.72,9.645a4.168,4.168,0,0,1-1.3-.81,7.032,7.032,0,0,1-1.148-1.335,5.908,5.908,0,0,1-.765-1.56,10.964,10.964,0,0,0,1.665-1.5l-0.87-.765a6.506,6.506,0,0,1-2.775,2.16,3.964,3.964,0,0,0-.608-0.953,3.541,3.541,0,0,0-.8-0.727,10.756,10.756,0,0,0,1.44-.96h2.76V31.045h-8.46L30.9,32.125l3.78,0.015a15.491,15.491,0,0,1-5.46,1.7L30,34.825a13.086,13.086,0,0,0,4.065-1.185,4.532,4.532,0,0,1,.75.51,9.9,9.9,0,0,1-1.395.825,10.578,10.578,0,0,1-1.988.727,21.551,21.551,0,0,1-2.5.5l0.795,0.975a11.31,11.31,0,0,0,3.037-.735,13.936,13.936,0,0,0,2.663-1.44,6.2,6.2,0,0,1,.405.87,9.916,9.916,0,0,1-3.15,1.822,20.707,20.707,0,0,1-4.05.983l0.825,1.035a24.226,24.226,0,0,0,2.5-.608,15.521,15.521,0,0,0,2.28-.877,8.3,8.3,0,0,0,1.838-1.185,12.528,12.528,0,0,1-.06,2.01,0.656,0.656,0,0,1-.165.285,0.824,0.824,0,0,1-.27.21,5.022,5.022,0,0,1-1.095-.1,12.541,12.541,0,0,1-1.425-.383l0.465,1.335a5.835,5.835,0,0,0,2.625.1,1.3,1.3,0,0,0,.668-0.517,2.906,2.906,0,0,0,.352-1.3,8.625,8.625,0,0,0-.008-1.477,11.162,11.162,0,0,0-.218-1.477l0.72-.3a8.964,8.964,0,0,0,.615,1.343,7.334,7.334,0,0,0,1.148,1.538,4.666,4.666,0,0,0,1.6,1.125Zm2.014,1.845a6.664,6.664,0,0,0,1.417-2.55,11.277,11.277,0,0,0,.4-3.12v-5.19h10.83v-1.1h-5.3l0.255-.255A5.253,5.253,0,0,0,50.3,27.31a4.665,4.665,0,0,0-1.245-.54q-0.3.315-.855,0.81a3.878,3.878,0,0,1,1.815.87H44.4v6.285a10.378,10.378,0,0,1-.33,2.828,5.226,5.226,0,0,1-1.26,2.138Zm13.17-1.62q-2.925.15-5.4,0.06a6.439,6.439,0,0,1-1.125-.157,6.159,6.159,0,0,1-1.77-.832,8.319,8.319,0,0,0,.885-3.975h-1.86a8.995,8.995,0,0,0,.96-1.087,10.873,10.873,0,0,0,.855-1.268V31.09l0.735,0.945q0.57,0.015,1.192-.03a8.971,8.971,0,0,0,1.013-.12V33.55h-2.52v1.08h2.52l-0.015,2.2H49.322V37.93h7.17V36.835H53.567v-2.2h2.55V33.535l-2.55.015V31.69a11.425,11.425,0,0,0,2.565-.99l-0.765-.84A11.5,11.5,0,0,1,49.5,30.925v-0.39H45.947v1.08h2.175a19.036,19.036,0,0,1-2.025,2.25v1.11h2.295A5.546,5.546,0,0,1,48.2,36a6.135,6.135,0,0,1-.375.99,8.459,8.459,0,0,1-.975-1.71l-0.945.57a12.687,12.687,0,0,0,.817,1.485,7.079,7.079,0,0,0,.5.69,9.136,9.136,0,0,1-1.013.953,6.441,6.441,0,0,1-1.1.727l0.8,0.855a9.93,9.93,0,0,0,1.192-.847,9.459,9.459,0,0,0,1.013-.953,5.608,5.608,0,0,0,3.435,1.14l4.935,0.06ZM60.719,28.3a9.186,9.186,0,0,1-.45,2.265,6.759,6.759,0,0,1-.9,1.755,11.373,11.373,0,0,1-1.395,1.56l1.14,0.615a9.355,9.355,0,0,0,2.025-2.925h2.925l-0.015,2.79h-3.87v1.095h3.87l0.015,3.2H58.709v1.11H71.084V38.65H65.219l0.015-3.21,4.185,0.015V34.36H65.234v-2.8l4.89,0.015V30.46H65.219V27.265h-1.17l0.015,3.2h-2.52q0.015-.075.1-0.42t0.15-.69a4.116,4.116,0,0,0,.06-0.705ZM83.634,40.615l1.155,0.015V35.035l-3.075.015V32.53h4.245V31.45l-4.245-.015v-2.1a15.872,15.872,0,0,0,3.555-1.245l-0.795-.855a13.569,13.569,0,0,1-2.918.923,25.3,25.3,0,0,1-4.763.4l0.6,1.11q2.4-.09,3.165-0.21v1.98l-4.215.015v1.08h4.23l-0.015,2.52h-3.09l0.015,5.625h1.14l0.015-1.005h5v0.945Zm0-4.485v2.46h-5V36.13h5Zm-6.615-6.39A5.735,5.735,0,0,0,75.8,28.6a6.058,6.058,0,0,0-1.462-.78l-0.765.765a6.624,6.624,0,0,1,2.655,1.965Zm-1.155,3.495a6.167,6.167,0,0,0-2.5-2.1l-0.885.78a5.268,5.268,0,0,1,2.58,2.13Zm-2.13,7.02a12.43,12.43,0,0,0,2.76-5.175l-0.945-.45a12.159,12.159,0,0,1-2.73,4.965Zm26.889-.84q-1.395-.03-2.932-0.2a25.41,25.41,0,0,1-2.708-.435,7.212,7.212,0,0,1-1.83-.623,4.472,4.472,0,0,0,.63-1.133,5.709,5.709,0,0,0,.345-1.328h4.38v-5.55h-4.17v-1.11l5.8,0.015V27.985H87.348V29.05l5.88-.015v1.11h-4.3L88.908,35.7h4.08a4.772,4.772,0,0,1-.308.99,4.111,4.111,0,0,1-.517.9,17.716,17.716,0,0,1-2.19-1.71l-0.87.585a10.23,10.23,0,0,0,2.175,1.92,13,13,0,0,1-2.257.847,20.311,20.311,0,0,1-2.108.473l0.675,1a10.54,10.54,0,0,0,4.305-1.425l0.465-.315a14.011,14.011,0,0,0,2.865,1,27.259,27.259,0,0,0,4.695.608Zm-3.21-7.05h-3.06l0.015-1.155h3.045v1.155Zm-7.38-1.155,3.195,0.015v1.14H90.033V31.21Zm7.395,2.22v1.185h-3.18l0.075-1.185h3.105Zm-7.395,0H93.2l-0.06,1.185-3.1-.015V33.43Zm11.952-3.63h2.625l0.015,0.84-2.1-.015,0.015,5.415h2.085v0.87h-2.91v1.065h2.955v2.67l1.05,0.03-0.015-2.7h2.565l-0.015-1.065H105.72V36.04h1.965V30.625l-1.965.015V29.83l2.31-.03V28.735h-2.34l0.03-1.59h-1.14l0.015,1.59H102Zm2.64,1.89v1.08h-1.02l0.015-1.08h1Zm2,3.315-0.93-.03,0.03-1.155,0.9,0.015v1.17Zm0-3.315v1.08h-0.93l-0.015-1.08h0.945Zm-3,2.13,1,0.015v1.11l-1,.015V33.82Zm7.275,2.685V38.74H107.85v1.08h7.26V38.725h-3.09l0.015-2.235h2.28l-0.03-1.08-5.775.015v1.08H110.9Zm3.855-8.535h-6.66v1.05l6.66-.015V27.97Zm0.075,6.57a10.151,10.151,0,0,0-1.515-2.5,12.558,12.558,0,0,0,1.395-2.325l-0.975-.585a10.012,10.012,0,0,1-1.77,2.985,5.637,5.637,0,0,1,1.058,1.275,15.864,15.864,0,0,1,.862,1.71Zm-5.115-5.385a8.634,8.634,0,0,1-1.785,3A6.006,6.006,0,0,1,109.8,35.11l0.975-.585q-0.36-.765-0.72-1.395a4.945,4.945,0,0,0-.78-1.05,9.639,9.639,0,0,0,1.38-2.25q-0.57-.435-0.945-0.675h0Zm3.075,5.385a8.328,8.328,0,0,0-1.455-2.52,7.2,7.2,0,0,0,.72-1.08,9.3,9.3,0,0,0,.6-1.29l-0.412-.21a3.167,3.167,0,0,0-.533-0.225,8.9,8.9,0,0,1-1.68,2.805v0.135a6.415,6.415,0,0,1,1.8,2.985Zm11.729-2.4V31.18H119.2v-0.2h4.455V30.04h-4.425l-0.015-.21h4.455V28.885h-4.455v-0.24h4.875V27.61h-5.94l0.015,3.57h-1.185v0.96l1.98,0.03q-0.09.06-.39,0.3a3.919,3.919,0,0,1-.563.383c-0.175.1-.343,0.178-0.5,0.248l0.48,0.825,0.855-.06,4.155-.2a4.821,4.821,0,0,1,.42.48l0.825-.6a4.53,4.53,0,0,0-.81-0.788,6.651,6.651,0,0,0-.9-0.623h1.98Zm0.03-2.4a13.055,13.055,0,0,0,4.74-2.07l-0.735-.735a12.652,12.652,0,0,1-4.785,1.86Zm4.17-1.215a12.251,12.251,0,0,1-4.455,1.995l0.8,0.93a18.947,18.947,0,0,0,2.392-.907,9.656,9.656,0,0,0,1.988-1.252Zm-6.84,3.645-0.555.375c0.129,0.05.247,0.1,0.352,0.142s0.18,0.08.225,0.105a0.134,0.134,0,1,1,.038.022q-1.14.075-2.385,0.045a3.841,3.841,0,0,0,.855-0.72Zm8.49,4.485a5.446,5.446,0,0,1-.878-0.63,5.081,5.081,0,0,1-.885-1.012,6.278,6.278,0,0,1-.667-1.268h-2.685v1.1h2.025a6.091,6.091,0,0,0,2.34,2.73ZM124.2,33.7a7.894,7.894,0,0,1-.413.982,5.27,5.27,0,0,1-.712,1.065,9.521,9.521,0,0,1-1.08,1.072l0.945,0.66a9.145,9.145,0,0,0,1.387-1.56,6.164,6.164,0,0,0,.833-1.755Zm5.43,6.225A6.454,6.454,0,0,0,127.409,37l-0.93.525a4.981,4.981,0,0,1,.637.54,5.051,5.051,0,0,1,.578.66l-3.15.135a5.452,5.452,0,0,0,1.2-1.282,6.84,6.84,0,0,0,.9-1.777l-1.02-.51a7.43,7.43,0,0,1-1.088,2.123,7.921,7.921,0,0,1-1.7,1.718l0.69,0.99,1.68-.165,3.09-.21,0.285,0.705Zm-0.285-9.705a15.258,15.258,0,0,1-5.445,2.34l0.66,0.945q1.274-.36,2.287-0.735a11.781,11.781,0,0,0,1.838-.855,11.009,11.009,0,0,0,1.38-.93Zm-6.525,7.83a7.256,7.256,0,0,0-.84-1.08,5.573,5.573,0,0,0-1-.885l-0.18.135-0.015-.405h2.16l-0.015-1.08h-2.13v-0.78h-1.125l-0.015.78h-2.52l-0.015,1.08h2.37a4.3,4.3,0,0,1-1.11,1.523,9.544,9.544,0,0,1-1.815,1.328q0.135,0.18.735,0.81a8.554,8.554,0,0,0,1.425-1.005,4.165,4.165,0,0,0,.93-1.05v3.165h1.125V37.15a4.3,4.3,0,0,1,.585.683,8.637,8.637,0,0,1,.51.877Z"/>
</svg>
