<svg xmlns="http://www.w3.org/2000/svg" width="300" height="600" viewBox="0 0 300 600">
  <defs>
    <style>
      .cls-1 {
        fill: #248700;
        fill-rule: evenodd;
      }
    </style>
  </defs>
  <path id="了解更多_" data-name="了解更多 " class="cls-1" d="M134.392,257.442h-8.477v0.942h7.019a11.706,11.706,0,0,1-3.109,2.284v5.858a0.491,0.491,0,0,1-.071.258,0.244,0.244,0,0,1-.149.129h-2.051l0.464,1.032,1.9-.026a0.838,0.838,0,0,0,.69-0.335,1.115,1.115,0,0,0,.239-0.671v-5.742a11.376,11.376,0,0,0,3.548-2.877v-0.852Zm14.219,8.038v-0.929h-2.167v-1.367h1.5v-0.929h-1.5v-1.291h-0.981v1.291h-0.748a6.11,6.11,0,0,0,.09-0.916l-0.968-.078a3.86,3.86,0,0,1-.193,1.368,2.551,2.551,0,0,1-.658,1.071l0.709,0.735a2.642,2.642,0,0,0,.471-0.613,2.113,2.113,0,0,0,.29-0.638h1.007v1.367H143.1v0.929h2.361v2.826h0.981V265.48h2.167Zm-5.445-8.167v0.929h1.419a3,3,0,0,1-.277.993,2.228,2.228,0,0,1-.548.684,4.76,4.76,0,0,1-.942.594v-0.594h-1.355a13.964,13.964,0,0,0,.671-2.051H139.85a6.333,6.333,0,0,0,.168-0.8l-0.865-.349a8.813,8.813,0,0,1-.754,2.2,6.777,6.777,0,0,1-1.336,1.787l0.787,0.646,0.31-.375v4.013a6.027,6.027,0,0,1-.181.961,4.661,4.661,0,0,1-.277.742,6.188,6.188,0,0,1-.665.981l0.736,0.671a3.679,3.679,0,0,0,.877-1.265,6.463,6.463,0,0,0,.478-1.78h0.864v1.626h0.981V265.3h0.864v1.638c0,0.155-.026.237-0.077,0.246a0.947,0.947,0,0,1-.142.013h-0.774l0.322,0.929h0.62a1.037,1.037,0,0,0,.477-0.129,0.986,0.986,0,0,0,.4-0.413,1.159,1.159,0,0,0,.155-0.555l0.038-6.271,0.388,0.568a3.688,3.688,0,0,0,1.129-.723,3.616,3.616,0,0,0,.748-1.032,4.393,4.393,0,0,0,.393-1.329h1.446a7.378,7.378,0,0,1-.271,1.316,0.976,0.976,0,0,1-.123.3,0.213,0.213,0,0,1-.142.052,1.207,1.207,0,0,1-.213-0.007,3.987,3.987,0,0,1-.406-0.129q-0.291-.1-0.523-0.167l0.31,1.071a5.826,5.826,0,0,0,.8.135,3.237,3.237,0,0,0,.348-0.006,0.738,0.738,0,0,0,.458-0.187,0.985,0.985,0,0,0,.278-0.368,6.855,6.855,0,0,0,.361-1.394q0.168-.942.219-1.548h-4.89Zm-2.232,1.484a5.285,5.285,0,0,1-.516,1.122h-1.445a5.243,5.243,0,0,0,.529-1.122h1.432Zm0.9,3.316h-0.864v-1.265h0.864v1.265Zm-1.845,0H139.14v-1.265h0.852v1.265Zm1.845,2.258h-0.864v-1.329h0.864v1.329Zm-1.845,0H139.14v-1.329h0.852v1.329Zm21.922,2.864q-1.2-.025-2.522-0.174a22.056,22.056,0,0,1-2.329-.374,6.216,6.216,0,0,1-1.575-.536,3.835,3.835,0,0,0,.542-0.974,4.843,4.843,0,0,0,.3-1.142H160.1v-4.787h-3.574v-0.916h4.98V257.39H150.5v0.942h5.045v0.916h-3.7v4.787h3.51a4.094,4.094,0,0,1-.265.852,3.547,3.547,0,0,1-.445.774,15.111,15.111,0,0,1-1.884-1.471l-0.748.5a8.764,8.764,0,0,0,1.871,1.652,11.235,11.235,0,0,1-1.942.729,17.285,17.285,0,0,1-1.813.406l0.58,0.865a9.069,9.069,0,0,0,3.7-1.226l0.4-.271a12.026,12.026,0,0,0,2.464.858,23.427,23.427,0,0,0,4.039.523Zm-2.748-6.077h-2.645V260.19h2.645v0.968Zm0,1.935H156.43l0.065-.993h2.671v0.993Zm-3.626-1.935h-2.722V260.19h2.722v0.968Zm-0.013.942-0.051.993h-2.658V262.1h2.709Zm18.632-.09h-3.484a6.225,6.225,0,0,0,.684-0.929l-0.761-.413a9.29,9.29,0,0,0,.948-0.845,9.084,9.084,0,0,0,.871-0.988v-0.864h-3.639a9.47,9.47,0,0,0,.942-1.032l-0.9-.478a9.933,9.933,0,0,1-4.98,3.123l0.851,0.8a13.76,13.76,0,0,0,2.826-1.432h3.548a12.264,12.264,0,0,1-1.2,1.006,11.382,11.382,0,0,1-1.367.826,5.086,5.086,0,0,0-.691-0.716,4.136,4.136,0,0,0-.755-0.562l-0.9.581a4.485,4.485,0,0,1,1.445,1.084,14.623,14.623,0,0,1-1.8.593q-1.206.336-2.225,0.568l0.619,0.865a26.065,26.065,0,0,0,3.793-1.155,15.776,15.776,0,0,0,2.413-1.194,9.056,9.056,0,0,1-2.3,2.084,16.378,16.378,0,0,1-3.245,1.555l0.748,0.826a23.857,23.857,0,0,0,2.613-1.278,10.338,10.338,0,0,0,1.465-1.045h3.3a5.352,5.352,0,0,1-.6.832,5.583,5.583,0,0,1-.942.858,10.524,10.524,0,0,1-1.258.788,4.027,4.027,0,0,0-1.329-1.407l-0.929.529a4.635,4.635,0,0,1,1.419,1.29,25.59,25.59,0,0,1-5.78,1.523l0.645,0.89a34.784,34.784,0,0,0,3.755-.851,15.977,15.977,0,0,0,2.277-.9,9.78,9.78,0,0,0,1.858-1.174,7.6,7.6,0,0,0,1.3-1.31,8.852,8.852,0,0,0,.768-1.187V262.01Z"/>
</svg>
