<svg xmlns="http://www.w3.org/2000/svg" width="300" height="600" viewBox="0 0 300 600">
  <defs>
    <style>
      .cls-1 {
        fill: #4b286d;
        fill-rule: evenodd;
      }
    </style>
  </defs>
  <path id="携手让我们_的社区更强大_" data-name="携手让我们 的社区更强大 " class="cls-1" d="M103.162,132.9v-2.19h-6.87v-1.2h5.13v-2.19h-5.13v-1.17h5.13v-2.19h-5.1l-0.03-1.17h5.94V120.6h-5.97a7.54,7.54,0,0,0-.87-1.59,13.2,13.2,0,0,0-1.35-1.65,22.3,22.3,0,0,0-2.28,1.02,15.759,15.759,0,0,1,2.25,2.22h-4.38a17.039,17.039,0,0,0,.63-2.49,15.756,15.756,0,0,0-2.01-.84,19.553,19.553,0,0,1-1.35,4.17,17.748,17.748,0,0,1-1.74,3.12l0.03-1.14h-2.55v-5.61h-2.28v5.61h-3.63v2.19h3.63v6.3q-0.69.33-2.385,1.02t-2.055.84l1.68,1.71,2.76-1.14v7.38a0.586,0.586,0,0,1-.51.54h-2.61q0.12,0.328.39,1.11t0.45,1.17a16.9,16.9,0,0,0,2.55-.06,3.128,3.128,0,0,0,1.395-.915,2.1,2.1,0,0,0,.615-1.425v-8.91l2.85-1.29q0-.3.03-1.065a8.971,8.971,0,0,0-.03-1.305l-2.85,1.2v-5.16h1.53l-1.05.96,1.83,1.53a12.521,12.521,0,0,0,1.74-1.71v6.51h16.47Zm-5.1,4.89a11.4,11.4,0,0,0,.96-1.68v-1.92h-13.5v2.19h4.02a7.855,7.855,0,0,1-.57,2.22,5.932,5.932,0,0,1-1.11,1.695,5.735,5.735,0,0,1-1.785,1.245,16.767,16.767,0,0,1-3.255.99l1.5,2.07a13.486,13.486,0,0,0,4.02-1.74,7.1,7.1,0,0,0,1.605-1.455,7.359,7.359,0,0,0,1.275-2.3,9.338,9.338,0,0,0,.54-2.73h4.59a8.661,8.661,0,0,1-1.44,1.74v1.86h5.04q-0.03.15-.075,0.69a3.033,3.033,0,0,1-.165.84,1.411,1.411,0,0,1-.3.48,0.924,0.924,0,0,1-.5.24,3.114,3.114,0,0,1-.975-0.045,7.366,7.366,0,0,0-.84-0.105q-0.45-.09-2.82-0.69l0.72,2.46q0.06,0,1.755.3a7.24,7.24,0,0,0,2.655.09,3.328,3.328,0,0,0,1.53-.72,2.95,2.95,0,0,0,.375-0.39,3.439,3.439,0,0,0,.51-0.99,9.178,9.178,0,0,0,.345-2.4q0.09-1.71.12-1.95h-4.23Zm-4.05-13.83h-5.04v-1.17h5.04v1.17Zm0,3.36h-5.04v-1.17h5.04v1.17Zm0,3.39h-5.04v-1.2h5.04v1.2Zm38.13,4.14v-2.19H121.1V128.1h8.58v-2.19H121.1v-4.44a41.654,41.654,0,0,0,9.72-2.37l-1.26-1.71a45.347,45.347,0,0,1-9.99,2.07,87.065,87.065,0,0,1-11.43.54l1.35,2.22q6.9-.18,9.33-0.48v4.17h-9.03v2.19h9.03v4.56H107.3v2.19h11.52v6.3a0.962,0.962,0,0,1-1.05,1.05q-0.78.03-3.78-.24l0.84,2.46h4.14q2.13,0,2.13-2.4v-7.17h11.04Zm30.48,8.19V141h-9.21v-11.25h7.68v-2.19h-7.68v-9.72h-2.16V141h-7.23v2.04h18.6ZM145.4,122.7a11.783,11.783,0,0,0-4.47-4.32l-1.77,1.23a9.041,9.041,0,0,1,2.385,1.89,10.138,10.138,0,0,1,1.845,2.64Zm3.18,15.24-0.06-2.37q-0.9.42-2.85,1.35t-2.76,1.29v-12.93h-6.18v2.19h4.02v11.58a0.334,0.334,0,0,1-.18.27,2.545,2.545,0,0,1-.5.24q-0.315.12-.405,0.15l1.5,2.16Zm40.62-17.085a14.589,14.589,0,0,0-2.94-2.175l-1.92,1.74a11.637,11.637,0,0,1,3.1,2.1,8.735,8.735,0,0,1,2.055,2.88,14.233,14.233,0,0,0,1.92-1.65A9.8,9.8,0,0,0,189.2,120.851Zm1.2,16.215a17.05,17.05,0,0,1-.75,4.17q-0.12.33-.615-0.195a23.956,23.956,0,0,1-1.665-2.175,13.686,13.686,0,0,1-1.2-1.98,26.427,26.427,0,0,0,4.5-6.33l-2.04-.87a22.8,22.8,0,0,1-3.36,4.92,33,33,0,0,1-1.2-5.73h7.77V126.6h-7.98q-0.12-1.47-.195-4.335t-0.075-4.845h-2.31a90,90,0,0,0,.18,9.18h-5.58v-4.89q0.39-.15,1.065-0.5t3.465-1.965l-1.5-1.71a36.532,36.532,0,0,1-3.945,1.905,19.71,19.71,0,0,1-3.5,1,24.353,24.353,0,0,1-4.29.39,18.739,18.739,0,0,1,1.41,2.25,21,21,0,0,0,2.58-.27,12.846,12.846,0,0,0,2.34-.54v4.32h-6.15v2.28h6.15v5.01q-3.66.93-6.93,1.56l1.68,2.19,5.25-1.41v4.89a0.762,0.762,0,0,1-.195.54,0.754,0.754,0,0,1-.5.24l-3.69-.09,0.84,2.34q0.42-.031,1.62,0a15.069,15.069,0,0,0,1.875-.045,4.882,4.882,0,0,0,1.155-.255,2.355,2.355,0,0,0,1.26-2.07v-6.21l4.65-1.23v-2.31l-4.65,1.17v-4.32h5.79a36.927,36.927,0,0,0,1.68,7.53,28.6,28.6,0,0,1-6.78,4.35l2.01,1.68a31.874,31.874,0,0,0,5.82-3.78,16.311,16.311,0,0,0,3.24,4.08,5.084,5.084,0,0,0,1.98,1.215,3.227,3.227,0,0,0,1.11.015,2.126,2.126,0,0,0,.99-1.05,18.449,18.449,0,0,0,1.02-4.95Zm20.22-14.37a10.74,10.74,0,0,0-3.63-4.62l-1.86,1.14a12.346,12.346,0,0,1,3.48,4.71Zm11.04-3.57h-10.8v2.19h8.52v19.65a0.872,0.872,0,0,1-.09.48,0.4,0.4,0,0,1-.27.15l-3.42-.24,0.81,2.37a14.966,14.966,0,0,0,3.57-.09,1.993,1.993,0,0,0,1.68-1.89v-22.62Zm-13.89,24.96v-19.92h-2.28v19.92h2.28Zm-5.49-26.82a35.288,35.288,0,0,1-2.445,8.88,24.751,24.751,0,0,1-4.125,6.39l1.74,1.56a18.54,18.54,0,0,0,1.59-1.935,14.028,14.028,0,0,0,1.29-2.085v14.01h2.28v-18.66a60.458,60.458,0,0,0,1.77-7.5Zm-120.15,54.69a22.407,22.407,0,0,0-1.77-3.75,26.324,26.324,0,0,0-2.61-3.57l-1.86,1.23a25.38,25.38,0,0,1,4.08,7.05Zm-4.02-13.65q0.12-.42.495-1.56t0.54-1.8q0.165-.66.255-1.17l-2.4-.54a28.082,28.082,0,0,1-4.5,11.55v-6.03h-4.59a19.812,19.812,0,0,0,1.62-4.41l-2.16-.87a18.689,18.689,0,0,1-1.83,5.28h-2.76v20.79h2.37v-2.43h4.98v1.95H72.5v-13.38l1.56,0.99a24.644,24.644,0,0,0,3.48-6.3h6.39q-0.12,5.28-.36,8.235a50.837,50.837,0,0,1-.63,5.055,18.969,18.969,0,0,1-.99,3.54,1.149,1.149,0,0,1-1.14.54,22.282,22.282,0,0,1-4.53-1.26l0.39,2.52a29.692,29.692,0,0,0,3.945.93,5.259,5.259,0,0,0,1.395,0,2.365,2.365,0,0,0,1.41-.885,5.227,5.227,0,0,0,.9-1.6,29.655,29.655,0,0,0,.975-3.87q0.375-2.04.525-3.87t0.225-3.45q0.075-1.62.105-4.38t0.06-3.57h-8.1Zm-7.98,8.43h-4.98v-5.79h4.98v5.79Zm0,8.19h-4.98v-6h4.98v6Zm48.09,3.45V176.1H110.3v-10.71h6.81l0.06-2.19H110.3v-9.6h-2.37v9.6h-6.48v2.19h6.48V176.1h-7.8v2.28h18.09Zm-20.52-22.9a23.2,23.2,0,0,0-1.74-2.085l-1.95,1.08a14.2,14.2,0,0,1,3.03,4.89,10.848,10.848,0,0,0,1.155-.57q0.7-.39.975-0.51A11.98,11.98,0,0,0,97.7,155.471Zm6.24,15.225a25.947,25.947,0,0,0-2.58-2.625,9.363,9.363,0,0,0-1.89-1.275l-0.87.87-0.03-1.05a27.627,27.627,0,0,0,3.24-5.16v-1.98h-9.93l-0.06,2.19H99.2a26.01,26.01,0,0,1-3.405,4.47,38.519,38.519,0,0,1-4.695,4.05l1.71,1.89a23.244,23.244,0,0,0,3.42-2.97v11.34H98.6v-11.67a10.249,10.249,0,0,1,1.755,1.53q1,1.05,1.815,2.04Zm40.5,3.99q-0.6-1.11-1.56-2.565a35.733,35.733,0,0,0-2.175-2.94q-1.215-1.485-2.265-2.595l1.5-2.07q1.26-1.95,2.88-5.13l-1.92-1.05a72.035,72.035,0,0,1-4.08,6.51,65.924,65.924,0,0,0-7.26-6.42l-1.71,1.41q2.1,1.59,4.17,3.465t3.54,3.5a28.981,28.981,0,0,1-8.22,7.47l1.77,1.92a41.423,41.423,0,0,0,5.04-4.2,28.893,28.893,0,0,0,2.94-3.42q1.29,1.44,2.64,3.24a33.94,33.94,0,0,1,2.25,3.36l0.48,0.84Zm3.12,4.44v-2.16h-21.72v-19.5h20.73v-2.16h-23.01l0.03,23.82h23.97Zm31.05-1.17q-2.79-.06-5.865-0.405a50.931,50.931,0,0,1-5.415-.87,14.432,14.432,0,0,1-3.66-1.245,8.935,8.935,0,0,0,1.26-2.265,11.418,11.418,0,0,0,.69-2.655h8.76v-11.13h-8.31v-2.13h11.58v-2.19h-25.59v2.19h11.73v2.13h-8.61v11.13h8.16a9.54,9.54,0,0,1-.615,1.98,8.232,8.232,0,0,1-1.035,1.8,35.487,35.487,0,0,1-4.38-3.42l-1.74,1.17a20.471,20.471,0,0,0,4.35,3.84,26.031,26.031,0,0,1-4.515,1.695,40.714,40.714,0,0,1-4.215.945l1.35,2.01a21.088,21.088,0,0,0,8.61-2.85l0.93-.63a28.038,28.038,0,0,0,5.73,1.995,54.521,54.521,0,0,0,9.39,1.215Zm-6.39-14.13h-6.15v-2.25h6.15v2.25Zm0,4.5h-6.36l0.15-2.31h6.21v2.31Zm-8.43-4.5h-6.33v-2.25h6.33v2.25Zm-0.03,2.19-0.12,2.31h-6.18v-2.31h6.3Zm44.19,13.32a11.177,11.177,0,0,0-2.13-2.955,17.488,17.488,0,0,0-2.79-2.445l-1.98,1.02,1.86,1.5-2.67.45v-4.32h3.63v1.5h2.28v-9.87h-5.91v-1.23h4.8V155.7h-11.49v7.29h4.41v1.23H192.2v10.26h2.28v-1.89h3.48v4.53q-4.35.48-6.78,0.6l1.23,2.25,12.21-1.59,1.44,2.19Zm-23.28-11.82,0.69-4.02h5.94v-8.1h-9.57v2.16h7.29v3.78h-5.43l-1.44,8.34h6.81q-0.06.45-.225,2.07t-0.33,2.55q-0.165.93-.225,1.26-0.03.09-.15,0.78a6.286,6.286,0,0,1-.285,1.125,2.234,2.234,0,0,1-.39.69,0.6,0.6,0,0,1-.585.195l-3.42-.51,0.6,2.34c0.12,0.019.45,0.075,0.99,0.165s1.035,0.159,1.485.21a5.663,5.663,0,0,0,1.215.015,2.25,2.25,0,0,0,1.32-.765,3.968,3.968,0,0,0,.93-1.365q0.81-2.37,1.47-10.92h-6.69Zm18.09-6.69h-7.05v-2.97h7.05v2.97Zm1.11,9.6h-3.63v-4.05h3.63v4.05Zm-5.91,0h-3.48v-4.05h3.48v4.05Zm39.78,7.44a23.33,23.33,0,0,1-5.01-3.81,17.324,17.324,0,0,1-3.21-4.605,26.045,26.045,0,0,1-1.95-6.345h8.82v-2.28h-10.77a71.687,71.687,0,0,0,.15-7.2q-0.3-.06-1.11-0.15a11.508,11.508,0,0,1-1.32-.21,63.261,63.261,0,0,1-.21,7.56h-9.36v2.28h9.15a22.476,22.476,0,0,1-1.2,4.26,19.442,19.442,0,0,1-2.1,3.945,17.811,17.811,0,0,1-3.135,3.45,18.845,18.845,0,0,1-4.185,2.685l1.71,2.07a26.328,26.328,0,0,0,4.35-2.97,18.725,18.725,0,0,0,3.21-3.525,20.113,20.113,0,0,0,2.28-4.38,33.644,33.644,0,0,0,1.53-5.535,28.537,28.537,0,0,0,1.6,6.405,19.17,19.17,0,0,0,2.43,4.41,18.189,18.189,0,0,0,3.135,3.24,33.546,33.546,0,0,0,3.57,2.5Z"/>
</svg>
