<svg xmlns="http://www.w3.org/2000/svg" width="300" height="600" viewBox="0 0 300 600">
  <defs>
    <style>
      .cls-1 {
        fill: #4b286d;
        fill-rule: evenodd;
      }
    </style>
  </defs>
  <path id="去年_我们投入了_140万小时_志愿服务时间_" data-name="去年，我们投入了 140万小时 志愿服务时间 " class="cls-1" d="M55.172,126.053a15.37,15.37,0,0,0-3.63-3.24l-2.37,1.26a14.282,14.282,0,0,1,2.2,1.365,9.233,9.233,0,0,1,1.605,1.575l-13.2,1.11a28.955,28.955,0,0,0,6.15-7.62h11.76v-2.19H47.222v-5.43h8.22v-2.16l-8.22-.06,0.06-5.13h-2.43v5.13l-8.25-.06v2.28h8.25v5.43H34.382v2.19h8.79a29.907,29.907,0,0,1-3.465,4.56,22.615,22.615,0,0,1-4.365,3.75l1.44,2.16q4.17-.75,10.11-1.23t6.645-.54l1.035-.09a23.334,23.334,0,0,1,1.68,3.06,6.962,6.962,0,0,0,1.14-.63q0.69-.45.96-0.6a25.281,25.281,0,0,0-3.18-4.89h0Zm33.09-2.16V121.7H77.912v-4.89h7.65v-2.19h-7.65v-3.9h9.12v-2.19h-16.8q0.39-1.29.465-1.68t0.105-.66l-1.92-.93q-1.71,6.54-5.55,9.96l1.89,1.53a16.553,16.553,0,0,0,1.995-2.3,25.387,25.387,0,0,0,2.145-3.735h6.18v3.9h-7.95v7.08h-3.75v2.19h11.7v8.64h2.37v-8.64h10.35Zm-12.72-2.19h-5.67v-4.89h5.67v4.89Zm31.68-5.22h-3.3v3.3h1.62a2.971,2.971,0,0,1-1.8,2.97l0.87,1.11a4.3,4.3,0,0,0,1.545-1.17,4.43,4.43,0,0,0,.825-1.515,5.334,5.334,0,0,0,.24-1.545v-3.15Zm37.98-7.515a14.589,14.589,0,0,0-2.94-2.175l-1.92,1.74a11.637,11.637,0,0,1,3.1,2.1,8.735,8.735,0,0,1,2.055,2.88,14.233,14.233,0,0,0,1.92-1.65A9.8,9.8,0,0,0,145.2,108.968Zm1.2,16.215a17.05,17.05,0,0,1-.75,4.17q-0.12.33-.615-0.2a23.956,23.956,0,0,1-1.665-2.175,13.686,13.686,0,0,1-1.2-1.98,26.427,26.427,0,0,0,4.5-6.33l-2.04-.87a22.8,22.8,0,0,1-3.36,4.92,33,33,0,0,1-1.2-5.73h7.77v-2.28h-7.98q-0.12-1.47-.195-4.335t-0.075-4.845h-2.31a90,90,0,0,0,.18,9.18h-5.58v-4.89q0.39-.15,1.065-0.495t3.465-1.965l-1.5-1.71a36.532,36.532,0,0,1-3.945,1.905,19.71,19.71,0,0,1-3.5,1,24.353,24.353,0,0,1-4.29.39,18.739,18.739,0,0,1,1.41,2.25,21,21,0,0,0,2.58-.27,12.846,12.846,0,0,0,2.34-.54v4.32h-6.15v2.28h6.15V122q-3.66.93-6.93,1.56l1.68,2.19,5.25-1.41v4.89a0.762,0.762,0,0,1-.195.54,0.754,0.754,0,0,1-.5.24l-3.69-.09,0.84,2.34q0.42-.03,1.62,0a15.069,15.069,0,0,0,1.875-.045,4.833,4.833,0,0,0,1.155-.255,2.355,2.355,0,0,0,1.26-2.07v-6.21l4.65-1.23v-2.31l-4.65,1.17v-4.32h5.79a36.927,36.927,0,0,0,1.68,7.53,28.6,28.6,0,0,1-6.78,4.35l2.01,1.68a31.874,31.874,0,0,0,5.82-3.78,16.311,16.311,0,0,0,3.24,4.08,5.084,5.084,0,0,0,1.98,1.215,3.2,3.2,0,0,0,1.11.015,2.122,2.122,0,0,0,.99-1.05,18.449,18.449,0,0,0,1.02-4.95Zm20.22-14.37a10.74,10.74,0,0,0-3.63-4.62l-1.86,1.14a12.346,12.346,0,0,1,3.48,4.71Zm11.04-3.57h-10.8v2.19h8.52v19.65a0.872,0.872,0,0,1-.09.48,0.4,0.4,0,0,1-.27.15l-3.42-.24,0.81,2.37a14.86,14.86,0,0,0,3.57-.09,1.993,1.993,0,0,0,1.68-1.89v-22.62Zm-13.89,24.96v-19.92h-2.28V132.2h2.28Zm-5.49-26.82a35.288,35.288,0,0,1-2.445,8.88,24.751,24.751,0,0,1-4.125,6.39l1.74,1.56a18.54,18.54,0,0,0,1.59-1.935,14.028,14.028,0,0,0,1.29-2.085V132.2h2.28v-18.66a60.458,60.458,0,0,0,1.77-7.5Zm50.7,10.98v-2.07h-3a0.705,0.705,0,0,1-.84-0.75v-6.45h-10.26q-0.03,3.24-.165,4.245a13.009,13.009,0,0,1-.255,1.455q-0.54,2.1-3.54,3.51l1.8,1.8a9.43,9.43,0,0,0,3.51-3.54,6.864,6.864,0,0,0,.735-2.31q0.165-1.23.255-2.97h5.64v4.29a4.056,4.056,0,0,0,.15,1.02,2.238,2.238,0,0,0,.72,1.08,3.127,3.127,0,0,0,1.56.69h3.69Zm0.66,14.01a18.213,18.213,0,0,1-7.65-3.87,13.173,13.173,0,0,0,4.11-8.58H193.5v2.19h1.56a19.817,19.817,0,0,0,3.57,6.24,22.386,22.386,0,0,1-7.89,3.99l1.53,2.01a24.916,24.916,0,0,0,4.35-1.875,22,22,0,0,0,3.63-2.475,32.861,32.861,0,0,0,3.885,2.655,16.048,16.048,0,0,0,4.035,1.815Zm-16.59-16.77v-2.19H189.6v-5.55h-2.28v5.55h-3.9v2.19h3.9v6.78a47.666,47.666,0,0,1-4.89,1.38l1.41,1.98q0.18-.06.7-0.21t1.53-.5q1.005-.345,1.245-0.435v6.96a0.57,0.57,0,0,1-.225.48,0.589,0.589,0,0,1-.465.21,20.452,20.452,0,0,1-3.15-.12l0.75,2.25q0.27,0,1.365.03a12.241,12.241,0,0,0,1.695-.045,4.285,4.285,0,0,0,.99-0.225,2.225,2.225,0,0,0,.9-0.675,1.551,1.551,0,0,0,.42-1v-8.58a15.1,15.1,0,0,1,1.56-.54,13.933,13.933,0,0,0,1.8-.66v-2.19l-3.36,1.11v-6h3.45Zm10.35,6.51a9.946,9.946,0,0,1-1.185,2.475,14.875,14.875,0,0,1-1.845,2.205,7.174,7.174,0,0,1-1.575-2.025,14.109,14.109,0,0,1-1.305-2.655h5.91Zm35.46,9.51a25.491,25.491,0,0,1-3.855-2.97,26.637,26.637,0,0,1-3.615-4.08,27.355,27.355,0,0,1-2.55-4.215,24.653,24.653,0,0,1-1.41-3.615A19.767,19.767,0,0,0,226.307,112a11.69,11.69,0,0,0-2.04-2.925,5.869,5.869,0,0,0-2.745-1.74l-2.01,1.89a4.718,4.718,0,0,1,1.53.525,6.6,6.6,0,0,1,1.725,1.38,9.745,9.745,0,0,1,1.515,2.145,7.234,7.234,0,0,1,.78,2.1,24.084,24.084,0,0,1-4.62,8.415,26.68,26.68,0,0,1-7.83,5.955l1.65,1.89a25.515,25.515,0,0,0,12.12-12.81,22.7,22.7,0,0,0,2.625,4.98,28.061,28.061,0,0,0,3.93,4.635A26,26,0,0,0,237,131.663Zm26.76-22.32h-19.71v2.19h16.32A27.166,27.166,0,0,1,255,114.8v13.62a1.128,1.128,0,0,1-.165.6,0.558,0.558,0,0,1-.345.3h-4.77l1.08,2.4,4.41-.06a1.951,1.951,0,0,0,1.605-.78,2.589,2.589,0,0,0,.555-1.56v-13.35a26.46,26.46,0,0,0,8.25-6.69V107.3ZM91.486,145.135h-2.04c-0.54,2.58-2.1,3.24-4.859,3.42l-0.48.03v1.98h4.859v15.928h2.52V145.135ZM110,158.874h-2.88V145.135h-2.729l-10.5,13.589v2.429H104.6v5.34h2.519v-5.34H110v-2.279Zm-5.4-10.439v10.439H96.527Zm14.94,18.538c5.189,0,7.739-4.08,7.739-11.159s-2.55-11.159-7.739-11.159-7.739,4.08-7.739,11.159S114.346,166.973,119.536,166.973Zm0-2.28c-3.3,0-5.1-2.94-5.1-8.879s1.8-8.879,5.1-8.879,5.1,2.94,5.1,8.879S122.835,164.693,119.536,164.693Zm37.711-18.06v-2.28h-25.92v2.28h8.22q-0.12,5.13-.255,6.555a25.872,25.872,0,0,1-.375,2.625,13.776,13.776,0,0,1-.66,2.28,18.789,18.789,0,0,1-2.085,3.765,16.12,16.12,0,0,1-2.775,3.075,17.307,17.307,0,0,1-2.73,1.92l1.98,1.95a17.255,17.255,0,0,0,5.67-5.5,21.437,21.437,0,0,0,3.03-7.365q0.24-1.29.39-2.64h8.52a71.308,71.308,0,0,1-.72,8.85,10.182,10.182,0,0,1-1.02,3.21,0.969,0.969,0,0,1-.6.36,3.107,3.107,0,0,1-1.125.045,5.91,5.91,0,0,1-1.215-.255c-0.1-.04-0.35-0.125-0.75-0.255a9.046,9.046,0,0,1-.99-0.375l0.33,2.67a13.671,13.671,0,0,0,2.805.78,6.063,6.063,0,0,0,1.215,0,3.536,3.536,0,0,0,1.53-.66,3.48,3.48,0,0,0,1.08-1.17,15.629,15.629,0,0,0,1.185-4.455q0.465-3.045.975-11.025h-11.1q0.119-2.46.12-4.38h15.27Zm29.34,11.85a19.612,19.612,0,0,0-2.565-5.46,25.943,25.943,0,0,0-4.275-4.95l-2.13,1.14a23.633,23.633,0,0,1,6.81,10.32Zm-11.52-16.53H172.7v22.5a0.88,0.88,0,0,1-.255.585,0.743,0.743,0,0,1-.555.285q-2.34.06-4.41-.09l0.99,2.46q0.388-.03,2.34.015a6,6,0,0,0,3.15-.645,2,2,0,0,0,.855-1,4.412,4.412,0,0,0,.255-1.6v-22.5ZM167,148.1a24.168,24.168,0,0,1-2.415,5.31,23.848,23.848,0,0,1-3.675,4.68l1.86,1.56a25.038,25.038,0,0,0,6.24-10.53Zm49.59,2.07v-2.19h-3.15v-6.36h-2.28v6.36h-9.33v2.19h9.33v15.42a0.47,0.47,0,0,1-.135.375,0.372,0.372,0,0,1-.345.165l-2.7-.21,0.87,2.43h2.73a1.678,1.678,0,0,0,1.305-.645,2.292,2.292,0,0,0,.555-1.545v-15.99h3.15Zm-7.62,8.94a13.962,13.962,0,0,0-2.025-3.57,16.538,16.538,0,0,0-2.835-3.09l-1.8,1.26a14.7,14.7,0,0,1,2.13,2.25,19.633,19.633,0,0,1,1.755,2.58,13.146,13.146,0,0,1,.885,1.86Zm-8.64,6.93v-19.77h-8.46v19.77h2.28v-2.22h3.9v2.22h2.28Zm-2.28-12.09h-3.9v-5.49h3.9v5.49Zm0,7.68h-3.9v-5.49h3.9v5.49Zm-110.055,22.8v-2.19H76.682v-4.53H74.4v4.53H63.152v2.19H74.4v4.59h-9.03v2.19h20.28v-2.19h-8.97v-4.59h11.31Zm-0.885,12.285a26.288,26.288,0,0,0-2.985-2.985l-1.59,1.41a21.258,21.258,0,0,1,4.95,6.18q0.54-.33,1.89-1.32A21.944,21.944,0,0,0,87.107,196.718Zm-8.025-.135a25.659,25.659,0,0,0-4.86-5.04l-1.74,1.35a17.342,17.342,0,0,1,4.65,5.25Zm1.98,0.36q-0.12.33-.435,1.485a6.24,6.24,0,0,1-.69,1.725,1.752,1.752,0,0,1-.975.75h-6.12a0.884,0.884,0,0,1-.75-0.54v-6.21h-2.28v6.99a2.247,2.247,0,0,0,.36.945,2.008,2.008,0,0,0,.915.735,3.138,3.138,0,0,0,1.275.27h6.21a3.192,3.192,0,0,0,2.43-.78,5.462,5.462,0,0,0,.885-1.275,12,12,0,0,0,.735-1.92q0.36-1.185.51-1.6Zm-14.4-3.15a19.907,19.907,0,0,1-4.53,6.75l1.86,1.35a19.852,19.852,0,0,0,4.62-7.11,20.031,20.031,0,0,0-1.95-.99h0Zm51.6,0.84a15.736,15.736,0,0,0-6.78-4.02l-1.5,1.56a15.521,15.521,0,0,1,6.72,4.08Zm1.2,6.75a13.785,13.785,0,0,0-1.965-3.225,12,12,0,0,0-2.055-1.905l-2.07,1.05a9.614,9.614,0,0,1,1.485,1.29,9.4,9.4,0,0,1,1.155,1.5q0.48,0.78.915,1.65t0.465,0.9Zm-0.72-20.94v-2.19H94.862v11.76a40.037,40.037,0,0,1-.27,4.845,20.612,20.612,0,0,1-.915,4.11,11.459,11.459,0,0,1-1.785,3.375l1.74,1.56a15.23,15.23,0,0,0,2.055-3.81,22.639,22.639,0,0,0,1.125-4.395,31.033,31.033,0,0,0,.36-4.755v-10.5h8.46a4.768,4.768,0,0,0-.345.735,2.084,2.084,0,0,1-.345.645h-5.22v8.55h7.05v2.88a0.5,0.5,0,0,1-.165.39,0.529,0.529,0,0,1-.435.12l-2.64-.12,0.75,2.16h2.52l-1.11.72a10.643,10.643,0,0,1,3.21,3.36l1.86-1.38a7.541,7.541,0,0,0-1.245-1.53,10.5,10.5,0,0,0-1.665-1.35,1.783,1.783,0,0,0,1.23-1.89v-3.36h6.96v-8.55h-8.4l0.66-1.38h10.44Zm-6.6,18.06a6.982,6.982,0,0,1-.6,2.475,1,1,0,0,1-.81.555h-5.01a0.677,0.677,0,0,1-.435-0.195,0.569,0.569,0,0,1-.225-0.435v-4.29h-2.28v4.71a2.309,2.309,0,0,0,.69,1.725,2.425,2.425,0,0,0,1.77.675h6.09a2.739,2.739,0,0,0,1.62-.84,3.562,3.562,0,0,0,.75-1.29,14.028,14.028,0,0,0,.69-2.19Zm-9.81-7.98a10.207,10.207,0,0,1-1.9,1.935,17.283,17.283,0,0,1-3.345,1.935l1.62,1.74a25.477,25.477,0,0,0,3.735-2.52,12.415,12.415,0,0,0,1.755-1.92Zm-2.76,5.88a9.084,9.084,0,0,1-1.365,2.79,13.831,13.831,0,0,1-2.145,2.28l1.77,1.62a11.309,11.309,0,0,0,2.25-2.46,11.79,11.79,0,0,0,1.44-3.12Zm14.19-11.25H102v-1.26h11.76v1.26Zm0,3.27H102v-1.29h11.76v1.29Zm35.49,14.22a32.808,32.808,0,0,1-3.48-2.52,12.924,12.924,0,0,1-1.2-1.23,28.723,28.723,0,0,0,1.89-4.59,23.609,23.609,0,0,0,1.05-5.34h-9.78v-7.77h7.17q-0.06.69-.24,1.905a10.386,10.386,0,0,1-.36,1.725,0.519,0.519,0,0,1-.48.45,16.545,16.545,0,0,1-2.025-.24q-1.245-.21-1.635-0.27l0.66,2.4a14.287,14.287,0,0,0,3.39.21,2.874,2.874,0,0,0,1.47-.585,2.2,2.2,0,0,0,.9-1.275,36.693,36.693,0,0,0,.9-6.51h-12.03v25.59l2.28-.06v-13.38h1.11a19.177,19.177,0,0,0,3.03,7.98,20.158,20.158,0,0,1-3.99,3.96c0.08,0.079.305,0.325,0.675,0.735s0.665,0.715.885,0.915q1.17-.962,2.31-2.07a18.566,18.566,0,0,0,1.65-1.77,22.868,22.868,0,0,0,1.95,1.74,22.412,22.412,0,0,0,2.55,1.71ZM133.532,179h-8.58v13.83a32.8,32.8,0,0,1-.255,4.365,13.53,13.53,0,0,1-.87,3.36,12.335,12.335,0,0,1-1.485,2.655l1.86,1.41a13.16,13.16,0,0,0,2.58-5.865q0.27-1.635.42-3.8h4.05v5.67a0.882,0.882,0,0,1-.54.87,10.916,10.916,0,0,1-1.74.06q-1.11-.03-1.53-0.03,0.78,2.009.87,2.31h2.67a2.633,2.633,0,0,0,1.35-.39,2.58,2.58,0,0,0,.93-0.84,1.556,1.556,0,0,0,.27-0.75V179Zm11.55,12.15a31.642,31.642,0,0,1-1,3.33q-0.525,1.41-1,2.4a15.368,15.368,0,0,1-1.35-3.135,16.974,16.974,0,0,1-.63-2.595h3.99Zm-13.83-5.34h-4.02v-4.62h4.02v4.62Zm0.03,2.19-0.06,4.77h-3.99V188h4.05Zm48.21,2.7a56.254,56.254,0,0,1-9.24-2.52q-0.27-.15-1.11-0.51a7.275,7.275,0,0,1-1.05-.51,33.89,33.89,0,0,0,3.315-2.685,24.053,24.053,0,0,0,2.115-2.265V180.2h-11.25l0.72-1.47-1.98-1.11a13.08,13.08,0,0,1-3.3,5.145,15.133,15.133,0,0,1-4.95,2.925l1.71,2.07a12.988,12.988,0,0,0,3-1.725,15.181,15.181,0,0,0,2.49-2.355,8.054,8.054,0,0,0,1.245,1.32q0.735,0.63,1.62,1.275t1.185,0.855l-2.37,1.2a55.218,55.218,0,0,1-9.84,2.55l0.93,2.16a46.365,46.365,0,0,0,7.32-1.755,24.959,24.959,0,0,0,6.03-2.775,27.934,27.934,0,0,0,5.385,2.43,62.088,62.088,0,0,0,6.555,1.77Zm-13.41,2.52a6.607,6.607,0,0,0,.045-1.11q-0.015-.75-0.015-1.2l-2.22-.3q-0.03.66-.045,1.455t-0.045,1.155h-8.94v2.19h8.58a6.369,6.369,0,0,1-1.14,2.4,9.866,9.866,0,0,1-3.345,2.73,21.222,21.222,0,0,1-6.285,1.77,4.253,4.253,0,0,0,.225.5q0.135,0.254.975,1.755a25.927,25.927,0,0,0,3.7-1,14.757,14.757,0,0,0,3.285-1.515,13.91,13.91,0,0,0,2.49-2.13,9.628,9.628,0,0,0,1.695-2.415,9.4,9.4,0,0,0,.735-2.085h6.48q-0.06,1.11-.66,4.65a5.781,5.781,0,0,1-.45,1.7,1.544,1.544,0,0,1-.45.465,3.923,3.923,0,0,1-1.185,0q-0.585-.09-2.775-0.72l0.57,2.61q0.24,0.029,1.29.225a7.746,7.746,0,0,0,1.68.165,5.271,5.271,0,0,0,1.08-.15,2.753,2.753,0,0,0,1.185-.735,2.978,2.978,0,0,0,.765-1.245,32.293,32.293,0,0,0,1.29-9.15h-8.52Zm4.32-10.83a19.62,19.62,0,0,1-1.98,1.755q-1.2.945-2.4,1.725-2.25-1.44-3.075-2.1a9.872,9.872,0,0,1-1.425-1.38h8.88Zm38.16,3.78v-2.19h-3.15v-6.36h-2.28v6.36H193.8v2.19h9.33v15.42a0.463,0.463,0,0,1-.135.375,0.372,0.372,0,0,1-.345.165l-2.7-.21,0.87,2.43h2.73a1.675,1.675,0,0,0,1.305-.645,2.292,2.292,0,0,0,.555-1.545v-15.99h3.15Zm-7.62,8.94a13.962,13.962,0,0,0-2.025-3.57,16.538,16.538,0,0,0-2.835-3.09l-1.8,1.26a14.655,14.655,0,0,1,2.13,2.25,19.438,19.438,0,0,1,1.755,2.58,13.034,13.034,0,0,1,.885,1.86Zm-8.64,6.93v-19.77h-8.46v19.77h2.28v-2.22h3.9v2.22h2.28Zm-2.28-12.09h-3.9v-5.49h3.9v5.49Zm0,7.68h-3.9v-5.49h3.9v5.49Zm46.5-18.21h-12.45v2.19h10.17V201.2a1.417,1.417,0,0,1-.075.615,0.722,0.722,0,0,1-.435.165,15.43,15.43,0,0,1-2.52-.18l0.66,2.1a20.621,20.621,0,0,0,2.76,0,1.963,1.963,0,0,0,1.365-.735,2.329,2.329,0,0,0,.525-1.515v-22.23Zm-14.22,2.85a17.288,17.288,0,0,0-2.22-2.5,14.406,14.406,0,0,0-2.37-1.875l-1.83,1.23a17.9,17.9,0,0,1,4.65,4.59Zm8.64,17.97V185.3H219.6v14.94h2.28v-1.56h6.78v1.56h2.28Zm-14.91,4.05v-21.48h-2.28v21.48h2.28Zm12.63-13.8h-6.78v-3h6.78v3Zm0,6h-6.78v-3.81h6.78v3.81Z"/>
</svg>
