<svg xmlns="http://www.w3.org/2000/svg" width="300" height="600" viewBox="0 0 300 600">
  <defs>
    <style>
      .cls-1 {
        fill: #4b286d;
        fill-rule: evenodd;
      }
    </style>
  </defs>
  <path id="Chalo_laayein_connectivity_ko_within_reach._" data-name="Chalo laayein connectivity ko within reach. " class="cls-1" d="M67.371,130.978c4.807,0,9.515-2.93,10.107-9.054H74.713a7.143,7.143,0,0,1-7.342,6.519c-4.741,0-7.934-3.589-7.934-9.712s3.194-9.713,7.934-9.713a6.882,6.882,0,0,1,7.177,5.531h2.8c-1.185-5.662-5.366-8.066-9.976-8.066-6.255,0-10.832,4.642-10.832,12.248S61.116,130.978,67.371,130.978Zm20.864-17.91a6.257,6.257,0,0,0-5.2,2.733V107.01H80.4v23.441h2.634v-9.613c0-3.754,2.469-5.4,4.675-5.4,2.436,0,3.885,1.153,3.885,3.786v11.227h2.634v-11.49C94.227,115.208,92.021,113.068,88.235,113.068Zm23.741,15.243a0.778,0.778,0,0,1-.921-0.823v-9.482c0-2.864-1.68-4.938-6.387-4.938-4.972,0-6.717,2.337-6.914,5.63h2.634c0.164-2.535,1.382-3.358,4.28-3.358s3.819,0.888,3.819,2.666c0,1.515-.955,2.14-2.667,2.338l-2.436.263c-4.675.494-6.289,2.6-6.289,5.268,0,3.193,2.3,4.971,5.992,4.971a6.227,6.227,0,0,0,5.531-2.732c0.132,1.613.988,2.436,2.865,2.436a9.995,9.995,0,0,0,1.448-.1v-2.14h-0.955Zm-8.757.3c-2.338,0-3.391-1.119-3.391-2.8,0-1.646.856-2.7,3.951-3.062l2.469-.3a4.39,4.39,0,0,0,2.239-.724v2.008C108.487,127.093,105.754,128.607,103.219,128.607Zm15.656,1.943a16.7,16.7,0,0,0,1.679-.1v-2.206H119.3c-1.251,0-1.613-.559-1.613-1.448V107.01h-2.634v20.017C115.056,129.628,116.5,130.55,118.875,130.55Zm10.656,0.3c4.774,0,8.231-3.457,8.231-8.889s-3.457-8.889-8.231-8.889-8.23,3.457-8.23,8.889S124.757,130.846,129.531,130.846Zm0-2.37c-3.292,0-5.465-2.4-5.465-6.519s2.173-6.519,5.465-6.519,5.465,2.4,5.465,6.519S132.823,128.476,129.531,128.476Zm21.759,2.074a16.7,16.7,0,0,0,1.679-.1v-2.206h-1.251c-1.251,0-1.614-.559-1.614-1.448V107.01h-2.633v20.017C147.471,129.628,148.919,130.55,151.29,130.55Zm18.011-2.239a0.779,0.779,0,0,1-.922-0.823v-9.482c0-2.864-1.679-4.938-6.387-4.938-4.971,0-6.716,2.337-6.914,5.63h2.634c0.165-2.535,1.383-3.358,4.28-3.358s3.819,0.888,3.819,2.666c0,1.515-.955,2.14-2.667,2.338l-2.436.263c-4.675.494-6.288,2.6-6.288,5.268,0,3.193,2.3,4.971,5.992,4.971a6.229,6.229,0,0,0,5.531-2.732c0.131,1.613.987,2.436,2.864,2.436a9.985,9.985,0,0,0,1.448-.1v-2.14H169.3Zm-8.758.3c-2.337,0-3.391-1.119-3.391-2.8,0-1.646.856-2.7,3.951-3.062l2.469-.3a4.386,4.386,0,0,0,2.239-.724v2.008C165.811,127.093,163.078,128.607,160.543,128.607Zm26.1-.3a0.779,0.779,0,0,1-.922-0.823v-9.482c0-2.864-1.679-4.938-6.387-4.938-4.971,0-6.716,2.337-6.914,5.63h2.634c0.165-2.535,1.383-3.358,4.28-3.358s3.819,0.888,3.819,2.666c0,1.515-.955,2.14-2.667,2.338l-2.436.263c-4.675.494-6.288,2.6-6.288,5.268,0,3.193,2.3,4.971,5.992,4.971a6.228,6.228,0,0,0,5.531-2.732c0.132,1.613.988,2.436,2.864,2.436a10,10,0,0,0,1.449-.1v-2.14h-0.955Zm-8.757.3c-2.338,0-3.391-1.119-3.391-2.8,0-1.646.856-2.7,3.95-3.062l2.469-.3a4.386,4.386,0,0,0,2.239-.724v2.008C183.149,127.093,180.417,128.607,177.882,128.607Zm22.046-15.144-2.4,7.045c-0.856,2.47-1.679,4.939-2.437,7.375-0.79-2.436-1.58-4.872-2.436-7.342l-2.4-7.078h-2.9l6.387,17.548c-0.2.527-.4,1.086-0.592,1.58a2.976,2.976,0,0,1-3.095,2.107H188.5V136.9a13.088,13.088,0,0,0,1.58.1c2.7,0,4.445-.889,5.531-3.885l7.177-19.655h-2.864ZM219,121.957c0-4.873-2.733-8.889-7.8-8.889-4.708,0-7.836,3.556-7.836,8.889,0,5.5,3.26,8.889,7.9,8.889a7.087,7.087,0,0,0,7.309-5.564h-2.733a4.363,4.363,0,0,1-4.51,3.161c-2.963,0-4.972-1.745-5.235-5.564H219v-0.922Zm-7.8-6.486c3.029,0,4.708,2.239,4.971,5.037H206.155C206.583,117.15,208.525,115.471,211.192,115.471Zm12.028-4.411a1.778,1.778,0,1,0-1.778-1.778A1.792,1.792,0,0,0,223.22,111.06ZM221.9,130.451h2.634V113.463H221.9v16.988Zm14.248-17.383a6.258,6.258,0,0,0-5.333,2.93v-2.535h-2.5v16.988h2.633v-9.613c0-3.754,2.47-5.4,4.675-5.4,2.437,0,3.885,1.153,3.885,3.786v11.227h2.634v-11.49C242.143,115.208,239.937,113.068,236.151,113.068ZM52.823,170.349a7.007,7.007,0,0,0,7.309-6.222h-2.7a4.462,4.462,0,0,1-4.609,3.852c-2.831,0-5.1-2.075-5.1-6.519s2.206-6.519,5.1-6.519a4.423,4.423,0,0,1,4.576,3.786h2.733c-0.527-3.753-3.259-6.156-7.309-6.156-4.708,0-7.868,3.424-7.868,8.889S48.181,170.349,52.823,170.349Zm17.4,0c4.774,0,8.231-3.457,8.231-8.889s-3.457-8.889-8.231-8.889S62,156.028,62,161.46,65.453,170.349,70.227,170.349Zm0-2.37c-3.292,0-5.465-2.4-5.465-6.519s2.173-6.519,5.465-6.519,5.465,2.4,5.465,6.519S73.519,167.979,70.227,167.979ZM89.3,152.571a6.259,6.259,0,0,0-5.334,2.93v-2.535h-2.5v16.988h2.634v-9.613c0-3.754,2.469-5.4,4.675-5.4,2.436,0,3.885,1.152,3.885,3.786v11.227h2.634v-11.49C95.289,154.711,93.083,152.571,89.3,152.571Zm17.638,0a6.258,6.258,0,0,0-5.334,2.93v-2.535H99.1v16.988h2.634v-9.613c0-3.754,2.469-5.4,4.675-5.4,2.436,0,3.885,1.152,3.885,3.786v11.227h2.633v-11.49C112.926,154.711,110.721,152.571,106.935,152.571Zm24.577,8.889c0-4.873-2.732-8.889-7.8-8.889-4.708,0-7.836,3.555-7.836,8.889,0,5.5,3.259,8.889,7.9,8.889a7.086,7.086,0,0,0,7.308-5.564h-2.732a4.364,4.364,0,0,1-4.511,3.161c-2.963,0-4.971-1.745-5.234-5.564h12.905V161.46Zm-7.8-6.486c3.029,0,4.708,2.239,4.971,5.037H118.673C119.1,156.653,121.043,154.974,123.71,154.974Zm17.812,15.375a7.007,7.007,0,0,0,7.309-6.222h-2.7a4.462,4.462,0,0,1-4.609,3.852c-2.831,0-5.1-2.075-5.1-6.519s2.206-6.519,5.1-6.519a4.422,4.422,0,0,1,4.576,3.786h2.733c-0.527-3.753-3.259-6.156-7.309-6.156-4.708,0-7.868,3.424-7.868,8.889S136.88,170.349,141.522,170.349Zm17.4-15.079v-2.3h-3.489v-4.807H152.8v4.807H150v2.3h2.8v11.26c0,2.6,1.613,3.523,4.247,3.523q0.79,0,1.876-.1v-2.206h-1.547c-1.514,0-1.942-.56-1.942-1.448V155.27h3.489Zm3.66-4.708a1.778,1.778,0,1,0-1.778-1.777A1.791,1.791,0,0,0,162.586,150.562Zm-1.317,19.392H163.9V152.966h-2.634v16.988Zm17.9-16.988-2.8,7.539c-0.79,2.14-1.679,4.478-2.4,6.618-0.724-2.14-1.613-4.445-2.4-6.585l-2.8-7.572H165.9l6.651,16.988h2.765L182,152.966h-2.832Zm6.2-2.4a1.778,1.778,0,1,0-1.778-1.777A1.791,1.791,0,0,0,185.366,150.562Zm-1.317,19.392h2.633V152.966h-2.633v16.988Zm13.708-14.684v-2.3h-3.49v-4.807h-2.634v4.807h-2.8v2.3h2.8v11.26c0,2.6,1.613,3.523,4.247,3.523q0.791,0,1.877-.1v-2.206H196.21c-1.515,0-1.943-.56-1.943-1.448V155.27h3.49Zm14.079-2.3-2.4,7.045c-0.856,2.47-1.679,4.939-2.436,7.375-0.79-2.436-1.581-4.873-2.437-7.342l-2.4-7.078h-2.9l6.387,17.548c-0.2.526-.395,1.086-0.593,1.58a2.974,2.974,0,0,1-3.094,2.107h-1.548v2.206a13.113,13.113,0,0,0,1.58.1c2.7,0,4.445-.889,5.532-3.885l7.177-19.655h-2.865Zm22.977,16.988h3.062l-6.914-10.865,6.453-6.123h-3.49l-7.868,7.6V146.513h-2.634v23.441h2.634v-6.288l3.029-2.832Zm11.508,0.395c4.774,0,8.231-3.457,8.231-8.889s-3.457-8.889-8.231-8.889-8.231,3.457-8.231,8.889S241.547,170.349,246.321,170.349Zm0-2.37c-3.292,0-5.465-2.4-5.465-6.519s2.173-6.519,5.465-6.519,5.465,2.4,5.465,6.519S249.613,167.979,246.321,167.979ZM83.78,192.469l-2.4,7.671c-0.625,2.041-1.251,4.082-1.811,6.123-0.593-2.041-1.218-4.082-1.844-6.123l-2.37-7.671H72.586l-2.37,7.671c-0.659,2.074-1.251,4.115-1.811,6.189-0.593-2.074-1.185-4.115-1.844-6.189l-2.4-7.671H61.326l5.663,16.988h2.766l2.469-7.869c0.593-1.876,1.185-3.852,1.745-5.761,0.527,1.909,1.119,3.885,1.712,5.761l2.5,7.869h2.766l5.663-16.988H83.78Zm6.229-2.4a1.778,1.778,0,1,0-1.778-1.778A1.792,1.792,0,0,0,90.009,190.065Zm-1.317,19.392h2.634V192.469H88.692v16.988ZM102.4,194.773v-2.3H98.91v-4.807H96.277v4.807h-2.8v2.3h2.8v11.26c0,2.6,1.613,3.523,4.248,3.523q0.789,0,1.876-.1v-2.206h-1.547c-1.515,0-1.943-.56-1.943-1.449V194.773h3.49Zm10.274-2.7a6.258,6.258,0,0,0-5.2,2.732v-8.79h-2.634v23.441h2.634v-9.614c0-3.753,2.469-5.4,4.675-5.4,2.436,0,3.885,1.152,3.885,3.786v11.227h2.634v-11.49C118.666,194.214,116.46,192.074,112.674,192.074Zm11.079-2.009a1.778,1.778,0,1,0-1.777-1.778A1.792,1.792,0,0,0,123.753,190.065Zm-1.316,19.392h2.633V192.469h-2.633v16.988Zm14.248-17.383a6.259,6.259,0,0,0-5.334,2.93v-2.535h-2.5v16.988h2.634v-9.614c0-3.753,2.469-5.4,4.675-5.4,2.436,0,3.885,1.152,3.885,3.786v11.227h2.634v-11.49C142.677,194.214,140.471,192.074,136.685,192.074Zm24.491,0.131a5.931,5.931,0,0,0-5.465,3.26v-3h-2.5v16.988h2.633v-9.679c0-3.293,2.173-5,5.564-5h0.659v-2.535C161.7,192.205,161.439,192.205,161.176,192.205Zm17.714,8.758c0-4.873-2.733-8.889-7.8-8.889-4.708,0-7.835,3.555-7.835,8.889,0,5.5,3.259,8.889,7.9,8.889a7.087,7.087,0,0,0,7.309-5.564h-2.733a4.364,4.364,0,0,1-4.51,3.161c-2.963,0-4.971-1.745-5.235-5.564H178.89v-0.922Zm-7.8-6.486c3.029,0,4.708,2.239,4.972,5.037H166.05C166.478,196.156,168.421,194.477,171.087,194.477Zm24.582,12.84a0.779,0.779,0,0,1-.922-0.823v-9.482c0-2.864-1.679-4.938-6.387-4.938-4.972,0-6.716,2.337-6.914,5.629h2.634c0.164-2.535,1.383-3.358,4.28-3.358s3.819,0.889,3.819,2.667c0,1.514-.955,2.14-2.667,2.338l-2.436.263c-4.675.494-6.288,2.6-6.288,5.268,0,3.193,2.3,4.971,5.991,4.971a6.225,6.225,0,0,0,5.531-2.733c0.132,1.614.988,2.437,2.865,2.437a9.985,9.985,0,0,0,1.448-.1v-2.14h-0.954Zm-8.758.3c-2.337,0-3.391-1.119-3.391-2.8,0-1.646.856-2.7,3.951-3.062l2.469-.3a4.386,4.386,0,0,0,2.239-.725v2.009C192.179,206.1,189.446,207.613,186.911,207.613Zm18.79,2.239a7.007,7.007,0,0,0,7.309-6.223h-2.7a4.463,4.463,0,0,1-4.61,3.852c-2.831,0-5.1-2.074-5.1-6.518s2.206-6.519,5.1-6.519a4.424,4.424,0,0,1,4.577,3.786h2.732c-0.526-3.753-3.259-6.156-7.309-6.156-4.708,0-7.868,3.424-7.868,8.889S201.059,209.852,205.7,209.852Zm17.938-17.778a6.259,6.259,0,0,0-5.2,2.732v-8.79H215.8v23.441h2.634v-9.614c0-3.753,2.469-5.4,4.675-5.4,2.437,0,3.885,1.152,3.885,3.786v11.227h2.634v-11.49C229.631,194.214,227.425,192.074,223.639,192.074Zm11.346,17.613a1.891,1.891,0,0,0,1.877-1.942,1.928,1.928,0,0,0-3.852,0A1.894,1.894,0,0,0,234.985,209.687Z"/>
</svg>
