<svg xmlns="http://www.w3.org/2000/svg" width="300" height="600" viewBox="0 0 300 600">
  <defs>
    <style>
      .cls-1, .cls-2 {
        fill: #4b286d;
      }

      .cls-1 {
        fill-rule: evenodd;
      }

      .cls-2 {
        font-size: 46px;
        text-anchor: middle;
        font-family: "Helvetica Now Display";
      }
    </style>
  </defs>
  <path id="We_re_helping_people_in_need_access_subsidized_plans." data-name="We’re helping people in  need access subsidized plans." class="cls-1" d="M82.093,85.51L78.9,97.066c-0.757,2.667-1.547,5.6-2.206,8.395-0.724-2.8-1.482-5.7-2.239-8.461L71.261,85.51H68.166L64.973,97c-0.757,2.765-1.515,5.663-2.239,8.461-0.658-2.8-1.449-5.728-2.206-8.395L57.335,85.51H54.47l6.65,23.441h3.095L67.574,97c0.724-2.535,1.481-5.3,2.14-7.934,0.659,2.634,1.416,5.4,2.14,7.934l3.358,11.951h3.095l6.65-23.441H82.093Zm18.512,14.947c0-4.872-2.733-8.889-7.8-8.889-4.708,0-7.836,3.556-7.836,8.889,0,5.5,3.259,8.889,7.9,8.889a7.087,7.087,0,0,0,7.309-5.564H97.444a4.364,4.364,0,0,1-4.51,3.161c-2.963,0-4.971-1.745-5.235-5.564h12.906v-0.922Zm-7.8-6.486c3.029,0,4.708,2.239,4.971,5.037H87.765C88.193,95.65,90.135,93.971,92.8,93.971ZM104.01,85.51a1.731,1.731,0,0,0-1.81,1.745,1.7,1.7,0,0,0,1.81,1.679h0.2c-0.132,1.646-.757,2.239-1.778,2.535l-0.23.033v1.745l0.329-.066c2.107-.428,3.621-1.844,3.621-4.938C106.15,86.465,105.36,85.51,104.01,85.51Zm11.98,6.19a5.933,5.933,0,0,0-5.465,3.259v-3h-2.5v16.988h2.634V99.272c0-3.292,2.173-5,5.564-5h0.658V91.733C116.517,91.7,116.254,91.7,115.99,91.7Zm17.55,8.757c0-4.872-2.733-8.889-7.8-8.889-4.708,0-7.836,3.556-7.836,8.889,0,5.5,3.26,8.889,7.9,8.889a7.087,7.087,0,0,0,7.309-5.564h-2.733a4.363,4.363,0,0,1-4.51,3.161c-2.963,0-4.972-1.745-5.235-5.564H133.54v-0.922Zm-7.8-6.486c3.029,0,4.708,2.239,4.971,5.037H120.7C121.128,95.65,123.07,93.971,125.737,93.971Zm25.018-2.4a6.259,6.259,0,0,0-5.2,2.733V85.51h-2.634v23.441h2.634V99.338c0-3.753,2.47-5.4,4.675-5.4,2.437,0,3.885,1.152,3.885,3.786v11.226h2.634V97.461C156.747,93.708,154.541,91.568,150.755,91.568Zm24.413,8.889c0-4.872-2.732-8.889-7.8-8.889-4.708,0-7.836,3.556-7.836,8.889,0,5.5,3.259,8.889,7.9,8.889a7.086,7.086,0,0,0,7.308-5.564h-2.732a4.364,4.364,0,0,1-4.511,3.161c-2.963,0-4.971-1.745-5.234-5.564h12.905v-0.922Zm-7.8-6.486c3.029,0,4.708,2.239,4.971,5.037H162.329C162.757,95.65,164.7,93.971,167.366,93.971Zm14.388,15.079a16.686,16.686,0,0,0,1.679-.1v-2.206h-1.251c-1.251,0-1.613-.559-1.613-1.448V85.51h-2.634v20.017C177.935,108.128,179.384,109.05,181.754,109.05Zm11.937-17.482a6.677,6.677,0,0,0-5.827,3.029V91.963h-2.5V115.4H188v-8.889a6.67,6.67,0,0,0,5.695,2.831c4.774,0,7.9-3.457,7.9-8.889S198.465,91.568,193.691,91.568Zm-0.329,15.408c-3.292,0-5.465-2.4-5.465-6.519s2.173-6.519,5.465-6.519,5.465,2.272,5.465,6.387S196.654,106.976,193.362,106.976ZM205.725,89.56a1.778,1.778,0,1,0-1.777-1.778A1.792,1.792,0,0,0,205.725,89.56Zm-1.316,19.391h2.633V91.963h-2.633v16.988Zm14.083-17.383a6.258,6.258,0,0,0-5.333,2.93V91.963h-2.5v16.988h2.634V99.338c0-3.753,2.47-5.4,4.675-5.4,2.437,0,3.885,1.152,3.885,3.786v11.226h2.634V97.461C224.484,93.708,222.278,91.568,218.492,91.568Zm22.56,0.4v2.469a6.855,6.855,0,0,0-5.827-2.864c-4.774,0-7.9,3.457-7.9,8.889s3.128,8.889,7.9,8.889a6.863,6.863,0,0,0,5.695-2.7v1.646c0,3.522-1.876,5.267-5.267,5.267-2.667,0-4.28-1.086-4.61-3.226H228.41c0.362,3.292,2.9,5.465,7.243,5.465,5.366,0,7.9-3.1,7.9-7.506V91.963h-2.5Zm-5.5,15.013c-3.293,0-5.465-2.535-5.465-6.519s2.172-6.519,5.465-6.519,5.465,2.4,5.465,6.519S238.846,106.976,235.554,106.976ZM95.32,131.071a6.676,6.676,0,0,0-5.827,3.029v-2.634h-2.5v23.441h2.634v-8.889a6.675,6.675,0,0,0,5.7,2.831c4.774,0,7.9-3.457,7.9-8.889S100.094,131.071,95.32,131.071Zm-0.329,15.408c-3.292,0-5.465-2.4-5.465-6.519s2.173-6.519,5.465-6.519,5.465,2.272,5.465,6.387S98.283,146.479,94.991,146.479Zm25.925-6.519c0-4.873-2.733-8.889-7.8-8.889-4.708,0-7.836,3.555-7.836,8.889,0,5.5,3.26,8.889,7.9,8.889a7.087,7.087,0,0,0,7.309-5.564h-2.733a4.364,4.364,0,0,1-4.51,3.161c-2.963,0-4.972-1.745-5.235-5.564h12.906V139.96Zm-7.8-6.486c3.029,0,4.708,2.239,4.971,5.037H108.076C108.5,135.153,110.446,133.474,113.113,133.474Zm18.01,15.375c4.774,0,8.231-3.457,8.231-8.889s-3.457-8.889-8.231-8.889-8.231,3.457-8.231,8.889S126.349,148.849,131.123,148.849Zm0-2.37c-3.292,0-5.465-2.4-5.465-6.519s2.173-6.519,5.465-6.519,5.465,2.4,5.465,6.519S134.415,146.479,131.123,146.479Zm19.4-15.408A6.676,6.676,0,0,0,144.7,134.1v-2.634h-2.5v23.441h2.634v-8.889a6.676,6.676,0,0,0,5.7,2.831c4.774,0,7.9-3.457,7.9-8.889S155.3,131.071,150.522,131.071Zm-0.329,15.408c-3.293,0-5.466-2.4-5.466-6.519s2.173-6.519,5.466-6.519,5.465,2.272,5.465,6.387S153.485,146.479,150.193,146.479Zm14.872,2.074a16.7,16.7,0,0,0,1.679-.1v-2.206h-1.251c-1.251,0-1.613-.56-1.613-1.448V125.013h-2.634V145.03C161.246,147.631,162.694,148.553,165.065,148.553Zm18-8.593c0-4.873-2.733-8.889-7.8-8.889-4.708,0-7.836,3.555-7.836,8.889,0,5.5,3.26,8.889,7.9,8.889a7.087,7.087,0,0,0,7.309-5.564H179.9a4.363,4.363,0,0,1-4.51,3.161c-2.963,0-4.972-1.745-5.235-5.564H183.06V139.96Zm-7.8-6.486c3.029,0,4.708,2.239,4.971,5.037H170.22C170.648,135.153,172.59,133.474,175.257,133.474Zm18.5-4.412a1.778,1.778,0,1,0-1.777-1.777A1.791,1.791,0,0,0,193.756,129.062Zm-1.317,19.392h2.634V131.466h-2.634v16.988Zm14.084-17.383A6.258,6.258,0,0,0,201.19,134v-2.535h-2.5v16.988h2.634v-9.613c0-3.754,2.469-5.4,4.675-5.4,2.437,0,3.885,1.152,3.885,3.786v11.227h2.634v-11.49C212.515,133.211,210.309,131.071,206.523,131.071ZM70.9,170.574a6.259,6.259,0,0,0-5.334,2.93v-2.535h-2.5v16.988H65.7v-9.614c0-3.753,2.469-5.4,4.675-5.4,2.436,0,3.885,1.152,3.885,3.786v11.227h2.634v-11.49C76.891,172.714,74.686,170.574,70.9,170.574Zm24.413,8.889c0-4.873-2.733-8.889-7.8-8.889-4.708,0-7.836,3.555-7.836,8.889,0,5.5,3.259,8.889,7.9,8.889a7.087,7.087,0,0,0,7.309-5.564H92.152a4.365,4.365,0,0,1-4.51,3.161c-2.963,0-4.971-1.745-5.235-5.564H95.313v-0.922Zm-7.8-6.486c3.029,0,4.708,2.239,4.971,5.037H82.473C82.9,174.656,84.843,172.977,87.51,172.977Zm25.418,6.486c0-4.873-2.733-8.889-7.8-8.889-4.708,0-7.836,3.555-7.836,8.889,0,5.5,3.26,8.889,7.9,8.889a7.088,7.088,0,0,0,7.309-5.564h-2.733a4.364,4.364,0,0,1-4.51,3.161c-2.963,0-4.972-1.745-5.235-5.564h12.906v-0.922Zm-7.8-6.486c3.029,0,4.708,2.239,4.971,5.037H100.088C100.516,174.656,102.458,172.977,105.125,172.977Zm23.376-8.461v8.889a6.671,6.671,0,0,0-5.7-2.831c-4.774,0-7.9,3.456-7.9,8.889s3.128,8.889,7.9,8.889a6.678,6.678,0,0,0,5.827-3.029v2.634h2.5V164.516H128.5Zm-5.366,21.465c-3.292,0-5.465-2.271-5.465-6.387s2.173-6.65,5.465-6.65,5.465,2.4,5.465,6.519S126.427,185.981,123.135,185.981Zm32.1-.164a0.779,0.779,0,0,1-.922-0.823v-9.482c0-2.864-1.679-4.938-6.387-4.938-4.971,0-6.716,2.337-6.913,5.629h2.633c0.165-2.535,1.383-3.358,4.28-3.358s3.819,0.889,3.819,2.667c0,1.514-.954,2.14-2.666,2.338l-2.437.263c-4.675.494-6.288,2.6-6.288,5.268,0,3.193,2.305,4.971,5.992,4.971a6.226,6.226,0,0,0,5.531-2.733c0.132,1.614.988,2.437,2.864,2.437a10,10,0,0,0,1.449-.1v-2.14h-0.955Zm-8.757.3c-2.338,0-3.391-1.119-3.391-2.8,0-1.646.856-2.7,3.951-3.062l2.469-.3a4.382,4.382,0,0,0,2.238-.725v2.009C151.741,184.6,149.009,186.113,146.474,186.113Zm18.626,2.239a7.007,7.007,0,0,0,7.308-6.223h-2.7a4.463,4.463,0,0,1-4.609,3.852c-2.832,0-5.1-2.074-5.1-6.518s2.206-6.519,5.1-6.519a4.423,4.423,0,0,1,4.576,3.786h2.732c-0.526-3.753-3.259-6.156-7.308-6.156-4.708,0-7.869,3.424-7.869,8.889S160.457,188.352,165.1,188.352Zm16.893,0a7.007,7.007,0,0,0,7.309-6.223h-2.7a4.463,4.463,0,0,1-4.61,3.852c-2.831,0-5.1-2.074-5.1-6.518s2.206-6.519,5.1-6.519a4.424,4.424,0,0,1,4.577,3.786H189.3c-0.526-3.753-3.259-6.156-7.309-6.156-4.708,0-7.868,3.424-7.868,8.889S177.351,188.352,181.993,188.352Zm24.664-8.889c0-4.873-2.732-8.889-7.8-8.889-4.708,0-7.835,3.555-7.835,8.889,0,5.5,3.259,8.889,7.9,8.889a7.087,7.087,0,0,0,7.309-5.564H203.5a4.366,4.366,0,0,1-4.511,3.161c-2.963,0-4.971-1.745-5.235-5.564h12.906v-0.922Zm-7.8-6.486c3.029,0,4.708,2.239,4.972,5.037H193.817C194.245,174.656,196.188,172.977,198.854,172.977Zm16.638,15.375c4.181,0,6.749-1.844,6.749-5.07,0-2.766-1.679-4.181-5.861-5l-1.514-.3c-2.173-.428-3.424-1.02-3.424-2.634,0-1.58,1.284-2.5,3.556-2.5,2.6,0,4.148.725,4.28,3.358h2.633c-0.065-3.621-2.37-5.629-6.913-5.629-3.885,0-6.19,1.909-6.19,4.806,0,2.634,1.613,4.313,5.3,5l1.58,0.3c2.963,0.56,3.885,1.251,3.885,2.765,0,1.679-1.218,2.634-4.082,2.634-3,0-4.247-.955-4.544-3.523h-2.667C208.545,186.541,211.179,188.352,215.492,188.352Zm15.517,0c4.182,0,6.75-1.844,6.75-5.07,0-2.766-1.679-4.181-5.861-5l-1.514-.3c-2.173-.428-3.424-1.02-3.424-2.634,0-1.58,1.284-2.5,3.556-2.5,2.6,0,4.148.725,4.28,3.358h2.633c-0.065-3.621-2.37-5.629-6.913-5.629-3.885,0-6.19,1.909-6.19,4.806,0,2.634,1.613,4.313,5.3,5l1.58,0.3c2.963,0.56,3.885,1.251,3.885,2.765,0,1.679-1.218,2.634-4.083,2.634-3,0-4.247-.955-4.543-3.523H223.8C224.063,186.541,226.7,188.352,231.009,188.352Zm-193.285,39.5c4.181,0,6.749-1.844,6.749-5.07,0-2.766-1.679-4.182-5.86-5l-1.515-.3c-2.173-.428-3.424-1.021-3.424-2.634,0-1.58,1.284-2.5,3.556-2.5,2.6,0,4.148.724,4.28,3.358h2.634c-0.066-3.621-2.37-5.63-6.914-5.63-3.885,0-6.189,1.91-6.189,4.807,0,2.634,1.613,4.313,5.3,5l1.58,0.3c2.963,0.559,3.885,1.251,3.885,2.765,0,1.679-1.218,2.634-4.082,2.634-3,0-4.247-.955-4.543-3.523H30.514C30.777,226.044,33.411,227.855,37.724,227.855Zm20.493-17.384v9.614c0,3.753-2.469,5.4-4.675,5.4-2.436,0-3.885-1.152-3.885-3.786V210.471H47.023v11.491c0,3.753,2.206,5.893,5.992,5.893a6.259,6.259,0,0,0,5.334-2.93v2.535h2.5V210.471H58.217Zm14.635-.4a6.673,6.673,0,0,0-5.7,2.832v-8.889H64.522V227.46h2.5v-2.634a6.679,6.679,0,0,0,5.827,3.029c4.774,0,7.9-3.457,7.9-8.889S77.626,210.076,72.852,210.076Zm-0.329,15.408c-3.292,0-5.465-2.4-5.465-6.518s2.173-6.519,5.465-6.519,5.465,2.272,5.465,6.387S75.815,225.484,72.523,225.484Zm17.095,2.371c4.181,0,6.749-1.844,6.749-5.07,0-2.766-1.679-4.182-5.86-5l-1.514-.3c-2.173-.428-3.424-1.021-3.424-2.634,0-1.58,1.284-2.5,3.556-2.5,2.6,0,4.148.724,4.28,3.358h2.634c-0.066-3.621-2.37-5.63-6.914-5.63-3.885,0-6.189,1.91-6.189,4.807,0,2.634,1.613,4.313,5.3,5l1.58,0.3c2.963,0.559,3.885,1.251,3.885,2.765,0,1.679-1.218,2.634-4.082,2.634-3,0-4.247-.955-4.543-3.523H82.407C82.67,226.044,85.3,227.855,89.617,227.855Zm10.649-19.787a1.778,1.778,0,1,0-1.778-1.778A1.792,1.792,0,0,0,100.266,208.068ZM98.949,227.46h2.634V210.471H98.949V227.46Zm18.939-23.441v8.889a6.672,6.672,0,0,0-5.7-2.832c-4.774,0-7.9,3.457-7.9,8.89s3.128,8.889,7.9,8.889a6.678,6.678,0,0,0,5.827-3.029v2.634h2.5V204.019h-2.634Zm-5.366,21.465c-3.292,0-5.465-2.271-5.465-6.387s2.173-6.65,5.465-6.65,5.465,2.4,5.465,6.519S115.814,225.484,112.522,225.484Zm13.009-17.416a1.778,1.778,0,1,0-1.778-1.778A1.792,1.792,0,0,0,125.531,208.068Zm-1.317,19.392h2.634V210.471h-2.634V227.46Zm11.845-2.305c-1.218,0-2.4,0-3.622.066,0.758-.922,1.482-1.844,2.206-2.766l7.77-10.008v-1.976H129.474v2.305H135.5c1.218,0,2.4,0,3.622-.066-0.758.922-1.482,1.844-2.206,2.766l-7.77,10.008v1.976h13.729v-2.305h-6.815Zm23.647-6.189c0-4.873-2.733-8.89-7.8-8.89-4.708,0-7.836,3.556-7.836,8.89,0,5.5,3.26,8.889,7.9,8.889a7.089,7.089,0,0,0,7.309-5.564h-2.733a4.364,4.364,0,0,1-4.51,3.16c-2.964,0-4.972-1.745-5.235-5.564h12.906v-0.921Zm-7.8-6.486c3.029,0,4.708,2.239,4.971,5.037H146.866C147.294,214.159,149.236,212.48,151.9,212.48Zm23.376-8.461v8.889a6.672,6.672,0,0,0-5.695-2.832c-4.774,0-7.9,3.457-7.9,8.89s3.128,8.889,7.9,8.889a6.678,6.678,0,0,0,5.827-3.029v2.634h2.5V204.019h-2.634Zm-5.366,21.465c-3.292,0-5.465-2.271-5.465-6.387s2.173-6.65,5.465-6.65,5.465,2.4,5.465,6.519S173.205,225.484,169.913,225.484Zm26.532-15.408a6.678,6.678,0,0,0-5.827,3.029v-2.634h-2.5v23.442h2.634v-8.89a6.671,6.671,0,0,0,5.695,2.832c4.774,0,7.9-3.457,7.9-8.889S201.219,210.076,196.445,210.076Zm-0.329,15.408c-3.292,0-5.465-2.4-5.465-6.518s2.173-6.519,5.465-6.519,5.465,2.272,5.465,6.387S199.408,225.484,196.116,225.484Zm14.872,2.074c0.461,0,1.054-.033,1.679-0.1v-2.206h-1.251c-1.251,0-1.613-.56-1.613-1.449V204.019h-2.634v20.017C207.169,226.637,208.618,227.558,210.988,227.558Zm17.847-2.238a0.779,0.779,0,0,1-.922-0.823v-9.482c0-2.864-1.679-4.939-6.387-4.939-4.971,0-6.716,2.338-6.914,5.63h2.634c0.164-2.535,1.383-3.358,4.28-3.358s3.819,0.889,3.819,2.667c0,1.514-.955,2.14-2.667,2.337l-2.436.264c-4.675.494-6.288,2.6-6.288,5.267,0,3.194,2.3,4.972,5.992,4.972a6.228,6.228,0,0,0,5.531-2.733c0.131,1.613.987,2.436,2.864,2.436a10.133,10.133,0,0,0,1.448-.1v-2.14h-0.954Zm-8.758.3c-2.337,0-3.391-1.119-3.391-2.8,0-1.647.856-2.7,3.951-3.062l2.469-.3a4.377,4.377,0,0,0,2.239-.724v2.008C225.345,224.1,222.612,225.616,220.077,225.616Zm19.676-15.54a6.259,6.259,0,0,0-5.333,2.931v-2.536h-2.5V227.46h2.633v-9.614c0-3.753,2.47-5.4,4.675-5.4,2.437,0,3.885,1.152,3.885,3.786V227.46h2.634V215.97C245.745,212.216,243.539,210.076,239.753,210.076Zm15.735,17.779c4.181,0,6.749-1.844,6.749-5.07,0-2.766-1.679-4.182-5.86-5l-1.515-.3c-2.172-.428-3.423-1.021-3.423-2.634,0-1.58,1.283-2.5,3.555-2.5,2.6,0,4.148.724,4.28,3.358h2.634c-0.066-3.621-2.37-5.63-6.914-5.63-3.885,0-6.189,1.91-6.189,4.807,0,2.634,1.613,4.313,5.3,5l1.581,0.3c2.963,0.559,3.884,1.251,3.884,2.765,0,1.679-1.218,2.634-4.082,2.634-3,0-4.247-.955-4.543-3.523h-2.667C248.541,226.044,251.175,227.855,255.488,227.855Zm10.9-.165a1.891,1.891,0,0,0,1.877-1.942,1.928,1.928,0,0,0-3.852,0A1.894,1.894,0,0,0,266.39,227.69Z"/>
  <text id="Lorem_Ipsum" data-name="Lorem Ipsum" class="cls-2" x="442.149" y="189.256"><tspan x="442.149">Lorem Ipsum</tspan></text>
</svg>
