<svg id="TC" xmlns="http://www.w3.org/2000/svg" width="300" height="250" viewBox="0 0 300 250">
  <defs>
    <style>
      .cls-1 {
        fill: #248700;
        fill-rule: evenodd;
      }
    </style>
  </defs>
  <path id="cta" class="cls-1" d="M176.972,195.416a0.241,0.241,0,0,0,.153-0.141,0.58,0.58,0,0,0,.069-0.282v-6.4a12.688,12.688,0,0,0,3.367-2.466l-7.567-.015v-1.057h9.139V186a12.113,12.113,0,0,1-3.8,3.144l-0.014,6.273a1.207,1.207,0,0,1-.264.733,0.923,0.923,0,0,1-.751.367l-2.045.028-0.5-1.128h2.212Zm14.467-.014a1.785,1.785,0,0,1-.237.959,0.794,0.794,0,0,1-.723.38h-1.1L188.8,195.7h1.224a0.322,0.322,0,0,0,.264-0.12,0.425,0.425,0,0,0,.1-0.274v-1.678h-2.906A6.563,6.563,0,0,1,186,196.953l-0.793-.734a6.7,6.7,0,0,0,.723-1.063,5.072,5.072,0,0,0,.306-0.818,6.89,6.89,0,0,0,.2-1.065V188.89l-0.362.408-0.876-.606a8.529,8.529,0,0,0,2.309-4.441l0.9,0.367a6.383,6.383,0,0,1-.167.874H190.7a16.915,16.915,0,0,1-.723,2.269h1.461V188.4a3.472,3.472,0,0,0,1.266-.973,2.7,2.7,0,0,0,.639-1.494h-1.516V184.9H197.1a11.967,11.967,0,0,1-.626,3.172,0.953,0.953,0,0,1-.334.444,0.942,0.942,0,0,1-.528.191,2.98,2.98,0,0,1-.619-0.051q-0.4-.063-0.55-0.076l-0.32-1.171a4.853,4.853,0,0,0,.987.324,0.419,0.419,0,0,0,.515-0.394q0.1-.339.293-1.41h-1.559a5.182,5.182,0,0,1-.758,1.994,4.1,4.1,0,0,1-1.689,1.375l-0.446-.62Zm-3.576-8.881a9.63,9.63,0,0,1-.6,1.24l1.6-.014q0.153-.267.313-0.627a4.962,4.962,0,0,0,.23-0.6h-1.545Zm0.543,3.666v-1.424h-0.931v1.424h0.931Zm-0.931.958,0.013,1.48h0.918v-1.48h-0.931Zm2.892-2.382h-0.959v1.424h0.973Zm0.014,2.382h-0.973l0.014,1.466,0.959,0.014v-1.48Zm4.966,2.664v3.1H194.3l-0.014-3.1h-2.684v-1.015l2.7-.014v-1.466H193.33a5.13,5.13,0,0,1-.709,1.269l-1.072-.381a3.927,3.927,0,0,0,.773-1.163,6.288,6.288,0,0,0,.424-1.966l0.959,0.295a4.632,4.632,0,0,1-.1.917l0.682,0.014,0.014-1.466,1.043-.014v1.466h1.628l-0.014,1.029h-1.614v1.466H197.7v1.029h-2.351Zm15.8,3.045a24.939,24.939,0,0,1-4.353-.571,12.91,12.91,0,0,1-2.658-.937l-0.431.295a9.68,9.68,0,0,1-3.992,1.34l-0.626-.945a18.247,18.247,0,0,0,1.955-.444,11.962,11.962,0,0,0,2.093-.8,9.54,9.54,0,0,1-2.017-1.8l0.807-.55a16.33,16.33,0,0,0,2.031,1.607,3.929,3.929,0,0,0,.48-0.846,4.6,4.6,0,0,0,.285-0.93h-3.784l0.014-5.216h3.993v-1.043l-5.454.014v-1h11.866v1l-5.383-.014v1.043h3.867v5.216H205.78a5.421,5.421,0,0,1-.32,1.247,4.244,4.244,0,0,1-.584,1.065,6.664,6.664,0,0,0,1.7.585,23.369,23.369,0,0,0,2.511.408q1.425,0.164,2.719.19Zm-9.167-7.711h2.964v-1.071l-2.964-.015v1.086Zm0,2.1,2.88,0.014,0.056-1.114h-2.936v1.1Zm3.979-1.1-0.07,1.114h2.949v-1.114h-2.879Zm2.865-2.087H206l-0.015,1.086h2.838v-1.086Zm6.135,4.709a17.683,17.683,0,0,0,3.5-1.7,9.846,9.846,0,0,0,2.482-2.278,16.736,16.736,0,0,1-2.6,1.305,27.808,27.808,0,0,1-4.089,1.261l-0.668-.944q1.1-.254,2.4-0.62a15.618,15.618,0,0,0,1.94-.649,4.872,4.872,0,0,0-1.557-1.184l0.973-.635a4.472,4.472,0,0,1,.814.614,5.576,5.576,0,0,1,.745.783,12.332,12.332,0,0,0,1.474-.9,13.374,13.374,0,0,0,1.294-1.1h-3.825a14.766,14.766,0,0,1-3.047,1.565l-0.918-.874a10.7,10.7,0,0,0,5.37-3.411l0.973,0.521a10.3,10.3,0,0,1-1.015,1.128h3.922v0.944a10.009,10.009,0,0,1-.938,1.079,9.875,9.875,0,0,1-1.024.923l0.821,0.451a6.4,6.4,0,0,1-.737,1L225,190.06,224.99,191a9.728,9.728,0,0,1-.827,1.3,8.349,8.349,0,0,1-1.4,1.432,10.339,10.339,0,0,1-2,1.282,16.97,16.97,0,0,1-2.455.98,36.86,36.86,0,0,1-4.048.93l-0.695-.973a27.274,27.274,0,0,0,6.231-1.663,5.029,5.029,0,0,0-1.53-1.41l1-.578a4.4,4.4,0,0,1,1.433,1.538,11.583,11.583,0,0,0,1.356-.86,6.055,6.055,0,0,0,1.663-1.847h-3.562a11.075,11.075,0,0,1-1.579,1.142,25.379,25.379,0,0,1-2.817,1.4Z"/>
</svg>
