<svg xmlns="http://www.w3.org/2000/svg" width="300" height="250" viewBox="0 0 300 250">
  <defs>
    <style>
      .cls-1 {
        fill: #4c286c;
        fill-rule: evenodd;
      }
    </style>
  </defs>
  <path class="cls-1" d="M146.8,109.222a8.052,8.052,0,0,0,1.168-1.062,6.453,6.453,0,0,0,1.036-1.543,9.143,9.143,0,0,0,.684-1.927h-1.125v-2.823h1.653v1.225l3.771,0.022v-2.123h1.675v2.1h3.88v-1.357H161.2v2.955h-6.525a6.132,6.132,0,0,1,1.367,1.248h5.666l-0.023,1.6h-5.356V107.8h4.54v1.554h-4.54v0.219h4.54v1.6l-4.519.022v0.219h5.821v1.6h-13.25v-3.262a4.634,4.634,0,0,0-.838.679v1.313q-0.706.328-1.587,0.832v6.742a1.76,1.76,0,0,1-.485.92,1.467,1.467,0,0,1-.793.481,5.938,5.938,0,0,1-1.048.066h-0.805a16.193,16.193,0,0,0-.617-1.6q0.287,0,.971.055a2.941,2.941,0,0,0,.969-0.033l0.132-.2v-5.779a3.555,3.555,0,0,0-.374.175c-0.235.117-.441,0.211-0.618,0.284s-0.337.139-.484,0.2l-1.147-1.27a23.068,23.068,0,0,0,2.623-1.269V107.1h-2.27v-1.576l2.27-.022v-4.225h1.676v4.247h1.5V107.1h-1.5v3.656l1.3-.591Zm5.093,10.31,0.021-2.146a6.834,6.834,0,0,1-1.389.548l-0.684-.788,0.023,3.677h-1.654l-0.021-7.617h13.139l0.021,5.6a1.513,1.513,0,0,1-.364.974,1.914,1.914,0,0,1-.87.624,7.838,7.838,0,0,1-1.94.087,9.682,9.682,0,0,1-.529-1.335l-0.044.372H151.9Zm-2.052-4.75v1.685l0.6-.153a5.974,5.974,0,0,0,1.609-.788,1.31,1.31,0,0,0,.53-0.744h-2.735Zm3.859-8.844-0.507-.263a11.224,11.224,0,0,1,1.322-.941l-4.364-.044a9.857,9.857,0,0,1,1.1.394,6.584,6.584,0,0,1-.44.854H153.7Zm-3.109,1.6V107.8h4.079v-0.241Zm0,1.817v0.241l4.079-.022v-0.219h-4.079Zm0,1.817,0.022,0.241h4.057v-0.219Zm5.335,6.764-0.021-.5h-2.337l-0.023.5h2.381Zm0-2.079a1.5,1.5,0,0,1-.132-1.073h-1.631a2.3,2.3,0,0,1-.088.47,1.528,1.528,0,0,1-.31.6h2.161Zm1.522-.679a0.389,0.389,0,0,0,.264.285l1.94,0.022v-0.7h-2.2v0.394ZM157.6,118.9c0.088,0,.364.022,0.826,0.066a2.684,2.684,0,0,0,.959-0.022,0.63,0.63,0,0,0,.265-0.372v-1.51H157.6V118.9Zm15.961-14.4q-1.809.219-6.834,0.35l-0.993-1.619a64.521,64.521,0,0,0,8.4-.394,33.51,33.51,0,0,0,7.341-1.511l0.926,1.248a29.656,29.656,0,0,1-7.121,1.729v3.24h6.283v1.6h-6.283v3.349l8.091-.022v1.6h-8.113v5.232a1.472,1.472,0,0,1-1.565,1.752h-3.042l-0.618-1.8q2.2,0.2,2.778.176a0.87,0.87,0,0,0,.562-0.2,0.746,0.746,0,0,0,.188-0.568v-4.6h-8.422l-0.022-1.576h8.444l0.022-3.349h-6.614l-0.022-1.6h6.614v-3.043Zm19.334-1.51,5.313,0.022c-0.03-.029-0.067-0.07-0.111-0.121s-0.427-.375-1.146-0.974l1.521-.788a12.592,12.592,0,0,1,1.631,1.883h5.71v1.532l-12.478-.022v1.467h-6.724l-0.021-1.533h3.041a7.955,7.955,0,0,0-.551-1.138,7.214,7.214,0,0,0-1.146-1.379l1.477-.788a7.727,7.727,0,0,1,1.026,1.313,12.673,12.673,0,0,1,.871,1.6l-0.838.351,2.4,0.043Zm0.109,5.779-5.555.022v-1.555h5.555v1.533Zm0,2.933h-5.555v-1.554h5.555V111.7Zm-0.308,6.064-0.044,2.824h-1.566v-1.489H189.24v1.511h-1.587v-7.246h5v4.159a9.843,9.843,0,0,0,4.167-1.729l-3.748-.044v-1.489h3.108v-0.875h-2.249v-1.445l2.249-.022v-0.678h-2.953l-0.023-1.445h2.954v-0.9h-2.447v-3.721h5.071v3.721h-1.08a4.346,4.346,0,0,0,0,.9h3.174l0.022-.9-1.146.022v-3.743h5.092v3.7h-2.4v0.919H205.4v1.445h-2.976v0.7h2.315V113.4h-2.315v0.853h3.219l0.021,1.467h-1.432l1.014,0.92a9.43,9.43,0,0,1-2.2,1.707,8.605,8.605,0,0,0,1.829.887,7.234,7.234,0,0,0,1.521.317l-0.7,1.445a10.6,10.6,0,0,1-3.274-1.237,6.088,6.088,0,0,1-2.26-2.266,8.167,8.167,0,0,1-.794-1.751H198.83a6.945,6.945,0,0,1-1.411,1.357v1.773q1.917-.5,2.777-0.678l0.044,1.466q-3.327.919-4.431,1.358l-0.838-1.314c0.354-.131.57-0.215,0.651-0.252a0.391,0.391,0,0,0,.166-0.12v-1.248a17.167,17.167,0,0,1-2.228.744Zm-3.439-2.912-0.022,2.759h1.807v-2.759h-1.785Zm5.931-7.289h2.094v-1.051h-2.094v1.051Zm2.513,3.678v0.7h3.174v-0.7h-3.174Zm0.088,2.167v0.853h3.086l0.022-.853h-3.108Zm3.218,2.3a8.052,8.052,0,0,0,.419.931,4.734,4.734,0,0,0,.485.8,9.255,9.255,0,0,0,2.183-1.73h-3.087Zm2.315-9.194h-2.051v1.007h2.051v-1.007Zm17.879-5.166q0,1.445.055,3.535t0.143,3.164h5.864v1.641h-5.71a23.961,23.961,0,0,0,.882,4.2,16.589,16.589,0,0,0,2.469-3.59l1.5,0.635a19.328,19.328,0,0,1-3.306,4.619,9.862,9.862,0,0,0,.881,1.444,17.519,17.519,0,0,0,1.224,1.588c0.242,0.255.393,0.3,0.452,0.142a12.417,12.417,0,0,0,.551-3.043l1.72,0.657a13.4,13.4,0,0,1-.75,3.612,1.544,1.544,0,0,1-.728.766,2.362,2.362,0,0,1-.815-0.011,3.716,3.716,0,0,1-1.455-.886,11.913,11.913,0,0,1-2.381-2.978,23.405,23.405,0,0,1-4.277,2.759l-1.477-1.226a21.011,21.011,0,0,0,4.982-3.174A26.858,26.858,0,0,1,219.8,109.7h-4.233l0.022,3.152,3.351-.853,0.022,1.685-3.373.9-0.022,4.531a1.744,1.744,0,0,1-.948,1.511,3.623,3.623,0,0,1-.849.186,10.916,10.916,0,0,1-1.378.032q-0.88-.021-1.19,0l-0.617-1.707,2.711,0.066a0.545,0.545,0,0,0,.507-0.569v-3.568l-3.857,1.028-1.235-1.6q2.315-.436,5.071-1.138V109.7l-4.5-.022-0.022-1.641h4.5v-3.153a9.491,9.491,0,0,1-1.7.394,14.777,14.777,0,0,1-1.873.2,13.761,13.761,0,0,0-1.036-1.641,18.063,18.063,0,0,0,3.152-.285,14.57,14.57,0,0,0,2.569-.733,27.18,27.18,0,0,0,2.9-1.39l1.1,1.247q-2.05,1.182-2.546,1.434t-0.783.361v3.569l4.1-.023a65.026,65.026,0,0,1-.132-6.676h1.7Zm1.962,0.92a10.73,10.73,0,0,1,2.16,1.586,7.158,7.158,0,0,1,1.631,2.113,10.42,10.42,0,0,1-1.41,1.2,6.4,6.4,0,0,0-1.511-2.1,8.557,8.557,0,0,0-2.281-1.532Zm13.58-.5a42.569,42.569,0,0,1-1.411,4.29v15.039h-1.72V109.572q-0.066.109-.4,0.591t-0.595.843c-0.176.24-.345,0.463-0.507,0.667l-1.543-.831a27.212,27.212,0,0,0,1.577-2.474,28.345,28.345,0,0,0,1.575-3.262q0.75-1.816,1.455-3.962Zm6.414,9h-4.121l-0.023,10.332-1.7-.043L237.3,102.37h5.842Zm-4.077-1.6h2.358l-0.021-1.839h-2.337v1.839Zm0.065-5.166v1.8l2.272-.022,0.021-1.8Zm5.975,15.061h0.364q0.208,0,.915.021c0.47,0.015.8,0.015,0.992,0a0.519,0.519,0,0,0,.364-0.2,0.74,0.74,0,0,0,.143-0.481l-0.023-7.64h-3.99V102.37l5.732,0.044,0.023,15.8a3.533,3.533,0,0,1-.21,1.422,1.979,1.979,0,0,1-.628.745,3.107,3.107,0,0,1-.772.273,4.519,4.519,0,0,1-1.158.066,9.3,9.3,0,0,0-.98-0.011Zm0.441-15.105-0.023,1.8h2.36l0.044-1.817Zm-0.023,3.371v1.839l2.36,0.022v-1.861h-2.36ZM145.216,127.474c-0.044.248-.108,0.533-0.188,0.854s-0.213.759-.4,1.314-0.306.933-.364,1.138h5.951q-0.021.5-.044,2.353t-0.065,3q-0.045,1.147-.144,2.506T149.6,141.6a20.136,20.136,0,0,1-.772,3.119,3.172,3.172,0,0,1-.771,1.292,1.974,1.974,0,0,1-.926.547,3.88,3.88,0,0,1-1.026,0,21.873,21.873,0,0,1-2.9-.678l-0.287-1.84a16.478,16.478,0,0,0,3.328.92,0.818,0.818,0,0,0,.838-0.394,13.775,13.775,0,0,0,.728-2.583,69.231,69.231,0,0,0,.727-9.676h-4.7a17.71,17.71,0,0,1-2.557,4.576l-1.147-.723v10.092l-1.7.021a8.181,8.181,0,0,1-.022-1.061q0.022-.624.022-0.734l-3.7.023v1.772H133V131.13h2.029a13.307,13.307,0,0,0,1.344-3.874l1.588,0.634a13.805,13.805,0,0,1-1.191,3.24h3.373l-0.022,4.313a19.227,19.227,0,0,0,3.328-8.363Zm-10.516,5.21,0.021,4.247,3.66,0.022v-4.269H134.7Zm3.725,10.246-0.022-4.423-3.659.022v4.378Zm7.21-1.489a19.127,19.127,0,0,0-3-5.144l1.367-.9a19.2,19.2,0,0,1,1.917,2.6,16.311,16.311,0,0,1,1.3,2.736Zm15.74-.416q-0.6-.723-1.334-1.489a7.5,7.5,0,0,0-1.29-1.116v8.515H157.01v-8.274a17.094,17.094,0,0,1-2.513,2.167l-1.257-1.379a28.249,28.249,0,0,0,3.45-2.956,19.03,19.03,0,0,0,2.5-3.261h-5.424l0.045-1.62,7.3,0.022v1.444a20.161,20.161,0,0,1-2.381,3.766l0.022,0.766,0.639-.635a6.853,6.853,0,0,1,1.389.93,19.065,19.065,0,0,1,1.9,1.916Zm-4.564-13.835a17.037,17.037,0,0,1,1.279,1.521,8.776,8.776,0,0,1,1.08,2.047c-0.132.058-.372,0.182-0.716,0.372a7.741,7.741,0,0,1-.849.416,10.343,10.343,0,0,0-2.227-3.568Zm10.538,7.159,5.049,0.021-0.044,1.6-5.005-.022,0.044,7.815,5.776,0.022v1.642l-13.293.021-0.023-1.685h5.732v-7.815h-4.739v-1.62h4.739v-6.961l1.808-.022Zm27.557,11.6H179.3a1.754,1.754,0,0,1-.805-0.208,1.48,1.48,0,0,1-.651-0.712,2.543,2.543,0,0,1-.242-1.116V130.036l-1.389-.022v-1.62l18.584,0.021v1.621h-15.52l0.023,13.441a0.9,0.9,0,0,0,.2.657,0.993,0.993,0,0,0,.706.2h14.7v1.62Zm-8.466-3.043H180.2v-6.063l6.238,0.021v6.042Zm-4.585-4.466v2.868l2.91,0.022-0.023-2.911Zm10.074-2.757-9.92.021,0.022-4.881h9.9v4.86Zm-8.244-1.489h6.569v-1.9h-6.569v1.9Zm10.185,2.649v6h-6.305v-6h6.305Zm-1.654,1.576-2.976.021v2.8l2.954,0.021ZM216.51,146.8a40.416,40.416,0,0,1-6.9-.886,20.746,20.746,0,0,1-4.211-1.456l-0.683.46A15.575,15.575,0,0,1,198.389,147l-0.993-1.467a30.148,30.148,0,0,0,3.1-.689,19.254,19.254,0,0,0,3.317-1.237,15.02,15.02,0,0,1-3.2-2.8l1.279-.854a26.179,26.179,0,0,0,3.218,2.5,6.029,6.029,0,0,0,.761-1.314,6.92,6.92,0,0,0,.452-1.445h-6l0.022-8.1h6.327v-1.62l-8.642.022v-1.554h18.805v1.554l-8.532-.022v1.62h6.128v8.1H208a8.272,8.272,0,0,1-.507,1.938,6.484,6.484,0,0,1-.925,1.652,10.678,10.678,0,0,0,2.689.909,37.594,37.594,0,0,0,3.98.634q2.259,0.254,4.309.3ZM201.982,134.83h4.7v-1.664l-4.7-.021v1.685Zm0,3.261,4.563,0.022,0.089-1.729h-4.652v1.707Zm6.305-1.707-0.11,1.729h4.673v-1.729h-4.563Zm4.542-3.239h-4.475l-0.023,1.685h4.5v-1.685Zm7.385,11.163a11.97,11.97,0,0,0,2.557.832,0.653,0.653,0,0,0,.264-0.01,0.528,0.528,0,0,0,.254-0.165,1.036,1.036,0,0,0,.2-0.328,12.18,12.18,0,0,0,.3-1.2,23.858,23.858,0,0,0,.573-4.116l-4.056.022a46.106,46.106,0,0,0,.617-6.3h3.395v-3.2h-4.255v-1.554h5.909l-0.023,6.305-3.373.022q-0.089,1.488-.286,3.173l3.7-.021a26.091,26.091,0,0,1-.969,7.531,2.035,2.035,0,0,1-.595.94,1.853,1.853,0,0,1-.927.46,9.5,9.5,0,0,1-3.064-.612Zm16.247-2.561a14.2,14.2,0,0,1,2.888,4.246q-0.22.11-.727,0.406a6.746,6.746,0,0,1-.838.427,8.836,8.836,0,0,0-.749-1.752l-10.56,1.073q-0.2-.328-0.475-0.865c-0.184-.358-0.3-0.594-0.363-0.711q0.748,0,1.653-.055t2.381-.208l1.9-.2-0.022-2.933h-4.387l-0.022-6.108h4.453V133.3q-2.337.153-4.607,0.482l-0.9-1.422a18.278,18.278,0,0,0,5.467-5.342q0.287,0.176.749,0.5c0.31,0.219.522,0.365,0.639,0.438A19.062,19.062,0,0,1,231.247,130a13.145,13.145,0,0,1-2.238,1.938q0.993-.023,3.087-0.165t3.527-.274a9.166,9.166,0,0,0-2.226-1.554l1.454-.963a16.949,16.949,0,0,1,2.381,2.047,14.212,14.212,0,0,1,1.962,2.462l-1.41.855a7.952,7.952,0,0,0-.971-1.468l-3.57.285,0.021,1.9h4.322v6.108H233.2v2.758l2.865-.307a16.473,16.473,0,0,0-1.41-1.356Zm-7.649-2.167,2.777,0.022v-2.955h-2.777v2.933Zm4.431-2.911,0.021,2.889L236,139.58v-2.911h-2.755Zm10.141-2.364v-1.686h6.877a45.845,45.845,0,0,0,.155-5.517,8.6,8.6,0,0,0,.969.154c0.4,0.043.67,0.08,0.817,0.109a52.119,52.119,0,0,1-.111,5.254h7.892l0.023,1.686h-6.481a18.661,18.661,0,0,0,1.432,4.618,12.7,12.7,0,0,0,2.359,3.35,17.156,17.156,0,0,0,3.682,2.78l-1.191,1.313a24.5,24.5,0,0,1-2.623-1.828,13.449,13.449,0,0,1-2.3-2.353,13.749,13.749,0,0,1-1.786-3.207,20.706,20.706,0,0,1-1.179-4.673,18.873,18.873,0,0,1-2.789,7.213,16.1,16.1,0,0,1-5.566,4.739l-1.257-1.511a13.672,13.672,0,0,0,3.7-2.517,13.84,13.84,0,0,0,2.612-3.481,15.019,15.019,0,0,0,1.488-4.443h-6.723Z"/>
</svg>
