<svg xmlns="http://www.w3.org/2000/svg" width="300" height="250" viewBox="0 0 300 250">
  <defs>
    <style>
      .cls-1 {
        fill: #4c286c;
        fill-rule: evenodd;
      }
    </style>
  </defs>
  <path class="cls-1" d="M125.676,107.914a6.779,6.779,0,0,0-1.179-1.152,10.485,10.485,0,0,0-1.622-1l1.743-.922a11.262,11.262,0,0,1,2.669,2.371,18.473,18.473,0,0,1,2.337,3.578c-0.132.073-.368,0.22-0.7,0.439a5.075,5.075,0,0,1-.838.461,17.219,17.219,0,0,0-1.236-2.239q-0.242.023-.761,0.066t-4.885.4q-4.367.351-7.432,0.9l-1.058-1.58a16.657,16.657,0,0,0,3.209-2.745,22.015,22.015,0,0,0,2.547-3.337H112v-1.625l7.675,0.044,0.022-4h-6.065l-0.023-1.668,6.066,0.044V92.216l1.808-.022-0.044,3.754,6.043,0.044v1.581h-6.043v3.952h7.7v1.625h-8.645a21.219,21.219,0,0,1-4.521,5.577Zm13.1-15.236c-0.015.132-.041,0.293-0.077,0.483s-0.151.6-.342,1.229h12.351v1.6l-6.728.044L144,98.847h5.624v1.625H144v3.556h7.608v1.625L144,105.631v6.323h-1.743v-6.3h-8.6v-1.647l2.735,0.022V98.847l5.866-.022v-2.81h-4.542a23.421,23.421,0,0,1-1.357,2.4,10.658,10.658,0,0,1-1.687,1.987l-1.39-1.12A14.292,14.292,0,0,0,137.365,92Zm-0.683,7.794v3.556h4.146l0.021-3.556h-4.167Zm27.457,2.041a3.9,3.9,0,0,1-.176,1.131,3.255,3.255,0,0,1-.607,1.109,3.177,3.177,0,0,1-1.136.856l-0.639-.812a2.173,2.173,0,0,0,1.322-2.174h-1.19v-2.415h2.426v2.305Zm23.8-10.318q0,1.449.055,3.546t0.143,3.173h5.867v1.647H189.7a24.1,24.1,0,0,0,.882,4.215,16.7,16.7,0,0,0,2.47-3.6l1.5,0.637a19.339,19.339,0,0,1-3.308,4.632,9.887,9.887,0,0,0,.882,1.449,17.615,17.615,0,0,0,1.224,1.592c0.243,0.256.393,0.3,0.452,0.143a12.4,12.4,0,0,0,.551-3.052l1.721,0.659a13.471,13.471,0,0,1-.75,3.622,1.557,1.557,0,0,1-.728.769,2.365,2.365,0,0,1-.815-0.012,3.717,3.717,0,0,1-1.456-.888,11.948,11.948,0,0,1-2.382-2.986,23.481,23.481,0,0,1-4.279,2.766l-1.477-1.23a21.017,21.017,0,0,0,4.984-3.183,26.917,26.917,0,0,1-1.235-5.511H183.7l0.023,3.162,3.352-.856,0.022,1.69-3.374.9-0.023,4.545a1.75,1.75,0,0,1-.948,1.515,3.574,3.574,0,0,1-.849.186,10.7,10.7,0,0,1-1.379.033c-0.587-.014-0.985-0.014-1.19,0l-0.618-1.712,2.713,0.066a0.552,0.552,0,0,0,.364-0.176,0.557,0.557,0,0,0,.143-0.395V105.96l-3.859,1.032-1.236-1.6q2.316-.438,5.073-1.141v-3.667l-4.5-.021-0.023-1.647h4.5V95.751a9.428,9.428,0,0,1-1.7.4,14.852,14.852,0,0,1-1.873.2,13.971,13.971,0,0,0-1.037-1.647,17.956,17.956,0,0,0,3.153-.285,14.524,14.524,0,0,0,2.57-.735,27.011,27.011,0,0,0,2.9-1.394l1.1,1.251q-2.052,1.186-2.547,1.438c-0.331.169-.593,0.289-0.783,0.362v3.579l4.1-.022a65.417,65.417,0,0,1-.132-6.7h1.7Zm1.963,0.922a10.745,10.745,0,0,1,2.16,1.591,7.172,7.172,0,0,1,1.632,2.119,10.382,10.382,0,0,1-1.411,1.207,6.383,6.383,0,0,0-1.511-2.107A8.559,8.559,0,0,0,189.9,94.39Zm13.585-.505a42.778,42.778,0,0,1-1.412,4.3V112h-1.72V100.449q-0.066.111-.4,0.593c-0.221.323-.419,0.6-0.6,0.846s-0.345.465-.507,0.669l-1.543-.834a27.478,27.478,0,0,0,1.577-2.481,28.469,28.469,0,0,0,1.576-3.271q0.75-1.822,1.455-3.974Zm6.417,9.023H207.19L207.167,112l-1.7-.044-0.023-18.727h5.845Zm-4.079-1.6h2.359l-0.022-1.843h-2.337v1.843Zm0.065-5.181v1.8l2.272-.022,0.022-1.8Zm5.977,15.1h0.364q0.21,0,.915.022c0.471,0.015.8,0.015,0.993,0a0.52,0.52,0,0,0,.364-0.2,0.744,0.744,0,0,0,.143-0.483l-0.022-7.662h-3.992V93.227l5.734,0.044,0.023,15.852a3.561,3.561,0,0,1-.21,1.427,1.974,1.974,0,0,1-.628.746,3.062,3.062,0,0,1-.773.274,4.471,4.471,0,0,1-1.158.066,8.961,8.961,0,0,0-.981-0.01Zm0.441-15.149-0.022,1.8h2.36l0.044-1.822ZM213.7,98.189v1.843l2.36,0.022V98.189H213.7Zm10.741,6.5q-0.177.066-.915,0.318c-0.494.169-.868,0.289-1.125,0.362s-0.431.125-.519,0.154l-1.036-1.449a35.077,35.077,0,0,0,3.595-1.01V98.1h-2.867V96.52h2.867V92.436h1.676V96.52h2.536V98.1h-2.536v4.392l2.47-.813v1.6a10.357,10.357,0,0,1-1.323.483,10.891,10.891,0,0,0-1.147.395v6.279a1.129,1.129,0,0,1-.309.735,1.624,1.624,0,0,1-.661.494,3.113,3.113,0,0,1-.728.165,8.861,8.861,0,0,1-1.247.033c-0.536-.015-0.871-0.022-1-0.022l-0.551-1.647a14.978,14.978,0,0,0,2.315.089,0.44,0.44,0,0,0,.343-0.154,0.421,0.421,0,0,0,.165-0.352v-5.093Zm2.514,5.664a16.471,16.471,0,0,0,5.8-2.92,14.458,14.458,0,0,1-2.625-4.566h-1.147v-1.6h9.263a9.625,9.625,0,0,1-3.021,6.279,13.389,13.389,0,0,0,5.623,2.832l-1.08,1.537a11.856,11.856,0,0,1-2.966-1.328,24.19,24.19,0,0,1-2.857-1.943,16.21,16.21,0,0,1-2.669,1.811,18.326,18.326,0,0,1-3.2,1.372Zm0.132-10.274a4.247,4.247,0,0,0,2.6-2.569,9.862,9.862,0,0,0,.188-1.065q0.1-.735.121-3.107h7.52l0.022,4.72a0.518,0.518,0,0,0,.618.549h2.205v1.536h-2.713a2.737,2.737,0,0,1-.926-0.351,1.6,1.6,0,0,1-.651-0.725,2.356,2.356,0,0,1-.209-0.988V94.939l-4.146-.022a17.733,17.733,0,0,1-.254,2.525,5.369,5.369,0,0,1-.474,1.361,6.915,6.915,0,0,1-2.58,2.591Zm4.831,2.788a10.3,10.3,0,0,0,.959,1.943,5.257,5.257,0,0,0,1.157,1.481,10.821,10.821,0,0,0,1.357-1.613,7.287,7.287,0,0,0,.871-1.811h-4.344Zm11.622,6.981a19.49,19.49,0,0,0,5.734-4.423,18.055,18.055,0,0,0,3.418-6.269,28.622,28.622,0,0,1-.352-3.952h-3.816V93.556l5.58-.022a24.728,24.728,0,0,0,.309,5.379,14.621,14.621,0,0,0,2.4,5.851,19.651,19.651,0,0,0,5.425,5.06l-1.059,1.449a20.517,20.517,0,0,1-2.3-1.657,20.889,20.889,0,0,1-2.217-2.13,17.149,17.149,0,0,1-1.919-2.591,13.632,13.632,0,0,1-1.345-2.931,17.639,17.639,0,0,1-3.573,5.467,20.782,20.782,0,0,1-5.248,3.864Zm30.281-.241a0.385,0.385,0,0,0,.243-0.22,0.891,0.891,0,0,0,.109-0.439V98.979a20.031,20.031,0,0,0,5.338-3.842l-12-.022V93.468H282v1.471a19.108,19.108,0,0,1-6.021,4.9l-0.022,9.77a1.857,1.857,0,0,1-.419,1.141,1.466,1.466,0,0,1-1.192.571l-3.241.044-0.794-1.756h3.507Zm-120,26.8h-1.852v-11.66h-3.575V123.3l0.354-.022c2.029-.132,3.176-0.615,3.573-2.5h1.5v15.634Zm13.719-3.909h-2.117v3.909h-1.854V132.5h-7.874V130.72l7.72-9.946h2.008V130.83h2.117V132.5Zm-9.9-1.669h5.933v-7.641Zm11.335-2.239c0-5.183,1.875-8.169,5.691-8.169s5.691,2.986,5.691,8.169-1.875,8.168-5.691,8.168S168.969,133.773,168.969,128.591Zm9.441,0c0-4.348-1.324-6.5-3.75-6.5s-3.75,2.152-3.75,6.5,1.323,6.5,3.75,6.5S178.41,132.938,178.41,128.591Zm9.658-8.562v-1.844l1.7-.022,0.022,1.866h2.8l0.023,1.537-2.824-.022-0.022,1.515-1.7-.022v-1.471h-4.83l0.023-1.537h4.807Zm-0.485,15.413a13.117,13.117,0,0,0-.684-1.515q2.757,0,5.161-.176v-1.559h-5.382V137.9h-1.741v-5.709H183.7v-1.515h1.236l-0.023-.944h1.743l0.021,0.944h5.382l0.022-1.01H186v-6.542h13.85v6.542h-6.064l-0.023.988,7.477,0.022V135.9a1.63,1.63,0,0,1-1.28,1.537,11.3,11.3,0,0,1-1.676.088h-1.412a12.24,12.24,0,0,0-.463-1.6q1.148,0.088,1.688.111a8.227,8.227,0,0,0,1.047-.023,0.465,0.465,0,0,0,.32-0.23,0.718,0.718,0,0,0,.144-0.406v-3.184h-2.581a5.787,5.787,0,0,1,1.136,1.021,8.964,8.964,0,0,1,1.136,1.9l-1.434.79c-0.073-.161-0.162-0.362-0.264-0.6a2.739,2.739,0,0,0-.221-0.45Zm0.088-10.78v0.943h4.389v-0.943h-4.389Zm0,2.5v0.967h4.389v-0.967h-4.389Zm5.492-5.642v-1.515l2.889-.022v-1.866l1.653-.022v1.888h4.7v1.537h-4.7l0.023,1.515h-1.655v-1.515h-2.91Zm0.595,5.62,0.023,0.989h4.41v-0.989h-4.433Zm2.889,5.094-2.866-.044-0.023,1.428c0.308,0,.761-0.023,1.356-0.067l1.181-.087-0.949-.615Zm-2.866-7.574v0.943h4.388l-0.022-.943h-4.366Zm11.4,5.6a17.4,17.4,0,0,0,2.7-3.425,17.706,17.706,0,0,0,1.776-3.886l1.477,0.747a18.3,18.3,0,0,1-4.588,7.706Zm10.432-11.812v16.467a2.015,2.015,0,0,1-.838,1.91,4.435,4.435,0,0,1-2.316.472q-1.434-.033-1.72-0.011l-0.728-1.8q1.521,0.11,3.242.065a0.514,0.514,0,0,0,.4-0.208,0.662,0.662,0,0,0,.176-0.428V118.448h1.787Zm6.858,12.866a17.279,17.279,0,0,0-5-7.552l1.565-.835a18.949,18.949,0,0,1,3.143,3.623,14.267,14.267,0,0,1,1.885,3.995Zm11.536-11.395v15h-1.677l0.022-1.6h-2.514v1.647h-1.7V119.9Zm-1.677,1.537h-2.492v4.194h2.492v-4.194Zm0,10.319,0.022-4.566h-2.492v4.566h2.47Zm11.116,4.281a1.716,1.716,0,0,1-.188.692,2.048,2.048,0,0,1-.629.747,1.494,1.494,0,0,1-.926.34h-2.448q-0.33-1.1-.573-1.713,1.853,0.132,2.073.132a3.723,3.723,0,0,0,.419-0.022,0.389,0.389,0,0,0,.331-0.132,0.484,0.484,0,0,0,.154-0.351l-0.022-5.247h-7.1v-1.559l7.1-.022,0.022-1.932,1.787-.022v1.976l3.132-.022V130.5h-3.11Zm2.69-11.043v1.581l-11.446-.022-0.023-1.537,4.743-.022v-2.854h-3.97V120.6l3.97,0.022v-2.635h1.764L241.2,120.6h4.08v1.559h-4.058v2.876Zm-9.284,5.971a6.193,6.193,0,0,1,1.94,1.46,8.7,8.7,0,0,1,1.368,1.856l-1.412,1.142a8.588,8.588,0,0,0-1.489-2.064,5.057,5.057,0,0,0-1.8-1.274ZM132.4,160.928a14.576,14.576,0,0,0,3.33-4.94,14.531,14.531,0,0,1,1.433.724,14.488,14.488,0,0,1-3.4,5.2Zm17.29-8.431v1.58l-14.93.022,0.022-1.646L141.4,152.5v-3.36h-8.248v-1.6h8.27V144.22h1.72v3.315h8.27v1.6h-8.291v3.381Zm-1.852,6.213c-0.073.2-.2,0.6-0.375,1.175a8.653,8.653,0,0,1-.54,1.4,3.98,3.98,0,0,1-.651.934,1.583,1.583,0,0,1-.639.406,3.565,3.565,0,0,1-1.147.142l-4.566.023a2.315,2.315,0,0,1-.937-0.2,1.478,1.478,0,0,1-.672-0.538,1.625,1.625,0,0,1-.265-0.692v-5.115h1.677V160.8a0.892,0.892,0,0,0,.132.219,0.589,0.589,0,0,0,.419.2h4.5a1.258,1.258,0,0,0,.408-0.208,1.544,1.544,0,0,0,.431-0.538,5.944,5.944,0,0,0,.407-1.153q0.21-.78.3-1.022Zm-4.411.46a12.7,12.7,0,0,0-3.419-3.841l1.28-.988a18.809,18.809,0,0,1,3.573,3.688Zm5.139-3.226a19.349,19.349,0,0,1,2.194,2.184,16.163,16.163,0,0,1,1.666,2.4q-0.993.724-1.39,0.966a15.549,15.549,0,0,0-3.639-4.522Zm12.218,1.493a12.37,12.37,0,0,1-.915,2.294,10.468,10.468,0,0,1-1.29,1.964l-1.28-.636a9.4,9.4,0,0,1-.529,1.438,11.253,11.253,0,0,1-.728,1.372l-1.5-1.01a9.5,9.5,0,0,0,1.269-3.447,25.15,25.15,0,0,0,.43-4.83v-9.418l9,0.022v1.536h-2.117q-0.442,1.1-.706,1.625h2.713l-0.023,7.838h-2.337l0.022,5.577a1.615,1.615,0,0,1-.3.889,1.681,1.681,0,0,1-.672.625,2.713,2.713,0,0,1-.662.2,7.447,7.447,0,0,1-1.081.077q-0.706.011-.9,0.033l-0.595-1.669q0.285,0.023,1.058.088a3.686,3.686,0,0,0,1.191-.044,0.626,0.626,0,0,0,.243-0.253,0.785,0.785,0,0,0,.11-0.405l-0.022-5.138-2.58.022v-7.838H160.5a5.259,5.259,0,0,0,.794-1.625h-3.352l-0.022,8.892q0,1.12-.122,2.492a20.034,20.034,0,0,1-.319,2.317,8.925,8.925,0,0,0,1.786-3.535ZM160.169,153c-0.014.337-.007,0.885,0.023,1.647h3.241l0.023-1.625Zm3.287-1.515v-1.625h-3.287l0.023,1.625h3.264Zm0.9,5.4a10.844,10.844,0,0,1,1.942,3.8l-1.523.79a11.04,11.04,0,0,0-.727-2.173,8.556,8.556,0,0,0-1.191-1.845Zm0.287,5.752a8.953,8.953,0,0,0,2.051-1.23,8.712,8.712,0,0,0,1.655-1.712l1.146,1.1a8.812,8.812,0,0,1-3.7,3.007Zm9.616-15.984h-3.176a7.681,7.681,0,0,1-.595,1.626l2.713-.023V159.61l-6.97-.022,0.023-11.306h2.271a5.418,5.418,0,0,0,.816-1.647h-3.969l0.021-1.56h8.866v1.581Zm-6.44,11.417h3.727v-1.778H167.8Zm0-8.277v1.735h3.727V149.8h-3.727Zm0,3.249v1.691l3.727,0.022v-1.713h-3.727Zm5.735,10.736a10.127,10.127,0,0,0-1.655-1.734,6.674,6.674,0,0,0-1.941-1.186l1.192-1.185a12.374,12.374,0,0,1,3.55,2.9Zm11.335-18.639v16.751a1.134,1.134,0,0,1-.2.549,1.9,1.9,0,0,1-.684.615,1.94,1.94,0,0,1-.992.285h-1.963q-0.066-.221-0.639-1.69,0.308,0,1.124.022a8,8,0,0,0,1.279-.044,0.539,0.539,0,0,0,.276-0.2,0.8,0.8,0,0,0,.143-0.439v-4.15l-3,.023q-0.111,1.579-.309,2.766a9.216,9.216,0,0,1-.706,2.305,9.312,9.312,0,0,1-1.19,1.976l-1.368-1.031a9.107,9.107,0,0,0,1.092-1.944,9.538,9.538,0,0,0,.628-2.458,25.326,25.326,0,0,0,.176-3.195V145.164Zm-4.631,1.647v3.358h2.933v-3.381Zm2.977,4.939-2.977.022v3.491h2.933ZM188,154.077v9.77l-1.7.044V145.164h8.843a26.708,26.708,0,0,1-.661,4.764,1.616,1.616,0,0,1-.661.933,2.115,2.115,0,0,1-1.081.428,10.479,10.479,0,0,1-2.493-.154l-0.484-1.756c0.191,0.029.591,0.1,1.2,0.2a12.143,12.143,0,0,0,1.489.175,0.379,0.379,0,0,0,.352-0.329,7.4,7.4,0,0,0,.266-1.251q0.132-.879.176-1.383H188l-0.022,5.664h7.19a17.151,17.151,0,0,1-.773,3.908,20.839,20.839,0,0,1-1.389,3.359,9.612,9.612,0,0,0,.882.9,24.124,24.124,0,0,0,2.559,1.844l-0.992,1.252a15.17,15.17,0,0,1-3.308-2.525,13.786,13.786,0,0,1-1.213,1.295q-0.838.813-1.7,1.515c-0.161-.147-0.379-0.37-0.651-0.67s-0.437-.48-0.5-0.537a14.832,14.832,0,0,0,2.934-2.9,13.968,13.968,0,0,1-2.228-5.818H188Zm2.448-.022a12.463,12.463,0,0,0,.463,1.9,11.161,11.161,0,0,0,.993,2.294q0.352-.723.739-1.756a23.257,23.257,0,0,0,.738-2.437H190.45Zm17.6-.4a16.3,16.3,0,0,0,1.743-.769,9.988,9.988,0,0,0,1.521-.943q-0.175-.2-0.617-0.823a11.889,11.889,0,0,1-.992-1.834,8.209,8.209,0,0,1-1.5,1.581l-1.544-.944a10.513,10.513,0,0,0,2.084-2.228,13.71,13.71,0,0,0,1.731-3.876L212,144.33a12.788,12.788,0,0,1-.529,1.712l6.307,0.022v1.624h-1.786a9.865,9.865,0,0,1-2.294,4.281,9.483,9.483,0,0,0,2.338,1.406,16.353,16.353,0,0,0,2.934.944l-0.926,1.537a17.081,17.081,0,0,1-2.9-1.087,14.563,14.563,0,0,1-2.68-1.657,20.229,20.229,0,0,1-5.27,2.678l-0.926-1.449,0.926-.307-0.949-.22,0.308-1.054h-1.014v9.155a1.942,1.942,0,0,1-.419,1.317,1.768,1.768,0,0,1-1.19.571,13.455,13.455,0,0,1-2.14.066l-0.6-1.778q1.214,0.089,1.986.066a0.784,0.784,0,0,0,.5-0.121,0.605,0.605,0,0,0,.143-0.472v-8.8a17.546,17.546,0,0,1-1.5,4.577,11.613,11.613,0,0,1-2.668,3.459l-1.279-1.142a9.936,9.936,0,0,0,2.393-2.974,15.621,15.621,0,0,0,1.378-3.92h-2.955v-1.625h4.962a12.705,12.705,0,0,0-3.331-2.173l1.213-1.12q0.309,0.154.805,0.417t0.762,0.417a8.982,8.982,0,0,0,1.963-1.887H200v-1.625h7.586v1.471a14.8,14.8,0,0,1-2.669,3.007l1.125,1.055-0.463.438H208.6Zm-2.183,8.672a5.934,5.934,0,0,0,1.544-.461,5.609,5.609,0,0,0,1.554-1.064,5.737,5.737,0,0,0,1.225-1.647,7.4,7.4,0,0,0,.639-1.79h-3.087v-1.624h3.33a13.072,13.072,0,0,0,.044-1.558h1.72a13.072,13.072,0,0,1-.044,1.558h3.838a32.991,32.991,0,0,1-.75,6.06,1.934,1.934,0,0,1-.584.976,2.621,2.621,0,0,1-1.6.429,12.906,12.906,0,0,1-2.095-.176l-0.419-1.778a9.9,9.9,0,0,0,2.316.284,1.516,1.516,0,0,0,.541-0.087,0.624,0.624,0,0,0,.319-0.5,14.088,14.088,0,0,0,.364-1.679q0.186-1.109.253-1.9h-2.447a8.1,8.1,0,0,1-.927,2.832,7.052,7.052,0,0,1-2.051,2.372,7.921,7.921,0,0,1-2.734,1.339Zm5.072-14.644a8.278,8.278,0,0,0,1.633,3.14,7.066,7.066,0,0,0,1.654-3.14h-3.287Zm17.005-1.822v14.995h-1.677l0.022-1.6h-2.514v1.646h-1.7V145.844Zm-1.677,1.537h-2.492V151.6h2.492V147.4Zm0,10.319,0.022-4.566H223.8v4.566h2.47ZM237.382,162a1.7,1.7,0,0,1-.188.691,2.046,2.046,0,0,1-.628.747,1.5,1.5,0,0,1-.926.34h-2.449q-0.33-1.1-.573-1.712,1.853,0.132,2.073.131a3.73,3.73,0,0,0,.419-0.021,0.388,0.388,0,0,0,.331-0.132,0.483,0.483,0,0,0,.155-0.352l-0.023-5.246h-7.1v-1.56l7.1-.021,0.023-1.933,1.786-.021v1.975l3.132-.021v1.581H237.4Zm2.69-11.043v1.581l-11.446-.023-0.022-1.537,4.742-.021V148.1h-3.97v-1.558l3.97,0.022v-2.635h1.764l0.022,2.613h4.08V148.1h-4.058v2.876Zm-9.284,5.972a6.148,6.148,0,0,1,1.94,1.46,8.668,8.668,0,0,1,1.368,1.854l-1.412,1.143a8.573,8.573,0,0,0-1.489-2.065,5.055,5.055,0,0,0-1.8-1.272Zm13.629,6.871V145.164l7.631-.022v6.981h-5.976l0.044,11.68h-1.7Zm1.676-17.058-0.021,1.075h4.3v-1.054Zm0,2.656-0.021,1.119h4.3V149.4h-4.279Zm11.159,3.82-0.021,7.575h-8.668v-7.575h8.689Zm-7.013,1.6v1.339h5.316l-0.023-1.361Zm0.023,2.942v1.448h5.293l-0.023-1.448h-5.27Zm3.484-5.686-0.022-6.96,7.631,0.022v16.466a1.611,1.611,0,0,1-.364,1.043,2.117,2.117,0,0,1-.85.648,2.661,2.661,0,0,1-.826.175c-0.287.015-.628,0.019-1.026,0.011s-0.683,0-.859.011l-0.685-1.757a11.809,11.809,0,0,0,2.426.11,0.513,0.513,0,0,0,.354-0.175,0.507,0.507,0,0,0,.176-0.352V152.1Zm1.7-5.358v1.054h4.213v-1.054h-4.213Zm0,3.821h4.213V149.4h-4.213v1.142Z"/>
</svg>
