<svg xmlns="http://www.w3.org/2000/svg" width="300" height="600" viewBox="0 0 300 600">
  <defs>
    <style>
      .cls-1 {
        fill: #248700;
        fill-rule: evenodd;
      }
    </style>
  </defs>
  <path id="了解更多_" data-name="了解更多 " class="cls-1" d="M127.554,266.913l0.464,1.032,1.9-.026a0.859,0.859,0,0,0,.7-0.335,1.1,1.1,0,0,0,.245-0.671l0.013-5.742a11.179,11.179,0,0,0,3.522-2.877v-0.865h-8.477V258.4l7.019,0.013a11.724,11.724,0,0,1-3.122,2.258v5.858a0.526,0.526,0,0,1-.065.258,0.224,0.224,0,0,1-.142.129h-2.051Zm15.5-6.168,0.413,0.568a3.807,3.807,0,0,0,1.568-1.258,4.736,4.736,0,0,0,.7-1.826h1.445q-0.181.981-.271,1.29a0.389,0.389,0,0,1-.477.362,4.58,4.58,0,0,1-.917-0.3l0.3,1.071c0.095,0.008.265,0.032,0.51,0.071a2.819,2.819,0,0,0,.574.045,0.886,0.886,0,0,0,.49-0.174,0.865,0.865,0,0,0,.31-0.407,10.832,10.832,0,0,0,.581-2.9h-4.89v0.942h1.406a2.455,2.455,0,0,1-.594,1.368,3.2,3.2,0,0,1-1.174.89v-0.581h-1.355a15.083,15.083,0,0,0,.671-2.077h-2.283a5.818,5.818,0,0,0,.154-0.8l-0.838-.335a7.779,7.779,0,0,1-2.142,4.064l0.813,0.555,0.335-.374v4.012a6.152,6.152,0,0,1-.18.975,4.633,4.633,0,0,1-.284.748,6.1,6.1,0,0,1-.671.974l0.735,0.671a5.957,5.957,0,0,0,1.368-3.045h2.7v1.535a0.386,0.386,0,0,1-.091.252,0.3,0.3,0,0,1-.245.11h-1.135l0.542,0.955h1.019a0.739,0.739,0,0,0,.671-0.349,1.618,1.618,0,0,0,.219-0.877Zm-1.006,1.381h-0.9v-1.3h0.891Zm-2.7,0v-1.3h0.864v1.3h-0.864ZM140.211,263v1.355H139.36L139.347,263h0.864Zm0.929-4.232a4.558,4.558,0,0,1-.212.548,6.355,6.355,0,0,1-.291.575l-1.484.012a8.639,8.639,0,0,0,.555-1.135h1.432Zm0.9,5.587-0.891-.013L141.14,263h0.9v1.355Zm6.787,1.084V264.5H146.65v-1.342h1.5l0.013-.942h-1.51v-1.342l-0.968.013-0.013,1.342-0.632-.013a4.234,4.234,0,0,0,.09-0.839l-0.89-.271a5.721,5.721,0,0,1-.393,1.8,3.592,3.592,0,0,1-.717,1.065l0.994,0.348a4.63,4.63,0,0,0,.658-1.161h0.9V264.5l-2.5.013v0.929h2.49l0.013,2.838h0.968v-2.838h2.181Zm13.083,1.793q-1.2-.025-2.522-0.174a22.056,22.056,0,0,1-2.329-.374,6.216,6.216,0,0,1-1.575-.536,3.835,3.835,0,0,0,.542-0.974,4.843,4.843,0,0,0,.3-1.142H160.1v-4.774h-3.587v-0.955l4.993,0.013V257.4H150.5v0.916l5.058-.013v0.955h-3.7l-0.013,4.774h3.51a4.094,4.094,0,0,1-.265.852,3.547,3.547,0,0,1-.445.774,15.111,15.111,0,0,1-1.884-1.471l-0.748.5a8.764,8.764,0,0,0,1.871,1.652,11.235,11.235,0,0,1-1.942.729,17.285,17.285,0,0,1-1.813.406l0.58,0.865a9.069,9.069,0,0,0,3.7-1.226l0.4-.271a12.026,12.026,0,0,0,2.464.858,23.427,23.427,0,0,0,4.039.523Zm-2.761-6.064h-2.632l0.013-.994h2.619v0.994Zm-6.348-.994,2.748,0.013v0.981h-2.748v-0.994Zm6.361,1.91v1.019H156.43l0.065-1.019h2.671Zm-6.361,0h2.722l-0.051,1.019-2.671-.013v-1.006Zm12.786,3.226a23.857,23.857,0,0,0,2.613-1.278,10.338,10.338,0,0,0,1.465-1.045h3.3a5.352,5.352,0,0,1-.6.832,5.583,5.583,0,0,1-.942.858,10.524,10.524,0,0,1-1.258.788,4.027,4.027,0,0,0-1.329-1.407l-0.929.529a4.635,4.635,0,0,1,1.419,1.29,25.59,25.59,0,0,1-5.78,1.523l0.645,0.89a34.784,34.784,0,0,0,3.755-.851,15.977,15.977,0,0,0,2.277-.9,9.605,9.605,0,0,0,1.852-1.174,7.68,7.68,0,0,0,1.3-1.31,8.852,8.852,0,0,0,.768-1.187l0.013-.864L170.675,262a5.917,5.917,0,0,0,.684-0.916l-0.761-.413a9.29,9.29,0,0,0,.948-0.845,9.084,9.084,0,0,0,.871-0.988v-0.864h-3.639a9.47,9.47,0,0,0,.942-1.032l-0.9-.478a9.933,9.933,0,0,1-4.98,3.123l0.851,0.8a13.76,13.76,0,0,0,2.826-1.432h3.548a12.264,12.264,0,0,1-1.2,1.006,11.382,11.382,0,0,1-1.367.826,5.086,5.086,0,0,0-.691-0.716,4.136,4.136,0,0,0-.755-0.562l-0.9.581a4.485,4.485,0,0,1,1.445,1.084,14.623,14.623,0,0,1-1.8.593q-1.206.336-2.225,0.568l0.619,0.865a26.065,26.065,0,0,0,3.793-1.155,15.776,15.776,0,0,0,2.413-1.194,9.056,9.056,0,0,1-2.3,2.084,16.378,16.378,0,0,1-3.245,1.555Z"/>
</svg>
