<svg xmlns="http://www.w3.org/2000/svg" width="300" height="600" viewBox="0 0 300 600">
  <defs>
    <style>
      .cls-1 {
        fill: #4b286d;
        fill-rule: evenodd;
      }
    </style>
  </defs>
  <path id="攜手讓所有人_保持連繫_" data-name="攜手讓所有人 保持連繫 " class="cls-1" d="M71.394,153.336l-1.711.783v-4.843h1.972v-2.088H69.683v-5.626h-2.2v5.6l-2.987.029v2.088h2.987V154.9a30.591,30.591,0,0,1-3.451,1.682l1.508,1.682q0.29-.115.638-0.261c0.232-.1.5-0.222,0.812-0.377a4.645,4.645,0,0,1,.493-0.232v7.656l-0.174.261a3.815,3.815,0,0,1-1.276.043q-0.9-.072-1.276-0.072a21.692,21.692,0,0,1,.812,2.117h1.058A7.771,7.771,0,0,0,68,167.314a1.924,1.924,0,0,0,1.044-.638,2.342,2.342,0,0,0,.638-1.218v-8.932q1.159-.668,2.088-1.1v-1.74a6.09,6.09,0,0,1,1.1-.9v4.321H90.3v-2.117H82.646V154.7l5.945-.029v-2.117H82.617v-0.29h5.974V150.2H82.617v-0.348h7.047l0.029-2.117H82.24a8.034,8.034,0,0,0-1.8-1.653h8.584v-3.915H86.851v1.8h-5.1v-2.784h-2.2V144l-4.959-.029v-1.624H72.409v3.741h1.479a12.105,12.105,0,0,1-.9,2.552,8.558,8.558,0,0,1-1.363,2.044,10.535,10.535,0,0,1-1.537,1.407Zm9.048-3.451V150.2H75.077v-0.348Zm0,2.378v0.29l-5.365.029v-0.319h5.365Zm0,2.436v0.29H75.106l-0.029-.319Zm-5.075-6.96a9.047,9.047,0,0,0,.58-1.131,12.8,12.8,0,0,0-1.45-.522l5.742,0.058a14.859,14.859,0,0,0-1.74,1.247l0.667,0.348h-3.8Zm2.32,11.716a1.736,1.736,0,0,1-.7.986,7.842,7.842,0,0,1-2.117,1.044l-0.783.2v-2.233h3.6Zm6.612,6.293,0.058-.493a12.867,12.867,0,0,0,.7,1.769,10.255,10.255,0,0,0,2.552-.116,2.524,2.524,0,0,0,1.145-.827,2.015,2.015,0,0,0,.479-1.29L89.2,157.367H71.916l0.029,10.092H74.12l-0.029-4.872,0.9,1.044a9.022,9.022,0,0,0,1.827-.725l-0.029,2.842H84.3Zm-5.046-4.872a2.022,2.022,0,0,0,.406-0.8,3.014,3.014,0,0,0,.116-0.623h2.146a1.993,1.993,0,0,0,.174,1.421H79.253Zm4.843-1.421H87v0.928l-2.552-.029a0.515,0.515,0,0,1-.348-0.377v-0.522Zm-5.133,4.176,0.029-.667h3.074l0.029,0.667H78.963Zm5.336-1.16H87v2a0.834,0.834,0,0,1-.348.493,3.543,3.543,0,0,1-1.261.029q-0.914-.087-1.088-0.087v-2.436Zm21-12.615h-8.7l0.029,2.117h8.7L105.3,156.41H94.188l0.029,2.088H105.3v6.09a1,1,0,0,1-.247.754,1.143,1.143,0,0,1-.739.261q-0.755.029-3.654-.232l0.812,2.378h4q2.058,0,2.059-2.32V158.5H118.2v-2.117l-10.643.029v-4.437h8.265v-2.117h-8.265v-4.292a38.829,38.829,0,0,0,9.367-2.291l-1.218-1.653a43.813,43.813,0,0,1-9.657,2A84.287,84.287,0,0,1,95,144.143l1.305,2.146q6.612-.174,8.99-0.464v4.031Zm26.3,14.964a22.606,22.606,0,0,0,2.929-.986v1.653a0.51,0.51,0,0,1-.218.159q-0.159.073-.855,0.334l1.1,1.74q1.449-.581,5.829-1.8l-0.058-1.943q-1.131.232-3.654,0.9v-2.349a9.161,9.161,0,0,0,1.856-1.8h0.7a10.757,10.757,0,0,0,1.044,2.32,8.039,8.039,0,0,0,2.972,3,13.883,13.883,0,0,0,4.307,1.639l0.928-1.914a9.339,9.339,0,0,1-2-.421,11.228,11.228,0,0,1-2.407-1.174,12.372,12.372,0,0,0,2.9-2.262l-1.334-1.218h1.885l-0.029-1.943h-4.234v-1.131H146.3v-1.943h-3.045v-0.928h3.915v-1.914h-3.886v-1.218h3.161v-4.9h-6.7v4.959l1.508-.029-0.029,1.189H137.05a6.055,6.055,0,0,1,0-1.189h1.421v-4.93H131.8v4.93h3.219v1.189h-3.886l0.029,1.914h3.886v0.9l-2.958.029V157.6h2.958v1.16H130.96v1.972l4.93,0.058a12.911,12.911,0,0,1-5.481,2.291v-5.51h-6.583v9.6h2.088v-2h2.436v1.972h2.059l0.058-3.741Zm9.657-7.192-0.029,1.131h-4.06v-1.131h4.089Zm-0.029-2.871v0.928H137.05v-0.928h4.176Zm4.234,5.916a12.181,12.181,0,0,1-2.871,2.291,6.317,6.317,0,0,1-.638-1.059,10.489,10.489,0,0,1-.551-1.232h4.06Zm-17.168-1.131V163.2h-2.378l0.029-3.654h2.349Zm16.153-9.715h-2.7v-1.334h2.7v1.334Zm-10.7-1.334H136.5v1.392h-2.755v-1.392Zm-3.045-2.726-3.161-.058,1.1-.464a16.438,16.438,0,0,0-1.146-2.117,10.229,10.229,0,0,0-1.348-1.74l-1.943,1.044a9.556,9.556,0,0,1,1.508,1.827,10.8,10.8,0,0,1,.725,1.508h-4l0.029,2.03h8.845v-1.943l16.414,0.029v-2.03h-7.511a16.706,16.706,0,0,0-2.146-2.494l-2,1.044q1.421,1.19,1.508,1.29c0.058,0.068.106,0.121,0.145,0.16l-6.989-.029Zm0.174,3.683h-7.308v2.059l7.308-.029v-2.03Zm0,3.857h-7.308v2.059h7.308v-2.059Zm32.422,14.384q0.029-.03.826-0.972a10.33,10.33,0,0,0,1.088-1.464,22.867,22.867,0,0,0,2.61-9.657q0.029-.377.029-1.392a11.6,11.6,0,0,1,.058-1.421l3.422,0.029v14.819h2.291l-0.029-14.819,3.944-.029,0.029-2.088-9.686-.058v-4.031a22.171,22.171,0,0,0,8.845-3.509l-1.711-1.711a22.806,22.806,0,0,1-4.539,2.247,17.91,17.91,0,0,1-4.973,1.117l0.029,9.744a22.962,22.962,0,0,1-.45,4.683,15.006,15.006,0,0,1-1.406,3.973,12.789,12.789,0,0,1-2.465,3.263Zm-8.584-11.339a15.065,15.065,0,0,1-3.538,10.266l1.943,1.305a15.31,15.31,0,0,0,2.508-4.075,24.34,24.34,0,0,0,1.407-6.452h6.612V148.2H157v-2.146a23.751,23.751,0,0,0,8.149-2.929l-1.682-1.653a20.68,20.68,0,0,1-8.787,2.726Zm6.7-5.916v4.843h-4.379v-4.9Zm20.677,8.845q2.639-2.7,3.523-3.712a19.308,19.308,0,0,0,1.378-1.74v13.833h2.291v-6.148l10.933,0.029v2.871a0.472,0.472,0,0,1-.16.333,0.53,0.53,0,0,1-.391.16,21.432,21.432,0,0,1-3.654-.145q0.261,0.667,1.015,2.233h1.667a11.615,11.615,0,0,0,2.19-.145,2.508,2.508,0,0,0,1.029-.725,1.959,1.959,0,0,0,.479-1.1V150.2H189.25q0.377-.783,1.044-2.7l15.6-.029V145.39H191.135q0.7-2.377.957-3.6l-2.233-.493q-0.581,2.408-.8,3.088t-0.333.972h-6.9v2.117l6.09,0.029a19.3,19.3,0,0,1-2.973,5.263,37.929,37.929,0,0,1-4.886,5.177Zm18.067-6.96V154.7l-10.875-.029v-2.349h10.875Zm-10.933,4.466,10.962,0.029v2.61H189.221v-2.639ZM221.382,142.4q0,0.494-.015,1.856t-0.043,2.508q-0.03,1.146-.131,2.61a21.1,21.1,0,0,1-.435,3,12.04,12.04,0,0,1-.913,2.726,18.331,18.331,0,0,1-2.074,3.436,27.319,27.319,0,0,1-2.682,2.886,29.774,29.774,0,0,1-5.278,3.944l1.74,1.711a25.339,25.339,0,0,0,4.814-3.437,24.307,24.307,0,0,0,3.871-4.321,16.529,16.529,0,0,0,2.074-3.842,23.618,23.618,0,0,0,3.016,5.263,20.355,20.355,0,0,0,3.6,3.6,30.683,30.683,0,0,0,4.5,2.828l1.682-1.885a21.433,21.433,0,0,1-4.814-2.813,19.065,19.065,0,0,1-3.683-3.886,26.866,26.866,0,0,1-2.987-5.655,3.672,3.672,0,0,0-.16-0.348,1.887,1.887,0,0,1-.174-0.493,1.822,1.822,0,0,1-.014-0.522,82.429,82.429,0,0,0,.435-9.164h-2.32Zm-122,34.046a23.015,23.015,0,0,1-2.189,7.148,24.341,24.341,0,0,1-4.422,6.1l1.624,1.566L95,190.659q0.435-.435,2.291-2.813v14.848h2.175V184.018a30.529,30.529,0,0,0,1.131-3.234,27.549,27.549,0,0,0,.783-3.436Zm18.647,15.2v-2.117h-7.6v-2.32h5.452V177.87H102.511v9.338l5.742-.029v2.349h-7.772v2.117H106.4a18.282,18.282,0,0,1-2.146,3.465,13.715,13.715,0,0,1-2.465,2.494,12.737,12.737,0,0,1-2.146,1.349l1.624,1.682a14.708,14.708,0,0,0,2.653-1.914,17.751,17.751,0,0,0,2.6-2.9,13.176,13.176,0,0,0,1.74-3.1l-0.029,9.889h2.2l0.058-10.266a15.216,15.216,0,0,0,7.54,8.207l1.711-1.624a19.309,19.309,0,0,1-4.6-3.147,11.065,11.065,0,0,1-2.653-4.132h5.539Zm-4.35-6.554h-8.961l-0.029-5.133h9.019Zm10.034,17.371h2.7a2.464,2.464,0,0,0,1.74-.566,2.165,2.165,0,0,0,.609-1.667l0.029-8.352,3.335-1.247v-2.349l-3.335,1.363V184.25h3.509l-0.029-2.059h-3.48V176.42h-2.233l0.029,5.771h-3.973v2.059h3.973V190.4q-0.754.29-2.625,0.884t-2.073.653l1.45,1.827a16.886,16.886,0,0,0,1.682-.537,15.915,15.915,0,0,0,1.566-.652v6.989a0.806,0.806,0,0,1-.29.667,3.021,3.021,0,0,1-.943.159,12.489,12.489,0,0,1-1.29-.043q-0.754-.058-1.044-0.058Zm17.806-.029a2.933,2.933,0,0,0,1.667-.711,2.4,2.4,0,0,0,.653-1.435V193.24h4.292v-2.059h-4.263v-2.233h-2.2l-0.029,2.233H131.453v2.059h10.179v6.583a0.773,0.773,0,0,1-.58.493,27.512,27.512,0,0,1-3.306-.145,15.249,15.249,0,0,0,.841,2.233Zm-0.638-26.042h-2.233v4.089h-5.6l-0.029,2.059h5.626v3.6h-6.67v2.088l15.979-.029v-2.059l-7.076.029v-3.6l5.481-.029V180.48h-5.481v-4.089Zm-1.769,21.17a18.675,18.675,0,0,0-5.249-3.48l-1.45,1.595a19.952,19.952,0,0,1,5.22,3.509Zm27,1.45,2.2-.029v-2.813l8.149-.029v-2.088h-8.149v-1.566l6.351,0.029V182.162h-6.351v-1.334h7.627V178.74l-7.627-.029v-2.2h-2.2v2.2l-7.8.029v2.117l7.8-.029v1.334h-6.293l-0.029,10.353,6.322-.029v1.566H158.22v2.088h7.888v2.871Zm6.351-12.731h-4.147v-2l4.176-.029Zm-6.351,2.117v2H161.99v-2h4.118Zm0-4.147v2.03h-4.089l-0.029-2Zm6.351,4.147v2h-4.147v-2.03Zm-15.225-6.67a14.368,14.368,0,0,0-3.422-5.162l-1.827,1.247a11.8,11.8,0,0,1,3.393,5.1Zm-4.118,20.88a33.687,33.687,0,0,0,2.189-2.6,13.115,13.115,0,0,0,.769-1.174,13.412,13.412,0,0,0,7.859,2.494h12.644l0.87-2.291-2.32.087-8.352.116a24.186,24.186,0,0,1-5.713-.464,11.065,11.065,0,0,1-4.06-1.827,10.16,10.16,0,0,0,.9-2.567q0.318-1.464.551-3.523h-3.509a15.373,15.373,0,0,0,1.841-2.567,32.789,32.789,0,0,0,1.552-2.943v-1.914h-6.96v2.088H155.9a21.135,21.135,0,0,1-3.944,5.6l0.029,1.827,4,0.029a12.346,12.346,0,0,1-.74,2.465,13.794,13.794,0,0,1-1.754,3.03,22.7,22.7,0,0,1-2.7,3.031Zm27.695-14.79H187.1v1.1h-2.929v-0.841h-1.943v2.668L190.9,190.8a14.17,14.17,0,0,1-6.9,1.972l1.247,2.262q3.769-.377,6.322-0.377a32.425,32.425,0,0,1-3.857.986q-1.857.348-5.017,0.812,0.261,0.377.7,1.131a11.811,11.811,0,0,0,.7,1.1q1.653-.233,5.6-0.522a22.244,22.244,0,0,1-8.787,1.566q0.261,0.407.754,1.058t0.725,1a29.6,29.6,0,0,0,5.394-.885,24.439,24.439,0,0,0,4.089-1.667l-0.986-1.16,2.03-.116,0.029,2.349a0.79,0.79,0,0,1-.551.319,27.3,27.3,0,0,1-2.929-.116l1.015,2.088a11.533,11.533,0,0,1,1.2,0,7.539,7.539,0,0,0,1.32-.044,2.756,2.756,0,0,0,.812-0.246,2.245,2.245,0,0,0,.884-0.841,2.211,2.211,0,0,0,.334-1.16v-2.465q2.928-.2,8-0.435a15.146,15.146,0,0,1,1.682,1.624l1.595-1.479a15.985,15.985,0,0,0-6.438-4.118q-1.276,1.131-1.711,1.595a14.759,14.759,0,0,1,2.32.725q-5.163.115-7.076,0.116a36.952,36.952,0,0,0,8.99-4.06l-1.943-1.421a46.584,46.584,0,0,1-4.06,2.32q-0.987.029-2.944-.015t-2.566-.043a9.027,9.027,0,0,0,1.464-.493,10.462,10.462,0,0,0,1.436-.725l-0.841-.7h1.218v-2.668h-2.03l0.029,0.841h-2.929v-1.1h6.38v-1.8h-6.38V185.7h4.988v-3.016l1.16,0.986h-0.2v2.03h1.421a9.214,9.214,0,0,0,1.856,2.2,18.347,18.347,0,0,1-4.176,1.334l1.276,1.827a20.7,20.7,0,0,0,4.7-1.827,16.418,16.418,0,0,0,4.553,2.03l1.479-1.769a21.261,21.261,0,0,1-4.234-1.421,11.066,11.066,0,0,0,2.61-2.61V183.7l-8.5-.058a4.183,4.183,0,0,0,2.726-3.857h2.407v0.565q0,0.45.043,0.885a2.52,2.52,0,0,0,.218.812,2.027,2.027,0,0,0,.594.667,1.547,1.547,0,0,0,.827.319h2.842v-1.914h-2a0.435,0.435,0,0,1-.493-0.493v-2.813h-6.438q0,2-.058,2.523a2.237,2.237,0,0,1-.885,1.116,7.354,7.354,0,0,1-1.725.827v-2.262H189.25l-0.029-.348,5.916-.029,0.029-1.682h-5.945V176.71H187.1l0.029,1.247H181.3v1.711h5.829v0.348h-4.872v5.713h4.872v0.29l-6.322-.029v1.827Zm6.322-5.742h-2.871V181.7h2.871v0.377Zm5.046,0-2.929-.029-0.029-.377h2.958v0.406Zm-5.046,1.914-2.842.029v-0.377h2.842v0.348Zm5.046,0H189.25v-0.348l2.929,0.029v0.319ZM196.5,198l-1.189,1.885a19.348,19.348,0,0,1,9.309,2.32l1.276-1.769A20.979,20.979,0,0,0,196.5,198h0Zm5.336-12.267a7.811,7.811,0,0,1-.725.565q-0.581.421-.783,0.566a5.885,5.885,0,0,1-.682-0.58q-0.391-.376-0.536-0.551h2.726Z"/>
</svg>
