<svg xmlns="http://www.w3.org/2000/svg" width="300" height="600" viewBox="0 0 300 600">
  <defs>
    <style>
      .cls-1 {
        fill: #4b286d;
        fill-rule: evenodd;
      }
    </style>
  </defs>
  <path id="我們為需要幫助的人_提供上網及_手機補貼計劃_" data-name="我們為需要幫助的人 提供上網及 手機補貼計劃 " class="cls-1" d="M35.438,120.149a86.206,86.206,0,0,0,.174,8.845l-5.394.029V124.3q0.377-.146,1.029-0.479t3.35-1.9l-1.45-1.653a35.2,35.2,0,0,1-3.813,1.841,19.033,19.033,0,0,1-3.379.972,23.511,23.511,0,0,1-4.147.377,18.144,18.144,0,0,1,1.363,2.175,19.422,19.422,0,0,0,2.465-.261,12.466,12.466,0,0,0,2.233-.522v4.176H21.953l0.029,2.175,5.916,0.029v4.843q-3.625.928-6.67,1.508l1.624,2.117,5.075-1.363v4.727a0.721,0.721,0,0,1-.667.754l-3.567-.087,0.812,2.262q0.406-.03,1.566,0a14.306,14.306,0,0,0,1.813-.044A4.657,4.657,0,0,0,29,145.7a2.312,2.312,0,0,0,1.247-2l0.029-6,4.437-1.189-0.029-2.233L30.276,135.4l-0.029-4.176h5.568a35.691,35.691,0,0,0,1.624,7.279,27.634,27.634,0,0,1-6.554,4.205l1.943,1.624a30.785,30.785,0,0,0,5.626-3.654,15.764,15.764,0,0,0,3.132,3.944A4.894,4.894,0,0,0,43.5,145.8a3.088,3.088,0,0,0,1.073.015,2.051,2.051,0,0,0,.957-1.015,17.846,17.846,0,0,0,.986-4.785l-2.262-.87a16.493,16.493,0,0,1-.725,4.031q-0.116.32-.594-0.189a23.127,23.127,0,0,1-1.609-2.1,13.188,13.188,0,0,1-1.16-1.914,25.559,25.559,0,0,0,4.35-6.119l-1.972-.841a22.037,22.037,0,0,1-3.248,4.756,31.813,31.813,0,0,1-1.16-5.568h7.511v-2.175H37.932q-0.116-1.421-.189-4.191t-0.072-4.683H35.438Zm2.958,2.9a11.264,11.264,0,0,1,3,2.03,8.441,8.441,0,0,1,1.986,2.784,13.777,13.777,0,0,0,1.856-1.595,9.475,9.475,0,0,0-2.146-2.8,14.118,14.118,0,0,0-2.842-2.1Zm22.794,5.017h3.074l0.029,2.436h-3.1v-2.436Zm8.961,17.748a11.77,11.77,0,0,1,1.29.014,5.928,5.928,0,0,0,1.523-.087,4.06,4.06,0,0,0,1.015-.362,2.614,2.614,0,0,0,.826-0.986,4.708,4.708,0,0,0,.275-1.885L75.052,121.57l-7.54-.058v11.107h5.249L72.79,142.74a0.984,0.984,0,0,1-.189.638,0.682,0.682,0,0,1-.478.261q-0.377.028-1.3,0t-1.2-.029H69.136Zm2.7-22.243-0.058,2.407h-3.1l0.029-2.378Zm-0.058,4.5v2.465l-3.1-.029v-2.436h3.1Zm-6.264-6.554H58.841l0.029,24.737,2.233,0.058,0.029-13.688h5.423Zm-2.233,2.117-0.029,2.378-2.987.029v-2.378Zm-8.236-3.741q-0.928,2.843-1.914,5.249a37.638,37.638,0,0,1-2.074,4.321A35.965,35.965,0,0,1,50,132.735l2.03,1.1q0.319-.406.667-0.885t0.783-1.116q0.435-.638.522-0.783v15.254H56.26V126.384a56.755,56.755,0,0,0,1.856-5.684Zm25.607,4.872v2.146l6.844,0.029a21.014,21.014,0,0,1-.928,2.813l-4.06-.029v2.146h3.219a15.662,15.662,0,0,1-1.45,2.465,14.059,14.059,0,0,1-2.523,3.059,25.376,25.376,0,0,1-3.509,2.741l1.624,1.74a21.025,21.025,0,0,0,5.365-5.1l15.631-.029q-0.058.522-.261,2.349t-0.348,2.784q-0.145.957-.261,1.45a1.53,1.53,0,0,1-.406.464,1.036,1.036,0,0,1-.493.232,9.43,9.43,0,0,1-1.276-.087l-1.479-.2q-0.841-.115-1.189-0.174l0.261,2.2,2.552,0.348q2.928,0.231,3.857-1.537a8.831,8.831,0,0,0,.493-1.827q0.144-.928.406-2.813a48.488,48.488,0,0,0,.406-5.278l-2.755-.029a31.068,31.068,0,0,0,.754-4.843l-2.523-.029q0.319-1.392.87-4.988l-9.28.029a32.193,32.193,0,0,0,.319-4.437l-2.349-.406q-0.145,2.784-.232,3.61t-0.145,1.2l-2-.058,1.3-.783a10.861,10.861,0,0,0-1.784-2.146,6.742,6.742,0,0,0-2.16-1.392l-1.711,1.363a10.716,10.716,0,0,1,2.248,1.305,4.6,4.6,0,0,1,1.233,1.711H81.664Zm16.153,2.146q-0.087.319-.275,1.377a13.886,13.886,0,0,1-.334,1.523l-7.134-.058a8.124,8.124,0,0,0,.551-1.682q0.261-1.1.261-1.16h6.931ZM87.725,134.62q0.928-1.595,1.479-2.726H99.615c-0.019.077-.078,0.416-0.174,1.015s-0.174,1.02-.232,1.261-0.1.4-.116,0.479Zm8.526,3.364a12.008,12.008,0,0,1,1.581,2.392,6.648,6.648,0,0,1,.537,1.784q0.348-.087,1-0.29t1.03-.29a8.047,8.047,0,0,0-2.146-4.176Zm-4.408.812a8.254,8.254,0,0,1,.841,1.247,6.69,6.69,0,0,1,.638,1.653,9.18,9.18,0,0,1,.261,1.972l2.233-.609a9.27,9.27,0,0,0-1.885-4.756Zm-8.584,7.076a18.824,18.824,0,0,0,2.262-2.726,10.469,10.469,0,0,0,.986-1.856,8.429,8.429,0,0,0,.58-2.2l-2-.377a9.768,9.768,0,0,1-1.305,3.175,16.733,16.733,0,0,1-2.726,3Zm7.8-1.334a10.925,10.925,0,0,0-1.218-5.626l-2.2.348a8.49,8.49,0,0,1,1.1,5.771Zm19.778-23.055v2.059h9.077v1.3l-10.5.029,0.029,4.408,2.03-.058-0.029-2.407,8.526,0.029-0.029,6.554h2.233l-0.029-6.554,8.526-.029,0.029,2.32,2.175-.029-0.058-4.263H122.206l0.029-1.276,8.961-.029v-2.088Zm12.557,6.235v1.8h6.438v-1.8H123.4Zm-4.756.145H112.2v1.769h6.438v-1.769ZM129.8,132.59v-1.769H123.4v1.769H129.8Zm-11.136-1.74H112.2v1.769h6.467V130.85Zm-7.859,6.786v8.671h2.117v-6.641l4.147-.029v5.1l2.117-.029v-4.988l3.77-.058v5.1h2.146v-5.1h3.973v3.393a0.513,0.513,0,0,1-.435.638,5.091,5.091,0,0,1-1.291.029q-0.913-.058-1.174-0.058l0.725,2.117c0.154,0,.449.009,0.884,0.029a9.083,9.083,0,0,0,1.16-.015,3.283,3.283,0,0,0,.943-0.217,1.948,1.948,0,0,0,1.392-1.8v-6.119h-9.947a19.987,19.987,0,0,0,.7-1.914l11.4-.029v-2H108.75v2.059l11.136-.029a9.172,9.172,0,0,1-.9,1.885h-8.178Zm37.932-4.2-2.117,2.233-8.41.029v2.059h6.438l-3.1,3.422q5.249,0.55,6.844.841a27.627,27.627,0,0,1-5.206,1.45,51.074,51.074,0,0,1-6.22.638l1.537,2.03a41.945,41.945,0,0,0,7.453-1.189,23.628,23.628,0,0,0,6-2.291,44.649,44.649,0,0,1,4.408,1.566,46.232,46.232,0,0,1,4.437,2.059l1.566-1.711a35.636,35.636,0,0,0-3.393-1.769,34.728,34.728,0,0,0-4.611-1.8,12.478,12.478,0,0,0,1.58-1.479,14.864,14.864,0,0,0,1.436-1.8l4.93-.029,0.029-2H149.5l1.218-1.334-1.189-.957h10.933l0.029-7.772-6.09.058,0.029-2h8.149v-2.03h-24.65v2.059l8.236,0.029v1.943l-5.974-.058,0.029,7.772Zm3.393-5.742,0.029,3.654h-3.741v-3.654h3.712Zm0-4v1.943h-3.712v-1.943h3.712Zm-9.715,4h3.741l-0.058,3.625h-3.683v-3.625Zm15.747,0,0.029,3.654h-3.77v-3.654h3.741Zm-3.422,10.034a12.167,12.167,0,0,1-3.132,2.552l-1.943-.348q-0.813-.145-2.045-0.29t-1.58-.2l1.595-1.74Zm35.641,1.653H180.148l0.029-.783,7.975-.029v-7.018l-7.308-.058a2.076,2.076,0,0,0,.725-0.493,11.554,11.554,0,0,0,.957-0.9l-1.8-.986-0.319.319-0.174-.841-5.742.464v-0.7h4.785v-1.943h-4.785v-0.464h5.481v-1.943h-5.51V123.4h4.814V121.57l-4.785-.029-0.029-1.392-2.117.029v1.334H167.5l0.029,1.885,4.814,0.029v0.58H166.46v1.943h5.916l0.029,0.464-4.843.029,0.058,1.856,4.756,0.029v0.928q-4.089.32-6.322,0.377l0.754,1.711,12.731-1.015a10.188,10.188,0,0,1-1.566,1.218h-8.091v7.018h7.975v0.812h-9.686l0.029,5.452,2.117-.029,0.029-3.422h7.54V146.1l2.262,0.029v-4.785h8.12v0.841a0.621,0.621,0,0,1-.551.348h-0.624q-0.3,0-3.262-.116l0.667,2q4.059,0.087,4.756-.319a2.42,2.42,0,0,0,.812-0.783,1.734,1.734,0,0,0,.319-0.928v-3.016ZM172,134.156l0.029-.638,13.978-.029v0.638Zm0,2.436,0.029-.667,14.007,0.029v0.667Zm15.544-5.771a2.414,2.414,0,0,0,1.305-.754,1.868,1.868,0,0,0,.522-1.276v-4.118l2.552,0.029,0.029-2.059H189.37v-2.581h-2.233l0.029,2.552-6.989.029-0.029,2.03,7.018-.058-0.029,3.654a0.735,0.735,0,0,1-.131.493,0.747,0.747,0,0,1-.42.2,8.444,8.444,0,0,1-1.421,0q-0.929-.059-1.276-0.058l0.754,1.914h2.9Zm-1.16-3.567a13.616,13.616,0,0,0-4.785-2.233l-1.218,1.45a10.734,10.734,0,0,1,2.537.9,14.384,14.384,0,0,1,2.277,1.334Zm22.156,10.556-1.8.667,0.029-16.762h-9.164l-0.029,19.43-2.581.783q0.144,0.174.638,0.841t0.783,1.131l12.122-3.8V137.81Zm-4.06-4.147h-4.611v-3.944l4.611-.058v4Zm0-6.09-4.524.029v-3.8l4.553,0.029Zm-4.611,8.207h4.64l-0.029,3.364-4.611,1.334v-4.7Zm14.239-9.309,0.145-6.322-2.262-.029q0.028,2.551-.087,6.38h-4.147v2.059l4.06,0.029q-0.145,2.234-.551,5.452a10.4,10.4,0,0,1-1.1,3.61,13.524,13.524,0,0,1-1.871,2.784,20.091,20.091,0,0,1-2.175,2.088,17.806,17.806,0,0,1-2.682,1.813l1.392,1.566,0.116,0.319a28,28,0,0,0,3.523-2.77,19.037,19.037,0,0,0,2.683-3.03,11.115,11.115,0,0,0,1.392-2.639,17.461,17.461,0,0,0,.8-2.973q0.276-1.551.479-3.77t0.232-2.479l3.915,0.029q-0.609,11.136-2.059,14.21a1.214,1.214,0,0,1-1.189.435,26.911,26.911,0,0,1-3.161-.725l0.261,2.407q0.318,0.057,1.595.319a6.505,6.505,0,0,0,1.87.188,6.439,6.439,0,0,0,.8-0.13,3.045,3.045,0,0,0,1.566-1.088,4.273,4.273,0,0,0,.9-1.783,70.923,70.923,0,0,0,1.45-10.324l0.319-5.626h-6.206Zm25.781-6.5a25.6,25.6,0,0,1-4.379,11.078l0.029-5.713H231.1a18.411,18.411,0,0,0,1.566-4.292l-2.088-.841a17.661,17.661,0,0,1-1.769,5.133h-2.668v20.068h2.291v-2.349l4.872-.029c0,0.1-.01.42-0.029,0.971a10.517,10.517,0,0,0,.029,1.407l2.233-.029V132.01l1.508,0.957a23.473,23.473,0,0,0,3.364-6.061h6.177a92.272,92.272,0,0,1-.957,12.818,18.336,18.336,0,0,1-.957,3.422,1.076,1.076,0,0,1-1.1.522,21.538,21.538,0,0,1-4.379-1.218l0.377,2.436a28.593,28.593,0,0,0,3.813.9,5.088,5.088,0,0,0,1.349,0,2.583,2.583,0,0,0,1.218-.725,4.2,4.2,0,0,0,1.015-1.711,26.681,26.681,0,0,0,1.015-4.133q0.348-2.132.478-3.929t0.189-3.321q0.057-1.523.087-3.973t0.058-3.117h-7.83q0.115-.406.478-1.508t0.522-1.74q0.159-.638.247-1.131Zm-6.67,7.424v5.655l-4.814-.029-0.029-5.626h4.843Zm-4.785,13.543v-5.8l4.814-.029,0.029,5.858Zm16.414-2.871a21.688,21.688,0,0,0-1.711-3.625A25.549,25.549,0,0,0,240.613,131l-1.8,1.189A25.39,25.39,0,0,1,242.759,139ZM265.089,120.9q0,0.493-.015,1.856t-0.043,2.508q-0.03,1.146-.131,2.61a21.1,21.1,0,0,1-.435,3,12.04,12.04,0,0,1-.913,2.726,18.331,18.331,0,0,1-2.074,3.436,27.319,27.319,0,0,1-2.682,2.886,29.774,29.774,0,0,1-5.278,3.944l1.74,1.711a25.339,25.339,0,0,0,4.814-3.437,24.307,24.307,0,0,0,3.871-4.321,16.529,16.529,0,0,0,2.074-3.842,23.618,23.618,0,0,0,3.016,5.263,20.355,20.355,0,0,0,3.6,3.6,30.683,30.683,0,0,0,4.5,2.828l1.682-1.885a21.433,21.433,0,0,1-4.814-2.813,19.065,19.065,0,0,1-3.683-3.886,26.866,26.866,0,0,1-2.987-5.655,3.672,3.672,0,0,0-.16-0.348,1.887,1.887,0,0,1-.174-0.493,1.822,1.822,0,0,1-.014-0.522,82.429,82.429,0,0,0,.435-9.164h-2.32ZM89.465,166.288l12.673,0.058V156.2l-12.644.029Zm10.5-7.946v1.769l-8.323.029v-1.827Zm0,3.886V164.2H91.64l0.029-1.943Zm-20.474.522h3.683l-0.029,6.09a22.818,22.818,0,0,1-2.32.826q-1.537.479-1.972,0.624l1.45,1.856a27.829,27.829,0,0,0,2.871-1.131v6.641a1.455,1.455,0,0,1-.087.754,0.55,0.55,0,0,1-.464.406,4.933,4.933,0,0,1-1.45.043q-1.015-.072-1.45-0.072l0.7,2.117a11.16,11.16,0,0,0,3.306-.174,2.214,2.214,0,0,0,1.189-.812,2.042,2.042,0,0,0,.464-1.247l0.029-8.41,2.639-1.189,0.058-2.349-2.726,1.218V162.75h3.132l-0.029-2.088H85.4v-5.539H83.143l0.029,5.539H79.46Zm7.743,18.415a8.457,8.457,0,0,0,1.9-1.61,10.659,10.659,0,0,0,1.581-2.595,10.072,10.072,0,0,0,3.582,1.972,14.7,14.7,0,0,0,4.394.725l6,0.058,0.87-2.262q-4.757.174-5.452,0.188t-1.682-.058q-0.986-.072-1.334-0.13V174.5h5.713v-2.146H97.063v-2.523h7.366v-2.117l-16.153.029V169.8l6.612,0.029,0.029,7.134A12.938,12.938,0,0,1,92.945,176a4.962,4.962,0,0,1-1.595-1.334,20.729,20.729,0,0,0,.261-3.451l-2.175-.29a10.618,10.618,0,0,1-.725,5.089,7.556,7.556,0,0,1-2.987,3.524Zm32.451-26.187,0.029,5.684-3.161-.058-0.029,2.233,3.19-.029-0.029,6.322h-4.06l0.029,2.175,18.1-.029V169.13H129.63l-0.029-6.322h3.306l0.029-2.2-3.306-.029-0.029-5.626h-2.233l-0.029,5.713-5.394-.058,0.029-5.655Zm7.627,7.83-0.029,6.322h-5.307v-6.38Zm-12.3-8.207q-0.522,1.653-1.465,3.9a34,34,0,0,1-2.479,4.727,25.575,25.575,0,0,1-3.335,4.336l1.885,1.334A23.415,23.415,0,0,0,112,165.94v15.138l2.2-.029,0.029-18.676a58.268,58.268,0,0,0,2.842-6.815Zm1.914,26.506a24,24,0,0,0,6.467-7.54l-1.885-1.218a24.69,24.69,0,0,1-6.264,7.134Zm8.7-7.25a25.682,25.682,0,0,1,3.828,3.32,19.8,19.8,0,0,1,2.871,3.843,11.582,11.582,0,0,0,.957-0.682,9.757,9.757,0,0,1,.87-0.623,22.192,22.192,0,0,0-1.871-2.683,19.831,19.831,0,0,0-2.189-2.334,33.48,33.48,0,0,0-2.61-2.146Zm12.5,2.813v2.117l24.215,0.029V176.67h-12.5L149.872,166h9.918V163.91l-9.918-.029-0.029-8.41H147.61v21.2h-9.483ZM176,156.312l-0.058,15.138a7.423,7.423,0,0,0-.58-2.045,8.521,8.521,0,0,0-1.131-1.841l-2,.638a5.636,5.636,0,0,1,1.16,1.508,34.482,34.482,0,0,1-3.48.406,18.768,18.768,0,0,0,3.016-3.654,22.234,22.234,0,0,0,2.349-4.7l-2.03-.9a11.485,11.485,0,0,1-.841,2.291q-0.813.115-3.132,0.29a24.964,24.964,0,0,0,2.871-4.234,18.394,18.394,0,0,0,1.1-2.958l-1.972-.87a13.515,13.515,0,0,1-1.842,4.466,26.222,26.222,0,0,1-3.291,4.089l1.247,1.885a23.671,23.671,0,0,1,3.857-.522,18.956,18.956,0,0,1-4.756,5.423l1.479,2.03a53.668,53.668,0,0,1,6.061-1.015,4.771,4.771,0,0,1,.174,1.247l1.8-.58-0.029,8.613h2.2V158.429h10.092v19.343a0.787,0.787,0,0,1-.261.594,0.724,0.724,0,0,1-.58.218l-3.422-.116,0.754,2.117h3.828a1.8,1.8,0,0,0,1.392-.566,2.115,2.115,0,0,0,.522-1.493l-0.029-22.214H176Zm6.032,9.338-1.45.783a6.411,6.411,0,0,1,2.32,2.639h-4.234v2.117h1.595l-0.029,2.842a2.4,2.4,0,0,0,.522,1.74,2.117,2.117,0,0,0,1.653.609l4.7-.029-0.029-2.059h-3.973a0.64,0.64,0,0,1-.45-0.218,0.763,0.763,0,0,1-.217-0.565v-2.32H187.8v-2.117l-3.509-.029,0.551-.348a8.073,8.073,0,0,0-.943-1.74,6.407,6.407,0,0,0-1.261-1.363l5.452,0.029V163.5h-2.668a9.987,9.987,0,0,0,1.29-2.349q0.478-1.246.624-1.711l-2.117-.928a9.686,9.686,0,0,1-2.146,4.988l-1.566-.058,1.479-.7q-1.248-3.278-2.929-4.089l-1.682.986a6.957,6.957,0,0,1,2.755,3.857h-2.871l0.029,2.117ZM175.537,178a12.37,12.37,0,0,0-.319-2.668,7.391,7.391,0,0,0-.957-2.233l-1.943.464a7.688,7.688,0,0,1,1.247,4.9ZM168,180.237a12.609,12.609,0,0,0,1.769-6.409l-1.885-.493a10.528,10.528,0,0,1-.464,3.509,16.88,16.88,0,0,1-1.276,2.842Zm4.176-1.131a10.011,10.011,0,0,0,.275-2.915,7.59,7.59,0,0,0-.594-2.711l-2,.174a7.765,7.765,0,0,1,.232,5.655Zm29.609,1.885a21.571,21.571,0,0,0,8.555-4.553,26.4,26.4,0,0,0,8.961,4.553l1.363-2.088a24.551,24.551,0,0,1-8.584-4.06,24.475,24.475,0,0,0,3.683-4.872,15.3,15.3,0,0,0,1.827-6.032h-5.742q2.523-3.306,3.77-5.191v-1.914H197.142v2.2h3.886q0.087,2.581-.116,6.264-0.174,3.248-.392,4.756t-0.42,2.407a14.288,14.288,0,0,1-4.466,7.25q0.057,0.029.971,0.58t1.378,0.783a22.515,22.515,0,0,0,3.683-5.655q1.247-2.784,1.653-9.077A26.263,26.263,0,0,0,205.552,171a22.1,22.1,0,0,0,3.1,3.93,22.276,22.276,0,0,1-8.294,4.118Zm1.711-21.953h9.077q-1.335,2-3.828,5.133v1.943h6.177a15.105,15.105,0,0,1-1.8,3.813,19.868,19.868,0,0,1-2.7,3.437,26.439,26.439,0,0,1-2.683-3.132,17.643,17.643,0,0,1-1.29-2.262,47.313,47.313,0,0,1-2.03-4.7q-0.581-1.681-.928-2.9v-1.334ZM76.5,197.956H67.8l0.029,2.117h8.7L76.5,204.51H65.395l0.029,2.088H76.5v6.09a1,1,0,0,1-.246.754,1.144,1.144,0,0,1-.74.261q-0.754.029-3.654-.232l0.812,2.378h4q2.059,0,2.059-2.32V206.6H89.407v-2.117l-10.643.029v-4.437h8.265v-2.117H78.764v-4.292a38.827,38.827,0,0,0,9.367-2.291l-1.218-1.653a43.8,43.8,0,0,1-9.657,2,84.282,84.282,0,0,1-11.049.522l1.3,2.146q6.612-.174,8.99-0.464v4.031Zm32.335-4.234-1.624-.87q-0.378.9-.986,2.03l-1.624.29a26.021,26.021,0,0,0,2.349-3.944l-1.885-1.073a25.731,25.731,0,0,1-3.074,5.452H99.557v-5.6H97.382v5.6l-3.277-.029v2.03h3.19A27.248,27.248,0,0,1,93,207.932l2,1.073a33.007,33.007,0,0,0,2.378-4.7v11.542h2.175V201.726a22.422,22.422,0,0,1,1.711,2.958l1.566-1.218a17.131,17.131,0,0,0-2.726-4l-0.551.522v-2.378h2.378v-1.537l0.725,1.479,2.407-.551a26.211,26.211,0,0,1-3.161,4.205l0.87,1.566,4.263-.638,0.522,1.566,1.8-.551L109.5,204.8H106v-1.653h-2.146V204.8h-3.364v2.03h3.277a10.484,10.484,0,0,1-.754,2.827,8.629,8.629,0,0,1-1.479,2.393,10.318,10.318,0,0,1-1.769,1.624l1.6,1.653a11.709,11.709,0,0,0,3.915-5.365,12.026,12.026,0,0,1,3.277,2.146l1.189-1.682a15.614,15.614,0,0,0-3.973-2.494l0.174-1.1h3.886a14.371,14.371,0,0,0,1.334,4.263,19.058,19.058,0,0,1-6.757,2.175l1.073,1.972a25.541,25.541,0,0,0,3.7-1.044,24.727,24.727,0,0,0,3.176-1.421,12.765,12.765,0,0,0,2.639,2.146,3.207,3.207,0,0,0,2.175.522,2.206,2.206,0,0,0,1.566-1.363,20.734,20.734,0,0,0,1.1-3.683l-2.117-.87-0.609,3.1a0.6,0.6,0,0,1-.377.478,0.894,0.894,0,0,1-.7-0.1,7.249,7.249,0,0,1-.957-0.653,7.442,7.442,0,0,1-.841-0.768,38.451,38.451,0,0,0,3.8-3.1l-1.45-1.392a29.157,29.157,0,0,1-3.509,2.813A15.822,15.822,0,0,1,112,206.83h6.989V204.8h-2.146l0.348-.435a17.209,17.209,0,0,0-1.682-1.45q-0.783-.581-1.131-0.812l2.552-.348a7.412,7.412,0,0,1,.435,1.595l1.885-.7a15.854,15.854,0,0,0-1.8-4.7l-1.624.754,0.522,1.16-1.972.29a28.241,28.241,0,0,0,4.408-6.409l-1.711-.986q-1.044,1.769-1.247,2.059l-1.856.232a23.911,23.911,0,0,0,2.552-3.857l-1.856-1.218a22.1,22.1,0,0,1-1.566,2.943q-1.044,1.7-1.972,2.944l1.015,1.653,2.436-.58a22.3,22.3,0,0,1-3.132,3.886l0.812,1.74,1.392-.261-1.1.957a17.266,17.266,0,0,1,2.059,1.537H111.65q-0.726-8.439-.725-14.761l-2.2-.029Zm0.377,8.7q-0.233-.842-0.667-2a20.986,20.986,0,0,0-.841-1.972l-1.769.783,0.58,1.044-1.943.261a29.174,29.174,0,0,0,4.292-6.467q0,3.538.348,8.352h0Zm37.613-4.35h-5.974l0.029-2.349h7.569v-2.117h-2.436a10.6,10.6,0,0,0-1.262-1.972,7.2,7.2,0,0,0-1.319-1.3l-1.943,1.073a9.481,9.481,0,0,1,2.233,2.2h-2.842l-0.029-3.8h-2.175v3.8h-7.1l-0.029,2.117,7.163-.029-0.029,2.378-5.916.029v17.574h2.175v-6.09h3.741v4.7h2.175v-4.7l3.8-.029v2.726a1.24,1.24,0,0,1-.174.623,0.675,0.675,0,0,1-.58.334,12.855,12.855,0,0,1-2.639-.116l0.986,2.378q0.261-.03,1.406-0.029a3.577,3.577,0,0,0,2.161-.435,2.377,2.377,0,0,0,.7-0.87,2.667,2.667,0,0,0,.319-1.247V198.072Zm-2.175,4.582-3.77-.029v-2.436h3.77v2.465Zm-5.974-2.465v2.465h-3.712v-2.436Zm2.2,4.5,3.77-.029v2.813h-3.77v-2.784Zm-2.2-.029v2.813h-3.712v-2.813h3.712Zm-7.25-9.628h-8.41V197.2l6.09,0.029a13.377,13.377,0,0,1-1.291,2.247,19.331,19.331,0,0,1-2.349,2.741,25.615,25.615,0,0,1-3.175,2.668l1.363,1.653q0.7-.463,1.421-1.059a11.6,11.6,0,0,0,1.1-1v11.252h2.2V205.206a7.769,7.769,0,0,1,1.479.87,11.4,11.4,0,0,1,1.624,1.392l1.189-1.479a12.18,12.18,0,0,0-2.088-1.885,9.084,9.084,0,0,0,2.03-2.842l-1.595-1.305a14.949,14.949,0,0,1-2.117,3.248l-0.551-.087,0.029-.58a21.512,21.512,0,0,0,1.421-2.016,17.223,17.223,0,0,0,1.2-2.175,3.955,3.955,0,0,0,.421-1.464v-1.856Zm-2.146-1.218a10.55,10.55,0,0,0-3.306-4.234l-2.059,1.247a10.149,10.149,0,0,1,3.451,4.06ZM153.671,191v17.487l9.715,0.029V191h-9.715Zm7.424,6.96v2.871h-5.1l-0.029-2.9Zm-5.133-2.117v-2.7l5.133,0.029v2.668h-5.133Zm0,7.134,5.133-.029v3.364l-5.133.029v-3.364Zm8.99,12.731h2.291v-2.03l6.177,0.029,0.029,2.059h2.175V203.205h-4.9v-5.452l6.9,0.029v-2.175h-6.931v-5.945h-2.233l0.029,13.543h-3.509Zm8.468-4.147h-6.177v-6.119l6.177-.029v6.148Zm-14.442-1.45a14.333,14.333,0,0,1,2.639,2.871,10.434,10.434,0,0,1,1.247,2.668q0.4-.232,1.058-0.7l0.856-.609a12.992,12.992,0,0,0-3.886-5.365Zm-3.074-1.218a8.441,8.441,0,0,1-1.668,2.987,14.7,14.7,0,0,1-2.827,2.494q0.231,0.144.913,0.609a7.509,7.509,0,0,0,1.146.667,11.981,11.981,0,0,0,4.263-5.655Zm24.8-15.022v2.117h11.948v-2.117l-4.872-.058,0.464-.261a9.036,9.036,0,0,0-3.161-4.234l-1.8,1.247a13.02,13.02,0,0,1,1.638,1.7,7.988,7.988,0,0,1,.972,1.61H180.7Zm16.936,21.866h2.2V200.421l6.786-.029V198.3h-6.757l-0.029-8.613-2.2-.029,0.029,8.642H191.6v2.088l6.032,0.029v15.312Zm-6.786-.551V205.67l-8.149.029v9.512l2.175-.029V213.79h3.77l0.029,1.392h2.175Zm-2.2-3.509h-3.77v-3.886l3.77-.029v3.915Zm2.813-14.123h-9.425V199.7l9.425-.029V197.55Zm-9.367,5.974H191.4v-2.117h-9.338Zm44.486,9.048v-7.1h-13.8v7.1h13.8Zm-2.175-5.278v0.841h-3.683v-0.841H224.4Zm-5.742.841h-3.683v-0.841h3.683v0.841Zm5.742,1.711v0.812l-3.654.029-0.029-.841H224.4Zm-9.4,0h3.683l0.029,0.841h-3.741Zm13.456-7.134-7.772.029v-0.87h6.119V200.1l-6.119-.029v-0.7l5.829,0.029v-2.9h1.914v-1.914h-1.914v-2.726l-5.829-.029v-1.943h-2.2v1.972h-5.481v1.885l5.481-.029v0.87l-7.627-.029v1.943h7.627v1.015h-5.452v1.885l5.452-.029-0.029.725h-5.974v1.769h6v0.87H210.25v1.8h18.212v-1.827Zm-4.147-8.149-3.625.029-0.029-.87h3.654v0.841Zm-3.625,1.943h3.625v1.015l-3.625-.029v-0.986Zm11.774-6.5v22.707a0.787,0.787,0,0,1-.189.536,0.73,0.73,0,0,1-.507.247,7.682,7.682,0,0,1-1.668.014q-1.29-.072-1.377-0.072l0.783,2.262q0.492-.03,1.885-0.029a4.523,4.523,0,0,0,2.088-.377,2.614,2.614,0,0,0,.783-0.74,1.8,1.8,0,0,0,.406-1.087V190.01h-2.2ZM228.926,209.7l2.175-.029,0.029-16.907h-2.2V209.7Zm-17.69,6.09,17.313-1.044V212.92l-18.444.87Z"/>
</svg>
