<svg xmlns="http://www.w3.org/2000/svg" width="300" height="250" viewBox="0 0 300 250">
  <defs>
    <style>
      .cls-1 {
        fill: #248700;
        fill-rule: evenodd;
      }
    </style>
  </defs>
  <path id="cta" class="cls-1" d="M186.153,207.782v1.052h-6.159V198.98h1.172v8.8h4.987Zm7.04-2.132h-5.462c0.111,1.606.961,2.339,2.216,2.339a1.845,1.845,0,0,0,1.908-1.328h1.156A3,3,0,0,1,189.918,209c-1.964,0-3.344-1.426-3.344-3.737,0-2.242,1.324-3.737,3.316-3.737,2.146,0,3.3,1.689,3.3,3.737v0.387Zm-5.435-1H192A2.119,2.119,0,0,0,187.758,204.654Zm13.046,3.28v0.9a4.368,4.368,0,0,1-.613.041,1.028,1.028,0,0,1-1.212-1.024A2.644,2.644,0,0,1,196.637,209c-1.561,0-2.536-.747-2.536-2.09,0-1.121.683-2.007,2.662-2.214l1.031-.111a1,1,0,0,0,1.129-.983c0-.747-0.39-1.121-1.617-1.121s-1.742.346-1.811,1.412H194.38c0.084-1.384.822-2.367,2.926-2.367,1.993,0,2.7.872,2.7,2.076v3.986a0.328,0.328,0,0,0,.39.346h0.4Zm-1.881-1.923v-0.845a1.871,1.871,0,0,1-.948.305l-1.045.124c-1.31.153-1.672,0.6-1.672,1.287a1.189,1.189,0,0,0,1.436,1.177A2.06,2.06,0,0,0,198.923,206.011ZM205.6,201.6v1.066h-0.278c-1.436,0-2.355.72-2.355,2.1v4.069h-1.115v-7.142h1.058v1.26a2.515,2.515,0,0,1,2.313-1.37C205.334,201.582,205.445,201.582,205.6,201.6ZM212.568,204v4.83h-1.115v-4.72a1.437,1.437,0,0,0-1.644-1.591,2.038,2.038,0,0,0-1.978,2.269v4.042h-1.115v-7.142h1.059v1.066a2.651,2.651,0,0,1,2.257-1.232A2.285,2.285,0,0,1,212.568,204Zm14.495-.014v4.844h-1.115V204.1a1.363,1.363,0,0,0-1.5-1.577c-0.905,0-1.839.692-1.839,2.408v3.9h-1.115V204.1a1.368,1.368,0,0,0-1.5-1.577c-0.878,0-1.839.692-1.839,2.408v3.9H217.03v-7.142h1.059v1.052a2.312,2.312,0,0,1,2.076-1.218,2.253,2.253,0,0,1,2.216,1.343,2.486,2.486,0,0,1,2.215-1.343A2.278,2.278,0,0,1,227.063,203.99Zm5.124-2.416a3.883,3.883,0,0,1,1.468.268,3.28,3.28,0,0,1,1.142.754,3.376,3.376,0,0,1,.741,1.165,4.456,4.456,0,0,1,0,3.011,3.383,3.383,0,0,1-.737,1.163,3.271,3.271,0,0,1-1.143.748,3.965,3.965,0,0,1-1.471.264,3.909,3.909,0,0,1-1.509-.28,3.3,3.3,0,0,1-1.87-1.907,3.848,3.848,0,0,1-.253-1.4,4.484,4.484,0,0,1,.266-1.6,3.323,3.323,0,0,1,.746-1.187,3.235,3.235,0,0,1,1.149-.742A4.051,4.051,0,0,1,232.187,201.574Zm-0.012,6.411a2.542,2.542,0,0,0,1-.188,2.066,2.066,0,0,0,.75-0.538,2.44,2.44,0,0,0,.475-0.851,3.818,3.818,0,0,0,.18-1.138,3.539,3.539,0,0,0-.174-1.15,2.44,2.44,0,0,0-.487-0.858,2.092,2.092,0,0,0-.75-0.535,2.464,2.464,0,0,0-.968-0.185,2.755,2.755,0,0,0-.984.17,2.01,2.01,0,0,0-.769.518,2.411,2.411,0,0,0-.5.88,3.913,3.913,0,0,0-.18,1.26,3.161,3.161,0,0,0,.167,1.056,2.414,2.414,0,0,0,.481.827,2.126,2.126,0,0,0,.76.54A2.513,2.513,0,0,0,232.175,207.985Zm8.857-6.39v1.066h-0.278c-1.436,0-2.355.72-2.355,2.1v4.069h-1.115v-7.142h1.058v1.26a2.515,2.515,0,0,1,2.314-1.37C240.768,201.582,240.879,201.582,241.032,201.6ZM248,205.65h-5.461c0.111,1.606.96,2.339,2.215,2.339a1.846,1.846,0,0,0,1.909-1.328h1.156A3,3,0,0,1,244.726,209c-1.964,0-3.344-1.426-3.344-3.737,0-2.242,1.324-3.737,3.316-3.737,2.146,0,3.3,1.689,3.3,3.737v0.387Zm-5.434-1H246.8A2.119,2.119,0,0,0,242.566,204.654Z"/>
</svg>
