<svg xmlns="http://www.w3.org/2000/svg" width="300" height="250" viewBox="0 0 300 250">
  <defs>
    <style>
      .cls-1 {
        fill: #4c286c;
        fill-rule: evenodd;
      }
    </style>
  </defs>
  <path class="cls-1" d="M158.333,128.242c0,2.4-1.585,4-4.634,4h-6.237V118H153.4c2.969,0,4.352,1.7,4.352,3.72a3.359,3.359,0,0,1-1.886,3.121A3.476,3.476,0,0,1,158.333,128.242Zm-9.186-8.722v4.7h4.131c1.906,0,2.828-.92,2.828-2.44,0-1.341-.922-2.261-2.828-2.261h-4.131Zm7.5,8.722c0-1.74-1.143-2.521-3.048-2.521h-4.453v5h4.472C155.625,130.722,156.648,129.782,156.648,128.242Zm11.59-6.321-4.372,11.942a3.128,3.128,0,0,1-3.37,2.36,8.041,8.041,0,0,1-.963-0.06v-1.34h0.943a1.814,1.814,0,0,0,1.886-1.28c0.12-.3.24-0.64,0.36-0.961l-3.891-10.661H160.6l1.464,4.3c0.522,1.5,1,2.981,1.484,4.461,0.462-1.48.964-2.98,1.485-4.481l1.463-4.28h1.746Zm14.7,0v9.922c0,2.68-1.545,4.56-4.815,4.56-2.646,0-4.191-1.32-4.411-3.32h1.6c0.2,1.3,1.183,1.96,2.807,1.96a2.86,2.86,0,0,0,3.21-3.2v-1a4.185,4.185,0,0,1-3.47,1.641c-2.908,0-4.813-2.1-4.813-5.4s1.905-5.4,4.813-5.4a4.18,4.18,0,0,1,3.55,1.74v-1.5h1.525Zm-1.545,5.161c0-2.5-1.324-3.961-3.329-3.961s-3.329,1.54-3.329,3.961,1.323,3.96,3.329,3.96S181.391,129.582,181.391,127.082Zm3.768-7.7a1.084,1.084,0,1,1,1.083,1.08A1.09,1.09,0,0,1,185.159,119.38Zm0.281,2.541h1.6v10.322h-1.6V121.921Zm12.715,0-4.071,10.322H192.4l-4.052-10.322h1.746l1.705,4.6c0.48,1.3,1.022,2.7,1.463,4,0.442-1.3.983-2.72,1.464-4.02l1.706-4.581h1.724Zm1.021-2.541a1.084,1.084,0,1,1,1.083,1.08A1.09,1.09,0,0,1,199.176,119.38Zm0.281,2.541h1.605v10.322h-1.605V121.921Zm12.534,3.34v6.982h-1.6v-6.821a2.073,2.073,0,0,0-2.366-2.3c-1.345,0-2.849,1-2.849,3.28v5.842h-1.6V121.921h1.524v1.54a3.815,3.815,0,0,1,3.249-1.78A3.3,3.3,0,0,1,211.991,125.261Zm11.891-3.34v9.922c0,2.68-1.545,4.56-4.814,4.56-2.647,0-4.192-1.32-4.412-3.32h1.6c0.2,1.3,1.183,1.96,2.807,1.96a2.859,2.859,0,0,0,3.209-3.2v-1a4.183,4.183,0,0,1-3.47,1.641c-2.907,0-4.813-2.1-4.813-5.4s1.906-5.4,4.813-5.4a4.181,4.181,0,0,1,3.551,1.74v-1.5h1.524Zm-1.545,5.161c0-2.5-1.324-3.961-3.329-3.961s-3.329,1.54-3.329,3.961,1.324,3.96,3.329,3.96S222.337,129.582,222.337,127.082Zm17.847,0c0,3.3-1.905,5.4-4.813,5.4a4.069,4.069,0,0,1-3.55-1.841v1.6H230.3V118H231.9v5.4a4.068,4.068,0,0,1,3.47-1.72C238.279,121.681,240.184,123.781,240.184,127.082ZM238.5,127c0-2.5-1.323-3.881-3.329-3.881s-3.33,1.46-3.33,3.961,1.324,3.96,3.33,3.96S238.5,129.5,238.5,127Zm12.534,3.94v1.3a6.138,6.138,0,0,1-.883.06,1.483,1.483,0,0,1-1.745-1.481,3.794,3.794,0,0,1-3.369,1.661c-2.247,0-3.65-1.081-3.65-3.021,0-1.62.982-2.9,3.83-3.2l1.484-.159c1.043-.12,1.625-0.5,1.625-1.421,0-1.08-.561-1.62-2.327-1.62s-2.507.5-2.607,2.04h-1.6c0.121-2,1.184-3.42,4.212-3.42,2.868,0,3.891,1.26,3.891,3v5.761a0.473,0.473,0,0,0,.561.5h0.583Zm-2.708-2.78v-1.221a2.665,2.665,0,0,1-1.364.441l-1.5.18c-1.886.22-2.407,0.86-2.407,1.86,0,1.02.642,1.7,2.066,1.7A2.969,2.969,0,0,0,248.325,128.162Zm3.608-1.08c0-3.321,1.925-5.4,4.794-5.4a4.19,4.19,0,0,1,4.452,3.741h-1.665a2.692,2.692,0,0,0-2.787-2.3c-1.766,0-3.109,1.26-3.109,3.961s1.383,3.96,3.109,3.96a2.717,2.717,0,0,0,2.808-2.34h1.644a4.266,4.266,0,0,1-4.452,3.781C253.9,132.483,251.933,130.4,251.933,127.082Zm14.5-.38-1.845,1.72v3.821h-1.6V118h1.6v8.542l4.794-4.621h2.125l-3.931,3.72,4.212,6.6h-1.865Zm8.8,5.24c0,1.9-.942,2.781-2.246,3.041l-0.2.04v-1.06l0.141-.04a1.479,1.479,0,0,0,1.1-1.56h-0.12a1.044,1.044,0,0,1-1.123-1.041,1.075,1.075,0,0,1,1.123-1.08C274.732,130.242,275.234,130.842,275.234,131.942ZM156.458,147.46v6.981h-1.6V147.62a2.073,2.073,0,0,0-2.367-2.3c-1.344,0-2.848,1-2.848,3.281v5.841h-1.605V140.2h1.605v5.34a3.814,3.814,0,0,1,3.169-1.66A3.3,3.3,0,0,1,156.458,147.46Zm10.527-3.341v10.322h-1.524V152.9a3.818,3.818,0,0,1-3.25,1.78,3.3,3.3,0,0,1-3.65-3.581v-6.981h1.6v6.821a2.074,2.074,0,0,0,2.367,2.3c1.343,0,2.848-1,2.848-3.281v-5.841h1.605Zm16.945,3.32v7h-1.6V147.6a1.966,1.966,0,0,0-2.166-2.28c-1.3,0-2.648,1-2.648,3.48v5.642h-1.6V147.6a1.975,1.975,0,0,0-2.166-2.28c-1.264,0-2.648,1-2.648,3.48v5.642h-1.6V144.119h1.524v1.52a3.327,3.327,0,0,1,2.988-1.76,3.241,3.241,0,0,1,3.189,1.94,3.577,3.577,0,0,1,3.189-1.94A3.285,3.285,0,0,1,183.93,147.439Zm16.3,1.841c0,3.3-1.906,5.4-4.814,5.4a4.069,4.069,0,0,1-3.55-1.841v1.6h-1.524V140.2h1.6v5.4a4.071,4.071,0,0,1,3.47-1.72C198.325,143.879,200.231,145.979,200.231,149.28Zm-1.685-.08c0-2.5-1.324-3.881-3.329-3.881s-3.33,1.46-3.33,3.961,1.324,3.961,3.33,3.961S198.546,151.7,198.546,149.2Zm12.533,3.941v1.3a6.133,6.133,0,0,1-.883.059,1.483,1.483,0,0,1-1.745-1.479,3.8,3.8,0,0,1-3.369,1.66c-2.247,0-3.65-1.08-3.65-3.02,0-1.621.982-2.9,3.83-3.2l1.485-.161c1.043-.12,1.624-0.5,1.624-1.419,0-1.08-.561-1.62-2.326-1.62s-2.508.5-2.608,2.039h-1.6c0.12-2,1.183-3.42,4.212-3.42,2.868,0,3.891,1.26,3.891,3v5.76a0.474,0.474,0,0,0,.561.5h0.582Zm-2.708-2.781v-1.22a2.684,2.684,0,0,1-1.364.44l-1.5.18c-1.885.22-2.406,0.86-2.406,1.861,0,1.019.641,1.7,2.066,1.7A2.969,2.969,0,0,0,208.371,150.36Zm12.634-2.9v6.981h-1.6V147.62a2.073,2.073,0,0,0-2.367-2.3c-1.344,0-2.848,1-2.848,3.281v5.841h-1.605V144.119h1.525v1.54a3.812,3.812,0,0,1,3.248-1.78A3.3,3.3,0,0,1,221.005,147.46Zm11.55,5.681v1.3a6.133,6.133,0,0,1-.883.059,1.483,1.483,0,0,1-1.745-1.479,3.8,3.8,0,0,1-3.369,1.66c-2.247,0-3.65-1.08-3.65-3.02,0-1.621.982-2.9,3.83-3.2l1.485-.161c1.042-.12,1.624-0.5,1.624-1.419,0-1.08-.561-1.62-2.326-1.62s-2.508.5-2.608,2.039h-1.605c0.121-2,1.184-3.42,4.213-3.42,2.867,0,3.891,1.26,3.891,3v5.76a0.474,0.474,0,0,0,.561.5h0.582Zm-2.708-2.781v-1.22a2.684,2.684,0,0,1-1.364.44l-1.5.18c-1.886.22-2.406,0.86-2.406,1.861,0,1.019.641,1.7,2.065,1.7A2.97,2.97,0,0,0,229.847,150.36Zm13.515-6.381v1.54h-0.4c-2.066,0-3.39,1.04-3.39,3.041v5.881h-1.6V144.119h1.524v1.82a3.616,3.616,0,0,1,3.329-1.98C242.981,143.959,243.141,143.959,243.362,143.979Zm9.946,9.162v1.3a6.133,6.133,0,0,1-.883.059,1.483,1.483,0,0,1-1.745-1.479,3.8,3.8,0,0,1-3.369,1.66c-2.247,0-3.65-1.08-3.65-3.02,0-1.621.982-2.9,3.83-3.2l1.485-.161c1.043-.12,1.624-0.5,1.624-1.419,0-1.08-.561-1.62-2.326-1.62s-2.508.5-2.608,2.039h-1.6c0.12-2,1.183-3.42,4.212-3.42,2.868,0,3.891,1.26,3.891,3v5.76a0.474,0.474,0,0,0,.561.5h0.582ZM250.6,150.36v-1.22a2.684,2.684,0,0,1-1.364.44l-1.5.18c-1.885.22-2.406,0.86-2.406,1.861,0,1.019.641,1.7,2.066,1.7A2.969,2.969,0,0,0,250.6,150.36Zm12.534-2.9v6.981h-1.6V147.62a2.073,2.073,0,0,0-2.367-2.3c-1.344,0-2.848,1-2.848,3.281v5.841h-1.6V140.2h1.6v5.34a3.816,3.816,0,0,1,3.169-1.66A3.3,3.3,0,0,1,263.134,147.46Zm11.53,2.38H266.8c0.16,2.321,1.384,3.38,3.189,3.38a2.658,2.658,0,0,0,2.748-1.92H274.4a4.314,4.314,0,0,1-4.453,3.381c-2.827,0-4.813-2.06-4.813-5.4,0-3.24,1.9-5.4,4.773-5.4,3.089,0,4.754,2.44,4.754,5.4v0.56Zm-7.822-1.44h6.1a3.031,3.031,0,0,0-3.029-3.06C268.286,145.34,267.1,146.359,266.842,148.4ZM144.426,169.659v6.981h-1.6v-6.821a2.074,2.074,0,0,0-2.367-2.3c-1.344,0-2.848,1-2.848,3.281v5.841H136V162.4h1.6v5.341a3.813,3.813,0,0,1,3.168-1.66A3.3,3.3,0,0,1,144.426,169.659Zm11.55,5.681v1.3a6.148,6.148,0,0,1-.883.06,1.483,1.483,0,0,1-1.745-1.48,3.8,3.8,0,0,1-3.369,1.66c-2.247,0-3.65-1.08-3.65-3.02,0-1.621.982-2.9,3.83-3.2l1.484-.16c1.043-.12,1.625-0.5,1.625-1.42,0-1.08-.561-1.62-2.327-1.62s-2.507.5-2.607,2.04h-1.6c0.121-2,1.184-3.421,4.212-3.421,2.868,0,3.891,1.261,3.891,3v5.76a0.474,0.474,0,0,0,.561.5h0.583Zm-2.708-2.781v-1.22a2.678,2.678,0,0,1-1.364.44l-1.5.18c-1.886.22-2.407,0.86-2.407,1.861,0,1.019.641,1.7,2.066,1.7A2.97,2.97,0,0,0,153.268,172.559Zm3.829-8.781a1.084,1.084,0,1,1,1.083,1.08A1.091,1.091,0,0,1,157.1,163.778Zm0.281,2.54h1.605V176.64h-1.605V166.318Zm12.535,3.341v6.981h-1.605v-6.821a2.073,2.073,0,0,0-2.367-2.3c-1.344,0-2.848,1-2.848,3.281v5.841h-1.6V166.318h1.525v1.54a3.812,3.812,0,0,1,3.248-1.78A3.3,3.3,0,0,1,169.913,169.659Zm5.912,1.82c0-3.32,1.925-5.4,4.794-5.4a4.19,4.19,0,0,1,4.452,3.741h-1.664a2.694,2.694,0,0,0-2.788-2.3c-1.765,0-3.109,1.261-3.109,3.961s1.384,3.961,3.109,3.961a2.717,2.717,0,0,0,2.808-2.341h1.644a4.265,4.265,0,0,1-4.452,3.781C177.79,176.88,175.825,174.8,175.825,171.479Zm10.547,0c0-3.3,2.107-5.4,5.014-5.4s5.014,2.1,5.014,5.4-2.106,5.4-5.014,5.4S186.372,174.78,186.372,171.479Zm8.343,0c0-2.5-1.323-3.961-3.329-3.961s-3.329,1.46-3.329,3.961,1.324,3.961,3.329,3.961S194.715,173.98,194.715,171.479Zm18.13-1.841v7h-1.6V169.8a1.966,1.966,0,0,0-2.166-2.28c-1.3,0-2.647,1-2.647,3.481v5.641h-1.6V169.8a1.975,1.975,0,0,0-2.166-2.28c-1.264,0-2.647,1-2.647,3.481v5.641h-1.6V166.318h1.524v1.521a3.326,3.326,0,0,1,2.988-1.761,3.242,3.242,0,0,1,3.189,1.94,3.58,3.58,0,0,1,3.189-1.94A3.285,3.285,0,0,1,212.845,169.638Zm16.944,0v7h-1.6V169.8a1.966,1.966,0,0,0-2.165-2.28c-1.305,0-2.648,1-2.648,3.481v5.641h-1.605V169.8a1.974,1.974,0,0,0-2.165-2.28c-1.265,0-2.648,1-2.648,3.481v5.641h-1.6V166.318h1.525v1.521a3.324,3.324,0,0,1,2.988-1.761,3.242,3.242,0,0,1,3.189,1.94,3.578,3.578,0,0,1,3.189-1.94A3.285,3.285,0,0,1,229.789,169.638Zm10.526-3.32V176.64h-1.524V175.1a3.816,3.816,0,0,1-3.25,1.78,3.3,3.3,0,0,1-3.65-3.581v-6.981H233.5v6.821a2.073,2.073,0,0,0,2.367,2.3c1.343,0,2.848-1,2.848-3.28v-5.842h1.6Zm10.928,3.341v6.981h-1.6v-6.821a2.073,2.073,0,0,0-2.367-2.3c-1.344,0-2.848,1-2.848,3.281v5.841h-1.605V166.318h1.525v1.54a3.812,3.812,0,0,1,3.248-1.78A3.3,3.3,0,0,1,251.243,169.659Zm2.224-5.881a1.084,1.084,0,1,1,1.083,1.08A1.091,1.091,0,0,1,253.467,163.778Zm0.281,2.54h1.605V176.64h-1.605V166.318Zm6.517,1.4v6.7c0,0.54.26,0.881,1.184,0.881h0.943v1.34q-0.663.06-1.144,0.06c-1.605,0-2.588-.56-2.588-2.14v-6.842h-1.7v-1.4h1.7V163.4h1.6v2.921h2.127v1.4h-2.127Zm3.648-3.94a1.084,1.084,0,1,1,1.083,1.08A1.091,1.091,0,0,1,263.913,163.778Zm0.281,2.54h1.6V176.64h-1.6V166.318Zm13.137,5.722h-7.862c0.16,2.32,1.384,3.379,3.189,3.379a2.657,2.657,0,0,0,2.748-1.92h1.665a4.316,4.316,0,0,1-4.453,3.381c-2.828,0-4.814-2.06-4.814-5.4,0-3.24,1.906-5.4,4.773-5.4,3.089,0,4.754,2.44,4.754,5.4v0.561Zm-7.822-1.441h6.1a3.031,3.031,0,0,0-3.029-3.06C270.953,167.539,269.769,168.558,269.509,170.6Zm8.983,2.761h1.625c0.181,1.559.942,2.139,2.767,2.139,1.745,0,2.487-.58,2.487-1.6,0-.921-0.561-1.341-2.366-1.681l-0.963-.179c-2.246-.421-3.229-1.441-3.229-3.041,0-1.761,1.4-2.921,3.771-2.921,2.768,0,4.172,1.221,4.212,3.421h-1.605c-0.08-1.6-1.023-2.04-2.607-2.04-1.384,0-2.166.559-2.166,1.519,0,0.981.762,1.341,2.086,1.6l0.922,0.18c2.548,0.5,3.571,1.361,3.571,3.04,0,1.961-1.565,3.081-4.113,3.081C280.258,176.88,278.653,175.78,278.492,173.36ZM164.918,193.3l-1.845,1.72v3.821h-1.6V184.6h1.6v8.541l4.794-4.621h2.126l-3.931,3.721,4.212,6.6h-1.865Zm5.555,0.38c0-3.3,2.106-5.4,5.014-5.4s5.014,2.1,5.014,5.4-2.106,5.4-5.014,5.4S170.473,196.979,170.473,193.678Zm8.343,0c0-2.5-1.324-3.961-3.329-3.961s-3.329,1.46-3.329,3.961,1.323,3.961,3.329,3.961S178.816,196.179,178.816,193.678Zm6.855,1.881H187.3c0.181,1.56.943,2.14,2.768,2.14,1.744,0,2.487-.58,2.487-1.6,0-.921-0.561-1.341-2.367-1.681l-0.962-.179c-2.246-.421-3.229-1.441-3.229-3.041,0-1.761,1.4-2.921,3.77-2.921,2.768,0,4.172,1.221,4.212,3.421h-1.6c-0.08-1.6-1.023-2.04-2.607-2.04-1.383,0-2.166.559-2.166,1.519,0,0.981.762,1.341,2.086,1.6l0.922,0.181c2.548,0.5,3.571,1.36,3.571,3.039,0,1.961-1.565,3.081-4.112,3.081C187.437,199.079,185.832,197.979,185.671,195.559Zm12.414-5.641v6.7c0,0.54.26,0.88,1.183,0.88h0.943v1.34q-0.661.06-1.143,0.06c-1.605,0-2.588-.56-2.588-2.14v-6.841h-1.7v-1.4h1.7V185.6h1.605v2.92h2.126v1.4h-2.126Zm9.324-1.54v1.54h-0.4c-2.066,0-3.39,1.04-3.39,3.041v5.88h-1.6V188.517h1.524v1.821a3.617,3.617,0,0,1,3.329-1.981A5.222,5.222,0,0,1,207.409,188.378Zm0.5,5.3c0-3.3,2.106-5.4,5.014-5.4s5.014,2.1,5.014,5.4-2.106,5.4-5.014,5.4S207.909,196.979,207.909,193.678Zm8.343,0c0-2.5-1.324-3.961-3.329-3.961s-3.329,1.46-3.329,3.961,1.324,3.961,3.329,3.961S216.252,196.179,216.252,193.678Zm12.112-1.82v6.981h-1.6v-6.821a2.074,2.074,0,0,0-2.367-2.3c-1.344,0-2.848,1-2.848,3.282v5.84h-1.6V188.517h1.525v1.54a3.812,3.812,0,0,1,3.248-1.78A3.3,3.3,0,0,1,228.364,191.858Zm11.891-3.341v9.922c0,2.68-1.545,4.561-4.814,4.561-2.647,0-4.192-1.32-4.412-3.321h1.6c0.2,1.3,1.183,1.961,2.808,1.961a2.86,2.86,0,0,0,3.209-3.2v-1a4.187,4.187,0,0,1-3.47,1.64c-2.908,0-4.813-2.1-4.813-5.4s1.905-5.4,4.813-5.4a4.182,4.182,0,0,1,3.55,1.74v-1.5h1.525Zm-1.545,5.161c0-2.5-1.324-3.961-3.329-3.961s-3.329,1.54-3.329,3.961,1.324,3.961,3.329,3.961S238.71,196.179,238.71,193.678Zm13.075,0.561h-7.862c0.16,2.32,1.384,3.379,3.189,3.379a2.658,2.658,0,0,0,2.748-1.919h1.664a4.314,4.314,0,0,1-4.453,3.38c-2.827,0-4.813-2.06-4.813-5.4,0-3.24,1.906-5.4,4.773-5.4,3.089,0,4.754,2.44,4.754,5.4v0.561Zm-7.822-1.441h6.1a3.03,3.03,0,0,0-3.029-3.06C245.407,189.738,244.223,190.758,243.963,192.8Zm15.22-4.42v1.54h-0.4c-2.066,0-3.39,1.04-3.39,3.041v5.88h-1.6V188.517h1.525v1.821a3.615,3.615,0,0,1,3.329-1.981A5.2,5.2,0,0,1,259.183,188.378Zm-0.5,9.421a1.174,1.174,0,0,1,2.346,0A1.173,1.173,0,1,1,258.681,197.8Z"/>
</svg>
