<svg xmlns="http://www.w3.org/2000/svg" width="300" height="250" viewBox="0 0 300 250">
  <defs>
    <style>
      .cls-1 {
        fill: #4c286c;
        fill-rule: evenodd;
      }
    </style>
  </defs>
  <path class="cls-1" d="M156.87,132.731v1.521H148V120h1.686v12.73h7.183Zm10.552,0.22v1.3a6.128,6.128,0,0,1-.883.06,1.484,1.484,0,0,1-1.746-1.481,3.8,3.8,0,0,1-3.37,1.662c-2.248,0-3.652-1.082-3.652-3.023,0-1.621.983-2.9,3.832-3.2l1.485-.159c1.043-.121,1.625-0.5,1.625-1.422,0-1.081-.561-1.621-2.327-1.621s-2.509.5-2.609,2.041h-1.6c0.121-2,1.184-3.422,4.214-3.422,2.869,0,3.892,1.261,3.892,3v5.765a0.474,0.474,0,0,0,.562.5h0.582Zm-2.709-2.782v-1.221a2.684,2.684,0,0,1-1.364.441l-1.5.179c-1.886.221-2.407,0.861-2.407,1.862,0,1.021.641,1.7,2.066,1.7A2.971,2.971,0,0,0,164.713,130.169Zm3.468,0.8h1.626c0.181,1.561.943,2.141,2.768,2.141,1.746,0,2.488-.58,2.488-1.6,0-.921-0.561-1.341-2.367-1.681l-0.963-.181c-2.247-.42-3.23-1.441-3.23-3.042,0-1.761,1.4-2.922,3.772-2.922,2.769,0,4.173,1.221,4.214,3.422h-1.606c-0.08-1.6-1.023-2.041-2.608-2.041-1.384,0-2.167.56-2.167,1.521,0,0.981.762,1.341,2.086,1.6l0.923,0.18c2.549,0.5,3.572,1.362,3.572,3.043,0,1.961-1.565,3.083-4.114,3.083C169.948,134.493,168.342,133.391,168.181,130.97Zm12.418-5.645v6.7c0,0.541.261,0.881,1.185,0.881h0.943v1.341q-0.663.06-1.144,0.06c-1.606,0-2.589-.56-2.589-2.142v-6.845h-1.705v-1.4h1.705V121h1.6v2.922h2.128v1.4H180.6Zm16.149-1.4-4.374,11.949A3.129,3.129,0,0,1,189,138.236a7.844,7.844,0,0,1-.963-0.061v-1.341h0.943a1.813,1.813,0,0,0,1.886-1.281c0.121-.3.24-0.64,0.361-0.961l-3.893-10.668H189.1l1.465,4.3c0.522,1.5,1,2.983,1.485,4.464,0.461-1.481.963-2.982,1.485-4.484L195,123.924h1.746Zm9.829,5.724h-7.865c0.161,2.323,1.385,3.383,3.19,3.383a2.66,2.66,0,0,0,2.75-1.921h1.665a4.318,4.318,0,0,1-4.455,3.383c-2.829,0-4.815-2.062-4.815-5.405,0-3.243,1.906-5.4,4.775-5.4,3.09,0,4.755,2.442,4.755,5.4v0.56Zm-7.825-1.441h6.1a3.032,3.032,0,0,0-3.03-3.062C200.2,125.145,199.013,126.166,198.752,128.207Zm18.779,4.744v1.3a6.138,6.138,0,0,1-.883.06,1.484,1.484,0,0,1-1.746-1.481,3.8,3.8,0,0,1-3.37,1.662c-2.248,0-3.652-1.082-3.652-3.023,0-1.621.983-2.9,3.832-3.2l1.485-.159c1.043-.121,1.625-0.5,1.625-1.422,0-1.081-.561-1.621-2.327-1.621s-2.509.5-2.609,2.041h-1.6c0.12-2,1.184-3.422,4.214-3.422,2.869,0,3.892,1.261,3.892,3v5.765a0.473,0.473,0,0,0,.561.5h0.583Zm-2.709-2.782v-1.221a2.685,2.685,0,0,1-1.365.441l-1.5.179c-1.887.221-2.408,0.861-2.408,1.862,0,1.021.642,1.7,2.067,1.7A2.971,2.971,0,0,0,214.822,130.169Zm9.608-6.385v1.541h-0.4c-2.067,0-3.391,1.041-3.391,3.042v5.885h-1.605V123.924h1.525v1.821a3.616,3.616,0,0,1,3.33-1.981C224.049,123.764,224.209,123.764,224.43,123.784Zm14.765,9.167v1.3a6.128,6.128,0,0,1-.883.06,1.484,1.484,0,0,1-1.746-1.481,3.8,3.8,0,0,1-3.37,1.662c-2.248,0-3.651-1.082-3.651-3.023,0-1.621.982-2.9,3.831-3.2l1.485-.159c1.043-.121,1.625-0.5,1.625-1.422,0-1.081-.561-1.621-2.327-1.621s-2.509.5-2.608,2.041h-1.606c0.121-2,1.184-3.422,4.214-3.422,2.869,0,3.892,1.261,3.892,3v5.765a0.474,0.474,0,0,0,.562.5H239.2Zm-2.709-2.782v-1.221a2.684,2.684,0,0,1-1.364.441l-1.505.179c-1.886.221-2.407,0.861-2.407,1.862,0,1.021.641,1.7,2.066,1.7A2.971,2.971,0,0,0,236.486,130.169Zm4.111,2V120h1.6V132.03a0.8,0.8,0,0,0,.984.881h0.762v1.341a10.24,10.24,0,0,1-1.024.06C241.48,134.312,240.6,133.752,240.6,132.17Zm4.152-3.082c0-3.3,2.107-5.4,5.016-5.4s5.016,2.1,5.016,5.4-2.107,5.405-5.016,5.405S244.749,132.391,244.749,129.088Zm8.346,0c0-2.5-1.324-3.963-3.33-3.963s-3.33,1.461-3.33,3.963,1.324,3.963,3.33,3.963S253.1,131.59,253.1,129.088Zm12.118-1.821v6.985h-1.606v-6.825a2.074,2.074,0,0,0-2.367-2.3c-1.345,0-2.85,1-2.85,3.283v5.844h-1.6V123.924h1.525v1.541a3.814,3.814,0,0,1,3.25-1.781A3.3,3.3,0,0,1,265.213,127.267Zm11.534,2.381h-7.865c0.16,2.323,1.385,3.383,3.19,3.383a2.659,2.659,0,0,0,2.749-1.921h1.666a4.319,4.319,0,0,1-4.455,3.383c-2.829,0-4.815-2.062-4.815-5.405,0-3.243,1.906-5.4,4.775-5.4,3.09,0,4.755,2.442,4.755,5.4v0.56Zm-7.825-1.441h6.1a3.031,3.031,0,0,0-3.029-3.062C270.367,125.145,269.183,126.166,268.922,128.207ZM280,133.952c0,1.9-.942,2.782-2.247,3.043l-0.2.04v-1.062l0.141-.04a1.48,1.48,0,0,0,1.1-1.561h-0.12a1.044,1.044,0,0,1-1.124-1.041,1.075,1.075,0,0,1,1.124-1.08C279.494,132.251,280,132.851,280,133.952Zm-86.956,12.184-3.451,10.329H187.9l-1.525-4.785c-0.361-1.14-.722-2.341-1.044-3.5-0.341,1.162-.7,2.363-1.062,3.5l-1.506,4.785h-1.685l-3.451-10.329h1.726l1.464,4.664c0.4,1.261.763,2.5,1.124,3.763,0.341-1.261.7-2.5,1.1-3.763l1.445-4.664h1.686l1.444,4.664c0.381,1.241.762,2.482,1.124,3.723,0.341-1.241.722-2.482,1.1-3.723l1.465-4.664h1.725Zm9.828,5.725H195c0.16,2.322,1.385,3.382,3.19,3.382a2.66,2.66,0,0,0,2.75-1.921h1.665a4.318,4.318,0,0,1-4.455,3.383c-2.829,0-4.815-2.062-4.815-5.405,0-3.242,1.906-5.4,4.775-5.4,3.09,0,4.755,2.442,4.755,5.4v0.561Zm-7.825-1.441h6.1a3.03,3.03,0,0,0-3.029-3.062C196.487,147.358,195.3,148.378,195.042,150.42Zm23.132-4.284v9.928c0,2.682-1.546,4.564-4.816,4.564-2.648,0-4.194-1.321-4.414-3.323h1.605c0.2,1.3,1.183,1.962,2.809,1.962a2.861,2.861,0,0,0,3.21-3.2v-1a4.186,4.186,0,0,1-3.471,1.642c-2.909,0-4.815-2.1-4.815-5.405s1.906-5.4,4.815-5.4a4.185,4.185,0,0,1,3.552,1.741v-1.5h1.525Zm-1.546,5.164c0-2.5-1.324-3.963-3.33-3.963s-3.33,1.541-3.33,3.963,1.324,3.964,3.33,3.964S216.628,153.8,216.628,151.3Zm13.1,3.864v1.3a6.157,6.157,0,0,1-.884.059,1.483,1.483,0,0,1-1.745-1.48,3.8,3.8,0,0,1-3.371,1.661c-2.248,0-3.651-1.081-3.651-3.022,0-1.622.982-2.9,3.832-3.2l1.485-.161c1.043-.12,1.624-0.5,1.624-1.42,0-1.081-.561-1.621-2.327-1.621s-2.508.5-2.608,2.041h-1.606c0.121-2,1.185-3.423,4.214-3.423,2.869,0,3.893,1.261,3.893,3v5.764a0.474,0.474,0,0,0,.561.5h0.583Zm-2.71-2.783v-1.22a2.675,2.675,0,0,1-1.364.439l-1.5.181c-1.886.22-2.407,0.86-2.407,1.862,0,1.02.642,1.7,2.067,1.7A2.971,2.971,0,0,0,227.018,152.381Zm12.418-6.245-4.072,10.329h-1.686l-4.053-10.329h1.746l1.706,4.6c0.48,1.3,1.022,2.7,1.464,4,0.442-1.3.983-2.722,1.464-4.023l1.707-4.584h1.724Zm9.83,5.725H241.4c0.161,2.322,1.385,3.382,3.19,3.382a2.66,2.66,0,0,0,2.75-1.921h1.665a4.316,4.316,0,0,1-4.455,3.383c-2.828,0-4.815-2.062-4.815-5.405,0-3.242,1.906-5.4,4.775-5.4,3.09,0,4.756,2.442,4.756,5.4v0.561Zm-7.826-1.441h6.1a3.032,3.032,0,0,0-3.03-3.062C242.885,147.358,241.7,148.378,241.44,150.42Zm-74.259,28.558V181h-1.4v-2.042c-2.93-.24-4.976-1.741-5.016-4.984h1.745a3.239,3.239,0,0,0,3.271,3.442v-5.424l-0.2-.04c-2.428-.54-4.334-1.521-4.334-4.123,0-2.2,1.766-3.6,4.535-3.723v-2h1.4v2.061c3.371,0.321,4.454,2.282,4.515,4.4H169.97a2.776,2.776,0,0,0-2.789-2.881v4.964l0.422,0.1c3.29,0.721,4.453,2,4.453,4.064C172.056,177.217,170.311,178.838,167.181,178.978Zm-1.4-8.647v-4.7c-1.846.1-2.79,0.941-2.79,2.2S163.55,169.77,165.777,170.331Zm4.534,4.484c0-1.3-.863-1.962-3.13-2.5v5.143C169.167,177.337,170.311,176.456,170.311,174.815Zm8,3.863h-1.684V168.049h-3.251v-1.321l0.321-.02c1.846-.12,2.889-0.56,3.25-2.282h1.364v14.252Zm11.777-1.522v1.522h-9.43l0.04-.781a5.833,5.833,0,0,1,3.11-5.224l1.805-1.04c1.726-1,2.509-1.9,2.509-3.4a2.537,2.537,0,0,0-2.829-2.6c-1.785,0-2.99.882-2.99,3.063H180.64c-0.041-2.943,1.745-4.584,4.7-4.584,2.709,0,4.555,1.7,4.555,4.123,0,1.822-.964,3.324-3.251,4.645l-1.525.88c-1.645.961-2.448,1.821-2.568,3.4h7.544Zm10.933-2.961a4.645,4.645,0,0,1-4.956,4.8,4.514,4.514,0,0,1-4.856-4.283H192.9a3.011,3.011,0,0,0,3.17,2.762,3.284,3.284,0,0,0,0-6.565,2.986,2.986,0,0,0-2.929,1.721h-1.565l1.2-8.207h7.384v1.522h-6.019l-0.683,4.483a4.086,4.086,0,0,1,2.709-1.041A4.543,4.543,0,0,1,201.023,174.2Zm20.461-2.523v7.006h-1.605v-6.846a1.967,1.967,0,0,0-2.167-2.282c-1.3,0-2.648,1-2.648,3.483v5.645h-1.606v-6.846a1.975,1.975,0,0,0-2.166-2.282c-1.265,0-2.649,1-2.649,3.483v5.645h-1.6V168.349h1.525v1.522a3.327,3.327,0,0,1,2.989-1.762,3.241,3.241,0,0,1,3.19,1.942,3.579,3.579,0,0,1,3.191-1.942A3.287,3.287,0,0,1,221.484,171.672Zm2.224-5.864a1.084,1.084,0,1,1,1.083,1.081A1.091,1.091,0,0,1,223.708,165.808Zm0.281,2.541h1.6v10.329h-1.6V168.349ZM228.1,176.6V164.426h1.6v12.03a0.8,0.8,0,0,0,.984.881h0.762v1.341a10.209,10.209,0,0,1-1.024.059C228.983,178.737,228.1,178.178,228.1,176.6Zm4.854,0V164.426h1.6v12.03a0.8,0.8,0,0,0,.984.881h0.762v1.341a10.209,10.209,0,0,1-1.024.059C233.838,178.737,232.955,178.178,232.955,176.6Zm4.573-10.789a1.084,1.084,0,1,1,1.084,1.081A1.092,1.092,0,0,1,237.528,165.808Zm0.282,2.541h1.6v10.329h-1.6V168.349Zm3.611,5.165c0-3.3,2.107-5.405,5.016-5.405s5.016,2.1,5.016,5.405-2.107,5.4-5.016,5.4S241.421,176.816,241.421,173.514Zm8.346,0c0-2.5-1.324-3.964-3.33-3.964s-3.33,1.461-3.33,3.964,1.324,3.963,3.33,3.963S249.767,176.016,249.767,173.514Zm12.117-1.822v6.986h-1.605v-6.825a2.075,2.075,0,0,0-2.367-2.3c-1.345,0-2.85,1-2.85,3.284v5.844h-1.605V168.349h1.525v1.541a3.816,3.816,0,0,1,3.25-1.781A3.3,3.3,0,0,1,261.884,171.692Zm2.2,5.945a1.175,1.175,0,0,1,2.347,0A1.174,1.174,0,1,1,264.088,177.637Z"/>
</svg>
