<svg id="Consideration" xmlns="http://www.w3.org/2000/svg" width="300" height="250" viewBox="0 0 300 250">
  <defs>
    <style>
      .cls-1 {
        fill: #414141;
        fill-rule: evenodd;
      }
    </style>
  </defs>
  <g id="F3">
    <path id="_Plus_taxes._With_TELUS_Easy_Payment_._" data-name=" *Plus taxes. With TELUS Easy Payment®.  " class="cls-1" d="M192.247,239.353l0.474-.654,0.475,0.654,0.25-.2-0.48-.664,0.76-.245-0.1-.3-0.74.24v-0.79h-0.319v0.79l-0.74-.24-0.1.3,0.76,0.245-0.48.664Zm2.448,1.6V239.5h0.918a1.39,1.39,0,0,0,1.049-.316,1.1,1.1,0,0,0,.291-0.773,1.089,1.089,0,0,0-.109-0.488,0.881,0.881,0,0,0-.287-0.346,1.073,1.073,0,0,0-.441-0.167,3.251,3.251,0,0,0-.545-0.034h-1.35v3.579H194.7Zm0-3.157h0.915a2.031,2.031,0,0,1,.442.032,0.532,0.532,0,0,1,.3.211,0.647,0.647,0,0,1,.114.385,0.612,0.612,0,0,1-.193.481,0.982,0.982,0,0,1-.652.171H194.7V237.8Zm3.2,3.157v-3.579h-0.439v3.579H197.9Zm2.762,0V238.36h-0.439v1.389a1.38,1.38,0,0,1-.073.507,0.564,0.564,0,0,1-.245.276,0.726,0.726,0,0,1-.371.1,0.545,0.545,0,0,1-.332-0.1,0.456,0.456,0,0,1-.176-0.272A2.549,2.549,0,0,1,199,239.8V238.36h-0.439v1.607a2.217,2.217,0,0,0,.027.41,0.837,0.837,0,0,0,.135.326,0.72,0.72,0,0,0,.3.221,1.054,1.054,0,0,0,.428.088,0.95,0.95,0,0,0,.823-0.44v0.381h0.393Zm0.842-.151a1.216,1.216,0,0,0,.77.21,1.341,1.341,0,0,0,.547-0.107,0.829,0.829,0,0,0,.37-0.3,0.74,0.74,0,0,0,.128-0.414,0.617,0.617,0,0,0-.394-0.606,5.388,5.388,0,0,0-.651-0.2c-0.215-.059-0.344-0.1-0.388-0.113a0.382,0.382,0,0,1-.169-0.117,0.246,0.246,0,0,1-.053-0.154,0.292,0.292,0,0,1,.129-0.234,0.715,0.715,0,0,1,.432-0.1,0.621,0.621,0,0,1,.4.112,0.471,0.471,0,0,1,.17.313l0.429-.059a0.925,0.925,0,0,0-.151-0.4,0.718,0.718,0,0,0-.341-0.238,1.485,1.485,0,0,0-.535-0.088,1.327,1.327,0,0,0-.38.052,0.927,0.927,0,0,0-.28.128,0.71,0.71,0,0,0-.216.246,0.664,0.664,0,0,0-.079.321,0.656,0.656,0,0,0,.1.348,0.649,0.649,0,0,0,.284.246,3.965,3.965,0,0,0,.67.211,1.944,1.944,0,0,1,.449.149,0.267,0.267,0,0,1,.129.235,0.367,0.367,0,0,1-.146.289,0.69,0.69,0,0,1-.449.123,0.71,0.71,0,0,1-.468-0.139,0.612,0.612,0,0,1-.2-0.4l-0.434.068A0.972,0.972,0,0,0,201.5,240.8Zm4.543-.225a0.293,0.293,0,0,1-.15-0.032,0.184,0.184,0,0,1-.076-0.085,0.787,0.787,0,0,1-.023-0.242V238.7h0.442V238.36H205.8v-0.906l-0.437.264v0.642h-0.322V238.7h0.322v1.492a1.573,1.573,0,0,0,.054.519,0.425,0.425,0,0,0,.185.2,0.748,0.748,0,0,0,.372.076,1.64,1.64,0,0,0,.332-0.039l-0.064-.388a1.5,1.5,0,0,1-.193.017h0Zm2.456,0.376h0.459a0.991,0.991,0,0,1-.111-0.311,6.178,6.178,0,0,1-.028-0.775v-0.586a2.439,2.439,0,0,0-.022-0.406,0.7,0.7,0,0,0-.137-0.3,0.71,0.71,0,0,0-.305-0.2,1.559,1.559,0,0,0-.54-0.078,1.729,1.729,0,0,0-.588.091,0.844,0.844,0,0,0-.388.261,1.064,1.064,0,0,0-.193.446l0.43,0.059a0.665,0.665,0,0,1,.218-0.385,0.78,0.78,0,0,1,.458-0.109,0.736,0.736,0,0,1,.5.149,0.488,0.488,0,0,1,.125.379c0,0.016,0,.054,0,0.114a3.96,3.96,0,0,1-.784.152,3.073,3.073,0,0,0-.391.066,1.047,1.047,0,0,0-.316.144,0.718,0.718,0,0,0-.227.252,0.708,0.708,0,0,0-.087.348,0.69,0.69,0,0,0,.23.534,0.944,0.944,0,0,0,.657.209,1.354,1.354,0,0,0,.484-0.086,1.62,1.62,0,0,0,.47-0.293,0.922,0.922,0,0,0,.088.32h0Zm-0.124-1.14a1.06,1.06,0,0,1-.071.439,0.683,0.683,0,0,1-.291.3,0.905,0.905,0,0,1-.451.111,0.575,0.575,0,0,1-.39-0.117,0.389,0.389,0,0,1-.072-0.5,0.387,0.387,0,0,1,.173-0.142,1.639,1.639,0,0,1,.384-0.088,3.265,3.265,0,0,0,.718-0.166v0.161Zm1.445,1.14,0.681-1.023,0.142,0.217,0.532,0.806h0.539l-0.964-1.372,0.9-1.221h-0.525l-0.437.613c-0.06.083-.126,0.178-0.2,0.286-0.045-.078-0.106-0.175-0.18-0.291l-0.4-.608h-0.55l0.877,1.245-0.947,1.348h0.532Zm3.675-.43a0.669,0.669,0,0,1-.412.127,0.716,0.716,0,0,1-.542-0.227,0.992,0.992,0,0,1-.242-0.654h1.934c0-.052,0-0.091,0-0.117a1.41,1.41,0,0,0-.329-1,1.109,1.109,0,0,0-.85-0.354,1.14,1.14,0,0,0-.874.361,1.431,1.431,0,0,0-.337,1.016,1.368,1.368,0,0,0,.333.982,1.185,1.185,0,0,0,.9.351,1.2,1.2,0,0,0,.743-0.22,1.117,1.117,0,0,0,.4-0.618l-0.455-.056A0.831,0.831,0,0,1,213.5,240.523Zm-0.943-1.657a0.7,0.7,0,0,1,.509-0.2,0.674,0.674,0,0,1,.544.254,0.874,0.874,0,0,1,.166.491h-1.447A0.8,0.8,0,0,1,212.554,238.866Zm2.4,1.936a1.216,1.216,0,0,0,.77.21,1.345,1.345,0,0,0,.547-0.107,0.829,0.829,0,0,0,.37-0.3,0.74,0.74,0,0,0,.128-0.414,0.646,0.646,0,0,0-.105-0.376,0.656,0.656,0,0,0-.289-0.23,5.388,5.388,0,0,0-.651-0.2c-0.215-.059-0.344-0.1-0.388-0.113a0.382,0.382,0,0,1-.169-0.117,0.24,0.24,0,0,1-.053-0.154,0.292,0.292,0,0,1,.129-0.234,0.715,0.715,0,0,1,.432-0.1,0.621,0.621,0,0,1,.4.112,0.47,0.47,0,0,1,.169.313l0.43-.059a0.937,0.937,0,0,0-.151-0.4,0.718,0.718,0,0,0-.341-0.238,1.491,1.491,0,0,0-.536-0.088,1.325,1.325,0,0,0-.379.052,0.927,0.927,0,0,0-.28.128,0.71,0.71,0,0,0-.216.246,0.664,0.664,0,0,0-.079.321,0.656,0.656,0,0,0,.1.348,0.646,0.646,0,0,0,.283.246,4.016,4.016,0,0,0,.671.211,1.944,1.944,0,0,1,.449.149,0.267,0.267,0,0,1,.129.235,0.37,0.37,0,0,1-.146.289,0.691,0.691,0,0,1-.45.123,0.707,0.707,0,0,1-.467-0.139,0.608,0.608,0,0,1-.2-0.4l-0.434.068A0.972,0.972,0,0,0,214.955,240.8Zm2.25,0.151h0.5v-0.5h-0.5v0.5Zm6-3.559-0.484,1.754c-0.115.405-.235,0.85-0.335,1.275-0.11-.425-0.225-0.865-0.34-1.285l-0.485-1.744h-0.47l-0.485,1.744c-0.115.42-.23,0.86-0.34,1.285-0.1-.425-0.22-0.87-0.335-1.275l-0.485-1.754H219.01l1.009,3.559h0.47l0.51-1.815c0.11-.384.225-0.8,0.325-1.2,0.1,0.4.215,0.82,0.325,1.2l0.51,1.815h0.47l1.009-3.559H223.2Zm0.815,0.59h0.424v-0.49h-0.424v0.49Zm0.015,2.969h0.4v-2.579h-0.4v2.579Zm2.14-2.229v-0.35h-0.53v-0.73h-0.4v0.73h-0.425v0.35h0.425v1.709a0.523,0.523,0,0,0,.645.535q0.12,0,.285-0.015v-0.335h-0.235c-0.23,0-.295-0.085-0.295-0.22v-1.674h0.53Zm1.616-.41a0.95,0.95,0,0,0-.79.415v-1.335h-0.4v3.559H227v-1.46a0.734,0.734,0,0,1,.71-0.819,0.517,0.517,0,0,1,.59.574v1.705h0.4v-1.745A0.822,0.822,0,0,0,227.789,238.314Zm5.165-.92H230.1v0.38h1.21v3.179h0.435v-3.179h1.21v-0.38Zm2.89,0.38v-0.38H233.37v3.559h2.454v-0.38H233.79v-1.285h1.854v-0.379H233.79v-1.135h2.054Zm0.86,2.8v-3.179h-0.42v3.559h2.209v-0.38H236.7Zm3.46,0.455a1.27,1.27,0,0,0,1.4-1.395v-2.239h-0.42v2.239a0.98,0.98,0,1,1-1.959,0v-2.239h-0.42v2.239A1.27,1.27,0,0,0,240.164,241.028Zm3.346,0a1.119,1.119,0,0,0,1.335-1.045,1.067,1.067,0,0,0-1.11-1.014l-0.315-.07c-0.67-.15-0.835-0.32-0.835-0.66a0.628,0.628,0,0,1,.78-0.55,0.764,0.764,0,0,1,.96.735h0.43a1.147,1.147,0,0,0-1.39-1.115,1.026,1.026,0,0,0-1.215.93,1.086,1.086,0,0,0,1.08,1.029l0.315,0.07c0.63,0.14.865,0.305,0.865,0.645a0.726,0.726,0,0,1-.9.665,0.874,0.874,0,0,1-1.045-.875H242.03A1.256,1.256,0,0,0,243.51,241.033Zm5.259-3.259v-0.38H246.3v3.559h2.454v-0.38h-2.034v-1.285h1.855v-0.379h-1.855v-1.135h2.054Zm2.574,2.854a0.118,0.118,0,0,1-.14-0.125v-1.44c0-.434-0.255-0.749-0.97-0.749a0.873,0.873,0,0,0-1.05.854h0.4c0.025-.384.21-0.509,0.65-0.509s0.58,0.135.58,0.4a0.359,0.359,0,0,1-.405.355l-0.37.04a0.843,0.843,0,0,0-.955.8,0.772,0.772,0,0,0,.91.755,0.946,0.946,0,0,0,.84-0.415,0.37,0.37,0,0,0,.435.37,1.5,1.5,0,0,0,.219-0.015v-0.325h-0.144Zm-1.33.045a0.427,0.427,0,0,1-.515-0.425c0-.25.13-0.41,0.6-0.465l0.375-.045a0.666,0.666,0,0,0,.34-0.11v0.305A0.741,0.741,0,0,1,250.013,240.673Zm2.8,0.34a0.846,0.846,0,0,0,1.025-.77c0-.42-0.255-0.635-0.89-0.76l-0.23-.045c-0.33-.065-0.52-0.155-0.52-0.4a0.436,0.436,0,0,1,.54-0.38,0.518,0.518,0,0,1,.65.509h0.4a0.87,0.87,0,0,0-1.05-.854,0.757,0.757,0,1,0-.135,1.489l0.24,0.045c0.45,0.085.59,0.19,0.59,0.42,0,0.255-.185.4-0.62,0.4a0.558,0.558,0,0,1-.69-0.535h-0.405A0.927,0.927,0,0,0,252.816,241.013Zm3.083-2.639-0.365,1.069c-0.13.375-.255,0.75-0.37,1.12-0.12-.37-0.24-0.74-0.37-1.115l-0.365-1.074h-0.44l0.97,2.664c-0.03.08-.06,0.165-0.09,0.24a0.452,0.452,0,0,1-.47.32h-0.235v0.335a2,2,0,0,0,.24.015,0.78,0.78,0,0,0,.84-0.59l1.09-2.984H255.9Zm2.319,2.579V239.5h0.918a1.392,1.392,0,0,0,1.05-.316,1.163,1.163,0,0,0,.182-1.261,0.881,0.881,0,0,0-.287-0.346,1.077,1.077,0,0,0-.442-0.167,3.237,3.237,0,0,0-.544-0.034h-1.35v3.579h0.473Zm0-3.157h0.916a2.031,2.031,0,0,1,.442.032,0.536,0.536,0,0,1,.3.211,0.646,0.646,0,0,1,.113.385,0.612,0.612,0,0,1-.192.481,0.982,0.982,0,0,1-.652.171h-0.926V237.8Zm4.524,3.157H263.2a0.944,0.944,0,0,1-.111-0.311,6.178,6.178,0,0,1-.028-0.775v-0.586a2.557,2.557,0,0,0-.022-0.406,0.7,0.7,0,0,0-.137-0.3,0.71,0.71,0,0,0-.305-0.2,1.562,1.562,0,0,0-.54-0.078,1.729,1.729,0,0,0-.588.091,0.844,0.844,0,0,0-.388.261,1.064,1.064,0,0,0-.193.446l0.43,0.059a0.665,0.665,0,0,1,.218-0.385,0.778,0.778,0,0,1,.458-0.109,0.736,0.736,0,0,1,.5.149,0.488,0.488,0,0,1,.125.379q0,0.024,0,.114a3.947,3.947,0,0,1-.783.152,3.04,3.04,0,0,0-.391.066,1.036,1.036,0,0,0-.316.144,0.718,0.718,0,0,0-.227.252,0.708,0.708,0,0,0-.087.348,0.69,0.69,0,0,0,.23.534,0.943,0.943,0,0,0,.656.209,1.359,1.359,0,0,0,.485-0.086,1.62,1.62,0,0,0,.47-0.293,0.922,0.922,0,0,0,.088.32h0Zm-0.125-1.14a1.063,1.063,0,0,1-.07.439,0.683,0.683,0,0,1-.291.3,0.907,0.907,0,0,1-.452.111,0.572,0.572,0,0,1-.389-0.117,0.389,0.389,0,0,1-.072-0.5,0.381,0.381,0,0,1,.173-0.142,1.639,1.639,0,0,1,.384-0.088,3.239,3.239,0,0,0,.717-0.166v0.161Zm1.3,2.192a0.64,0.64,0,0,0,.361-0.1,0.869,0.869,0,0,0,.268-0.319,5.057,5.057,0,0,0,.247-0.588l0.986-2.637h-0.439l-0.554,1.511a5.857,5.857,0,0,0-.181.591q-0.082-.315-0.188-0.6l-0.54-1.5H263.4l0.984,2.6c-0.018.047-.031,0.083-0.039,0.107a2.116,2.116,0,0,1-.135.327,0.386,0.386,0,0,1-.144.137,0.473,0.473,0,0,1-.234.049,0.982,0.982,0,0,1-.252-0.039l0.049,0.413a0.9,0.9,0,0,0,.284.053h0Zm2.7-1.052v-1.345a1.611,1.611,0,0,1,.071-0.542,0.55,0.55,0,0,1,.228-0.286,0.642,0.642,0,0,1,.343-0.1,0.407,0.407,0,0,1,.352.147,0.738,0.738,0,0,1,.107.439v1.685h0.44v-1.506a0.806,0.806,0,0,1,.18-0.583,0.617,0.617,0,0,1,.455-0.182,0.486,0.486,0,0,1,.263.071,0.366,0.366,0,0,1,.155.187,1.186,1.186,0,0,1,.043.38v1.633h0.437v-1.78a0.916,0.916,0,0,0-.207-0.658,0.794,0.794,0,0,0-.594-0.213,0.931,0.931,0,0,0-.8.454,0.64,0.64,0,0,0-.26-0.335,0.856,0.856,0,0,0-.472-0.119,0.916,0.916,0,0,0-.786.422V238.36H266.17v2.593h0.439Zm5.24-.43a0.672,0.672,0,0,1-.413.127,0.718,0.718,0,0,1-.542-0.227,1,1,0,0,1-.242-0.654h1.934q0-.078,0-0.117a1.405,1.405,0,0,0-.33-1,1.109,1.109,0,0,0-.85-0.354,1.14,1.14,0,0,0-.874.361,1.435,1.435,0,0,0-.337,1.016,1.364,1.364,0,0,0,.334.982,1.183,1.183,0,0,0,.9.351,1.2,1.2,0,0,0,.742-0.22,1.112,1.112,0,0,0,.4-0.618l-0.454-.056A0.838,0.838,0,0,1,271.849,240.523Zm-0.944-1.657a0.7,0.7,0,0,1,.509-0.2,0.675,0.675,0,0,1,.545.254,0.881,0.881,0,0,1,.166.491h-1.448A0.8,0.8,0,0,1,270.9,238.866Zm2.663,2.087v-1.416a0.878,0.878,0,0,1,.2-0.676,0.711,0.711,0,0,1,.485-0.179,0.577,0.577,0,0,1,.306.08,0.425,0.425,0,0,1,.182.212,1.194,1.194,0,0,1,.051.4v1.577h0.44v-1.594a2.54,2.54,0,0,0-.025-0.428,0.832,0.832,0,0,0-.137-0.324,0.677,0.677,0,0,0-.294-0.221,1.083,1.083,0,0,0-.431-0.084,0.933,0.933,0,0,0-.825.427V238.36h-0.395v2.593h0.439Zm3.064-.376a0.3,0.3,0,0,1-.151-0.032,0.177,0.177,0,0,1-.075-0.085,0.746,0.746,0,0,1-.024-0.242V238.7h0.442V238.36h-0.442v-0.906l-0.437.264v0.642h-0.322V238.7h0.322v1.492a1.573,1.573,0,0,0,.054.519,0.422,0.422,0,0,0,.186.2,0.744,0.744,0,0,0,.371.076,1.64,1.64,0,0,0,.332-0.039l-0.064-.388a1.485,1.485,0,0,1-.192.017h0Zm1.8-3.263a1.185,1.185,0,1,0,1.22,1.185A1.194,1.194,0,0,0,278.432,237.314Zm0,2.134a0.952,0.952,0,1,1,.97-0.949A0.945,0.945,0,0,1,278.432,239.448Zm0.475-.709a0.252,0.252,0,0,0-.15-0.235,0.3,0.3,0,0,0,.185-0.3,0.374,0.374,0,0,0-.445-0.355h-0.54v1.269h0.22v-0.509h0.345c0.125,0,.165.045,0.175,0.185l0.01,0.13a0.346,0.346,0,0,0,.05.194h0.225a0.356,0.356,0,0,1-.06-0.194Zm-0.39-.33h-0.34v-0.36h0.32a0.18,0.18,0,0,1,.22.18A0.174,0.174,0,0,1,278.517,238.409Zm1.372,2.544h0.5v-0.5h-0.5v0.5Z"/>
  </g>
</svg>
