<svg id="Conversion" xmlns="http://www.w3.org/2000/svg" width="300" height="600" viewBox="0 0 300 600">
  <defs>
    <style>
      .cls-1 {
        fill: #462b69;
        fill-rule: evenodd;
      }
    </style>
  </defs>
  <g id="F1">
    <path id="Paayein_nayi_Galaxy_S23_Series_at_0_upfront_only_on_TELUS._" data-name="Paayein nayi Galaxy S23 Series at $0 upfront* only on TELUS. " class="cls-1" d="M52.513,90.979h-7.4v17.8h2.1v-6.849h5.3c3.949,0,5.9-2.275,5.9-5.474S56.463,90.979,52.513,90.979Zm0,9.049h-5.3V92.878h5.3c2.5,0,3.724,1.325,3.724,3.574S55.013,100.027,52.513,100.027Zm17.925,7.124a0.591,0.591,0,0,1-.7-0.625v-7.2c0-2.175-1.275-3.749-4.849-3.749-3.774,0-5.1,1.775-5.249,4.274h2c0.125-1.925,1.05-2.55,3.249-2.55s2.9,0.675,2.9,2.025c0,1.15-.725,1.625-2.025,1.775l-1.85.2c-3.55.375-4.774,1.975-4.774,4,0,2.425,1.75,3.775,4.549,3.775a4.727,4.727,0,0,0,4.2-2.075,1.85,1.85,0,0,0,2.175,1.85,7.605,7.605,0,0,0,1.1-.075v-1.625H70.438Zm-6.649.225c-1.775,0-2.575-.85-2.575-2.125,0-1.249.65-2.049,3-2.324l1.875-.225a3.328,3.328,0,0,0,1.7-.55v1.525A3.7,3.7,0,0,1,63.789,107.376Zm19.924-.225a0.591,0.591,0,0,1-.7-0.625v-7.2c0-2.175-1.275-3.749-4.849-3.749-3.774,0-5.1,1.775-5.249,4.274h2c0.125-1.925,1.05-2.55,3.249-2.55s2.9,0.675,2.9,2.025c0,1.15-.725,1.625-2.025,1.775l-1.85.2c-3.549.375-4.774,1.975-4.774,4,0,2.425,1.75,3.775,4.549,3.775a4.727,4.727,0,0,0,4.2-2.075,1.85,1.85,0,0,0,2.175,1.85,7.6,7.6,0,0,0,1.1-.075v-1.625H83.712Zm-6.649.225c-1.775,0-2.575-.85-2.575-2.125,0-1.249.65-2.049,3-2.324l1.875-.225a3.327,3.327,0,0,0,1.7-.55v1.525A3.7,3.7,0,0,1,77.063,107.376Zm16.8-11.5-1.825,5.349c-0.65,1.875-1.275,3.749-1.85,5.6-0.6-1.85-1.2-3.7-1.85-5.574l-1.825-5.374h-2.2L89.164,109.2c-0.15.4-.3,0.825-0.45,1.2a2.26,2.26,0,0,1-2.35,1.6H85.189v1.675a9.971,9.971,0,0,0,1.2.075,3.9,3.9,0,0,0,4.2-2.949l5.449-14.923H93.863Zm14.424,6.449c0-3.7-2.075-6.749-5.924-6.749-3.575,0-5.949,2.7-5.949,6.749,0,4.174,2.475,6.749,6,6.749a5.38,5.38,0,0,0,5.549-4.225h-2.075a3.312,3.312,0,0,1-3.424,2.4c-2.25,0-3.774-1.325-3.974-4.224h9.8v-0.7ZM102.363,97.4c2.3,0,3.574,1.7,3.774,3.825h-7.6C98.864,98.677,100.338,97.4,102.363,97.4Zm9.426-3.35a1.35,1.35,0,1,0-1.35-1.35A1.36,1.36,0,0,0,111.789,94.053Zm-1,14.723h2v-12.9h-2v12.9Zm11.074-13.2a4.753,4.753,0,0,0-4.05,2.225V95.878h-1.9v12.9h2v-7.3c0-2.85,1.875-4.1,3.55-4.1,1.85,0,2.949.875,2.949,2.874v8.524h2v-8.724C126.412,97.2,124.737,95.578,121.863,95.578Zm18.5,0a4.752,4.752,0,0,0-4.049,2.225V95.878h-1.9v12.9h2v-7.3c0-2.85,1.875-4.1,3.549-4.1,1.85,0,2.95.875,2.95,2.874v8.524h2v-8.724C144.912,97.2,143.237,95.578,140.362,95.578Zm18.224,11.573a0.591,0.591,0,0,1-.7-0.625v-7.2c0-2.175-1.275-3.749-4.85-3.749-3.774,0-5.1,1.775-5.249,4.274h2c0.125-1.925,1.05-2.55,3.249-2.55s2.9,0.675,2.9,2.025c0,1.15-.725,1.625-2.025,1.775l-1.85.2c-3.549.375-4.774,1.975-4.774,4,0,2.425,1.75,3.775,4.549,3.775a4.728,4.728,0,0,0,4.2-2.075,1.85,1.85,0,0,0,2.175,1.85,7.6,7.6,0,0,0,1.1-.075v-1.625h-0.725Zm-6.649.225c-1.774,0-2.574-.85-2.574-2.125,0-1.249.65-2.049,3-2.324l1.875-.225a3.328,3.328,0,0,0,1.7-.55v1.525A3.7,3.7,0,0,1,151.937,107.376Zm16.8-11.5-1.825,5.349c-0.65,1.875-1.275,3.749-1.85,5.6-0.6-1.85-1.2-3.7-1.849-5.574l-1.825-5.374h-2.2l4.85,13.323c-0.15.4-.3,0.825-0.45,1.2a2.26,2.26,0,0,1-2.35,1.6h-1.175v1.675a9.974,9.974,0,0,0,1.2.075,3.9,3.9,0,0,0,4.2-2.949l5.45-14.923h-2.175Zm4.8-1.825a1.35,1.35,0,1,0-1.35-1.35A1.36,1.36,0,0,0,173.538,94.053Zm-1,14.723h2v-12.9h-2v12.9Zm18.223-9.149v1.9h5.675a5.791,5.791,0,0,1-6.075,5.724c-3.774,0-6.249-2.849-6.249-7.374s2.45-7.374,6.249-7.374a5.358,5.358,0,0,1,5.6,4.3h2.174c-0.6-3.7-3.474-6.224-7.774-6.224-5.149,0-8.448,3.774-8.448,9.3s3.324,9.3,8.423,9.3a6.83,6.83,0,0,0,5.825-2.8l0.45,2.4h1.724V99.627h-7.574Zm21.125,7.524a0.591,0.591,0,0,1-.7-0.625v-7.2c0-2.175-1.275-3.749-4.849-3.749-3.775,0-5.1,1.775-5.249,4.274h2c0.125-1.925,1.05-2.55,3.25-2.55s2.9,0.675,2.9,2.025c0,1.15-.725,1.625-2.024,1.775l-1.85.2c-3.55.375-4.774,1.975-4.774,4,0,2.425,1.749,3.775,4.549,3.775a4.726,4.726,0,0,0,4.2-2.075,1.85,1.85,0,0,0,2.175,1.85,7.607,7.607,0,0,0,1.1-.075v-1.625h-0.725Zm-6.649.225c-1.775,0-2.575-.85-2.575-2.125,0-1.249.65-2.049,3-2.324l1.875-.225a3.327,3.327,0,0,0,1.7-.55v1.525A3.7,3.7,0,0,1,205.237,107.376Zm12.025,1.475a12.708,12.708,0,0,0,1.275-.075V107.1h-0.95a1,1,0,0,1-1.225-1.1V90.979h-2v15.2C214.363,108.151,215.462,108.851,217.262,108.851Zm13.7-1.7a0.591,0.591,0,0,1-.7-0.625v-7.2c0-2.175-1.275-3.749-4.849-3.749-3.775,0-5.1,1.775-5.249,4.274h2c0.125-1.925,1.05-2.55,3.25-2.55s2.9,0.675,2.9,2.025c0,1.15-.724,1.625-2.024,1.775l-1.85.2c-3.549.375-4.774,1.975-4.774,4,0,2.425,1.749,3.775,4.549,3.775a4.725,4.725,0,0,0,4.2-2.075,1.85,1.85,0,0,0,2.175,1.85,7.607,7.607,0,0,0,1.1-.075v-1.625h-0.725Zm-6.649.225c-1.775,0-2.575-.85-2.575-2.125,0-1.249.65-2.049,3-2.324l1.875-.225a3.321,3.321,0,0,0,1.7-.55v1.525A3.7,3.7,0,0,1,224.312,107.376Zm15.1-5.2,4.674-6.3h-2.325l-0.975,1.375c-0.8,1.1-1.674,2.325-2.5,3.5-0.8-1.175-1.65-2.35-2.5-3.5l-1-1.375h-2.349l4.674,6.3-4.924,6.6h2.324l0.675-.95c1-1.425,2.075-2.875,3.075-4.224,0.975,1.324,2,2.749,3.024,4.2l0.7,0.975h2.35Zm14.724-6.3-1.824,5.349c-0.65,1.875-1.275,3.749-1.85,5.6-0.6-1.85-1.2-3.7-1.85-5.574l-1.825-5.374h-2.2l4.849,13.323c-0.15.4-.3,0.825-0.45,1.2a2.26,2.26,0,0,1-2.35,1.6h-1.174v1.675a9.945,9.945,0,0,0,1.2.075,3.9,3.9,0,0,0,4.2-2.949l5.449-14.923h-2.175Zm-228.2,45.013c4.274,0,6.674-2.075,6.674-5.224,0-2.575-1.45-4.175-5.549-5.075l-1.575-.35c-3.349-.749-4.174-1.6-4.174-3.3,0-1.675,1.325-2.75,3.9-2.75,3.55,0,4.624,1.375,4.8,3.675h2.15c-0.075-2.9-1.7-5.574-6.949-5.574-3.7,0-6.074,1.8-6.074,4.649,0,3.249,2.375,4.474,5.4,5.149l1.575,0.35c3.149,0.7,4.324,1.525,4.324,3.225,0,2.2-1.65,3.324-4.5,3.324-2.9,0-5.174-1.075-5.224-4.374H18.535C18.585,139.066,21.684,140.891,25.934,140.891Zm10.826-2.3c0.15-1.974,1.15-3.049,3.2-4.249l1.9-1.1c2.85-1.65,4.049-3.524,4.049-5.8,0-3.025-2.3-5.149-5.674-5.149-3.674,0-5.9,2.049-5.849,5.724H36.46c0-2.725,1.5-3.825,3.724-3.825,2.275,0,3.524,1.375,3.524,3.25s-0.975,3-3.124,4.249l-2.25,1.3a7.288,7.288,0,0,0-3.874,6.524l-0.05.975H46.158v-1.9h-9.4Zm20.3-7.574a4.3,4.3,0,0,0,2.425-3.9c0-3.125-2.4-4.824-5.7-4.824-3.6,0-5.8,2.124-5.824,5.3h2.1c0.1-2.4,1.675-3.4,3.724-3.4,2.175,0,3.575,1.075,3.575,2.975s-1.3,3.024-3.7,3.024h-1.2v1.75h1.325c2.5,0,4.049,1.4,4.049,3.55s-1.55,3.5-3.924,3.5c-2.6,0-4.074-1.35-4.149-3.874H47.685c-0.025,3.449,2.15,5.774,6.224,5.774,3.624,0,6.124-2.15,6.124-5.4A4.944,4.944,0,0,0,57.059,131.017Zm17,9.874c4.274,0,6.674-2.075,6.674-5.224,0-2.575-1.45-4.175-5.549-5.075l-1.575-.35c-3.35-.749-4.174-1.6-4.174-3.3,0-1.675,1.325-2.75,3.9-2.75,3.549,0,4.624,1.375,4.8,3.675h2.15c-0.075-2.9-1.7-5.574-6.949-5.574-3.7,0-6.074,1.8-6.074,4.649,0,3.249,2.375,4.474,5.4,5.149l1.575,0.35c3.15,0.7,4.324,1.525,4.324,3.225,0,2.2-1.65,3.324-4.5,3.324-2.9,0-5.174-1.075-5.224-4.374H66.66C66.71,139.066,69.809,140.891,74.058,140.891Zm20.549-6.849c0-3.7-2.075-6.749-5.924-6.749-3.575,0-5.949,2.7-5.949,6.749,0,4.174,2.475,6.749,6,6.749a5.381,5.381,0,0,0,5.549-4.224H92.208a3.314,3.314,0,0,1-3.424,2.4c-2.25,0-3.775-1.325-3.975-4.224h9.8v-0.7Zm-5.924-4.924c2.3,0,3.575,1.7,3.774,3.824h-7.6C85.184,130.392,86.659,129.118,88.684,129.118Zm14.475-1.725a4.5,4.5,0,0,0-4.149,2.475v-2.275h-1.9v12.9h2v-7.349c0-2.5,1.65-3.8,4.224-3.8h0.5v-1.925C103.558,127.393,103.358,127.393,103.158,127.393Zm3.676-1.625a1.35,1.35,0,1,0-1.35-1.35A1.36,1.36,0,0,0,106.834,125.768Zm-1,14.723h2v-12.9h-2v12.9Zm16.373-6.449c0-3.7-2.074-6.749-5.924-6.749-3.574,0-5.949,2.7-5.949,6.749,0,4.174,2.475,6.749,6,6.749a5.38,5.38,0,0,0,5.549-4.224h-2.074a3.314,3.314,0,0,1-3.425,2.4c-2.249,0-3.774-1.325-3.974-4.224h9.8v-0.7Zm-5.924-4.924c2.3,0,3.575,1.7,3.775,3.824h-7.6C112.784,130.392,114.258,129.118,116.283,129.118Zm12.851,11.673c3.174,0,5.124-1.4,5.124-3.85,0-2.1-1.275-3.174-4.45-3.8l-1.149-.225c-1.65-.325-2.6-0.775-2.6-2,0-1.2.975-1.9,2.7-1.9,1.974,0,3.149.55,3.249,2.549h2c-0.05-2.749-1.8-4.274-5.249-4.274-2.95,0-4.7,1.45-4.7,3.649,0,2,1.225,3.275,4.025,3.8l1.2,0.225c2.25,0.425,2.95.95,2.95,2.1,0,1.275-.925,2-3.1,2-2.275,0-3.225-.725-3.45-2.674h-2.025C123.859,139.416,125.859,140.791,129.134,140.791Zm22.673-1.925a0.591,0.591,0,0,1-.7-0.625v-7.2c0-2.174-1.275-3.749-4.849-3.749-3.774,0-5.1,1.775-5.249,4.274h2c0.125-1.924,1.05-2.549,3.25-2.549s2.9,0.675,2.9,2.024c0,1.15-.725,1.625-2.025,1.775l-1.85.2c-3.549.375-4.774,1.975-4.774,4,0,2.425,1.75,3.775,4.549,3.775a4.728,4.728,0,0,0,4.2-2.075,1.849,1.849,0,0,0,2.174,1.85,7.607,7.607,0,0,0,1.1-.075v-1.625h-0.725Zm-6.649.225c-1.775,0-2.574-.85-2.574-2.125,0-1.249.649-2.049,3-2.324l1.875-.225a3.328,3.328,0,0,0,1.7-.55v1.525A3.7,3.7,0,0,1,145.158,139.091Zm14.4-9.748v-1.75h-2.65v-3.65h-2v3.65h-2.125v1.75h2.125v8.548c0,1.975,1.225,2.675,3.224,2.675q0.6,0,1.425-.075v-1.675h-1.175c-1.15,0-1.475-.425-1.475-1.1v-8.373h2.65Zm14.617-.135c0-1.647-.991-2.594-3.439-3.075l-0.336-.058v-2.886a1.631,1.631,0,0,1,1.56,1.691h1.909c-0.073-1.778-1.093-3.06-3.469-3.294V120.1h-1.049v1.457c-2.3.1-3.555,1.283-3.555,2.929,0,1.88,1.326,2.769,3.337,3.148l0.218,0.044v3.089a1.879,1.879,0,0,1-1.88-2.026h-1.938c0.015,2.2,1.428,3.454,3.818,3.629v1.486H170.4v-1.471C172.747,132.268,174.175,131.146,174.175,129.208Zm-6.368-4.78c0-.714.51-1.195,1.544-1.268v2.682C168.185,125.55,167.807,125.171,167.807,124.428ZM170.4,130.8v-2.9c1.283,0.306,1.735.671,1.735,1.414C172.135,130.2,171.523,130.709,170.4,130.8Zm12.289,10.095c4.775,0,7.149-3.4,7.149-9.3s-2.4-9.3-7.149-9.3c-4.724,0-7.124,3.4-7.124,9.3S177.965,140.891,182.689,140.891Zm0-2.85c-2.3,0-3.6-1.924-3.6-6.449s1.3-6.449,3.6-6.449c2.325,0,3.625,1.925,3.625,6.449S185.039,138.041,182.689,138.041Zm23.175-10.448v7.3c0,2.849-1.875,4.1-3.55,4.1-1.849,0-2.949-.875-2.949-2.874v-8.524h-2v8.724c0,2.849,1.675,4.474,4.549,4.474a4.752,4.752,0,0,0,4.05-2.225v1.925h1.9v-12.9h-2Zm11.45-.3a5.068,5.068,0,0,0-4.424,2.3v-2h-1.9v17.8h2v-6.749a5.064,5.064,0,0,0,4.324,2.15c3.624,0,6-2.625,6-6.749S220.938,127.293,217.314,127.293Zm-0.25,11.7c-2.5,0-4.149-1.825-4.149-4.949s1.649-4.949,4.149-4.949,4.149,1.724,4.149,4.849S219.564,138.991,217.064,138.991Zm12.975-14.6h1.15v-1.7c-0.3-.025-0.9-0.05-1.275-0.05-2.549,0-3.6,1.349-3.6,3.624v1.325H224.19v1.75h2.125v11.148h2V129.343h2.749v-1.75h-2.749v-1.375A1.587,1.587,0,0,1,230.039,124.393Zm9.2,3a4.5,4.5,0,0,0-4.149,2.475v-2.275h-1.9v12.9h2v-7.349c0-2.5,1.65-3.8,4.224-3.8h0.5v-1.925C239.639,127.393,239.439,127.393,239.239,127.393Zm7.55,13.4c3.625,0,6.249-2.625,6.249-6.749s-2.624-6.749-6.249-6.749-6.249,2.625-6.249,6.749S243.165,140.791,246.789,140.791Zm0-1.8c-2.5,0-4.149-1.825-4.149-4.949s1.649-4.949,4.149-4.949,4.15,1.824,4.15,4.949S249.289,138.991,246.789,138.991Zm14.7-11.7a4.752,4.752,0,0,0-4.05,2.225v-1.925h-1.9v12.9h2v-7.3c0-2.85,1.875-4.1,3.55-4.1,1.85,0,2.949.875,2.949,2.874v8.524h2v-8.724C266.038,128.918,264.363,127.293,261.489,127.293Zm12.825,2.05v-1.75h-2.65v-3.65h-2v3.65H267.54v1.75h2.125v8.548c0,1.975,1.225,2.675,3.224,2.675q0.6,0,1.425-.075v-1.675h-1.175c-1.15,0-1.475-.425-1.475-1.1v-8.373h2.65Zm2.878-1.84,1.385-1.909,1.384,1.909,0.729-.583-1.4-1.938,2.215-.714-0.306-.875-2.157.7v-2.3H278.11v2.3l-2.156-.7-0.306.875,2.215,0.714-1.4,1.938Zm-201.653,45c3.624,0,6.249-2.625,6.249-6.749s-2.625-6.749-6.249-6.749-6.249,2.625-6.249,6.749S71.914,172.506,75.539,172.506Zm0-1.8c-2.5,0-4.149-1.824-4.149-4.949s1.65-4.949,4.149-4.949,4.149,1.824,4.149,4.949S78.038,170.706,75.539,170.706Zm14.7-11.7a4.752,4.752,0,0,0-4.049,2.225v-1.925h-1.9v12.9h2v-7.3c0-2.849,1.875-4.1,3.549-4.1,1.85,0,2.95.875,2.95,2.874v8.524h2v-8.724C94.788,160.633,93.113,159.008,90.238,159.008Zm10.576,13.273a12.69,12.69,0,0,0,1.274-.075v-1.675h-0.949a1,1,0,0,1-1.225-1.1V154.409h-2v15.2C97.914,171.581,99.014,172.281,100.814,172.281Zm10.574-12.973-1.825,5.349c-0.65,1.875-1.275,3.75-1.85,5.6-0.6-1.849-1.2-3.7-1.849-5.574l-1.825-5.374h-2.2l4.85,13.323c-0.15.4-.3,0.825-0.45,1.2a2.26,2.26,0,0,1-2.35,1.6h-1.175v1.674a9.974,9.974,0,0,0,1.2.075,3.9,3.9,0,0,0,4.2-2.949l5.45-14.923h-2.175Zm14.425,13.2c3.624,0,6.249-2.625,6.249-6.749s-2.625-6.749-6.249-6.749-6.249,2.625-6.249,6.749S122.188,172.506,125.813,172.506Zm0-1.8c-2.5,0-4.15-1.824-4.15-4.949s1.65-4.949,4.15-4.949,4.149,1.824,4.149,4.949S128.312,170.706,125.813,170.706Zm14.7-11.7a4.752,4.752,0,0,0-4.049,2.225v-1.925h-1.9v12.9h2v-7.3c0-2.849,1.875-4.1,3.549-4.1,1.85,0,2.95.875,2.95,2.874v8.524h2v-8.724C145.062,160.633,143.387,159.008,140.512,159.008Zm25.824-4.6H152.063v1.9h6.049v15.9h2.175v-15.9h6.049v-1.9Zm14.375,1.9v-1.9H168.338v17.8h12.273v-1.9H170.437v-6.424h9.274v-1.9h-9.274v-5.675h10.274Zm4.476,14v-15.9h-2.1v17.8h11.049v-1.9h-8.949Zm17.075,2.275c4.449,0,7-2.525,7-6.974v-11.2h-2.1v11.2c0,3.5-1.8,5.074-4.9,5.074s-4.9-1.574-4.9-5.074v-11.2h-2.1v11.2C195.263,170.056,197.812,172.581,202.262,172.581Zm16.65,0.025c4.274,0,6.674-2.075,6.674-5.224,0-2.575-1.45-4.175-5.55-5.074l-1.574-.35c-3.35-.75-4.175-1.6-4.175-3.3,0-1.675,1.325-2.75,3.9-2.75,3.549,0,4.624,1.375,4.8,3.675h2.15c-0.075-2.9-1.7-5.574-6.949-5.574-3.7,0-6.074,1.8-6.074,4.649,0,3.25,2.374,4.474,5.4,5.149l1.575,0.35c3.149,0.7,4.324,1.525,4.324,3.225,0,2.2-1.65,3.324-4.5,3.324-2.9,0-5.175-1.075-5.225-4.374h-2.174C211.563,170.781,214.662,172.606,218.912,172.606Zm10.05-.225a1.436,1.436,0,0,0,1.425-1.475,1.464,1.464,0,0,0-2.925,0A1.438,1.438,0,0,0,228.962,172.381Z"/>
  </g>
</svg>
