<svg xmlns="http://www.w3.org/2000/svg" width="129" height="9" viewBox="0 0 129 9">
  <defs>
    <style>
      .cls-1 {
        fill: #fff;
        fill-rule: evenodd;
      }
    </style>
  </defs>
  <path id="_Plus_taxes._With_TELUS_Easy_Payment_._" data-name=" *Plus taxes. With TELUS Easy Payment®.  " class="cls-1" d="M2.673,4.213L3.338,3.3,4,4.213l0.35-.28L3.681,3l1.064-.343L4.6,2.239l-1.036.336V1.469H3.114V2.575L2.078,2.239l-0.147.42L3,3l-0.672.931ZM7.448,1.469H5.376V6.453H5.964V4.535H7.448A1.462,1.462,0,0,0,9.1,3,1.462,1.462,0,0,0,7.448,1.469ZM7.448,4H5.964V2H7.448A0.917,0.917,0,0,1,8.491,3,0.917,0.917,0,0,1,7.448,4Zm3.06,2.471a3.558,3.558,0,0,0,.357-0.021V5.984H10.6a0.28,0.28,0,0,1-.343-0.308V1.469H9.7V5.725A0.684,0.684,0,0,0,10.508,6.474ZM13.69,2.841V4.885A1.028,1.028,0,0,1,12.7,6.033a0.724,0.724,0,0,1-.826-0.8V2.841H11.31V5.284a1.151,1.151,0,0,0,1.274,1.253,1.331,1.331,0,0,0,1.134-.623V6.453H14.25V2.841H13.69Zm2.739,3.7a1.185,1.185,0,0,0,1.435-1.078c0-.588-0.357-0.889-1.246-1.064L16.3,4.332c-0.462-.091-0.728-0.217-0.728-0.56a0.61,0.61,0,0,1,.756-0.532,0.726,0.726,0,0,1,.91.714h0.56a1.218,1.218,0,0,0-1.47-1.2,1.108,1.108,0,0,0-1.316,1.022,1.1,1.1,0,0,0,1.127,1.064l0.336,0.063C17.1,5.025,17.3,5.172,17.3,5.494c0,0.357-.259.56-0.868,0.56a0.781,0.781,0,0,1-.966-0.749H14.9A1.3,1.3,0,0,0,16.429,6.537Zm4.977-3.206V2.841H20.664V1.819H20.1V2.841H19.509v0.49H20.1V5.725a0.732,0.732,0,0,0,.9.749q0.168,0,.4-0.021V5.984H21.077c-0.322,0-.413-0.119-0.413-0.308V3.331h0.742ZM25,6a0.166,0.166,0,0,1-.2-0.175V3.807c0-.609-0.357-1.05-1.358-1.05a1.222,1.222,0,0,0-1.47,1.2h0.56c0.035-.539.294-0.714,0.91-0.714s0.812,0.189.812,0.567a0.5,0.5,0,0,1-.567.5l-0.518.056c-0.994.1-1.337,0.553-1.337,1.12a1.081,1.081,0,0,0,1.274,1.057,1.324,1.324,0,0,0,1.176-.581,0.518,0.518,0,0,0,.609.518A2.13,2.13,0,0,0,25.2,6.453V6H25Zm-1.862.063a0.6,0.6,0,0,1-.721-0.595c0-.35.182-0.574,0.84-0.651l0.525-.063A0.932,0.932,0,0,0,24.253,4.6V5.025A1.037,1.037,0,0,1,23.133,6.061Zm4.413-1.456,1.309-1.764H28.2l-0.273.385c-0.224.308-.469,0.651-0.7,0.98-0.224-.329-0.462-0.658-0.7-0.98l-0.28-.385H25.593L26.9,4.605,25.523,6.453h0.651l0.189-.266c0.28-.4.581-0.8,0.861-1.183,0.273,0.371.56,0.77,0.847,1.176l0.2,0.273h0.658ZM32.39,4.647a1.676,1.676,0,1,0-3.325,0,1.687,1.687,0,0,0,1.68,1.89A1.507,1.507,0,0,0,32.3,5.354H31.718a0.928,0.928,0,0,1-.959.672,1.08,1.08,0,0,1-1.113-1.183H32.39v-0.2ZM30.732,3.268a1.059,1.059,0,0,1,1.057,1.071H29.661A1.062,1.062,0,0,1,30.732,3.268Zm3.632,3.269A1.185,1.185,0,0,0,35.8,5.459c0-.588-0.357-0.889-1.246-1.064l-0.322-.063C33.769,4.241,33.5,4.115,33.5,3.772a0.61,0.61,0,0,1,.756-0.532,0.726,0.726,0,0,1,.91.714h0.56a1.218,1.218,0,0,0-1.47-1.2,1.109,1.109,0,0,0-1.316,1.022A1.1,1.1,0,0,0,34.07,4.843l0.336,0.063c0.63,0.119.826,0.266,0.826,0.588,0,0.357-.259.56-0.868,0.56A0.781,0.781,0,0,1,33.4,5.305H32.831A1.3,1.3,0,0,0,34.364,6.537Zm2.053-.084h0.707v-0.7H36.417v0.7Zm8.4-4.984L44.137,3.926c-0.161.567-.329,1.19-0.469,1.785-0.154-.595-0.315-1.211-0.476-1.8L42.514,1.469H41.856L41.177,3.912c-0.161.588-.322,1.2-0.476,1.8-0.14-.595-0.308-1.218-0.469-1.785L39.553,1.469H38.944l1.414,4.984h0.658L41.73,3.912c0.154-.539.315-1.127,0.455-1.687,0.14,0.56.3,1.148,0.455,1.687l0.714,2.541h0.658l1.414-4.984H44.816ZM45.938,2.3h0.595V1.609H45.938V2.3Zm0.021,4.158h0.56V2.841h-0.56V6.453Zm2.98-3.122V2.841H48.2V1.819h-0.56V2.841H47.042v0.49h0.595V5.725a0.732,0.732,0,0,0,.9.749q0.168,0,.4-0.021V5.984H48.61c-0.322,0-.413-0.119-0.413-0.308V3.331h0.742Zm2.247-.574a1.33,1.33,0,0,0-1.106.581V1.469H49.52V6.453h0.56V4.409a1.028,1.028,0,0,1,.994-1.148,0.724,0.724,0,0,1,.826.8V6.453h0.56V4.01A1.151,1.151,0,0,0,51.186,2.757Zm7.231-1.288h-4V2h1.694V6.453h0.609V2h1.694V1.469ZM62.446,2V1.469H58.982V6.453h3.437V5.921H59.57v-1.8h2.6V3.59h-2.6V2h2.877Zm1.185,3.92V1.469H63.044V6.453h3.094V5.921H63.632Zm4.826,0.637a1.779,1.779,0,0,0,1.96-1.953V1.469H69.83V4.605a1.373,1.373,0,1,1-2.744,0V1.469H66.5V4.605A1.778,1.778,0,0,0,68.458,6.558Zm4.668,0.007c1.2,0,1.869-.581,1.869-1.463,0-.721-0.406-1.169-1.554-1.421L73,3.583c-0.938-.21-1.169-0.448-1.169-0.924a0.879,0.879,0,0,1,1.092-.77c0.994,0,1.295.385,1.344,1.029h0.6c-0.021-.812-0.476-1.561-1.946-1.561-1.036,0-1.7.5-1.7,1.3,0,0.91.665,1.253,1.512,1.442l0.441,0.1c0.882,0.2,1.211.427,1.211,0.9a1.016,1.016,0,0,1-1.26.931,1.223,1.223,0,0,1-1.463-1.225H71.054C71.068,6.054,71.936,6.565,73.126,6.565ZM80.489,2V1.469H77.025V6.453h3.437V5.921H77.613v-1.8h2.6V3.59h-2.6V2h2.877Zm3.586,4a0.166,0.166,0,0,1-.2-0.175V3.807c0-.609-0.357-1.05-1.358-1.05a1.222,1.222,0,0,0-1.47,1.2h0.56c0.035-.539.294-0.714,0.91-0.714s0.812,0.189.812,0.567a0.5,0.5,0,0,1-.567.5l-0.518.056c-0.994.1-1.337,0.553-1.337,1.12a1.081,1.081,0,0,0,1.274,1.057,1.324,1.324,0,0,0,1.176-.581,0.518,0.518,0,0,0,.609.518,2.129,2.129,0,0,0,.308-0.021V6h-0.2Zm-1.862.063a0.6,0.6,0,0,1-.721-0.595c0-.35.182-0.574,0.84-0.651l0.525-.063A0.932,0.932,0,0,0,83.334,4.6V5.025A1.037,1.037,0,0,1,82.214,6.061Zm3.907,0.476a1.185,1.185,0,0,0,1.435-1.078c0-.588-0.357-0.889-1.246-1.064l-0.322-.063c-0.462-.091-0.728-0.217-0.728-0.56a0.61,0.61,0,0,1,.756-0.532,0.726,0.726,0,0,1,.91.714h0.56a1.218,1.218,0,0,0-1.47-1.2A1.108,1.108,0,0,0,84.7,3.779a1.1,1.1,0,0,0,1.127,1.064l0.336,0.063c0.63,0.119.826,0.266,0.826,0.588,0,0.357-.259.56-0.868,0.56a0.781,0.781,0,0,1-.966-0.749H84.588A1.3,1.3,0,0,0,86.121,6.537Zm4.3-3.7-0.511,1.5c-0.182.525-.357,1.05-0.518,1.568-0.168-.518-0.336-1.036-0.518-1.561l-0.511-1.5H87.747L89.1,6.572c-0.042.112-.084,0.231-0.126,0.336a0.633,0.633,0,0,1-.658.448H87.992V7.825a2.792,2.792,0,0,0,.336.021A1.091,1.091,0,0,0,89.5,7.02l1.526-4.179H90.42Zm4.571-1.372H92.919V6.453h0.588V4.535h1.484A1.462,1.462,0,0,0,96.643,3,1.462,1.462,0,0,0,94.991,1.469Zm0,2.534H93.507V2h1.484a0.917,0.917,0,0,1,1.043,1A0.917,0.917,0,0,1,94.991,4ZM100.175,6a0.165,0.165,0,0,1-.2-0.175V3.807c0-.609-0.357-1.05-1.358-1.05a1.222,1.222,0,0,0-1.47,1.2h0.56c0.035-.539.294-0.714,0.91-0.714s0.812,0.189.812,0.567a0.5,0.5,0,0,1-.567.5l-0.518.056c-0.994.1-1.337,0.553-1.337,1.12a1.081,1.081,0,0,0,1.274,1.057,1.324,1.324,0,0,0,1.176-.581,0.518,0.518,0,0,0,.609.518,2.13,2.13,0,0,0,.308-0.021V6h-0.2Zm-1.862.063a0.6,0.6,0,0,1-.721-0.595c0-.35.182-0.574,0.84-0.651l0.525-.063A0.932,0.932,0,0,0,99.433,4.6V5.025A1.037,1.037,0,0,1,98.313,6.061Zm4.754-3.22-0.511,1.5c-0.182.525-.357,1.05-0.518,1.568-0.168-.518-0.336-1.036-0.518-1.561l-0.511-1.5h-0.616l1.358,3.731c-0.042.112-.084,0.231-0.126,0.336a0.633,0.633,0,0,1-.658.448h-0.329V7.825a2.8,2.8,0,0,0,.336.021,1.092,1.092,0,0,0,1.176-.826l1.526-4.179h-0.609Zm4.908-.084a1.248,1.248,0,0,0-1.113.679,1.131,1.131,0,0,0-1.113-.679,1.16,1.16,0,0,0-1.043.616V2.841h-0.532V6.453h0.56V4.479a1.027,1.027,0,0,1,.924-1.218,0.69,0.69,0,0,1,.756.8V6.453h0.56V4.479a1.02,1.02,0,0,1,.924-1.218,0.687,0.687,0,0,1,.756.8V6.453h0.56V4A1.148,1.148,0,0,0,107.975,2.757Zm5.259,1.89a1.676,1.676,0,1,0-3.325,0,1.687,1.687,0,0,0,1.68,1.89,1.507,1.507,0,0,0,1.554-1.183h-0.581a0.928,0.928,0,0,1-.959.672,1.08,1.08,0,0,1-1.113-1.183h2.744v-0.2Zm-1.659-1.379a1.059,1.059,0,0,1,1.057,1.071H110.5A1.062,1.062,0,0,1,111.575,3.268Zm4.023-.511a1.331,1.331,0,0,0-1.134.623V2.841h-0.532V6.453h0.56V4.409a1.028,1.028,0,0,1,.994-1.148,0.724,0.724,0,0,1,.826.8V6.453h0.56V4.01A1.152,1.152,0,0,0,115.6,2.757Zm3.659,0.574V2.841h-0.742V1.819h-0.56V2.841H117.36v0.49h0.595V5.725a0.732,0.732,0,0,0,.9.749q0.168,0,.4-0.021V5.984h-0.329c-0.322,0-.413-0.119-0.413-0.308V3.331h0.742Zm2.206-1.974a1.66,1.66,0,1,0,1.708,1.659A1.671,1.671,0,0,0,121.463,1.357Zm0,2.989a1.334,1.334,0,1,1,1.358-1.33A1.324,1.324,0,0,1,121.463,4.346Zm0.665-.994a0.353,0.353,0,0,0-.21-0.329,0.425,0.425,0,0,0,.259-0.42,0.523,0.523,0,0,0-.623-0.5H120.8V3.884h0.308V3.17h0.483c0.175,0,.231.063,0.245,0.259l0.014,0.182a0.489,0.489,0,0,0,.07.273h0.315a0.5,0.5,0,0,1-.084-0.273Zm-0.546-.462h-0.476v-0.5h0.448a0.251,0.251,0,0,1,.308.252A0.244,0.244,0,0,1,121.582,2.89Zm1.9,3.563h0.707v-0.7h-0.707v0.7Z"/>
</svg>
