<svg xmlns="http://www.w3.org/2000/svg" width="300" height="250" viewBox="0 0 300 250">
  <defs>
    <style>
      .cls-1 {
        fill: #4c286c;
        fill-rule: evenodd;
      }
    </style>
  </defs>
  <path class="cls-1" d="M130.911,99.15c0-5.064,3.049-8.155,7.218-8.155a6.383,6.383,0,0,1,6.648,5.371h-1.865a4.585,4.585,0,0,0-4.783-3.683c-3.159,0-5.287,2.389-5.287,6.467s2.128,6.466,5.287,6.466a4.759,4.759,0,0,0,4.893-4.34h1.843a6.456,6.456,0,0,1-6.736,6.028C133.96,107.3,130.911,104.213,130.911,99.15ZM156.162,99.3v7.651h-1.756V99.479a2.269,2.269,0,0,0-2.588-2.521c-1.47,0-3.116,1.1-3.116,3.6v6.4h-1.755V91.346H148.7V97.2a4.172,4.172,0,0,1,3.467-1.819C154.692,95.379,156.162,96.8,156.162,99.3Zm12.635,6.226v1.425a6.657,6.657,0,0,1-.965.065,1.622,1.622,0,0,1-1.909-1.621,4.152,4.152,0,0,1-3.686,1.819c-2.457,0-3.993-1.184-3.993-3.31,0-1.776,1.075-3.179,4.19-3.508l1.624-.175c1.141-.132,1.778-0.548,1.778-1.557,0-1.184-.615-1.776-2.546-1.776s-2.742.548-2.852,2.236h-1.755c0.132-2.192,1.294-3.749,4.607-3.749,3.138,0,4.257,1.381,4.257,3.288v6.314a0.519,0.519,0,0,0,.614.548H168.8Zm-2.961-3.047v-1.338a2.92,2.92,0,0,1-1.492.483l-1.646.2c-2.062.241-2.633,0.943-2.633,2.039,0,1.118.7,1.863,2.26,1.863A3.25,3.25,0,0,0,165.836,102.482Zm4.495,2.192V91.346h1.755V104.52a0.879,0.879,0,0,0,1.075.965H174v1.469a11.114,11.114,0,0,1-1.119.065C171.3,107.019,170.331,106.406,170.331,104.674Zm4.542-3.376c0-3.617,2.3-5.919,5.484-5.919s5.486,2.3,5.486,5.919-2.3,5.919-5.486,5.919S174.873,104.915,174.873,101.3Zm9.127,0c0-2.74-1.448-4.34-3.643-4.34s-3.642,1.6-3.642,4.34,1.448,4.34,3.642,4.34S184,104.038,184,101.3Zm19.129,0c0,3.617-2.085,5.919-5.266,5.919a4.451,4.451,0,0,1-3.884-2.017v1.754h-1.667V91.346h1.755v5.918a4.449,4.449,0,0,1,3.8-1.885C201.044,95.379,203.129,97.681,203.129,101.3Zm-1.843-.088c0-2.74-1.449-4.252-3.642-4.252S194,98.558,194,101.3s1.448,4.34,3.642,4.34S201.286,103.95,201.286,101.21ZM215,105.529v1.425a6.647,6.647,0,0,1-.965.065,1.621,1.621,0,0,1-1.908-1.621,4.153,4.153,0,0,1-3.686,1.819c-2.458,0-3.994-1.184-3.994-3.31,0-1.776,1.075-3.179,4.191-3.508l1.624-.175c1.14-.132,1.777-0.548,1.777-1.557,0-1.184-.614-1.776-2.546-1.776s-2.742.548-2.852,2.236h-1.754c0.131-2.192,1.294-3.749,4.606-3.749,3.138,0,4.257,1.381,4.257,3.288v6.314a0.519,0.519,0,0,0,.614.548H215Zm-2.961-3.047v-1.338a2.92,2.92,0,0,1-1.492.483l-1.646.2c-2.062.241-2.633,0.943-2.633,2.039,0,1.118.7,1.863,2.261,1.863A3.25,3.25,0,0,0,212.035,102.482ZM225.856,99.3v7.651H224.1V99.479a2.27,2.27,0,0,0-2.589-2.521c-1.471,0-3.116,1.1-3.116,3.6v6.4h-1.755V95.642h1.667v1.688a4.171,4.171,0,0,1,3.554-1.951C224.385,95.379,225.856,96.8,225.856,99.3Zm12.634,6.226v1.425a6.647,6.647,0,0,1-.965.065,1.621,1.621,0,0,1-1.908-1.621,4.153,4.153,0,0,1-3.686,1.819c-2.458,0-3.994-1.184-3.994-3.31,0-1.776,1.075-3.179,4.191-3.508l1.624-.175c1.14-.132,1.777-0.548,1.777-1.557,0-1.184-.614-1.776-2.545-1.776s-2.743.548-2.853,2.236h-1.754c0.131-2.192,1.294-3.749,4.607-3.749,3.137,0,4.256,1.381,4.256,3.288v6.314a0.519,0.519,0,0,0,.614.548h0.636Zm-2.961-3.047v-1.338a2.92,2.92,0,0,1-1.492.483l-1.646.2c-2.062.241-2.633,0.943-2.633,2.039,0,1.118.7,1.863,2.261,1.863A3.25,3.25,0,0,0,235.529,102.482Zm13.141-6.84-4.783,13.087a3.422,3.422,0,0,1-3.686,2.587,8.744,8.744,0,0,1-1.054-.066v-1.468h1.032a1.982,1.982,0,0,0,2.062-1.4c0.132-.329.264-0.7,0.395-1.053L238.38,95.642h1.93l1.6,4.713c0.571,1.645,1.1,3.266,1.623,4.889,0.506-1.623,1.054-3.266,1.625-4.911l1.6-4.691h1.909Zm10.748,6.27h-8.6c0.175,2.543,1.513,3.7,3.488,3.7a2.907,2.907,0,0,0,3.006-2.1h1.821a4.722,4.722,0,0,1-4.871,3.7c-3.093,0-5.265-2.258-5.265-5.919,0-3.551,2.084-5.919,5.221-5.919,3.379,0,5.2,2.675,5.2,5.919v0.614Zm-8.556-1.579h6.669c-0.175-1.863-1.294-3.353-3.313-3.353C252.441,96.98,251.147,98.1,250.862,100.333ZM261.3,92.858a1.185,1.185,0,1,1,1.185,1.184A1.193,1.193,0,0,1,261.3,92.858Zm0.307,2.784h1.755v11.312h-1.755V95.642ZM275.323,99.3v7.651h-1.755V99.479a2.27,2.27,0,0,0-2.589-2.521c-1.471,0-3.116,1.1-3.116,3.6v6.4h-1.755V95.642h1.667v1.688a4.171,4.171,0,0,1,3.554-1.951C273.852,95.379,275.323,96.8,275.323,99.3ZM130.55,132.773V134.2a6.642,6.642,0,0,1-.965.066,1.623,1.623,0,0,1-1.908-1.623,4.151,4.151,0,0,1-3.686,1.82c-2.458,0-3.994-1.183-3.994-3.31,0-1.776,1.076-3.179,4.191-3.508l1.624-.175c1.14-.132,1.777-0.548,1.777-1.557,0-1.183-.614-1.775-2.545-1.775s-2.743.548-2.853,2.236h-1.754c0.131-2.192,1.294-3.749,4.607-3.749,3.137,0,4.256,1.381,4.256,3.288v6.314a0.519,0.519,0,0,0,.614.548h0.636Zm-2.961-3.047v-1.338a2.92,2.92,0,0,1-1.492.483l-1.645.2c-2.063.241-2.634,0.943-2.634,2.039,0,1.118.7,1.863,2.261,1.863A3.25,3.25,0,0,0,127.589,129.726Zm15.422-1.184c0,3.618-2.084,5.919-5.266,5.919a4.45,4.45,0,0,1-3.8-1.885v5.918H132.2V122.887h1.667v1.753a4.452,4.452,0,0,1,3.883-2.017C140.927,122.623,143.011,124.925,143.011,128.542Zm-1.843-.087c0-2.741-1.448-4.253-3.642-4.253s-3.642,1.6-3.642,4.34,1.448,4.34,3.642,4.34S141.168,131.194,141.168,128.455Zm13.25-1.908V134.2h-1.755v-7.475a2.27,2.27,0,0,0-2.589-2.521c-1.47,0-3.116,1.1-3.116,3.595v6.4H145.2V122.887h1.668v1.688a4.168,4.168,0,0,1,3.554-1.952C152.948,122.623,154.418,124.048,154.418,126.547Zm2.433-6.445a1.185,1.185,0,1,1,1.185,1.184A1.194,1.194,0,0,1,156.851,120.1Zm0.307,2.785h1.755V134.2h-1.755V122.887Zm8.227,5.655c0-3.639,2.106-5.919,5.243-5.919a4.585,4.585,0,0,1,4.87,4.1h-1.821a2.946,2.946,0,0,0-3.049-2.521c-1.931,0-3.4,1.381-3.4,4.34s1.514,4.34,3.4,4.34a2.973,2.973,0,0,0,3.072-2.564h1.8a4.668,4.668,0,0,1-4.87,4.143C167.535,134.461,165.385,132.181,165.385,128.542Zm11.539,0c0-3.617,2.3-5.919,5.484-5.919s5.485,2.3,5.485,5.919-2.3,5.919-5.485,5.919S176.924,132.16,176.924,128.542Zm9.127,0c0-2.74-1.448-4.34-3.643-4.34s-3.642,1.6-3.642,4.34,1.448,4.34,3.642,4.34S186.051,131.282,186.051,128.542Zm19.831-2.017V134.2h-1.755v-7.5c0-1.754-.877-2.5-2.37-2.5-1.426,0-2.9,1.1-2.9,3.814V134.2h-1.755v-7.5c0-1.754-.9-2.5-2.37-2.5-1.382,0-2.9,1.1-2.9,3.814V134.2h-1.755V122.887h1.667v1.665a3.639,3.639,0,0,1,3.269-1.929,3.544,3.544,0,0,1,3.489,2.127A3.91,3.91,0,0,1,202,122.623,3.6,3.6,0,0,1,205.882,126.525Zm18.536,0V134.2h-1.754v-7.5c0-1.754-.878-2.5-2.371-2.5-1.425,0-2.9,1.1-2.9,3.814V134.2h-1.754v-7.5c0-1.754-.9-2.5-2.37-2.5-1.382,0-2.9,1.1-2.9,3.814V134.2h-1.755V122.887h1.667v1.665a3.639,3.639,0,0,1,3.269-1.929,3.545,3.545,0,0,1,3.489,2.127,3.91,3.91,0,0,1,3.488-2.127A3.6,3.6,0,0,1,224.418,126.525Zm11.517-3.638V134.2h-1.667V132.51a4.172,4.172,0,0,1-3.554,1.951c-2.524,0-3.994-1.425-3.994-3.924v-7.65h1.755v7.475a2.269,2.269,0,0,0,2.589,2.52c1.471,0,3.115-1.095,3.115-3.595v-6.4h1.756Zm11.956,3.66V134.2h-1.756v-7.475a2.269,2.269,0,0,0-2.588-2.521c-1.47,0-3.116,1.1-3.116,3.595v6.4h-1.755V122.887h1.667v1.688a4.171,4.171,0,0,1,3.555-1.952C246.42,122.623,247.891,124.048,247.891,126.547Zm2.432-6.445a1.186,1.186,0,1,1,1.185,1.184A1.194,1.194,0,0,1,250.323,120.1Zm0.308,2.785h1.755V134.2h-1.755V122.887Zm7.13,1.534v7.344c0,0.591.285,0.964,1.294,0.964h1.031V134.2q-0.725.066-1.25,0.066c-1.756,0-2.831-.614-2.831-2.346v-7.5h-1.864v-1.534h1.864v-3.2h1.756v3.2h2.325v1.534h-2.325Zm3.991-4.319a1.186,1.186,0,1,1,1.186,1.184A1.195,1.195,0,0,1,261.752,120.1Zm0.308,2.785h1.755V134.2H262.06V122.887Zm14.37,6.269h-8.6c0.175,2.542,1.513,3.7,3.488,3.7a2.91,2.91,0,0,0,3.006-2.1h1.821a4.724,4.724,0,0,1-4.871,3.7c-3.094,0-5.265-2.258-5.265-5.919,0-3.551,2.084-5.919,5.221-5.919,3.379,0,5.2,2.675,5.2,5.919v0.614Zm-8.556-1.578h6.669c-0.175-1.864-1.294-3.354-3.313-3.354C269.453,124.224,268.159,125.342,267.874,127.578ZM277.7,130.6h1.777c0.2,1.709,1.031,2.346,3.028,2.346,1.909,0,2.72-.637,2.72-1.755,0-1.008-.613-1.468-2.588-1.841l-1.054-.2c-2.457-.461-3.532-1.578-3.532-3.332,0-1.929,1.536-3.2,4.125-3.2,3.028,0,4.563,1.338,4.607,3.749h-1.755c-0.087-1.754-1.118-2.236-2.852-2.236-1.514,0-2.37.614-2.37,1.666,0,1.074.834,1.469,2.282,1.754l1.009,0.2c2.786,0.548,3.9,1.491,3.9,3.332,0,2.149-1.711,3.376-4.5,3.376C279.632,134.461,277.876,133.255,277.7,130.6ZM152.871,155.37l-2.019,1.886v4.186H149.1V145.834h1.754V155.2l5.244-5.064h2.326l-4.3,4.077,4.607,7.234h-2.04Zm6.076,0.416c0-3.617,2.3-5.919,5.484-5.919s5.486,2.3,5.486,5.919-2.3,5.919-5.486,5.919S158.947,159.4,158.947,155.786Zm9.127,0c0-2.739-1.448-4.34-3.643-4.34s-3.641,1.6-3.641,4.34,1.447,4.341,3.641,4.341S168.074,158.526,168.074,155.786Zm7.5,2.061h1.777c0.2,1.709,1.032,2.346,3.029,2.346,1.908,0,2.719-.637,2.719-1.754,0-1.008-.613-1.469-2.588-1.841l-1.053-.2c-2.457-.46-3.532-1.578-3.532-3.332,0-1.929,1.535-3.2,4.125-3.2,3.027,0,4.563,1.338,4.606,3.749H182.9c-0.088-1.753-1.119-2.236-2.852-2.236-1.515,0-2.371.614-2.371,1.667,0,1.074.834,1.468,2.282,1.753l1.01,0.2c2.786,0.548,3.9,1.491,3.9,3.333,0,2.148-1.711,3.375-4.5,3.375C177.506,161.705,175.75,160.5,175.575,157.847Zm13.58-6.182v7.344c0,0.591.286,0.964,1.294,0.964h1.032v1.469q-0.725.066-1.251,0.066c-1.755,0-2.83-.614-2.83-2.346v-7.5h-1.865v-1.534H187.4v-3.2h1.755v3.2h2.326v1.534h-2.326Zm10.2-1.688v1.688h-0.439c-2.26,0-3.708,1.14-3.708,3.332v6.445h-1.754V150.131h1.667v1.994a3.953,3.953,0,0,1,3.641-2.169C198.939,149.956,199.114,149.956,199.355,149.977Zm0.548,5.809c0-3.617,2.3-5.919,5.484-5.919s5.485,2.3,5.485,5.919-2.3,5.919-5.485,5.919S199.9,159.4,199.9,155.786Zm9.127,0c0-2.739-1.448-4.34-3.643-4.34s-3.642,1.6-3.642,4.34,1.448,4.341,3.642,4.341S209.03,158.526,209.03,155.786Zm13.25-1.994v7.65h-1.755v-7.475a2.27,2.27,0,0,0-2.589-2.521c-1.47,0-3.116,1.1-3.116,3.595v6.4h-1.755V150.131h1.667v1.688a4.17,4.17,0,0,1,3.554-1.952C220.81,149.867,222.28,151.292,222.28,153.792Zm13.007-3.661V161c0,2.938-1.688,5-5.265,5-2.9,0-4.585-1.448-4.827-3.64h1.756c0.219,1.426,1.294,2.149,3.071,2.149,2.26,0,3.511-1.162,3.511-3.508v-1.095a4.58,4.58,0,0,1-3.8,1.8c-3.181,0-5.265-2.3-5.265-5.919s2.084-5.919,5.265-5.919a4.57,4.57,0,0,1,3.883,1.908v-1.644h1.667Zm-1.688,5.655c0-2.739-1.448-4.34-3.643-4.34s-3.642,1.688-3.642,4.34,1.448,4.341,3.642,4.341S233.6,158.526,233.6,155.786Zm14.3,0.614h-8.6c0.176,2.543,1.513,3.7,3.488,3.7A2.909,2.909,0,0,0,245.8,158h1.821a4.721,4.721,0,0,1-4.87,3.7c-3.094,0-5.266-2.258-5.266-5.919,0-3.551,2.084-5.919,5.222-5.919,3.379,0,5.2,2.675,5.2,5.919V156.4Zm-8.557-1.578h6.669c-0.175-1.864-1.294-3.355-3.312-3.355C240.926,151.467,239.631,152.585,239.346,154.822ZM256,149.977v1.688h-0.44c-2.26,0-3.708,1.14-3.708,3.332v6.445H250.1V150.131h1.667v1.994a3.955,3.955,0,0,1,3.641-2.169C255.58,149.956,255.755,149.956,256,149.977Zm-0.55,10.325a1.285,1.285,0,0,1,2.567,0A1.284,1.284,0,1,1,255.447,160.3Z"/>
</svg>
