<svg xmlns="http://www.w3.org/2000/svg" width="300" height="250" viewBox="0 0 300 250">
  <defs>
    <style>
      .cls-1 {
        fill: #4c286c;
        fill-rule: evenodd;
      }
    </style>
  </defs>
  <path class="cls-1" d="M152.46,105.069v1.681h-9.7V91H144.6v14.067h7.856ZM164,105.312v1.438a6.652,6.652,0,0,1-.965.066,1.627,1.627,0,0,1-1.909-1.636,4.142,4.142,0,0,1-3.687,1.836c-2.458,0-3.994-1.2-3.994-3.341,0-1.791,1.076-3.207,4.191-3.538l1.625-.177c1.14-.133,1.777-0.553,1.777-1.571,0-1.194-.614-1.791-2.546-1.791s-2.742.553-2.852,2.256h-1.755c0.131-2.212,1.294-3.782,4.607-3.782,3.138,0,4.257,1.393,4.257,3.317v6.37a0.521,0.521,0,0,0,.615.553H164Zm-2.962-3.074v-1.35a2.9,2.9,0,0,1-1.492.487l-1.646.2c-2.063.244-2.633,0.951-2.633,2.057,0,1.128.7,1.88,2.26,1.88A3.262,3.262,0,0,0,161.039,102.238Zm3.794,0.885h1.777c0.2,1.725,1.031,2.366,3.029,2.366,1.909,0,2.72-.641,2.72-1.769,0-1.017-.613-1.482-2.589-1.858l-1.053-.2c-2.458-.465-3.533-1.593-3.533-3.362,0-1.946,1.536-3.229,4.126-3.229,3.028,0,4.564,1.349,4.607,3.782h-1.755c-0.087-1.769-1.119-2.256-2.852-2.256-1.515,0-2.371.619-2.371,1.681,0,1.084.834,1.482,2.282,1.769l1.01,0.2c2.787,0.553,3.906,1.5,3.906,3.362,0,2.168-1.712,3.407-4.5,3.407C166.764,107.016,165.008,105.8,164.833,103.123Zm13.582-6.238v7.41c0,0.6.285,0.973,1.294,0.973h1.032v1.482q-0.725.066-1.251,0.066c-1.756,0-2.831-.619-2.831-2.366V96.885h-1.865V95.337h1.865V92.108h1.756v3.229h2.326v1.548h-2.326Zm17.662-1.548-4.784,13.2a3.423,3.423,0,0,1-3.686,2.61,8.744,8.744,0,0,1-1.054-.066V109.6h1.032a1.982,1.982,0,0,0,2.062-1.415c0.132-.332.264-0.708,0.4-1.062l-4.257-11.789h1.93l1.6,4.755c0.571,1.659,1.1,3.3,1.625,4.933,0.5-1.637,1.053-3.3,1.623-4.955l1.6-4.733h1.908Zm10.752,6.326h-8.6c0.175,2.566,1.513,3.738,3.489,3.738a2.911,2.911,0,0,0,3.006-2.124h1.821a4.731,4.731,0,0,1-4.871,3.739c-3.094,0-5.266-2.279-5.266-5.972,0-3.583,2.084-5.972,5.222-5.972,3.379,0,5.2,2.7,5.2,5.972v0.619Zm-8.558-1.593h6.67c-0.175-1.88-1.294-3.383-3.313-3.383C199.85,96.687,198.556,97.814,198.271,100.07Zm20.537,5.242v1.438a6.642,6.642,0,0,1-.965.066,1.627,1.627,0,0,1-1.909-1.636,4.141,4.141,0,0,1-3.686,1.836c-2.459,0-3.994-1.2-3.994-3.341,0-1.791,1.075-3.207,4.19-3.538l1.625-.177c1.14-.133,1.777-0.553,1.777-1.571,0-1.194-.614-1.791-2.545-1.791s-2.743.553-2.853,2.256h-1.755c0.131-2.212,1.294-3.782,4.608-3.782,3.138,0,4.257,1.393,4.257,3.317v6.37a0.52,0.52,0,0,0,.614.553h0.636Zm-2.962-3.074v-1.35a2.894,2.894,0,0,1-1.492.487l-1.646.2c-2.062.244-2.633,0.951-2.633,2.057,0,1.128.7,1.88,2.26,1.88A3.262,3.262,0,0,0,215.846,102.238Zm10.51-7.056v1.7h-0.439c-2.261,0-3.709,1.15-3.709,3.362v6.5h-1.755V95.337h1.668V97.35a3.95,3.95,0,0,1,3.642-2.19A5.932,5.932,0,0,1,226.356,95.182Zm2.017,11.236c0,2.1-1.031,3.075-2.457,3.362l-0.22.045v-1.173l0.154-.044a1.635,1.635,0,0,0,1.206-1.726h-0.131a1.147,1.147,0,0,1-1.229-1.15,1.182,1.182,0,0,1,1.229-1.194C227.825,104.538,228.373,105.2,228.373,106.418Zm6.034-5.374c0-3.65,2.3-5.972,5.485-5.972s5.486,2.323,5.486,5.972-2.3,5.972-5.486,5.972S234.407,104.693,234.407,101.044Zm9.128,0c0-2.765-1.448-4.38-3.643-4.38s-3.643,1.614-3.643,4.38,1.449,4.379,3.643,4.379S243.535,103.808,243.535,101.044Zm12.924-5.707V106.75h-1.668v-1.7a4.165,4.165,0,0,1-3.555,1.969,3.624,3.624,0,0,1-3.994-3.959v-7.72H249v7.542a2.28,2.28,0,0,0,2.59,2.544c1.471,0,3.116-1.106,3.116-3.627V95.337h1.756Zm8.643-.155v1.7h-0.439c-2.261,0-3.709,1.15-3.709,3.362v6.5H259.2V95.337h1.668V97.35a3.95,3.95,0,0,1,3.642-2.19A5.932,5.932,0,0,1,265.1,95.182ZM123.619,124.374v7.409c0,0.6.285,0.973,1.294,0.973h1.031v1.482q-0.725.066-1.25,0.067c-1.756,0-2.831-.619-2.831-2.367v-7.564H120v-1.548h1.866V119.6h1.756v3.23h2.325v1.548h-2.325Zm13.954,4.777h-8.6c0.176,2.565,1.514,3.739,3.489,3.739a2.914,2.914,0,0,0,3.007-2.124h1.821a4.731,4.731,0,0,1-4.872,3.737c-3.094,0-5.266-2.277-5.266-5.971,0-3.583,2.084-5.972,5.222-5.972,3.38,0,5.2,2.7,5.2,5.972v0.619Zm-8.558-1.592h6.671c-0.176-1.88-1.3-3.384-3.314-3.384C130.6,124.175,129.3,125.3,129.015,127.559Zm20.538,5.241v1.438a6.651,6.651,0,0,1-.966.067,1.629,1.629,0,0,1-1.909-1.637,4.138,4.138,0,0,1-3.686,1.835c-2.458,0-3.994-1.193-3.994-3.339,0-1.792,1.075-3.207,4.191-3.539l1.624-.177c1.141-.133,1.778-0.553,1.778-1.57,0-1.195-.615-1.792-2.546-1.792s-2.743.553-2.853,2.256h-1.755c0.132-2.212,1.295-3.782,4.608-3.782,3.138,0,4.257,1.394,4.257,3.318v6.37a0.52,0.52,0,0,0,.615.552h0.636Zm-2.962-3.074v-1.349a2.91,2.91,0,0,1-1.492.487l-1.646.2c-2.063.243-2.634,0.951-2.634,2.057,0,1.128.7,1.88,2.261,1.88A3.262,3.262,0,0,0,146.591,129.726ZM167,126.5v7.741h-1.755v-7.564c0-1.769-.878-2.521-2.37-2.521-1.427,0-2.9,1.106-2.9,3.848v6.237H158.22v-7.564c0-1.769-.9-2.521-2.37-2.521-1.383,0-2.9,1.106-2.9,3.848v6.237H151.2V122.826h1.668v1.68a3.635,3.635,0,0,1,3.269-1.946,3.545,3.545,0,0,1,3.49,2.145,3.908,3.908,0,0,1,3.489-2.145A3.614,3.614,0,0,1,167,126.5Zm16.542-3.671-4.454,11.412h-1.843l-4.433-11.412h1.909l1.865,5.087c0.527,1.437,1.119,2.986,1.6,4.423,0.482-1.437,1.076-3.008,1.6-4.445l1.865-5.065h1.887Zm0.328,5.706c0-3.649,2.3-5.972,5.485-5.972s5.487,2.323,5.487,5.972-2.305,5.971-5.487,5.971S183.867,132.182,183.867,128.532Zm9.129,0c0-2.765-1.448-4.379-3.644-4.379s-3.642,1.614-3.642,4.379,1.448,4.379,3.642,4.379S193,131.3,193,128.532Zm4.035,3.406V118.491h1.755v13.292a0.882,0.882,0,0,0,1.075.973H200.7v1.482a11.161,11.161,0,0,1-1.12.067C198,134.305,197.031,133.686,197.031,131.938Zm14.526-9.112v11.412H209.89v-1.7a4.162,4.162,0,0,1-3.555,1.968,3.623,3.623,0,0,1-3.994-3.959v-7.718H204.1v7.542a2.279,2.279,0,0,0,2.59,2.543c1.47,0,3.116-1.1,3.116-3.627v-6.458h1.755Zm11.958,3.693v7.719H221.76V126.7a2.28,2.28,0,0,0-2.59-2.543c-1.47,0-3.116,1.106-3.116,3.627v6.458H214.3V122.826h1.667v1.7a4.163,4.163,0,0,1,3.555-1.969A3.624,3.624,0,0,1,223.515,126.519Zm4.936-2.145v7.409c0,0.6.285,0.973,1.294,0.973h1.032v1.482q-0.724.066-1.251,0.067c-1.756,0-2.831-.619-2.831-2.367v-7.564H224.83v-1.548H226.7V119.6h1.756v3.23h2.326v1.548h-2.326Zm13.955,4.777h-8.6c0.175,2.565,1.513,3.739,3.488,3.739a2.912,2.912,0,0,0,3.007-2.124h1.821a4.73,4.73,0,0,1-4.871,3.737c-3.095,0-5.266-2.277-5.266-5.971,0-3.583,2.084-5.972,5.222-5.972,3.379,0,5.2,2.7,5.2,5.972v0.619Zm-8.558-1.592h6.67c-0.175-1.88-1.294-3.384-3.313-3.384C235.427,124.175,234.133,125.3,233.848,127.559Zm20.626,1.592h-8.6c0.175,2.565,1.513,3.739,3.488,3.739a2.912,2.912,0,0,0,3.007-2.124h1.821a4.73,4.73,0,0,1-4.871,3.737c-3.095,0-5.266-2.277-5.266-5.971,0-3.583,2.084-5.972,5.222-5.972,3.379,0,5.2,2.7,5.2,5.972v0.619Zm-8.558-1.592h6.67c-0.175-1.88-1.294-3.384-3.313-3.384C247.5,124.175,246.2,125.3,245.916,127.559Zm16.653-4.888v1.7H262.13c-2.261,0-3.709,1.15-3.709,3.362v6.5h-1.755V122.826h1.667v2.012a3.953,3.953,0,0,1,3.643-2.19A5.71,5.71,0,0,1,262.569,122.671Zm10.971,6.48h-8.6c0.175,2.565,1.513,3.739,3.488,3.739a2.914,2.914,0,0,0,3.007-2.124h1.821a4.731,4.731,0,0,1-4.872,3.737c-3.094,0-5.266-2.277-5.266-5.971,0-3.583,2.085-5.972,5.223-5.972,3.379,0,5.2,2.7,5.2,5.972v0.619Zm-8.558-1.592h6.671c-0.175-1.88-1.294-3.384-3.313-3.384C266.562,124.175,265.268,125.3,264.982,127.559ZM286,118.491v15.747h-1.668v-1.77a4.442,4.442,0,0,1-3.885,2.035c-3.181,0-5.266-2.321-5.266-5.971s2.085-5.972,5.266-5.972a4.439,4.439,0,0,1,3.8,1.9v-5.971H286Zm-1.69,10.041c0-2.765-1.448-4.379-3.643-4.379s-3.643,1.7-3.643,4.467,1.448,4.291,3.643,4.291S284.313,131.3,284.313,128.532Zm-151.4,33.195h-1.844V149.982h-3.555v-1.46l0.352-.022c2.019-.133,3.159-0.62,3.555-2.521h1.492v15.748Zm2.3-1.151a1.284,1.284,0,0,1,2.567,0A1.284,1.284,0,1,1,135.214,160.576Zm15.119-2.787h-2.107v3.938h-1.844v-3.938h-7.834V156l7.68-10.019h2v10.13h2.107v1.68Zm-9.854-1.68h5.9v-7.7Zm31.794-2.124v7.742h-1.755v-7.565c0-1.769-.877-2.521-2.369-2.521-1.427,0-2.9,1.106-2.9,3.848v6.238H163.5v-7.565c0-1.769-.9-2.521-2.369-2.521-1.383,0-2.9,1.106-2.9,3.848v6.238h-1.755V150.314h1.668V152a3.633,3.633,0,0,1,3.269-1.947,3.545,3.545,0,0,1,3.49,2.146,3.907,3.907,0,0,1,3.488-2.146A3.614,3.614,0,0,1,172.273,153.985Zm2.433-6.48a1.186,1.186,0,1,1,1.186,1.194A1.2,1.2,0,0,1,174.706,147.505Zm0.308,2.809h1.755v11.413h-1.755V150.314Zm4.5,9.113V145.979h1.755v13.293a0.882,0.882,0,0,0,1.075.972h0.835v1.483a11.147,11.147,0,0,1-1.12.066C180.477,161.793,179.512,161.174,179.512,159.427Zm5.31,0V145.979h1.755v13.293a0.882,0.882,0,0,0,1.075.972h0.835v1.483a11.147,11.147,0,0,1-1.12.066C185.787,161.793,184.822,161.174,184.822,159.427Zm5-11.922a1.185,1.185,0,1,1,1.185,1.194A1.2,1.2,0,0,1,189.824,147.505Zm0.308,2.809h1.755v11.413h-1.755V150.314Zm3.949,5.706c0-3.649,2.3-5.972,5.485-5.972s5.486,2.323,5.486,5.972-2.3,5.972-5.486,5.972S194.081,159.67,194.081,156.02Zm9.129,0c0-2.764-1.449-4.379-3.644-4.379s-3.642,1.615-3.642,4.379,1.448,4.38,3.642,4.38S203.21,158.785,203.21,156.02Zm13.251-2.012v7.719h-1.756v-7.542a2.279,2.279,0,0,0-2.589-2.544c-1.47,0-3.116,1.106-3.116,3.627v6.459h-1.755V150.314h1.667v1.7a4.165,4.165,0,0,1,3.555-1.969A3.625,3.625,0,0,1,216.461,154.008Zm16.235,0v7.719H230.94v-7.542a2.279,2.279,0,0,0-2.588-2.544c-1.471,0-3.117,1.106-3.117,3.627v6.459H223.48V145.979h1.755v5.906a4.16,4.16,0,0,1,3.467-1.837A3.624,3.624,0,0,1,232.7,154.008Zm2.194,2.012c0-3.649,2.3-5.972,5.485-5.972s5.486,2.323,5.486,5.972-2.3,5.972-5.486,5.972S234.89,159.67,234.89,156.02Zm9.128,0c0-2.764-1.448-4.379-3.643-4.379s-3.643,1.615-3.643,4.379,1.449,4.38,3.643,4.38S244.018,158.785,244.018,156.02Zm12.924-5.706v11.413h-1.668v-1.7a4.164,4.164,0,0,1-3.555,1.968,3.624,3.624,0,0,1-3.994-3.959v-7.719h1.755v7.542a2.28,2.28,0,0,0,2.59,2.544c1.471,0,3.116-1.106,3.116-3.628v-6.458h1.756Zm8.643-.155v1.7h-0.439c-2.26,0-3.709,1.151-3.709,3.362v6.5h-1.755V150.314h1.668v2.012a3.953,3.953,0,0,1,3.642-2.189C265.168,150.137,265.344,150.137,265.585,150.159Zm0.5,7.94h1.777c0.2,1.725,1.032,2.367,3.029,2.367,1.909,0,2.72-.642,2.72-1.77,0-1.017-.613-1.481-2.588-1.857l-1.054-.2c-2.457-.465-3.533-1.592-3.533-3.362,0-1.947,1.536-3.23,4.126-3.23,3.028,0,4.564,1.35,4.608,3.782h-1.755c-0.088-1.769-1.119-2.256-2.853-2.256-1.514,0-2.371.62-2.371,1.682,0,1.084.834,1.481,2.282,1.769l1.01,0.2c2.787,0.553,3.906,1.5,3.906,3.362,0,2.168-1.711,3.406-4.5,3.406C268.02,161.992,266.264,160.775,266.089,158.1Zm10.839,2.477a1.284,1.284,0,0,1,2.567,0A1.284,1.284,0,1,1,276.928,160.576Z"/>
</svg>
