<svg id="Frame_1" data-name="Frame 1" xmlns="http://www.w3.org/2000/svg" width="320" height="50" viewBox="0 0 320 50">
  <defs>
    <style>
      .cls-1 {
        fill: #4b286d;
        fill-rule: evenodd;
      }
    </style>
  </defs>
  <path id="Iniwan_mo_bang_bukas_ang_ilaw_mo_sa_bahay_" data-name="Iniwan mo bang bukas ang ilaw mo sa bahay?" class="cls-1" d="M13.884,20.992h1.26V10.313h-1.26v10.68Zm6.78-7.92a2.851,2.851,0,0,0-2.43,1.335V13.253h-1.14v7.74h1.2v-4.38a2.2,2.2,0,0,1,2.13-2.46,1.552,1.552,0,0,1,1.77,1.725v5.115h1.2V15.758A2.468,2.468,0,0,0,20.664,13.073Zm5.205-.915a0.81,0.81,0,1,0-.81-0.81A0.816,0.816,0,0,0,25.869,12.158Zm-0.6,8.835h1.2v-7.74h-1.2v7.74Zm12.48-7.74-1.095,3.495c-0.285.93-.57,1.86-0.825,2.79-0.27-.93-0.555-1.86-0.84-2.79l-1.08-3.495h-1.26l-1.08,3.495c-0.3.945-.57,1.875-0.825,2.82-0.27-.945-0.54-1.875-0.84-2.82l-1.095-3.495h-1.29l2.58,7.74h1.26l1.125-3.585c0.27-.855.54-1.755,0.795-2.625,0.24,0.87.51,1.77,0.78,2.625l1.14,3.585h1.26l2.58-7.74h-1.29Zm8.67,6.765A0.355,0.355,0,0,1,46,19.642v-4.32c0-1.3-.765-2.25-2.91-2.25-2.265,0-3.06,1.065-3.15,2.565h1.2c0.075-1.155.63-1.53,1.95-1.53s1.74,0.405,1.74,1.215a1.078,1.078,0,0,1-1.215,1.065l-1.11.12c-2.13.225-2.865,1.185-2.865,2.4,0,1.455,1.05,2.265,2.73,2.265a2.837,2.837,0,0,0,2.52-1.245,1.11,1.11,0,0,0,1.305,1.11,4.564,4.564,0,0,0,.66-0.045V20.017H46.419Zm-3.99.135a1.282,1.282,0,0,1-1.545-1.275c0-.75.39-1.23,1.8-1.395l1.125-.135a2,2,0,0,0,1.02-.33v0.915A2.223,2.223,0,0,1,42.429,20.152Zm9.12-7.08a2.851,2.851,0,0,0-2.43,1.335V13.253h-1.14v7.74h1.2v-4.38a2.2,2.2,0,0,1,2.13-2.46,1.552,1.552,0,0,1,1.77,1.725v5.115h1.2V15.758A2.468,2.468,0,0,0,51.549,13.073Zm15.675,0a2.673,2.673,0,0,0-2.385,1.455,2.424,2.424,0,0,0-2.385-1.455,2.486,2.486,0,0,0-2.235,1.32v-1.14h-1.14v7.74h1.2v-4.23c0-1.86,1.035-2.61,1.98-2.61a1.479,1.479,0,0,1,1.62,1.71v5.13h1.2v-4.23c0-1.86,1.005-2.61,1.98-2.61a1.473,1.473,0,0,1,1.62,1.71v5.13h1.2v-5.25A2.46,2.46,0,0,0,67.223,13.073Zm7.905,8.1a3.708,3.708,0,0,0,3.75-4.05,3.761,3.761,0,1,0-7.5,0A3.708,3.708,0,0,0,75.128,21.172Zm0-1.08c-1.5,0-2.49-1.1-2.49-2.97s0.99-2.97,2.49-2.97,2.49,1.1,2.49,2.97S76.628,20.092,75.128,20.092Zm11.97-7.02a3.04,3.04,0,0,0-2.595,1.29v-4.05H83.3v10.68h1.14v-1.2a3.042,3.042,0,0,0,2.655,1.38c2.175,0,3.6-1.575,3.6-4.05S89.273,13.073,87.1,13.073Zm-0.15,7.02c-1.5,0-2.49-1.1-2.49-2.97s0.99-2.97,2.49-2.97,2.49,1.035,2.49,2.91S88.448,20.092,86.948,20.092Zm11.58-.075a0.355,0.355,0,0,1-.42-0.375v-4.32c0-1.3-.765-2.25-2.91-2.25-2.265,0-3.06,1.065-3.15,2.565h1.2c0.075-1.155.63-1.53,1.95-1.53s1.74,0.405,1.74,1.215a1.078,1.078,0,0,1-1.215,1.065l-1.11.12c-2.13.225-2.865,1.185-2.865,2.4,0,1.455,1.05,2.265,2.73,2.265A2.837,2.837,0,0,0,97,19.927a1.11,1.11,0,0,0,1.305,1.11,4.564,4.564,0,0,0,.66-0.045V20.017H98.528Zm-3.99.135a1.282,1.282,0,0,1-1.545-1.275c0-.75.39-1.23,1.8-1.395l1.125-.135a2,2,0,0,0,1.02-.33v0.915A2.223,2.223,0,0,1,94.538,20.152Zm9.12-7.08a2.852,2.852,0,0,0-2.43,1.335V13.253h-1.14v7.74h1.2v-4.38a2.2,2.2,0,0,1,2.13-2.46,1.552,1.552,0,0,1,1.77,1.725v5.115h1.2V15.758A2.468,2.468,0,0,0,103.658,13.073Zm10.485,0.18v1.125a3.124,3.124,0,0,0-2.655-1.3c-2.175,0-3.6,1.575-3.6,4.05s1.425,4.05,3.6,4.05a3.128,3.128,0,0,0,2.595-1.23v0.75a2.142,2.142,0,0,1-2.4,2.4c-1.215,0-1.95-.5-2.1-1.47h-1.2c0.165,1.5,1.32,2.49,3.3,2.49,2.445,0,3.6-1.41,3.6-3.42v-7.44h-1.14Zm-2.5,6.84c-1.5,0-2.49-1.155-2.49-2.97s0.99-2.97,2.49-2.97,2.49,1.1,2.49,2.97S113.138,20.092,111.638,20.092Zm12.239-7.02a3.04,3.04,0,0,0-2.594,1.29v-4.05h-1.2v10.68h1.14v-1.2a3.042,3.042,0,0,0,2.654,1.38c2.175,0,3.6-1.575,3.6-4.05S126.052,13.073,123.877,13.073Zm-0.149,7.02c-1.5,0-2.49-1.1-2.49-2.97s0.99-2.97,2.49-2.97,2.489,1.035,2.489,2.91S125.227,20.092,123.728,20.092Zm10.349-6.84v4.38a2.2,2.2,0,0,1-2.13,2.46,1.552,1.552,0,0,1-1.769-1.725V13.253h-1.2v5.235a2.468,2.468,0,0,0,2.73,2.685,2.851,2.851,0,0,0,2.429-1.335v1.155h1.14v-7.74h-1.2Zm8.265,7.74h1.395l-3.15-4.95,2.94-2.79h-1.59l-3.585,3.465v-6.4h-1.2v10.68h1.2V18.128l1.38-1.29Zm8.775-.975a0.355,0.355,0,0,1-.42-0.375v-4.32c0-1.3-.765-2.25-2.91-2.25-2.265,0-3.06,1.065-3.15,2.565h1.2c0.075-1.155.63-1.53,1.95-1.53s1.74,0.405,1.74,1.215a1.078,1.078,0,0,1-1.215,1.065l-1.11.12c-2.13.225-2.865,1.185-2.865,2.4,0,1.455,1.05,2.265,2.73,2.265a2.837,2.837,0,0,0,2.52-1.245,1.11,1.11,0,0,0,1.305,1.11,4.564,4.564,0,0,0,.66-0.045V20.017h-0.435Zm-3.99.135a1.282,1.282,0,0,1-1.545-1.275c0-.75.39-1.23,1.8-1.395l1.125-.135a2,2,0,0,0,1.02-.33v0.915A2.223,2.223,0,0,1,147.127,20.152Zm8.28,1.02c1.905,0,3.075-.84,3.075-2.31,0-1.26-.765-1.9-2.67-2.28l-0.69-.135c-0.99-.2-1.56-0.465-1.56-1.2s0.585-1.14,1.62-1.14c1.185,0,1.89.33,1.95,1.53h1.2c-0.03-1.65-1.08-2.565-3.15-2.565-1.77,0-2.82.87-2.82,2.19,0,1.2.735,1.965,2.415,2.28l0.72,0.135c1.35,0.255,1.77.57,1.77,1.26,0,0.765-.555,1.2-1.86,1.2-1.365,0-1.935-.435-2.07-1.6h-1.215C152.242,20.347,153.442,21.172,155.407,21.172ZM20.139,38.017a0.355,0.355,0,0,1-.42-0.375v-4.32c0-1.3-.765-2.25-2.91-2.25-2.265,0-3.06,1.065-3.15,2.565h1.2c0.075-1.155.63-1.53,1.95-1.53s1.74,0.405,1.74,1.215a1.078,1.078,0,0,1-1.215,1.065l-1.11.12c-2.13.225-2.865,1.185-2.865,2.4,0,1.455,1.05,2.265,2.73,2.265a2.837,2.837,0,0,0,2.52-1.245,1.11,1.11,0,0,0,1.305,1.11,4.563,4.563,0,0,0,.66-0.045V38.017H20.139Zm-3.99.135A1.282,1.282,0,0,1,14.6,36.877c0-.75.39-1.23,1.8-1.395l1.125-.135a2,2,0,0,0,1.02-.33v0.915A2.223,2.223,0,0,1,16.149,38.152Zm9.12-7.08a2.851,2.851,0,0,0-2.43,1.335V31.253H21.7v7.74h1.2v-4.38a2.2,2.2,0,0,1,2.13-2.46,1.552,1.552,0,0,1,1.77,1.725v5.115H28V33.758A2.468,2.468,0,0,0,25.269,31.073Zm10.485,0.18v1.125a3.124,3.124,0,0,0-2.655-1.3c-2.175,0-3.6,1.575-3.6,4.05s1.425,4.05,3.6,4.05a3.127,3.127,0,0,0,2.595-1.23v0.75a2.141,2.141,0,0,1-2.4,2.4c-1.215,0-1.95-.5-2.1-1.47h-1.2c0.165,1.5,1.32,2.49,3.3,2.49,2.445,0,3.6-1.41,3.6-3.42v-7.44h-1.14Zm-2.5,6.84c-1.5,0-2.49-1.155-2.49-2.97s0.99-2.97,2.49-2.97,2.49,1.095,2.49,2.97S34.749,38.092,33.249,38.092Zm9.045-7.935a0.81,0.81,0,1,0-.81-0.81A0.816,0.816,0,0,0,42.294,30.158Zm-0.6,8.835h1.2v-7.74h-1.2v7.74Zm4.815,0.045a7.625,7.625,0,0,0,.765-0.045V37.987H46.7a0.6,0.6,0,0,1-.735-0.66V28.313h-1.2v9.12A1.466,1.466,0,0,0,46.509,39.037Zm8.22-1.02a0.355,0.355,0,0,1-.42-0.375v-4.32c0-1.3-.765-2.25-2.91-2.25-2.265,0-3.06,1.065-3.15,2.565h1.2c0.075-1.155.63-1.53,1.95-1.53s1.74,0.405,1.74,1.215a1.078,1.078,0,0,1-1.215,1.065l-1.11.12c-2.13.225-2.865,1.185-2.865,2.4,0,1.455,1.05,2.265,2.73,2.265a2.837,2.837,0,0,0,2.52-1.245,1.11,1.11,0,0,0,1.3,1.11,4.564,4.564,0,0,0,.66-0.045V38.017H54.728Zm-3.99.135a1.282,1.282,0,0,1-1.545-1.275c0-.75.39-1.23,1.8-1.395l1.125-.135a2,2,0,0,0,1.02-.33v0.915A2.223,2.223,0,0,1,50.739,38.152Zm14.955-6.9L64.6,34.748c-0.285.93-.57,1.86-0.825,2.79-0.27-.93-0.555-1.86-0.84-2.79l-1.08-3.495h-1.26l-1.08,3.495c-0.3.945-.57,1.875-0.825,2.82-0.27-.945-0.54-1.875-0.84-2.82l-1.095-3.495h-1.29l2.58,7.74H59.3l1.125-3.585c0.27-.855.54-1.755,0.795-2.625,0.24,0.87.51,1.77,0.78,2.625l1.14,3.585H64.4l2.58-7.74h-1.29Zm13.41-.18a2.673,2.673,0,0,0-2.385,1.455,2.424,2.424,0,0,0-2.385-1.455,2.486,2.486,0,0,0-2.235,1.32v-1.14h-1.14v7.74h1.2v-4.23c0-1.86,1.035-2.61,1.98-2.61a1.479,1.479,0,0,1,1.62,1.71v5.13h1.2v-4.23c0-1.86,1-2.61,1.98-2.61a1.473,1.473,0,0,1,1.62,1.71v5.13h1.2v-5.25A2.46,2.46,0,0,0,79.1,31.073Zm7.905,8.1a3.708,3.708,0,0,0,3.75-4.05,3.761,3.761,0,1,0-7.5,0A3.708,3.708,0,0,0,87.008,39.172Zm0-1.08c-1.5,0-2.49-1.095-2.49-2.97s0.99-2.97,2.49-2.97,2.49,1.095,2.49,2.97S88.508,38.092,87.008,38.092Zm10.9,1.08c1.905,0,3.075-.84,3.075-2.31,0-1.26-.765-1.9-2.67-2.28l-0.69-.135c-0.99-.2-1.56-0.465-1.56-1.2,0-.72.585-1.14,1.62-1.14,1.185,0,1.89.33,1.95,1.53h1.2c-0.03-1.65-1.08-2.565-3.15-2.565-1.77,0-2.82.87-2.82,2.19,0,1.2.735,1.965,2.415,2.28L98,35.678c1.35,0.255,1.77.57,1.77,1.26,0,0.765-.555,1.2-1.86,1.2-1.365,0-1.935-.435-2.07-1.6H94.628C94.748,38.347,95.948,39.172,97.913,39.172Zm10.68-1.155a0.355,0.355,0,0,1-.42-0.375v-4.32c0-1.3-.765-2.25-2.91-2.25-2.265,0-3.06,1.065-3.15,2.565h1.2c0.075-1.155.63-1.53,1.95-1.53S107,32.513,107,33.323a1.078,1.078,0,0,1-1.215,1.065l-1.11.12c-2.13.225-2.865,1.185-2.865,2.4,0,1.455,1.05,2.265,2.73,2.265a2.837,2.837,0,0,0,2.52-1.245,1.11,1.11,0,0,0,1.3,1.11,4.564,4.564,0,0,0,.66-0.045V38.017h-0.435Zm-3.99.135a1.282,1.282,0,0,1-1.545-1.275c0-.75.39-1.23,1.8-1.395l1.125-.135a2,2,0,0,0,1.02-.33v0.915A2.223,2.223,0,0,1,104.6,38.152Zm12.27-7.08a3.041,3.041,0,0,0-2.595,1.29v-4.05h-1.2v10.68h1.14v-1.2a3.042,3.042,0,0,0,2.655,1.38c2.174,0,3.6-1.575,3.6-4.05S119.047,31.073,116.873,31.073Zm-0.15,7.02c-1.5,0-2.49-1.095-2.49-2.97s0.99-2.97,2.49-2.97,2.489,1.035,2.489,2.91S118.223,38.092,116.723,38.092Zm11.579-.075a0.355,0.355,0,0,1-.42-0.375v-4.32c0-1.3-.765-2.25-2.909-2.25-2.265,0-3.06,1.065-3.15,2.565h1.2c0.075-1.155.63-1.53,1.95-1.53s1.739,0.405,1.739,1.215a1.077,1.077,0,0,1-1.214,1.065l-1.11.12c-2.13.225-2.865,1.185-2.865,2.4,0,1.455,1.05,2.265,2.73,2.265a2.834,2.834,0,0,0,2.519-1.245,1.11,1.11,0,0,0,1.3,1.11,4.564,4.564,0,0,0,.66-0.045V38.017H128.3Zm-3.989.135a1.282,1.282,0,0,1-1.545-1.275c0-.75.39-1.23,1.8-1.395l1.125-.135a1.99,1.99,0,0,0,1.019-.33v0.915A2.222,2.222,0,0,1,124.313,38.152Zm9.119-7.08a2.851,2.851,0,0,0-2.369,1.245v-4h-1.2v10.68h1.2v-4.38a2.2,2.2,0,0,1,2.129-2.46,1.552,1.552,0,0,1,1.77,1.725v5.115h1.2V33.758A2.468,2.468,0,0,0,133.432,31.073Zm10.935,6.945a0.355,0.355,0,0,1-.42-0.375v-4.32c0-1.3-.765-2.25-2.91-2.25-2.265,0-3.059,1.065-3.149,2.565h1.2c0.075-1.155.63-1.53,1.95-1.53s1.74,0.405,1.74,1.215a1.078,1.078,0,0,1-1.215,1.065l-1.11.12c-2.129.225-2.864,1.185-2.864,2.4,0,1.455,1.05,2.265,2.729,2.265a2.837,2.837,0,0,0,2.52-1.245,1.11,1.11,0,0,0,1.305,1.11,4.564,4.564,0,0,0,.66-0.045V38.017h-0.435Zm-3.99.135a1.282,1.282,0,0,1-1.545-1.275c0-.75.39-1.23,1.8-1.395l1.125-.135a2,2,0,0,0,1.02-.33v0.915A2.223,2.223,0,0,1,140.377,38.152Zm10.455-6.9-1.095,3.21c-0.39,1.125-.765,2.25-1.11,3.36-0.36-1.11-.72-2.22-1.11-3.345l-1.095-3.225H145.1l2.909,7.995c-0.09.24-.18,0.495-0.27,0.72a1.356,1.356,0,0,1-1.41.96h-0.7v1a5.984,5.984,0,0,0,.72.045,2.339,2.339,0,0,0,2.52-1.77l3.27-8.955h-1.305Zm6.03,4.95h1.185a3.085,3.085,0,0,1,.195-1.335,3.74,3.74,0,0,1,1.125-1.275,3.5,3.5,0,0,0,1.575-2.685c0-1.89-1.305-2.835-3.3-2.835-2.055,0-3.45,1.11-3.48,3.525h1.23c0.105-1.89,1-2.385,2.3-2.385,1.395,0,1.98.675,1.98,1.71a2.908,2.908,0,0,1-1.32,2.025,4.145,4.145,0,0,0-1.215,1.47A4.048,4.048,0,0,0,156.862,36.2Zm0.615,2.895a0.862,0.862,0,0,0,.855-0.885,0.878,0.878,0,0,0-1.755,0A0.863,0.863,0,0,0,157.477,39.1Z"/>
</svg>
