<svg id="Frame_2" data-name="Frame 2" xmlns="http://www.w3.org/2000/svg" width="320" height="50" viewBox="0 0 320 50">
  <defs>
    <style>
      .cls-1 {
        fill: #4b286d;
        fill-rule: evenodd;
      }
    </style>
  </defs>
  <path id="Turn_them_off_from_your_smartphone." data-name="Turn them off from your smartphone." class="cls-1" d="M21.774,10.886H13.209v1.14h3.63v9.54h1.3v-9.54h3.63v-1.14Zm6.375,2.94v4.38a2.2,2.2,0,0,1-2.13,2.46,1.552,1.552,0,0,1-1.77-1.725V13.826h-1.2v5.235a2.468,2.468,0,0,0,2.73,2.685,2.852,2.852,0,0,0,2.43-1.335v1.155h1.14v-7.74h-1.2Zm6.7-.12a2.7,2.7,0,0,0-2.49,1.485V13.826h-1.14v7.74h1.2v-4.41c0-1.5.99-2.28,2.535-2.28h0.3V13.721C35.094,13.706,34.974,13.706,34.854,13.706Zm5.325-.06a2.851,2.851,0,0,0-2.43,1.335V13.826h-1.14v7.74h1.2v-4.38a2.2,2.2,0,0,1,2.13-2.46,1.552,1.552,0,0,1,1.77,1.725v5.115h1.2V16.331A2.468,2.468,0,0,0,40.179,13.646Zm10.92,1.23v-1.05h-1.59v-2.19h-1.2v2.19H47.034v1.05h1.275v5.13c0,1.185.735,1.6,1.935,1.6q0.36,0,.855-0.045v-1h-0.7c-0.69,0-.885-0.255-0.885-0.66V14.876H51.1Zm4.92-1.23a2.851,2.851,0,0,0-2.37,1.245v-4h-1.2v10.68h1.2v-4.38a2.2,2.2,0,0,1,2.13-2.46,1.552,1.552,0,0,1,1.77,1.725v5.115h1.2V16.331A2.468,2.468,0,0,0,56.018,13.646ZM67.373,17.7c0-2.22-1.245-4.05-3.555-4.05-2.145,0-3.57,1.62-3.57,4.05,0,2.5,1.485,4.05,3.6,4.05a3.229,3.229,0,0,0,3.33-2.535H65.933a1.988,1.988,0,0,1-2.055,1.44c-1.35,0-2.265-.8-2.385-2.535h5.88V17.7Zm-3.555-2.955a2.269,2.269,0,0,1,2.265,2.295h-4.56A2.276,2.276,0,0,1,63.818,14.741Zm13.2-1.1A2.673,2.673,0,0,0,74.633,15.1a2.424,2.424,0,0,0-2.385-1.455,2.486,2.486,0,0,0-2.235,1.32v-1.14h-1.14v7.74h1.2v-4.23c0-1.86,1.035-2.61,1.98-2.61a1.479,1.479,0,0,1,1.62,1.71v5.13h1.2v-4.23c0-1.86,1-2.61,1.98-2.61a1.473,1.473,0,0,1,1.62,1.71v5.13h1.2v-5.25A2.46,2.46,0,0,0,77.018,13.646Zm10.83,8.1A3.708,3.708,0,0,0,91.6,17.7a3.761,3.761,0,1,0-7.5,0A3.708,3.708,0,0,0,87.848,21.745Zm0-1.08c-1.5,0-2.49-1.1-2.49-2.97s0.99-2.97,2.49-2.97,2.49,1.095,2.49,2.97S89.348,20.666,87.848,20.666Zm8.085-8.76h0.69v-1.02c-0.18-.015-0.54-0.03-0.765-0.03a1.913,1.913,0,0,0-2.16,2.175v0.795H92.423v1.05H93.7v6.69h1.2v-6.69h1.65v-1.05H94.9V13A0.952,0.952,0,0,1,95.933,11.906Zm4.875,0h0.69v-1.02c-0.18-.015-0.54-0.03-0.765-0.03a1.913,1.913,0,0,0-2.16,2.175v0.795H97.3v1.05h1.275v6.69h1.2v-6.69h1.65v-1.05h-1.65V13A0.953,0.953,0,0,1,100.808,11.906Zm7.8,0h0.69v-1.02c-0.18-.015-0.54-0.03-0.765-0.03a1.913,1.913,0,0,0-2.16,2.175v0.795H105.1v1.05h1.275v6.69h1.2v-6.69h1.65v-1.05h-1.65V13A0.952,0.952,0,0,1,108.607,11.906Zm5.67,1.8a2.7,2.7,0,0,0-2.49,1.485V13.826h-1.14v7.74h1.2v-4.41c0-1.5.99-2.28,2.535-2.28h0.3V13.721C114.517,13.706,114.4,13.706,114.277,13.706Zm5.13,8.04a3.708,3.708,0,0,0,3.75-4.05,3.761,3.761,0,1,0-7.5,0A3.708,3.708,0,0,0,119.407,21.745Zm0-1.08c-1.5,0-2.49-1.1-2.49-2.97s0.99-2.97,2.49-2.97,2.49,1.095,2.49,2.97S120.907,20.666,119.407,20.666Zm13.395-7.02a2.673,2.673,0,0,0-2.385,1.455,2.424,2.424,0,0,0-2.385-1.455,2.486,2.486,0,0,0-2.235,1.32v-1.14h-1.14v7.74h1.2v-4.23c0-1.86,1.035-2.61,1.98-2.61a1.479,1.479,0,0,1,1.62,1.71v5.13h1.2v-4.23c0-1.86,1-2.61,1.98-2.61a1.473,1.473,0,0,1,1.62,1.71v5.13h1.2v-5.25A2.459,2.459,0,0,0,132.8,13.646ZM18.714,31.826l-1.095,3.21c-0.39,1.125-.765,2.25-1.11,3.36-0.36-1.11-.72-2.22-1.11-3.345L14.3,31.826h-1.32l2.91,7.995c-0.09.24-.18,0.495-0.27,0.72a1.356,1.356,0,0,1-1.41.96h-0.7v1a5.984,5.984,0,0,0,.72.045,2.339,2.339,0,0,0,2.52-1.77l3.27-8.955h-1.3Zm5.73,7.92a3.708,3.708,0,0,0,3.75-4.05,3.761,3.761,0,1,0-7.5,0A3.708,3.708,0,0,0,24.444,39.745Zm0-1.08c-1.5,0-2.49-1.095-2.49-2.97s0.99-2.97,2.49-2.97,2.49,1.095,2.49,2.97S25.944,38.666,24.444,38.666Zm10.35-6.84v4.38a2.2,2.2,0,0,1-2.13,2.46,1.552,1.552,0,0,1-1.77-1.725V31.826h-1.2v5.235a2.468,2.468,0,0,0,2.73,2.685,2.851,2.851,0,0,0,2.43-1.335v1.155h1.14v-7.74h-1.2Zm6.705-.12a2.7,2.7,0,0,0-2.49,1.485V31.826h-1.14v7.74h1.2v-4.41c0-1.5.99-2.28,2.535-2.28h0.3V31.721C41.739,31.706,41.619,31.706,41.5,31.706Zm7.41,8.04c1.905,0,3.075-.84,3.075-2.31,0-1.26-.765-1.9-2.67-2.28l-0.69-.135c-0.99-.2-1.56-0.465-1.56-1.2,0-.72.585-1.14,1.62-1.14,1.185,0,1.89.33,1.95,1.53h1.2c-0.03-1.65-1.08-2.565-3.15-2.565-1.77,0-2.82.87-2.82,2.19,0,1.2.735,1.965,2.415,2.28L49,36.251c1.35,0.255,1.77.57,1.77,1.26,0,0.765-.555,1.2-1.86,1.2-1.365,0-1.935-.435-2.07-1.6H45.623C45.743,38.92,46.943,39.745,48.908,39.745Zm12.495-8.1A2.673,2.673,0,0,0,59.018,33.1a2.424,2.424,0,0,0-2.385-1.455,2.486,2.486,0,0,0-2.235,1.32v-1.14h-1.14v7.74h1.2v-4.23c0-1.86,1.035-2.61,1.98-2.61a1.479,1.479,0,0,1,1.62,1.71v5.13h1.2v-4.23c0-1.86,1-2.61,1.98-2.61a1.473,1.473,0,0,1,1.62,1.71v5.13h1.2v-5.25A2.46,2.46,0,0,0,61.4,31.646Zm10.86,6.945a0.355,0.355,0,0,1-.42-0.375V33.9c0-1.3-.765-2.25-2.91-2.25-2.265,0-3.06,1.065-3.15,2.565h1.2c0.075-1.155.63-1.53,1.95-1.53s1.74,0.405,1.74,1.215a1.078,1.078,0,0,1-1.215,1.065l-1.11.12c-2.13.225-2.865,1.185-2.865,2.4,0,1.455,1.05,2.265,2.73,2.265a2.837,2.837,0,0,0,2.52-1.245,1.11,1.11,0,0,0,1.3,1.11,4.564,4.564,0,0,0,.66-0.045V38.591H72.263Zm-3.99.135a1.282,1.282,0,0,1-1.545-1.275c0-.75.39-1.23,1.8-1.395l1.125-.135a2,2,0,0,0,1.02-.33v0.915A2.223,2.223,0,0,1,68.273,38.725Zm9.18-7.02a2.7,2.7,0,0,0-2.49,1.485V31.826h-1.14v7.74h1.2v-4.41c0-1.5.99-2.28,2.535-2.28h0.3V31.721C77.693,31.706,77.573,31.706,77.453,31.706Zm5.145,1.17v-1.05h-1.59v-2.19h-1.2v2.19H78.533v1.05h1.275v5.13c0,1.185.735,1.6,1.935,1.6q0.36,0,.855-0.045v-1h-0.7c-0.69,0-.885-0.255-0.885-0.66V32.876H82.6Zm5.145-1.23a3.042,3.042,0,0,0-2.655,1.38v-1.2h-1.14v10.68h1.2v-4.05a3.04,3.04,0,0,0,2.595,1.29c2.175,0,3.6-1.575,3.6-4.05S89.918,31.646,87.743,31.646Zm-0.15,7.02c-1.5,0-2.49-1.095-2.49-2.97s0.99-2.97,2.49-2.97,2.49,1.035,2.49,2.91S89.093,38.666,87.593,38.666Zm8.82-7.02a2.851,2.851,0,0,0-2.37,1.245v-4h-1.2v10.68h1.2v-4.38a2.2,2.2,0,0,1,2.13-2.46,1.552,1.552,0,0,1,1.77,1.725v5.115h1.2V34.331A2.468,2.468,0,0,0,96.413,31.646Zm7.98,8.1a3.708,3.708,0,0,0,3.749-4.05,3.761,3.761,0,1,0-7.5,0A3.708,3.708,0,0,0,104.393,39.745Zm0-1.08c-1.5,0-2.49-1.095-2.49-2.97s0.99-2.97,2.49-2.97,2.489,1.095,2.489,2.97S105.893,38.666,104.393,38.666Zm8.819-7.02a2.85,2.85,0,0,0-2.429,1.335V31.826h-1.14v7.74h1.2v-4.38a2.2,2.2,0,0,1,2.129-2.46,1.552,1.552,0,0,1,1.77,1.725v5.115h1.2V34.331A2.468,2.468,0,0,0,113.212,31.646Zm11.355,4.05c0-2.22-1.245-4.05-3.555-4.05-2.145,0-3.57,1.62-3.57,4.05,0,2.5,1.485,4.05,3.6,4.05a3.229,3.229,0,0,0,3.33-2.535h-1.245a1.988,1.988,0,0,1-2.055,1.44c-1.35,0-2.265-.8-2.385-2.535h5.88V35.7Zm-3.555-2.955a2.27,2.27,0,0,1,2.265,2.295h-4.56A2.276,2.276,0,0,1,121.012,32.741Zm5.73,6.93a0.862,0.862,0,0,0,.855-0.885,0.878,0.878,0,0,0-1.755,0A0.863,0.863,0,0,0,126.742,39.67Z"/>
</svg>
