<svg id="Frame_3" data-name="Frame 3" xmlns="http://www.w3.org/2000/svg" width="320" height="50" viewBox="0 0 320 50">
  <defs>
    <style>
      .cls-1 {
        fill: #4b286d;
        fill-rule: evenodd;
      }
    </style>
  </defs>
  <path id="Mas_energy_efficient_sa_bahay_" data-name="Mas energy efficient sa bahay " class="cls-1" d="M22.869,10.886l-2.385,5.895c-0.435,1.05-.93,2.385-1.26,3.255-0.315-.825-0.78-2.025-1.215-3.075l-2.475-6.075h-1.65v10.68h1.23v-3.42c0-1.425,0-3.375-.045-5.445,0.285,0.795.57,1.515,0.945,2.43l2.655,6.435h1.08l2.64-6.435c0.375-.915.66-1.635,0.945-2.43-0.045,2.07-.045,4.02-0.045,5.445v3.42h1.23V10.886h-1.65Zm9.93,9.7a0.355,0.355,0,0,1-.42-0.375V15.9c0-1.3-.765-2.25-2.91-2.25-2.265,0-3.06,1.065-3.15,2.565h1.2c0.075-1.155.63-1.53,1.95-1.53s1.74,0.4,1.74,1.215a1.078,1.078,0,0,1-1.215,1.065l-1.11.12c-2.13.225-2.865,1.185-2.865,2.4,0,1.455,1.05,2.265,2.73,2.265a2.837,2.837,0,0,0,2.52-1.245,1.11,1.11,0,0,0,1.3,1.11,4.564,4.564,0,0,0,.66-0.045V20.591H32.8Zm-3.99.135a1.282,1.282,0,0,1-1.545-1.275c0-.75.39-1.23,1.8-1.395l1.125-.135a2,2,0,0,0,1.02-.33v0.915A2.223,2.223,0,0,1,28.809,20.725Zm8.28,1.02c1.9,0,3.075-.84,3.075-2.31,0-1.26-.765-1.9-2.67-2.28l-0.69-.135c-0.99-.2-1.56-0.465-1.56-1.2,0-.72.585-1.14,1.62-1.14,1.185,0,1.89.33,1.95,1.53h1.2c-0.03-1.65-1.08-2.565-3.15-2.565-1.77,0-2.82.87-2.82,2.19,0,1.2.735,1.965,2.415,2.28l0.72,0.135c1.35,0.255,1.77.57,1.77,1.26,0,0.765-.555,1.2-1.86,1.2-1.365,0-1.935-.435-2.07-1.6H33.8C33.924,20.92,35.124,21.745,37.089,21.745ZM51.113,17.7c0-2.22-1.245-4.05-3.555-4.05-2.145,0-3.57,1.62-3.57,4.05,0,2.5,1.485,4.05,3.6,4.05a3.229,3.229,0,0,0,3.33-2.535H49.673a1.988,1.988,0,0,1-2.055,1.44c-1.35,0-2.265-.8-2.385-2.535h5.88V17.7Zm-3.555-2.955a2.27,2.27,0,0,1,2.265,2.295h-4.56A2.276,2.276,0,0,1,47.559,14.741Zm8.625-1.1a2.851,2.851,0,0,0-2.43,1.335V13.826h-1.14v7.74h1.2v-4.38a2.2,2.2,0,0,1,2.13-2.46,1.552,1.552,0,0,1,1.77,1.725v5.115h1.2V16.331A2.468,2.468,0,0,0,56.184,13.646ZM67.538,17.7c0-2.22-1.245-4.05-3.555-4.05-2.145,0-3.57,1.62-3.57,4.05,0,2.5,1.485,4.05,3.6,4.05a3.229,3.229,0,0,0,3.33-2.535H66.1a1.988,1.988,0,0,1-2.055,1.44c-1.35,0-2.265-.8-2.385-2.535h5.88V17.7Zm-3.555-2.955a2.27,2.27,0,0,1,2.265,2.295h-4.56A2.276,2.276,0,0,1,63.983,14.741Zm8.685-1.035a2.7,2.7,0,0,0-2.49,1.485V13.826h-1.14v7.74h1.2v-4.41c0-1.5.99-2.28,2.535-2.28h0.3V13.721C72.908,13.706,72.788,13.706,72.668,13.706Zm7.635,0.12v1.125a3.124,3.124,0,0,0-2.655-1.3c-2.175,0-3.6,1.575-3.6,4.05s1.425,4.05,3.6,4.05a3.128,3.128,0,0,0,2.595-1.23v0.75a2.141,2.141,0,0,1-2.4,2.4c-1.215,0-1.95-.495-2.1-1.47h-1.2c0.165,1.5,1.32,2.49,3.3,2.49,2.445,0,3.6-1.41,3.6-3.42v-7.44H80.3Zm-2.5,6.84c-1.5,0-2.49-1.155-2.49-2.97s0.99-2.97,2.49-2.97,2.49,1.095,2.49,2.97S79.3,20.666,77.8,20.666Zm10.425-6.84-1.095,3.21c-0.39,1.125-.765,2.25-1.11,3.36-0.36-1.11-.72-2.22-1.11-3.345l-1.095-3.225h-1.32L85.4,21.82c-0.09.24-.18,0.5-0.27,0.72a1.356,1.356,0,0,1-1.41.96h-0.7v1a5.983,5.983,0,0,0,.72.045,2.339,2.339,0,0,0,2.52-1.77l3.27-8.955h-1.3Zm12.03,3.87c0-2.22-1.245-4.05-3.555-4.05-2.145,0-3.57,1.62-3.57,4.05,0,2.5,1.485,4.05,3.6,4.05a3.229,3.229,0,0,0,3.33-2.535H98.813a1.988,1.988,0,0,1-2.055,1.44c-1.35,0-2.265-.8-2.385-2.535h5.88V17.7ZM96.7,14.741a2.27,2.27,0,0,1,2.265,2.295H94.4A2.276,2.276,0,0,1,96.7,14.741Zm7.89-2.835h0.69v-1.02c-0.18-.015-0.54-0.03-0.765-0.03a1.913,1.913,0,0,0-2.16,2.175v0.795h-1.275v1.05h1.275v6.69h1.2v-6.69h1.65v-1.05h-1.65V13A0.952,0.952,0,0,1,104.588,11.906Zm2.64,1.125v0.795h-1.275v1.05h1.275v6.69h1.2v-6.69h1.65v-1.05h-1.65V13a0.952,0.952,0,0,1,1.035-1.1h0.69v-1.02c-0.18-.015-0.54-0.03-0.765-0.03A1.913,1.913,0,0,0,107.228,13.031Zm4.65-.3a0.81,0.81,0,1,0-.81-0.81A0.816,0.816,0,0,0,111.878,12.731Zm-0.6,8.835h1.2v-7.74h-1.2v7.74Zm6.285,0.18a3.192,3.192,0,0,0,3.329-2.835h-1.23a2.033,2.033,0,0,1-2.1,1.755c-1.29,0-2.325-.945-2.325-2.97s1-2.97,2.325-2.97a2.015,2.015,0,0,1,2.084,1.725h1.245a3.136,3.136,0,0,0-3.329-2.8c-2.145,0-3.585,1.56-3.585,4.05S115.448,21.745,117.563,21.745Zm5.28-9.015a0.81,0.81,0,1,0-.81-0.81A0.816,0.816,0,0,0,122.843,12.731Zm-0.6,8.835h1.2v-7.74h-1.2v7.74Zm9.824-3.87c0-2.22-1.245-4.05-3.555-4.05-2.144,0-3.569,1.62-3.569,4.05,0,2.5,1.485,4.05,3.6,4.05a3.229,3.229,0,0,0,3.33-2.535h-1.245a1.988,1.988,0,0,1-2.055,1.44c-1.35,0-2.264-.8-2.384-2.535h5.879V17.7Zm-3.555-2.955a2.27,2.27,0,0,1,2.265,2.295h-4.559A2.275,2.275,0,0,1,128.512,14.741Zm8.625-1.1a2.851,2.851,0,0,0-2.43,1.335V13.826h-1.139v7.74h1.2v-4.38a2.2,2.2,0,0,1,2.13-2.46,1.552,1.552,0,0,1,1.77,1.725v5.115h1.2V16.331A2.468,2.468,0,0,0,137.137,13.646Zm8,1.23v-1.05h-1.59v-2.19h-1.2v2.19h-1.275v1.05h1.275v5.13c0,1.185.735,1.6,1.935,1.6q0.36,0,.855-0.045v-1h-0.705c-0.69,0-.885-0.255-0.885-0.66V14.876h1.59ZM16.539,39.745c1.9,0,3.075-.84,3.075-2.31,0-1.26-.765-1.9-2.67-2.28l-0.69-.135c-0.99-.2-1.56-0.465-1.56-1.2,0-.72.585-1.14,1.62-1.14,1.185,0,1.89.33,1.95,1.53h1.2c-0.03-1.65-1.08-2.565-3.15-2.565-1.77,0-2.82.87-2.82,2.19,0,1.2.735,1.965,2.415,2.28l0.72,0.135c1.35,0.255,1.77.57,1.77,1.26,0,0.765-.555,1.2-1.86,1.2-1.365,0-1.935-.435-2.07-1.6H13.254C13.374,38.92,14.574,39.745,16.539,39.745Zm10.68-1.155a0.355,0.355,0,0,1-.42-0.375V33.9c0-1.3-.765-2.25-2.91-2.25-2.265,0-3.06,1.065-3.15,2.565h1.2c0.075-1.155.63-1.53,1.95-1.53s1.74,0.405,1.74,1.215a1.078,1.078,0,0,1-1.215,1.065l-1.11.12c-2.13.225-2.865,1.185-2.865,2.4,0,1.455,1.05,2.265,2.73,2.265a2.837,2.837,0,0,0,2.52-1.245,1.11,1.11,0,0,0,1.3,1.11,4.564,4.564,0,0,0,.66-0.045V38.591H27.219Zm-3.99.135a1.282,1.282,0,0,1-1.545-1.275c0-.75.39-1.23,1.8-1.395l1.125-.135a2,2,0,0,0,1.02-.33v0.915A2.223,2.223,0,0,1,23.229,38.725Zm12.27-7.08a3.04,3.04,0,0,0-2.595,1.29v-4.05H31.7v10.68h1.14v-1.2a3.043,3.043,0,0,0,2.655,1.38c2.175,0,3.6-1.575,3.6-4.05S37.674,31.646,35.5,31.646Zm-0.15,7.02c-1.5,0-2.49-1.095-2.49-2.97s0.99-2.97,2.49-2.97,2.49,1.035,2.49,2.91S36.849,38.666,35.349,38.666Zm11.58-.075a0.355,0.355,0,0,1-.42-0.375V33.9c0-1.3-.765-2.25-2.91-2.25-2.265,0-3.06,1.065-3.15,2.565h1.2c0.075-1.155.63-1.53,1.95-1.53s1.74,0.405,1.74,1.215a1.078,1.078,0,0,1-1.215,1.065l-1.11.12c-2.13.225-2.865,1.185-2.865,2.4,0,1.455,1.05,2.265,2.73,2.265A2.837,2.837,0,0,0,45.4,38.5a1.11,1.11,0,0,0,1.3,1.11,4.564,4.564,0,0,0,.66-0.045V38.591H46.929Zm-3.99.135a1.282,1.282,0,0,1-1.545-1.275c0-.75.39-1.23,1.8-1.395l1.125-.135a2,2,0,0,0,1.02-.33v0.915A2.223,2.223,0,0,1,42.939,38.725Zm9.12-7.08a2.851,2.851,0,0,0-2.37,1.245v-4h-1.2v10.68h1.2v-4.38a2.2,2.2,0,0,1,2.13-2.46,1.552,1.552,0,0,1,1.77,1.725v5.115h1.2V34.331A2.468,2.468,0,0,0,52.059,31.646Zm10.935,6.945a0.355,0.355,0,0,1-.42-0.375V33.9c0-1.3-.765-2.25-2.91-2.25-2.265,0-3.06,1.065-3.15,2.565h1.2c0.075-1.155.63-1.53,1.95-1.53S61.4,33.086,61.4,33.9a1.078,1.078,0,0,1-1.215,1.065l-1.11.12c-2.13.225-2.865,1.185-2.865,2.4,0,1.455,1.05,2.265,2.73,2.265a2.837,2.837,0,0,0,2.52-1.245,1.11,1.11,0,0,0,1.3,1.11,4.564,4.564,0,0,0,.66-0.045V38.591H62.993ZM59,38.725a1.282,1.282,0,0,1-1.545-1.275c0-.75.39-1.23,1.8-1.395l1.125-.135a2,2,0,0,0,1.02-.33v0.915A2.223,2.223,0,0,1,59,38.725Zm10.455-6.9-1.095,3.21c-0.39,1.125-.765,2.25-1.11,3.36-0.36-1.11-.72-2.22-1.11-3.345l-1.095-3.225h-1.32l2.91,7.995c-0.09.24-.18,0.495-0.27,0.72a1.356,1.356,0,0,1-1.41.96h-0.7v1a5.984,5.984,0,0,0,.72.045,2.339,2.339,0,0,0,2.52-1.77l3.27-8.955H69.458Z"/>
</svg>
