<svg id="Frame_4" data-name="Frame 4" xmlns="http://www.w3.org/2000/svg" width="320" height="50" viewBox="0 0 320 50">
  <defs>
    <style>
      .cls-1 {
        fill: #4b286d;
        fill-rule: evenodd;
      }
    </style>
  </defs>
  <path id="with_TELUS_smart_plugs_bulbs._" data-name="with TELUS smart  plugs &amp; bulbs. " class="cls-1" d="M23.214,13.826l-1.095,3.495c-0.285.93-.57,1.86-0.825,2.79-0.27-.93-0.555-1.86-0.84-2.79l-1.08-3.495h-1.26l-1.08,3.495c-0.3.945-.57,1.875-0.825,2.82-0.27-.945-0.54-1.875-0.84-2.82l-1.095-3.495h-1.29l2.58,7.74h1.26l1.125-3.585c0.27-.855.54-1.755,0.8-2.625,0.24,0.87.51,1.77,0.78,2.625l1.14,3.585h1.26l2.58-7.74h-1.29Zm2.94-1.095a0.81,0.81,0,1,0-.81-0.81A0.816,0.816,0,0,0,26.154,12.731Zm-0.6,8.835h1.2v-7.74h-1.2v7.74Zm6.465-6.69v-1.05h-1.59v-2.19h-1.2v2.19H27.954v1.05h1.275v5.13c0,1.185.735,1.6,1.935,1.6q0.36,0,.855-0.045v-1h-0.7c-0.69,0-.885-0.255-0.885-0.66V14.876h1.59Zm4.92-1.23a2.851,2.851,0,0,0-2.37,1.245v-4h-1.2v10.68h1.2v-4.38a2.2,2.2,0,0,1,2.13-2.46,1.552,1.552,0,0,1,1.77,1.725v5.115h1.2V16.331A2.468,2.468,0,0,0,36.939,13.646Zm15.495-2.76H43.869v1.14H47.5v9.54h1.3v-9.54h3.63v-1.14Zm8.775,1.14v-1.14H53.784v10.68h7.365v-1.14h-6.1V16.571h5.565v-1.14H55.043v-3.4h6.165Zm2.685,8.4v-9.54h-1.26v10.68h6.63v-1.14h-5.37Zm10.77,1.365c2.67,0,4.2-1.515,4.2-4.185v-6.72H77.6v6.72c0,2.1-1.08,3.045-2.94,3.045s-2.94-.945-2.94-3.045v-6.72h-1.26v6.72C70.463,20.276,71.993,21.79,74.663,21.79Zm9.99,0.015c2.565,0,4-1.245,4-3.135,0-1.545-.87-2.5-3.33-3.045l-0.945-.21c-2.01-.45-2.5-0.96-2.5-1.98,0-1,.795-1.65,2.34-1.65,2.13,0,2.775.825,2.88,2.2h1.29c-0.045-1.74-1.02-3.345-4.17-3.345-2.22,0-3.645,1.08-3.645,2.79,0,1.95,1.425,2.685,3.24,3.09l0.945,0.21c1.89,0.42,2.595.915,2.595,1.935,0,1.32-.99,2-2.7,2-1.74,0-3.1-.645-3.135-2.625h-1.3C80.243,20.71,82.1,21.805,84.653,21.805Zm11.01-.06c1.9,0,3.075-.84,3.075-2.31,0-1.26-.765-1.9-2.67-2.28l-0.69-.135c-0.99-.2-1.56-0.465-1.56-1.2,0-.72.585-1.14,1.62-1.14,1.185,0,1.89.33,1.95,1.53h1.2c-0.03-1.65-1.08-2.565-3.15-2.565-1.77,0-2.82.87-2.82,2.19,0,1.2.735,1.965,2.415,2.28l0.72,0.135c1.35,0.255,1.77.57,1.77,1.26,0,0.765-.555,1.2-1.86,1.2-1.365,0-1.935-.435-2.07-1.6H92.378C92.5,20.92,93.7,21.745,95.663,21.745Zm12.5-8.1a2.673,2.673,0,0,0-2.385,1.455,2.424,2.424,0,0,0-2.385-1.455,2.486,2.486,0,0,0-2.235,1.32v-1.14h-1.14v7.74h1.2v-4.23c0-1.86,1.035-2.61,1.98-2.61a1.479,1.479,0,0,1,1.62,1.71v5.13h1.2v-4.23c0-1.86,1-2.61,1.98-2.61a1.473,1.473,0,0,1,1.62,1.71v5.13h1.2v-5.25A2.459,2.459,0,0,0,108.158,13.646Zm10.86,6.945a0.355,0.355,0,0,1-.42-0.375V15.9c0-1.3-.765-2.25-2.91-2.25-2.265,0-3.06,1.065-3.15,2.565h1.2c0.075-1.155.63-1.53,1.95-1.53s1.74,0.4,1.74,1.215a1.078,1.078,0,0,1-1.215,1.065l-1.11.12c-2.13.225-2.865,1.185-2.865,2.4,0,1.455,1.05,2.265,2.73,2.265a2.837,2.837,0,0,0,2.52-1.245,1.11,1.11,0,0,0,1.305,1.11,4.564,4.564,0,0,0,.66-0.045V20.591h-0.435Zm-3.99.135a1.282,1.282,0,0,1-1.545-1.275c0-.75.39-1.23,1.8-1.395l1.125-.135a2,2,0,0,0,1.02-.33v0.915A2.223,2.223,0,0,1,115.028,20.725Zm9.18-7.02a2.7,2.7,0,0,0-2.49,1.485V13.826h-1.14v7.74h1.2v-4.41c0-1.5.99-2.28,2.535-2.28h0.3V13.721C124.448,13.706,124.328,13.706,124.208,13.706Zm5.144,1.17v-1.05h-1.589v-2.19h-1.2v2.19h-1.275v1.05h1.275v5.13c0,1.185.735,1.6,1.935,1.6q0.36,0,.854-0.045v-1h-0.7c-0.69,0-.885-0.255-0.885-0.66V14.876h1.589ZM17.6,31.646a3.042,3.042,0,0,0-2.655,1.38v-1.2h-1.14v10.68h1.2v-4.05a3.04,3.04,0,0,0,2.595,1.29c2.175,0,3.6-1.575,3.6-4.05S19.779,31.646,17.6,31.646Zm-0.15,7.02c-1.5,0-2.49-1.095-2.49-2.97s0.99-2.97,2.49-2.97,2.49,1.035,2.49,2.91S18.954,38.666,17.454,38.666Zm6.99,0.945a7.625,7.625,0,0,0,.765-0.045v-1h-0.57A0.6,0.6,0,0,1,23.9,37.9V28.886H22.7v9.12A1.466,1.466,0,0,0,24.444,39.61Zm6.99-7.785v4.38a2.2,2.2,0,0,1-2.13,2.46,1.552,1.552,0,0,1-1.77-1.725V31.826h-1.2v5.235a2.468,2.468,0,0,0,2.73,2.685,2.852,2.852,0,0,0,2.43-1.335v1.155h1.14v-7.74h-1.2Zm8.955,0v1.125a3.124,3.124,0,0,0-2.655-1.3c-2.175,0-3.6,1.575-3.6,4.05s1.425,4.05,3.6,4.05a3.128,3.128,0,0,0,2.595-1.23v0.75a2.141,2.141,0,0,1-2.4,2.4c-1.215,0-1.95-.5-2.1-1.47h-1.2c0.165,1.5,1.32,2.49,3.3,2.49,2.445,0,3.6-1.41,3.6-3.42v-7.44h-1.14Zm-2.5,6.84c-1.5,0-2.49-1.155-2.49-2.97s0.99-2.97,2.49-2.97,2.49,1.095,2.49,2.97S39.384,38.666,37.884,38.666Zm8.25,1.08c1.9,0,3.075-.84,3.075-2.31,0-1.26-.765-1.9-2.67-2.28l-0.69-.135c-0.99-.2-1.56-0.465-1.56-1.2,0-.72.585-1.14,1.62-1.14,1.185,0,1.89.33,1.95,1.53h1.2c-0.03-1.65-1.08-2.565-3.15-2.565-1.77,0-2.82.87-2.82,2.19,0,1.2.735,1.965,2.415,2.28l0.72,0.135c1.35,0.255,1.77.57,1.77,1.26,0,0.765-.555,1.2-1.86,1.2-1.365,0-1.935-.435-2.07-1.6H42.849C42.969,38.92,44.169,39.745,46.134,39.745Zm16.245-.18-2.07-2.31a7.244,7.244,0,0,0,.645-2.85H59.738a5.769,5.769,0,0,1-.3,1.875l-2.22-2.475c1.35-.78,2.19-1.755,2.19-2.85A2.635,2.635,0,0,0,54.174,31,3.927,3.927,0,0,0,55.449,33.6c-1.59.885-2.49,1.725-2.49,3.24a2.981,2.981,0,0,0,3.225,2.97,4.3,4.3,0,0,0,3.45-1.5l1.125,1.26h1.62Zm-5.595-9.84A1.3,1.3,0,0,1,58.149,31c0,0.825-.57,1.41-1.635,2.01A3.4,3.4,0,0,1,55.434,31,1.248,1.248,0,0,1,56.784,29.726Zm-0.525,8.94a1.906,1.906,0,0,1-2.025-1.89c0-1.17.75-1.755,1.92-2.385l2.685,3.015A3.079,3.079,0,0,1,56.259,38.666Zm13.815-7.02a3.04,3.04,0,0,0-2.595,1.29v-4.05h-1.2v10.68h1.14v-1.2a3.042,3.042,0,0,0,2.655,1.38c2.175,0,3.6-1.575,3.6-4.05S72.248,31.646,70.073,31.646Zm-0.15,7.02c-1.5,0-2.49-1.095-2.49-2.97s0.99-2.97,2.49-2.97,2.49,1.035,2.49,2.91S71.423,38.666,69.923,38.666Zm10.35-6.84v4.38a2.2,2.2,0,0,1-2.13,2.46,1.552,1.552,0,0,1-1.77-1.725V31.826h-1.2v5.235a2.468,2.468,0,0,0,2.73,2.685,2.852,2.852,0,0,0,2.43-1.335v1.155h1.14v-7.74h-1.2Zm4.815,7.785a7.625,7.625,0,0,0,.765-0.045v-1h-0.57a0.6,0.6,0,0,1-.735-0.66V28.886h-1.2v9.12A1.466,1.466,0,0,0,85.088,39.61Zm5.685-7.965a3.04,3.04,0,0,0-2.595,1.29v-4.05h-1.2v10.68h1.14v-1.2a3.043,3.043,0,0,0,2.655,1.38c2.175,0,3.6-1.575,3.6-4.05S92.948,31.646,90.773,31.646Zm-0.15,7.02c-1.5,0-2.49-1.095-2.49-2.97s0.99-2.97,2.49-2.97,2.49,1.035,2.49,2.91S92.123,38.666,90.623,38.666Zm7.98,1.08c1.905,0,3.075-.84,3.075-2.31,0-1.26-.765-1.9-2.67-2.28l-0.69-.135c-0.99-.2-1.56-0.465-1.56-1.2,0-.72.585-1.14,1.62-1.14,1.185,0,1.89.33,1.95,1.53h1.2c-0.03-1.65-1.08-2.565-3.15-2.565-1.77,0-2.82.87-2.82,2.19,0,1.2.735,1.965,2.415,2.28l0.72,0.135c1.35,0.255,1.77.57,1.77,1.26,0,0.765-.555,1.2-1.86,1.2-1.365,0-1.935-.435-2.07-1.6H95.318C95.438,38.92,96.638,39.745,98.6,39.745Zm5.025-.075a0.862,0.862,0,0,0,.855-0.885,0.878,0.878,0,0,0-1.755,0A0.863,0.863,0,0,0,103.628,39.67Z"/>
</svg>
