<svg id="Frame_5" data-name="Frame 5" xmlns="http://www.w3.org/2000/svg" width="320" height="50" viewBox="0 0 320 50">
  <defs>
    <style>
      .cls-1 {
        fill: #4b286d;
        fill-rule: evenodd;
      }
    </style>
  </defs>
  <path id="SmartHome_Security_make_home_life_easier" data-name="SmartHome Security make home life easier" class="cls-1" d="M17.844,21.805c2.67,0,4.32-1.17,4.32-3.285,0-1.695-1.02-2.67-3.54-3.165l-0.93-.18c-1.59-.33-2.085-0.72-2.085-1.575,0-.81.63-1.32,1.92-1.32,1.695,0,2.28.645,2.355,1.785h1.965c-0.075-2.01-1.35-3.42-4.35-3.42-2.565,0-3.96,1.245-3.96,3.015,0,1.935,1.365,2.85,3.435,3.24l0.9,0.18c1.635,0.33,2.19.7,2.19,1.545,0,1.005-.765,1.545-2.16,1.545-1.485,0-2.61-.45-2.64-2.13H13.269C13.284,20.5,14.994,21.805,17.844,21.805Zm14.295-8.16a2.8,2.8,0,0,0-2.4,1.44,2.448,2.448,0,0,0-2.4-1.44,2.517,2.517,0,0,0-2.2,1.29v-1.11H23.3v7.74h1.89v-4.26c0-1.455.8-2.025,1.59-2.025a1.245,1.245,0,0,1,1.35,1.47v4.815h1.875v-4.26c0-1.455.78-2.025,1.605-2.025a1.235,1.235,0,0,1,1.335,1.47v4.815h1.89V16.451A2.536,2.536,0,0,0,32.139,13.646ZM43.4,21.565a2.93,2.93,0,0,1-.315-1.47V15.971c0-1.395-.915-2.325-3.225-2.325-2.415,0-3.375,1.005-3.48,2.64h1.86c0.075-.945.525-1.23,1.605-1.23s1.41,0.36,1.41.96c0,0.57-.375.8-1.095,0.885l-1.17.105c-2.19.21-2.97,1.125-2.97,2.415,0,1.5,1.14,2.325,2.79,2.325a2.876,2.876,0,0,0,2.49-1.125,2.52,2.52,0,0,0,.21.945H43.4Zm-4.14-1.17a1.08,1.08,0,0,1-1.3-1.05c0-.615.345-0.99,1.395-1.11l1.02-.12a1.5,1.5,0,0,0,.885-0.315v0.7A1.817,1.817,0,0,1,39.264,20.4Zm9.48-6.69a2.36,2.36,0,0,0-2.31,1.5v-1.38H44.6v7.74h1.89v-3.93a1.969,1.969,0,0,1,2.235-2.16h0.48v-1.74A2.423,2.423,0,0,0,48.743,13.706Zm5.685,1.56v-1.44H52.9v-2.25H51.024v2.25h-1.2v1.44h1.2v4.38c0,1.425.78,1.98,2.415,1.98,0.3,0,.645-0.03.99-0.06v-1.44H53.783c-0.63,0-.885-0.165-0.885-0.675V15.266h1.53Zm8.28-4.38v4.29H57.743v-4.29H55.718v10.68h2.025v-4.56h4.965v4.56h2.025V10.886H62.708Zm7.335,10.86a3.757,3.757,0,0,0,3.93-4.05,3.939,3.939,0,1,0-7.875,0A3.768,3.768,0,0,0,70.043,21.745Zm0-1.56c-1.23,0-2.01-.855-2.01-2.49s0.78-2.49,2.01-2.49,2.01,0.855,2.01,2.49S71.258,20.186,70.043,20.186Zm14.025-6.54a2.8,2.8,0,0,0-2.4,1.44,2.448,2.448,0,0,0-2.4-1.44,2.517,2.517,0,0,0-2.2,1.29v-1.11h-1.83v7.74h1.89v-4.26c0-1.455.8-2.025,1.59-2.025a1.245,1.245,0,0,1,1.35,1.47v4.815h1.875v-4.26c0-1.455.78-2.025,1.605-2.025a1.235,1.235,0,0,1,1.335,1.47v4.815h1.89V16.451A2.536,2.536,0,0,0,84.068,13.646Zm11.61,4.185c0-2.46-1.455-4.185-3.825-4.185a3.724,3.724,0,0,0-3.825,4.05,3.731,3.731,0,0,0,3.855,4.05,3.456,3.456,0,0,0,3.6-2.58H93.668a1.763,1.763,0,0,1-1.77,1.11,1.919,1.919,0,0,1-2.01-2h5.79v-0.45Zm-3.84-2.715a1.914,1.914,0,0,1,1.95,1.845H89.9A1.87,1.87,0,0,1,91.838,15.116Zm12.615,6.69c2.669,0,4.319-1.17,4.319-3.285,0-1.695-1.02-2.67-3.539-3.165l-0.93-.18c-1.59-.33-2.085-0.72-2.085-1.575,0-.81.63-1.32,1.92-1.32,1.695,0,2.279.645,2.354,1.785h1.965c-0.075-2.01-1.35-3.42-4.349-3.42-2.565,0-3.96,1.245-3.96,3.015,0,1.935,1.365,2.85,3.435,3.24l0.9,0.18c1.634,0.33,2.189.7,2.189,1.545,0,1.005-.765,1.545-2.159,1.545-1.485,0-2.61-.45-2.64-2.13h-2C99.893,20.5,101.6,21.805,104.453,21.805Zm12.764-3.975c0-2.46-1.455-4.185-3.825-4.185a3.724,3.724,0,0,0-3.824,4.05,3.731,3.731,0,0,0,3.854,4.05,3.456,3.456,0,0,0,3.6-2.58h-1.815a1.764,1.764,0,0,1-1.77,1.11,1.918,1.918,0,0,1-2.009-2h5.789v-0.45Zm-3.84-2.715a1.914,1.914,0,0,1,1.95,1.845h-3.884A1.869,1.869,0,0,1,113.377,15.116Zm8.61,6.63a3.389,3.389,0,0,0,3.63-3.06h-1.89a1.644,1.644,0,0,1-1.74,1.485c-1.095,0-1.89-.78-1.89-2.475s0.765-2.475,1.89-2.475a1.615,1.615,0,0,1,1.71,1.395h1.89a3.327,3.327,0,0,0-3.6-2.97c-2.31,0-3.824,1.575-3.824,4.05A3.7,3.7,0,0,0,121.987,21.745Zm9.81-7.92v4.335a1.742,1.742,0,0,1-1.725,1.95,1.287,1.287,0,0,1-1.455-1.47V13.826h-1.889v5.13a2.516,2.516,0,0,0,2.7,2.79,2.857,2.857,0,0,0,2.43-1.3v1.125h1.83v-7.74H131.8Zm7.635-.12a2.36,2.36,0,0,0-2.31,1.5v-1.38h-1.83v7.74h1.89v-3.93a1.969,1.969,0,0,1,2.235-2.16h0.48v-1.74A2.423,2.423,0,0,0,139.432,13.706Zm2.595-.81a1.042,1.042,0,1,0-1.05-1.035A1.037,1.037,0,0,0,142.027,12.9Zm-0.945,8.67h1.89v-7.74h-1.89v7.74Zm7.53-6.3v-1.44h-1.53v-2.25h-1.875v2.25h-1.2v1.44h1.2v4.38c0,1.425.78,1.98,2.415,1.98,0.3,0,.645-0.03.99-0.06v-1.44h-0.645c-0.63,0-.885-0.165-0.885-0.675V15.266h1.53Zm6.24-1.44-0.63,1.95c-0.42,1.365-.84,2.775-1.245,4.3-0.39-1.515-.81-2.97-1.23-4.32l-0.63-1.935h-2.04l2.25,6.36a5.191,5.191,0,0,1,.36,1.56,1.156,1.156,0,0,1-1.275,1.245h-0.72v1.485a6.171,6.171,0,0,0,.825.045,2.975,2.975,0,0,0,3.33-2.325l2.985-8.37h-1.98Zm-132.9,17.82A2.673,2.673,0,0,0,19.569,33.1a2.424,2.424,0,0,0-2.385-1.455,2.486,2.486,0,0,0-2.235,1.32v-1.14h-1.14v7.74h1.2v-4.23c0-1.86,1.035-2.61,1.98-2.61a1.479,1.479,0,0,1,1.62,1.71v5.13h1.2v-4.23c0-1.86,1-2.61,1.98-2.61a1.473,1.473,0,0,1,1.62,1.71v5.13h1.2v-5.25A2.46,2.46,0,0,0,21.954,31.646Zm10.86,6.945a0.355,0.355,0,0,1-.42-0.375V33.9c0-1.3-.765-2.25-2.91-2.25-2.265,0-3.06,1.065-3.15,2.565h1.2c0.075-1.155.63-1.53,1.95-1.53s1.74,0.405,1.74,1.215a1.078,1.078,0,0,1-1.215,1.065l-1.11.12c-2.13.225-2.865,1.185-2.865,2.4,0,1.455,1.05,2.265,2.73,2.265a2.837,2.837,0,0,0,2.52-1.245,1.11,1.11,0,0,0,1.3,1.11,4.564,4.564,0,0,0,.66-0.045V38.591H32.814Zm-3.99.135a1.282,1.282,0,0,1-1.545-1.275c0-.75.39-1.23,1.8-1.395l1.125-.135a2,2,0,0,0,1.02-.33v0.915A2.223,2.223,0,0,1,28.824,38.725Zm10.74,0.84h1.395l-3.15-4.95,2.94-2.79h-1.59l-3.585,3.465v-6.4h-1.2v10.68h1.2V36.7l1.38-1.29Zm9.195-3.87c0-2.22-1.245-4.05-3.555-4.05-2.145,0-3.57,1.62-3.57,4.05,0,2.5,1.485,4.05,3.6,4.05a3.229,3.229,0,0,0,3.33-2.535H47.319a1.988,1.988,0,0,1-2.055,1.44c-1.35,0-2.265-.8-2.385-2.535h5.88V35.7ZM45.2,32.741a2.27,2.27,0,0,1,2.265,2.295h-4.56A2.276,2.276,0,0,1,45.2,32.741Zm11.55-1.095a2.851,2.851,0,0,0-2.37,1.245v-4h-1.2v10.68h1.2v-4.38a2.2,2.2,0,0,1,2.13-2.46,1.552,1.552,0,0,1,1.77,1.725v5.115h1.2V34.331A2.468,2.468,0,0,0,56.754,31.646Zm7.98,8.1a3.708,3.708,0,0,0,3.75-4.05,3.761,3.761,0,1,0-7.5,0A3.708,3.708,0,0,0,64.734,39.745Zm0-1.08c-1.5,0-2.49-1.095-2.49-2.97s0.99-2.97,2.49-2.97,2.49,1.095,2.49,2.97S66.233,38.666,64.734,38.666Zm13.395-7.02A2.673,2.673,0,0,0,75.743,33.1a2.424,2.424,0,0,0-2.385-1.455,2.486,2.486,0,0,0-2.235,1.32v-1.14h-1.14v7.74h1.2v-4.23c0-1.86,1.035-2.61,1.98-2.61a1.479,1.479,0,0,1,1.62,1.71v5.13h1.2v-4.23c0-1.86,1-2.61,1.98-2.61a1.473,1.473,0,0,1,1.62,1.71v5.13h1.2v-5.25A2.46,2.46,0,0,0,78.128,31.646Zm11.28,4.05c0-2.22-1.245-4.05-3.555-4.05-2.145,0-3.57,1.62-3.57,4.05,0,2.5,1.485,4.05,3.6,4.05a3.229,3.229,0,0,0,3.33-2.535H87.968a1.988,1.988,0,0,1-2.055,1.44c-1.35,0-2.265-.8-2.385-2.535h5.88V35.7Zm-3.555-2.955a2.27,2.27,0,0,1,2.265,2.295h-4.56A2.276,2.276,0,0,1,85.853,32.741Zm9.72,6.87a7.622,7.622,0,0,0,.765-0.045v-1h-0.57a0.6,0.6,0,0,1-.735-0.66V28.886h-1.2v9.12A1.466,1.466,0,0,0,95.573,39.61Zm2.49-8.88a0.81,0.81,0,1,0-.81-0.81A0.816,0.816,0,0,0,98.063,30.731Zm-0.6,8.835h1.2v-7.74h-1.2v7.74Zm5.91-9.66h0.69v-1.02c-0.18-.015-0.54-0.03-0.765-0.03a1.913,1.913,0,0,0-2.16,2.175v0.795H99.863v1.05h1.275v6.69h1.2v-6.69h1.65v-1.05h-1.65V31A0.952,0.952,0,0,1,103.373,29.906Zm8.79,5.79c0-2.22-1.245-4.05-3.555-4.05-2.145,0-3.57,1.62-3.57,4.05,0,2.5,1.485,4.05,3.6,4.05a3.229,3.229,0,0,0,3.33-2.535h-1.245a1.988,1.988,0,0,1-2.055,1.44c-1.35,0-2.265-.8-2.385-2.535h5.88V35.7Zm-3.555-2.955a2.27,2.27,0,0,1,2.265,2.295h-4.56A2.276,2.276,0,0,1,108.608,32.741Zm14.73,2.955c0-2.22-1.245-4.05-3.555-4.05-2.145,0-3.57,1.62-3.57,4.05,0,2.5,1.485,4.05,3.6,4.05a3.229,3.229,0,0,0,3.33-2.535H121.9a1.988,1.988,0,0,1-2.055,1.44c-1.35,0-2.265-.8-2.385-2.535h5.88V35.7Zm-3.555-2.955a2.27,2.27,0,0,1,2.265,2.295h-4.56A2.276,2.276,0,0,1,119.783,32.741Zm11.385,5.85a0.355,0.355,0,0,1-.42-0.375V33.9c0-1.3-.765-2.25-2.91-2.25-2.265,0-3.06,1.065-3.15,2.565h1.2c0.075-1.155.63-1.53,1.95-1.53s1.74,0.405,1.74,1.215a1.078,1.078,0,0,1-1.215,1.065l-1.11.12c-2.13.225-2.865,1.185-2.865,2.4,0,1.455,1.05,2.265,2.73,2.265a2.837,2.837,0,0,0,2.52-1.245,1.11,1.11,0,0,0,1.305,1.11,4.564,4.564,0,0,0,.66-0.045V38.591h-0.435Zm-3.99.135a1.282,1.282,0,0,1-1.545-1.275c0-.75.39-1.23,1.8-1.395l1.125-.135a2,2,0,0,0,1.02-.33v0.915A2.223,2.223,0,0,1,127.178,38.725Zm8.28,1.02c1.905,0,3.075-.84,3.075-2.31,0-1.26-.765-1.9-2.67-2.28l-0.69-.135c-0.99-.2-1.56-0.465-1.56-1.2,0-.72.585-1.14,1.62-1.14,1.185,0,1.89.33,1.95,1.53h1.2c-0.03-1.65-1.08-2.565-3.15-2.565-1.77,0-2.82.87-2.82,2.19,0,1.2.735,1.965,2.415,2.28l0.72,0.135c1.35,0.255,1.77.57,1.77,1.26,0,0.765-.555,1.2-1.86,1.2-1.365,0-1.935-.435-2.07-1.6h-1.215C132.293,38.92,133.493,39.745,135.458,39.745Zm4.95-9.015a0.81,0.81,0,1,0-.81-0.81A0.816,0.816,0,0,0,140.408,30.731Zm-0.6,8.835h1.2v-7.74h-1.2v7.74Zm9.824-3.87c0-2.22-1.245-4.05-3.554-4.05-2.145,0-3.57,1.62-3.57,4.05,0,2.5,1.485,4.05,3.6,4.05a3.228,3.228,0,0,0,3.329-2.535h-1.245a1.988,1.988,0,0,1-2.054,1.44c-1.35,0-2.265-.8-2.385-2.535h5.879V35.7Zm-3.554-2.955a2.269,2.269,0,0,1,2.264,2.295h-4.559A2.276,2.276,0,0,1,146.078,32.741Zm8.684-1.035a2.7,2.7,0,0,0-2.489,1.485V31.826h-1.14v7.74h1.2v-4.41c0-1.5.99-2.28,2.534-2.28h0.3V31.721C155,31.706,154.882,31.706,154.762,31.706Z"/>
</svg>
