<svg id="Consideration" xmlns="http://www.w3.org/2000/svg" width="300" height="250" viewBox="0 0 300 250">
  <defs>
    <style>
      .cls-1 {
        fill: #462b69;
        fill-rule: evenodd;
      }
    </style>
  </defs>
  <g id="F3">
    <path id="Paayein_nayi_Galaxy_S23_Series_for_0_upfront_only_on_TELUS._" data-name="Paayein nayi Galaxy S23 Series for $0 upfront* only on TELUS. " class="cls-1" d="M172.6,92.6h-5.18v12.461h1.47v-4.8h3.71c2.766,0,4.131-1.593,4.131-3.833S175.364,92.6,172.6,92.6Zm0,6.336h-3.71V93.926h3.71A2.5,2.5,0,1,1,172.6,98.932Zm12.826,4.988a0.414,0.414,0,0,1-.49-0.438v-5.04c0-1.523-.892-2.625-3.4-2.625-2.643,0-3.571,1.243-3.676,2.993h1.4c0.087-1.348.735-1.785,2.275-1.785s2.03,0.472,2.03,1.418c0,0.805-.508,1.138-1.418,1.243l-1.3.14c-2.485.263-3.343,1.383-3.343,2.8,0,1.7,1.226,2.642,3.186,2.642a3.31,3.31,0,0,0,2.94-1.452,1.3,1.3,0,0,0,1.523,1.3,5.332,5.332,0,0,0,.77-0.053V103.92h-0.508Zm-4.655.157c-1.243,0-1.8-.595-1.8-1.487,0-.875.455-1.436,2.1-1.628l1.313-.158a2.325,2.325,0,0,0,1.19-.385v1.068A2.594,2.594,0,0,1,180.769,104.077Zm13.9-.157a0.414,0.414,0,0,1-.49-0.438v-5.04c0-1.523-.893-2.625-3.4-2.625-2.642,0-3.57,1.243-3.675,2.993h1.4c0.088-1.348.735-1.785,2.275-1.785s2.031,0.472,2.031,1.418c0,0.805-.508,1.138-1.418,1.243l-1.295.14c-2.485.263-3.343,1.383-3.343,2.8,0,1.7,1.225,2.642,3.185,2.642a3.311,3.311,0,0,0,2.941-1.452,1.3,1.3,0,0,0,1.522,1.3,5.312,5.312,0,0,0,.77-0.053V103.92h-0.507Zm-4.656.157c-1.242,0-1.8-.595-1.8-1.487,0-.875.455-1.436,2.1-1.628l1.313-.158a2.325,2.325,0,0,0,1.19-.385v1.068A2.594,2.594,0,0,1,190.01,104.077Zm11.748-8.05-1.277,3.745c-0.455,1.312-.893,2.625-1.295,3.92-0.42-1.295-.84-2.59-1.3-3.9l-1.278-3.763h-1.54l3.395,9.329c-0.1.28-.21,0.577-0.315,0.84a1.583,1.583,0,0,1-1.645,1.12h-0.823v1.173a6.985,6.985,0,0,0,.84.052,2.729,2.729,0,0,0,2.941-2.065l3.815-10.448h-1.523Zm10.164,4.516c0-2.59-1.452-4.725-4.148-4.725-2.5,0-4.165,1.89-4.165,4.725,0,2.923,1.733,4.725,4.2,4.725a3.768,3.768,0,0,0,3.886-2.957h-1.453a2.32,2.32,0,0,1-2.4,1.68c-1.575,0-2.642-.928-2.782-2.958h6.86v-0.49Zm-4.148-3.448a2.648,2.648,0,0,1,2.643,2.678H205.1C205.324,97.987,206.357,97.094,207.774,97.094Zm6.421-2.345a0.945,0.945,0,1,0-.945-0.945A0.952,0.952,0,0,0,214.2,94.749Zm-0.7,10.308h1.4V96.027h-1.4v9.031Zm7.6-9.24a3.327,3.327,0,0,0-2.835,1.558V96.027h-1.33v9.031h1.4v-5.11a2.571,2.571,0,0,1,2.485-2.87,1.811,1.811,0,0,1,2.065,2.013v5.968h1.4V98.949A2.879,2.879,0,0,0,221.1,95.817Zm12.95,0a3.327,3.327,0,0,0-2.835,1.558V96.027h-1.331v9.031h1.4v-5.11a2.57,2.57,0,0,1,2.485-2.87,1.811,1.811,0,0,1,2.065,2.013v5.968h1.4V98.949A2.879,2.879,0,0,0,234.047,95.817Zm12.647,8.1a0.414,0.414,0,0,1-.49-0.438v-5.04c0-1.523-.892-2.625-3.4-2.625-2.643,0-3.57,1.243-3.675,2.993h1.4c0.087-1.348.735-1.785,2.275-1.785s2.03,0.472,2.03,1.418c0,0.805-.507,1.138-1.418,1.243l-1.295.14c-2.485.263-3.342,1.383-3.342,2.8,0,1.7,1.225,2.642,3.185,2.642a3.31,3.31,0,0,0,2.94-1.452,1.3,1.3,0,0,0,1.523,1.3,5.332,5.332,0,0,0,.77-0.053V103.92h-0.508Zm-4.655.157c-1.243,0-1.8-.595-1.8-1.487,0-.875.455-1.436,2.1-1.628l1.313-.158a2.325,2.325,0,0,0,1.19-.385v1.068A2.594,2.594,0,0,1,242.039,104.077Zm11.748-8.05-1.278,3.745c-0.455,1.312-.892,2.625-1.295,3.92-0.42-1.295-.84-2.59-1.295-3.9l-1.278-3.763H247.1l3.4,9.329c-0.105.28-.21,0.577-0.315,0.84a1.582,1.582,0,0,1-1.645,1.12h-0.822v1.173a6.973,6.973,0,0,0,.84.052,2.728,2.728,0,0,0,2.94-2.065l3.815-10.448h-1.522Zm3.336-1.278a0.945,0.945,0,1,0-.945-0.945A0.952,0.952,0,0,0,257.123,94.749Zm-0.7,10.308h1.4V96.027h-1.4v9.031ZM150.429,118.9v1.33H154.4a4.054,4.054,0,0,1-4.253,4.008c-2.643,0-4.376-2-4.376-5.163s1.716-5.163,4.376-5.163a3.75,3.75,0,0,1,3.92,3.01h1.523a5.128,5.128,0,0,0-5.443-4.358c-3.606,0-5.916,2.643-5.916,6.511s2.328,6.51,5.9,6.51a4.78,4.78,0,0,0,4.078-1.96l0.315,1.68h1.208V118.9h-5.3Zm14.814,5.268a0.414,0.414,0,0,1-.49-0.438v-5.04c0-1.523-.893-2.625-3.4-2.625-2.642,0-3.57,1.242-3.675,2.992h1.4c0.088-1.347.735-1.785,2.275-1.785s2.03,0.473,2.03,1.418c0,0.805-.507,1.137-1.417,1.242l-1.295.14c-2.486.263-3.343,1.383-3.343,2.8,0,1.7,1.225,2.642,3.185,2.642a3.31,3.31,0,0,0,2.94-1.452,1.3,1.3,0,0,0,1.523,1.3,5.312,5.312,0,0,0,.77-0.053v-1.137h-0.507Zm-4.656.157c-1.242,0-1.8-.595-1.8-1.487,0-.875.455-1.435,2.1-1.628l1.312-.158a2.325,2.325,0,0,0,1.19-.385v1.068A2.593,2.593,0,0,1,160.587,124.328Zm8.349,1.033a8.929,8.929,0,0,0,.893-0.053v-1.172h-0.665a0.7,0.7,0,0,1-.858-0.77V112.847h-1.4v10.641C166.906,124.871,167.676,125.361,168.936,125.361Zm9.6-1.19a0.414,0.414,0,0,1-.49-0.438v-5.04c0-1.523-.892-2.625-3.4-2.625-2.643,0-3.57,1.242-3.675,2.992h1.4c0.087-1.347.735-1.785,2.275-1.785s2.03,0.473,2.03,1.418c0,0.805-.507,1.137-1.418,1.242l-1.3.14c-2.485.263-3.342,1.383-3.342,2.8,0,1.7,1.225,2.642,3.185,2.642a3.31,3.31,0,0,0,2.94-1.452,1.3,1.3,0,0,0,1.523,1.3,5.332,5.332,0,0,0,.77-0.053v-1.137h-0.508Zm-4.655.157c-1.243,0-1.8-.595-1.8-1.487,0-.875.455-1.435,2.1-1.628l1.313-.158a2.325,2.325,0,0,0,1.19-.385v1.068A2.594,2.594,0,0,1,173.882,124.328Zm10.927-3.64,3.273-4.41h-1.628l-0.683.962c-0.56.77-1.172,1.628-1.75,2.45-0.56-.822-1.155-1.645-1.75-2.45l-0.7-.962h-1.645l3.273,4.41-3.448,4.62h1.628l0.472-.665c0.7-1,1.453-2.012,2.153-2.957,0.682,0.927,1.4,1.925,2.118,2.94l0.49,0.682h1.645Zm10.706-4.41-1.277,3.745c-0.455,1.313-.893,2.625-1.295,3.92-0.42-1.3-.84-2.59-1.3-3.9l-1.277-3.762h-1.54l3.395,9.328c-0.1.28-.21,0.577-0.315,0.84a1.582,1.582,0,0,1-1.645,1.12h-0.823v1.173a6.985,6.985,0,0,0,.84.052,2.73,2.73,0,0,0,2.941-2.065l3.815-10.448h-1.523Zm10.815,9.31c2.993,0,4.673-1.452,4.673-3.657,0-1.8-1.015-2.923-3.886-3.553l-1.1-.245c-2.345-.525-2.923-1.12-2.923-2.31,0-1.173.928-1.926,2.73-1.926,2.485,0,3.238.963,3.361,2.573h1.5c-0.053-2.03-1.19-3.9-4.866-3.9-2.59,0-4.253,1.26-4.253,3.256,0,2.275,1.663,3.132,3.781,3.605l1.1,0.245c2.206,0.49,3.028,1.067,3.028,2.258,0,1.54-1.155,2.327-3.15,2.327-2.03,0-3.623-.752-3.658-3.063h-1.523C201.184,124.311,203.355,125.588,206.33,125.588Zm7.467-1.61c0.1-1.382.805-2.135,2.24-2.975l1.33-.77c2-1.155,2.835-2.468,2.835-4.06,0-2.118-1.61-3.606-3.973-3.606-2.572,0-4.13,1.435-4.1,4.008h1.453a2.358,2.358,0,0,1,2.607-2.678,2.216,2.216,0,0,1,2.468,2.276c0,1.312-.682,2.1-2.188,2.975l-1.575.91a5.1,5.1,0,0,0-2.712,4.568l-0.035.682h8.225v-1.33H213.8Zm14.149-5.3a3.007,3.007,0,0,0,1.7-2.73c0-2.188-1.68-3.378-3.99-3.378-2.52,0-4.06,1.488-4.078,3.711h1.47a2.327,2.327,0,0,1,2.608-2.381c1.523,0,2.5.753,2.5,2.083s-0.91,2.118-2.591,2.118h-0.84v1.225h0.928c1.75,0,2.835.98,2.835,2.485a2.441,2.441,0,0,1-2.748,2.45,2.576,2.576,0,0,1-2.905-2.712h-1.452c-0.018,2.415,1.5,4.042,4.357,4.042,2.538,0,4.288-1.5,4.288-3.78A3.461,3.461,0,0,0,227.946,118.675Zm11.9,6.913c2.993,0,4.673-1.452,4.673-3.657,0-1.8-1.015-2.923-3.885-3.553l-1.1-.245c-2.345-.525-2.923-1.12-2.923-2.31,0-1.173.928-1.926,2.731-1.926,2.485,0,3.237.963,3.36,2.573h1.5c-0.052-2.03-1.19-3.9-4.865-3.9-2.591,0-4.253,1.26-4.253,3.256,0,2.275,1.662,3.132,3.78,3.605l1.1,0.245c2.205,0.49,3.027,1.067,3.027,2.258,0,1.54-1.155,2.327-3.15,2.327-2.03,0-3.623-.752-3.658-3.063h-1.522C234.7,124.311,236.87,125.588,239.845,125.588Zm14.07-4.795c0-2.59-1.452-4.725-4.148-4.725-2.5,0-4.165,1.89-4.165,4.725,0,2.923,1.733,4.725,4.2,4.725a3.768,3.768,0,0,0,3.886-2.957h-1.453a2.32,2.32,0,0,1-2.4,1.68c-1.576,0-2.643-.928-2.783-2.958h6.86v-0.49Zm-4.148-3.448a2.648,2.648,0,0,1,2.643,2.678h-5.32C247.317,118.238,248.35,117.345,249.767,117.345Zm10.007-1.207a3.153,3.153,0,0,0-2.9,1.732v-1.592h-1.33v9.03h1.4v-5.145c0-1.75,1.155-2.66,2.958-2.66h0.35v-1.348C260.054,116.138,259.914,116.138,259.774,116.138ZM262.218,115a0.945,0.945,0,1,0-.945-0.945A0.953,0.953,0,0,0,262.218,115Zm-0.7,10.308h1.4v-9.03h-1.4v9.03Zm11.269-4.515c0-2.59-1.453-4.725-4.148-4.725-2.5,0-4.165,1.89-4.165,4.725,0,2.923,1.732,4.725,4.2,4.725a3.768,3.768,0,0,0,3.886-2.957h-1.453a2.32,2.32,0,0,1-2.4,1.68c-1.575,0-2.643-.928-2.783-2.958h6.861v-0.49Zm-4.148-3.448a2.648,2.648,0,0,1,2.643,2.678h-5.321C266.189,118.238,267.222,117.345,268.639,117.345Zm8.957,8.173c2.222,0,3.587-.98,3.587-2.7,0-1.47-.892-2.223-3.115-2.66l-0.805-.158c-1.155-.227-1.82-0.542-1.82-1.4,0-.84.683-1.33,1.89-1.33,1.383,0,2.2.385,2.275,1.785h1.4c-0.035-1.925-1.26-2.992-3.675-2.992-2.065,0-3.29,1.015-3.29,2.555,0,1.4.857,2.292,2.818,2.66l0.84,0.158c1.575,0.3,2.065.665,2.065,1.47,0,0.892-.648,1.4-2.17,1.4-1.593,0-2.258-.508-2.416-1.873h-1.417C273.9,124.556,275.3,125.518,277.6,125.518Zm-113.414,8.77h0.805V133.1c-0.21-.017-0.63-0.035-0.892-0.035a2.232,2.232,0,0,0-2.52,2.538v0.928h-1.488v1.225h1.488v7.805h1.4v-7.805H164.9v-1.225h-1.925v-0.963A1.111,1.111,0,0,1,164.182,134.288Zm5.766,11.481c2.538,0,4.376-1.837,4.376-4.725s-1.838-4.725-4.376-4.725-4.375,1.837-4.375,4.725S167.411,145.769,169.948,145.769Zm0-1.26c-1.75,0-2.905-1.277-2.905-3.465s1.155-3.465,2.905-3.465,2.906,1.277,2.906,3.465S171.7,144.509,169.948,144.509Zm10.234-8.12a3.154,3.154,0,0,0-2.905,1.732v-1.592h-1.33v9.03h1.4v-5.145c0-1.75,1.155-2.66,2.958-2.66h0.35v-1.348C180.462,136.389,180.322,136.389,180.182,136.389Zm10.7,1.272c0-1.152-.694-1.815-2.407-2.152l-0.235-.041v-2.019a1.139,1.139,0,0,1,1.091,1.183h1.337a2.315,2.315,0,0,0-2.428-2.305v-1.041h-0.734v1.02c-1.612.072-2.489,0.9-2.489,2.051,0,1.315.928,1.938,2.336,2.2l0.153,0.03v2.163a1.315,1.315,0,0,1-1.316-1.418h-1.357c0.01,1.54,1,2.417,2.673,2.54v1.04h0.734v-1.03C189.885,139.8,190.885,139.018,190.885,137.661Zm-4.458-3.345a0.949,0.949,0,0,1,1.082-.888v1.877C186.693,135.1,186.427,134.836,186.427,134.316Zm1.816,4.457v-2.03c0.9,0.215,1.214.47,1.214,0.99A1.078,1.078,0,0,1,188.243,138.773Zm8.471,7.066c3.343,0,5-2.38,5-6.51s-1.68-6.511-5-6.511c-3.308,0-4.988,2.38-4.988,6.511S193.406,145.839,196.714,145.839Zm0-2c-1.61,0-2.52-1.347-2.52-4.515s0.91-4.516,2.52-4.516c1.628,0,2.538,1.348,2.538,4.516S198.359,143.844,196.714,143.844Zm16.222-7.315v5.11a2.57,2.57,0,0,1-2.485,2.87,1.811,1.811,0,0,1-2.065-2.012v-5.968h-1.4v6.108a2.878,2.878,0,0,0,3.185,3.132,3.326,3.326,0,0,0,2.835-1.557v1.347h1.33v-9.03h-1.4Zm7.894-.21a3.55,3.55,0,0,0-3.1,1.61v-1.4H216.4V148.99h1.4v-4.726a3.548,3.548,0,0,0,3.028,1.5c2.538,0,4.2-1.837,4.2-4.725S223.368,136.319,220.83,136.319Zm-0.175,8.19c-1.75,0-2.905-1.277-2.905-3.465s1.155-3.465,2.905-3.465,2.906,1.207,2.906,3.395S222.405,144.509,220.655,144.509Zm9.065-10.221h0.805V133.1c-0.21-.017-0.63-0.035-0.892-0.035a2.232,2.232,0,0,0-2.521,2.538v0.928h-1.487v1.225h1.487v7.805h1.4v-7.805h1.925v-1.225h-1.925v-0.963A1.111,1.111,0,0,1,229.72,134.288Zm6.276,2.1a3.154,3.154,0,0,0-2.906,1.732v-1.592h-1.33v9.03h1.4v-5.145c0-1.75,1.155-2.66,2.958-2.66h0.35v-1.348C236.276,136.389,236.136,136.389,236,136.389Zm5.479,9.38c2.537,0,4.375-1.837,4.375-4.725s-1.838-4.725-4.375-4.725-4.376,1.837-4.376,4.725S238.937,145.769,241.475,145.769Zm0-1.26c-1.751,0-2.906-1.277-2.906-3.465s1.155-3.465,2.906-3.465,2.905,1.277,2.905,3.465S243.225,144.509,241.475,144.509Zm10.163-8.19a3.326,3.326,0,0,0-2.835,1.557v-1.347h-1.33v9.03h1.4v-5.11a2.571,2.571,0,0,1,2.485-2.87,1.811,1.811,0,0,1,2.066,2.012v5.968h1.4v-6.108A2.879,2.879,0,0,0,251.638,136.319Zm9.016,1.435v-1.225H258.8v-2.556h-1.4v2.556h-1.488v1.225H257.4v5.985c0,1.383.858,1.873,2.258,1.873q0.42,0,1-.053v-1.172h-0.822c-0.805,0-1.033-.3-1.033-0.77v-5.863h1.855Zm1.737,0.011,0.831-1.146,0.831,1.146,0.437-.35-0.839-1.163,1.329-.429L264.8,135.3l-1.3.42v-1.382h-0.56v1.382l-1.294-.42-0.184.525,1.329,0.429-0.839,1.163ZM161.045,166.02c2.538,0,4.375-1.837,4.375-4.725s-1.837-4.725-4.375-4.725-4.375,1.837-4.375,4.725S158.507,166.02,161.045,166.02Zm0-1.26c-1.75,0-2.905-1.277-2.905-3.465s1.155-3.465,2.905-3.465,2.905,1.277,2.905,3.465S162.795,164.76,161.045,164.76Zm10.164-8.19a3.326,3.326,0,0,0-2.835,1.557V156.78h-1.331v9.03h1.4V160.7a2.57,2.57,0,0,1,2.485-2.87,1.811,1.811,0,0,1,2.065,2.012v5.968h1.4V159.7A2.878,2.878,0,0,0,171.209,156.57Zm7.239,9.293a8.929,8.929,0,0,0,.893-0.053v-1.172h-0.665a0.7,0.7,0,0,1-.858-0.77V153.349h-1.4V163.99C176.418,165.373,177.188,165.863,178.448,165.863Zm7.452-9.083-1.277,3.745c-0.456,1.313-.893,2.625-1.3,3.92-0.42-1.295-.84-2.59-1.295-3.9l-1.277-3.762h-1.54l3.4,9.328c-0.105.28-.21,0.578-0.315,0.84a1.582,1.582,0,0,1-1.645,1.12h-0.823v1.173a6.985,6.985,0,0,0,.84.052,2.728,2.728,0,0,0,2.94-2.065l3.816-10.448H185.9Zm10.1,9.24c2.538,0,4.375-1.837,4.375-4.725s-1.837-4.725-4.375-4.725-4.375,1.837-4.375,4.725S193.459,166.02,196,166.02Zm0-1.26c-1.75,0-2.905-1.277-2.905-3.465s1.155-3.465,2.905-3.465,2.9,1.277,2.9,3.465S197.747,164.76,196,164.76Zm10.164-8.19a3.326,3.326,0,0,0-2.835,1.557V156.78H202v9.03h1.4V160.7a2.57,2.57,0,0,1,2.485-2.87,1.811,1.811,0,0,1,2.065,2.012v5.968h1.4V159.7A2.878,2.878,0,0,0,206.161,156.57Zm18.078-3.221h-9.994v1.33h4.236V165.81H220V154.679h4.236v-1.33Zm9.943,1.33v-1.33h-8.663V165.81h8.593v-1.33h-7.123v-4.5h6.493v-1.33h-6.493v-3.973h7.193Zm2.832,9.8V153.349h-1.47V165.81h7.736v-1.33h-6.266Zm11.925,1.593c3.115,0,4.9-1.768,4.9-4.883v-7.841h-1.47v7.841c0,2.45-1.26,3.553-3.43,3.553s-3.43-1.1-3.43-3.553v-7.841h-1.47v7.841C244.039,164.305,245.824,166.073,248.939,166.073Zm11.545,0.017c2.992,0,4.673-1.452,4.673-3.657,0-1.8-1.015-2.923-3.886-3.553l-1.1-.245c-2.346-.525-2.923-1.12-2.923-2.31,0-1.173.927-1.926,2.73-1.926,2.485,0,3.238.963,3.36,2.573h1.506c-0.053-2.03-1.191-3.9-4.866-3.9-2.59,0-4.253,1.26-4.253,3.256,0,2.275,1.663,3.132,3.781,3.605l1.1,0.245c2.2,0.49,3.028,1.068,3.028,2.258,0,1.54-1.155,2.327-3.15,2.327-2.03,0-3.623-.752-3.658-3.062H255.3C255.338,164.813,257.508,166.09,260.484,166.09Zm6.828-.157a1.006,1.006,0,0,0,1-1.033,1.024,1.024,0,0,0-2.047,0A1.007,1.007,0,0,0,267.312,165.933Z"/>
  </g>
</svg>
