<svg id="Consideration" xmlns="http://www.w3.org/2000/svg" width="300" height="250" viewBox="0 0 300 250">
  <defs>
    <style>
      .cls-1 {
        fill: #462b69;
        fill-rule: evenodd;
      }
    </style>
  </defs>
  <g id="F1">
    <path id="Din_ho_ya_raat_Nightography_banaye_Diwali_shaandaar_" data-name="Din ho ya raat, Nightography banaye Diwali shaandaar!" class="cls-1" d="M48.8,56.49H44.6V68.951h4.2c3.763,0,6.108-2.328,6.108-6.231S52.566,56.49,48.8,56.49Zm0,11.131h-2.73v-9.8H48.8c3.01,0,4.568,1.89,4.568,4.9S51.813,67.621,48.8,67.621Zm8.469-8.978a0.945,0.945,0,1,0-.945-0.945A0.952,0.952,0,0,0,57.273,58.642Zm-0.7,10.309h1.4V59.92h-1.4v9.031ZM64.2,59.71a3.327,3.327,0,0,0-2.835,1.558V59.92h-1.33v9.031h1.4V63.84a2.571,2.571,0,0,1,2.485-2.87,1.811,1.811,0,0,1,2.065,2.013v5.968h1.4V62.843A2.879,2.879,0,0,0,64.2,59.71Zm12.95,0a3.327,3.327,0,0,0-2.765,1.453V56.49h-1.4V68.951h1.4V63.84a2.571,2.571,0,0,1,2.485-2.87,1.811,1.811,0,0,1,2.065,2.013v5.968h1.4V62.843A2.879,2.879,0,0,0,77.154,59.71Zm9.184,9.451c2.538,0,4.375-1.838,4.375-4.725s-1.838-4.725-4.375-4.725-4.376,1.838-4.376,4.725S83.8,69.161,86.338,69.161Zm0-1.26c-1.75,0-2.905-1.278-2.905-3.465s1.155-3.465,2.905-3.465,2.905,1.278,2.905,3.465S88.088,67.9,86.338,67.9ZM101.6,59.92l-1.278,3.745c-0.455,1.313-.892,2.625-1.295,3.92-0.42-1.3-.84-2.59-1.3-3.9L96.453,59.92h-1.54l3.4,9.328c-0.105.28-.21,0.578-0.315,0.84a1.582,1.582,0,0,1-1.645,1.12H95.525v1.173a6.982,6.982,0,0,0,.84.052,2.729,2.729,0,0,0,2.94-2.065l3.816-10.449H101.6Zm9.789,7.893a0.414,0.414,0,0,1-.49-0.438V62.335c0-1.523-.892-2.625-3.4-2.625-2.643,0-3.57,1.243-3.675,2.993h1.4c0.087-1.348.735-1.785,2.275-1.785s2.03,0.473,2.03,1.418c0,0.805-.507,1.138-1.417,1.243l-1.3.14c-2.485.263-3.342,1.383-3.342,2.8,0,1.7,1.225,2.643,3.185,2.643a3.31,3.31,0,0,0,2.94-1.453,1.3,1.3,0,0,0,1.523,1.3,5.325,5.325,0,0,0,.77-0.052V67.813h-0.508Zm-4.655.157c-1.243,0-1.8-.6-1.8-1.488,0-.875.455-1.435,2.1-1.628l1.312-.158a2.33,2.33,0,0,0,1.19-.385V65.38A2.593,2.593,0,0,1,106.732,67.971Zm14.122-8.191a3.154,3.154,0,0,0-2.905,1.733V59.92h-1.33v9.031h1.4V63.805c0-1.75,1.155-2.66,2.958-2.66h0.35V59.8C121.134,59.78,120.994,59.78,120.854,59.78Zm9.134,8.033a0.414,0.414,0,0,1-.49-0.438V62.335c0-1.523-.893-2.625-3.4-2.625-2.642,0-3.57,1.243-3.675,2.993h1.4c0.088-1.348.735-1.785,2.275-1.785s2.031,0.473,2.031,1.418c0,0.805-.508,1.138-1.418,1.243l-1.3.14c-2.486.263-3.343,1.383-3.343,2.8,0,1.7,1.225,2.643,3.185,2.643a3.312,3.312,0,0,0,2.941-1.453,1.3,1.3,0,0,0,1.522,1.3,5.315,5.315,0,0,0,.77-0.052V67.813h-0.507Zm-4.656.157c-1.242,0-1.8-.6-1.8-1.488,0-.875.455-1.435,2.1-1.628l1.312-.158a2.334,2.334,0,0,0,1.191-.385V65.38A2.594,2.594,0,0,1,125.332,67.971Zm13.925-.157a0.414,0.414,0,0,1-.49-0.438V62.335c0-1.523-.892-2.625-3.395-2.625-2.643,0-3.57,1.243-3.675,2.993h1.4c0.087-1.348.735-1.785,2.275-1.785s2.03,0.473,2.03,1.418c0,0.805-.507,1.138-1.417,1.243l-1.3.14c-2.485.263-3.342,1.383-3.342,2.8,0,1.7,1.225,2.643,3.185,2.643a3.31,3.31,0,0,0,2.94-1.453A1.3,1.3,0,0,0,139,69a5.335,5.335,0,0,0,.77-0.052V67.813h-0.508Zm-4.655.157c-1.243,0-1.8-.6-1.8-1.488,0-.875.455-1.435,2.1-1.628l1.313-.158a2.33,2.33,0,0,0,1.19-.385V65.38A2.593,2.593,0,0,1,134.6,67.971Zm10.141-6.826V59.92h-1.855V57.365h-1.4V59.92H140v1.225h1.488v5.986c0,1.383.857,1.873,2.258,1.873q0.42,0,1-.052V67.778h-0.822c-0.8,0-1.033-.3-1.033-0.77V61.145h1.855Zm2.115,6.056a0.939,0.939,0,0,0-.98.945,0.911,0.911,0,0,0,.98.91h0.1A1.3,1.3,0,0,1,146,70.421l-0.123.035v0.928l0.175-.035a2.374,2.374,0,0,0,1.961-2.66A1.228,1.228,0,0,0,146.858,67.2ZM161.8,56.49v4.2c0,1.68,0,3.99.052,6.441-0.682-1.208-1.732-2.87-2.59-4.218l-4.13-6.423h-1.785V68.951H154.8v-4.2c0-1.68,0-3.99-.052-6.441,0.682,1.208,1.732,2.87,2.59,4.218l4.13,6.423h1.786V56.49H161.8Zm4.46,2.153a0.945,0.945,0,1,0-.945-0.945A0.952,0.952,0,0,0,166.264,58.642Zm-0.7,10.309h1.4V59.92h-1.4v9.031Zm10.285-9.031v1.313a3.644,3.644,0,0,0-3.1-1.523c-2.537,0-4.2,1.838-4.2,4.725s1.663,4.725,4.2,4.725a3.648,3.648,0,0,0,3.028-1.435V68.6a2.5,2.5,0,0,1-2.8,2.8c-1.418,0-2.275-.578-2.45-1.715h-1.4c0.192,1.75,1.54,2.905,3.85,2.905,2.853,0,4.2-1.645,4.2-3.99V59.92h-1.33ZM172.926,67.9c-1.75,0-2.905-1.348-2.905-3.465s1.155-3.465,2.905-3.465,2.906,1.278,2.906,3.465S174.677,67.9,172.926,67.9ZM183.44,59.71a3.327,3.327,0,0,0-2.765,1.453V56.49h-1.4V68.951h1.4V63.84a2.571,2.571,0,0,1,2.485-2.87,1.811,1.811,0,0,1,2.066,2.013v5.968h1.4V62.843A2.88,2.88,0,0,0,183.44,59.71Zm9.048,1.435V59.92h-1.855V57.365h-1.4V59.92h-1.487v1.225h1.487v5.986c0,1.383.858,1.873,2.258,1.873q0.42,0,1-.052V67.778h-0.823c-0.8,0-1.032-.3-1.032-0.77V61.145h1.855Zm5.041,8.016c2.538,0,4.376-1.838,4.376-4.725s-1.838-4.725-4.376-4.725-4.375,1.838-4.375,4.725S194.992,69.161,197.529,69.161Zm0-1.26c-1.75,0-2.905-1.278-2.905-3.465s1.155-3.465,2.905-3.465,2.906,1.278,2.906,3.465S199.28,67.9,197.529,67.9Zm12.909-7.981v1.313a3.646,3.646,0,0,0-3.1-1.523c-2.538,0-4.2,1.838-4.2,4.725s1.663,4.725,4.2,4.725a3.647,3.647,0,0,0,3.027-1.435V68.6a2.5,2.5,0,0,1-2.8,2.8c-1.417,0-2.275-.578-2.45-1.715h-1.4c0.192,1.75,1.54,2.905,3.85,2.905,2.853,0,4.2-1.645,4.2-3.99V59.92h-1.33ZM207.515,67.9c-1.75,0-2.906-1.348-2.906-3.465s1.156-3.465,2.906-3.465,2.905,1.278,2.905,3.465S209.265,67.9,207.515,67.9ZM218.1,59.78a3.156,3.156,0,0,0-2.906,1.733V59.92h-1.33v9.031h1.4V63.805c0-1.75,1.155-2.66,2.958-2.66h0.35V59.8C218.379,59.78,218.239,59.78,218.1,59.78Zm9.133,8.033a0.414,0.414,0,0,1-.49-0.438V62.335c0-1.523-.893-2.625-3.395-2.625-2.643,0-3.571,1.243-3.676,2.993h1.4c0.088-1.348.735-1.785,2.276-1.785s2.03,0.473,2.03,1.418c0,0.805-.508,1.138-1.418,1.243l-1.3.14c-2.485.263-3.343,1.383-3.343,2.8,0,1.7,1.225,2.643,3.186,2.643a3.31,3.31,0,0,0,2.94-1.453,1.3,1.3,0,0,0,1.522,1.3,5.339,5.339,0,0,0,.771-0.052V67.813h-0.508Zm-4.655.157c-1.243,0-1.8-.6-1.8-1.488,0-.875.455-1.435,2.1-1.628l1.313-.158a2.33,2.33,0,0,0,1.19-.385V65.38A2.594,2.594,0,0,1,222.577,67.971Zm10.865-8.261a3.549,3.549,0,0,0-3.1,1.61v-1.4h-1.331V72.381h1.4V67.656a3.546,3.546,0,0,0,3.027,1.505c2.538,0,4.2-1.838,4.2-4.725S235.98,59.71,233.442,59.71ZM233.267,67.9c-1.75,0-2.905-1.278-2.905-3.465s1.155-3.465,2.905-3.465,2.906,1.208,2.906,3.4S235.018,67.9,233.267,67.9Zm10.222-8.191a3.327,3.327,0,0,0-2.765,1.453V56.49h-1.4V68.951h1.4V63.84a2.57,2.57,0,0,1,2.485-2.87,1.811,1.811,0,0,1,2.065,2.013v5.968h1.4V62.843A2.879,2.879,0,0,0,243.489,59.71Zm10.686,0.21L252.9,63.665c-0.455,1.313-.893,2.625-1.295,3.92-0.42-1.3-.84-2.59-1.3-3.9l-1.278-3.763h-1.54l3.395,9.328c-0.1.28-.21,0.578-0.315,0.84a1.581,1.581,0,0,1-1.645,1.12H248.1v1.173a7,7,0,0,0,.841.052,2.729,2.729,0,0,0,2.94-2.065L255.7,59.92h-1.522ZM59.152,80.431a3.548,3.548,0,0,0-3.028,1.505V77.21h-1.4V89.672h1.33v-1.4a3.55,3.55,0,0,0,3.1,1.61c2.538,0,4.2-1.838,4.2-4.726S61.69,80.431,59.152,80.431Zm-0.175,8.191c-1.75,0-2.905-1.278-2.905-3.465s1.155-3.465,2.905-3.465,2.905,1.208,2.905,3.4S60.727,88.621,58.977,88.621Zm13.395-.087a0.414,0.414,0,0,1-.49-0.437V83.056c0-1.523-.893-2.625-3.4-2.625-2.643,0-3.57,1.243-3.675,2.993h1.4c0.087-1.348.735-1.785,2.275-1.785s2.03,0.473,2.03,1.418c0,0.805-.507,1.138-1.418,1.243l-1.3.14c-2.485.262-3.343,1.383-3.343,2.8,0,1.7,1.225,2.643,3.185,2.643a3.31,3.31,0,0,0,2.94-1.453,1.3,1.3,0,0,0,1.523,1.3,5.327,5.327,0,0,0,.77-0.053V88.534H72.372Zm-4.655.157c-1.243,0-1.8-.595-1.8-1.488,0-.875.455-1.435,2.1-1.628l1.313-.157a2.33,2.33,0,0,0,1.19-.385V86.1A2.594,2.594,0,0,1,67.716,88.691Zm10.6-8.261a3.327,3.327,0,0,0-2.835,1.558V80.641h-1.33v9.031h1.4V84.561a2.571,2.571,0,0,1,2.485-2.87A1.811,1.811,0,0,1,80.1,83.7v5.968h1.4V83.563A2.879,2.879,0,0,0,78.32,80.431ZM91,88.534a0.414,0.414,0,0,1-.49-0.437V83.056c0-1.523-.893-2.625-3.4-2.625-2.643,0-3.57,1.243-3.675,2.993h1.4c0.087-1.348.735-1.785,2.275-1.785s2.03,0.473,2.03,1.418c0,0.805-.508,1.138-1.418,1.243l-1.3.14c-2.485.262-3.343,1.383-3.343,2.8,0,1.7,1.225,2.643,3.185,2.643a3.31,3.31,0,0,0,2.94-1.453,1.3,1.3,0,0,0,1.523,1.3,5.325,5.325,0,0,0,.77-0.053V88.534H91Zm-4.656.157c-1.243,0-1.8-.595-1.8-1.488,0-.875.455-1.435,2.1-1.628l1.313-.157a2.33,2.33,0,0,0,1.19-.385V86.1A2.594,2.594,0,0,1,86.341,88.691Zm11.781-8.051-1.278,3.745c-0.455,1.313-.893,2.625-1.3,3.92-0.42-1.3-.84-2.59-1.3-3.9l-1.278-3.763h-1.54l3.4,9.328c-0.105.28-.21,0.578-0.315,0.84a1.582,1.582,0,0,1-1.645,1.12H92.05V93.1a6.983,6.983,0,0,0,.84.052,2.729,2.729,0,0,0,2.94-2.065l3.815-10.449H98.123Zm10.2,4.515c0-2.59-1.453-4.725-4.148-4.725-2.5,0-4.165,1.89-4.165,4.725,0,2.923,1.732,4.726,4.2,4.726a3.766,3.766,0,0,0,3.885-2.958H106.64a2.32,2.32,0,0,1-2.4,1.68c-1.575,0-2.643-.928-2.783-2.958h6.861v-0.49Zm-4.148-3.448a2.648,2.648,0,0,1,2.643,2.678h-5.321C101.722,82.6,102.754,81.708,104.172,81.708Zm13.6-4.5h-4.2V89.672h4.2c3.763,0,6.108-2.328,6.108-6.231S121.532,77.21,117.769,77.21Zm0,11.131h-2.73v-9.8h2.73c3.011,0,4.568,1.89,4.568,4.9S120.78,88.341,117.769,88.341Zm8.47-8.978a0.945,0.945,0,1,0-.945-0.945A0.952,0.952,0,0,0,126.239,79.363Zm-0.7,10.309h1.4V80.641h-1.4v9.031Zm14.452-9.031-1.277,4.078c-0.333,1.085-.665,2.17-0.963,3.255-0.315-1.085-.647-2.17-0.98-3.255l-1.26-4.078h-1.47l-1.26,4.078c-0.35,1.1-.665,2.188-0.963,3.29-0.315-1.1-.63-2.188-0.98-3.29l-1.278-4.078h-1.5l3.01,9.031h1.471l1.312-4.183c0.315-1,.63-2.048.928-3.063,0.28,1.015.595,2.065,0.91,3.063l1.33,4.183h1.47l3.011-9.031h-1.506Zm9.816,7.893a0.414,0.414,0,0,1-.49-0.437V83.056c0-1.523-.893-2.625-3.4-2.625-2.642,0-3.57,1.243-3.675,2.993h1.4c0.088-1.348.735-1.785,2.275-1.785s2.031,0.473,2.031,1.418c0,0.805-.508,1.138-1.418,1.243l-1.295.14c-2.486.262-3.343,1.383-3.343,2.8,0,1.7,1.225,2.643,3.185,2.643a3.313,3.313,0,0,0,2.941-1.453,1.3,1.3,0,0,0,1.522,1.3,5.315,5.315,0,0,0,.77-0.053V88.534h-0.507Zm-4.656.157c-1.242,0-1.8-.595-1.8-1.488,0-.875.455-1.435,2.1-1.628l1.312-.157a2.334,2.334,0,0,0,1.191-.385V86.1A2.594,2.594,0,0,1,145.151,88.691Zm8.379,1.033a8.913,8.913,0,0,0,.893-0.053V88.5h-0.665a0.7,0.7,0,0,1-.858-0.77V77.21h-1.4V87.851C151.5,89.234,152.27,89.724,153.53,89.724Zm2.751-10.361a0.945,0.945,0,1,0-.945-0.945A0.952,0.952,0,0,0,156.281,79.363Zm-0.7,10.309h1.4V80.641h-1.4v9.031Zm10.185,0.21c2.223,0,3.588-.98,3.588-2.7,0-1.47-.893-2.223-3.116-2.66l-0.805-.157c-1.155-.227-1.82-0.543-1.82-1.4,0-.84.683-1.33,1.89-1.33,1.383,0,2.206.385,2.276,1.785h1.4c-0.035-1.925-1.26-2.993-3.676-2.993-2.065,0-3.29,1.015-3.29,2.555,0,1.4.858,2.293,2.818,2.66l0.84,0.157c1.575,0.3,2.065.665,2.065,1.47,0,0.893-.647,1.4-2.17,1.4-1.593,0-2.258-.508-2.415-1.873h-1.418C162.073,88.919,163.473,89.882,165.766,89.882Zm9.308-9.451a3.327,3.327,0,0,0-2.765,1.453V77.21h-1.4V89.672h1.4V84.561a2.571,2.571,0,0,1,2.485-2.87,1.811,1.811,0,0,1,2.065,2.013v5.968h1.4V83.563A2.88,2.88,0,0,0,175.074,80.431Zm12.677,8.1a0.414,0.414,0,0,1-.49-0.437V83.056c0-1.523-.892-2.625-3.395-2.625-2.643,0-3.57,1.243-3.675,2.993h1.4c0.087-1.348.735-1.785,2.275-1.785s2.03,0.473,2.03,1.418c0,0.805-.507,1.138-1.417,1.243l-1.3.14c-2.485.262-3.342,1.383-3.342,2.8,0,1.7,1.225,2.643,3.185,2.643a3.31,3.31,0,0,0,2.94-1.453,1.3,1.3,0,0,0,1.523,1.3,5.335,5.335,0,0,0,.77-0.053V88.534h-0.508Zm-4.655.157c-1.243,0-1.8-.595-1.8-1.488,0-.875.455-1.435,2.1-1.628l1.313-.157a2.33,2.33,0,0,0,1.19-.385V86.1A2.593,2.593,0,0,1,183.1,88.691Zm13.925-.157a0.414,0.414,0,0,1-.49-0.437V83.056c0-1.523-.893-2.625-3.4-2.625-2.643,0-3.571,1.243-3.676,2.993h1.4c0.088-1.348.736-1.785,2.276-1.785s2.03,0.473,2.03,1.418c0,0.805-.508,1.138-1.418,1.243l-1.295.14c-2.485.262-3.343,1.383-3.343,2.8,0,1.7,1.225,2.643,3.186,2.643a3.31,3.31,0,0,0,2.94-1.453,1.3,1.3,0,0,0,1.523,1.3,5.335,5.335,0,0,0,.77-0.053V88.534h-0.508Zm-4.655.157c-1.243,0-1.8-.595-1.8-1.488,0-.875.455-1.435,2.1-1.628l1.313-.157a2.33,2.33,0,0,0,1.19-.385V86.1A2.594,2.594,0,0,1,192.366,88.691Zm10.6-8.261a3.327,3.327,0,0,0-2.835,1.558V80.641H198.8v9.031h1.4V84.561a2.57,2.57,0,0,1,2.485-2.87,1.811,1.811,0,0,1,2.065,2.013v5.968h1.4V83.563A2.879,2.879,0,0,0,202.969,80.431Zm12.066-3.22v4.725a3.546,3.546,0,0,0-3.027-1.505c-2.538,0-4.2,1.838-4.2,4.725s1.663,4.726,4.2,4.726a3.549,3.549,0,0,0,3.1-1.61v1.4h1.33V77.21h-1.4Zm-2.852,11.411c-1.751,0-2.906-1.208-2.906-3.4s1.155-3.535,2.906-3.535,2.905,1.278,2.905,3.465S213.933,88.621,212.183,88.621Zm13.774-.087a0.414,0.414,0,0,1-.49-0.437V83.056c0-1.523-.893-2.625-3.4-2.625-2.643,0-3.571,1.243-3.676,2.993h1.4c0.088-1.348.736-1.785,2.276-1.785s2.03,0.473,2.03,1.418c0,0.805-.508,1.138-1.418,1.243l-1.295.14c-2.485.262-3.343,1.383-3.343,2.8,0,1.7,1.225,2.643,3.186,2.643a3.31,3.31,0,0,0,2.94-1.453,1.3,1.3,0,0,0,1.523,1.3,5.335,5.335,0,0,0,.77-0.053V88.534h-0.508Zm-4.655.157c-1.243,0-1.8-.595-1.8-1.488,0-.875.455-1.435,2.1-1.628l1.313-.157a2.33,2.33,0,0,0,1.19-.385V86.1A2.594,2.594,0,0,1,221.3,88.691Zm13.925-.157a0.414,0.414,0,0,1-.49-0.437V83.056c0-1.523-.893-2.625-3.4-2.625-2.642,0-3.57,1.243-3.675,2.993h1.4c0.088-1.348.735-1.785,2.275-1.785s2.031,0.473,2.031,1.418c0,0.805-.508,1.138-1.418,1.243l-1.3.14c-2.485.262-3.343,1.383-3.343,2.8,0,1.7,1.225,2.643,3.185,2.643a3.311,3.311,0,0,0,2.941-1.453,1.3,1.3,0,0,0,1.522,1.3,5.315,5.315,0,0,0,.77-0.053V88.534h-0.507Zm-4.656.157c-1.242,0-1.8-.595-1.8-1.488,0-.875.455-1.435,2.1-1.628l1.312-.157a2.33,2.33,0,0,0,1.191-.385V86.1A2.594,2.594,0,0,1,230.571,88.691ZM241.245,80.5a3.154,3.154,0,0,0-2.906,1.733V80.641h-1.33v9.031h1.4V84.526c0-1.75,1.155-2.66,2.958-2.66h0.35V80.518C241.525,80.5,241.385,80.5,241.245,80.5Zm2.038,5.916h0.91l0.315-5.776V77.21h-1.47v3.43Zm0.507,3.378a1,1,0,0,0,1-1.033,1.025,1.025,0,0,0-2.048,0A1.007,1.007,0,0,0,243.79,89.794Z"/>
  </g>
</svg>
