<svg id="F2" xmlns="http://www.w3.org/2000/svg" width="728" height="90" viewBox="0 0 1456 180">
  <defs>
    <style>
      .cls-1 {
        fill: #080;
        fill-rule: evenodd;
      }
    </style>
  </defs>
  <g id="BUTTON_copy" data-name="BUTTON copy">
    <path id="了解更多_" data-name="了解更多 " class="cls-1" d="M1313.71,149.222l0.8,1.775,3.26-.044a1.475,1.475,0,0,0,1.2-.577,1.889,1.889,0,0,0,.42-1.154l0.03-9.874a19.088,19.088,0,0,0,6.05-4.949v-1.486H1310.9v1.664l12.07,0.022a20.306,20.306,0,0,1-5.37,3.883v10.074a0.942,0.942,0,0,1-.11.444,0.4,0.4,0,0,1-.25.222h-3.53Zm24.05-10.607,0.71,0.977a6.5,6.5,0,0,0,2.69-2.164,8.006,8.006,0,0,0,1.21-3.14h2.49c-0.21,1.125-.36,1.864-0.47,2.219a0.665,0.665,0,0,1-.82.622,7.777,7.777,0,0,1-1.57-.511l0.51,1.842c0.16,0.015.45,0.055,0.87,0.122a4.78,4.78,0,0,0,.99.078,1.579,1.579,0,0,0,1.38-1,18.629,18.629,0,0,0,.99-4.992h-8.4v1.619h2.41a4.236,4.236,0,0,1-1.02,2.352,5.46,5.46,0,0,1-2.02,1.532v-1h-2.33a25.814,25.814,0,0,0,1.16-3.573h-3.93a9.559,9.559,0,0,0,.27-1.375l-1.45-.577a13.379,13.379,0,0,1-3.68,6.989l1.4,0.955,0.58-.644v6.9a10.31,10.31,0,0,1-.32,1.675,7.64,7.64,0,0,1-.48,1.287,10.873,10.873,0,0,1-1.16,1.676l1.27,1.154a10.3,10.3,0,0,0,2.35-5.237h4.64v2.64a0.632,0.632,0,0,1-.16.433,0.506,0.506,0,0,1-.42.189h-1.95l0.93,1.642h1.75a1.287,1.287,0,0,0,1.16-.6,2.8,2.8,0,0,0,.37-1.509Zm-1.73,2.375h-1.56v-2.242h1.54Zm-4.64,0v-2.242h1.49v2.242h-1.49Zm1.49,1.508v2.33h-1.47l-0.02-2.33h1.49Zm1.59-7.278a6.874,6.874,0,0,1-.36.943c-0.17.378-.34,0.707-0.5,0.988l-2.55.022a15.606,15.606,0,0,0,.95-1.953h2.46Zm1.56,9.608-1.53-.022-0.03-2.308h1.56v2.33Zm11.67,1.864v-1.62h-3.75v-2.307h2.57l0.03-1.62h-2.6v-2.308l-1.67.022-0.02,2.308-1.08-.022a7.775,7.775,0,0,0,.15-1.442l-1.53-.466a9.655,9.655,0,0,1-.68,3.095,6.073,6.073,0,0,1-1.23,1.831l1.71,0.6a8.185,8.185,0,0,0,1.13-2h1.55v2.307l-4.3.023v1.6h4.28l0.02,4.882h1.67v-4.882h3.75Zm21.67,3.085c-1.37-.03-2.82-0.13-4.34-0.3a37.607,37.607,0,0,1-4-.643,10.608,10.608,0,0,1-2.71-.921,6.561,6.561,0,0,0,.93-1.676,8.578,8.578,0,0,0,.51-1.963h6.48v-8.21h-6.17v-1.643l8.59,0.023v-1.576h-18.93v1.576l8.7-.023v1.643h-6.37l-0.02,8.21h6.04a6.838,6.838,0,0,1-.46,1.464,6.145,6.145,0,0,1-.76,1.332,25.3,25.3,0,0,1-3.24-2.53l-1.29.865a15.02,15.02,0,0,0,3.22,2.841,19.422,19.422,0,0,1-3.34,1.253,29.438,29.438,0,0,1-3.12.7l1,1.487a15.634,15.634,0,0,0,6.37-2.108l0.69-.466a20.612,20.612,0,0,0,4.23,1.476,40.379,40.379,0,0,0,6.95.9Zm-4.75-10.429h-4.52l0.02-1.709h4.5v1.709Zm-10.91-1.709,4.72,0.022v1.687h-4.72v-1.709Zm10.94,3.284v1.753h-4.71l0.11-1.753h4.6Zm-10.94,0h4.68l-0.09,1.753-4.59-.022v-1.731Zm21.7,5.547a40.961,40.961,0,0,0,4.5-2.2,18.252,18.252,0,0,0,2.52-1.8h5.68a9.8,9.8,0,0,1-1.04,1.432,9.131,9.131,0,0,1-1.62,1.475,17.6,17.6,0,0,1-2.16,1.354,6.852,6.852,0,0,0-2.28-2.419l-1.6.91a8.048,8.048,0,0,1,2.44,2.219,44.145,44.145,0,0,1-9.94,2.618l1.11,1.531a60.084,60.084,0,0,0,6.45-1.464,27.6,27.6,0,0,0,3.92-1.542,16.819,16.819,0,0,0,3.19-2.02,13.483,13.483,0,0,0,2.23-2.252,16.344,16.344,0,0,0,1.32-2.041l0.02-1.487-5.99-.022a10.3,10.3,0,0,0,1.17-1.576l-1.31-.71a18.677,18.677,0,0,0,3.13-3.151v-1.486h-6.26a15.76,15.76,0,0,0,1.62-1.776l-1.55-.821a17.1,17.1,0,0,1-8.56,5.37l1.46,1.376a23.873,23.873,0,0,0,4.86-2.463h6.1a21.882,21.882,0,0,1-2.06,1.731,20.135,20.135,0,0,1-2.35,1.42,9.425,9.425,0,0,0-1.19-1.232,7.26,7.26,0,0,0-1.3-.965l-1.55,1a7.681,7.681,0,0,1,2.48,1.864,25.345,25.345,0,0,1-3.09,1.02c-1.39.385-2.66,0.71-3.83,0.977l1.07,1.486a44.741,44.741,0,0,0,6.52-1.986,27.234,27.234,0,0,0,4.15-2.052,15.627,15.627,0,0,1-3.96,3.583,28.164,28.164,0,0,1-5.58,2.674Z"/>
  </g>
</svg>
