<svg id="F1" xmlns="http://www.w3.org/2000/svg" width="728" height="90" viewBox="0 0 1456 180">
  <defs>
    <style>
      .cls-1 {
        fill: #4b286d;
        fill-rule: evenodd;
      }
    </style>
  </defs>
  <path id="數據不夠_全家不高興_" data-name="數據不夠，全家不高興？ " class="cls-1" d="M86.456,62.764a63.034,63.034,0,0,1-1.56,13.59,27.863,27.863,0,0,1-4.86,10.53v-1.26H69l-0.06-2.04,10.92,0.06,0.06-6.66h3.6V72.9h-3.6l-0.06-6H69l-0.06-4.02-4.5.06V66.9H53.576v6h-4.32l0.06,4.08h4.26v6.66l10.86-.06v2.04h-10.8V95.4h10.38l-1.8,2.76-12.12.06-0.06,4.2h9.18a13.886,13.886,0,0,1-1.71,2.04q-1.17,1.2-3.51,3.48a34.456,34.456,0,0,1,8.82,1.5q-4.261,2.28-13.92,3.3l1.86,4.14q10.38-1.26,17.34-5.76,0.6,0.3,2.88,1.47t3.48,1.86l1.62,0.93,2.52-3.66q-4.8-2.58-6.72-3.42a16.309,16.309,0,0,0,4.56-5.94l7.26,0.06v-4.2l-16.14-.06,0.9-1.62-2.58-1.14h14.16v-5.76l2.4,1.62a16.4,16.4,0,0,0,1.11-1.59q0.75-1.17,1.05-1.59a75.035,75.035,0,0,0,3.78,13.8,46.988,46.988,0,0,1-4.89,7.47,27.673,27.673,0,0,1-4.59,4.41l3,3.06a39.568,39.568,0,0,0,5.01-5.07,43.78,43.78,0,0,0,3.69-5.43,32.882,32.882,0,0,0,9.12,10.62l3.12-3.3a31.032,31.032,0,0,1-5.79-5.43,29.3,29.3,0,0,1-4.05-6.33q4.26-8.76,5.22-23.4h2.88V74.1H89.636a42.518,42.518,0,0,0,.9-10.38Zm-22.02,7.98V72.9H57.9l0.06-2.22Zm11.16-.06V72.9H69v-2.22h6.6Zm0,9.12-6.66.06L69,76.984h6.6V79.8Zm-11.16-2.82V79.8l-6.48-.06-0.06-2.76h6.54Zm11.28,14.7H69l-0.06-2.34h6.78v2.34Zm-17.7,0v-2.34l6.48-.06-0.06,2.4h-6.42Zm4.26,13.44,2.34-2.76,6.9,0.06a14.761,14.761,0,0,1-3.78,4.14Zm31.74-26.7a56.36,56.36,0,0,1-1.08,10.17,77.042,77.042,0,0,1-2.16,7.89q-0.3-.839-0.69-2.13t-0.84-3.24q-0.45-1.949-.93-4.95t-0.72-4.14q0.18-.659.63-1.95t0.57-1.65h5.22Zm50.46,5.7a1.347,1.347,0,0,1-1.56-1.62l10.02-1.02V77.7l-10.02.96V76.5h12.66q-0.06.241-.48,1.44t-0.63,1.95q-0.21.751-.27,0.99l4.08,0.96q1.68-4.979,2.07-6.69a23.771,23.771,0,0,0,.51-2.97h-18v-2.04l13.74-.06v-3.6l-13.74-.06v-3.24h-4.5l-0.06,9H126.9v18.3q0,10.08-1.62,15.12a24.315,24.315,0,0,1-4.68,8.58l3.9,2.76q6.9-9,6.9-21.78l0.06-18.6h6.9l-0.06,2.58-5.88.48,0.06,4.02,6.06-.78a7.713,7.713,0,0,0,.36,2.22,3.939,3.939,0,0,0,1.59,1.92,4.232,4.232,0,0,0,2.37.78h12.72v-3.6ZM120.9,94.744l5.04-2.22V87.9l-4.98,2.22v-10.8h4.86v-4.38H120.9l-0.06-11.64h-4.5L116.4,75h-6.3l0.06,4.32h6.18V92.1l-8.22,3.6,2.76,3.48,5.52-2.34V111a1.757,1.757,0,0,1-.42,1.2,1.437,1.437,0,0,1-1.14.48q-2.52,0-5.16-.18l1.92,4.32h1.83q1.29,0,2.31-.09a7.488,7.488,0,0,0,1.98-.45,5.14,5.14,0,0,0,2.49-1.74,4.517,4.517,0,0,0,.75-2.64Zm41.7,15.18a12.571,12.571,0,0,1-4.47-3.84,12.442,12.442,0,0,1-2.13-5.04,29.808,29.808,0,0,0,2.49-2.25q0.63-.689,1.11-1.29l-3.06-3a27.117,27.117,0,0,1-3.3,3.12,14.106,14.106,0,0,1-3.42,2.1,19.612,19.612,0,0,0-2.82-3.6q3.06-1.739,3.72-2.25t0.84-.69l7.98-.06,0.06-3.9h-26.64v3.9l11.58,0.12q-4.14,2.281-12.96,3.42l2.4,3.6a51.711,51.711,0,0,0,9.42-2.4,3.067,3.067,0,0,1,.54.57c0.24,0.3.38,0.471,0.42,0.51a25.221,25.221,0,0,1-5.88,2.94,57.059,57.059,0,0,1-7.8,2.1l2.64,3.36a51.444,51.444,0,0,0,6.3-1.86,39.263,39.263,0,0,0,6.78-3.36l0.72,1.5a30.559,30.559,0,0,1-7.92,4.53,57.023,57.023,0,0,1-8.82,2.37l2.64,3.3a48.283,48.283,0,0,0,8.16-2.58,49.914,49.914,0,0,0,7.02-3.84,11.316,11.316,0,0,1,.09,4.14,2.074,2.074,0,0,1-.75,1.08,7.312,7.312,0,0,1-3.87.09q-2.55-.45-3.51-0.51l1.5,4.2q0.18,0,2.28.12a16.676,16.676,0,0,0,3.42-.09,7.506,7.506,0,0,0,2.34-.75,5.026,5.026,0,0,0,2.46-3.81q0.48-2.73-.72-8.19l1.02-.6q1.86,7.38,7.2,9.84Zm30.84,6.66h4.92l-0.12-39.66q0.72-1.019,2.01-3.18t1.59-2.64l16.62,0.06v-4.5l-45.12-.12V71.1h23.4a29.457,29.457,0,0,1-2.28,3.24q-1.8,2.34-2.04,2.7a44.639,44.639,0,0,1-9.39,9.72,78.416,78.416,0,0,1-12.51,7.68l3,3.9q13.92-7.74,19.92-15.18v33.42Zm6.54-32.76a38.638,38.638,0,0,1,9.57,6,61.246,61.246,0,0,1,8.73,8.76l3.66-3.12q-9-10.379-18.78-14.82Zm75.9-9.36q0,6.9-.72,17.16-0.84,11.941-2.46,17.7a2.7,2.7,0,0,1-1.41,1.77,5.762,5.762,0,0,1-2.73.33q-2.58-.3-7.2-1.26l1.14,5.1q4.02,0.6,5.04.69t1.62,0.09a8.716,8.716,0,0,0,5.1-1.14,7,7,0,0,0,2.82-4.2q1.74-5.94,2.64-18.66,0.66-9.18.84-21.96h-16.74a37.223,37.223,0,0,0,1.44-7.56l-4.5-.9a33.692,33.692,0,0,1-3.09,11.91,57.147,57.147,0,0,1-7.29,11.37l4.02,2.64q0.84-1.019,2.64-3.78v21.36l4.32-.06v-3.12h6v3.18h4.38V81.364h-13.2a44.862,44.862,0,0,0,3.66-6.9h13.68Zm-14.52,11.22h6v11.94h-6V85.684Zm-18.12-23.76a41.027,41.027,0,0,1-5.07,8.46,49.783,49.783,0,0,1-7.35,7.32l3.72,2.76a50.777,50.777,0,0,0,7.56-7.74h7.62a17.74,17.74,0,0,1-2.22,3.75,21.84,21.84,0,0,1-3.24,3.51,17.094,17.094,0,0,0-1.47-1.95q-0.99-1.17-1.95-2.13l-3.42,2.58a24.293,24.293,0,0,1,3.78,4.2,48.819,48.819,0,0,1-10.8,5.52l3.36,3.54a48.568,48.568,0,0,0,13.5-8.58,24.739,24.739,0,0,0,5.28-6.63,24.334,24.334,0,0,0,2.76-8.19h-10.38q0.66-1.139,2.34-4.32Zm2.46,23.16a30.809,30.809,0,0,1-6,7.89,64.1,64.1,0,0,1-9.12,6.93l3.72,2.94a54.078,54.078,0,0,0,10.26-8.58h5.4a23.442,23.442,0,0,1-4.5,8.28,19.927,19.927,0,0,0-3.42-4.38l-3.84,2.46a17.867,17.867,0,0,1,2.64,2.43,12.947,12.947,0,0,1,1.8,2.49,61.3,61.3,0,0,1-6.39,4.08,63.838,63.838,0,0,1-6.99,3.42l2.94,3.6a71.574,71.574,0,0,0,11.64-6.63,29.416,29.416,0,0,0,5.88-5.79,31.84,31.84,0,0,0,5.52-14.28H247.8a29.806,29.806,0,0,0,1.68-2.94Zm72.54-.36h-6.6v6.6h3.24a5.942,5.942,0,0,1-3.6,5.94l1.74,2.22a8.6,8.6,0,0,0,3.09-2.34,8.856,8.856,0,0,0,1.65-3.03,10.662,10.662,0,0,0,.48-3.09v-6.3Zm54.96,24.84H351.9v4.5l47.7-.06v-4.44h-21.72v-8.82H390.3v-4.32h-12.42l-0.06-8.34h14.22l-0.06-2.7a55.976,55.976,0,0,0,7.8,3.3l2.64-4.08a46.562,46.562,0,0,1-11.73-5.52,38.165,38.165,0,0,1-7.71-6.6,28.226,28.226,0,0,1-4.32-6.6l-17.4-.06,0.06,4.5,8.82-.06a32.016,32.016,0,0,1-8.94,8.79,52.537,52.537,0,0,1-12.48,6.15l2.64,4.02a49.634,49.634,0,0,0,7.5-3.3l-0.06,2.16,14.4-.06,0.06,8.4H360.9v4.38l12.3-.06v8.82Zm2.58-39.24a30.971,30.971,0,0,0,3,4.44,34.918,34.918,0,0,0,4.83,4.95,44.489,44.489,0,0,0,5.37,3.99l-26.7-.12a37.742,37.742,0,0,0,5.31-3.87,32.72,32.72,0,0,0,4.8-4.98,28.987,28.987,0,0,0,2.91-4.47Zm83.7-.42H439.2a22.281,22.281,0,0,0-3.63-4.68,20.634,20.634,0,0,0-3.99-3.18l-3.78,2.82a44.365,44.365,0,0,1,4.71,3.78,8.8,8.8,0,0,1,.99,1.26h-21.66v11.16h4.62l-0.06-6.9h38.46v6.66h4.62V69.9Zm2.88,38.58a16.7,16.7,0,0,1-5.19-3.24,28.17,28.17,0,0,1-4.59-5.34,23.676,23.676,0,0,1-3.06-6.24,43.817,43.817,0,0,0,6.66-6L452.7,84.6q-5.76,6.9-11.1,8.64a15.807,15.807,0,0,0-2.43-3.81,14.161,14.161,0,0,0-3.21-2.91,42.971,42.971,0,0,0,5.76-3.84h11.04v-4.26h-33.84l-0.06,4.32,15.12,0.06q-7.44,4.5-21.84,6.78l3.12,3.96a52.338,52.338,0,0,0,16.26-4.74,18.131,18.131,0,0,1,3,2.04,39.506,39.506,0,0,1-5.58,3.3,42.271,42.271,0,0,1-7.95,2.91,86.14,86.14,0,0,1-9.99,2.01l3.18,3.9a45.256,45.256,0,0,0,12.15-2.94,55.713,55.713,0,0,0,10.65-5.76,24.8,24.8,0,0,1,1.62,3.48,39.659,39.659,0,0,1-12.6,7.29,82.858,82.858,0,0,1-16.2,3.93l3.3,4.14a97.011,97.011,0,0,0,9.99-2.43,62.157,62.157,0,0,0,9.12-3.51,33.186,33.186,0,0,0,7.35-4.74,50.023,50.023,0,0,1-.24,8.04,2.619,2.619,0,0,1-.66,1.14,3.308,3.308,0,0,1-1.08.84,20.114,20.114,0,0,1-4.38-.39,50.186,50.186,0,0,1-5.7-1.53l1.86,5.34q7.74,1.44,10.5.42a5.182,5.182,0,0,0,2.67-2.07,11.616,11.616,0,0,0,1.41-5.19,34.418,34.418,0,0,0-.03-5.91,44.514,44.514,0,0,0-.87-5.91l2.88-1.2a35.986,35.986,0,0,0,2.46,5.37,29.4,29.4,0,0,0,4.59,6.15,18.67,18.67,0,0,0,6.39,4.5Zm31.08,8.1h4.92l-0.12-39.66q0.72-1.019,2.01-3.18t1.59-2.64l16.62,0.06v-4.5l-45.12-.12V71.1h23.4a29.457,29.457,0,0,1-2.28,3.24q-1.8,2.34-2.04,2.7a44.639,44.639,0,0,1-9.39,9.72,78.416,78.416,0,0,1-12.51,7.68l3,3.9q13.92-7.74,19.92-15.18v33.42Zm6.54-32.76a38.638,38.638,0,0,1,9.57,6,61.246,61.246,0,0,1,8.73,8.76l3.66-3.12q-9-10.379-18.78-14.82Zm41.1-9.06,0.06,12.06h29.34V74.764h-29.4Zm4.44,4.32h20.52v3.36h-20.46Zm22.08,29.76V96l-23.58.06-0.06,12.78H567.6Zm-19.14-8.4H563.1l0.06,4.08-14.7-.06v-4.02Zm-17.04-28.38,48.84,0.06-0.06-4.38h-22.08a25.818,25.818,0,0,0-1.86-2.76,22.715,22.715,0,0,0-2.4-2.7l-4.62,1.92q1.2,0.9,2.4,1.95a20.809,20.809,0,0,1,1.68,1.59h-21.96Zm35.76,43.5q0.36,0,3.12-.03a25.58,25.58,0,0,0,4.02-.27,4.378,4.378,0,0,0,2.67-1.74,5.259,5.259,0,0,0,1.11-3.3v-21l-44.34.06-0.06,27.48,4.74-.06V93.6l34.98-.06v15.3a2.791,2.791,0,0,1-.36,1.41,1.409,1.409,0,0,1-.9.75,16.791,16.791,0,0,1-3.33.06q-2.25-.12-2.91-0.12Zm38.4-50.28v0.66l-2.52-2.76a23.138,23.138,0,0,1-9.84,6.3l1.98,29.28h-4.86l-0.06,4.38h51.18v-4.38h-5.04l2.34-32.64h-12.24v4.32h7.44l-0.42,5.58h-6.3v4.32h6.06l-0.6,6.6h-5.46v4.38h5.28l-0.54,7.5-6.18-.06-0.06-33.48h-20.16Zm4.56,4.38h11.1v29.1l-11.04.06Zm-4.5,29.1h-6l-0.48-7.44h5.22v-4.38h-5.52l-0.48-6.6h6.18v-4.38h-6.42l-0.24-4.14a28.564,28.564,0,0,0,7.74-4.8v31.74Zm5.58-19.74,0.06,16.92h9.12V79.024h-9.18Zm3.66,12.6-0.06-8.28h1.86v8.28h-1.8Zm6.18-14.88v-4.38h-10.44v4.38h10.44Zm-28.8,39.36a47.893,47.893,0,0,0,18.78-9.78l-2.88-3.12a46.043,46.043,0,0,1-18.78,8.82Zm50.1-3.72a60.28,60.28,0,0,0-5.73-3.96,39.969,39.969,0,0,0-5.31-2.67,52.14,52.14,0,0,0-8.4-2.31l-3,3.66a45.874,45.874,0,0,1,19.5,8.82Zm45.72-37.62a11.161,11.161,0,0,0-2.88-3.75,13.345,13.345,0,0,0-4.41-2.46,16.912,16.912,0,0,0-5.49-.87,15.544,15.544,0,0,0-5.46.96,12.56,12.56,0,0,0-4.41,2.73,13.386,13.386,0,0,0-2.91,4.17,16.555,16.555,0,0,0-1.14,4.56l5.4,0.6a13.684,13.684,0,0,1,1.8-5.01,7.064,7.064,0,0,1,3.12-2.91,9.138,9.138,0,0,1,3.66-.78,8.242,8.242,0,0,1,4.62,1.38,7.649,7.649,0,0,1,2.91,3.18,7.924,7.924,0,0,1,.81,3.18,6.672,6.672,0,0,1-.39,2.16,7.11,7.11,0,0,1-1.32,2.25,22.831,22.831,0,0,1-2.61,2.55,32.222,32.222,0,0,0-4.65,4.74,9.884,9.884,0,0,0-1.86,4.29,24.2,24.2,0,0,0-.27,5.07h5.04a29.945,29.945,0,0,1,.33-3.99,6.864,6.864,0,0,1,1.23-2.97,24.136,24.136,0,0,1,3.42-3.48q1.5-1.319,2.97-2.85a14.4,14.4,0,0,0,2.49-3.57,10.052,10.052,0,0,0,1.02-4.56A10.685,10.685,0,0,0,688.076,74.764Zm-9.84,36.6v-6h-6v6h6Z"/>
</svg>
