<svg id="F2" xmlns="http://www.w3.org/2000/svg" width="728" height="90" viewBox="0 0 1456 180">
  <defs>
    <style>
      .cls-1 {
        fill: #4b286d;
        fill-rule: evenodd;
      }
    </style>
  </defs>
  <path id="TELUS家庭優惠計劃_無限數據_節省更多_" data-name="TELUS家庭優惠計劃 無限數據 節省更多 " class="cls-1" d="M80.758,35.021H46.5v4.56H61.017V77.744h5.22V39.582H80.758v-4.56Zm34.2,4.56v-4.56h-29.7V77.744h29.462v-4.56H90.3V57.763h22.261V53.2H90.3V39.582h24.661Zm10.438,33.6V35.021h-5.04V77.744h26.521v-4.56H125.4Zm40.681,5.46c10.68,0,16.8-6.06,16.8-16.741V35.021h-5.04V61.9c0,8.4-4.321,12.181-11.761,12.181S154.316,70.3,154.316,61.9V35.021h-5.04V61.9C149.276,72.583,155.4,78.644,166.077,78.644Zm39.66,0.06c10.26,0,16.021-4.98,16.021-12.541,0-6.18-3.481-10.02-13.321-12.181l-3.78-.84c-8.041-1.8-10.021-3.84-10.021-7.921,0-4.02,3.18-6.6,9.361-6.6,8.52,0,11.1,3.3,11.52,8.821h5.161C220.5,40.482,216.6,34.061,204,34.061c-8.881,0-14.581,4.32-14.581,11.16,0,7.8,5.7,10.741,12.961,12.361l3.78,0.84c7.56,1.68,10.38,3.66,10.38,7.74,0,5.28-3.96,7.981-10.8,7.981-6.961,0-12.421-2.58-12.541-10.5h-5.22C188.1,74.324,195.536,78.7,205.737,78.7Zm71.7-43.8h-20.28a22.281,22.281,0,0,0-3.63-4.68,20.634,20.634,0,0,0-3.99-3.18l-3.78,2.82a44.365,44.365,0,0,1,4.71,3.78,8.8,8.8,0,0,1,.99,1.26H229.8v11.16h4.62l-0.06-6.9h38.46v6.66h4.62V34.9Zm2.88,38.58a16.68,16.68,0,0,1-5.19-3.24,28.146,28.146,0,0,1-4.59-5.34,23.676,23.676,0,0,1-3.06-6.24,43.817,43.817,0,0,0,6.66-6l-3.48-3.06q-5.76,6.9-11.1,8.64a15.807,15.807,0,0,0-2.43-3.81,14.161,14.161,0,0,0-3.21-2.91,42.971,42.971,0,0,0,5.76-3.84h11.04v-4.26h-33.84l-0.06,4.32,15.12,0.06q-7.44,4.5-21.84,6.78l3.12,3.96a52.338,52.338,0,0,0,16.26-4.74,18.131,18.131,0,0,1,3,2.04,39.506,39.506,0,0,1-5.58,3.3,42.271,42.271,0,0,1-7.95,2.91,86.14,86.14,0,0,1-9.99,2.01l3.18,3.9a45.241,45.241,0,0,0,12.15-2.94,55.689,55.689,0,0,0,10.65-5.76,24.8,24.8,0,0,1,1.62,3.48,39.666,39.666,0,0,1-12.6,7.29,82.808,82.808,0,0,1-16.2,3.93l3.3,4.14a96.65,96.65,0,0,0,9.99-2.43,62.067,62.067,0,0,0,9.12-3.51,33.161,33.161,0,0,0,7.35-4.74,50.018,50.018,0,0,1-.24,8.04,2.615,2.615,0,0,1-.66,1.14,3.293,3.293,0,0,1-1.08.84,20.089,20.089,0,0,1-4.38-.39,50.186,50.186,0,0,1-5.7-1.53l1.86,5.34q7.74,1.44,10.5.42a5.182,5.182,0,0,0,2.67-2.07,11.615,11.615,0,0,0,1.41-5.19,34.418,34.418,0,0,0-.03-5.91A44.524,44.524,0,0,0,261,62.2l2.88-1.2a35.965,35.965,0,0,0,2.46,5.37,29.382,29.382,0,0,0,4.59,6.15,18.67,18.67,0,0,0,6.39,4.5Zm8.82,7.38a26.655,26.655,0,0,0,5.67-10.2,45.093,45.093,0,0,0,1.59-12.48V37.424h43.32v-4.38h-21.18l1.02-1.02a21.011,21.011,0,0,0-4.38-3.54,18.676,18.676,0,0,0-4.98-2.16q-1.2,1.26-3.42,3.24,5.16,1.321,7.26,3.48H291.6v25.14a41.5,41.5,0,0,1-1.32,11.31,20.9,20.9,0,0,1-5.04,8.55Zm52.68-6.48q-11.7.6-21.6,0.24a25.7,25.7,0,0,1-4.5-.63,24.642,24.642,0,0,1-7.08-3.33q3.24-5.4,3.54-15.9h-7.44a35.922,35.922,0,0,0,3.84-4.35,43.49,43.49,0,0,0,3.42-5.07V43.6l2.94,3.78q2.28,0.061,4.77-.12a35.791,35.791,0,0,0,4.05-.48v6.66h-10.08v4.32h10.08l-0.06,8.82h-12.42v4.38h28.68v-4.38h-11.7v-8.82h10.2v-4.38l-10.2.06V46a45.7,45.7,0,0,0,10.26-3.96l-3.06-3.36q-7.86,4.561-23.46,4.26v-1.56h-14.22V45.7h8.7a76.145,76.145,0,0,1-8.1,9v4.44h9.18a22.152,22.152,0,0,1-.78,4.08,24.517,24.517,0,0,1-1.5,3.96,33.839,33.839,0,0,1-3.9-6.84l-3.78,2.28a50.807,50.807,0,0,0,3.27,5.94,28.346,28.346,0,0,0,2.01,2.76,36.515,36.515,0,0,1-4.05,3.81,25.715,25.715,0,0,1-4.41,2.91l3.18,3.42a39.636,39.636,0,0,0,4.77-3.39,37.8,37.8,0,0,0,4.05-3.81,22.431,22.431,0,0,0,13.74,4.56l19.74,0.24Zm42.48-9.54a3.724,3.724,0,0,0,3.03-1.44,7.138,7.138,0,0,0,1.47-3.6q2.58,1.321,5.76,5.64l3.12-2.16a23.971,23.971,0,0,0-3.36-4.26h3.36l0.06-6.9H393v-15.6h-11.52l0.54-1.74,17.22,0.06V31h-37.2v3.84h15.6l-0.9,1.68h-11.46v15.6h-4.5v7.44h4.32v-3.54l10.86-.06-1.14,1.02a11.5,11.5,0,0,1,2.64,1.2q1.14,0.72,2.4,1.65t1.74,1.29l3.12-2.4a13.59,13.59,0,0,0-4.08-2.76h12.72V58.3a7.761,7.761,0,0,0-1.98-1.38l-3.84,1.86-1.8-.6q-0.06.9-.15,1.65a2.928,2.928,0,0,1-.42,1.26,1.158,1.158,0,0,1-1.05.51h-7.68a1.319,1.319,0,0,1-1.05-.45,1.085,1.085,0,0,1-.27-0.99v-2.88l-3.48.06q0.06,0.6.06,2.55a10.258,10.258,0,0,0,.18,2.49l0.48,1.26-1.26-.66a17.394,17.394,0,0,1-10.38,9.06l2.94,3a21.294,21.294,0,0,0,3.39-1.65,23.524,23.524,0,0,0,3.69-2.97,19.056,19.056,0,0,0,5.22,5.04q-6.54,2.461-16.38,2.4l1.92,4.02a51.341,51.341,0,0,0,18.9-3.96,46.981,46.981,0,0,0,17.88,3.72l2.22-4.02a45.394,45.394,0,0,1-8.64-.48,33.2,33.2,0,0,1-6.9-1.62,18.869,18.869,0,0,0,3.39-2.52,42.875,42.875,0,0,0,3.45-3.42v-3.24l-18.06-.06a9.011,9.011,0,0,0,.66-1.44h9.9Zm4.26-19.5v1.74h-18.78v-1.74h18.78Zm-18.78-5.04,18.78,0.06V42.1l-18.78-.06V40.3Zm0,11.82v-1.68h18.78v1.68h-18.78Zm-11.76,30V43.484q1.02-2.819,2.34-7.14t1.98-7.14l-4.14-1.56a76.644,76.644,0,0,1-5.28,16.05,45.689,45.689,0,0,1-7.86,12.27l4.08,2.64a33.8,33.8,0,0,0,4.38-5.7v29.22h4.5Zm28.2-11.94q-0.36.241-1.35,0.93t-1.74,1.14a11.3,11.3,0,0,1-1.47.75q-0.72.3-1.38,0.54-0.358-.239-1.5-0.99t-1.92-1.32a6.519,6.519,0,0,1-1.26-1.17Zm-18.3-12.96a18.8,18.8,0,0,1-3.81,3.48,20.769,20.769,0,0,1-3.39,1.8l3.06,3.3a20.185,20.185,0,0,0,7.14-6.3Zm63.3,1.92q-19.62.18-23.7,0.12l2.46,4.62q9.9-.3,21.66-0.42l-3.12,2.1a20.141,20.141,0,0,1,8.76,7.62l3.9-2.64q-0.18-.3-0.75-1.11a19.584,19.584,0,0,0-1.56-1.89,12.99,12.99,0,0,0-2.1-1.86q-1.11-.779-2.4-1.53t-1.59-.93q10.8,0,19.14-.36a26.317,26.317,0,0,1,2.76,3.48l4.02-2.64a24.619,24.619,0,0,0-8.16-7.38h1.26l0.06-18-16.02-.06v-2.1H459.3v-4.32l-23.46-.06v-4.8h-4.62v4.86h-23.34l-0.06,4.32,23.4,0.06v2.04l-15.84-.06v18.18l15.84-.06v2.82Zm0-7.2h-11.16v-2.82h11.16v2.82Zm4.68-2.76h11.16v2.76H435.9v-2.76Zm-15.84-4.32v-2.34h11.16v2.34h-11.16Zm15.78-2.34h11.28v2.34h-11.28v-2.34Zm-0.06,16.38,0.06-2.58,9.12,0.12-1.5.9a16.8,16.8,0,0,0,2.94,1.38ZM422.7,65.8v6.48a14.468,14.468,0,0,0,.48,3.48,6.887,6.887,0,0,0,1.92,2.4,5.338,5.338,0,0,0,2.76,1.2h9.66q4.74,0.18,6.12-.42a4.759,4.759,0,0,0,1.5-1.02,5.349,5.349,0,0,0,1.05-1.47,10.821,10.821,0,0,0,.63-1.62q0.24-.81.51-2.22t0.39-1.89a39.382,39.382,0,0,0-4.32-1.8,17.074,17.074,0,0,0-.51,2.37,12.851,12.851,0,0,1-.54,2.34,2.027,2.027,0,0,1-.72.99,3.461,3.461,0,0,1-.81.42H429a2.214,2.214,0,0,1-.99-0.72,2.038,2.038,0,0,1-.51-1.02V65.8h-4.8Zm-13.08,11.28a25.778,25.778,0,0,0,6.81-3.48,19.926,19.926,0,0,0,5.13-5.16q-0.66-.6-3.24-2.52a23.907,23.907,0,0,1-12.24,7.5Zm51.48-1.5a23.676,23.676,0,0,0-4.41-5.1,25.462,25.462,0,0,0-6.87-4.08l-3.42,2.58a25.974,25.974,0,0,1,10.92,9.36Zm5.76-39.24v4.38h24.72v-4.38l-10.08-.12,0.96-.54q-1.38-4.559-6.54-8.76L472.2,29.5a27,27,0,0,1,3.39,3.51,16.423,16.423,0,0,1,2.01,3.33h-10.74Zm35.04,45.24h4.56V49.9l14.04-.06v-4.32h-13.98l-0.06-17.82-4.56-.06,0.06,17.88h-12.54v4.32L501.9,49.9v31.68Zm-14.04-1.14V60.764l-16.86.06V80.5l4.5-.06v-2.88h7.8l0.06,2.88h4.5Zm-4.56-7.26h-7.8v-8.04l7.8-.06v8.1Zm5.82-29.22h-19.5V48.4l19.5-.06v-4.38Zm-19.38,12.36H489v-4.38h-19.32Zm92.041,18.72v-14.7H533.215v14.7h28.561Zm-4.5-10.92v1.74h-7.62v-1.74h7.62ZM545.4,65.864h-7.621v-1.74H545.4v1.74Zm11.879,3.54v1.68l-7.56.06-0.06-1.74h7.62Zm-19.44,0h7.62l0.06,1.74h-7.74Zm27.84-14.76-16.08.06V52.9h12.66v-3.66l-12.66-.06v-1.44l12.061,0.06v-6h3.96v-3.96h-3.96V32.2l-12.061-.06v-4.02h-4.56V32.2H533.7v3.9l11.34-.06v1.8l-15.78-.06V41.8h15.78v2.1H533.756v3.9l11.279-.06-0.059,1.5h-12.36V52.9h12.419v1.8H528v3.72h37.68v-3.78ZM557.1,37.784l-7.5.06-0.059-1.8h7.56v1.74Zm-7.5,4.02h7.5v2.1l-7.5-.06V41.8Zm24.36-13.44v46.98a1.634,1.634,0,0,1-.39,1.11,1.508,1.508,0,0,1-1.05.51,15.918,15.918,0,0,1-3.45.03q-2.67-.149-2.85-0.15l1.62,4.68q1.02-.06,3.9-0.06a9.354,9.354,0,0,0,4.319-.78,5.386,5.386,0,0,0,1.62-1.53,3.706,3.706,0,0,0,.84-2.25V28.364h-4.56ZM566.636,69.1l4.5-.06,0.06-34.98h-4.559V69.1Zm-36.6,12.6,35.819-2.16v-3.78l-38.16,1.8Zm-478.32,34.96a35.8,35.8,0,0,0,6.48-5.34v6.6l-6.9-.06v4.44h6.84v9.24h-8.46l-0.06,4.38h51.06l-0.06-4.44H93.3v-9.12h5.64v-4.5l-5.64.06v-9h5.46l-0.06-4.44H63.9a56.488,56.488,0,0,0,3.06-5.34L62.4,97.4q-5.7,10.5-13.86,15.78Zm26.88,14.82h-5.76l-0.06-9.18H78.6v9.18Zm10.2-13.56h-5.64v-9H88.8v9Zm-15.9-.06v-8.94h5.76v8.94H72.9Zm15.9,4.44-0.06,9.24h-5.58V122.3H88.8Zm-20.52-4.44h-5.52l0.06-8.94h5.46v8.94Zm-0.06,13.62h-5.46l0.06-9.12,5.46-.06Zm-16.2,20.04a58.282,58.282,0,0,0,6.27-7.17,23.412,23.412,0,0,0,2.73-5.13l-3.54-2.28q-2.7,5.88-9.48,11.88Zm36.9-12.06a25.592,25.592,0,0,1,5.16,5.22,38.636,38.636,0,0,1,4.08,6.72,14.458,14.458,0,0,0,2.34-1.11q1.44-.81,1.86-1.05a33.571,33.571,0,0,0-9.78-12Zm-2.04,9.36a36.822,36.822,0,0,0-6.42-11.1,22.375,22.375,0,0,0-2.43.75q-1.41.51-1.89,0.69a31.884,31.884,0,0,1,6.18,11.22Zm-23.58-9.3a23.853,23.853,0,0,1,3.57,5.1,32.778,32.778,0,0,1,2.31,6.06l4.5-1.62a32.4,32.4,0,0,0-3-6.81,25.821,25.821,0,0,0-3.24-4.23Zm98.34,8.16a25.163,25.163,0,0,1-6.45-3.75,18.466,18.466,0,0,1-4.59-5.19q5.22-3.84,7.23-5.61t2.97-2.67l-3.42-3.12-8.7,7.68a20.9,20.9,0,0,1-1.47-3.84,44.156,44.156,0,0,1-.87-4.8l10.14-.06-0.06-25.74h-25.38v43.2a3.873,3.873,0,0,1-.84,2.64,6.6,6.6,0,0,1-2.04,1.56q0.84,0.72,2.25,1.83t1.53,1.17l12.84-5.64v-4.56q-0.54.24-4.23,1.68t-5.01,2.1l0.06-18.06,6.24-.06a34.275,34.275,0,0,0,2.16,9.6,29.215,29.215,0,0,0,6,9.18,23.785,23.785,0,0,0,8.88,6.24ZM135.6,104.9h16.32v6.18H135.6V104.9Zm16.14,17.04-16.14.12v-6.6l16.26-.06Zm-23.1-17.1V100.4h-16.86l0.06,51.36,4.44-.12v-46.8l7.5,0.06q-1.2,3.9-5.28,13.38,5.16,4.56,6.12,9.12a6.147,6.147,0,0,1-.03,3.27,3.946,3.946,0,0,1-1.23,1.89,3.253,3.253,0,0,1-.66.36,3.376,3.376,0,0,1-.96.24,4.65,4.65,0,0,1-1.17-.03q-0.63-.09-3.51-0.69l1.08,4.98q4.08,0.6,5.82-.18a7.124,7.124,0,0,0,3.24-2.28,7.8,7.8,0,0,0,1.86-3.6,14.308,14.308,0,0,0,.12-4.53,12.008,12.008,0,0,0-1.71-4.65,22.821,22.821,0,0,0-3.87-4.68Zm77.82-7.08a63,63,0,0,1-1.56,13.59,27.863,27.863,0,0,1-4.86,10.53v-1.26H189l-0.06-2.04,10.92,0.06,0.06-6.66h3.6V107.9h-3.6l-0.06-6H189l-0.06-4.02-4.5.06v3.96h-10.86v6h-4.32l0.06,4.08h4.26v6.66l10.86-.06v2.04h-10.8v9.78h10.38l-1.8,2.76-12.12.06-0.06,4.2h9.18a13.886,13.886,0,0,1-1.71,2.04q-1.17,1.2-3.51,3.48a34.456,34.456,0,0,1,8.82,1.5q-4.26,2.28-13.92,3.3l1.86,4.14q10.38-1.26,17.34-5.76,0.6,0.3,2.88,1.47t3.48,1.86l1.62,0.93,2.52-3.66q-4.8-2.58-6.72-3.42a16.3,16.3,0,0,0,4.56-5.94l7.26,0.06v-4.2l-16.14-.06,0.9-1.62-2.58-1.14h14.16v-5.76l2.4,1.62a16.378,16.378,0,0,0,1.11-1.59q0.75-1.17,1.05-1.59a75.093,75.093,0,0,0,3.78,13.8,46.946,46.946,0,0,1-4.89,7.47,27.673,27.673,0,0,1-4.59,4.41l3,3.06a39.548,39.548,0,0,0,5.01-5.07,43.649,43.649,0,0,0,3.69-5.43,32.893,32.893,0,0,0,9.12,10.62l3.12-3.3a31.042,31.042,0,0,1-5.79-5.43,29.346,29.346,0,0,1-4.05-6.33q4.26-8.76,5.22-23.4h2.88V109.1h-11.46a42.522,42.522,0,0,0,.9-10.38Zm-22.02,7.98v2.16H177.9l0.06-2.22Zm11.16-.06v2.22H189v-2.22h6.6Zm0,9.12-6.66.06,0.06-2.88h6.6v2.82Zm-11.16-2.82v2.82l-6.48-.06-0.06-2.76h6.54Zm11.28,14.7H189l-0.06-2.34h6.78v2.34Zm-17.7,0v-2.34l6.48-.06-0.06,2.4h-6.42Zm4.26,13.44,2.34-2.76,6.9,0.06a14.744,14.744,0,0,1-3.78,4.14Zm31.74-26.7a56.375,56.375,0,0,1-1.08,10.17,77.07,77.07,0,0,1-2.16,7.89q-0.3-.84-0.69-2.13t-0.84-3.24q-0.45-1.95-.93-4.95t-0.72-4.14q0.18-.66.63-1.95t0.57-1.65h5.22Zm50.46,5.7a1.347,1.347,0,0,1-1.56-1.62l10.02-1.02V112.7l-10.02.96V111.5h12.66q-0.06.24-.48,1.44t-0.63,1.95q-0.21.75-.27,0.99l4.08,0.96q1.68-4.98,2.07-6.69a23.771,23.771,0,0,0,.51-2.97h-18v-2.04l13.74-.06v-3.6l-13.74-.06v-3.24h-4.5l-0.06,9H246.9v18.3q0,10.08-1.62,15.12a24.315,24.315,0,0,1-4.68,8.58l3.9,2.76q6.9-9,6.9-21.78l0.06-18.6h6.9l-0.06,2.58-5.88.48,0.06,4.02,6.06-.78a7.715,7.715,0,0,0,.36,2.22,3.944,3.944,0,0,0,1.59,1.92,4.235,4.235,0,0,0,2.37.78h12.72v-3.6Zm-23.58,10.62,5.04-2.22V122.9l-4.98,2.22v-10.8h4.86v-4.38H240.9l-0.06-11.64h-4.5L236.4,110h-6.3l0.06,4.32h6.18V127.1l-8.22,3.6,2.76,3.48,5.52-2.34V146a1.757,1.757,0,0,1-.42,1.2,1.437,1.437,0,0,1-1.14.48q-2.52,0-5.16-.18l1.92,4.32h1.83q1.29,0,2.31-.09a7.488,7.488,0,0,0,1.98-.45,5.14,5.14,0,0,0,2.49-1.74,4.517,4.517,0,0,0,.75-2.64Zm41.7,15.18a12.571,12.571,0,0,1-4.47-3.84,12.442,12.442,0,0,1-2.13-5.04,29.9,29.9,0,0,0,2.49-2.25q0.63-.69,1.11-1.29l-3.06-3a27.148,27.148,0,0,1-3.3,3.12,14.119,14.119,0,0,1-3.42,2.1,19.565,19.565,0,0,0-2.82-3.6q3.06-1.74,3.72-2.25t0.84-.69l7.98-.06,0.06-3.9h-26.64v3.9l11.58,0.12q-4.14,2.28-12.96,3.42l2.4,3.6a51.766,51.766,0,0,0,9.42-2.4,3.043,3.043,0,0,1,.54.57q0.36,0.45.42,0.51a25.236,25.236,0,0,1-5.88,2.94,57.059,57.059,0,0,1-7.8,2.1l2.64,3.36a51.444,51.444,0,0,0,6.3-1.86,39.263,39.263,0,0,0,6.78-3.36l0.72,1.5a30.559,30.559,0,0,1-7.92,4.53,57.023,57.023,0,0,1-8.82,2.37l2.64,3.3a48.283,48.283,0,0,0,8.16-2.58,49.914,49.914,0,0,0,7.02-3.84,11.316,11.316,0,0,1,.09,4.14,2.074,2.074,0,0,1-.75,1.08,7.312,7.312,0,0,1-3.87.09q-2.55-.45-3.51-0.51l1.5,4.2q0.18,0,2.28.12a16.676,16.676,0,0,0,3.42-.09,7.506,7.506,0,0,0,2.34-.75,5.026,5.026,0,0,0,2.46-3.81q0.48-2.73-.72-8.19l1.02-.6q1.86,7.38,7.2,9.84Zm28.26,6.66q1.8-1.022,17.34-6.48,0.6,1.02,1.68,3.06t1.26,2.4q1.56-.72,4.08-2.22a50.1,50.1,0,0,0-4.8-7.86,26.413,26.413,0,0,0-4.32-4.38l-4.02,2.22a18.527,18.527,0,0,1,3.6,3.48l-11.46,3.78V135.5h17.52v-20.52h-22.08l0.06,29.58a3.915,3.915,0,0,1-.72,2.55,5,5,0,0,1-1.74,1.35Zm16.32-32.34,0.06,3.66-13.08-.06v-3.6h13.02Zm0,7.86v4.14h-12.96V127.1h12.96Zm5.64-19.74,0.06-4.32-16.14.06q0.06-.12.36-1.02t0.54-1.68q0.24-.78.36-1.26l-4.14-1.56a26.568,26.568,0,0,1-9,15.06l3.54,3a28.252,28.252,0,0,0,4.05-4.2,20.55,20.55,0,0,0,2.73-4.08h4.38a29.663,29.663,0,0,1,4.08,6.84q0.42-.18.9-0.39t3.12-1.65a22.082,22.082,0,0,0-3.18-4.8h8.34Zm25.74-.18v-4.26l-17.7-.06q0.6-2.04,1.02-4.08l-4.08-1.5a25.943,25.943,0,0,1-3.09,8.01,21.254,21.254,0,0,1-5.79,6.33l3.84,3.06a22.7,22.7,0,0,0,6.24-7.5h5.22A26.5,26.5,0,0,1,348,113.9a10.387,10.387,0,0,0,1.17-.48q0.63-.3,1.59-0.87t1.32-.75a33.293,33.293,0,0,0-3-4.62h9.48Zm-8.4,11.88,0.06,17.34a1.61,1.61,0,0,1-.45,1.14,1.363,1.363,0,0,1-1.17.42l-6.66-.36,1.98,4.68q0.9-.06,3.75,0a12.81,12.81,0,0,0,3.87-.3,7.123,7.123,0,0,0,2.07-1.38,3.46,3.46,0,0,0,.9-1.71,8.069,8.069,0,0,0,.21-1.59V114.8l-18.9-.06v36.9h4.56l-0.06-32.58h9.84Zm17.22,6.66q4.8-.36,10.86-1.38v27.6l4.5-.06V148.4h23.1v3.18l4.5-.06V120.5l-18.24-.12a30.081,30.081,0,0,0,7.74-4.2,48.448,48.448,0,0,0,6.36-5.46l-3.36-3a39.056,39.056,0,0,1-8.49,6.51,49.154,49.154,0,0,1-11.79,4.59,86.837,86.837,0,0,1-17.4,2.4Zm15.42,7.02h23.04v3.6h-23.1Zm-0.06-7.86h23.04l0.06,3.78-23.1.06v-3.84Zm23.04,15.48,0.06,3.66-23.04-.06-0.06-3.6h23.04Zm-22.38-30.42,1.26,4.44,4.86,0.06a5.018,5.018,0,0,0,3.42-.93,3.347,3.347,0,0,0,1.2-2.73L394.076,98h-4.5l-0.06,10.92a1.16,1.16,0,0,1-1.14,1.38Zm-0.72-9.06a43.848,43.848,0,0,1-15.66,11.4l3.72,3.54a45.954,45.954,0,0,0,15.18-11.88Zm35.64,11.7a55.108,55.108,0,0,0-5.55-5.49,32.909,32.909,0,0,0-5.55-3.9,30.642,30.642,0,0,0-4.86-2.19l-3.48,3.12q8.4,2.94,15.6,11.64ZM479.7,146.9q-5.58-.12-11.73-0.81a101.862,101.862,0,0,1-10.83-1.74,28.863,28.863,0,0,1-7.32-2.49,17.87,17.87,0,0,0,2.52-4.53,22.836,22.836,0,0,0,1.38-5.31h17.52v-22.2h-16.68v-4.44l23.22,0.06v-4.26H426.6v4.26l23.52-.06v4.44H432.9l-0.06,22.2h16.32a19.081,19.081,0,0,1-1.23,3.96,16.464,16.464,0,0,1-2.07,3.6,70.974,70.974,0,0,1-8.76-6.84l-3.48,2.34a40.943,40.943,0,0,0,8.7,7.68,52.062,52.062,0,0,1-9.03,3.39,81.429,81.429,0,0,1-8.43,1.89l2.7,4.02a42.162,42.162,0,0,0,17.22-5.7l1.86-1.26a56.076,56.076,0,0,0,11.46,3.99,109.042,109.042,0,0,0,18.78,2.43Zm-12.84-28.2h-12.24l0.06-4.62h12.18v4.62Zm-29.52-4.62,12.78,0.06v4.56h-12.78v-4.62Zm29.58,8.88v4.74H454.2l0.3-4.74h12.42Zm-29.58,0H450l-0.24,4.74-12.42-.06v-4.68Zm59.46,15a110.589,110.589,0,0,0,12.15-5.94,47.989,47.989,0,0,0,6.81-4.86h15.36a25.2,25.2,0,0,1-2.79,3.87,25.978,25.978,0,0,1-4.38,3.99,48.927,48.927,0,0,1-5.85,3.66,18.717,18.717,0,0,0-6.18-6.54l-4.32,2.46q4.8,3.12,6.6,6-9.66,4.2-26.88,7.08l3,4.14a162.114,162.114,0,0,0,17.46-3.96,74.4,74.4,0,0,0,10.59-4.17,44.526,44.526,0,0,0,8.61-5.46,35.838,35.838,0,0,0,6.03-6.09,41.4,41.4,0,0,0,3.57-5.52l0.06-4.02-16.2-.06a27.447,27.447,0,0,0,3.18-4.26l-3.54-1.92a50.186,50.186,0,0,0,8.46-8.52v-4.02h-16.92a43.857,43.857,0,0,0,4.38-4.8l-4.2-2.22q-8.22,10.021-23.16,14.52l3.96,3.72a63.983,63.983,0,0,0,13.14-6.66h16.5a56.774,56.774,0,0,1-5.58,4.68,53.106,53.106,0,0,1-6.36,3.84,23.855,23.855,0,0,0-3.21-3.33,19.1,19.1,0,0,0-3.51-2.61l-4.2,2.7q4.98,2.7,6.72,5.04a68.8,68.8,0,0,1-8.37,2.76q-5.61,1.56-10.35,2.64l2.88,4.02a120.619,120.619,0,0,0,17.64-5.37,73.134,73.134,0,0,0,11.22-5.55,42.236,42.236,0,0,1-10.71,9.69,76.313,76.313,0,0,1-15.09,7.23Z"/>
</svg>
