<svg xmlns="http://www.w3.org/2000/svg" width="320" height="50" viewBox="0 0 320 50">
  <defs>
    <style>
      .cls-1 {
        fill: #4b286d;
        fill-rule: evenodd;
      }
    </style>
  </defs>
  <path id="携手让我们的社区更强大_" data-name="携手让我们的社区更强大 " class="cls-1" d="M39.259,26.5v-1.22H35.433V24.607H38.29v-1.22H35.433V22.736H38.29v-1.22H35.449l-0.017-.652h3.309v-1.22H35.416a4.2,4.2,0,0,0-.485-0.886,7.375,7.375,0,0,0-.752-0.919,12.476,12.476,0,0,0-1.27.568,8.788,8.788,0,0,1,1.253,1.236h-2.44a9.481,9.481,0,0,0,.351-1.387,8.806,8.806,0,0,0-1.12-.468,10.888,10.888,0,0,1-.752,2.323,9.884,9.884,0,0,1-.969,1.738l0.017-.635H27.829V18.09h-1.27v3.125H24.537v1.22h2.022v3.509q-0.385.184-1.329,0.568l-1.145.468,0.936,0.952,1.538-.635v4.11a0.327,0.327,0,0,1-.284.3H24.821q0.067,0.184.217,0.618t0.251,0.652a9.315,9.315,0,0,0,1.421-.033,1.739,1.739,0,0,0,.777-0.51,1.167,1.167,0,0,0,.343-0.794V26.679l1.588-.718q0-.167.017-0.593a4.988,4.988,0,0,0-.017-0.727l-1.588.668V22.435h0.852l-0.585.535,1.019,0.852a6.971,6.971,0,0,0,.969-0.953V26.5h9.174Zm-2.841,2.723a6.336,6.336,0,0,0,.535-0.936V27.214h-7.52v1.22h2.239a4.373,4.373,0,0,1-.317,1.236,3.3,3.3,0,0,1-.618.944,3.191,3.191,0,0,1-.994.694,9.326,9.326,0,0,1-1.813.551l0.836,1.153A7.5,7.5,0,0,0,31,32.042a3.946,3.946,0,0,0,.894-0.81,4.1,4.1,0,0,0,.71-1.278,5.2,5.2,0,0,0,.3-1.521h2.557a4.82,4.82,0,0,1-.8.969v1.036h2.807q-0.017.084-.042,0.384a1.688,1.688,0,0,1-.092.468,0.785,0.785,0,0,1-.167.267,0.515,0.515,0,0,1-.276.134,1.725,1.725,0,0,1-.543-0.025,4.126,4.126,0,0,0-.468-0.058q-0.251-.05-1.571-0.384l0.4,1.37q0.033,0,.978.167a4.015,4.015,0,0,0,1.479.05,1.847,1.847,0,0,0,.852-0.4,1.638,1.638,0,0,0,.209-0.217,1.907,1.907,0,0,0,.284-0.551,5.118,5.118,0,0,0,.192-1.337q0.05-.952.067-1.086H36.419Zm-2.256-7.7H31.355V20.864h2.808v0.652Zm0,1.871H31.355V22.736h2.808v0.652Zm0,1.888H31.355V24.607h2.808v0.668ZM55.4,27.581v-1.22h-6.15v-2.54h4.779V22.6H49.253V20.129a23.2,23.2,0,0,0,5.415-1.32l-0.7-.952A25.247,25.247,0,0,1,48.4,19.009a48.478,48.478,0,0,1-6.367.3l0.752,1.237q3.843-.1,5.2-0.267V22.6h-5.03v1.22h5.03v2.54H41.566v1.22h6.417V31.09a0.536,0.536,0,0,1-.585.585q-0.435.017-2.106-.134l0.468,1.37h2.306a1.12,1.12,0,0,0,1.186-1.337V27.581H55.4Zm16.979,4.562V31.006h-5.13V24.741h4.278v-1.22H67.251V18.107h-1.2v12.9H62.02v1.136H72.381ZM62.789,20.814a6.564,6.564,0,0,0-2.49-2.406l-0.986.685a5.044,5.044,0,0,1,1.328,1.053,5.649,5.649,0,0,1,1.028,1.47ZM64.56,29.3l-0.033-1.32q-0.5.234-1.588,0.752t-1.537.718v-7.2H57.959v1.22H60.2v6.45a0.185,0.185,0,0,1-.1.15,1.4,1.4,0,0,1-.276.134q-0.176.067-.226,0.084l0.835,1.2Zm22.627-9.516a8.139,8.139,0,0,0-1.638-1.211l-1.069.969a6.491,6.491,0,0,1,1.73,1.17,4.872,4.872,0,0,1,1.145,1.6,7.927,7.927,0,0,0,1.07-.919A5.463,5.463,0,0,0,87.187,19.786Zm0.668,9.031a9.507,9.507,0,0,1-.418,2.323q-0.067.184-.343-0.109a13.307,13.307,0,0,1-.927-1.211,7.591,7.591,0,0,1-.669-1.1,14.727,14.727,0,0,0,2.507-3.526l-1.136-.485A12.7,12.7,0,0,1,85,27.447a18.358,18.358,0,0,1-.668-3.191h4.328v-1.27H84.213q-0.067-.818-0.109-2.414t-0.042-2.7H82.776a50.017,50.017,0,0,0,.1,5.113H79.767V20.263q0.217-.083.593-0.276t1.93-1.094l-0.836-.952A20.353,20.353,0,0,1,79.258,19a10.975,10.975,0,0,1-1.947.56,13.563,13.563,0,0,1-2.39.217,10.461,10.461,0,0,1,.785,1.253,11.637,11.637,0,0,0,1.437-.15,7.137,7.137,0,0,0,1.3-.3v2.406H75.022v1.27h3.426v2.79q-2.039.518-3.86,0.869l0.936,1.22,2.924-.785v2.724a0.424,0.424,0,0,1-.109.3,0.42,0.42,0,0,1-.276.134l-2.055-.05,0.468,1.3q0.234-.017.9,0a8.259,8.259,0,0,0,1.044-.025,2.7,2.7,0,0,0,.643-0.142,1.311,1.311,0,0,0,.7-1.153V27.982l2.59-.685V26.01l-2.59.652V24.256h3.225a20.556,20.556,0,0,0,.936,4.194,15.923,15.923,0,0,1-3.777,2.423l1.12,0.936A17.745,17.745,0,0,0,84.513,29.7a9.073,9.073,0,0,0,1.8,2.272,2.82,2.82,0,0,0,1.1.677,1.786,1.786,0,0,0,.618.008,1.181,1.181,0,0,0,.551-0.585,10.283,10.283,0,0,0,.568-2.757Zm11.263-8A5.982,5.982,0,0,0,97.1,18.241l-1.036.635A6.88,6.88,0,0,1,98,21.5Zm6.15-1.988H99.253v1.22H104V30.99a0.489,0.489,0,0,1-.05.267,0.226,0.226,0,0,1-.151.084l-1.905-.134,0.451,1.32a8.294,8.294,0,0,0,1.989-.05,1.11,1.11,0,0,0,.936-1.053v-12.6Zm-7.738,13.9V21.633h-1.27V32.727h1.27ZM94.473,17.79a19.664,19.664,0,0,1-1.362,4.946,13.782,13.782,0,0,1-2.3,3.559l0.969,0.869a10.321,10.321,0,0,0,.886-1.078,7.812,7.812,0,0,0,.719-1.161v7.8h1.27V22.335a33.689,33.689,0,0,0,.986-4.177ZM119.457,28.2a12.558,12.558,0,0,0-.986-2.089,14.709,14.709,0,0,0-1.454-1.988l-1.036.685a14.132,14.132,0,0,1,2.272,3.927Zm-2.24-7.6q0.068-.234.276-0.869t0.3-1q0.092-.367.142-0.652l-1.337-.3a15.629,15.629,0,0,1-2.507,6.433V20.847h-2.556a11.044,11.044,0,0,0,.9-2.456l-1.2-.485a10.384,10.384,0,0,1-1.02,2.941h-1.537V32.427H110V31.073h2.774v1.086h1.32V24.707l0.869,0.551A13.729,13.729,0,0,0,116.9,21.75h3.559q-0.066,2.941-.2,4.587t-0.351,2.816a10.511,10.511,0,0,1-.552,1.972,0.639,0.639,0,0,1-.635.3,12.4,12.4,0,0,1-2.523-.7l0.217,1.4a16.481,16.481,0,0,0,2.2.518,2.931,2.931,0,0,0,.777,0,1.312,1.312,0,0,0,.785-0.493,2.911,2.911,0,0,0,.5-0.894,16.708,16.708,0,0,0,.543-2.155q0.208-1.136.292-2.155t0.125-1.922q0.042-.9.059-2.439t0.033-1.988h-4.512Zm-4.445,4.7H110V22.067h2.774v3.225Zm0,4.562H110V26.512h2.774v3.342Zm26.788,1.921v-1.27h-4.412V24.54h3.794l0.033-1.22h-3.827V17.973h-1.32V23.32h-3.609v1.22h3.609v5.965h-4.345v1.27H139.56ZM128.13,19.018a13,13,0,0,0-.969-1.161l-1.087.6a7.906,7.906,0,0,1,1.688,2.724,6.034,6.034,0,0,0,.644-0.317q0.392-.217.543-0.284A6.7,6.7,0,0,0,128.13,19.018Zm3.476,8.48a14.628,14.628,0,0,0-1.437-1.462,5.231,5.231,0,0,0-1.053-.71l-0.485.485-0.017-.585a15.354,15.354,0,0,0,1.805-2.874v-1.1h-5.531l-0.034,1.22h4.111a14.46,14.46,0,0,1-1.9,2.49,21.46,21.46,0,0,1-2.616,2.256l0.953,1.053a12.9,12.9,0,0,0,1.905-1.654v6.316h1.32v-6.5a5.756,5.756,0,0,1,.978.852q0.559,0.585,1.011,1.136Zm22.56,2.222q-0.334-.618-0.869-1.429a19.851,19.851,0,0,0-1.212-1.637q-0.677-.827-1.261-1.445l0.835-1.153q0.7-1.086,1.6-2.857l-1.069-.585a40.215,40.215,0,0,1-2.273,3.626,36.728,36.728,0,0,0-4.044-3.576l-0.952.785q1.168,0.886,2.322,1.93t1.972,1.947a16.129,16.129,0,0,1-4.579,4.161l0.986,1.069a23.109,23.109,0,0,0,2.808-2.339,16.214,16.214,0,0,0,1.638-1.9q0.718,0.8,1.47,1.8a18.948,18.948,0,0,1,1.254,1.871l0.267,0.468Zm1.738,2.473v-1.2h-12.1V20.129h11.547v-1.2H142.535l0.017,13.267H155.9Zm17.3-.652q-1.554-.033-3.267-0.226a28.3,28.3,0,0,1-3.016-.485,8.031,8.031,0,0,1-2.039-.694,5.008,5.008,0,0,0,.7-1.261,6.385,6.385,0,0,0,.384-1.479h4.88V21.2h-4.629V20.012h6.45v-1.22H158.411v1.22h6.534V21.2h-4.8v6.2h4.545a5.292,5.292,0,0,1-.343,1.1,4.55,4.55,0,0,1-.576,1,19.664,19.664,0,0,1-2.44-1.9l-0.969.652a11.387,11.387,0,0,0,2.423,2.139,14.5,14.5,0,0,1-2.515.944,22.618,22.618,0,0,1-2.348.526l0.752,1.119a11.742,11.742,0,0,0,4.8-1.587l0.518-.351a15.621,15.621,0,0,0,3.192,1.111,30.385,30.385,0,0,0,5.231.677Zm-3.56-7.87h-3.425V22.418h3.425v1.253Zm0,2.506H166.1l0.083-1.287h3.459v1.287Zm-4.695-2.506h-3.526V22.418h3.526v1.253Zm-0.017,1.22-0.067,1.287h-3.442V24.891h3.509Zm24.616,7.419a6.237,6.237,0,0,0-1.187-1.646A9.751,9.751,0,0,0,186.8,29.3l-1.1.568,1.036,0.835-1.487.251V28.55h2.022v0.835h1.27v-5.5h-3.292V23.2h2.674v-4.06h-6.4V23.2h2.457v0.685H180.77V29.6h1.27V28.55h1.939v2.523q-2.424.268-3.777,0.334l0.685,1.253,6.8-.886,0.8,1.22Zm-12.968-6.583,0.384-2.239h3.309V18.976h-5.331v1.2H179v2.105h-3.025l-0.8,4.645h3.793q-0.033.251-.125,1.153t-0.184,1.42q-0.091.518-.125,0.7-0.017.05-.084,0.434a3.476,3.476,0,0,1-.158.627,1.247,1.247,0,0,1-.218.384,0.333,0.333,0,0,1-.326.109l-1.905-.284,0.335,1.3,0.551,0.092q0.451,0.075.827,0.117a3.1,3.1,0,0,0,.677.008,1.248,1.248,0,0,0,.735-0.426,2.19,2.19,0,0,0,.518-0.76,32.117,32.117,0,0,0,.819-6.082h-3.726ZM186.653,22h-3.928V20.346h3.928V22Zm0.618,5.347h-2.022V25.091h2.022v2.256Zm-3.292,0H182.04V25.091h1.939v2.256Zm22.159,4.144a12.963,12.963,0,0,1-2.791-2.122,9.659,9.659,0,0,1-1.788-2.565,14.479,14.479,0,0,1-1.086-3.534h4.913V22h-6a39.769,39.769,0,0,0,.084-4.01q-0.166-.033-0.618-0.084a6.405,6.405,0,0,1-.736-0.117A34.982,34.982,0,0,1,198,22h-5.213v1.27h5.1a12.439,12.439,0,0,1-.668,2.373,10.84,10.84,0,0,1-1.17,2.2,9.922,9.922,0,0,1-1.746,1.922,10.483,10.483,0,0,1-2.331,1.5l0.952,1.153a14.627,14.627,0,0,0,2.423-1.654,10.409,10.409,0,0,0,1.788-1.963,11.2,11.2,0,0,0,1.271-2.439,18.789,18.789,0,0,0,.852-3.083,15.818,15.818,0,0,0,.894,3.567,10.663,10.663,0,0,0,1.353,2.456,10.174,10.174,0,0,0,1.747,1.8,18.645,18.645,0,0,0,1.988,1.4Z"/>
</svg>
