<svg xmlns="http://www.w3.org/2000/svg" width="320" height="50" viewBox="0 0 320 50">
  <defs>
    <style>
      .cls-1 {
        fill: #4b286d;
        fill-rule: evenodd;
      }
    </style>
  </defs>
  <path id="去年_我们投入了_140万小时志愿服务时间_" data-name="去年，我们投入了 140万小时志愿服务时间 " class="cls-1" d="M61.87,19.3a8.573,8.573,0,0,0-2.022-1.8l-1.32.7a7.972,7.972,0,0,1,1.228.76,5.145,5.145,0,0,1,.894.877l-7.353.618a16.119,16.119,0,0,0,3.426-4.244h6.551v-1.22H57.442V11.967h4.579v-1.2l-4.579-.033,0.033-2.857H56.121V10.73l-4.6-.033v1.27h4.6v3.024H50.289v1.22h4.9a16.657,16.657,0,0,1-1.93,2.54,12.6,12.6,0,0,1-2.431,2.089l0.8,1.2q2.323-.418,5.632-0.685t3.7-.3l0.577-.05a13.023,13.023,0,0,1,.936,1.7,3.875,3.875,0,0,0,.635-0.351q0.384-.251.535-0.334A14.079,14.079,0,0,0,61.87,19.3h0ZM80.3,18.1v-1.22H74.537V14.156H78.8v-1.22H74.537V10.764h5.08V9.544H70.259q0.217-.718.259-0.936t0.059-.368l-1.07-.518a10.892,10.892,0,0,1-3.091,5.547l1.053,0.852a9.212,9.212,0,0,0,1.111-1.278,14.123,14.123,0,0,0,1.195-2.08h3.442v2.172H68.789v3.943H66.7V18.1h6.517v4.812h1.32V18.1H80.3Zm-7.086-1.22H70.059V14.156h3.158v2.724Zm17.647-2.907H89.026V15.81h0.9a1.655,1.655,0,0,1-1,1.654l0.485,0.618a2.4,2.4,0,0,0,.861-0.652,2.47,2.47,0,0,0,.46-0.844,2.97,2.97,0,0,0,.134-0.86V13.972Zm21.157-4.186a8.154,8.154,0,0,0-1.638-1.211l-1.07.969a6.493,6.493,0,0,1,1.73,1.17,4.878,4.878,0,0,1,1.145,1.6,7.92,7.92,0,0,0,1.069-.919A5.469,5.469,0,0,0,112.021,9.786Zm0.668,9.031a9.457,9.457,0,0,1-.418,2.323c-0.044.123-.159,0.086-0.342-0.109A13.353,13.353,0,0,1,111,19.82a7.527,7.527,0,0,1-.668-1.1,14.727,14.727,0,0,0,2.506-3.526l-1.136-.485a12.663,12.663,0,0,1-1.872,2.74,18.355,18.355,0,0,1-.668-3.191h4.328v-1.27h-4.445q-0.068-.818-0.109-2.414t-0.041-2.7h-1.287a49.9,49.9,0,0,0,.1,5.113H104.6V10.263q0.216-.083.593-0.276t1.93-1.094l-0.835-.952A20.364,20.364,0,0,1,104.091,9a10.957,10.957,0,0,1-1.947.56,13.55,13.55,0,0,1-2.39.217,10.477,10.477,0,0,1,.786,1.253,11.629,11.629,0,0,0,1.437-.15,7.153,7.153,0,0,0,1.3-.3v2.406H99.855v1.27h3.426v2.79q-2.04.518-3.861,0.869l0.936,1.22,2.925-.785v2.724a0.426,0.426,0,0,1-.109.3,0.422,0.422,0,0,1-.276.134l-2.055-.05,0.468,1.3c0.156-.011.456-0.011,0.9,0a8.249,8.249,0,0,0,1.044-.025,2.7,2.7,0,0,0,.644-0.142,1.311,1.311,0,0,0,.7-1.153V17.982l2.59-.685V16.01l-2.59.652V14.256h3.225a20.575,20.575,0,0,0,.936,4.194,15.937,15.937,0,0,1-3.777,2.423l1.12,0.936a17.76,17.76,0,0,0,3.242-2.105,9.062,9.062,0,0,0,1.805,2.272,2.819,2.819,0,0,0,1.1.677,1.79,1.79,0,0,0,.619.008,1.182,1.182,0,0,0,.551-0.585,10.256,10.256,0,0,0,.568-2.757Zm11.263-8A5.129,5.129,0,0,0,123.1,9.36a5.137,5.137,0,0,0-1.17-1.12l-1.036.635a6.888,6.888,0,0,1,1.939,2.623Zm6.15-1.988h-6.016v1.22h4.746V20.99a0.489,0.489,0,0,1-.05.267,0.226,0.226,0,0,1-.15.084l-1.906-.134,0.452,1.32a8.283,8.283,0,0,0,1.988-.05,1.11,1.11,0,0,0,.936-1.053V8.826Zm-7.737,13.9V11.633H121.1V22.727h1.27ZM119.307,7.79a19.655,19.655,0,0,1-1.362,4.946,13.775,13.775,0,0,1-2.3,3.559l0.969,0.869a10.371,10.371,0,0,0,.886-1.078,7.778,7.778,0,0,0,.718-1.161v7.8h1.27V12.335a33.506,33.506,0,0,0,.986-4.177Zm28.242,6.115V12.752h-1.671a0.393,0.393,0,0,1-.468-0.418V8.742h-5.716q-0.016,1.8-.092,2.364a7.107,7.107,0,0,1-.142.81,3.223,3.223,0,0,1-1.972,1.955l1,1a5.251,5.251,0,0,0,1.955-1.972,3.832,3.832,0,0,0,.41-1.287q0.091-.685.142-1.654h3.142v2.389a2.242,2.242,0,0,0,.083.568,1.246,1.246,0,0,0,.4.6,1.741,1.741,0,0,0,.869.384h2.056Zm0.367,7.8a10.146,10.146,0,0,1-4.261-2.155,7.332,7.332,0,0,0,2.289-4.779h-7.018v1.22h0.869a11.041,11.041,0,0,0,1.988,3.476,12.459,12.459,0,0,1-4.395,2.222l0.852,1.119a13.909,13.909,0,0,0,2.424-1.044,12.312,12.312,0,0,0,2.022-1.378,18.187,18.187,0,0,0,2.164,1.479,8.937,8.937,0,0,0,2.247,1.011Zm-9.241-9.34v-1.22h-1.922V8.057h-1.27v3.091h-2.172v1.22h2.172v3.776a26.5,26.5,0,0,1-2.724.769l0.786,1.1c0.066-.022.2-0.061,0.392-0.117s0.479-.147.853-0.276,0.6-.209.693-0.242v3.876a0.319,0.319,0,0,1-.125.267,0.327,0.327,0,0,1-.259.117,11.372,11.372,0,0,1-1.755-.067l0.418,1.253q0.15,0,.76.017a6.7,6.7,0,0,0,.944-0.025,2.4,2.4,0,0,0,.552-0.125,1.241,1.241,0,0,0,.5-0.376,0.864,0.864,0,0,0,.234-0.56V16.98a8.5,8.5,0,0,1,.869-0.3,7.731,7.731,0,0,0,1-.368v-1.22l-1.872.618V12.368h1.922Zm5.765,3.626a5.53,5.53,0,0,1-.66,1.378,8.224,8.224,0,0,1-1.028,1.228,4.015,4.015,0,0,1-.877-1.128,7.877,7.877,0,0,1-.727-1.479h3.292Zm19.753,5.3a14.136,14.136,0,0,1-2.147-1.654,14.846,14.846,0,0,1-2.014-2.272,15.25,15.25,0,0,1-1.421-2.348A13.721,13.721,0,0,1,157.826,13a11.071,11.071,0,0,0-.627-1.529,6.52,6.52,0,0,0-1.136-1.629,3.272,3.272,0,0,0-1.529-.969l-1.12,1.053a2.637,2.637,0,0,1,.853.292,3.678,3.678,0,0,1,.96.769,5.422,5.422,0,0,1,.844,1.195,4.039,4.039,0,0,1,.435,1.17,13.415,13.415,0,0,1-2.574,4.687,14.853,14.853,0,0,1-4.361,3.317l0.919,1.053a14.211,14.211,0,0,0,6.751-7.135,12.664,12.664,0,0,0,1.462,2.774,15.613,15.613,0,0,0,2.19,2.582,14.439,14.439,0,0,0,2.264,1.8ZM179.1,8.859H168.12v1.22h9.091a15.132,15.132,0,0,1-4.027,2.957v7.586a0.631,0.631,0,0,1-.092.334,0.314,0.314,0,0,1-.192.167h-2.658l0.6,1.337,2.457-.033a1.089,1.089,0,0,0,.894-0.434,1.442,1.442,0,0,0,.309-0.869V13.688A14.736,14.736,0,0,0,179.1,9.962v-1.1ZM31.966,28.877H30.83c-0.3,1.437-1.17,1.8-2.707,1.905l-0.267.017v1.1h2.707v8.873h1.4v-11.9Zm10.311,7.654h-1.6V28.877H39.152l-5.85,7.57V37.8h5.967v2.974h1.4V37.8h1.6v-1.27Zm-3.008-5.815v5.815h-4.5Zm8.322,10.327c2.891,0,4.312-2.273,4.312-6.217s-1.421-6.216-4.312-6.216-4.312,2.273-4.312,6.216S44.7,41.042,47.591,41.042Zm0-1.27c-1.838,0-2.841-1.638-2.841-4.946s1-4.946,2.841-4.946,2.841,1.638,2.841,4.946S49.429,39.772,47.591,39.772ZM68.6,29.714v-1.27H54.158v1.27h4.579q-0.067,2.857-.142,3.651a14.4,14.4,0,0,1-.209,1.462,7.638,7.638,0,0,1-.368,1.27,10.444,10.444,0,0,1-1.161,2.1,8.964,8.964,0,0,1-1.546,1.713,9.627,9.627,0,0,1-1.521,1.069l1.1,1.086A9.6,9.6,0,0,0,58.052,39a11.939,11.939,0,0,0,1.688-4.1q0.134-.718.217-1.47H64.7a39.712,39.712,0,0,1-.4,4.929,5.659,5.659,0,0,1-.568,1.788,0.537,0.537,0,0,1-.334.2,1.727,1.727,0,0,1-.627.025,3.273,3.273,0,0,1-.677-0.142q-0.084-.033-0.418-0.142a5.057,5.057,0,0,1-.551-0.209L61.31,41.36a7.59,7.59,0,0,0,1.563.434,3.39,3.39,0,0,0,.677,0,1.972,1.972,0,0,0,.852-0.368,1.932,1.932,0,0,0,.6-0.652,8.689,8.689,0,0,0,.66-2.481q0.259-1.7.543-6.141H60.023q0.067-1.37.067-2.439H68.6Zm16.344,6.6a10.9,10.9,0,0,0-1.429-3.041,14.461,14.461,0,0,0-2.381-2.757l-1.186.635A13.161,13.161,0,0,1,83.737,36.9Zm-6.417-9.207H77.2V39.639a0.488,0.488,0,0,1-.142.326,0.413,0.413,0,0,1-.309.159q-1.3.034-2.457-.05l0.552,1.37q0.217-.017,1.3.008a3.344,3.344,0,0,0,1.755-.359,1.115,1.115,0,0,0,.476-0.56,2.448,2.448,0,0,0,.142-0.894V27.107Zm-4.5,3.425a13.46,13.46,0,0,1-1.345,2.957A13.272,13.272,0,0,1,70.635,36.1l1.036,0.869A13.94,13.94,0,0,0,75.147,31.1Zm27.624,1.153v-1.22H99.9V26.923h-1.27v3.542h-5.2v1.22h5.2v8.588a0.259,0.259,0,0,1-.075.209,0.207,0.207,0,0,1-.192.092l-1.5-.117,0.485,1.353H98.86a0.934,0.934,0,0,0,.727-0.359,1.276,1.276,0,0,0,.309-0.861V31.685h1.755Zm-4.245,4.979a7.786,7.786,0,0,0-1.128-1.988A9.217,9.217,0,0,0,94.7,32.955l-1,.7a8.183,8.183,0,0,1,1.186,1.253,10.875,10.875,0,0,1,.978,1.437,7.3,7.3,0,0,1,.493,1.036Zm-4.813,3.86V29.513H87.881V40.524h1.27V39.288h2.172v1.236h1.27Zm-1.27-6.734H89.151V30.733h2.172v3.058Zm0,4.277H89.151V35.01h2.172v3.058Zm26.721-7.352V29.5h-6.3V26.973h-1.27V29.5h-6.267v1.22h6.267v2.557h-5.03v1.22h11.3v-1.22h-5V30.716h6.3Zm-0.493,6.842a14.7,14.7,0,0,0-1.663-1.663L115,36.681a11.833,11.833,0,0,1,2.758,3.442q0.3-.184,1.053-0.735A12.243,12.243,0,0,0,117.552,37.559Zm-4.47-.075a14.3,14.3,0,0,0-2.708-2.807l-0.969.752A9.656,9.656,0,0,1,112,38.352Zm1.1,0.2q-0.067.184-.243,0.827a3.479,3.479,0,0,1-.384.961,0.979,0.979,0,0,1-.543.418h-3.409a0.492,0.492,0,0,1-.418-0.3V36.13h-1.27v3.893a1.254,1.254,0,0,0,.2.526,1.124,1.124,0,0,0,.51.409,1.746,1.746,0,0,0,.71.15h3.46a1.777,1.777,0,0,0,1.353-.434,3.034,3.034,0,0,0,.493-0.71,6.714,6.714,0,0,0,.41-1.069q0.2-.66.284-0.894Zm-8.022-1.755a11.091,11.091,0,0,1-2.523,3.759l1.036,0.752a11.058,11.058,0,0,0,2.573-3.96,11.211,11.211,0,0,0-1.086-.551h0ZM134.906,36.4a8.765,8.765,0,0,0-3.776-2.239l-0.836.869a8.654,8.654,0,0,1,3.744,2.273Zm0.669,3.759a7.7,7.7,0,0,0-1.095-1.8,6.716,6.716,0,0,0-1.144-1.061l-1.153.585a5.407,5.407,0,0,1,.827.718,5.259,5.259,0,0,1,.643.835q0.267,0.435.51,0.919c0.161,0.323.248,0.49,0.259,0.5Zm-0.4-11.663v-1.22h-13.3v6.55a22.141,22.141,0,0,1-.151,2.7,11.487,11.487,0,0,1-.509,2.289,6.369,6.369,0,0,1-1,1.88l0.97,0.869a8.506,8.506,0,0,0,1.144-2.122,12.635,12.635,0,0,0,.627-2.448,17.24,17.24,0,0,0,.2-2.648V28.494h4.713a2.6,2.6,0,0,0-.192.409,1.19,1.19,0,0,1-.192.359h-2.908v4.762h3.927v1.6a0.281,0.281,0,0,1-.092.217,0.293,0.293,0,0,1-.242.067l-1.471-.067,0.418,1.2h1.4l-0.619.4a5.938,5.938,0,0,1,1.789,1.871l1.036-.769a4.218,4.218,0,0,0-.694-0.852,5.867,5.867,0,0,0-.927-0.752,0.994,0.994,0,0,0,.685-1.053V34.025h3.877V29.263h-4.679l0.367-.769h5.816ZM131.5,38.553a3.879,3.879,0,0,1-.334,1.378,0.556,0.556,0,0,1-.451.309h-2.791a0.374,0.374,0,0,1-.242-0.109,0.315,0.315,0,0,1-.125-0.242V37.5h-1.271v2.623a1.283,1.283,0,0,0,.385.961,1.351,1.351,0,0,0,.986.376h3.392a1.526,1.526,0,0,0,.9-0.468,1.992,1.992,0,0,0,.417-0.718,7.881,7.881,0,0,0,.385-1.22Zm-5.464-4.445a5.72,5.72,0,0,1-1.061,1.078,9.622,9.622,0,0,1-1.864,1.078l0.9,0.969a14.186,14.186,0,0,0,2.08-1.4,6.862,6.862,0,0,0,.978-1.069ZM124.5,37.383a5.057,5.057,0,0,1-.76,1.554,7.706,7.706,0,0,1-1.195,1.27l0.986,0.9a6.3,6.3,0,0,0,1.253-1.37,6.556,6.556,0,0,0,.8-1.738Zm7.905-6.266h-6.551v-0.7H132.4v0.7Zm0,1.821h-6.551V32.22H132.4v0.718Zm19.769,7.92a18.09,18.09,0,0,1-1.938-1.4,7.171,7.171,0,0,1-.669-0.685,16.005,16.005,0,0,0,1.053-2.556,13.114,13.114,0,0,0,.585-2.974h-5.448V28.912h3.994q-0.033.384-.134,1.061a5.69,5.69,0,0,1-.2.961,0.289,0.289,0,0,1-.268.251,9.2,9.2,0,0,1-1.128-.134c-0.462-.078-0.766-0.128-0.91-0.15l0.367,1.337a7.949,7.949,0,0,0,1.889.117,1.6,1.6,0,0,0,.819-0.326,1.227,1.227,0,0,0,.5-0.71,20.451,20.451,0,0,0,.5-3.626h-6.7V41.945l1.27-.033V34.459h0.618a10.682,10.682,0,0,0,1.688,4.445,11.224,11.224,0,0,1-2.222,2.206q0.066,0.067.376,0.409t0.493,0.51q0.651-.535,1.286-1.153a10.333,10.333,0,0,0,.92-0.986,12.641,12.641,0,0,0,1.086.969,12.431,12.431,0,0,0,1.42.952Zm-8.756-13.167h-4.78v7.7a18.209,18.209,0,0,1-.142,2.431,7.52,7.52,0,0,1-.485,1.871,6.855,6.855,0,0,1-.827,1.479l1.036,0.785a7.309,7.309,0,0,0,1.437-3.267q0.151-.911.234-2.114h2.256v3.158a0.49,0.49,0,0,1-.3.484,6.076,6.076,0,0,1-.97.033q-0.618-.016-0.852-0.017,0.435,1.119.485,1.287h1.487a1.464,1.464,0,0,0,.752-0.217,1.436,1.436,0,0,0,.518-0.468,0.871,0.871,0,0,0,.151-0.418V27.692Zm6.433,6.767a17.79,17.79,0,0,1-.559,1.855q-0.294.786-.56,1.337a8.529,8.529,0,0,1-.752-1.746,9.316,9.316,0,0,1-.351-1.445h2.222Zm-7.7-2.974H139.9V28.912h2.239v2.573Zm0.017,1.22-0.033,2.657H139.9V32.7h2.256Zm26.855,1.5a31.3,31.3,0,0,1-5.147-1.4q-0.15-.083-0.618-0.284a4.032,4.032,0,0,1-.585-0.284,18.813,18.813,0,0,0,1.846-1.5,13.384,13.384,0,0,0,1.179-1.261V28.36h-6.267l0.4-.819-1.1-.618a7.291,7.291,0,0,1-1.838,2.866,8.433,8.433,0,0,1-2.758,1.629l0.953,1.153a7.241,7.241,0,0,0,1.671-.961,8.444,8.444,0,0,0,1.387-1.312,4.42,4.42,0,0,0,.694.735q0.408,0.351.9,0.71t0.66,0.476l-1.32.668a30.756,30.756,0,0,1-5.481,1.42l0.518,1.2a25.793,25.793,0,0,0,4.077-.977,13.888,13.888,0,0,0,3.359-1.546,15.563,15.563,0,0,0,3,1.354,34.52,34.52,0,0,0,3.651.986Zm-7.47,1.4a3.665,3.665,0,0,0,.025-0.618q-0.007-.417-0.008-0.668l-1.237-.167q-0.017.368-.025,0.81t-0.025.643h-4.98v1.22h4.78a3.561,3.561,0,0,1-.635,1.337,5.492,5.492,0,0,1-1.864,1.52,11.8,11.8,0,0,1-3.5.986,2.332,2.332,0,0,0,.126.276q0.075,0.142.543,0.977a14.452,14.452,0,0,0,2.064-.56,8.207,8.207,0,0,0,1.829-.844,7.706,7.706,0,0,0,1.387-1.186,5.368,5.368,0,0,0,.945-1.345,5.241,5.241,0,0,0,.409-1.161h3.61q-0.035.618-.368,2.59a3.209,3.209,0,0,1-.251.944,0.859,0.859,0,0,1-.25.259,2.18,2.18,0,0,1-.66,0q-0.327-.05-1.546-0.4l0.317,1.454q0.133,0.016.719,0.125a4.3,4.3,0,0,0,.936.092,2.906,2.906,0,0,0,.6-0.084,1.534,1.534,0,0,0,.66-0.409,1.661,1.661,0,0,0,.427-0.693,17.992,17.992,0,0,0,.718-5.1h-4.746Zm2.407-6.032a11.035,11.035,0,0,1-1.1.978q-0.669.526-1.337,0.961-1.254-.8-1.713-1.17A5.466,5.466,0,0,1,159,29.58h4.947Zm21.256,2.105v-1.22h-1.754V26.923h-1.27v3.542h-5.2v1.22h5.2v8.588a0.26,0.26,0,0,1-.076.209,0.206,0.206,0,0,1-.192.092l-1.5-.117,0.485,1.353h1.521a0.932,0.932,0,0,0,.726-0.359,1.277,1.277,0,0,0,.31-0.861V31.685h1.754Zm-4.244,4.979a7.81,7.81,0,0,0-1.128-1.988,9.215,9.215,0,0,0-1.58-1.721l-1,.7a8.2,8.2,0,0,1,1.186,1.253,10.911,10.911,0,0,1,.978,1.437,7.313,7.313,0,0,1,.493,1.036Zm-4.813,3.86V29.513h-4.713V40.524h1.27V39.288h2.173v1.236h1.27Zm-1.27-6.734h-2.173V30.733h2.173v3.058Zm0,4.277h-2.173V35.01h2.173v3.058Zm25.9-10.142h-6.935v1.22h5.665V40.057a0.785,0.785,0,0,1-.042.343,0.4,0.4,0,0,1-.242.092,8.577,8.577,0,0,1-1.4-.1l0.368,1.17a11.454,11.454,0,0,0,1.537,0,1.1,1.1,0,0,0,.761-0.409,1.3,1.3,0,0,0,.292-0.844V27.926Zm-7.921,1.587a9.575,9.575,0,0,0-1.237-1.4,8.021,8.021,0,0,0-1.32-1.044l-1.019.685a9.983,9.983,0,0,1,2.59,2.557Zm4.813,10.009V31.2h-6.317v8.321h1.27V38.653H196.4v0.869h1.27Zm-8.306,2.256V29.814H188.1V41.778h1.27Zm7.036-7.686h-3.777V32.42H196.4v1.671Zm0,3.342h-3.777V35.311H196.4v2.122Z"/>
</svg>
