<svg xmlns="http://www.w3.org/2000/svg" width="728" height="90" viewBox="0 0 728 90">
  <defs>
    <style>
      .cls-1 {
        fill: #4c286c;
        fill-rule: evenodd;
      }
    </style>
  </defs>
  <path class="cls-1" d="M277.99,46.228V40.792a10.456,10.456,0,0,1-1.453,1.428l-1.527-1.277,0.876-.8H274.61V44.45l2.378-1a7.587,7.587,0,0,1,.025,1.09c-0.017.426-.025,0.723-0.025,0.889L274.61,46.5v7.44a1.753,1.753,0,0,1-.514,1.19,2.6,2.6,0,0,1-1.164.764,13.923,13.923,0,0,1-2.128.05q-0.151-.326-0.376-0.977t-0.325-.928h2.178a0.488,0.488,0,0,0,.425-0.45V47.431l-2.3.952L269,46.955q0.3-.126,1.715-0.7t1.99-.852V40.141h-3.029V38.313h3.029V33.628h1.9v4.685h2.128l-0.026.952a14.777,14.777,0,0,0,1.453-2.605,16.338,16.338,0,0,0,1.126-3.482,13.179,13.179,0,0,1,1.678.7,14.218,14.218,0,0,1-.526,2.079H284.1a13.13,13.13,0,0,0-1.877-1.854,18.761,18.761,0,0,1,1.9-.852,11.072,11.072,0,0,1,1.126,1.378,6.289,6.289,0,0,1,.726,1.328h4.983v1.828H286l0.025,0.977h4.256v1.829H286v0.977h4.281V43.4H286v1h5.733v1.828H277.99Zm13.019,4.083q-0.025.2-.1,1.628a7.652,7.652,0,0,1-.288,2,2.862,2.862,0,0,1-.426.827,2.5,2.5,0,0,1-.313.326,2.766,2.766,0,0,1-1.277.6,6.006,6.006,0,0,1-2.216-.075q-1.414-.251-1.464-0.251l-0.6-2.054q1.977,0.5,2.353.576a6.276,6.276,0,0,1,.7.087,2.6,2.6,0,0,0,.813.038,0.773,0.773,0,0,0,.413-0.2,1.177,1.177,0,0,0,.251-0.4,2.544,2.544,0,0,0,.137-0.7q0.037-.452.063-0.576H284.85V50.587a7.237,7.237,0,0,0,1.2-1.453h-3.83a7.8,7.8,0,0,1-.451,2.279,6.151,6.151,0,0,1-1.064,1.917,5.918,5.918,0,0,1-1.339,1.214A11.23,11.23,0,0,1,276.012,56L274.76,54.27a13.991,13.991,0,0,0,2.716-.827,4.787,4.787,0,0,0,1.49-1.039,4.938,4.938,0,0,0,.926-1.416,6.55,6.55,0,0,0,.476-1.853h-3.355V47.305H288.28v1.6a9.618,9.618,0,0,1-.8,1.4h3.53ZM284.1,37.786h-4.206v0.977H284.1V37.786Zm0,2.806h-4.206v0.977H284.1V40.592Zm0,2.806h-4.206v1H284.1v-1Zm22.609,4.459v5.988q0,2-1.777,2h-3.455l-0.7-2.055q2.5,0.226,3.154.2a0.8,0.8,0,0,0,.877-0.877v-5.26H295.19V46.027h9.615V42.22h-7.536V40.391h7.536V36.909q-2.028.251-7.787,0.4l-1.127-1.854a72.611,72.611,0,0,0,9.54-.451,37.776,37.776,0,0,0,8.337-1.729l1.052,1.428a34.774,34.774,0,0,1-8.113,1.979v3.707h7.161V42.22h-7.161v3.807h9.214v1.829h-9.214Zm16.751,5.862-1.252-1.8c0.05-.016.163-0.058,0.338-0.125a2.135,2.135,0,0,0,.413-0.2,0.278,0.278,0,0,0,.15-0.226V41.694h-3.355V39.866h5.158v10.8q0.675-.3,2.3-1.076t2.379-1.127l0.05,1.979Zm1.853-14.805a8.481,8.481,0,0,0-1.54-2.2,7.574,7.574,0,0,0-1.991-1.578l1.477-1.027a9.839,9.839,0,0,1,3.731,3.607ZM325.836,54.7v-1.7h6.034V33.653h1.8v8.116h6.41V43.6h-6.41v9.393h7.687v1.7H325.836Zm30.6-20.115a20.485,20.485,0,0,1-7.036,2.53v1.854h5.734V46.9h-5.708a21.01,21.01,0,0,1-1.215,5.574A13.231,13.231,0,0,1,346.041,56l-1.677-1.127A13.015,13.015,0,0,0,347.419,46v-10.5a17.808,17.808,0,0,0,7.561-2.355Zm-3.205,6.313-3.831-.05v4.234h3.831V40.892Zm10.466,2.029V55.747h-1.9V42.921h-2.979a9.976,9.976,0,0,0-.05,1.228q0,0.877-.025,1.2a19.75,19.75,0,0,1-2.254,8.342,8.939,8.939,0,0,1-.939,1.265q-0.688.813-.713,0.839l-1.8-1.1a11.009,11.009,0,0,0,2.128-2.818,13.249,13.249,0,0,0,1.227-3.444,19.323,19.323,0,0,0,.4-4.033V35.983A15.474,15.474,0,0,0,360,35.356a17.539,17.539,0,0,0,2.917-1.14q1.251-.638,2.028-1.139l1.478,1.478a19.649,19.649,0,0,1-7.662,3.031v3.507h8.387v1.828h-3.455Zm14.447-4.559q-0.576,1.653-.9,2.33h11.342v12.8a1.683,1.683,0,0,1-.413.952,2.177,2.177,0,0,1-.889.626,10.005,10.005,0,0,1-1.891.125h-1.439q-0.651-1.353-.876-1.929a18.48,18.48,0,0,0,3.154.125,0.439,0.439,0,0,0,.325-0.125,0.409,0.409,0,0,0,.127-0.3v-2.48h-9.415v5.286h-1.979V43.824a16.319,16.319,0,0,1-1.189,1.5q-0.764.876-3.042,3.206L369.3,47.381a32.73,32.73,0,0,0,4.218-4.471,16.658,16.658,0,0,0,2.567-4.547h-5.258V36.534h5.959A34.758,34.758,0,0,0,377.765,33l1.927,0.426q-0.225,1.052-.826,3.106h12.745v1.829H378.14Zm8.539,4.158h-9.415V44.55h9.415V42.521Zm0,3.858h-9.415v2.279h9.415V46.379Zm28.692,8.968A26.559,26.559,0,0,1,411.49,52.9a17.571,17.571,0,0,1-3.1-3.107,20.431,20.431,0,0,1-2.605-4.546,14.26,14.26,0,0,1-1.789,3.319,21.053,21.053,0,0,1-3.343,3.732,21.849,21.849,0,0,1-4.156,2.969l-1.5-1.479a25.682,25.682,0,0,0,4.556-3.406,23.69,23.69,0,0,0,2.316-2.492,15.807,15.807,0,0,0,1.79-2.969,10.377,10.377,0,0,0,.789-2.354,18.231,18.231,0,0,0,.376-2.593q0.087-1.265.112-2.254t0.038-2.166q0.012-1.177.012-1.6h2a71.047,71.047,0,0,1-.375,7.916,1.548,1.548,0,0,0,.013.451,1.629,1.629,0,0,0,.149.426,3.134,3.134,0,0,1,.138.3,23.2,23.2,0,0,0,2.579,4.885,16.45,16.45,0,0,0,3.18,3.356,18.516,18.516,0,0,0,4.156,2.431Zm13.47-4.159a16.678,16.678,0,0,1-3.317,2.142,25.569,25.569,0,0,1-3.868,1.615l-1.3-1.628a23.257,23.257,0,0,0,7.312-3.482Zm-7.711-8.442V34.3h1.8v8.442h-1.8Zm16.7,7.515q-0.125-.2-0.35-0.526t-0.576-.776c-0.233-.3-0.359-0.468-0.375-0.5l-4.933.726v4.91a1.785,1.785,0,0,1-.675.989,2.763,2.763,0,0,1-1.152.564H428.09l-0.876-1.954a1.516,1.516,0,0,1,.225.026l0.764,0.125a10.2,10.2,0,0,0,1.214.125,0.262,0.262,0,0,0,.225-0.1,0.781,0.781,0,0,0,.063-0.438c-0.009-.225-0.013-0.371-0.013-0.438V49.359q-2.955.3-6.51,0.952l-1.051-2.129q1.326-.376,2.842-0.952t4.119-1.828l-5.208.826-0.851-1.878a17.478,17.478,0,0,0,4.306-2.906l-1.4-.05V33.252h1.8v7.816l0.9-.9,1.377,1.378q-0.426.451-1.027,0.99a15.52,15.52,0,0,1-2.2,1.49l4.807-.4q1.752-1.3,2.755-2.2l1.727,1.127a23.111,23.111,0,0,1-2.88,2.28,23.875,23.875,0,0,1-3.455,1.991,22.846,22.846,0,0,1-2.954,1.164l8.513-1a5.948,5.948,0,0,0-1.553-1.077l1.528-1.076a11.308,11.308,0,0,1,4.206,4.208Zm2.5-8.442a19.713,19.713,0,0,1-5.157-1.979,21.551,21.551,0,0,1-4.683,1.678l-1.5-1.553q2.93-.752,3.494-0.952a5.328,5.328,0,0,0,.863-0.376,11.408,11.408,0,0,1-2.6-2.53h-2.028V34.3h11.342v1.478a11.574,11.574,0,0,1-3.03,2.931,18,18,0,0,0,4.632,1.327Zm-0.926,13.026a20.339,20.339,0,0,0-3.2-2.305,17.728,17.728,0,0,0-3.581-1.553l1.1-1.478a20.31,20.31,0,0,1,6.935,3.857Zm-6.434-18.738a11.573,11.573,0,0,0,1,.877,6.687,6.687,0,0,0,1.151.752,9.146,9.146,0,0,0,2.3-1.628h-4.456Zm29.919,3.632a22.588,22.588,0,0,1-3.38,3.006,46.3,46.3,0,0,1-5.784,3.457c-0.134.067,0.134,0.1,0.8,0.1h4.257a0.736,0.736,0,0,0,.626-0.376,3.561,3.561,0,0,0,.226-0.538,15.13,15.13,0,0,0,.35-1.941q0.375,0.1,1.064.363c0.458,0.175.7,0.272,0.714,0.288a13.308,13.308,0,0,1-.852,2.956,2.137,2.137,0,0,1-.726.789,3.034,3.034,0,0,1-1.552.289H454a2.434,2.434,0,0,1-1.176-.313,2.643,2.643,0,0,1-.877-0.714,53.666,53.666,0,0,1-5.859,2.079l-1.151-1.628a42.37,42.37,0,0,0,6.484-2.179v-4.76h1.9v3.858a29.546,29.546,0,0,0,8.287-5.912Zm-12.067,1.328a15.232,15.232,0,0,1-1.5,2.442,12.9,12.9,0,0,1-2.479,2.392l-1.427-1.277a10.144,10.144,0,0,0,3.831-4.634Zm13.219-.05V37.611h-16.2v3.407h-1.9V35.782h9.163a5.971,5.971,0,0,0-2.277-1.227l1.576-1.3a10.932,10.932,0,0,1,1.916,1.227,5.482,5.482,0,0,1,1.265,1.3h8.362v5.236h-1.9Zm-1.853,14.654V54.7h-14.6l0.026-5.261h1.9v3.432h5.358V48.558h1.9v4.308h5.408V49.435h1.9v6.237h-1.9ZM456.433,42.02a5.132,5.132,0,0,0-1.215-1.4,12.082,12.082,0,0,0-2.341-1.553l1.277-1.1a5.346,5.346,0,0,1,2.015,1.09,8.8,8.8,0,0,1,1.541,1.641Zm8.888,5.336a12.493,12.493,0,0,0-3.806-4.784l1.5-1.052a12.35,12.35,0,0,1,2.128,2.079,18.112,18.112,0,0,1,1.777,2.5Zm25.564,7.891H480.494a10.481,10.481,0,0,1-3.781-.789,8.128,8.128,0,0,1-3.205-2.116q-1.677,1.578-3.054,2.68l-1.278-1.353c0.034-.016.322-0.238,0.865-0.664s1.017-.814,1.427-1.164,0.788-.693,1.139-1.027V43.748h-2.879V41.919h4.781v9.093a6.843,6.843,0,0,0,2.029,1.39,9.735,9.735,0,0,0,2.478.8,12.581,12.581,0,0,0,2.1.212h8.262q0.525,0,2.578-.15Zm-17.1-15.331a14.358,14.358,0,0,0-3.456-4.083l1.427-1.228a12.289,12.289,0,0,1,2.016,1.966,14.393,14.393,0,0,1,1.565,2.242Zm10.74,8.593v4.283h-1.9V48.508h-6.835V46.679h6.835V44.224h-5.108V42.7q1.377-3.157,1.653-4.058h-3.13V36.81h3.73a16.48,16.48,0,0,0,.727-2.956l1.827,0.776-0.65,2.18h8.512v1.828h-9.114q-0.851,2.38-1.477,3.758h3.03v-2.78h1.9V42.4h4.708v1.829h-4.708v2.455h6.611v1.829h-6.611Zm15.323-1.453v6.664A2.268,2.268,0,0,1,499.484,55a1.817,1.817,0,0,1-.988.752,4.159,4.159,0,0,1-.652.125,8,8,0,0,1-1.076.038c-0.45-.009-0.726-0.013-0.826-0.013l-0.676-1.8a10.353,10.353,0,0,0,2.1,0,0.581,0.581,0,0,0,.4-0.263,0.763,0.763,0,0,0,.175-0.438V47.832l-2.178.7-1.2-1.577,3.38-1.127V40.317h-3v-1.8h3v-4.96h1.9v4.96h2.629v1.8h-2.629v4.76l2.88-.927v1.9ZM515.672,55.7a18.333,18.333,0,0,0-5.258-2.906,14.43,14.43,0,0,1-2.066,1.215,16.927,16.927,0,0,1-2.867,1.077q-1.627.462-3.58,0.839l-1.252-1.778q2.754-.426,4.557-0.889a9.046,9.046,0,0,0,2.829-1.164,36.077,36.077,0,0,0-5.058-.877,19.3,19.3,0,0,0,2.629-3.131h-3.2v-1.8h4.331a14.7,14.7,0,0,0,1.1-2.354H501.85v-1.8h4.683a5.961,5.961,0,0,0-.8-1.566,12.836,12.836,0,0,0-1.852-2.017l1.552-.7-2.9-.075v-1.8h5.733a7.023,7.023,0,0,0-1.027-.764,7.612,7.612,0,0,0-1.476-.714l1.476-1.4a8.957,8.957,0,0,1,3.281,2.329l-0.576.551h6.109v1.8h-3.03l1.377,0.677a11.287,11.287,0,0,1-2.253,3.682H517v1.8h-8.763l1.5,0.752c-0.116.284-.267,0.606-0.45,0.965s-0.292.572-.325,0.638H516.5v1.8h-2.728a7.352,7.352,0,0,1-.514,1.076,19.874,19.874,0,0,1-1.539,2.155A25.275,25.275,0,0,1,517,54.169Zm-9.965-17.936a8.057,8.057,0,0,1,2.678,3.933l-1.076.4,2.2,0.025a5.958,5.958,0,0,0,1.6-1.741,16.367,16.367,0,0,0,1.377-2.618h-6.784Zm2.3,10.321q-0.8,1.177-1.327,1.853,0.526,0.1,1.715.4c0.792,0.2,1.273.317,1.44,0.35a6.506,6.506,0,0,0,1.852-2.6h-3.68Z"/>
</svg>
