<svg xmlns="http://www.w3.org/2000/svg" width="728" height="90" viewBox="0 0 728 90">
  <defs>
    <style>
      .cls-1 {
        fill: #4c286c;
        fill-rule: evenodd;
      }
    </style>
  </defs>
  <path class="cls-1" d="M304.085,35.349a15.538,15.538,0,0,1-.85,4.142,1.772,1.772,0,0,1-.823.879,2.658,2.658,0,0,1-.925-0.013,4.2,4.2,0,0,1-1.648-1.017,13.592,13.592,0,0,1-2.7-3.413,26.521,26.521,0,0,1-4.846,3.162l-1.674-1.405a23.814,23.814,0,0,0,5.645-3.64,31.135,31.135,0,0,1-1.4-6.3h-4.82v3.615l3.872-.98v1.933l-3.872,1.03v5.2A1.973,1.973,0,0,1,289,40.269a4.049,4.049,0,0,1-.961.213,12.277,12.277,0,0,1-1.561.038q-1-.027-1.35,0l-0.7-1.958,3.072,0.075a0.63,0.63,0,0,0,.413-0.2,0.64,0.64,0,0,0,.162-0.452V33.893l-4.372,1.18-1.4-1.832q2.722-.528,5.77-1.306V27.743h-5.121V25.836h5.121V22.22a10.581,10.581,0,0,1-1.949.452,17.106,17.106,0,0,1-2.147.226,15.924,15.924,0,0,0-1.174-1.883,20.148,20.148,0,0,0,3.571-.326,16.422,16.422,0,0,0,2.911-.841,30.37,30.37,0,0,0,3.284-1.594l1.249,1.432q-2.322,1.355-2.885,1.643a9.728,9.728,0,0,1-.886.415v4.092h4.645a75.513,75.513,0,0,1-.149-7.682h1.923q0,1.656.063,4.054t0.162,3.628h6.645v1.907h-6.471a27.75,27.75,0,0,0,1,4.8,19.037,19.037,0,0,0,2.8-4.117l1.7,0.729a22.121,22.121,0,0,1-3.747,5.3,11.453,11.453,0,0,0,1,1.657A20.1,20.1,0,0,0,301,37.922q0.412,0.44.512,0.163a14.314,14.314,0,0,0,.624-3.489Zm-1.1-11.9a11.883,11.883,0,0,1-1.6,1.381,7.3,7.3,0,0,0-1.711-2.41,9.7,9.7,0,0,0-2.585-1.757l1.6-1.456a12.2,12.2,0,0,1,2.448,1.82A8.177,8.177,0,0,1,302.985,23.451Zm10.792-4.87a51.069,51.069,0,0,1-1.474,6.276V40.47h-1.9V28.747a11.82,11.82,0,0,1-1.074,1.744,15.69,15.69,0,0,1-1.324,1.62l-1.449-1.306a20.707,20.707,0,0,0,3.434-5.346,29.668,29.668,0,0,0,2.037-7.431ZM317.3,23.6a10.344,10.344,0,0,0-2.9-3.941l1.548-.954a7.726,7.726,0,0,1,1.749,1.682,7.73,7.73,0,0,1,1.273,2.185ZM314.7,40.47V23.8h1.9V40.47h-1.9Zm13.464-1.957a1.665,1.665,0,0,1-1.4,1.581,12.312,12.312,0,0,1-2.974.075l-0.674-1.983,2.848,0.2a0.337,0.337,0,0,0,.225-0.126,0.732,0.732,0,0,0,.075-0.4V21.417h-7.095V19.584h8.993V38.512Zm23.456-14.485q-0.025.7-.163,4.707T351.083,34.9q-0.237,2.159-.562,3.715a2.392,2.392,0,0,1-.449.916,2.585,2.585,0,0,1-.8.716,2.261,2.261,0,0,1-1.173.314,13.519,13.519,0,0,1-2.923-.439l-0.3-1.958q0.2,0.025,1.361.3a6.86,6.86,0,0,0,1.71.251,0.85,0.85,0,0,0,.676-0.477,25.6,25.6,0,0,0,.7-4.481q0.3-3.174.4-7.895h-6.57q0,0.277-.037,1.042t-0.237,2.372a16.353,16.353,0,0,1-.925,3.577,14.053,14.053,0,0,1-1.947,3.6,11.914,11.914,0,0,1-2.5,2.385,16.977,16.977,0,0,1-3.048,1.833l-1.3-1.682a12.1,12.1,0,0,0,4.509-2.861,9.735,9.735,0,0,0,2.66-4.318,19.673,19.673,0,0,0,.925-5.949h-8.469V24.027h8.469V18.279l1.9-.05v5.8h8.469Zm-13.589-.3a5.468,5.468,0,0,0-.95-1.582,11.44,11.44,0,0,0-2.222-1.857l1.548-1.18a12.305,12.305,0,0,1,3.247,3.339ZM346.6,34.8a9.445,9.445,0,0,0-.962-2.259A17.661,17.661,0,0,0,343.3,29.55l1.574-.929a14.492,14.492,0,0,1,3.422,5.122Zm22.531-3.163a15.647,15.647,0,0,1-.6,1.682H377.1v5.3a1.684,1.684,0,0,1-1.2,1.556,2.779,2.779,0,0,1-.812.188,7.688,7.688,0,0,1-1,.013q-0.562-.025-0.762-0.026L372.7,38.512c0.151,0,.487.017,1.012,0.05a4.391,4.391,0,0,0,1.112-.026,0.444,0.444,0,0,0,.374-0.552V35.022h-3.4v4.419h-1.9V35.048l-3.247.05v4.343h-1.774V35.022h-3.622V40.8H359.49V33.315h7.018a7.734,7.734,0,0,0,.775-1.682H357.69V29.926h21.258v1.707h-9.817Zm7.47-5.724V23.927h-7.345v5.7h-1.9v-5.7h-7.319v2.084l-1.774.05V22.22h9.093v-1.1H359.49V19.283h17.535v1.833h-7.769v1.1h9.167l0.051,3.69H376.6Zm-15.938.452V24.831h5.571v1.531h-5.571Zm0,2.586V27.416h5.571v1.532h-5.571Zm9.642-2.686V24.706h5.546v1.556h-5.546Zm0,2.686V27.416h5.546v1.532h-5.546Zm26.728-7.682v1.683l5.2-.051v6.753h-9.417l1.024,0.8-1.049,1.155h11.066v1.732h-4.271a11.784,11.784,0,0,1-1.238,1.582,10.661,10.661,0,0,1-1.361,1.28,29.738,29.738,0,0,1,3.973,1.557,30.7,30.7,0,0,1,2.922,1.531l-1.349,1.482a39.556,39.556,0,0,0-3.822-1.783,38.453,38.453,0,0,0-3.8-1.355,20.287,20.287,0,0,1-5.171,1.983,35.948,35.948,0,0,1-6.419,1.03L382,38.889a43.665,43.665,0,0,0,5.358-.553,23.559,23.559,0,0,0,4.484-1.255q-1.374-.25-5.9-0.727l2.673-3.012H383.07V31.609h7.244l1.824-1.958h-7.345V22.9l5.121,0.051V21.266H382.82V19.434h21.233v1.832h-7.02Zm-10.366,3.44v3.112h3.2l0.05-3.112h-3.247Zm4.521,8.635-1.374,1.506q0.3,0.05,1.361.175t1.762,0.251l1.673,0.3a10.043,10.043,0,0,0,2.7-2.234h-6.12Zm3.9-12.075h-3.223v1.607h3.223V21.266Zm0,3.44h-3.223v3.112h3.223V24.706Zm5.195,0h-3.247v3.112h3.247V24.706Zm26.129,11.873a1.47,1.47,0,0,1-.275.816,1.9,1.9,0,0,1-.624.616,3.524,3.524,0,0,1-1.761.314c-0.808-.009-1.3,0-1.461.012l-0.724-2.108,2.4,0.2a0.653,0.653,0,0,0,.45-0.113,0.4,0.4,0,0,0,.2-0.339V32.813H419.09V40.42h-1.9V32.813h-4.921v5.749h-1.9V32.311a3.842,3.842,0,0,1-.438.3q-0.288.175-1.836,0.9l-1.074-1.857a12.205,12.205,0,0,0,3.61-1.733,4.222,4.222,0,0,0,1.461-1.857H407.75V26.237h4.8a6,6,0,0,0,.125-1.481h-4V22.923h4V21.417H407.95V19.584h4.721V18.179h1.9v1.405h4.172v1.833h-4.172v1.506h3.747v1.833h-3.8q0,0.05-.012.665a4.524,4.524,0,0,1-.063.816h5.32v1.833H414.07a4.518,4.518,0,0,1-1.8,2.861l4.921,0.051V28.647h1.9v2.335h7.319v5.6Zm2.2-7.982a3.1,3.1,0,0,1-.588.753,2.8,2.8,0,0,1-1,.6,4.115,4.115,0,0,1-1.286.251l-1.549.05-0.8-2.008c0.1,0,.533.022,1.3,0.063a4.937,4.937,0,0,0,1.749-.138,0.613,0.613,0,0,0,.349-0.514,1.091,1.091,0,0,0-.15-0.64,5.656,5.656,0,0,0-.512-0.74,6.018,6.018,0,0,0-.762-0.779c-0.3-.259-0.65-0.543-1.049-0.853s-0.666-.515-0.8-0.616l2.349-3.087h-3.247V30.63h-1.8V19.108h7.394v1.707l-2.374,2.937a11.629,11.629,0,0,1,2.548,2.636A2.389,2.389,0,0,1,428.608,28.6ZM433.2,38.712q-0.249-.4-0.674-0.979t-0.549-.728l2.272-.679V19.509h7.819V34.018l1.574-.578v1.984Zm6.97-12.325-4.022.05v3.414h4.022V26.388Zm0,5.3h-4.022v4.067l4.022-1.155V31.684Zm0-10.342h-3.922V24.58h3.922V21.342ZM453.512,28.5a61.573,61.573,0,0,1-1.249,8.937,3.7,3.7,0,0,1-.775,1.543,2.62,2.62,0,0,1-1.348.941,5.35,5.35,0,0,1-.687.113,5.545,5.545,0,0,1-1.611-.163c-0.733-.151-1.192-0.243-1.374-0.277l-0.225-2.083a23.209,23.209,0,0,0,2.723.627,1.043,1.043,0,0,0,1.024-.377q1.249-2.661,1.773-12.3h-3.372q-0.05.377-.187,1.97t-0.325,2.862a14.745,14.745,0,0,1-.5,2.259,13.738,13.738,0,0,1-.661,1.732,9.709,9.709,0,0,1-.825,1.418,16.446,16.446,0,0,1-2.31,2.624,24.215,24.215,0,0,1-3.035,2.4l-0.1-.276-1.2-1.356a15.157,15.157,0,0,0,2.311-1.569,17.188,17.188,0,0,0,1.873-1.807,11.685,11.685,0,0,0,1.612-2.409,9.027,9.027,0,0,0,.949-3.126q0.349-2.786.475-4.718h-3.5V23.626h3.572q0.1-3.314.074-5.5h1.949l-0.125,5.5h5.346Zm24.155-6.25q-0.026.678-.05,2.987T477.529,28.9q-0.062,1.355-.187,2.887a32.552,32.552,0,0,1-.437,3.238,24.654,24.654,0,0,1-.812,3.239,4.346,4.346,0,0,1-.749,1.342,1.957,1.957,0,0,1-1.174.74,4.287,4.287,0,0,1-1.161,0,24.577,24.577,0,0,1-3.286-.778L469.4,37.457a18.466,18.466,0,0,0,3.772,1.055,0.956,0.956,0,0,0,.949-0.452,15.911,15.911,0,0,0,.824-2.962,42.6,42.6,0,0,0,.525-4.23q0.2-2.471.3-6.89h-5.321a20.643,20.643,0,0,1-2.9,5.272l-1.3-.828v11.2h-1.973V37.985h-4.147v2.034h-1.973v-17.4h2.3A15.7,15.7,0,0,0,461.98,18.2l1.8,0.729a16.613,16.613,0,0,1-1.35,3.69h3.822v5.045A23.559,23.559,0,0,0,470,18l2,0.452c-0.05.285-.121,0.611-0.213,0.98s-0.241.87-.449,1.506-0.346,1.071-.413,1.305h6.745Zm-13.389,2.209h-4.147V29.3h4.147V24.455Zm0,6.677h-4.147v5.021h4.147V31.132Zm8.193,3.339a21.25,21.25,0,0,0-3.4-5.9l1.549-1.03A22.068,22.068,0,0,1,472.8,30.53a18.736,18.736,0,0,1,1.474,3.138Zm30.25,5.773A26.393,26.393,0,0,1,498.85,37.8a17.552,17.552,0,0,1-3.1-3.112,20.486,20.486,0,0,1-2.6-4.557,14.25,14.25,0,0,1-1.786,3.326,20.992,20.992,0,0,1-3.335,3.741,21.8,21.8,0,0,1-4.146,2.974l-1.5-1.481a25.656,25.656,0,0,0,4.546-3.414,23.609,23.609,0,0,0,2.31-2.5,15.808,15.808,0,0,0,1.786-2.975,10.447,10.447,0,0,0,.787-2.359,18.291,18.291,0,0,0,.375-2.6q0.087-1.266.112-2.259t0.037-2.171q0.014-1.18.013-1.606h2a71.58,71.58,0,0,1-.374,7.932,1.592,1.592,0,0,0,.012.452,1.627,1.627,0,0,0,.15.427,2.863,2.863,0,0,1,.137.3,23.317,23.317,0,0,0,2.573,4.9,16.494,16.494,0,0,0,3.172,3.364,18.475,18.475,0,0,0,4.147,2.435Zm-240.1,14.785v4.494l2.348-1.054-0.05,2.033-2.3,1.03v7.28a1.777,1.777,0,0,1-.4,1.08,1.9,1.9,0,0,1-1.023.7,9.552,9.552,0,0,1-2.849.151l-0.6-1.833q0.375,0,1.249.063a4.237,4.237,0,0,0,1.249-.037,0.473,0.473,0,0,0,.4-0.352,1.256,1.256,0,0,0,.075-0.652V62.183a23.728,23.728,0,0,1-2.472.98L257,61.556l1.723-.539a19.482,19.482,0,0,0,2-.716V55.029h-3.172V53.2h3.172V48.428h1.9V53.2h2.7v1.832h-2.7ZM280,67.757l-0.749,1.957-5.171-.05a12.574,12.574,0,0,1-3.784-.628,8.638,8.638,0,0,1-3.085-1.707,9.268,9.268,0,0,1-1.361,2.247,7.269,7.269,0,0,1-1.637,1.392l-1.3-1.405a6.539,6.539,0,0,0,2.573-3.051,9.24,9.24,0,0,0,.624-4.4l1.874,0.251a17.894,17.894,0,0,1-.226,2.987,4.785,4.785,0,0,0,1.175,1.03,8.608,8.608,0,0,0,1.874.953V61.155h-5.7V59.322H279.03v1.833h-6.32v2.184h4.921v1.833H272.71v2.586q0.3,0.05,1.15.113t1.449,0.05Q275.908,67.908,280,67.757Zm-13.863-9.64v-8.76h10.941v8.76H266.141Zm9.043-6.928h-7.145v1.556h7.145V51.189Zm0,3.389h-7.145v1.706h7.145V54.578ZM289.922,48.8a51.146,51.146,0,0,1-2.474,5.9V70.895h-1.9V57.79a20.226,20.226,0,0,1-2.049,2.561L281.878,59.2a22.07,22.07,0,0,0,2.872-3.753,29.4,29.4,0,0,0,2.136-4.092q0.813-1.944,1.262-3.376Zm5.445,15.588a20.749,20.749,0,0,1-5.57,6.527l-1.449-1.405a21.342,21.342,0,0,0,5.395-6.176ZM288.7,62.41V60.577h3.523v-5.5h-2.748V53.172l2.748,0.05V48.277h1.9v4.9l4.621,0.05V48.277h1.974v4.9h2.872V55.08h-2.872v5.5h3.572V62.41H288.7Zm10.042-7.33-4.621-.051v5.548h4.621v-5.5Zm5.9,14.634a8.814,8.814,0,0,0-.749.54,9.871,9.871,0,0,1-.825.589,17.087,17.087,0,0,0-2.472-3.326,22.241,22.241,0,0,0-3.3-2.874l1.6-1.13a28.9,28.9,0,0,1,2.248,1.858,17.069,17.069,0,0,1,1.886,2.02A19.169,19.169,0,0,1,304.634,69.714Zm3.422-.8V67.078h8.194V48.729h1.9v7.28h8.567v1.833h-8.567v9.237h10.765v1.833H308.056Zm44.514-.125a1.7,1.7,0,0,1-.537,1.168,1.568,1.568,0,0,1-1.137.565h-2.5l-0.7-1.883,2.648,0.1a0.515,0.515,0,0,0,.325-0.225v-17H335.359v19.3h-1.9V49.683h19.11v19.1Zm-10.891-5.547q-0.3-.8-0.612-1.532a7.531,7.531,0,0,0-.712-1.305,12.456,12.456,0,0,1-.687,1.543,17.965,17.965,0,0,1-1.286,2.034q-0.851,1.193-1.05,1.493a10.222,10.222,0,0,1-.9-0.6,8.707,8.707,0,0,0-.824-0.553,16.512,16.512,0,0,0,1.811-2.334,18,18,0,0,0,1.611-3.54,21.27,21.27,0,0,0-3.272-3.765l1.523-1.054c0.1,0.1.267,0.268,0.5,0.5s0.6,0.648,1.111,1.242,0.8,0.925.863,0.991a18.127,18.127,0,0,0,.948-4.016l1.749,0.452a47.677,47.677,0,0,1-1.349,5.271q0.724,1.03,1.237,1.883a11.894,11.894,0,0,1,.936,2.008Zm6.844,2.158a14.558,14.558,0,0,0-.836-2.322q-0.588-1.318-1.212-2.422a27.881,27.881,0,0,1-1.536,2.911A17.608,17.608,0,0,1,343,66.15l-1.8-1.205a18.514,18.514,0,0,0,4.072-5.9q-1.524-2.158-3.048-3.941l1.5-1.029q0.2,0.225,1.075,1.28t1.249,1.582q0.024-.075.075-0.276t0.487-1.632a23.908,23.908,0,0,0,.686-2.861l1.724,0.5a50.962,50.962,0,0,1-1.7,6.075,23.752,23.752,0,0,1,2.9,5.372Zm29.451,5.422a22.7,22.7,0,0,1-7.719-3.941,18.538,18.538,0,0,1-7.369,3.941l-1.223-1.682a19.138,19.138,0,0,0,7.143-3.565,19.134,19.134,0,0,1-2.672-3.4,22.831,22.831,0,0,1-1.924-4.029A24.806,24.806,0,0,1,362.787,66a19.516,19.516,0,0,1-3.172,4.895q-0.4-.2-1.187-0.679t-0.837-.5a12.371,12.371,0,0,0,3.846-6.276q0.175-.777.363-2.083t0.337-4.117q0.174-3.187.1-5.422H358.89V49.908H374.8v1.657q-1.223,1.833-3.247,4.518H376.5a13.242,13.242,0,0,1-1.574,5.2,21.15,21.15,0,0,1-3.172,4.218,21.1,21.1,0,0,0,7.394,3.514Zm-9.093-12.9V56.26q2.15-2.711,3.3-4.443h-7.818v1.154q0.3,1.055.8,2.51a40.978,40.978,0,0,0,1.748,4.066,15.15,15.15,0,0,0,1.112,1.958,22.74,22.74,0,0,0,2.31,2.711,17.1,17.1,0,0,0,2.311-2.975,13.237,13.237,0,0,0,1.561-3.326h-5.321Zm25.43,4.946v6q0,2.008-1.774,2.008H389.09l-0.7-2.058q2.5,0.225,3.147.2a0.8,0.8,0,0,0,.874-0.879V62.862H382.82V61.029h9.592V57.214h-7.518V55.381h7.518v-3.49q-2.023.252-7.768,0.4l-1.124-1.857a72.263,72.263,0,0,0,9.516-.452,37.506,37.506,0,0,0,8.319-1.733l1.049,1.432a34.582,34.582,0,0,1-8.093,1.983v3.715h7.144v1.833h-7.144v3.815H403.5v1.833h-9.192Zm20.957-.326a10.037,10.037,0,0,0-.624-1.733,10.205,10.205,0,0,0-1.049-1.782L413.52,70.769h-1.974V60.276a16.078,16.078,0,0,1-1.2,2.1,15.46,15.46,0,0,1-1.848,2.3l-1.474-1.281a15.422,15.422,0,0,0,1.7-2.108,16.309,16.309,0,0,0,1.611-3.025,18.453,18.453,0,0,0,1.037-3.276h-3.6V53.172h3.772V48.4h1.974v4.769h3.447v1.807H413.52v2.486l0.774-.478a10.944,10.944,0,0,1,2.773,4.419Zm14.763,2.811a29.127,29.127,0,0,1-.874,3.313,1.706,1.706,0,0,1-.65.866,1.8,1.8,0,0,1-1.073.339h-1.7a2.551,2.551,0,0,1-.949-0.188,1.3,1.3,0,0,1-.687-0.565,1.559,1.559,0,0,1-.213-0.779V51.339h-3.9v11.4a9.8,9.8,0,0,1-1.062,4.33,13.505,13.505,0,0,1-2.935,3.928l-1.7-1.406a14.585,14.585,0,0,0,2.8-3.389,7.31,7.31,0,0,0,1-3.714V49.532h7.694v18.2q0,0.327.45,0.326h0.8a0.568,0.568,0,0,0,.474-0.364,3.79,3.79,0,0,0,.338-0.954q0.137-.59.275-1.506t0.162-1.067Zm13.039-7.254a19.046,19.046,0,0,1-2.472,2.56,8.22,8.22,0,0,1,1.249,1.205,12.416,12.416,0,0,1,1.2,1.632l-1.474,1.23a13.794,13.794,0,0,0-1.474-1.971,7.742,7.742,0,0,0-1.5-1.392v9.061h-1.9V61.631a11.271,11.271,0,0,1-1.824,1.519q-1.175.816-2.173,1.418l-1.024-1.682a13.751,13.751,0,0,0,4.409-3.426,13.245,13.245,0,0,0,2.435-4.682h-6V52.946h8.519a15.482,15.482,0,0,1-1.012,3.5A14.36,14.36,0,0,1,438.6,59.2v0.151l0.35,0.2a13.6,13.6,0,0,0,2.7-2.71Zm-5.52-5.347a10.191,10.191,0,0,0-1.474-1.783,16.83,16.83,0,0,0-2-1.732l1.349-1.205a19.673,19.673,0,0,1,3.647,3.464Zm7.12,17.672V48.177h1.9v22.24h-1.9Zm7.817-7.28a21.922,21.922,0,0,0-2.335-3.514,24.9,24.9,0,0,0-2.81-3.037l1.2-1.205a25.428,25.428,0,0,1,3.135,3.138,20.738,20.738,0,0,1,2.486,3.363Zm11.066-2.51a11.11,11.11,0,0,1-1.46,5.824,14.528,14.528,0,0,1-4.285,4.393l-1.124-1.556a12.547,12.547,0,0,0,3.785-3.915,9.532,9.532,0,0,0,1.187-4.8V53.272h1.9v7.355Zm1.35,3.414V51.264h-4.547V64.041h-1.9V49.432H466.8V64.041h-1.9Zm1.548,6.5a14.266,14.266,0,0,0-1.186-2.108,11.619,11.619,0,0,0-2.386-2.385l1.174-1.255a9.507,9.507,0,0,1,2.149,1.82,11.7,11.7,0,0,1,1.723,2.523ZM473.1,55.23v4.745h4.2V70.844h-1.9V69.036h-5.346v1.807h-1.9V59.975H471.2v-11.7h1.9V53.4h5.971V55.23H473.1Zm2.3,6.577h-5.346v5.4h5.346v-5.4Zm11.19,8.686-1.124-1.606a2.412,2.412,0,0,0,.5-0.553,1.2,1.2,0,0,0,.15-0.628V56.937h-3.647V55.1h5.546V67.631l3.747-2.059v2.084Zm0.551-17.472a11.645,11.645,0,0,0-3.173-3.79l1.349-1.155a10.949,10.949,0,0,1,1.91,1.682,11.081,11.081,0,0,1,1.487,2.059ZM498.2,57.565V70.819h-1.9V57.565h-5.821V55.732H496.3V48.277h1.9v7.455h5.82v1.833H498.2ZM521.406,65.9a11.622,11.622,0,0,1-1.449,4.117,1.763,1.763,0,0,1-.587.6,1.551,1.551,0,0,1-1.136.05,3.917,3.917,0,0,1-1.149-.489,5.336,5.336,0,0,1-1.349-1.368,23.037,23.037,0,0,1-2.174-3.339q-2.073,1.456-3.172,2.071a17.469,17.469,0,0,1-2.2,1.041L506.718,67a22.612,22.612,0,0,0,6.095-3.389,29.117,29.117,0,0,1-.949-3.289,33.457,33.457,0,0,1-.624-3.439l-3.523.5-0.249-1.807,3.522-.528q-0.225-4.668-.2-6.778h1.973v2.887l0.225,3.614,7.369-1.13,0.25,1.858-7.419,1.1a29.289,29.289,0,0,0,1.224,5.648,21.485,21.485,0,0,0,2-2.472,27.435,27.435,0,0,0,1.7-2.75l1.5,1.105a21.561,21.561,0,0,1-4.447,6.025,10.458,10.458,0,0,0,3.2,4.343,0.582,0.582,0,0,0,.224.087,0.289,0.289,0,0,0,.225-0.188q0.624-2.284.8-3.213ZM518.284,52.67q-0.2.15-.7,0.59a6.621,6.621,0,0,1-.824.639,9.267,9.267,0,0,0-3.622-3.64q1.074-.853,1.4-1.18A10.367,10.367,0,0,1,518.284,52.67Zm3.222,12.777V51.239h1.9V65.447h-1.9ZM528,68.56a1.91,1.91,0,0,1-1.2,1.907,3.367,3.367,0,0,1-.749.2,7.384,7.384,0,0,1-1.323.05c-0.584-.017-0.958-0.025-1.124-0.025l-0.676-1.933,2.6,0.075a1.094,1.094,0,0,0,.412-0.163,0.572,0.572,0,0,0,.163-0.489V48.2H528V68.56Z"/>
</svg>
