<svg id="Frame_3" data-name="Frame 3" xmlns="http://www.w3.org/2000/svg" width="600" height="500" viewBox="0 0 600 500">
  <defs>
    <style>
      .cls-1 {
        fill: #4b286d;
        fill-rule: evenodd;
      }
    </style>
  </defs>
  <path id="使用TELUS_智能插座及燈泡_" data-name="使用TELUS 智能插座及燈泡 " class="cls-1" d="M224.144,73.482l-0.04,2.64h-9.04v11.16l8.88-.08a15.525,15.525,0,0,1-.64,3.32,11.869,11.869,0,0,1-1,2.12,24.541,24.541,0,0,1-4.48-4.84l-2.6,1.64a44.159,44.159,0,0,0,5.08,5.6q-2.441,2.52-8.04,4.48l2.36,2.68a34.454,34.454,0,0,0,5.18-2.84,22.965,22.965,0,0,0,3.14-2.48,25.284,25.284,0,0,0,7.32,3.18,38.178,38.178,0,0,0,8.2,1.66l1.84-2.88q-9.761-1.119-15.4-4.36a13.734,13.734,0,0,0,1.5-3.46,36.314,36.314,0,0,0,.74-3.82l9.2-.04,0.04-11-9.12-.04V73.4l10.8,0.08v-3.04h-10.8v-4.48l-3.16-.04v4.52h-10.48l1.04-3.36-2.8-1.04q-1.72,5.52-3.2,9.04a37.009,37.009,0,0,1-5.76,9.52l2.24,2q2.559-3.279,3.4-4.52v20.2h2.88l0.04-25.84,1.16-3.04Zm9.16,10.76h-6.04v-5.2h6.08Zm-9.28,0h-6.08v-5.08h6.08v5.08Zm25.32-16.4v17.8a26.706,26.706,0,0,1-.44,4.78,19.559,19.559,0,0,1-1.28,4.34,25.471,25.471,0,0,1-3.72,5.6l2.56,1.92a26.54,26.54,0,0,0,4.04-6.06,25.414,25.414,0,0,0,1.8-7.58h8.76v9.52h3.12v-9.52h8.72V97.2a0.968,0.968,0,0,1-.16.58,0.663,0.663,0,0,1-.48.26,10.9,10.9,0,0,1-1.5.06q-0.78-.02-2.74-0.1l0.96,3.12,4.56-.08a2.6,2.6,0,0,0,1.1-.5,3.257,3.257,0,0,0,.98-1.24,3.47,3.47,0,0,0,.4-1.5V67.842h-26.68Zm11.72,2.96v5.8h-8.6V70.8h8.6Zm11.76,8.72-0.04,6.16h-8.6l0.04-6.16h8.6Zm-8.64-8.72h8.64v5.76l-8.6.04Zm-11.72,8.72h8.6v6.16h-8.6v-6.16Zm52.485-8.646H282.1v3.041h9.682V99.362h3.481V73.917h9.682V70.876Zm23.4,3.041V70.876H308.544V99.362h19.645V96.322H311.9V86.039h14.843V83H311.9V73.917h16.444Zm7.156,22.4V70.876h-3.361V99.362h17.684V96.322H335.505Zm28.721,3.641c7.122,0,11.2-4.041,11.2-11.162V70.876h-3.36V88.8c0,5.6-2.881,8.122-7.842,8.122s-7.842-2.521-7.842-8.122V70.876h-3.36V88.8C353.024,95.921,357.1,99.962,364.226,99.962Zm26.64,0.04c6.841,0,10.682-3.32,10.682-8.361,0-4.121-2.32-6.681-8.882-8.122l-2.52-.56c-5.361-1.2-6.682-2.561-6.682-5.281,0-2.681,2.121-4.4,6.242-4.4,5.681,0,7.4,2.2,7.681,5.881h3.441c-0.12-4.641-2.721-8.922-11.122-8.922-5.922,0-9.722,2.881-9.722,7.442,0,5.2,3.8,7.162,8.641,8.242l2.521,0.56c5.041,1.12,6.921,2.441,6.921,5.161,0,3.521-2.64,5.321-7.2,5.321-4.641,0-8.282-1.72-8.362-7h-3.481C379.1,97.082,384.064,100,390.866,100ZM165.6,123.922l-0.04,2.96h7.119a6.356,6.356,0,0,1-1.439,2.16,9.6,9.6,0,0,1-2.881,1.94,16.485,16.485,0,0,1-3.96,1.26l1.44,3a18.348,18.348,0,0,0,2.861-.92,11.249,11.249,0,0,0,1.86-.92v16.68l3,0.04v-2.56h16.6v2.36h3.121l-0.041-16.84L170.924,133a10.287,10.287,0,0,0,3.32-2.72,14.12,14.12,0,0,1,3,.44,32.775,32.775,0,0,1,4.76,1.8l1.6-2.44a15.173,15.173,0,0,0-3.14-1.44,28.483,28.483,0,0,0-4.78-1.04l0.32-.76h6.641v-2.88l-6.2-.04a14.506,14.506,0,0,0,.2-3.44l4.68-.04v-2.88l-9.24-.04a8.135,8.135,0,0,0,.68-2.2l-2.92-1.12a16.06,16.06,0,0,1-1.48,4.76,10.736,10.736,0,0,1-2.96,3.56l2.8,1.24a15.371,15.371,0,0,0,1.759-1.62,8.728,8.728,0,0,0,1.281-1.7h2.4a13.332,13.332,0,0,1-.2,3.52Zm24.559,14.96h-16.6v-2.92l16.6,0.04v2.88Zm-0.04,5.76H173.564V141.8h16.6Zm6.881-14.6V116.8H183.763v13.24H197Zm-3.041-2.88h-7.2l0.04-7.44h7.16v7.44Zm26.761,0.92h-14.44v21.84l3.04,0.04q-0.041-4.519,0-8.36h8.32v3.76a1.293,1.293,0,0,1-.18.64,0.634,0.634,0,0,1-.46.36,10.147,10.147,0,0,1-2.22,0q-1.38-.12-1.98-0.16l1.12,3.08a27.657,27.657,0,0,0,4.32-.12,2.492,2.492,0,0,0,1.78-.94,4.992,4.992,0,0,0,.7-2.02v-18.12Zm-11.36,5.32-0.04-2.44h8.32v2.4Zm-0.04,2.88h8.36l-0.04,2.44h-8.32v-2.44Zm2.64-22.68q-2.441,4.161-3.28,5.32a23.59,23.59,0,0,1-1.62,2.02,15.065,15.065,0,0,1-1.5,1.46,3.979,3.979,0,0,1-.84.74,9.3,9.3,0,0,0-.88.7l2.2,2.68q0.72-.08,4.18-0.54t5.6-.68q2.139-.219,3.62-0.3,0.72,1.6.82,1.9c0.066,0.2.126,0.394,0.18,0.58a13.2,13.2,0,0,0,1.72-.68q1.04-.48,1.16-0.52a24.762,24.762,0,0,0-2.4-4.5,17.665,17.665,0,0,0-3.24-3.66L215,119.6a25.456,25.456,0,0,1,2.48,2.64l-8.52.72a20.27,20.27,0,0,0,2.92-3.36,40.66,40.66,0,0,0,2.84-4.6Zm23.92,9.08q-0.88,5.4-1.88,5.4h-5.28a2.817,2.817,0,0,1-1.38-.34,0.97,0.97,0,0,1-.62-0.82V124a39.187,39.187,0,0,0,6.88-2.72,25.649,25.649,0,0,0,4.4-2.92l-1.84-2.28a25.692,25.692,0,0,1-4.7,2.98,27.2,27.2,0,0,1-4.74,1.94l-0.04-6.92-3,.04,0.04,13.88a3.142,3.142,0,0,0,1.14,2.06,3.7,3.7,0,0,0,2.54.9h7.12a2.511,2.511,0,0,0,1.76-.82,4.886,4.886,0,0,0,1.2-1.78,43.422,43.422,0,0,0,1.32-4.56Zm-12.28,9.4v12.8a3.026,3.026,0,0,0,.64,1.8,3.526,3.526,0,0,0,1.52,1.24,4.193,4.193,0,0,0,1.56.36l7.24-.04a4.571,4.571,0,0,0,1.44-.42,3.162,3.162,0,0,0,1.16-.9,6.479,6.479,0,0,0,.76-1.34,15.123,15.123,0,0,0,.74-2.4q0.38-1.579.54-2.02l-2.84-1.08a17.545,17.545,0,0,1-.96,4.2,1.76,1.76,0,0,1-1.2,1.12h-6.16a1.642,1.642,0,0,1-1.1-.3,0.907,0.907,0,0,1-.34-0.7l0.04-3.76a33.837,33.837,0,0,0,6.1-1.86,24.334,24.334,0,0,0,5.66-3.22l-2.04-2.12a22.471,22.471,0,0,1-4.72,2.6,32.72,32.72,0,0,1-5,1.6l-0.04-5.6Zm39.8-6.32a10.152,10.152,0,0,1-2.3,2.22,14,14,0,0,1-4.1,1.82v20.4h3.04v-2.88h13.6l0.04,2.72h3V128h-7.6l-0.04,2.96h4.6l-0.04,4.72h-3.72v2.92h3.76v5.72h-5.36v-19h10.84l-0.04-2.88h-10.76v-3.36a35.542,35.542,0,0,0,9.44-2.8l-2.08-2.36a31.036,31.036,0,0,1-7.56,2.28,85.2,85.2,0,0,1-13.36.96l1.6,3.08q3.641-.159,8.88-0.68v2.88h-9.72V122.2h-3.04v-7.64h-3v7.64h-5.36v2.96h5.36v8.04q-3.559,1.68-6.04,2.64l2.08,2.28,3.92-1.84v9.88l-0.16.56a1.618,1.618,0,0,1-.4.34,3.132,3.132,0,0,1-1.6.14,8.458,8.458,0,0,0-1.92.04l1.24,2.92q0.441-.041,1.7-0.04a7.025,7.025,0,0,0,1.92-.2,2.84,2.84,0,0,0,1.1-.6,3.242,3.242,0,0,0,.84-1.28,4.363,4.363,0,0,0,.28-1.52v-11.64l3.48-1.56v-3.24q-2.96,1.641-3.44,1.84l-0.04-6.76h3.08v0.16h9.72v2.6Zm1.84,18.56h-5.2v-5.68h3.88v-2.88h-3.88v-4a17.347,17.347,0,0,0,3.46-1.86,7.241,7.241,0,0,0,1.74-1.78v16.2Zm21.4,5.68a34.889,34.889,0,0,0,3.479-7,27.728,27.728,0,0,0,1.2-7.72l2.28,1.28a12.745,12.745,0,0,0,2.36-2.24,12.9,12.9,0,0,0,1.6-2.64,23.371,23.371,0,0,1,3.919,4l1.761-1.44v3.4h-9.88l0.039,2.92,9.841,0.04,0.04,4.04h-12.12v2.96h27.88l0.079-2.88-12.8-.04V140.6l10.48-.04v-3l-10.52.04v-2.2l2.36,1.4a15.257,15.257,0,0,0,2.3-2.84,23.038,23.038,0,0,0,1.58-3.24,19.223,19.223,0,0,1,2.02,2.1q0.98,1.18,2.34,3.14a8.077,8.077,0,0,0,.68-0.48c0.239-.186.54-0.44,0.9-0.76s0.607-.533.741-0.64a26,26,0,0,0-6.04-6.52,44.474,44.474,0,0,0,.4-4.52l-2.92-.44a19.836,19.836,0,0,1-.92,6.72,15.576,15.576,0,0,1-3.44,5.64v-13.12l-3.04-.08v11.32q-1.361-1.479-2.44-2.44a27.091,27.091,0,0,0-2.321-1.84,25.451,25.451,0,0,0,.681-5.52l-2.92-.52a15.361,15.361,0,0,1-.56,5.34,11.766,11.766,0,0,1-1.98,3.92,19.206,19.206,0,0,1-2.42,2.58v-13.68h27.359v-2.96h-13.2a25.118,25.118,0,0,0-1.761-2.38,17.553,17.553,0,0,0-1.959-2.06l-3.08,1.68a24.919,24.919,0,0,1,2.02,1.58,7.759,7.759,0,0,1,1.179,1.18H288.164l-0.041,6.24q0,1.6.081,6.26a70.7,70.7,0,0,1-.28,8.22,16.56,16.56,0,0,1-1.78,5.74q-0.821,1.581-2.14,3.74Zm46.76,0a29.743,29.743,0,0,0,11.8-6.28,36.394,36.394,0,0,0,12.36,6.28l1.88-2.88a33.854,33.854,0,0,1-11.84-5.6,33.732,33.732,0,0,0,5.08-6.72,21.109,21.109,0,0,0,2.52-8.32h-7.92q3.48-4.56,5.2-7.16v-2.64H327v3.04h5.36q0.12,3.561-.16,8.64-0.24,4.48-.54,6.56t-0.58,3.32q-1.041,5.081-6.16,10,0.079,0.039,1.34.8t1.9,1.08a31.029,31.029,0,0,0,5.08-7.8q1.719-3.84,2.28-12.52a36.2,36.2,0,0,0,3.08,6.42,30.519,30.519,0,0,0,4.28,5.42,30.707,30.707,0,0,1-11.44,5.68Zm2.36-30.28h12.52q-1.84,2.76-5.28,7.08v2.68h8.52a20.824,20.824,0,0,1-2.48,5.26,27.4,27.4,0,0,1-3.72,4.74,36.469,36.469,0,0,1-3.7-4.32,24.209,24.209,0,0,1-1.78-3.12,65.189,65.189,0,0,1-2.8-6.48q-0.8-2.319-1.28-4v-1.84Zm39.879,25.72-0.039,2.84h23.359v-2.84l-8.04-.04a15.986,15.986,0,0,0,2.4-4.8l-2.4-.84h3.48l-0.04-8.88h-14.2v8.88l3.16,0.08-2.641,1a8.7,8.7,0,0,1,2.12,2,10.5,10.5,0,0,1,1.521,2.6h-8.681Zm7.521-11.64h8.2v3.04h-8.2V133.8Zm1.84,11.56,2.04-.96a10.363,10.363,0,0,0-3.44-4.64h6.96a16.733,16.733,0,0,1-3.041,5.68Zm-15.28-30.64L369.8,127.2l-0.2,8.72a17.748,17.748,0,0,1-5.84,12.88l2.439,1.96q5-5.52,5.88-10.6a9.168,9.168,0,0,1,2.581,1.92,10.49,10.49,0,0,1,2.06,2.96,25.973,25.973,0,0,0,2.6-1.8,23.093,23.093,0,0,0-3.22-3.74,14.615,14.615,0,0,0-3.621-2.54q0.24-1.719.281-7.96a17.191,17.191,0,0,0,5.28-4.52q-0.2-.2-0.78-0.78a11.145,11.145,0,0,0-.94-0.86q-0.361-.279-0.481-0.36a20.351,20.351,0,0,1-1.579,2,7.589,7.589,0,0,1-1.5,1.36q-0.161-5.96-.04-11.12h-3Zm30.919,15.48a14.181,14.181,0,0,1-3.319-2.22,28.523,28.523,0,0,1-2.921-2.82,13.68,13.68,0,0,0,4.161-3.92q-0.081-.08-0.8-0.72a9.4,9.4,0,0,0-1.241-.96,12.688,12.688,0,0,1-3.519,3.52,4.89,4.89,0,0,1-.96-1.64,18.7,18.7,0,0,0,4.319-4.36q-0.279-.2-0.96-0.8a9.69,9.69,0,0,0-1.119-.88,13.566,13.566,0,0,1-3.4,3.6,37.447,37.447,0,0,1-1.641-5.12,8.443,8.443,0,0,0-1.419.48q-0.861.36-1.181,0.48a31.742,31.742,0,0,0,4.44,10.56h-7.519a11.268,11.268,0,0,0,1.44-2.76,17.439,17.439,0,0,0,1-3.6,19.478,19.478,0,0,0,.28-2.96h-10.8v2.96h7.48a15.806,15.806,0,0,1-.679,2.14q-0.52,1.38-.881,2.1a7.9,7.9,0,0,0-1.3-1.7q-0.781-.78-2.06-1.82l-2.241,1.88q3.281,2.121,4.04,3.92a13.542,13.542,0,0,1-2.2,2.18,26.567,26.567,0,0,1-4.2,2.62l2.44,2.32a26.884,26.884,0,0,0,5.919-5l0.04,0.64h10.721l0.079-.68a16.651,16.651,0,0,0,2.961,2.94,21.673,21.673,0,0,0,3.039,2.02Zm-34.039,2a13.67,13.67,0,0,0,1.359-3.22,16.844,16.844,0,0,0,.68-3.44,12.287,12.287,0,0,0,0-2.46l-2.919-.68a14.6,14.6,0,0,1-2.2,9.04Zm55.96-13.6a26.289,26.289,0,0,0,.559-4.52l-2.879-.72q-0.881,10.841-7.2,16.52l2.52,2.16,2.8-2.96-0.04,14.44,0.2,1.44a4.326,4.326,0,0,0,1.54,2.12,4.629,4.629,0,0,0,2.42,1H436a4.6,4.6,0,0,0,2.14-.4,4.442,4.442,0,0,0,1.259-1,16.157,16.157,0,0,0,2.041-5.6,14.4,14.4,0,0,0-1.5-.66q-0.981-.379-1.42-0.58l-0.36,2.2c-0.054.187-.16,0.607-0.321,1.26a3.65,3.65,0,0,1-.619,1.44,1.677,1.677,0,0,1-1.02.58H423.6l-1-.12a2.013,2.013,0,0,1-.84-0.54,1.39,1.39,0,0,1-.4-0.86v-6.2h8.92v-11.84l-10.08.04a30.868,30.868,0,0,0,1.52-4.04h12.72q0,0.28-.14,4.08t-0.34,7.1a52.236,52.236,0,0,1-.561,5.42,0.9,0.9,0,0,1-.72.44,11.29,11.29,0,0,1-1.819-.22q-1.221-.219-1.78-0.3l0.759,3a11.4,11.4,0,0,0,4.721.12,3.6,3.6,0,0,0,2.08-2.84q0.679-6.519,1-19.92Zm4.76,16.16h-5.96v-6.08h5.96v6.08Zm-13.44-6.04a15.684,15.684,0,0,0-1.78-2.38,13.528,13.528,0,0,0-2.36-2.08,25.2,25.2,0,0,0-3.061-1.78l-2.519,1.84a25.106,25.106,0,0,1,2.78,1.52,11.957,11.957,0,0,1,2.3,1.98,19.384,19.384,0,0,1,2.04,2.66Zm3.16-8.16a18.2,18.2,0,0,0-1.98-2.38,17.627,17.627,0,0,0-2.64-2.24,11.4,11.4,0,0,0-2.54-1.38l-2.24,1.88a17.034,17.034,0,0,1,3.8,2.56,16.563,16.563,0,0,1,3.16,3.52Zm-9.2,28q0.321-.441,1.441-1.92t1.9-2.68a19.962,19.962,0,0,0,1.421-2.6,25.928,25.928,0,0,0,1.18-3.16,27.038,27.038,0,0,0,.86-3.88q-1.041-.44-2.72-1.32a25.4,25.4,0,0,1-1.28,4.92,28,28,0,0,1-2.3,4.82,19.158,19.158,0,0,1-3.339,4.14Z"/>
</svg>
