<svg id="Frame_4" data-name="Frame 4" xmlns="http://www.w3.org/2000/svg" width="600" height="500" viewBox="0 0 600 500">
  <defs>
    <style>
      .cls-1 {
        fill: #4b286d;
        fill-rule: evenodd;
      }
    </style>
  </defs>
  <path id="家居節能更有效" class="cls-1" d="M195.52,102.2H182a14.891,14.891,0,0,0-2.42-3.12,13.785,13.785,0,0,0-2.66-2.12l-2.52,1.88a29.654,29.654,0,0,1,3.14,2.52,5.94,5.94,0,0,1,.66.84H163.76v7.44h3.08l-0.04-4.6h25.64v4.44h3.08V102.2Zm1.92,25.72a11.11,11.11,0,0,1-3.46-2.16,18.732,18.732,0,0,1-3.06-3.56,15.739,15.739,0,0,1-2.04-4.16,29.24,29.24,0,0,0,4.44-4L191,112q-3.84,4.6-7.4,5.76a10.58,10.58,0,0,0-1.62-2.54,9.453,9.453,0,0,0-2.14-1.94,28.686,28.686,0,0,0,3.84-2.56h7.36v-2.84H168.48l-0.04,2.88,10.08,0.04q-4.961,3-14.56,4.52l2.08,2.64a34.9,34.9,0,0,0,10.84-3.16,12.118,12.118,0,0,1,2,1.36,26.356,26.356,0,0,1-3.72,2.2,28.18,28.18,0,0,1-5.3,1.94,57.371,57.371,0,0,1-6.66,1.34l2.12,2.6a30.158,30.158,0,0,0,8.1-1.96,37.124,37.124,0,0,0,7.1-3.84,16.549,16.549,0,0,1,1.08,2.32,26.444,26.444,0,0,1-8.4,4.86,55.191,55.191,0,0,1-10.8,2.62l2.2,2.76a64.414,64.414,0,0,0,6.66-1.62,41.377,41.377,0,0,0,6.08-2.34,22.108,22.108,0,0,0,4.9-3.16,33.422,33.422,0,0,1-.16,5.36,1.749,1.749,0,0,1-.44.76,2.192,2.192,0,0,1-.72.56,13.387,13.387,0,0,1-2.92-.26,33.439,33.439,0,0,1-3.8-1.02l1.24,3.56q5.16,0.96,7,.28a3.456,3.456,0,0,0,1.78-1.38,7.752,7.752,0,0,0,.94-3.46,23.013,23.013,0,0,0-.02-3.94,29.8,29.8,0,0,0-.58-3.94l1.92-.8a23.863,23.863,0,0,0,1.64,3.58,19.537,19.537,0,0,0,3.06,4.1,12.44,12.44,0,0,0,4.26,3Zm7.04,5.76a19.059,19.059,0,0,0,3.38-5.76,24.753,24.753,0,0,0,1.32-7.06q0.219-4.02.26-4.58l11.64,0.04,0.04,4.28h-9.6l0.04,12.8,2.96-.04,0.04-2.36h16.36v2.36h3.04v-12.8l-9.84.04-0.04-4.28H236.8V113.4l-12.72.04,0.04-4.16h-3l-0.04,4.12h-11.8l0.04-4.44H234.8v-9.48H206.24v16.96a50.431,50.431,0,0,1-.24,5.98,20.343,20.343,0,0,1-.72,3.28,17.9,17.9,0,0,1-1.34,3.14,17.018,17.018,0,0,1-2.1,3.04Zm4.8-31.28h22.48l0.04,3.68-22.52-.04V102.4Zm5.24,25.72,0.04-4.6,16.4-.04-0.04,4.64h-16.4Zm31.2,5.2q1.2-.681,11.56-4.32,0.4,0.681,1.12,2.04t0.84,1.6q1.039-.48,2.72-1.48a33.454,33.454,0,0,0-3.2-5.24,17.7,17.7,0,0,0-2.88-2.92l-2.68,1.48a12.4,12.4,0,0,1,2.4,2.32l-7.64,2.52V122.6h11.68v-13.68H244.92l0.04,19.72a2.608,2.608,0,0,1-.48,1.7,3.334,3.334,0,0,1-1.16.9Zm10.88-21.56,0.04,2.44-8.72-.04v-2.4h8.68Zm0,5.24v2.76h-8.64V117h8.64Zm3.76-13.16,0.04-2.88-10.76.04q0.039-.079.24-0.68t0.36-1.12q0.159-.519.24-0.84l-2.76-1.04a17.709,17.709,0,0,1-6,10.04l2.36,2a18.818,18.818,0,0,0,2.7-2.8,13.7,13.7,0,0,0,1.82-2.72h2.92a19.813,19.813,0,0,1,2.72,4.56c0.186-.08.386-0.166,0.6-0.26s0.906-.46,2.08-1.1a14.758,14.758,0,0,0-2.12-3.2h5.56Zm17.16-.12v-2.84l-11.8-.04q0.4-1.359.68-2.72l-2.72-1a17.3,17.3,0,0,1-2.06,5.34,14.174,14.174,0,0,1-3.86,4.22l2.56,2.04a15.137,15.137,0,0,0,4.16-5h3.48a17.708,17.708,0,0,1,2.52,4.48,6.8,6.8,0,0,0,.78-0.32q0.42-.2,1.06-0.58t0.88-.5a22.308,22.308,0,0,0-2-3.08h6.32Zm-5.6,7.92,0.04,11.56a1.072,1.072,0,0,1-.3.76,0.906,0.906,0,0,1-.78.28l-4.44-.24,1.32,3.12q0.6-.039,2.5,0a8.534,8.534,0,0,0,2.58-.2,4.752,4.752,0,0,0,1.38-.92,2.318,2.318,0,0,0,.6-1.14,5.4,5.4,0,0,0,.14-1.06v-15l-12.6-.04v24.6h3.04l-0.04-21.72h6.56Zm27.48-.16H284.96v21.84l3.04,0.04q-0.04-4.519,0-8.36h8.32v3.76a1.293,1.293,0,0,1-.18.64,0.634,0.634,0,0,1-.46.36,10.147,10.147,0,0,1-2.22,0q-1.38-.12-1.98-0.16l1.12,3.08a27.657,27.657,0,0,0,4.32-.12,2.492,2.492,0,0,0,1.78-.94,4.992,4.992,0,0,0,.7-2.02v-18.12Zm-11.36,5.32-0.04-2.44h8.32v2.4Zm-0.04,2.88h8.36l-0.04,2.44H288v-2.44ZM290.64,97q-2.441,4.161-3.28,5.32a23.59,23.59,0,0,1-1.62,2.02,15.065,15.065,0,0,1-1.5,1.46,3.979,3.979,0,0,1-.84.74,9.3,9.3,0,0,0-.88.7l2.2,2.68q0.72-.079,4.18-0.54t5.6-.68q2.139-.219,3.62-0.3,0.72,1.6.82,1.9c0.066,0.2.126,0.394,0.18,0.58a13.2,13.2,0,0,0,1.72-.68q1.04-.48,1.16-0.52a24.762,24.762,0,0,0-2.4-4.5,17.665,17.665,0,0,0-3.24-3.66L293.68,103a25.456,25.456,0,0,1,2.48,2.64l-8.52.72a20.27,20.27,0,0,0,2.92-3.36,40.675,40.675,0,0,0,2.84-4.6Zm23.92,9.08q-0.88,5.4-1.88,5.4H307.4a2.817,2.817,0,0,1-1.38-.34,0.97,0.97,0,0,1-.62-0.82V107.4a39.187,39.187,0,0,0,6.88-2.72,25.649,25.649,0,0,0,4.4-2.92l-1.84-2.28a25.7,25.7,0,0,1-4.7,2.98,27.2,27.2,0,0,1-4.74,1.94l-0.04-6.92-3,.04,0.04,13.88a3.142,3.142,0,0,0,1.14,2.06,3.7,3.7,0,0,0,2.54.9h7.12a2.511,2.511,0,0,0,1.76-.82,4.886,4.886,0,0,0,1.2-1.78,43.422,43.422,0,0,0,1.32-4.56Zm-12.28,9.4v12.8a3.026,3.026,0,0,0,.64,1.8,3.526,3.526,0,0,0,1.52,1.24,4.193,4.193,0,0,0,1.56.36l7.24-.04a4.571,4.571,0,0,0,1.44-.42,3.162,3.162,0,0,0,1.16-.9,6.479,6.479,0,0,0,.76-1.34,15.123,15.123,0,0,0,.74-2.4q0.38-1.579.54-2.02l-2.84-1.08a17.545,17.545,0,0,1-.96,4.2,1.76,1.76,0,0,1-1.2,1.12h-6.16a1.642,1.642,0,0,1-1.1-.3,0.907,0.907,0,0,1-.34-0.7l0.04-3.76a33.837,33.837,0,0,0,6.1-1.86,24.334,24.334,0,0,0,5.66-3.22l-2.04-2.12a22.471,22.471,0,0,1-4.72,2.6,32.72,32.72,0,0,1-5,1.6l-0.04-5.6Zm56.4,14.72q-3.72-.079-7.82-0.54a67.625,67.625,0,0,1-7.22-1.16,19.211,19.211,0,0,1-4.88-1.66,11.948,11.948,0,0,0,1.68-3.02,15.241,15.241,0,0,0,.92-3.54h11.68v-14.8H341.92v-2.96l15.48,0.04v-2.84H323.28v2.84l15.68-.04v2.96H327.48l-0.04,14.8h10.88a12.736,12.736,0,0,1-.82,2.64,10.987,10.987,0,0,1-1.38,2.4,47.135,47.135,0,0,1-5.84-4.56l-2.32,1.56a27.262,27.262,0,0,0,5.8,5.12,34.637,34.637,0,0,1-6.02,2.26,54,54,0,0,1-5.62,1.26l1.8,2.68a28.111,28.111,0,0,0,11.48-3.8l1.24-.84a37.322,37.322,0,0,0,7.64,2.66,72.685,72.685,0,0,0,12.52,1.62Zm-8.56-18.8h-8.16l0.04-3.08h8.12v3.08Zm-19.68-3.08,8.52,0.04v3.04h-8.52v-3.08Zm19.72,5.92v3.16h-8.48l0.2-3.16h8.28Zm-19.72,0h8.44l-0.16,3.16-8.28-.04v-3.12ZM365,121.8q3.639-3.72,4.86-5.12a26.563,26.563,0,0,0,1.9-2.4v19.08h3.16v-8.48l15.08,0.04v3.96a0.652,0.652,0,0,1-.22.46,0.734,0.734,0,0,1-.54.22,29.54,29.54,0,0,1-5.04-.2q0.36,0.921,1.4,3.08h2.3a15.963,15.963,0,0,0,3.02-.2,3.463,3.463,0,0,0,1.42-1,2.7,2.7,0,0,0,.66-1.52v-20.44H374.88q0.519-1.08,1.44-3.72l21.52-.04v-2.88H377.48q0.96-3.279,1.32-4.96L375.72,97q-0.8,3.321-1.1,4.26t-0.46,1.34h-9.52v2.92l8.4,0.04a26.624,26.624,0,0,1-4.1,7.26,52.282,52.282,0,0,1-6.74,7.14Zm24.92-9.6v3.28l-15-.04V112.2h15Zm-15.08,6.16,15.12,0.04V122H374.84v-3.64Zm64,12.64a22.062,22.062,0,0,1-7.72-7.64,29.923,29.923,0,0,0,2.98-7.14,36.3,36.3,0,0,0,1.3-7.98h2.4v-2.88H427.52a52.613,52.613,0,0,0,.36-7.48,9.4,9.4,0,0,0-1.6-.32q-0.96-.12-1.2-0.16,0,2.68-.28,5.92a27.106,27.106,0,0,1-5.32,14.44l2.68,1.44a31.417,31.417,0,0,0,2.6-4.28,33.7,33.7,0,0,0,2.96,8.36q-2.441,3.88-8.32,7.88l2.36,2.12a36.578,36.578,0,0,0,4.28-3.56,32.455,32.455,0,0,0,3.36-3.68,26.985,26.985,0,0,0,3.2,3.84,31.773,31.773,0,0,0,3.92,3.44Zm-11.8-22.76h5.2a30.558,30.558,0,0,1-.48,4.8,27.321,27.321,0,0,1-1.06,4.24,18.3,18.3,0,0,1-1.18,2.76,23.5,23.5,0,0,1-1.56-4.44q-0.84-3.079-1.32-5.6Zm-12.56-4.72,1.12-.76a21.438,21.438,0,0,0-2.44-3.04,18.373,18.373,0,0,0-2.88-2.52l-2.48,1.72a19.246,19.246,0,0,1,2.84,2.32,12.21,12.21,0,0,1,1.88,2.32l-8.36.04v2.96H421.6V103.6Zm7.4,10.12a16.992,16.992,0,0,0-5.28-6.6l-2.56,1.56a13.9,13.9,0,0,1,3,2.74,17.279,17.279,0,0,1,2.12,3.46Zm-15.92,3.64a23.982,23.982,0,0,0,3.48-4.18,24.828,24.828,0,0,0,2.32-4.94l-2.64-1a23.056,23.056,0,0,1-1.5,3.24,14.65,14.65,0,0,1-1.94,2.66,19.846,19.846,0,0,1-2.28,2.14Zm-0.72,16.08a26.32,26.32,0,0,0,9.52-9.08,30.522,30.522,0,0,1,2.14,2.82,19.964,19.964,0,0,1,1.74,3.06l2.72-1.92a46.488,46.488,0,0,0-5.2-6.88,16.733,16.733,0,0,0,1.12-2.82,25.333,25.333,0,0,0,.8-3.14l-2.68-.88a29.781,29.781,0,0,1-1.6,4.76,22.117,22.117,0,0,0-2.04-1.48,21.779,21.779,0,0,0-2.44-1.4l-2.24,1.84a26.9,26.9,0,0,1,2.94,1.82,19.04,19.04,0,0,1,2.46,2.02q-2.28,4.68-9.12,8.72Z"/>
</svg>
