<svg id="Frame_5" data-name="Frame 5" xmlns="http://www.w3.org/2000/svg" width="600" height="500" viewBox="0 0 600 500">
  <defs>
    <style>
      .cls-1 {
        fill: #4b286d;
        fill-rule: evenodd;
      }
    </style>
  </defs>
  <path id="智能家居安防_讓家庭生活更輕鬆_" data-name="智能家居安防 讓家庭生活更輕鬆 " class="cls-1" d="M183.944,74.962V79.6h6.039a15.86,15.86,0,0,1-6.439,5.48,21.121,21.121,0,0,1,3.8,4.36,17.429,17.429,0,0,0,2.639-1.92v14.6l5.521-.04v-1.16h12.56v1.16h5.44v-16.2H200.1a7.819,7.819,0,0,1,1.2-1.6,7.194,7.194,0,0,1,1.679-1.32,14.259,14.259,0,0,1-2.4-1.46,19.33,19.33,0,0,1-2.241-1.9h4.28v-4.64h-5.8l-0.04-1.36h5.32l0.04-4.92h-9.36a10.109,10.109,0,0,0,.92-1.72l-5.2-.6a22.648,22.648,0,0,1-5,6.56,16.683,16.683,0,0,1,3.08,2.04h-2.64Zm11.56,16.56v-1.04h12.6v1.04H195.5Zm0,4.72V95.2h12.6v1.04H195.5Zm12.8-12.4h4.76l-0.04,1.44h5.12v-16.6h-15v16.64h5.16v-1.48Zm-10.76,2.04h-6a23.181,23.181,0,0,0,2.359-3.04,24.158,24.158,0,0,0,3.641,3.04h0Zm-8.76-10.92,1.119-1.32h1.36v1.32h-2.479ZM208.3,73.6h4.72v5.24H208.3V73.6Zm27.52,21.08v1.48a1.061,1.061,0,0,1-.12.6,0.468,0.468,0,0,1-.4.16,14.15,14.15,0,0,1-3.2.04,10.765,10.765,0,0,1,1.32,2.36,9,9,0,0,1,.64,2.52,15.768,15.768,0,0,0,3.28-.22,5.257,5.257,0,0,0,1.84-.62,3.382,3.382,0,0,0,1.04-1.16,2.949,2.949,0,0,0,.4-1.44V80.282h-15.24v21.56h4.76v-7.16h5.68Zm0-4h-5.68v-0.92h5.68v0.92Zm0-4.92h-5.68v-0.92h5.68v0.92Zm17.64-18.44-0.72.36-5.28,2.92-0.24.04V66.6h-5q-0.76,0-.76.48a0.99,0.99,0,0,0,.38.68,1.032,1.032,0,0,1,.38.52V77c-0.027.027-.054,0.014-0.08-0.04a0.116,0.116,0,0,0-.08-0.08q-2.2-4.68-3.88-7.52l-4.4,1.72a20.224,20.224,0,0,1,1.56,2.76h-3.76q0.32-.639,1.52-2.92t1.76-3.48q-0.6-.159-2.36-0.62t-2.68-.66l-0.16.44-2.32,5.6-0.96,1.8h-3.4l1.64,5.32,11.28-.96,1.16-.2,0.68,1.6a26.622,26.622,0,0,1,3.6-1.74q0.68-.18.92-0.22a10.969,10.969,0,0,0,.24,2.08,4.464,4.464,0,0,0,1.48,2.14,3.62,3.62,0,0,0,2.36.94h6.8l1.88-.12a4.042,4.042,0,0,0,.96-0.32,3.943,3.943,0,0,0,.76-0.5,4.37,4.37,0,0,0,.74-0.84,5.168,5.168,0,0,0,.64-1.3,33.738,33.738,0,0,0,.78-3.48l-0.64-.16a11.476,11.476,0,0,1-3.8-1.96,13.238,13.238,0,0,1-.44,2.32,4.143,4.143,0,0,1-.58,1.44,1.743,1.743,0,0,1-.78.44l-4.84-.04q-0.6,0-.6-1.24v-1.32l1.64-.84q0.519-.279,3.88-1.9a53.533,53.533,0,0,0,4.88-2.58Zm-6.08,16.12h-5q-0.72,0-.72.36a0.872,0.872,0,0,0,.38.64,0.878,0.878,0,0,1,.38.64v10.76a6.75,6.75,0,0,0,.6,3.2,4.905,4.905,0,0,0,1.5,1.6,3.407,3.407,0,0,0,1.94.64h7.8l1.24-.04a3.915,3.915,0,0,0,1.6-.98,4.753,4.753,0,0,0,1-1.56,14.886,14.886,0,0,0,.66-2.24q0.3-1.34.34-1.5-0.321-.12-1.64-0.52a6.888,6.888,0,0,1-1.8-.74c-0.32-.226-0.534-0.38-0.64-0.46l-0.48-.44a15.535,15.535,0,0,1-.6,2.44q-0.48,1.32-1.16,1.32h-4.6a0.8,0.8,0,0,1-.8-0.76v-2.48q3.879-1.719,10.6-5.6-0.52-.32-2.08-1.48a22.882,22.882,0,0,0-2.44-1.64,47.351,47.351,0,0,1-6.08,3.44v-4.6Zm17.48-13.96v9.56h4.72v-4.88h23.6v4.72h4.8v-9.4H284.7q-0.161-.32-0.381-0.74t-1.539-2.5l-5.961.72q0.2,0.28.9,1.06a6.234,6.234,0,0,1,1.019,1.46H264.864Zm27.439,10v-4.4H270.424l0.039,4.44,5.6,0.08a44.265,44.265,0,0,1-5.5,1.48,50.716,50.716,0,0,1-6.541,1.04,10.993,10.993,0,0,1,1.541,2.2,8.5,8.5,0,0,1,.979,2.44,36.415,36.415,0,0,0,11-3.16,0.139,0.139,0,0,1,.22-0.02,0.352,0.352,0,0,1,.1.26,30.642,30.642,0,0,1-13.16,4.72,8.5,8.5,0,0,1,1.44,1.94q0.6,1.1,1.28,2.66a35.266,35.266,0,0,0,12.44-5.44l0.159,0.4a24.437,24.437,0,0,1-3.64,2.42,58.462,58.462,0,0,1-6.04,2.94,34.774,34.774,0,0,1-6.72,2.16,12.235,12.235,0,0,1,1.8,2.4,17.5,17.5,0,0,1,1.119,2.48,59.124,59.124,0,0,0,6.4-2.24l1.92-.84a9.821,9.821,0,0,1,.939,2.1,6.562,6.562,0,0,1,.341,2.26q1.2,0.039,2.72.04a14.181,14.181,0,0,0,3.119-.36,6.486,6.486,0,0,0,2.76-1.32,3.664,3.664,0,0,0,1-1.26,6.843,6.843,0,0,0,.541-1.62,25.684,25.684,0,0,0,.259-3.52,17.881,17.881,0,0,0,4.181,3.38,50.067,50.067,0,0,0,5.7,2.9h0.319a7.485,7.485,0,0,1,3-4.68,27.861,27.861,0,0,1-11.56-6.56,47.449,47.449,0,0,0,7.16-5.44l-4.76-2.84a29.352,29.352,0,0,1-5.639,4.56,22.455,22.455,0,0,0-1.681-2.82c-0.266-.306-0.453-0.513-0.559-0.62a14.933,14.933,0,0,0,1.459-.96,9.757,9.757,0,0,0,1.38-1.2h6.76Zm-11.32,15.8a2.172,2.172,0,0,1-.559,1,2,2,0,0,1-1.241.28,6.487,6.487,0,0,0-1.039,0l-1.44-.12a25.4,25.4,0,0,0,4.36-3.04A6.407,6.407,0,0,1,280.983,95.282Zm49.681,6.56h5.32V88.762H326.9V86h12.041v-4.72H326.9v-2.56h9.72v-11.2H307.064V82.4a42.874,42.874,0,0,1-.84,8.8,20.177,20.177,0,0,1-2.92,7.12,7.749,7.749,0,0,1,4.6,3.16,18.544,18.544,0,0,0,2.62-5.64,47.22,47.22,0,0,0,1.5-9.84h9.48v2.76h-8.64V101.8h5.319v-1.16h12.481v1.2Zm0.679-27.6H312.184v-2.12h19.159v2.12Zm-9.839,7h-9.32v-2.52h9.32v2.52Zm9.16,14.68H318.183v-2.48h12.481v2.48Zm14.919-15.84h5.361V75.6H372.9v4.6h5.36v-9.52h-13.28q-1.2-2.919-1.96-4.32l-5.48.92a10.244,10.244,0,0,1,.8,1.42q0.321,0.7.84,1.98h-13.6v9.4Zm34.04,6.52v-4.92H360.664q0.6-1.359,1.679-4.52l-5.24-1.28-2.28,5.8H344.3l-0.04,4.96,8.241-.04-4,6.2a15.56,15.56,0,0,1,3.079.62,9.083,9.083,0,0,1,2.2.86L354.823,93a42.809,42.809,0,0,1,4.32,1.52,21.737,21.737,0,0,1-6.419,1.72,40.845,40.845,0,0,1-8.341.2,12.935,12.935,0,0,1,1.6,2.68,7.28,7.28,0,0,1,.681,2.72,43.665,43.665,0,0,0,10.939-1.16,22.161,22.161,0,0,0,7.82-3.48,43.786,43.786,0,0,1,8.92,4.88,14.777,14.777,0,0,1,1.3-1.86,8.9,8.9,0,0,1,1.641-1.62,5.472,5.472,0,0,1,1.419-.8,85.515,85.515,0,0,0-9.44-4.92,28.321,28.321,0,0,0,3.6-6.28h6.76Zm-21.119,0h8.359a10.289,10.289,0,0,1-1.079,2q-0.64.921-1.761,2.28l-6.88-2.16Zm48.519-5.36,0.081-3.96h12.519v-5l-9.04-.08a12.673,12.673,0,0,1,2.361-.72,10.6,10.6,0,0,0-2.02-2.62,30.1,30.1,0,0,0-2.7-2.42l-4.52,1.88a14.89,14.89,0,0,1,3.319,3.96h-8.2q0.118-.32.68-1.5a17.79,17.79,0,0,0,.76-1.78l-2.28-1.68h-12.76v34.4H390.3V91.082a4.37,4.37,0,0,1,1.2,1.82,7.947,7.947,0,0,1,.64,2.46,12.661,12.661,0,0,0,3.159-.7,6.472,6.472,0,0,0,2.4-1.46,6.577,6.577,0,0,0,1.36-1.88,7.568,7.568,0,0,0,.72-3.72,10.029,10.029,0,0,0-1.12-3.9,17.85,17.85,0,0,0-2.641-3.82q0.441-.92,1.16-2.9t0.961-2.58v2.92l3.92-.04v5.64q0,1.041-.02,1.9t-0.12,1.74a17.017,17.017,0,0,1-.3,1.78,11.059,11.059,0,0,1-.6,1.86,15.2,15.2,0,0,1-.94,1.88,17.342,17.342,0,0,1-1.18,1.76,15.907,15.907,0,0,1-5.6,4.32,12.449,12.449,0,0,1,3.141,1.84,9.334,9.334,0,0,1,1.739,1.84,21.363,21.363,0,0,0,3.361-2.98,25.2,25.2,0,0,0,2.639-3.38q2.041-3.12,2.6-9.52l5.88-.04q0,4.641-.12,6.14t-0.28,2.46a2.456,2.456,0,0,1-.84,1.16,10.739,10.739,0,0,1-2.581.56,13.948,13.948,0,0,1-2.779.04,11.651,11.651,0,0,1,1.54,2.58,10.9,10.9,0,0,1,.82,2.86l0.64-.04a13.327,13.327,0,0,0,5.239-1.14,4.815,4.815,0,0,0,2.4-2.46,11.153,11.153,0,0,0,.639-2.92q0.2-1.839.2-6.08l0.039-7.84h-10.56Zm-16.039-.88a14.133,14.133,0,0,1,3.84,6.8,4.582,4.582,0,0,1-.26,1.26,1.65,1.65,0,0,1-.261.38,3.5,3.5,0,0,1-1.72.86,14.96,14.96,0,0,1-2.28.22l0.04-17.48h3.521Zm-235,65.68a31.119,31.119,0,0,0,4.04-1.36v2.28a0.7,0.7,0,0,1-.3.22q-0.22.1-1.18,0.46l1.52,2.4q2-.8,8.04-2.48l-0.08-2.68q-1.56.321-5.04,1.24v-3.24a12.6,12.6,0,0,0,2.56-2.48h0.96a14.873,14.873,0,0,0,1.44,3.2,11.089,11.089,0,0,0,4.1,4.14,19.166,19.166,0,0,0,5.94,2.26l1.28-2.64a12.914,12.914,0,0,1-2.76-.58,15.488,15.488,0,0,1-3.32-1.62,17.056,17.056,0,0,0,4-3.12l-1.84-1.68h2.6l-0.04-2.68h-5.84v-1.56h4.2v-2.68h-4.2v-1.28h5.4v-2.64H172.1v-1.68h4.36v-6.76h-9.24v6.84l2.08-.04-0.04,1.64H163.5a8.32,8.32,0,0,1,0-1.64h1.96v-6.8h-9.2v6.8h4.44v1.64h-5.36l0.04,2.64h5.36v1.24l-4.08.04v2.64h4.08v1.6H155.1v2.72l6.8,0.08a17.792,17.792,0,0,1-7.56,3.16v-7.6h-9.08v13.24h2.88v-2.76h3.36v2.72h2.84l0.08-5.16Zm13.32-9.92-0.04,1.56h-5.6v-1.56h5.64Zm-0.04-3.96v1.28H163.5v-1.28h5.76Zm5.84,8.16a16.8,16.8,0,0,1-3.96,3.16,8.653,8.653,0,0,1-.88-1.46,14.553,14.553,0,0,1-.76-1.7h5.6Zm-23.68-1.56v5.04h-3.28l0.04-5.04h3.24Zm22.28-13.4h-3.72v-1.84h3.72v1.84Zm-14.76-1.84h3.8v1.92h-3.8v-1.92Zm-4.2-3.76-4.36-.08,1.52-.64a22.671,22.671,0,0,0-1.58-2.92,14.136,14.136,0,0,0-1.86-2.4l-2.68,1.44a13.238,13.238,0,0,1,2.08,2.52,14.883,14.883,0,0,1,1,2.08h-5.52l0.04,2.8h12.2v-2.68l22.64,0.04v-2.8h-10.36a23.07,23.07,0,0,0-2.96-3.44l-2.76,1.44q1.959,1.641,2.08,1.78c0.08,0.094.146,0.167,0.2,0.22l-9.64-.04Zm0.24,5.08H144.9v2.84l10.08-.04v-2.8Zm0,5.32H144.9V133h10.08v-2.84Zm62.359-11.36H203.824a14.869,14.869,0,0,0-2.421-3.12,13.756,13.756,0,0,0-2.659-2.12l-2.52,1.88a29.789,29.789,0,0,1,3.14,2.52,5.94,5.94,0,0,1,.66.84h-14.44v7.44h3.08l-0.04-4.6h25.64v4.44h3.079V118.8Zm1.921,25.72a11.11,11.11,0,0,1-3.46-2.16,18.732,18.732,0,0,1-3.06-3.56,15.739,15.739,0,0,1-2.04-4.16,29.24,29.24,0,0,0,4.44-4l-2.32-2.04q-3.841,4.6-7.4,5.76a10.58,10.58,0,0,0-1.62-2.54,9.453,9.453,0,0,0-2.14-1.94,28.686,28.686,0,0,0,3.84-2.56h7.36v-2.84H190.3l-0.041,2.88,10.08,0.04q-4.959,3-14.559,4.52l2.08,2.64a34.9,34.9,0,0,0,10.84-3.16,12.118,12.118,0,0,1,2,1.36,26.315,26.315,0,0,1-3.721,2.2,28.142,28.142,0,0,1-5.3,1.94,57.371,57.371,0,0,1-6.66,1.34l2.12,2.6a30.158,30.158,0,0,0,8.1-1.96,37.116,37.116,0,0,0,7.1-3.84,16.419,16.419,0,0,1,1.081,2.32,26.444,26.444,0,0,1-8.4,4.86,55.191,55.191,0,0,1-10.8,2.62l2.2,2.76a64.414,64.414,0,0,0,6.66-1.62,41.377,41.377,0,0,0,6.08-2.34,22.108,22.108,0,0,0,4.9-3.16,33.292,33.292,0,0,1-.161,5.36,1.736,1.736,0,0,1-.439.76,2.2,2.2,0,0,1-.72.56,13.387,13.387,0,0,1-2.92-.26,33.439,33.439,0,0,1-3.8-1.02l1.239,3.56q5.162,0.96,7,.28a3.458,3.458,0,0,0,1.781-1.38,7.74,7.74,0,0,0,.939-3.46,22.906,22.906,0,0,0-.019-3.94,29.965,29.965,0,0,0-.58-3.94l1.92-.8a23.863,23.863,0,0,0,1.64,3.58,19.537,19.537,0,0,0,3.06,4.1,12.44,12.44,0,0,0,4.26,3Zm6.08,4.92a17.777,17.777,0,0,0,3.78-6.8,30.086,30.086,0,0,0,1.06-8.32v-13.84h28.88v-2.92h-14.12l0.68-.68a14.042,14.042,0,0,0-2.92-2.36,12.472,12.472,0,0,0-3.32-1.44q-0.8.84-2.28,2.16a10.346,10.346,0,0,1,4.84,2.32h-14.96v16.76a27.69,27.69,0,0,1-.88,7.54,13.944,13.944,0,0,1-3.36,5.7Zm35.12-4.32q-7.8.4-14.4,0.16a17.087,17.087,0,0,1-3-.42,16.412,16.412,0,0,1-4.72-2.22q2.16-3.6,2.36-10.6h-4.96a24.019,24.019,0,0,0,2.56-2.9,29.072,29.072,0,0,0,2.28-3.38V124.6l1.96,2.52q1.519,0.04,3.18-.08a23.853,23.853,0,0,0,2.7-.32v4.44H241.7v2.88h6.72l-0.04,5.88H240.1v2.92h19.12v-2.92h-7.8v-5.88h6.8v-2.92l-6.8.04V126.2a30.472,30.472,0,0,0,6.84-2.64l-2.04-2.24q-5.241,3.041-15.64,2.84v-1.04H231.1V126h5.8a50.753,50.753,0,0,1-5.4,6v2.96h6.12a14.823,14.823,0,0,1-.52,2.72,16.362,16.362,0,0,1-1,2.64,22.516,22.516,0,0,1-2.6-4.56l-2.52,1.52a33.712,33.712,0,0,0,2.18,3.96,18.69,18.69,0,0,0,1.34,1.84,24.377,24.377,0,0,1-2.7,2.54,17.179,17.179,0,0,1-2.94,1.94l2.12,2.28a26.56,26.56,0,0,0,3.18-2.26,25.24,25.24,0,0,0,2.7-2.54,14.954,14.954,0,0,0,9.16,3.04l13.16,0.16Zm10.88-27.96a24.5,24.5,0,0,1-1.2,6.04,18.039,18.039,0,0,1-2.4,4.68,30.354,30.354,0,0,1-3.72,4.16l3.04,1.64q4.239-4.56,5.4-7.8h7.8l-0.04,7.44H269.9v2.92h10.32l0.04,8.52h-14.28v2.96h33v-2.96h-15.64l0.04-8.56,11.16,0.04v-2.92h-11.16v-7.48l13.04,0.04v-2.96h-13.08V114.4h-3.12l0.04,8.52h-6.72q0.039-.2.28-1.12t0.4-1.84a11.017,11.017,0,0,0,.16-1.88ZM333.3,150l3.08,0.04v-14.92l-8.2.04v-6.72H339.5v-2.88l-11.321-.04v-5.6a42.29,42.29,0,0,0,9.481-3.32l-2.12-2.28a36.2,36.2,0,0,1-7.78,2.46,67.43,67.43,0,0,1-12.7,1.06l1.6,2.96q6.4-.24,8.44-0.56v5.28l-11.24.04v2.88h11.28l-0.04,6.72h-8.24l0.039,15h3.041l0.04-2.68H333.3V150Zm0-11.96v6.56h-13.32v-6.56H333.3ZM315.664,121a15.315,15.315,0,0,0-3.26-3.04,16.171,16.171,0,0,0-3.9-2.08l-2.04,2.04a17.667,17.667,0,0,1,7.08,5.24Zm-3.08,9.32a16.448,16.448,0,0,0-6.68-5.6l-2.36,2.08a14.052,14.052,0,0,1,6.88,5.68Zm-5.68,18.72a33.151,33.151,0,0,0,7.36-13.8l-2.52-1.2a32.426,32.426,0,0,1-7.28,13.24Zm73.6-2.24q-3.721-.079-7.821-0.54a67.667,67.667,0,0,1-7.22-1.16,19.225,19.225,0,0,1-4.88-1.66,11.887,11.887,0,0,0,1.68-3.02,15.191,15.191,0,0,0,.92-3.54h11.68v-14.8h-11.12v-2.96l15.481,0.04v-2.84H345.1v2.84l15.681-.04v2.96H349.3l-0.04,14.8h10.88a12.676,12.676,0,0,1-.82,2.64,10.944,10.944,0,0,1-1.379,2.4,47.133,47.133,0,0,1-5.841-4.56l-2.319,1.56a27.282,27.282,0,0,0,5.8,5.12,34.6,34.6,0,0,1-6.019,2.26,54,54,0,0,1-5.62,1.26l1.8,2.68a28.116,28.116,0,0,0,11.481-3.8l1.239-.84a37.365,37.365,0,0,0,7.64,2.66,72.7,72.7,0,0,0,12.52,1.62Zm-8.56-18.8h-8.16l0.039-3.08h8.121V128Zm-19.681-3.08,8.521,0.04V128h-8.521v-3.08Zm19.72,5.92V134H363.5l0.2-3.16h8.28Zm-19.72,0h8.44l-0.16,3.16-8.28-.04v-3.12Zm32.961-9.68h7l0.04,2.24-5.6-.04,0.04,14.44h5.56v2.32H384.5v2.84h7.88v7.12l2.8,0.08-0.039-7.2h6.84l-0.04-2.84h-6.761V137.8h5.241v-14.44l-5.241.04v-2.16l6.16-.08v-2.84H395.1l0.079-4.24h-3.039l0.039,4.24h-6.919Zm7.04,5.04v2.88h-2.72l0.039-2.88h2.681Zm5.319,8.84-2.479-.08,0.079-3.08,2.4,0.04v3.12Zm0-8.84v2.88H395.1l-0.04-2.88h2.519Zm-8,5.68,2.681,0.04v2.96l-2.681.04v-3.04Zm19.4,7.16V145h-8.12v2.88h19.36v-2.92h-8.24l0.039-5.96H418.1l-0.081-2.88-15.4.04v2.88h6.361Zm10.28-22.76H401.5v2.8l17.76-.04v-2.76Zm0.2,17.52a27.083,27.083,0,0,0-4.039-6.68,33.466,33.466,0,0,0,3.719-6.2l-2.6-1.56a26.726,26.726,0,0,1-4.72,7.96,14.967,14.967,0,0,1,2.819,3.4,42.348,42.348,0,0,1,2.3,4.56Zm-13.639-14.36a23.039,23.039,0,0,1-4.76,8,16.028,16.028,0,0,1,5,7.88l2.6-1.56q-0.961-2.04-1.921-3.72a13.175,13.175,0,0,0-2.079-2.8,25.666,25.666,0,0,0,3.679-6q-1.52-1.16-2.519-1.8h0Zm8.2,14.36a22.209,22.209,0,0,0-3.879-6.72,19.2,19.2,0,0,0,1.92-2.88,24.817,24.817,0,0,0,1.6-3.44q-0.24-.12-1.1-0.56a8.393,8.393,0,0,0-1.42-.6,23.737,23.737,0,0,1-4.48,7.48v0.36a17.11,17.11,0,0,1,4.8,7.96Zm31.321-6.4v-2.56h-14.16v-0.52h11.88V121.8h-11.8l-0.04-.56H443.1v-2.52h-11.88v-0.64h13v-2.76h-15.84l0.04,9.52h-3.16v2.56l5.28,0.08q-0.24.16-1.04,0.8a10.359,10.359,0,0,1-1.5,1.02q-0.7.381-1.34,0.66l1.28,2.2,2.28-.16,11.08-.52a12.907,12.907,0,0,1,1.12,1.28l2.2-1.6a12.081,12.081,0,0,0-2.16-2.1,17.743,17.743,0,0,0-2.4-1.66h5.28Zm0.08-6.4a34.812,34.812,0,0,0,12.64-5.52l-1.96-1.96a33.738,33.738,0,0,1-12.76,4.96Zm11.12-3.24a32.662,32.662,0,0,1-11.88,5.32l2.12,2.48a50.516,50.516,0,0,0,6.38-2.42,25.733,25.733,0,0,0,5.3-3.34Zm-18.24,9.72-1.48,1q0.519,0.2.94,0.38c0.28,0.12.48,0.214,0.6,0.28a0.331,0.331,0,1,1,.1.06q-3.041.2-6.36,0.12a10.151,10.151,0,0,0,2.28-1.92Zm22.64,11.96a14.517,14.517,0,0,1-2.34-1.68,13.538,13.538,0,0,1-2.36-2.7,16.687,16.687,0,0,1-1.78-3.38H447.3v2.92h5.4a16.24,16.24,0,0,0,6.24,7.28Zm-16.44-7.88a21.156,21.156,0,0,1-1.1,2.62,14.063,14.063,0,0,1-1.9,2.84,25.385,25.385,0,0,1-2.88,2.86l2.52,1.76a24.424,24.424,0,0,0,3.7-4.16,16.45,16.45,0,0,0,2.22-4.68Zm14.48,16.6a17.2,17.2,0,0,0-5.92-7.8l-2.48,1.4a13.18,13.18,0,0,1,1.7,1.44,13.527,13.527,0,0,1,1.54,1.76l-8.4.36a14.545,14.545,0,0,0,3.2-3.42,18.241,18.241,0,0,0,2.4-4.74l-2.72-1.36a19.817,19.817,0,0,1-2.9,5.66,21.141,21.141,0,0,1-4.54,4.58l1.84,2.64,4.48-.44,8.24-.56,0.76,1.88Zm-0.76-25.88q-4.881,3.761-14.52,6.24l1.76,2.52q3.4-.96,6.1-1.96a31.341,31.341,0,0,0,4.9-2.28,29.229,29.229,0,0,0,3.68-2.48Zm-17.4,20.88a19.413,19.413,0,0,0-2.24-2.88,14.809,14.809,0,0,0-2.68-2.36l-0.48.36-0.04-1.08h5.76l-0.04-2.88h-5.68v-2.08h-3l-0.04,2.08h-6.72l-0.04,2.88h6.32a11.438,11.438,0,0,1-2.96,4.06,25.381,25.381,0,0,1-4.84,3.54q0.36,0.48,1.96,2.16a22.8,22.8,0,0,0,3.8-2.68,11.066,11.066,0,0,0,2.48-2.8v8.44h3v-9.16a11.518,11.518,0,0,1,1.56,1.82,22.675,22.675,0,0,1,1.36,2.34Z"/>
</svg>
