<svg xmlns="http://www.w3.org/2000/svg" width="300" height="600" viewBox="0 0 300 600">
  <defs>
    <style>
      .cls-1, .cls-2 {
        fill-rule: evenodd;
      }

      .cls-2 {
        fill: none;
        stroke: #000;
        stroke-width: 0.5px;
      }
    </style>
  </defs>
  <path class="cls-1" d="M45.661,25.3l-1.168,7.255L43.326,25.3H39.55l-0.2,9.281h2.313l0.062-8.592,1.591,8.592h2.347l1.593-8.592,0.063,8.592h2.319L49.432,25.3H45.661ZM24.233,27.688a1.155,1.155,0,0,1-.009-0.487,0.763,0.763,0,0,1,.847-0.626,0.792,0.792,0,0,1,.86.843v0.574h2.308V27.341c0-2.019-1.815-2.341-3.124-2.341-1.644,0-2.987.547-3.233,2.063a3.219,3.219,0,0,0,.018,1.251c0.4,1.9,3.69,2.446,4.169,3.647a1.2,1.2,0,0,1,.018.686,0.8,0.8,0,0,1-.9.627,0.826,0.826,0,0,1-.924-0.845l0-.893H21.773v0.71c0,2.075,1.625,2.7,3.364,2.7,1.672,0,3.045-.571,3.269-2.125A4.63,4.63,0,0,0,28.4,31.3C28.007,29.352,24.5,28.775,24.233,27.688Zm30.1,0.023a1.24,1.24,0,0,1-.008-0.48,0.759,0.759,0,0,1,.839-0.621,0.782,0.782,0,0,1,.848.836v0.568h2.282V27.366c0-2-1.788-2.314-3.082-2.314-1.63,0-2.961.539-3.2,2.044a3.106,3.106,0,0,0,.022,1.237c0.4,1.876,3.653,2.421,4.126,3.607a1.255,1.255,0,0,1,.017.68,0.785,0.785,0,0,1-.892.619,0.82,0.82,0,0,1-.922-0.832V31.516H51.9v0.708c0,2.052,1.6,2.671,3.328,2.671,1.653,0,3.018-.566,3.237-2.1a4.533,4.533,0,0,0-.016-1.5C58.066,29.364,54.595,28.785,54.332,27.711ZM31.681,25.3l-1.714,9.281h2.5l1.292-8.592,1.261,8.592H37.5L35.8,25.3H31.681Zm51.557,4.072v1.354h0.949v1.343a1.716,1.716,0,0,1-.024.353,1,1,0,0,1-1.891,0,2.283,2.283,0,0,1-.024-0.353V27.822a1.908,1.908,0,0,1,.042-0.439,0.969,0.969,0,0,1,1.845,0,2.475,2.475,0,0,1,.028.358v0.515h2.331v-0.3a5.542,5.542,0,0,0-.018-0.614C86.3,25.6,84.871,25.046,83.23,25.046s-3.045.556-3.249,2.292c-0.018.159-.046,0.444-0.046,0.614v3.9a5.351,5.351,0,0,0,.037.612c0.152,1.693,1.615,2.293,3.252,2.293s3.1-.6,3.255-2.293c0.027-.31.03-0.442,0.034-0.612V29.367H83.238Zm-7.891,3.4L73.168,25.3H69.733V34.48h2.272l-0.132-7.712,2.341,7.712h3.294V25.3H75.221ZM67.167,25.3H64.826v6.866a1.648,1.648,0,0,1-.021.353,0.919,0.919,0,0,1-1.772,0,1.5,1.5,0,0,1-.024-0.353V25.3h-2.34v6.653c0,0.172.011,0.522,0.021,0.614,0.161,1.734,1.524,2.3,3.225,2.3s3.066-.563,3.231-2.3a4.856,4.856,0,0,0,.02-0.614V25.3ZM37.827,43.241a3.2,3.2,0,0,0-2.486-1.087A3.833,3.833,0,0,0,31.506,46.2a3.88,3.88,0,0,0,3.809,4.031,3.173,3.173,0,0,0,2.512-1.18V50.07h1.785V42.313H37.827v0.928Zm-2.221,5.345a2.4,2.4,0,1,1,2.313-2.414A2.347,2.347,0,0,1,35.606,48.585Zm14.279-5.345A3.2,3.2,0,0,0,47.4,42.154,3.833,3.833,0,0,0,43.565,46.2a3.879,3.879,0,0,0,3.808,4.031,3.173,3.173,0,0,0,2.512-1.18V50.07h1.785V42.313H49.885v0.928Zm-2.222,5.345a2.4,2.4,0,1,1,2.314-2.414A2.347,2.347,0,0,1,47.663,48.585Zm16.659-1.047-2.155-5.225h-1.9l3.175,7.346L62.048,53h1.839l4.349-10.687H66.358Zm-4.257-5.225H57.95L56.2,44.766l-1.759-2.453H52.264l2.8,3.806L52.159,50.07H54.34l1.838-2.586,1.891,2.586h2.182l-2.962-3.939ZM40.841,50.07h1.8V40.258h-1.8V50.07ZM25.72,46.377H28.8a2.732,2.732,0,0,1-2.79,2.095,3.222,3.222,0,0,1-.066-6.443,2.983,2.983,0,0,1,2.789,1.684l1.586-.954a4.921,4.921,0,0,0-4.389-2.479,4.972,4.972,0,0,0,.079,9.944,4.658,4.658,0,0,0,4.72-4.853V44.654H25.72v1.723Zm44.913,2.108,1.639-1.3A2.434,2.434,0,0,0,74.388,48.5a1.331,1.331,0,0,0,1.467-1.3c0-.822-0.978-1.074-2.009-1.392-1.3-.411-2.737-0.915-2.737-2.758a2.944,2.944,0,0,1,3.2-2.771,4.121,4.121,0,0,1,3.239,1.405L76.067,42.81a1.976,1.976,0,0,0-1.745-.928,1.16,1.16,0,0,0-1.348,1.1c0,0.769.925,1.021,1.97,1.366,1.309,0.424,2.789,1.008,2.789,2.864a3.1,3.1,0,0,1-3.332,3.01A4.743,4.743,0,0,1,70.634,48.485Zm7.879-.093c0-1.657,1.335-2.652,2.538-3.46,0.952-.663,1.824-1.207,1.824-1.949a1.172,1.172,0,0,0-1.322-1.154,1.857,1.857,0,0,0-1.692,1.379l-1.547-.782a3.417,3.417,0,0,1,3.252-2.148c1.957,0,3.133,1.193,3.133,2.718s-1.256,2.386-2.406,3.169c-1,.676-1.97,1.286-1.983,2.2h4.35v1.724H78.513v-1.7Zm6.649,0.477,1.56-1.167a1.763,1.763,0,0,0,1.52.875,1.286,1.286,0,0,0,1.428-1.286,1.439,1.439,0,0,0-1.653-1.339H87.026V44.3h0.992a1.325,1.325,0,0,0,1.534-1.286,1.2,1.2,0,0,0-1.362-1.167,1.526,1.526,0,0,0-1.467.928l-1.534-.8a3.319,3.319,0,0,1,2.975-1.7c1.877,0,3.133,1.047,3.133,2.718a2.492,2.492,0,0,1-1.1,2.082,2.468,2.468,0,0,1,1.269,2.214,2.879,2.879,0,0,1-3.213,2.93A3.812,3.812,0,0,1,85.162,48.869Zm9.214-.385,1.639-1.3A2.434,2.434,0,0,0,98.131,48.5,1.331,1.331,0,0,0,99.6,47.2c0-.822-0.978-1.074-2.009-1.392-1.3-.411-2.737-0.915-2.737-2.758a2.943,2.943,0,0,1,3.2-2.771,4.122,4.122,0,0,1,3.239,1.405L99.81,42.81a1.976,1.976,0,0,0-1.745-.928,1.16,1.16,0,0,0-1.348,1.1c0,0.769.925,1.021,1.97,1.366,1.309,0.424,2.79,1.008,2.79,2.864a3.1,3.1,0,0,1-3.332,3.01A4.742,4.742,0,0,1,94.376,48.485Zm7.633-2.254a4,4,0,0,1,4.019-4.057,3.867,3.867,0,0,1,3.979,3.991v0.676h-6.293a2.418,2.418,0,0,0,4.522.464l1.467,0.849A4.112,4.112,0,0,1,102.009,46.231Zm1.8-.888H108.2a2.056,2.056,0,0,0-2.168-1.591A2.291,2.291,0,0,0,103.807,45.343Zm7.02-3.01H112.6v1.154a1.975,1.975,0,0,1,1.983-1.154,2.717,2.717,0,0,1,1.362.331l-0.674,1.7a1.809,1.809,0,0,0-1.071-.3c-1.031,0-1.587.557-1.587,1.9v4.136h-1.784V42.333Zm6.565-3.023a1.12,1.12,0,1,1-1.124,1.127A1.05,1.05,0,0,1,117.392,39.31Zm-0.9,3.023h1.8v7.756h-1.8V42.333Zm2.6,3.9a4,4,0,0,1,4.019-4.057,3.868,3.868,0,0,1,3.979,3.991v0.676H120.8a2.418,2.418,0,0,0,4.522.464l1.467,0.849A4.112,4.112,0,0,1,119.1,46.231Zm1.8-.888h4.389a2.056,2.056,0,0,0-2.168-1.591A2.291,2.291,0,0,0,120.9,45.343Zm6.5,3.023,1.652-.8a2.017,2.017,0,0,0,1.864,1.127,1.106,1.106,0,0,0,1.323-.941c0-.557-0.86-0.689-1.812-0.888-1.335-.265-2.71-0.716-2.71-2.333,0-1.246,1.19-2.387,3.041-2.373a3.444,3.444,0,0,1,3.159,1.6l-1.52.769a1.829,1.829,0,0,0-1.639-.889,1.019,1.019,0,0,0-1.243.835c0,0.517.621,0.649,1.772,0.9,1.269,0.265,2.723.7,2.723,2.334,0,1.087-.965,2.546-3.173,2.532A3.516,3.516,0,0,1,127.39,48.365Z"/>
  <path class="cls-2" d="M0,0H300V600H0V0Z"/>
</svg>
