<svg id="t" xmlns="http://www.w3.org/2000/svg" width="300" height="50" viewBox="0 0 300 50">
  <defs>
    <style>
      .cls-1 {
        fill: #232323;
        fill-rule: evenodd;
      }
    </style>
  </defs>
  <path class="cls-1" d="M8.484,39.988c-0.128.041-.284,0.082-0.469,0.123s-0.341.069-.469,0.085l0.069,0.062,0.254,0.276L8.13,40.825,8.192,40.9l-0.446.322q-0.162-.215-0.469-0.729l-0.046-.076-0.039.069a6.818,6.818,0,0,1-.453.737L6.3,40.9l0.046-.054,0.269-.322a3.135,3.135,0,0,1,.308-0.33Q6.416,40.088,6,39.988l0.177-.538q0.33,0.123.527,0.2a2.447,2.447,0,0,1,.334.165l-0.008-.084q-0.062-.707-0.061-0.852H7.508a6.4,6.4,0,0,1-.069.844l-0.016.085a8.109,8.109,0,0,1,.884-0.361Zm0.6,2.41a10,10,0,0,0,1.3-1.37,5.1,5.1,0,0,0,.788-1.393l-1.614-.008v-0.56h1.829c0.02-.051.05-0.136,0.088-0.257s0.109-.392.211-0.818l0.592,0.131q-0.069.323-.254,0.952h3.913v0.552l-4.136.008q-0.177.507-.277,0.714H15v3.922a0.521,0.521,0,0,1-.127.292,0.666,0.666,0,0,1-.273.192,3.063,3.063,0,0,1-.58.038H13.58q-0.2-.414-0.269-0.591a5.657,5.657,0,0,0,.969.039,0.141,0.141,0,0,0,.1-0.042,0.125,0.125,0,0,0,.042-0.088V43.35l-2.9-.007v1.627H10.92V41.309a5.132,5.132,0,0,1-.365.46q-0.234.268-.934,0.982Zm2.429,0.391h2.906V42.1l-2.906-.008v0.7Zm0.015-1.88v0.622l2.883,0.008v-0.63H11.528Zm5.45,2.341A12.105,12.105,0,0,0,18.5,42.2a5.045,5.045,0,0,0,.776-0.806H17.262V40.84h2.352A5.787,5.787,0,0,0,20.1,39.8l0.538,0.23a7.98,7.98,0,0,1-.33.814h3.121v0.553l-3.459.008a6.735,6.735,0,0,1-.638.813h3.3L22.62,44.962H22.043l-0.008-.538-2.729.008v0.537H18.723v-2.18a13.3,13.3,0,0,1-1.314.906Zm1.645-2.7V39.7L17.039,39.7l-0.008-.552,1.591-.008V38.131H19.2v1.014h1.03V39.7H19.2v0.844H18.623Zm3.421,3.316v-1.09H19.307v1.1Zm-0.638-3.339V39.7H20.391v-0.56H21.4V38.123h0.576v1.021h1.607l-0.008.552H21.982v0.829H21.405Zm3.5,0.982V40.932h2.783l-0.007-1.788H25.425V38.561h5.112l0.008,0.584h-2.26v1.781l2.759,0.008v0.575l-2.759.008v3.469H27.678V41.516Zm8.725,3.485H33.035l0.008-3.554c-0.005.005-.04,0.057-0.1,0.154s-0.128.188-.192,0.273-0.117.149-.158,0.2l-0.469-.353a7.593,7.593,0,0,0,.761-1.232A8.448,8.448,0,0,0,33.3,39.42q0.161-.514.361-1.366l0.515,0.2a18.7,18.7,0,0,1-.538,2ZM34.619,43.4H34.05V39.374h0.569v1.735a5.772,5.772,0,0,0,1.829-.676A3.934,3.934,0,0,1,35.98,39.7a5.7,5.7,0,0,1-.761.875L34.7,40.219a3.2,3.2,0,0,0,.515-0.476,4.453,4.453,0,0,0,.55-0.779,5.951,5.951,0,0,0,.434-0.933L36.7,38.215l-0.192.5h2.3v0.568H38.285a2.417,2.417,0,0,1-.188.372,2.869,2.869,0,0,1-.331.437,2.915,2.915,0,0,1-.419.388,3.52,3.52,0,0,0,1.776.584l-0.269.56q-0.454-.091-0.842-0.211a3.518,3.518,0,0,1-.672-0.276,2.987,2.987,0,0,1-.469-0.311q-0.369.223-.654,0.365a4.25,4.25,0,0,1-.622.249q-0.338.108-.7,0.184l-0.261-.437Zm4.22,1.044a3.675,3.675,0,0,1-1.668-1.819l-0.016,2.341H36.564V42.582a3.241,3.241,0,0,1-.638.941,6.736,6.736,0,0,1-1.107.971L34.434,44A5.234,5.234,0,0,0,35,43.626a4.02,4.02,0,0,0,.6-0.568,2.913,2.913,0,0,0,.442-0.652H35.026l0.008-.568h1.53V41.093h0.592l0.008,0.745h1.553l0.008,0.56-1.053.008a3.691,3.691,0,0,0,1.622,1.627ZM36.41,39.282a2.716,2.716,0,0,0,.531.852c0.123-.108.238-0.218,0.346-0.334a6.39,6.39,0,0,0,.423-0.526Zm3.421,2.433a7.914,7.914,0,0,0,1.714-3.638L42.1,38.192a9.354,9.354,0,0,1-.476,1.742v5.043l-0.592.008V41.032q-0.208.331-.7,1.036Zm2.076,0.545,0.008-.583h2.137l0.008-1.52-1.038-.007a7.177,7.177,0,0,1-.669,1.236l-0.538-.269a4.841,4.841,0,0,0,.657-1.163,5.617,5.617,0,0,0,.327-1.339l0.53,0.169a3.652,3.652,0,0,1-.115.791l0.838-.008,0.008-1.519,0.615,0.008v1.512l1.591,0.008v0.583l-1.591-.007v1.527l2.114-.008v0.584l-2.114.007-0.008,2.678H44.051l0.008-2.678H41.906Zm10.047-.437a1.024,1.024,0,0,1-.331.464,0.914,0.914,0,0,1-.507.219,1.071,1.071,0,0,1-.473-0.077,1.024,1.024,0,0,1-.388-0.276,0.915,0.915,0,0,1-.2-0.442,1,1,0,0,1,.027-0.5,0.964,0.964,0,0,1,.327-0.464,0.891,0.891,0,0,1,.519-0.211,1.09,1.09,0,0,1,.5.084,0.918,0.918,0,0,1,.384.315,1.034,1.034,0,0,1,.181.426A0.926,0.926,0,0,1,51.953,41.823Zm-0.484-.5a0.549,0.549,0,0,0-.138-0.18,0.529,0.529,0,0,0-.2-0.111,0.49,0.49,0,0,0-.257.008,0.463,0.463,0,0,0-.219.131,0.547,0.547,0,0,0-.115.207,0.475,0.475,0,0,0-.015.238,0.491,0.491,0,0,0,.1.207,0.531,0.531,0,0,0,.173.146,0.483,0.483,0,0,0,.3.031,0.5,0.5,0,0,0,.265-0.138,0.455,0.455,0,0,0,.131-0.261A0.548,0.548,0,0,0,51.469,41.324Z"/>
</svg>
