<svg xmlns="http://www.w3.org/2000/svg" width="300" height="50" viewBox="0 0 300 50">
  <defs>
    <style>
      .cls-1 {
        fill: #4b286c;
        fill-rule: evenodd;
      }
    </style>
  </defs>
  <path class="cls-1" d="M6,18.275a6.486,6.486,0,0,0,.908-1.556,4.751,4.751,0,0,0,.311-1.683l0.921,0.255a6.31,6.31,0,0,1-1.116,3.3Zm3.971-6.01a4.629,4.629,0,0,1,.662.789,5.6,5.6,0,0,1,.61,1.3l-0.857.454a2.354,2.354,0,0,0-.169-0.639q-1.9.256-3,.483L6.661,13.629a11.584,11.584,0,0,0,1.129-1.08,7.637,7.637,0,0,0,1.077-1.477c-0.121.01-.279,0.026-0.474,0.05s-0.673.111-1.434,0.263l-0.519-.91A6.577,6.577,0,0,0,7.784,9.069,11.436,11.436,0,0,0,9.076,6.5l0.9,0.526a9.9,9.9,0,0,1-1.9,3.125,6.926,6.926,0,0,0,1.337-.157l0.415-.937,0.883,0.54a13.005,13.005,0,0,1-1.136,2.167A8.836,8.836,0,0,1,8.232,13.4l1.415-.17-0.48-.554ZM8.6,18.175a4.328,4.328,0,0,0-.3-2.87l0.974-.128A5.557,5.557,0,0,1,9.621,18Zm1.986-.4a4.412,4.412,0,0,0-.227-1.37,5.006,5.006,0,0,0-.643-1.229l0.909-.284a6.516,6.516,0,0,1,.947,2.642Zm7.138-.341v1.009h-2.79a1.562,1.562,0,0,1-1.064-.312,1.394,1.394,0,0,1-.35-1.08V14.439l-2.232.014V10.177l0.973,0.014v3.225h1.259V8.984H10.529V7.947l3,0.014V6.114h0.96L14.5,7.947h3.128l0.013,1.037L14.5,9v4.418l1.415,0.014L15.9,10.177l0.986-.014v4.958L15.9,15.107V14.439H14.488L14.5,16.811a0.53,0.53,0,0,0,.467.625h2.752ZM19.978,11.5h4.4V6.185l1-.014,0.013,5.341,4.543-.014v1.079h-3.3l0.013,4.347a0.283,0.283,0,0,0,.071.185,0.209,0.209,0,0,0,.162.085h1.96a0.319,0.319,0,0,0,.2-0.192,3.171,3.171,0,0,0,.214-0.732,4.833,4.833,0,0,0,.1-1.065,4.506,4.506,0,0,1,.552.192q0.331,0.135.474,0.177a10.64,10.64,0,0,1-.545,2.088,0.961,0.961,0,0,1-.389.469,1.59,1.59,0,0,1-.766.142h-1.83a1.31,1.31,0,0,1-.915-0.291,0.965,0.965,0,0,1-.318-0.746v-4.66H24.3q-0.013.6-.084,1.279a5.779,5.779,0,0,1-.2,1.094,4.753,4.753,0,0,1-.857,1.613,7.117,7.117,0,0,1-1.46,1.357,7.5,7.5,0,0,1-1.888.966q-0.065-.1-0.273-0.462a6.411,6.411,0,0,0-.363-0.576,8.131,8.131,0,0,0,2.414-1.158,3.86,3.86,0,0,0,1.259-1.584,6.822,6.822,0,0,0,.415-2.529H20Zm0.9-4.205A11.244,11.244,0,0,1,23.2,10.276l-0.857.64a8.53,8.53,0,0,0-.98-1.641A6.357,6.357,0,0,0,19.978,7.89Zm8.6,0.44a9.446,9.446,0,0,1-.915,1.648,12.55,12.55,0,0,1-1.317,1.563l-0.792-.682a13.873,13.873,0,0,0,1.012-1.116,7.166,7.166,0,0,0,.72-1.058,7.479,7.479,0,0,0,.435-0.923Zm2.193,10.342a6.6,6.6,0,0,0,.818-3.14l0.87,0.142a7.443,7.443,0,0,1-.727,3.253Zm11.824-1.833q-0.195,1.193-.312,1.591a3.538,3.538,0,0,1-.3.724,0.7,0.7,0,0,1-.558.313,0.831,0.831,0,0,1-.526-0.313,2.541,2.541,0,0,1-.376-0.6q-0.149-.334-0.24-0.576a9.193,9.193,0,0,1-1.246,1.491l-0.947-.54q0.61-.54.74-0.682l-3.946.668L35.2,17.294l1.661-.213V16.115H35.6V15.078H36.85l0.026-.753H35.864V13.3H36.85l0.026-.724h-1.3V11.541h1.285V10.9h-1.7V10.007q-0.338.838-.818,1.755a13.742,13.742,0,0,1-1.012,1.655l1.194-.185a3.624,3.624,0,0,0-.364-0.625l0.779-.383a5.847,5.847,0,0,1,.844,2.287l-0.883.369-0.1-.738q-0.973.156-2.466,0.5l-0.493-.852a15.549,15.549,0,0,0,1.947-2.9l-1.48.185-0.493-.881a8.906,8.906,0,0,0,1.973-3.878L34.721,6.7A9.61,9.61,0,0,1,33.2,9.978q0.078,0,.934-0.085a10.014,10.014,0,0,0,.35-0.952l0.9,0.412L35.2,9.864h0.921l-0.7-.483a4.465,4.465,0,0,0,.934-3.225l0.883,0.1a7.831,7.831,0,0,1-.078,1.193,4.372,4.372,0,0,1,1.116.824,4.841,4.841,0,0,0,.227-0.98A6.184,6.184,0,0,0,38.55,6.2L39.42,6.271a8.551,8.551,0,0,1-.078,1.449,3.3,3.3,0,0,1,.883.895q0.013-.3-0.02-1.143T40.173,6.185h0.934q0.117,3.125.117,3.665h1.96l0.026,1.037H41.25L41.5,14.439a17.509,17.509,0,0,0,.415-2.927l0.87,0.242a12.063,12.063,0,0,1-.947,4.376,4.4,4.4,0,0,0,.117.469q0.091,0.313.221,0.654t0.143,0.37a12.411,12.411,0,0,0,.273-1.733Zm-9.254-1.264a6.983,6.983,0,0,1,.221,1.207,6.268,6.268,0,0,1-.052,1.591l-1.012.142a6.264,6.264,0,0,0,.039-2.8Zm0.947-.157a4.937,4.937,0,0,1,.324,1.122A6.652,6.652,0,0,1,35.63,17.1l-0.909.2a4.9,4.9,0,0,0-.35-2.245ZM37.6,9.481A4.486,4.486,0,0,0,38.1,8.657l-0.4.469a3.16,3.16,0,0,0-.7-0.711,5.005,5.005,0,0,1-.351.789,4.411,4.411,0,0,1-.428.66H38.29Zm0.662,1.406H37.823v6.038l0.428-.1Zm1.622-1.165a4.783,4.783,0,0,0-.753-1.037A6.9,6.9,0,0,1,38.5,9.851l1.778,0.028A2.34,2.34,0,0,0,40.25,9.4Zm0.6,6.762v0.17l0.337-.554a28.078,28.078,0,0,1-.363-2.855L40.3,10.887H39.225v0.64h1.064v1.037H39.225v0.725h0.856v1.037H39.225v0.753h1.194V16.1H39.225v0.611Zm1.467-6.72a6.414,6.414,0,0,0-.188-1.413,3.964,3.964,0,0,0-.525-1.172l0.8-.341a4.517,4.517,0,0,1,.513.973,6.248,6.248,0,0,1,.331,1.6Zm7.268,7.046V6.427h1l0.013,4.12,4.439,0.014v1.023H50.231l-0.013,5.228h5.594v1.052l-10.837-.014V16.811h4.244ZM68.154,6.839l0.013,10.882a1.1,1.1,0,0,1-.234.732,0.773,0.773,0,0,1-.623.277H65.6L65.26,17.692l1.531,0.057a0.308,0.308,0,0,0,.26-0.106,0.4,0.4,0,0,0,.117-0.291V7.876H62.651V18.942H61.665l0.013-4.219-0.8.284A2.564,2.564,0,0,0,60.8,14.4a22.1,22.1,0,0,0-2.713.5L57.421,13.9a9.091,9.091,0,0,0,2.129-2.657,9.706,9.706,0,0,0-1.726.256l-0.558-.924a12.7,12.7,0,0,0,1.473-2,6.981,6.981,0,0,0,.824-2.188L60.445,6.81a9.563,9.563,0,0,1-.493,1.449,12.377,12.377,0,0,1-1.285,2.074q1.038-.086,1.4-0.142a5.964,5.964,0,0,0,.376-1.123l0.908,0.44a11.33,11.33,0,0,1-1.051,2.3,9.073,9.073,0,0,1-1.35,1.79,14.164,14.164,0,0,0,1.557-.2,2.752,2.752,0,0,0-.519-0.738l0.9-.313a4.259,4.259,0,0,1,.506.9,3.907,3.907,0,0,1,.26,1l0.026-7.416h6.476ZM57.265,18.289a8.656,8.656,0,0,0,.571-1.392,5.608,5.608,0,0,0,.208-1.719l0.844,0.242a6.619,6.619,0,0,1-.792,3.139ZM59.03,18.1a4.136,4.136,0,0,0-.1-2.77l0.9-.085a4.021,4.021,0,0,1,.266,1.328A5.352,5.352,0,0,1,59.965,18Zm1.558-.412a4.045,4.045,0,0,0-.558-2.4l0.87-.227a3.792,3.792,0,0,1,.428,1.094,6.6,6.6,0,0,1,.143,1.307ZM62.7,11.4L62.69,10.362h1.285a3.412,3.412,0,0,0-1.233-1.889L63.5,7.989a3.464,3.464,0,0,1,1.311,2l-0.662.341,0.7,0.028a4.983,4.983,0,0,0,.96-2.443l0.948,0.454q-0.065.228-.279,0.838a5.047,5.047,0,0,1-.578,1.151H67.09V11.4l-2.44-.014a3.043,3.043,0,0,1,.564.668,4.078,4.078,0,0,1,.422.852l-0.247.171,1.57,0.014v1.037h-2.4v1.136a0.4,0.4,0,0,0,.1.277,0.275,0.275,0,0,0,.2.106h1.778l0.013,1.009-2.1.014a0.9,0.9,0,0,1-.74-0.3,1.256,1.256,0,0,1-.233-0.852l0.013-1.392H62.872V13.089h1.9A3.076,3.076,0,0,0,63.729,11.8l0.649-.384ZM76.162,14q-0.1-.185-0.37-0.575a8.3,8.3,0,0,0-.636-0.809q-0.37-.419-0.578-0.618l0.727-.8a11.2,11.2,0,0,1,1.778,1.818Zm8.008-4.56v1.335l-0.973.014L83.183,8.4h4.7V7.89H83.845V6.867h9.072L92.9,7.89H88.868V8.4h4.646l0.013,2.273-0.986.014V9.439l-3.673.014v2.842H87.882l0.013-2.855H84.17Zm4.7,7.629a0.321,0.321,0,0,0,.1.241,0.475,0.475,0,0,0,.338.1h3.284a0.359,0.359,0,0,0,.292-0.164,1.025,1.025,0,0,0,.175-0.362q0.078-.369.195-1.264l0.934,0.341a5.573,5.573,0,0,1-.545,2,0.949,0.949,0,0,1-.8.49H88.881a0.952,0.952,0,0,1-.623-0.192,0.879,0.879,0,0,1-.3-0.476,2.206,2.206,0,0,1-.072-0.54l0.013-.611-3.855.014V12.549l8.7,0.014v4.077l-3.868-.014v0.44Zm-1.376-6.279H84.468V9.851h3.024v0.937ZM87.505,11.2l-0.013.924H84.481L84.468,11.2h3.037Zm-2.492,2.4v0.5h2.881l-0.013-.511Zm2.868,2,0.013-.582H85.014V15.6h2.868ZM91.749,14.1l0.013-.526-2.894.029v0.5h2.881Zm0.013,0.938-2.894-.014V15.6h2.881ZM89.245,9.851h3.076v0.937l-3.063.014ZM92.308,11.2l0.013,0.924H89.258V11.2h3.05Zm3.076,2.529a10.336,10.336,0,0,0,1.908-1.861,6.576,6.576,0,0,0,1.155-2.088H95.812L95.786,8.756l3.764-.014a6.423,6.423,0,0,1-.422,1.854,6.768,6.768,0,0,1-.876,1.584l0.013,0.554,0.272-.284a5.514,5.514,0,0,1,.889.767,6.157,6.157,0,0,1,.746.937q-0.531.5-.791,0.7a3.447,3.447,0,0,0-1.142-1.392v5.5l-0.934.014V13.416a4.609,4.609,0,0,1-.6.554,8.055,8.055,0,0,1-.7.511ZM97.759,8.7q-0.169-.312-0.565-0.923T96.435,6.7L97.161,6A9.619,9.619,0,0,1,98.6,8.061Zm6.516,8.126a0.377,0.377,0,0,0,.123.277,0.351,0.351,0,0,0,.24.121h0.87a0.417,0.417,0,0,0,.253-0.121,0.553,0.553,0,0,0,.149-0.234,6.741,6.741,0,0,0,.234-1.549,9.568,9.568,0,0,1,.934.454q-0.117.668-.24,1.136a4.471,4.471,0,0,1-.305.838,1.075,1.075,0,0,1-.908.526h-1.3a1.153,1.153,0,0,1-.643-0.3,1.137,1.137,0,0,1-.4-0.653l0.013-3.154-0.83-.014a5.442,5.442,0,0,1-.137,1.172,5.679,5.679,0,0,1-.383,1.158,4.092,4.092,0,0,1-.642.994,3.382,3.382,0,0,1-.9.738q-0.416.227-.746,0.384a3.488,3.488,0,0,1-.694.242l-0.545-.966a5.634,5.634,0,0,0,1.4-.554,2.732,2.732,0,0,0,1.246-1.286,4.174,4.174,0,0,0,.441-1.882l-1.233.014V6.824L105.7,6.81v7.316l-1.427.014v2.685Zm-3.011-8.978V8.87l3.413,0.014V7.833Zm0.026,3.111,3.387-.014V9.907h-3.387v1.051Zm3.413,2.16V12.01L101.3,12v1.123h3.4ZM114.358,14c-0.069-.123-0.193-0.315-0.37-0.575a8.163,8.163,0,0,0-.636-0.809c-0.246-.28-0.439-0.485-0.577-0.618l0.726-.8a11.19,11.19,0,0,1,1.779,1.818Zm16.872,4.887c-0.1-.095-0.3-0.248-0.584-0.462a7.963,7.963,0,0,0-1.012-.632q-0.583-.313-2.245-1.08a11.248,11.248,0,0,1-1.415.966,9.419,9.419,0,0,1-1.94.845,11,11,0,0,1-2.239.462l-0.636-1.009a9.877,9.877,0,0,0,5.023-1.633,31.6,31.6,0,0,0-3.271-.938,18.849,18.849,0,0,0,1.558-2.728l-2.908.014V11.654h3.427l1.077-2.245,0.895,0.483L126.1,11.654h5.788v1.023l-2.089.014a14.73,14.73,0,0,1-.831,2.081,5.558,5.558,0,0,1-.792,1.172,22.811,22.811,0,0,1,2.259,1.065,11.85,11.85,0,0,1,1.427.938Zm-0.571-8.339V9h-7.852v1.634h-0.973v-2.7h4.789a4.486,4.486,0,0,0-1.908-1.108l0.792-.724a4.557,4.557,0,0,1,2.167,1.506l-0.376.3,4.335,0.028,0.013,2.614h-0.987Zm-6.1,4.177q1.415,0.4,2.6.824a6.085,6.085,0,0,0,.98-1.314,5.31,5.31,0,0,0,.616-1.542l-3.1-.014Zm12.148-3.679a7.738,7.738,0,0,1,.811,1.25,2.848,2.848,0,0,1,.305,1.058,4.667,4.667,0,0,1-.025.987,1.669,1.669,0,0,1-.435.732,1.42,1.42,0,0,1-.695.4,2.2,2.2,0,0,1-.6.036,2.066,2.066,0,0,1-.6-0.121l-0.285-1.265a1.532,1.532,0,0,0,1.428.241,0.744,0.744,0,0,0,.246-0.412,1.418,1.418,0,0,0-.039-0.725,4.2,4.2,0,0,0-1.259-1.918l1.194-3.353h-1.609V18.985h-0.974L134.151,6.924h3.62V7.819Zm7.255,0.881q-0.09,1.535-.259,3.069a21.094,21.094,0,0,1-.377,2.415,1.445,1.445,0,0,1-.869,1.179,1.559,1.559,0,0,1-.454.057,2.614,2.614,0,0,1-.636-0.092c-0.243-.062-0.489-0.133-0.74-0.213l-0.416-.135-0.285-1.25q0.714,0.284,1.168.426a3.8,3.8,0,0,0,.883.17,0.71,0.71,0,0,0,.428-0.64q0.1-.454.207-1.186t0.247-2.763l-2.621.014a11.3,11.3,0,0,1-.513,2.649,6.617,6.617,0,0,1-1.2,2.209L137.473,19l-0.857-.782a6.563,6.563,0,0,0,1.7-1.982,6.967,6.967,0,0,0,.817-2.45q0.092-.725.176-2.1t0.058-2.1h-1.519V8.557h3.531a4.339,4.339,0,0,0-2.155-1.733l0.688-.738a5.125,5.125,0,0,1,1.116.71A7.218,7.218,0,0,1,142.145,7.9l-0.675.653H145V9.595h-4.607q-0.025.284-.045,1.108t-0.059,1.221h3.673Z"/>
</svg>
