<svg xmlns="http://www.w3.org/2000/svg" width="300" height="600" viewBox="0 0 300 600">
  <defs>
    <style>
      .cls-1 {
        fill: #4b286d;
        fill-rule: evenodd;
      }
    </style>
  </defs>
  <path id="回馈社会_建造更强大_的社区_" data-name="回馈社会 建造更强大 的社区 " class="cls-1" d="M115.7,130.345V107.1H93.442v23.52h2.28v-2.37h17.7v2.16Zm-2.28-4.35h-17.7v-16.74h17.7V126Zm-3.33-3.36v-10.05H98.932v10.05h11.16Zm-2.28-2.16h-6.6v-5.73h6.6v5.73Zm39.36-3.81v-2.19h-7.59v-0.9h5.79V107.1h-5.79v-2.34H137.3v2.34h-5.88v6.48h5.88v0.9h-7.38v2.19h17.25Zm-1.8,9.39v-8.73H131.3v9.27h2.28v-7.08h9.63v6.54h2.16Zm2.52,3.15a23.5,23.5,0,0,0-8.28-3.57l-1.14,1.98a21.049,21.049,0,0,1,4.95,1.65,17.178,17.178,0,0,1,3.12,2.01Zm-17.28-19.8h-4.38a37.549,37.549,0,0,0,.39-3.99l-2.22-.57a25.993,25.993,0,0,1-1.08,7.05,14.424,14.424,0,0,1-2.79,4.86l1.95,1.47a15.716,15.716,0,0,0,1.425-2.22,21.352,21.352,0,0,0,1.245-2.61,11.468,11.468,0,0,0,.57-1.8h2.49a7.308,7.308,0,0,1-.525,1.41,8.386,8.386,0,0,1-.825,1.44l2.19,0.87c0.06-.12.185-0.354,0.375-0.7a30.014,30.014,0,0,0,1.185-3.315v-1.89Zm8.61,10.89h-2.28v2.25a5.391,5.391,0,0,1-.36,2.07,7.292,7.292,0,0,1-1.05,1.74,9.572,9.572,0,0,1-6.93,2.79l1.14,2.37a14.491,14.491,0,0,0,6.21-2.46,7.8,7.8,0,0,0,2.415-2.85,7.643,7.643,0,0,0,.855-3.45V120.3Zm-8.61,6.21v-2.55l-3.6,1.92v-10.47h-2.28v11.34a2.128,2.128,0,0,1-1.17,1.11l1.2,1.77Zm12.6-15.12h-3.63v-2.1h3.63v2.1Zm-5.91,0h-3.6v-2.1h3.6v2.1Zm40.92,18.33v-2.28H170.3v-10.71h6.81l0.06-2.19H170.3v-9.6h-2.37v9.6h-6.48v2.19h6.48v10.71h-7.8v2.28h18.09Zm-20.52-22.9a23.292,23.292,0,0,0-1.74-2.085l-1.95,1.08a14.2,14.2,0,0,1,3.03,4.89,10.64,10.64,0,0,0,1.155-.57q0.7-.388.975-0.51A11.992,11.992,0,0,0,157.7,106.81Zm6.24,15.225a26.055,26.055,0,0,0-2.58-2.625,9.408,9.408,0,0,0-1.89-1.275l-0.87.87-0.03-1.05a27.594,27.594,0,0,0,3.24-5.16v-1.98h-9.93l-0.06,2.19h7.38a25.923,25.923,0,0,1-3.405,4.47,38.331,38.331,0,0,1-4.695,4.05l1.71,1.89a23.244,23.244,0,0,0,3.42-2.97v11.34h2.37v-11.67a10.312,10.312,0,0,1,1.755,1.53q1,1.052,1.815,2.04Zm43.83-4.08-3.45-2.13a23.321,23.321,0,0,1-3.285-2.43,27.663,27.663,0,0,1-2.7-2.745q-1.215-1.424-3.1-3.915l0.66-1.02-2.07-.96a31.439,31.439,0,0,1-7.23,9.3,25.465,25.465,0,0,1-5.76,3.81l1.77,1.77a38.007,38.007,0,0,0,3.27-2.145,30.724,30.724,0,0,0,2.4-1.995v1.17h11.91v-1.23a24.586,24.586,0,0,0,2.9,2.31,29.165,29.165,0,0,0,3.165,1.95Zm-2.31,11.55a10.006,10.006,0,0,0-1.29-1.44q-0.69-.63-1.95-1.71-2.13-1.35-2.775-1.7a10.23,10.23,0,0,0-1.035-.495l-1.53,1.53a20.65,20.65,0,0,1,2.91,1.65l-11.61,1.44a24.718,24.718,0,0,0,3.96-2.88q1.53-1.409,3.21-3.15l-1.41-1.05h11.01v-2.04h-21.54v2.04h9.51a34.645,34.645,0,0,1-3.7,3.63,46.03,46.03,0,0,1-4.515,3.45l1.44,2.58,4.5-.69,11.49-1.47a14.277,14.277,0,0,1,1.59,1.8Zm-16.14-15q1.14-1.138,2.61-2.835a25.45,25.45,0,0,0,2.16-2.775,28,28,0,0,0,2.655,3.225,31.687,31.687,0,0,0,2.595,2.385h-10.02Zm-86.91,46.65V159h-8.52v-1.77h6.9v-2.16h-6.9v-1.8h6.54v-3.99h1.98v-2.16h-1.98v-3.81h-6.54v-2.37h-2.28v2.37h-5.07v2.16h5.07v1.65h-7.05v2.16h7.05v1.83h-5.07v2.16h5.07v1.8h-5.64v2.16h5.64V159h-6.78v2.16h6.78v2.85h2.28v-2.85h8.52Zm0.81,3.03q-4.35.242-9.15,0.3a26.629,26.629,0,0,1-7.5-.585,9.4,9.4,0,0,1-3.87-2.085,21.1,21.1,0,0,0,2.1-9.18h-4.29a26.006,26.006,0,0,0,4.32-7.11v-1.98h-7.89v2.16h5.43a24.076,24.076,0,0,1-2.085,3.66,26.8,26.8,0,0,1-2.865,3.54v1.89h5.1a17.1,17.1,0,0,1-.615,3.645,11.127,11.127,0,0,1-.765,1.755,6,6,0,0,1-.6-0.825q-0.331-.524-0.9-1.65t-0.75-1.425l-1.83,1.05a21.74,21.74,0,0,0,2.91,4.77,24.527,24.527,0,0,1-3.48,3.99l1.71,1.65a29.991,29.991,0,0,0,2.115-2.28,17.084,17.084,0,0,0,1.3-1.71,13.135,13.135,0,0,0,5.46,2.46,18.663,18.663,0,0,0,3.84.39h11.4Zm-5.07-17.07h-4.26v-1.65h4.26v1.65Zm0,3.99h-4.26v-1.83h4.26v1.83Zm33.87,1.59v-2.19h-7.74v-3.54h5.7v-2.19h-5.7v-3.96H122v3.96h-2.43a11.623,11.623,0,0,0,.63-2.07l-2.13-.75a11.257,11.257,0,0,1-4.02,6.33l1.98,1.5a12.173,12.173,0,0,0,2.43-2.82H122v3.54h-7.59v2.19h17.61Zm-18-6.33a15.735,15.735,0,0,0-3.93-4.83l-1.86,1.32a13.191,13.191,0,0,1,2.235,2.34,9.576,9.576,0,0,1,1.635,2.67Zm15.57,16.74v-9.18h-13.17v9.18h2.28v-1.47h8.61v1.47h2.28Zm3.54,0.87q-2.46.212-3.42,0.21H119.3a9.154,9.154,0,0,1-6.36-2.13v-11.04h-6.21v2.19h3.93v8.25a39.123,39.123,0,0,1-4.98,3.75l1.71,1.77,4.02-3.3a14.1,14.1,0,0,0,1.935,1.335,9.288,9.288,0,0,0,2.19.885,16.969,16.969,0,0,0,2.535.48h14.16Zm-5.82-4.53H118.7v-3.33h8.61v3.33Zm36.3,5.85q-2.79-.058-5.865-0.405a50.425,50.425,0,0,1-5.415-.87,14.392,14.392,0,0,1-3.66-1.245,8.918,8.918,0,0,0,1.26-2.265,11.418,11.418,0,0,0,.69-2.655h8.76v-11.13h-8.31V144.6h11.58v-2.19h-25.59v2.19h11.73v2.13h-8.61v11.13h8.16a9.5,9.5,0,0,1-.615,1.98,8.185,8.185,0,0,1-1.035,1.8,35.291,35.291,0,0,1-4.38-3.42l-1.74,1.17a20.443,20.443,0,0,0,4.35,3.84,25.869,25.869,0,0,1-4.515,1.695,40.2,40.2,0,0,1-4.215.945l1.35,2.01a21.073,21.073,0,0,0,8.61-2.85l0.93-.63a27.978,27.978,0,0,0,5.73,1.995,54.521,54.521,0,0,0,9.39,1.215Zm-6.39-14.13h-6.15v-2.25h6.15v2.25Zm0,4.5h-6.36l0.15-2.31h6.21v2.31Zm-8.43-4.5h-6.33v-2.25h6.33v2.25Zm-0.03,2.19-0.12,2.31h-6.18v-2.31h6.3Zm44.19,13.32a11.193,11.193,0,0,0-2.13-2.955,17.539,17.539,0,0,0-2.79-2.445l-1.98,1.02,1.86,1.5-2.67.45v-4.32h3.63v1.5h2.28v-9.87h-5.91v-1.23h4.8v-7.29h-11.49v7.29h4.41v1.23H177.2v10.26h2.28v-1.89h3.48v4.53q-4.35.482-6.78,0.6l1.23,2.25,12.21-1.59,1.44,2.19Zm-23.28-11.82,0.69-4.02h5.94v-8.1h-9.57v2.16h7.29v3.78h-5.43l-1.44,8.34h6.81q-0.06.45-.225,2.07t-0.33,2.55q-0.165.932-.225,1.26c-0.02.06-.07,0.321-0.15,0.78a6.242,6.242,0,0,1-.285,1.125,2.211,2.211,0,0,1-.39.69,0.6,0.6,0,0,1-.585.195l-3.42-.51,0.6,2.34,0.99,0.165q0.81,0.135,1.485.21a5.536,5.536,0,0,0,1.215.015,2.239,2.239,0,0,0,1.32-.765,3.95,3.95,0,0,0,.93-1.365q0.81-2.369,1.47-10.92h-6.69Zm18.09-6.69h-7.05V145.2h7.05v2.97Zm1.11,9.6h-3.63v-4.05h3.63v4.05Zm-5.91,0h-3.48v-4.05h3.48v4.05Zm39.78,7.44a23.266,23.266,0,0,1-5.01-3.81,17.308,17.308,0,0,1-3.21-4.605,26.045,26.045,0,0,1-1.95-6.345h8.82v-2.28h-10.77a71.671,71.671,0,0,0,.15-7.2c-0.2-.039-0.57-0.09-1.11-0.15a11.291,11.291,0,0,1-1.32-.21,63.261,63.261,0,0,1-.21,7.56h-9.36v2.28h9.15a22.455,22.455,0,0,1-1.2,4.26,19.416,19.416,0,0,1-2.1,3.945,17.782,17.782,0,0,1-3.135,3.45,18.809,18.809,0,0,1-4.185,2.685l1.71,2.07a26.206,26.206,0,0,0,4.35-2.97,18.694,18.694,0,0,0,3.21-3.525,20.09,20.09,0,0,0,2.28-4.38,33.589,33.589,0,0,0,1.53-5.535,28.523,28.523,0,0,0,1.6,6.405,19.17,19.17,0,0,0,2.43,4.41,18.189,18.189,0,0,0,3.135,3.24,33.4,33.4,0,0,0,3.57,2.5Zm-95.61,30.09a22.4,22.4,0,0,0-1.77-3.75,26.352,26.352,0,0,0-2.61-3.57l-1.86,1.23a25.389,25.389,0,0,1,4.08,7.05Zm-4.02-13.65q0.12-.418.5-1.56t0.54-1.8q0.165-.658.255-1.17l-2.4-.54a28.068,28.068,0,0,1-4.5,11.55V182.1h-4.59a19.781,19.781,0,0,0,1.62-4.41l-2.16-.87a18.661,18.661,0,0,1-1.83,5.28h-2.76v20.79h2.37v-2.43h4.98v1.95h2.37v-13.38l1.56,0.99a24.6,24.6,0,0,0,3.48-6.3h6.39q-0.12,5.281-.36,8.235a50.583,50.583,0,0,1-.63,5.055,18.9,18.9,0,0,1-.99,3.54,1.149,1.149,0,0,1-1.14.54,22.287,22.287,0,0,1-4.53-1.26l0.39,2.52a29.535,29.535,0,0,0,3.945.93,5.259,5.259,0,0,0,1.395,0,2.355,2.355,0,0,0,1.41-.885,5.2,5.2,0,0,0,.9-1.6,29.5,29.5,0,0,0,.975-3.87q0.375-2.038.525-3.87t0.225-3.45q0.075-1.62.1-4.38t0.06-3.57h-8.1Zm-7.98,8.43h-4.98v-5.79h4.98v5.79Zm0,8.19h-4.98v-6h4.98v6Zm48.09,3.45v-2.28H155.3v-10.71h6.81l0.06-2.19H155.3v-9.6h-2.37v9.6h-6.48v2.19h6.48v10.71h-7.8v2.28h18.09Zm-20.52-22.9a23.292,23.292,0,0,0-1.74-2.085l-1.95,1.08a14.2,14.2,0,0,1,3.03,4.89,10.64,10.64,0,0,0,1.155-.57q0.7-.388.975-0.51A11.992,11.992,0,0,0,142.7,178.81Zm6.24,15.225a26.055,26.055,0,0,0-2.58-2.625,9.408,9.408,0,0,0-1.89-1.275l-0.87.87-0.03-1.05a27.594,27.594,0,0,0,3.24-5.16v-1.98h-9.93l-0.06,2.19h7.38a25.923,25.923,0,0,1-3.405,4.47,38.331,38.331,0,0,1-4.695,4.05l1.71,1.89a23.244,23.244,0,0,0,3.42-2.97v11.34h2.37v-11.67a10.312,10.312,0,0,1,1.755,1.53q1,1.052,1.815,2.04Zm40.5,3.99q-0.6-1.109-1.56-2.565a35.9,35.9,0,0,0-2.175-2.94q-1.215-1.485-2.265-2.595l1.5-2.07q1.26-1.948,2.88-5.13l-1.92-1.05a71.757,71.757,0,0,1-4.08,6.51,66.132,66.132,0,0,0-7.26-6.42l-1.71,1.41q2.1,1.591,4.17,3.465t3.54,3.5a28.981,28.981,0,0,1-8.22,7.47l1.77,1.92a41.332,41.332,0,0,0,5.04-4.2,28.735,28.735,0,0,0,2.94-3.42q1.29,1.44,2.64,3.24a34.057,34.057,0,0,1,2.25,3.36l0.48,0.84Zm3.12,4.44v-2.16h-21.72v-19.5h20.73v-2.16h-23.01l0.03,23.82h23.97Z"/>
</svg>
