<svg xmlns="http://www.w3.org/2000/svg" width="300" height="600" viewBox="0 0 300 600">
  <defs>
    <style>
      .cls-1 {
        fill: #4b286d;
        fill-rule: evenodd;
      }
    </style>
  </defs>
  <path id="仅过去一年_我们回馈了_1.25亿_" data-name="仅过去一年 我们回馈了 $1.25亿 " class="cls-1" d="M104.051,130.433a20.468,20.468,0,0,1-4.155-2.985,25.967,25.967,0,0,1-3.435-3.855q0.48-.66,1.17-1.845a29.375,29.375,0,0,0,1.635-3.51,32.218,32.218,0,0,0,1.425-4.245q0.478-1.92.585-2.595t0.135-.885V108.5H86.741v2.16h2.19a30.467,30.467,0,0,0,4.68,12.99,26.109,26.109,0,0,1-4.095,3.78,26.4,26.4,0,0,1-4.725,2.85l1.38,1.92a23.879,23.879,0,0,0,4.965-2.97,28.469,28.469,0,0,0,3.825-3.72,27.681,27.681,0,0,0,3.525,3.81,21.431,21.431,0,0,0,4.275,3.03Zm-19.08-24.9q-2.4,6.39-3.69,8.91a21.945,21.945,0,0,1-2.445,3.915,15.2,15.2,0,0,1-2.175,2.2l1.62,1.62a13.236,13.236,0,0,0,1.875-1.875,22.721,22.721,0,0,0,2.115-2.805v14.7h2.16v-19.17a57.9,57.9,0,0,0,2.43-6.45Zm14.04,5.13a26.77,26.77,0,0,1-.885,4.17,24.5,24.5,0,0,1-1.5,3.96,22.24,22.24,0,0,1-1.605,2.82,25.988,25.988,0,0,1-2.76-5.91,24.053,24.053,0,0,1-.99-5.04h7.74Zm34.38,2.52v-2.07h-3.63v-5.43h-2.28v5.43h-11.37v2.07h11.37v12.81a0.689,0.689,0,0,1-.3.33,22.768,22.768,0,0,1-3.06-.18l0.81,2.37h1.635a6.48,6.48,0,0,0,.855-0.06,7.166,7.166,0,0,0,.9-0.18,2.343,2.343,0,0,0,.96-0.885,3.667,3.667,0,0,0,.48-1.155v-13.05h3.63Zm-18.3-1.71a19.82,19.82,0,0,0-4.74-5.31l-1.77,1.2a21.552,21.552,0,0,1,4.68,5.55Zm10.38,10.26a20.216,20.216,0,0,0-2.595-3.21,24.5,24.5,0,0,0-3.165-2.7l-1.74,1.5a22.842,22.842,0,0,1,5.73,5.82Zm8.49,7.05-3.06.21-4.62.12-5.28-.12a7.3,7.3,0,0,1-2.49-.5,7.6,7.6,0,0,1-2.19-1.3,7.38,7.38,0,0,1-1.44-1.53v-10.35h-7.23v2.19h5.1v8.46a68.714,68.714,0,0,1-5.7,4.32l1.5,1.74q1.019-.75,3.105-2.445t2.175-1.755a9.115,9.115,0,0,0,3.165,2.37,9.764,9.764,0,0,0,3.945.87l12.18,0.09Zm26.43-2.73a15.384,15.384,0,0,0-3.63-3.24l-2.37,1.26a14.35,14.35,0,0,1,2.205,1.365,9.286,9.286,0,0,1,1.6,1.575l-13.2,1.11a28.985,28.985,0,0,0,6.15-7.62h11.76v-2.19h-10.47v-5.43h8.22v-2.16l-8.22-.06,0.06-5.13h-2.43v5.13l-8.25-.06v2.28h8.25v5.43H139.6v2.19h8.79a30,30,0,0,1-3.465,4.56,22.663,22.663,0,0,1-4.365,3.75l1.44,2.16q4.168-.75,10.11-1.23t6.645-.54l1.035-.09a23.516,23.516,0,0,1,1.68,3.06,6.991,6.991,0,0,0,1.14-.63c0.459-.3.78-0.5,0.96-0.6a25.351,25.351,0,0,0-3.18-4.89h0Zm32.46-6.24v-2.49H169.6v2.49h23.25Zm30.63,4.08V121.7h-10.35v-4.89h7.65v-2.19h-7.65v-3.9h9.12v-2.19h-16.8q0.389-1.29.465-1.68t0.1-.66l-1.92-.93q-1.71,6.54-5.55,9.96l1.89,1.53a16.654,16.654,0,0,0,2-2.3,25.451,25.451,0,0,0,2.145-3.735h6.18v3.9h-7.95v7.08h-3.75v2.19h11.7v8.64h2.37v-8.64h10.35Zm-12.72-2.19h-5.67v-4.89h5.67v4.89Zm-110.34,23.265a14.61,14.61,0,0,0-2.94-2.175l-1.92,1.74a11.646,11.646,0,0,1,3.105,2.1,8.754,8.754,0,0,1,2.055,2.88,14.356,14.356,0,0,0,1.92-1.65A9.82,9.82,0,0,0,100.421,144.968Zm1.2,16.215a17.147,17.147,0,0,1-.75,4.17c-0.081.22-.285,0.155-0.615-0.2a23.86,23.86,0,0,1-1.665-2.175,13.668,13.668,0,0,1-1.2-1.98,26.465,26.465,0,0,0,4.5-6.33l-2.04-.87a22.807,22.807,0,0,1-3.36,4.92,32.968,32.968,0,0,1-1.2-5.73h7.77v-2.28h-7.98q-0.12-1.47-.2-4.335t-0.075-4.845H92.5a89.828,89.828,0,0,0,.18,9.18H87.1v-4.89q0.39-.15,1.065-0.5t3.465-1.965l-1.5-1.71a36.577,36.577,0,0,1-3.945,1.905,19.723,19.723,0,0,1-3.495,1,24.356,24.356,0,0,1-4.29.39,18.777,18.777,0,0,1,1.41,2.25,21,21,0,0,0,2.58-.27,12.846,12.846,0,0,0,2.34-.54v4.32h-6.15v2.28h6.15V158q-3.66.93-6.93,1.56l1.68,2.19,5.25-1.41v4.89a0.746,0.746,0,0,1-.69.78l-3.69-.09,0.84,2.34q0.42-.03,1.62,0a15.071,15.071,0,0,0,1.875-.045,4.835,4.835,0,0,0,1.155-.255,2.355,2.355,0,0,0,1.26-2.07v-6.21l4.65-1.23v-2.31l-4.65,1.17v-4.32h5.79a36.913,36.913,0,0,0,1.68,7.53,28.6,28.6,0,0,1-6.78,4.35l2.01,1.68a31.885,31.885,0,0,0,5.82-3.78,16.3,16.3,0,0,0,3.24,4.08,5.076,5.076,0,0,0,1.98,1.215,3.2,3.2,0,0,0,1.11.015,2.122,2.122,0,0,0,.99-1.05,18.527,18.527,0,0,0,1.02-4.95Zm20.22-14.37a10.74,10.74,0,0,0-3.63-4.62l-1.86,1.14a12.357,12.357,0,0,1,3.48,4.71Zm11.04-3.57h-10.8v2.19h8.52v19.65a0.872,0.872,0,0,1-.09.48,0.4,0.4,0,0,1-.27.15l-3.42-.24,0.81,2.37a14.864,14.864,0,0,0,3.57-.09,1.994,1.994,0,0,0,1.68-1.89v-22.62Zm-13.89,24.96v-19.92h-2.28V168.2h2.28Zm-5.49-26.82a35.373,35.373,0,0,1-2.445,8.88,24.777,24.777,0,0,1-4.125,6.39l1.74,1.56a18.8,18.8,0,0,0,1.59-1.935,14.112,14.112,0,0,0,1.29-2.085V168.2h2.28v-18.66a60.64,60.64,0,0,0,1.77-7.5Zm48.42,25.74v-23.25h-22.26v23.52h2.28v-2.37h17.7v2.16Zm-2.28-4.35h-17.7v-16.74h17.7v16.74Zm-3.33-3.36v-10.05h-11.16v10.05h11.16Zm-2.28-2.16h-6.6v-5.73h6.6v5.73Zm39.36-3.81v-2.19H185.8v-0.9h5.79v-6.48H185.8v-2.34h-2.28v2.34h-5.88v6.48h5.88v0.9h-7.38v2.19h17.25Zm-1.8,9.39V154.1h-14.07v9.27h2.28v-7.08h9.63v6.54h2.16Zm2.52,3.15a23.5,23.5,0,0,0-8.28-3.57l-1.14,1.98a20.989,20.989,0,0,1,4.95,1.65,17.159,17.159,0,0,1,3.12,2.01Zm-17.28-19.8h-4.38a37.844,37.844,0,0,0,.39-3.99l-2.22-.57a26.006,26.006,0,0,1-1.08,7.05,14.443,14.443,0,0,1-2.79,4.86L168.7,155a15.866,15.866,0,0,0,1.425-2.22,21.5,21.5,0,0,0,1.245-2.61,11.577,11.577,0,0,0,.57-1.8h2.49a7.4,7.4,0,0,1-.525,1.41,8.532,8.532,0,0,1-.825,1.44l2.19,0.87c0.06-.12.184-0.355,0.375-0.7a30.333,30.333,0,0,0,1.185-3.315v-1.89Zm8.61,10.89h-2.28v2.25a5.4,5.4,0,0,1-.36,2.07,7.365,7.365,0,0,1-1.05,1.74,9.584,9.584,0,0,1-6.93,2.79l1.14,2.37a14.514,14.514,0,0,0,6.21-2.46,7.821,7.821,0,0,0,2.415-2.85,7.646,7.646,0,0,0,.855-3.45v-2.46Zm-8.61,6.21v-2.55l-3.6,1.92v-10.47h-2.28v11.34a2.138,2.138,0,0,1-1.17,1.11l1.2,1.77Zm12.6-15.12H185.8v-2.1h3.63v2.1Zm-5.91,0h-3.6v-2.1h3.6v2.1Zm37.32-4.86h-19.71v2.19h16.32a27.182,27.182,0,0,1-7.23,5.31v13.62a1.137,1.137,0,0,1-.165.6,0.561,0.561,0,0,1-.345.3h-4.77l1.08,2.4,4.41-.06a1.954,1.954,0,0,0,1.6-.78,2.6,2.6,0,0,0,.555-1.56v-13.35a26.471,26.471,0,0,0,8.25-6.69V143.3ZM120.174,196.7c0-3.089-1.74-5.009-6.66-6.089l-0.629-.15v-7.439c3,0.39,3.989,1.95,4.169,4.32h2.58c-0.09-3.18-1.71-6.12-6.749-6.6v-3.089h-2.1v3c-4.14.18-6.779,2.28-6.779,5.58,0,3.9,2.849,5.369,6.479,6.179l0.3,0.06V200.6c-2.79-.3-4.83-1.74-4.89-5.159h-2.609c0.06,4.859,3.119,7.109,7.5,7.469v3.059h2.1v-3.029C117.564,202.733,120.174,200.3,120.174,196.7Zm-13.559-10.468c0-1.89,1.41-3.15,4.17-3.3v7.049C107.455,189.144,106.615,188.125,106.615,186.235Zm6.27,14.428v-7.709c3.389,0.81,4.679,1.8,4.679,3.749C117.564,199.163,115.854,200.483,112.885,200.663Zm16.5-19.528h-2.04c-0.54,2.58-2.1,3.24-4.859,3.42l-0.48.03v1.98h4.859v15.928h2.52V181.135Zm4.8,21.568a1.723,1.723,0,0,0,1.71-1.77,1.756,1.756,0,0,0-3.509,0A1.726,1.726,0,0,0,134.185,202.7Zm6.69-2.49c0.18-2.37,1.38-3.66,3.84-5.1l2.28-1.32c3.419-1.98,4.859-4.23,4.859-6.959,0-3.63-2.76-6.18-6.809-6.18-4.41,0-7.079,2.46-7.019,6.87h2.489c0-3.27,1.8-4.59,4.47-4.59,2.729,0,4.229,1.65,4.229,3.9s-1.17,3.6-3.749,5.1l-2.7,1.56a8.746,8.746,0,0,0-4.649,7.829l-0.06,1.17h14.1v-2.28H140.875Zm20.219-11.639a6.1,6.1,0,0,0-4.049,1.56l1.02-6.719h9v-2.28H156.025l-1.8,12.3h2.34a4.464,4.464,0,0,1,4.379-2.58,4.922,4.922,0,0,1,0,9.839,4.5,4.5,0,0,1-4.739-4.14h-2.52c0.24,3.84,3.12,6.42,7.259,6.42,4.62,0,7.409-3.15,7.409-7.2S165.774,188.574,161.094,188.574Zm34.5,8.819q-0.06.36-.165,1.32a5.782,5.782,0,0,1-.285,1.41,0.955,0.955,0,0,1-.81.51h-12.06a2.819,2.819,0,0,1-.555-0.36,0.282,0.282,0,0,1-.075-0.18,0.762,0.762,0,0,1,.015-0.45,2.3,2.3,0,0,1,.24-0.465q0.165-.255.225-0.345,4.74-6.27,7.875-10.05t5.685-6.48l0.06-2.13h-14.97v2.19h11.58q-2.31,2.55-6.21,7.485t-6.69,8.745a2.446,2.446,0,0,0-.255,1.53,3.883,3.883,0,0,0,.525,1.59,2.751,2.751,0,0,0,.81.78,1.676,1.676,0,0,0,.84.33h13.77a1.79,1.79,0,0,0,1.47-.8,11.1,11.1,0,0,0,1.23-3.645Zm-17.61-19.77a43.7,43.7,0,0,1-1.02,4.47,22.205,22.205,0,0,1-6.39,10.74l1.47,1.8a18.079,18.079,0,0,0,1.95-1.89,10.686,10.686,0,0,0,1.08-1.53v13.2h2.25v-17.04a35.891,35.891,0,0,0,2.61-8.91Z"/>
</svg>
