<svg id="Giraffe" xmlns="http://www.w3.org/2000/svg" width="728" height="90" viewBox="0 0 728 90">
  <defs>
    <style>
      .cls-1 {
        fill: #4c286c;
        fill-rule: evenodd;
      }
    </style>
  </defs>
  <g id="SC">
    <path class="cls-1" d="M333.37,39.527V37.717H318.6V39.7h-1.9V19.99h18.575V39.477Zm0-17.727H318.6V35.831H333.37V21.8ZM321.278,33.015V24.591h9.313v8.424h-9.313Zm7.41-6.613H323.18v4.8h5.508V26.4Zm19.026-2.892a25.234,25.234,0,0,1-.989,2.779c-0.158.293-.263,0.49-0.313,0.591l-1.827-.729a7.113,7.113,0,0,0,.688-1.207,6.058,6.058,0,0,0,.438-1.182h-2.077a9.712,9.712,0,0,1-.476,1.509,17.948,17.948,0,0,1-1.039,2.188,13.332,13.332,0,0,1-1.189,1.86L339.3,28.087a12.111,12.111,0,0,0,2.328-4.074,21.864,21.864,0,0,0,.9-5.909l1.853,0.478a31.769,31.769,0,0,1-.325,3.345h3.654V23.51Zm-4.882,15.363-1-1.483a1.785,1.785,0,0,0,.977-0.931v-9.5h1.9V35.73l3-1.609v2.137ZM354.9,33.115a6.441,6.441,0,0,1-.714,2.892A6.537,6.537,0,0,1,352.17,38.4a12.062,12.062,0,0,1-5.182,2.062l-0.951-1.987a7.974,7.974,0,0,0,5.783-2.338,6.136,6.136,0,0,0,.876-1.459,4.528,4.528,0,0,0,.3-1.735V31.053h1.9v2.062Zm-7.761-5.1V26.175H353.3V25.421h-4.906V19.99H353.3V18.029h1.9V19.99h4.831v5.431H355.2v0.754h6.333v1.836H347.139Zm11.09,7.87V30.4h-8.036v5.934h-1.9v-7.77h11.741v7.317h-1.8ZM353.3,21.825h-3v1.76h3v-1.76Zm7.711,18.431a14.343,14.343,0,0,0-2.6-1.685,17.471,17.471,0,0,0-4.13-1.383l0.95-1.659a19.559,19.559,0,0,1,6.91,2.992Zm-2.779-18.431H355.2v1.76h3.029v-1.76ZM374.05,33.895q-0.675-.83-1.514-1.71a8.592,8.592,0,0,0-1.464-1.282v9.781h-1.978v-9.5a19.444,19.444,0,0,1-2.854,2.489l-1.427-1.584a32.143,32.143,0,0,0,3.918-3.395,21.8,21.8,0,0,0,2.841-3.746h-6.159l0.051-1.836h8.286v1.659a23.16,23.16,0,0,1-2.7,4.325l0.026,0.88,0.725-.729a7.83,7.83,0,0,1,1.578,1.069,21.774,21.774,0,0,1,2.153,2.2Zm-2.5-11.793q-0.225.1-.814,0.427a9.029,9.029,0,0,1-.963.478,11.9,11.9,0,0,0-2.529-4.1L368.868,18a19.384,19.384,0,0,1,1.453,1.748A10.063,10.063,0,0,1,371.547,22.1Zm0.8,16.847V37.038h6.509V28.061H373.45V26.226h5.408V18.179h1.977v8.046h5.733l-0.05,1.835h-5.683v8.977h6.609v1.911h-15.1Zm38.478-8.4a24.458,24.458,0,0,1-2.641-1.634,20.5,20.5,0,0,1-2.416-1.936v1.031h-9.939V27.03a25.738,25.738,0,0,1-2,1.672,31.768,31.768,0,0,1-2.729,1.8l-1.476-1.484a21.292,21.292,0,0,0,4.806-3.193,27.806,27.806,0,0,0,3.43-3.671,27.891,27.891,0,0,0,2.6-4.123l1.728,0.8-0.551.855q1.578,2.087,2.591,3.281a23.263,23.263,0,0,0,2.253,2.3,19.533,19.533,0,0,0,2.741,2.037l2.879,1.786Zm-2.1,9.48a11.961,11.961,0,0,0-1.326-1.509l-9.588,1.232-3.755.578-1.2-2.162a38.781,38.781,0,0,0,3.768-2.892,29.213,29.213,0,0,0,3.091-3.042h-7.936v-1.71H409.75v1.71h-9.187l1.176,0.88q-1.4,1.459-2.678,2.64a20.764,20.764,0,0,1-3.305,2.414l9.688-1.207a17.119,17.119,0,0,0-2.428-1.383l1.277-1.282a8.262,8.262,0,0,1,.863.415q0.538,0.289,2.316,1.421,1.052,0.9,1.627,1.433a8.382,8.382,0,0,1,1.077,1.207ZM405.069,26.2a26.688,26.688,0,0,1-2.166-2,23.564,23.564,0,0,1-2.215-2.7,21.472,21.472,0,0,1-1.8,2.326q-1.228,1.421-2.179,2.377h8.362ZM286.555,69.877h-9.513a15.5,15.5,0,0,1-3.2-.327,10.92,10.92,0,0,1-2.691-.9,11.032,11.032,0,0,1-1.865-1.157,14.323,14.323,0,0,1-1.089,1.433,25.219,25.219,0,0,1-1.765,1.911L265,69.45a20.6,20.6,0,0,0,2.9-3.344,18.215,18.215,0,0,1-2.428-4l1.527-.88q0.15,0.251.626,1.194T268.38,63.8a5.084,5.084,0,0,0,.5.691,9.5,9.5,0,0,0,.638-1.471,14.383,14.383,0,0,0,.513-3.055h-4.256V58.386a22.516,22.516,0,0,0,2.391-2.967,20.252,20.252,0,0,0,1.74-3.067h-4.531v-1.81h6.584V52.2a21.829,21.829,0,0,1-3.6,5.959h3.58a17.749,17.749,0,0,1-1.753,7.695,7.859,7.859,0,0,0,3.23,1.747,22.163,22.163,0,0,0,6.258.49q4.007-.05,7.636-0.251ZM279.52,65.3v2.389h-1.9V65.3H271.96V63.49h5.657V62.006h-4.706V60.2h4.706V58.687h-4.23v-1.81h4.23V55.343h-5.883v-1.81h5.883V52.15h-4.23V50.34h4.23V48.353h1.9V50.34h5.458v3.193h1.652v1.81h-1.652v3.344H279.52V60.2h5.758v1.81H279.52V63.49h7.11V65.3h-7.11Zm3.555-13.151H279.52v1.383h3.555V52.15Zm0,3.193H279.52v1.534h3.555V55.343Zm28.439,14.332H299.7a14.12,14.12,0,0,1-2.115-.4,7.809,7.809,0,0,1-1.828-.742,11.849,11.849,0,0,1-1.615-1.119l-3.354,2.766L289.359,68.7a32.769,32.769,0,0,0,4.155-3.143V58.637h-3.279V56.8h5.182v9.253a7.623,7.623,0,0,0,5.308,1.785h8.686q0.8,0,2.854-.176Zm-16.8-15.514a8.011,8.011,0,0,0-1.364-2.238,11,11,0,0,0-1.865-1.961l1.552-1.107a13.186,13.186,0,0,1,3.28,4.049Zm1.928,4.049V56.374h6.334V53.407h-2.955A10.227,10.227,0,0,1,298,55.77l-1.653-1.257a9.436,9.436,0,0,0,3.355-5.3l1.778,0.629a9.875,9.875,0,0,1-.526,1.735h2.028V48.252h1.9v3.319h4.757v1.836H304.88v2.967h6.459V58.21H296.644Zm10.765,8.725V65.7h-7.185v1.233h-1.9V59.24h10.991v7.695h-1.9Zm0-5.859h-7.185v2.791h7.185V61.076Zm29.115,9.631a45.369,45.369,0,0,1-7.836-1.019,23.324,23.324,0,0,1-4.781-1.672l-0.776.528a17.531,17.531,0,0,1-7.185,2.389l-1.127-1.684a33.654,33.654,0,0,0,3.517-.792,21.634,21.634,0,0,0,3.768-1.421,17.089,17.089,0,0,1-3.63-3.219l1.452-.98a29.571,29.571,0,0,0,3.655,2.866,6.865,6.865,0,0,0,.864-1.509,8.005,8.005,0,0,0,.513-1.659h-6.809V53.206h7.185V51.421h-9.789V49.585H336.9v1.836h-9.663v1.785h6.935v9.329h-7.31a9.625,9.625,0,0,1-.576,2.225,7.5,7.5,0,0,1-1.051,1.9,11.991,11.991,0,0,0,3.054,1.044,42.407,42.407,0,0,0,4.519.729q2.565,0.289,4.893.34Zm-11.19-15.665h-5.283v1.886h5.283V55.041Zm-5.283,3.722V60.7h5.158l0.1-1.936h-5.257Zm12.318,0h-5.183L327.061,60.7h5.308V58.763Zm0-3.722h-5.133v1.886h5.133V55.041ZM348.34,60.02q-0.55,7.166-1.226,9.152a3.324,3.324,0,0,1-.777,1.144,1.869,1.869,0,0,1-1.1.641,4.653,4.653,0,0,1-1.014-.013c-0.376-.042-0.788-0.1-1.239-0.176l-0.826-.138-0.5-1.962L344.51,69.1A0.5,0.5,0,0,0,345,68.934a1.876,1.876,0,0,0,.326-0.579,5.444,5.444,0,0,0,.238-0.943q0.1-.578.125-0.653,0.05-.277.188-1.057t0.274-2.137q0.138-1.357.188-1.735h-5.682l1.2-6.99h4.532V51.672H340.3V49.861h7.986V56.65h-4.957l-0.575,3.37h5.582Zm12.267,10.938-1.2-1.836-10.189,1.333-1.026-1.886q2.028-.1,5.658-0.5v-3.8h-2.9v1.584h-1.9v-8.6h4.807V56.223h-3.68v-6.11h9.588v6.11h-4v1.031h4.931v8.272h-1.9V64.269h-3.028v3.621l2.227-.377-1.552-1.257,1.653-.855a14.625,14.625,0,0,1,2.327,2.05,9.338,9.338,0,0,1,1.778,2.476Zm-6.759-11.894h-2.9v3.395h2.9V59.065Zm4-7.141H351.97v2.489h5.883V51.924Zm0.926,7.141h-3.028v3.395h3.028V59.065ZM385.692,70.2a27.9,27.9,0,0,1-2.979-2.1,15.15,15.15,0,0,1-2.616-2.716,16.05,16.05,0,0,1-2.028-3.7,23.985,23.985,0,0,1-1.339-5.368,28.448,28.448,0,0,1-1.277,4.639,16.89,16.89,0,0,1-1.9,3.671,15.637,15.637,0,0,1-2.679,2.954,21.82,21.82,0,0,1-3.63,2.49l-1.427-1.736a15.691,15.691,0,0,0,3.493-2.25,14.881,14.881,0,0,0,2.615-2.892,16.273,16.273,0,0,0,1.753-3.306,18.881,18.881,0,0,0,1-3.571h-7.635V54.413h7.811a53.257,53.257,0,0,0,.175-6.336,9.606,9.606,0,0,0,1.1.176q0.677,0.075.927,0.126a60.189,60.189,0,0,1-.126,6.035h8.988v1.911h-7.36a21.886,21.886,0,0,0,1.627,5.318,14.514,14.514,0,0,0,2.679,3.86,19.5,19.5,0,0,0,4.181,3.193ZM410.8,52.3q-0.025.678-.05,2.992t-0.088,3.671q-0.063,1.357-.188,2.892a32.675,32.675,0,0,1-.438,3.243,24.686,24.686,0,0,1-.814,3.243,4.335,4.335,0,0,1-.751,1.346,1.961,1.961,0,0,1-1.176.742,4.387,4.387,0,0,1-1.164,0,24.649,24.649,0,0,1-3.293-.779l-0.324-2.113a18.476,18.476,0,0,0,3.779,1.056,0.957,0.957,0,0,0,.952-0.452,15.947,15.947,0,0,0,.826-2.967q0.324-1.761.525-4.237t0.3-6.9h-5.332a20.694,20.694,0,0,1-2.905,5.28l-1.3-.83V69.7h-1.978V68.067h-4.156V70.1H391.25V52.678h2.3a15.735,15.735,0,0,0,1.527-4.426l1.8,0.729a16.639,16.639,0,0,1-1.353,3.7h3.831v5.054a23.584,23.584,0,0,0,3.755-9.681l2,0.453q-0.075.427-.213,0.98t-0.45,1.509q-0.313.956-.414,1.308h6.76Zm-13.419,2.212h-4.156v4.853h4.156V54.513Zm0,6.689h-4.156v5.029h4.156V61.2Zm8.211,3.344a21.3,21.3,0,0,0-3.4-5.909l1.552-1.031A22.085,22.085,0,0,1,405.92,60.6a18.764,18.764,0,0,1,1.477,3.143Zm18.526-.478q-0.675-.829-1.514-1.709a8.52,8.52,0,0,0-1.465-1.283v9.781h-1.977v-9.5a19.513,19.513,0,0,1-2.855,2.489l-1.427-1.584a32.007,32.007,0,0,0,3.918-3.395,21.791,21.791,0,0,0,2.842-3.746h-6.159l0.051-1.836h8.286v1.66a23.209,23.209,0,0,1-2.7,4.325l0.025,0.88,0.726-.73a7.858,7.858,0,0,1,1.577,1.069,21.922,21.922,0,0,1,2.153,2.2Zm-2.5-11.792c-0.149.067-.421,0.21-0.813,0.427a9.027,9.027,0,0,1-.964.478,11.906,11.906,0,0,0-2.528-4.1l1.627-.906a19.6,19.6,0,0,1,1.452,1.747A10.013,10.013,0,0,1,421.616,52.276Zm0.8,16.847V67.211h6.509V58.235h-5.408V56.4h5.408V48.353h1.978V56.4h5.732l-0.05,1.836h-5.682v8.977h6.608v1.911H422.418ZM442,69.751L441.97,49.786h19.2V51.6h-17.3V67.941H462v1.81H442Zm15.747-2.615-0.4-.7a28.573,28.573,0,0,0-1.878-2.816q-1.126-1.509-2.2-2.716a24.281,24.281,0,0,1-2.454,2.866,34.5,34.5,0,0,1-4.206,3.52l-1.477-1.609a24.222,24.222,0,0,0,6.86-6.262q-1.227-1.357-2.955-2.929t-3.479-2.9l1.427-1.182a55.139,55.139,0,0,1,6.058,5.38,60.348,60.348,0,0,0,3.4-5.456l1.6,0.88q-1.351,2.665-2.4,4.3l-1.252,1.735q0.876,0.931,1.891,2.175a30.378,30.378,0,0,1,1.815,2.464q0.8,1.22,1.3,2.15Z"/>
  </g>
</svg>
