<svg id="Giraffe" xmlns="http://www.w3.org/2000/svg" width="1517" height="188" viewBox="0 0 1517 188">
  <defs>
    <style>
      .cls-1 {
        fill: #4c286c;
        fill-rule: evenodd;
      }
    </style>
  </defs>
  <g id="SC">
    <path class="cls-1" d="M646.041,39.9a101.167,101.167,0,0,1-4.221,11.243V84.56h-3.749V58.936a39.457,39.457,0,0,1-3.673,4.89,22.86,22.86,0,0,1-3.256,3.268l-2.812-2.823a26.434,26.434,0,0,0,3.777-3.844,38.22,38.22,0,0,0,4.244-6.825q2.241-4.391,6.407-15.531Zm27.607,44.919a37.069,37.069,0,0,1-7.423-5.28A48.231,48.231,0,0,1,660.1,72.9a49.617,49.617,0,0,1-6.641,6.484,41.415,41.415,0,0,1-8.621,5.176l-2.4-3.346A47.61,47.61,0,0,0,657.76,69.656a53.221,53.221,0,0,1-8.126-22.641h-3.8V43.248H671.3v3.505c-0.035.243-.114,0.758-0.234,1.542s-0.462,2.292-1.018,4.523a55.763,55.763,0,0,1-2.474,7.4,51.141,51.141,0,0,1-2.838,6.118q-1.2,2.065-2.031,3.215a45,45,0,0,0,5.964,6.721,35.5,35.5,0,0,0,7.215,5.2ZM653.7,47.015a42.016,42.016,0,0,0,1.719,8.784,45.431,45.431,0,0,0,4.792,10.3A39.123,39.123,0,0,0,663,61.185a42.966,42.966,0,0,0,2.6-6.9,46.936,46.936,0,0,0,1.536-7.268H653.7ZM726.36,82.73l-21.149-.155a16.908,16.908,0,0,1-6.848-1.518,15.834,15.834,0,0,1-5.5-4.13q-0.154.1-3.776,3.058t-5.39,4.263l-2.6-3.033a119.465,119.465,0,0,0,9.9-7.529V58.936h-8.856V55.12h12.553V73.162a12.98,12.98,0,0,0,2.5,2.666,13.221,13.221,0,0,0,3.8,2.276,12.605,12.605,0,0,0,4.323.862l9.166,0.21,8.023-.21,5.313-.366ZM691.879,50.937a37.438,37.438,0,0,0-8.127-9.674l3.074-2.092a34.438,34.438,0,0,1,8.229,9.255Zm28.647,0.47V74.154a6.4,6.4,0,0,1-.834,2.014,4.081,4.081,0,0,1-1.666,1.542,12.439,12.439,0,0,1-1.563.313,10.905,10.905,0,0,1-1.485.106h-2.839L710.733,74a39.275,39.275,0,0,0,5.313.315,1.19,1.19,0,0,0,.521-0.576V51.407h-19.74V47.8h19.74V38.333h3.959V47.8h6.3v3.607h-6.3ZM710.005,68.768q-5.421-7.32-9.949-10.144l3.021-2.615a42.694,42.694,0,0,1,5.5,4.706,35.172,35.172,0,0,1,4.5,5.595Zm69.225,13.6q-0.469.26-1.667,1.046a12.18,12.18,0,0,1-1.979,1.1,40.589,40.589,0,0,0-2.918-5.334q-0.573.052-1.8,0.155t-11.537.942q-10.312.836-17.553,2.145l-2.5-3.765a39.408,39.408,0,0,0,7.58-6.537,52.052,52.052,0,0,0,6.014-7.95h-15.26V60.35H755.79V50.884H741.466V46.909l14.324,0.106V38.072h4.22L759.9,47.015l14.274,0.1v3.765H759.9V60.35h18.18v3.816H757.666q-5.262,8.84-10.678,13.284l22.919-1.934a16.119,16.119,0,0,0-2.788-2.745,24.681,24.681,0,0,0-3.829-2.38l4.116-2.2a26.74,26.74,0,0,1,6.3,5.646A44.092,44.092,0,0,1,779.23,82.364Zm10.471-19.4V58.624h40.368v4.341H789.7Zm75.579,7.111V85.136h-4.114V70.075H840.851V66.257h6.511V53.917h13.8v-6.8H850.435a44.168,44.168,0,0,1-3.724,6.51,28.759,28.759,0,0,1-3.465,4l-3.28-2.666Q846.632,49,849.6,37.6l3.332,1.62q-0.051.472-.183,1.15c-0.085.453-.356,1.43-0.8,2.929h29.169v3.818H865.28v6.8h13.283v3.818H865.28v8.522h17.971v3.818H865.28Zm-4.114-12.34H851.32v8.522h9.846V57.735Zm-269.792,78.91a32.315,32.315,0,0,1-1.772,8.628,3.684,3.684,0,0,1-1.718,1.83,5.537,5.537,0,0,1-1.929-.026,8.779,8.779,0,0,1-3.436-2.118,28.353,28.353,0,0,1-5.626-7.111,55.326,55.326,0,0,1-10.105,6.588l-3.491-2.928a49.669,49.669,0,0,0,11.773-7.582,64.7,64.7,0,0,1-2.918-13.127H562.1v7.532l8.074-2.041v4.026l-8.074,2.145v10.825a4.105,4.105,0,0,1-2.189,3.609,8.449,8.449,0,0,1-2,.443,25.547,25.547,0,0,1-3.256.08q-2.084-.055-2.814,0l-1.457-4.079,6.406,0.157a1.311,1.311,0,0,0,.86-0.419,1.327,1.327,0,0,0,.338-0.941v-8.525l-9.115,2.458-2.916-3.816q5.676-1.1,12.031-2.721V120.8H547.306v-3.973h10.678V109.3a22.1,22.1,0,0,1-4.063.942,35.5,35.5,0,0,1-4.479.469A33.074,33.074,0,0,0,547,106.784a41.98,41.98,0,0,0,7.447-.678,34.2,34.2,0,0,0,6.069-1.752,63.273,63.273,0,0,0,6.849-3.322l2.605,2.983q-4.845,2.822-6.017,3.423a20.052,20.052,0,0,1-1.848.864v8.524h9.688a156.8,156.8,0,0,1-.312-16h4.011q0,3.45.13,8.444t0.338,7.558h13.856V120.8H576.319a57.852,57.852,0,0,0,2.083,9.989,39.65,39.65,0,0,0,5.836-8.577l3.54,1.518a46.013,46.013,0,0,1-7.813,11.032,23.794,23.794,0,0,0,2.084,3.453,41.788,41.788,0,0,0,2.891,3.791q0.861,0.917,1.068.339a29.869,29.869,0,0,0,1.3-7.268Zm-2.293-24.786a24.927,24.927,0,0,1-3.333,2.876,15.222,15.222,0,0,0-3.569-5.021,20.208,20.208,0,0,0-5.39-3.661l3.333-3.033a25.471,25.471,0,0,1,5.105,3.791A17.053,17.053,0,0,1,589.081,111.859Zm22.5-10.147a106.106,106.106,0,0,1-3.075,13.074v32.526h-3.957V122.891a24.48,24.48,0,0,1-2.241,3.634,32.31,32.31,0,0,1-2.761,3.375l-3.021-2.721a43.123,43.123,0,0,0,7.162-11.137,61.686,61.686,0,0,0,4.246-15.48Zm7.343,10.459a21.554,21.554,0,0,0-6.041-8.21l3.229-1.987a18.678,18.678,0,0,1,6.3,8.054Zm-5.417,35.141V112.59h3.958v34.722h-3.958Zm28.076-4.077q0,2.352-2.916,3.292a25.715,25.715,0,0,1-6.2.158l-1.406-4.131L637,142.973a0.7,0.7,0,0,0,.47-0.261,1.527,1.527,0,0,0,.157-0.838V107.622H622.835V103.8h18.752v39.431Zm46.462,2.3V141.77H657.317v4.13h-3.958v-41h38.65V145.43Zm0-36.867H657.317v29.18h30.732v-29.18Zm-25.157,23.323V114.473h19.377v17.518H662.892Zm15.417-13.753h-11.46v9.987h11.46v-9.987Zm39.586-6.014A52.577,52.577,0,0,1,715.838,118q-0.493.913-.651,1.228l-3.8-1.516a14.616,14.616,0,0,0,1.433-2.511,12.67,12.67,0,0,0,.911-2.457h-4.323a20.11,20.11,0,0,1-.989,3.138,37.556,37.556,0,0,1-2.161,4.549,27.712,27.712,0,0,1-2.474,3.869l-3.385-2.562a25.223,25.223,0,0,0,4.842-8.471,45.468,45.468,0,0,0,1.875-12.289l3.854,0.993a65.9,65.9,0,0,1-.675,6.955h7.6v3.3Zm-10.157,31.95-2.083-3.084a3.716,3.716,0,0,0,2.032-1.935V119.388h3.958v18.249l6.25-3.345v4.444ZM732.845,132.2a13.382,13.382,0,0,1-1.484,6.014,13.606,13.606,0,0,1-4.193,4.967,25.1,25.1,0,0,1-10.782,4.288l-1.98-4.13q7.551-.209,12.033-4.864a12.822,12.822,0,0,0,1.823-3.033,9.457,9.457,0,0,0,.625-3.608v-3.922h3.958V132.2ZM716.7,121.584v-3.818h12.815V116.2H719.3V104.9h10.21v-4.079h3.959V104.9h10.052V116.2H733.471v1.569h13.177v3.818H716.7Zm23.076,16.368v-11.4h-16.72v12.342h-3.959v-16.16h24.429v15.218h-3.75Zm-10.261-29.231h-6.251v3.66h6.251v-3.66Zm16.043,38.329a29.87,29.87,0,0,0-5.418-3.5,36.37,36.37,0,0,0-8.595-2.876l1.98-3.45a40.688,40.688,0,0,1,14.377,6.222Zm-5.782-38.329h-6.3v3.66h6.3v-3.66Zm54.536-1.36a45.955,45.955,0,0,1-14.324,11.661v23.271a4.526,4.526,0,0,1-.963,2.719,3.391,3.391,0,0,1-2.787,1.36l-7.657.1-1.876-4.183h8.284a0.981,0.981,0,0,0,.6-0.523,1.975,1.975,0,0,0,.287-1.046V116.982q8.333-4.548,12.554-9.256H760.087v-3.818h34.222v3.453Zm27.135,37.755v5.28H817.8v-5.331c-7.6-.629-12.914-4.549-13.018-13.018h4.529c0.106,5.958,3.646,8.469,8.489,8.992V126.871l-0.521-.1c-6.3-1.411-11.248-3.973-11.248-10.771,0-5.75,4.582-9.409,11.769-9.723v-5.227h3.646v5.384c8.749,0.835,11.561,5.959,11.716,11.5h-4.478c-0.312-4.131-2.031-6.848-7.238-7.528v12.965l1.093,0.262c8.542,1.881,11.561,5.227,11.561,10.614C834.1,140.516,829.567,144.75,821.444,145.116ZM817.8,122.532V110.245c-4.79.261-7.237,2.457-7.237,5.75S812.017,121.067,817.8,122.532Zm11.769,11.711c0-3.4-2.238-5.126-8.123-6.537v13.437C826.6,140.828,829.567,138.528,829.567,134.243Zm20.526,10.088H845.72v-27.76h-8.437v-3.45l0.834-.053c4.789-.313,7.5-1.463,8.436-5.961h3.54v37.224Zm5.213-2.718a3.048,3.048,0,0,1,6.092,0A3.046,3.046,0,1,1,855.306,141.613Zm34.319-1.255v3.973H865.15l0.1-2.038c0.26-4.5,1.406-9.776,8.071-13.645l4.688-2.719c4.479-2.613,6.509-4.966,6.509-8.888s-2.6-6.8-7.343-6.8c-4.635,0-7.758,2.3-7.758,8H865.1c-0.1-7.685,4.531-11.972,12.186-11.972,7.03,0,11.822,4.443,11.822,10.769,0,4.757-2.5,8.679-8.436,12.13l-3.958,2.3c-4.271,2.51-6.354,4.757-6.666,8.887h19.58Zm28.128-7.737c0,7.057-4.842,12.548-12.863,12.548-7.187,0-12.186-4.5-12.6-11.188h4.375c0.415,4.7,4.165,7.215,8.226,7.215,4.845,0,8.281-3.5,8.281-8.575s-3.436-8.573-8.281-8.573c-3.8,0-6.249,1.672-7.6,4.5h-4.063l3.125-21.436h19.165v3.975H899.891l-1.771,11.711a10.566,10.566,0,0,1,7.03-2.719C913.275,120.074,917.753,125.563,917.753,132.621Zm20.113-30.175a62.783,62.783,0,0,1-4.533,15.53v29.7h-3.906V124.67a18.527,18.527,0,0,1-1.875,2.666,31.373,31.373,0,0,1-3.385,3.3l-2.554-3.138q7.71-6.9,11.1-18.721a76.368,76.368,0,0,0,1.772-7.791Zm31.1,34.722q-1.1,4.969-2.136,6.352a3.1,3.1,0,0,1-2.552,1.388h-23.91a2.9,2.9,0,0,1-1.457-.577,4.756,4.756,0,0,1-1.408-1.358,6.8,6.8,0,0,1-.911-2.772,4.278,4.278,0,0,1,.443-2.668q4.845-6.639,11.616-15.242t10.783-13.047H939.323v-3.818h25.994l-0.1,3.712q-4.428,4.706-9.872,11.3t-13.674,17.518c-0.069.1-.2,0.307-0.39,0.6a3.979,3.979,0,0,0-.415.811,1.311,1.311,0,0,0-.027.784,0.5,0.5,0,0,0,.13.315,4.937,4.937,0,0,0,.963.627h20.941a1.66,1.66,0,0,0,1.406-.889,10.15,10.15,0,0,0,.5-2.457c0.122-1.116.215-1.884,0.286-2.3Z"/>
  </g>
</svg>
