<svg xmlns="http://www.w3.org/2000/svg" width="300" height="250" viewBox="0 0 300 250">
  <defs>
    <style>
      .cls-1 {
        fill: #4c286c;
        fill-rule: evenodd;
      }
    </style>
  </defs>
  <path class="cls-1" d="M184.018,111.64l0.021-1.572-12.972-.023v1.75H169.4l0.022-17.336,16.265-.044V111.6Zm-12.951-3.233,12.972-.022L184,96.053H171.09Zm2.349-2.479V98.466h8.165v7.439Zm1.69-1.616h4.807l-0.022-4.207h-4.807Zm23.332,5.889a6.159,6.159,0,0,1-1.426.841,6.519,6.519,0,0,0-.549-1.085q-2.064.93-4.28,2.17-0.264-.177-0.747-0.576c-0.321-.266-0.527-0.435-0.614-0.509a2.646,2.646,0,0,0,.527-1.66l0.021-9.233a5.179,5.179,0,0,1-.657.487l-1.274-1.151a10.269,10.269,0,0,0,3.841-6.82l1.471,0.443a1.791,1.791,0,0,1-.066.609,2.841,2.841,0,0,0-.088.366,5.821,5.821,0,0,1,2.02,1.1,8.164,8.164,0,0,1,1.733,1.915l-1.316,1-0.2-.376-0.044.93H192.6a3.869,3.869,0,0,1-.615.831c-0.088.052-.146,0.085-0.175,0.1l5.772,0.044v7h-4.609L193,109.735l2.371-.974a2.79,2.79,0,0,0-.506-0.376c-0.292-.192-0.5-0.339-0.636-0.443l1.3-.907A6.658,6.658,0,0,1,198.438,110.2Zm-2.414-8.989H193v1.151h3.029v-1.151Zm0,2.59H193v1.262h3.029V103.8Zm0.264-6.686a4.621,4.621,0,0,0-2.064-1.617,4.9,4.9,0,0,1-.23.565q-0.143.3-.308,0.62c-0.109.214-.179,0.351-0.208,0.409Zm12.467,15.52a8.788,8.788,0,0,0-1.932-1.351,10.555,10.555,0,0,0-3.161-.952l0.791-1.284h-2.2l0.857,1.019a8.292,8.292,0,0,1-2.415,1.572,13.771,13.771,0,0,1-2.81,1,6.891,6.891,0,0,1-.57-0.875c-0.234-.405-0.373-0.638-0.417-0.7a10.1,10.1,0,0,0,2.085-.542,12.875,12.875,0,0,0,2.613-1.406l-2.723-.044v-8.015h9.307l-0.022,7.992h-3.293a15.4,15.4,0,0,1,2.4.676,9.236,9.236,0,0,1,1.987,1.029l0.68,0.6Zm-10.822-12.354V98.777h4.785v-0.6H198.68V94.171l4.038,0.022V92.688h1.625l0.022,1.483H208.4v4.007h-4.06l0.022,0.6H209.5v1.505H197.933Zm4.785-4.583-2.436-.022v1h2.436V95.7Zm3.8,6.819h-5.971l-0.021.642,5.992,0.022v-0.664Zm0,1.992h-5.992v0.775l5.992-.022V104.51Zm-5.992,2.082v0.93h5.97l0.022-.908Zm6.255-10.915-2.436.022v0.974h2.436v-1Zm12.907,11q-0.594-.73-1.328-1.506a7.533,7.533,0,0,0-1.284-1.129v8.612H215.34v-8.369a16.994,16.994,0,0,1-2.5,2.192l-1.251-1.395a28.213,28.213,0,0,0,3.434-2.989,19.147,19.147,0,0,0,2.491-3.3h-5.4l0.044-1.638,7.265,0.022v1.461a20.468,20.468,0,0,1-2.37,3.809l0.022,0.774,0.636-.642a6.888,6.888,0,0,1,1.383.941,19.066,19.066,0,0,1,1.888,1.938Zm-4.544-13.993a17.027,17.027,0,0,1,1.273,1.539,8.91,8.91,0,0,1,1.076,2.07q-0.2.089-.713,0.376a7.786,7.786,0,0,1-.846.421,10.482,10.482,0,0,0-2.217-3.609Zm10.492,7.24,5.027,0.022-0.044,1.616-4.983-.022,0.044,7.9,5.751,0.022v1.66l-13.236.023-0.022-1.705h5.707v-7.9h-4.719V99.906h4.719V92.865l1.8-.022ZM244.576,93.2a35.522,35.522,0,0,0,5.356,3.675,15.46,15.46,0,0,0,4.083,1.461l-1.054,1.461q-0.2-.044-1.47-0.443l-0.022,4.473H235.577V99.131a13.975,13.975,0,0,1-1.405.6l-0.9-1.461a37.631,37.631,0,0,0,6.432-3.155A20.831,20.831,0,0,0,243.479,92l1.514,0.841Zm2.569,4.538h-7.156l-0.022-.908a21.7,21.7,0,0,1-3.336,1.793l13.28,0.044a13.309,13.309,0,0,1-1.284-.675q-0.869-.5-1.482-0.919v0.664ZM236.9,112.414v-7.77l13.3-.022,0.022,7.792h-1.735V111.33h-9.92v1.084H236.9Zm0.373-12.177v2.016h2.282c-0.03-.03-0.088-0.093-0.176-0.189s-0.31-.3-0.669-0.608l-0.692-.6a5.916,5.916,0,0,1,1.142-.575Zm1.316,6.908,9.943,0.022v-0.951h-9.943v0.929Zm9.943,1.572h-9.943v1.041h9.922Zm-9.043-8.48a9.447,9.447,0,0,1,1.91,2.016h1.316l0.023-2.016h-3.249Zm6.432-4.073q-1.713-1.395-2.283-1.948-1.032.842-1.515,1.207t-0.988.7Zm-1.537,4.051-0.022,2.06h1.449a8.743,8.743,0,0,0,1.493-2.06h-2.92Zm4.3,0.665-0.79,1.4h1.887l-0.021-2.06h-2.195ZM175.9,137.96h-8.34a13.6,13.6,0,0,1-2.81-.287,9.574,9.574,0,0,1-4-1.817,12.5,12.5,0,0,1-.955,1.263,22.388,22.388,0,0,1-1.547,1.683L157,137.584a18.153,18.153,0,0,0,2.546-2.945,16.014,16.014,0,0,1-2.129-3.521l1.339-.774q0.131,0.221.548,1.051t0.659,1.218a4.525,4.525,0,0,0,.438.609,8.3,8.3,0,0,0,.56-1.3,12.688,12.688,0,0,0,.451-2.69h-3.732v-1.395a19.789,19.789,0,0,0,2.1-2.613,17.749,17.749,0,0,0,1.525-2.7h-3.994l0.022-1.616,5.751,0.022,0.021,1.46a19.049,19.049,0,0,1-3.161,5.226l3.14,0.022a15.689,15.689,0,0,1-1.537,6.775,6.878,6.878,0,0,0,2.832,1.539,19.411,19.411,0,0,0,5.487.431q3.511-.043,6.695-0.221Zm-7.814-1.926v-2.081H163.1v-1.617h4.961l0.022-1.306h-4.149v-1.594h4.127l0.022-1.306h-3.731v-1.616h3.731l-0.022-1.329-5.158-.022v-1.594l5.158-.022v-1.2h-3.709v-1.594l3.709-.022v-1.726h1.668l0.022,1.726,4.763,0.022v2.812h1.427v1.594h-1.427v2.967l-4.785-.022v1.328l5.048-.022v1.616H169.75l-0.022,1.306h6.234l0.022,1.617-6.256-.023,0.022,2.1h-1.668Zm1.646-13.683v1.218h3.117v-1.218h-3.117Zm3.117,4.163v-1.351l-3.117.022v1.351Zm25.813,9.586-1.273,1.661-8.275.022c-0.294,0-.63-0.011-1.01-0.033a11.616,11.616,0,0,1-1.229-.144,10.253,10.253,0,0,1-1.218-.277q-0.559-.167-0.955-0.321c-0.263-.1-0.487-0.2-0.669-0.288s-0.34-.166-0.472-0.233-0.293-.15-0.483-0.254-0.315-.169-0.373-0.2c-0.132.177-.33,0.425-0.593,0.741s-0.581.672-.955,1.064-0.691.711-.954,0.963l-1.339-1.129q3.731-3.3,4.1-6.4h-3.336l0.043-1.439a17.858,17.858,0,0,0,3.184-4.118h-3.688l0.021-1.594,5.62-.023v1.417a16.913,16.913,0,0,1-2.832,4.185h2.876a13.832,13.832,0,0,1-1.317,4.981,12.083,12.083,0,0,0,3.227,1.052,20.422,20.422,0,0,0,3.884.365h8.012Zm-16.045-12.753a8.437,8.437,0,0,0-3.008-3.387l1.515-1.151a6.089,6.089,0,0,1,1.01.83,23.563,23.563,0,0,1,2.041,2.735Zm5.465-.065a9.3,9.3,0,0,1-1.8,2.1L184.94,124.3a7.789,7.789,0,0,0,2.831-4.672l1.514,0.554a8.3,8.3,0,0,1-.4,1.506h1.756v-2.835l1.668-.022,0.023,2.857h4.17V123.3h-4.193v2.236H198v1.617l-5.686-.023v1.329h-1.668l0.023-1.306h-5.554v-1.617h5.531V123.3Zm8.143,12.309-1.645-.022v-1.063l-6.323.023v1.04l-1.689.022v-6.709h9.68Zm-7.989-5.092,0.021,2.413h6.323V130.5h-6.344Zm31.476,8.192a39.493,39.493,0,0,1-6.87-.9,20.411,20.411,0,0,1-4.193-1.472l-0.68.465a15.348,15.348,0,0,1-6.3,2.1l-0.988-1.484a29.34,29.34,0,0,0,3.085-.7,18.944,18.944,0,0,0,3.3-1.251,14.989,14.989,0,0,1-3.183-2.834l1.273-.863a26.076,26.076,0,0,0,3.205,2.524,6.132,6.132,0,0,0,.757-1.329,7.1,7.1,0,0,0,.45-1.461H203.6l0.021-8.192h6.3v-1.638l-8.6.023v-1.572h18.723v1.572l-8.494-.023V123.3h6.1V131.5h-6.409a8.47,8.47,0,0,1-.505,1.959,6.58,6.58,0,0,1-.922,1.672,10.543,10.543,0,0,0,2.678.919,36.882,36.882,0,0,0,3.962.642q2.25,0.255,4.291.3ZM205.243,126.58h4.675V124.9l-4.675-.021v1.7Zm0,3.3,4.543,0.022,0.089-1.749h-4.632v1.727Zm6.277-1.727-0.109,1.749h4.653v-1.749H211.52Zm4.522-3.276h-4.455l-0.023,1.7h4.478v-1.7Zm7.353,11.291a11.8,11.8,0,0,0,2.546.841A0.631,0.631,0,0,0,226.2,137a0.51,0.51,0,0,0,.253-0.166,1.026,1.026,0,0,0,.2-0.332,12.281,12.281,0,0,0,.3-1.218,24.469,24.469,0,0,0,.571-4.163l-4.039.023a47.383,47.383,0,0,0,.615-6.376h3.38v-3.233h-4.237V119.96h5.883l-0.022,6.376-3.359.023q-0.087,1.5-.285,3.209l3.688-.021a26.744,26.744,0,0,1-.966,7.616,2.062,2.062,0,0,1-.592.952,1.846,1.846,0,0,1-.923.465,9.328,9.328,0,0,1-3.05-.62Zm16.177-2.591a14.368,14.368,0,0,1,2.875,4.3c-0.146.074-.387,0.21-0.724,0.41a6.611,6.611,0,0,1-.834.432,9,9,0,0,0-.746-1.772l-10.514,1.085q-0.2-.332-0.472-0.874c-0.184-.362-0.3-0.6-0.362-0.72,0.5,0,1.046-.017,1.646-0.055s1.39-.107,2.37-0.21l1.889-.2L234.677,133h-4.368l-0.021-6.176h4.433V125.03q-2.327.154-4.587,0.487l-0.9-1.438a18.311,18.311,0,0,0,5.443-5.4c0.19,0.119.44,0.288,0.746,0.509s0.52,0.369.637,0.443a19.269,19.269,0,0,1-1.679,2.07,13.137,13.137,0,0,1-2.228,1.96q0.987-.022,3.073-0.166t3.512-.277a9.138,9.138,0,0,0-2.216-1.572l1.447-.974a16.877,16.877,0,0,1,2.371,2.07,14.345,14.345,0,0,1,1.953,2.49l-1.4.864a8.1,8.1,0,0,0-.966-1.484l-3.555.288,0.021,1.927h4.3V133h-4.368v2.79l2.853-.31a16.474,16.474,0,0,0-1.4-1.372Zm-7.616-2.191,2.765,0.021v-2.988h-2.765v2.967Zm4.412-2.945,0.021,2.922,2.722,0.023V128.44h-2.743Zm10.1-2.391v-1.705h6.847a47.122,47.122,0,0,0,.154-5.579,8.539,8.539,0,0,0,.966.155q0.593,0.066.812,0.111,0.066,3.166-.11,5.313h7.858l0.022,1.705h-6.453a19.114,19.114,0,0,0,1.427,4.671,12.829,12.829,0,0,0,2.348,3.388A17.146,17.146,0,0,0,264,136.92l-1.185,1.327a24.071,24.071,0,0,1-2.612-1.848,13.524,13.524,0,0,1-2.294-2.379,13.99,13.99,0,0,1-1.778-3.245,21.14,21.14,0,0,1-1.174-4.726,19.261,19.261,0,0,1-2.777,7.295,16.093,16.093,0,0,1-5.542,4.793l-1.251-1.528a13.621,13.621,0,0,0,3.688-2.545,13.983,13.983,0,0,0,2.6-3.521,15.364,15.364,0,0,0,1.482-4.494h-6.694Zm-53.843,19.258c-0.044.251-.107,0.538-0.187,0.864s-0.212.767-.4,1.327-0.3.946-.362,1.152H197.6q-0.023.508-.044,2.38t-0.065,3.033q-0.043,1.163-.143,2.535t-0.362,3a20.434,20.434,0,0,1-.769,3.155,3.206,3.206,0,0,1-.767,1.306,1.932,1.932,0,0,1-.922.553,3.677,3.677,0,0,1-1.021,0,21.484,21.484,0,0,1-2.886-.685l-0.286-1.86a16.2,16.2,0,0,0,3.314.93,0.81,0.81,0,0,0,.834-0.4,14.055,14.055,0,0,0,.725-2.612,70.927,70.927,0,0,0,.724-9.786h-4.675a17.959,17.959,0,0,1-2.546,4.627l-1.142-.73V164.3l-1.69.022a8.385,8.385,0,0,1-.022-1.074q0.023-.63.022-0.742l-3.687.023v1.793h-1.734V149h2.019a13.559,13.559,0,0,0,1.339-3.918l1.581,0.641A14.093,14.093,0,0,1,184.215,149h3.358l-0.021,4.362a19.636,19.636,0,0,0,3.313-8.457Zm-10.47,5.269,0.022,4.3,3.643,0.023v-4.318h-3.665Zm3.709,10.362-0.022-4.473-3.643.023v4.427Zm7.178-1.506a19.44,19.44,0,0,0-2.985-5.2l1.361-.908a19.467,19.467,0,0,1,1.909,2.635,16.611,16.611,0,0,1,1.3,2.768Zm15.672-.42q-0.593-.732-1.328-1.506a7.533,7.533,0,0,0-1.284-1.129v8.612h-1.734v-8.368a17.069,17.069,0,0,1-2.5,2.191l-1.251-1.394a28.3,28.3,0,0,0,3.434-2.989,19.174,19.174,0,0,0,2.492-3.3h-5.4l0.044-1.639,7.265,0.022v1.461a20.483,20.483,0,0,1-2.37,3.809l0.022,0.775,0.636-.643a6.9,6.9,0,0,1,1.383.942,19.036,19.036,0,0,1,1.888,1.937Zm-4.544-13.993a16.93,16.93,0,0,1,1.273,1.539,8.839,8.839,0,0,1,1.076,2.07c-0.131.059-.37,0.184-0.713,0.376a7.746,7.746,0,0,1-.846.421,10.487,10.487,0,0,0-2.216-3.609Zm10.492,7.24,5.027,0.022-0.044,1.616-4.983-.022,0.044,7.9,5.751,0.022v1.661l-13.235.022-0.023-1.705H212.9v-7.9h-4.719v-1.639H212.9V145.2l1.8-.022ZM242.1,163.993H226.556a1.733,1.733,0,0,1-.8-0.21,1.491,1.491,0,0,1-.648-0.72,2.6,2.6,0,0,1-.241-1.129V147.9l-1.383-.022v-1.639l18.5,0.023V147.9H226.534l0.022,13.594a0.918,0.918,0,0,0,.2.665,0.978,0.978,0,0,0,.7.2H242.1v1.638Zm-8.429-3.078h-6.212v-6.132l6.212,0.022v6.11ZM229.1,156.4v2.9l2.9,0.021-0.023-2.944Zm10.031-2.79-9.877.023,0.021-4.938h9.856v4.915Zm-8.209-1.5h6.541v-1.927h-6.541V152.1Zm10.141,2.679v6.066h-6.278v-6.066h6.278Zm-1.647,1.594-2.963.022v2.834l2.942,0.022Z"/>
</svg>
