<svg xmlns="http://www.w3.org/2000/svg" width="300" height="250" viewBox="0 0 300 250">
  <defs>
    <style>
      .cls-1 {
        fill: #4c286c;
        fill-rule: evenodd;
      }
    </style>
  </defs>
  <path class="cls-1" d="M157,102.222a17.923,17.923,0,0,0,1.822-2.528,18.43,18.43,0,0,0,1.57-3.408,35.778,35.778,0,0,0,1.2-4.265l1.558,0.813a24.2,24.2,0,0,1-.669,2.429q-0.495,1.549-.582,1.858l0.021,14.9H160.18V100.9a24.189,24.189,0,0,1-1.712,2.308ZM168.608,98l-2.963-.022V95.451h-2.677l0.021-1.539,2.679,0.022V92.263H167.4v1.649h4.039l0.022-1.671h1.668l0.022,1.693h3.578v1.517h-3.578v2.572l-2.875.022v0.924l5.246,0.022-0.022,4.419h-5.224L170.3,104.4h5.2v1.517l-5.159-.022v0.945l4.5,0.022,0.022,1.517-4.522-.022v1.209l6.893-.044,0.022,1.5-15.014.022v-1.5l6.454,0.022v-1.209l-4.588.044-0.022-1.517h4.543v-0.945h-5.18V104.4h5.18v-0.989h-5.18V98.968l5.18,0.022Zm-3.445,3.913,3.445-.022v-1.407H165.14Zm6.277-5.43V95.451h-4.017L167.4,96.484h4.039Zm-1.163,4v1.363l3.49,0.022,0.044-1.363Zm8.955,10.464a13.19,13.19,0,0,0,1.526-1.571,10.023,10.023,0,0,0,1.393-2.232,8.939,8.939,0,0,0,.769-2.528l-3.161.022v-1.473a15.18,15.18,0,0,0,1.481-1.726,18.8,18.8,0,0,0,1.548-2.429h-3.27V97.5h5.114v1.473a21.83,21.83,0,0,1-1.3,2.187,22.219,22.219,0,0,1-1.405,1.946h2.744a16.379,16.379,0,0,1-1.12,4.726,5.407,5.407,0,0,0,.867.638,5.774,5.774,0,0,0,1.262.561,10.182,10.182,0,0,0,1.8.362,36.343,36.343,0,0,0,4.1.088l3.534-.044q0.681-.021,2.152-0.1t1.668-.078l-0.724,1.715-9.417.066a8.962,8.962,0,0,1-5.926-1.781,15.161,15.161,0,0,1-1.142,1.43,14.8,14.8,0,0,1-1.361,1.362Zm2.283-18.708a8.2,8.2,0,0,1,.834.813,8.553,8.553,0,0,1,.966,1.3q0.461,0.747.7,1.209-0.087.066-.571,0.384t-0.79.495a19.145,19.145,0,0,0-1.064-1.8A7.723,7.723,0,0,0,180.22,93.1Zm11.458,14.883a12.756,12.756,0,0,0,2.524-.044,0.32,0.32,0,0,0,.22-0.176,0.712,0.712,0,0,0,.087-0.352v-5.694h-8.735l-0.023,7.959H185.4V99.3h1.185l0.022-6.089h9.548v6.067l1.318-.022-0.023,7.584a1.938,1.938,0,0,1-.2.88,1.721,1.721,0,0,1-.856.7,9.221,9.221,0,0,1-2.788.22Zm-2.568-10.992h4.1l-0.023-1.341h-6.234v4.485h2.152V96.132Zm-1.8,10.355-0.021-.177v-4.4h5.641v4.573H188.6Zm1.428-3.078v1.561h2.633v-1.561h-2.633Zm1.975-4.134h2.48V97.583l-2.48.022v1.671Zm24.232,8.663a6.763,6.763,0,0,0-1.174-1.155,10.382,10.382,0,0,0-1.614-1l1.735-.923a11.242,11.242,0,0,1,2.656,2.374,18.55,18.55,0,0,1,2.327,3.583c-0.132.074-.367,0.22-0.7,0.44a5.12,5.12,0,0,1-.834.462,17.09,17.09,0,0,0-1.23-2.243c-0.16.015-.413,0.037-0.757,0.066s-1.964.161-4.862,0.4-5.363.535-7.4,0.9l-1.053-1.583a16.532,16.532,0,0,0,3.194-2.748,21.95,21.95,0,0,0,2.535-3.341h-6.431V101.54l7.638,0.044,0.022-4h-6.036l-0.023-1.671,6.037,0.044V92.219l1.8-.022-0.044,3.76L218.04,96v1.583h-6.015v3.957h7.66v1.627h-8.6a21.223,21.223,0,0,1-4.5,5.584Zm8.341-7.1h17.011v1.825l-17.011.022v-1.847Zm26.647-8.155c-0.014.132-.041,0.293-0.077,0.483s-0.15.6-.34,1.231H263.1V96l-6.695.044,0.022,2.814h5.6v1.627h-5.6v3.561H264v1.627l-7.573-.022v6.332H254.7v-6.31h-8.561v-1.648l2.723,0.021V98.858l5.838-.022V96.022h-4.521a23.479,23.479,0,0,1-1.35,2.407,10.69,10.69,0,0,1-1.679,1.99L245.761,99.3a14.327,14.327,0,0,0,4.061-7.3Zm-0.68,7.8v3.561h4.126l0.022-3.561h-4.148ZM169.86,118.178q0,1.451.055,3.55t0.142,3.177H175.9v1.649h-5.685a24.124,24.124,0,0,0,.878,4.22,16.716,16.716,0,0,0,2.458-3.605l1.493,0.638a19.4,19.4,0,0,1-3.293,4.638,9.981,9.981,0,0,0,.878,1.451,17.657,17.657,0,0,0,1.218,1.594q0.363,0.384.45,0.143a12.5,12.5,0,0,0,.549-3.056l1.713,0.66a13.585,13.585,0,0,1-.747,3.627,1.556,1.556,0,0,1-.725.77,2.318,2.318,0,0,1-.811-0.012,3.679,3.679,0,0,1-1.449-.89,11.949,11.949,0,0,1-2.371-2.99,23.272,23.272,0,0,1-4.258,2.771l-1.471-1.232a20.915,20.915,0,0,0,4.961-3.187,27.109,27.109,0,0,1-1.229-5.519H164.24l0.023,3.166,3.336-.857,0.022,1.692-3.358.9-0.023,4.55a1.755,1.755,0,0,1-.943,1.518,3.558,3.558,0,0,1-.846.186,10.779,10.779,0,0,1-1.372.033c-0.584-.014-0.98-0.014-1.184,0l-0.615-1.714,2.7,0.065a0.546,0.546,0,0,0,.362-0.175,0.561,0.561,0,0,0,.142-0.4v-3.583L158.644,133l-1.23-1.605q2.305-.439,5.049-1.143v-3.672l-4.478-.021-0.022-1.649h4.478v-3.166a9.418,9.418,0,0,1-1.691.395,14.513,14.513,0,0,1-1.865.2,13.777,13.777,0,0,0-1.032-1.648,17.718,17.718,0,0,0,3.139-.286,14.356,14.356,0,0,0,2.557-.736,26.773,26.773,0,0,0,2.886-1.4l1.1,1.253q-2.041,1.186-2.535,1.44a8.459,8.459,0,0,1-.779.362v3.584l4.082-.023a65.559,65.559,0,0,1-.131-6.7h1.69Zm1.954,0.923a10.737,10.737,0,0,1,2.15,1.594,7.175,7.175,0,0,1,1.624,2.121,10.3,10.3,0,0,1-1.4,1.21,6.4,6.4,0,0,0-1.5-2.111,8.536,8.536,0,0,0-2.271-1.539Zm13.52-.506a42.775,42.775,0,0,1-1.405,4.309v15.1h-1.712V126.444q-0.065.109-.4,0.593t-0.593.847c-0.175.241-.343,0.465-0.5,0.67l-1.537-.835a27.421,27.421,0,0,0,1.57-2.484,28.54,28.54,0,0,0,1.569-3.276q0.747-1.824,1.448-3.979Zm6.387,9.035h-4.1L187.6,138.008l-1.69-.044-0.022-18.753H191.7Zm-4.06-1.6h2.348l-0.021-1.846h-2.327v1.846Zm0.065-5.188v1.8l2.262-.023,0.021-1.8Zm5.949,15.125h0.362c0.139,0,.442.007,0.911,0.022s0.8,0.014.988,0a0.513,0.513,0,0,0,.362-0.2,0.745,0.745,0,0,0,.143-0.483l-0.023-7.673h-3.972v-8.419l5.707,0.044,0.022,15.873a3.567,3.567,0,0,1-.209,1.428,1.979,1.979,0,0,1-.625.748,3.03,3.03,0,0,1-.769.274,4.428,4.428,0,0,1-1.152.066,8.888,8.888,0,0,0-.977-0.01Zm0.439-15.169-0.022,1.8h2.349l0.044-1.825Zm-0.022,3.386v1.846l2.349,0.021V124.18h-2.349Zm23.2,12.794,0.022-1.561-12.972-.022v1.737h-1.669l0.022-17.213,16.265-.044V136.93Zm-12.95-3.209,12.972-.023L217.271,121.5H204.365Zm2.349-2.463v-7.408h8.164v7.386Zm1.689-1.6h4.807l-0.022-4.176H208.36Zm23.332,5.848a6.151,6.151,0,0,1-1.426.836,6.477,6.477,0,0,0-.549-1.078q-2.062.924-4.28,2.155c-0.175-.118-0.425-0.308-0.746-0.572l-0.615-.5a2.612,2.612,0,0,0,.527-1.649l0.022-9.168a5.054,5.054,0,0,1-.658.483l-1.274-1.142a10.18,10.18,0,0,0,3.841-6.771l1.471,0.439a1.743,1.743,0,0,1-.066.605,3.042,3.042,0,0,0-.088.363,5.826,5.826,0,0,1,2.02,1.088,8.116,8.116,0,0,1,1.734,1.9l-1.317.989-0.2-.374-0.044.923h-4.193a3.834,3.834,0,0,1-.615.825c-0.087.052-.146,0.084-0.175,0.1l5.773,0.043v6.948h-4.61l0.023,3.1,2.37-.967a2.79,2.79,0,0,0-.5-0.374c-0.293-.19-0.5-0.337-0.637-0.439l1.3-.9A6.631,6.631,0,0,1,231.713,135.545Zm-2.414-8.926h-3.028v1.144H229.3v-1.144Zm0,2.573h-3.028v1.253H229.3v-1.253Zm0.264-6.639a4.609,4.609,0,0,0-2.064-1.605,4.651,4.651,0,0,1-.23.56c-0.095.2-.2,0.4-0.307,0.616s-0.18.348-.209,0.407Zm12.468,15.411a8.8,8.8,0,0,0-1.933-1.342,10.554,10.554,0,0,0-3.16-.945l0.79-1.275h-2.2l0.856,1.011a8.3,8.3,0,0,1-2.414,1.561,13.918,13.918,0,0,1-2.81.99,6.948,6.948,0,0,1-.57-0.869c-0.235-.4-0.373-0.634-0.417-0.693a10.207,10.207,0,0,0,2.085-.538,12.888,12.888,0,0,0,2.612-1.4l-2.722-.044v-7.958h9.307l-0.023,7.936h-3.292a15.518,15.518,0,0,1,2.4.67,9.234,9.234,0,0,1,1.986,1.023l0.68,0.593ZM231.209,125.7v-1.5h4.785v-0.593h-4.039v-3.979l4.039,0.022v-1.495h1.625l0.021,1.473h4.039v3.979h-4.06l0.021,0.593h5.137v1.5H231.209Zm4.785-4.55-2.436-.022v0.989h2.436v-0.967Zm3.8,6.77h-5.97l-0.022.638,5.992,0.022v-0.66Zm0,1.979H233.8v0.769l5.992-.021V129.9Zm-5.992,2.067v0.923h5.97l0.022-.9Zm6.256-10.838-2.436.022v0.967h2.436v-0.989Zm13.872,14.487a0.381,0.381,0,0,0,.242-0.22,0.889,0.889,0,0,0,.109-0.44v-9.98a19.915,19.915,0,0,0,5.312-3.847l-11.941-.022v-1.649H262.07v1.473a19.03,19.03,0,0,1-5.992,4.9l-0.022,9.783a1.871,1.871,0,0,1-.417,1.144,1.457,1.457,0,0,1-1.186.57l-3.226.044-0.79-1.758h3.49Zm-71.116,27.168V165h-1.537v-2.244c-3.205-.263-5.444-1.913-5.488-5.475h1.91c0.043,2.507,1.536,3.562,3.578,3.783v-5.959l-0.22-.044c-2.656-.594-4.741-1.671-4.741-4.529,0-2.419,1.931-3.959,4.961-4.09v-2.2h1.537v2.265c3.688,0.351,4.873,2.506,4.939,4.837h-1.888a3.044,3.044,0,0,0-3.051-3.166v5.453l0.461,0.11c3.6,0.791,4.873,2.2,4.873,4.463C188.145,160.844,186.236,162.625,182.811,162.779Zm-1.537-9.5v-5.167c-2.019.11-3.051,1.034-3.051,2.419S178.838,152.666,181.274,153.281Zm4.962,4.925c0-1.429-.945-2.155-3.425-2.748v5.651C184.985,160.976,186.236,160.009,186.236,158.206Zm8.757,4.244h-1.845V150.775h-3.556v-1.452l0.352-.022c2.02-.132,3.161-0.616,3.556-2.506h1.493V162.45Zm2.3-1.144a1.286,1.286,0,0,1,2.569,0A1.285,1.285,0,1,1,197.3,161.306Zm14.576-.527v1.671H201.555l0.044-.858a6.412,6.412,0,0,1,3.4-5.738l1.976-1.144c1.888-1.1,2.745-2.088,2.745-3.737a2.781,2.781,0,0,0-3.1-2.859c-1.954,0-3.27.967-3.27,3.364h-1.823c-0.044-3.232,1.91-5.035,5.137-5.035,2.963,0,4.983,1.869,4.983,4.53,0,2-1.053,3.649-3.556,5.1l-1.668.968c-1.8,1.055-2.679,2-2.81,3.738h8.254Zm11.962-3.255a5.091,5.091,0,0,1-5.422,5.277c-3.029,0-5.137-1.89-5.312-4.7h1.843a3.3,3.3,0,0,0,3.469,3.034,3.607,3.607,0,0,0,0-7.211,3.264,3.264,0,0,0-3.205,1.891H213.5l1.318-9.015h8.078v1.671h-6.586l-0.746,4.925a4.464,4.464,0,0,1,2.964-1.143A4.979,4.979,0,0,1,223.835,157.524Zm1.6-3.473a27.771,27.771,0,0,0,2.195-3.033,17.551,17.551,0,0,0,1.306-2.649q0.537-1.374,1.371-4.43l1.514,0.659a32.22,32.22,0,0,1-1.6,5.1l0.021,14.2-1.646.021V152.8q-0.087.132-.658,0.848t-0.922,1.219Zm5.179,7.519a10.237,10.237,0,0,0,2.591-3.144l1.251,0.836a12.121,12.121,0,0,1-.966,1.582,10.38,10.38,0,0,1-1.8,1.848Zm11.656-13.74c-0.044.088-.114,0.2-0.208,0.352s-0.206.308-.33,0.484-0.289.4-.494,0.681h4.391l0.021,1.539H230.659l0.023-1.517h4.543a6.878,6.878,0,0,0-1.47-1.473l1.184-.7-3.248-.044v-1.517h5.049a2.9,2.9,0,0,0-.4-0.472,6.069,6.069,0,0,0-.68-0.606l1.646-.791a6.858,6.858,0,0,1,1.252,1.869l6.036-.022,0.021,1.539h-3.358Zm-3.117,12.861a10.743,10.743,0,0,0-2.743-2.088l0.79-.77h-4.412v-6.2h10.733v6.2h-5.443a11.887,11.887,0,0,1,2.37,1.781Zm2.656-7.54-7.309.021v0.748l7.309,0.022v-0.791Zm-7.309,2.308v0.835l7.309,0.022v-0.857H234.5Zm8.033,4.683a9.588,9.588,0,0,1-.855,1.824,1.71,1.71,0,0,1-1.559.989H236.3a1.9,1.9,0,0,1-.658-0.142,1.629,1.629,0,0,1-.67-0.506,1.241,1.241,0,0,1-.3-0.8v-2.88h1.647L236.344,161a0.393,0.393,0,0,0,.176.3,0.428,0.428,0,0,0,.329.121h2.985a0.756,0.756,0,0,0,.561-0.33,6.2,6.2,0,0,0,.713-1.451Zm-7.089-12.993a5.812,5.812,0,0,1,.6.6,6.549,6.549,0,0,1,.669.946q0.351,0.582.4,0.648h2.063a6.659,6.659,0,0,0,1.58-2.2h-5.311Zm9.306,15.3a9.771,9.771,0,0,0-.91-1.441,12.244,12.244,0,0,0-1.855-1.857l1.3-.923a14.337,14.337,0,0,1,1.558,1.473,8.8,8.8,0,0,1,1.295,1.824Z"/>
</svg>
