<svg id="F2" xmlns="http://www.w3.org/2000/svg" width="300" height="250" viewBox="0 0 600 500">
  <defs>
    <style>
      .cls-1 {
        fill: #080;
        fill-rule: evenodd;
      }
    </style>
  </defs>
  <g id="BUTTON_copy" data-name="BUTTON copy">
    <path id="了解更多_" data-name="了解更多 " class="cls-1" d="M97.681,304.06H84.541v1.46h10.88a18.114,18.114,0,0,1-4.82,3.54v9.08a0.756,0.756,0,0,1-.11.4,0.375,0.375,0,0,1-.23.2h-3.18l0.72,1.6,2.94-.04a1.3,1.3,0,0,0,1.07-.52,1.728,1.728,0,0,0,.37-1.04v-8.9a17.657,17.657,0,0,0,5.5-4.46v-1.32Zm19.982,12.46v-1.44H114.3v-2.12h2.32v-1.44H114.3v-2h-1.52v2h-1.16a9.227,9.227,0,0,0,.14-1.42l-1.5-.12a6,6,0,0,1-.3,2.12,3.949,3.949,0,0,1-1.02,1.66l1.1,1.14a4.114,4.114,0,0,0,.73-0.95,3.346,3.346,0,0,0,.45-0.99h1.56v2.12h-3.66v1.44h3.66v4.38h1.52v-4.38h3.36Zm-8.44-12.66v1.44h2.2a4.679,4.679,0,0,1-.43,1.54,3.5,3.5,0,0,1-.85,1.06,7.367,7.367,0,0,1-1.46.92V307.9h-2.1a21.742,21.742,0,0,0,1.04-3.18h-3.54a10.1,10.1,0,0,0,.26-1.24l-1.34-.54a13.721,13.721,0,0,1-1.17,3.41,10.518,10.518,0,0,1-2.07,2.77l1.22,1,0.48-.58v6.22a9.505,9.505,0,0,1-.28,1.49,7.324,7.324,0,0,1-.43,1.15,9.673,9.673,0,0,1-1.03,1.52l1.14,1.04a5.718,5.718,0,0,0,1.36-1.96,10,10,0,0,0,.74-2.76h1.34v2.52h1.52v-2.52h1.34v2.54c0,0.24-.04.366-0.12,0.38a1.391,1.391,0,0,1-.22.02h-1.2l0.5,1.44h0.96a1.59,1.59,0,0,0,.74-0.2,1.522,1.522,0,0,0,.62-0.64,1.792,1.792,0,0,0,.24-0.86l0.06-9.72,0.6,0.88a5.751,5.751,0,0,0,1.75-1.12,5.621,5.621,0,0,0,1.16-1.6,6.829,6.829,0,0,0,.61-2.06h2.24a11.334,11.334,0,0,1-.42,2.04,1.533,1.533,0,0,1-.19.47,0.34,0.34,0,0,1-.22.08,1.975,1.975,0,0,1-.33-0.01q-0.18-.04-0.63-0.2t-0.81-.26l0.48,1.66a9.254,9.254,0,0,0,1.24.21,4.915,4.915,0,0,0,.54-0.01,1.147,1.147,0,0,0,.71-0.29,1.524,1.524,0,0,0,.43-0.57,10.65,10.65,0,0,0,.56-2.16q0.26-1.461.34-2.4h-7.58Zm-3.46,2.3a8.265,8.265,0,0,1-.8,1.74h-2.24a8.168,8.168,0,0,0,.82-1.74h2.22Zm1.4,5.14h-1.34v-1.96h1.34v1.96Zm-2.86,0h-1.32v-1.96h1.32v1.96Zm2.86,3.5h-1.34v-2.06h1.34v2.06Zm-2.86,0h-1.32v-2.06h1.32v2.06Zm33.186,4.44q-1.86-.04-3.91-0.27a34.2,34.2,0,0,1-3.61-.58,9.638,9.638,0,0,1-2.44-.83,5.983,5.983,0,0,0,.84-1.51,7.645,7.645,0,0,0,.46-1.77h5.84v-7.42h-5.54v-1.42h7.72v-1.46h-17.06v1.46h7.82v1.42h-5.74v7.42h5.44a6.405,6.405,0,0,1-.41,1.32,5.558,5.558,0,0,1-.69,1.2,23.764,23.764,0,0,1-2.92-2.28l-1.16.78a13.633,13.633,0,0,0,2.9,2.56,17.456,17.456,0,0,1-3.01,1.13,27.554,27.554,0,0,1-2.81.63l0.9,1.34a14.056,14.056,0,0,0,5.74-1.9l0.62-.42a18.711,18.711,0,0,0,3.82,1.33,36.343,36.343,0,0,0,6.26.81Zm-4.26-9.42h-4.1v-1.5h4.1v1.5Zm0,3h-4.24l0.1-1.54h4.14v1.54Zm-5.62-3h-4.22v-1.5h4.22v1.5Zm-0.02,1.46-0.08,1.54h-4.12v-1.54h4.2Zm28.732-.14h-5.4a9.727,9.727,0,0,0,1.06-1.44l-1.18-.64a16.729,16.729,0,0,0,2.82-2.84v-1.34h-5.64a14.769,14.769,0,0,0,1.46-1.6l-1.4-.74a15.415,15.415,0,0,1-7.72,4.84l1.32,1.24a21.328,21.328,0,0,0,4.38-2.22h5.5a19.193,19.193,0,0,1-1.86,1.56,17.8,17.8,0,0,1-2.12,1.28,7.971,7.971,0,0,0-1.07-1.11,6.413,6.413,0,0,0-1.17-.87l-1.4.9a6.988,6.988,0,0,1,2.24,1.68,23.194,23.194,0,0,1-2.79.92q-1.87.519-3.45,0.88l0.96,1.34a40.273,40.273,0,0,0,5.88-1.79,24.486,24.486,0,0,0,3.74-1.85,14.108,14.108,0,0,1-3.57,3.23,25.483,25.483,0,0,1-5.03,2.41l1.16,1.28a37.047,37.047,0,0,0,4.05-1.98,16.162,16.162,0,0,0,2.27-1.62h5.12a8.445,8.445,0,0,1-.93,1.29,8.7,8.7,0,0,1-1.46,1.33,16.437,16.437,0,0,1-1.95,1.22,6.237,6.237,0,0,0-2.06-2.18l-1.44.82a7.16,7.16,0,0,1,2.2,2,39.755,39.755,0,0,1-8.96,2.36l1,1.38a54.038,54.038,0,0,0,5.82-1.32,24.911,24.911,0,0,0,3.53-1.39,15.2,15.2,0,0,0,2.88-1.82,11.852,11.852,0,0,0,2.02-2.03,13.889,13.889,0,0,0,1.19-1.84v-1.34Z"/>
  </g>
</svg>
