<svg id="F1" xmlns="http://www.w3.org/2000/svg" width="300" height="250" viewBox="0 0 600 500">
  <defs>
    <style>
      .cls-1 {
        fill: #4b286d;
        fill-rule: evenodd;
      }
    </style>
  </defs>
  <path id="流量不够_全家不爽_" data-name="流量不够， 全家不爽？ " class="cls-1" d="M91.248,129.958V126.6l-12.88-.092,0.736-.414a14.137,14.137,0,0,0-2.622-3.151,9.638,9.638,0,0,0-3.22-1.955L70.318,123.1a11.355,11.355,0,0,1,5.014,3.5H63.556v3.358h9.476a16.275,16.275,0,0,1-4.071,5.612,19.581,19.581,0,0,1-5.543,3.634l2.3,3.082q3.266-.644,9.177-1.38t11.339-1.2a13.27,13.27,0,0,1,1.656,2.9l3.082-2.07a17.612,17.612,0,0,0-3.335-4.669A19.821,19.821,0,0,0,83.2,132.4l-3.4,2.3a11.364,11.364,0,0,1,3.956,2.07L71.1,138.008a15,15,0,0,0,2.76-2.875,37.182,37.182,0,0,0,3.036-5.175H91.248Zm-1.38,21.528a33.365,33.365,0,0,1-.3,3.565,7.2,7.2,0,0,1-.575,2.369,0.98,0.98,0,0,1-.851.483,2.316,2.316,0,0,1-1.2-.069,1.5,1.5,0,0,1-.69-0.46,0.935,0.935,0,0,1-.161-0.69V142.792H82.6v14.444a3.381,3.381,0,0,0,1.587,3.128q1.587,0.966,4.991.644a3.044,3.044,0,0,0,1.863-.92,4.436,4.436,0,0,0,1.173-1.84,24.258,24.258,0,0,0,.966-5.566Zm-26.5-22.264q-3.45-4.6-7.314-5.612l-2.576,2.484a11.229,11.229,0,0,1,7.176,5.658Zm14.674,32.8V142.792h-3.5V162.02h3.5ZM61.67,140.17a17.835,17.835,0,0,0-3.45-4.347,12.233,12.233,0,0,0-4.416-2.691l-2.668,2.53a13.663,13.663,0,0,1,4.577,2.6,12.163,12.163,0,0,1,3.1,4.071Zm5.8,2.76q-0.046.783,0,3.7a25.6,25.6,0,0,1-.345,5.014,10.183,10.183,0,0,1-1.518,3.8,9.861,9.861,0,0,1-2.737,2.783,15.814,15.814,0,0,1-3.358,1.725l2.53,2.99a15.312,15.312,0,0,0,4.3-2.645,12.926,12.926,0,0,0,2.53-3.059,13.959,13.959,0,0,0,1.38-3.381,19.1,19.1,0,0,0,.6-3.818q0.114-2,.092-4.37t-0.023-2.737h-3.45Zm-7.682.92a31.976,31.976,0,0,1-2.622,8.993,20.8,20.8,0,0,1-5.2,7.015L55,162.112q0.828-.828,1.978-2.208a23.627,23.627,0,0,0,2.507-3.933A27.757,27.757,0,0,0,61.67,150.5q0.828-2.921,1.288-5.313Zm71.852-8.418V123.426H104.772v12.006h26.864Zm5.336,4.048v-2.99H99.528v2.99h37.444Zm1.886,21.62v-3.358H120v-1.334h14.9v-2.99H120v-1.2h13.156V140.538H103.438v11.684H116.5v1.2h-14.72v2.99H116.5v1.334H97.78V161.1h41.078ZM128.14,128.072H108.268V126.6H128.14v1.472Zm0,4.37H108.268v-1.7H128.14v1.7Zm1.518,12.512h-9.614L120,143.528h9.66v1.426Zm0,4.278H120v-1.7h9.66v1.7Zm-13.11-5.7-0.046,1.426h-9.568v-1.426h9.614Zm-0.046,5.7h-9.568l-0.046-1.7H116.5v1.7Zm67.482-2.714q-6.9-7.958-14.4-11.362l-2.438,2.438a29.633,29.633,0,0,1,7.337,4.6,46.962,46.962,0,0,1,6.693,6.716Zm-0.276-18.676v-3.5H145.252v3.5h19.182q-1.1,1.794-3.082,4.554a34.231,34.231,0,0,1-7.2,7.452,60.177,60.177,0,0,1-9.591,5.888l2.3,2.99q10.764-5.979,15.272-11.73V162.71h3.772V132.3q1.61-2.253,2.944-4.462h14.858Zm45.31,14.536h-8.694l1.012-2.346-1.932-1.2a39.86,39.86,0,0,0,8.648-10.028v-2.944h-9.476l1.1-3.036-2.9-1.84a19.015,19.015,0,0,1-1.449,4.048,24.826,24.826,0,0,1-6.417,8.142q-0.047-.6,0-2.6t-0.046-3.335H197.232a11.581,11.581,0,0,0,.391-1.932q0.207-1.425.345-2.76l-3.128-1.2a47.978,47.978,0,0,1-2.254,9.522,27.893,27.893,0,0,1-4.646,7.682l2.714,2.208a9.126,9.126,0,0,0,1.978-2.392v14.306H195.9v-2.806h3.358v2.806h3.266v-17.25h-8.05a10.321,10.321,0,0,0,.874-1.909q0.552-1.449.966-2.921h9.154q-0.047,1.242-.092,7.107t-0.23,9.821a57.509,57.509,0,0,1-.6,6.463,14.526,14.526,0,0,1-.966,3.657q-0.6,1.288-1.288,1.2c-0.062,0-.361-0.053-0.9-0.161s-1.051-.222-1.541-0.345-0.974-.268-1.449-0.437-0.913-.329-1.311-0.483l0.874,3.864q3.956,1.242,6.118.736a2.851,2.851,0,0,0,1.357-.828,11.148,11.148,0,0,0,1.541-2.438,20.177,20.177,0,0,0,.575-2.6q0.436-2.322.575-3.933l0.92,1.288q6.44-3.956,9.062-7.774h6.854a36.25,36.25,0,0,1-4.784,6.256,8.223,8.223,0,0,0-1.219-2.024,19.834,19.834,0,0,0-1.679-1.978l-2.53,2.116a11.972,11.972,0,0,1,3.266,3.864,27.025,27.025,0,0,1-4.761,3.151,42.566,42.566,0,0,1-5.727,2.507q0.368,0.552,1.127,1.5t1.035,1.311a36.7,36.7,0,0,0,19.32-17.02v-3.036Zm-5.428-13.156a22.863,22.863,0,0,1-4.186,5.106,30.154,30.154,0,0,0-3.082-2.99l-2.162,2.438a23.438,23.438,0,0,1,2.99,2.622q-4.785,3.957-8.372,4.922a27.188,27.188,0,0,0,.115-3.473q-0.024-2.507.023-2.875l1.38,1.564a33.694,33.694,0,0,0,3.864-3.611,22.138,22.138,0,0,0,2.852-3.7h6.578Zm-9.89,16.537a21.787,21.787,0,0,1-5.244,4.025q0.045-.735.207-3.174t0.207-3.542l0.966,1.84a54.4,54.4,0,0,0,7.636-4.508A19.627,19.627,0,0,1,213.7,145.759Zm-14.444.943H195.9v-8.1h3.358v8.1Zm59.294-8.464h-5.06v5.06h2.484a4.555,4.555,0,0,1-2.76,4.554l1.334,1.7a6.6,6.6,0,0,0,2.369-1.794,6.8,6.8,0,0,0,1.265-2.323,8.185,8.185,0,0,0,.368-2.369v-4.83ZM92.306,192.422a50.575,50.575,0,0,1-5.911-2.415,36.743,36.743,0,0,1-5.842-3.427,27.316,27.316,0,0,1-4.186-3.634,21.692,21.692,0,0,1-2.507-3.266l0.828-1.38-3.358-1.518a33.667,33.667,0,0,1-5.129,6.624,38.334,38.334,0,0,1-6.762,5.405,37.894,37.894,0,0,1-8.3,3.887l2.07,3.128a49.835,49.835,0,0,0,5.75-2.53v1.656H70V201.3H60.474v3.358H70v6.762H53.62v3.358H90.1V211.42H73.492v-6.762h9.522V201.3H73.492v-6.348H84.3v-1.84q3.956,1.749,5.98,2.484Zm-30.59-.92a31.256,31.256,0,0,0,9.844-8.786A27.891,27.891,0,0,0,82,191.594Zm75.118-2.254V180.83H121.286a16.012,16.012,0,0,0-2.76-3.542,16.384,16.384,0,0,0-3.082-2.438l-2.9,2.162a34.888,34.888,0,0,1,3.657,2.9,6.459,6.459,0,0,1,.713.92H100.31v8.6h3.5v-5.244h29.532v5.06h3.5Zm2.208,21.206a12.779,12.779,0,0,1-3.979-2.484,21.55,21.55,0,0,1-3.519-4.094,18.108,18.108,0,0,1-2.346-4.784,33.624,33.624,0,0,0,5.106-4.6l-2.668-2.346q-4.416,5.291-8.51,6.624a12.16,12.16,0,0,0-1.863-2.921,10.867,10.867,0,0,0-2.461-2.231q0.138-.091,1.081-0.621t1.771-1.081a14.988,14.988,0,0,0,1.564-1.2h8.464v-3.358H105.738v3.358l11.546,0.046q-5.7,3.45-16.744,5.2L102.932,199a40.13,40.13,0,0,0,12.466-3.634,13.924,13.924,0,0,1,2.3,1.564,30.314,30.314,0,0,1-4.278,2.53,32.415,32.415,0,0,1-6.095,2.231,66.013,66.013,0,0,1-7.659,1.541l2.438,2.99a34.683,34.683,0,0,0,9.315-2.254,42.7,42.7,0,0,0,8.165-4.416,19.023,19.023,0,0,1,1.242,2.668,30.41,30.41,0,0,1-9.66,5.589,63.478,63.478,0,0,1-12.42,3.013l2.53,3.174a74.115,74.115,0,0,0,7.659-1.863,47.593,47.593,0,0,0,6.992-2.691,25.426,25.426,0,0,0,5.635-3.634,38.424,38.424,0,0,1-.184,6.164,2.011,2.011,0,0,1-.506.874,2.523,2.523,0,0,1-.828.644,15.4,15.4,0,0,1-3.358-.3,38.458,38.458,0,0,1-4.37-1.173l1.426,4.094q5.934,1.1,8.05.322a3.974,3.974,0,0,0,2.047-1.587,8.913,8.913,0,0,0,1.081-3.979,26.455,26.455,0,0,0-.023-4.531,34.249,34.249,0,0,0-.667-4.531l2.208-.92A27.465,27.465,0,0,0,128.324,205a22.477,22.477,0,0,0,3.519,4.715,14.307,14.307,0,0,0,4.9,3.45Zm44.942-9.936q-6.9-7.958-14.4-11.362l-2.438,2.438a29.633,29.633,0,0,1,7.337,4.6,46.962,46.962,0,0,1,6.693,6.716Zm-0.276-18.676v-3.5H145.252v3.5h19.182q-1.1,1.794-3.082,4.554a34.231,34.231,0,0,1-7.2,7.452,60.177,60.177,0,0,1-9.591,5.888l2.3,2.99q10.764-5.979,15.272-11.73V216.71h3.772V186.3q1.61-2.253,2.944-4.462h14.858ZM228.1,193.25a22.808,22.808,0,0,0-4.278-3.68,13.78,13.78,0,0,0,1.472-2.369q0.505-1.08.69-1.541-0.184-.092-1.2-0.667a11.307,11.307,0,0,0-1.656-.805,14.988,14.988,0,0,1-2.208,3.68,20.85,20.85,0,0,0-5.7-1.7l-2.392,2.76a13.973,13.973,0,0,1,5.382,1.426,34.217,34.217,0,0,1-5.888,3.266l2.622,2.438a21.41,21.41,0,0,0,6.256-3.864,38.218,38.218,0,0,1,4.094,3.266Zm-3.634,6.67a10.591,10.591,0,0,0,1.84-3.542l-2.76-1.426a30.675,30.675,0,0,1-1.886,3.22,14.919,14.919,0,0,0-2.323-1.081,23.016,23.016,0,0,0-2.829-.9,23.333,23.333,0,0,0-2.484,2.668,16.041,16.041,0,0,1,5.244,1.748,10.454,10.454,0,0,1-1.058.851q-0.783.576-3.68,2.369l2.576,2.438a24.54,24.54,0,0,0,2.806-1.725,15.745,15.745,0,0,0,2.346-1.955,29.638,29.638,0,0,1,4.048,3.864,9.3,9.3,0,0,0,.782-0.552q0.414-.321,1.058-0.874t0.92-.782a28.943,28.943,0,0,0-4.6-4.324h0Zm-0.782,11.316a19.027,19.027,0,0,1-7.038-4.531,21.336,21.336,0,0,1-4.784-7.061,27.2,27.2,0,0,0,.414-4.416v-11.27H229.2V180.6H212.274v-5.29H208.64q0,0.783.023,2.714a21,21,0,0,1-.069,2.576H191.528v3.358H208.64V195.5a19.953,19.953,0,0,1-.506,4.14,28.175,28.175,0,0,1-1.2,4.14,15.735,15.735,0,0,0-3.22-2.944,14.893,14.893,0,0,0,2.254-4.278,19.727,19.727,0,0,0-2-1.311q-0.438-.207-0.759-0.345a38.856,38.856,0,0,1-2.3,4.048,17.162,17.162,0,0,0-5.612-2.116l-2.438,2.714a13.243,13.243,0,0,1,5.566,1.794,24.438,24.438,0,0,1-6.486,3.4l2.53,2.622a25.275,25.275,0,0,0,5.29-2.76l1.564-1.242q0.045,0.047,1.1,1.012a22.2,22.2,0,0,1,1.886,1.932l2.346-1.978a21.642,21.642,0,0,1-6.486,5.773,31.122,31.122,0,0,1-10.488,3.2l2.208,3.588a31.62,31.62,0,0,0,11.615-4.232,18.986,18.986,0,0,0,7.2-7.82,23.294,23.294,0,0,0,4.784,5.75,22.477,22.477,0,0,0,6.371,3.91,37.4,37.4,0,0,0,7.245,2.116,17.589,17.589,0,0,0,1.334-1.748q0.828-1.2,1.15-1.61a41.356,41.356,0,0,1-7.912-2.024h0ZM208.594,193.3a12.65,12.65,0,0,0-1.035-1.1q-0.667-.644-3.243-2.714a18.289,18.289,0,0,0,2.116-4.186,11.316,11.316,0,0,1-1.426-.6,12.418,12.418,0,0,0-1.564-.644,13.426,13.426,0,0,1-2.162,3.68,15.43,15.43,0,0,0-5.29-1.564l-2.484,2.852a12.783,12.783,0,0,1,5.2,1.2,11.413,11.413,0,0,1-2.185,1.4q-1.311.668-3.7,1.771,0.138,0.138,1.058,1.035t1.219,1.15a5.368,5.368,0,0,0,.437.345,24.764,24.764,0,0,0,6.348-3.956,53.435,53.435,0,0,1,4.232,3.818Zm47.564-7.636a8.574,8.574,0,0,0-2.208-2.875,10.241,10.241,0,0,0-3.381-1.886,12.975,12.975,0,0,0-4.209-.667,11.918,11.918,0,0,0-4.186.736,9.626,9.626,0,0,0-3.381,2.093,10.253,10.253,0,0,0-2.231,3.2,12.658,12.658,0,0,0-.874,3.5l4.14,0.46a10.479,10.479,0,0,1,1.38-3.841,5.413,5.413,0,0,1,2.392-2.231,7.006,7.006,0,0,1,2.806-.6,6.321,6.321,0,0,1,3.542,1.058,5.867,5.867,0,0,1,2.231,2.438,6.075,6.075,0,0,1,.621,2.438,5.123,5.123,0,0,1-.3,1.656,5.47,5.47,0,0,1-1.012,1.725,17.6,17.6,0,0,1-2,1.955,25.634,25.634,0,0,0-3.381,3.358,7.819,7.819,0,0,0-1.472,2.944,14,14,0,0,0-.391,3.4l0.046,1.1h3.864a22.848,22.848,0,0,1,.253-3.059,5.259,5.259,0,0,1,.943-2.277,18.439,18.439,0,0,1,2.622-2.668q1.149-1.011,2.277-2.185a11.069,11.069,0,0,0,1.909-2.737,7.71,7.71,0,0,0,.782-3.5A8.2,8.2,0,0,0,256.158,185.66Zm-7.544,28.06v-4.6h-4.6v4.6h4.6Z"/>
</svg>
