<svg id="F2" xmlns="http://www.w3.org/2000/svg" width="300" height="250" viewBox="0 0 600 500">
  <defs>
    <style>
      .cls-1 {
        fill: #4b286d;
        fill-rule: evenodd;
      }
    </style>
  </defs>
  <path id="TELUS家庭优惠计划_无限流量_节省更多_" data-name="TELUS家庭优惠计划 无限流量 节省更多  " class="cls-1" d="M72.485,126.965H46.216v3.5H57.349V159.72h4V130.461H72.485v-3.5Zm26.22,3.5v-3.5H75.932V159.72H98.521v-3.5H79.8V144.4H96.864v-3.5H79.8V130.461H98.7Zm8,25.762V126.965h-3.864V159.72h20.334v-3.5h-16.47ZM137.9,160.41c8.189,0,12.882-4.647,12.882-12.835v-20.61h-3.865v20.61c0,6.44-3.312,9.339-9.017,9.339s-9.016-2.9-9.016-9.339v-20.61h-3.865v20.61C125.014,155.763,129.707,160.41,137.9,160.41Zm30.406,0.046c7.867,0,12.283-3.818,12.283-9.615,0-4.738-2.668-7.683-10.213-9.339l-2.9-.644c-6.164-1.38-7.683-2.944-7.683-6.073,0-3.082,2.439-5.06,7.177-5.06,6.533,0,8.511,2.53,8.833,6.763h3.956c-0.138-5.337-3.128-10.259-12.789-10.259-6.809,0-11.179,3.312-11.179,8.556,0,5.981,4.37,8.235,9.937,9.477l2.9,0.644c5.8,1.289,7.959,2.807,7.959,5.935,0,4.048-3.036,6.119-8.281,6.119-5.336,0-9.523-1.979-9.615-8.051h-4C154.776,157.1,160.481,160.456,168.3,160.456Zm54.969-25.208V126.83H207.722a16.012,16.012,0,0,0-2.76-3.542,16.384,16.384,0,0,0-3.082-2.438l-2.9,2.162a34.888,34.888,0,0,1,3.657,2.9,6.459,6.459,0,0,1,.713.92H186.746v8.6h3.5v-5.244h29.532v5.06h3.5Zm2.208,21.206a12.779,12.779,0,0,1-3.979-2.484,21.55,21.55,0,0,1-3.519-4.094,18.108,18.108,0,0,1-2.346-4.784,33.624,33.624,0,0,0,5.106-4.6l-2.668-2.346q-4.416,5.291-8.51,6.624a12.16,12.16,0,0,0-1.863-2.921,10.867,10.867,0,0,0-2.461-2.231q0.138-.091,1.081-0.621t1.771-1.081a14.988,14.988,0,0,0,1.564-1.2h8.464v-3.358H192.174v3.358l11.546,0.046q-5.7,3.45-16.744,5.2L189.368,145a40.13,40.13,0,0,0,12.466-3.634,13.924,13.924,0,0,1,2.3,1.564,30.314,30.314,0,0,1-4.278,2.53,32.415,32.415,0,0,1-6.095,2.231,66.008,66.008,0,0,1-7.659,1.541l2.438,2.99a34.683,34.683,0,0,0,9.315-2.254,42.7,42.7,0,0,0,8.165-4.416,19.023,19.023,0,0,1,1.242,2.668,30.41,30.41,0,0,1-9.66,5.589,63.476,63.476,0,0,1-12.42,3.013l2.53,3.174a74.115,74.115,0,0,0,7.659-1.863,47.593,47.593,0,0,0,6.992-2.691A25.426,25.426,0,0,0,208,151.808a38.424,38.424,0,0,1-.184,6.164,2.011,2.011,0,0,1-.506.874,2.523,2.523,0,0,1-.828.644,15.4,15.4,0,0,1-3.358-.3,38.458,38.458,0,0,1-4.37-1.173l1.426,4.094q5.934,1.1,8.05.322a3.974,3.974,0,0,0,2.047-1.587,8.913,8.913,0,0,0,1.081-3.979,26.455,26.455,0,0,0-.023-4.531,34.249,34.249,0,0,0-.667-4.531l2.208-.92A27.465,27.465,0,0,0,214.76,151a22.477,22.477,0,0,0,3.519,4.715,14.307,14.307,0,0,0,4.9,3.45Zm45.54-27.692V125.4H254.78l0.782-.736a18.28,18.28,0,0,0-3.979-3.2,11.033,11.033,0,0,0-3.2-1.173l-2.622,2.484a14.973,14.973,0,0,1,3.45,1.127,6.282,6.282,0,0,1,2.116,1.495H234.494l-0.368,21.758a21.437,21.437,0,0,1-1.242,6.67,18.271,18.271,0,0,1-3.358,5.8l2.438,2.9a18.493,18.493,0,0,0,4.393-7.268,34.714,34.714,0,0,0,1.449-10.534l0.138-15.962h33.074Zm1.61,28.382q-9.292.46-16.56,0.184a19.671,19.671,0,0,1-3.45-.483,18.879,18.879,0,0,1-5.428-2.553q2.484-4.14,2.714-12.19h-5.7a28.9,28.9,0,0,0,2.967-3.335,32.021,32.021,0,0,0,2.645-3.887l0.092-1.334,2.116,2.9q1.747,0.047,3.634-.092a27.386,27.386,0,0,0,3.082-.368v5.06h-7.682V144.4h7.682v6.762H249.26v3.358H271.2v-3.358h-8.97V144.4h7.82v-3.358h-7.82v-5.75a34.668,34.668,0,0,0,7.958-3.128l-2.438-2.392a18.948,18.948,0,0,1-3.312,1.4,39.024,39.024,0,0,1-6.141,1.334,48.946,48.946,0,0,1-8.487.529V131.8H238.864v3.358h6.67a58.374,58.374,0,0,1-6.21,6.9v3.4h7.038a15.973,15.973,0,0,1-.644,3.519,17.785,17.785,0,0,1-1.1,2.645q-0.231-.368-1.035-1.656t-1.242-2.116q-0.438-.828-0.713-1.472l-2.9,1.748a25.924,25.924,0,0,0,3.956,6.394,29.728,29.728,0,0,1-6.072,5.336l2.116,2.714a15.736,15.736,0,0,0,3.933-2.714,26.7,26.7,0,0,0,2.875-2.806,17.129,17.129,0,0,0,10.488,3.5l15.134,0.184Zm40.526-26.68a37.336,37.336,0,0,0-3.289-3.749A25.467,25.467,0,0,0,306.3,123.7l-2.622,2.254a34.457,34.457,0,0,1,4.347,3.7,16.584,16.584,0,0,1,2.277,2.967Zm0.644,21.344a27.9,27.9,0,0,1-.46,4.876,2.252,2.252,0,0,1-.575.989,1.323,1.323,0,0,1-.713.161h-6.578a0.7,0.7,0,0,1-.575-0.253,0.946,0.946,0,0,1-.207-0.621V138.054h-2.9l0.138-1.794h14.72V132.9H302.022V121.494h-3.5V132.9h-10.12v3.358h9.936q-0.047,1.565-.3,3.657a33.514,33.514,0,0,1-.575,3.473,29.38,29.38,0,0,1-4.025,10.166,21.184,21.184,0,0,1-6.693,6.348l2.346,2.76a21.7,21.7,0,0,0,5.52-4.462q4.922-5.565,6.44-14.95V158.2q0,2.989,3.128,2.99h9.476a2.456,2.456,0,0,0,2.093-1.564,17.747,17.747,0,0,0,1.449-5.2ZM286.75,121.08a49.44,49.44,0,0,1-4.324,12.052,42.379,42.379,0,0,1-6.762,10.12l2.99,2.208a26.334,26.334,0,0,0,2.714-3.266q1.656-2.253,1.748-2.392V162.48h3.5V132.764q1.425-3.5,2.093-5.658t1.311-4.646Zm75.946,6.762V124.53H344.71V120.8h-3.5v3.726h-17.94v3.312h17.94v1.61H329.07V143.3h12.144v2.162q-15.089.138-18.216,0.092l1.886,3.542q7.59-.229,16.606-0.322l-2.392,1.61a15.448,15.448,0,0,1,6.716,5.842l2.99-2.024q-0.138-.229-0.575-0.851a15.114,15.114,0,0,0-1.2-1.449,9.974,9.974,0,0,0-1.61-1.426q-0.852-.6-1.84-1.173t-1.219-.713q8.28,0,14.674-.276a20.214,20.214,0,0,1,2.116,2.668l3.082-2.024a18.878,18.878,0,0,0-6.256-5.658h0.966V129.452H344.71v-1.61H362.7Zm1.38,30.222a18.156,18.156,0,0,0-3.381-3.91,19.527,19.527,0,0,0-5.267-3.128L352.806,153a19.919,19.919,0,0,1,8.372,7.176Zm-13.57-5.106a13.041,13.041,0,0,0-.391,1.817,9.847,9.847,0,0,1-.414,1.794,1.554,1.554,0,0,1-.552.759,2.647,2.647,0,0,1-.621.322h-9.062a1.7,1.7,0,0,1-.759-0.552,1.556,1.556,0,0,1-.391-0.782v-5.75h-3.634v4.968A10.939,10.939,0,0,0,335,158.2a5.275,5.275,0,0,0,1.472,1.84,4.092,4.092,0,0,0,2.116.92H346a13.406,13.406,0,0,0,4.692-.322,3.661,3.661,0,0,0,1.15-.782,4.121,4.121,0,0,0,.805-1.127,8.368,8.368,0,0,0,.483-1.242q0.183-.621.391-1.7t0.3-1.449a30.193,30.193,0,0,0-3.312-1.38h0Zm-19.228-2.3a18.328,18.328,0,0,1-9.384,5.75l2.714,2.806a19.763,19.763,0,0,0,5.221-2.668,15.3,15.3,0,0,0,3.933-3.956q-0.507-.459-2.484-1.932h0Zm22.034-16.146h-8.6v-1.748h8.6v1.748Zm0,5.474h-8.6v-2.162h8.6v2.162Zm-8.6,5.29V143.3l6.992,0.092-1.15.69a13.018,13.018,0,0,0,2.254,1.058Zm-3.5-10.764h-8.648v-1.748h8.648v1.748Zm0,5.474h-8.648v-2.162h8.648v2.162Zm67.62-1.518V135.11H398.116V121.448h-3.5V135.11H383.9v3.358H394.62v24.288h3.5V138.468h10.718Zm-28.2-10.534a20.366,20.366,0,0,0-2.737-3.772,20.091,20.091,0,0,0-3.519-3.082L371.9,123.2a21.34,21.34,0,0,1,5.842,6.946Zm5.612,29.026v-3.818l-6.9,3.772V133.96H369.136v3.358h6.716v19.734a2.2,2.2,0,0,1-.276,1.15,4.414,4.414,0,0,1-.92,1.012l2.07,2.944Zm66.746-35.65h-3.5v36.616a1.046,1.046,0,0,1-.3.9,2.02,2.02,0,0,1-.759.3l-4.784-.138,1.242,3.542q0.459,0,2.07.046a13.691,13.691,0,0,0,2.438-.092,6.367,6.367,0,0,0,1.38-.368,3.5,3.5,0,0,0,2.208-3.5V121.31ZM428.2,122.92q-0.6.6-2.576,2.162a17.012,17.012,0,0,1,6.67,6.67,12.182,12.182,0,0,0,1.518-1.173q0.919-.8,1.288-1.081a19.029,19.029,0,0,0-6.9-6.578h0Zm16.33,29.992V126.876h-3.5v26.036h3.5Zm-6.992-.46q-0.323,1.7-1.472,5.888a0.536,0.536,0,0,1-.414.345,1.082,1.082,0,0,1-.414-0.161,19.149,19.149,0,0,1-5.888-7.958,39.518,39.518,0,0,0,8.188-11.04l-2.76-2.024a49.734,49.734,0,0,1-3.128,5.037,39.25,39.25,0,0,1-3.68,4.531,53.344,53.344,0,0,1-2.254-10.35l13.662-2.024-0.46-3.4-13.57,2.07-0.414-6.624v-5.29H421.3q-0.046,3.864.368,12.42l-6.486.966,0.46,3.312,6.486-.92a61.261,61.261,0,0,0,1.15,6.3,53.143,53.143,0,0,0,1.748,6.026,41.62,41.62,0,0,1-11.224,6.21l2.714,2.9a32.053,32.053,0,0,0,4.048-1.909q2.023-1.126,5.842-3.795a42.174,42.174,0,0,0,4,6.118,9.781,9.781,0,0,0,2.484,2.507,7.264,7.264,0,0,0,2.116.9,2.875,2.875,0,0,0,2.093-.092,3.245,3.245,0,0,0,1.081-1.1,21.231,21.231,0,0,0,2.668-7.544ZM85.316,203.968a40.631,40.631,0,0,1-1.242,5.842,1.684,1.684,0,0,1-1.426,1.334H73.954a1.758,1.758,0,0,1-.943-0.46,1.21,1.21,0,0,1-.391-0.92V195H87.11V191.64H68.572q0.276-6.715.23-10.258H84.35v-3.5H50.356v3.5H65.168q-0.046,1.2-.023,4t0,4.094q-0.024,1.288-.115,2.162H47.872V195H64.478a26.776,26.776,0,0,1-6.233,11.316,35.266,35.266,0,0,1-11.523,7.544l2.76,2.852a45.007,45.007,0,0,0,9.545-5.773,24.464,24.464,0,0,0,5.589-6.67A38.224,38.224,0,0,0,68.2,195h0.92v15.916a3.225,3.225,0,0,0,1.012,2.254,4.475,4.475,0,0,0,2.438,1.334h10.35a4.288,4.288,0,0,0,2.116-.667,3.788,3.788,0,0,0,1.564-1.5,31.231,31.231,0,0,0,2.116-6.67Zm49.174,9.706a19.257,19.257,0,0,1-4.945-2.875,14.143,14.143,0,0,1-3.519-3.979q4-2.943,5.543-4.3t2.277-2.047l-2.622-2.392-6.67,5.888a15.951,15.951,0,0,1-1.127-2.944,33.675,33.675,0,0,1-.667-3.68h7.774V177.518h-19.5v33.166a2.969,2.969,0,0,1-.644,2.024,5.054,5.054,0,0,1-1.564,1.2q0.644,0.552,1.725,1.4t1.173,0.9l9.844-4.324v-3.5q-0.046,0-3.036,1.2t-4,1.7V197.344h4.784a28.642,28.642,0,0,0,1.656,7.406,22.379,22.379,0,0,0,4.6,7.038,18.227,18.227,0,0,0,6.808,4.784ZM109.6,197.689a9.232,9.232,0,0,0-1.311-3.565,17.518,17.518,0,0,0-2.967-3.588l3.864-9.706v-3.4H96.264V216.8l3.5-.092V180.876h5.7q-0.921,2.991-4.048,10.258,3.956,3.5,4.692,6.992a4.72,4.72,0,0,1-.023,2.507,3.024,3.024,0,0,1-.943,1.449,2.522,2.522,0,0,1-.506.276,2.569,2.569,0,0,1-.736.184,3.549,3.549,0,0,1-.9-0.023q-0.483-.069-2.691-0.529l0.828,3.818a8.748,8.748,0,0,0,4.462-.138,5.46,5.46,0,0,0,2.484-1.748,5.984,5.984,0,0,0,1.426-2.76A11,11,0,0,0,109.6,197.689Zm17.434-12.075H114.526v-4.738h12.512v4.738Zm-0.046,3.358L126.9,193.94l-12.374.092v-5.06h12.466Zm52.256-5.014V180.6l-12.88-.092,0.736-.414a14.137,14.137,0,0,0-2.622-3.151,9.64,9.64,0,0,0-3.22-1.955l-2.944,2.116a11.356,11.356,0,0,1,5.014,3.5H151.556v3.358h9.476a16.275,16.275,0,0,1-4.071,5.612,19.582,19.582,0,0,1-5.543,3.634l2.3,3.082q3.266-.644,9.177-1.38t11.339-1.2a13.278,13.278,0,0,1,1.656,2.9l3.082-2.07a17.616,17.616,0,0,0-3.335-4.669A19.823,19.823,0,0,0,171.2,186.4l-3.4,2.3a11.367,11.367,0,0,1,3.956,2.07l-12.65,1.242a15.005,15.005,0,0,0,2.76-2.875,37.222,37.222,0,0,0,3.036-5.175h14.352Zm-1.38,21.528a33.443,33.443,0,0,1-.3,3.565,7.207,7.207,0,0,1-.575,2.369,0.98,0.98,0,0,1-.851.483,2.316,2.316,0,0,1-1.2-.069,1.5,1.5,0,0,1-.69-0.46,0.935,0.935,0,0,1-.161-0.69V196.792h-3.5v14.444a3.381,3.381,0,0,0,1.587,3.128q1.587,0.966,4.991.644a3.045,3.045,0,0,0,1.863-.92,4.438,4.438,0,0,0,1.173-1.84,24.269,24.269,0,0,0,.966-5.566Zm-26.5-22.264q-3.45-4.6-7.314-5.612l-2.576,2.484a11.229,11.229,0,0,1,7.176,5.658Zm14.674,32.8V196.792h-3.5V216.02h3.5ZM149.67,194.17a17.835,17.835,0,0,0-3.45-4.347,12.233,12.233,0,0,0-4.416-2.691l-2.668,2.53a13.664,13.664,0,0,1,4.577,2.6,12.163,12.163,0,0,1,3.105,4.071Zm5.8,2.76q-0.047.783,0,3.7a25.627,25.627,0,0,1-.345,5.014,10.186,10.186,0,0,1-1.518,3.8,9.865,9.865,0,0,1-2.737,2.783,15.821,15.821,0,0,1-3.358,1.725l2.53,2.99a15.316,15.316,0,0,0,4.3-2.645,12.931,12.931,0,0,0,2.53-3.059,13.959,13.959,0,0,0,1.38-3.381,19.112,19.112,0,0,0,.6-3.818q0.114-2,.092-4.37t-0.023-2.737h-3.45Zm-7.682.92a31.976,31.976,0,0,1-2.622,8.993,20.8,20.8,0,0,1-5.2,7.015L143,216.112q0.828-.828,1.978-2.208a23.647,23.647,0,0,0,2.507-3.933,27.769,27.769,0,0,0,2.185-5.474q0.828-2.921,1.288-5.313Zm71.852-8.418V177.426H192.772v12.006h26.864Zm5.336,4.048v-2.99H187.528v2.99h37.444Zm1.886,21.62v-3.358H208v-1.334h14.9v-2.99H208v-1.2h13.156V194.538H191.438v11.684H204.5v1.2h-14.72v2.99H204.5v1.334H185.78V215.1h41.078ZM216.14,182.072H196.268V180.6H216.14v1.472Zm0,4.37H196.268v-1.7H216.14v1.7Zm1.518,12.512h-9.614L208,197.528h9.66v1.426Zm0,4.278H208v-1.7h9.66v1.7Zm-13.11-5.7-0.046,1.426h-9.568v-1.426h9.614Zm-0.046,5.7h-9.568l-0.046-1.7H204.5v1.7ZM283.99,184.05v-3.312H272.674v-5.244h-3.5v5.244h-9.614v-5.244h-3.5v5.244H244.982l-0.092,3.312h11.178v5.336h3.5V184.05h9.614v5.336h3.5V184.05H283.99Zm-36.478,6.164v3.312h11.454v22.816h3.5V193.526H275.3q-0.093.921-.23,4.071t-0.368,4.876a27.909,27.909,0,0,1-.552,3.013,1.12,1.12,0,0,1-.874.644,37.273,37.273,0,0,1-4.968-1.288l0.966,3.818q5.059,1.1,6.532.23a4.2,4.2,0,0,0,1.288-1.311,4.437,4.437,0,0,0,.69-1.679q0.368-2.667.667-7.383t0.391-8.3H247.512Zm83.03-3.312q-6.118-6.807-12.236-8.878l-2.714,2.392q6.44,2.255,11.96,8.924Zm-18.584.322v-11.5h-3.5v11.5h3.5Zm-8.694-9.338a33.8,33.8,0,0,1-12.052,8.786l2.852,2.668a34.445,34.445,0,0,0,11.638-9.108Zm21.16,39.146v-24.1l-14.122-.092a35.813,35.813,0,0,0,10.35-6.946l-2.576-2.346a27.95,27.95,0,0,1-5.014,4.094,29.621,29.621,0,0,1-5.819,2.806,48.17,48.17,0,0,1-7.337,1.932,99.218,99.218,0,0,1-10.258,1.1l1.794,3.5q5.059-.414,8.326-0.966v21.022h3.5v-2.714h17.664v2.714h3.5Zm-3.5-18.17H303.264v-2.576h17.664v2.576Zm0,5.98H303.264v-2.806h17.664v2.806Zm0,6.118H303.264v-2.944h17.664v2.944Zm57.408,2.116q-4.278-.092-8.993-0.621a77.812,77.812,0,0,1-8.3-1.334,22.1,22.1,0,0,1-5.612-1.909,13.735,13.735,0,0,0,1.932-3.473,17.524,17.524,0,0,0,1.058-4.071H371.85V184.6H359.108v-3.266h17.756v-3.358H337.626v3.358h17.986V184.6h-13.2v17.066h12.512a14.644,14.644,0,0,1-.943,3.036,12.633,12.633,0,0,1-1.587,2.76,54.233,54.233,0,0,1-6.716-5.244l-2.668,1.794a31.356,31.356,0,0,0,6.67,5.888,39.843,39.843,0,0,1-6.923,2.6,62.14,62.14,0,0,1-6.463,1.449l2.07,3.082a32.326,32.326,0,0,0,13.2-4.37l1.426-.966a42.93,42.93,0,0,0,8.786,3.059,83.589,83.589,0,0,0,14.4,1.863Zm-9.8-21.666h-9.43v-3.45h9.43v3.45Zm0,6.9h-9.752l0.23-3.542h9.522v3.542Zm-12.926-6.9h-9.706v-3.45h9.706v3.45Zm-0.046,3.358-0.184,3.542h-9.476v-3.542h9.66Zm66.424-.322H409.57a22.054,22.054,0,0,0,2.438-3.312l-2.714-1.472a38.476,38.476,0,0,0,6.486-6.532v-3.082H402.808a33.637,33.637,0,0,0,3.358-3.68l-3.22-1.7q-6.3,7.683-17.756,11.132l3.036,2.852a49.054,49.054,0,0,0,10.074-5.106h12.65a43.5,43.5,0,0,1-4.278,3.588,40.7,40.7,0,0,1-4.876,2.944,18.328,18.328,0,0,0-2.461-2.553,14.668,14.668,0,0,0-2.691-2l-3.22,2.07a16.056,16.056,0,0,1,5.152,3.864,52.611,52.611,0,0,1-6.417,2.116q-4.3,1.2-7.935,2.024l2.208,3.082a92.485,92.485,0,0,0,13.524-4.117,56.054,56.054,0,0,0,8.6-4.255,32.386,32.386,0,0,1-8.211,7.429,58.515,58.515,0,0,1-11.569,5.543l2.668,2.944a84.785,84.785,0,0,0,9.315-4.554,36.743,36.743,0,0,0,5.221-3.726h11.776a19.411,19.411,0,0,1-2.139,2.967,19.915,19.915,0,0,1-3.358,3.059,37.384,37.384,0,0,1-4.485,2.806,14.361,14.361,0,0,0-4.738-5.014l-3.312,1.886a16.467,16.467,0,0,1,5.06,4.6q-7.407,3.22-20.608,5.428l2.3,3.174a124.288,124.288,0,0,0,13.386-3.036,56.976,56.976,0,0,0,8.119-3.2,34.8,34.8,0,0,0,6.624-4.186,27.1,27.1,0,0,0,4.646-4.669,31.753,31.753,0,0,0,2.737-4.232v-3.082Z"/>
</svg>
