<svg xmlns="http://www.w3.org/2000/svg" width="728" height="90" viewBox="0 0 728 90">
  <defs>
    <style>
      .cls-1 {
        fill: #58595b;
        fill-rule: evenodd;
      }
    </style>
  </defs>
  <path id="_On_a_2-year_term._Conditions_apply._" data-name="*On a 2-year term. Conditions apply. " class="cls-1" d="M328.8,76.414a8.208,8.208,0,0,0-.655.738l0.466,0.332a6.359,6.359,0,0,0,.513-0.84,9.622,9.622,0,0,0,.541.84l0.474-.332a6.592,6.592,0,0,0-.679-0.738,4.958,4.958,0,0,0,.983-0.219l-0.182-.555a6.969,6.969,0,0,0-.932.375,9.575,9.575,0,0,0,.091-0.969h-0.572c0,0.177.029,0.5,0.079,0.973a6.151,6.151,0,0,0-.912-0.379l-0.182.555c0.305,0.081.628,0.154,0.967,0.219h0Zm2.521,3.1a2.521,2.521,0,0,0,.975,1.066,2.759,2.759,0,0,0,1.461.391,2.9,2.9,0,0,0,1.406-.353,2.414,2.414,0,0,0,1.007-1.041,3.343,3.343,0,0,0,.355-1.559,3.4,3.4,0,0,0-.337-1.537,2.493,2.493,0,0,0-.982-1.057,2.792,2.792,0,0,0-1.445-.379,2.646,2.646,0,0,0-2,.807,3.092,3.092,0,0,0-.774,2.233A3.2,3.2,0,0,0,331.322,79.512Zm1.044-3.264a1.971,1.971,0,0,1,1.4-.553,1.912,1.912,0,0,1,1.033.287,1.831,1.831,0,0,1,.7.809,2.911,2.911,0,0,1,.238,1.221,2.418,2.418,0,0,1-.558,1.707,1.978,1.978,0,0,1-2.835.006,2.28,2.28,0,0,1-.563-1.631A2.456,2.456,0,0,1,332.366,76.248Zm5.753,4.623V78.606a1.4,1.4,0,0,1,.33-1.082,1.159,1.159,0,0,1,.784-0.285,0.941,0.941,0,0,1,.5.127,0.682,0.682,0,0,1,.3.34,1.887,1.887,0,0,1,.082.643v2.523h0.711V78.321a4.033,4.033,0,0,0-.039-0.684,1.352,1.352,0,0,0-.221-0.519,1.1,1.1,0,0,0-.476-0.353,1.768,1.768,0,0,0-.7-0.135,1.513,1.513,0,0,0-1.335.684v-0.59h-0.639v4.148h0.71Zm8.831,0h0.742a1.557,1.557,0,0,1-.179-0.5,9.654,9.654,0,0,1-.046-1.24V78.2a4.015,4.015,0,0,0-.035-0.648,1.1,1.1,0,0,0-.221-0.478,1.156,1.156,0,0,0-.494-0.315,2.548,2.548,0,0,0-.873-0.125,2.829,2.829,0,0,0-.951.147,1.369,1.369,0,0,0-.628.418,1.69,1.69,0,0,0-.312.713l0.7,0.094A1.055,1.055,0,0,1,345,77.385a1.265,1.265,0,0,1,.74-0.174,1.2,1.2,0,0,1,.809.238,0.769,0.769,0,0,1,.2.606c0,0.026,0,.087,0,0.184a6.556,6.556,0,0,1-1.268.242,5.174,5.174,0,0,0-.632.106,1.749,1.749,0,0,0-.511.23,1.152,1.152,0,0,0-.367.4,1.13,1.13,0,0,0-.14.557,1.1,1.1,0,0,0,.371.853,1.534,1.534,0,0,0,1.062.334,2.22,2.22,0,0,0,.784-0.137,2.652,2.652,0,0,0,.76-0.469,1.471,1.471,0,0,0,.142.512h0Zm-0.2-1.824a1.686,1.686,0,0,1-.115.7,1.1,1.1,0,0,1-.47.486,1.475,1.475,0,0,1-.73.178,0.933,0.933,0,0,1-.63-0.187,0.616,0.616,0,0,1-.116-0.8,0.612,0.612,0,0,1,.28-0.229,2.718,2.718,0,0,1,.62-0.141,5.26,5.26,0,0,0,1.161-.266v0.258Zm4.685,1.148a2.222,2.222,0,0,1,.3-0.381q0.182-.189.821-0.721a11.569,11.569,0,0,0,1.1-1.008,2.616,2.616,0,0,0,.471-0.7,1.7,1.7,0,0,0,.143-0.676,1.493,1.493,0,0,0-.486-1.133,1.849,1.849,0,0,0-1.319-.457,1.942,1.942,0,0,0-1.315.424,1.772,1.772,0,0,0-.564,1.233l0.73,0.074a1.149,1.149,0,0,1,.312-0.844,1.116,1.116,0,0,1,.821-0.3,1.1,1.1,0,0,1,.788.287,0.936,0.936,0,0,1,.3.7,1.438,1.438,0,0,1-.332.846,7.828,7.828,0,0,1-1.275,1.213,7.364,7.364,0,0,0-.93.867,2.6,2.6,0,0,0-.468.762,1.247,1.247,0,0,0-.083.488h3.826V80.2h-2.838Zm5.457-1.043V78.446h-2.184v0.707h2.184Zm1.074,3.4a1.035,1.035,0,0,0,.585-0.162,1.391,1.391,0,0,0,.434-0.51,8.158,8.158,0,0,0,.4-0.941l1.6-4.219h-0.711l-0.9,2.418a9.291,9.291,0,0,0-.292.945q-0.135-.5-0.3-0.961l-0.873-2.4h-0.766l1.591,4.156q-0.043.113-.063,0.172a3.405,3.405,0,0,1-.217.523,0.637,0.637,0,0,1-.233.219,0.788,0.788,0,0,1-.379.078,1.608,1.608,0,0,1-.407-0.062l0.079,0.66a1.441,1.441,0,0,0,.458.086h0Zm5.837-2.371a1.1,1.1,0,0,1-.668.2,1.168,1.168,0,0,1-.876-0.363,1.584,1.584,0,0,1-.391-1.047h3.127c0-.083,0-0.146,0-0.187a2.237,2.237,0,0,0-.533-1.594,1.8,1.8,0,0,0-1.374-.566,1.857,1.857,0,0,0-1.414.578,2.278,2.278,0,0,0-.544,1.625,2.177,2.177,0,0,0,.538,1.572,1.931,1.931,0,0,0,1.459.561,1.953,1.953,0,0,0,1.2-.352,1.773,1.773,0,0,0,.643-0.988l-0.734-.09A1.35,1.35,0,0,1,363.8,80.184Zm-1.526-2.652a1.133,1.133,0,0,1,.823-0.324,1.093,1.093,0,0,1,.88.406,1.4,1.4,0,0,1,.269.785h-2.342A1.276,1.276,0,0,1,362.276,77.532Zm6.374,3.34h0.742a1.536,1.536,0,0,1-.18-0.5,9.935,9.935,0,0,1-.045-1.24V78.2a3.867,3.867,0,0,0-.036-0.648,1.1,1.1,0,0,0-.221-0.478,1.152,1.152,0,0,0-.493-0.315,2.548,2.548,0,0,0-.873-0.125,2.821,2.821,0,0,0-.951.147,1.363,1.363,0,0,0-.628.418,1.69,1.69,0,0,0-.312.713L366.348,78a1.059,1.059,0,0,1,.353-0.615,1.265,1.265,0,0,1,.74-0.174,1.2,1.2,0,0,1,.81.238,0.772,0.772,0,0,1,.2.606c0,0.026,0,.087,0,0.184a6.543,6.543,0,0,1-1.267.242,5.139,5.139,0,0,0-.632.106,1.738,1.738,0,0,0-.511.23,1.143,1.143,0,0,0-.367.4,1.12,1.12,0,0,0-.141.557,1.1,1.1,0,0,0,.372.853,1.534,1.534,0,0,0,1.062.334,2.21,2.21,0,0,0,.783-0.137,2.639,2.639,0,0,0,.76-0.469,1.493,1.493,0,0,0,.143.512h0Zm-0.2-1.824a1.689,1.689,0,0,1-.114.7,1.1,1.1,0,0,1-.47.486,1.479,1.479,0,0,1-.731.178,0.93,0.93,0,0,1-.629-0.187,0.615,0.615,0,0,1-.117-0.8,0.615,0.615,0,0,1,.281-0.229,2.707,2.707,0,0,1,.619-0.141,5.26,5.26,0,0,0,1.161-.266v0.258Zm2.415,1.824V78.7a2.711,2.711,0,0,1,.118-0.82,0.752,0.752,0,0,1,.265-0.385,0.682,0.682,0,0,1,.418-0.139,1.028,1.028,0,0,1,.522.152l0.244-.652a1.4,1.4,0,0,0-.73-0.227,0.794,0.794,0,0,0-.456.141,1.718,1.718,0,0,0-.452.582V76.723h-0.64v4.148h0.711Zm5.395-.6a0.473,0.473,0,0,1-.242-0.051,0.293,0.293,0,0,1-.123-0.137,1.219,1.219,0,0,1-.037-0.387V77.27h0.714V76.723h-0.714V75.274l-0.707.422v1.027h-0.521V77.27h0.521v2.387a2.489,2.489,0,0,0,.087.83,0.682,0.682,0,0,0,.3.318,1.226,1.226,0,0,0,.6.121,2.667,2.667,0,0,0,.537-0.062l-0.1-.621a2.327,2.327,0,0,1-.312.027h0Zm3.28-.086a1.093,1.093,0,0,1-.667.2,1.172,1.172,0,0,1-.877-0.363,1.584,1.584,0,0,1-.39-1.047h3.127c0-.083,0-0.146,0-0.187A2.237,2.237,0,0,0,380.2,77.2a1.8,1.8,0,0,0-1.374-.566,1.854,1.854,0,0,0-1.414.578,2.278,2.278,0,0,0-.545,1.625,2.177,2.177,0,0,0,.539,1.572,2.2,2.2,0,0,0,2.659.209,1.769,1.769,0,0,0,.644-0.988l-0.735-.09A1.343,1.343,0,0,1,379.538,80.184Zm-1.526-2.652a1.136,1.136,0,0,1,.823-0.324,1.1,1.1,0,0,1,.881.406,1.4,1.4,0,0,1,.268.785h-2.341A1.28,1.28,0,0,1,378.012,77.532Zm4.2,3.34V78.7a2.711,2.711,0,0,1,.118-0.82,0.752,0.752,0,0,1,.265-0.385,0.682,0.682,0,0,1,.418-0.139,1.028,1.028,0,0,1,.522.152l0.244-.652a1.4,1.4,0,0,0-.73-0.227,0.794,0.794,0,0,0-.456.141,1.718,1.718,0,0,0-.452.582V76.723H381.5v4.148h0.711Zm2.723,0V78.719a2.529,2.529,0,0,1,.115-0.867,0.885,0.885,0,0,1,.369-0.457,1.042,1.042,0,0,1,.555-0.156,0.66,0.66,0,0,1,.568.234,1.175,1.175,0,0,1,.174.7v2.7h0.711v-2.41a1.272,1.272,0,0,1,.292-0.932,1,1,0,0,1,.734-0.291,0.792,0.792,0,0,1,.427.113,0.589,0.589,0,0,1,.25.3,1.907,1.907,0,0,1,.069.607v2.613h0.707V78.024a1.454,1.454,0,0,0-.335-1.053,1.286,1.286,0,0,0-.96-0.342,1.509,1.509,0,0,0-1.3.727,1.032,1.032,0,0,0-.42-0.535,1.394,1.394,0,0,0-.764-0.191,1.482,1.482,0,0,0-1.272.676V76.723h-0.636v4.148h0.711Zm6.879,0v-0.8h-0.809v0.8h0.809Zm7.019-.918a1.66,1.66,0,0,1-1.09.367,1.889,1.889,0,0,1-.983-0.269,1.586,1.586,0,0,1-.669-0.814,3.449,3.449,0,0,1-.216-1.275,3.39,3.39,0,0,1,.182-1.1,1.671,1.671,0,0,1,.63-0.85A1.883,1.883,0,0,1,397.8,75.7a1.572,1.572,0,0,1,.964.285,1.768,1.768,0,0,1,.584.91l0.754-.176a2.268,2.268,0,0,0-.825-1.231,2.392,2.392,0,0,0-1.461-.437,2.9,2.9,0,0,0-1.4.346,2.352,2.352,0,0,0-.983,1.012,3.349,3.349,0,0,0-.345,1.561,3.859,3.859,0,0,0,.306,1.535,2.358,2.358,0,0,0,.892,1.092,2.771,2.771,0,0,0,1.522.377,2.4,2.4,0,0,0,1.53-.49,2.55,2.55,0,0,0,.867-1.424l-0.766-.191A1.874,1.874,0,0,1,398.835,79.953Zm2.486,0.453a1.9,1.9,0,0,0,1.423.559,2.079,2.079,0,0,0,1.013-.254A1.712,1.712,0,0,0,404.464,80a2.732,2.732,0,0,0,.242-1.26,2.122,2.122,0,0,0-.548-1.549,1.892,1.892,0,0,0-1.414-.561,1.965,1.965,0,0,0-1.319.461,2.128,2.128,0,0,0-.647,1.707A2.216,2.216,0,0,0,401.321,80.407Zm0.539-2.8a1.18,1.18,0,0,1,1.763,0,1.7,1.7,0,0,1,.353,1.166,1.8,1.8,0,0,1-.351,1.215,1.179,1.179,0,0,1-1.765,0A2.2,2.2,0,0,1,401.86,77.606Zm4.314,3.266V78.606a1.4,1.4,0,0,1,.33-1.082,1.159,1.159,0,0,1,.784-0.285,0.944,0.944,0,0,1,.5.127,0.675,0.675,0,0,1,.294.34,1.858,1.858,0,0,1,.083.643v2.523h0.711V78.321a3.9,3.9,0,0,0-.04-0.684,1.337,1.337,0,0,0-.221-0.519,1.1,1.1,0,0,0-.475-0.353,1.771,1.771,0,0,0-.7-0.135,1.513,1.513,0,0,0-1.335.684v-0.59h-0.64v4.148h0.711Zm7.074,0V75.145h-0.706V77.2a1.4,1.4,0,0,0-1.157-.57,1.692,1.692,0,0,0-.936.27,1.639,1.639,0,0,0-.628.775,2.931,2.931,0,0,0-.209,1.127,2.615,2.615,0,0,0,.231,1.127,1.8,1.8,0,0,0,.651.764,1.66,1.66,0,0,0,.922.274,1.308,1.308,0,0,0,1.173-.617v0.523h0.659Zm-2.588-3.277a0.989,0.989,0,0,1,.792-0.383,1.023,1.023,0,0,1,.817.4,1.936,1.936,0,0,1,.332,1.25,1.726,1.726,0,0,1-.326,1.15,1.009,1.009,0,0,1-.792.377,1.026,1.026,0,0,1-.8-0.394,1.784,1.784,0,0,1-.34-1.191A1.874,1.874,0,0,1,410.66,77.594Zm4.284-1.641V75.145h-0.711v0.808h0.711Zm0,4.918V76.723h-0.711v4.148h0.711Zm2.21-.6a0.48,0.48,0,0,1-.243-0.051,0.29,0.29,0,0,1-.122-0.137,1.208,1.208,0,0,1-.038-0.387V77.27h0.715V76.723h-0.715V75.274l-0.707.422v1.027h-0.521V77.27h0.521v2.387a2.489,2.489,0,0,0,.087.83,0.682,0.682,0,0,0,.3.318,1.226,1.226,0,0,0,.6.121,2.667,2.667,0,0,0,.537-0.062l-0.1-.621a2.327,2.327,0,0,1-.312.027h0Zm1.655-4.317V75.145H418.1v0.808h0.711Zm0,4.918V76.723H418.1v4.148h0.711Zm1.3-.465a1.9,1.9,0,0,0,1.424.559,2.079,2.079,0,0,0,1.013-.254A1.71,1.71,0,0,0,423.248,80a2.718,2.718,0,0,0,.243-1.26,2.119,2.119,0,0,0-.549-1.549,1.892,1.892,0,0,0-1.413-.561,1.965,1.965,0,0,0-1.319.461,2.125,2.125,0,0,0-.648,1.707A2.216,2.216,0,0,0,420.105,80.407Zm0.539-2.8a1.18,1.18,0,0,1,1.763,0,1.7,1.7,0,0,1,.354,1.166,1.8,1.8,0,0,1-.352,1.215,1.179,1.179,0,0,1-1.765,0A2.2,2.2,0,0,1,420.644,77.606Zm4.315,3.266V78.606a1.4,1.4,0,0,1,.33-1.082,1.157,1.157,0,0,1,.783-0.285,0.945,0.945,0,0,1,.5.127,0.675,0.675,0,0,1,.294.34,1.882,1.882,0,0,1,.083.643v2.523h0.711V78.321a4,4,0,0,0-.04-0.684,1.352,1.352,0,0,0-.221-0.519,1.093,1.093,0,0,0-.476-0.353,1.768,1.768,0,0,0-.7-0.135,1.512,1.512,0,0,0-1.334.684v-0.59h-0.64v4.148h0.711Zm3.93-.242a1.987,1.987,0,0,0,1.246.336,2.193,2.193,0,0,0,.884-0.17,1.333,1.333,0,0,0,.6-0.48,1.167,1.167,0,0,0,.208-0.662,1.024,1.024,0,0,0-.17-0.6,1.063,1.063,0,0,0-.468-0.369,8.8,8.8,0,0,0-1.052-.326q-0.522-.141-0.628-0.18a0.617,0.617,0,0,1-.272-0.187,0.385,0.385,0,0,1-.087-0.246,0.463,0.463,0,0,1,.209-0.375,1.17,1.17,0,0,1,.7-0.16,1.01,1.01,0,0,1,.641.18,0.75,0.75,0,0,1,.275.5l0.695-.094a1.488,1.488,0,0,0-.245-0.643,1.176,1.176,0,0,0-.551-0.381,2.447,2.447,0,0,0-.866-0.141,2.164,2.164,0,0,0-.614.084,1.483,1.483,0,0,0-.453.205,1.15,1.15,0,0,0-.349.393,1.054,1.054,0,0,0-.128.514,1.023,1.023,0,0,0,.614.951,6.638,6.638,0,0,0,1.084.338,3.11,3.11,0,0,1,.726.238,0.425,0.425,0,0,1,.209.375,0.588,0.588,0,0,1-.237.463,1.119,1.119,0,0,1-.726.2,1.157,1.157,0,0,1-.756-0.223,0.968,0.968,0,0,1-.33-0.641l-0.7.109A1.556,1.556,0,0,0,428.889,80.629Zm8.825,0.242h0.742a1.583,1.583,0,0,1-.18-0.5,9.935,9.935,0,0,1-.045-1.24V78.2a4.015,4.015,0,0,0-.035-0.648,1.1,1.1,0,0,0-.222-0.478,1.146,1.146,0,0,0-.493-0.315,2.548,2.548,0,0,0-.873-0.125,2.825,2.825,0,0,0-.951.147,1.369,1.369,0,0,0-.628.418,1.69,1.69,0,0,0-.312.713L435.412,78a1.059,1.059,0,0,1,.353-0.615,1.268,1.268,0,0,1,.741-0.174,1.2,1.2,0,0,1,.809.238,0.772,0.772,0,0,1,.2.606c0,0.026,0,.087,0,0.184a6.543,6.543,0,0,1-1.267.242,5.139,5.139,0,0,0-.632.106,1.738,1.738,0,0,0-.511.23,1.152,1.152,0,0,0-.367.4,1.12,1.12,0,0,0-.14.557,1.1,1.1,0,0,0,.371.853,1.534,1.534,0,0,0,1.062.334,2.22,2.22,0,0,0,.784-0.137,2.666,2.666,0,0,0,.76-0.469,1.471,1.471,0,0,0,.142.512h0Zm-0.2-1.824a1.689,1.689,0,0,1-.114.7,1.1,1.1,0,0,1-.47.486,1.478,1.478,0,0,1-.73.178,0.931,0.931,0,0,1-.63-0.187,0.594,0.594,0,0,1-.215-0.469,0.6,0.6,0,0,1,.1-0.334,0.62,0.62,0,0,1,.281-0.229,2.7,2.7,0,0,1,.62-0.141,5.249,5.249,0,0,0,1.16-.266v0.258Zm2.419,3.414v-2.02a1.449,1.449,0,0,0,.464.375,1.349,1.349,0,0,0,.638.149,1.756,1.756,0,0,0,1.6-1.053,2.747,2.747,0,0,0,.231-1.147,2.782,2.782,0,0,0-.21-1.092,1.635,1.635,0,0,0-1.567-1.045,1.434,1.434,0,0,0-.7.158,1.585,1.585,0,0,0-.517.475V76.723H439.22v5.738h0.711Zm0.282-4.861a1.028,1.028,0,0,1,.8-0.42,1,1,0,0,1,.788.394,1.824,1.824,0,0,1,.329,1.188,1.867,1.867,0,0,1-.337,1.229,1.032,1.032,0,0,1-.812.4A1.008,1.008,0,0,1,440.192,80a1.788,1.788,0,0,1-.328-1.184A1.865,1.865,0,0,1,440.213,77.6Zm4.127,4.861v-2.02a1.449,1.449,0,0,0,.464.375,1.349,1.349,0,0,0,.638.149,1.756,1.756,0,0,0,1.6-1.053,2.747,2.747,0,0,0,.231-1.147,2.8,2.8,0,0,0-.209-1.092,1.689,1.689,0,0,0-.62-0.771,1.672,1.672,0,0,0-.948-0.274,1.434,1.434,0,0,0-.7.158,1.6,1.6,0,0,0-.517.475V76.723h-0.648v5.738h0.711Zm0.282-4.861a1.028,1.028,0,0,1,.8-0.42,1,1,0,0,1,.788.394,1.824,1.824,0,0,1,.329,1.188,1.867,1.867,0,0,1-.337,1.229,1.032,1.032,0,0,1-.812.4A1.008,1.008,0,0,1,444.6,80a1.788,1.788,0,0,1-.328-1.184A1.865,1.865,0,0,1,444.622,77.6Zm4.167-2.455h-0.711v4.512c0,0.185,0,.355.014,0.51a0.928,0.928,0,0,0,.106.4,0.639,0.639,0,0,0,.292.264,1.37,1.37,0,0,0,.575.1,2.082,2.082,0,0,0,.243-0.016c0.088-.01.185-0.026,0.29-0.047l-0.1-.625-0.166.022a1.21,1.21,0,0,1-.15.01,0.591,0.591,0,0,1-.219-0.033,0.235,0.235,0,0,1-.12-0.1,0.428,0.428,0,0,1-.05-0.178q-0.009-.109-0.009-0.262V75.145Zm1.575,7.41a1.037,1.037,0,0,0,.585-0.162,1.391,1.391,0,0,0,.434-0.51,8.158,8.158,0,0,0,.4-0.941l1.6-4.219h-0.711l-0.9,2.418a9.291,9.291,0,0,0-.292.945q-0.135-.5-0.3-0.961l-0.873-2.4h-0.766l1.591,4.156q-0.043.113-.063,0.172a3.405,3.405,0,0,1-.217.523,0.644,0.644,0,0,1-.233.219,0.788,0.788,0,0,1-.379.078,1.608,1.608,0,0,1-.407-0.062l0.079,0.66a1.441,1.441,0,0,0,.458.086h0Zm4.049-1.684v-0.8H453.6v0.8h0.81Z"/>
</svg>
