<svg xmlns="http://www.w3.org/2000/svg" width="728" height="90" viewBox="0 0 728 90">
  <defs>
    <style>
      .cls-1 {
        fill: #4b296e;
        fill-rule: evenodd;
      }
    </style>
  </defs>
  <path id="fr2" class="cls-1" d="M225.733,69.679a0.463,0.463,0,0,1-.549-0.489v-5.63c0-1.7-1-2.932-3.8-2.932-2.959,0-4,1.388-4.115,3.343h1.567c0.1-1.505.823-1.994,2.548-1.994s2.273,0.528,2.273,1.583c0,0.9-.568,1.271-1.587,1.388l-1.45.156c-2.783.293-3.743,1.544-3.743,3.127,0,1.9,1.371,2.952,3.566,2.952a3.71,3.71,0,0,0,3.293-1.622,1.449,1.449,0,0,0,1.7,1.447,5.975,5.975,0,0,0,.862-0.059v-1.27h-0.568Zm-5.213.176c-1.392,0-2.019-.665-2.019-1.662,0-.977.51-1.6,2.352-1.818l1.47-.176a2.609,2.609,0,0,0,1.332-.43v1.192A2.9,2.9,0,0,1,220.52,69.855Zm13.817-8.992v5.708a2.874,2.874,0,0,1-2.783,3.206,2.025,2.025,0,0,1-2.312-2.248V60.864h-1.568v6.822a3.22,3.22,0,0,0,3.567,3.5,3.726,3.726,0,0,0,3.174-1.74V70.95h1.49V60.864h-1.568ZM243,60.707a3.532,3.532,0,0,0-3.253,1.935V60.864h-1.489V70.95h1.567V65.2c0-1.955,1.294-2.971,3.312-2.971h0.392V60.727C243.314,60.707,243.157,60.707,243,60.707Zm10.877-.078a3.976,3.976,0,0,0-3.468,1.8V60.864h-1.49V74.781h1.568V69.5a3.976,3.976,0,0,0,3.39,1.681c2.842,0,4.7-2.052,4.7-5.278S256.719,60.629,253.877,60.629Zm-0.2,9.148c-1.96,0-3.254-1.427-3.254-3.87s1.294-3.87,3.254-3.87,3.253,1.349,3.253,3.792S255.641,69.777,253.682,69.777Zm14.836-.1a0.463,0.463,0,0,1-.549-0.489v-5.63c0-1.7-1-2.932-3.8-2.932-2.959,0-4,1.388-4.115,3.343h1.568c0.1-1.505.823-1.994,2.547-1.994s2.274,0.528,2.274,1.583c0,0.9-.569,1.271-1.588,1.388l-1.45.156c-2.783.293-3.743,1.544-3.743,3.127,0,1.9,1.372,2.952,3.567,2.952a3.708,3.708,0,0,0,3.292-1.622,1.449,1.449,0,0,0,1.7,1.447,5.965,5.965,0,0,0,.862-0.059v-1.27h-0.568Zm-5.213.176c-1.391,0-2.018-.665-2.018-1.662,0-.977.509-1.6,2.351-1.818l1.47-.176a2.616,2.616,0,0,0,1.333-.43v1.192A2.9,2.9,0,0,1,263.305,69.855Zm15.522-.176a0.463,0.463,0,0,1-.548-0.489v-5.63c0-1.7-1-2.932-3.8-2.932-2.96,0-4,1.388-4.116,3.343h1.568c0.1-1.505.823-1.994,2.548-1.994s2.273,0.528,2.273,1.583c0,0.9-.568,1.271-1.587,1.388l-1.451.156c-2.783.293-3.743,1.544-3.743,3.127,0,1.9,1.372,2.952,3.567,2.952a3.708,3.708,0,0,0,3.292-1.622,1.449,1.449,0,0,0,1.705,1.447,5.989,5.989,0,0,0,.863-0.059v-1.27h-0.569Zm-5.213.176c-1.391,0-2.018-.665-2.018-1.662,0-.977.509-1.6,2.351-1.818l1.47-.176a2.616,2.616,0,0,0,1.333-.43v1.192A2.9,2.9,0,0,1,273.614,69.855Zm13.073-8.992-1.431,4.183c-0.509,1.466-1,2.932-1.45,4.379-0.47-1.446-.941-2.893-1.45-4.359l-1.431-4.2H279.2L283,71.282c-0.118.313-.236,0.645-0.353,0.938a1.772,1.772,0,0,1-1.842,1.251h-0.921v1.31a7.832,7.832,0,0,0,.94.059,3.056,3.056,0,0,0,3.293-2.307l4.272-11.669h-1.7ZM297.9,65.907c0-2.893-1.627-5.278-4.645-5.278-2.8,0-4.664,2.111-4.664,5.278,0,3.264,1.94,5.278,4.7,5.278a4.216,4.216,0,0,0,4.351-3.3h-1.627a2.6,2.6,0,0,1-2.685,1.877c-1.763,0-2.959-1.036-3.116-3.3H297.9V65.907Zm-4.645-3.851a2.961,2.961,0,0,1,2.959,2.991h-5.958C290.509,63.053,291.666,62.056,293.253,62.056Zm7.291-2.619a1.056,1.056,0,1,0-1.058-1.056A1.066,1.066,0,0,0,300.544,59.437ZM299.76,70.95h1.568V60.864H299.76V70.95Zm8.584-10.321a3.726,3.726,0,0,0-3.174,1.74V60.864h-1.49V70.95h1.568V65.242a2.874,2.874,0,0,1,2.783-3.206,2.025,2.025,0,0,1,2.312,2.248V70.95h1.568V64.128A3.22,3.22,0,0,0,308.344,60.629Zm18.463,5.278c0-2.893-1.627-5.278-4.645-5.278-2.8,0-4.664,2.111-4.664,5.278,0,3.264,1.94,5.278,4.7,5.278a4.216,4.216,0,0,0,4.351-3.3h-1.627a2.6,2.6,0,0,1-2.685,1.877c-1.763,0-2.959-1.036-3.116-3.3h7.683V65.907Zm-4.645-3.851a2.961,2.961,0,0,1,2.959,2.991h-5.958C319.418,63.053,320.575,62.056,322.162,62.056ZM335.45,70.95h1.823L333.157,64.5,337,60.864h-2.077l-4.684,4.515V57.032h-1.568V70.95h1.568V67.216l1.8-1.681ZM352.6,59.4V57.032h-9.857V70.95h2.645v-6h6.566V62.682h-6.566V59.4H352.6ZM362.615,70.95h3.018l-3.7-5.532a4.029,4.029,0,0,0,3.253-4.1c0-2.541-1.8-4.281-4.939-4.281h-6.212V70.95h2.646V65.731h2.488ZM356.677,59.2h3.429a2.208,2.208,0,1,1,0,4.4h-3.429V59.2Zm20.559,0.2V57.032H366.947V70.95H377.2V68.585h-7.6V64.949h6.918V62.682h-6.918V59.4h7.643Zm11.916,0V57.032H378.863V70.95h10.25V68.585h-7.6V64.949h6.918V62.682h-6.918V59.4h7.643Zm11,3.343V60.864h-2V57.932H395.7v2.932h-1.568V62.74H395.7v5.708c0,1.857,1.019,2.58,3.155,2.58,0.392,0,.843-0.039,1.293-0.078V69.073h-0.842c-0.823,0-1.156-.215-1.156-0.88V62.74h2Zm7-2.111a3.71,3.71,0,0,0-3.077,1.583v-5.18H401.6V70.95h2.469V65.3a2.273,2.273,0,0,1,2.254-2.541,1.687,1.687,0,0,1,1.9,1.916V70.95h2.469V64.265A3.289,3.289,0,0,0,407.144,60.629Zm15.091,5.454c0-3.206-1.9-5.454-5-5.454-3,0-5,2.111-5,5.278,0,3.225,2.057,5.278,5.036,5.278a4.515,4.515,0,0,0,4.7-3.362h-2.372a2.3,2.3,0,0,1-2.312,1.447,2.5,2.5,0,0,1-2.626-2.6h7.564V66.083Zm-5.017-3.538a2.5,2.5,0,0,1,2.548,2.4H414.69A2.441,2.441,0,0,1,417.218,62.545Zm18.149-1.916a3.656,3.656,0,0,0-3.136,1.877,3.2,3.2,0,0,0-3.135-1.876,3.289,3.289,0,0,0-2.881,1.681V60.864h-2.391V70.95h2.469V65.4c0-1.9,1.039-2.639,2.078-2.639a1.624,1.624,0,0,1,1.763,1.916V70.95h2.45V65.4c0-1.9,1.019-2.639,2.1-2.639,1.176,0,1.744.625,1.744,1.916V70.95h2.469V64.284A3.308,3.308,0,0,0,435.367,60.629Zm15.072,5.454c0-3.206-1.9-5.454-5-5.454-3,0-5,2.111-5,5.278,0,3.225,2.058,5.278,5.037,5.278a4.513,4.513,0,0,0,4.7-3.362h-2.371a2.3,2.3,0,0,1-2.313,1.447,2.5,2.5,0,0,1-2.626-2.6h7.565V66.083Zm-5.017-3.538a2.5,2.5,0,0,1,2.548,2.4h-5.076A2.44,2.44,0,0,1,445.422,62.545Zm16.444-1.916a3.649,3.649,0,0,0-3.234,1.681V60.864h-2.371V74.781h2.469V69.64a3.62,3.62,0,0,0,3.136,1.544c2.782,0,4.527-2.072,4.527-5.278S464.648,60.629,461.866,60.629Zm-0.588,8.523c-1.607,0-2.607-1.114-2.607-3.245s1-3.245,2.607-3.245,2.606,1.036,2.606,3.167S462.885,69.152,461.278,69.152Zm15.64,1.8a3.8,3.8,0,0,1-.412-1.916V63.659c0-1.818-1.195-3.03-4.213-3.03-3.156,0-4.41,1.31-4.547,3.44h2.43c0.1-1.232.686-1.6,2.1-1.6,1.431,0,1.842.469,1.842,1.251,0,0.743-.49,1.036-1.43,1.153l-1.529.137c-2.861.274-3.88,1.466-3.88,3.147,0,1.955,1.489,3.03,3.645,3.03a3.761,3.761,0,0,0,3.253-1.466,3.288,3.288,0,0,0,.274,1.231h2.47Zm-5.409-1.525c-1.137,0-1.705-.528-1.705-1.368,0-.8.451-1.29,1.822-1.447l1.333-.156a1.968,1.968,0,0,0,1.156-.41v0.919A2.371,2.371,0,0,1,471.509,69.425Zm11.328,1.759A4.426,4.426,0,0,0,487.58,67.2h-2.469a2.146,2.146,0,0,1-2.274,1.935c-1.43,0-2.469-1.016-2.469-3.225s1-3.225,2.469-3.225a2.108,2.108,0,0,1,2.234,1.818h2.47c-0.294-2.365-2.058-3.87-4.7-3.87-3.018,0-5,2.052-5,5.278S479.839,71.185,482.837,71.185Zm13-.235h2.822L494.6,64.675l3.821-3.812h-2.939l-4.116,4.183V57.032h-2.43V70.95h2.43V67.783l1.529-1.525Z"/>
</svg>
