<svg xmlns="http://www.w3.org/2000/svg" width="320" height="50" viewBox="0 0 320 50">
  <defs>
    <style>
      .cls-1 {
        fill: #4b286d;
        fill-rule: evenodd;
      }
    </style>
  </defs>
  <path id="Chalo_laayein_connectivity_ko_within_reach._" data-name="Chalo laayein connectivity ko within reach. " class="cls-1" d="M19.246,20.476a4.919,4.919,0,0,0,5.131-4.6h-1.4a3.626,3.626,0,0,1-3.727,3.309c-2.407,0-4.028-1.821-4.028-4.93s1.621-4.93,4.028-4.93a3.493,3.493,0,0,1,3.644,2.807H24.31a4.863,4.863,0,0,0-5.064-4.094c-3.175,0-5.5,2.356-5.5,6.216S16.071,20.476,19.246,20.476Zm10.508-9.091a3.177,3.177,0,0,0-2.641,1.387V8.31H25.776v11.9h1.337v-4.88a2.455,2.455,0,0,1,2.373-2.74,1.729,1.729,0,0,1,1.972,1.922v5.7H32.8V14.376A2.749,2.749,0,0,0,29.754,11.385Zm11.969,7.737a0.4,0.4,0,0,1-.468-0.418V13.892c0-1.454-.852-2.507-3.242-2.507-2.524,0-3.41,1.187-3.51,2.858H35.84c0.084-1.287.7-1.7,2.173-1.7s1.939,0.451,1.939,1.354c0,0.769-.485,1.086-1.354,1.186l-1.237.134c-2.373.251-3.192,1.32-3.192,2.674,0,1.621,1.17,2.523,3.042,2.523a3.161,3.161,0,0,0,2.808-1.387,1.236,1.236,0,0,0,1.454,1.237,5.09,5.09,0,0,0,.735-0.05V19.122H41.723Zm-4.446.15c-1.187,0-1.721-.568-1.721-1.42,0-.836.434-1.37,2.006-1.554l1.253-.15a2.225,2.225,0,0,0,1.136-.368V16.8A2.477,2.477,0,0,1,37.277,19.272Zm7.864,0.986a8.5,8.5,0,0,0,.852-0.05v-1.12H45.358a0.67,0.67,0,0,1-.819-0.735V8.31H43.2V18.47C43.2,19.79,43.938,20.258,45.141,20.258Zm5.326,0.15c2.423,0,4.178-1.755,4.178-4.512s-1.755-4.512-4.178-4.512S46.289,13.14,46.289,15.9,48.044,20.409,50.467,20.409Zm0-1.2c-1.671,0-2.774-1.22-2.774-3.309s1.1-3.309,2.774-3.309,2.774,1.22,2.774,3.309S52.138,19.206,50.467,19.206Zm10.878,1.053a8.5,8.5,0,0,0,.852-0.05v-1.12H61.563a0.67,0.67,0,0,1-.819-0.735V8.31H59.407V18.47C59.407,19.79,60.142,20.258,61.346,20.258Zm9.06-1.136a0.4,0.4,0,0,1-.468-0.418V13.892c0-1.454-.852-2.507-3.242-2.507-2.524,0-3.409,1.187-3.51,2.858h1.337c0.084-1.287.7-1.7,2.173-1.7s1.939,0.451,1.939,1.354c0,0.769-.485,1.086-1.354,1.186l-1.237.134c-2.373.251-3.192,1.32-3.192,2.674,0,1.621,1.17,2.523,3.042,2.523A3.161,3.161,0,0,0,68.7,19.022a1.237,1.237,0,0,0,1.454,1.237,5.09,5.09,0,0,0,.735-0.05V19.122H70.405Zm-4.446.15c-1.187,0-1.721-.568-1.721-1.42,0-.836.435-1.37,2.006-1.554l1.254-.15a2.225,2.225,0,0,0,1.136-.368V16.8A2.477,2.477,0,0,1,65.96,19.272Zm13.164-.15a0.4,0.4,0,0,1-.468-0.418V13.892c0-1.454-.852-2.507-3.242-2.507-2.524,0-3.409,1.187-3.51,2.858H73.24c0.084-1.287.7-1.7,2.173-1.7s1.939,0.451,1.939,1.354c0,0.769-.485,1.086-1.354,1.186l-1.237.134c-2.373.251-3.192,1.32-3.192,2.674,0,1.621,1.17,2.523,3.042,2.523a3.161,3.161,0,0,0,2.808-1.387,1.237,1.237,0,0,0,1.454,1.237,5.087,5.087,0,0,0,.735-0.05V19.122H79.124Zm-4.446.15c-1.187,0-1.722-.568-1.722-1.42,0-.836.434-1.37,2.006-1.554l1.254-.15a2.225,2.225,0,0,0,1.136-.368V16.8A2.477,2.477,0,0,1,74.678,19.272Zm11.108-7.687-1.22,3.576c-0.434,1.253-.852,2.507-1.237,3.743-0.4-1.237-.8-2.473-1.237-3.727l-1.22-3.593H79.4l3.242,8.907c-0.1.267-.2,0.552-0.3,0.8a1.511,1.511,0,0,1-1.571,1.07H79.987v1.12a6.653,6.653,0,0,0,.8.05A2.606,2.606,0,0,0,83.6,21.562l3.643-9.976H85.786Zm9.6,4.311c0-2.473-1.387-4.512-3.961-4.512-2.39,0-3.978,1.8-3.978,4.512,0,2.791,1.655,4.512,4.011,4.512a3.6,3.6,0,0,0,3.71-2.824H93.777a2.216,2.216,0,0,1-2.29,1.6c-1.5,0-2.524-.886-2.657-2.824h6.552V15.9ZM91.421,12.6a2.529,2.529,0,0,1,2.524,2.557H88.864C89.081,13.457,90.067,12.6,91.421,12.6Zm6.022-2.239a0.9,0.9,0,1,0-.9-0.9A0.909,0.909,0,0,0,97.443,10.366Zm-0.668,9.843h1.337V11.585H96.775v8.623Zm7.15-8.823a3.18,3.18,0,0,0-2.708,1.487V11.585h-1.27v8.623h1.337v-4.88a2.455,2.455,0,0,1,2.374-2.74,1.73,1.73,0,0,1,1.972,1.922v5.7h1.337V14.376A2.749,2.749,0,0,0,103.924,11.385Zm11.8,9.024a3.557,3.557,0,0,0,3.71-3.158h-1.37a2.265,2.265,0,0,1-2.34,1.955c-1.438,0-2.591-1.053-2.591-3.309s1.12-3.309,2.591-3.309a2.245,2.245,0,0,1,2.323,1.922h1.387a3.494,3.494,0,0,0-3.71-3.125c-2.39,0-3.995,1.738-3.995,4.512S113.365,20.409,115.722,20.409Zm8.751,0c2.424,0,4.179-1.755,4.179-4.512s-1.755-4.512-4.179-4.512S120.3,13.14,120.3,15.9,122.05,20.409,124.473,20.409Zm0-1.2c-1.671,0-2.774-1.22-2.774-3.309s1.1-3.309,2.774-3.309,2.775,1.22,2.775,3.309S126.145,19.206,124.473,19.206Zm9.6-7.821a3.177,3.177,0,0,0-2.707,1.487V11.585h-1.27v8.623h1.337v-4.88a2.454,2.454,0,0,1,2.373-2.74,1.729,1.729,0,0,1,1.972,1.922v5.7h1.337V14.376A2.749,2.749,0,0,0,134.07,11.385Zm8.871,0a3.177,3.177,0,0,0-2.708,1.487V11.585h-1.27v8.623H140.3v-4.88a2.454,2.454,0,0,1,2.373-2.74,1.729,1.729,0,0,1,1.972,1.922v5.7h1.337V14.376A2.749,2.749,0,0,0,142.941,11.385ZM155.334,15.9c0-2.473-1.387-4.512-3.961-4.512-2.39,0-3.978,1.8-3.978,4.512,0,2.791,1.655,4.512,4.011,4.512a3.6,3.6,0,0,0,3.711-2.824H153.73a2.216,2.216,0,0,1-2.29,1.6c-1.5,0-2.524-.886-2.658-2.824h6.552V15.9ZM151.373,12.6a2.529,2.529,0,0,1,2.524,2.557h-5.081C149.033,13.457,150.019,12.6,151.373,12.6Zm8.959,7.8a3.556,3.556,0,0,0,3.71-3.158h-1.37a2.265,2.265,0,0,1-2.34,1.955c-1.437,0-2.591-1.053-2.591-3.309s1.12-3.309,2.591-3.309a2.245,2.245,0,0,1,2.323,1.922h1.387a3.494,3.494,0,0,0-3.71-3.125c-2.39,0-4,1.738-4,4.512S157.975,20.409,160.332,20.409Zm8.752-7.653v-1.17h-1.772V9.146h-1.337v2.44h-1.421v1.17h1.421V18.47c0,1.32.819,1.788,2.156,1.788q0.4,0,.953-0.05v-1.12H168.3c-0.769,0-.986-0.284-0.986-0.735v-5.6h1.772Zm1.774-2.39a0.9,0.9,0,1,0-.9-0.9A0.909,0.909,0,0,0,170.858,10.366Zm-0.669,9.843h1.337V11.585h-1.337v8.623Zm9-8.623-1.42,3.827c-0.4,1.086-.853,2.273-1.221,3.359-0.367-1.086-.818-2.256-1.22-3.342l-1.42-3.844h-1.454l3.376,8.623h1.4l3.392-8.623h-1.437Zm3.063-1.22a0.9,0.9,0,1,0-.9-0.9A0.909,0.909,0,0,0,182.255,10.366Zm-0.669,9.843h1.337V11.585h-1.337v8.623Zm6.875-7.453v-1.17H186.69V9.146h-1.337v2.44h-1.421v1.17h1.421V18.47c0,1.32.819,1.788,2.156,1.788,0.267,0,.585-0.017.952-0.05v-1.12h-0.785c-0.769,0-.986-0.284-0.986-0.735v-5.6h1.771Zm7.064-1.17-1.22,3.576c-0.434,1.253-.852,2.507-1.237,3.743-0.4-1.237-.8-2.473-1.236-3.727l-1.22-3.593h-1.471l3.242,8.907c-0.1.267-.2,0.552-0.3,0.8a1.51,1.51,0,0,1-1.571,1.07h-0.785v1.12a6.653,6.653,0,0,0,.8.05,2.606,2.606,0,0,0,2.808-1.972l3.643-9.976h-1.454ZM57.186,40.259H58.74l-3.51-5.514,3.276-3.108H56.735L52.74,35.5V28.361H51.4v11.9H52.74V37.067l1.538-1.437Zm5.758,0.2c2.423,0,4.178-1.755,4.178-4.512s-1.755-4.512-4.178-4.512-4.178,1.755-4.178,4.512S60.521,40.46,62.944,40.46Zm0-1.2c-1.671,0-2.774-1.22-2.774-3.309s1.1-3.309,2.774-3.309,2.774,1.22,2.774,3.309S64.616,39.256,62.944,39.256Zm19.419-7.62-1.22,3.894c-0.317,1.036-.635,2.072-0.919,3.108-0.3-1.036-.618-2.072-0.936-3.108l-1.2-3.894h-1.4l-1.2,3.894c-0.334,1.053-.635,2.089-0.919,3.142-0.3-1.053-.6-2.089-0.936-3.142L72.4,31.636H70.965l2.875,8.623h1.4L76.5,36.265c0.3-.953.6-1.955,0.886-2.924,0.267,0.969.568,1.972,0.869,2.924l1.27,3.994h1.4L83.8,31.636H82.363Zm3.079-1.22a0.9,0.9,0,1,0-.9-0.9A0.909,0.909,0,0,0,85.442,30.416Zm-0.668,9.843h1.337V31.636H84.774v8.623Zm6.875-7.453v-1.17H89.877V29.2H88.54v2.44H87.12v1.17H88.54v5.715c0,1.32.819,1.788,2.156,1.788q0.4,0,.953-0.05v-1.12H90.863c-0.769,0-.986-0.284-0.986-0.735v-5.6h1.772Zm5.132-1.37a3.177,3.177,0,0,0-2.641,1.387V28.361H92.8v11.9H94.14V35.379a2.455,2.455,0,0,1,2.373-2.741,1.73,1.73,0,0,1,1.972,1.922v5.7h1.337V34.427A2.749,2.749,0,0,0,96.781,31.436Zm5.541-1.019a0.9,0.9,0,1,0-.9-0.9A0.909,0.909,0,0,0,102.322,30.416Zm-0.669,9.843h1.337V31.636h-1.337v8.623Zm7.15-8.823a3.177,3.177,0,0,0-2.708,1.487V31.636h-1.27v8.623h1.337V35.379a2.454,2.454,0,0,1,2.373-2.741,1.729,1.729,0,0,1,1.972,1.922v5.7h1.337V34.427A2.749,2.749,0,0,0,108.8,31.436ZM121.068,31.5a3.011,3.011,0,0,0-2.774,1.654V31.636h-1.27v8.623h1.337V35.346c0-1.671,1.1-2.54,2.824-2.54h0.335V31.519C121.336,31.5,121.2,31.5,121.068,31.5Zm8.909,4.445c0-2.473-1.387-4.512-3.961-4.512-2.39,0-3.977,1.8-3.977,4.512,0,2.791,1.654,4.512,4.011,4.512a3.6,3.6,0,0,0,3.71-2.824h-1.387a2.216,2.216,0,0,1-2.29,1.6c-1.5,0-2.523-.886-2.657-2.824h6.551V35.948Zm-3.961-3.292a2.529,2.529,0,0,1,2.524,2.557h-5.081C123.676,33.508,124.663,32.656,126.016,32.656Zm12.395,6.517a0.4,0.4,0,0,1-.468-0.418V33.942c0-1.454-.852-2.507-3.242-2.507-2.524,0-3.409,1.187-3.51,2.858h1.337c0.084-1.287.7-1.7,2.173-1.7s1.939,0.451,1.939,1.353c0,0.769-.485,1.086-1.354,1.187l-1.237.134c-2.373.251-3.192,1.32-3.192,2.674,0,1.621,1.17,2.523,3.042,2.523a3.161,3.161,0,0,0,2.808-1.387,1.236,1.236,0,0,0,1.454,1.237,5.074,5.074,0,0,0,.735-0.05V39.173h-0.485Zm-4.445.15c-1.187,0-1.722-.568-1.722-1.42,0-.836.435-1.37,2.006-1.554l1.253-.15a2.227,2.227,0,0,0,1.137-.368V36.85A2.477,2.477,0,0,1,133.966,39.323Zm9.455,1.136a3.557,3.557,0,0,0,3.71-3.158h-1.37a2.265,2.265,0,0,1-2.34,1.955c-1.437,0-2.591-1.053-2.591-3.309s1.12-3.309,2.591-3.309a2.245,2.245,0,0,1,2.323,1.922h1.387a3.494,3.494,0,0,0-3.71-3.125c-2.39,0-3.994,1.738-3.994,4.512S141.064,40.46,143.421,40.46Zm9.022-9.024a3.176,3.176,0,0,0-2.64,1.387V28.361h-1.337v11.9H149.8V35.379a2.454,2.454,0,0,1,2.373-2.741,1.729,1.729,0,0,1,1.972,1.922v5.7h1.337V34.427A2.749,2.749,0,0,0,152.443,31.436Zm5.677,8.94a0.959,0.959,0,0,0,.952-0.986,0.978,0.978,0,0,0-1.955,0A0.962,0.962,0,0,0,158.12,40.376Z"/>
</svg>
