<svg xmlns="http://www.w3.org/2000/svg" width="320" height="50" viewBox="0 0 320 50">
  <defs>
    <style>
      .cls-1 {
        fill: #4b286d;
        fill-rule: evenodd;
      }
    </style>
  </defs>
  <path id="We_re_helping_people_in_need_access_subsidized_plans." data-name="We’re helping people in need access subsidized plans." class="cls-1" d="M27.447,8.31l-1.621,5.866c-0.385,1.354-.786,2.841-1.12,4.261-0.368-1.421-.752-2.891-1.137-4.295L21.948,8.31H20.377l-1.621,5.832c-0.384,1.4-.769,2.874-1.137,4.295-0.334-1.421-.735-2.908-1.12-4.261L14.878,8.31H13.424l3.376,11.9h1.571l1.7-6.066c0.368-1.287.752-2.69,1.086-4.027,0.334,1.337.719,2.74,1.086,4.027l1.7,6.066h1.571L28.9,8.31H27.447Zm9.4,7.587c0-2.473-1.387-4.512-3.961-4.512-2.39,0-3.978,1.8-3.978,4.512,0,2.791,1.655,4.512,4.011,4.512a3.6,3.6,0,0,0,3.71-2.824H35.24a2.215,2.215,0,0,1-2.29,1.6c-1.5,0-2.524-.886-2.657-2.824h6.552V15.9ZM32.883,12.6a2.529,2.529,0,0,1,2.524,2.557H30.326C30.544,13.457,31.53,12.6,32.883,12.6Zm5.69-4.295a0.879,0.879,0,0,0-.919.886,0.862,0.862,0,0,0,.919.852h0.1a1.205,1.205,0,0,1-.9,1.287l-0.117.017v0.886l0.167-.033A2.232,2.232,0,0,0,39.66,9.7,1.141,1.141,0,0,0,38.573,8.31Zm6.081,3.142a3.012,3.012,0,0,0-2.774,1.654V11.585H40.61v8.623h1.337V15.3c0-1.671,1.1-2.54,2.825-2.54h0.334V11.468C44.922,11.452,44.788,11.452,44.655,11.452ZM53.564,15.9c0-2.473-1.387-4.512-3.961-4.512-2.39,0-3.978,1.8-3.978,4.512,0,2.791,1.655,4.512,4.011,4.512a3.6,3.6,0,0,0,3.71-2.824H51.959a2.215,2.215,0,0,1-2.29,1.6c-1.5,0-2.524-.886-2.657-2.824h6.552V15.9ZM49.6,12.6a2.529,2.529,0,0,1,2.524,2.557H47.046C47.263,13.457,48.249,12.6,49.6,12.6Zm12.7-1.22a3.177,3.177,0,0,0-2.641,1.387V8.31H58.325v11.9h1.337v-4.88a2.455,2.455,0,0,1,2.373-2.74,1.729,1.729,0,0,1,1.972,1.922v5.7h1.337V14.376A2.749,2.749,0,0,0,62.3,11.385ZM74.7,15.9c0-2.473-1.387-4.512-3.961-4.512-2.39,0-3.978,1.8-3.978,4.512,0,2.791,1.655,4.512,4.011,4.512a3.6,3.6,0,0,0,3.71-2.824H73.092a2.215,2.215,0,0,1-2.29,1.6c-1.5,0-2.524-.886-2.657-2.824H74.7V15.9ZM70.735,12.6a2.529,2.529,0,0,1,2.524,2.557H68.178C68.4,13.457,69.382,12.6,70.735,12.6Zm7.3,7.653a8.5,8.5,0,0,0,.852-0.05v-1.12H78.257a0.67,0.67,0,0,1-.819-0.735V8.31H76.1V18.47C76.1,19.79,76.836,20.258,78.04,20.258Zm6.06-8.873a3.39,3.39,0,0,0-2.958,1.537V11.585h-1.27v11.9h1.337V18.972A3.388,3.388,0,0,0,84.1,20.409c2.423,0,4.011-1.755,4.011-4.512S86.523,11.385,84.1,11.385Zm-0.167,7.821c-1.671,0-2.774-1.22-2.774-3.309s1.1-3.309,2.774-3.309,2.774,1.153,2.774,3.242S85.6,19.206,83.932,19.206Zm6.276-8.84a0.9,0.9,0,1,0-.9-0.9A0.909,0.909,0,0,0,90.209,10.366ZM89.54,20.208h1.337V11.585H89.54v8.623Zm7.149-8.823a3.177,3.177,0,0,0-2.707,1.487V11.585h-1.27v8.623h1.337v-4.88a2.455,2.455,0,0,1,2.373-2.74,1.729,1.729,0,0,1,1.972,1.922v5.7h1.337V14.376A2.749,2.749,0,0,0,96.69,11.385Zm11.453,0.2v1.253a3.48,3.48,0,0,0-2.958-1.454c-2.424,0-4.012,1.755-4.012,4.512s1.588,4.512,4.012,4.512a3.486,3.486,0,0,0,2.891-1.37v0.835a2.386,2.386,0,0,1-2.674,2.674c-1.354,0-2.173-.551-2.34-1.638h-1.337c0.184,1.671,1.471,2.774,3.677,2.774,2.724,0,4.011-1.571,4.011-3.81V11.585h-1.27Zm-2.791,7.62c-1.672,0-2.775-1.287-2.775-3.309s1.1-3.309,2.775-3.309,2.774,1.22,2.774,3.309S107.022,19.206,105.351,19.206Zm13.469-7.821a3.388,3.388,0,0,0-2.958,1.537V11.585h-1.271v11.9h1.337V18.972a3.388,3.388,0,0,0,2.892,1.437c2.423,0,4.011-1.755,4.011-4.512S121.243,11.385,118.82,11.385Zm-0.167,7.821c-1.672,0-2.775-1.22-2.775-3.309s1.1-3.309,2.775-3.309,2.774,1.153,2.774,3.242S120.324,19.206,118.653,19.206Zm13.16-3.309c0-2.473-1.387-4.512-3.961-4.512-2.39,0-3.978,1.8-3.978,4.512,0,2.791,1.655,4.512,4.012,4.512a3.6,3.6,0,0,0,3.71-2.824h-1.387a2.216,2.216,0,0,1-2.29,1.6c-1.5,0-2.524-.886-2.657-2.824h6.551V15.9ZM127.852,12.6a2.529,2.529,0,0,1,2.524,2.557H125.3C125.512,13.457,126.5,12.6,127.852,12.6Zm9.143,7.8c2.423,0,4.178-1.755,4.178-4.512s-1.755-4.512-4.178-4.512-4.178,1.755-4.178,4.512S134.571,20.409,137,20.409Zm0-1.2c-1.671,0-2.775-1.22-2.775-3.309s1.1-3.309,2.775-3.309,2.774,1.22,2.774,3.309S138.666,19.206,137,19.206Zm9.848-7.821a3.391,3.391,0,0,0-2.959,1.537V11.585h-1.27v11.9h1.337V18.972a3.388,3.388,0,0,0,2.892,1.437c2.423,0,4.011-1.755,4.011-4.512S149.266,11.385,146.843,11.385Zm-0.167,7.821c-1.672,0-2.775-1.22-2.775-3.309s1.1-3.309,2.775-3.309,2.774,1.153,2.774,3.242S148.347,19.206,146.676,19.206Zm7.549,1.053a8.521,8.521,0,0,0,.853-0.05v-1.12h-0.635a0.67,0.67,0,0,1-.819-0.735V8.31h-1.337V18.47C152.287,19.79,153.022,20.258,154.225,20.258ZM163.36,15.9c0-2.473-1.387-4.512-3.961-4.512-2.39,0-3.977,1.8-3.977,4.512,0,2.791,1.654,4.512,4.011,4.512a3.6,3.6,0,0,0,3.71-2.824h-1.387a2.216,2.216,0,0,1-2.29,1.6c-1.5,0-2.523-.886-2.657-2.824h6.551V15.9ZM159.4,12.6a2.529,2.529,0,0,1,2.524,2.557h-5.081C157.06,13.457,158.046,12.6,159.4,12.6Zm9.392-2.239a0.9,0.9,0,1,0-.9-0.9A0.909,0.909,0,0,0,168.791,10.366Zm-0.669,9.843h1.337V11.585h-1.337v8.623Zm7.149-8.823a3.177,3.177,0,0,0-2.707,1.487V11.585h-1.27v8.623h1.337v-4.88A2.454,2.454,0,0,1,175,12.588a1.729,1.729,0,0,1,1.972,1.922v5.7h1.337V14.376A2.749,2.749,0,0,0,175.271,11.385Zm12.2,0a3.177,3.177,0,0,0-2.707,1.487V11.585h-1.27v8.623h1.337v-4.88a2.454,2.454,0,0,1,2.373-2.74,1.729,1.729,0,0,1,1.972,1.922v5.7h1.337V14.376A2.749,2.749,0,0,0,187.47,11.385ZM199.864,15.9c0-2.473-1.387-4.512-3.961-4.512-2.39,0-3.978,1.8-3.978,4.512,0,2.791,1.655,4.512,4.011,4.512a3.6,3.6,0,0,0,3.71-2.824h-1.387a2.215,2.215,0,0,1-2.289,1.6c-1.5,0-2.524-.886-2.658-2.824h6.552V15.9ZM195.9,12.6a2.528,2.528,0,0,1,2.523,2.557h-5.08C193.563,13.457,194.549,12.6,195.9,12.6Zm12.9,3.292c0-2.473-1.387-4.512-3.961-4.512-2.39,0-3.978,1.8-3.978,4.512,0,2.791,1.655,4.512,4.011,4.512a3.6,3.6,0,0,0,3.711-2.824H207.2a2.214,2.214,0,0,1-2.289,1.6c-1.5,0-2.524-.886-2.658-2.824h6.552V15.9ZM204.845,12.6a2.529,2.529,0,0,1,2.524,2.557h-5.081C202.505,13.457,203.491,12.6,204.845,12.6ZM216.712,8.31v4.512a3.388,3.388,0,0,0-2.892-1.437c-2.423,0-4.011,1.755-4.011,4.512s1.588,4.512,4.011,4.512a3.391,3.391,0,0,0,2.959-1.537v1.337h1.27V8.31h-1.337Zm-2.724,10.9c-1.672,0-2.775-1.153-2.775-3.242s1.1-3.376,2.775-3.376,2.774,1.22,2.774,3.309S215.659,19.206,213.988,19.206ZM36.523,39.173a0.4,0.4,0,0,1-.468-0.418V33.942c0-1.454-.852-2.507-3.242-2.507-2.524,0-3.409,1.187-3.51,2.858H30.64c0.084-1.287.7-1.7,2.173-1.7s1.939,0.451,1.939,1.353c0,0.769-.485,1.086-1.354,1.187l-1.237.134c-2.373.251-3.192,1.32-3.192,2.674,0,1.621,1.17,2.523,3.042,2.523a3.161,3.161,0,0,0,2.808-1.387,1.237,1.237,0,0,0,1.454,1.237,5.073,5.073,0,0,0,.735-0.05V39.173H36.523Zm-4.446.15c-1.187,0-1.721-.568-1.721-1.42,0-.836.434-1.37,2.006-1.554l1.253-.15a2.225,2.225,0,0,0,1.137-.368V36.85A2.477,2.477,0,0,1,32.078,39.323Zm9.455,1.136a3.557,3.557,0,0,0,3.71-3.158h-1.37a2.265,2.265,0,0,1-2.34,1.955c-1.437,0-2.59-1.053-2.59-3.309s1.12-3.309,2.59-3.309a2.245,2.245,0,0,1,2.323,1.922h1.387a3.5,3.5,0,0,0-3.71-3.125c-2.39,0-3.994,1.738-3.994,4.512S39.176,40.46,41.533,40.46Zm8.576,0a3.557,3.557,0,0,0,3.71-3.158h-1.37a2.265,2.265,0,0,1-2.34,1.955c-1.437,0-2.591-1.053-2.591-3.309s1.12-3.309,2.591-3.309a2.245,2.245,0,0,1,2.323,1.922h1.387a3.5,3.5,0,0,0-3.71-3.125c-2.39,0-3.994,1.738-3.994,4.512S47.753,40.46,50.109,40.46Zm12.52-4.512c0-2.473-1.387-4.512-3.961-4.512-2.39,0-3.978,1.8-3.978,4.512,0,2.791,1.655,4.512,4.011,4.512a3.6,3.6,0,0,0,3.71-2.824H61.025a2.215,2.215,0,0,1-2.29,1.6c-1.5,0-2.524-.886-2.657-2.824H62.63V35.948Zm-3.961-3.292a2.529,2.529,0,0,1,2.524,2.557H56.111C56.329,33.508,57.315,32.656,58.669,32.656Zm8.446,7.8c2.123,0,3.426-.936,3.426-2.573,0-1.4-.852-2.122-2.975-2.54L66.8,35.2c-1.1-.217-1.738-0.518-1.738-1.337,0-.8.652-1.27,1.805-1.27,1.32,0,2.106.368,2.173,1.7h1.337c-0.033-1.838-1.2-2.858-3.51-2.858-1.972,0-3.142.969-3.142,2.44,0,1.337.819,2.189,2.691,2.54l0.8,0.15c1.5,0.284,1.972.635,1.972,1.4,0,0.852-.618,1.337-2.072,1.337-1.521,0-2.156-.485-2.306-1.788H63.454C63.588,39.54,64.925,40.46,67.114,40.46Zm7.878,0c2.123,0,3.426-.936,3.426-2.573,0-1.4-.852-2.122-2.975-2.54l-0.769-.15c-1.1-.217-1.738-0.518-1.738-1.337,0-.8.652-1.27,1.805-1.27,1.32,0,2.106.368,2.173,1.7h1.337c-0.033-1.838-1.2-2.858-3.51-2.858-1.972,0-3.142.969-3.142,2.44,0,1.337.819,2.189,2.691,2.54l0.8,0.15c1.5,0.284,1.972.635,1.972,1.4,0,0.852-.618,1.337-2.072,1.337-1.521,0-2.156-.485-2.306-1.788H71.332C71.465,39.54,72.8,40.46,74.992,40.46Zm10.979,0c2.123,0,3.426-.936,3.426-2.573,0-1.4-.852-2.122-2.975-2.54l-0.769-.15c-1.1-.217-1.738-0.518-1.738-1.337,0-.8.652-1.27,1.805-1.27,1.32,0,2.106.368,2.173,1.7H89.23c-0.033-1.838-1.2-2.858-3.51-2.858-1.972,0-3.142.969-3.142,2.44,0,1.337.819,2.189,2.691,2.54l0.8,0.15c1.5,0.284,1.972.635,1.972,1.4,0,0.852-.618,1.337-2.073,1.337-1.521,0-2.156-.485-2.306-1.788H82.311C82.444,39.54,83.781,40.46,85.971,40.46Zm10.4-8.823v4.88A2.455,2.455,0,0,1,94,39.256a1.73,1.73,0,0,1-1.972-1.922v-5.7H90.691v5.832a2.749,2.749,0,0,0,3.042,2.991,3.177,3.177,0,0,0,2.708-1.487v1.287h1.27V31.636H96.374Zm7.429-.2a3.388,3.388,0,0,0-2.891,1.437V28.361H99.575v11.9h1.27V38.922A3.39,3.39,0,0,0,103.8,40.46c2.424,0,4.012-1.755,4.012-4.512S106.227,31.436,103.8,31.436Zm-0.167,7.821c-1.671,0-2.774-1.22-2.774-3.309s1.1-3.309,2.774-3.309,2.775,1.153,2.775,3.242S105.308,39.256,103.636,39.256Zm8.678,1.2c2.123,0,3.426-.936,3.426-2.573,0-1.4-.852-2.122-2.975-2.54L112,35.2c-1.1-.217-1.739-0.518-1.739-1.337,0-.8.652-1.27,1.806-1.27,1.32,0,2.105.368,2.172,1.7h1.337c-0.033-1.838-1.2-2.858-3.509-2.858-1.973,0-3.143.969-3.143,2.44,0,1.337.819,2.189,2.691,2.54l0.8,0.15c1.5,0.284,1.973.635,1.973,1.4,0,0.852-.619,1.337-2.073,1.337-1.521,0-2.156-.485-2.306-1.788h-1.354C108.788,39.54,110.125,40.46,112.314,40.46Zm5.406-10.043a0.9,0.9,0,1,0-.9-0.9A0.909,0.909,0,0,0,117.72,30.416Zm-0.669,9.843h1.337V31.636h-1.337v8.623Zm9.615-11.9v4.512a3.388,3.388,0,0,0-2.891-1.437c-2.424,0-4.011,1.755-4.011,4.512s1.587,4.512,4.011,4.512a3.39,3.39,0,0,0,2.958-1.537v1.337H128v-11.9h-1.337Zm-2.724,10.9c-1.671,0-2.775-1.153-2.775-3.242s1.1-3.376,2.775-3.376,2.774,1.22,2.774,3.309S125.613,39.256,123.942,39.256Zm6.6-8.84a0.9,0.9,0,1,0-.9-0.9A0.909,0.909,0,0,0,130.546,30.416Zm-0.669,9.843h1.337V31.636h-1.337v8.623Zm6.013-1.17c-0.618,0-1.22,0-1.838.033,0.384-.468.752-0.936,1.12-1.4l3.944-5.08v-1h-6.568v1.17h3.058c0.618,0,1.22,0,1.839-.033-0.385.468-.753,0.936-1.12,1.4l-3.945,5.08v1h6.97v-1.17h-3.46Zm12-3.142c0-2.473-1.387-4.512-3.961-4.512-2.39,0-3.977,1.8-3.977,4.512,0,2.791,1.654,4.512,4.011,4.512a3.6,3.6,0,0,0,3.71-2.824H146.29a2.216,2.216,0,0,1-2.29,1.6c-1.5,0-2.523-.886-2.657-2.824h6.551V35.948Zm-3.961-3.292a2.529,2.529,0,0,1,2.524,2.557h-5.081C141.594,33.508,142.58,32.656,143.933,32.656ZM155.8,28.361v4.512a3.387,3.387,0,0,0-2.891-1.437c-2.423,0-4.011,1.755-4.011,4.512s1.588,4.512,4.011,4.512a3.39,3.39,0,0,0,2.958-1.537v1.337h1.27v-11.9H155.8Zm-2.724,10.9c-1.671,0-2.774-1.153-2.774-3.242s1.1-3.376,2.774-3.376,2.774,1.22,2.774,3.309S154.747,39.256,153.076,39.256Zm13.469-7.821a3.39,3.39,0,0,0-2.958,1.537V31.636h-1.27v11.9h1.337V39.022a3.388,3.388,0,0,0,2.891,1.437c2.424,0,4.011-1.755,4.011-4.512S168.969,31.436,166.545,31.436Zm-0.167,7.821c-1.671,0-2.774-1.22-2.774-3.309s1.1-3.309,2.774-3.309,2.774,1.153,2.774,3.242S168.049,39.256,166.378,39.256Zm7.55,1.053a8.46,8.46,0,0,0,.852-0.05v-1.12h-0.635a0.67,0.67,0,0,1-.819-0.735V28.361h-1.337v10.16C171.989,39.841,172.725,40.309,173.928,40.309Zm9.06-1.136a0.4,0.4,0,0,1-.468-0.418V33.942c0-1.454-.853-2.507-3.243-2.507-2.523,0-3.409,1.187-3.509,2.858h1.337c0.083-1.287.7-1.7,2.172-1.7s1.939,0.451,1.939,1.353c0,0.769-.485,1.086-1.354,1.187l-1.237.134c-2.373.251-3.192,1.32-3.192,2.674,0,1.621,1.17,2.523,3.042,2.523a3.161,3.161,0,0,0,2.808-1.387,1.236,1.236,0,0,0,1.454,1.237,5.064,5.064,0,0,0,.735-0.05V39.173h-0.484Zm-4.446.15c-1.187,0-1.722-.568-1.722-1.42,0-.836.435-1.37,2.006-1.554l1.254-.15a2.223,2.223,0,0,0,1.136-.368V36.85A2.477,2.477,0,0,1,178.542,39.323Zm9.988-7.887a3.176,3.176,0,0,0-2.707,1.487V31.636h-1.27v8.623h1.337V35.379a2.454,2.454,0,0,1,2.373-2.741,1.729,1.729,0,0,1,1.972,1.922v5.7h1.337V34.427A2.749,2.749,0,0,0,188.53,31.436Zm7.988,9.024c2.123,0,3.426-.936,3.426-2.573,0-1.4-.852-2.122-2.975-2.54L196.2,35.2c-1.1-.217-1.739-0.518-1.739-1.337,0-.8.652-1.27,1.805-1.27,1.321,0,2.106.368,2.173,1.7h1.337c-0.033-1.838-1.2-2.858-3.51-2.858-1.972,0-3.142.969-3.142,2.44,0,1.337.819,2.189,2.691,2.54l0.8,0.15c1.5,0.284,1.972.635,1.972,1.4,0,0.852-.618,1.337-2.072,1.337-1.521,0-2.156-.485-2.306-1.788h-1.354C192.992,39.54,194.329,40.46,196.518,40.46Zm5.534-.084a0.96,0.96,0,0,0,.953-0.986,0.978,0.978,0,0,0-1.955,0A0.961,0.961,0,0,0,202.052,40.376Z"/>
</svg>
