<svg xmlns="http://www.w3.org/2000/svg" width="728" height="90" viewBox="0 0 728 90">
  <defs>
    <style>
      .cls-1 {
        fill: #4c286c;
        fill-rule: evenodd;
      }
    </style>
  </defs>
  <path class="cls-1" d="M183.6,52.144v1.833H173V36.8h2.015V52.144H183.6Zm12.614,0.265v1.568a7.276,7.276,0,0,1-1.055.072,1.779,1.779,0,0,1-2.087-1.785,4.526,4.526,0,0,1-4.029,2c-2.686,0-4.365-1.3-4.365-3.642,0-1.954,1.175-3.5,4.581-3.86l1.775-.192c1.247-.145,1.943-0.6,1.943-1.714,0-1.3-.672-1.953-2.782-1.953s-3,.6-3.119,2.461h-1.918c0.144-2.412,1.415-4.125,5.037-4.125,3.429,0,4.652,1.519,4.652,3.617v6.948a0.569,0.569,0,0,0,.672.6h0.695Zm-3.237-3.352V47.586a3.184,3.184,0,0,1-1.631.531l-1.8.217c-2.255.265-2.878,1.038-2.878,2.243,0,1.231.767,2.051,2.47,2.051A3.563,3.563,0,0,0,192.977,49.057Zm4.148,0.965h1.942c0.216,1.881,1.128,2.581,3.31,2.581,2.086,0,2.974-.7,2.974-1.93,0-1.11-.671-1.616-2.83-2.027l-1.151-.217c-2.686-.506-3.862-1.737-3.862-3.667,0-2.123,1.679-3.521,4.509-3.521,3.31,0,4.989,1.471,5.037,4.125h-1.919c-0.1-1.931-1.223-2.461-3.118-2.461-1.654,0-2.59.675-2.59,1.833,0,1.182.912,1.615,2.5,1.929l1.1,0.217c3.046,0.6,4.269,1.64,4.269,3.667,0,2.364-1.871,3.715-4.917,3.715C199.235,54.267,197.317,52.94,197.125,50.022Zm14.844-6.8V51.3c0,0.651.312,1.061,1.416,1.061h1.127v1.616q-0.792.072-1.367,0.072c-1.919,0-3.094-.675-3.094-2.581v-8.25h-2.039V41.531h2.039V38.009h1.918v3.522h2.543v1.688h-2.543Zm19.306-1.688-5.228,14.4a3.742,3.742,0,0,1-4.029,2.846,9.578,9.578,0,0,1-1.152-.073V57.09h1.128a2.169,2.169,0,0,0,2.254-1.544c0.144-.362.288-0.773,0.432-1.158l-4.653-12.857h2.111l1.75,5.186c0.624,1.809,1.2,3.594,1.775,5.379,0.552-1.785,1.151-3.594,1.775-5.4l1.75-5.161h2.087Zm11.751,6.9h-9.4c0.192,2.8,1.655,4.077,3.813,4.077a3.18,3.18,0,0,0,3.286-2.316h1.991a5.168,5.168,0,0,1-5.324,4.077c-3.382,0-5.757-2.485-5.757-6.513,0-3.908,2.279-6.513,5.709-6.513,3.693,0,5.684,2.942,5.684,6.513V48.43Zm-9.354-1.737h7.291c-0.192-2.05-1.415-3.69-3.621-3.69C235.4,43,233.984,44.232,233.672,46.693Zm22.448,5.717v1.568a7.276,7.276,0,0,1-1.055.072,1.779,1.779,0,0,1-2.087-1.785,4.526,4.526,0,0,1-4.029,2c-2.686,0-4.365-1.3-4.365-3.642,0-1.954,1.175-3.5,4.581-3.86l1.775-.192c1.247-.145,1.943-0.6,1.943-1.714,0-1.3-.672-1.953-2.782-1.953s-3,.6-3.119,2.461h-1.918c0.144-2.412,1.415-4.125,5.037-4.125,3.429,0,4.652,1.519,4.652,3.617v6.948a0.569,0.569,0,0,0,.672.6h0.695Zm-3.237-3.352V47.586a3.184,3.184,0,0,1-1.631.531l-1.8.217c-2.254.265-2.878,1.038-2.878,2.243,0,1.231.767,2.051,2.47,2.051A3.563,3.563,0,0,0,252.883,49.057Zm11.486-7.694v1.857h-0.48c-2.47,0-4.053,1.254-4.053,3.666v7.092h-1.919V41.531h1.823v2.194a4.321,4.321,0,0,1,3.982-2.388A6.355,6.355,0,0,1,264.369,41.363ZM282.02,52.409v1.568a7.3,7.3,0,0,1-1.056.072,1.778,1.778,0,0,1-2.086-1.785,4.529,4.529,0,0,1-4.03,2c-2.686,0-4.364-1.3-4.364-3.642,0-1.954,1.174-3.5,4.581-3.86l1.774-.192c1.247-.145,1.943-0.6,1.943-1.714,0-1.3-.672-1.953-2.782-1.953s-3,.6-3.118,2.461h-1.919c0.144-2.412,1.415-4.125,5.037-4.125,3.429,0,4.653,1.519,4.653,3.617v6.948a0.568,0.568,0,0,0,.671.6h0.7Zm-3.238-3.352V47.586a3.184,3.184,0,0,1-1.631.531l-1.8.217c-2.254.265-2.878,1.038-2.878,2.243,0,1.231.768,2.051,2.471,2.051A3.563,3.563,0,0,0,278.782,49.057Zm4.916,2.412V36.8h1.919V51.3a0.963,0.963,0,0,0,1.175,1.061H287.7v1.616a12.181,12.181,0,0,1-1.223.072C284.753,54.05,283.7,53.375,283.7,51.469Zm4.964-3.715c0-3.981,2.518-6.513,6-6.513s6,2.532,6,6.513-2.519,6.513-6,6.513S288.662,51.734,288.662,47.755Zm9.977,0c0-3.015-1.583-4.777-3.981-4.777s-3.981,1.762-3.981,4.777,1.582,4.776,3.981,4.776S298.639,50.77,298.639,47.755Zm14.485-2.2v8.419h-1.919V45.752c0-1.929-1.055-2.775-2.83-2.775-1.607,0-3.406,1.206-3.406,3.956v7.044h-1.918V41.531h1.822v1.857a4.555,4.555,0,0,1,3.886-2.146C311.517,41.242,313.124,42.809,313.124,45.559Zm13.79,2.871h-9.4c0.192,2.8,1.655,4.077,3.813,4.077a3.18,3.18,0,0,0,3.286-2.316H326.6a5.17,5.17,0,0,1-5.325,4.077c-3.381,0-5.756-2.485-5.756-6.513,0-3.908,2.279-6.513,5.709-6.513,3.693,0,5.684,2.942,5.684,6.513V48.43Zm-9.354-1.737h7.291c-0.192-2.05-1.415-3.69-3.621-3.69C319.287,43,317.872,44.232,317.56,46.693ZM330.8,53.616c0,2.292-1.127,3.353-2.686,3.667l-0.24.048V56.053L328.04,56a1.786,1.786,0,0,0,1.319-1.882h-0.144a1.252,1.252,0,0,1-1.343-1.254,1.29,1.29,0,0,1,1.343-1.3C330.2,51.565,330.8,52.29,330.8,53.616Zm24.294-12.084-4.125,12.447h-2.014l-1.823-5.765c-0.432-1.375-.864-2.823-1.247-4.221-0.408,1.4-.84,2.846-1.272,4.221l-1.8,5.765H340.8l-4.125-12.446h2.062l1.751,5.62c0.48,1.52.912,3.016,1.343,4.535,0.408-1.519.84-3.015,1.319-4.535l1.727-5.62h2.015l1.727,5.62c0.456,1.5.911,2.991,1.343,4.487,0.408-1.5.863-2.991,1.319-4.487l1.751-5.62h2.062Zm11.751,6.9h-9.4c0.192,2.8,1.655,4.077,3.813,4.077a3.181,3.181,0,0,0,3.286-2.316h1.991a5.17,5.17,0,0,1-5.325,4.077c-3.381,0-5.756-2.485-5.756-6.513,0-3.908,2.279-6.513,5.709-6.513,3.693,0,5.684,2.942,5.684,6.513V48.43Zm-9.354-1.737h7.291c-0.192-2.05-1.415-3.69-3.621-3.69C359.216,43,357.8,44.232,357.489,46.693Zm27.652-5.161V53.495c0,3.233-1.847,5.5-5.757,5.5-3.166,0-5.012-1.592-5.276-4h1.919c0.24,1.568,1.415,2.364,3.357,2.364,2.471,0,3.837-1.279,3.837-3.86V52.29a4.987,4.987,0,0,1-4.148,1.977c-3.478,0-5.757-2.533-5.757-6.513s2.279-6.513,5.757-6.513a4.986,4.986,0,0,1,4.245,2.1V41.531h1.823Zm-1.847,6.223c0-3.015-1.583-4.777-3.981-4.777s-3.982,1.858-3.982,4.777,1.583,4.776,3.982,4.776S383.294,50.77,383.294,47.755Zm15.66,4.655v1.568a7.286,7.286,0,0,1-1.055.072,1.779,1.779,0,0,1-2.087-1.785,4.527,4.527,0,0,1-4.029,2c-2.686,0-4.366-1.3-4.366-3.642,0-1.954,1.176-3.5,4.582-3.86l1.775-.192c1.247-.145,1.942-0.6,1.942-1.714,0-1.3-.672-1.953-2.782-1.953s-3,.6-3.118,2.461H387.9c0.143-2.412,1.414-4.125,5.036-4.125,3.43,0,4.652,1.519,4.652,3.617v6.948a0.569,0.569,0,0,0,.673.6h0.695Zm-3.238-3.352V47.586a3.184,3.184,0,0,1-1.631.531l-1.8.217c-2.255.265-2.879,1.038-2.879,2.243,0,1.231.768,2.051,2.471,2.051A3.563,3.563,0,0,0,395.716,49.057Zm14.846-7.526-4.869,12.447h-2.015l-4.844-12.446h2.086l2.038,5.548c0.576,1.567,1.224,3.256,1.752,4.824,0.527-1.567,1.175-3.28,1.751-4.848l2.038-5.523h2.063Zm11.75,6.9h-9.4c0.192,2.8,1.655,4.077,3.813,4.077a3.18,3.18,0,0,0,3.286-2.316H422a5.168,5.168,0,0,1-5.324,4.077c-3.382,0-5.756-2.485-5.756-6.513,0-3.908,2.279-6.513,5.709-6.513,3.693,0,5.684,2.942,5.684,6.513V48.43Zm-9.354-1.737h7.291c-0.192-2.05-1.415-3.69-3.621-3.69C414.685,43,413.27,44.232,412.958,46.693ZM436.34,54.34v2.436h-1.678v-2.46c-3.5-.29-5.948-2.1-6-6.006h2.088c0.047,2.75,1.678,3.908,3.909,4.15V45.921l-0.24-.048c-2.9-.652-5.181-1.833-5.181-4.969,0-2.654,2.111-4.342,5.421-4.487V34h1.678V36.49c4.029,0.386,5.325,2.75,5.4,5.307h-2.061c-0.145-1.906-.936-3.16-3.335-3.473V44.3l0.5,0.121c3.933,0.869,5.325,2.412,5.325,4.9C442.169,52.217,440.082,54.171,436.34,54.34Zm-1.678-10.421V38.25c-2.207.121-3.334,1.134-3.334,2.654S432,43.244,434.662,43.919Zm5.42,5.4c0-1.567-1.031-2.363-3.742-3.015v6.2C438.715,52.361,440.082,51.3,440.082,49.322Zm9.568,4.656h-2.015V41.169h-3.884V39.577l0.383-.024c2.206-.144,3.453-0.675,3.886-2.75h1.63V53.978Zm14.078-1.833v1.833H452.456l0.048-.941a7.041,7.041,0,0,1,3.717-6.295l2.159-1.255c2.063-1.205,3-2.291,3-4.1A3.044,3.044,0,0,0,458,38.25c-2.135,0-3.573,1.061-3.573,3.691h-1.991c-0.048-3.546,2.087-5.524,5.612-5.524,3.238,0,5.444,2.05,5.444,4.969,0,2.2-1.151,4-3.885,5.6l-1.822,1.062c-1.967,1.158-2.927,2.194-3.07,4.1h9.017Zm13.071-3.57a5.575,5.575,0,0,1-5.925,5.789c-3.31,0-5.612-2.074-5.8-5.161h2.014a3.609,3.609,0,0,0,3.79,3.328,3.958,3.958,0,0,0,0-7.911,3.568,3.568,0,0,0-3.5,2.074H465.5l1.44-9.89h8.826v1.833h-7.2l-0.814,5.4a4.859,4.859,0,0,1,3.237-1.254A5.452,5.452,0,0,1,476.8,48.574Zm24.46-3.038v8.442h-1.918v-8.25c0-1.93-.959-2.75-2.591-2.75-1.558,0-3.165,1.206-3.165,4.2v6.8h-1.919v-8.25c0-1.93-.984-2.75-2.591-2.75-1.51,0-3.165,1.206-3.165,4.2v6.8h-1.919V41.531h1.823v1.833a3.973,3.973,0,0,1,3.574-2.123,3.874,3.874,0,0,1,3.813,2.34,4.271,4.271,0,0,1,3.814-2.34A3.945,3.945,0,0,1,501.259,45.536Zm2.661-7.068a1.3,1.3,0,1,1,1.295,1.3A1.309,1.309,0,0,1,503.92,38.467Zm0.336,3.064h1.919V53.978h-1.919V41.531Zm4.916,9.938V36.8h1.919V51.3a0.963,0.963,0,0,0,1.175,1.061h0.911v1.616a12.2,12.2,0,0,1-1.223.072C510.227,54.05,509.172,53.375,509.172,51.469Zm5.8,0V36.8h1.918V51.3a0.963,0.963,0,0,0,1.175,1.061h0.911v1.616a12.179,12.179,0,0,1-1.222.072C516.03,54.05,514.976,53.375,514.976,51.469Zm5.467-13a1.3,1.3,0,1,1,1.3,1.3A1.309,1.309,0,0,1,520.443,38.467Zm0.336,3.064H522.7V53.978h-1.918V41.531Zm4.316,6.223c0-3.981,2.518-6.513,6-6.513s6,2.532,6,6.513-2.518,6.513-6,6.513S525.1,51.734,525.1,47.755Zm9.978,0c0-3.015-1.583-4.777-3.982-4.777s-3.981,1.762-3.981,4.777,1.583,4.776,3.981,4.776S535.073,50.77,535.073,47.755Zm14.485-2.2v8.419h-1.92V45.752c0-1.929-1.055-2.775-2.83-2.775-1.607,0-3.4,1.206-3.4,3.956v7.044h-1.919V41.531h1.823v1.857a4.553,4.553,0,0,1,3.885-2.146C547.95,41.242,549.558,42.809,549.558,45.559Zm2.636,7.164a1.4,1.4,0,0,1,2.807,0A1.4,1.4,0,1,1,552.194,52.724Z"/>
</svg>
