<svg id="Frame_1" data-name="Frame 1" xmlns="http://www.w3.org/2000/svg" width="320" height="50" viewBox="0 0 320 50">
  <defs>
    <style>
      .cls-1 {
        fill: #4b286d;
        fill-rule: evenodd;
      }
    </style>
  </defs>
  <path id="Ghar_pe_lights_on_reh_gayi_" data-name="Ghar pe lights on reh gayi?" class="cls-1" d="M18.744,25.076v1.14h3.4A3.474,3.474,0,0,1,18.5,29.651c-2.265,0-3.75-1.71-3.75-4.425S16.224,20.8,18.5,20.8a3.215,3.215,0,0,1,3.36,2.58h1.3A4.394,4.394,0,0,0,18.5,19.646c-3.09,0-5.07,2.265-5.07,5.58s1.995,5.58,5.055,5.58a4.1,4.1,0,0,0,3.495-1.68l0.27,1.44h1.035v-5.49H18.744Zm9.915-2.43a2.851,2.851,0,0,0-2.37,1.245v-4h-1.2v10.68h1.2v-4.38a2.2,2.2,0,0,1,2.13-2.46,1.552,1.552,0,0,1,1.77,1.725v5.115h1.2V25.331A2.468,2.468,0,0,0,28.659,22.646Zm10.935,6.945a0.355,0.355,0,0,1-.42-0.375V24.9c0-1.3-.765-2.25-2.91-2.25-2.265,0-3.06,1.065-3.15,2.565h1.2c0.075-1.155.63-1.53,1.95-1.53S38,24.086,38,24.9a1.078,1.078,0,0,1-1.215,1.065l-1.11.12c-2.13.225-2.865,1.185-2.865,2.4,0,1.455,1.05,2.265,2.73,2.265a2.837,2.837,0,0,0,2.52-1.245,1.11,1.11,0,0,0,1.3,1.11,4.562,4.562,0,0,0,.66-0.045V29.591H39.594Zm-3.99.135a1.282,1.282,0,0,1-1.545-1.275c0-.75.39-1.23,1.8-1.395l1.125-.135a2,2,0,0,0,1.02-.33v0.915A2.223,2.223,0,0,1,35.6,29.725Zm9.18-7.02a2.7,2.7,0,0,0-2.49,1.485V22.826h-1.14v7.74h1.2v-4.41c0-1.5.99-2.28,2.535-2.28h0.3V22.721C45.024,22.706,44.9,22.706,44.784,22.706Zm8.475-.06a3.042,3.042,0,0,0-2.655,1.38v-1.2h-1.14v10.68h1.2v-4.05a3.04,3.04,0,0,0,2.595,1.29c2.175,0,3.6-1.575,3.6-4.05S55.433,22.646,53.258,22.646Zm-0.15,7.02c-1.5,0-2.49-1.1-2.49-2.97s0.99-2.97,2.49-2.97,2.49,1.035,2.49,2.91S54.608,29.666,53.108,29.666Zm12-2.97c0-2.22-1.245-4.05-3.555-4.05-2.145,0-3.57,1.62-3.57,4.05,0,2.5,1.485,4.05,3.6,4.05a3.229,3.229,0,0,0,3.33-2.535H63.668a1.988,1.988,0,0,1-2.055,1.44c-1.35,0-2.265-.8-2.385-2.535h5.88V26.7Zm-3.555-2.955a2.27,2.27,0,0,1,2.265,2.295h-4.56A2.276,2.276,0,0,1,61.553,23.741Zm9.72,6.87a7.623,7.623,0,0,0,.765-0.045v-1h-0.57a0.6,0.6,0,0,1-.735-0.66V19.886h-1.2v9.12A1.466,1.466,0,0,0,71.273,30.61Zm2.49-8.88a0.81,0.81,0,1,0-.81-0.81A0.816,0.816,0,0,0,73.763,21.731Zm-0.6,8.835h1.2v-7.74h-1.2v7.74Zm8.955-7.74v1.125a3.123,3.123,0,0,0-2.655-1.3c-2.175,0-3.6,1.575-3.6,4.05s1.425,4.05,3.6,4.05a3.127,3.127,0,0,0,2.595-1.23v0.75a2.141,2.141,0,0,1-2.4,2.4c-1.215,0-1.95-.5-2.1-1.47h-1.2c0.165,1.5,1.32,2.49,3.3,2.49,2.445,0,3.6-1.41,3.6-3.42v-7.44h-1.14Zm-2.5,6.84c-1.5,0-2.49-1.155-2.49-2.97s0.99-2.97,2.49-2.97,2.49,1.095,2.49,2.97S81.113,29.666,79.613,29.666Zm9.09-7.02a2.851,2.851,0,0,0-2.37,1.245v-4h-1.2v10.68h1.2v-4.38a2.2,2.2,0,0,1,2.13-2.46,1.552,1.552,0,0,1,1.77,1.725v5.115h1.2V25.331A2.468,2.468,0,0,0,88.7,22.646Zm7.995,1.23v-1.05h-1.59v-2.19h-1.2v2.19H92.633v1.05h1.275v5.13c0,1.185.735,1.6,1.935,1.6q0.36,0,.855-0.045v-1h-0.7c-0.69,0-.885-0.255-0.885-0.66V23.876H96.7Zm4.08,6.87c1.905,0,3.075-.84,3.075-2.31,0-1.26-.765-1.9-2.67-2.28l-0.69-.135c-0.99-.2-1.56-0.465-1.56-1.2,0-.72.585-1.14,1.62-1.14,1.185,0,1.89.33,1.95,1.53h1.2c-0.03-1.65-1.08-2.565-3.15-2.565-1.77,0-2.82.87-2.82,2.19,0,1.2.735,1.965,2.415,2.28l0.72,0.135c1.35,0.255,1.77.57,1.77,1.26,0,0.765-.555,1.2-1.86,1.2-1.365,0-1.935-.435-2.07-1.6H97.493C97.613,29.92,98.813,30.745,100.778,30.745Zm10.649,0a3.708,3.708,0,0,0,3.75-4.05,3.761,3.761,0,1,0-7.5,0A3.708,3.708,0,0,0,111.427,30.745Zm0-1.08c-1.5,0-2.489-1.1-2.489-2.97s0.99-2.97,2.489-2.97,2.49,1.095,2.49,2.97S112.927,29.666,111.427,29.666Zm8.82-7.02a2.851,2.851,0,0,0-2.43,1.335V22.826h-1.139v7.74h1.2v-4.38a2.2,2.2,0,0,1,2.13-2.46,1.552,1.552,0,0,1,1.77,1.725v5.115h1.2V25.331A2.468,2.468,0,0,0,120.247,22.646Zm11.16,0.06a2.7,2.7,0,0,0-2.49,1.485V22.826h-1.14v7.74h1.2v-4.41c0-1.5.99-2.28,2.535-2.28h0.3V22.721C131.647,22.706,131.527,22.706,131.407,22.706Zm8.5,3.99c0-2.22-1.245-4.05-3.555-4.05-2.145,0-3.57,1.62-3.57,4.05,0,2.5,1.485,4.05,3.6,4.05a3.229,3.229,0,0,0,3.33-2.535h-1.245a1.988,1.988,0,0,1-2.055,1.44c-1.35,0-2.265-.8-2.385-2.535h5.88V26.7Zm-3.555-2.955a2.27,2.27,0,0,1,2.265,2.295h-4.56A2.276,2.276,0,0,1,136.357,23.741Zm8.625-1.095a2.851,2.851,0,0,0-2.37,1.245v-4h-1.2v10.68h1.2v-4.38a2.2,2.2,0,0,1,2.13-2.46,1.552,1.552,0,0,1,1.77,1.725v5.115h1.2V25.331A2.468,2.468,0,0,0,144.982,22.646Zm13.409,0.18v1.125a3.121,3.121,0,0,0-2.654-1.3c-2.175,0-3.6,1.575-3.6,4.05s1.425,4.05,3.6,4.05a3.125,3.125,0,0,0,2.594-1.23v0.75a2.141,2.141,0,0,1-2.4,2.4c-1.215,0-1.95-.5-2.1-1.47h-1.2c0.165,1.5,1.32,2.49,3.3,2.49,2.444,0,3.6-1.41,3.6-3.42v-7.44h-1.14Zm-2.5,6.84c-1.5,0-2.49-1.155-2.49-2.97s0.99-2.97,2.49-2.97,2.489,1.095,2.489,2.97S157.387,29.666,155.887,29.666Zm11.849-.075a0.355,0.355,0,0,1-.42-0.375V24.9c0-1.3-.765-2.25-2.909-2.25-2.265,0-3.06,1.065-3.15,2.565h1.2c0.075-1.155.63-1.53,1.95-1.53s1.739,0.4,1.739,1.215a1.077,1.077,0,0,1-1.214,1.065l-1.11.12c-2.13.225-2.865,1.185-2.865,2.4,0,1.455,1.05,2.265,2.73,2.265a2.834,2.834,0,0,0,2.519-1.245,1.11,1.11,0,0,0,1.305,1.11,4.564,4.564,0,0,0,.66-0.045V29.591h-0.435Zm-3.989.135a1.282,1.282,0,0,1-1.545-1.275c0-.75.39-1.23,1.8-1.395l1.125-.135a1.993,1.993,0,0,0,1.019-.33v0.915A2.222,2.222,0,0,1,163.747,29.725Zm10.454-6.9-1.095,3.21c-0.39,1.125-.764,2.25-1.109,3.36-0.36-1.11-.72-2.22-1.11-3.345l-1.095-3.225h-1.32l2.91,7.995c-0.09.24-.18,0.5-0.27,0.72a1.356,1.356,0,0,1-1.41.96H169v1a5.984,5.984,0,0,0,.72.045,2.339,2.339,0,0,0,2.52-1.77l3.269-8.955H174.2Zm2.955-1.095a0.81,0.81,0,1,0-.81-0.81A0.816,0.816,0,0,0,177.156,21.731Zm-0.6,8.835h1.2v-7.74h-1.2v7.74Zm6.75-2.79h1.185a3.085,3.085,0,0,1,.195-1.335,3.74,3.74,0,0,1,1.125-1.275,3.5,3.5,0,0,0,1.575-2.685c0-1.89-1.305-2.835-3.3-2.835-2.055,0-3.45,1.11-3.48,3.525h1.23c0.1-1.89,1-2.385,2.295-2.385,1.4,0,1.98.675,1.98,1.71a2.908,2.908,0,0,1-1.32,2.025,4.144,4.144,0,0,0-1.215,1.47A4.048,4.048,0,0,0,183.306,27.776Zm0.615,2.895a0.862,0.862,0,0,0,.855-0.885,0.878,0.878,0,0,0-1.755,0A0.863,0.863,0,0,0,183.921,30.67Z"/>
</svg>
