<svg id="Frame_4" data-name="Frame 4" xmlns="http://www.w3.org/2000/svg" width="320" height="50" viewBox="0 0 320 50">
  <defs>
    <style>
      .cls-1 {
        fill: #4b286d;
        fill-rule: evenodd;
      }
    </style>
  </defs>
  <path id="TELUS_smart_plugs_bulbs_ke_saath._" data-name="TELUS smart plugs  &amp; bulbs ke saath. " class="cls-1" d="M21.774,10.886H13.209v1.14h3.63v9.54h1.3v-9.54h3.63v-1.14Zm8.775,1.14v-1.14H23.124v10.68h7.365v-1.14h-6.1V16.571h5.565v-1.14H24.384v-3.4h6.165Zm2.685,8.4v-9.54h-1.26v10.68H38.6v-1.14h-5.37ZM44,21.79c2.67,0,4.2-1.515,4.2-4.185v-6.72h-1.26v6.72c0,2.1-1.08,3.045-2.94,3.045s-2.94-.945-2.94-3.045v-6.72H39.8v6.72C39.8,20.276,41.334,21.79,44,21.79Zm9.99,0.015c2.565,0,4-1.245,4-3.135,0-1.545-.87-2.5-3.33-3.045l-0.945-.21c-2.01-.45-2.5-0.96-2.5-1.98,0-1,.795-1.65,2.34-1.65,2.13,0,2.775.825,2.88,2.2h1.29c-0.045-1.74-1.02-3.345-4.17-3.345-2.22,0-3.645,1.08-3.645,2.79,0,1.95,1.425,2.685,3.24,3.09l0.945,0.21c1.89,0.42,2.595.915,2.595,1.935,0,1.32-.99,2-2.7,2-1.74,0-3.1-.645-3.135-2.625h-1.3C49.584,20.71,51.444,21.805,53.994,21.805ZM65,21.745c1.9,0,3.075-.84,3.075-2.31,0-1.26-.765-1.9-2.67-2.28l-0.69-.135c-0.99-.2-1.56-0.465-1.56-1.2,0-.72.585-1.14,1.62-1.14,1.185,0,1.89.33,1.95,1.53h1.2c-0.03-1.65-1.08-2.565-3.15-2.565-1.77,0-2.82.87-2.82,2.19,0,1.2.735,1.965,2.415,2.28l0.72,0.135c1.35,0.255,1.77.57,1.77,1.26,0,0.765-.555,1.2-1.86,1.2-1.365,0-1.935-.435-2.07-1.6H61.719C61.839,20.92,63.039,21.745,65,21.745Zm12.495-8.1A2.673,2.673,0,0,0,75.113,15.1a2.424,2.424,0,0,0-2.385-1.455,2.486,2.486,0,0,0-2.235,1.32v-1.14h-1.14v7.74h1.2v-4.23c0-1.86,1.035-2.61,1.98-2.61a1.479,1.479,0,0,1,1.62,1.71v5.13h1.2v-4.23c0-1.86,1-2.61,1.98-2.61a1.473,1.473,0,0,1,1.62,1.71v5.13h1.2v-5.25A2.46,2.46,0,0,0,77.5,13.646Zm10.86,6.945a0.355,0.355,0,0,1-.42-0.375V15.9c0-1.3-.765-2.25-2.91-2.25-2.265,0-3.06,1.065-3.15,2.565h1.2c0.075-1.155.63-1.53,1.95-1.53s1.74,0.4,1.74,1.215a1.078,1.078,0,0,1-1.215,1.065l-1.11.12c-2.13.225-2.865,1.185-2.865,2.4,0,1.455,1.05,2.265,2.73,2.265a2.837,2.837,0,0,0,2.52-1.245,1.11,1.11,0,0,0,1.3,1.11,4.564,4.564,0,0,0,.66-0.045V20.591H88.358Zm-3.99.135a1.282,1.282,0,0,1-1.545-1.275c0-.75.39-1.23,1.8-1.395l1.125-.135a2,2,0,0,0,1.02-.33v0.915A2.223,2.223,0,0,1,84.368,20.725Zm9.18-7.02a2.7,2.7,0,0,0-2.49,1.485V13.826h-1.14v7.74h1.2v-4.41c0-1.5.99-2.28,2.535-2.28h0.3V13.721C93.788,13.706,93.668,13.706,93.548,13.706Zm5.145,1.17v-1.05H97.1v-2.19H95.9v2.19H94.628v1.05H95.9v5.13c0,1.185.735,1.6,1.935,1.6q0.36,0,.855-0.045v-1h-0.7c-0.69,0-.885-0.255-0.885-0.66V14.876h1.59Zm8.07-1.23a3.042,3.042,0,0,0-2.655,1.38v-1.2h-1.14v10.68h1.2v-4.05a3.041,3.041,0,0,0,2.595,1.29c2.175,0,3.6-1.575,3.6-4.05S108.938,13.646,106.763,13.646Zm-0.15,7.02c-1.5,0-2.49-1.1-2.49-2.97s0.99-2.97,2.49-2.97,2.49,1.035,2.49,2.91S108.113,20.666,106.613,20.666Zm6.99,0.945a7.625,7.625,0,0,0,.765-0.045v-1H113.8a0.6,0.6,0,0,1-.735-0.66V10.886h-1.2v9.12A1.466,1.466,0,0,0,113.6,21.61Zm6.99-7.785v4.38a2.2,2.2,0,0,1-2.13,2.46,1.552,1.552,0,0,1-1.77-1.725V13.826h-1.2v5.235a2.468,2.468,0,0,0,2.73,2.685,2.852,2.852,0,0,0,2.43-1.335v1.155h1.139v-7.74h-1.2Zm8.954,0v1.125a3.124,3.124,0,0,0-2.655-1.3c-2.174,0-3.6,1.575-3.6,4.05s1.425,4.05,3.6,4.05a3.128,3.128,0,0,0,2.595-1.23v0.75a2.141,2.141,0,0,1-2.4,2.4c-1.214,0-1.949-.495-2.1-1.47h-1.2c0.165,1.5,1.32,2.49,3.3,2.49,2.445,0,3.6-1.41,3.6-3.42v-7.44h-1.14Zm-2.5,6.84c-1.5,0-2.489-1.155-2.489-2.97s0.99-2.97,2.489-2.97,2.49,1.095,2.49,2.97S128.542,20.666,127.042,20.666Zm8.25,1.08c1.905,0,3.075-.84,3.075-2.31,0-1.26-.765-1.9-2.67-2.28l-0.69-.135c-0.989-.2-1.559-0.465-1.559-1.2,0-.72.585-1.14,1.619-1.14,1.185,0,1.89.33,1.95,1.53h1.2c-0.03-1.65-1.08-2.565-3.15-2.565-1.769,0-2.819.87-2.819,2.19,0,1.2.735,1.965,2.415,2.28l0.719,0.135c1.35,0.255,1.77.57,1.77,1.26,0,0.765-.555,1.2-1.86,1.2-1.364,0-1.934-.435-2.069-1.6h-1.215C132.128,20.92,133.328,21.745,135.292,21.745ZM22.779,39.565l-2.07-2.31a7.244,7.244,0,0,0,.645-2.85H20.139a5.769,5.769,0,0,1-.3,1.875l-2.22-2.475c1.35-.78,2.19-1.755,2.19-2.85a2.377,2.377,0,0,0-2.61-2.31A2.389,2.389,0,0,0,14.574,31,3.927,3.927,0,0,0,15.849,33.6c-1.59.885-2.49,1.725-2.49,3.24a2.981,2.981,0,0,0,3.225,2.97,4.3,4.3,0,0,0,3.45-1.5l1.125,1.26h1.62Zm-5.595-9.84A1.3,1.3,0,0,1,18.549,31c0,0.825-.57,1.41-1.635,2.01A3.4,3.4,0,0,1,15.834,31,1.248,1.248,0,0,1,17.184,29.726Zm-0.525,8.94a1.906,1.906,0,0,1-2.025-1.89c0-1.17.75-1.755,1.92-2.385l2.685,3.015A3.08,3.08,0,0,1,16.659,38.666Zm13.815-7.02a3.04,3.04,0,0,0-2.595,1.29v-4.05h-1.2v10.68h1.14v-1.2a3.043,3.043,0,0,0,2.655,1.38c2.175,0,3.6-1.575,3.6-4.05S32.649,31.646,30.474,31.646Zm-0.15,7.02c-1.5,0-2.49-1.095-2.49-2.97s0.99-2.97,2.49-2.97,2.49,1.035,2.49,2.91S31.824,38.666,30.324,38.666Zm10.35-6.84v4.38a2.2,2.2,0,0,1-2.13,2.46,1.552,1.552,0,0,1-1.77-1.725V31.826h-1.2v5.235a2.468,2.468,0,0,0,2.73,2.685,2.851,2.851,0,0,0,2.43-1.335v1.155h1.14v-7.74h-1.2Zm4.815,7.785a7.625,7.625,0,0,0,.765-0.045v-1h-0.57a0.6,0.6,0,0,1-.735-0.66V28.886h-1.2v9.12A1.466,1.466,0,0,0,45.489,39.61Zm5.685-7.965a3.04,3.04,0,0,0-2.595,1.29v-4.05h-1.2v10.68h1.14v-1.2a3.042,3.042,0,0,0,2.655,1.38c2.175,0,3.6-1.575,3.6-4.05S53.348,31.646,51.174,31.646Zm-0.15,7.02c-1.5,0-2.49-1.095-2.49-2.97s0.99-2.97,2.49-2.97,2.49,1.035,2.49,2.91S52.523,38.666,51.024,38.666ZM59,39.745c1.9,0,3.075-.84,3.075-2.31,0-1.26-.765-1.9-2.67-2.28l-0.69-.135c-0.99-.2-1.56-0.465-1.56-1.2,0-.72.585-1.14,1.62-1.14,1.185,0,1.89.33,1.95,1.53h1.2c-0.03-1.65-1.08-2.565-3.15-2.565-1.77,0-2.82.87-2.82,2.19,0,1.2.735,1.965,2.415,2.28l0.72,0.135c1.35,0.255,1.77.57,1.77,1.26,0,0.765-.555,1.2-1.86,1.2-1.365,0-1.935-.435-2.07-1.6H55.719C55.839,38.92,57.039,39.745,59,39.745Zm12.465-.18h1.395l-3.15-4.95,2.94-2.79h-1.59l-3.585,3.465v-6.4h-1.2v10.68h1.2V36.7l1.38-1.29Zm9.195-3.87c0-2.22-1.245-4.05-3.555-4.05-2.145,0-3.57,1.62-3.57,4.05,0,2.5,1.485,4.05,3.6,4.05a3.229,3.229,0,0,0,3.33-2.535H79.223a1.988,1.988,0,0,1-2.055,1.44c-1.35,0-2.265-.8-2.385-2.535h5.88V35.7Zm-3.555-2.955a2.27,2.27,0,0,1,2.265,2.295h-4.56A2.276,2.276,0,0,1,77.108,32.741Zm10.71,7c1.905,0,3.075-.84,3.075-2.31,0-1.26-.765-1.9-2.67-2.28l-0.69-.135c-0.99-.2-1.56-0.465-1.56-1.2,0-.72.585-1.14,1.62-1.14,1.185,0,1.89.33,1.95,1.53h1.2c-0.03-1.65-1.08-2.565-3.15-2.565-1.77,0-2.82.87-2.82,2.19,0,1.2.735,1.965,2.415,2.28l0.72,0.135c1.35,0.255,1.77.57,1.77,1.26,0,0.765-.555,1.2-1.86,1.2-1.365,0-1.935-.435-2.07-1.6H84.533C84.653,38.92,85.853,39.745,87.818,39.745ZM98.5,38.591a0.355,0.355,0,0,1-.42-0.375V33.9c0-1.3-.765-2.25-2.91-2.25-2.265,0-3.06,1.065-3.15,2.565h1.2c0.075-1.155.63-1.53,1.95-1.53s1.74,0.405,1.74,1.215a1.078,1.078,0,0,1-1.215,1.065l-1.11.12c-2.13.225-2.865,1.185-2.865,2.4,0,1.455,1.05,2.265,2.73,2.265a2.837,2.837,0,0,0,2.52-1.245,1.11,1.11,0,0,0,1.3,1.11,4.564,4.564,0,0,0,.66-0.045V38.591H98.5Zm-3.99.135a1.282,1.282,0,0,1-1.545-1.275c0-.75.39-1.23,1.8-1.395l1.125-.135a2,2,0,0,0,1.02-.33v0.915A2.223,2.223,0,0,1,94.508,38.725Zm11.88-.135a0.355,0.355,0,0,1-.42-0.375V33.9c0-1.3-.765-2.25-2.91-2.25-2.265,0-3.06,1.065-3.15,2.565h1.2c0.075-1.155.63-1.53,1.95-1.53s1.74,0.405,1.74,1.215a1.078,1.078,0,0,1-1.215,1.065l-1.11.12c-2.13.225-2.865,1.185-2.865,2.4,0,1.455,1.05,2.265,2.73,2.265a2.837,2.837,0,0,0,2.52-1.245,1.11,1.11,0,0,0,1.3,1.11,4.564,4.564,0,0,0,.66-0.045V38.591h-0.435Zm-3.99.135a1.282,1.282,0,0,1-1.545-1.275c0-.75.39-1.23,1.8-1.395l1.125-.135a2,2,0,0,0,1.02-.33v0.915A2.223,2.223,0,0,1,102.4,38.725Zm8.94-5.85v-1.05h-1.59v-2.19h-1.2v2.19h-1.275v1.05h1.275v5.13c0,1.185.735,1.6,1.935,1.6q0.36,0,.855-0.045v-1h-0.7c-0.69,0-.885-0.255-0.885-0.66V32.876h1.59Zm4.92-1.23a2.851,2.851,0,0,0-2.37,1.245v-4h-1.2v10.68h1.2v-4.38a2.2,2.2,0,0,1,2.13-2.46,1.552,1.552,0,0,1,1.77,1.725v5.115h1.2V34.331A2.467,2.467,0,0,0,116.258,31.646Zm5.28,8.025a0.862,0.862,0,0,0,.855-0.885,0.878,0.878,0,0,0-1.755,0A0.863,0.863,0,0,0,121.538,39.67Z"/>
</svg>
