<svg xmlns="http://www.w3.org/2000/svg" width="600" height="100" viewBox="0 0 600 100">
  <defs>
    <style>
      .cls-1 {
        fill: #59595b;
        fill-rule: evenodd;
      }
    </style>
  </defs>
  <path id="_On_36_mo._plan._Conditions_apply." data-name="*On 36 mo. plan. Conditions apply." class="cls-1" d="M22.892,84.585a12.171,12.171,0,0,0-.973,1.107l0.691,0.5a9.45,9.45,0,0,0,.762-1.26,14.5,14.5,0,0,0,.8,1.26l0.7-.5a9.814,9.814,0,0,0-1.008-1.107,7.286,7.286,0,0,0,1.459-.328l-0.27-.832a10.153,10.153,0,0,0-1.383.563q0.117-.873.135-1.453h-0.85q0.006,0.4.117,1.459a9.019,9.019,0,0,0-1.354-.568l-0.27.832q0.68,0.182,1.436.328h0Zm4.224,4.647a3.771,3.771,0,0,0,1.447,1.6,4.061,4.061,0,0,0,2.168.586,4.268,4.268,0,0,0,2.086-.53,3.6,3.6,0,0,0,1.494-1.561,5.062,5.062,0,0,0,.527-2.338,5.148,5.148,0,0,0-.5-2.306A3.713,3.713,0,0,0,32.882,83.1a4.114,4.114,0,0,0-2.145-.568,3.905,3.905,0,0,0-2.965,1.21,4.668,4.668,0,0,0-1.148,3.349A4.848,4.848,0,0,0,27.117,89.232Zm1.55-4.9a2.907,2.907,0,0,1,2.077-.829,2.811,2.811,0,0,1,1.532.431,2.725,2.725,0,0,1,1.037,1.213,4.4,4.4,0,0,1,.355,1.831,3.648,3.648,0,0,1-.829,2.56,2.913,2.913,0,0,1-4.207.009A3.441,3.441,0,0,1,27.8,87.1,3.7,3.7,0,0,1,28.666,84.336Zm8.987,6.935v-3.4a2.11,2.11,0,0,1,.489-1.623,1.709,1.709,0,0,1,1.163-.428,1.389,1.389,0,0,1,.735.191,1.015,1.015,0,0,1,.436.51,2.843,2.843,0,0,1,.123.964v3.785h1.055V87.445a6.046,6.046,0,0,0-.059-1.025,2.036,2.036,0,0,0-.328-0.779,1.628,1.628,0,0,0-.706-0.53,2.6,2.6,0,0,0-1.034-.2,2.237,2.237,0,0,0-1.98,1.025V85.048H36.6v6.223h1.055Zm9.639-.521a2.7,2.7,0,0,0,1.878.674,2.886,2.886,0,0,0,2.074-.782,2.536,2.536,0,0,0,.82-1.907,2.221,2.221,0,0,0-.422-1.386,1.994,1.994,0,0,0-1.184-.73,2.04,2.04,0,0,0,.885-0.726,1.813,1.813,0,0,0,.3-1.014,2.116,2.116,0,0,0-.313-1.107,2.184,2.184,0,0,0-.905-0.823,2.809,2.809,0,0,0-1.295-.3,2.541,2.541,0,0,0-1.705.583,2.711,2.711,0,0,0-.879,1.643L47.6,85.06a1.941,1.941,0,0,1,.527-1.16,1.436,1.436,0,0,1,1.025-.387,1.4,1.4,0,0,1,1.014.381,1.283,1.283,0,0,1,.393.961,1.2,1.2,0,0,1-.539,1.084,2.172,2.172,0,0,1-1.213.352,1.615,1.615,0,0,1-.17-0.012L48.52,87.2a3.029,3.029,0,0,1,.744-0.117,1.641,1.641,0,0,1,1.207.472,1.618,1.618,0,0,1,.475,1.2,1.74,1.74,0,0,1-.513,1.277,1.7,1.7,0,0,1-1.257.516,1.527,1.527,0,0,1-1.064-.4,2.323,2.323,0,0,1-.618-1.292L46.44,89A2.606,2.606,0,0,0,47.292,90.749Zm10.993-7.535a2.426,2.426,0,0,0-1.661-.568,2.645,2.645,0,0,0-2.162.984,5.73,5.73,0,0,0-.92,3.621,4.9,4.9,0,0,0,.832,3.2,2.7,2.7,0,0,0,2.15.97,2.616,2.616,0,0,0,1.383-.369,2.54,2.54,0,0,0,.958-1.064,3.3,3.3,0,0,0,.349-1.5,2.787,2.787,0,0,0-.741-2.007,2.391,2.391,0,0,0-1.8-.776,2.506,2.506,0,0,0-1.154.281,2.444,2.444,0,0,0-.932.861,5.543,5.543,0,0,1,.3-1.986,2.4,2.4,0,0,1,.785-1.06,1.449,1.449,0,0,1,.885-0.281,1.4,1.4,0,0,1,1.055.451,1.987,1.987,0,0,1,.4.9l1.049-.082A2.414,2.414,0,0,0,58.285,83.214Zm-3.032,3.929a1.627,1.627,0,0,1,1.213-.513,1.56,1.56,0,0,1,1.2.513,1.986,1.986,0,0,1,.475,1.4,2.122,2.122,0,0,1-.48,1.465,1.488,1.488,0,0,1-1.148.539,1.618,1.618,0,0,1-.873-0.261,1.724,1.724,0,0,1-.648-0.759,2.445,2.445,0,0,1-.231-1.043A1.848,1.848,0,0,1,55.253,87.143Zm9.811,4.128V88.042a3.859,3.859,0,0,1,.17-1.3,1.33,1.33,0,0,1,.548-0.686,1.533,1.533,0,0,1,.823-0.234,0.977,0.977,0,0,1,.844.352,1.779,1.779,0,0,1,.258,1.055v4.043h1.055V87.656a1.922,1.922,0,0,1,.434-1.4,1.473,1.473,0,0,1,1.09-.437,1.161,1.161,0,0,1,.633.17,0.883,0.883,0,0,1,.372.448,2.888,2.888,0,0,1,.1.911v3.92h1.049V87a2.191,2.191,0,0,0-.5-1.579,1.894,1.894,0,0,0-1.424-.513A2.234,2.234,0,0,0,68.6,86a1.537,1.537,0,0,0-.624-0.8,2.047,2.047,0,0,0-1.134-.287,2.19,2.19,0,0,0-1.107.278,2.218,2.218,0,0,0-.779.735V85.048H64.01v6.223h1.055Zm9.694-.7a2.8,2.8,0,0,0,2.112.838,3.054,3.054,0,0,0,1.5-.381,2.551,2.551,0,0,0,1.049-1.069,4.117,4.117,0,0,0,.36-1.89,3.2,3.2,0,0,0-.814-2.323,2.792,2.792,0,0,0-2.1-.841,2.9,2.9,0,0,0-1.957.691,3.207,3.207,0,0,0-.961,2.561A3.347,3.347,0,0,0,74.758,90.574Zm0.8-4.2a1.739,1.739,0,0,1,2.616,0,2.571,2.571,0,0,1,.524,1.749,2.713,2.713,0,0,1-.522,1.822,1.736,1.736,0,0,1-2.619,0A3.328,3.328,0,0,1,75.558,86.372Zm7.093,4.9v-1.2h-1.2v1.2h1.2Zm6.343,2.385V90.626a2.153,2.153,0,0,0,.689.563,1.985,1.985,0,0,0,.946.223A2.606,2.606,0,0,0,93,89.832a4.16,4.16,0,0,0,.343-1.72,4.225,4.225,0,0,0-.311-1.638,2.518,2.518,0,0,0-.92-1.157,2.46,2.46,0,0,0-1.406-.41,2.109,2.109,0,0,0-1.037.237,2.368,2.368,0,0,0-.767.712V85.048H87.939v8.607h1.055Zm0.419-7.292a1.519,1.519,0,0,1,1.192-.63,1.473,1.473,0,0,1,1.169.592,2.75,2.75,0,0,1,.489,1.781,2.822,2.822,0,0,1-.5,1.843,1.525,1.525,0,0,1-1.2.595,1.491,1.491,0,0,1-1.178-.574,2.706,2.706,0,0,1-.486-1.775A2.819,2.819,0,0,1,89.413,86.364Zm6.555,4.907v-8.59H94.914v8.59h1.055Zm6.192,0h1.1A2.345,2.345,0,0,1,103,90.524a14.939,14.939,0,0,1-.067-1.86V87.257a5.949,5.949,0,0,0-.053-0.973,1.668,1.668,0,0,0-.328-0.718,1.713,1.713,0,0,0-.733-0.472,3.735,3.735,0,0,0-1.295-.187,4.154,4.154,0,0,0-1.412.22,2.028,2.028,0,0,0-.932.627,2.554,2.554,0,0,0-.463,1.069l1.031,0.141a1.593,1.593,0,0,1,.524-0.923,1.863,1.863,0,0,1,1.1-.261,1.764,1.764,0,0,1,1.2.358,1.165,1.165,0,0,1,.3.908q0,0.059-.006.275a9.62,9.62,0,0,1-1.881.363,7.551,7.551,0,0,0-.937.158,2.564,2.564,0,0,0-.759.346,1.722,1.722,0,0,0-.545.606,1.7,1.7,0,0,0-.208.835,1.654,1.654,0,0,0,.551,1.28,2.262,2.262,0,0,0,1.576.5,3.258,3.258,0,0,0,1.163-.205,3.937,3.937,0,0,0,1.128-.7,2.239,2.239,0,0,0,.211.768h0Zm-0.3-2.736a2.535,2.535,0,0,1-.17,1.055,1.641,1.641,0,0,1-.7.73,2.174,2.174,0,0,1-1.084.267,1.374,1.374,0,0,1-.934-0.281,0.932,0.932,0,0,1-.173-1.2,0.917,0.917,0,0,1,.416-0.343,3.987,3.987,0,0,1,.92-0.211,7.74,7.74,0,0,0,1.722-.4v0.387Zm4.042,2.736v-3.4a2.111,2.111,0,0,1,.489-1.623,1.709,1.709,0,0,1,1.163-.428,1.388,1.388,0,0,1,.735.191,1.015,1.015,0,0,1,.437.51,2.843,2.843,0,0,1,.123.964v3.785h1.055V87.445a6.035,6.035,0,0,0-.059-1.025,2.047,2.047,0,0,0-.328-0.779,1.628,1.628,0,0,0-.706-0.53,2.6,2.6,0,0,0-1.034-.2,2.237,2.237,0,0,0-1.981,1.025V85.048h-0.949v6.223H105.9Zm7.337,0v-1.2h-1.2v1.2h1.2ZM123.9,89.894a2.443,2.443,0,0,1-1.617.551,2.786,2.786,0,0,1-1.459-.4,2.38,2.38,0,0,1-.993-1.222,5.239,5.239,0,0,1-.319-1.913,5.149,5.149,0,0,1,.269-1.649,2.505,2.505,0,0,1,.935-1.274,2.776,2.776,0,0,1,1.655-.475,2.313,2.313,0,0,1,1.43.428,2.653,2.653,0,0,1,.867,1.365l1.119-.264a3.406,3.406,0,0,0-1.225-1.846,3.517,3.517,0,0,0-2.167-.656,4.267,4.267,0,0,0-2.084.519,3.511,3.511,0,0,0-1.458,1.518,5.059,5.059,0,0,0-.513,2.341,5.838,5.838,0,0,0,.454,2.3,3.532,3.532,0,0,0,1.324,1.638,4.08,4.08,0,0,0,2.259.565,3.543,3.543,0,0,0,2.27-.735,3.826,3.826,0,0,0,1.287-2.136l-1.137-.287A2.814,2.814,0,0,1,123.9,89.894Zm4.141,0.68a2.8,2.8,0,0,0,2.112.838,3.054,3.054,0,0,0,1.5-.381,2.549,2.549,0,0,0,1.049-1.069,4.12,4.12,0,0,0,.36-1.89,3.2,3.2,0,0,0-.814-2.323,2.794,2.794,0,0,0-2.1-.841,2.894,2.894,0,0,0-1.957.691,3.206,3.206,0,0,0-.961,2.561A3.347,3.347,0,0,0,128.036,90.574Zm0.8-4.2a1.74,1.74,0,0,1,2.617,0,2.574,2.574,0,0,1,.524,1.749,2.717,2.717,0,0,1-.521,1.822,1.737,1.737,0,0,1-2.62,0A3.331,3.331,0,0,1,128.835,86.372Zm6.851,4.9v-3.4a2.111,2.111,0,0,1,.489-1.623,1.709,1.709,0,0,1,1.163-.428,1.39,1.39,0,0,1,.736.191,1.013,1.013,0,0,1,.436.51,2.843,2.843,0,0,1,.123.964v3.785h1.055V87.445a6.035,6.035,0,0,0-.059-1.025,2.032,2.032,0,0,0-.328-0.779,1.628,1.628,0,0,0-.706-0.53,2.6,2.6,0,0,0-1.034-.2,2.238,2.238,0,0,0-1.981,1.025V85.048h-0.949v6.223h1.055Zm10.947,0v-8.59h-1.049v3.082a2.1,2.1,0,0,0-.715-0.618,2.075,2.075,0,0,0-1-.237,2.49,2.49,0,0,0-1.389.4,2.448,2.448,0,0,0-.931,1.163,4.425,4.425,0,0,0-.311,1.69,3.951,3.951,0,0,0,.343,1.69A2.693,2.693,0,0,0,142.546,91a2.44,2.44,0,0,0,1.368.41,1.935,1.935,0,0,0,1.74-.926v0.785h0.979Zm-3.841-4.916a1.461,1.461,0,0,1,1.175-.574,1.516,1.516,0,0,1,1.213.6,2.927,2.927,0,0,1,.492,1.875,2.6,2.6,0,0,1-.484,1.726,1.491,1.491,0,0,1-1.174.565,1.519,1.519,0,0,1-1.19-.592,2.7,2.7,0,0,1-.5-1.787A2.831,2.831,0,0,1,142.792,86.355Zm6.813-2.461V82.681H148.55v1.213H149.6Zm0,7.377V85.048H148.55v6.223H149.6Zm3.731-.9a0.7,0.7,0,0,1-.361-0.076,0.437,0.437,0,0,1-.181-0.2,1.807,1.807,0,0,1-.056-0.58V85.868h1.06v-0.82h-1.06V82.874l-1.049.633v1.541h-0.773v0.82h0.773v3.58a3.773,3.773,0,0,0,.129,1.245,1.016,1.016,0,0,0,.445.478,1.806,1.806,0,0,0,.891.182,3.918,3.918,0,0,0,.8-0.094l-0.153-.932a3.407,3.407,0,0,1-.462.041h0Zm2.9-6.475V82.681h-1.055v1.213h1.055Zm0,7.377V85.048h-1.055v6.223h1.055Zm2.369-.7a2.8,2.8,0,0,0,2.112.838,3.054,3.054,0,0,0,1.5-.381,2.549,2.549,0,0,0,1.049-1.069,4.12,4.12,0,0,0,.36-1.89,3.2,3.2,0,0,0-.814-2.323,2.792,2.792,0,0,0-2.1-.841,2.894,2.894,0,0,0-1.957.691,3.206,3.206,0,0,0-.961,2.561A3.347,3.347,0,0,0,158.6,90.574Zm0.8-4.2a1.738,1.738,0,0,1,2.616,0,2.574,2.574,0,0,1,.524,1.749,2.717,2.717,0,0,1-.521,1.822,1.736,1.736,0,0,1-2.619,0A3.325,3.325,0,0,1,159.405,86.372Zm6.85,4.9v-3.4a2.111,2.111,0,0,1,.489-1.623,1.709,1.709,0,0,1,1.163-.428,1.39,1.39,0,0,1,.736.191,1.013,1.013,0,0,1,.436.51,2.843,2.843,0,0,1,.123.964v3.785h1.055V87.445a6.035,6.035,0,0,0-.059-1.025,2.032,2.032,0,0,0-.328-0.779,1.622,1.622,0,0,0-.706-0.53,2.6,2.6,0,0,0-1.034-.2,2.236,2.236,0,0,0-1.98,1.025V85.048H165.2v6.223h1.055Zm6.285-.363a2.923,2.923,0,0,0,1.848.5,3.233,3.233,0,0,0,1.313-.255,1.987,1.987,0,0,0,.888-0.721,1.771,1.771,0,0,0,.307-0.993,1.545,1.545,0,0,0-.252-0.9,1.583,1.583,0,0,0-.694-0.554,13,13,0,0,0-1.562-.489c-0.515-.141-0.826-0.23-0.931-0.269a0.93,0.93,0,0,1-.405-0.281,0.586,0.586,0,0,1-.128-0.369,0.7,0.7,0,0,1,.31-0.562,1.725,1.725,0,0,1,1.037-.24,1.489,1.489,0,0,1,.952.27,1.128,1.128,0,0,1,.408.75l1.031-.141a2.25,2.25,0,0,0-.363-0.964,1.753,1.753,0,0,0-.818-0.571,3.6,3.6,0,0,0-1.286-.211,3.189,3.189,0,0,0-.911.126,2.176,2.176,0,0,0-.671.308,1.707,1.707,0,0,0-.519.589,1.614,1.614,0,0,0-.19.771,1.538,1.538,0,0,0,.911,1.427,9.825,9.825,0,0,0,1.609.507,4.585,4.585,0,0,1,1.078.358,0.64,0.64,0,0,1,.31.563,0.885,0.885,0,0,1-.351.694,1.65,1.65,0,0,1-1.078.3,1.7,1.7,0,0,1-1.122-.334,1.458,1.458,0,0,1-.49-0.961l-1.043.164A2.342,2.342,0,0,0,172.54,90.908Zm13.336,0.363h1.1a2.319,2.319,0,0,1-.266-0.747,14.859,14.859,0,0,1-.068-1.86V87.257a5.834,5.834,0,0,0-.053-0.973,1.645,1.645,0,0,0-.328-0.718,1.7,1.7,0,0,0-.732-0.472,3.739,3.739,0,0,0-1.295-.187,4.154,4.154,0,0,0-1.412.22,2.032,2.032,0,0,0-.932.627,2.556,2.556,0,0,0-.463,1.069l1.032,0.141a1.593,1.593,0,0,1,.524-0.923,1.864,1.864,0,0,1,1.1-.261,1.766,1.766,0,0,1,1.2.358,1.165,1.165,0,0,1,.3.908q0,0.059-.006.275a9.651,9.651,0,0,1-1.881.363,7.566,7.566,0,0,0-.938.158,2.557,2.557,0,0,0-.758.346,1.735,1.735,0,0,0-.753,1.441,1.654,1.654,0,0,0,.55,1.28,2.265,2.265,0,0,0,1.577.5,3.262,3.262,0,0,0,1.163-.205,3.937,3.937,0,0,0,1.128-.7,2.217,2.217,0,0,0,.211.768h0Zm-0.3-2.736a2.552,2.552,0,0,1-.17,1.055,1.646,1.646,0,0,1-.7.73,2.177,2.177,0,0,1-1.084.267,1.374,1.374,0,0,1-.935-0.281,0.934,0.934,0,0,1-.173-1.2,0.918,0.918,0,0,1,.416-0.343,4,4,0,0,1,.92-0.211,7.737,7.737,0,0,0,1.723-.4v0.387Zm4.041,5.121V90.626a2.152,2.152,0,0,0,.689.563,1.982,1.982,0,0,0,.946.223,2.605,2.605,0,0,0,2.37-1.579,4.152,4.152,0,0,0,.343-1.72,4.226,4.226,0,0,0-.311-1.638,2.513,2.513,0,0,0-.92-1.157,2.459,2.459,0,0,0-1.406-.41,2.109,2.109,0,0,0-1.037.237,2.363,2.363,0,0,0-.767.712V85.048h-0.961v8.607h1.054Zm0.419-7.292a1.519,1.519,0,0,1,1.193-.63,1.474,1.474,0,0,1,1.169.592,2.75,2.75,0,0,1,.489,1.781,2.822,2.822,0,0,1-.5,1.843,1.526,1.526,0,0,1-1.2.595,1.491,1.491,0,0,1-1.178-.574,2.708,2.708,0,0,1-.486-1.775A2.823,2.823,0,0,1,190.037,86.364Zm6.573,7.292V90.626a2.152,2.152,0,0,0,.689.563,1.982,1.982,0,0,0,.946.223A2.56,2.56,0,0,0,199.619,91a2.59,2.59,0,0,0,1-1.172,4.168,4.168,0,0,0,.343-1.72,4.226,4.226,0,0,0-.311-1.638,2.519,2.519,0,0,0-.92-1.157,2.459,2.459,0,0,0-1.406-.41,2.109,2.109,0,0,0-1.037.237,2.376,2.376,0,0,0-.768.712V85.048h-0.961v8.607h1.055Zm0.419-7.292a1.519,1.519,0,0,1,1.192-.63,1.471,1.471,0,0,1,1.169.592,2.75,2.75,0,0,1,.49,1.781,2.822,2.822,0,0,1-.5,1.843,1.526,1.526,0,0,1-1.2.595A1.491,1.491,0,0,1,197,89.97a2.708,2.708,0,0,1-.487-1.775A2.817,2.817,0,0,1,197.029,86.364Zm6.555,4.907v-8.59H202.53v8.59h1.054Zm2.543,2.525a1.522,1.522,0,0,0,.867-0.243,2.091,2.091,0,0,0,.645-0.765,12.6,12.6,0,0,0,.591-1.412l2.368-6.328h-1.055l-1.33,3.627a14.161,14.161,0,0,0-.434,1.418q-0.2-.756-0.451-1.441l-1.3-3.6H204.9l2.362,6.234c-0.043.113-.075,0.2-0.094,0.258a5.3,5.3,0,0,1-.322.785,0.958,0.958,0,0,1-.346.328,1.16,1.16,0,0,1-.563.117,2.35,2.35,0,0,1-.6-0.094l0.117,0.99a2.116,2.116,0,0,0,.68.129h0Zm6.547-2.525v-1.2h-1.2v1.2h1.2Z"/>
</svg>
