<svg id="F1" xmlns="http://www.w3.org/2000/svg" width="600" height="100" viewBox="0 0 600 100">
  <defs>
    <style>
      .cls-1 {
        fill: #462b69;
        fill-rule: evenodd;
      }
    </style>
  </defs>
  <path id="Palaki_ng_palaki_ang_selebrasyon_" data-name="Palaki ng palaki  ang selebrasyon " class="cls-1" d="M32.53,21.6H23.076V44.379h2.683V35.611H32.53c5.046,0,7.538-2.912,7.538-7.008S37.576,21.6,32.53,21.6Zm0,11.584H25.759V24.028H32.53c3.194,0,4.759,1.7,4.759,4.576S35.724,33.179,32.53,33.179ZM55.488,42.3a0.756,0.756,0,0,1-.894-0.8V32.283c0-2.784-1.629-4.8-6.2-4.8-4.823,0-6.516,2.272-6.707,5.472h2.555c0.16-2.464,1.341-3.264,4.152-3.264s3.7,0.864,3.7,2.592c0,1.472-.926,2.08-2.587,2.272l-2.364.256c-4.535.48-6.1,2.528-6.1,5.12,0,3.1,2.236,4.832,5.813,4.832a6.037,6.037,0,0,0,5.366-2.656c0.128,1.568.958,2.368,2.779,2.368a9.7,9.7,0,0,0,1.405-.1V42.3H55.488Zm-8.5.288c-2.268,0-3.29-1.088-3.29-2.72,0-1.6.83-2.624,3.833-2.976l2.4-.288a4.247,4.247,0,0,0,2.172-.7v1.952C52.1,41.115,49.452,42.587,46.992,42.587ZM61.8,44.475a16.2,16.2,0,0,0,1.629-.1V42.235H62.218c-1.214,0-1.565-.544-1.565-1.408V21.6H58.1V41.051C58.1,43.579,59.5,44.475,61.8,44.475ZM78.91,42.3a0.756,0.756,0,0,1-.894-0.8V32.283c0-2.784-1.629-4.8-6.2-4.8-4.823,0-6.516,2.272-6.707,5.472h2.555c0.16-2.464,1.341-3.264,4.152-3.264s3.7,0.864,3.7,2.592c0,1.472-.926,2.08-2.587,2.272l-2.364.256c-4.535.48-6.1,2.528-6.1,5.12,0,3.1,2.236,4.832,5.813,4.832a6.037,6.037,0,0,0,5.366-2.656c0.128,1.568.958,2.368,2.779,2.368a9.7,9.7,0,0,0,1.405-.1V42.3H78.91Zm-8.5.288c-2.268,0-3.29-1.088-3.29-2.72,0-1.6.83-2.624,3.833-2.976l2.4-.288a4.247,4.247,0,0,0,2.172-.7v1.952C75.524,41.115,72.873,42.587,70.414,42.587Zm22.323,1.792h2.97L89,33.819l6.26-5.952H91.874l-7.633,7.392V21.6H81.686V44.379h2.555V38.267l2.938-2.752ZM98.6,25.532A1.728,1.728,0,1,0,96.873,23.8,1.739,1.739,0,0,0,98.6,25.532ZM97.32,44.379h2.555V27.867H97.32V44.379Zm20.058-16.9a6.07,6.07,0,0,0-5.175,2.848V27.867h-2.427V44.379h2.555V35.035c0-3.648,2.4-5.248,4.536-5.248,2.363,0,3.768,1.12,3.768,3.68V44.379h2.555V33.211C123.19,29.563,121.05,27.484,117.378,27.484Zm21.667,0.384v2.4a6.646,6.646,0,0,0-5.653-2.784c-4.631,0-7.665,3.36-7.665,8.64s3.034,8.64,7.665,8.64a6.653,6.653,0,0,0,5.525-2.624v1.6c0,3.424-1.82,5.12-5.11,5.12-2.587,0-4.152-1.056-4.471-3.136h-2.555c0.351,3.2,2.81,5.312,7.026,5.312,5.206,0,7.666-3.008,7.666-7.3V27.867h-2.428Zm-5.334,14.592c-3.193,0-5.3-2.464-5.3-6.336s2.108-6.336,5.3-6.336,5.3,2.336,5.3,6.336S136.905,42.459,133.711,42.459Zm25.744-14.975a6.476,6.476,0,0,0-5.654,2.944v-2.56h-2.427V50.651h2.555v-8.64a6.47,6.47,0,0,0,5.526,2.752c4.631,0,7.665-3.36,7.665-8.64S164.086,27.484,159.455,27.484Zm-0.32,14.975c-3.194,0-5.3-2.336-5.3-6.336s2.108-6.336,5.3-6.336,5.3,2.208,5.3,6.208S162.329,42.459,159.135,42.459ZM183.1,42.3a0.756,0.756,0,0,1-.894-0.8V32.283c0-2.784-1.629-4.8-6.2-4.8-4.823,0-6.516,2.272-6.707,5.472h2.555c0.16-2.464,1.341-3.264,4.152-3.264s3.705,0.864,3.705,2.592c0,1.472-.926,2.08-2.587,2.272l-2.364.256c-4.535.48-6.1,2.528-6.1,5.12,0,3.1,2.236,4.832,5.813,4.832a6.038,6.038,0,0,0,5.366-2.656c0.127,1.568.958,2.368,2.778,2.368a9.719,9.719,0,0,0,1.406-.1V42.3H183.1Zm-8.495.288c-2.268,0-3.29-1.088-3.29-2.72,0-1.6.83-2.624,3.833-2.976l2.4-.288a4.248,4.248,0,0,0,2.172-.7v1.952C179.714,41.115,177.063,42.587,174.6,42.587Zm14.81,1.888a16.212,16.212,0,0,0,1.629-.1V42.235h-1.214c-1.213,0-1.565-.544-1.565-1.408V21.6h-2.555V41.051C185.709,43.579,187.115,44.475,189.414,44.475ZM206.521,42.3a0.756,0.756,0,0,1-.894-0.8V32.283c0-2.784-1.629-4.8-6.2-4.8-4.822,0-6.515,2.272-6.707,5.472h2.555c0.16-2.464,1.342-3.264,4.152-3.264s3.7,0.864,3.7,2.592c0,1.472-.926,2.08-2.587,2.272l-2.363.256c-4.536.48-6.1,2.528-6.1,5.12,0,3.1,2.236,4.832,5.813,4.832a6.037,6.037,0,0,0,5.366-2.656c0.128,1.568.958,2.368,2.779,2.368a9.694,9.694,0,0,0,1.405-.1V42.3h-0.926Zm-8.5.288c-2.268,0-3.29-1.088-3.29-2.72,0-1.6.831-2.624,3.833-2.976l2.395-.288a4.245,4.245,0,0,0,2.172-.7v1.952C203.135,41.115,200.484,42.587,198.025,42.587Zm22.323,1.792h2.97l-6.707-10.56,6.26-5.952h-3.386l-7.633,7.392V21.6H209.3V44.379h2.555V38.267l2.938-2.752Zm5.861-18.847a1.728,1.728,0,1,0-1.725-1.728A1.74,1.74,0,0,0,226.209,25.532Zm-1.278,18.847h2.555V27.867h-2.555V44.379ZM36.395,78.136a0.756,0.756,0,0,1-.894-0.8V68.12c0-2.784-1.629-4.8-6.2-4.8-4.823,0-6.515,2.272-6.707,5.472h2.555c0.16-2.464,1.342-3.264,4.152-3.264s3.7,0.864,3.7,2.592c0,1.472-.926,2.08-2.587,2.272l-2.364.256c-4.535.48-6.1,2.528-6.1,5.12,0,3.1,2.236,4.832,5.813,4.832a6.037,6.037,0,0,0,5.366-2.656c0.128,1.568.958,2.368,2.779,2.368a9.7,9.7,0,0,0,1.405-.1v-2.08H36.395Zm-8.5.288c-2.268,0-3.29-1.088-3.29-2.72,0-1.6.83-2.624,3.833-2.976l2.4-.288a4.246,4.246,0,0,0,2.172-.7v1.952C33.009,76.952,30.358,78.424,27.9,78.424Zm18.873-15.1A6.069,6.069,0,0,0,41.6,66.168V63.7H39.17V80.216h2.555V70.872c0-3.648,2.4-5.248,4.535-5.248,2.363,0,3.769,1.12,3.769,3.68V80.216h2.555V69.048C52.585,65.4,50.445,63.32,46.772,63.32ZM68.44,63.7v2.4a6.647,6.647,0,0,0-5.653-2.784c-4.631,0-7.665,3.36-7.665,8.64s3.034,8.64,7.665,8.64a6.655,6.655,0,0,0,5.525-2.624v1.6c0,3.424-1.821,5.12-5.11,5.12-2.587,0-4.152-1.056-4.471-3.136H56.175c0.351,3.2,2.811,5.312,7.026,5.312,5.206,0,7.665-3.008,7.665-7.3V63.7H68.44ZM63.106,78.3c-3.194,0-5.3-2.464-5.3-6.336s2.108-6.336,5.3-6.336,5.3,2.336,5.3,6.336S66.3,78.3,63.106,78.3Zm23.475,2.3c4.056,0,6.547-1.792,6.547-4.928,0-2.688-1.629-4.064-5.685-4.864l-1.469-.288c-2.108-.416-3.322-0.992-3.322-2.56,0-1.536,1.246-2.432,3.449-2.432,2.523,0,4.024.7,4.152,3.264h2.555c-0.064-3.52-2.3-5.472-6.707-5.472-3.769,0-6,1.856-6,4.672,0,2.56,1.565,4.192,5.142,4.864l1.533,0.288c2.874,0.544,3.769,1.216,3.769,2.688,0,1.632-1.182,2.56-3.96,2.56-2.906,0-4.12-.928-4.408-3.424H79.587C79.842,78.84,82.4,80.6,86.581,80.6Zm23.2-8.64c0-4.736-2.651-8.64-7.57-8.64-4.567,0-7.6,3.456-7.6,8.64,0,5.344,3.162,8.64,7.665,8.64a6.878,6.878,0,0,0,7.091-5.408h-2.651a4.235,4.235,0,0,1-4.376,3.072c-2.874,0-4.823-1.7-5.078-5.408h12.52v-0.9Zm-7.57-6.3c2.939,0,4.568,2.176,4.823,4.9H97.326C97.741,67.288,99.625,65.656,102.212,65.656Zm13.741,14.656a16.212,16.212,0,0,0,1.629-.1V78.072h-1.214c-1.213,0-1.565-.544-1.565-1.408V57.433h-2.555V76.888C112.248,79.416,113.653,80.312,115.953,80.312Zm17.218-8.352c0-4.736-2.65-8.64-7.569-8.64-4.567,0-7.6,3.456-7.6,8.64,0,5.344,3.161,8.64,7.665,8.64a6.877,6.877,0,0,0,7.09-5.408H130.1a4.234,4.234,0,0,1-4.375,3.072c-2.875,0-4.823-1.7-5.079-5.408h12.52v-0.9Zm-7.569-6.3c2.938,0,4.567,2.176,4.823,4.9h-9.71C121.131,67.288,123.015,65.656,125.6,65.656Zm18.186-2.336a6.47,6.47,0,0,0-5.525,2.752v-8.64h-2.555V80.216h2.427v-2.56a6.475,6.475,0,0,0,5.653,2.944c4.632,0,7.666-3.36,7.666-8.64S148.42,63.32,143.788,63.32ZM143.469,78.3c-3.194,0-5.3-2.336-5.3-6.336s2.108-6.336,5.3-6.336,5.3,2.208,5.3,6.208S146.663,78.3,143.469,78.3Zm18.305-14.848a5.754,5.754,0,0,0-5.3,3.168V63.7h-2.427V80.216H156.6V70.808c0-3.2,2.108-4.864,5.4-4.864h0.639V63.48C162.285,63.448,162.029,63.448,161.774,63.448Zm16.164,14.688a0.756,0.756,0,0,1-.894-0.8V68.12c0-2.784-1.629-4.8-6.2-4.8-4.823,0-6.516,2.272-6.708,5.472H166.7c0.159-2.464,1.341-3.264,4.152-3.264s3.7,0.864,3.7,2.592c0,1.472-.927,2.08-2.588,2.272l-2.363.256c-4.535.48-6.1,2.528-6.1,5.12,0,3.1,2.235,4.832,5.813,4.832a6.036,6.036,0,0,0,5.365-2.656c0.128,1.568.958,2.368,2.779,2.368a9.694,9.694,0,0,0,1.405-.1v-2.08h-0.926Zm-8.5.288c-2.267,0-3.289-1.088-3.289-2.72,0-1.6.83-2.624,3.832-2.976l2.4-.288a4.247,4.247,0,0,0,2.172-.7v1.952C174.553,76.952,171.9,78.424,169.442,78.424Zm17.2,2.176c4.056,0,6.547-1.792,6.547-4.928,0-2.688-1.629-4.064-5.685-4.864l-1.469-.288c-2.108-.416-3.322-0.992-3.322-2.56,0-1.536,1.246-2.432,3.45-2.432,2.523,0,4.024.7,4.152,3.264h2.555c-0.064-3.52-2.3-5.472-6.707-5.472-3.769,0-6,1.856-6,4.672,0,2.56,1.565,4.192,5.142,4.864l1.533,0.288c2.875,0.544,3.769,1.216,3.769,2.688,0,1.632-1.182,2.56-3.96,2.56-2.907,0-4.12-.928-4.408-3.424h-2.587C179.9,78.84,182.455,80.6,186.639,80.6ZM205.6,63.7l-2.332,6.848c-0.83,2.4-1.629,4.8-2.363,7.168-0.767-2.368-1.533-4.736-2.364-7.136l-2.331-6.88h-2.811l6.2,17.055c-0.191.512-.383,1.056-0.575,1.536a2.887,2.887,0,0,1-3,2.048h-1.5v2.144a12.718,12.718,0,0,0,1.533.1c2.619,0,4.312-.864,5.366-3.776l6.962-19.1H205.6Zm10.888,16.9c4.631,0,7.984-3.36,7.984-8.64s-3.353-8.64-7.984-8.64-7.985,3.36-7.985,8.64S211.852,80.6,216.483,80.6Zm0-2.3c-3.194,0-5.3-2.336-5.3-6.336s2.108-6.336,5.3-6.336,5.3,2.336,5.3,6.336S219.677,78.3,216.483,78.3ZM234.605,63.32a6.07,6.07,0,0,0-5.174,2.848V63.7H227V80.216h2.555V70.872c0-3.648,2.4-5.248,4.535-5.248,2.364,0,3.769,1.12,3.769,3.68V80.216h2.555V69.048C240.418,65.4,238.278,63.32,234.605,63.32Z"/>
</svg>
