<svg id="F2" xmlns="http://www.w3.org/2000/svg" width="600" height="100" viewBox="0 0 600 100">
  <defs>
    <style>
      .cls-1 {
        fill: #462b68;
        fill-rule: evenodd;
      }
    </style>
  </defs>
  <path id="with_TELUS_SmartHome_Security._" data-name="with TELUS SmartHome Security. " class="cls-1" d="M42.942,27.867L40.61,35.323C40,37.307,39.4,39.291,38.854,41.275c-0.575-1.984-1.182-3.968-1.789-5.952l-2.3-7.456H32.083l-2.3,7.456c-0.639,2.016-1.214,4-1.757,6.016-0.575-2.016-1.15-4-1.788-6.016l-2.332-7.456H21.16l5.493,16.512h2.683l2.4-7.648c0.575-1.824,1.15-3.744,1.693-5.6,0.511,1.856,1.086,3.776,1.661,5.6l2.427,7.648H40.2l5.493-16.511H42.942Zm5.673-2.336A1.728,1.728,0,1,0,46.891,23.8,1.74,1.74,0,0,0,48.615,25.532ZM47.338,44.379h2.555V27.867H47.338V44.379ZM60.254,30.107v-2.24H56.868V23.2H54.313v4.672H51.6v2.24h2.715V41.051c0,2.528,1.565,3.424,4.12,3.424q0.766,0,1.82-.1V42.235h-1.5c-1.469,0-1.884-.544-1.884-1.408V30.107h3.386Zm9.575-2.624a6.068,6.068,0,0,0-5.046,2.656V21.6H62.228V44.379h2.555V35.035c0-3.648,2.4-5.248,4.535-5.248,2.364,0,3.769,1.12,3.769,3.68V44.379h2.555V33.211C75.642,29.563,73.5,27.484,69.829,27.484ZM102.5,21.6H84.266v2.432h7.729V44.379h2.779V24.028h7.73V21.6Zm17.713,2.432V21.6H104.407V44.379h15.682V41.947h-13V33.723h11.85V31.291h-11.85V24.028h13.127Zm4.734,17.919V21.6h-2.683V44.379h14.117V41.947H124.95Zm21.3,2.912c5.685,0,8.943-3.232,8.943-8.928V21.6h-2.683V35.931c0,4.48-2.3,6.5-6.26,6.5s-6.26-2.016-6.26-6.5V21.6H137.3V35.931C137.3,41.627,140.562,44.859,146.247,44.859ZM166.9,44.891c5.462,0,8.528-2.656,8.528-6.688,0-3.3-1.852-5.344-7.09-6.5l-2.012-.448c-4.28-.96-5.334-2.048-5.334-4.224,0-2.144,1.693-3.52,4.982-3.52,4.536,0,5.909,1.76,6.132,4.7h2.747c-0.1-3.712-2.172-7.136-8.879-7.136-4.727,0-7.761,2.3-7.761,5.952,0,4.16,3.034,5.728,6.9,6.592l2.012,0.448c4.024,0.9,5.525,1.952,5.525,4.128,0,2.816-2.108,4.256-5.749,4.256-3.7,0-6.611-1.376-6.675-5.6h-2.778C157.509,42.555,161.47,44.891,166.9,44.891ZM31.412,83.291c5.462,0,8.528-2.656,8.528-6.688,0-3.3-1.852-5.344-7.09-6.5l-2.012-.448c-4.28-.96-5.334-2.048-5.334-4.224,0-2.144,1.693-3.52,4.982-3.52,4.535,0,5.909,1.76,6.132,4.7h2.747c-0.1-3.712-2.172-7.136-8.879-7.136-4.727,0-7.761,2.3-7.761,5.952,0,4.16,3.034,5.728,6.9,6.592l2.012,0.448c4.024,0.9,5.525,1.952,5.525,4.128,0,2.816-2.108,4.256-5.749,4.256-3.7,0-6.611-1.376-6.675-5.6H21.958C22.022,80.955,25.983,83.291,31.412,83.291ZM59.8,65.884a5.691,5.691,0,0,0-5.078,3.1,5.16,5.16,0,0,0-5.078-3.1A5.293,5.293,0,0,0,44.881,68.7V66.268H42.454V82.779h2.555V73.755c0-3.968,2.2-5.568,4.216-5.568,2.14,0,3.449,1.088,3.449,3.648V82.779h2.555V73.755c0-3.968,2.14-5.568,4.216-5.568,2.172,0,3.449,1.088,3.449,3.648V82.779H65.45v-11.2C65.45,68.379,63.629,65.884,59.8,65.884ZM82.327,80.7a0.756,0.756,0,0,1-.894-0.8V70.683c0-2.784-1.629-4.8-6.2-4.8-4.823,0-6.516,2.272-6.707,5.472h2.555c0.16-2.464,1.341-3.264,4.152-3.264s3.7,0.864,3.7,2.592c0,1.472-.926,2.08-2.587,2.272l-2.364.256c-4.535.48-6.1,2.528-6.1,5.12,0,3.1,2.236,4.832,5.813,4.832a6.037,6.037,0,0,0,5.366-2.656c0.128,1.568.958,2.368,2.779,2.368a9.7,9.7,0,0,0,1.405-.1V80.7H82.327Zm-8.5.288c-2.268,0-3.29-1.088-3.29-2.72,0-1.6.83-2.624,3.833-2.976L76.77,75a4.246,4.246,0,0,0,2.172-.7v1.952C78.942,79.515,76.291,80.987,73.831,80.987Zm19-14.975a5.754,5.754,0,0,0-5.3,3.168V66.268H85.1V82.779h2.555V73.371c0-3.2,2.108-4.864,5.4-4.864h0.639V66.044C93.343,66.012,93.088,66.012,92.832,66.012Zm10.767,2.5v-2.24h-3.386V61.6H97.658v4.672H94.943v2.24h2.715V79.451c0,2.528,1.565,3.424,4.12,3.424q0.766,0,1.821-.1V80.635h-1.5c-1.469,0-1.885-.544-1.885-1.408V68.507H103.6ZM121.172,60v9.792h-12.68V60h-2.683V82.779h2.683v-10.5h12.68v10.5h2.682V60h-2.682Zm13.456,23.167c4.631,0,7.985-3.36,7.985-8.64s-3.354-8.64-7.985-8.64-7.985,3.36-7.985,8.64S130,83.163,134.628,83.163Zm0-2.3c-3.194,0-5.3-2.336-5.3-6.336s2.108-6.336,5.3-6.336,5.3,2.336,5.3,6.336S137.822,80.859,134.628,80.859Zm27.864-14.975a5.693,5.693,0,0,0-5.079,3.1,5.159,5.159,0,0,0-5.078-3.1,5.292,5.292,0,0,0-4.759,2.816V66.268h-2.427V82.779H147.7V73.755c0-3.968,2.2-5.568,4.216-5.568,2.14,0,3.449,1.088,3.449,3.648V82.779h2.555V73.755c0-3.968,2.14-5.568,4.216-5.568,2.172,0,3.45,1.088,3.45,3.648V82.779h2.555v-11.2C168.145,68.379,166.324,65.884,162.492,65.884Zm23.338,8.64c0-4.736-2.651-8.64-7.569-8.64-4.568,0-7.6,3.456-7.6,8.64,0,5.344,3.162,8.64,7.666,8.64a6.877,6.877,0,0,0,7.09-5.408h-2.651a4.234,4.234,0,0,1-4.375,3.072c-2.875,0-4.823-1.7-5.079-5.408h12.52v-0.9Zm-7.569-6.3c2.938,0,4.567,2.176,4.823,4.9h-9.71C173.789,69.851,175.674,68.219,178.261,68.219Zm25.168,15.072c5.461,0,8.528-2.656,8.528-6.688,0-3.3-1.853-5.344-7.091-6.5l-2.012-.448c-4.28-.96-5.334-2.048-5.334-4.224,0-2.144,1.693-3.52,4.983-3.52,4.535,0,5.908,1.76,6.132,4.7h2.747c-0.1-3.712-2.172-7.136-8.879-7.136-4.727,0-7.761,2.3-7.761,5.952,0,4.16,3.034,5.728,6.9,6.592l2.012,0.448c4.025,0.9,5.526,1.952,5.526,4.128,0,2.816-2.108,4.256-5.749,4.256-3.705,0-6.611-1.376-6.675-5.6h-2.779C194.039,80.955,198,83.291,203.429,83.291Zm25.264-8.768c0-4.736-2.651-8.64-7.569-8.64-4.568,0-7.6,3.456-7.6,8.64,0,5.344,3.162,8.64,7.665,8.64a6.878,6.878,0,0,0,7.091-5.408h-2.651a4.235,4.235,0,0,1-4.376,3.072c-2.874,0-4.822-1.7-5.078-5.408h12.52v-0.9Zm-7.569-6.3c2.938,0,4.567,2.176,4.822,4.9h-9.709C216.652,69.851,218.537,68.219,221.124,68.219Zm16.9,14.944a6.8,6.8,0,0,0,7.09-6.048h-2.619a4.33,4.33,0,0,1-4.471,3.744c-2.747,0-4.951-2.016-4.951-6.336s2.14-6.336,4.951-6.336a4.292,4.292,0,0,1,4.439,3.68h2.651c-0.511-3.648-3.162-5.984-7.09-5.984-4.567,0-7.633,3.328-7.633,8.64S233.52,83.163,238.023,83.163Zm20.157-16.9v9.344c0,3.648-2.4,5.248-4.535,5.248-2.364,0-3.769-1.12-3.769-3.68V66.268h-2.555V77.435c0,3.648,2.14,5.728,5.813,5.728a6.07,6.07,0,0,0,5.174-2.848v2.464h2.427V66.268H258.18Zm13.629-.256a5.754,5.754,0,0,0-5.3,3.168V66.268h-2.428V82.779h2.556V73.371c0-3.2,2.108-4.864,5.4-4.864h0.639V66.044C272.32,66.012,272.064,66.012,271.809,66.012Zm4.021-2.08a1.728,1.728,0,1,0-1.725-1.728A1.739,1.739,0,0,0,275.83,63.932Zm-1.278,18.847h2.555V66.268h-2.555V82.779Zm12.916-14.271v-2.24h-3.385V61.6h-2.555v4.672h-2.715v2.24h2.715V79.451c0,2.528,1.565,3.424,4.12,3.424q0.766,0,1.82-.1V80.635h-1.5c-1.469,0-1.884-.544-1.884-1.408V68.507h3.385Zm13.306-2.24-2.331,6.848c-0.831,2.4-1.629,4.8-2.364,7.168-0.766-2.368-1.533-4.736-2.363-7.136l-2.332-6.88h-2.81l6.2,17.055c-0.192.512-.384,1.056-0.575,1.536a2.888,2.888,0,0,1-3,2.048h-1.5v2.144a12.718,12.718,0,0,0,1.533.1c2.619,0,4.312-.864,5.366-3.776l6.963-19.1h-2.779ZM304.84,83a1.837,1.837,0,0,0,1.821-1.888,1.87,1.87,0,0,0-3.737,0A1.839,1.839,0,0,0,304.84,83Z"/>
</svg>
