<svg id="F3" xmlns="http://www.w3.org/2000/svg" width="600" height="100" viewBox="0 0 600 100">
  <defs>
    <style>
      .cls-1 {
        fill: #462b68;
        fill-rule: evenodd;
      }
    </style>
  </defs>
  <path id="Meron_kang_1_500_of_smart_security_equipment_for_0._" data-name="Meron kang $1,500 of smart security equipment for $0.*" class="cls-1" d="M42.207,12.6L37.129,25.171c-0.926,2.24-1.98,5.088-2.683,6.944-0.671-1.76-1.661-4.32-2.587-6.56L26.589,12.6H23.076V35.379H25.7v-7.3c0-3.04,0-7.2-.1-11.616,0.607,1.7,1.214,3.232,2.012,5.184l5.653,13.728h2.3l5.621-13.728c0.8-1.952,1.405-3.488,2.012-5.184-0.1,4.416-.1,8.576-0.1,11.616v7.3h2.619V12.6H42.207ZM63.751,27.123c0-4.736-2.651-8.64-7.57-8.64-4.567,0-7.6,3.456-7.6,8.64,0,5.344,3.162,8.64,7.665,8.64a6.877,6.877,0,0,0,7.09-5.408H60.685a4.234,4.234,0,0,1-4.376,3.072c-2.874,0-4.823-1.7-5.078-5.408h12.52v-0.9Zm-7.57-6.3c2.938,0,4.567,2.176,4.823,4.9H51.295C51.71,22.451,53.594,20.819,56.181,20.819Zm17.835-2.208a5.754,5.754,0,0,0-5.3,3.168V18.867H66.287V35.379h2.555V25.971c0-3.2,2.108-4.864,5.4-4.864h0.639V18.644C74.527,18.612,74.272,18.612,74.016,18.612Zm9.54,17.151c4.631,0,7.985-3.36,7.985-8.64s-3.354-8.64-7.985-8.64-7.985,3.36-7.985,8.64S78.925,35.763,83.557,35.763Zm0-2.3c-3.194,0-5.3-2.336-5.3-6.336s2.108-6.336,5.3-6.336,5.3,2.336,5.3,6.336S86.75,33.459,83.557,33.459Zm18.123-14.975A6.069,6.069,0,0,0,96.5,21.331V18.867H94.078V35.379h2.555V26.035c0-3.648,2.4-5.248,4.535-5.248,2.363,0,3.769,1.12,3.769,3.68V35.379h2.555V24.211C107.492,20.563,105.352,18.484,101.679,18.484Zm26.765,16.9h2.97l-6.707-10.56,6.26-5.952h-3.385l-7.634,7.392V12.6h-2.555V35.379h2.555V29.267l2.939-2.752Zm17.813-2.08a0.757,0.757,0,0,1-.9-0.8V23.283c0-2.784-1.629-4.8-6.2-4.8-4.823,0-6.515,2.272-6.707,5.472h2.555c0.16-2.464,1.342-3.264,4.152-3.264s3.705,0.864,3.705,2.592c0,1.472-.926,2.08-2.587,2.272l-2.363.256c-4.536.48-6.1,2.528-6.1,5.12,0,3.1,2.236,4.832,5.813,4.832A6.037,6.037,0,0,0,143,33.107c0.128,1.568.958,2.368,2.779,2.368a9.694,9.694,0,0,0,1.405-.1V33.3h-0.926Zm-8.5.288c-2.268,0-3.29-1.088-3.29-2.72,0-1.6.831-2.624,3.833-2.976l2.4-.288a4.248,4.248,0,0,0,2.172-.7v1.952C142.871,32.115,140.22,33.587,137.761,33.587Zm18.873-15.1a6.068,6.068,0,0,0-5.174,2.848V18.867h-2.427V35.379h2.555V26.035c0-3.648,2.4-5.248,4.535-5.248,2.363,0,3.769,1.12,3.769,3.68V35.379h2.555V24.211C162.447,20.563,160.307,18.484,156.634,18.484ZM178.3,18.867v2.4a6.647,6.647,0,0,0-5.653-2.784c-4.632,0-7.666,3.36-7.666,8.64s3.034,8.64,7.666,8.64a6.655,6.655,0,0,0,5.525-2.624v1.6c0,3.424-1.821,5.12-5.11,5.12-2.587,0-4.152-1.056-4.472-3.136h-2.555c0.352,3.2,2.811,5.312,7.027,5.312,5.206,0,7.665-3.008,7.665-7.3V18.867H178.3Zm-5.334,14.592c-3.194,0-5.3-2.464-5.3-6.336s2.108-6.336,5.3-6.336,5.3,2.336,5.3,6.336S176.162,33.459,172.968,33.459Zm26.79-12.337c0-1.922-1.08-3.116-4.135-3.788l-0.391-.093V12.614a2.584,2.584,0,0,1,2.589,2.687h1.6c-0.055-1.978-1.061-3.806-4.19-4.1V9.274h-1.3V11.14c-2.57.112-4.209,1.418-4.209,3.47,0,2.426,1.769,3.34,4.022,3.844l0.187,0.037v5.056a3.014,3.014,0,0,1-3.036-3.209h-1.62c0.037,3.023,1.937,4.422,4.656,4.646v1.9h1.3V25C198.137,24.872,199.758,23.361,199.758,21.122ZM191.34,14.61c0-1.175.875-1.959,2.589-2.052v4.385C191.861,16.42,191.34,15.786,191.34,14.61Zm3.892,8.975v-4.8c2.1,0.5,2.905,1.119,2.905,2.332C198.137,22.652,197.076,23.473,195.232,23.585ZM208.65,12.6h-2.171c-0.575,2.752-2.236,3.456-5.174,3.648l-0.511.032v2.112h5.174V35.379h2.682V12.6Zm4.929,19.583a1.715,1.715,0,0,0-1.789,1.728,1.665,1.665,0,0,0,1.789,1.664h0.192c-0.128,1.6-.767,2.208-1.757,2.5l-0.224.064v1.7l0.32-.064c2.076-.416,3.577-1.824,3.577-4.864C215.687,33.139,214.888,32.179,213.579,32.179Zm12.012-11.648a6.489,6.489,0,0,0-4.312,1.664l1.086-7.168h9.582V12.6H220.193l-1.916,13.119h2.491a4.753,4.753,0,0,1,4.663-2.752,4.945,4.945,0,0,1,5.079,5.248,4.945,4.945,0,0,1-5.079,5.248,4.8,4.8,0,0,1-5.046-4.416H217.7c0.256,4.1,3.322,6.848,7.729,6.848,4.919,0,7.889-3.36,7.889-7.68S230.574,20.531,225.591,20.531Zm17.842,15.359c5.525,0,8.24-4.352,8.24-11.9s-2.715-11.9-8.24-11.9-8.241,4.352-8.241,11.9S237.907,35.891,243.433,35.891Zm0-2.432c-3.514,0-5.43-3.136-5.43-9.472s1.916-9.472,5.43-9.472,5.429,3.136,5.429,9.472S246.946,33.459,243.433,33.459Zm19.033,2.432c5.525,0,8.24-4.352,8.24-11.9s-2.715-11.9-8.24-11.9-8.241,4.352-8.241,11.9S256.94,35.891,262.466,35.891Zm0-2.432c-3.514,0-5.43-3.136-5.43-9.472s1.916-9.472,5.43-9.472,5.429,3.136,5.429,9.472S265.979,33.459,262.466,33.459Zm25.008,2.3c4.631,0,7.985-3.36,7.985-8.64s-3.354-8.64-7.985-8.64-7.985,3.36-7.985,8.64S282.843,35.763,287.474,35.763Zm0-2.3c-3.194,0-5.3-2.336-5.3-6.336s2.108-6.336,5.3-6.336,5.3,2.336,5.3,6.336S290.668,33.459,287.474,33.459ZM303.5,14.772h1.469V12.6c-0.383-.032-1.15-0.064-1.629-0.064-3.257,0-4.6,1.728-4.6,4.64v1.7h-2.715v2.24h2.715V35.379h2.555V21.107h3.514v-2.24h-3.514v-1.76A2.03,2.03,0,0,1,303.5,14.772Zm16.065,20.991c4.056,0,6.548-1.792,6.548-4.928,0-2.688-1.629-4.064-5.685-4.864l-1.47-.288c-2.108-.416-3.321-0.992-3.321-2.56,0-1.536,1.245-2.432,3.449-2.432,2.523,0,4.024.7,4.152,3.264h2.555c-0.064-3.52-2.3-5.472-6.707-5.472-3.769,0-6,1.856-6,4.672,0,2.56,1.565,4.192,5.142,4.864l1.533,0.288c2.874,0.544,3.769,1.216,3.769,2.688,0,1.632-1.182,2.56-3.961,2.56-2.906,0-4.12-.928-4.407-3.424h-2.587C312.824,34,315.379,35.763,319.563,35.763Zm26.264-17.279a5.69,5.69,0,0,0-5.078,3.1,5.161,5.161,0,0,0-5.079-3.1,5.3,5.3,0,0,0-4.759,2.816V18.867h-2.427V35.379h2.555V26.355c0-3.968,2.2-5.568,4.216-5.568,2.14,0,3.45,1.088,3.45,3.648V35.379h2.555V26.355c0-3.968,2.14-5.568,4.216-5.568,2.171,0,3.449,1.088,3.449,3.648V35.379h2.555v-11.2C351.48,20.979,349.66,18.484,345.827,18.484ZM368.357,33.3a0.756,0.756,0,0,1-.894-0.8V23.283c0-2.784-1.629-4.8-6.2-4.8-4.823,0-6.516,2.272-6.707,5.472h2.555c0.16-2.464,1.341-3.264,4.152-3.264s3.7,0.864,3.7,2.592c0,1.472-.926,2.08-2.587,2.272l-2.364.256c-4.535.48-6.1,2.528-6.1,5.12,0,3.1,2.236,4.832,5.813,4.832a6.038,6.038,0,0,0,5.366-2.656c0.127,1.568.958,2.368,2.778,2.368a9.719,9.719,0,0,0,1.406-.1V33.3h-0.927Zm-8.5.288c-2.268,0-3.29-1.088-3.29-2.72,0-1.6.83-2.624,3.833-2.976l2.4-.288a4.248,4.248,0,0,0,2.172-.7v1.952C364.972,32.115,362.321,33.587,359.862,33.587Zm19-14.975a5.754,5.754,0,0,0-5.3,3.168V18.867h-2.428V35.379h2.555V25.971c0-3.2,2.108-4.864,5.4-4.864h0.639V18.644C379.374,18.612,379.118,18.612,378.862,18.612Zm10.767,2.5v-2.24h-3.385V14.2h-2.556v4.672h-2.714v2.24h2.714V32.051c0,2.528,1.566,3.424,4.121,3.424q0.766,0,1.82-.1V33.235h-1.5c-1.469,0-1.884-.544-1.884-1.408V21.107h3.385ZM28.729,68.763c4.056,0,6.547-1.792,6.547-4.928,0-2.688-1.629-4.064-5.685-4.864l-1.469-.288c-2.108-.416-3.322-0.992-3.322-2.56,0-1.536,1.246-2.432,3.449-2.432,2.523,0,4.024.7,4.152,3.264h2.555c-0.064-3.52-2.3-5.472-6.707-5.472-3.769,0-6,1.856-6,4.672,0,2.56,1.565,4.192,5.142,4.864l1.533,0.288C31.8,61.851,32.69,62.523,32.69,64c0,1.632-1.182,2.56-3.96,2.56-2.906,0-4.12-.928-4.408-3.424H21.735C21.99,67,24.545,68.763,28.729,68.763Zm23.2-8.64c0-4.736-2.651-8.64-7.57-8.64-4.567,0-7.6,3.456-7.6,8.64,0,5.344,3.162,8.64,7.665,8.64a6.877,6.877,0,0,0,7.09-5.408H48.864a4.234,4.234,0,0,1-4.376,3.072c-2.874,0-4.823-1.7-5.078-5.408H51.93v-0.9Zm-7.57-6.3c2.938,0,4.567,2.176,4.823,4.9H39.474C39.889,55.451,41.773,53.819,44.36,53.819Zm16.9,14.944a6.8,6.8,0,0,0,7.09-6.048H65.731a4.331,4.331,0,0,1-4.471,3.744c-2.747,0-4.95-2.016-4.95-6.336s2.14-6.336,4.95-6.336a4.293,4.293,0,0,1,4.439,3.68H68.35c-0.511-3.648-3.162-5.984-7.09-5.984-4.567,0-7.633,3.328-7.633,8.64S56.756,68.763,61.26,68.763Zm20.157-16.9v9.344c0,3.648-2.4,5.248-4.535,5.248-2.364,0-3.769-1.12-3.769-3.68V51.867H70.558V63.035c0,3.648,2.14,5.728,5.813,5.728a6.069,6.069,0,0,0,5.174-2.848v2.464h2.427V51.867H81.417Zm13.629-.256a5.754,5.754,0,0,0-5.3,3.168V51.867H87.316V68.379h2.555V58.971c0-3.2,2.108-4.864,5.4-4.864h0.639V51.644C95.557,51.612,95.3,51.612,95.046,51.612Zm4.021-2.08A1.728,1.728,0,1,0,97.342,47.8,1.739,1.739,0,0,0,99.067,49.532ZM97.789,68.379h2.555V51.867H97.789V68.379Zm12.916-14.272v-2.24H107.32V47.2h-2.555v4.672H102.05v2.24h2.715V65.051c0,2.528,1.565,3.424,4.12,3.424q0.766,0,1.82-.1V66.235h-1.5c-1.469,0-1.884-.544-1.884-1.408V54.107h3.385Zm13.306-2.24-2.332,6.848c-0.83,2.4-1.628,4.8-2.363,7.168-0.767-2.368-1.533-4.736-2.364-7.136l-2.331-6.88H111.81l6.2,17.055c-0.191.512-.383,1.056-0.574,1.536a2.888,2.888,0,0,1-3,2.048h-1.5v2.144a12.718,12.718,0,0,0,1.533.1c2.619,0,4.312-.864,5.366-3.776l6.963-19.1h-2.779Zm25.3,8.256c0-4.736-2.65-8.64-7.569-8.64-4.567,0-7.6,3.456-7.6,8.64,0,5.344,3.161,8.64,7.665,8.64a6.877,6.877,0,0,0,7.09-5.408H146.24a4.234,4.234,0,0,1-4.375,3.072c-2.875,0-4.823-1.7-5.079-5.408h12.52v-0.9Zm-7.569-6.3c2.938,0,4.567,2.176,4.823,4.9h-9.71C137.266,55.451,139.15,53.819,141.737,53.819Zm22.584-1.952v2.56a6.473,6.473,0,0,0-5.653-2.944c-4.631,0-7.665,3.36-7.665,8.64s3.034,8.64,7.665,8.64a6.47,6.47,0,0,0,5.526-2.752v8.64h2.555V51.867h-2.428Zm-5.333,14.591c-3.194,0-5.3-2.208-5.3-6.208s2.108-6.464,5.3-6.464,5.3,2.336,5.3,6.336S162.182,66.459,158.988,66.459Zm21.936-14.591v9.344c0,3.648-2.4,5.248-4.535,5.248-2.364,0-3.769-1.12-3.769-3.68V51.867h-2.555V63.035c0,3.648,2.14,5.728,5.812,5.728a6.07,6.07,0,0,0,5.175-2.848v2.464h2.427V51.867h-2.555Zm7.2-2.336A1.728,1.728,0,1,0,186.4,47.8,1.74,1.74,0,0,0,188.12,49.532Zm-1.278,18.847H189.4V51.867h-2.556V68.379Zm13.926-16.9a6.474,6.474,0,0,0-5.653,2.944v-2.56h-2.428V74.651h2.555v-8.64a6.47,6.47,0,0,0,5.526,2.752c4.631,0,7.665-3.36,7.665-8.64S205.4,51.484,200.768,51.484Zm-0.319,14.975c-3.194,0-5.3-2.336-5.3-6.336s2.108-6.336,5.3-6.336S205.75,56,205.75,60,203.642,66.459,200.449,66.459Zm27.918-14.975a5.69,5.69,0,0,0-5.078,3.1,5.161,5.161,0,0,0-5.079-3.1,5.292,5.292,0,0,0-4.759,2.816V51.867h-2.427V68.379h2.555V59.355c0-3.968,2.2-5.568,4.216-5.568,2.14,0,3.449,1.088,3.449,3.648V68.379H223.8V59.355c0-3.968,2.139-5.568,4.215-5.568,2.172,0,3.45,1.088,3.45,3.648V68.379h2.555v-11.2C234.02,53.979,232.2,51.484,228.367,51.484Zm23.338,8.64c0-4.736-2.651-8.64-7.569-8.64-4.567,0-7.6,3.456-7.6,8.64,0,5.344,3.162,8.64,7.666,8.64a6.877,6.877,0,0,0,7.09-5.408h-2.651a4.234,4.234,0,0,1-4.375,3.072c-2.875,0-4.823-1.7-5.079-5.408h12.52v-0.9Zm-7.569-6.3c2.938,0,4.567,2.176,4.823,4.9h-9.71C239.664,55.451,241.549,53.819,244.136,53.819Zm17.707-2.336a6.07,6.07,0,0,0-5.174,2.848V51.867h-2.427V68.379H256.8V59.035c0-3.648,2.395-5.248,4.535-5.248,2.364,0,3.769,1.12,3.769,3.68V68.379h2.555V57.211C267.656,53.563,265.516,51.484,261.843,51.484Zm16.012,2.624v-2.24h-3.386V47.2h-2.555v4.672H269.2v2.24h2.715V65.051c0,2.528,1.565,3.424,4.12,3.424q0.767,0,1.821-.1V66.235h-1.5c-1.469,0-1.884-.544-1.884-1.408V54.107h3.386Zm14.819-6.336h1.469V45.6c-0.383-.032-1.15-0.064-1.629-0.064-3.257,0-4.6,1.728-4.6,4.64v1.7H285.2v2.24h2.715V68.379h2.555V54.107h3.513v-2.24H290.47v-1.76A2.03,2.03,0,0,1,292.674,47.772Zm10.061,20.991c4.631,0,7.984-3.36,7.984-8.64s-3.353-8.64-7.984-8.64-7.985,3.36-7.985,8.64S298.1,68.763,302.735,68.763Zm0-2.3c-3.194,0-5.3-2.336-5.3-6.336s2.108-6.336,5.3-6.336,5.3,2.336,5.3,6.336S305.929,66.459,302.735,66.459Zm18.25-14.847a5.754,5.754,0,0,0-5.3,3.168V51.867h-2.427V68.379h2.555V58.971c0-3.2,2.108-4.864,5.4-4.864h0.638V51.644C321.5,51.612,321.241,51.612,320.985,51.612Zm18.773,2.51c0-1.922-1.081-3.116-4.135-3.788l-0.391-.093V45.614a2.584,2.584,0,0,1,2.589,2.687h1.6c-0.056-1.978-1.061-3.806-4.19-4.1V42.274h-1.3V44.14c-2.57.112-4.209,1.418-4.209,3.47,0,2.426,1.769,3.34,4.022,3.844l0.187,0.037v5.056a3.014,3.014,0,0,1-3.036-3.209h-1.62c0.037,3.023,1.937,4.422,4.656,4.646v1.9h1.3V58C338.137,57.872,339.758,56.361,339.758,54.122ZM331.34,47.61c0-1.175.875-1.959,2.589-2.052v4.385C331.861,49.42,331.34,48.786,331.34,47.61Zm3.892,8.975v-4.8c2.1,0.5,2.9,1.12,2.9,2.332C338.137,55.652,337.076,56.473,335.232,56.585Zm14.284,12.306c5.525,0,8.24-4.352,8.24-11.9s-2.715-11.9-8.24-11.9-8.24,4.352-8.24,11.9S343.99,68.891,349.516,68.891Zm0-2.432c-3.513,0-5.43-3.136-5.43-9.472s1.917-9.472,5.43-9.472,5.43,3.136,5.43,9.472S353.029,66.459,349.516,66.459ZM361.085,68.6a1.836,1.836,0,0,0,1.82-1.888,1.87,1.87,0,0,0-3.737,0A1.84,1.84,0,0,0,361.085,68.6Zm1.549-18.213,1.382-1.909L365.4,50.39l0.727-.583-1.4-1.939,2.212-.714-0.306-.875-2.153.7v-2.3H363.55v2.3l-2.153-.7-0.306.875,2.212,0.714-1.4,1.939Z"/>
</svg>
