<svg id="F3" xmlns="http://www.w3.org/2000/svg" width="320" height="50" viewBox="0 0 320 50">
  <defs>
    <style>
      .cls-1 {
        fill: #462b69;
        fill-rule: evenodd;
      }
    </style>
  </defs>
  <path id="Paayein_nayi_Samsung_Galaxy_S23_Series_for_0_upfront_only_on" data-name="Paayein nayi Samsung Galaxy S23  Series for $0 upfront* only on" class="cls-1" d="M19.053,8.036h-4V17.65h1.134v-3.7h2.863c2.133,0,3.187-1.229,3.187-2.957S21.187,8.036,19.053,8.036Zm0,4.888H16.191V9.062h2.863a1.769,1.769,0,0,1,2.012,1.931A1.769,1.769,0,0,1,19.053,12.924Zm9.893,3.848a0.319,0.319,0,0,1-.378-0.338V12.546c0-1.175-.689-2.025-2.62-2.025-2.039,0-2.754.959-2.835,2.309h1.08c0.067-1.04.567-1.377,1.755-1.377s1.566,0.365,1.566,1.094a0.97,0.97,0,0,1-1.094.959l-1,.108c-1.917.2-2.579,1.067-2.579,2.16,0,1.31.945,2.039,2.457,2.039a2.554,2.554,0,0,0,2.268-1.121,1,1,0,0,0,1.175,1,4.109,4.109,0,0,0,.594-0.041V16.772H28.946Zm-3.592.121a1.154,1.154,0,0,1-1.391-1.148c0-.675.351-1.107,1.62-1.256l1.013-.121a1.8,1.8,0,0,0,.918-0.3V14.9A2,2,0,0,1,25.355,16.894Zm10.721-.121a0.319,0.319,0,0,1-.378-0.338V12.546c0-1.175-.689-2.025-2.62-2.025-2.039,0-2.754.959-2.835,2.309h1.08c0.067-1.04.567-1.377,1.755-1.377s1.566,0.365,1.566,1.094a0.97,0.97,0,0,1-1.094.959l-1,.108c-1.917.2-2.579,1.067-2.579,2.16,0,1.31.945,2.039,2.457,2.039A2.554,2.554,0,0,0,34.7,16.691a1,1,0,0,0,1.175,1,4.109,4.109,0,0,0,.594-0.041V16.772H36.076Zm-3.592.121a1.154,1.154,0,0,1-1.391-1.148c0-.675.351-1.107,1.62-1.256l1.013-.121a1.8,1.8,0,0,0,.918-0.3V14.9A2,2,0,0,1,32.484,16.894Zm9.063-6.211-0.986,2.89c-0.351,1.013-.689,2.025-1,3.024-0.324-1-.648-2-1-3.011l-0.986-2.9H36.389l2.619,7.2c-0.081.216-.162,0.446-0.243,0.648a1.221,1.221,0,0,1-1.269.864H36.862v0.9a5.368,5.368,0,0,0,.648.041,2.105,2.105,0,0,0,2.268-1.593l2.944-8.061H41.547Zm7.84,3.484c0-2-1.121-3.646-3.2-3.646-1.931,0-3.213,1.458-3.213,3.646,0,2.255,1.337,3.646,3.24,3.646a2.907,2.907,0,0,0,3-2.282H48.09a1.79,1.79,0,0,1-1.85,1.3c-1.215,0-2.039-.716-2.147-2.282h5.293V14.166Zm-3.2-2.66a2.043,2.043,0,0,1,2.039,2.066h-4.1A2.049,2.049,0,0,1,46.186,11.506ZM51.139,9.7a0.729,0.729,0,1,0-.729-0.729A0.735,0.735,0,0,0,51.139,9.7ZM50.6,17.65h1.08V10.683H50.6V17.65Zm5.865-7.129a2.567,2.567,0,0,0-2.187,1.2v-1.04H53.25V17.65h1.08V13.707a1.983,1.983,0,0,1,1.917-2.214,1.4,1.4,0,0,1,1.593,1.553v4.6h1.08V12.938A2.221,2.221,0,0,0,56.464,10.521Zm9.99,0a2.567,2.567,0,0,0-2.187,1.2v-1.04H63.24V17.65h1.08V13.707a1.983,1.983,0,0,1,1.917-2.214,1.4,1.4,0,0,1,1.593,1.553v4.6h1.08V12.938A2.221,2.221,0,0,0,66.454,10.521Zm9.757,6.252a0.319,0.319,0,0,1-.378-0.338V12.546c0-1.175-.689-2.025-2.619-2.025-2.039,0-2.754.959-2.835,2.309h1.08c0.067-1.04.567-1.377,1.755-1.377s1.566,0.365,1.566,1.094a0.97,0.97,0,0,1-1.094.959l-1,.108c-1.917.2-2.579,1.067-2.579,2.16,0,1.31.945,2.039,2.457,2.039a2.554,2.554,0,0,0,2.268-1.121,1,1,0,0,0,1.175,1A4.109,4.109,0,0,0,76.6,17.65V16.772H76.211Zm-3.592.121a1.154,1.154,0,0,1-1.391-1.148c0-.675.351-1.107,1.62-1.256l1.013-.121a1.8,1.8,0,0,0,.918-0.3V14.9A2,2,0,0,1,72.619,16.894Zm9.063-6.211L80.7,13.572c-0.351,1.013-.689,2.025-1,3.024-0.324-1-.648-2-1-3.011l-0.986-2.9H76.524l2.619,7.2c-0.081.216-.162,0.446-0.243,0.648a1.221,1.221,0,0,1-1.269.864H77v0.9a5.366,5.366,0,0,0,.648.041,2.105,2.105,0,0,0,2.268-1.593l2.944-8.061H81.682ZM84.255,9.7a0.729,0.729,0,1,0-.729-0.729A0.735,0.735,0,0,0,84.255,9.7Zm-0.54,7.953H84.8V10.683h-1.08V17.65Zm8.991,0.216c2.309,0,3.605-1.121,3.605-2.822,0-1.391-.783-2.255-3-2.741l-0.851-.189c-1.809-.405-2.255-0.864-2.255-1.782s0.716-1.485,2.106-1.485c1.917,0,2.5.743,2.593,1.985h1.161c-0.04-1.566-.918-3.011-3.754-3.011-2,0-3.281.972-3.281,2.511,0,1.755,1.283,2.417,2.916,2.781L92.8,13.3c1.7,0.378,2.336.824,2.336,1.742,0,1.188-.891,1.8-2.43,1.8-1.566,0-2.8-.581-2.822-2.363H88.71C88.737,16.88,90.411,17.866,92.707,17.866Zm10.512-1.094a0.32,0.32,0,0,1-.378-0.338V12.546c0-1.175-.688-2.025-2.619-2.025-2.039,0-2.754.959-2.835,2.309h1.08c0.068-1.04.567-1.377,1.755-1.377s1.566,0.365,1.566,1.094a0.969,0.969,0,0,1-1.093.959l-1,.108c-1.917.2-2.579,1.067-2.579,2.16,0,1.31.945,2.039,2.457,2.039a2.553,2.553,0,0,0,2.268-1.121,1,1,0,0,0,1.175,1,4.108,4.108,0,0,0,.594-0.041V16.772h-0.392Zm-3.591.121a1.154,1.154,0,0,1-1.391-1.148c0-.675.351-1.107,1.62-1.256l1.013-.121a1.8,1.8,0,0,0,.918-0.3V14.9A2,2,0,0,1,99.628,16.894ZM111.9,10.521a2.406,2.406,0,0,0-2.147,1.31,2.182,2.182,0,0,0-2.147-1.31,2.238,2.238,0,0,0-2.012,1.188V10.683h-1.026V17.65h1.08V13.842c0-1.674.932-2.349,1.783-2.349a1.331,1.331,0,0,1,1.458,1.539V17.65h1.08V13.842c0-1.674.905-2.349,1.782-2.349a1.326,1.326,0,0,1,1.459,1.539V17.65h1.08V12.924A2.215,2.215,0,0,0,111.9,10.521Zm6.486,7.291c1.715,0,2.768-.756,2.768-2.079,0-1.134-.689-1.715-2.4-2.052l-0.621-.121c-0.891-.176-1.4-0.419-1.4-1.08s0.527-1.026,1.458-1.026c1.067,0,1.7.3,1.756,1.377h1.08c-0.027-1.485-.972-2.309-2.836-2.309-1.593,0-2.538.783-2.538,1.971,0,1.08.661,1.769,2.174,2.052l0.648,0.122c1.215,0.229,1.593.513,1.593,1.134,0,0.689-.5,1.08-1.674,1.08-1.229,0-1.742-.391-1.864-1.445h-1.093C115.54,17.069,116.62,17.812,118.389,17.812Zm8.49-7.129v3.943a1.983,1.983,0,0,1-1.917,2.214,1.4,1.4,0,0,1-1.593-1.553v-4.6h-1.081V15.4a2.222,2.222,0,0,0,2.458,2.417,2.566,2.566,0,0,0,2.187-1.2v1.04h1.026V10.683h-1.08Zm5.887-.162a2.566,2.566,0,0,0-2.187,1.2v-1.04h-1.026V17.65h1.08V13.707a1.983,1.983,0,0,1,1.917-2.214,1.4,1.4,0,0,1,1.593,1.553v4.6h1.081V12.938A2.222,2.222,0,0,0,132.766,10.521Zm9.34,0.162V11.7a2.812,2.812,0,0,0-2.39-1.175c-1.958,0-3.241,1.418-3.241,3.646s1.283,3.646,3.241,3.646a2.816,2.816,0,0,0,2.336-1.107V17.38a1.928,1.928,0,0,1-2.161,2.16A1.628,1.628,0,0,1,138,18.217h-1.08c0.148,1.35,1.188,2.241,2.97,2.241,2.2,0,3.241-1.269,3.241-3.079v-6.7h-1.026Zm-2.255,6.157c-1.35,0-2.241-1.04-2.241-2.673s0.891-2.673,2.241-2.673,2.241,0.986,2.241,2.673S141.2,16.84,139.851,16.84Zm12.042-4.132v1.026h3.065a3.128,3.128,0,0,1-3.281,3.092c-2.039,0-3.376-1.539-3.376-3.983s1.324-3.983,3.376-3.983a2.893,2.893,0,0,1,3.024,2.322h1.175a3.956,3.956,0,0,0-4.2-3.362c-2.782,0-4.564,2.039-4.564,5.023s1.8,5.023,4.55,5.023a3.688,3.688,0,0,0,3.146-1.512l0.244,1.3h0.931V12.708h-4.091Zm11.428,4.064a0.319,0.319,0,0,1-.378-0.338V12.546c0-1.175-.689-2.025-2.62-2.025-2.039,0-2.754.959-2.835,2.309h1.08c0.068-1.04.567-1.377,1.755-1.377s1.567,0.365,1.567,1.094a0.97,0.97,0,0,1-1.094.959l-1,.108c-1.918.2-2.579,1.067-2.579,2.16,0,1.31.945,2.039,2.457,2.039a2.555,2.555,0,0,0,2.269-1.121,1,1,0,0,0,1.174,1,4.1,4.1,0,0,0,.594-0.041V16.772h-0.391Zm-3.592.121a1.155,1.155,0,0,1-1.391-1.148c0-.675.352-1.107,1.621-1.256l1.012-.121a1.8,1.8,0,0,0,.919-0.3V14.9A2,2,0,0,1,159.729,16.894Zm6.441,0.8a6.88,6.88,0,0,0,.689-0.041v-0.9h-0.514a0.541,0.541,0,0,1-.661-0.594V8.036H164.6v8.209A1.319,1.319,0,0,0,166.17,17.69Zm7.407-.918a0.319,0.319,0,0,1-.378-0.338V12.546c0-1.175-.689-2.025-2.62-2.025-2.039,0-2.754.959-2.835,2.309h1.08c0.067-1.04.567-1.377,1.755-1.377s1.566,0.365,1.566,1.094a0.969,0.969,0,0,1-1.093.959l-1,.108c-1.918.2-2.579,1.067-2.579,2.16,0,1.31.945,2.039,2.457,2.039a2.553,2.553,0,0,0,2.268-1.121,1,1,0,0,0,1.175,1,4.1,4.1,0,0,0,.594-0.041V16.772h-0.391Zm-3.592.121a1.154,1.154,0,0,1-1.391-1.148c0-.675.351-1.107,1.621-1.256l1.012-.121a1.8,1.8,0,0,0,.918-0.3V14.9A2,2,0,0,1,169.985,16.894Zm8.43-2.808,2.525-3.4h-1.256l-0.527.743c-0.432.594-.9,1.256-1.35,1.89-0.432-.635-0.891-1.269-1.35-1.89l-0.54-.743h-1.27l2.525,3.4-2.66,3.565h1.256l0.365-.513c0.54-.77,1.12-1.553,1.661-2.282,0.526,0.716,1.08,1.485,1.633,2.268l0.378,0.527h1.27Zm8.259-3.4-0.986,2.89c-0.351,1.013-.688,2.025-1,3.024-0.324-1-.648-2-1-3.011l-0.986-2.9h-1.188l2.62,7.2c-0.081.216-.163,0.446-0.244,0.648a1.22,1.22,0,0,1-1.269.864h-0.634v0.9a5.36,5.36,0,0,0,.648.041,2.1,2.1,0,0,0,2.268-1.593l2.944-8.061h-1.175Zm8.342,7.183c2.309,0,3.606-1.121,3.606-2.822,0-1.391-.784-2.255-3-2.741l-0.851-.189c-1.809-.405-2.254-0.864-2.254-1.782s0.715-1.485,2.106-1.485c1.917,0,2.5.743,2.592,1.985h1.162c-0.041-1.566-.919-3.011-3.754-3.011-2,0-3.281.972-3.281,2.511,0,1.755,1.283,2.417,2.916,2.781l0.851,0.189c1.7,0.378,2.336.824,2.336,1.742,0,1.188-.891,1.8-2.431,1.8-1.566,0-2.795-.581-2.822-2.363H191.02C191.047,16.88,192.721,17.866,195.016,17.866Zm5.76-1.242a2.758,2.758,0,0,1,1.729-2.3l1.026-.594c1.539-.891,2.187-1.9,2.187-3.133a2.8,2.8,0,0,0-3.065-2.781,2.835,2.835,0,0,0-3.159,3.092h1.12a1.82,1.82,0,0,1,2.012-2.066,1.709,1.709,0,0,1,1.9,1.755c0,1.013-.526,1.62-1.688,2.3l-1.215.7a3.938,3.938,0,0,0-2.093,3.524l-0.027.527h6.346V16.624h-5.077Zm10.916-4.091A2.321,2.321,0,0,0,213,10.426c0-1.688-1.3-2.606-3.078-2.606a2.826,2.826,0,0,0-3.146,2.862h1.134a1.8,1.8,0,0,1,2.012-1.836,1.65,1.65,0,0,1,1.931,1.607c0,1.026-.7,1.634-2,1.634h-0.648v0.945h0.716a1.925,1.925,0,0,1,2.187,1.917,1.883,1.883,0,0,1-2.12,1.89,1.987,1.987,0,0,1-2.241-2.093h-1.121c-0.013,1.863,1.162,3.119,3.362,3.119,1.958,0,3.308-1.161,3.308-2.916A2.671,2.671,0,0,0,211.692,12.533ZM14.759,33.224c2.309,0,3.605-1.121,3.605-2.822,0-1.391-.783-2.255-3-2.741l-0.851-.189c-1.809-.405-2.255-0.864-2.255-1.782S12.977,24.2,14.368,24.2c1.917,0,2.5.743,2.593,1.985h1.161c-0.041-1.566-.918-3.011-3.754-3.011-2,0-3.281.972-3.281,2.511,0,1.755,1.283,2.417,2.916,2.781l0.851,0.189c1.7,0.378,2.336.824,2.336,1.742,0,1.188-.891,1.8-2.43,1.8-1.566,0-2.795-.581-2.822-2.363H10.763C10.79,32.239,12.464,33.224,14.759,33.224Zm10.854-3.7c0-2-1.121-3.646-3.2-3.646-1.931,0-3.214,1.458-3.214,3.646,0,2.255,1.337,3.646,3.241,3.646a2.906,2.906,0,0,0,3-2.282H24.317a1.79,1.79,0,0,1-1.85,1.3c-1.215,0-2.039-.716-2.147-2.282h5.293V29.525Zm-3.2-2.66a2.043,2.043,0,0,1,2.039,2.066h-4.1A2.049,2.049,0,0,1,22.414,26.865Zm7.719-.932a2.433,2.433,0,0,0-2.241,1.337V26.041H26.865v6.967h1.08v-3.97a1.985,1.985,0,0,1,2.282-2.052H30.5v-1.04C30.349,25.933,30.241,25.933,30.133,25.933Zm1.885-.878a0.729,0.729,0,1,0-.729-0.729A0.735,0.735,0,0,0,32.018,25.055Zm-0.54,7.953h1.08V26.041h-1.08v6.967Zm8.694-3.484c0-2-1.121-3.646-3.2-3.646-1.931,0-3.214,1.458-3.214,3.646,0,2.255,1.337,3.646,3.241,3.646a2.906,2.906,0,0,0,3-2.282H38.876a1.79,1.79,0,0,1-1.85,1.3c-1.215,0-2.039-.716-2.147-2.282h5.293V29.525Zm-3.2-2.66a2.043,2.043,0,0,1,2.039,2.066h-4.1A2.049,2.049,0,0,1,36.972,26.865Zm6.909,6.306c1.715,0,2.768-.756,2.768-2.079,0-1.134-.689-1.715-2.4-2.052l-0.621-.121c-0.891-.176-1.4-0.419-1.4-1.08s0.527-1.026,1.458-1.026c1.067,0,1.7.3,1.755,1.377h1.08c-0.027-1.485-.972-2.309-2.836-2.309-1.593,0-2.538.783-2.538,1.971,0,1.08.662,1.769,2.174,2.052l0.648,0.122c1.215,0.229,1.593.513,1.593,1.134,0,0.689-.5,1.08-1.674,1.08-1.229,0-1.742-.392-1.863-1.445H40.924C41.032,32.428,42.112,33.17,43.881,33.17Zm9.1-8.858H53.6V23.395c-0.162-.014-0.486-0.027-0.689-0.027a1.722,1.722,0,0,0-1.944,1.958v0.716H49.82v0.945h1.148v6.022h1.08V26.986h1.485V26.041H52.048V25.3A0.857,0.857,0,0,1,52.98,24.313Zm4.448,8.858A3.338,3.338,0,0,0,60.8,29.525a3.386,3.386,0,1,0-6.751,0A3.338,3.338,0,0,0,57.428,33.17Zm0-.972c-1.35,0-2.241-.986-2.241-2.673s0.891-2.674,2.241-2.674,2.241,0.986,2.241,2.674S58.778,32.2,57.428,32.2Zm7.895-6.265a2.433,2.433,0,0,0-2.241,1.337V26.041H62.055v6.967h1.08v-3.97a1.985,1.985,0,0,1,2.282-2.052h0.27v-1.04C65.539,25.933,65.431,25.933,65.323,25.933Zm8.257,0.982c0-.889-0.535-1.4-1.858-1.661l-0.181-.031V23.664a0.88,0.88,0,0,1,.842.913h1.031A1.787,1.787,0,0,0,71.542,22.8V22H70.975v0.787c-1.244.055-1.921,0.693-1.921,1.582,0,1.015.716,1.5,1.8,1.7l0.118,0.024v1.669a1.015,1.015,0,0,1-1.015-1.094H68.913a1.921,1.921,0,0,0,2.062,1.96v0.8h0.567V28.631C72.809,28.568,73.58,27.962,73.58,26.915Zm-3.44-2.582a0.731,0.731,0,0,1,.834-0.685V25.1C70.345,24.939,70.141,24.735,70.141,24.333Zm1.4,3.44V26.207c0.693,0.165.937,0.362,0.937,0.764A0.832,0.832,0,0,1,71.542,27.773Zm6.534,5.451c2.579,0,3.862-1.836,3.862-5.023s-1.3-5.023-3.862-5.023-3.848,1.836-3.848,5.023S75.524,33.224,78.076,33.224Zm0-1.539c-1.242,0-1.944-1.04-1.944-3.484s0.7-3.484,1.944-3.484,1.958,1.04,1.958,3.484S79.345,31.685,78.076,31.685ZM90.59,26.041v3.943A1.983,1.983,0,0,1,88.673,32.2a1.4,1.4,0,0,1-1.593-1.553v-4.6H86v4.712a2.221,2.221,0,0,0,2.457,2.417,2.567,2.567,0,0,0,2.187-1.2v1.04H91.67V26.041H90.59Zm6.09-.162a2.738,2.738,0,0,0-2.39,1.242v-1.08H93.264v9.614h1.08V32.009A2.737,2.737,0,0,0,96.68,33.17c1.958,0,3.241-1.418,3.241-3.646S98.638,25.879,96.68,25.879ZM96.545,32.2c-1.35,0-2.241-.986-2.241-2.673s0.891-2.674,2.241-2.674,2.241,0.932,2.241,2.62S97.895,32.2,96.545,32.2Zm6.993-7.885h0.621V23.395c-0.162-.014-0.486-0.027-0.689-0.027a1.722,1.722,0,0,0-1.944,1.958v0.716h-1.148v0.945h1.148v6.022h1.08V26.986h1.485V26.041h-1.485V25.3A0.857,0.857,0,0,1,103.538,24.313Zm4.841,1.62a2.434,2.434,0,0,0-2.242,1.337V26.041h-1.026v6.967h1.08v-3.97a1.985,1.985,0,0,1,2.282-2.052h0.27v-1.04C108.6,25.933,108.487,25.933,108.379,25.933Zm4.226,7.237a3.339,3.339,0,0,0,3.376-3.646,3.386,3.386,0,1,0-6.751,0A3.338,3.338,0,0,0,112.605,33.17Zm0-.972c-1.35,0-2.241-.986-2.241-2.673s0.891-2.674,2.241-2.674,2.242,0.986,2.242,2.674S113.956,32.2,112.605,32.2Zm7.841-6.319a2.566,2.566,0,0,0-2.187,1.2v-1.04h-1.027v6.967h1.081V29.066a1.983,1.983,0,0,1,1.917-2.214,1.4,1.4,0,0,1,1.593,1.553v4.6h1.08V28.3A2.221,2.221,0,0,0,120.446,25.879Zm6.955,1.107V26.041H125.97V24.07h-1.08v1.971h-1.148v0.945h1.148V31.6c0,1.067.661,1.445,1.741,1.445q0.324,0,.77-0.04V32.1h-0.635c-0.621,0-.8-0.23-0.8-0.594V26.986H127.4Zm1.335-.992,0.747-1.031,0.748,1.031,0.394-.315-0.756-1.047,1.2-.386-0.166-.472-1.165.378V22.909h-0.5v1.244l-1.165-.378-0.166.472,1.2,0.386-0.756,1.047ZM136.8,33.17a3.339,3.339,0,0,0,3.376-3.646,3.386,3.386,0,1,0-6.751,0A3.338,3.338,0,0,0,136.8,33.17Zm0-.972c-1.35,0-2.241-.986-2.241-2.673s0.891-2.674,2.241-2.674,2.242,0.986,2.242,2.674S138.153,32.2,136.8,32.2Zm7.841-6.319a2.566,2.566,0,0,0-2.187,1.2v-1.04h-1.027v6.967h1.081V29.066a1.983,1.983,0,0,1,1.917-2.214A1.4,1.4,0,0,1,146.02,28.4v4.6h1.08V28.3A2.221,2.221,0,0,0,144.643,25.879Zm5.585,7.17a6.845,6.845,0,0,0,.688-0.04V32.1H150.4a0.541,0.541,0,0,1-.662-0.594V23.395h-1.08V31.6A1.319,1.319,0,0,0,150.228,33.049Zm5.748-7.008-0.985,2.889c-0.351,1.013-.689,2.025-1,3.024-0.325-1-.649-2-1-3.011l-0.985-2.9h-1.189l2.62,7.2c-0.081.216-.162,0.446-0.243,0.648a1.221,1.221,0,0,1-1.269.864h-0.635v0.9a5.392,5.392,0,0,0,.648.041,2.106,2.106,0,0,0,2.269-1.593l2.943-8.061h-1.175Zm7.789,7.129a3.339,3.339,0,0,0,3.376-3.646,3.386,3.386,0,1,0-6.751,0A3.338,3.338,0,0,0,163.765,33.17Zm0-.972c-1.35,0-2.241-.986-2.241-2.673s0.891-2.674,2.241-2.674,2.242,0.986,2.242,2.674S165.116,32.2,163.765,32.2Zm7.841-6.319a2.566,2.566,0,0,0-2.187,1.2v-1.04h-1.027v6.967h1.081V29.066a1.983,1.983,0,0,1,1.917-2.214,1.4,1.4,0,0,1,1.593,1.553v4.6h1.08V28.3A2.221,2.221,0,0,0,171.606,25.879Zm13.946-2.485h-7.71v1.026h3.268v8.588h1.174V24.421h3.268V23.395Zm7.67,1.026V23.395h-6.683v9.614h6.629V31.982h-5.5v-3.47h5.009V27.486h-5.009V24.421h5.549Zm2.185,7.561V23.395h-1.134v9.614h5.968V31.982h-4.834Zm9.2,1.229a3.431,3.431,0,0,0,3.781-3.767V23.395h-1.134v6.049c0,1.89-.972,2.741-2.647,2.741s-2.646-.851-2.646-2.741V23.395h-1.134v6.049A3.431,3.431,0,0,0,204.606,33.211Zm8.906,0.014c2.309,0,3.6-1.121,3.6-2.822,0-1.391-.783-2.255-3-2.741l-0.851-.189c-1.809-.405-2.255-0.864-2.255-1.782s0.716-1.485,2.107-1.485c1.917,0,2.5.743,2.592,1.985h1.161c-0.04-1.566-.918-3.011-3.753-3.011-2,0-3.281.972-3.281,2.511,0,1.755,1.282,2.417,2.916,2.781l0.851,0.189c1.7,0.378,2.336.824,2.336,1.742,0,1.188-.892,1.8-2.431,1.8-1.566,0-2.795-.581-2.822-2.363h-1.175C209.542,32.239,211.217,33.224,213.512,33.224Zm5.267-.122a0.776,0.776,0,0,0,.77-0.8,0.791,0.791,0,0,0-1.58,0A0.777,0.777,0,0,0,218.779,33.1Z"/>
</svg>
