<svg id="F1" xmlns="http://www.w3.org/2000/svg" width="320" height="50" viewBox="0 0 320 50">
  <defs>
    <style>
      .cls-1 {
        fill: #462b69;
        fill-rule: evenodd;
      }
    </style>
  </defs>
  <path id="Din_ho_ya_raat_Nightography_banaye_Diwali_shaandaar_" data-name="Din ho ya raat, Nightography banaye Diwali shaandaar!" class="cls-1" d="M23.5,10.934H19.885V21.65H23.5c3.236,0,5.253-2,5.253-5.358S26.733,10.934,23.5,10.934Zm0,9.572H21.149V12.078H23.5c2.589,0,3.928,1.626,3.928,4.214S26.085,20.506,23.5,20.506Zm7.24-7.721a0.813,0.813,0,1,0-.813-0.813A0.819,0.819,0,0,0,30.737,12.785Zm-0.6,8.865h1.2V13.884h-1.2V21.65ZM36.651,13.7a2.861,2.861,0,0,0-2.438,1.339V13.884H33.069V21.65h1.2V17.255a2.211,2.211,0,0,1,2.137-2.468,1.558,1.558,0,0,1,1.776,1.731V21.65h1.2V16.4A2.476,2.476,0,0,0,36.651,13.7Zm11.136,0a2.861,2.861,0,0,0-2.378,1.249V10.934h-1.2V21.65h1.2V17.255a2.211,2.211,0,0,1,2.137-2.468,1.558,1.558,0,0,1,1.776,1.731V21.65h1.2V16.4A2.476,2.476,0,0,0,47.787,13.7Zm7.853,8.127A3.721,3.721,0,0,0,59.4,17.767a3.774,3.774,0,1,0-7.525,0A3.721,3.721,0,0,0,55.64,21.831Zm0-1.084c-1.505,0-2.5-1.1-2.5-2.98s0.993-2.98,2.5-2.98,2.5,1.1,2.5,2.98S57.145,20.747,55.64,20.747Zm13.123-6.863-1.1,3.221c-0.391,1.129-.768,2.258-1.114,3.371-0.361-1.114-.722-2.227-1.114-3.356l-1.1-3.236H63.013l2.92,8.022c-0.09.241-.181,0.5-0.271,0.723a1.361,1.361,0,0,1-1.415.963H63.54V24.6a6.006,6.006,0,0,0,.722.045,2.347,2.347,0,0,0,2.528-1.776l3.281-8.985H68.763Zm8.369,6.788A0.356,0.356,0,0,1,76.71,20.3V15.961c0-1.309-.768-2.258-2.92-2.258-2.273,0-3.07,1.069-3.161,2.574h1.2c0.075-1.159.632-1.535,1.957-1.535s1.746,0.406,1.746,1.219a1.081,1.081,0,0,1-1.219,1.069l-1.114.12c-2.137.226-2.875,1.189-2.875,2.408,0,1.46,1.054,2.273,2.739,2.273A2.846,2.846,0,0,0,75.6,20.581,1.114,1.114,0,0,0,76.906,21.7a4.581,4.581,0,0,0,.662-0.045V20.672H77.131Zm-4,.135a1.287,1.287,0,0,1-1.55-1.279c0-.753.391-1.234,1.806-1.4l1.129-.136a2,2,0,0,0,1.023-.331V18.58A2.231,2.231,0,0,1,73.128,20.807Zm12.145-7.044a2.712,2.712,0,0,0-2.5,1.49v-1.37H81.63V21.65h1.2V17.225c0-1.505.993-2.288,2.544-2.288h0.3V13.779C85.513,13.763,85.393,13.763,85.272,13.763Zm7.806,6.908a0.356,0.356,0,0,1-.421-0.376V15.961c0-1.309-.768-2.258-2.92-2.258-2.273,0-3.07,1.069-3.161,2.574h1.2c0.075-1.159.632-1.535,1.957-1.535s1.746,0.406,1.746,1.219a1.081,1.081,0,0,1-1.219,1.069l-1.114.12c-2.137.226-2.875,1.189-2.875,2.408,0,1.46,1.053,2.273,2.739,2.273a2.846,2.846,0,0,0,2.529-1.249A1.114,1.114,0,0,0,92.853,21.7a4.581,4.581,0,0,0,.662-0.045V20.672H93.079Zm-4,.135a1.287,1.287,0,0,1-1.55-1.279c0-.753.391-1.234,1.806-1.4l1.129-.136a2,2,0,0,0,1.023-.331V18.58A2.231,2.231,0,0,1,89.075,20.807Zm11.933-.135a0.356,0.356,0,0,1-.422-0.376V15.961c0-1.309-.767-2.258-2.919-2.258-2.273,0-3.07,1.069-3.161,2.574h1.2c0.075-1.159.632-1.535,1.957-1.535s1.746,0.406,1.746,1.219a1.081,1.081,0,0,1-1.219,1.069l-1.114.12c-2.137.226-2.875,1.189-2.875,2.408,0,1.46,1.053,2.273,2.739,2.273a2.846,2.846,0,0,0,2.529-1.249,1.114,1.114,0,0,0,1.309,1.114,4.568,4.568,0,0,0,.662-0.045V20.672h-0.436Zm-4,.135a1.287,1.287,0,0,1-1.55-1.279c0-.753.391-1.234,1.806-1.4l1.129-.136a2,2,0,0,0,1.023-.331V18.58A2.231,2.231,0,0,1,97,20.807Zm8.673-5.87V13.884h-1.6v-2.2h-1.2v2.2H101.6v1.053h1.279v5.147c0,1.189.737,1.61,1.941,1.61q0.361,0,.858-0.045V20.642H104.97c-0.692,0-.888-0.256-0.888-0.662V14.937h1.6Zm1.774,5.208a0.808,0.808,0,0,0-.843.813,0.784,0.784,0,0,0,.843.783h0.09a1.114,1.114,0,0,1-.827,1.174l-0.106.03v0.8l0.151-.03a2.041,2.041,0,0,0,1.686-2.288A1.057,1.057,0,0,0,107.451,20.145ZM120.3,10.934v3.612c0,1.445,0,3.432.045,5.539-0.587-1.038-1.49-2.468-2.228-3.627l-3.552-5.523h-1.535V21.65h1.249V18.038c0-1.445,0-3.432-.045-5.539,0.587,1.038,1.49,2.468,2.228,3.627l3.552,5.524h1.535V10.934H120.3Zm3.793,1.851a0.813,0.813,0,1,0-.813-0.813A0.82,0.82,0,0,0,124.1,12.785Zm-0.6,8.865h1.2V13.884h-1.2V21.65Zm8.8-7.766v1.129a3.134,3.134,0,0,0-2.664-1.309c-2.182,0-3.612,1.58-3.612,4.064s1.43,4.064,3.612,4.064a3.138,3.138,0,0,0,2.6-1.234v0.753a2.149,2.149,0,0,1-2.408,2.408c-1.219,0-1.957-.5-2.107-1.475h-1.2c0.165,1.505,1.324,2.5,3.311,2.5,2.453,0,3.612-1.415,3.612-3.431V13.884h-1.144Zm-2.513,6.863c-1.5,0-2.5-1.159-2.5-2.98s0.994-2.98,2.5-2.98,2.5,1.1,2.5,2.98S131.285,20.747,129.78,20.747Zm9-7.044a2.861,2.861,0,0,0-2.378,1.249V10.934h-1.2V21.65h1.2V17.255a2.211,2.211,0,0,1,2.137-2.468,1.557,1.557,0,0,1,1.776,1.731V21.65h1.2V16.4A2.476,2.476,0,0,0,138.776,13.7Zm7.732,1.234V13.884h-1.595v-2.2h-1.2v2.2h-1.28v1.053h1.28v5.147c0,1.189.737,1.61,1.941,1.61q0.361,0,.858-0.045V20.642H145.8c-0.693,0-.888-0.256-0.888-0.662V14.937h1.595Zm4.284,6.893a3.721,3.721,0,0,0,3.763-4.064,3.774,3.774,0,1,0-7.525,0A3.721,3.721,0,0,0,150.792,21.831Zm0-1.084c-1.5,0-2.5-1.1-2.5-2.98s0.993-2.98,2.5-2.98,2.5,1.1,2.5,2.98S152.3,20.747,150.792,20.747Zm11.057-6.863v1.129a3.134,3.134,0,0,0-2.664-1.309c-2.182,0-3.612,1.58-3.612,4.064s1.43,4.064,3.612,4.064a3.138,3.138,0,0,0,2.6-1.234v0.753a2.149,2.149,0,0,1-2.408,2.408c-1.219,0-1.957-.5-2.107-1.475h-1.2c0.165,1.505,1.324,2.5,3.311,2.5,2.453,0,3.612-1.415,3.612-3.431V13.884h-1.144Zm-2.513,6.863c-1.505,0-2.5-1.159-2.5-2.98s0.994-2.98,2.5-2.98,2.5,1.1,2.5,2.98S160.841,20.747,159.336,20.747Zm9.056-6.983a2.711,2.711,0,0,0-2.5,1.49v-1.37H164.75V21.65h1.2V17.225c0-1.505.994-2.288,2.544-2.288h0.3V13.779C168.633,13.763,168.513,13.763,168.392,13.763Zm7.806,6.908a0.356,0.356,0,0,1-.421-0.376V15.961c0-1.309-.768-2.258-2.92-2.258-2.272,0-3.07,1.069-3.16,2.574h1.2c0.075-1.159.632-1.535,1.956-1.535s1.746,0.406,1.746,1.219a1.081,1.081,0,0,1-1.219,1.069l-1.114.12c-2.137.226-2.874,1.189-2.874,2.408,0,1.46,1.053,2.273,2.739,2.273a2.844,2.844,0,0,0,2.528-1.249,1.114,1.114,0,0,0,1.31,1.114,4.588,4.588,0,0,0,.662-0.045V20.672H176.2Zm-4,.135a1.286,1.286,0,0,1-1.55-1.279c0-.753.391-1.234,1.806-1.4l1.129-.136a2,2,0,0,0,1.023-.331V18.58A2.23,2.23,0,0,1,172.2,20.807Zm9.3-7.1a3.053,3.053,0,0,0-2.664,1.385v-1.2h-1.144V24.6h1.2V20.536a3.051,3.051,0,0,0,2.6,1.294c2.182,0,3.612-1.58,3.612-4.064S183.676,13.7,181.494,13.7Zm-0.15,7.044c-1.506,0-2.5-1.1-2.5-2.98s0.993-2.98,2.5-2.98,2.5,1.039,2.5,2.92S182.849,20.747,181.344,20.747ZM190.09,13.7a2.862,2.862,0,0,0-2.378,1.249V10.934h-1.2V21.65h1.2V17.255a2.211,2.211,0,0,1,2.137-2.468,1.557,1.557,0,0,1,1.776,1.731V21.65h1.2V16.4A2.476,2.476,0,0,0,190.09,13.7Zm9.141,0.181-1.1,3.221c-0.391,1.129-.767,2.258-1.113,3.371-0.362-1.114-.723-2.227-1.114-3.356l-1.1-3.236h-1.324l2.919,8.022c-0.09.241-.18,0.5-0.27,0.723a1.361,1.361,0,0,1-1.415.963h-0.708V24.6a6.013,6.013,0,0,0,.723.045,2.346,2.346,0,0,0,2.528-1.776l3.281-8.985h-1.309ZM32.384,30.922a3.051,3.051,0,0,0-2.6,1.294V28.153h-1.2V38.869H29.72v-1.2a3.053,3.053,0,0,0,2.664,1.385c2.182,0,3.612-1.58,3.612-4.064S34.567,30.922,32.384,30.922Zm-0.151,7.044c-1.505,0-2.5-1.1-2.5-2.98s0.993-2.98,2.5-2.98,2.5,1.038,2.5,2.92S33.739,37.966,32.234,37.966Zm11.475-.075a0.356,0.356,0,0,1-.421-0.376V33.18c0-1.309-.768-2.258-2.92-2.258-2.273,0-3.07,1.069-3.161,2.574h1.2c0.075-1.159.632-1.535,1.957-1.535s1.746,0.406,1.746,1.219a1.081,1.081,0,0,1-1.219,1.069l-1.114.12c-2.137.226-2.875,1.189-2.875,2.408,0,1.46,1.054,2.273,2.739,2.273A2.847,2.847,0,0,0,42.174,37.8a1.114,1.114,0,0,0,1.309,1.114,4.579,4.579,0,0,0,.662-0.045V37.891H43.709Zm-4,.135a1.287,1.287,0,0,1-1.55-1.279c0-.752.391-1.234,1.806-1.4l1.129-.135a2,2,0,0,0,1.023-.331V35.8A2.231,2.231,0,0,1,39.706,38.026Zm9.073-7.1a2.861,2.861,0,0,0-2.438,1.339V31.1H45.2v7.766h1.2V34.474a2.211,2.211,0,0,1,2.137-2.468,1.558,1.558,0,0,1,1.776,1.731v5.132h1.2V33.616A2.476,2.476,0,0,0,48.779,30.922Zm10.858,6.968a0.356,0.356,0,0,1-.421-0.376V33.18c0-1.309-.768-2.258-2.92-2.258-2.273,0-3.07,1.069-3.161,2.574h1.2c0.075-1.159.632-1.535,1.957-1.535s1.746,0.406,1.746,1.219a1.081,1.081,0,0,1-1.219,1.069l-1.114.12c-2.137.226-2.875,1.189-2.875,2.408,0,1.46,1.054,2.273,2.739,2.273A2.847,2.847,0,0,0,58.1,37.8a1.114,1.114,0,0,0,1.309,1.114,4.581,4.581,0,0,0,.662-0.045V37.891H59.637Zm-4,.135a1.287,1.287,0,0,1-1.55-1.279c0-.752.391-1.234,1.806-1.4l1.129-.135a2,2,0,0,0,1.023-.331V35.8A2.231,2.231,0,0,1,55.633,38.026ZM65.715,31.1l-1.1,3.221c-0.391,1.129-.768,2.258-1.114,3.371-0.361-1.114-.722-2.227-1.114-3.356L61.29,31.1H59.966l2.92,8.022c-0.09.241-.181,0.5-0.271,0.722a1.361,1.361,0,0,1-1.415.963H60.493v1.008a6,6,0,0,0,.723.045,2.347,2.347,0,0,0,2.528-1.776L67.025,31.1H65.715Zm8.719,3.883c0-2.227-1.249-4.064-3.567-4.064-2.152,0-3.582,1.625-3.582,4.064,0,2.514,1.49,4.064,3.612,4.064a3.24,3.24,0,0,0,3.341-2.544H72.99a2,2,0,0,1-2.062,1.445c-1.355,0-2.273-.8-2.393-2.544h5.9V34.986Zm-3.567-2.965a2.277,2.277,0,0,1,2.273,2.3H68.565A2.284,2.284,0,0,1,70.868,32.021Zm11.693-3.868H78.949V38.869h3.612c3.236,0,5.253-2,5.253-5.358S85.8,28.153,82.561,28.153Zm0,9.572H80.213V29.3h2.348c2.589,0,3.928,1.625,3.928,4.214S85.149,37.725,82.561,37.725ZM89.8,30a0.813,0.813,0,1,0-.813-0.813A0.819,0.819,0,0,0,89.8,30Zm-0.6,8.865h1.2V31.1H89.2v7.766ZM101.583,31.1l-1.1,3.507c-0.286.933-.572,1.866-0.828,2.8-0.271-.933-0.557-1.866-0.843-2.8L97.73,31.1H96.466L95.382,34.61c-0.3.948-.572,1.881-0.828,2.83-0.271-.948-0.542-1.881-0.843-2.83l-1.1-3.507H91.319l2.589,7.766h1.264l1.129-3.6c0.271-.858.542-1.761,0.8-2.634,0.241,0.873.512,1.776,0.783,2.634l1.144,3.6h1.264l2.589-7.766h-1.3Zm8.394,6.788a0.356,0.356,0,0,1-.421-0.376V33.18c0-1.309-.768-2.258-2.92-2.258-2.272,0-3.07,1.069-3.16,2.574h1.2c0.075-1.159.632-1.535,1.956-1.535s1.746,0.406,1.746,1.219a1.081,1.081,0,0,1-1.219,1.069l-1.114.12c-2.137.226-2.874,1.189-2.874,2.408,0,1.46,1.053,2.273,2.739,2.273a2.847,2.847,0,0,0,2.528-1.249,1.114,1.114,0,0,0,1.31,1.114,4.588,4.588,0,0,0,.662-0.045V37.891h-0.437Zm-4,.135a1.286,1.286,0,0,1-1.55-1.279c0-.752.391-1.234,1.806-1.4l1.129-.135a2,2,0,0,0,1.023-.331V35.8A2.23,2.23,0,0,1,105.974,38.026Zm7.16,0.888a7.653,7.653,0,0,0,.768-0.045V37.861H113.33a0.6,0.6,0,0,1-.738-0.662V28.153h-1.2V37.3A1.471,1.471,0,0,0,113.134,38.914ZM115.456,30a0.813,0.813,0,1,0-.813-0.813A0.819,0.819,0,0,0,115.456,30Zm-0.6,8.865h1.2V31.1h-1.2v7.766Zm8.759,0.181c1.911,0,3.085-.843,3.085-2.318,0-1.264-.767-1.911-2.679-2.288l-0.692-.136c-0.993-.2-1.565-0.467-1.565-1.2,0-.722.587-1.144,1.625-1.144,1.189,0,1.9.331,1.957,1.535h1.2c-0.03-1.656-1.084-2.574-3.161-2.574-1.776,0-2.829.873-2.829,2.2,0,1.2.737,1.972,2.423,2.288l0.722,0.136c1.355,0.256,1.776.572,1.776,1.264,0,0.768-.557,1.2-1.866,1.2-1.37,0-1.942-.437-2.077-1.61h-1.219C120.437,38.222,121.641,39.05,123.613,39.05Zm7.962-8.127a2.862,2.862,0,0,0-2.378,1.249V28.153h-1.2V38.869h1.2V34.474a2.211,2.211,0,0,1,2.138-2.468,1.557,1.557,0,0,1,1.775,1.731v5.132h1.2V33.616A2.476,2.476,0,0,0,131.575,30.922Zm10.858,6.968a0.356,0.356,0,0,1-.421-0.376V33.18c0-1.309-.768-2.258-2.92-2.258-2.272,0-3.07,1.069-3.16,2.574h1.2c0.075-1.159.632-1.535,1.956-1.535s1.746,0.406,1.746,1.219a1.081,1.081,0,0,1-1.219,1.069l-1.114.12c-2.137.226-2.874,1.189-2.874,2.408,0,1.46,1.053,2.273,2.739,2.273A2.846,2.846,0,0,0,140.9,37.8a1.114,1.114,0,0,0,1.31,1.114,4.588,4.588,0,0,0,.662-0.045V37.891h-0.437Zm-4,.135a1.286,1.286,0,0,1-1.55-1.279c0-.752.391-1.234,1.806-1.4l1.129-.135a2,2,0,0,0,1.023-.331V35.8A2.23,2.23,0,0,1,138.43,38.026Zm11.933-.135a0.356,0.356,0,0,1-.422-0.376V33.18c0-1.309-.767-2.258-2.919-2.258-2.273,0-3.071,1.069-3.161,2.574h1.2c0.075-1.159.632-1.535,1.957-1.535s1.745,0.406,1.745,1.219a1.081,1.081,0,0,1-1.219,1.069l-1.113.12c-2.138.226-2.875,1.189-2.875,2.408,0,1.46,1.054,2.273,2.739,2.273a2.847,2.847,0,0,0,2.529-1.249,1.113,1.113,0,0,0,1.309,1.114,4.568,4.568,0,0,0,.662-0.045V37.891h-0.436Zm-4,.135a1.287,1.287,0,0,1-1.55-1.279c0-.752.392-1.234,1.806-1.4l1.129-.135a2,2,0,0,0,1.023-.331V35.8A2.23,2.23,0,0,1,146.359,38.026Zm9.074-7.1a2.862,2.862,0,0,0-2.439,1.339V31.1h-1.143v7.766h1.2V34.474a2.21,2.21,0,0,1,2.137-2.468,1.557,1.557,0,0,1,1.776,1.731v5.132h1.2V33.616A2.476,2.476,0,0,0,155.433,30.922Zm10.331-2.769v4.064a3.051,3.051,0,0,0-2.6-1.294c-2.182,0-3.612,1.58-3.612,4.064s1.43,4.064,3.612,4.064a3.053,3.053,0,0,0,2.664-1.385v1.2h1.144V28.153h-1.2Zm-2.453,9.813c-1.5,0-2.5-1.038-2.5-2.92s0.994-3.04,2.5-3.04,2.5,1.1,2.5,2.98S164.816,37.966,163.311,37.966Zm11.8-.075a0.356,0.356,0,0,1-.422-0.376V33.18c0-1.309-.767-2.258-2.92-2.258-2.272,0-3.07,1.069-3.16,2.574h1.2c0.075-1.159.632-1.535,1.956-1.535s1.746,0.406,1.746,1.219a1.081,1.081,0,0,1-1.219,1.069l-1.114.12c-2.137.226-2.874,1.189-2.874,2.408,0,1.46,1.053,2.273,2.739,2.273a2.845,2.845,0,0,0,2.528-1.249,1.114,1.114,0,0,0,1.31,1.114,4.578,4.578,0,0,0,.662-0.045V37.891h-0.436Zm-4,.135a1.287,1.287,0,0,1-1.55-1.279c0-.752.391-1.234,1.806-1.4l1.129-.135a2,2,0,0,0,1.023-.331V35.8A2.23,2.23,0,0,1,171.109,38.026Zm11.933-.135a0.356,0.356,0,0,1-.421-0.376V33.18c0-1.309-.768-2.258-2.92-2.258-2.273,0-3.071,1.069-3.161,2.574h1.2c0.075-1.159.632-1.535,1.957-1.535s1.746,0.406,1.746,1.219a1.082,1.082,0,0,1-1.22,1.069l-1.113.12c-2.137.226-2.875,1.189-2.875,2.408,0,1.46,1.054,2.273,2.739,2.273a2.847,2.847,0,0,0,2.529-1.249,1.113,1.113,0,0,0,1.309,1.114,4.568,4.568,0,0,0,.662-0.045V37.891h-0.436Zm-4,.135a1.287,1.287,0,0,1-1.55-1.279c0-.752.392-1.234,1.806-1.4l1.129-.135a2.005,2.005,0,0,0,1.024-.331V35.8A2.231,2.231,0,0,1,179.038,38.026Zm9.134-7.044a2.714,2.714,0,0,0-2.5,1.49V31.1H184.53v7.766h1.2V34.444c0-1.505.993-2.288,2.543-2.288h0.3V31C188.413,30.982,188.292,30.982,188.172,30.982Zm1.7,5.087h0.783L190.93,31.1v-2.95h-1.264V31.1Zm0.437,2.9a0.864,0.864,0,0,0,.858-0.888,0.881,0.881,0,0,0-1.761,0A0.866,0.866,0,0,0,190.313,38.974Z"/>
</svg>
