<svg id="F2" xmlns="http://www.w3.org/2000/svg" width="300" height="250" viewBox="0 0 600 500">
  <defs>
    <style>
      .cls-1 {
        fill: #080;
        fill-rule: evenodd;
      }
    </style>
  </defs>
  <g id="BUTTON_copy" data-name="BUTTON copy">
    <path id="了解更多_" data-name="了解更多 " class="cls-1" d="M87.072,318.74l0.72,1.6,2.94-.04a1.331,1.331,0,0,0,1.08-.52,1.7,1.7,0,0,0,.38-1.04l0.02-8.9a17.34,17.34,0,0,0,5.46-4.46v-1.34H84.532v1.5l10.88,0.02a18.162,18.162,0,0,1-4.84,3.5v9.08a0.812,0.812,0,0,1-.1.4,0.347,0.347,0,0,1-.22.2h-3.18Zm21.817-9.56,0.64,0.88a5.888,5.888,0,0,0,2.43-1.95,7.339,7.339,0,0,0,1.09-2.83h2.24q-0.281,1.52-.42,2a0.6,0.6,0,0,1-.74.56,7.106,7.106,0,0,1-1.42-.46l0.46,1.66c0.146,0.013.41,0.05,0.79,0.11a4.365,4.365,0,0,0,.89.07,1.377,1.377,0,0,0,.76-0.27,1.36,1.36,0,0,0,.48-0.63,16.847,16.847,0,0,0,.9-4.5h-7.58v1.46h2.18a3.807,3.807,0,0,1-.92,2.12,4.992,4.992,0,0,1-1.82,1.38v-0.9h-2.1a23.679,23.679,0,0,0,1.04-3.22h-3.54a8.9,8.9,0,0,0,.24-1.24l-1.3-.52a12.043,12.043,0,0,1-3.32,6.3l1.26,0.86,0.52-.58v6.22a9.505,9.505,0,0,1-.28,1.51,7.041,7.041,0,0,1-.44,1.16,9.487,9.487,0,0,1-1.04,1.51l1.141,1.04a9.239,9.239,0,0,0,2.12-4.72h4.18v2.38a0.6,0.6,0,0,1-.14.39,0.468,0.468,0,0,1-.38.17h-1.76l0.84,1.48h1.58a1.145,1.145,0,0,0,1.04-.54,2.517,2.517,0,0,0,.34-1.36Zm-1.56,2.14h-1.4V309.3h1.38Zm-4.18,0V309.3h1.34v2.02h-1.34Zm1.34,1.36v2.1h-1.32l-0.02-2.1h1.34Zm1.44-6.56a7.039,7.039,0,0,1-.33.85q-0.231.51-.45,0.89l-2.3.02a13.686,13.686,0,0,0,.86-1.76h2.22Zm1.4,8.66-1.38-.02-0.02-2.08h1.4v2.1Zm10.52,1.68V315h-3.38v-2.08h2.32l0.02-1.46h-2.34v-2.08l-1.5.02-0.02,2.08-0.98-.02a6.728,6.728,0,0,0,.14-1.3l-1.38-.42a8.859,8.859,0,0,1-.61,2.79,5.553,5.553,0,0,1-1.11,1.65l1.54,0.54a7.3,7.3,0,0,0,1.02-1.8h1.4V315l-3.88.02v1.44h3.86l0.02,4.4h1.5v-4.4h3.38Zm19.65,2.78q-1.86-.04-3.91-0.27a34.2,34.2,0,0,1-3.61-.58,9.638,9.638,0,0,1-2.44-.83,5.983,5.983,0,0,0,.84-1.51,7.645,7.645,0,0,0,.46-1.77h5.84v-7.4h-5.56V305.4l7.74,0.02V304H119.8v1.42l7.84-.02v1.48H121.9l-0.02,7.4h5.44a6.405,6.405,0,0,1-.41,1.32,5.558,5.558,0,0,1-.69,1.2,23.764,23.764,0,0,1-2.92-2.28l-1.16.78a13.633,13.633,0,0,0,2.9,2.56,17.456,17.456,0,0,1-3.01,1.13,27.554,27.554,0,0,1-2.81.63l0.9,1.34a14.056,14.056,0,0,0,5.74-1.9l0.62-.42a18.711,18.711,0,0,0,3.82,1.33,36.343,36.343,0,0,0,6.26.81Zm-4.28-9.4h-4.08l0.02-1.54h4.06v1.54Zm-9.84-1.54,4.26,0.02v1.52h-4.26V308.3Zm9.86,2.96v1.58H129l0.1-1.58h4.14Zm-9.86,0h4.22l-0.08,1.58-4.14-.02v-1.56Zm19.672,5a37.047,37.047,0,0,0,4.05-1.98,16.162,16.162,0,0,0,2.27-1.62h5.12a8.445,8.445,0,0,1-.93,1.29,8.7,8.7,0,0,1-1.46,1.33,16.437,16.437,0,0,1-1.95,1.22,6.237,6.237,0,0,0-2.06-2.18l-1.44.82a7.16,7.16,0,0,1,2.2,2,39.755,39.755,0,0,1-8.96,2.36l1,1.38a54.038,54.038,0,0,0,5.82-1.32,24.911,24.911,0,0,0,3.53-1.39,14.9,14.9,0,0,0,2.87-1.82,11.982,11.982,0,0,0,2.01-2.03,13.889,13.889,0,0,0,1.19-1.84l0.02-1.34-5.4-.02a9.2,9.2,0,0,0,1.06-1.42l-1.18-.64a16.729,16.729,0,0,0,2.82-2.84v-1.34h-5.64a14.769,14.769,0,0,0,1.46-1.6l-1.4-.74a15.415,15.415,0,0,1-7.72,4.84l1.32,1.24a21.328,21.328,0,0,0,4.38-2.22h5.5a19.193,19.193,0,0,1-1.86,1.56,17.8,17.8,0,0,1-2.12,1.28,7.971,7.971,0,0,0-1.07-1.11,6.413,6.413,0,0,0-1.17-.87l-1.4.9a6.988,6.988,0,0,1,2.24,1.68,23.194,23.194,0,0,1-2.79.92q-1.871.519-3.45,0.88l0.96,1.34a40.273,40.273,0,0,0,5.88-1.79,24.486,24.486,0,0,0,3.74-1.85,14.108,14.108,0,0,1-3.57,3.23,25.483,25.483,0,0,1-5.03,2.41Z"/>
  </g>
</svg>
