<svg id="F1" xmlns="http://www.w3.org/2000/svg" width="300" height="250" viewBox="0 0 600 500">
  <defs>
    <style>
      .cls-1 {
        fill: #4b286d;
        fill-rule: evenodd;
      }
    </style>
  </defs>
  <path id="數據不夠_全家不高興_" data-name="數據不夠， 全家不高興？ " class="cls-1" d="M80.852,121.4a48.326,48.326,0,0,1-1.2,10.419,21.362,21.362,0,0,1-3.726,8.073v-0.966H67.466l-0.046-1.564,8.372,0.046,0.046-5.106H78.6v-3.128h-2.76l-0.046-4.6H67.466l-0.046-3.082-3.45.046v3.036H55.644v4.6H52.332l0.046,3.128h3.266v5.106l8.326-.046v1.564H55.69v7.5h7.958l-1.38,2.116-9.292.046-0.046,3.22h7.038a10.594,10.594,0,0,1-1.311,1.564q-0.9.921-2.691,2.668a26.46,26.46,0,0,1,6.762,1.15q-3.267,1.749-10.672,2.53l1.426,3.174a31.106,31.106,0,0,0,13.294-4.416q0.459,0.231,2.208,1.127t2.668,1.426l1.242,0.713,1.932-2.806q-3.681-1.977-5.152-2.622a12.493,12.493,0,0,0,3.5-4.554l5.566,0.046v-3.22l-12.374-.046,0.69-1.242-1.978-.874H75.93V142.01l1.84,1.242a12.554,12.554,0,0,0,.851-1.219q0.575-.9.8-1.219a57.513,57.513,0,0,0,2.9,10.58,35.963,35.963,0,0,1-3.749,5.727,21.189,21.189,0,0,1-3.519,3.381l2.3,2.346a30.329,30.329,0,0,0,3.841-3.887,33.517,33.517,0,0,0,2.829-4.163,25.2,25.2,0,0,0,6.992,8.142l2.392-2.53a23.77,23.77,0,0,1-4.439-4.163,22.455,22.455,0,0,1-3.1-4.853q3.266-6.716,4-17.94h2.208V130.1H83.29a32.6,32.6,0,0,0,.69-7.958ZM63.97,127.52v1.656H58.956l0.046-1.7Zm8.556-.046v1.7h-5.06v-1.7h5.06Zm0,6.992-5.106.046,0.046-2.208h5.06v2.162ZM63.97,132.3v2.162L59,134.42,58.956,132.3H63.97Zm8.648,11.27H67.466L67.42,141.78h5.2v1.794Zm-13.57,0V141.78l4.968-.046-0.046,1.84H59.048Zm3.266,10.3,1.794-2.116,5.29,0.046a11.317,11.317,0,0,1-2.9,3.174Zm24.334-20.47a43.207,43.207,0,0,1-.828,7.8,59.064,59.064,0,0,1-1.656,6.049q-0.231-.643-0.529-1.633t-0.644-2.484q-0.345-1.494-.713-3.795t-0.552-3.174q0.138-.506.483-1.5t0.437-1.265h4Zm38.686,4.37a1.033,1.033,0,0,1-1.2-1.242l7.682-.782v-2.9l-7.682.736v-1.656h9.706q-0.047.184-.368,1.1t-0.483,1.5q-0.162.576-.207,0.759l3.128,0.736q1.287-3.817,1.587-5.129a18.411,18.411,0,0,0,.391-2.277h-13.8V127.06l10.534-.046v-2.76l-10.534-.046v-2.484h-3.45l-0.046,6.9h-8.74v14.03q0,7.728-1.242,11.592a18.638,18.638,0,0,1-3.588,6.578l2.99,2.116a26.637,26.637,0,0,0,5.29-16.7l0.046-14.26h5.29L120.6,133.96l-4.508.368,0.046,3.082,4.646-.6a5.889,5.889,0,0,0,.276,1.7,3.016,3.016,0,0,0,1.219,1.472,3.243,3.243,0,0,0,1.817.6h9.752v-2.76Zm-18.078,8.142,3.864-1.7v-3.542l-3.818,1.7V134.1h3.726V130.74h-3.772l-0.046-8.924h-3.45l0.046,8.97h-4.83l0.046,3.312h4.738v9.8l-6.3,2.76,2.116,2.668,4.232-1.794v10.856a1.349,1.349,0,0,1-.322.92,1.1,1.1,0,0,1-.874.368q-1.932,0-3.956-.138l1.472,3.312h1.4q0.989,0,1.771-.069a5.747,5.747,0,0,0,1.518-.345,3.945,3.945,0,0,0,1.909-1.334,3.464,3.464,0,0,0,.575-2.024Zm31.97,11.638a9.623,9.623,0,0,1-3.427-2.944,9.525,9.525,0,0,1-1.633-3.864,22.913,22.913,0,0,0,1.909-1.725q0.483-.528.851-0.989l-2.346-2.3a20.812,20.812,0,0,1-2.53,2.392,10.814,10.814,0,0,1-2.622,1.61,15.074,15.074,0,0,0-2.162-2.76q2.346-1.334,2.852-1.725c0.337-.26.552-0.437,0.644-0.529l6.118-.046,0.046-2.99H116.5v2.99l8.878,0.092q-3.174,1.749-9.936,2.622l1.84,2.76a39.626,39.626,0,0,0,7.222-1.84,2.356,2.356,0,0,1,.414.437c0.184,0.23.291,0.361,0.322,0.391a19.315,19.315,0,0,1-4.508,2.254,43.689,43.689,0,0,1-5.98,1.61l2.024,2.576a39.417,39.417,0,0,0,4.83-1.426,30.065,30.065,0,0,0,5.2-2.576l0.552,1.15a23.421,23.421,0,0,1-6.072,3.473,43.626,43.626,0,0,1-6.762,1.817l2.024,2.53a36.988,36.988,0,0,0,6.256-1.978,38.308,38.308,0,0,0,5.382-2.944,8.707,8.707,0,0,1,.069,3.174,1.59,1.59,0,0,1-.575.828,5.607,5.607,0,0,1-2.967.069q-1.956-.345-2.691-0.391l1.15,3.22q0.138,0,1.748.092a12.725,12.725,0,0,0,2.622-.069,5.763,5.763,0,0,0,1.794-.575,3.854,3.854,0,0,0,1.886-2.921,17.677,17.677,0,0,0-.552-6.279l0.782-.46q1.425,5.658,5.52,7.544Zm23.644,5.106h3.772l-0.092-30.406q0.552-.782,1.541-2.438t1.219-2.024l12.742,0.046v-3.45L147.46,124.3v3.5H165.4a22.681,22.681,0,0,1-1.748,2.484q-1.38,1.794-1.564,2.07a34.231,34.231,0,0,1-7.2,7.452,60.177,60.177,0,0,1-9.591,5.888l2.3,2.99q10.671-5.934,15.272-11.638v25.622Zm5.014-25.116a29.633,29.633,0,0,1,7.337,4.6,46.962,46.962,0,0,1,6.693,6.716l2.806-2.392q-6.9-7.958-14.4-11.362Zm58.19-7.176q0,5.29-.552,13.156a73.493,73.493,0,0,1-1.886,13.57,2.073,2.073,0,0,1-1.081,1.357,4.41,4.41,0,0,1-2.093.253q-1.978-.23-5.52-0.966l0.874,3.91q3.081,0.459,3.864.529t1.242,0.069a6.681,6.681,0,0,0,3.91-.874,5.365,5.365,0,0,0,2.162-3.22,74.283,74.283,0,0,0,2.024-14.306q0.505-7.038.644-16.836H216.828a28.537,28.537,0,0,0,1.1-5.8l-3.45-.69a25.844,25.844,0,0,1-2.369,9.131,43.808,43.808,0,0,1-5.589,8.717l3.082,2.024q0.644-.782,2.024-2.9v16.376l3.312-.046V151.44h4.6v2.438H222.9V135.662H212.78a34.446,34.446,0,0,0,2.806-5.29h10.488Zm-11.132,8.6h4.6v9.154h-4.6v-9.154ZM201.05,120.758a31.5,31.5,0,0,1-3.887,6.486,38.182,38.182,0,0,1-5.635,5.612l2.852,2.116a38.958,38.958,0,0,0,5.8-5.934h5.842a13.626,13.626,0,0,1-1.7,2.875,16.763,16.763,0,0,1-2.484,2.691,13.2,13.2,0,0,0-1.127-1.5q-0.759-.9-1.5-1.633l-2.622,1.978a18.685,18.685,0,0,1,2.9,3.22,37.427,37.427,0,0,1-8.28,4.232l2.576,2.714a37.232,37.232,0,0,0,10.35-6.578,18.984,18.984,0,0,0,4.048-5.083,18.678,18.678,0,0,0,2.116-6.279h-7.958q0.506-.873,1.794-3.312Zm1.886,17.756a23.642,23.642,0,0,1-4.6,6.049,49.18,49.18,0,0,1-6.992,5.313l2.852,2.254a41.475,41.475,0,0,0,7.866-6.578h4.14a17.964,17.964,0,0,1-3.45,6.348,15.332,15.332,0,0,0-2.622-3.358l-2.944,1.886a13.732,13.732,0,0,1,2.024,1.863,9.976,9.976,0,0,1,1.38,1.909,46.9,46.9,0,0,1-4.9,3.128,48.91,48.91,0,0,1-5.359,2.622l2.254,2.76a54.885,54.885,0,0,0,8.924-5.083,22.561,22.561,0,0,0,4.508-4.439,24.419,24.419,0,0,0,4.232-10.948h-5.7a23.048,23.048,0,0,0,1.288-2.254Zm55.614-.276h-5.06v5.06h2.484a4.555,4.555,0,0,1-2.76,4.554l1.334,1.7a6.6,6.6,0,0,0,2.369-1.794,6.8,6.8,0,0,0,1.265-2.323,8.185,8.185,0,0,0,.368-2.369v-4.83ZM70.686,211.282H54.356v3.45l36.57-.046v-3.4H74.274V204.52H83.8v-3.312H74.274l-0.046-6.394h10.9l-0.046-2.07a42.863,42.863,0,0,0,5.98,2.53l2.024-3.128a35.688,35.688,0,0,1-8.993-4.232,29.236,29.236,0,0,1-5.911-5.06,21.607,21.607,0,0,1-3.312-5.06l-13.34-.046,0.046,3.45,6.762-.046a24.553,24.553,0,0,1-6.854,6.739,40.278,40.278,0,0,1-9.568,4.715l2.024,3.082a38.061,38.061,0,0,0,5.75-2.53l-0.046,1.656,11.04-.046,0.046,6.44H61.256v3.358l9.43-.046v6.762ZM72.664,181.2a23.717,23.717,0,0,0,2.3,3.4,26.758,26.758,0,0,0,3.7,3.795,34.068,34.068,0,0,0,4.117,3.059l-20.47-.092a28.963,28.963,0,0,0,4.071-2.967,25.113,25.113,0,0,0,3.68-3.818,22.268,22.268,0,0,0,2.231-3.427Zm64.17-.322H121.286a17.122,17.122,0,0,0-2.783-3.588,15.85,15.85,0,0,0-3.059-2.438l-2.9,2.162a34.1,34.1,0,0,1,3.611,2.9,6.812,6.812,0,0,1,.759.966H100.31v8.556h3.542l-0.046-5.29h29.486v5.106h3.542v-8.372Zm2.208,29.578a12.779,12.779,0,0,1-3.979-2.484,21.55,21.55,0,0,1-3.519-4.094,18.108,18.108,0,0,1-2.346-4.784,33.624,33.624,0,0,0,5.106-4.6l-2.668-2.346q-4.416,5.291-8.51,6.624a12.16,12.16,0,0,0-1.863-2.921,10.867,10.867,0,0,0-2.461-2.231,32.988,32.988,0,0,0,4.416-2.944h8.464v-3.266H105.738l-0.046,3.312,11.592,0.046q-5.7,3.45-16.744,5.2L102.932,199a40.13,40.13,0,0,0,12.466-3.634,13.924,13.924,0,0,1,2.3,1.564,30.314,30.314,0,0,1-4.278,2.53,32.415,32.415,0,0,1-6.095,2.231,66.013,66.013,0,0,1-7.659,1.541l2.438,2.99a34.683,34.683,0,0,0,9.315-2.254,42.7,42.7,0,0,0,8.165-4.416,19.023,19.023,0,0,1,1.242,2.668,30.41,30.41,0,0,1-9.66,5.589,63.478,63.478,0,0,1-12.42,3.013l2.53,3.174a74.115,74.115,0,0,0,7.659-1.863,47.593,47.593,0,0,0,6.992-2.691,25.426,25.426,0,0,0,5.635-3.634,38.424,38.424,0,0,1-.184,6.164,2.011,2.011,0,0,1-.506.874,2.523,2.523,0,0,1-.828.644,15.4,15.4,0,0,1-3.358-.3,38.458,38.458,0,0,1-4.37-1.173l1.426,4.094q5.934,1.1,8.05.322a3.974,3.974,0,0,0,2.047-1.587,8.913,8.913,0,0,0,1.081-3.979,26.455,26.455,0,0,0-.023-4.531,34.249,34.249,0,0,0-.667-4.531l2.208-.92A27.465,27.465,0,0,0,128.324,205a22.477,22.477,0,0,0,3.519,4.715,14.307,14.307,0,0,0,4.9,3.45Zm23.828,6.21h3.772l-0.092-30.406q0.552-.782,1.541-2.438t1.219-2.024l12.742,0.046v-3.45L147.46,178.3v3.5H165.4a22.681,22.681,0,0,1-1.748,2.484q-1.38,1.794-1.564,2.07a34.231,34.231,0,0,1-7.2,7.452,60.177,60.177,0,0,1-9.591,5.888l2.3,2.99q10.671-5.934,15.272-11.638v25.622Zm5.014-25.116a29.633,29.633,0,0,1,7.337,4.6,46.962,46.962,0,0,1,6.693,6.716l2.806-2.392q-6.9-7.958-14.4-11.362Zm31.51-6.946,0.046,9.246h22.494V184.6h-22.54Zm3.4,3.312H218.53v2.576H202.844Zm16.928,22.816v-9.844l-18.078.046-0.046,9.8h18.124Zm-14.674-6.44h11.224l0.046,3.128-11.27-.046V204.29Zm-13.064-21.758,37.444,0.046-0.046-3.358H212.458a19.9,19.9,0,0,0-1.426-2.116,17.464,17.464,0,0,0-1.84-2.07l-3.542,1.472q0.919,0.69,1.84,1.5a16.135,16.135,0,0,1,1.288,1.219H191.942Zm27.416,33.35q0.276,0,2.392-.023a19.593,19.593,0,0,0,3.082-.207,3.359,3.359,0,0,0,2.047-1.334,4.033,4.033,0,0,0,.851-2.53v-16.1l-33.994.046L193.736,216.8l3.634-.046v-17.71L224.188,199v11.73a2.139,2.139,0,0,1-.276,1.081,1.079,1.079,0,0,1-.69.575,12.821,12.821,0,0,1-2.553.046q-1.725-.091-2.231-0.092Zm29.44-38.548v0.506l-1.932-2.116a17.74,17.74,0,0,1-7.544,4.83L240.886,203H237.16l-0.046,3.358h39.238V203h-3.864l1.794-25.024H264.9v3.312h5.7l-0.322,4.278h-4.83v3.312H270.1l-0.46,5.06H265.45V197.3H269.5l-0.414,5.75L264.346,203,264.3,177.334H248.844Zm3.5,3.358h8.51V203l-8.464.046ZM248.89,203h-4.6l-0.368-5.7h4V193.94h-4.232l-0.368-5.06h4.738v-3.358H243.14l-0.184-3.174a21.9,21.9,0,0,0,5.934-3.68V203Zm4.278-15.134,0.046,12.972h6.992V187.868h-7.038Zm2.806,9.66-0.046-6.348h1.426v6.348h-1.38Zm4.738-11.408v-3.358h-8v3.358h8ZM238.632,216.3a36.715,36.715,0,0,0,14.4-7.5l-2.208-2.392a35.3,35.3,0,0,1-14.4,6.762Zm38.41-2.852a46.506,46.506,0,0,0-4.393-3.036,30.764,30.764,0,0,0-4.071-2.047,40.09,40.09,0,0,0-6.44-1.771l-2.3,2.806a35.172,35.172,0,0,1,14.95,6.762ZM312.094,184.6a8.574,8.574,0,0,0-2.208-2.875,10.241,10.241,0,0,0-3.381-1.886,12.975,12.975,0,0,0-4.209-.667,11.918,11.918,0,0,0-4.186.736A9.626,9.626,0,0,0,294.729,182a10.253,10.253,0,0,0-2.231,3.2,12.658,12.658,0,0,0-.874,3.5l4.14,0.46a10.479,10.479,0,0,1,1.38-3.841,5.413,5.413,0,0,1,2.392-2.231,7.006,7.006,0,0,1,2.806-.6,6.321,6.321,0,0,1,3.542,1.058,5.867,5.867,0,0,1,2.231,2.438,6.075,6.075,0,0,1,.621,2.438,5.123,5.123,0,0,1-.3,1.656,5.47,5.47,0,0,1-1.012,1.725,17.6,17.6,0,0,1-2,1.955,24.654,24.654,0,0,0-3.565,3.634,7.567,7.567,0,0,0-1.426,3.289,18.466,18.466,0,0,0-.207,3.887h3.864a22.848,22.848,0,0,1,.253-3.059,5.259,5.259,0,0,1,.943-2.277,18.439,18.439,0,0,1,2.622-2.668q1.149-1.011,2.277-2.185a11.069,11.069,0,0,0,1.909-2.737,7.71,7.71,0,0,0,.782-3.5A8.2,8.2,0,0,0,312.094,184.6Zm-7.544,28.06v-4.6h-4.6v4.6h4.6Z"/>
</svg>
