<svg id="F2" xmlns="http://www.w3.org/2000/svg" width="300" height="250" viewBox="0 0 600 500">
  <defs>
    <style>
      .cls-1 {
        fill: #4b286d;
        fill-rule: evenodd;
      }
    </style>
  </defs>
  <path id="TELUS家庭優惠計劃_無限數據_節省更多_" data-name="TELUS家庭優惠計劃 無限數據 節省更多 " class="cls-1" d="M72.485,126.965H46.216v3.5H57.349V159.72h4V130.461H72.485v-3.5Zm26.22,3.5v-3.5H75.932V159.72H98.521v-3.5H79.8V144.4H96.864v-3.5H79.8V130.461H98.7Zm8,25.762V126.965h-3.864V159.72h20.334v-3.5h-16.47ZM137.9,160.41c8.189,0,12.882-4.647,12.882-12.835v-20.61h-3.865v20.61c0,6.44-3.312,9.339-9.017,9.339s-9.016-2.9-9.016-9.339v-20.61h-3.865v20.61C125.014,155.763,129.707,160.41,137.9,160.41Zm30.406,0.046c7.867,0,12.283-3.818,12.283-9.615,0-4.738-2.668-7.683-10.213-9.339l-2.9-.644c-6.164-1.38-7.683-2.944-7.683-6.073,0-3.082,2.439-5.06,7.177-5.06,6.533,0,8.511,2.53,8.833,6.763h3.956c-0.138-5.337-3.128-10.259-12.789-10.259-6.809,0-11.179,3.312-11.179,8.556,0,5.981,4.37,8.235,9.937,9.477l2.9,0.644c5.8,1.289,7.959,2.807,7.959,5.935,0,4.048-3.036,6.119-8.281,6.119-5.336,0-9.523-1.979-9.615-8.051h-4C154.776,157.1,160.481,160.456,168.3,160.456Zm54.969-33.58H207.722a17.122,17.122,0,0,0-2.783-3.588,15.85,15.85,0,0,0-3.059-2.438l-2.9,2.162a34.1,34.1,0,0,1,3.611,2.9,6.812,6.812,0,0,1,.759.966H186.746v8.556h3.542l-0.046-5.29h29.486v5.106h3.542v-8.372Zm2.208,29.578a12.779,12.779,0,0,1-3.979-2.484,21.55,21.55,0,0,1-3.519-4.094,18.108,18.108,0,0,1-2.346-4.784,33.624,33.624,0,0,0,5.106-4.6l-2.668-2.346q-4.416,5.291-8.51,6.624a12.16,12.16,0,0,0-1.863-2.921,10.867,10.867,0,0,0-2.461-2.231,32.988,32.988,0,0,0,4.416-2.944h8.464v-3.266H192.174l-0.046,3.312,11.592,0.046q-5.7,3.45-16.744,5.2L189.368,145a40.13,40.13,0,0,0,12.466-3.634,13.924,13.924,0,0,1,2.3,1.564,30.314,30.314,0,0,1-4.278,2.53,32.415,32.415,0,0,1-6.095,2.231,66.008,66.008,0,0,1-7.659,1.541l2.438,2.99a34.683,34.683,0,0,0,9.315-2.254,42.7,42.7,0,0,0,8.165-4.416,19.023,19.023,0,0,1,1.242,2.668,30.41,30.41,0,0,1-9.66,5.589,63.476,63.476,0,0,1-12.42,3.013l2.53,3.174a74.115,74.115,0,0,0,7.659-1.863,47.593,47.593,0,0,0,6.992-2.691A25.426,25.426,0,0,0,208,151.808a38.424,38.424,0,0,1-.184,6.164,2.011,2.011,0,0,1-.506.874,2.523,2.523,0,0,1-.828.644,15.4,15.4,0,0,1-3.358-.3,38.458,38.458,0,0,1-4.37-1.173l1.426,4.094q5.934,1.1,8.05.322a3.974,3.974,0,0,0,2.047-1.587,8.913,8.913,0,0,0,1.081-3.979,26.455,26.455,0,0,0-.023-4.531,34.249,34.249,0,0,0-.667-4.531l2.208-.92A27.465,27.465,0,0,0,214.76,151a22.477,22.477,0,0,0,3.519,4.715,14.307,14.307,0,0,0,4.9,3.45Zm6.762,5.658a20.443,20.443,0,0,0,4.347-7.82,34.6,34.6,0,0,0,1.219-9.568V128.808h33.212V125.45H254.78l0.782-.782a16.139,16.139,0,0,0-3.358-2.714,14.336,14.336,0,0,0-3.818-1.656q-0.921.966-2.622,2.484a11.9,11.9,0,0,1,5.566,2.668h-17.2v19.274a31.84,31.84,0,0,1-1.012,8.671,16.034,16.034,0,0,1-3.864,6.555Zm40.388-4.968q-8.97.46-16.56,0.184a19.671,19.671,0,0,1-3.45-.483,18.879,18.879,0,0,1-5.428-2.553q2.484-4.14,2.714-12.19h-5.7a27.617,27.617,0,0,0,2.944-3.335,33.424,33.424,0,0,0,2.622-3.887v-1.334l2.254,2.9q1.747,0.047,3.657-.092a27.448,27.448,0,0,0,3.1-.368v5.106h-7.728V144.4h7.728l-0.046,6.762h-9.522v3.358H271.2v-3.358h-8.97V144.4h7.82v-3.358l-7.82.046v-5.7a35.045,35.045,0,0,0,7.866-3.036l-2.346-2.576q-6.027,3.5-17.986,3.266v-1.2h-10.9v3.312h6.67a58.374,58.374,0,0,1-6.21,6.9v3.4h7.038a17.038,17.038,0,0,1-.6,3.128,18.818,18.818,0,0,1-1.15,3.036,25.9,25.9,0,0,1-2.99-5.244l-2.9,1.748a38.8,38.8,0,0,0,2.507,4.554,21.538,21.538,0,0,0,1.541,2.116,28.039,28.039,0,0,1-3.1,2.921,19.757,19.757,0,0,1-3.381,2.231l2.438,2.622a30.517,30.517,0,0,0,3.657-2.6,29.031,29.031,0,0,0,3.1-2.921,17.2,17.2,0,0,0,10.534,3.5l15.134,0.184ZM305.2,149.83a2.856,2.856,0,0,0,2.323-1.1,5.478,5.478,0,0,0,1.127-2.76,14.288,14.288,0,0,1,4.416,4.324l2.392-1.656a18.413,18.413,0,0,0-2.576-3.266h2.576l0.046-5.29h-3.634v-11.96h-8.832l0.414-1.334,13.2,0.046v-2.944H288.13v2.944h11.96l-0.69,1.288h-8.786v11.96h-3.45v5.7h3.312v-2.714l8.326-.046-0.874.782a8.842,8.842,0,0,1,2.024.92q0.873,0.552,1.84,1.265t1.334,0.989l2.392-1.84a10.434,10.434,0,0,0-3.128-2.116h9.752v1.794a5.966,5.966,0,0,0-1.518-1.058l-2.944,1.426-1.38-.46q-0.046.69-.115,1.265a2.252,2.252,0,0,1-.322.966,0.888,0.888,0,0,1-.805.391H299.17a1.01,1.01,0,0,1-.805-0.345,0.828,0.828,0,0,1-.207-0.759v-2.208l-2.668.046q0.045,0.46.046,1.955a7.864,7.864,0,0,0,.138,1.909l0.368,0.966-0.966-.506a13.335,13.335,0,0,1-7.958,6.946l2.254,2.3a16.342,16.342,0,0,0,2.6-1.265,18.032,18.032,0,0,0,2.829-2.277,14.609,14.609,0,0,0,4,3.864,35.372,35.372,0,0,1-12.558,1.84l1.472,3.082a39.366,39.366,0,0,0,14.49-3.036,36.017,36.017,0,0,0,13.708,2.852l1.7-3.082a34.788,34.788,0,0,1-6.624-.368,25.431,25.431,0,0,1-5.29-1.242,14.466,14.466,0,0,0,2.6-1.932,33.028,33.028,0,0,0,2.645-2.622V150.98l-13.846-.046a6.969,6.969,0,0,0,.506-1.1h7.59Zm3.266-14.95v1.334h-14.4V134.88h14.4Zm-14.4-3.864,14.4,0.046V132.4l-14.4-.046v-1.334Zm0,9.062V138.79h14.4v1.288h-14.4Zm-9.016,23V133.454q0.782-2.161,1.794-5.474t1.518-5.474l-3.174-1.2a58.8,58.8,0,0,1-4.048,12.305,35.05,35.05,0,0,1-6.026,9.407l3.128,2.024a25.957,25.957,0,0,0,3.358-4.37v22.4h3.45Zm21.62-9.154q-0.276.184-1.035,0.713t-1.334.874a8.706,8.706,0,0,1-1.127.575q-0.552.231-1.058,0.414l-1.15-.759q-0.875-.575-1.472-1.012a4.977,4.977,0,0,1-.966-0.9Zm-14.03-9.936a14.436,14.436,0,0,1-2.921,2.668,15.932,15.932,0,0,1-2.6,1.38l2.346,2.53a15.475,15.475,0,0,0,5.474-4.83Zm48.53,1.472q-15.042.138-18.17,0.092l1.886,3.542q7.59-.229,16.606-0.322l-2.392,1.61a15.448,15.448,0,0,1,6.716,5.842l2.99-2.024q-0.138-.229-0.575-0.851a15.114,15.114,0,0,0-1.2-1.449,9.974,9.974,0,0,0-1.61-1.426q-0.852-.6-1.84-1.173t-1.219-.713q8.28,0,14.674-.276a20.214,20.214,0,0,1,2.116,2.668l3.082-2.024a18.878,18.878,0,0,0-6.256-5.658h0.966l0.046-13.8-12.282-.046v-1.61H362.7V124.53l-17.986-.046V120.8h-3.542v3.726H323.274l-0.046,3.312,17.94,0.046v1.564l-12.144-.046v13.938l12.144-.046v2.162Zm0-5.52h-8.556v-2.162h8.556v2.162Zm3.588-2.116h8.556v2.116h-8.556v-2.116Zm-12.144-3.312v-1.794h8.556v1.794h-8.556Zm12.1-1.794h8.648v1.794H344.71v-1.794Zm-0.046,12.558,0.046-1.978,6.992,0.092-1.15.69a12.848,12.848,0,0,0,2.254,1.058Zm-10.028,5.29v4.968A11.058,11.058,0,0,0,335,158.2a5.275,5.275,0,0,0,1.472,1.84,4.092,4.092,0,0,0,2.116.92H346a13.406,13.406,0,0,0,4.692-.322,3.661,3.661,0,0,0,1.15-.782,4.121,4.121,0,0,0,.805-1.127,8.368,8.368,0,0,0,.483-1.242q0.183-.621.391-1.7t0.3-1.449a30.193,30.193,0,0,0-3.312-1.38,13.041,13.041,0,0,0-.391,1.817,9.847,9.847,0,0,1-.414,1.794,1.554,1.554,0,0,1-.552.759,2.647,2.647,0,0,1-.621.322h-9.062a1.7,1.7,0,0,1-.759-0.552,1.556,1.556,0,0,1-.391-0.782v-5.75h-3.68Zm-10.028,8.648a19.763,19.763,0,0,0,5.221-2.668,15.3,15.3,0,0,0,3.933-3.956q-0.507-.459-2.484-1.932a18.328,18.328,0,0,1-9.384,5.75Zm39.468-1.15a18.156,18.156,0,0,0-3.381-3.91,19.527,19.527,0,0,0-5.267-3.128L352.806,153a19.919,19.919,0,0,1,8.372,7.176Zm4.416-30.084v3.358h18.952V127.98l-7.728-.092,0.736-.414a14.333,14.333,0,0,0-5.014-6.716l-2.852,1.978a20.739,20.739,0,0,1,2.6,2.691,12.638,12.638,0,0,1,1.541,2.553h-8.234Zm26.864,34.684h3.5V138.376l10.764-.046v-3.312H398.9l-0.046-13.662-3.5-.046,0.046,13.708h-9.614v3.312l9.568,0.046v24.288Zm-10.764-.874V146.7l-12.926.046v15.088l3.45-.046v-2.208h5.98l0.046,2.208h3.45Zm-3.5-5.566h-5.98V150.06l5.98-.046v6.21Zm4.462-22.4h-14.95v3.4l14.95-.046v-3.358ZM370.7,143.3h14.766V139.94H370.654Zm70.564,14.352V146.38h-21.9v11.27h21.9Zm-3.45-8.372v1.334h-5.842v-1.334h5.842Zm-9.108,1.334h-5.842v-1.334h5.842v1.334Zm9.108,2.714v1.288l-5.8.046-0.046-1.334h5.842Zm-14.9,0h5.842l0.046,1.334h-5.934Zm21.344-11.316-12.328.046v-1.38h9.706V137.87l-9.706-.046v-1.1l9.246,0.046v-4.6h3.036V129.13h-3.036v-4.324l-9.246-.046v-3.082h-3.5v3.128h-8.694v2.99l8.694-.046v1.38l-12.1-.046v3.082h12.1v1.61h-8.648v2.99l8.648-.046-0.046,1.15h-9.476v2.806h9.522v1.38H415.366v2.852h28.888v-2.9Zm-6.578-12.926-5.75.046-0.046-1.38h5.8v1.334Zm-5.75,3.082h5.75v1.61l-5.75-.046v-1.564Zm18.676-10.3V157.88a1.254,1.254,0,0,1-.3.851,1.158,1.158,0,0,1-.805.391,12.2,12.2,0,0,1-2.645.023q-2.048-.114-2.185-0.115l1.242,3.588q0.781-.047,2.99-0.046a7.176,7.176,0,0,0,3.312-.6,4.147,4.147,0,0,0,1.242-1.173,2.844,2.844,0,0,0,.644-1.725V121.862h-3.5ZM444.99,153.1l3.45-.046,0.046-26.818h-3.5V153.1Zm-28.06,9.66,27.462-1.656v-2.9l-29.256,1.38ZM50.218,189.892a27.434,27.434,0,0,0,4.968-4.094v5.06l-5.29-.046v3.4H55.14V201.3H48.654l-0.046,3.358H87.754l-0.046-3.4H82.1v-6.992H86.42v-3.45l-4.324.046v-6.9h4.186l-0.046-3.4H59.556A43.288,43.288,0,0,0,61.9,176.46l-3.5-1.334a32.361,32.361,0,0,1-10.626,12.1Zm20.608,11.362H66.41l-0.046-7.038h4.462v7.038Zm7.82-10.4H74.322v-6.9h4.324v6.9Zm-12.19-.046v-6.854h4.416v6.854H66.456Zm12.19,3.4L78.6,201.3H74.322v-7.084h4.324Zm-15.732-3.4H58.682l0.046-6.854h4.186v6.854Zm-0.046,10.442H58.682l0.046-6.992,4.186-.046Zm-12.42,15.364a44.659,44.659,0,0,0,4.807-5.5,17.92,17.92,0,0,0,2.093-3.933l-2.714-1.748a28.512,28.512,0,0,1-7.268,9.108Zm28.29-9.246a19.638,19.638,0,0,1,3.956,4,29.65,29.65,0,0,1,3.128,5.152,11.082,11.082,0,0,0,1.794-.851q1.1-.621,1.426-0.805a25.743,25.743,0,0,0-7.5-9.2Zm-1.564,7.176a28.234,28.234,0,0,0-4.922-8.51,17.38,17.38,0,0,0-1.863.575q-1.081.392-1.449,0.529a24.451,24.451,0,0,1,4.738,8.6ZM59.1,207.418a18.312,18.312,0,0,1,2.737,3.91,25.149,25.149,0,0,1,1.771,4.646l3.45-1.242a24.849,24.849,0,0,0-2.3-5.221,19.854,19.854,0,0,0-2.484-3.243Zm75.394,6.256a19.257,19.257,0,0,1-4.945-2.875,14.143,14.143,0,0,1-3.519-3.979q4-2.943,5.543-4.3t2.277-2.047l-2.622-2.392-6.67,5.888a15.951,15.951,0,0,1-1.127-2.944,33.675,33.675,0,0,1-.667-3.68l7.774-.046-0.046-19.734H111.03v33.12a2.969,2.969,0,0,1-.644,2.024,5.054,5.054,0,0,1-1.564,1.2q0.644,0.552,1.725,1.4t1.173,0.9l9.844-4.324v-3.5q-0.414.185-3.243,1.288t-3.841,1.61l0.046-13.846,4.784-.046a26.228,26.228,0,0,0,1.656,7.36,22.379,22.379,0,0,0,4.6,7.038,18.227,18.227,0,0,0,6.808,4.784Zm-19.964-32.8h12.512v4.738H114.526v-4.738ZM126.9,193.94l-12.374.092v-5.06l12.466-.046Zm-17.71-13.11v-3.4H96.264L96.31,216.8l3.4-.092V180.83l5.75,0.046q-0.921,2.991-4.048,10.258,3.956,3.5,4.692,6.992a4.72,4.72,0,0,1-.023,2.507,3.024,3.024,0,0,1-.943,1.449,2.522,2.522,0,0,1-.506.276,2.569,2.569,0,0,1-.736.184,3.549,3.549,0,0,1-.9-0.023q-0.483-.069-2.691-0.529l0.828,3.818a8.748,8.748,0,0,0,4.462-.138,5.46,5.46,0,0,0,2.484-1.748,5.984,5.984,0,0,0,1.426-2.76,11,11,0,0,0,.092-3.473,9.232,9.232,0,0,0-1.311-3.565,17.518,17.518,0,0,0-2.967-3.588Zm59.662-5.428a48.339,48.339,0,0,1-1.2,10.419,21.362,21.362,0,0,1-3.726,8.073v-0.966h-8.464l-0.046-1.564,8.372,0.046,0.046-5.106h2.76v-3.128h-2.76l-0.046-4.6h-8.326l-0.046-3.082-3.45.046v3.036h-8.326v4.6h-3.312l0.046,3.128h3.266v5.106l8.326-.046v1.564h-8.28v7.5h7.958l-1.38,2.116-9.292.046-0.046,3.22h7.038a10.594,10.594,0,0,1-1.311,1.564q-0.9.921-2.691,2.668a26.46,26.46,0,0,1,6.762,1.15q-3.267,1.749-10.672,2.53l1.426,3.174a31.108,31.108,0,0,0,13.294-4.416q0.459,0.231,2.208,1.127t2.668,1.426l1.242,0.713,1.932-2.806q-3.681-1.977-5.152-2.622a12.5,12.5,0,0,0,3.5-4.554l5.566,0.046v-3.22l-12.374-.046,0.69-1.242-1.978-.874H163.93V196.01l1.84,1.242a12.591,12.591,0,0,0,.851-1.219q0.574-.9.8-1.219a57.5,57.5,0,0,0,2.9,10.58,35.977,35.977,0,0,1-3.749,5.727,21.189,21.189,0,0,1-3.519,3.381l2.3,2.346a30.336,30.336,0,0,0,3.841-3.887,33.56,33.56,0,0,0,2.829-4.163,25.194,25.194,0,0,0,6.992,8.142l2.392-2.53a23.767,23.767,0,0,1-4.439-4.163,22.44,22.44,0,0,1-3.1-4.853q3.266-6.716,4-17.94h2.208V184.1H171.29a32.6,32.6,0,0,0,.69-7.958ZM151.97,181.52v1.656h-5.014l0.046-1.7Zm8.556-.046v1.7h-5.06v-1.7h5.06Zm0,6.992-5.106.046,0.046-2.208h5.06v2.162ZM151.97,186.3v2.162L147,188.42l-0.046-2.116h5.014Zm8.648,11.27h-5.152l-0.046-1.794h5.2v1.794Zm-13.57,0V195.78l4.968-.046-0.046,1.84h-4.922Zm3.266,10.3,1.794-2.116,5.29,0.046a11.323,11.323,0,0,1-2.9,3.174Zm24.334-20.47a43.207,43.207,0,0,1-.828,7.8,59.064,59.064,0,0,1-1.656,6.049q-0.231-.643-0.529-1.633t-0.644-2.484q-0.345-1.494-.713-3.795t-0.552-3.174q0.138-.506.483-1.5t0.437-1.265h4Zm38.686,4.37a1.033,1.033,0,0,1-1.2-1.242l7.682-.782v-2.9l-7.682.736v-1.656h9.706q-0.047.184-.368,1.1t-0.483,1.5q-0.162.576-.207,0.759l3.128,0.736q1.287-3.817,1.587-5.129a18.411,18.411,0,0,0,.391-2.277h-13.8V181.06l10.534-.046v-2.76l-10.534-.046v-2.484h-3.45l-0.046,6.9h-8.74v14.03q0,7.728-1.242,11.592a18.638,18.638,0,0,1-3.588,6.578l2.99,2.116a26.637,26.637,0,0,0,5.29-16.7l0.046-14.26h5.29L208.6,187.96l-4.508.368,0.046,3.082,4.646-.6a5.889,5.889,0,0,0,.276,1.7,3.016,3.016,0,0,0,1.219,1.472,3.243,3.243,0,0,0,1.817.6h9.752v-2.76Zm-18.078,8.142,3.864-1.7v-3.542l-3.818,1.7V188.1h3.726V184.74h-3.772l-0.046-8.924h-3.45l0.046,8.97h-4.83l0.046,3.312h4.738v9.8l-6.3,2.76,2.116,2.668,4.232-1.794v10.856a1.349,1.349,0,0,1-.322.92,1.1,1.1,0,0,1-.874.368q-1.932,0-3.956-.138l1.472,3.312h1.4q0.988,0,1.771-.069a5.747,5.747,0,0,0,1.518-.345,3.945,3.945,0,0,0,1.909-1.334,3.464,3.464,0,0,0,.575-2.024Zm31.97,11.638a9.623,9.623,0,0,1-3.427-2.944,9.525,9.525,0,0,1-1.633-3.864,22.913,22.913,0,0,0,1.909-1.725q0.483-.528.851-0.989l-2.346-2.3a20.812,20.812,0,0,1-2.53,2.392,10.814,10.814,0,0,1-2.622,1.61,15.074,15.074,0,0,0-2.162-2.76q2.346-1.334,2.852-1.725c0.337-.26.552-0.437,0.644-0.529l6.118-.046,0.046-2.99H204.5v2.99l8.878,0.092q-3.174,1.749-9.936,2.622l1.84,2.76a39.626,39.626,0,0,0,7.222-1.84,2.356,2.356,0,0,1,.414.437c0.184,0.23.291,0.361,0.322,0.391a19.315,19.315,0,0,1-4.508,2.254,43.689,43.689,0,0,1-5.98,1.61l2.024,2.576a39.417,39.417,0,0,0,4.83-1.426,30.065,30.065,0,0,0,5.2-2.576l0.552,1.15a23.421,23.421,0,0,1-6.072,3.473,43.626,43.626,0,0,1-6.762,1.817l2.024,2.53a36.988,36.988,0,0,0,6.256-1.978,38.308,38.308,0,0,0,5.382-2.944,8.707,8.707,0,0,1,.069,3.174,1.59,1.59,0,0,1-.575.828,5.607,5.607,0,0,1-2.967.069q-1.956-.345-2.691-0.391l1.15,3.22q0.138,0,1.748.092a12.725,12.725,0,0,0,2.622-.069,5.763,5.763,0,0,0,1.794-.575,3.854,3.854,0,0,0,1.886-2.921,17.677,17.677,0,0,0-.552-6.279l0.782-.46q1.425,5.658,5.52,7.544Zm21.666,5.106q1.38-.783,13.294-4.968,0.459,0.783,1.288,2.346t0.966,1.84q1.2-.552,3.128-1.7a38.464,38.464,0,0,0-3.68-6.026,20.341,20.341,0,0,0-3.312-3.358l-3.082,1.7a14.256,14.256,0,0,1,2.76,2.668l-8.786,2.9v-7.728H264.9V188.6H247.972l0.046,22.678a3,3,0,0,1-.552,1.955,3.833,3.833,0,0,1-1.334,1.035ZM261.4,191.87l0.046,2.806-10.028-.046v-2.76H261.4Zm0,6.026v3.174h-9.936V197.9H261.4Zm4.324-15.134,0.046-3.312L253.4,179.5q0.045-.092.276-0.782t0.414-1.288q0.183-.6.276-0.966l-3.174-1.2a20.366,20.366,0,0,1-6.9,11.546l2.714,2.3a21.643,21.643,0,0,0,3.1-3.22,15.756,15.756,0,0,0,2.093-3.128h3.358a22.779,22.779,0,0,1,3.128,5.244c0.214-.092.444-0.191,0.69-0.3s1.042-.529,2.392-1.265a16.966,16.966,0,0,0-2.438-3.68h6.394Zm19.734-.138v-3.266l-13.57-.046q0.459-1.563.782-3.128l-3.128-1.15a19.9,19.9,0,0,1-2.369,6.141,16.3,16.3,0,0,1-4.439,4.853l2.944,2.346a17.406,17.406,0,0,0,4.784-5.75h4a20.358,20.358,0,0,1,2.9,5.152,7.84,7.84,0,0,0,.9-0.368q0.483-.23,1.219-0.667t1.012-.575a25.638,25.638,0,0,0-2.3-3.542h7.268Zm-6.44,9.108,0.046,13.294a1.233,1.233,0,0,1-.345.874,1.042,1.042,0,0,1-.9.322l-5.106-.276,1.518,3.588q0.69-.045,2.875,0a9.814,9.814,0,0,0,2.967-.23,5.464,5.464,0,0,0,1.587-1.058,2.664,2.664,0,0,0,.69-1.311,6.209,6.209,0,0,0,.161-1.219v-17.25l-14.49-.046v28.29h3.5l-0.046-24.978h7.544Zm13.2,5.106q3.68-.276,8.326-1.058v21.16l3.45-.046v-2.668h17.71v2.438l3.45-.046V192.836l-13.984-.092a23.043,23.043,0,0,0,5.934-3.22,37.112,37.112,0,0,0,4.876-4.186l-2.576-2.3a29.948,29.948,0,0,1-6.509,4.991,37.629,37.629,0,0,1-9.039,3.519,66.555,66.555,0,0,1-13.34,1.84Zm11.822,5.382H321.71v2.76H304ZM304,196.194h17.664l0.046,2.9-17.71.046v-2.944Zm17.664,11.868,0.046,2.806-17.664-.046L304,208.062h17.664ZM304.506,184.74l0.966,3.4,3.726,0.046a3.847,3.847,0,0,0,2.622-.713,2.566,2.566,0,0,0,.92-2.093l-0.046-9.8h-3.45l-0.046,8.372a0.889,0.889,0,0,1-.874,1.058Zm-0.552-6.946a33.618,33.618,0,0,1-12.006,8.74l2.852,2.714a35.233,35.233,0,0,0,11.638-9.108Zm27.324,8.97a42.319,42.319,0,0,0-4.255-4.209,25.282,25.282,0,0,0-4.255-2.99,23.523,23.523,0,0,0-3.726-1.679l-2.668,2.392q6.439,2.255,11.96,8.924Zm47.058,26.312q-4.278-.092-8.993-0.621a77.812,77.812,0,0,1-8.3-1.334,22.1,22.1,0,0,1-5.612-1.909,13.735,13.735,0,0,0,1.932-3.473,17.524,17.524,0,0,0,1.058-4.071H371.85v-17.02H359.062v-3.4l17.8,0.046v-3.266H337.626v3.266l18.032-.046v3.4h-13.2l-0.046,17.02h12.512a14.644,14.644,0,0,1-.943,3.036,12.633,12.633,0,0,1-1.587,2.76,54.233,54.233,0,0,1-6.716-5.244l-2.668,1.794a31.356,31.356,0,0,0,6.67,5.888,39.843,39.843,0,0,1-6.923,2.6,62.14,62.14,0,0,1-6.463,1.449l2.07,3.082a32.326,32.326,0,0,0,13.2-4.37l1.426-.966a42.93,42.93,0,0,0,8.786,3.059,83.589,83.589,0,0,0,14.4,1.863Zm-9.844-21.62h-9.384l0.046-3.542h9.338v3.542Zm-22.632-3.542,9.8,0.046v3.5h-9.8v-3.542Zm22.678,6.808v3.634h-9.752l0.23-3.634h9.522Zm-22.678,0h9.706l-0.184,3.634-9.522-.046v-3.588Zm45.586,11.5a84.785,84.785,0,0,0,9.315-4.554,36.743,36.743,0,0,0,5.221-3.726h11.776a19.411,19.411,0,0,1-2.139,2.967,19.915,19.915,0,0,1-3.358,3.059,37.384,37.384,0,0,1-4.485,2.806,14.361,14.361,0,0,0-4.738-5.014l-3.312,1.886a16.467,16.467,0,0,1,5.06,4.6q-7.407,3.22-20.608,5.428l2.3,3.174a124.288,124.288,0,0,0,13.386-3.036,56.976,56.976,0,0,0,8.119-3.2,34.109,34.109,0,0,0,6.6-4.186,27.439,27.439,0,0,0,4.623-4.669,31.753,31.753,0,0,0,2.737-4.232l0.046-3.082-12.42-.046a21.053,21.053,0,0,0,2.438-3.266l-2.714-1.472a38.476,38.476,0,0,0,6.486-6.532v-3.082H402.808a33.637,33.637,0,0,0,3.358-3.68l-3.22-1.7q-6.3,7.683-17.756,11.132l3.036,2.852a49.054,49.054,0,0,0,10.074-5.106h12.65a43.5,43.5,0,0,1-4.278,3.588,40.7,40.7,0,0,1-4.876,2.944,18.328,18.328,0,0,0-2.461-2.553,14.668,14.668,0,0,0-2.691-2l-3.22,2.07a16.056,16.056,0,0,1,5.152,3.864,52.611,52.611,0,0,1-6.417,2.116q-4.3,1.2-7.935,2.024l2.208,3.082a92.485,92.485,0,0,0,13.524-4.117,56.054,56.054,0,0,0,8.6-4.255,32.386,32.386,0,0,1-8.211,7.429,58.515,58.515,0,0,1-11.569,5.543Z"/>
</svg>
