<svg id="Frame_2" data-name="Frame 2" xmlns="http://www.w3.org/2000/svg" width="728" height="90" viewBox="0 0 728 90">
  <defs>
    <style>
      .cls-1 {
        fill: #4b286d;
        fill-rule: evenodd;
      }
    </style>
  </defs>
  <path id="Turn_them_off_from_your_smartphone." data-name="Turn them off from your smartphone." class="cls-1" d="M276.76,19.365H262.489v1.9h6.048v15.9h2.175v-15.9h6.048v-1.9Zm10.626,4.9v7.3c0,2.849-1.875,4.1-3.549,4.1-1.85,0-2.949-.875-2.949-2.874V24.264h-2v8.723c0,2.849,1.675,4.474,4.549,4.474a4.751,4.751,0,0,0,4.049-2.224v1.924h1.9v-12.9h-2Zm11.175-.2a4.5,4.5,0,0,0-4.149,2.474V24.264h-1.9v12.9h2V29.813c0-2.5,1.65-3.8,4.224-3.8h0.5V24.089C298.961,24.064,298.761,24.064,298.561,24.064Zm8.875-.1a4.752,4.752,0,0,0-4.049,2.224V24.264h-1.9v12.9h2v-7.3c0-2.849,1.875-4.1,3.549-4.1,1.85,0,2.95.875,2.95,2.874v8.523h2V28.438C311.985,25.589,310.311,23.964,307.436,23.964Zm18.2,2.049v-1.75h-2.65V20.615h-2v3.649h-2.125v1.75h2.125v8.548c0,1.974,1.225,2.674,3.224,2.674q0.6,0,1.425-.075V35.487h-1.175c-1.15,0-1.475-.425-1.475-1.1V26.014h2.65Zm8.2-2.049a4.752,4.752,0,0,0-3.949,2.074V19.365h-2v17.8h2v-7.3c0-2.849,1.875-4.1,3.55-4.1,1.849,0,2.949.875,2.949,2.874v8.523h2V28.438C338.384,25.589,336.71,23.964,333.835,23.964Zm18.924,6.748c0-3.7-2.075-6.748-5.924-6.748-3.574,0-5.948,2.7-5.948,6.748,0,4.174,2.474,6.748,6,6.748a5.38,5.38,0,0,0,5.549-4.224H350.36a3.314,3.314,0,0,1-3.425,2.4c-2.249,0-3.774-1.325-3.974-4.224h9.8v-0.7Zm-5.924-4.924c2.3,0,3.575,1.7,3.775,3.824h-7.6C343.336,27.064,344.811,25.789,346.835,25.789Zm22-1.825a4.455,4.455,0,0,0-3.974,2.424,4.038,4.038,0,0,0-3.974-2.424,4.144,4.144,0,0,0-3.724,2.2v-1.9h-1.9v12.9h2V30.113c0-3.1,1.725-4.349,3.3-4.349,1.675,0,2.7.85,2.7,2.849v8.548h2V30.113c0-3.1,1.675-4.349,3.3-4.349,1.7,0,2.7.85,2.7,2.849v8.548h2V28.413A4.1,4.1,0,0,0,368.833,23.964Zm18.052,13.5c3.624,0,6.248-2.624,6.248-6.748s-2.624-6.748-6.248-6.748-6.249,2.624-6.249,6.748S383.261,37.461,386.885,37.461Zm0-1.8c-2.5,0-4.149-1.825-4.149-4.949s1.65-4.949,4.149-4.949,4.149,1.825,4.149,4.949S389.384,35.662,386.885,35.662Zm13.475-14.6h1.15v-1.7c-0.3-.025-0.9-0.05-1.275-0.05-2.549,0-3.6,1.35-3.6,3.624v1.325h-2.125v1.75h2.125V37.161h2V26.014h2.75v-1.75h-2.75V22.89A1.587,1.587,0,0,1,400.36,21.065Zm8.125,0h1.149v-1.7c-0.3-.025-0.9-0.05-1.274-0.05-2.55,0-3.6,1.35-3.6,3.624v1.325h-2.125v1.75h2.125V37.161h2V26.014h2.749v-1.75H406.76V22.89A1.587,1.587,0,0,1,408.485,21.065Zm13,0h1.15v-1.7c-0.3-.025-0.9-0.05-1.275-0.05-2.549,0-3.6,1.35-3.6,3.624v1.325h-2.124v1.75h2.124V37.161h2V26.014h2.749v-1.75H419.76V22.89A1.587,1.587,0,0,1,421.484,21.065Zm9.45,3a4.5,4.5,0,0,0-4.149,2.474V24.264h-1.9v12.9h2V29.813c0-2.5,1.649-3.8,4.224-3.8h0.5V24.089C431.334,24.064,431.134,24.064,430.934,24.064Zm8.55,13.4c3.624,0,6.248-2.624,6.248-6.748s-2.624-6.748-6.248-6.748-6.249,2.624-6.249,6.748S435.859,37.461,439.484,37.461Zm0-1.8c-2.5,0-4.149-1.825-4.149-4.949s1.649-4.949,4.149-4.949,4.149,1.825,4.149,4.949S441.983,35.662,439.484,35.662Zm22.322-11.7a4.455,4.455,0,0,0-3.974,2.424,4.038,4.038,0,0,0-3.974-2.424,4.144,4.144,0,0,0-3.724,2.2v-1.9h-1.9v12.9h2V30.113c0-3.1,1.725-4.349,3.3-4.349,1.675,0,2.7.85,2.7,2.849v8.548h2V30.113c0-3.1,1.675-4.349,3.3-4.349,1.7,0,2.7.85,2.7,2.849v8.548h2V28.413A4.1,4.1,0,0,0,461.806,23.964ZM278.4,54.264l-1.825,5.349c-0.65,1.875-1.275,3.749-1.85,5.6-0.6-1.85-1.2-3.7-1.849-5.574l-1.825-5.374h-2.2L273.7,67.586c-0.15.4-.3,0.825-0.45,1.2a2.26,2.26,0,0,1-2.35,1.6h-1.174V72.06a9.958,9.958,0,0,0,1.2.075,3.9,3.9,0,0,0,4.2-2.949l5.449-14.921H278.4Zm9.55,13.2c3.624,0,6.248-2.624,6.248-6.748s-2.624-6.748-6.248-6.748-6.249,2.624-6.249,6.748S284.325,67.461,287.949,67.461Zm0-1.8c-2.5,0-4.149-1.825-4.149-4.949s1.649-4.949,4.149-4.949,4.149,1.825,4.149,4.949S290.448,65.662,287.949,65.662Zm17.249-11.4v7.3c0,2.849-1.875,4.1-3.549,4.1-1.85,0-2.949-.875-2.949-2.874V54.264h-2v8.723c0,2.849,1.675,4.474,4.549,4.474a4.752,4.752,0,0,0,4.049-2.224v1.925h1.9v-12.9h-2Zm11.175-.2a4.5,4.5,0,0,0-4.149,2.474V54.264h-1.9v12.9h2V59.813c0-2.5,1.65-3.8,4.224-3.8h0.5V54.089C316.773,54.064,316.573,54.064,316.373,54.064Zm12.35,13.4c3.174,0,5.124-1.4,5.124-3.849,0-2.1-1.275-3.174-4.449-3.8l-1.15-.225c-1.649-.325-2.6-0.775-2.6-2,0-1.2.975-1.9,2.7-1.9,1.975,0,3.149.55,3.249,2.549h2c-0.05-2.749-1.8-4.274-5.249-4.274-2.949,0-4.7,1.45-4.7,3.649,0,2,1.225,3.274,4.024,3.8l1.2,0.225c2.25,0.425,2.949.95,2.949,2.1,0,1.275-.924,2-3.1,2-2.274,0-3.224-.725-3.449-2.674h-2.025C323.449,66.086,325.449,67.461,328.723,67.461Zm20.823-13.5a4.454,4.454,0,0,0-3.974,2.424,4.039,4.039,0,0,0-3.974-2.424,4.141,4.141,0,0,0-3.724,2.2v-1.9h-1.9v12.9h2V60.113c0-3.1,1.724-4.349,3.3-4.349,1.674,0,2.7.85,2.7,2.849v8.548h2V60.113c0-3.1,1.674-4.349,3.3-4.349,1.7,0,2.7.85,2.7,2.849v8.548h2V58.413A4.1,4.1,0,0,0,349.546,53.964Zm18.1,11.572a0.591,0.591,0,0,1-.7-0.625v-7.2c0-2.175-1.275-3.749-4.849-3.749-3.774,0-5.1,1.775-5.249,4.274h2c0.125-1.925,1.049-2.549,3.249-2.549s2.9,0.675,2.9,2.025c0,1.15-.725,1.625-2.024,1.775l-1.85.2c-3.549.375-4.774,1.974-4.774,4,0,2.424,1.75,3.774,4.549,3.774a4.727,4.727,0,0,0,4.2-2.075,1.85,1.85,0,0,0,2.175,1.85,7.6,7.6,0,0,0,1.1-.075V65.537h-0.725ZM361,65.761c-1.774,0-2.574-.85-2.574-2.124,0-1.25.65-2.049,3-2.324l1.875-.225a3.328,3.328,0,0,0,1.7-.55v1.525A3.7,3.7,0,0,1,361,65.761Zm15.3-11.7a4.5,4.5,0,0,0-4.149,2.474V54.264h-1.9v12.9h2V59.813c0-2.5,1.65-3.8,4.224-3.8h0.5V54.089C376.7,54.064,376.5,54.064,376.3,54.064Zm8.575,1.95v-1.75h-2.649V50.615h-2v3.649H378.1v1.75h2.124v8.548c0,1.974,1.225,2.674,3.225,2.674q0.6,0,1.424-.075V65.487H383.7c-1.15,0-1.475-.425-1.475-1.1V56.014h2.649Zm8.575-2.05a5.069,5.069,0,0,0-4.424,2.3v-2h-1.9v17.8h2V65.311a5.066,5.066,0,0,0,4.324,2.15c3.624,0,6-2.624,6-6.748S397.071,53.964,393.447,53.964Zm-0.25,11.7c-2.5,0-4.149-1.825-4.149-4.949s1.65-4.949,4.149-4.949,4.149,1.724,4.149,4.849S395.7,65.662,393.2,65.662Zm14.7-11.7a4.751,4.751,0,0,0-3.949,2.075V49.365h-2v17.8h2v-7.3c0-2.849,1.874-4.1,3.549-4.1,1.85,0,2.949.875,2.949,2.874v8.523h2V58.438C412.446,55.589,410.771,53.964,407.9,53.964Zm13.3,13.5c3.624,0,6.248-2.624,6.248-6.748s-2.624-6.748-6.248-6.748-6.249,2.624-6.249,6.748S417.573,67.461,421.2,67.461Zm0-1.8c-2.5,0-4.149-1.825-4.149-4.949s1.649-4.949,4.149-4.949,4.149,1.825,4.149,4.949S423.7,65.662,421.2,65.662Zm14.7-11.7a4.75,4.75,0,0,0-4.049,2.224V54.264h-1.9v12.9h2v-7.3c0-2.849,1.875-4.1,3.55-4.1,1.849,0,2.949.875,2.949,2.874v8.523h2V58.438C440.445,55.589,438.771,53.964,435.9,53.964Zm18.923,6.748c0-3.7-2.074-6.748-5.924-6.748-3.574,0-5.948,2.7-5.948,6.748,0,4.174,2.474,6.748,6,6.748a5.38,5.38,0,0,0,5.549-4.224h-2.074a3.314,3.314,0,0,1-3.425,2.4c-2.249,0-3.774-1.325-3.974-4.224h9.8v-0.7ZM448.9,55.789c2.3,0,3.575,1.7,3.775,3.824h-7.6C445.4,57.064,446.872,55.789,448.9,55.789Zm9.551,11.547a1.436,1.436,0,0,0,1.425-1.475,1.463,1.463,0,0,0-2.924,0A1.438,1.438,0,0,0,458.447,67.336Z"/>
</svg>
