<svg id="Frame_3" data-name="Frame 3" xmlns="http://www.w3.org/2000/svg" width="728" height="90" viewBox="0 0 728 90">
  <defs>
    <style>
      .cls-1 {
        fill: #4b286d;
        fill-rule: evenodd;
      }
    </style>
  </defs>
  <path id="Mas_energy_efficient_sa_bahay_" data-name="Mas energy efficient sa bahay " class="cls-1" d="M57.693,21.365l-3.974,9.823c-0.725,1.75-1.55,3.974-2.1,5.424-0.525-1.375-1.3-3.374-2.025-5.124L45.471,21.365H42.721v17.8h2.05v-5.7c0-2.374,0-5.624-.075-9.073,0.475,1.325.95,2.524,1.575,4.049l4.424,10.722h1.8l4.4-10.722c0.625-1.525,1.1-2.724,1.575-4.049-0.075,3.449-.075,6.7-0.075,9.073v5.7h2.05v-17.8H57.693ZM74.244,37.537a0.591,0.591,0,0,1-.7-0.625v-7.2c0-2.174-1.275-3.749-4.849-3.749-3.774,0-5.1,1.775-5.249,4.274h2c0.125-1.925,1.05-2.549,3.249-2.549s2.9,0.675,2.9,2.024c0,1.15-.725,1.625-2.025,1.775l-1.849.2c-3.549.375-4.774,1.974-4.774,4,0,2.424,1.75,3.774,4.549,3.774a4.727,4.727,0,0,0,4.2-2.075,1.849,1.849,0,0,0,2.174,1.85,7.6,7.6,0,0,0,1.1-.075V37.537H74.244Zm-6.648.225c-1.775,0-2.574-.85-2.574-2.125,0-1.25.65-2.049,3-2.324l1.874-.225a3.328,3.328,0,0,0,1.7-.55v1.525A3.7,3.7,0,0,1,67.6,37.761Zm13.8,1.7c3.174,0,5.124-1.4,5.124-3.849,0-2.1-1.275-3.174-4.449-3.8l-1.15-.225c-1.65-.325-2.6-0.775-2.6-2,0-1.2.975-1.9,2.7-1.9,1.974,0,3.149.55,3.249,2.549h2c-0.05-2.749-1.8-4.274-5.249-4.274-2.949,0-4.7,1.45-4.7,3.649,0,2,1.225,3.274,4.024,3.8l1.2,0.225c2.249,0.425,2.949.95,2.949,2.1,0,1.275-.925,2-3.1,2-2.274,0-3.224-.725-3.449-2.674H75.921C76.121,38.086,78.121,39.461,81.395,39.461Zm23.373-6.748c0-3.7-2.075-6.748-5.924-6.748-3.574,0-5.948,2.7-5.948,6.748,0,4.174,2.474,6.748,6,6.748a5.381,5.381,0,0,0,5.549-4.224h-2.075a3.313,3.313,0,0,1-3.424,2.4c-2.249,0-3.774-1.325-3.974-4.224h9.8v-0.7Zm-5.924-4.924c2.3,0,3.574,1.7,3.774,3.824h-7.6C95.345,29.064,96.82,27.789,98.844,27.789Zm14.375-1.825a4.751,4.751,0,0,0-4.049,2.224V26.264h-1.9v12.9h2v-7.3c0-2.849,1.875-4.1,3.549-4.1,1.85,0,2.949.875,2.949,2.874v8.523h2V30.438C117.768,27.589,116.093,25.964,113.219,25.964Zm18.924,6.748c0-3.7-2.075-6.748-5.924-6.748-3.574,0-5.949,2.7-5.949,6.748,0,4.174,2.475,6.748,6,6.748a5.381,5.381,0,0,0,5.549-4.224h-2.075a3.313,3.313,0,0,1-3.424,2.4c-2.249,0-3.774-1.325-3.974-4.224h9.8v-0.7Zm-5.924-4.924c2.3,0,3.574,1.7,3.774,3.824h-7.6C122.72,29.064,124.194,27.789,126.219,27.789Zm14.475-1.725a4.5,4.5,0,0,0-4.149,2.474V26.264h-1.9v12.9h2V31.813c0-2.5,1.649-3.8,4.224-3.8h0.5V26.089C141.094,26.064,140.894,26.064,140.694,26.064Zm12.724,0.2v1.875a5.206,5.206,0,0,0-4.424-2.174c-3.624,0-6,2.624-6,6.748s2.375,6.748,6,6.748a5.213,5.213,0,0,0,4.324-2.05v1.25c0,2.674-1.425,4-4,4-2.025,0-3.25-.825-3.5-2.449h-2c0.275,2.5,2.2,4.149,5.5,4.149,4.074,0,6-2.349,6-5.7v-12.4h-1.9Zm-4.174,11.4c-2.5,0-4.149-1.925-4.149-4.949s1.649-4.949,4.149-4.949,4.149,1.825,4.149,4.949S151.743,37.662,149.244,37.662Zm17.374-11.4-1.825,5.349c-0.649,1.875-1.274,3.749-1.849,5.6-0.6-1.85-1.2-3.7-1.85-5.574l-1.824-5.374h-2.2l4.849,13.322c-0.15.4-.3,0.825-0.45,1.2a2.259,2.259,0,0,1-2.349,1.6h-1.175V44.06a9.974,9.974,0,0,0,1.2.075,3.9,3.9,0,0,0,4.2-2.949l5.448-14.921h-2.174Zm20.049,6.448c0-3.7-2.075-6.748-5.924-6.748-3.574,0-5.949,2.7-5.949,6.748,0,4.174,2.475,6.748,6,6.748a5.381,5.381,0,0,0,5.549-4.224h-2.075a3.313,3.313,0,0,1-3.424,2.4c-2.249,0-3.774-1.325-3.974-4.224h9.8v-0.7Zm-5.924-4.924c2.3,0,3.574,1.7,3.774,3.824h-7.6C177.244,29.064,178.718,27.789,180.743,27.789Zm13.15-4.724h1.15v-1.7c-0.3-.025-0.9-0.05-1.275-0.05-2.549,0-3.6,1.35-3.6,3.624v1.325h-2.124v1.75h2.124V39.161h2V28.014h2.749v-1.75h-2.749V24.89A1.586,1.586,0,0,1,193.893,23.065Zm4.4,1.875v1.325h-2.125v1.75h2.125V39.161h2V28.014h2.75v-1.75h-2.75V24.89a1.587,1.587,0,0,1,1.725-1.825h1.15v-1.7c-0.3-.025-0.9-0.05-1.275-0.05C199.344,21.315,198.294,22.665,198.294,24.94Zm7.748-.5a1.35,1.35,0,1,0-1.35-1.35A1.36,1.36,0,0,0,206.042,24.44Zm-1,14.721h2v-12.9h-2v12.9Zm10.476,0.3a5.319,5.319,0,0,0,5.548-4.724h-2.049a3.388,3.388,0,0,1-3.5,2.924c-2.15,0-3.874-1.575-3.874-4.949s1.674-4.949,3.874-4.949a3.358,3.358,0,0,1,3.474,2.874h2.074a5.226,5.226,0,0,0-5.548-4.674c-3.575,0-5.974,2.6-5.974,6.748S211.993,39.461,215.518,39.461Zm8.8-15.021a1.35,1.35,0,1,0-1.35-1.35A1.36,1.36,0,0,0,224.319,24.44Zm-1,14.721h2v-12.9h-2v12.9Zm16.372-6.448c0-3.7-2.075-6.748-5.924-6.748-3.574,0-5.948,2.7-5.948,6.748,0,4.174,2.474,6.748,6,6.748a5.38,5.38,0,0,0,5.549-4.224h-2.074a3.314,3.314,0,0,1-3.425,2.4c-2.249,0-3.774-1.325-3.974-4.224h9.8v-0.7Zm-5.924-4.924c2.3,0,3.575,1.7,3.775,3.824h-7.6C230.268,29.064,231.743,27.789,233.767,27.789Zm14.375-1.825a4.752,4.752,0,0,0-4.049,2.224V26.264h-1.9v12.9h2v-7.3c0-2.849,1.875-4.1,3.549-4.1,1.85,0,2.95.875,2.95,2.874v8.523h2V30.438C252.691,27.589,251.017,25.964,248.142,25.964Zm13.325,2.049v-1.75h-2.649V22.615h-2v3.649h-2.124v1.75h2.124v8.548c0,1.974,1.225,2.674,3.224,2.674q0.6,0,1.425-.075V37.487h-1.175c-1.149,0-1.474-.425-1.474-1.1V28.014h2.649ZM47.145,69.461c3.174,0,5.124-1.4,5.124-3.849,0-2.1-1.275-3.174-4.449-3.8l-1.15-.225c-1.65-.325-2.6-0.775-2.6-2,0-1.2.975-1.9,2.7-1.9,1.974,0,3.149.55,3.249,2.549h2c-0.05-2.749-1.8-4.274-5.249-4.274-2.949,0-4.7,1.45-4.7,3.649,0,2,1.225,3.274,4.024,3.8l1.2,0.225c2.249,0.425,2.949.95,2.949,2.1,0,1.275-.925,2-3.1,2-2.274,0-3.224-.725-3.449-2.674H41.672C41.872,68.086,43.871,69.461,47.145,69.461Zm17.8-1.924a0.591,0.591,0,0,1-.7-0.625v-7.2c0-2.175-1.275-3.749-4.849-3.749-3.774,0-5.1,1.775-5.249,4.274h2c0.125-1.925,1.05-2.549,3.249-2.549s2.9,0.675,2.9,2.025c0,1.15-.725,1.625-2.025,1.775l-1.85.2c-3.549.375-4.774,1.974-4.774,4,0,2.424,1.749,3.774,4.549,3.774a4.727,4.727,0,0,0,4.2-2.075,1.849,1.849,0,0,0,2.175,1.85,7.6,7.6,0,0,0,1.1-.075V67.537H64.944Zm-6.648.225c-1.775,0-2.574-.85-2.574-2.124,0-1.25.65-2.049,3-2.324l1.875-.225a3.328,3.328,0,0,0,1.7-.55v1.525A3.7,3.7,0,0,1,58.3,67.761Zm20.449-11.8a5.066,5.066,0,0,0-4.324,2.149V51.365h-2v17.8h1.9v-2a5.07,5.07,0,0,0,4.424,2.3c3.624,0,6-2.624,6-6.748S82.368,55.964,78.744,55.964Zm-0.25,11.7c-2.5,0-4.149-1.825-4.149-4.949s1.65-4.949,4.149-4.949,4.149,1.724,4.149,4.849S80.994,67.662,78.494,67.662Zm19.3-.125a0.591,0.591,0,0,1-.7-0.625v-7.2c0-2.175-1.275-3.749-4.849-3.749-3.774,0-5.1,1.775-5.249,4.274h2c0.125-1.925,1.05-2.549,3.249-2.549s2.9,0.675,2.9,2.025c0,1.15-.725,1.625-2.025,1.775l-1.85.2c-3.549.375-4.774,1.974-4.774,4,0,2.424,1.75,3.774,4.549,3.774a4.727,4.727,0,0,0,4.2-2.075,1.849,1.849,0,0,0,2.174,1.85,7.605,7.605,0,0,0,1.1-.075V67.537H97.793Zm-6.648.225c-1.775,0-2.574-.85-2.574-2.124,0-1.25.65-2.049,3-2.324l1.874-.225a3.328,3.328,0,0,0,1.7-.55v1.525A3.7,3.7,0,0,1,91.145,67.761Zm15.2-11.8a4.752,4.752,0,0,0-3.949,2.075V51.365h-2v17.8h2v-7.3c0-2.849,1.875-4.1,3.549-4.1,1.85,0,2.95.875,2.95,2.874v8.523h2V60.438C110.893,57.589,109.218,55.964,106.344,55.964Zm18.224,11.572a0.591,0.591,0,0,1-.7-0.625v-7.2c0-2.175-1.275-3.749-4.849-3.749-3.774,0-5.1,1.775-5.248,4.274h2c0.125-1.925,1.05-2.549,3.249-2.549s2.9,0.675,2.9,2.025c0,1.15-.725,1.625-2.025,1.775l-1.85.2c-3.549.375-4.773,1.974-4.773,4,0,2.424,1.749,3.774,4.549,3.774a4.725,4.725,0,0,0,4.2-2.075,1.85,1.85,0,0,0,2.175,1.85,7.607,7.607,0,0,0,1.1-.075V67.537h-0.725Zm-6.649.225c-1.774,0-2.574-.85-2.574-2.124,0-1.25.65-2.049,3-2.324l1.875-.225a3.329,3.329,0,0,0,1.7-.55v1.525A3.7,3.7,0,0,1,117.919,67.761Zm17.424-11.5-1.824,5.349c-0.65,1.875-1.275,3.749-1.85,5.6-0.6-1.85-1.2-3.7-1.849-5.574L128,56.264h-2.2l4.848,13.322c-0.149.4-.3,0.825-0.449,1.2a2.26,2.26,0,0,1-2.35,1.6H126.67V74.06a9.974,9.974,0,0,0,1.2.075,3.9,3.9,0,0,0,4.2-2.949l5.449-14.921h-2.175Z"/>
</svg>
