<svg id="Frame_4" data-name="Frame 4" xmlns="http://www.w3.org/2000/svg" width="728" height="90" viewBox="0 0 728 90">
  <defs>
    <style>
      .cls-1 {
        fill: #4b286d;
        fill-rule: evenodd;
      }
    </style>
  </defs>
  <path id="with_TELUS_smart_plugs_bulbs._" data-name="with TELUS smart  plugs &amp; bulbs. " class="cls-1" d="M59.268,26.264l-1.825,5.824c-0.475,1.55-.95,3.1-1.375,4.649-0.45-1.55-.925-3.1-1.4-4.649l-1.8-5.824h-2.1l-1.8,5.824c-0.5,1.575-.95,3.124-1.375,4.7-0.45-1.575-.9-3.124-1.4-4.7l-1.825-5.824H42.222l4.3,12.9h2.1l1.874-5.974c0.45-1.425.9-2.924,1.325-4.374,0.4,1.45.85,2.949,1.3,4.374l1.9,5.974h2.1l4.3-12.9h-2.15Zm4.9-1.825a1.35,1.35,0,1,0-1.35-1.35A1.36,1.36,0,0,0,64.171,24.44Zm-1,14.721h2v-12.9h-2v12.9ZM73.945,28.014v-1.75H71.3V22.615h-2v3.649H67.172v1.75H69.3v8.548c0,1.974,1.225,2.674,3.224,2.674q0.6,0,1.425-.075V37.487H72.77c-1.15,0-1.475-.425-1.475-1.1V28.014h2.649Zm8.2-2.049A4.751,4.751,0,0,0,78.2,28.039V21.365h-2v17.8h2v-7.3c0-2.849,1.874-4.1,3.549-4.1,1.85,0,2.949.875,2.949,2.874v8.523h2V30.438C86.693,27.589,85.019,25.964,82.145,25.964Zm25.823-4.6H93.7v1.9h6.049v15.9h2.175v-15.9h6.048v-1.9Zm14.625,1.9v-1.9H110.22v17.8h12.272v-1.9H112.32V30.838h9.272v-1.9H112.32V23.265h10.272Zm4.478,14v-15.9h-2.1v17.8h11.047v-1.9H127.07Zm17.948,2.274c4.449,0,7-2.524,7-6.973v-11.2h-2.1v11.2c0,3.5-1.8,5.074-4.9,5.074s-4.9-1.575-4.9-5.074v-11.2h-2.1v11.2C138.02,37.012,140.569,39.536,145.018,39.536Zm16.65,0.025c4.274,0,6.674-2.075,6.674-5.224,0-2.574-1.45-4.174-5.549-5.074l-1.575-.35c-3.349-.75-4.174-1.6-4.174-3.3,0-1.675,1.325-2.749,3.9-2.749,3.55,0,4.624,1.375,4.8,3.674h2.15c-0.075-2.9-1.7-5.574-6.949-5.574-3.7,0-6.073,1.8-6.073,4.649,0,3.249,2.374,4.474,5.4,5.149l1.574,0.35c3.149,0.7,4.324,1.525,4.324,3.224,0,2.2-1.649,3.324-4.5,3.324-2.9,0-5.174-1.075-5.223-4.374H154.27C154.32,37.736,157.419,39.561,161.668,39.561Zm18.35-.1c3.175,0,5.124-1.4,5.124-3.849,0-2.1-1.275-3.174-4.449-3.8l-1.15-.225c-1.649-.325-2.6-0.775-2.6-2,0-1.2.975-1.9,2.7-1.9,1.975,0,3.15.55,3.25,2.549h2c-0.05-2.749-1.8-4.274-5.249-4.274-2.949,0-4.7,1.45-4.7,3.649,0,2,1.224,3.274,4.024,3.8l1.2,0.225c2.25,0.425,2.95.95,2.95,2.1,0,1.275-.925,2-3.1,2-2.274,0-3.224-.725-3.449-2.674h-2.024C174.745,38.086,176.744,39.461,180.018,39.461Zm20.823-13.5a4.454,4.454,0,0,0-3.974,2.424,4.039,4.039,0,0,0-3.974-2.424,4.143,4.143,0,0,0-3.724,2.2v-1.9h-1.9v12.9h2V32.113c0-3.1,1.724-4.349,3.3-4.349,1.675,0,2.7.85,2.7,2.849v8.548h2V32.113c0-3.1,1.674-4.349,3.3-4.349,1.7,0,2.7.85,2.7,2.849v8.548h2V30.413A4.1,4.1,0,0,0,200.841,25.964Zm18.1,11.572a0.591,0.591,0,0,1-.7-0.625v-7.2c0-2.174-1.275-3.749-4.849-3.749-3.774,0-5.1,1.775-5.249,4.274h2c0.125-1.925,1.05-2.549,3.249-2.549s2.9,0.675,2.9,2.024c0,1.15-.725,1.625-2.024,1.775l-1.85.2c-3.549.375-4.774,1.974-4.774,4,0,2.424,1.75,3.774,4.549,3.774a4.727,4.727,0,0,0,4.2-2.075,1.85,1.85,0,0,0,2.175,1.85,7.583,7.583,0,0,0,1.1-.075V37.537h-0.724Zm-6.649.225c-1.774,0-2.574-.85-2.574-2.125,0-1.25.65-2.049,3-2.324l1.875-.225a3.325,3.325,0,0,0,1.7-.55v1.525A3.7,3.7,0,0,1,212.293,37.761Zm15.3-11.7a4.5,4.5,0,0,0-4.149,2.474V26.264h-1.9v12.9h2V31.813c0-2.5,1.649-3.8,4.224-3.8h0.5V26.089C227.993,26.064,227.793,26.064,227.593,26.064Zm8.574,1.95v-1.75h-2.649V22.615h-2v3.649h-2.125v1.75h2.125v8.548c0,1.974,1.224,2.674,3.224,2.674q0.6,0,1.424-.075V37.487h-1.174c-1.15,0-1.475-.425-1.475-1.1V28.014h2.649ZM49.92,55.964a5.07,5.07,0,0,0-4.424,2.3v-2H43.6v17.8h2V67.312a5.066,5.066,0,0,0,4.324,2.15c3.624,0,6-2.624,6-6.748S53.544,55.964,49.92,55.964Zm-0.25,11.7c-2.5,0-4.149-1.825-4.149-4.949s1.65-4.949,4.149-4.949,4.149,1.724,4.149,4.849S52.169,67.662,49.67,67.662Zm11.651,1.575a12.7,12.7,0,0,0,1.275-.075V67.487h-0.95a1,1,0,0,1-1.225-1.1V51.365h-2v15.2C58.421,68.536,59.521,69.236,61.321,69.236ZM72.969,56.264v7.3c0,2.849-1.875,4.1-3.549,4.1-1.85,0-2.949-.875-2.949-2.874V56.264h-2v8.723c0,2.849,1.675,4.474,4.549,4.474a4.751,4.751,0,0,0,4.049-2.224v1.925h1.9v-12.9h-2Zm14.924,0v1.875a5.2,5.2,0,0,0-4.424-2.175c-3.624,0-6,2.624-6,6.748s2.374,6.748,6,6.748a5.211,5.211,0,0,0,4.324-2.049v1.25c0,2.674-1.425,4-4,4-2.025,0-3.249-.825-3.5-2.449h-2c0.275,2.5,2.2,4.149,5.5,4.149,4.074,0,6-2.349,6-5.7v-12.4h-1.9Zm-4.174,11.4c-2.5,0-4.149-1.925-4.149-4.949s1.65-4.949,4.149-4.949,4.149,1.825,4.149,4.949S86.219,67.662,83.72,67.662Zm13.75,1.8c3.174,0,5.124-1.4,5.124-3.849,0-2.1-1.275-3.174-4.449-3.8L97,61.588c-1.65-.325-2.6-0.775-2.6-2,0-1.2.975-1.9,2.7-1.9,1.975,0,3.149.55,3.249,2.549h2c-0.05-2.749-1.8-4.274-5.249-4.274-2.949,0-4.7,1.45-4.7,3.649,0,2,1.225,3.274,4.024,3.8l1.2,0.225c2.249,0.425,2.949.95,2.949,2.1,0,1.275-.925,2-3.1,2-2.274,0-3.224-.725-3.449-2.674H92C92.2,68.086,94.2,69.461,97.47,69.461Zm27.072-.3-3.449-3.849a12.05,12.05,0,0,0,1.074-4.749h-2.024a9.611,9.611,0,0,1-.5,3.124l-3.7-4.124c2.249-1.3,3.649-2.924,3.649-4.749,0-2.5-2.074-3.849-4.349-3.849-2.774,0-4.374,1.8-4.374,3.924,0,1.425.65,2.624,2.125,4.324-2.65,1.475-4.149,2.874-4.149,5.4,0,2.674,2,4.949,5.373,4.949a7.168,7.168,0,0,0,5.749-2.5l1.875,2.1h2.7Zm-9.323-16.4a2.158,2.158,0,0,1,2.275,2.125c0,1.375-.95,2.349-2.725,3.349-1.224-1.375-1.8-2.474-1.8-3.349A2.079,2.079,0,0,1,115.219,52.765Zm-0.875,14.9a3.177,3.177,0,0,1-3.374-3.149c0-1.95,1.25-2.924,3.2-3.974l4.474,5.024A5.13,5.13,0,0,1,114.344,67.662Zm23.024-11.7a5.067,5.067,0,0,0-4.324,2.149V51.365h-2v17.8h1.9v-2a5.068,5.068,0,0,0,4.423,2.3c3.625,0,6-2.624,6-6.748S140.993,55.964,137.368,55.964Zm-0.25,11.7c-2.5,0-4.148-1.825-4.148-4.949s1.649-4.949,4.148-4.949,4.149,1.724,4.149,4.849S139.618,67.662,137.118,67.662Zm17.25-11.4v7.3c0,2.849-1.875,4.1-3.549,4.1-1.85,0-2.95-.875-2.95-2.874V56.264h-2v8.723c0,2.849,1.675,4.474,4.549,4.474a4.752,4.752,0,0,0,4.049-2.224v1.925h1.9v-12.9h-2Zm8.026,12.972a12.708,12.708,0,0,0,1.275-.075V67.487h-0.95a1,1,0,0,1-1.225-1.1V51.365h-2v15.2C159.5,68.536,160.594,69.236,162.394,69.236Zm9.474-13.272a5.067,5.067,0,0,0-4.324,2.149V51.365h-2v17.8h1.9v-2a5.071,5.071,0,0,0,4.424,2.3c3.624,0,6-2.624,6-6.748S175.492,55.964,171.868,55.964Zm-0.25,11.7c-2.5,0-4.149-1.825-4.149-4.949s1.65-4.949,4.149-4.949,4.149,1.724,4.149,4.849S174.118,67.662,171.618,67.662Zm13.3,1.8c3.174,0,5.123-1.4,5.123-3.849,0-2.1-1.274-3.174-4.449-3.8l-1.149-.225c-1.65-.325-2.6-0.775-2.6-2,0-1.2.975-1.9,2.7-1.9,1.974,0,3.149.55,3.249,2.549h2c-0.05-2.749-1.8-4.274-5.248-4.274-2.95,0-4.7,1.45-4.7,3.649,0,2,1.225,3.274,4.024,3.8l1.2,0.225c2.249,0.425,2.949.95,2.949,2.1,0,1.275-.925,2-3.1,2-2.275,0-3.225-.725-3.45-2.674h-2.024C179.645,68.086,181.644,69.461,184.919,69.461Zm8.375-.125a1.436,1.436,0,0,0,1.425-1.475,1.463,1.463,0,0,0-2.924,0A1.437,1.437,0,0,0,193.294,69.336Z"/>
</svg>
