<svg id="s" xmlns="http://www.w3.org/2000/svg" width="300" height="50" viewBox="0 0 300 50">
  <defs>
    <style>
      .cls-1 {
        fill: #232323;
        fill-rule: evenodd;
      }
    </style>
  </defs>
  <path class="cls-1" d="M9.43,39.991q-0.188.061-.459,0.123T8.512,40.2L8.58,40.26l0.248,0.276,0.256,0.291L9.144,40.9l-0.436.323Q8.55,41.012,8.249,40.5L8.2,40.421l-0.038.069a6.852,6.852,0,0,1-.443.737L7.294,40.9l0.045-.054L7.6,40.528a3.109,3.109,0,0,1,.3-0.33q-0.5-.108-0.9-0.207l0.173-.538q0.323,0.123.515,0.2a2.376,2.376,0,0,1,.327.165l-0.008-.084q-0.06-.707-0.06-0.853H8.475a6.539,6.539,0,0,1-.068.845l-0.015.085a7.854,7.854,0,0,1,.865-0.361Zm3.241-.354q-0.173.507-.271,0.715h3.407v3.925a0.527,0.527,0,0,1-.124.292,0.651,0.651,0,0,1-.267.192,2.912,2.912,0,0,1-.568.039H14.415q-0.2-.415-0.263-0.592a5.4,5.4,0,0,0,.947.039,0.13,0.13,0,0,0,.1-0.039,0.126,0.126,0,0,0,.038-0.092v-0.76H12.407v1.621H11.813V41.312a5.094,5.094,0,0,1-.357.461q-0.229.269-.914,0.983L10.016,42.4a9.918,9.918,0,0,0,1.267-1.371,5.139,5.139,0,0,0,.771-1.394H10.475v-0.56h1.79a10.777,10.777,0,0,0,.293-1.084l0.579,0.131q-0.068.323-.248,0.953h3.828v0.56H12.671Zm2.564,1.275H12.407v0.622h2.828V40.912Zm0,1.183H12.407v0.7h2.828V42.1Zm5.429-.691a6.732,6.732,0,0,1-.624.814h3.226v2.758H22.694V44.431H20.017v0.546H19.446V42.794a12.988,12.988,0,0,1-1.286.907l-0.421-.445A12.442,12.442,0,0,0,19.232,42.2a4.866,4.866,0,0,0,.756-0.8h-1.97V40.843h2.3a5.851,5.851,0,0,0,.474-1.045l0.526,0.23a8.072,8.072,0,0,1-.323.815h3.053V41.4H20.664Zm1.97-1.7v0.822H22.063V39.706H19.92v0.845H19.348V39.706H17.8V39.146h1.549V38.124H19.92v1.022h2.143V38.124h0.572v1.022H24.2v0.561H22.634Zm0.06,3.073H20.017v1.09h2.677v-1.09Zm6.106-1.26v3.472H28.207V41.519H25.492V40.935h2.715v-1.79H26V38.561h5.008v0.584H28.8v1.79h2.7v0.584H28.8Zm10.121,0.6q-1.293-.423-1.9-0.687a8.1,8.1,0,0,1-1.057-.549,5.275,5.275,0,0,1-1.169.564q-0.823.312-1.966,0.618l-0.369-.507A19.242,19.242,0,0,0,34.61,40.9a8.7,8.7,0,0,0,.831-0.392q-0.045-.039-0.271-0.2a4.925,4.925,0,0,1-.4-0.323,1.683,1.683,0,0,1-.3-0.365,3.919,3.919,0,0,1-1.286.991l-0.421-.484a3.138,3.138,0,0,0,1.188-.8,4.505,4.505,0,0,0,.85-1.206l0.481,0.215a0.743,0.743,0,0,1-.037.092l-0.113.222h2.677V39.13a2.942,2.942,0,0,1-.478.65,6.474,6.474,0,0,1-.883.757,8.548,8.548,0,0,0,1,.457q0.628,0.249,1.906.633ZM35.23,43.225a4.827,4.827,0,0,1-1.023.76A7.194,7.194,0,0,1,33,44.5l-0.4-.53a5.394,5.394,0,0,0,1.278-.45,4.557,4.557,0,0,0,.993-0.7Zm1.008-.622v1.744a0.753,0.753,0,0,1-.128.434,0.386,0.386,0,0,1-.331.189H35.012l-0.218-.615,0.737,0.038a0.12,0.12,0,0,0,.087-0.042,0.167,0.167,0,0,0,.049-0.1V42.6H33.41V42.041h2.256V41.573h0.572v0.468H38.4V42.6H36.238Zm-1.444-3.388a4.336,4.336,0,0,0,1.143.991,4.256,4.256,0,0,0,1.188-.991H34.794Zm4.038,5.354a3.64,3.64,0,0,0-.8-0.641,7.192,7.192,0,0,0-1.455-.611l0.3-.461q0.03,0.008.425,0.15t0.658,0.257a4.129,4.129,0,0,1,.5.257,4.684,4.684,0,0,1,.417.285C39,43.9,39.1,43.988,39.193,44.07Zm3.482-6.376a9.54,9.54,0,0,1-.466,1.744v5.055H41.276V41.035l-0.692,1.037L40.1,41.719a8,8,0,0,0,1.677-3.641Zm2.512,4.072v2.681H44.231V42.264h-2.1V41.681h2.1V40.152H43.216a7.238,7.238,0,0,1-.654,1.237l-0.526-.269a4.874,4.874,0,0,0,.643-1.164,5.727,5.727,0,0,0,.32-1.34l0.519,0.169a3.7,3.7,0,0,1-.113.783h0.827V38.047h0.594v1.521h1.564v0.584H44.825v1.529H46.9v0.584H44.825Zm7.129-.438a1.025,1.025,0,0,1-.323.465,0.884,0.884,0,0,1-.5.219,1.026,1.026,0,0,1-.463-0.077,1,1,0,0,1-.38-0.276,0.928,0.928,0,0,1-.2-0.442,1.025,1.025,0,0,1,.026-0.5,0.964,0.964,0,0,1,.32-0.465,0.86,0.86,0,0,1,.507-0.211,1.044,1.044,0,0,1,.489.084,0.9,0.9,0,0,1,.376.315,1.046,1.046,0,0,1,.177.427A0.948,0.948,0,0,1,51.954,41.826Zm-0.474-.5a0.549,0.549,0,0,0-.135-0.181,0.513,0.513,0,0,0-.2-0.111,0.469,0.469,0,0,0-.252.008,0.451,0.451,0,0,0-.215.131,0.55,0.55,0,0,0-.113.208,0.483,0.483,0,0,0-.015.238,0.5,0.5,0,0,0,.1.207,0.523,0.523,0,0,0,.169.146,0.462,0.462,0,0,0,.289.031,0.486,0.486,0,0,0,.259-0.138A0.459,0.459,0,0,0,51.5,41.6,0.561,0.561,0,0,0,51.48,41.327Z"/>
</svg>
