<svg id="s" xmlns="http://www.w3.org/2000/svg" width="300" height="50" viewBox="0 0 300 50">
  <defs>
    <style>
      .cls-1 {
        fill: #4b286c;
        fill-rule: evenodd;
      }
    </style>
  </defs>
  <path class="cls-1" d="M6.507,17.169L6,16.288q2.162-.671,4.207-1.394V15.88Zm3.517-7.826a30.613,30.613,0,0,1-1.387,2.742A6.634,6.634,0,0,1,7.615,13.46L10,12.921v0.921q-1.6.342-3.543,0.96l-0.378-.947a15.234,15.234,0,0,0,1.179-1.361,8.793,8.793,0,0,0,.879-1.309l-1.615.329L6.1,10.724a22.229,22.229,0,0,0,1.315-2.4,14.031,14.031,0,0,0,.7-1.861l0.846,0.46a13.8,13.8,0,0,1-1.654,3.525l1.237-.171a6.784,6.784,0,0,0,.6-1.421Zm7.164,6.024a5.065,5.065,0,0,1-.534,1.7,0.925,0.925,0,0,1-.345.309,1.5,1.5,0,0,1-.7.125H13.971a1.159,1.159,0,0,1-.795-0.316,1.092,1.092,0,0,1-.351-0.855V13.8H10.4V9.856h0.99v2.986h1.433V8.751H9.659V7.791h3.165V6.081h0.99v1.71h3.139v0.96H13.815v4.091h1.42V9.856h0.99v4.485h-0.99V13.8h-1.42V16.2a0.281,0.281,0,0,0,.15.25,0.6,0.6,0,0,0,.319.092h1.263a0.443,0.443,0,0,0,.28-0.086A0.547,0.547,0,0,0,16,16.228a4.572,4.572,0,0,0,.163-0.677q0-.026.052-0.276a2.446,2.446,0,0,0,.052-0.5Zm12.79-.553a9.237,9.237,0,0,1-.547,1.933,0.911,0.911,0,0,1-.391.434,1.71,1.71,0,0,1-.769.132H26.436a1.361,1.361,0,0,1-.912-0.27,0.871,0.871,0,0,1-.313-0.691V12.039H23.87q-0.013.553-.084,1.184a4.992,4.992,0,0,1-.2,1.013,4.3,4.3,0,0,1-.86,1.493,6.956,6.956,0,0,1-1.465,1.256,7.784,7.784,0,0,1-1.9.894q-0.065-.092-0.274-0.427a5.882,5.882,0,0,0-.364-0.533,8.465,8.465,0,0,0,2.422-1.072,3.637,3.637,0,0,0,1.263-1.466,5.878,5.878,0,0,0,.417-2.341H19.558l-0.026-1h4.429V6.107h0.99V11.04h4.572v1H26.2v4.025a0.24,0.24,0,0,0,.078.171,0.248,0.248,0,0,0,.182.079h1.967a0.313,0.313,0,0,0,.2-0.178,2.777,2.777,0,0,0,.215-0.677,4.138,4.138,0,0,0,.1-0.986,4.784,4.784,0,0,1,.554.178Q29.835,14.775,29.978,14.814ZM21.9,10.5a7.789,7.789,0,0,0-.983-1.519A6.156,6.156,0,0,0,19.532,7.7l0.9-.553a10.581,10.581,0,0,1,2.332,2.762Zm7.164-2.947a8.577,8.577,0,0,1-.918,1.526,11.9,11.9,0,0,1-1.322,1.447L26.032,9.9a13.226,13.226,0,0,0,1.016-1.033,6.634,6.634,0,0,0,.723-0.98,6.7,6.7,0,0,0,.436-0.855Zm7.111,8.352q-3.152.868-4.468,1.184L31.2,16.13q3.725-.868,4.976-1.184v0.96ZM36,9.54A17.411,17.411,0,0,1,34.6,11.908a7.257,7.257,0,0,1-1.459,1.644l2.527-.579v0.973q-0.925.251-3.751,0.921L31.4,13.894a10.884,10.884,0,0,0,1.3-1.2,8.1,8.1,0,0,0,.951-1.216,10.015,10.015,0,0,0-1.81.3L31.4,10.8a16.933,16.933,0,0,0,1.231-1.855,13.423,13.423,0,0,0,.957-2.17l0.99,0.553a12.372,12.372,0,0,1-1.915,3.328q0.143,0,.664-0.046t0.925-.059a2.706,2.706,0,0,0,.156-0.237q0.078-.131.677-1.276Zm3.647,2.381v6.011h-0.99V11.921H35.54v-0.96h3.113V8.33a15.792,15.792,0,0,1-2.253.25L35.957,7.567a14.111,14.111,0,0,0,2.794-.277,17.456,17.456,0,0,0,2.872-.921l0.638,0.868a13.673,13.673,0,0,1-2.618.855v2.867h3.269v0.96H39.643Zm4.976,5v-0.96H48.89V6.344h0.99v3.814h4.468v0.96H49.88v4.84h5.614v0.96H44.618Zm22.963-.066a0.887,0.887,0,0,1-.28.611,0.817,0.817,0,0,1-.592.3h-1.3l-0.365-.986,1.381,0.052a0.265,0.265,0,0,0,.169-0.118V7.8H58.607V17.919h-0.99V6.844h9.964v10.01ZM61.9,13.946q-0.156-.42-0.319-0.8a3.927,3.927,0,0,0-.371-0.684,6.534,6.534,0,0,1-.358.809,9.369,9.369,0,0,1-.671,1.066q-0.443.624-.547,0.783a5.394,5.394,0,0,1-.469-0.316,4.5,4.5,0,0,0-.43-0.29,8.665,8.665,0,0,0,.944-1.223,9.465,9.465,0,0,0,.84-1.855,11.187,11.187,0,0,0-1.706-1.973l0.795-.552,0.26,0.263q0.182,0.185.58,0.651t0.45,0.52a9.55,9.55,0,0,0,.495-2.1l0.912,0.236a25.121,25.121,0,0,1-.7,2.762q0.378,0.54.645,0.987a6.261,6.261,0,0,1,.489,1.052Zm3.569,1.132a7.568,7.568,0,0,0-.436-1.216q-0.306-.691-0.632-1.269a14.652,14.652,0,0,1-.8,1.526,9.293,9.293,0,0,1-1.009,1.355l-0.938-.632a9.708,9.708,0,0,0,2.123-3.091q-0.795-1.131-1.589-2.065l0.782-.539q0.1,0.119.56,0.671t0.651,0.829q0.013-.039.039-0.144t0.254-.855a12.538,12.538,0,0,0,.358-1.5l0.9,0.263a26.957,26.957,0,0,1-.886,3.183,12.453,12.453,0,0,1,1.511,2.815Zm10.446-1.723q-0.1-.171-0.371-0.533a7.8,7.8,0,0,0-.638-0.749q-0.371-.388-0.579-0.572l0.729-.737a10.818,10.818,0,0,1,1.784,1.684Zm18.261,1.71q0,2.263-.925,2.354l-0.378.04H88.6a1.06,1.06,0,0,1-1.068-1.3V14.644H83.68V8.225h3.855V6.212h0.99V8.225h3.946v6.419H88.525v1.591a0.3,0.3,0,0,0,.365.316h3.92a0.919,0.919,0,0,0,.391-0.908l0.052-1.026ZM87.535,9.2H84.617v1.71h2.918V9.2Zm0,2.67H84.617V13.7h2.918V11.868ZM91.481,9.2H88.525v1.71h2.956V9.2Zm0,2.67H88.525V13.7h2.956V11.868ZM99.5,8.554a8.62,8.62,0,0,1-1.576,3.67V18h-0.99V13.328a13.513,13.513,0,0,1-1.42,1.052l-0.586-.829a8.869,8.869,0,0,0,1.283-.894A6.7,6.7,0,0,0,97.5,11.244a5.3,5.3,0,0,0,.794-1.73H95.363V8.554H99.5Zm-1.941-.171a3.8,3.8,0,0,0-1.446-1.539l0.7-.553a3.153,3.153,0,0,1,.84.625,3.507,3.507,0,0,1,.658.914Zm1.628,6.169a9.429,9.429,0,0,0-.5-1.039,5.055,5.055,0,0,0-.606-0.881l0.638-.605a3.817,3.817,0,0,1,.684.861,5.2,5.2,0,0,1,.488,1.006Zm7.541,1.316c0,0.009-.021.132-0.065,0.369a4.875,4.875,0,0,1-.162.651,0.971,0.971,0,0,1-.287.454,0.678,0.678,0,0,1-.449.158h-2.019a0.927,0.927,0,0,1-.736-0.289,1.076,1.076,0,0,1-.254-0.737V14.3a6.15,6.15,0,0,1-1.368,2.118,6.541,6.541,0,0,1-2.344,1.565L98.4,17.169a6.962,6.962,0,0,0,1.869-1.125,6.138,6.138,0,0,0,1.3-1.486,4.132,4.132,0,0,0,.586-1.637,10.209,10.209,0,0,0,.117-1.381V8.554H103.2v3.17l-0.052.829h0.6v3.762a0.222,0.222,0,0,0,.065.151,0.19,0.19,0,0,0,.143.072h1.511a0.207,0.207,0,0,0,.143-0.059,0.227,0.227,0,0,0,.078-0.138l0.183-1.013Zm-2.031-1.6V7.778h-3.647v6.485h-0.99V6.817h5.626v7.445H104.7Zm9.547-.908c-0.07-.114-0.193-0.292-0.371-0.533a7.855,7.855,0,0,0-.638-0.749q-0.372-.388-0.58-0.572l0.729-.737a10.835,10.835,0,0,1,1.785,1.684Zm15.5-1.21a13.047,13.047,0,0,1-.833,1.927,5.15,5.15,0,0,1-.795,1.085,23.756,23.756,0,0,1,2.267.987,11.984,11.984,0,0,1,1.432.868l-0.638.868q-0.156-.132-0.586-0.427a8.073,8.073,0,0,0-1.016-.585q-0.587-.29-2.253-1a11.269,11.269,0,0,1-1.42.894,9.869,9.869,0,0,1-1.947.783,11.854,11.854,0,0,1-2.247.427l-0.638-.934a10.483,10.483,0,0,0,5.041-1.512,33.788,33.788,0,0,0-3.283-.868,18.131,18.131,0,0,0,1.563-2.512h-2.917v-0.96h3.438L126,9.106l0.9,0.447-0.86,1.631h5.809v0.96h-2.1Zm0.86-1.986V8.712h-7.867v1.526h-0.99V7.751h4.806a2.8,2.8,0,0,0-.631-0.487,6.394,6.394,0,0,0-1.283-.553l0.794-.671a4.593,4.593,0,0,1,2.175,1.395l-0.377.276,4.363,0.04v2.407h-0.99Zm-5.027,1.986-1.095,1.881q1.421,0.368,2.6.763a5.7,5.7,0,0,0,.984-1.216,4.719,4.719,0,0,0,.618-1.427h-3.112Zm12.191,1.526a1.522,1.522,0,0,1-.437.677,1.452,1.452,0,0,1-.7.375,2.4,2.4,0,0,1-.606.033,2.229,2.229,0,0,1-.606-0.112l-0.234-1.105a1.547,1.547,0,0,0,1.381.158,0.923,0.923,0,0,0,.208-1.052,3.791,3.791,0,0,0-1.263-1.775l1.2-3.1H135.1V17.971h-0.99V6.8h3.634V7.633l-1.068,2.986a7.235,7.235,0,0,1,.814,1.158,2.51,2.51,0,0,1,.306.979A4,4,0,0,1,137.772,13.67Zm2.605-4.393L140.3,11.434h3.66q-0.091,1.421-.261,2.841a18.166,18.166,0,0,1-.378,2.236,1.33,1.33,0,0,1-.872,1.092,1.689,1.689,0,0,1-.456.052,2.834,2.834,0,0,1-.638-0.085c-0.244-.057-0.491-0.123-0.743-0.2l-0.417-.125-0.286-1.158q0.7,0.263,1.146.388a4.1,4.1,0,0,0,.873.151,0.662,0.662,0,0,0,.429-0.592,24.649,24.649,0,0,0,.5-3.644h-2.631a7.371,7.371,0,0,1-1.72,4.512l-1.055,1.078-0.859-.724a6.263,6.263,0,0,0,1.706-1.835,6.117,6.117,0,0,0,.82-2.269q0.091-.671.176-1.94t0.059-1.94h-1.524V8.317h3.386a5.47,5.47,0,0,0-.768-0.8,6.582,6.582,0,0,0-1.237-.8L139.934,6A5.609,5.609,0,0,1,142.1,7.751l-0.638.565H145v0.96h-4.623Z"/>
</svg>
