<svg id="s" xmlns="http://www.w3.org/2000/svg" width="300" height="50" viewBox="0 0 300 50">
  <defs>
    <style>
      .cls-1 {
        fill: #4b286c;
        fill-rule: evenodd;
      }
    </style>
  </defs>
  <path class="cls-1" d="M16.991,29.8L16.9,31.11h0.837v1.541h-1.08a3.189,3.189,0,0,1-.189.8,1.908,1.908,0,0,1-.23.345,1.6,1.6,0,0,1-.364.311,1.835,1.835,0,0,1-.668.25,6.038,6.038,0,0,1-1.344.007,2.789,2.789,0,0,0-.594-1.528,8.156,8.156,0,0,0,1.242.081,0.584,0.584,0,0,0,.3-0.081l0.027-.216H9.469l-0.108.54a12.563,12.563,0,0,0-1.81-.324L8.065,29.8H6.742V28.311H8.362l0.3-2.068a7.745,7.745,0,0,1-1.31,1.406A7.413,7.413,0,0,0,6,26.108a10.381,10.381,0,0,0,2.89-3.866l1.877,0.351-0.5.973h8.048V25.23H9.362l-0.243.338h8.129l-0.176,2.744h1.742V29.8H16.991ZM12.17,31.11a6.1,6.1,0,0,0-1.094-.865l0.635-.419L9.942,29.8,9.74,31.11H12.17ZM12.184,28.3a4.8,4.8,0,0,0-1.229-.757l0.743-.487-1.4-.027L10.118,28.3h2.066Zm0.824,1.5a5.968,5.968,0,0,1,.574.4,3.722,3.722,0,0,1,.439.385,5.645,5.645,0,0,0-.608.527h1.715L15.236,29.8H13.008Zm0.162-2.785a5.324,5.324,0,0,1,1.053.771,2.833,2.833,0,0,0-.648.513H15.33l0.108-1.284H13.17Zm16.421,5.84a1.068,1.068,0,0,1-.3.7,1.644,1.644,0,0,1-.648.48,3.089,3.089,0,0,1-.54.156,13.066,13.066,0,0,1-1.5.142,4.886,4.886,0,0,0-.351-1.183,3.717,3.717,0,0,0-.473-0.737,9.284,9.284,0,0,0,.986.075,2.39,2.39,0,0,0,.824-0.129,0.533,0.533,0,0,0,.1-0.1,0.622,0.622,0,0,0,.061-0.345V30.042H23.676a7.686,7.686,0,0,1-.716,2.412,5.107,5.107,0,0,1-1.566,1.926,5.014,5.014,0,0,0-.736-0.669,3.5,3.5,0,0,0-1.02-.534,2.726,2.726,0,0,0,.925-0.716,6.007,6.007,0,0,0,.783-1.149,4.186,4.186,0,0,0,.439-1.149q0.094-.527.175-1.25a11.613,11.613,0,0,0,.081-1.278V22.391h7.549V32.854Zm-1.837-5.867H23.865L23.8,28.393h3.957V26.987Zm0-2.933H23.878v1.3h3.876v-1.3ZM45.12,32.407a6.258,6.258,0,0,0-.587.906,6.465,6.465,0,0,0-.452.987,10.214,10.214,0,0,1-1.857-1.224,11.578,11.578,0,0,1-1.641-1.615,18.11,18.11,0,0,1-1.533,1.366,13.536,13.536,0,0,1-2.113,1.338,5.459,5.459,0,0,0-.4-0.818,2.818,2.818,0,0,0-.52-0.669v1.406H34.074V28.812l-0.365.365a4.429,4.429,0,0,0-.324-0.845,5.028,5.028,0,0,0-.756-1.007,10.907,10.907,0,0,0,1.249-1.609,11.4,11.4,0,0,0,1.013-1.933,14.177,14.177,0,0,0,.6-1.785l1.85,0.676a17.3,17.3,0,0,1-.52,1.716q-0.372,1.068-.8,2.014v5.812a15.311,15.311,0,0,0,1.8-1.061,8.1,8.1,0,0,0,1.546-1.277,16.787,16.787,0,0,1-1.121-1.92,18.134,18.134,0,0,1-.986-2.284l1.62-.541-1.566-.027V23.215h6.347l0.554,0.527a14.391,14.391,0,0,1-.8,3.291,13.869,13.869,0,0,1-1.54,2.913A10.466,10.466,0,0,0,45.12,32.407ZM39.1,25.135q0.27,0.731.7,1.609a13.581,13.581,0,0,0,.871,1.555,7.688,7.688,0,0,0,.749-1.419,14.225,14.225,0,0,0,.547-1.744H39.1Zm11.223,8.5V35H49.348V33.624c-2.215-.162-3.526-1.325-3.539-3.367h1.8a1.743,1.743,0,0,0,1.743,1.88V29.27l-0.2-.041c-1.864-.351-3.093-1.176-3.093-2.92,0-1.528,1.162-2.623,3.3-2.718V22.239h0.973v1.379c2.2,0.216,3.147,1.406,3.215,3.056h-1.77a1.511,1.511,0,0,0-1.445-1.569v2.677l0.31,0.054c2.27,0.446,3.188,1.325,3.188,2.853C53.819,32.488,52.5,33.529,50.321,33.638Zm-0.973-6.071V25.079a1.256,1.256,0,0,0-1.432,1.177C47.916,26.945,48.267,27.3,49.348,27.566Zm2.58,3.218c0-.69-0.419-1.028-1.607-1.312v2.691C51.361,32.083,51.928,31.609,51.928,30.785Zm6.279,2.65H56.383v-6.49H54.168V25.66l0.216-.014a2.177,2.177,0,0,0,2.377-1.839h1.445v9.627Zm8.063-1.542v1.542h-7l0.041-.716a3.9,3.9,0,0,1,2.526-3.8l0.946-.487c1.094-.527,1.54-1.027,1.54-1.866a1.393,1.393,0,0,0-1.581-1.433,1.516,1.516,0,0,0-1.661,1.758H59.327c-0.013-2.015,1.135-3.3,3.471-3.3,2.094,0,3.364,1.2,3.364,2.839,0,1.528-.851,2.448-2.539,3.286l-0.892.473a2.053,2.053,0,0,0-1.418,1.7H66.27Zm7.481-1.582a3.3,3.3,0,0,1-3.593,3.339,3.252,3.252,0,0,1-3.552-2.961h1.742a1.713,1.713,0,0,0,1.81,1.488,1.867,1.867,0,1,0-1.688-2.758H66.794l0.892-5.612h5.565v1.542H69.118L68.7,27.742a2.737,2.737,0,0,1,1.756-.636A3.058,3.058,0,0,1,73.751,30.311Zm12.5,3.367H83.431L81,33.651a7.459,7.459,0,0,1-1.4-.155,6.106,6.106,0,0,1-1.614-.575,5.276,5.276,0,0,1-1.384-1,5.143,5.143,0,0,1-.473,1.217,9.765,9.765,0,0,1-.81,1.3l-0.891-.622a5.6,5.6,0,0,0,1.229-2.636,17.045,17.045,0,0,0,.2-2.622L76.868,28.7a16.112,16.112,0,0,1-.095,1.988,4.352,4.352,0,0,0,.534.622,2.05,2.05,0,0,0,.6.433V27.582h-2.8V26.595H77.5V25.081H75.518V24.094H77.5V22.161h1.026v1.933h1.728v0.987H78.529v1.514h2.228v0.987H78.934v1.392h1.607v0.987H78.934v2.3a4.727,4.727,0,0,0,.723.23,6.819,6.819,0,0,0,.817.142q0.418,0.048.81,0.061T83.391,32.7h0.182q0.142,0,1.283-.027t1.857-.081Zm-0.068-4.434a8.141,8.141,0,0,1-.648,1.906,1.4,1.4,0,0,1-.4.378,0.972,0.972,0,0,1-.547.176H82.418a1.319,1.319,0,0,1-.621-0.156,0.941,0.941,0,0,1-.425-0.412,1.111,1.111,0,0,1-.128-0.5v-4.19H84.43V24.162H80.784V23.175h4.673v5.07H84.43V27.433H82.27v3a0.438,0.438,0,0,0,.041.216,0.357,0.357,0,0,0,.284.068h1.742a0.755,0.755,0,0,0,.608-0.7q0.108-.337.284-1.189ZM90,24.331q-0.2.063-.48,0.126c-0.189.042-.349,0.071-0.48,0.087l0.071,0.063,0.26,0.284,0.267,0.3L89.7,25.269l-0.457.331q-0.166-.221-0.48-0.749l-0.047-.079-0.039.071a7.094,7.094,0,0,1-.465.757l-0.449-.331,0.047-.055,0.276-.331a3.2,3.2,0,0,1,.315-0.339q-0.519-.111-0.945-0.213l0.181-.552q0.339,0.126.539,0.209a2.5,2.5,0,0,1,.343.169l-0.008-.086q-0.063-.725-0.063-0.875H89a6.462,6.462,0,0,1-.071.866l-0.016.087a8.248,8.248,0,0,1,.905-0.37Z"/>
</svg>
