<svg xmlns="http://www.w3.org/2000/svg" width="300" height="250" viewBox="0 0 300 250">
  <defs>
    <style>
      .cls-1 {
        fill: #4c286c;
        fill-rule: evenodd;
      }
    </style>
  </defs>
  <path class="cls-1" d="M38,62.521C38,57.851,40.774,55,44.568,55a5.826,5.826,0,0,1,6.051,4.953h-1.7a4.183,4.183,0,0,0-4.354-3.4c-2.875,0-4.812,2.2-4.812,5.964s1.937,5.964,4.812,5.964a4.35,4.35,0,0,0,4.453-4H50.7a5.9,5.9,0,0,1-6.131,5.56C40.774,70.042,38,67.191,38,62.521Zm22.984,0.142v7.056h-1.6V62.824A2.079,2.079,0,0,0,57.028,60.5c-1.338,0-2.836,1.011-2.836,3.316v5.9h-1.6v-14.4h1.6v5.4a3.782,3.782,0,0,1,3.155-1.678A3.306,3.306,0,0,1,60.982,62.663Zm11.5,5.742v1.314a6.028,6.028,0,0,1-.879.061,1.484,1.484,0,0,1-1.737-1.5,3.762,3.762,0,0,1-3.355,1.678c-2.237,0-3.635-1.092-3.635-3.053,0-1.637.978-2.931,3.814-3.235l1.478-.161c1.038-.121,1.617-0.506,1.617-1.436,0-1.092-.559-1.638-2.316-1.638s-2.5.506-2.6,2.062h-1.6c0.12-2.022,1.179-3.457,4.194-3.457,2.856,0,3.874,1.274,3.874,3.033V67.9a0.474,0.474,0,0,0,.559.505h0.58Zm-2.7-2.81V64.361a2.633,2.633,0,0,1-1.358.445l-1.5.182c-1.878.223-2.4,0.87-2.4,1.88,0,1.031.639,1.719,2.057,1.719A2.974,2.974,0,0,0,69.786,65.594Zm4.092,2.022V55.323h1.6V67.474a0.8,0.8,0,0,0,.979.89h0.758v1.355a10.037,10.037,0,0,1-1.019.061C74.756,69.779,73.878,69.213,73.878,67.616ZM78.011,64.5c0-3.336,2.1-5.459,4.993-5.459S88,61.166,88,64.5,85.9,69.961,83,69.961,78.011,67.838,78.011,64.5Zm8.307,0c0-2.527-1.318-4-3.315-4s-3.315,1.476-3.315,4,1.318,4,3.315,4S86.319,67.029,86.319,64.5Zm7.565,3.113V55.323h1.6V67.474a0.8,0.8,0,0,0,.979.89h0.758v1.355a10.036,10.036,0,0,1-1.019.061C94.762,69.779,93.884,69.213,93.884,67.616ZM107.723,68.4v1.314a6.022,6.022,0,0,1-.879.061,1.485,1.485,0,0,1-1.738-1.5,3.761,3.761,0,0,1-3.354,1.678c-2.238,0-3.635-1.092-3.635-3.053,0-1.637.978-2.931,3.814-3.235l1.478-.161c1.038-.121,1.617-0.506,1.617-1.436,0-1.092-.558-1.638-2.316-1.638s-2.5.506-2.6,2.062h-1.6c0.12-2.022,1.179-3.457,4.194-3.457,2.855,0,3.874,1.274,3.874,3.033V67.9a0.475,0.475,0,0,0,.559.505h0.58Zm-2.7-2.81V64.361a2.632,2.632,0,0,1-1.358.445l-1.5.182c-1.878.223-2.4,0.87-2.4,1.88,0,1.031.639,1.719,2.058,1.719A2.974,2.974,0,0,0,105.026,65.594Zm13.3,2.81v1.314a6.022,6.022,0,0,1-.879.061,1.485,1.485,0,0,1-1.738-1.5,3.76,3.76,0,0,1-3.354,1.678c-2.238,0-3.635-1.092-3.635-3.053,0-1.637.978-2.931,3.814-3.235l1.478-.161c1.038-.121,1.618-0.506,1.618-1.436,0-1.092-.559-1.638-2.317-1.638s-2.5.506-2.6,2.062h-1.6c0.12-2.022,1.179-3.457,4.194-3.457,2.856,0,3.875,1.274,3.875,3.033V67.9a0.474,0.474,0,0,0,.558.505h0.58Zm-2.7-2.81V64.361a2.636,2.636,0,0,1-1.358.445l-1.5.182c-1.878.223-2.4,0.87-2.4,1.88,0,1.031.638,1.719,2.057,1.719A2.974,2.974,0,0,0,115.629,65.594Zm11.96-6.308-4.354,12.07a3.116,3.116,0,0,1-3.355,2.386,7.885,7.885,0,0,1-.959-0.061V72.327h0.939a1.805,1.805,0,0,0,1.877-1.294c0.12-.3.239-0.647,0.359-0.971l-3.874-10.776h1.758l1.457,4.347c0.52,1.516,1,3.013,1.478,4.508,0.459-1.5.959-3.012,1.478-4.529l1.458-4.326h1.738Zm9.783,5.782h-7.828c0.16,2.346,1.378,3.417,3.175,3.417a2.652,2.652,0,0,0,2.737-1.941h1.657a4.309,4.309,0,0,1-4.434,3.417c-2.816,0-4.793-2.082-4.793-5.459,0-3.275,1.9-5.459,4.753-5.459,3.076,0,4.733,2.467,4.733,5.459v0.566Zm-7.788-1.456h6.07c-0.158-1.718-1.177-3.093-3.015-3.093C131.022,60.519,129.843,61.551,129.584,63.613Zm9.5-6.894a1.079,1.079,0,1,1,1.078,1.092A1.094,1.094,0,0,1,139.087,56.719Zm0.28,2.568h1.6V69.719h-1.6V59.286Zm12.48,3.376v7.056h-1.6V62.824a2.079,2.079,0,0,0-2.356-2.325c-1.339,0-2.836,1.011-2.836,3.316v5.9h-1.6V59.286h1.518v1.557a3.782,3.782,0,0,1,3.234-1.8A3.305,3.305,0,0,1,151.847,62.663Zm5.889,1.84c0-3.356,1.916-5.459,4.773-5.459a4.191,4.191,0,0,1,4.433,3.781h-1.658a2.691,2.691,0,0,0-2.775-2.325c-1.758,0-3.1,1.274-3.1,4s1.378,4,3.1,4a2.716,2.716,0,0,0,2.8-2.365h1.637a4.267,4.267,0,0,1-4.433,3.821C159.692,69.961,157.736,67.859,157.736,64.5Zm10.5,0c0-3.336,2.1-5.459,4.993-5.459s4.993,2.123,4.993,5.459-2.1,5.459-4.993,5.459S168.237,67.838,168.237,64.5Zm8.308,0c0-2.527-1.318-4-3.315-4s-3.315,1.476-3.315,4,1.318,4,3.315,4S176.545,67.029,176.545,64.5Zm12.061-1.84v7.056h-1.6V62.824a2.079,2.079,0,0,0-2.357-2.325c-1.338,0-2.836,1.011-2.836,3.316v5.9h-1.6V59.286h1.518v1.557a3.785,3.785,0,0,1,3.235-1.8A3.306,3.306,0,0,1,188.606,62.663Zm10.882,0v7.056h-1.6V62.824a2.079,2.079,0,0,0-2.357-2.325c-1.338,0-2.836,1.011-2.836,3.316v5.9h-1.6V59.286h1.518v1.557a3.785,3.785,0,0,1,3.235-1.8A3.306,3.306,0,0,1,199.488,62.663Zm11.479,2.406h-7.828c0.16,2.346,1.378,3.417,3.175,3.417a2.651,2.651,0,0,0,2.737-1.941h1.657a4.309,4.309,0,0,1-4.434,3.417c-2.816,0-4.793-2.082-4.793-5.459,0-3.275,1.9-5.459,4.753-5.459,3.076,0,4.733,2.467,4.733,5.459v0.566Zm-7.788-1.456h6.071c-0.159-1.718-1.178-3.093-3.016-3.093C204.617,60.519,203.438,61.551,203.179,63.613Zm9.284,0.89c0-3.356,1.917-5.459,4.773-5.459a4.192,4.192,0,0,1,4.433,3.781h-1.657a2.692,2.692,0,0,0-2.776-2.325c-1.758,0-3.095,1.274-3.095,4s1.377,4,3.095,4a2.716,2.716,0,0,0,2.8-2.365h1.637a4.266,4.266,0,0,1-4.433,3.821C214.42,69.961,212.463,67.859,212.463,64.5Zm13-3.8v6.773c0,0.546.259,0.89,1.178,0.89h0.939v1.355q-0.66.061-1.139,0.061c-1.6,0-2.576-.566-2.576-2.163V60.7h-1.7V59.286h1.7V56.335h1.6v2.951h2.117V60.7h-2.117Zm3.633-3.983a1.079,1.079,0,1,1,1.078,1.092A1.094,1.094,0,0,1,229.1,56.719Zm0.28,2.568h1.6V69.719h-1.6V59.286Zm12.66,0-4.053,10.432H236.3l-4.035-10.432h1.739l1.7,4.65c0.479,1.314,1.018,2.73,1.458,4.044,0.439-1.314.978-2.75,1.457-4.064l1.7-4.63h1.717Zm1.016-2.568a1.079,1.079,0,1,1,1.078,1.092A1.094,1.094,0,0,1,243.051,56.719Zm0.28,2.568h1.6V69.719h-1.6V59.286Zm6.49,1.415v6.773c0,0.546.259,0.89,1.179,0.89h0.938v1.355q-0.659.061-1.138,0.061c-1.6,0-2.577-.566-2.577-2.163V60.7h-1.7V59.286h1.7V56.335h1.6v2.951h2.117V60.7h-2.117ZM262,59.286l-4.354,12.07a3.116,3.116,0,0,1-3.355,2.386,7.885,7.885,0,0,1-.959-0.061V72.327h0.938a1.807,1.807,0,0,0,1.878-1.294c0.12-.3.239-0.647,0.359-0.971l-3.874-10.776h1.757l1.458,4.347c0.52,1.516,1,3.013,1.478,4.508,0.459-1.5.959-3.012,1.478-4.529l1.457-4.326H262ZM87.485,88.136l-1.837,1.738v3.862h-1.6v-14.4h1.6v8.633l4.773-4.67h2.117l-3.914,3.76,4.194,6.672H90.961Zm5.531,0.384c0-3.336,2.1-5.459,4.993-5.459S103,85.184,103,88.52s-2.1,5.459-4.992,5.459S93.016,91.856,93.016,88.52Zm8.308,0c0-2.527-1.319-4-3.315-4s-3.315,1.476-3.315,4,1.318,4,3.315,4S101.324,91.047,101.324,88.52Zm21.8-5.216-3.435,10.432h-1.678L116.5,88.9c-0.36-1.152-.719-2.365-1.039-3.538-0.339,1.172-.7,2.385-1.058,3.538l-1.5,4.832h-1.677L107.79,83.3h1.718l1.458,4.711c0.4,1.274.759,2.527,1.119,3.8,0.339-1.274.7-2.527,1.1-3.8l1.438-4.711H116.3l1.438,4.711c0.38,1.253.759,2.507,1.119,3.76,0.339-1.253.718-2.507,1.1-3.76l1.459-4.711h1.717Zm1.016-2.568a1.079,1.079,0,1,1,1.078,1.092A1.093,1.093,0,0,1,124.144,80.736Zm0.279,2.568h1.6V93.736h-1.6V83.3Zm6.489,1.415v6.773c0,0.546.26,0.89,1.179,0.89h0.939v1.355q-0.66.061-1.139,0.061c-1.6,0-2.576-.566-2.576-2.163V84.719h-1.7V83.3h1.7V80.352h1.6V83.3h2.118v1.415h-2.118Zm12.3,1.961v7.056h-1.6V86.842a2.079,2.079,0,0,0-2.356-2.325c-1.339,0-2.836,1.011-2.836,3.316v5.9h-1.6v-14.4h1.6v5.4a3.781,3.781,0,0,1,3.155-1.678A3.3,3.3,0,0,1,143.213,86.68Zm2.214-5.944a1.079,1.079,0,1,1,1.078,1.092A1.094,1.094,0,0,1,145.427,80.736Zm0.28,2.568h1.6V93.736h-1.6V83.3Zm12.481,3.376v7.056h-1.6V86.842a2.079,2.079,0,0,0-2.356-2.325c-1.339,0-2.836,1.011-2.836,3.316v5.9h-1.6V83.3h1.518v1.557a3.782,3.782,0,0,1,3.234-1.8A3.306,3.306,0,0,1,158.188,86.68Zm11.758-3.518v1.557h-0.4c-2.057,0-3.375,1.051-3.375,3.073v5.944h-1.6V83.3h1.518v1.84a3.593,3.593,0,0,1,3.314-2A5.361,5.361,0,0,1,169.946,83.162Zm9.985,5.924H172.1c0.16,2.346,1.379,3.417,3.175,3.417a2.651,2.651,0,0,0,2.737-1.941h1.657a4.309,4.309,0,0,1-4.434,3.417c-2.815,0-4.792-2.083-4.792-5.459,0-3.275,1.9-5.459,4.752-5.459,3.076,0,4.734,2.466,4.734,5.459v0.566Zm-7.789-1.456h6.071c-0.16-1.718-1.178-3.093-3.016-3.093C173.58,84.537,172.4,85.568,172.142,87.63Zm18.691,4.792v1.314a6.008,6.008,0,0,1-.879.061,1.483,1.483,0,0,1-1.737-1.5,3.762,3.762,0,0,1-3.355,1.678c-2.238,0-3.635-1.092-3.635-3.053,0-1.637.978-2.931,3.814-3.235l1.478-.161c1.039-.121,1.618-0.506,1.618-1.435,0-1.092-.559-1.638-2.317-1.638s-2.5.506-2.6,2.062h-1.6c0.12-2.022,1.179-3.457,4.194-3.457,2.856,0,3.875,1.274,3.875,3.032v5.823a0.474,0.474,0,0,0,.558.505h0.58Zm-2.7-2.81V88.378a2.639,2.639,0,0,1-1.358.445l-1.5.182c-1.878.223-2.4,0.869-2.4,1.88,0,1.032.638,1.719,2.057,1.719A2.974,2.974,0,0,0,188.137,89.612Zm3.592-1.092c0-3.356,1.917-5.459,4.773-5.459a4.19,4.19,0,0,1,4.433,3.781h-1.657a2.692,2.692,0,0,0-2.776-2.325c-1.757,0-3.095,1.274-3.095,4s1.378,4,3.095,4a2.715,2.715,0,0,0,2.8-2.365h1.637a4.266,4.266,0,0,1-4.433,3.821C193.686,93.979,191.729,91.876,191.729,88.52Zm19.39-1.84v7.056h-1.6V86.842a2.079,2.079,0,0,0-2.357-2.325c-1.338,0-2.836,1.011-2.836,3.316v5.9h-1.6v-14.4h1.6v5.4a3.782,3.782,0,0,1,3.155-1.678A3.306,3.306,0,0,1,211.119,86.68Zm2.194,6a1.169,1.169,0,0,1,2.336,0A1.168,1.168,0,1,1,213.313,92.685Z"/>
</svg>
