<svg xmlns="http://www.w3.org/2000/svg" width="300" height="250" viewBox="0 0 300 250">
  <defs>
    <style>
      .cls-1 {
        fill: #4c286c;
        fill-rule: evenodd;
      }
    </style>
  </defs>
  <path class="cls-1" d="M42.518,55l-4.04,14.4H36.6l-2.039-7.343c-0.44-1.557-.9-3.257-1.3-4.875-0.4,1.618-.86,3.318-1.3,4.875l-2.04,7.343H28.04L24,55h1.74l1.94,7.1c0.461,1.639.94,3.439,1.34,5.158,0.44-1.719.9-3.5,1.36-5.2L32.319,55H34.2l1.94,7.06c0.46,1.7.921,3.479,1.36,5.2,0.4-1.719.88-3.519,1.34-5.158l1.94-7.1h1.74Zm9.295,9.75H43.974c0.16,2.347,1.38,3.419,3.18,3.419a2.654,2.654,0,0,0,2.74-1.942h1.66a4.315,4.315,0,0,1-4.44,3.419c-2.819,0-4.8-2.084-4.8-5.462,0-3.277,1.9-5.462,4.759-5.462,3.08,0,4.74,2.468,4.74,5.462v0.566Zm-7.8-1.457h6.079c-0.159-1.719-1.179-3.095-3.02-3.095C45.454,60.2,44.274,61.233,44.014,63.3Zm11-6.614c0,1.9-.92,2.771-2.2,3.034l-0.2.041V58.684l0.141-.02a1.457,1.457,0,0,0,1.08-1.558h-0.12a1.037,1.037,0,0,1-1.1-1.031A1.058,1.058,0,0,1,53.711,55C54.531,55,55.01,55.589,55.01,56.682Zm6.879,2.144v1.558h-0.4c-2.06,0-3.38,1.052-3.38,3.075v5.947h-1.6V58.967h1.52v1.841a3.6,3.6,0,0,1,3.319-2A5.381,5.381,0,0,1,61.889,58.826Zm10,5.927H64.048c0.16,2.347,1.38,3.419,3.18,3.419a2.654,2.654,0,0,0,2.74-1.942h1.66a4.315,4.315,0,0,1-4.44,3.419c-2.819,0-4.8-2.084-4.8-5.462,0-3.277,1.9-5.462,4.759-5.462,3.08,0,4.74,2.468,4.74,5.462v0.566Zm-7.8-1.457h6.079c-0.159-1.719-1.179-3.095-3.02-3.095C65.528,60.2,64.347,61.233,64.088,63.3Zm22.094-.951v7.06h-1.6v-6.9a2.081,2.081,0,0,0-2.36-2.327c-1.34,0-2.84,1.012-2.84,3.318v5.907h-1.6V55h1.6v5.4a3.788,3.788,0,0,1,3.159-1.679A3.309,3.309,0,0,1,86.182,62.346Zm11.5,2.407H89.839c0.16,2.347,1.38,3.419,3.18,3.419a2.654,2.654,0,0,0,2.74-1.942h1.66a4.314,4.314,0,0,1-4.44,3.419c-2.819,0-4.8-2.084-4.8-5.462,0-3.277,1.9-5.462,4.759-5.462,3.08,0,4.74,2.468,4.74,5.462v0.566Zm-7.8-1.457h6.079c-0.16-1.719-1.179-3.095-3.02-3.095C91.319,60.2,90.139,61.233,89.879,63.3Zm9.8,4.005V55h1.6V67.16a0.8,0.8,0,0,0,.98.89h0.759v1.356a10.051,10.051,0,0,1-1.02.061C100.555,69.466,99.676,68.9,99.676,67.3Zm14.7-3.115c0,3.338-1.9,5.462-4.8,5.462a4.037,4.037,0,0,1-3.46-1.74V73.37h-1.6v-14.4h1.52v1.619a4.042,4.042,0,0,1,3.54-1.861C112.473,58.725,114.373,60.849,114.373,64.186Zm-1.68-.081c0-2.529-1.32-3.924-3.319-3.924s-3.32,1.477-3.32,4.005,1.319,4.005,3.32,4.005S112.693,66.634,112.693,64.105Zm3.4-7.707a1.081,1.081,0,1,1,1.08,1.092A1.1,1.1,0,0,1,116.09,56.4Zm0.28,2.569h1.6V69.405h-1.6V58.967Zm12.5,3.378v7.06h-1.6v-6.9a2.081,2.081,0,0,0-2.359-2.327c-1.341,0-2.84,1.012-2.84,3.318v5.907h-1.6V58.967h1.52v1.558a3.789,3.789,0,0,1,3.239-1.8A3.308,3.308,0,0,1,128.867,62.346Zm11.857-3.378V69c0,2.71-1.541,4.612-4.8,4.612-2.639,0-4.18-1.335-4.4-3.358h1.6c0.2,1.315,1.179,1.983,2.8,1.983,2.06,0,3.2-1.073,3.2-3.237V67.989a4.153,4.153,0,0,1-3.46,1.659c-2.9,0-4.8-2.124-4.8-5.462s1.9-5.462,4.8-5.462a4.149,4.149,0,0,1,3.54,1.76V58.967h1.52Zm-1.541,5.219c0-2.528-1.319-4.005-3.319-4.005s-3.319,1.558-3.319,4.005,1.32,4.005,3.319,4.005S139.183,66.715,139.183,64.186Zm17.8,0c0,3.338-1.9,5.462-4.8,5.462a4.04,4.04,0,0,1-3.46-1.74V73.37h-1.6v-14.4h1.52v1.619a4.043,4.043,0,0,1,3.54-1.861C155.079,58.725,156.979,60.849,156.979,64.186Zm-1.681-.081c0-2.529-1.32-3.924-3.319-3.924s-3.32,1.477-3.32,4.005,1.32,4.005,3.32,4.005S155.3,66.634,155.3,64.105Zm12.677,0.647h-7.839c0.16,2.347,1.38,3.419,3.179,3.419a2.655,2.655,0,0,0,2.741-1.942h1.659a4.313,4.313,0,0,1-4.44,3.419c-2.819,0-4.8-2.084-4.8-5.462,0-3.277,1.9-5.462,4.759-5.462,3.08,0,4.74,2.468,4.74,5.462v0.566Zm-7.8-1.457h6.079c-0.159-1.719-1.179-3.095-3.02-3.095C161.616,60.2,160.435,61.233,160.176,63.3Zm9.3,0.89c0-3.338,2.1-5.462,5-5.462s5,2.124,5,5.462-2.1,5.462-5,5.462S169.473,67.524,169.473,64.186Zm8.318,0c0-2.528-1.32-4.005-3.319-4.005s-3.319,1.477-3.319,4.005,1.32,4.005,3.319,4.005S177.791,66.715,177.791,64.186Zm13.537,0c0,3.338-1.9,5.462-4.8,5.462a4.037,4.037,0,0,1-3.46-1.74V73.37h-1.6v-14.4h1.52v1.619a4.042,4.042,0,0,1,3.54-1.861C189.428,58.725,191.328,60.849,191.328,64.186Zm-1.68-.081c0-2.529-1.32-3.924-3.32-3.924s-3.32,1.477-3.32,4.005,1.32,4.005,3.32,4.005S189.648,66.634,189.648,64.105Zm3.676,3.2V55h1.6V67.16a0.806,0.806,0,0,0,.981.89h0.759v1.356a10.067,10.067,0,0,1-1.02.061C194.2,69.466,193.324,68.9,193.324,67.3Zm13.638-2.549h-7.839c0.16,2.347,1.381,3.419,3.18,3.419a2.654,2.654,0,0,0,2.74-1.942h1.66a4.315,4.315,0,0,1-4.44,3.419c-2.82,0-4.8-2.084-4.8-5.462,0-3.277,1.9-5.462,4.759-5.462,3.08,0,4.739,2.468,4.739,5.462v0.566Zm-7.8-1.457h6.079c-0.159-1.719-1.179-3.095-3.019-3.095C200.6,60.2,199.423,61.233,199.163,63.3Zm13.415-6.9a1.08,1.08,0,1,1,1.08,1.092A1.095,1.095,0,0,1,212.578,56.4Zm0.28,2.569h1.6V69.405h-1.6V58.967Zm12.5,3.378v7.06h-1.6v-6.9a2.081,2.081,0,0,0-2.36-2.327c-1.34,0-2.84,1.012-2.84,3.318v5.907h-1.6V58.967h1.52v1.558a3.792,3.792,0,0,1,3.239-1.8A3.309,3.309,0,0,1,225.356,62.346Zm14.794,0v7.06h-1.6v-6.9a2.081,2.081,0,0,0-2.36-2.327c-1.34,0-2.84,1.012-2.84,3.318v5.907h-1.6V58.967h1.52v1.558a3.792,3.792,0,0,1,3.24-1.8A3.308,3.308,0,0,1,240.15,62.346Zm11.5,2.407h-7.839c0.16,2.347,1.38,3.419,3.18,3.419a2.654,2.654,0,0,0,2.74-1.942h1.66a4.315,4.315,0,0,1-4.44,3.419c-2.82,0-4.8-2.084-4.8-5.462,0-3.277,1.9-5.462,4.76-5.462,3.08,0,4.739,2.468,4.739,5.462v0.566Zm-7.8-1.457h6.079c-0.159-1.719-1.179-3.095-3.019-3.095C245.288,60.2,244.108,61.233,243.848,63.3Zm18.8,1.457H254.8c0.161,2.347,1.381,3.419,3.18,3.419a2.653,2.653,0,0,0,2.74-1.942h1.66a4.315,4.315,0,0,1-4.44,3.419c-2.819,0-4.8-2.084-4.8-5.462,0-3.277,1.9-5.462,4.759-5.462,3.08,0,4.74,2.468,4.74,5.462v0.566Zm-7.8-1.457h6.079c-0.159-1.719-1.18-3.095-3.02-3.095C256.284,60.2,255.1,61.233,254.845,63.3ZM274,55v14.4h-1.52V67.787a4.043,4.043,0,0,1-3.539,1.862c-2.9,0-4.8-2.124-4.8-5.462s1.9-5.462,4.8-5.462a4.038,4.038,0,0,1,3.459,1.74V55H274Zm-1.54,9.184c0-2.528-1.32-4.005-3.319-4.005s-3.32,1.558-3.32,4.086,1.32,3.924,3.32,3.924S272.46,66.715,272.46,64.186ZM52.633,91.7v1.315a6.013,6.013,0,0,1-.881.061,1.486,1.486,0,0,1-1.74-1.5,3.767,3.767,0,0,1-3.359,1.679c-2.24,0-3.639-1.093-3.639-3.055,0-1.638.979-2.933,3.819-3.236l1.48-.162c1.04-.121,1.62-0.506,1.62-1.436,0-1.093-.559-1.639-2.32-1.639s-2.5.506-2.6,2.063h-1.6c0.12-2.023,1.18-3.459,4.2-3.459,2.859,0,3.88,1.274,3.88,3.034v5.826a0.475,0.475,0,0,0,.559.506h0.581Zm-2.7-2.812V87.655a2.639,2.639,0,0,1-1.36.445l-1.5.182c-1.88.223-2.4,0.87-2.4,1.881,0,1.032.639,1.72,2.06,1.72A2.977,2.977,0,0,0,49.933,88.889Zm3.6-1.092c0-3.358,1.919-5.462,4.78-5.462a4.2,4.2,0,0,1,4.439,3.783H61.09a2.7,2.7,0,0,0-2.779-2.327c-1.76,0-3.1,1.274-3.1,4.005S56.59,91.8,58.31,91.8a2.719,2.719,0,0,0,2.8-2.367h1.639a4.271,4.271,0,0,1-4.439,3.823C55.49,93.258,53.53,91.154,53.53,87.8Zm10.517,0c0-3.358,1.919-5.462,4.78-5.462a4.2,4.2,0,0,1,4.439,3.783h-1.66a2.7,2.7,0,0,0-2.779-2.327c-1.76,0-3.1,1.274-3.1,4.005s1.38,4.005,3.1,4.005a2.719,2.719,0,0,0,2.8-2.367h1.639a4.271,4.271,0,0,1-4.439,3.823C66.007,93.258,64.048,91.154,64.048,87.8Zm20.015,0.566H76.223c0.16,2.347,1.38,3.419,3.18,3.419a2.654,2.654,0,0,0,2.74-1.942H83.8a4.315,4.315,0,0,1-4.44,3.419c-2.819,0-4.8-2.084-4.8-5.462,0-3.277,1.9-5.462,4.759-5.462,3.08,0,4.74,2.468,4.74,5.462v0.566Zm-7.8-1.456h6.079c-0.159-1.719-1.179-3.095-3.019-3.095C77.7,83.811,76.523,84.843,76.263,86.906ZM85.22,89.7h1.62c0.181,1.578.94,2.165,2.76,2.165,1.74,0,2.48-.587,2.48-1.619,0-.93-0.559-1.355-2.36-1.7l-0.96-.182c-2.24-.425-3.22-1.456-3.22-3.075,0-1.78,1.4-2.953,3.76-2.953,2.76,0,4.16,1.234,4.2,3.459H91.9c-0.08-1.618-1.02-2.063-2.6-2.063-1.379,0-2.159.566-2.159,1.538,0,0.991.76,1.355,2.079,1.618l0.92,0.182c2.54,0.506,3.56,1.376,3.56,3.075,0,1.982-1.56,3.116-4.1,3.116C86.981,93.258,85.381,92.145,85.22,89.7Zm9.636,0h1.62c0.181,1.578.94,2.165,2.76,2.165,1.74,0,2.48-.587,2.48-1.619,0-.93-0.559-1.355-2.359-1.7l-0.96-.182c-2.239-.425-3.22-1.456-3.22-3.075,0-1.78,1.4-2.953,3.76-2.953,2.76,0,4.159,1.234,4.2,3.459h-1.6c-0.08-1.618-1.02-2.063-2.6-2.063-1.379,0-2.16.566-2.16,1.538,0,0.991.76,1.355,2.079,1.618l0.92,0.182c2.54,0.506,3.561,1.376,3.561,3.075,0,1.982-1.56,3.116-4.1,3.116C96.617,93.258,95.017,92.145,94.857,89.7Zm13.336,0h1.619c0.181,1.578.94,2.165,2.76,2.165,1.74,0,2.48-.587,2.48-1.619,0-.93-0.56-1.355-2.36-1.7l-0.96-.182c-2.239-.425-3.219-1.456-3.219-3.075,0-1.78,1.4-2.953,3.759-2.953,2.76,0,4.16,1.234,4.2,3.459h-1.6c-0.08-1.618-1.02-2.063-2.6-2.063-1.379,0-2.159.566-2.159,1.538,0,0.991.759,1.355,2.079,1.618l0.92,0.182c2.54,0.506,3.56,1.376,3.56,3.075,0,1.982-1.56,3.116-4.1,3.116C109.953,93.258,108.353,92.145,108.193,89.7Zm18.576-7.12V93.015h-1.52V91.458a3.8,3.8,0,0,1-3.241,1.8,3.308,3.308,0,0,1-3.639-3.621v-7.06h1.6v6.9a2.081,2.081,0,0,0,2.36,2.327c1.339,0,2.839-1.012,2.839-3.317V82.577h1.6ZM139.125,87.8c0,3.338-1.9,5.462-4.8,5.462a4.043,4.043,0,0,1-3.54-1.861v1.618h-1.52v-14.4h1.6v5.462a4.038,4.038,0,0,1,3.46-1.739C137.225,82.335,139.125,84.459,139.125,87.8Zm-1.68-.081c0-2.529-1.32-3.924-3.319-3.924s-3.321,1.477-3.321,4.005,1.32,4.005,3.321,4.005S137.445,90.244,137.445,87.715Zm2.737,1.982h1.62c0.18,1.578.94,2.165,2.76,2.165,1.739,0,2.479-.587,2.479-1.619,0-.93-0.559-1.355-2.359-1.7l-0.96-.182c-2.239-.425-3.22-1.456-3.22-3.075,0-1.78,1.4-2.953,3.76-2.953,2.76,0,4.16,1.234,4.2,3.459h-1.6c-0.08-1.618-1.02-2.063-2.6-2.063-1.38,0-2.159.566-2.159,1.538,0,0.991.759,1.355,2.079,1.618l0.92,0.182c2.54,0.506,3.56,1.376,3.56,3.075,0,1.982-1.56,3.116-4.1,3.116C141.942,93.258,140.342,92.145,140.182,89.7Zm9.9-9.689a1.081,1.081,0,1,1,1.08,1.092A1.1,1.1,0,0,1,150.078,80.008Zm0.281,2.569h1.6V93.015h-1.6V82.577Zm13.457-3.965v14.4H162.3V91.4a4.043,4.043,0,0,1-3.54,1.861c-2.9,0-4.8-2.124-4.8-5.462s1.9-5.462,4.8-5.462a4.038,4.038,0,0,1,3.46,1.739V78.612h1.6Zm-1.54,9.184c0-2.529-1.32-4.005-3.32-4.005s-3.319,1.558-3.319,4.086,1.32,3.924,3.319,3.924S162.276,90.325,162.276,87.8Zm3.757-7.788a1.081,1.081,0,1,1,1.08,1.092A1.1,1.1,0,0,1,166.033,80.008Zm0.28,2.569h1.6V93.015h-1.6V82.577ZM178.052,91.6v1.416h-8.339V91.8l4.719-6.15c0.44-.566.881-1.133,1.34-1.7-0.74.04-1.46,0.04-2.2,0.04h-3.659V82.577h7.859v1.214l-4.72,6.15c-0.44.566-.879,1.133-1.34,1.7,0.74-.041,1.461-0.041,2.2-0.041h4.139Zm10.2-3.237h-7.84c0.161,2.347,1.381,3.419,3.18,3.419a2.653,2.653,0,0,0,2.74-1.942h1.66a4.315,4.315,0,0,1-4.44,3.419c-2.819,0-4.8-2.084-4.8-5.462,0-3.277,1.9-5.462,4.759-5.462,3.08,0,4.74,2.468,4.74,5.462v0.566Zm-7.8-1.456h6.08c-0.161-1.719-1.18-3.095-3.02-3.095C181.89,83.811,180.709,84.843,180.449,86.906Zm19.156-8.294v14.4h-1.52V91.4a4.042,4.042,0,0,1-3.539,1.861c-2.9,0-4.8-2.124-4.8-5.462s1.9-5.462,4.8-5.462a4.038,4.038,0,0,1,3.459,1.739V78.612h1.6Zm-1.54,9.184c0-2.529-1.32-4.005-3.319-4.005s-3.32,1.558-3.32,4.086,1.32,3.924,3.32,3.924S198.065,90.325,198.065,87.8Zm17.8,0c0,3.338-1.9,5.462-4.8,5.462a4.037,4.037,0,0,1-3.46-1.74V96.98H206v-14.4h1.52V84.2a4.042,4.042,0,0,1,3.54-1.861C213.96,82.335,215.86,84.459,215.86,87.8Zm-1.68-.081c0-2.529-1.32-3.924-3.319-3.924s-3.321,1.477-3.321,4.005,1.32,4.005,3.321,4.005S214.18,90.244,214.18,87.715Zm3.676,3.2v-12.3h1.6V90.77a0.805,0.805,0,0,0,.98.89H221.2v1.355a10.015,10.015,0,0,1-1.02.061C218.736,93.076,217.856,92.51,217.856,90.911ZM231.714,91.7v1.315a6.007,6.007,0,0,1-.88.061,1.486,1.486,0,0,1-1.74-1.5,3.766,3.766,0,0,1-3.359,1.679c-2.241,0-3.64-1.093-3.64-3.055,0-1.638.979-2.933,3.819-3.236l1.48-.162c1.04-.121,1.62-0.506,1.62-1.436,0-1.093-.559-1.639-2.32-1.639s-2.5.506-2.6,2.063h-1.6c0.12-2.023,1.18-3.459,4.2-3.459,2.86,0,3.88,1.274,3.88,3.034v5.826a0.475,0.475,0,0,0,.559.506h0.581Zm-2.7-2.812V87.655a2.64,2.64,0,0,1-1.36.445l-1.5.182c-1.881.223-2.4,0.87-2.4,1.881,0,1.032.639,1.72,2.06,1.72A2.977,2.977,0,0,0,229.014,88.889Zm12.6-2.933v7.06h-1.6v-6.9a2.081,2.081,0,0,0-2.359-2.327c-1.341,0-2.84,1.012-2.84,3.318v5.907h-1.6V82.577h1.52v1.558a3.789,3.789,0,0,1,3.239-1.8A3.308,3.308,0,0,1,241.61,85.956Zm1.758,3.742h1.619c0.181,1.578.941,2.165,2.76,2.165,1.74,0,2.48-.587,2.48-1.619,0-.93-0.56-1.355-2.36-1.7l-0.959-.182c-2.24-.425-3.22-1.456-3.22-3.075,0-1.78,1.4-2.953,3.76-2.953,2.759,0,4.159,1.234,4.2,3.459h-1.6c-0.08-1.618-1.02-2.063-2.6-2.063-1.38,0-2.16.566-2.16,1.538,0,0.991.76,1.355,2.079,1.618l0.92,0.182c2.54,0.506,3.56,1.376,3.56,3.075,0,1.982-1.56,3.116-4.1,3.116C245.128,93.258,243.528,92.145,243.368,89.7Zm9.877,2.266a1.17,1.17,0,0,1,2.339,0A1.17,1.17,0,1,1,253.245,91.964Z"/>
</svg>
