<svg id="F1" xmlns="http://www.w3.org/2000/svg" width="600" height="100" viewBox="0 0 600 100">
  <defs>
    <style>
      .cls-1 {
        fill: #452c6a;
        fill-rule: evenodd;
      }
    </style>
  </defs>
  <path id="Lahat_ng_malapit_sa_puso_mo_nasa_bagong_Optik_TV_." data-name="Lahat ng malapit sa puso mo, nasa bagong Optik TV®." class="cls-1" d="M25.349,40.193V21.6H22.9v20.82H35.8V40.193H25.349Zm24.809,0.322a0.691,0.691,0,0,1-.817-0.731V31.362c0-2.544-1.489-4.386-5.662-4.386-4.407,0-5.954,2.076-6.129,5h2.335c0.146-2.252,1.226-2.983,3.794-2.983s3.386,0.79,3.386,2.369c0,1.345-.846,1.9-2.364,2.076l-2.16.234c-4.144.439-5.574,2.31-5.574,4.679,0,2.836,2.043,4.415,5.312,4.415a5.517,5.517,0,0,0,4.9-2.427c0.117,1.433.876,2.164,2.539,2.164A8.863,8.863,0,0,0,51,42.415v-1.9H50.158Zm-7.764.263c-2.072,0-3.006-.994-3.006-2.486,0-1.462.759-2.4,3.5-2.719l2.189-.263a3.88,3.88,0,0,0,1.985-.643V36.45C47.064,39.433,44.641,40.778,42.394,40.778Zm17.454-13.8A5.545,5.545,0,0,0,55.237,29.4V21.6H52.9v20.82h2.335V33.877c0-3.334,2.189-4.8,4.144-4.8,2.16,0,3.444,1.024,3.444,3.363v9.971H65.16V32.21C65.16,28.877,63.2,26.976,59.848,26.976ZM80.979,40.515a0.691,0.691,0,0,1-.817-0.731V31.362c0-2.544-1.489-4.386-5.662-4.386-4.407,0-5.954,2.076-6.129,5h2.335c0.146-2.252,1.226-2.983,3.794-2.983s3.386,0.79,3.386,2.369c0,1.345-.846,1.9-2.364,2.076l-2.16.234c-4.144.439-5.575,2.31-5.575,4.679,0,2.836,2.043,4.415,5.312,4.415A5.517,5.517,0,0,0,78,40.339c0.117,1.433.876,2.164,2.539,2.164a8.862,8.862,0,0,0,1.284-.088v-1.9H80.979Zm-7.763.263c-2.072,0-3.006-.994-3.006-2.486,0-1.462.759-2.4,3.5-2.719L75.9,35.31a3.88,3.88,0,0,0,1.985-.643V36.45C77.886,39.433,75.463,40.778,73.216,40.778Zm16.666-11.4V27.327H86.788V23.058H84.453v4.269H81.972v2.047h2.481v10c0,2.31,1.43,3.129,3.765,3.129q0.7,0,1.664-.088V40.456H88.51c-1.343,0-1.722-.5-1.722-1.287v-9.8h3.094Zm14.972-2.4a5.546,5.546,0,0,0-4.728,2.6V27.327H97.908V42.415h2.335V33.877c0-3.334,2.189-4.8,4.144-4.8,2.16,0,3.444,1.024,3.444,3.363v9.971h2.335V32.21C110.166,28.877,108.211,26.976,104.854,26.976Zm20.256,0.351V29.52a6.074,6.074,0,0,0-5.166-2.544c-4.232,0-7.005,3.07-7.005,7.9s2.773,7.9,7.005,7.9a6.08,6.08,0,0,0,5.049-2.4v1.462c0,3.129-1.664,4.679-4.67,4.679-2.364,0-3.794-.965-4.086-2.866H113.9c0.321,2.924,2.569,4.854,6.421,4.854,4.758,0,7.005-2.749,7.005-6.667v-14.5H125.11Zm-4.874,13.334c-2.919,0-4.845-2.251-4.845-5.79s1.926-5.79,4.845-5.79,4.845,2.135,4.845,5.79S123.154,40.661,120.236,40.661Zm31.988-13.685a5.2,5.2,0,0,0-4.64,2.836,4.716,4.716,0,0,0-4.641-2.836,4.837,4.837,0,0,0-4.349,2.573V27.327h-2.218V42.415h2.335V34.169c0-3.626,2.014-5.088,3.853-5.088,1.955,0,3.152.994,3.152,3.334v10h2.335V34.169c0-3.626,1.955-5.088,3.852-5.088,1.985,0,3.152.994,3.152,3.334v10h2.335V32.181C157.39,29.257,155.727,26.976,152.224,26.976ZM173.21,40.515a0.69,0.69,0,0,1-.817-0.731V31.362c0-2.544-1.489-4.386-5.663-4.386-4.407,0-5.954,2.076-6.129,5h2.335c0.146-2.252,1.226-2.983,3.794-2.983s3.386,0.79,3.386,2.369c0,1.345-.846,1.9-2.364,2.076l-2.16.234c-4.144.439-5.574,2.31-5.574,4.679,0,2.836,2.043,4.415,5.312,4.415a5.517,5.517,0,0,0,4.9-2.427c0.117,1.433.875,2.164,2.539,2.164a8.853,8.853,0,0,0,1.284-.088v-1.9H173.21Zm-7.764.263c-2.072,0-3.006-.994-3.006-2.486,0-1.462.759-2.4,3.5-2.719l2.189-.263a3.88,3.88,0,0,0,1.985-.643V36.45C170.116,39.433,167.694,40.778,165.446,40.778ZM179.34,42.5a14.8,14.8,0,0,0,1.488-.088V40.456h-1.109a1.17,1.17,0,0,1-1.43-1.287V21.6h-2.335V39.374C175.954,41.684,177.238,42.5,179.34,42.5Zm15.848-1.988a0.691,0.691,0,0,1-.817-0.731V31.362c0-2.544-1.489-4.386-5.662-4.386-4.407,0-5.954,2.076-6.129,5h2.334c0.146-2.252,1.226-2.983,3.8-2.983s3.385,0.79,3.385,2.369c0,1.345-.846,1.9-2.364,2.076l-2.16.234c-4.144.439-5.574,2.31-5.574,4.679,0,2.836,2.043,4.415,5.312,4.415a5.516,5.516,0,0,0,4.9-2.427c0.117,1.433.876,2.164,2.539,2.164a8.853,8.853,0,0,0,1.284-.088v-1.9h-0.846Zm-7.764.263c-2.072,0-3.006-.994-3.006-2.486,0-1.462.759-2.4,3.5-2.719l2.189-.263a3.88,3.88,0,0,0,1.984-.643V36.45C192.094,39.433,189.672,40.778,187.424,40.778Zm18.038-13.8a5.917,5.917,0,0,0-5.166,2.69V27.327h-2.218v20.82h2.335v-7.9a5.912,5.912,0,0,0,5.049,2.515c4.232,0,7.005-3.07,7.005-7.9S209.694,26.976,205.462,26.976ZM205.17,40.661c-2.918,0-4.845-2.135-4.845-5.79s1.927-5.79,4.845-5.79,4.845,2.018,4.845,5.673S208.089,40.661,205.17,40.661Zm11.237-15.469a1.579,1.579,0,1,0-1.576-1.579A1.59,1.59,0,0,0,216.407,25.192ZM215.24,42.415h2.335V27.327H215.24V42.415Zm12.433-13.042V27.327H224.58V23.058h-2.335v4.269h-2.481v2.047h2.481v10c0,2.31,1.43,3.129,3.765,3.129q0.7,0,1.663-.088V40.456H226.3c-1.343,0-1.722-.5-1.722-1.287v-9.8h3.093Zm13.338,13.392c3.707,0,5.984-1.637,5.984-4.5,0-2.456-1.489-3.714-5.2-4.445l-1.342-.263c-1.926-.38-3.036-0.906-3.036-2.339,0-1.4,1.139-2.222,3.153-2.222,2.3,0,3.677.643,3.794,2.983H246.7c-0.059-3.216-2.1-5-6.129-5-3.444,0-5.487,1.7-5.487,4.269,0,2.339,1.43,3.831,4.7,4.445l1.4,0.263c2.627,0.5,3.444,1.111,3.444,2.456,0,1.491-1.079,2.339-3.619,2.339-2.656,0-3.765-.848-4.027-3.129H234.62C234.853,41.158,237.188,42.766,241.011,42.766Zm21.073-2.252a0.691,0.691,0,0,1-.817-0.731V31.362c0-2.544-1.489-4.386-5.662-4.386-4.407,0-5.954,2.076-6.129,5h2.335c0.146-2.252,1.225-2.983,3.794-2.983s3.385,0.79,3.385,2.369c0,1.345-.846,1.9-2.364,2.076l-2.159.234c-4.145.439-5.575,2.31-5.575,4.679,0,2.836,2.043,4.415,5.312,4.415a5.516,5.516,0,0,0,4.9-2.427c0.117,1.433.876,2.164,2.539,2.164a8.877,8.877,0,0,0,1.285-.088v-1.9h-0.847Zm-7.763.263c-2.073,0-3.007-.994-3.007-2.486,0-1.462.759-2.4,3.5-2.719l2.189-.263a3.88,3.88,0,0,0,1.984-.643V36.45C258.99,39.433,256.568,40.778,254.321,40.778Zm23.582-13.8a5.918,5.918,0,0,0-5.166,2.69V27.327h-2.218v20.82h2.335v-7.9a5.912,5.912,0,0,0,5.049,2.515c4.232,0,7-3.07,7-7.9S282.135,26.976,277.9,26.976Zm-0.292,13.685c-2.918,0-4.844-2.135-4.844-5.79s1.926-5.79,4.844-5.79,4.845,2.018,4.845,5.673S280.53,40.661,277.611,40.661Zm19.556-13.334v8.538c0,3.334-2.189,4.8-4.145,4.8-2.159,0-3.444-1.023-3.444-3.363V27.327h-2.335V37.532c0,3.334,1.956,5.234,5.312,5.234a5.547,5.547,0,0,0,4.729-2.6v2.252H299.5V27.327h-2.335Zm11.149,15.439c3.707,0,5.984-1.637,5.984-4.5,0-2.456-1.489-3.714-5.2-4.445l-1.342-.263c-1.927-.38-3.036-0.906-3.036-2.339,0-1.4,1.139-2.222,3.153-2.222,2.305,0,3.677.643,3.794,2.983h2.335c-0.059-3.216-2.1-5-6.129-5-3.444,0-5.488,1.7-5.488,4.269,0,2.339,1.431,3.831,4.7,4.445l1.4,0.263c2.627,0.5,3.444,1.111,3.444,2.456,0,1.491-1.079,2.339-3.619,2.339-2.656,0-3.765-.848-4.027-3.129h-2.364C302.158,41.158,304.493,42.766,308.316,42.766Zm14.886,0c4.232,0,7.3-3.07,7.3-7.9s-3.064-7.9-7.3-7.9-7.3,3.07-7.3,7.9S318.97,42.766,323.2,42.766Zm0-2.105c-2.919,0-4.845-2.135-4.845-5.79s1.926-5.79,4.845-5.79,4.845,2.135,4.845,5.79S326.12,40.661,323.2,40.661Zm31.463-13.685a5.2,5.2,0,0,0-4.641,2.836,4.715,4.715,0,0,0-4.641-2.836,4.835,4.835,0,0,0-4.348,2.573V27.327h-2.219V42.415h2.335V34.169c0-3.626,2.014-5.088,3.853-5.088,1.955,0,3.152.994,3.152,3.334v10h2.335V34.169c0-3.626,1.955-5.088,3.853-5.088,1.984,0,3.152.994,3.152,3.334v10h2.335V32.181C359.831,29.257,358.167,26.976,354.665,26.976ZM369.9,42.766c4.232,0,7.3-3.07,7.3-7.9s-3.064-7.9-7.3-7.9-7.3,3.07-7.3,7.9S365.669,42.766,369.9,42.766Zm0-2.105c-2.919,0-4.845-2.135-4.845-5.79s1.926-5.79,4.845-5.79,4.844,2.135,4.844,5.79S372.819,40.661,369.9,40.661Zm9.953-1.17a1.568,1.568,0,0,0-1.635,1.579,1.522,1.522,0,0,0,1.635,1.52h0.175c-0.117,1.462-.7,2.018-1.606,2.281l-0.2.058v1.55l0.292-.058c1.9-.38,3.269-1.667,3.269-4.445C381.78,40.368,381.05,39.491,379.854,39.491ZM29.7,60.918a5.546,5.546,0,0,0-4.728,2.6V61.269H22.751V76.358h2.335V67.819c0-3.334,2.189-4.8,4.144-4.8,2.16,0,3.444,1.023,3.444,3.363v9.971h2.335V66.152C35.009,62.819,33.054,60.918,29.7,60.918ZM50.829,74.457a0.691,0.691,0,0,1-.817-0.731V65.3c0-2.544-1.488-4.386-5.662-4.386-4.407,0-5.954,2.076-6.129,5h2.335c0.146-2.252,1.226-2.983,3.794-2.983s3.386,0.79,3.386,2.369c0,1.345-.846,1.9-2.364,2.076l-2.16.234c-4.145.439-5.575,2.31-5.575,4.679,0,2.836,2.043,4.415,5.312,4.415a5.517,5.517,0,0,0,4.9-2.427c0.117,1.433.876,2.164,2.539,2.164a8.862,8.862,0,0,0,1.284-.088v-1.9H50.829Zm-7.764.263c-2.072,0-3.006-.994-3.006-2.486,0-1.462.759-2.4,3.5-2.719l2.189-.263a3.88,3.88,0,0,0,1.985-.643v1.784C47.735,73.375,45.313,74.72,43.065,74.72Zm15.965,1.988c3.707,0,5.983-1.638,5.983-4.5,0-2.456-1.489-3.714-5.2-4.445L58.476,67.5c-1.926-.38-3.035-0.906-3.035-2.339,0-1.4,1.138-2.222,3.152-2.222,2.306,0,3.678.643,3.794,2.983h2.335c-0.058-3.216-2.1-5-6.129-5-3.444,0-5.487,1.7-5.487,4.269,0,2.339,1.43,3.831,4.7,4.445l1.4,0.263c2.627,0.5,3.444,1.111,3.444,2.456,0,1.491-1.08,2.339-3.619,2.339-2.656,0-3.765-.848-4.028-3.129H52.639C52.872,75.1,55.207,76.709,59.031,76.709ZM80.1,74.457a0.691,0.691,0,0,1-.817-0.731V65.3c0-2.544-1.489-4.386-5.662-4.386-4.407,0-5.954,2.076-6.129,5H69.83c0.146-2.252,1.226-2.983,3.794-2.983s3.386,0.79,3.386,2.369c0,1.345-.846,1.9-2.364,2.076l-2.16.234c-4.144.439-5.575,2.31-5.575,4.679,0,2.836,2.043,4.415,5.312,4.415a5.517,5.517,0,0,0,4.9-2.427c0.117,1.433.876,2.164,2.539,2.164a8.862,8.862,0,0,0,1.284-.088v-1.9H80.1Zm-7.764.263c-2.072,0-3.006-.994-3.006-2.486,0-1.462.759-2.4,3.5-2.719l2.189-.263a3.88,3.88,0,0,0,1.985-.643v1.784C77.01,73.375,74.587,74.72,72.34,74.72Zm24.283-13.8a5.383,5.383,0,0,0-4.67,2.31v-7.69H88.276v20.82h3.531V74.194a5.427,5.427,0,0,0,4.816,2.515c4.144,0,6.742-3.1,6.742-7.9S100.767,60.918,96.623,60.918ZM95.747,73.667c-2.393,0-3.882-1.667-3.882-4.854s1.489-4.854,3.882-4.854,3.882,1.55,3.882,4.737S98.141,73.667,95.747,73.667Zm23.291,2.69a5.728,5.728,0,0,1-.612-2.866V65.451c0-2.719-1.781-4.532-6.275-4.532-4.7,0-6.567,1.959-6.772,5.146H109c0.146-1.842,1.022-2.4,3.123-2.4,2.131,0,2.744.7,2.744,1.871,0,1.111-.73,1.55-2.131,1.725l-2.276.2c-4.261.409-5.779,2.193-5.779,4.708,0,2.924,2.218,4.532,5.428,4.532a5.59,5.59,0,0,0,4.845-2.193,4.941,4.941,0,0,0,.409,1.842h3.677Zm-8.055-2.281c-1.693,0-2.539-.79-2.539-2.047,0-1.2.671-1.93,2.714-2.164l1.985-.234a2.926,2.926,0,0,0,1.722-.614v1.374C114.865,73.024,112.939,74.077,110.983,74.077Zm20.81-12.808v2.076a5.351,5.351,0,0,0-4.757-2.427c-4.115,0-6.771,3.07-6.771,7.69,0,4.591,2.714,7.69,6.8,7.69a5.336,5.336,0,0,0,4.611-2.252v1.9c0,2.369-1.284,3.655-3.706,3.655-2.014,0-3.182-.819-3.357-2.427h-3.619c0.234,3.129,2.569,5.263,6.917,5.263,4.9,0,7.443-2.6,7.443-6.579V61.269h-3.561Zm-3.911,11.989c-2.364,0-3.852-1.7-3.852-4.62s1.488-4.679,3.852-4.679c2.393,0,3.882,1.638,3.882,4.649C131.764,71.591,130.275,73.258,127.882,73.258Zm17.454,3.451c4.582,0,7.647-3.1,7.647-7.9s-3.065-7.9-7.647-7.9-7.676,3.1-7.676,7.9S140.754,76.709,145.336,76.709Zm0-3.041c-2.393,0-3.911-1.667-3.911-4.854s1.518-4.854,3.911-4.854c2.364,0,3.911,1.667,3.911,4.854S147.7,73.667,145.336,73.667Zm18.213-12.749a5.547,5.547,0,0,0-4.7,2.515V61.269h-3.561V76.358h3.677V67.907c0-2.69,1.752-3.8,3.357-3.8,1.868,0,2.831.936,2.831,2.866v9.386h3.677v-10C168.831,62.761,166.7,60.918,163.549,60.918Zm19.117,0.351v2.076a5.351,5.351,0,0,0-4.757-2.427c-4.116,0-6.772,3.07-6.772,7.69,0,4.591,2.715,7.69,6.8,7.69a5.336,5.336,0,0,0,4.611-2.252v1.9c0,2.369-1.284,3.655-3.706,3.655-2.014,0-3.182-.819-3.357-2.427h-3.619c0.234,3.129,2.568,5.263,6.917,5.263,4.9,0,7.443-2.6,7.443-6.579V61.269h-3.561Zm-3.911,11.989c-2.364,0-3.853-1.7-3.853-4.62s1.489-4.679,3.853-4.679c2.393,0,3.882,1.638,3.882,4.649C182.637,71.591,181.148,73.258,178.755,73.258Zm26.472,3.568c6.217,0,10.361-4.328,10.361-10.878S211.444,55.07,205.227,55.07c-6.246,0-10.39,4.328-10.39,10.878S198.981,76.826,205.227,76.826Zm0-3.48c-3.794,0-6.275-2.807-6.275-7.4s2.481-7.4,6.275-7.4,6.275,2.807,6.275,7.4S209.021,73.346,205.227,73.346Zm21.044-12.427a5.428,5.428,0,0,0-4.816,2.515V61.269h-3.531v20.82H221.6V74.4a5.384,5.384,0,0,0,4.67,2.31c4.144,0,6.742-3.1,6.742-7.9S230.415,60.918,226.271,60.918ZM225.4,73.667c-2.393,0-3.881-1.667-3.881-4.854S223,63.959,225.4,63.959s3.882,1.55,3.882,4.737S227.789,73.667,225.4,73.667Zm17.017-9.591V61.269h-2.977V56.883h-3.648v4.386h-2.335v2.807h2.335v8.538c0,2.778,1.517,3.86,4.7,3.86,0.583,0,1.255-.058,1.926-0.117V73.55h-1.255c-1.226,0-1.722-.322-1.722-1.316V64.076h2.977Zm4-4.62a2.032,2.032,0,1,0-2.043-2.018A2.02,2.02,0,0,0,246.41,59.456Zm-1.838,16.9h3.677V61.269h-3.677V76.358Zm16.928,0h4.2l-6.042-9.386,5.691-5.7h-4.378l-6.129,6.258V55.538h-3.619v20.82h3.619V71.621l2.277-2.281Zm28.34-20.82H272.561v3.538h6.655V76.358h3.969V59.076h6.655V55.538Zm16.2,0L302.361,66.3c-0.671,2.047-1.371,4.269-1.955,6.492-0.613-2.222-1.314-4.445-1.985-6.492l-3.765-10.761h-4.2l7.618,20.82h4.611l7.443-20.82h-4.086Zm8.01-2.148a3.3,3.3,0,1,0,3.389,3.3A3.312,3.312,0,0,0,314.049,53.39Zm0,5.873a2.584,2.584,0,1,1,2.632-2.57A2.552,2.552,0,0,1,314.049,59.263Zm1.369-1.838a0.719,0.719,0,0,0-.4-0.706,0.825,0.825,0,0,0,.479-0.786,1.03,1.03,0,0,0-1.223-.985h-1.542v3.409H313.5V57.093h0.717c0.306,0,.4.107,0.426,0.439l0.026,0.36a0.929,0.929,0,0,0,.12.466H315.6a0.776,0.776,0,0,1-.146-0.466Zm-1.914-.972V55.614h0.7a0.423,0.423,0,1,1,.027.839H313.5Zm4.166,20.109a1.678,1.678,0,0,0,1.664-1.725,1.709,1.709,0,0,0-3.415,0A1.681,1.681,0,0,0,317.67,76.562Z"/>
</svg>
