<svg id="F2" xmlns="http://www.w3.org/2000/svg" width="600" height="100" viewBox="0 0 600 100">
  <defs>
    <style>
      .cls-1 {
        fill: #452c6a;
        fill-rule: evenodd;
      }
    </style>
  </defs>
  <path id="Get_GMA_Pinoy_TV_Live_TV_from_just_38_mo._" data-name="Get GMA Pinoy TV + Live TV from just $38/mo.* " class="cls-1" d="M32.353,31.713v2.222h6.625c0,3.977-3.24,6.7-7.092,6.7-4.407,0-7.3-3.334-7.3-8.626s2.86-8.626,7.3-8.626c3.269,0,5.983,1.9,6.538,5.029h2.539c-0.7-4.328-4.057-7.281-9.077-7.281-6.012,0-9.865,4.415-9.865,10.878S25.9,42.883,31.857,42.883a7.969,7.969,0,0,0,6.8-3.275l0.525,2.807H41.2v-10.7H32.353Zm25.334,3.158c0-4.328-2.422-7.9-6.917-7.9-4.174,0-6.946,3.158-6.946,7.9,0,4.883,2.89,7.9,7,7.9a6.285,6.285,0,0,0,6.479-4.942H54.886a3.869,3.869,0,0,1-4,2.807c-2.627,0-4.407-1.55-4.641-4.942H57.688V34.871Zm-6.917-5.76c2.685,0,4.174,1.988,4.407,4.474H46.305C46.685,30.6,48.407,29.111,50.771,29.111Zm15.411,0.263V27.327H63.088V23.058H60.753v4.269H58.272v2.047h2.481v10c0,2.31,1.43,3.129,3.765,3.129q0.7,0,1.664-.088V40.456H64.81c-1.343,0-1.722-.5-1.722-1.287v-9.8h3.094ZM84.1,31.187v3.187H89.53a5.521,5.521,0,0,1-5.808,5.059c-3.911,0-6.333-2.836-6.333-7.427s2.364-7.427,6.188-7.427c2.86,0,4.932,1.521,5.516,3.948h4.057c-0.7-4.5-4.349-7.4-9.6-7.4-6.334,0-10.274,4.328-10.274,10.878s3.94,10.878,9.923,10.878a7.945,7.945,0,0,0,6.771-3.217l0.554,2.749h2.86V31.187H84.1ZM112.88,21.6l-3.473,9.913c-0.642,1.872-1.314,4.035-1.839,5.848-0.525-1.725-1.167-3.772-1.78-5.644L102.2,21.6H96.477v20.82h3.795V36.07c0-3.129-.03-6.521-0.117-10.264,0.467,1.55.934,2.953,1.547,4.737l4.232,11.872h3.239l4.2-11.872c0.642-1.813,1.109-3.216,1.576-4.8-0.087,3.772-.116,7.164-0.116,10.322v6.345H118.6V21.6H112.88Zm23.642,20.82H140.7L132.64,21.6h-4.611l-7.909,20.82h4.056l1.606-4.591h9.106Zm-9.544-7.954,0.788-2.252c0.7-1.9,1.693-4.679,2.54-7.135,0.846,2.456,1.838,5.234,2.568,7.135l0.817,2.252h-6.713ZM158.033,21.6H148.9v20.82h3.941V35.134h5.195c4.786,0,7.355-2.749,7.355-6.755C165.388,24.344,162.819,21.6,158.033,21.6Zm-0.175,10.147h-5.02V24.988h5.02c2.305,0,3.56,1.228,3.56,3.392S160.163,31.742,157.858,31.742ZM169.3,25.514a2.032,2.032,0,1,0-2.043-2.018A2.02,2.02,0,0,0,169.3,25.514Zm-1.839,16.9h3.678V27.327H167.46V42.415Zm14.915-15.439a5.547,5.547,0,0,0-4.7,2.515V27.327h-3.561V42.415h3.677V33.965c0-2.69,1.751-3.8,3.357-3.8,1.868,0,2.831.936,2.831,2.866v9.386h3.677v-10C187.657,28.818,185.527,26.976,182.375,26.976Zm15.264,15.79c4.583,0,7.647-3.1,7.647-7.9s-3.064-7.9-7.647-7.9-7.676,3.1-7.676,7.9S193.057,42.766,197.639,42.766Zm0-3.041c-2.393,0-3.911-1.667-3.911-4.854s1.518-4.854,3.911-4.854c2.364,0,3.911,1.667,3.911,4.854S200,39.725,197.639,39.725Zm19.031-12.4-1.226,3.8c-0.817,2.661-1.635,5.41-2.423,8.392-0.759-2.953-1.576-5.79-2.393-8.421L209.4,27.327h-3.969l4.378,12.4a10.144,10.144,0,0,1,.7,3.041,2.251,2.251,0,0,1-2.481,2.427h-1.4v2.895a11.963,11.963,0,0,0,1.605.088c3.648,0,5.282-1.17,6.479-4.532l5.808-16.317H216.67ZM244.63,21.6H227.352v3.538h6.654V42.415h3.97V25.134h6.654V21.6Zm16.2,0-3.677,10.761c-0.672,2.047-1.372,4.269-1.956,6.492-0.613-2.222-1.313-4.445-1.984-6.492L249.446,21.6h-4.2l7.617,20.82h4.612l7.442-20.82h-4.086Zm25.013,8.831h-5.02V25.368h-3.415v5.059h-5.049v3.158h5.049v5.029h3.415V33.585h5.02V30.426Zm12.9,8.451V21.6H294.8v20.82h13.834V38.877h-9.894Zm13.688-13.363a2.032,2.032,0,1,0-2.043-2.018A2.02,2.02,0,0,0,312.431,25.514Zm-1.838,16.9h3.677V27.327h-3.677V42.415Zm16.695-15.088-1.46,4.035c-0.788,2.515-1.6,5.176-2.364,7.72-0.759-2.515-1.576-5.2-2.364-7.69l-1.459-4.065H315.7l5.574,15.088h4.232l5.6-15.088h-3.823Zm18.855,7.807c0-4.8-2.831-8.158-7.443-8.158-4.465,0-7.442,3.158-7.442,7.9,0,4.825,3.064,7.9,7.5,7.9,3.619,0,6.245-1.959,7-5.029h-3.531a3.432,3.432,0,0,1-3.444,2.164c-2.131,0-3.648-1.2-3.911-3.889h11.266V35.134Zm-7.472-5.293c2.189,0,3.5,1.462,3.794,3.6h-7.559C335.256,30.953,336.716,29.842,338.671,29.842Zm32.4-8.246H353.79v3.538h6.654V42.415h3.97V25.134h6.654V21.6Zm16.2,0L383.59,32.356c-0.672,2.047-1.372,4.269-1.956,6.492-0.613-2.222-1.313-4.445-1.985-6.492L375.884,21.6h-4.2l7.617,20.82h4.612l7.442-20.82h-4.086Zm-359,35.931H29.61V55.538c-0.35-.029-1.051-0.059-1.488-0.059-2.977,0-4.2,1.579-4.2,4.24v1.55H21.438v2.047h2.481V76.358h2.335V63.316h3.21V61.269h-3.21V59.661A1.855,1.855,0,0,1,28.267,57.526Zm10.595,3.509a5.258,5.258,0,0,0-4.845,2.895V61.269H31.8V76.358h2.335v-8.6c0-2.924,1.926-4.445,4.932-4.445H39.65V61.065C39.329,61.035,39.1,61.035,38.862,61.035Zm8.669,15.673c4.232,0,7.3-3.07,7.3-7.9s-3.065-7.9-7.3-7.9-7.3,3.07-7.3,7.9S43.3,76.709,47.531,76.709Zm0-2.105c-2.919,0-4.845-2.135-4.845-5.79s1.926-5.79,4.845-5.79,4.845,2.135,4.845,5.79S50.449,74.6,47.531,74.6ZM73.449,60.918a5.2,5.2,0,0,0-4.641,2.836,4.715,4.715,0,0,0-4.641-2.836,4.837,4.837,0,0,0-4.349,2.573V61.269H57.6V76.358h2.335V68.112c0-3.626,2.014-5.088,3.853-5.088,1.956,0,3.152.994,3.152,3.334v10h2.335V68.112c0-3.626,1.955-5.088,3.853-5.088,1.985,0,3.152.994,3.152,3.334v10h2.335V66.123C78.615,63.2,76.951,60.918,73.449,60.918ZM88.83,59.135a1.579,1.579,0,1,0-1.576-1.579A1.59,1.59,0,0,0,88.83,59.135ZM86.525,82.177c2.043,0,3.473-.819,3.473-3.129V61.269H87.663V78.843a1.193,1.193,0,0,1-1.43,1.287H85.27v2.018C85.737,82.177,86.058,82.177,86.525,82.177Zm16.9-20.907v8.538c0,3.334-2.189,4.8-4.144,4.8-2.16,0-3.444-1.023-3.444-3.363V61.269H93.5V71.474c0,3.334,1.956,5.234,5.312,5.234a5.546,5.546,0,0,0,4.728-2.6v2.252h2.218V61.269h-2.335Zm11.15,15.439c3.707,0,5.983-1.638,5.983-4.5,0-2.456-1.488-3.714-5.195-4.445l-1.343-.263c-1.926-.38-3.035-0.906-3.035-2.339,0-1.4,1.138-2.222,3.152-2.222,2.306,0,3.678.643,3.794,2.983h2.335c-0.058-3.216-2.1-5-6.129-5-3.444,0-5.487,1.7-5.487,4.269,0,2.339,1.43,3.831,4.7,4.445l1.4,0.263c2.627,0.5,3.444,1.111,3.444,2.456,0,1.491-1.08,2.339-3.619,2.339-2.656,0-3.765-.848-4.028-3.129h-2.364C108.415,75.1,110.75,76.709,114.573,76.709ZM129.2,63.316V61.269H126.1V57h-2.335v4.269h-2.481v2.047h2.481v10c0,2.31,1.43,3.129,3.765,3.129q0.7,0,1.664-.088V74.4h-1.372c-1.343,0-1.722-.5-1.722-1.287v-9.8H129.2Zm23.582,7.4c0-3.012-1.693-4.883-6.479-5.936l-0.613-.146V57.38c2.918,0.38,3.882,1.9,4.057,4.211h2.51c-0.088-3.1-1.664-5.965-6.567-6.433V52.146h-2.043V55.07c-4.028.175-6.6,2.222-6.6,5.439,0,3.8,2.772,5.234,6.3,6.024l0.292,0.058v7.924c-2.715-.292-4.7-1.7-4.758-5.029h-2.539c0.059,4.737,3.036,6.93,7.3,7.281V79.75h2.043V76.8C150.239,76.592,152.778,74.223,152.778,70.714ZM139.586,60.509c0-1.842,1.372-3.07,4.057-3.216v6.872C140.4,63.345,139.586,62.351,139.586,60.509Zm6.1,14.065V67.059c3.3,0.79,4.553,1.755,4.553,3.655C150.239,73.112,148.575,74.4,145.686,74.574Zm20.08-9.3a5.028,5.028,0,0,0,2.832-4.562c0-3.655-2.8-5.644-6.655-5.644-4.2,0-6.771,2.486-6.8,6.2h2.451c0.117-2.807,1.956-3.977,4.349-3.977,2.539,0,4.174,1.257,4.174,3.48S164.6,64.31,161.8,64.31h-1.4v2.047h1.547c2.919,0,4.728,1.638,4.728,4.152s-1.809,4.094-4.582,4.094c-3.035,0-4.757-1.579-4.845-4.532h-2.422c-0.03,4.035,2.51,6.755,7.267,6.755,4.232,0,7.151-2.515,7.151-6.316A5.782,5.782,0,0,0,165.766,65.275Zm16.725-.088a4.64,4.64,0,0,0,3.006-4.415c0-3.714-3.006-5.7-6.684-5.7s-6.684,1.988-6.684,5.7a4.639,4.639,0,0,0,3.007,4.415,5.491,5.491,0,0,0-3.853,5.263c0,3.947,3.065,6.375,7.53,6.375s7.53-2.427,7.53-6.375A5.492,5.492,0,0,0,182.491,65.188Zm-3.678-7.9c2.393,0,4.261,1.2,4.261,3.48s-1.868,3.48-4.261,3.48-4.261-1.2-4.261-3.48S176.42,57.292,178.813,57.292Zm0,17.311c-3.006,0-4.962-1.491-4.962-4.152s1.956-4.152,4.962-4.152,4.962,1.491,4.962,4.152S181.819,74.6,178.813,74.6Zm8.7,1.755h2.277l7.442-20.82h-2.276Zm26-15.439a5.2,5.2,0,0,0-4.64,2.836,4.716,4.716,0,0,0-4.641-2.836,4.837,4.837,0,0,0-4.349,2.573V61.269h-2.218V76.358H200V68.112c0-3.626,2.014-5.088,3.853-5.088,1.955,0,3.152.994,3.152,3.334v10h2.335V68.112c0-3.626,1.955-5.088,3.852-5.088,1.985,0,3.152.994,3.152,3.334v10h2.335V66.123C218.682,63.2,217.019,60.918,213.516,60.918Zm15.236,15.79c4.232,0,7.3-3.07,7.3-7.9s-3.065-7.9-7.3-7.9-7.3,3.07-7.3,7.9S224.52,76.709,228.752,76.709Zm0-2.105c-2.918,0-4.845-2.135-4.845-5.79s1.927-5.79,4.845-5.79,4.845,2.135,4.845,5.79S231.671,74.6,228.752,74.6Zm10.216,1.959a1.678,1.678,0,0,0,1.664-1.725,1.709,1.709,0,0,0-3.415,0A1.68,1.68,0,0,0,238.968,76.562Zm0.176-11.635,1.216-1.68,1.217,1.68,0.64-.513-1.229-1.706,1.946-.629-0.269-.77-1.895.616V59.9h-0.819v2.027l-1.895-.616-0.269.77,1.946,0.629L238.5,64.414Z"/>
</svg>
