<svg id="Frame_1" data-name="Frame 1" xmlns="http://www.w3.org/2000/svg" width="728" height="90" viewBox="0 0 728 90">
  <defs>
    <style>
      .cls-1 {
        fill: #4b286d;
        fill-rule: evenodd;
      }
    </style>
  </defs>
  <path id="家里忘记关灯_" data-name="家里忘记关灯?" class="cls-1" d="M346.372,40.963V36.388h-8.45a8.7,8.7,0,0,0-1.5-1.925,8.912,8.912,0,0,0-1.675-1.325l-1.575,1.175a18.937,18.937,0,0,1,1.987,1.575,3.474,3.474,0,0,1,.388.5h-9.025v4.675h1.9v-2.85h16.05v2.75h1.9Zm1.2,11.525a6.957,6.957,0,0,1-2.163-1.35,11.7,11.7,0,0,1-1.912-2.225,9.825,9.825,0,0,1-1.275-2.6,18.291,18.291,0,0,0,2.775-2.5l-1.45-1.275a10.845,10.845,0,0,1-4.625,3.6,6.6,6.6,0,0,0-1.013-1.587,5.905,5.905,0,0,0-1.337-1.212c0.05-.033.245-0.146,0.587-0.337s0.663-.388.963-0.588a8.175,8.175,0,0,0,.85-0.65h4.6V39.938h-14.1v1.825l6.275,0.025a25.82,25.82,0,0,1-9.1,2.825l1.3,1.65a21.814,21.814,0,0,0,6.775-1.975,7.565,7.565,0,0,1,1.25.85,16.5,16.5,0,0,1-2.325,1.375,17.64,17.64,0,0,1-3.313,1.212,35.9,35.9,0,0,1-4.162.838l1.325,1.625a18.848,18.848,0,0,0,5.062-1.225,23.23,23.23,0,0,0,4.438-2.4,10.331,10.331,0,0,1,.675,1.45,16.527,16.527,0,0,1-5.25,3.038,34.5,34.5,0,0,1-6.75,1.638l1.375,1.725a40.3,40.3,0,0,0,4.162-1.012,25.883,25.883,0,0,0,3.8-1.462,13.829,13.829,0,0,0,3.063-1.975,20.919,20.919,0,0,1-.1,3.35,1.1,1.1,0,0,1-.275.475,1.373,1.373,0,0,1-.45.35,8.371,8.371,0,0,1-1.825-.163,20.892,20.892,0,0,1-2.375-.637l0.775,2.225a9.724,9.724,0,0,0,4.375.175,2.159,2.159,0,0,0,1.112-.862,4.834,4.834,0,0,0,.588-2.163,14.412,14.412,0,0,0-.013-2.462,18.665,18.665,0,0,0-.362-2.463l1.2-.5a14.887,14.887,0,0,0,1.025,2.238,12.228,12.228,0,0,0,1.912,2.563,7.775,7.775,0,0,0,2.663,1.875Zm24.735,2.1v-1.9h-10.4V49.963h8.65V48.138h-8.65v-2.45h7.225V34.363H352.657V45.688h7.35v2.45h-8.4v1.825h8.4v2.725H349.932v1.9h22.375Zm-5.075-15.575h-5.325V36.188h5.325v2.825Zm0,4.85h-5.325V40.838h5.325v3.025Zm-7.225-4.85h-5.375V36.188h5.375v2.825Zm0,4.85h-5.375V40.838h5.375v3.025Zm36.02-5.4V36.638h-8.7a3.1,3.1,0,0,0,.725-0.475,10.23,10.23,0,0,0-3.875-3.075l-1.425,1.125a14.64,14.64,0,0,1,1.887,1.2,6.383,6.383,0,0,1,1.288,1.225H375.752v1.825h2.7v4.45a2.213,2.213,0,0,0,.612,1.638,2.179,2.179,0,0,0,1.613.612h13.55V43.338H381.152a0.708,0.708,0,0,1-.525-0.2,0.646,0.646,0,0,1-.2-0.475v-4.2h15.6Zm1.25,14.15a15.114,15.114,0,0,0-2.25-3.15,12.721,12.721,0,0,0-2.225-1.85l-1.425,1.075a9.7,9.7,0,0,1,2.337,2.112,19.808,19.808,0,0,1,1.913,2.913Zm-8.4-3.1a13.354,13.354,0,0,0-.813-1.325,9.1,9.1,0,0,0-1.3-1.488,6.985,6.985,0,0,0-1.637-1.163l-1.5,1.025a9.43,9.43,0,0,1,3.55,3.9Zm1.575,0.45a10.7,10.7,0,0,1-.575,2.012,1.2,1.2,0,0,1-.75.938h-5.3a0.6,0.6,0,0,1-.438-0.187,0.628,0.628,0,0,1-.187-0.462v-5.05h-1.9v5.35a2.747,2.747,0,0,0,.187.938,1.791,1.791,0,0,0,.738.875,2.5,2.5,0,0,0,1.4.362h5.5a2.6,2.6,0,0,0,1.3-.325c0.1-.084.27-0.246,0.512-0.487a2.882,2.882,0,0,0,.613-1,17.429,17.429,0,0,0,.6-2.163Zm-11.875-2.3a12.344,12.344,0,0,1-3.825,5.025l1.4,1.4a18.678,18.678,0,0,0,2.487-2.65,11.043,11.043,0,0,0,1.463-2.875Zm39,1.725a14.72,14.72,0,0,1-.375,2.875,1.154,1.154,0,0,1-.35.55,0.832,0.832,0,0,1-.55.3h-5.975a0.853,0.853,0,0,1-.612-0.225,0.786,0.786,0,0,1-.238-0.6V44.613H415.6v1.375h1.975V35.138H406.654v1.825h8.95v5.825h-8.1v9.775a2.132,2.132,0,0,0,.8,1.7,2.656,2.656,0,0,0,1.75.675h6.375a2.487,2.487,0,0,0,1.075-.263,2.44,2.44,0,0,0,.95-0.837,3.676,3.676,0,0,0,.55-1.125,12.623,12.623,0,0,0,.5-2.55Zm-13.25-12.3a10.626,10.626,0,0,0-3.35-3.675l-1.375,1.1a11.44,11.44,0,0,1,3.15,3.775Zm2.6,15.425V50.438l-3.175,1.825v-11.9h-5.425v1.825h3.525V52.313a1.573,1.573,0,0,1-.65,1.2l1.125,1.6Zm36.445,1.9a19.29,19.29,0,0,1-4.962-3.075,12.236,12.236,0,0,1-3.238-4.65h7.95V44.863h-10.1q0.05-.45.088-1.125t0.05-1.8q0.012-1.125.012-1.45h8.475V38.763h-6a32.357,32.357,0,0,0,2.4-4.5l-1.75-.775a36.263,36.263,0,0,1-1.525,3.375,19.626,19.626,0,0,1-1.175,1.9h-2.475a18.443,18.443,0,0,0-3.55-5.225l-1.55.775a20.574,20.574,0,0,1,3.05,4.45h-5.8v1.725h8q0,2.65-.025,3.313t-0.075,1.063h-9.35v1.825h8.9a9.184,9.184,0,0,1-1.375,2.375,12.477,12.477,0,0,1-2.437,2.375,17.706,17.706,0,0,1-2.875,1.787,19.5,19.5,0,0,1-2.688,1.088l1.3,1.5a12.208,12.208,0,0,0,3.075-1.213,16.354,16.354,0,0,0,5.438-4.875,11.573,11.573,0,0,0,1.562-3.037h0.35a18.389,18.389,0,0,0,2.4,4.462,12.918,12.918,0,0,0,2.9,2.75,19.234,19.234,0,0,0,3.575,1.913Zm24.85-17.325v-1.9H454.2v1.9h6.275V53.113q0,1.05-.725.975-1.575-.15-2.95-0.175l0.6,2.025h3.2a1.8,1.8,0,0,0,.875-0.25,1.99,1.99,0,0,0,.763-0.838,2.463,2.463,0,0,0,.312-1.162v-16.6h5.675Zm-20.975,1.625a8.407,8.407,0,0,1-.212,2.875,9.31,9.31,0,0,1-1.138,2.775l2,0.675a6.3,6.3,0,0,0,.85-1.987,12.379,12.379,0,0,0,.425-2.362,11.392,11.392,0,0,0,.025-1.65Zm8.575,12.875a10.366,10.366,0,0,0-4.1-3.9q0.125-1.325.125-4.75a10.715,10.715,0,0,0,3.25-2.95l-1.45-1.475q-0.875,1.25-1.187,1.625a3.27,3.27,0,0,1-.638.6V33.913h-1.975v8.625q0,2.65-.15,4.6a12.675,12.675,0,0,1-1.1,4.513,10.851,10.851,0,0,1-2.6,3.413l1.8,1.475a14.052,14.052,0,0,0,2.438-3.225,11.223,11.223,0,0,0,1.237-3.5A4.892,4.892,0,0,1,453.1,51.2a8.378,8.378,0,0,1,1.025,1.688Zm18.221-1.974h1.975a5.14,5.14,0,0,1,.325-2.224,6.24,6.24,0,0,1,1.874-2.124c1.5-1.275,2.625-2.549,2.625-4.474,0-3.149-2.175-4.724-5.5-4.724-3.424,0-5.748,1.849-5.8,5.874H471.6c0.175-3.149,1.675-3.974,3.824-3.974,2.325,0,3.3,1.125,3.3,2.849,0,1.425-1.1,2.4-2.2,3.374A6.906,6.906,0,0,0,474.5,46.64,6.744,6.744,0,0,0,474.045,49.614Zm1.025,4.824a1.436,1.436,0,0,0,1.425-1.475,1.463,1.463,0,0,0-2.924,0A1.437,1.437,0,0,0,475.07,54.438Z"/>
</svg>
