<svg id="Frame_2" data-name="Frame 2" xmlns="http://www.w3.org/2000/svg" width="728" height="90" viewBox="0 0 728 90">
  <defs>
    <style>
      .cls-1 {
        fill: #4b286d;
        fill-rule: evenodd;
      }
    </style>
  </defs>
  <path id="通过手机一键关闭" class="cls-1" d="M320.137,39.111h-4.975l-0.525-.275a18.763,18.763,0,0,0,5.05-2.75V34.511h-13.85v1.725l10.35,0.075q-0.075.025-1.05,0.5a11.735,11.735,0,0,1-1.538.65q-0.562.175-.762,0.225a14.083,14.083,0,0,0-2.7-1.125l-1.425,1.475q1.475,0.45,3.15,1.075h-5.35V51.886h1.8v-4.05h4.075v3.5h1.8v-3.5h4.05v2.05a0.478,0.478,0,0,1-.3.575,11.29,11.29,0,0,1-2.55.025l0.625,1.775q0.249-.025,1.125-0.013a7.536,7.536,0,0,0,1.3-.062,1.923,1.923,0,0,0,.7-0.25,2.138,2.138,0,0,0,.8-0.7,1.445,1.445,0,0,0,.2-0.725v-11.4Zm-15.4-.85a14.389,14.389,0,0,0-1.763-2.638,13.841,13.841,0,0,0-1.762-1.788l-1.4,1.025a11.763,11.763,0,0,1,1.887,2.075,13.515,13.515,0,0,1,1.413,2.4Zm16.925,14.65-5.325.3q-0.55.025-1.45,0.038t-4.75-.138a7.793,7.793,0,0,1-2.988-.687,7.418,7.418,0,0,1-2.412-1.712v-9.45h-5.225v1.725h3.325v7.75q-3.075,2.55-4.2,3.35l1.425,1.5q0.274-.225,1.6-1.413t2.175-1.812a8.811,8.811,0,0,0,1.937,1.65,6.838,6.838,0,0,0,2.1.712,15.594,15.594,0,0,0,2.863.237h10.175Zm-3.425-10.35h-4.05V40.836h4.05v1.725Zm0,3.55h-4.05V44.386h4.05v1.725Zm-5.85-3.55h-4.075V40.836h4.075v1.725Zm0,3.55h-4.075V44.386h4.075v1.725Zm33.325-6.275V38.111h-3.025V33.586h-1.9v4.525h-9.475v1.725h9.475V50.511a0.572,0.572,0,0,1-.25.275,18.932,18.932,0,0,1-2.55-.15l0.675,1.975h1.362a5.362,5.362,0,0,0,.713-0.05,5.924,5.924,0,0,0,.75-0.15,1.947,1.947,0,0,0,.8-0.738,3.043,3.043,0,0,0,.4-0.962V39.836h3.025Zm-15.25-1.425a16.51,16.51,0,0,0-3.95-4.425l-1.475,1a17.956,17.956,0,0,1,3.9,4.625Zm8.65,8.55a16.834,16.834,0,0,0-2.163-2.675,20.4,20.4,0,0,0-2.637-2.25l-1.45,1.25a19.035,19.035,0,0,1,4.775,4.85Zm7.075,5.875-2.55.175-3.85.1-4.4-.1a6.074,6.074,0,0,1-2.075-.413,6.337,6.337,0,0,1-1.825-1.087,6.171,6.171,0,0,1-1.2-1.275V41.611h-6.025v1.825h4.25v7.05a57.025,57.025,0,0,1-4.75,3.6l1.25,1.45q0.849-.625,2.587-2.038t1.813-1.462a7.6,7.6,0,0,0,2.637,1.975,8.134,8.134,0,0,0,3.288.725l10.15,0.075Zm24.5-4.85V46.161h-9.2v-3.8h7.15V40.536h-7.15v-3.7a34.7,34.7,0,0,0,8.1-1.975l-1.05-1.425a37.766,37.766,0,0,1-8.325,1.725,72.519,72.519,0,0,1-9.525.45l1.125,1.85q5.749-.15,7.775-0.4v3.475h-7.525v1.825h7.525v3.8h-9.6v1.825h9.6v5.25a0.8,0.8,0,0,1-.875.875q-0.651.025-3.15-.2l0.7,2.05h3.45q1.774,0,1.775-2V47.986h9.2Zm24.8,1.3q-0.026.15-.163,1.063t-0.275,1.5a3.752,3.752,0,0,1-.337.95,0.569,0.569,0,0,1-.475.363h-0.8q-0.45,0-.45-0.325V34.711h-7.7v12.9a7.262,7.262,0,0,1-1,3.7,14.543,14.543,0,0,1-2.8,3.375l1.7,1.4a13.437,13.437,0,0,0,2.937-3.913,9.7,9.7,0,0,0,1.063-4.312V36.511h3.9V53.436a1.558,1.558,0,0,0,.212.775,1.3,1.3,0,0,0,.688.563,2.567,2.567,0,0,0,.95.188h1.7a1.812,1.812,0,0,0,1.075-.337,1.7,1.7,0,0,0,.65-0.862,29.132,29.132,0,0,0,.875-3.3Zm-11.225-2.75a10.9,10.9,0,0,0-2.775-4.4l-0.775.475V40.136h3.45v-1.8h-3.45v-4.75h-1.975v4.75h-3.775v1.8h3.6a18.34,18.34,0,0,1-1.038,3.262,16.222,16.222,0,0,1-1.612,3.013,15.34,15.34,0,0,1-1.7,2.1l1.475,1.275a15.458,15.458,0,0,0,1.85-2.288,16.138,16.138,0,0,0,1.2-2.087v10.45h1.975l0.075-11.7a10.235,10.235,0,0,1,1.05,1.775,10.047,10.047,0,0,1,.625,1.725Zm36-1.175V43.286H400.887v2.075h19.375Zm25.65-4.675V38.961h-1.275v-3.05h-3.575v-2.25h-1.8v2.25h-2.6v1.725h2.6v1.325h-3.625v1.725h3.625v1.45h-2.425v1.725h2.425v1.475h-2.775v1.725h2.775v1.55h-3.225v1.725h3.225v2.3h1.8v-2.3h4.55V48.611h-4.55v-1.55h3.95V45.336h-3.95V43.861h3.575V40.686h1.275Zm0.625,12.275a20.579,20.579,0,0,1-2.7.2h-4.85a5.642,5.642,0,0,1-2.65-.513,3.554,3.554,0,0,1-1.5-1.637,14.484,14.484,0,0,0,.9-3.138,42.788,42.788,0,0,0,.5-5.612h-2.6a24.173,24.173,0,0,0,1.5-2.763q0.8-1.687,1.025-2.138V35.636h-4.95v1.35h-2.75a13.522,13.522,0,0,0,.35-2.85l-1.8-.525a21.893,21.893,0,0,1-.65,3.713,17.694,17.694,0,0,1-1.188,3.313,11.565,11.565,0,0,1-1.412,2.275l1.55,1.325,0.8-1.3h0.85v2.3h-2.125v1.725h2.125v5.075a1.3,1.3,0,0,1-.338.9,2.014,2.014,0,0,1-.812.55l1.05,1.575,4.425-3.225v-1.95l-2.525,1.7V46.961h2.4V45.236h-2.4v-2.3h2.075V41.211h-3.775q0.2-.4.9-2.5h3.325v-1.35h2.85a28.565,28.565,0,0,1-2.65,4.925v1.7h2.975a23.331,23.331,0,0,1-.425,3.75l-0.275,1.175a29.7,29.7,0,0,1-.625-3.7l-1.6.775q0.474,2.8.737,3.675a6.444,6.444,0,0,0,.463,1.225,10.155,10.155,0,0,1-1.55,2,12.128,12.128,0,0,1-2,1.675l1.2,1.375a10.714,10.714,0,0,0,1.412-1.087,11.2,11.2,0,0,0,1.338-1.363,4.228,4.228,0,0,0,.625-0.95,3.51,3.51,0,0,0,1.762,1.737,7.365,7.365,0,0,0,3.213.613h6.8Zm-3.7-14h-1.775V37.636h1.775v1.325Zm0,3.175h-1.775v-1.45h1.775v1.45Zm28,12.275a19.28,19.28,0,0,1-4.963-3.075,12.234,12.234,0,0,1-3.237-4.65h7.95V44.861h-10.1q0.049-.45.087-1.125t0.05-1.8q0.013-1.125.013-1.45h8.475V38.761h-6a32.357,32.357,0,0,0,2.4-4.5l-1.75-.775a36.534,36.534,0,0,1-1.525,3.375,19.824,19.824,0,0,1-1.175,1.9h-2.475a18.464,18.464,0,0,0-3.55-5.225l-1.55.775a20.609,20.609,0,0,1,3.05,4.45h-5.8v1.725h8q0,2.65-.025,3.313t-0.075,1.063h-9.35v1.825h8.9a9.184,9.184,0,0,1-1.375,2.375,12.483,12.483,0,0,1-2.438,2.375,17.664,17.664,0,0,1-2.875,1.788,19.443,19.443,0,0,1-2.687,1.087l1.3,1.5a12.208,12.208,0,0,0,3.075-1.212,16.338,16.338,0,0,0,5.437-4.875,11.578,11.578,0,0,0,1.563-3.038h0.35a18.389,18.389,0,0,0,2.4,4.462,12.9,12.9,0,0,0,2.9,2.75,19.234,19.234,0,0,0,3.575,1.913Zm11.925-16.85a14.95,14.95,0,0,0-2.263-2.6,15.671,15.671,0,0,0-1.462-1.2l-1.3,1.125a9.057,9.057,0,0,1,1.975,1.737,15.145,15.145,0,0,1,1.425,2.063Zm11.6-2.125h-11.1v1.825h9.2V52.986a0.633,0.633,0,0,1-.2.563,0.662,0.662,0,0,1-.5.163l-2.1-.15,0.575,1.9h0.85q0.6,0,1.05-.038a3.95,3.95,0,0,0,.85-0.162,1.86,1.86,0,0,0,.962-0.663,1.8,1.8,0,0,0,.413-1.163v-18Zm-2.6,7.45V41.061h-4.275V37.786h-1.9v3.275h-7.45v1.825h6.025a11.887,11.887,0,0,1-2.6,3.962,16.3,16.3,0,0,1-3.975,3.087l1.35,1.4a24.845,24.845,0,0,0,3.5-2.775,12.378,12.378,0,0,0,1.962-2.487,18.907,18.907,0,0,0,1.188-2.363v7.35a0.414,0.414,0,0,1-.175.263,0.72,0.72,0,0,1-.35.137l-2.3-.2,0.625,1.875h2.6a1.36,1.36,0,0,0,1.05-.513,1.915,1.915,0,0,0,.45-1.312V42.886h4.275ZM477.287,55.661V36.786h-1.775V55.661h1.775Z"/>
</svg>
