<svg id="Frame_3" data-name="Frame 3" xmlns="http://www.w3.org/2000/svg" width="728" height="90" viewBox="0 0 728 90">
  <defs>
    <style>
      .cls-1 {
        fill: #4b286d;
        fill-rule: evenodd;
      }
    </style>
  </defs>
  <path id="使用TELUS_智能插座及灯泡_" data-name="使用TELUS 智能插座及灯泡 " class="cls-1" d="M65.722,37.936A25.28,25.28,0,0,1,56.1,35.211a9.621,9.621,0,0,0,.813-1.762,16.882,16.882,0,0,0,.587-2.813h5.775v-6.9h-5.7v-1.7l6.75,0.05v-1.9h-6.75V17.361H55.6v2.825h-6.55l0.65-2.1-1.75-.65q-1.075,3.45-2,5.65a23.122,23.122,0,0,1-3.6,5.95l1.4,1.25q1.6-2.05,2.125-2.825V40.086h1.8V23.936l0.75-1.9,7.175,0.05v1.65h-5.65v6.975l5.55-.05a9.693,9.693,0,0,1-.4,2.075,7.412,7.412,0,0,1-.625,1.325,15.339,15.339,0,0,1-2.8-3.025l-1.625,1.025a27.612,27.612,0,0,0,3.175,3.5,12.982,12.982,0,0,1-5.025,2.8l1.475,1.675a21.505,21.505,0,0,0,3.237-1.775,14.341,14.341,0,0,0,1.962-1.55A15.806,15.806,0,0,0,59.447,38.7a23.848,23.848,0,0,0,5.125,1.037Zm-4.35-9.125h-3.8v-3.25h3.8v3.25Zm-5.775,0h-3.85V25.636H55.6v3.175Zm32.325-10.25H71.272V29.686A16.479,16.479,0,0,1,71,32.661a11.874,11.874,0,0,1-.825,2.725,15.911,15.911,0,0,1-2.325,3.5l1.6,1.2a15.139,15.139,0,0,0,2.675-4.15,17.6,17.6,0,0,0,.975-4.4h5.5v5.975h1.9V31.536h5.45v5.375a0.426,0.426,0,0,1-.375.525,6.8,6.8,0,0,1-.937.038q-0.487-.012-1.713-0.062l0.6,1.95,2.85-.05A1.62,1.62,0,0,0,87.059,39a2.034,2.034,0,0,0,.612-0.775,2.166,2.166,0,0,0,.25-0.937V18.561Zm-1.975,5.475H80.5v-3.65h5.45v3.65Zm0,5.675H80.5v-3.85h5.45v3.85ZM78.6,24.036H73.172v-3.65H78.6v3.65Zm0,5.675H73.172v-3.85H78.6v3.85Zm27.271-9.246H91.6v1.9h6.049v15.9H99.82v-15.9h6.048v-1.9Zm14.5,1.9v-1.9H108v17.8h12.272v-1.9H110.1V29.938h9.272v-1.9H110.1V22.365h10.272Zm4.352,14v-15.9h-2.1v17.8h11.047v-1.9H124.72Zm17.824,2.274c4.449,0,7-2.524,7-6.973v-11.2h-2.1v11.2c0,3.5-1.8,5.074-4.9,5.074s-4.9-1.575-4.9-5.074v-11.2h-2.1v11.2C135.546,36.112,138.1,38.636,142.544,38.636Zm16.525,0.025c4.274,0,6.673-2.075,6.673-5.224,0-2.574-1.449-4.174-5.548-5.074l-1.575-.35c-3.349-.75-4.174-1.6-4.174-3.3,0-1.675,1.325-2.749,3.9-2.749,3.549,0,4.624,1.375,4.8,3.674h2.15c-0.075-2.9-1.7-5.574-6.949-5.574-3.7,0-6.073,1.8-6.073,4.649,0,3.249,2.374,4.474,5.4,5.149l1.575,0.35c3.149,0.7,4.324,1.525,4.324,3.224,0,2.2-1.65,3.324-4.5,3.324-2.9,0-5.174-1.075-5.224-4.374h-2.174C151.721,36.836,154.82,38.661,159.069,38.661ZM63.522,57.436V49.161H55.247v8.275h8.275Zm-2.35,12.425V59.336l-13.95-.05a6.43,6.43,0,0,0,2.075-1.7,8.82,8.82,0,0,1,1.875.275,20.511,20.511,0,0,1,2.975,1.125l1-1.525a9.508,9.508,0,0,0-1.963-.9,17.8,17.8,0,0,0-2.987-.65l0.2-.45h4.15V53.636H50.672a9.506,9.506,0,0,0,.125-2.2h2.925V49.611H47.947a5.1,5.1,0,0,0,.425-1.375l-1.825-.7a10.069,10.069,0,0,1-.925,2.975,6.717,6.717,0,0,1-1.85,2.225l1.75,0.775a9.606,9.606,0,0,0,1.1-1.013,5.448,5.448,0,0,0,.8-1.062h1.5a8.379,8.379,0,0,1-.125,2.2H43.9v1.825h4.425a3.982,3.982,0,0,1-.9,1.35,6,6,0,0,1-1.8,1.212,10.332,10.332,0,0,1-2.475.788l0.9,1.875a11.489,11.489,0,0,0,1.788-.575A7.03,7.03,0,0,0,47,59.536v10.45h1.9v-1.6H59.272v1.475h1.9Zm0.45-14.25H57.147V50.986h4.475v4.625Zm-2.35,7.35H48.9v-1.8H59.272v1.8Zm0,3.6H48.9V64.786H59.272v1.775Zm28.075-13.25q-0.55,3.35-1.175,3.35h-3.3a1.9,1.9,0,0,1-.888-0.2,0.583,0.583,0,0,1-.388-0.5V54.136a27.03,27.03,0,0,0,4.313-1.713,15.394,15.394,0,0,0,2.763-1.812l-1.15-1.425a15.887,15.887,0,0,1-2.95,1.862A17.335,17.335,0,0,1,81.6,52.261v-4.3H79.7v8.65a1.976,1.976,0,0,0,.737,1.3,2.373,2.373,0,0,0,1.612.575H86.5a1.57,1.57,0,0,0,1.1-.512,3.055,3.055,0,0,0,.75-1.113,27.124,27.124,0,0,0,.825-2.85Zm-8.025,1.425a12.053,12.053,0,0,0-3.35-4.75l-1.675.925a15.9,15.9,0,0,1,1.55,1.65l-5.325.45a17,17,0,0,0,3.6-4.975L72.4,47.161a36.7,36.7,0,0,1-2.612,4,15.73,15.73,0,0,1-1.388,1.5,8.919,8.919,0,0,1-.975.9L68.7,55.236q0.45-.05,2.612-0.337t3.5-.425q1.337-.137,2.263-0.187l0.45,1.2Zm8.325,9.45a12.167,12.167,0,0,1-.575,2.5,1.558,1.558,0,0,1-.35.55,0.769,0.769,0,0,1-.425.25h-3.85q-0.85,0-.85-0.625V64.536a20.832,20.832,0,0,0,3.8-1.163,15.292,15.292,0,0,0,3.525-2.013l-1.275-1.325a16.455,16.455,0,0,1-6.05,2.625V59.186H79.7v8a1.893,1.893,0,0,0,.4,1.125,2.225,2.225,0,0,0,.938.775,2.531,2.531,0,0,0,.963.225h4.5a2.1,2.1,0,0,0,.95-0.225,1.7,1.7,0,0,0,.7-0.625A6.82,6.82,0,0,0,88.859,67a17.012,17.012,0,0,0,.563-2.138Zm-9.775-8H68.847v13.45h1.9V64.661h5.225v2.35a0.75,0.75,0,0,1-.125.4,0.432,0.432,0,0,1-.3.225,6.337,6.337,0,0,1-1.6,0q-0.975-.1-1.025-0.1l0.7,1.925a17.266,17.266,0,0,0,2.7-.075,1.681,1.681,0,0,0,1.063-.662,2.176,2.176,0,0,0,.487-1.437v-11.1Zm-1.9,3.325H70.747v-1.5h5.225v1.5Zm0,3.325H70.747v-1.5h5.225v1.5Zm38.625-8.35V52.661h-6.775V50.586a23.124,23.124,0,0,0,5.925-1.75l-1.3-1.475a19.418,19.418,0,0,1-4.725,1.425,53.27,53.27,0,0,1-8.35.6l1,1.925q2.274-.1,5.55-0.425v1.775H99.847V52.536h-1.9V47.761h-1.9v4.775H92.722v1.825h3.325v5.05q-2.375,1.1-3.75,1.65l1.3,1.425,2.45-1.15v6.175l-0.1.35a1.036,1.036,0,0,1-.25.212,1.962,1.962,0,0,1-1,.088,5.28,5.28,0,0,0-1.2.025l0.775,1.825q0.275-.025,1.063-0.025a4.388,4.388,0,0,0,1.2-.125,1.775,1.775,0,0,0,.688-0.375,2.157,2.157,0,0,0,.538-0.8,2.571,2.571,0,0,0,.188-0.95V60.461l2.15-.975V57.461q-1.851,1.025-2.15,1.15v-4.25h1.9v0.125h6.075v1.625l-1.15-1.35a6.361,6.361,0,0,1-1.438,1.387,8.767,8.767,0,0,1-2.562,1.138v12.75h1.9V68.211h8.5v1.725h1.9V56.161h-4.75v1.825h2.85v3h-2.35v1.825h2.35v3.575h-3.35v-11.9H114.6Zm-8.675,11.9h-3.25V62.811H105.1V60.986h-2.425V58.511a10.876,10.876,0,0,0,2.162-1.163,4.532,4.532,0,0,0,1.088-1.113v10.15Zm29.825-10.5a27.655,27.655,0,0,0,.25-2.825l-1.825-.275a12.407,12.407,0,0,1-.575,4.2,9.74,9.74,0,0,1-2.15,3.525v-8.2l-1.9-.05v7.075q-0.851-.925-1.525-1.525a17.044,17.044,0,0,0-1.45-1.15,15.952,15.952,0,0,0,.425-3.45l-1.825-.325a9.4,9.4,0,0,1-.363,3.325,7.5,7.5,0,0,1-1.25,2.462,12.029,12.029,0,0,1-1.512,1.613V51.711h17.125V49.886h-8.25a15.8,15.8,0,0,0-1.1-1.488,11.042,11.042,0,0,0-1.225-1.288l-1.925,1.05a15.537,15.537,0,0,1,1.262.987,4.834,4.834,0,0,1,.738.738h-8.525v3.9q0,0.825.025,2.65t-0.013,3.288q-0.038,1.463-.187,3.112a10.367,10.367,0,0,1-1.113,3.588q-0.513.988-1.337,2.337l1.65,1.15a21.843,21.843,0,0,0,2.175-4.375,17.376,17.376,0,0,0,.75-4.825l1.425,0.8a7.978,7.978,0,0,0,1.475-1.4,8.086,8.086,0,0,0,1-1.65,14.637,14.637,0,0,1,2.45,2.5l1.1-.9v2.125H123.4v1.825h6.15v2.575H122v1.825h17.425l0.05-1.825h-8.025V64.011h6.575V62.186h-6.575v-1.4l1.475,0.875a9.554,9.554,0,0,0,1.437-1.775,14.345,14.345,0,0,0,.988-2.025,11.926,11.926,0,0,1,1.262,1.313q0.612,0.738,1.463,1.963a5.1,5.1,0,0,0,.425-0.3q0.225-.175.562-0.475t0.463-.4a16.257,16.257,0,0,0-3.775-4.075h0Zm28.8,12.225a21.159,21.159,0,0,1-7.4-3.5,21.105,21.105,0,0,0,3.175-4.2,13.164,13.164,0,0,0,1.575-5.175h-4.95q2.025-2.675,3.25-4.5v-1.65H144.272v1.9h3.35q0.075,2.225-.1,5.4-0.15,2.8-.338,4.1t-0.362,2.075a12.317,12.317,0,0,1-3.85,6.25q0.049,0.025.837,0.5T145,69.986a19.4,19.4,0,0,0,3.175-4.875,24.6,24.6,0,0,0,1.425-7.825,22.62,22.62,0,0,0,1.925,4.012,19.076,19.076,0,0,0,2.675,3.388,19.2,19.2,0,0,1-7.15,3.55l1.225,1.675a18.591,18.591,0,0,0,7.375-3.925,22.748,22.748,0,0,0,7.725,3.925Zm-4.95-11.05a13.185,13.185,0,0,1-1.563,3.313,17.034,17.034,0,0,1-2.312,2.962,22.821,22.821,0,0,1-2.313-2.7,15.107,15.107,0,0,1-1.112-1.95,40.668,40.668,0,0,1-1.75-4.05q-0.5-1.45-.8-2.5v-1.15h7.825q-1.15,1.725-3.3,4.425v1.65H159.6Zm30.05-5.975v-1.9H175.622v1.9H181.9V67.111q0,1.05-.725.975-1.575-.15-2.95-0.175l0.6,2.025h3.2a1.8,1.8,0,0,0,.875-0.25,1.982,1.982,0,0,0,.762-0.838,2.465,2.465,0,0,0,.313-1.162v-16.6h5.675Zm-20.975,1.625a8.384,8.384,0,0,1-.213,2.875,9.335,9.335,0,0,1-1.137,2.775l2,0.675a6.319,6.319,0,0,0,.85-1.988,12.379,12.379,0,0,0,.425-2.362,11.392,11.392,0,0,0,.025-1.65Zm8.575,12.875a10.366,10.366,0,0,0-4.1-3.9q0.125-1.325.125-4.75a10.715,10.715,0,0,0,3.25-2.95l-1.45-1.475q-0.876,1.25-1.188,1.625a3.266,3.266,0,0,1-.637.6V47.911h-1.975v8.625q0,2.65-.15,4.6a12.7,12.7,0,0,1-1.1,4.512,10.851,10.851,0,0,1-2.6,3.413l1.8,1.475a14.047,14.047,0,0,0,2.437-3.225,11.226,11.226,0,0,0,1.238-3.5,4.892,4.892,0,0,1,1.625,1.387,8.425,8.425,0,0,1,1.025,1.688Zm37.362-1.663q-0.612-.237-0.887-0.362L213.5,64.936c-0.034.117-.1,0.379-0.2,0.787a2.284,2.284,0,0,1-.388.9,1.046,1.046,0,0,1-.637.362H204.4l-0.625-.075a1.261,1.261,0,0,1-.525-0.338,0.868,0.868,0,0,1-.25-0.537v-3.85h5.6V54.761h-6.325a19.32,19.32,0,0,0,.95-2.525h7.95q0,0.175-.088,2.55t-0.212,4.45a32.949,32.949,0,0,1-.35,3.4,0.566,0.566,0,0,1-.45.275,7.066,7.066,0,0,1-1.138-.138q-0.762-.137-1.112-0.187l0.475,1.875a7.125,7.125,0,0,0,2.95.075,2.25,2.25,0,0,0,1.3-1.775q0.425-4.075.625-12.425h-9.425a16.323,16.323,0,0,0,.35-2.875l-1.8-.45q-0.55,6.775-4.5,10.325l1.575,1.35q1.449-1.525,1.725-1.85v9.025l0.125,0.9a2.7,2.7,0,0,0,.962,1.325,2.893,2.893,0,0,0,1.513.625h8.45a2.871,2.871,0,0,0,1.337-.25,2.792,2.792,0,0,0,.788-0.625,10.118,10.118,0,0,0,1.275-3.5A8.975,8.975,0,0,0,214.609,63.924ZM200.3,51.511a11.393,11.393,0,0,0-1.238-1.488,10.934,10.934,0,0,0-1.65-1.4,7.124,7.124,0,0,0-1.587-.862l-1.4,1.175a10.632,10.632,0,0,1,2.375,1.6,10.36,10.36,0,0,1,1.975,2.2Zm-1.975,5.1a9.712,9.712,0,0,0-1.113-1.487,8.426,8.426,0,0,0-1.475-1.3,15.786,15.786,0,0,0-1.912-1.113l-1.575,1.15a15.678,15.678,0,0,1,1.737.95,7.452,7.452,0,0,1,1.438,1.237,12.145,12.145,0,0,1,1.275,1.663ZM197.1,59.286a15.836,15.836,0,0,1-.8,3.075,17.567,17.567,0,0,1-1.438,3.013,12.008,12.008,0,0,1-2.087,2.587l1.775,1.05q0.2-.275.9-1.2t1.187-1.675a12.576,12.576,0,0,0,.888-1.625,16.263,16.263,0,0,0,.737-1.975,16.937,16.937,0,0,0,.538-2.425q-0.651-.275-1.7-0.825h0Zm9.6,1.075H203V56.586h3.7v3.775Z"/>
</svg>
