<svg id="Frame_5" data-name="Frame 5" xmlns="http://www.w3.org/2000/svg" width="728" height="90" viewBox="0 0 728 90">
  <defs>
    <style>
      .cls-1 {
        fill: #4b286d;
        fill-rule: evenodd;
      }
    </style>
  </defs>
  <path id="智能家居安防_让家庭生活更轻松_" data-name="智能家居安防 让家庭生活更轻松 " class="cls-1" d="M338.446,30.461V20.086h-9.375v10.4H332.3V29.561h2.95v0.9h3.2Zm-2.9,10.5V30.836h-8.375a9.818,9.818,0,0,1,1.8-1.825,12.832,12.832,0,0,1-2.9-2.1h2.675v-2.9h-3.6V23.186h3.3v-3.1H322.6a6.337,6.337,0,0,0,.575-1.075l-3.25-.375a14.157,14.157,0,0,1-3.125,4.1,16.119,16.119,0,0,1,1.925,1.275h-1.65v2.9h3.775a9.92,9.92,0,0,1-4.025,3.425,13.208,13.208,0,0,1,2.375,2.725,10.956,10.956,0,0,0,1.65-1.2v9.1h3.425V40.236h7.85v0.725h3.425Zm-0.3-14.5H332.3V23.186h2.95v3.275Zm-13.6-2.45H320.1l0.7-.825h0.85v0.825Zm10.475,10.375h-7.85v-0.65h7.85v0.65Zm-10.3-3.55a14.569,14.569,0,0,0,1.475-1.9l0.375,0.4a11.13,11.13,0,0,0,.85.775,9.848,9.848,0,0,0,1.05.725h-3.75Zm10.3,6.5h-7.85v-0.65h7.85v0.65Zm29.66-12.95a13.73,13.73,0,0,1-1.275-.8,7.361,7.361,0,0,1-.275,1.45,2.164,2.164,0,0,1-.388.875,1.3,1.3,0,0,1-.512.275h-2.975q-0.375,0-.375-0.775v-0.8l6.5-3.35-2.6-2.025q-1.425.825-3.9,2.075V18.786h-3.125q-0.476,0-.475.3a0.617,0.617,0,0,0,.237.425,0.648,0.648,0,0,1,.238.325l-0.05,5.425q-0.4-.925-1.138-2.325t-1.337-2.425l-2.75,1.075a12.645,12.645,0,0,1,.975,1.725h-2.35q0.2-.4.95-1.825t1.1-2.175l-3.15-.8-2.15,4.9h-2.125l1.025,3.325,7.825-.65,0.375,0.925a9.086,9.086,0,0,1,2.825-1.225,6.855,6.855,0,0,0,.15,1.3,2.789,2.789,0,0,0,.925,1.338,2.262,2.262,0,0,0,1.475.587h5.3a1.689,1.689,0,0,0,1.45-.9,8.231,8.231,0,0,0,.85-3.2A5.432,5.432,0,0,1,361.781,24.386Zm-1.225,10.775a9.709,9.709,0,0,1-.375,1.525,0.978,0.978,0,0,1-.725.825h-2.875a0.5,0.5,0,0,1-.5-0.475v-1.55q2.424-1.075,6.625-3.5-1.826-1.2-2.825-1.95a38.189,38.189,0,0,1-3.8,2.15V29.311h-3.125q-0.45,0-.45.225a0.544,0.544,0,0,0,.237.4,0.55,0.55,0,0,1,.238.4v6.725a4.219,4.219,0,0,0,.375,2,3.061,3.061,0,0,0,.937,1,2.129,2.129,0,0,0,1.213.4h4.875l0.775-.025a2.446,2.446,0,0,0,1-.612,2.976,2.976,0,0,0,.625-0.975,9.307,9.307,0,0,0,.412-1.4q0.188-.837.213-0.937a13.477,13.477,0,0,1-2.85-1.35h0Zm-8.7-7.825h-9.525V40.811h2.975V36.336h3.55v0.925a0.663,0.663,0,0,1-.075.375,0.293,0.293,0,0,1-.25.1,8.842,8.842,0,0,1-2,.025,6.738,6.738,0,0,1,.825,1.475,5.637,5.637,0,0,1,.4,1.575,9.841,9.841,0,0,0,2.05-.138,3.284,3.284,0,0,0,1.15-.387,2.115,2.115,0,0,0,.65-0.725,1.846,1.846,0,0,0,.25-0.9V27.336Zm-3,3.425h-3.55V30.186h3.55v0.575Zm0,3.075h-3.55V33.261h3.55v0.575Zm38.3-7.375V20.586h-8.3c-0.067-.133-0.147-0.287-0.238-0.462s-0.412-.7-0.962-1.562l-3.725.45a8.179,8.179,0,0,1,1.2,1.575h-8.675v5.975h2.95v-3.05h14.75v2.95h3Zm-3.163,8.325a11.867,11.867,0,0,1-2.962-2.125,29.7,29.7,0,0,0,4.475-3.4l-2.975-1.775a20.663,20.663,0,0,1-3.525,2.85,15.031,15.031,0,0,0-1.4-2.15,9.455,9.455,0,0,0,.912-0.6,6.2,6.2,0,0,0,.863-0.75h4.225v-2.75h-13.65v2.775l3.475,0.05a38.473,38.473,0,0,1-4.175,1.125,20.707,20.707,0,0,1-3.325.45,6.882,6.882,0,0,1,.962,1.375,5.349,5.349,0,0,1,.613,1.525,23.523,23.523,0,0,0,6.95-2.05l0.125,0.225a19.152,19.152,0,0,1-8.225,2.95,5.276,5.276,0,0,1,.9,1.212q0.375,0.688.8,1.663a22.044,22.044,0,0,0,7.775-3.4l0.15,0.5a16.1,16.1,0,0,1-4.15,2.563,28.323,28.323,0,0,1-6.15,1.888,8.321,8.321,0,0,1,1.85,3.075q1.6-.45,2.787-0.9a25.812,25.812,0,0,0,2.388-1.05,6.19,6.19,0,0,1,.587,1.313,4.126,4.126,0,0,1,.213,1.413q0.75,0.025,1.7.025a8.875,8.875,0,0,0,1.95-.225,4.063,4.063,0,0,0,1.725-.825,2.781,2.781,0,0,0,.85-1.312,9.431,9.431,0,0,0,.275-2.687,12.536,12.536,0,0,0,5.8,3.375,7.116,7.116,0,0,1,.8-1.6,7.321,7.321,0,0,1,1.175-1.425A18.591,18.591,0,0,1,383.993,34.786Zm-7.462,1.925a1.367,1.367,0,0,1-.35.625,1.934,1.934,0,0,1-1.038.238,8.924,8.924,0,0,1-1.337-.138,15.153,15.153,0,0,0,2.775-1.9A4.045,4.045,0,0,1,376.531,36.711Zm35.175-5.8v-2.95h-7.525v-1.6h6.075v-7H391.781v9.3a26.8,26.8,0,0,1-.525,5.5,12.615,12.615,0,0,1-1.825,4.45,4.843,4.843,0,0,1,2.875,1.975,11.592,11.592,0,0,0,1.637-3.525,29.54,29.54,0,0,0,.938-6.15h5.925v1.725h-5.4v8.15h3.325V40.061h7.8v0.75h3.325V32.636h-5.675V30.911h7.525Zm-4.75-7.35H394.981V22.236h11.975v1.325Zm-6.15,4.375h-5.825V26.361h5.825v1.575Zm5.725,9.175h-7.8v-1.55h7.8v1.55Zm28.955-9.825v-5.95h-8.3q-0.75-1.825-1.225-2.7l-3.425.575a6.5,6.5,0,0,1,.5.888q0.2,0.438.525,1.237h-8.5v5.875h3.35v-2.8h13.725v2.875h3.35Zm0.85,4V28.211H424.261a26.548,26.548,0,0,0,1.15-2.625l-3.225-.775-1.575,3.4h-6.375v3.1h5.075l-2.1,3.85a33.487,33.487,0,0,1,3.275,1.2l0.55-1.025q0.95,0.275,2.5.9a13.587,13.587,0,0,1-4.013,1.075,25.514,25.514,0,0,1-5.212.125,8.117,8.117,0,0,1,1,1.675,4.569,4.569,0,0,1,.425,1.7,27.289,27.289,0,0,0,6.837-.725,13.863,13.863,0,0,0,4.888-2.175,27.393,27.393,0,0,1,5.575,3.05,8.335,8.335,0,0,1,2.725-2.675,53.593,53.593,0,0,0-5.9-3.075,17.76,17.76,0,0,0,2.25-3.925h4.225Zm-7.975,0a6.494,6.494,0,0,1-.675,1.25q-0.4.575-1.1,1.425l-4.3-1.35,0.675-1.325h5.4Zm32.367-5.825V22.336l-5.775-.05a13.175,13.175,0,0,1,1.6-.45,16.691,16.691,0,0,0-2.95-3.15l-2.825,1.175a13.961,13.961,0,0,1,2.075,2.475h-5.125q0.075-.2.425-0.937a11.206,11.206,0,0,0,.475-1.112l-1.425-1.05h-7.975v21.5H442.4v-6.65a2.742,2.742,0,0,1,.75,1.138,4.978,4.978,0,0,1,.4,1.538,8.156,8.156,0,0,0,1.988-.425,3.848,3.848,0,0,0,1.487-.913,4.279,4.279,0,0,0,.85-1.187,5.085,5.085,0,0,0,.25-3.387,9.091,9.091,0,0,0-2.15-3.763q0.375-.775,1.325-3.425v1.8h2.45v3.525q0,0.65-.012,1.188t-0.075,1.087a10.87,10.87,0,0,1-.188,1.113,7.075,7.075,0,0,1-.375,1.163,9.693,9.693,0,0,1-.587,1.175,11.094,11.094,0,0,1-.738,1.1,9.958,9.958,0,0,1-3.5,2.7,7.8,7.8,0,0,1,1.963,1.15,5.873,5.873,0,0,1,1.087,1.15q0.5-.375,1.263-1.038a11.508,11.508,0,0,0,1.487-1.587q0.725-.925,1-1.35a13.211,13.211,0,0,0,1.625-5.95h3.675q0,2.875-.075,3.813t-0.175,1.537a1.538,1.538,0,0,1-.525.725,6.7,6.7,0,0,1-1.612.35,8.73,8.73,0,0,1-1.738.025,7.3,7.3,0,0,1,.963,1.613,6.823,6.823,0,0,1,.512,1.787l0.4-.025A8.331,8.331,0,0,0,457.4,40a3.008,3.008,0,0,0,1.5-1.538,7.009,7.009,0,0,0,.4-1.825q0.125-1.15.125-3.8l0.025-4.9h-6.6l0.05-2.475h7.825Zm-15.662,6.962a1.059,1.059,0,0,1-.163.238,2.194,2.194,0,0,1-1.075.538,9.353,9.353,0,0,1-1.425.137V22.411h2.225l-1.8,4.975a8.833,8.833,0,0,1,2.4,4.25A2.851,2.851,0,0,1,445.066,32.423ZM314.944,69.811v-1.7h-7.675V58.736h6.4V56.911h-6.4v-8.1h-1.8v19.3h-6.025v1.7h15.5Zm-14.35-16.95a9.817,9.817,0,0,0-3.725-3.6l-1.475,1.025a7.547,7.547,0,0,1,1.988,1.575,8.448,8.448,0,0,1,1.537,2.2Zm2.65,12.7-0.05-1.975q-0.75.35-2.375,1.125t-2.3,1.075V55.011h-5.15v1.825h3.35v9.65a0.277,0.277,0,0,1-.15.225,2.092,2.092,0,0,1-.412.2c-0.175.067-.288,0.109-0.338,0.125l1.25,1.8Zm35.223-9.6V51.386h-8.45a8.7,8.7,0,0,0-1.5-1.925,8.912,8.912,0,0,0-1.675-1.325l-1.575,1.175a18.818,18.818,0,0,1,1.987,1.575,3.474,3.474,0,0,1,.388.5h-9.025v4.675h1.9v-2.85h16.05v2.75h1.9Zm1.2,11.525a6.957,6.957,0,0,1-2.163-1.35,11.739,11.739,0,0,1-1.912-2.225,9.825,9.825,0,0,1-1.275-2.6,18.291,18.291,0,0,0,2.775-2.5l-1.45-1.275a10.845,10.845,0,0,1-4.625,3.6A6.6,6.6,0,0,0,330,59.549a5.885,5.885,0,0,0-1.337-1.212q0.075-.05.587-0.337t0.963-.587a8.175,8.175,0,0,0,.85-0.65h4.6V54.936h-14.1v1.825l6.275,0.025a25.82,25.82,0,0,1-9.1,2.825l1.3,1.65a21.814,21.814,0,0,0,6.775-1.975,7.565,7.565,0,0,1,1.25.85,16.5,16.5,0,0,1-2.325,1.375,17.64,17.64,0,0,1-3.313,1.212,35.9,35.9,0,0,1-4.162.837l1.325,1.625a18.848,18.848,0,0,0,5.062-1.225,23.23,23.23,0,0,0,4.438-2.4,10.331,10.331,0,0,1,.675,1.45,16.527,16.527,0,0,1-5.25,3.038,34.5,34.5,0,0,1-6.75,1.638l1.375,1.725A40.3,40.3,0,0,0,323.3,68.4a25.84,25.84,0,0,0,3.8-1.462,13.829,13.829,0,0,0,3.063-1.975,20.919,20.919,0,0,1-.1,3.35,1.1,1.1,0,0,1-.275.475,1.373,1.373,0,0,1-.45.35,8.371,8.371,0,0,1-1.825-.162,20.892,20.892,0,0,1-2.375-.638l0.775,2.225a9.724,9.724,0,0,0,4.375.175,2.155,2.155,0,0,0,1.112-.862,4.834,4.834,0,0,0,.588-2.163,14.412,14.412,0,0,0-.013-2.462,18.665,18.665,0,0,0-.362-2.463l1.2-.5a14.887,14.887,0,0,0,1.025,2.237,12.228,12.228,0,0,0,1.912,2.563,7.784,7.784,0,0,0,2.663,1.875Zm24.242-15.05V50.611h-8.825l0.425-.4a9.92,9.92,0,0,0-2.162-1.737,6,6,0,0,0-1.738-.638l-1.425,1.35a8.113,8.113,0,0,1,1.875.612,3.4,3.4,0,0,1,1.15.813h-9.15l-0.2,11.825a11.611,11.611,0,0,1-.675,3.625,9.915,9.915,0,0,1-1.825,3.15l1.325,1.575a10.046,10.046,0,0,0,2.388-3.95,18.846,18.846,0,0,0,.787-5.725l0.075-8.675h17.975Zm0.875,15.425q-5.049.25-9,.1a10.73,10.73,0,0,1-1.875-.263,10.281,10.281,0,0,1-2.95-1.387,13.86,13.86,0,0,0,1.475-6.625h-3.1a15.65,15.65,0,0,0,1.613-1.812,17.336,17.336,0,0,0,1.437-2.112l0.05-.725,1.15,1.575q0.951,0.025,1.975-.05a14.861,14.861,0,0,0,1.675-.2v2.75h-4.175v1.825h4.175v3.675h-5.15v1.825h11.925V64.611h-4.875V60.936h4.25V59.111h-4.25V55.986a18.832,18.832,0,0,0,4.325-1.7l-1.325-1.3a10.255,10.255,0,0,1-1.8.763,21.193,21.193,0,0,1-3.337.725,26.614,26.614,0,0,1-4.613.288V54.086h-5.95v1.825h3.625a31.732,31.732,0,0,1-3.375,3.75v1.85h3.825a8.592,8.592,0,0,1-.35,1.912,9.493,9.493,0,0,1-.6,1.438l-0.562-.9q-0.438-.7-0.675-1.15t-0.388-.8l-1.575.95a14.118,14.118,0,0,0,2.15,3.475,16.122,16.122,0,0,1-3.3,2.9l1.15,1.475a8.543,8.543,0,0,0,2.138-1.475,14.443,14.443,0,0,0,1.562-1.525,9.309,9.309,0,0,0,5.7,1.9l8.225,0.1Zm23.328,1.6V67.636h-9.8V62.311h7.025V60.486h-7.025V55.811h8.2V53.986h-8.2V48.661h-1.9v5.325h-4.2c0.016-.083.075-0.316,0.175-0.7s0.183-.766.25-1.15a6.912,6.912,0,0,0,.1-1.175l-1.9-.575a15.326,15.326,0,0,1-.75,3.775,11.29,11.29,0,0,1-1.5,2.925,18.992,18.992,0,0,1-2.325,2.6l1.9,1.025a15.113,15.113,0,0,0,3.375-4.9h4.875v4.675h-6.475v1.825h6.475v5.325h-8.925v1.825h20.625Zm24.577-12.025v-1.8h-7.075V52.111a26.45,26.45,0,0,0,5.925-2.075l-1.325-1.425a22.6,22.6,0,0,1-4.862,1.538,42.157,42.157,0,0,1-7.938.663l1,1.85q4.026-.15,5.3-0.35v3.325h-7.05v1.8h7.05v4.2h-5.15v9.375h1.9V69.336h8.375v1.6h1.9v-9.3h-5.125v-4.2h7.075Zm-14.9-4.65a9.545,9.545,0,0,0-2.037-1.9,10.1,10.1,0,0,0-2.438-1.3l-1.275,1.275a11.04,11.04,0,0,1,4.425,3.275Zm-1.925,5.825a10.274,10.274,0,0,0-4.175-3.5l-1.475,1.3a8.777,8.777,0,0,1,4.3,3.55Zm-0.525,2.325a20.258,20.258,0,0,1-4.55,8.275l1.525,1.1a20.71,20.71,0,0,0,4.6-8.625Zm13.5,6.6h-8.375v-4.1h8.375v4.1ZM436.9,68.911q-2.325-.05-4.888-0.338a42.343,42.343,0,0,1-4.512-.725,12.011,12.011,0,0,1-3.05-1.037,7.485,7.485,0,0,0,1.05-1.888,9.532,9.532,0,0,0,.575-2.213h7.3V53.436h-6.925V51.661h9.65V49.836H414.777v1.825h9.775v1.775h-7.175v9.275h6.8a7.923,7.923,0,0,1-.513,1.65,6.839,6.839,0,0,1-.862,1.5,29.47,29.47,0,0,1-3.65-2.85l-1.45.975a17.032,17.032,0,0,0,3.625,3.2,21.645,21.645,0,0,1-3.763,1.412,33.783,33.783,0,0,1-3.512.787l1.125,1.675a17.569,17.569,0,0,0,7.175-2.375l0.775-.525a23.327,23.327,0,0,0,4.775,1.662,45.425,45.425,0,0,0,7.825,1.013Zm-5.325-11.775h-5.125V55.261h5.125v1.875Zm0,3.75h-5.3l0.125-1.925h5.175v1.925Zm-7.025-3.75h-5.275V55.261h5.275v1.875Zm-0.025,1.825-0.1,1.925h-5.15V58.961h5.25Zm35.872,0.4a10.075,10.075,0,0,0-1.7-1.925q-0.924-.8-2.275-1.8a40.556,40.556,0,0,0,2.5-4.125v-1.75h-9.9v1.8h7.6a16.143,16.143,0,0,1-3.337,4.737,12.5,12.5,0,0,1-4.388,2.638V58.261h-3.6v-3.3h-1.9v3.3h-2.05l1.875-5.325h5.15v-1.8h-4.65l0.6-2.2-1.75-.575q-0.2.75-.775,2.775h-2.775v1.8h2.225l-1.8,5.175v1.95h3.95v3.35q-3.3.775-5.125,1.025l1.15,1.85,3.975-1.025v5.2l1.9-.05V64.836l2.9-.775v-1.9q-1.95.55-2.9,0.8v-2.9h3.575l0.525,0.75a14.612,14.612,0,0,0,3.275-1.625,15.013,15.013,0,0,0,2.55-2.1,16.352,16.352,0,0,1,3.65,3.525Zm0.05,10.25V67.736h-5.4v-4.75h4.75V61.111H448.724v1.875h4.425v4.75h-6.125v1.875h13.425Zm24.38-10.025a22.618,22.618,0,0,1-2.887-4.825,18.275,18.275,0,0,1-1.538-5.65l-1.975.55q0.8,3.875,1.275,5.313a14.969,14.969,0,0,0,1.1,2.563,13.879,13.879,0,0,0,1.288,1.95q0.662,0.825,1.287,1.475Zm-0.775,10.5a12.274,12.274,0,0,0-4.15-6.8l-1.7,1,2.35,2.425-6.1.675,0.7-.85a13.628,13.628,0,0,0,1.95-3.35,21.577,21.577,0,0,0,1.325-5.6l-2.025-.625a16.794,16.794,0,0,1-.75,3.875,18.28,18.28,0,0,1-1.825,4.2,8.994,8.994,0,0,1-2.35,2.775l1.05,1.8q0.45-.05,2.1-0.3t2.475-.35l4.375-.475a7.209,7.209,0,0,1,.6,2.275ZM474.6,49.861q-0.024.075-.325,1.875a25.469,25.469,0,0,1-.6,2.825,12.316,12.316,0,0,1-.687,1.837,9.17,9.17,0,0,1-.963,1.575,9.3,9.3,0,0,1-1.25,1.362,8.367,8.367,0,0,0-1.75-1.875l-0.275.125V55.061h2.975V53.236h-2.975v-4.8h-1.9v4.8h-3.6v1.825h3.5a17.319,17.319,0,0,1-1.012,3.612,14.886,14.886,0,0,1-1.675,3.138,15.048,15.048,0,0,1-1.863,2.2l1.425,1.35A11.078,11.078,0,0,0,465,63.924a11.42,11.42,0,0,0,1.238-1.787,6.935,6.935,0,0,0,.612-1.4V70.811h1.9l0.05-11.05,0.925,1.737a8.852,8.852,0,0,1,.55,1.288l1.65-.9a6.847,6.847,0,0,0-.825-2.05l1.15,0.825a10.38,10.38,0,0,0,1.838-2.35,14.442,14.442,0,0,0,1.262-2.937,37.957,37.957,0,0,0,1.025-5.062Z"/>
</svg>
