<svg id="Frame_3" data-name="Frame 3" xmlns="http://www.w3.org/2000/svg" width="600" height="500" viewBox="0 0 600 500">
  <defs>
    <style>
      .cls-1 {
        fill: #4b286d;
        fill-rule: evenodd;
      }
    </style>
  </defs>
  <path id="Mas_energy_efficient_sa_bahay_" data-name="Mas energy efficient sa bahay " class="cls-1" d="M151.492,70.716L145.13,86.44c-1.16,2.8-2.48,6.361-3.36,8.682-0.841-2.2-2.081-5.4-3.241-8.2l-6.6-16.2h-4.4V99.2h3.281V90.08c0-3.8,0-9-.12-14.523,0.76,2.121,1.52,4.041,2.521,6.481L140.289,99.2h2.881l7.041-17.164c1-2.44,1.761-4.361,2.521-6.481-0.12,5.521-.12,10.722-0.12,14.523V99.2h3.281V70.716h-4.4ZM177.97,96.6a0.947,0.947,0,0,1-1.121-1V84.079c0-3.481-2.04-6-7.761-6-6.042,0-8.162,2.841-8.4,6.841h3.2c0.2-3.081,1.68-4.081,5.2-4.081s4.641,1.08,4.641,3.241c0,1.84-1.161,2.6-3.241,2.841l-2.961.32c-5.681.6-7.641,3.161-7.641,6.4,0,3.881,2.8,6.041,7.281,6.041a7.568,7.568,0,0,0,6.722-3.321c0.16,1.96,1.2,2.961,3.481,2.961a12.171,12.171,0,0,0,1.76-.12V96.6h-1.16Zm-10.643.36c-2.84,0-4.121-1.36-4.121-3.4,0-2,1.041-3.281,4.8-3.721l3-.36a5.328,5.328,0,0,0,2.721-.88v2.441C173.729,95.121,170.408,96.962,167.327,96.962Zm22.08,2.721c5.082,0,8.2-2.24,8.2-6.161,0-3.361-2.04-5.081-7.121-6.081l-1.841-.36c-2.64-.52-4.161-1.24-4.161-3.2,0-1.92,1.561-3.041,4.321-3.041,3.161,0,5.041.88,5.2,4.081h3.2c-0.08-4.4-2.881-6.841-8.4-6.841-4.721,0-7.521,2.321-7.521,5.841,0,3.2,1.96,5.241,6.441,6.081l1.92,0.36c3.6,0.68,4.721,1.52,4.721,3.361,0,2.04-1.48,3.2-4.961,3.2-3.64,0-5.161-1.16-5.521-4.281h-3.24C180.966,97.482,184.166,99.682,189.407,99.682Zm37.4-10.8c0-5.921-3.321-10.8-9.482-10.8-5.721,0-9.522,4.321-9.522,10.8,0,6.681,3.961,10.8,9.6,10.8a8.612,8.612,0,0,0,8.882-6.761h-3.321a5.3,5.3,0,0,1-5.481,3.841c-3.6,0-6.041-2.12-6.361-6.761h15.683V88.88ZM217.327,81c3.681,0,5.721,2.721,6.041,6.121H211.206C211.726,83.039,214.086,81,217.327,81Zm23-2.921a7.605,7.605,0,0,0-6.481,3.561V78.558h-3.041V99.2h3.2V87.52c0-4.561,3-6.561,5.681-6.561,2.961,0,4.721,1.4,4.721,4.6V99.2h3.2V85.239C247.609,80.678,244.928,78.078,240.327,78.078Zm30.282,10.8c0-5.921-3.321-10.8-9.482-10.8-5.722,0-9.522,4.321-9.522,10.8,0,6.681,3.96,10.8,9.6,10.8a8.613,8.613,0,0,0,8.882-6.761h-3.321a5.3,5.3,0,0,1-5.481,3.841c-3.6,0-6.042-2.12-6.362-6.761h15.684V88.88ZM261.127,81c3.68,0,5.721,2.721,6.041,6.121H255.005C255.525,83.039,257.886,81,261.127,81Zm23.16-2.761a7.211,7.211,0,0,0-6.642,3.961V78.558h-3.04V99.2h3.2V87.44c0-4,2.641-6.081,6.762-6.081h0.8V78.278C284.927,78.238,284.607,78.238,284.287,78.238Zm20.361,0.32v3a8.333,8.333,0,0,0-7.082-3.481c-5.8,0-9.6,4.2-9.6,10.8s3.8,10.8,9.6,10.8a8.344,8.344,0,0,0,6.922-3.281v2c0,4.281-2.281,6.4-6.4,6.4-3.24,0-5.2-1.32-5.6-3.92h-3.2c0.44,4,3.521,6.641,8.8,6.641,6.522,0,9.6-3.761,9.6-9.122V78.558h-3.04ZM297.966,96.8c-4,0-6.641-3.081-6.641-7.922s2.64-7.922,6.641-7.922,6.642,2.921,6.642,7.922S301.967,96.8,297.966,96.8Zm27.8-18.244-2.921,8.562c-1.04,3-2.04,6-2.96,8.962-0.96-2.961-1.921-5.921-2.961-8.922L314,78.558h-3.52l7.761,21.325c-0.24.641-.48,1.321-0.72,1.921a3.616,3.616,0,0,1-3.761,2.56h-1.88v2.681a15.958,15.958,0,0,0,1.92.12c3.281,0,5.4-1.08,6.722-4.721l8.722-23.885h-3.481Zm32.08,10.322c0-5.921-3.321-10.8-9.482-10.8-5.721,0-9.522,4.321-9.522,10.8,0,6.681,3.961,10.8,9.6,10.8a8.612,8.612,0,0,0,8.882-6.761h-3.321a5.3,5.3,0,0,1-5.481,3.841c-3.6,0-6.041-2.12-6.361-6.761h15.683V88.88ZM348.365,81c3.681,0,5.721,2.721,6.041,6.121H342.244C342.764,83.039,345.124,81,348.365,81Zm21.04-7.562h1.84V70.716c-0.48-.04-1.44-0.08-2.04-0.08-4.081,0-5.761,2.16-5.761,5.8v2.121h-3.4v2.8h3.4V99.2h3.2V81.359h4.4v-2.8h-4.4v-2.2C366.644,74.477,367.564,73.437,369.405,73.437Zm7.038,3v2.121h-3.4v2.8h3.4V99.2h3.2V81.359h4.4v-2.8h-4.4v-2.2c0-1.88.92-2.921,2.76-2.921h1.841V70.716c-0.48-.04-1.44-0.08-2.041-0.08C378.124,70.636,376.443,72.8,376.443,76.437Zm12.4-.8a2.16,2.16,0,1,0-2.161-2.16A2.177,2.177,0,0,0,388.846,75.637Zm-1.6,23.565h3.2V78.558h-3.2V99.2ZM404,99.682a8.515,8.515,0,0,0,8.882-7.562h-3.28A5.423,5.423,0,0,1,404,96.8c-3.44,0-6.2-2.521-6.2-7.922s2.681-7.922,6.2-7.922a5.375,5.375,0,0,1,5.562,4.6h3.32c-0.64-4.561-3.96-7.482-8.882-7.482-5.721,0-9.562,4.161-9.562,10.8S398.363,99.682,404,99.682Zm14.079-24.045a2.16,2.16,0,1,0-2.161-2.16A2.177,2.177,0,0,0,418.083,75.637Zm-1.6,23.565h3.2V78.558h-3.2V99.2Zm26.2-10.322c0-5.921-3.32-10.8-9.482-10.8-5.721,0-9.522,4.321-9.522,10.8,0,6.681,3.961,10.8,9.6,10.8a8.612,8.612,0,0,0,8.882-6.761h-3.321a5.3,5.3,0,0,1-5.481,3.841c-3.6,0-6.041-2.12-6.361-6.761h15.683V88.88ZM433.2,81c3.681,0,5.721,2.721,6.041,6.121H427.083C427.6,83.039,429.963,81,433.2,81Zm23-2.921a7.605,7.605,0,0,0-6.481,3.561V78.558h-3.041V99.2h3.2V87.52c0-4.561,3-6.561,5.681-6.561,2.961,0,4.721,1.4,4.721,4.6V99.2h3.2V85.239C463.486,80.678,460.805,78.078,456.2,78.078Zm21.32,3.281v-2.8h-4.241V72.717h-3.2v5.841h-3.4v2.8h3.4V95.041c0,3.161,1.961,4.281,5.161,4.281q0.962,0,2.281-.12V96.522h-1.88c-1.841,0-2.361-.68-2.361-1.76v-13.4h4.241ZM234.167,147.682c5.081,0,8.2-2.24,8.2-6.161,0-3.361-2.04-5.081-7.121-6.081l-1.841-.36c-2.64-.52-4.16-1.241-4.16-3.2,0-1.92,1.56-3.041,4.32-3.041,3.161,0,5.042.881,5.2,4.081h3.2c-0.08-4.4-2.88-6.841-8.4-6.841-4.721,0-7.521,2.32-7.521,5.841,0,3.2,1.96,5.241,6.441,6.081l1.921,0.36c3.6,0.681,4.721,1.521,4.721,3.361,0,2.041-1.481,3.2-4.961,3.2-3.641,0-5.162-1.16-5.522-4.281h-3.24C225.725,145.482,228.925,147.682,234.167,147.682Zm28.481-3.08a0.946,0.946,0,0,1-1.12-1V132.079c0-3.481-2.04-6-7.761-6-6.042,0-8.162,2.84-8.4,6.841h3.2c0.2-3.08,1.681-4.081,5.2-4.081s4.641,1.081,4.641,3.241c0,1.84-1.161,2.6-3.241,2.841l-2.961.32c-5.681.6-7.641,3.16-7.641,6.4,0,3.881,2.8,6.041,7.281,6.041a7.569,7.569,0,0,0,6.722-3.32c0.16,1.96,1.2,2.96,3.48,2.96a12.185,12.185,0,0,0,1.761-.12v-2.6h-1.161Zm-10.642.36c-2.84,0-4.121-1.36-4.121-3.4,0-2,1.04-3.281,4.8-3.721l3-.36a5.332,5.332,0,0,0,2.721-.88v2.441C258.408,143.121,255.087,144.962,252.006,144.962Zm32.72-18.884a8.109,8.109,0,0,0-6.921,3.44v-10.8h-3.2V147.2h3.041V144a8.115,8.115,0,0,0,7.081,3.68c5.8,0,9.6-4.2,9.6-10.8S290.528,126.078,284.726,126.078Zm-0.4,18.724c-4,0-6.641-2.921-6.641-7.922s2.64-7.922,6.641-7.922,6.642,2.761,6.642,7.762S288.327,144.8,284.326,144.8Zm30.882-.2a0.947,0.947,0,0,1-1.121-1V132.079c0-3.481-2.04-6-7.761-6-6.042,0-8.162,2.84-8.4,6.841h3.2c0.2-3.08,1.68-4.081,5.2-4.081s4.641,1.081,4.641,3.241c0,1.84-1.161,2.6-3.241,2.841l-2.961.32c-5.681.6-7.641,3.16-7.641,6.4,0,3.881,2.8,6.041,7.281,6.041a7.569,7.569,0,0,0,6.722-3.32c0.16,1.96,1.2,2.96,3.481,2.96a12.171,12.171,0,0,0,1.76-.12v-2.6h-1.16Zm-10.643.36c-2.84,0-4.121-1.36-4.121-3.4,0-2,1.041-3.281,4.8-3.721l3-.36a5.329,5.329,0,0,0,2.721-.88v2.441C310.967,143.121,307.646,144.962,304.565,144.962Zm24.321-18.884a7.6,7.6,0,0,0-6.321,3.32V118.716h-3.2V147.2h3.2V135.52c0-4.561,3-6.562,5.681-6.562,2.96,0,4.721,1.4,4.721,4.6V147.2h3.2V133.239C336.167,128.678,333.487,126.078,328.886,126.078ZM358.047,144.6a0.946,0.946,0,0,1-1.12-1V132.079c0-3.481-2.04-6-7.762-6-6.041,0-8.161,2.84-8.4,6.841h3.2c0.2-3.08,1.681-4.081,5.2-4.081s4.641,1.081,4.641,3.241c0,1.84-1.16,2.6-3.24,2.841l-2.961.32c-5.681.6-7.642,3.16-7.642,6.4,0,3.881,2.8,6.041,7.282,6.041a7.566,7.566,0,0,0,6.721-3.32c0.16,1.96,1.2,2.96,3.481,2.96a12.171,12.171,0,0,0,1.76-.12v-2.6h-1.16Zm-10.642.36c-2.841,0-4.121-1.36-4.121-3.4,0-2,1.04-3.281,4.8-3.721l3-.36a5.325,5.325,0,0,0,2.72-.88v2.441C353.806,143.121,350.486,144.962,347.405,144.962Zm27.881-18.4-2.92,8.562c-1.041,3-2.041,6-2.961,8.962-0.96-2.961-1.92-5.922-2.961-8.922l-2.92-8.6H360l7.762,21.324c-0.24.641-.48,1.321-0.72,1.921a3.618,3.618,0,0,1-3.761,2.56H361.4v2.681a15.974,15.974,0,0,0,1.921.12c3.28,0,5.4-1.08,6.721-4.721l8.722-23.885h-3.481Z"/>
</svg>
