<svg id="Frame_4" data-name="Frame 4" xmlns="http://www.w3.org/2000/svg" width="600" height="500" viewBox="0 0 600 500">
  <defs>
    <style>
      .cls-1 {
        fill: #4b286d;
        fill-rule: evenodd;
      }
    </style>
  </defs>
  <path id="with_TELUS_smart_plugs_bulbs._" data-name="with TELUS smart  plugs &amp; bulbs. " class="cls-1" d="M171.728,78.558l-2.921,9.322c-0.76,2.48-1.52,4.961-2.2,7.441-0.72-2.48-1.48-4.961-2.241-7.441l-2.88-9.322h-3.361l-2.88,9.322c-0.8,2.52-1.521,5-2.2,7.522-0.72-2.521-1.44-5-2.24-7.522l-2.921-9.322h-3.441L151.324,99.2h3.36l3-9.562c0.72-2.28,1.44-4.681,2.121-7,0.64,2.32,1.36,4.721,2.08,7l3.041,9.562h3.36l6.882-20.644h-3.441Zm7.835-2.921a2.16,2.16,0,1,0-2.16-2.16A2.177,2.177,0,0,0,179.563,75.637Zm-1.6,23.565h3.2V78.558h-3.2V99.2ZM195.2,81.359v-2.8h-4.24V72.717h-3.2v5.841h-3.4v2.8h3.4V95.041c0,3.161,1.96,4.281,5.161,4.281q0.96,0,2.28-.12V96.522h-1.88c-1.84,0-2.36-.68-2.36-1.76v-13.4h4.24Zm13.12-3.281A7.605,7.605,0,0,0,202,81.4V70.716h-3.2V99.2H202V87.52c0-4.561,3-6.561,5.681-6.561,2.961,0,4.721,1.4,4.721,4.6V99.2h3.2V85.239C215.606,80.678,212.925,78.078,208.324,78.078Zm41.322-7.362H226.8v3.041h9.682V99.2h3.481V73.757h9.682V70.716Zm23.4,3.041V70.716h-19.8V99.2h19.644V96.162H256.6V85.879h14.843V82.839H256.6V73.757h16.443Zm7.157,22.4V70.716h-3.361V99.2h17.684V96.162H280.2ZM308.923,99.8c7.121,0,11.2-4.041,11.2-11.162V70.716h-3.361V88.64c0,5.6-2.88,8.122-7.841,8.122s-7.842-2.52-7.842-8.122V70.716H297.72V88.64C297.72,95.762,301.8,99.8,308.923,99.8Zm26.64,0.04c6.841,0,10.682-3.321,10.682-8.362,0-4.121-2.321-6.681-8.882-8.122l-2.521-.56c-5.361-1.2-6.681-2.561-6.681-5.281,0-2.68,2.12-4.4,6.241-4.4,5.682,0,7.4,2.2,7.682,5.881h3.441c-0.12-4.641-2.721-8.922-11.123-8.922-5.921,0-9.722,2.881-9.722,7.442,0,5.2,3.8,7.162,8.642,8.242l2.521,0.56c5.041,1.12,6.921,2.441,6.921,5.161,0,3.521-2.64,5.321-7.2,5.321-4.641,0-8.282-1.72-8.362-7H323.72C323.8,96.922,328.761,99.842,335.563,99.842Zm29.358-.16c5.081,0,8.2-2.24,8.2-6.161,0-3.361-2.04-5.081-7.122-6.081l-1.84-.36c-2.64-.52-4.161-1.24-4.161-3.2,0-1.92,1.561-3.041,4.321-3.041,3.161,0,5.041.88,5.2,4.081h3.2c-0.08-4.4-2.881-6.841-8.4-6.841-4.721,0-7.521,2.321-7.521,5.841,0,3.2,1.96,5.241,6.441,6.081l1.92,0.36c3.6,0.68,4.721,1.52,4.721,3.361,0,2.04-1.48,3.2-4.961,3.2-3.641,0-5.161-1.16-5.521-4.281h-3.241C356.479,97.482,359.68,99.682,364.921,99.682Zm33.323-21.6a7.13,7.13,0,0,0-6.361,3.881,6.465,6.465,0,0,0-6.362-3.881A6.632,6.632,0,0,0,379.56,81.6V78.558h-3.04V99.2h3.2V87.92c0-4.961,2.761-6.962,5.281-6.962,2.681,0,4.321,1.36,4.321,4.561V99.2h3.2V87.92c0-4.961,2.681-6.962,5.281-6.962,2.721,0,4.321,1.36,4.321,4.561V99.2h3.2v-14C405.326,81.2,403.045,78.078,398.244,78.078ZM427.2,96.6a0.946,0.946,0,0,1-1.12-1V84.079c0-3.481-2.041-6-7.762-6-6.041,0-8.162,2.841-8.4,6.841h3.2c0.2-3.081,1.68-4.081,5.2-4.081s4.641,1.08,4.641,3.241c0,1.84-1.16,2.6-3.241,2.841l-2.96.32c-5.681.6-7.642,3.161-7.642,6.4,0,3.881,2.8,6.041,7.282,6.041a7.566,7.566,0,0,0,6.721-3.321c0.16,1.96,1.2,2.961,3.481,2.961a12.171,12.171,0,0,0,1.76-.12V96.6H427.2Zm-10.642.36c-2.841,0-4.121-1.36-4.121-3.4,0-2,1.04-3.281,4.8-3.721l3-.36a5.325,5.325,0,0,0,2.721-.88v2.441C422.962,95.121,419.641,96.962,416.561,96.962Zm24.48-18.724A7.209,7.209,0,0,0,434.4,82.2V78.558h-3.041V99.2h3.2V87.44c0-4,2.64-6.081,6.761-6.081h0.8V78.278C441.681,78.238,441.361,78.238,441.041,78.238Zm13.72,3.121v-2.8H450.52V72.717h-3.2v5.841h-3.4v2.8h3.4V95.041c0,3.161,1.961,4.281,5.161,4.281q0.96,0,2.281-.12V96.522H452.88c-1.84,0-2.36-.68-2.36-1.76v-13.4h4.241Zm-265.237,44.72a8.113,8.113,0,0,0-7.081,3.681v-3.2H179.4v28.486h3.2v-10.8a8.109,8.109,0,0,0,6.921,3.44c5.8,0,9.6-4.2,9.6-10.8S195.326,126.078,189.524,126.078Zm-0.4,18.724c-4,0-6.641-2.921-6.641-7.922s2.64-7.922,6.641-7.922,6.642,2.761,6.642,7.762S193.125,144.8,189.124,144.8Zm18.639,2.52a20.368,20.368,0,0,0,2.041-.12v-2.68h-1.521c-1.52,0-1.96-.68-1.96-1.761V118.716h-3.2v24.325C203.122,146.2,204.882,147.322,207.763,147.322Zm18.642-20.764V138.24c0,4.561-3,6.562-5.681,6.562-2.961,0-4.721-1.4-4.721-4.6V126.558h-3.2v13.963c0,4.561,2.681,7.161,7.282,7.161a7.606,7.606,0,0,0,6.481-3.56v3.08h3.041V126.558h-3.2Zm23.88,0v3a8.33,8.33,0,0,0-7.081-3.481c-5.8,0-9.6,4.2-9.6,10.8s3.8,10.8,9.6,10.8a8.342,8.342,0,0,0,6.921-3.28v2c0,4.281-2.28,6.4-6.4,6.4-3.241,0-5.2-1.32-5.6-3.92h-3.2c0.44,4,3.521,6.641,8.8,6.641,6.521,0,9.6-3.761,9.6-9.122V126.558h-3.041ZM243.6,144.8c-4,0-6.642-3.081-6.642-7.922s2.641-7.922,6.642-7.922,6.641,2.921,6.641,7.922S247.605,144.8,243.6,144.8Zm22,2.88c5.081,0,8.2-2.24,8.2-6.161,0-3.361-2.04-5.081-7.121-6.081l-1.841-.36c-2.64-.52-4.161-1.241-4.161-3.2,0-1.92,1.561-3.041,4.321-3.041,3.161,0,5.041.881,5.2,4.081h3.2c-0.08-4.4-2.881-6.841-8.4-6.841-4.721,0-7.521,2.32-7.521,5.841,0,3.2,1.96,5.241,6.441,6.081l1.92,0.36c3.6,0.681,4.721,1.521,4.721,3.361,0,2.041-1.48,3.2-4.961,3.2-3.641,0-5.161-1.16-5.521-4.281h-3.241C257.161,145.482,260.362,147.682,265.6,147.682Zm43.323-.48-5.521-6.161a19.329,19.329,0,0,0,1.72-7.6h-3.24a15.362,15.362,0,0,1-.8,5l-5.921-6.6c3.6-2.08,5.841-4.681,5.841-7.6,0-4-3.32-6.161-6.961-6.161-4.441,0-7,2.881-7,6.281,0,2.281,1.041,4.2,3.4,6.922-4.241,2.36-6.641,4.6-6.641,8.642,0,4.281,3.2,7.921,8.6,7.921a11.477,11.477,0,0,0,9.2-4l3,3.36h4.321ZM294,120.957a3.455,3.455,0,0,1,3.641,3.4c0,2.2-1.521,3.761-4.361,5.362-1.961-2.2-2.881-3.961-2.881-5.362A3.329,3.329,0,0,1,294,120.957ZM292.6,144.8a5.086,5.086,0,0,1-5.4-5.041c0-3.121,2-4.681,5.122-6.362l7.161,8.042A8.215,8.215,0,0,1,292.6,144.8Zm36.839-18.724a8.109,8.109,0,0,0-6.921,3.44v-10.8h-3.2V147.2h3.041V144a8.115,8.115,0,0,0,7.081,3.68c5.8,0,9.6-4.2,9.6-10.8S335.243,126.078,329.442,126.078Zm-0.4,18.724c-4,0-6.641-2.921-6.641-7.922s2.64-7.922,6.641-7.922,6.642,2.761,6.642,7.762S333.043,144.8,329.042,144.8Zm27.6-18.244V138.24c0,4.561-3,6.562-5.681,6.562-2.961,0-4.721-1.4-4.721-4.6V126.558h-3.2v13.963c0,4.561,2.681,7.161,7.282,7.161a7.606,7.606,0,0,0,6.481-3.56v3.08h3.041V126.558h-3.2Zm12.838,20.764a20.333,20.333,0,0,0,2.04-.12v-2.68H370c-1.521,0-1.961-.68-1.961-1.761V118.716h-3.2v24.325C364.84,146.2,366.6,147.322,369.481,147.322Zm15.161-21.244a8.111,8.111,0,0,0-6.922,3.44v-10.8h-3.2V147.2h3.04V144a8.117,8.117,0,0,0,7.082,3.68c5.8,0,9.6-4.2,9.6-10.8S390.443,126.078,384.642,126.078Zm-0.4,18.724c-4,0-6.642-2.921-6.642-7.922s2.641-7.922,6.642-7.922,6.641,2.761,6.641,7.762S388.243,144.8,384.242,144.8Zm21.279,2.88c5.081,0,8.2-2.24,8.2-6.161,0-3.361-2.041-5.081-7.122-6.081l-1.84-.36c-2.641-.52-4.161-1.241-4.161-3.2,0-1.92,1.56-3.041,4.321-3.041,3.161,0,5.041.881,5.2,4.081h3.2c-0.08-4.4-2.881-6.841-8.4-6.841-4.721,0-7.522,2.32-7.522,5.841,0,3.2,1.961,5.241,6.442,6.081l1.92,0.36c3.6,0.681,4.721,1.521,4.721,3.361,0,2.041-1.48,3.2-4.961,3.2-3.641,0-5.161-1.16-5.521-4.281h-3.241C397.079,145.482,400.28,147.682,405.521,147.682Zm13.4-.2a2.3,2.3,0,0,0,2.28-2.36,2.343,2.343,0,0,0-4.681,0A2.3,2.3,0,0,0,418.92,147.482Z"/>
</svg>
