<svg id="Consideration" xmlns="http://www.w3.org/2000/svg" width="600" height="500" viewBox="0 0 600 500">
  <defs>
    <style>
      .cls-1 {
        fill-rule: evenodd;
      }
    </style>
  </defs>
  <path class="cls-1" d="M73.739,26.538L71.62,39.753,69.5,26.538h-6.85L62.291,43.444h4.2L66.6,27.794l2.887,15.65h4.258l2.89-15.65,0.114,15.65h4.207L80.58,26.538H73.739ZM34.865,30.9a2.11,2.11,0,0,1-.017-0.888,1.386,1.386,0,0,1,1.537-1.14,1.439,1.439,0,0,1,1.56,1.535v1.046h4.188V30.263c0-3.678-3.293-4.264-5.667-4.264-2.983,0-5.419,1-5.865,3.757a5.883,5.883,0,0,0,.033,2.279c0.727,3.456,6.695,4.456,7.562,6.642a2.2,2.2,0,0,1,.033,1.248,1.454,1.454,0,0,1-1.64,1.142,1.5,1.5,0,0,1-1.677-1.539L34.908,37.9H30.4V39.2c0,3.78,2.948,4.916,6.1,4.916,3.034,0,5.525-1.041,5.931-3.87a8.465,8.465,0,0,0-.017-2.767C41.711,33.926,35.343,32.875,34.865,30.9Zm54.6,0.041a2.267,2.267,0,0,1-.014-0.874,1.379,1.379,0,0,1,1.522-1.132,1.422,1.422,0,0,1,1.538,1.522v1.034h4.14V30.31c0-3.642-3.243-4.214-5.592-4.214-2.957,0-5.373.982-5.814,3.722a5.681,5.681,0,0,0,.04,2.253c0.719,3.417,6.628,4.409,7.485,6.57a2.3,2.3,0,0,1,.031,1.239,1.426,1.426,0,0,1-1.618,1.128,1.49,1.49,0,0,1-1.673-1.516l0-1.622H85.057v1.289c0,3.737,2.907,4.864,6.038,4.864,3,0,5.475-1.031,5.873-3.828a8.291,8.291,0,0,0-.029-2.741C96.244,33.949,89.946,32.895,89.47,30.938Zm-41.092-4.4-3.11,16.905H49.8l2.343-15.65,2.287,15.65h4.5l-3.1-16.905H48.378Zm93.532,7.416V36.42h1.721v2.446a3.157,3.157,0,0,1-.043.643,1.81,1.81,0,0,1-3.431,0,4.2,4.2,0,0,1-.044-0.643V31.14a3.461,3.461,0,0,1,.076-0.8,1.756,1.756,0,0,1,3.347,0,4.467,4.467,0,0,1,.052.653v0.938h4.228V31.377a10.218,10.218,0,0,0-.032-1.119c-0.318-3.171-2.913-4.174-5.889-4.174S136.372,27.1,136,30.258c-0.033.289-.084,0.809-0.084,1.119v7.107a9.713,9.713,0,0,0,.067,1.115c0.276,3.084,2.93,4.177,5.9,4.177,2.988,0,5.624-1.093,5.905-4.177,0.05-.565.055-0.805,0.061-1.115v-4.53H141.91ZM127.6,40.149l-3.954-13.611H117.41V43.267h4.122l-0.24-14.046,4.247,14.046h5.975V26.538h-4.148ZM112.754,26.538h-4.246V39.044a3,3,0,0,1-.037.642,1.666,1.666,0,0,1-3.215,0,2.747,2.747,0,0,1-.042-0.642V26.538h-4.245V38.656c-0.006.312,0.019,0.95,0.037,1.118,0.293,3.158,2.765,4.183,5.851,4.183s5.563-1.025,5.862-4.183a8.886,8.886,0,0,0,.035-1.118V26.538ZM59.526,59.224a5.788,5.788,0,0,0-4.509-1.979,6.968,6.968,0,0,0-6.957,7.366,7.053,7.053,0,0,0,6.91,7.341,5.747,5.747,0,0,0,4.557-2.15v1.861h3.238V57.534H59.526v1.69ZM55.5,68.959a4.376,4.376,0,1,1,4.2-4.4A4.267,4.267,0,0,1,55.5,68.959Zm25.9-9.735a5.792,5.792,0,0,0-4.509-1.979,6.968,6.968,0,0,0-6.956,7.366,7.052,7.052,0,0,0,6.908,7.341A5.747,5.747,0,0,0,81.4,69.8v1.861h3.237V57.534H81.4v1.69Zm-4.031,9.735a4.376,4.376,0,1,1,4.2-4.4A4.266,4.266,0,0,1,77.371,68.959Zm30.222-1.908-3.909-9.517h-3.455l5.759,13.38L103.467,77H106.8l7.89-19.466h-3.406ZM99.87,57.534H96.034L92.867,62l-3.191-4.468H85.718L90.8,64.467l-5.278,7.2h3.957l3.335-4.71,3.431,4.71h3.957l-5.374-7.174ZM65,71.663h3.26V53.791H65V71.663ZM37.564,64.936h5.589a4.959,4.959,0,0,1-5.061,3.815,5.869,5.869,0,0,1-.119-11.736,5.41,5.41,0,0,1,5.06,3.067l2.878-1.738a9.063,9.063,0,1,0-7.819,13.6c5.228,0,8.562-4.081,8.562-8.839V61.8H37.564v3.139Zm81.479,3.839,2.975-2.367a4.412,4.412,0,0,0,3.837,2.391,2.419,2.419,0,0,0,2.662-2.367c0-1.5-1.775-1.956-3.645-2.536-2.351-.749-4.965-1.667-4.965-5.023,0-2.826,2.446-5.047,5.8-5.047a7.463,7.463,0,0,1,5.876,2.56L128.9,58.44a3.582,3.582,0,0,0-3.166-1.69c-1.583,0-2.446.869-2.446,2,0,1.4,1.678,1.859,3.573,2.487,2.375,0.773,5.061,1.835,5.061,5.216,0,2.777-2.207,5.482-6.044,5.482A8.592,8.592,0,0,1,119.043,68.776Zm14.294-.169c0-3.019,2.422-4.83,4.605-6.3,1.727-1.208,3.31-2.2,3.31-3.55a2.13,2.13,0,0,0-2.4-2.1c-1.511,0-2.47,1.038-3.07,2.512l-2.806-1.425a6.2,6.2,0,0,1,5.9-3.912c3.55,0,5.685,2.174,5.685,4.951,0,2.8-2.279,4.347-4.365,5.771-1.823,1.232-3.574,2.343-3.6,4.009h7.891V71.7H133.337V68.607Zm12.063,0.87,2.83-2.125a3.2,3.2,0,0,0,2.758,1.594,2.337,2.337,0,0,0,2.591-2.342c0-1.473-1.224-2.439-3-2.439h-1.8V61.145h1.8c1.894,0,2.782-1.087,2.782-2.343a2.183,2.183,0,0,0-2.471-2.125,2.768,2.768,0,0,0-2.662,1.69l-2.782-1.449a6.017,6.017,0,0,1,5.4-3.091c3.405,0,5.684,1.908,5.684,4.951a4.544,4.544,0,0,1-1.991,3.791,4.5,4.5,0,0,1,2.3,4.033c0,3.043-2.062,5.337-5.828,5.337A6.9,6.9,0,0,1,145.4,69.476Zm16.716-.7,2.974-2.367a4.415,4.415,0,0,0,3.838,2.391,2.419,2.419,0,0,0,2.662-2.367c0-1.5-1.775-1.956-3.646-2.536-2.35-.749-4.964-1.667-4.964-5.023,0-2.826,2.446-5.047,5.8-5.047a7.463,7.463,0,0,1,5.876,2.56l-2.686,2.052a3.583,3.583,0,0,0-3.166-1.69c-1.583,0-2.446.869-2.446,2,0,1.4,1.678,1.859,3.573,2.487,2.374,0.773,5.061,1.835,5.061,5.216,0,2.777-2.207,5.482-6.044,5.482A8.592,8.592,0,0,1,162.116,68.776Zm13.847-4.105a7.264,7.264,0,0,1,7.292-7.39,7.032,7.032,0,0,1,7.219,7.269v1.232H179.057a4.38,4.38,0,0,0,8.2.845l2.662,1.545A7.454,7.454,0,0,1,175.963,64.671Zm3.262-1.618h7.963a3.733,3.733,0,0,0-3.933-2.9A4.16,4.16,0,0,0,179.225,63.052Zm12.735-5.482h3.214v2.1a3.58,3.58,0,0,1,3.6-2.1,4.916,4.916,0,0,1,2.471.6l-1.224,3.091a3.265,3.265,0,0,0-1.942-.555c-1.871,0-2.878,1.014-2.878,3.453V71.7H191.96V57.571Zm11.91-5.506a2.041,2.041,0,0,1,0,4.081,1.889,1.889,0,0,1-2.038-2.028A1.92,1.92,0,0,1,203.87,52.065Zm-1.631,5.506H205.5V71.7h-3.262V57.571Zm4.725,7.1a7.263,7.263,0,0,1,7.291-7.39,7.032,7.032,0,0,1,7.219,7.269v1.232H210.057a4.38,4.38,0,0,0,8.2.845l2.662,1.545A7.454,7.454,0,0,1,206.964,64.671Zm3.261-1.618h7.963a3.732,3.732,0,0,0-3.933-2.9A4.16,4.16,0,0,0,210.225,63.052Zm11.783,5.506,3-1.449a3.656,3.656,0,0,0,3.382,2.053c1.583,0,2.4-.8,2.4-1.715,0-1.014-1.559-1.256-3.286-1.618-2.422-.483-4.917-1.3-4.917-4.25,0-2.27,2.159-4.347,5.517-4.323a6.243,6.243,0,0,1,5.732,2.922l-2.758,1.4a3.317,3.317,0,0,0-2.974-1.618c-1.535,0-2.255.724-2.255,1.522,0,0.942,1.128,1.183,3.214,1.642,2.3,0.483,4.941,1.28,4.941,4.25,0,1.98-1.751,4.636-5.756,4.612C225.174,71.987,223.135,70.78,222.008,68.558Z"/>
</svg>
