<svg id="TC" xmlns="http://www.w3.org/2000/svg" width="300" height="250" viewBox="0 0 300 250">
  <defs>
    <style>
      .cls-1 {
        fill: #4c286c;
        fill-rule: evenodd;
      }
    </style>
  </defs>
  <path class="cls-1" d="M95.181,62.428a7.287,7.287,0,0,0,1.061-.961,5.822,5.822,0,0,0,.94-1.4,8.2,8.2,0,0,0,.62-1.744h-1.02V55.772h1.5v1.11l3.42,0.02V54.979h1.52v1.9h3.521V55.653h1.5v2.674h-5.921a5.564,5.564,0,0,1,1.241,1.129h5.14l-0.02,1.446h-4.86V61.14h4.12v1.407h-4.12v0.2h4.12v1.446l-4.1.02v0.2h5.281v1.446H97.1V62.9a4.205,4.205,0,0,0-.761.614v1.188Q95.7,65,94.9,65.46v6.1a1.593,1.593,0,0,1-.441.832,1.33,1.33,0,0,1-.72.436,5.4,5.4,0,0,1-.95.06h-0.73a14.846,14.846,0,0,0-.561-1.446c0.173,0,.467.016,0.88,0.049a2.653,2.653,0,0,0,.88-0.029l0.12-.178v-5.23a3.22,3.22,0,0,0-.34.158c-0.213.106-.4,0.191-0.56,0.258s-0.308.126-.44,0.178L91,65.5a21.159,21.159,0,0,0,2.38-1.149V60.507h-2.06V59.08l2.06-.02V55.237H94.9V59.08h1.359v1.426H94.9v3.308l1.18-.535ZM99.8,71.759l0.02-1.941a6.227,6.227,0,0,1-1.26.5l-0.62-.713,0.02,3.329h-1.5l-0.019-6.894h11.921l0.02,5.071a1.364,1.364,0,0,1-.33.882,1.74,1.74,0,0,1-.79.565,7.136,7.136,0,0,1-1.76.079,8.691,8.691,0,0,1-.48-1.208l-0.04.337H99.8Zm-1.86-4.3v1.525l0.54-.139a5.43,5.43,0,0,0,1.46-.713,1.19,1.19,0,0,0,.48-0.673h-2.48Zm3.5-8-0.46-.238a10.244,10.244,0,0,1,1.2-.852l-3.961-.04a8.909,8.909,0,0,1,1,.356,6.039,6.039,0,0,1-.4.773h2.62ZM98.622,60.9V61.14h3.7V60.923Zm0,1.645v0.218l3.7-.02v-0.2h-3.7Zm0,1.644,0.02,0.218h3.681v-0.2Zm4.841,6.122-0.019-.456h-2.121l-0.02.456h2.16Zm0-1.882a1.355,1.355,0,0,1-.12-0.971h-1.48a2.052,2.052,0,0,1-.08.426,1.386,1.386,0,0,1-.28.545h1.96Zm1.38-.614a0.352,0.352,0,0,0,.241.257l1.76,0.02V67.46h-2v0.356Zm0.141,3.368q0.12,0,.75.059a2.447,2.447,0,0,0,.87-0.02,0.573,0.573,0,0,0,.24-0.337V69.521h-1.86v1.664Zm14.482-13.035q-1.641.2-6.2,0.317L112.364,57a58.61,58.61,0,0,0,7.621-.356,30.481,30.481,0,0,0,6.661-1.367l0.841,1.13a27.01,27.01,0,0,1-6.461,1.565V60.9h5.7v1.446h-5.7V65.38l7.341-.02v1.446h-7.362v4.735a1.333,1.333,0,0,1-1.42,1.585h-2.76L116.264,71.5q2,0.178,2.521.158a0.8,0.8,0,0,0,.51-0.178,0.679,0.679,0,0,0,.17-0.515v-4.16h-7.641L111.8,65.38h7.662l0.02-3.031h-6l-0.02-1.446h6V58.149Zm17.543-1.367,4.821,0.02a1.45,1.45,0,0,1-.1-0.109q-0.06-.069-1.04-0.882l1.381-.713a11.414,11.414,0,0,1,1.48,1.7h5.18v1.387l-11.321-.02V59.5h-6.1l-0.02-1.387h2.76a7.371,7.371,0,0,0-.5-1.03,6.572,6.572,0,0,0-1.04-1.248l1.34-.713a6.986,6.986,0,0,1,.931,1.188,11.38,11.38,0,0,1,.79,1.446l-0.761.317,2.181,0.04Zm0.1,5.23-5.041.02V60.626h5.041v1.387Zm0,2.654h-5.041V63.26h5.041v1.407Zm-0.28,5.488-0.04,2.556h-1.42V71.363h-1.681V72.73h-1.44V66.172h4.541v3.764a8.956,8.956,0,0,0,3.781-1.565l-3.4-.04V66.985h2.821V66.192h-2.041V64.885l2.041-.02V64.251h-2.681l-0.02-1.307h2.68V62.131h-2.22V58.763h4.6v3.368h-0.979a3.94,3.94,0,0,0,0,.813h2.88l0.02-.813-1.041.02V58.763h4.621v3.348h-2.18v0.832h2.68v1.307h-2.7v0.634h2.1v1.327h-2.1v0.773h2.921l0.02,1.327h-1.3l0.92,0.832a8.5,8.5,0,0,1-2,1.545,7.774,7.774,0,0,0,1.661.8,6.5,6.5,0,0,0,1.38.287l-0.64,1.307a9.624,9.624,0,0,1-2.971-1.119,5.516,5.516,0,0,1-2.05-2.05,7.332,7.332,0,0,1-.72-1.585h-0.481a6.252,6.252,0,0,1-1.279,1.228v1.6q1.738-.456,2.52-0.614l0.04,1.328q-3.021.832-4.021,1.228l-0.76-1.188q0.48-.178.59-0.228a0.352,0.352,0,0,0,.15-0.109V70.452a15.671,15.671,0,0,1-2.02.673Zm-3.121-2.634-0.02,2.5h1.641v-2.5h-1.621Zm5.381-6.6h1.9V59.972h-1.9v0.951Zm2.281,3.328v0.634h2.88V64.251h-2.88Zm0.08,1.961v0.773h2.8l0.02-.773h-2.82Zm2.92,2.08a7.082,7.082,0,0,0,.38.842,4.347,4.347,0,0,0,.44.723,8.369,8.369,0,0,0,1.98-1.565h-2.8Zm2.1-8.32H144.61v0.911h1.859V59.972Zm7.062-2.932a14.36,14.36,0,0,0,6.06-1.862l1.161,1.129a16.481,16.481,0,0,1-5.621,2v1.466h4.581v6.28H155.15a16.431,16.431,0,0,1-.97,4.408,10.463,10.463,0,0,1-1.729,2.784l-1.34-.891a10.231,10.231,0,0,0,2.439-7.013Zm1.619,4.22v3.348h3.021V61.3Zm2.882,10.955a8.74,8.74,0,0,0,1.7-2.229,10.165,10.165,0,0,0,.971-2.714,15.614,15.614,0,0,0,.31-3.2l-0.02-6.657a12.463,12.463,0,0,0,3.43-.763,15.81,15.81,0,0,0,3.131-1.535l1.18,1.169a15.373,15.373,0,0,1-6.1,2.4v2.754l6.681,0.04-0.02,1.426-2.72.02,0.02,10.123h-1.581V62.924l-2.361-.02a8.1,8.1,0,0,0-.039.971q0,0.694-.02.951a15.509,15.509,0,0,1-1.8,6.6,7.147,7.147,0,0,1-.75,1c-0.368.429-.557,0.651-0.571,0.664Zm13-5.785a25.893,25.893,0,0,0,3.369-3.537,13.129,13.129,0,0,0,2.052-3.6l-4.2-.02V57.832h4.76c0.054-.132.13-0.353,0.231-0.663s0.283-1.013.55-2.11l1.54,0.337q-0.18.832-.66,2.457h10.181v1.426L178.1,59.3q-0.46,1.307-.72,1.842h9.061V71.264a1.334,1.334,0,0,1-.33.753,1.729,1.729,0,0,1-.711.5,8.056,8.056,0,0,1-1.51.1h-1.15q-0.521-1.069-.7-1.525a14.914,14.914,0,0,0,2.519.1,0.372,0.372,0,0,0,.271-0.109,0.325,0.325,0,0,0,.109-0.228V68.887l-7.541-.02v4.2h-1.58v-9.45a13.067,13.067,0,0,1-.95,1.189q-0.611.694-2.431,2.536Zm6.32,1.01h7.562V65.657l-7.562-.02v1.8Zm0.04-4.853v1.6l7.5,0.02V62.587h-7.5Zm23.744-6.776a55.837,55.837,0,0,1-.3,6.261,1.3,1.3,0,0,0,.01.356,1.318,1.318,0,0,0,.12.337q0.09,0.178.111,0.238a18.232,18.232,0,0,0,2.06,3.863,13.058,13.058,0,0,0,2.54,2.655A14.8,14.8,0,0,0,209,71.442l-1.16,1.287a21.194,21.194,0,0,1-3.1-1.932,13.993,13.993,0,0,1-2.479-2.457,16.121,16.121,0,0,1-2.081-3.6,11.258,11.258,0,0,1-1.43,2.625,16.7,16.7,0,0,1-2.67,2.952,17.44,17.44,0,0,1-3.321,2.348l-1.2-1.168a20.516,20.516,0,0,0,3.64-2.695,18.8,18.8,0,0,0,1.851-1.971,12.507,12.507,0,0,0,1.43-2.347,8.226,8.226,0,0,0,.63-1.862,14.165,14.165,0,0,0,.3-2.05q0.071-1,.091-1.783t0.03-1.714q0.011-.931.01-1.268h1.6ZM116.764,79.684a18.677,18.677,0,0,1-.54,2.348,20.7,20.7,0,0,1-.779,2.209V97h-1.5V86.855q-1.28,1.624-1.58,1.921l-0.42.416-1.12-1.07a16.645,16.645,0,0,0,3.05-4.17,15.607,15.607,0,0,0,1.51-4.884Zm7.662,9.767a7.551,7.551,0,0,0,1.83,2.823,13.321,13.321,0,0,0,3.17,2.149l-1.18,1.11a10.439,10.439,0,0,1-5.2-5.607l-0.04,7.013h-1.519l0.019-6.755a8.98,8.98,0,0,1-1.2,2.12,12.119,12.119,0,0,1-1.791,1.981,10.122,10.122,0,0,1-1.83,1.307l-1.119-1.149a8.749,8.749,0,0,0,1.479-.921,9.37,9.37,0,0,0,1.7-1.7,12.492,12.492,0,0,0,1.48-2.368h-4.081V88h5.361V86.4l-3.96.02V80.04h9.221v6.379h-3.761V88h5.241V89.45h-3.82Zm0.839-7.984h-6.22l0.02,3.507h6.181Zm6.422,13.888c0.133,0,.374.014,0.72,0.04a8.779,8.779,0,0,0,.89.03,2.129,2.129,0,0,0,.651-0.109,0.55,0.55,0,0,0,.2-0.456V90.084a11.033,11.033,0,0,1-1.079.446,11.8,11.8,0,0,1-1.161.366l-1-1.248q0.139-.039,1.43-0.446t1.81-.6V84.4h-2.74V82.992h2.74l-0.02-3.942h1.541v3.942h2.4l0.02,1.407h-2.42v3.685l2.3-.931v1.6l-2.3.852-0.021,5.705a1.472,1.472,0,0,1-.42,1.139,1.708,1.708,0,0,1-1.2.386h-1.861ZM142.428,96.8a10.559,10.559,0,0,1-.58-1.525,19.188,19.188,0,0,0,2.281.1,0.529,0.529,0,0,0,.4-0.337v-4.5h-7.021V89.133h7.021l0.02-1.525h1.521v1.525h2.94V90.54h-2.961v4.814a1.633,1.633,0,0,1-.45.981,2.033,2.033,0,0,1-1.15.485Zm1.581-14.977h3.781V83.23l-3.781.02v2.456l4.881-.02v1.406l-11.022.02V85.686h4.6V83.23h-3.88l0.021-1.406h3.859V79.03h1.541v2.794ZM141.768,94.6a13.764,13.764,0,0,0-3.6-2.4l1-1.09a12.889,12.889,0,0,1,3.621,2.377Zm9.082,1.585a15.571,15.571,0,0,0,1.86-2.07,9.368,9.368,0,0,0,1.211-2.07,8.421,8.421,0,0,0,.509-1.684l-2.76-.019-0.02-1.248a14.432,14.432,0,0,0,2.721-3.823H151.25V83.844h4.8v1.307a22.088,22.088,0,0,1-1.071,2.011,10.486,10.486,0,0,1-1.269,1.753h2.42a24.344,24.344,0,0,1-.38,2.407,6.944,6.944,0,0,1-.62,1.753,7.659,7.659,0,0,0,2.8,1.248,16.84,16.84,0,0,0,3.941.317l5.761-.079,1.6-.059-0.6,1.565h-8.721a9.312,9.312,0,0,1-5.421-1.7,9.094,9.094,0,0,1-.53.8,23.047,23.047,0,0,1-1.51,1.773Zm3.16-12.7A8.063,8.063,0,0,0,151.67,80l1.26-.852a9.8,9.8,0,0,1,2.361,3.526Zm7.4,9.034h-5.441V91.095h5.441v-1.07l-4.361.02,0.02-7.073h4.341V82.061l-5.381.02V80.634l5.381-.02V79.109h1.52v1.506l5.26,0.02v1.426h-5.26v0.911h4.38v7.073l-4.38-.02v1.07h5.621v1.426l-5.621.02v1.922l-1.52.02V92.521Zm-2.84-8.1,0.019,1.367h2.821V84.4Zm0,2.814V88.6h2.84V87.232h-2.84Zm7.24-2.833-2.88.019v1.367h2.861Zm-2.88,2.813V88.6h2.861V87.232Zm8.621-1.625,4.361,0.02v-0.2h-3.36v-3.9h3.36V81.269h-4.021V80.1h4.021l-0.02-.852h1.46V80.1h4.1l-0.02,1.149-4.081.02,0.021,0.237h3.42v1.545a5.085,5.085,0,0,0,1.19-.564,1.523,1.523,0,0,0,.61-0.763q0.041-.357.04-1.724h4.441v1.922a0.3,0.3,0,0,0,.34.337h1.38v1.307h-1.96a1.067,1.067,0,0,1-.57-0.218,1.4,1.4,0,0,1-.411-0.456,1.712,1.712,0,0,1-.149-0.555,6.017,6.017,0,0,1-.03-0.6V81.348h-1.661a2.856,2.856,0,0,1-1.88,2.635L188,84.022v1.209a7.562,7.562,0,0,1-1.8,1.783,14.789,14.789,0,0,0,2.922.971L188.1,89.193a11.4,11.4,0,0,1-3.14-1.387,14.359,14.359,0,0,1-3.241,1.248l-0.88-1.248a12.714,12.714,0,0,0,2.881-.912,6.318,6.318,0,0,1-1.281-1.505h-0.98V84h0.14l-0.8-.673v2.06h-3.441v0.218h4.4v1.229h-4.4v0.752h2.021l-0.021-.575h1.4v1.823h-0.84l0.58,0.475a7.234,7.234,0,0,1-.99.5,6.263,6.263,0,0,1-1.01.337c0.279,0,.87.01,1.77,0.029s1.577,0.023,2.03.01a32.1,32.1,0,0,0,2.8-1.585l1.34,0.971a25.567,25.567,0,0,1-6.2,2.773q1.321,0,4.882-.079a10.173,10.173,0,0,0-1.6-.5c0.2-.211.593-0.575,1.18-1.09a11.035,11.035,0,0,1,4.441,2.813l-1.1,1.01a10.507,10.507,0,0,0-1.161-1.109q-3.5.159-5.521,0.3v1.684a1.491,1.491,0,0,1-.23.793,1.544,1.544,0,0,1-.61.575,1.944,1.944,0,0,1-.56.168,5.238,5.238,0,0,1-.91.029c-0.394-.013-0.67-0.013-0.83,0l-0.7-1.426a18.992,18.992,0,0,0,2.021.079,0.542,0.542,0,0,0,.38-0.218l-0.02-1.6-1.4.079,0.68,0.793a16.945,16.945,0,0,1-2.821,1.139,20.562,20.562,0,0,1-3.72.6q-0.16-.237-0.5-0.683t-0.52-.723a15.467,15.467,0,0,0,6.06-1.07q-2.72.2-3.86,0.357a7.849,7.849,0,0,1-.48-0.753q-0.3-.515-0.481-0.772,2.181-.317,3.461-0.555a22.445,22.445,0,0,0,2.66-.674q-1.76,0-4.36.258l-0.86-1.545a9.833,9.833,0,0,0,4.76-1.347l-5.98-.039V87.014h1.34v0.575h2.02V86.836h-4.341V85.587Zm4.361-2.932h-1.98v0.258h1.98V82.655Zm0,1.327h-1.96V84.24l1.96-.02V83.982Zm3.481-1.347h-2.041l0.021,0.258,2.02,0.02V82.635Zm0,1.367-2.02-.02V84.22h2.02V84Zm9.461,11.451-0.88,1.209a13.448,13.448,0,0,0-6.421-1.585l0.82-1.288A14.57,14.57,0,0,1,188.856,95.453Zm-4.681-10.044q0.1,0.119.371,0.377a3.934,3.934,0,0,0,.47.4l0.54-.386a5.4,5.4,0,0,0,.5-0.386h-1.881Z"/>
</svg>
