<svg id="TC" xmlns="http://www.w3.org/2000/svg" width="300" height="250" viewBox="0 0 300 250">
  <defs>
    <style>
      .cls-1 {
        fill: #4c286c;
        fill-rule: evenodd;
      }
    </style>
  </defs>
  <path class="cls-1" d="M72.531,55.168q0,1.313.051,3.211t0.13,2.873H78.02v1.491H72.851a21.734,21.734,0,0,0,.8,3.817A15.078,15.078,0,0,0,75.884,63.3l1.358,0.577a17.529,17.529,0,0,1-2.994,4.2,9.058,9.058,0,0,0,.8,1.313,15.573,15.573,0,0,0,1.108,1.441q0.329,0.348.408,0.13a11.255,11.255,0,0,0,.5-2.764l1.557,0.6a12.253,12.253,0,0,1-.678,3.28,1.411,1.411,0,0,1-.659.7,2.131,2.131,0,0,1-.739-0.01,3.373,3.373,0,0,1-1.317-.8,10.822,10.822,0,0,1-2.156-2.7A21.167,21.167,0,0,1,69.2,71.751l-1.337-1.114a19.041,19.041,0,0,0,4.511-2.883,24.343,24.343,0,0,1-1.118-4.991H67.423l0.019,2.863,3.034-.775L70.5,66.383l-3.053.815-0.019,4.116a1.584,1.584,0,0,1-.859,1.372,3.225,3.225,0,0,1-.769.169,9.872,9.872,0,0,1-1.247.03q-0.8-.02-1.077,0l-0.559-1.551,2.455,0.06a0.5,0.5,0,0,0,.459-0.517V67.635l-3.493.934-1.118-1.451q2.1-.4,4.591-1.034v-3.32l-4.072-.02-0.02-1.491h4.072V58.39a8.535,8.535,0,0,1-1.537.358,13.432,13.432,0,0,1-1.7.179,12.471,12.471,0,0,0-.938-1.491,16.26,16.26,0,0,0,2.855-.259,13.09,13.09,0,0,0,2.324-.666,24.387,24.387,0,0,0,2.625-1.262l1,1.133q-1.856,1.073-2.306,1.3c-0.3.152-.536,0.262-0.709,0.328v3.241l3.712-.02a59.11,59.11,0,0,1-.12-6.064h1.537ZM74.308,56a9.687,9.687,0,0,1,1.956,1.441,6.505,6.505,0,0,1,1.477,1.919,9.452,9.452,0,0,1-1.278,1.094A5.8,5.8,0,0,0,75.1,58.549a7.763,7.763,0,0,0-2.066-1.392ZM86.6,55.547a38.919,38.919,0,0,1-1.278,3.9V73.1H83.768V62.644q-0.06.1-.359,0.537t-0.539.766q-0.24.328-.459,0.606l-1.4-.755a24.529,24.529,0,0,0,1.428-2.247,25.7,25.7,0,0,0,1.427-2.963q0.678-1.65,1.318-3.6Zm5.808,8.172H88.678L88.657,73.1l-1.537-.04L87.1,56.1H92.39Zm-3.693-1.451h2.135L90.833,60.6H88.718v1.67Zm0.059-4.693V59.2l2.056-.02,0.019-1.63Zm5.409,13.679h0.329q0.19,0,.828.02t0.9,0a0.47,0.47,0,0,0,.329-0.179,0.676,0.676,0,0,0,.13-0.437l-0.02-6.939H93.068V56.1l5.189,0.04L98.278,70.5a3.209,3.209,0,0,1-.19,1.293,1.784,1.784,0,0,1-.569.676,2.742,2.742,0,0,1-.7.249,4.1,4.1,0,0,1-1.049.06,8.183,8.183,0,0,0-.888-0.01Zm0.4-13.719-0.02,1.63H96.7l0.04-1.65ZM94.565,60.6v1.67l2.136,0.02V60.6H94.565Zm11.176-2.266a3.156,3.156,0,0,0-.847-1.173,7.4,7.4,0,0,0-1.547-.895l1.177-.934a4.64,4.64,0,0,1,1.487.954,7.466,7.466,0,0,1,1.227,1.471l-0.9.537,1.377,0.04q0.039-.258.1-0.825t0.16-2.475l1.617,0.278a22.029,22.029,0,0,1-.219,3.042l6.386-.02q-0.38,2.465-.6,3.42l1.736,0.02a21.12,21.12,0,0,1-.519,3.32l1.9,0.02a33.127,33.127,0,0,1-.28,3.619q-0.18,1.292-.28,1.928a5.971,5.971,0,0,1-.339,1.253q-0.639,1.212-2.654,1.053l-1.756-.238-0.18-1.511q0.238,0.04.818,0.119l1.018,0.139a6.509,6.509,0,0,0,.878.06,0.7,0.7,0,0,0,.339-0.159,1.053,1.053,0,0,0,.28-0.318q0.079-.338.179-0.994t0.24-1.909q0.14-1.252.179-1.611l-10.757.02a14.427,14.427,0,0,1-3.692,3.5l-1.117-1.193a17.473,17.473,0,0,0,2.414-1.879,9.688,9.688,0,0,0,1.737-2.1,10.838,10.838,0,0,0,1-1.69h-2.216V61.73l2.8,0.02a14.579,14.579,0,0,0,.638-1.929l-4.71-.02V58.33h2.933Zm-3.352,13.8a11.487,11.487,0,0,0,1.876-2.058,6.7,6.7,0,0,0,.9-2.177l1.377,0.258a5.751,5.751,0,0,1-.4,1.511,7.19,7.19,0,0,1-.679,1.273,12.921,12.921,0,0,1-1.556,1.869Zm5.289,0.1a5.8,5.8,0,0,0-.759-3.957l1.517-.239a7.466,7.466,0,0,1,.838,3.858ZM114.8,65.11c0.013-.053.04-0.162,0.079-0.328s0.093-.454.16-0.865,0.107-.643.12-0.7H108q-0.379.776-1.018,1.869ZM109.154,59.8c0,0.027-.059.292-0.179,0.8a5.625,5.625,0,0,1-.379,1.153l4.909,0.04a9.253,9.253,0,0,0,.229-1.044c0.087-.484.151-0.8,0.19-0.945h-4.77Zm2.1,7.814a6.348,6.348,0,0,1,1.3,3.261l-1.536.418a6.269,6.269,0,0,0-.18-1.352,4.612,4.612,0,0,0-.439-1.133,5.586,5.586,0,0,0-.579-0.855ZM114.224,67a5.505,5.505,0,0,1,1.477,2.863q-0.259.06-.708,0.2c-0.3.093-.53,0.159-0.689,0.2a4.561,4.561,0,0,0-.37-1.223,8.212,8.212,0,0,0-1.087-1.64Zm14.27,0.159a6.241,6.241,0,0,0,.618-1.292l-7.663.02V64.474h16.984v1.372l-7.843.02a13.753,13.753,0,0,1-.48,1.312h6.846v4.2A1.335,1.335,0,0,1,136,72.606a2.251,2.251,0,0,1-.649.149,6.256,6.256,0,0,1-.8.01q-0.448-.02-0.609-0.02l-0.5-1.451q0.18,0,.809.04a3.507,3.507,0,0,0,.888-0.02,0.352,0.352,0,0,0,.3-0.437V68.55h-2.734v3.5h-1.477v-3.5l-2.594.04v3.42l-1.457.02v-3.5l-2.854.02V73.1h-1.457V67.158h5.628Zm8.4-11.095V57.5l-6.167.02-0.019.875h7.3l0.04,2.923-1.5.02-0.02-1.591-5.867.02,0.019,4.493h-1.537l0.021-4.493-5.868-.02,0.02,1.65-1.4.04-0.019-3.022,7.225-.02V57.5h-6.248V56.083Zm-8.641,5.607h-4.431V60.458h4.431V61.67Zm0.019,2.048h-4.45V62.506h4.45v1.213Zm7.684-3.36v1.232h-4.431V60.358h4.431Zm-4.431,3.34V62.486h4.411V63.7h-4.411ZM143.1,64.255l-0.021-5.328,4.112,0.04V57.634l-5.668-.02V56.2h16.964v1.392h-5.608l-0.021,1.372,4.192-.04-0.02,5.328H149.51l0.818,0.656-0.838.915h8.841l-0.02,1.372-3.392.02a10.192,10.192,0,0,1-.989,1.233,8.62,8.62,0,0,1-1.087,1.014,24.018,24.018,0,0,1,3.173,1.233,24.612,24.612,0,0,1,2.335,1.213l-1.077,1.173a32.021,32.021,0,0,0-3.054-1.412,31.022,31.022,0,0,0-3.034-1.074,16.3,16.3,0,0,1-4.131,1.571,28.882,28.882,0,0,1-5.13.815l-1.057-1.392a35.252,35.252,0,0,0,4.281-.437,19.018,19.018,0,0,0,3.582-.994q-1.1-.2-4.71-0.577l2.136-2.346h-4.43V65.826l5.787-.02,1.457-1.531Zm1.516-1.431h2.535l0.04-2.485H144.62v2.485Zm3.593,4.374-1.1,1.193q0.238,0.04,1.087.139t1.407,0.2l1.337,0.239a8.309,8.309,0,0,0,2.156-1.75Zm0.539-9.6v1.333h2.554V57.594h-2.554Zm0,2.744v2.505h2.573l-0.019-2.505h-2.554Zm4.131,0v2.505h2.594l-0.02-2.505h-2.574Zm24.748,10.081a1.184,1.184,0,0,1-.22.636,1.66,1.66,0,0,1-.559.537,9.687,9.687,0,0,1-3.272.219l-0.46-1.372q2.036,0.079,2.246.079H175.8a0.427,0.427,0,0,0,.379-0.238V69.7h-5.588v3.28l-1.557-.02V69.723h-5.19l-0.019,2.346-1.457.02-0.021-3.738h6.667V67.794h-5.488V62.983h5.568a7.023,7.023,0,0,0,1.078-.835l-8.762.7-0.52-1.173q1.539-.039,4.352-0.258V60.776l-3.274-.02-0.04-1.272,3.334-.02-0.02-.319h-4.072V57.813h4.052v-0.4L161.9,57.4,161.883,56.1h3.334V55.188l1.457-.02,0.02,0.954,3.292,0.02V57.4h-3.312v0.417h3.792v1.332h-3.772v0.319h3.292V60.8h-3.292v0.477l3.951-.318,0.12,0.576,0.219-.219,1.238,0.676a7.835,7.835,0,0,1-.659.616,1.42,1.42,0,0,1-.5.338l5.03,0.04v4.811l-5.489.02-0.019.537h7.045v2.068Zm-3.014-5.667V64.315l-9.62.02-0.02.437Zm0.02,1.71V66L165,65.985l-0.02.457Zm-0.958-3.976-0.518-1.313c0.158,0,.452.014,0.878,0.04a5.83,5.83,0,0,0,.977,0,0.508,0.508,0,0,0,.289-0.139,0.5,0.5,0,0,0,.09-0.338l0.02-2.505-4.829.04,0.019-1.392,4.81-.02-0.02-1.75h1.537v1.77h1.776l-0.019,1.412-1.757-.02v2.823a1.28,1.28,0,0,1-.359.875,1.665,1.665,0,0,1-.9.517h-2Zm0.379-1.452a9.963,9.963,0,0,0-1.566-.915,7.409,7.409,0,0,0-1.746-.616l0.838-.994a9.4,9.4,0,0,1,3.293,1.531Zm16.067,7.814-8.343,2.6q-0.2-.318-0.539-0.776T180.8,70.1l1.776-.537L182.6,56.242h6.306l-0.02,11.492,1.238-.457v1.571ZM187.33,61.69l-3.173.04v2.7h3.173V61.69Zm-3.173,7.416,3.173-.915,0.02-2.306h-3.193v3.221Zm3.193-11.413-3.133-.02v2.6l3.113-.02Zm10.877,1.81-0.219,3.857a48.361,48.361,0,0,1-1,7.078,2.916,2.916,0,0,1-.619,1.223,2.093,2.093,0,0,1-1.078.746,3.552,3.552,0,0,1-1.836-.04q-0.879-.179-1.1-0.219L192.2,70.5a18.4,18.4,0,0,0,2.175.5,0.836,0.836,0,0,0,.818-0.3q1-2.107,1.417-9.742l-2.694-.02q-0.021.178-.16,1.7t-0.329,2.585a11.934,11.934,0,0,1-.549,2.038,7.665,7.665,0,0,1-.958,1.809,13.014,13.014,0,0,1-1.847,2.078,19.256,19.256,0,0,1-2.424,1.9l-0.08-.218-0.958-1.074a12.193,12.193,0,0,0,1.846-1.243,14.1,14.1,0,0,0,1.5-1.431,9.275,9.275,0,0,0,1.287-1.909A7.127,7.127,0,0,0,192,64.692q0.279-2.207.379-3.738l-2.794-.02V59.523h2.853q0.081-2.625.061-4.374l1.556,0.02-0.1,4.335h4.27Zm15.069-4.1q-0.06.338-.17,0.775t-0.359,1.193c-0.167.5-.276,0.849-0.33,1.034h5.389q-0.02.457-.04,2.137t-0.06,2.724q-0.039,1.044-.13,2.277t-0.329,2.694a18.094,18.094,0,0,1-.7,2.833,2.882,2.882,0,0,1-.7,1.173,1.779,1.779,0,0,1-.839.5,3.5,3.5,0,0,1-.928,0,19.772,19.772,0,0,1-2.625-.617l-0.259-1.67a14.886,14.886,0,0,0,3.013.835,0.742,0.742,0,0,0,.76-0.358,12.63,12.63,0,0,0,.658-2.347,62.863,62.863,0,0,0,.658-8.788h-4.251a16.075,16.075,0,0,1-2.315,4.156l-1.038-.656v9.166l-1.536.02a7.108,7.108,0,0,1-.02-0.964c0.012-.378.02-0.6,0.02-0.666l-3.353.02v1.61h-1.577V58.728h1.836a12.041,12.041,0,0,0,1.217-3.519l1.438,0.577a12.6,12.6,0,0,1-1.078,2.943h3.053l-0.019,3.917A17.513,17.513,0,0,0,211.7,55.05Zm-9.52,4.732L203.8,64l3.314,0.02V60.139h-3.333Zm3.373,9.305-0.02-4.016-3.313.02v3.977Zm6.526-1.352a17.394,17.394,0,0,0-2.714-4.672L212.2,62.6a17.415,17.415,0,0,1,1.736,2.366,14.847,14.847,0,0,1,1.178,2.485Zm16.964-12.407a56.245,56.245,0,0,1-.3,6.283,1.268,1.268,0,0,0,.01.358,1.253,1.253,0,0,0,.12.338c0.059,0.119.1,0.2,0.11,0.239a18.414,18.414,0,0,0,2.055,3.877,13.091,13.091,0,0,0,2.535,2.664,14.749,14.749,0,0,0,3.313,1.928l-1.157,1.292a21.091,21.091,0,0,1-3.095-1.939,14.031,14.031,0,0,1-2.474-2.465,16.233,16.233,0,0,1-2.076-3.609,11.313,11.313,0,0,1-1.426,2.634,16.743,16.743,0,0,1-2.665,2.962,17.392,17.392,0,0,1-3.313,2.356l-1.2-1.173a20.406,20.406,0,0,0,3.632-2.7,18.771,18.771,0,0,0,1.847-1.978,12.511,12.511,0,0,0,1.427-2.356,8.228,8.228,0,0,0,.628-1.869,14.409,14.409,0,0,0,.3-2.058q0.069-1,.09-1.789t0.029-1.72q0.01-.935.011-1.273h1.6ZM41.417,82.945h2.555l-0.02-3.8h1.557v3.8h2.115l0.02,1.432H45.488v3.559l1.876-.835-0.04,1.611-1.815.815-0.02,5.766a1.394,1.394,0,0,1-.32.855,1.522,1.522,0,0,1-.818.557,7.723,7.723,0,0,1-2.276.119L41.6,95.371q0.3,0,1,.05a3.4,3.4,0,0,0,1-.03,0.376,0.376,0,0,0,.32-0.278,1,1,0,0,0,.06-0.517V90.043A19.112,19.112,0,0,1,42,90.818l-1-1.273q0.3-.1,1.358-0.427a15.669,15.669,0,0,0,1.6-.567l0.02-4.175H41.437Zm4.311,12.944a5.184,5.184,0,0,0,2.055-2.415,7.254,7.254,0,0,0,.5-3.49l1.5,0.2a14.151,14.151,0,0,1-.179,2.366,3.407,3.407,0,0,0,1.1.915,8.842,8.842,0,0,0,1.357.656l-0.02-4.891-4.55-.02V87.8l11.116-.02v1.451H53.531v1.73h3.953v1.471H53.551v2.028q0.24,0.04.918,0.09t1.158,0.039q0.48-.01,3.752-0.129l-0.6,1.551-4.132-.04a10.117,10.117,0,0,1-3.023-.5,6.94,6.94,0,0,1-2.465-1.352,7.306,7.306,0,0,1-1.087,1.78A5.8,5.8,0,0,1,46.766,97ZM48.322,79.9l8.7-.02v6.959L48.3,86.8ZM49.8,81.334v1.252l5.727-.02V81.354Zm0.019,2.7L49.8,85.371h5.727V84.018ZM67.3,79.445a39.888,39.888,0,0,1-1.956,4.673l-0.02,12.8-1.516.02V86.563a16.015,16.015,0,0,1-1.637,2.028l-1.3-.915a17.5,17.5,0,0,0,2.3-2.973,23.153,23.153,0,0,0,1.706-3.241q0.649-1.541,1.009-2.674Zm-1.258,16.4a16.93,16.93,0,0,0,4.311-4.891l1.3,0.835A16.461,16.461,0,0,1,67.2,96.962Zm4.631-16.821L70.655,82.9l3.713,0.04,0.019-3.917h1.537l0.02,3.858,2.275,0.02L78.2,84.416H75.924l0.02,4.335h2.834v1.471l-12.454.02L66.3,88.751H69.1l0.02-4.335-2.195.02,0.02-1.531,2.175,0.04-0.02-3.9Zm0,5.349v4.374h3.653l0.019-4.335Zm3.792,6.72a23.068,23.068,0,0,1,1.8,1.471,13.635,13.635,0,0,1,1.507,1.6,15.118,15.118,0,0,1,1.287,1.839,6.96,6.96,0,0,0-.6.428,8.035,8.035,0,0,1-.659.467,13.573,13.573,0,0,0-1.975-2.634,17.675,17.675,0,0,0-2.635-2.277ZM88.318,93.92V79.386h1.537l0.02,5.766,6.826,0.02V86.6H89.875l-0.02,7.317h8.6v1.471l-16.665-.02V93.92h6.526Zm29.5-13.958,0.019,15.23a1.449,1.449,0,0,1-.359,1.024,1.243,1.243,0,0,1-.958.388h-2.634l-0.519-1.451,2.355,0.08a0.5,0.5,0,0,0,.4-0.149,0.537,0.537,0,0,0,.179-0.407V81.414h-6.945V96.9h-1.516L107.857,91l-1.237.4a3.258,3.258,0,0,0-.12-0.855,37.193,37.193,0,0,0-4.171.7l-1.018-1.392a13,13,0,0,0,3.273-3.718,16.394,16.394,0,0,0-2.655.358l-0.857-1.292a17.967,17.967,0,0,0,2.264-2.8,9.228,9.228,0,0,0,1.268-3.062l1.357,0.6a12.549,12.549,0,0,1-.758,2.028,17.065,17.065,0,0,1-1.976,2.9q1.6-.119,2.156-0.2a7.835,7.835,0,0,0,.578-1.571l1.4,0.616a15.187,15.187,0,0,1-1.617,3.221,12.833,12.833,0,0,1-2.075,2.505,23.752,23.752,0,0,0,2.4-.278,3.877,3.877,0,0,0-.8-1.034l1.377-.437a5.811,5.811,0,0,1,.778,1.263,5.065,5.065,0,0,1,.4,1.4l0.04-10.379h9.96ZM101.072,95.988a11.614,11.614,0,0,0,.878-1.948,7.187,7.187,0,0,0,.319-2.406l1.3,0.338a8.613,8.613,0,0,1-1.217,4.394Zm2.714-.258a5.307,5.307,0,0,0-.16-3.877L105,91.733a5.177,5.177,0,0,1,.409,1.859,6.828,6.828,0,0,1-.189,2Zm2.395-.577a5.253,5.253,0,0,0-.859-3.36l1.338-.318a5.035,5.035,0,0,1,.658,1.531,8.393,8.393,0,0,1,.22,1.829Zm3.253-8.808-0.021-1.452h1.977a4.768,4.768,0,0,0-1.9-2.644l1.158-.676a4.864,4.864,0,0,1,2.016,2.8l-1.018.477,1.078,0.039a6.616,6.616,0,0,0,1.477-3.42l1.457,0.636c-0.067.212-.209,0.6-0.43,1.173a6.813,6.813,0,0,1-.887,1.61h1.836v1.452l-3.752-.02a4.4,4.4,0,0,1,.868.934,5.47,5.47,0,0,1,.648,1.193l-0.379.239,2.415,0.02v1.451h-3.692v1.591a0.525,0.525,0,0,0,.149.387,0.443,0.443,0,0,0,.31.15h2.734L115.5,93.7l-3.233.02a1.458,1.458,0,0,1-1.137-.417,1.64,1.64,0,0,1-.36-1.193l0.02-1.949h-1.1V88.711h2.914a4.388,4.388,0,0,0-1.6-1.81l1-.536Zm15.188,9.205a15.355,15.355,0,0,0,5.709-2.823,15.156,15.156,0,0,1-2.137-2.694,18.038,18.038,0,0,1-1.536-3.191,19.488,19.488,0,0,1-1.138,6.223,15.437,15.437,0,0,1-2.534,3.877q-0.321-.16-0.949-0.537t-0.668-.4a9.786,9.786,0,0,0,3.074-4.971q0.138-.616.289-1.65T125,86.126q0.139-2.525.08-4.294h-2.674V80.32H135.12v1.312q-0.858,1.293-2.595,3.559h3.952a10.45,10.45,0,0,1-1.257,4.136,16.824,16.824,0,0,1-2.535,3.34,16.93,16.93,0,0,0,5.907,2.783l-0.937,1.431a18.182,18.182,0,0,1-6.168-3.121,14.847,14.847,0,0,1-5.887,3.121Zm2.155-12.8q0.24,0.835.639,1.988a32.463,32.463,0,0,0,1.4,3.221,12.1,12.1,0,0,0,.888,1.551,18.23,18.23,0,0,0,1.847,2.147A13.638,13.638,0,0,0,133.4,89.3a10.328,10.328,0,0,0,1.238-2.615H130.39V85.351q1.716-2.148,2.634-3.519h-6.247v0.914Zm22.373-.855q-1.637.2-6.187,0.318l-0.9-1.471a58.136,58.136,0,0,0,7.6-.358,30.254,30.254,0,0,0,6.645-1.372l0.839,1.133a26.8,26.8,0,0,1-6.446,1.571v2.943H156.4v1.451h-5.687v3.042l7.324-.02V90.58h-7.345v4.752a1.335,1.335,0,0,1-1.417,1.591h-2.754l-0.559-1.63q2,0.178,2.515.159a0.792,0.792,0,0,0,.509-0.179,0.683,0.683,0,0,0,.169-0.517V90.58h-7.623l-0.021-1.431h7.644l0.021-3.042h-5.988l-0.02-1.451h5.987V81.891Zm22.174-2.684,1.517,0.02q0,4.335.5,10.12h2.036a11.958,11.958,0,0,0-1.417-1.054l0.758-.656-0.958.179L173.2,86.623a15.307,15.307,0,0,0,2.155-2.665l-1.676.4-0.7-1.133q0.639-.855,1.358-2.018a15.166,15.166,0,0,0,1.077-2.018l1.278,0.835a16.318,16.318,0,0,1-1.757,2.645l1.278-.159q0.138-.2.858-1.412l1.177,0.676a19.35,19.35,0,0,1-3.033,4.394l1.357-.2-0.359-.8,1.117-.517a10.859,10.859,0,0,1,1.238,3.221l-1.3.478a5.005,5.005,0,0,0-.3-1.094l-1.756.238q0.24,0.159.778,0.557a11.916,11.916,0,0,1,1.158.994l-0.24.3h1.477v1.392H173.58a10.863,10.863,0,0,0,.737,2.107,19.866,19.866,0,0,0,2.416-1.929l1,0.954A26.417,26.417,0,0,1,175.116,94a5.018,5.018,0,0,0,.579.527,5.121,5.121,0,0,0,.658.447,0.615,0.615,0,0,0,.479.07,0.413,0.413,0,0,0,.26-0.328l0.419-2.127,1.457,0.6a14.219,14.219,0,0,1-.758,2.525,1.518,1.518,0,0,1-1.078.934,2.215,2.215,0,0,1-1.5-.358,8.83,8.83,0,0,1-1.817-1.471,16.98,16.98,0,0,1-2.185.974,17.68,17.68,0,0,1-2.544.715l-0.739-1.352A13.142,13.142,0,0,0,173,93.662a9.773,9.773,0,0,1-.918-2.923h-2.675l-0.12.755a10.752,10.752,0,0,1,2.734,1.71l-0.817,1.153a8.313,8.313,0,0,0-2.256-1.471,8.028,8.028,0,0,1-2.694,3.678l-1.1-1.133a7.058,7.058,0,0,0,1.217-1.113,5.911,5.911,0,0,0,1.018-1.641,7.161,7.161,0,0,0,.519-1.938h-2.255V89.347h2.315V88.214h1.477v1.133h2.414l-0.1-1.133-1.238.378-0.358-1.074-2.934.437-0.6-1.074A17.948,17.948,0,0,0,168.809,84l-1.656.378-0.5-1.014v1.053h-1.637v1.63l0.38-.358a11.743,11.743,0,0,1,1.875,2.744l-1.077.835a15.27,15.27,0,0,0-1.178-2.028v9.682h-1.5V89.009a22.534,22.534,0,0,1-1.638,3.221l-1.377-.736a18.631,18.631,0,0,0,2.954-7.078h-2.194V83.024l2.255,0.02V79.207h1.5v3.837h1.677a17.63,17.63,0,0,0,2.115-3.738l1.3,0.735a17.75,17.75,0,0,1-1.616,2.7l1.117-.2q0.42-.775.679-1.392l1.117,0.6Zm0.1,2.783a19.99,19.99,0,0,1-2.954,4.434l1.337-.179-0.4-.716,1.218-.537a14.482,14.482,0,0,1,.579,1.352q0.3,0.8.459,1.372Q171.424,84.416,171.424,81.99Zm15.527,1.929a2.7,2.7,0,0,1-.29,1,11.764,11.764,0,0,1-.828,1.491,14.855,14.855,0,0,1-.977,1.382l-0.021.4,0.38,0.06a10.264,10.264,0,0,0,1.457-2.227l1.1,0.895a6.228,6.228,0,0,1-1.4,1.948,8.343,8.343,0,0,1,1.437,1.293l-0.818,1.014a7.885,7.885,0,0,0-1.118-.954,5.291,5.291,0,0,0-1.017-.6v7.217h-1.518V89.128a7.788,7.788,0,0,1-.758.686c-0.332.272-.659,0.514-0.977,0.726l-0.939-1.133a17.51,17.51,0,0,0,2.186-1.829,13.288,13.288,0,0,0,1.617-1.879,9.252,9.252,0,0,0,.888-1.541l-4.192-.02V82.647h5.788v1.272Zm-2.794-1.372a6.964,6.964,0,0,0-2.375-2.783l1.417-.855a7.234,7.234,0,0,1,2.275,2.9Zm13.392,12.367a1.812,1.812,0,0,1-.22.855,1.629,1.629,0,0,1-.479.6,3.245,3.245,0,0,1-.4.179,3.336,3.336,0,0,1-1.087.119q-0.789,0-.969.02l-0.678-1.63a8.869,8.869,0,0,0,1.816.08,0.463,0.463,0,0,0,.4-0.229,0.848,0.848,0,0,0,.12-0.428V92.608l-2.615.02v3.221h-1.5V92.628h-2.574V96.8h-1.5V84.754l4.071-.02,0.021-1.63-4.93.02,0.02-1.451h4.889v-2.6h1.5l0.021,2.6h1.956a6.543,6.543,0,0,0-1.537-1.511l1.337-.736a4.918,4.918,0,0,1,.908.9,7.273,7.273,0,0,1,.868,1.352h1.677v1.451h-5.209l-0.021,1.611h4.112v10.18Zm-8.163-8.708v1.67h2.554v-1.69Zm0,3.042v1.929h2.554V89.248h-2.554Zm6.666-3.062h-2.594v1.67l2.594,0.019v-1.69Zm-2.594,4.991h2.594V89.248l-2.594.02v1.909Zm11.6,1.73a8.211,8.211,0,0,1-2.934,3.877,5.238,5.238,0,0,1-.788-0.458q-0.469-.318-0.629-0.418a10.094,10.094,0,0,0,1.946-1.71A5.757,5.757,0,0,0,203.8,92.15Zm3.892-13.023V91.892l-6.686-.02V79.883h6.686Zm-1.577,3.32V81.374l-3.533-.02V83.2h3.533Zm-3.533,1.431,0.021,1.988h3.512V84.655Zm0,5.766,3.533-.02V88.074l-3.533.02V90.4Zm3.394,1.81a8.908,8.908,0,0,1,2.674,3.678l-0.589.418q-0.448.318-.728,0.477a7.173,7.173,0,0,0-.858-1.829,9.832,9.832,0,0,0-1.817-1.968Zm2.814-3.957h2.415l-0.021-9.285h1.537v4.076h4.77v1.491L214,84.515v3.738h3.372v8.609h-1.5l-0.021-1.412-4.251-.02v1.392h-1.577Zm5.807,1.511-4.251.02v4.2h4.251V89.765Zm8.583-7.913a5.519,5.519,0,0,0-.669-1.1,9.031,9.031,0,0,0-1.127-1.163l1.236-.855a6.2,6.2,0,0,1,2.176,2.9l-0.319.179,3.353,0.04V83.3H220.86V81.851h3.573Zm3.831,3.977-6.486.02V84.376h6.486v1.451ZM221.8,87.021h6.427v1.451h-6.407Zm4.551,9.444-0.021-.954h-2.594v0.954l-1.5.02V89.963l5.608-.02v6.522h-1.5Zm-0.021-5.09-2.594.02v2.665h2.594V91.375Zm6.187-5.03-4.151-.02V84.893h4.172l-0.021-5.925,1.518,0.02,0.019,5.905H238.7v1.432l-4.67.02v10.5h-1.518v-10.5ZM241.1,95.51l12.693-.6v1.253l-11.915.715Zm12.633-6.342H241.2V87.935h5.668v-0.6h-4.131V86.126h4.112l0.019-.5-3.752.02V84.357h3.752v-0.7h-5.249V82.329l5.249,0.02v-0.6l-3.771.02V80.479h3.771V79.127h1.517v1.332l4.012,0.02v1.869h1.317v1.312h-1.317v1.988l-4.012-.02v0.477l4.211,0.02v1.213h-4.211v0.6l5.349-.02v1.253Zm-10.8,5.508V89.8h9.5v4.871h-9.5Zm4.051-3.619H244.45v0.577h2.535V91.057Zm-2.535,2.326h2.575l-0.02-.576h-2.534Zm6.427-11.631h-2.515l0.02,0.6,2.5-.02V81.752Zm-2.5,2.585,2.5,0.02v-0.7h-2.5v0.676Zm0.02,6.72v0.577h2.535V91.057H248.4Zm0,1.75,0.02,0.576,2.515-.02V92.807H248.4Zm9.6-13.6V95.292a1.229,1.229,0,0,1-.28.746,1.77,1.77,0,0,1-.539.507,3.113,3.113,0,0,1-1.436.259q-0.959,0-1.3.019l-0.539-1.55c0.04,0,.355.017,0.947,0.05a5.36,5.36,0,0,0,1.148-.01,0.5,0.5,0,0,0,.349-0.169,0.538,0.538,0,0,0,.131-0.367V79.207H258ZM254.05,81.1h1.518l-0.021,11.592-1.5.02V81.1Z"/>
</svg>
