<svg id="Giraffe" xmlns="http://www.w3.org/2000/svg" width="728" height="90" viewBox="0 0 728 90">
  <defs>
    <style>
      .cls-1 {
        fill: #4c286c;
        fill-rule: evenodd;
      }
    </style>
  </defs>
  <g id="TC">
    <path class="cls-1" d="M333.3,40.006l0.025-1.763-14.781-.025v1.961h-1.9l0.025-19.434L335.2,20.7v19.26Zm-14.756-3.624,14.781-.025-0.05-13.824H318.57Zm2.676-2.78V25.238h9.3v8.339Zm1.926-1.812h5.477L328.6,27.074h-5.477Zm26.585,6.6a7.022,7.022,0,0,1-1.626.943,7.287,7.287,0,0,0-.625-1.216q-2.352,1.043-4.877,2.432-0.3-.2-0.85-0.645t-0.7-.571a2.934,2.934,0,0,0,.6-1.861l0.025-10.35a5.976,5.976,0,0,1-.75.546l-1.451-1.291a11.476,11.476,0,0,0,4.377-7.645l1.675,0.5a1.957,1.957,0,0,1-.075.683,3.357,3.357,0,0,0-.1.41,6.665,6.665,0,0,1,2.3,1.228,9.2,9.2,0,0,1,1.976,2.147l-1.5,1.117-0.225-.422-0.05,1.042h-4.777a4.331,4.331,0,0,1-.7.931c-0.1.058-.166,0.1-0.2,0.112l6.577,0.05v7.843H343.5l0.026,3.5,2.7-1.092a3.189,3.189,0,0,0-.576-0.422q-0.5-.322-0.725-0.5l1.476-1.017A7.512,7.512,0,0,1,349.732,38.392Zm-2.751-10.077H343.53v1.291h3.451V28.315Zm0,2.9H343.53v1.415h3.451V31.22Zm0.3-7.5a5.255,5.255,0,0,0-2.351-1.812,5.485,5.485,0,0,1-.262.633q-0.163.335-.351,0.7t-0.237.459Zm14.206,17.4a10.04,10.04,0,0,0-2.2-1.514,12.136,12.136,0,0,0-3.6-1.067l0.9-1.44h-2.5l0.976,1.142a9.466,9.466,0,0,1-2.751,1.763,15.926,15.926,0,0,1-3.2,1.117,7.676,7.676,0,0,1-.651-0.981q-0.4-.683-0.475-0.782a11.658,11.658,0,0,0,2.376-.608,14.732,14.732,0,0,0,2.976-1.576l-3.1-.05V28.142h10.6l-0.025,8.96H357.06a17.941,17.941,0,0,1,2.738.757,10.58,10.58,0,0,1,2.263,1.154l0.776,0.67Zm-12.33-13.849V25.585h5.452v-0.67h-4.6V20.423l4.6,0.025V18.76h1.85l0.026,1.663h4.6v4.492h-4.627l0.026,0.67h5.852v1.688h-13.18Zm5.452-5.137-2.776-.025v1.117h2.776V22.136Zm4.326,7.644h-6.8l-0.024.72,6.827,0.025V29.78Zm0,2.234h-6.827v0.869l6.827-.025V32.014Zm-6.827,2.333v1.042h6.8l0.025-1.018Zm7.128-12.236-2.777.025v1.092h2.777V22.11Zm14.7,12.336q-0.675-.819-1.513-1.688a8.564,8.564,0,0,0-1.463-1.266v9.655h-1.976V31.765a19.346,19.346,0,0,1-2.851,2.457l-1.426-1.564a31.959,31.959,0,0,0,3.914-3.351,21.542,21.542,0,0,0,2.839-3.7h-6.153l0.051-1.837,8.278,0.025v1.638a22.856,22.856,0,0,1-2.7,4.269l0.026,0.869,0.725-.72a7.827,7.827,0,0,1,1.576,1.055,21.754,21.754,0,0,1,2.151,2.172ZM368.764,18.76a19.342,19.342,0,0,1,1.451,1.725,9.89,9.89,0,0,1,1.225,2.32q-0.225.1-.813,0.422a9.07,9.07,0,0,1-.962.472,11.725,11.725,0,0,0-2.527-4.045Zm11.955,8.116,5.726,0.025-0.05,1.812-5.676-.025,0.049,8.861,6.553,0.025v1.861l-15.08.025-0.026-1.911h6.5V28.688h-5.377V26.851h5.377V18.959l2.05-.025ZM402.3,19.331a40.512,40.512,0,0,0,6.1,4.12,17.767,17.767,0,0,0,4.652,1.638l-1.2,1.639q-0.225-.049-1.675-0.5l-0.025,5.013H392.048V25.983a16.1,16.1,0,0,1-1.6.67l-1.025-1.638a43.228,43.228,0,0,0,7.328-3.537,23.669,23.669,0,0,0,4.3-3.487l1.726,0.943Zm2.926,5.088h-8.154L397.05,23.4a24.838,24.838,0,0,1-3.8,2.01l15.13,0.049a15.326,15.326,0,0,1-1.463-.757q-0.987-.558-1.688-1.03v0.745ZM393.549,40.874V32.162l15.155-.025,0.025,8.737h-1.975V39.658H395.449v1.216h-1.9Zm0.425-13.651v2.258h2.6c-0.033-.033-0.1-0.1-0.2-0.211s-0.355-.335-0.763-0.683l-0.789-.67a6.776,6.776,0,0,1,1.3-.645Zm1.5,7.744,11.33,0.025V33.925h-11.33v1.042Zm11.33,1.762h-11.33V37.9h11.3Zm-10.3-9.506a10.717,10.717,0,0,1,2.176,2.258h1.5l0.025-2.258h-3.7Zm7.327-4.567q-1.95-1.564-2.6-2.184-1.175.944-1.725,1.353t-1.125.781ZM402.076,27.2l-0.024,2.308h1.65a9.766,9.766,0,0,0,1.7-2.308h-3.327Zm4.9,0.745-0.9,1.564h2.151L408.2,27.2h-2.5ZM286.533,69.963h-9.5a15.673,15.673,0,0,1-3.2-.323,10.973,10.973,0,0,1-4.551-2.035,14.265,14.265,0,0,1-1.088,1.415,24.981,24.981,0,0,1-1.763,1.887L265,69.541a20.347,20.347,0,0,0,2.9-3.3,17.987,17.987,0,0,1-2.426-3.946L267,61.425q0.15,0.247.625,1.179t0.75,1.365a5.107,5.107,0,0,0,.5.683,9.228,9.228,0,0,0,.637-1.452,14.031,14.031,0,0,0,.513-3.015h-4.252V58.62a22.183,22.183,0,0,0,2.388-2.929,19.91,19.91,0,0,0,1.739-3.028H265.35l0.025-1.812,6.553,0.025,0.025,1.638a21.321,21.321,0,0,1-3.6,5.858l3.577,0.024a17.345,17.345,0,0,1-1.751,7.6,7.879,7.879,0,0,0,3.226,1.725,22.408,22.408,0,0,0,6.253.484q4-.05,7.628-0.248Zm-8.9-2.159V65.47h-5.677V63.659h5.652l0.025-1.465H272.9V60.407h4.7l0.025-1.464h-4.252V57.131h4.252l-0.025-1.489-5.878-.025V53.83l5.878-.025v-1.34h-4.227V50.678l4.227-.025V48.717h1.9l0.025,1.936,5.426,0.025V53.83h1.626v1.787h-1.626v3.326l-5.451-.025v1.489l5.752-.025v1.812h-5.727l-0.025,1.465h7.1l0.025,1.811-7.127-.024,0.025,2.358h-1.9Zm1.876-15.339V53.83h3.551V52.465h-3.551Zm3.551,4.666V55.617l-3.551.025v1.513Zm29.411,10.747-1.45,1.861-9.429.024c-0.334,0-.717-0.013-1.151-0.037a13.226,13.226,0,0,1-1.4-.162,11.815,11.815,0,0,1-1.388-.31q-0.637-.186-1.088-0.36t-0.763-.323c-0.209-.1-0.387-0.186-0.537-0.26s-0.334-.17-0.551-0.286-0.358-.19-0.425-0.223q-0.225.3-.675,0.831t-1.088,1.192q-0.638.657-1.088,1.08L289.91,69.64q4.251-3.7,4.676-7.172h-3.8l0.05-1.613a20,20,0,0,0,3.626-4.617h-4.2l0.025-1.787,6.4-.025v1.589a18.94,18.94,0,0,1-3.226,4.691h3.276a15.274,15.274,0,0,1-1.5,5.584,13.967,13.967,0,0,0,3.677,1.179,23.58,23.58,0,0,0,4.426.41h9.129Zm-18.282-14.3a9.5,9.5,0,0,0-3.426-3.8l1.725-1.29a6.878,6.878,0,0,1,1.151.931,26.328,26.328,0,0,1,2.326,3.066Zm6.228-.075a10.443,10.443,0,0,1-2.052,2.358l-1.525-1.216a8.708,8.708,0,0,0,3.226-5.237l1.726,0.62a9.193,9.193,0,0,1-.45,1.688h2V48.543l1.9-.024,0.025,3.2h4.752v1.812H305.24v2.506h6.478v1.812l-6.478-.024v1.489h-1.9l0.025-1.465h-6.327V56.039h6.3V53.532Zm9.278,13.8-1.876-.025V66.09l-7.2.025v1.166l-1.925.025V59.787h11.029Zm-9.1-5.708,0.025,2.7h7.2V61.6h-7.228Zm35.864,9.183a45.837,45.837,0,0,1-7.828-1.005,23.513,23.513,0,0,1-4.777-1.65l-0.775.521A17.651,17.651,0,0,1,315.9,71l-1.126-1.663a33.99,33.99,0,0,0,3.514-.782,21.815,21.815,0,0,0,3.764-1.4,16.989,16.989,0,0,1-3.627-3.177l1.451-.968a29.449,29.449,0,0,0,3.651,2.829,6.751,6.751,0,0,0,.863-1.489,7.886,7.886,0,0,0,.513-1.637h-6.8l0.025-9.183H325.3V51.7l-9.8.025V49.958h21.333V51.72l-9.678-.025v1.837H334.1v9.183h-7.3a9.451,9.451,0,0,1-.576,2.2,7.378,7.378,0,0,1-1.05,1.874,12.082,12.082,0,0,0,3.051,1.031,42.854,42.854,0,0,0,4.514.719q2.564,0.285,4.889.335ZM319.971,57.206H325.3V55.319l-5.327-.025v1.912Zm0,3.7,5.177,0.025,0.1-1.961h-5.277V60.9Zm7.152-1.936L327,60.929h5.3V58.967h-5.178Zm5.153-3.673H327.2l-0.025,1.912h5.1V55.294Zm8.378,12.658a13.576,13.576,0,0,0,2.9.943,0.73,0.73,0,0,0,.3-0.013,0.585,0.585,0,0,0,.287-0.186,1.171,1.171,0,0,0,.226-0.372q0.086-.222.337-1.365a27.185,27.185,0,0,0,.65-4.665l-4.6.024a52.155,52.155,0,0,0,.7-7.148h3.852V51.547h-4.827V49.784h6.7l-0.025,7.148-3.827.025q-0.1,1.687-.325,3.6l4.2-.025a29.552,29.552,0,0,1-1.1,8.538,2.319,2.319,0,0,1-.675,1.067,2.118,2.118,0,0,1-1.051.522,10.761,10.761,0,0,1-3.476-.7Zm18.431-2.9a16.127,16.127,0,0,1,3.277,4.816q-0.251.124-.826,0.459a7.385,7.385,0,0,1-.95.484,10.016,10.016,0,0,0-.85-1.986l-11.98,1.217q-0.225-.372-0.537-0.98c-0.21-.405-0.346-0.675-0.413-0.807q0.851,0,1.876-.062t2.7-.237l2.151-.223L353.508,64.4h-4.976l-0.026-6.925h5.053v-2.01q-2.652.173-5.228,0.546L347.306,54.4a20.681,20.681,0,0,0,6.2-6.057q0.326,0.2.851,0.571t0.725,0.5a21.9,21.9,0,0,1-1.913,2.321,14.878,14.878,0,0,1-2.539,2.2q1.125-.023,3.5-0.186t4-.31a10.423,10.423,0,0,0-2.526-1.762l1.65-1.093a19.31,19.31,0,0,1,2.7,2.321,16.149,16.149,0,0,1,2.225,2.792l-1.6.968a9.085,9.085,0,0,0-1.1-1.663l-4.052.323,0.025,2.159h4.9V64.4h-4.977V67.53l3.251-.347a18.183,18.183,0,0,0-1.6-1.539Zm-8.678-2.457,3.152,0.024V59.265h-3.152v3.327Zm5.027-3.3,0.025,3.276,3.1,0.025v-3.3h-3.126Zm11.5-2.681V54.7h7.8a52.311,52.311,0,0,0,.175-6.254,9.642,9.642,0,0,0,1.1.174c0.45,0.049.759,0.091,0.925,0.124a58.678,58.678,0,0,1-.125,5.957h8.953L385.8,56.61h-7.354a21.226,21.226,0,0,0,1.626,5.237,14.408,14.408,0,0,0,2.677,3.8,19.435,19.435,0,0,0,4.176,3.152l-1.351,1.489a27.866,27.866,0,0,1-2.976-2.073,15.283,15.283,0,0,1-2.613-2.668,15.525,15.525,0,0,1-2.026-3.636,23.43,23.43,0,0,1-1.338-5.3,21.375,21.375,0,0,1-3.164,8.178,18.234,18.234,0,0,1-6.315,5.374l-1.425-1.713a15.479,15.479,0,0,0,4.2-2.854,15.655,15.655,0,0,0,2.963-3.946,17.009,17.009,0,0,0,1.688-5.038h-7.628Zm38.69-7.743q-0.075.422-.213,0.967t-0.45,1.489q-0.312.944-.412,1.291h6.752q-0.024.57-.05,2.668t-0.075,3.4q-0.051,1.3-.163,2.842t-0.412,3.363a22.8,22.8,0,0,1-.875,3.537,3.58,3.58,0,0,1-.876,1.464,2.217,2.217,0,0,1-1.05.62,4.446,4.446,0,0,1-1.164,0,24.876,24.876,0,0,1-3.288-.769l-0.325-2.085A18.654,18.654,0,0,0,406.8,68.7a0.928,0.928,0,0,0,.95-0.446,15.592,15.592,0,0,0,.825-2.929,78.179,78.179,0,0,0,.825-10.97h-5.327a20.026,20.026,0,0,1-2.9,5.187l-1.3-.819V70.161l-1.926.024a9.064,9.064,0,0,1-.025-1.2c0.017-.472.025-0.749,0.025-0.832l-4.2.025v2.01h-1.976V53.011h2.3a15,15,0,0,0,1.526-4.393l1.8,0.719a15.7,15.7,0,0,1-1.35,3.673h3.826L399.851,57.9a21.812,21.812,0,0,0,3.777-9.481ZM393.7,54.773l0.025,4.815,4.152,0.025v-4.84H393.7Zm4.227,11.616L397.9,61.375l-4.151.025v4.964ZM406.1,64.7a21.644,21.644,0,0,0-3.4-5.833l1.552-1.018a21.865,21.865,0,0,1,2.175,2.954,18.412,18.412,0,0,1,1.476,3.1Zm17.857-.472q-0.675-.819-1.513-1.687a8.528,8.528,0,0,0-1.463-1.266V70.93h-1.976V61.549a19.381,19.381,0,0,1-2.851,2.457l-1.426-1.564a31.881,31.881,0,0,0,3.914-3.351,21.526,21.526,0,0,0,2.839-3.7h-6.153l0.051-1.837,8.278,0.025V55.22a22.853,22.853,0,0,1-2.7,4.269l0.026,0.869,0.725-.72a7.888,7.888,0,0,1,1.576,1.055,21.9,21.9,0,0,1,2.151,2.172Zm-5.177-15.686a19.38,19.38,0,0,1,1.451,1.725,9.91,9.91,0,0,1,1.225,2.321c-0.15.066-.421,0.207-0.813,0.422a9.17,9.17,0,0,1-.962.472,11.724,11.724,0,0,0-2.527-4.046Zm11.955,8.116,5.726,0.025-0.05,1.812-5.676-.025,0.049,8.86,6.553,0.025v1.862l-15.08.025-0.026-1.912h6.5v-8.86H423.36V56.635h5.377V48.742l2.05-.025ZM462,69.813H444.292a2,2,0,0,1-.912-0.236,1.673,1.673,0,0,1-.738-0.807,2.878,2.878,0,0,1-.275-1.265V51.77l-1.576-.024V49.908l21.083,0.025V51.77H444.268l0.024,15.24a1.023,1.023,0,0,0,.226.745,1.127,1.127,0,0,0,.8.223H462v1.836Zm-9.6-3.45h-7.078V59.489l7.078,0.024v6.851Zm-5.2-5.063v3.251l3.3,0.025-0.025-3.3Zm11.429-3.127-11.254.025,0.025-5.535h11.229v5.51Zm-9.353-1.688h7.452V54.326H449.27v2.159Zm11.554,3v6.8h-7.153v-6.8h7.153Zm-1.876,1.787-3.376.025v3.176l3.351,0.025Z"/>
  </g>
</svg>
