<svg xmlns="http://www.w3.org/2000/svg" width="728" height="90" viewBox="0 0 728 90">
  <defs>
    <style>
      .cls-1 {
        fill: #4c286c;
        fill-rule: evenodd;
      }
    </style>
  </defs>
  <path class="cls-1" d="M302.067,29.642a20.349,20.349,0,0,0,2.078-2.879,21.024,21.024,0,0,0,1.789-3.88,40.607,40.607,0,0,0,1.365-4.857l1.777,0.926a27.69,27.69,0,0,1-.763,2.767q-0.564,1.765-.663,2.115l0.025,16.973H305.7V28.14a27.458,27.458,0,0,1-1.953,2.629Zm13.243-4.807-3.379-.024V21.931h-3.055l0.025-1.752,3.054,0.024V18.3h1.978v1.878h4.606l0.026-1.9h1.9l0.026,1.927h4.081v1.728h-4.081V24.86l-3.28.026v1.051l5.984,0.024-0.026,5.032h-5.958l0.026,1.126h5.932v1.727l-5.883-.024V34.9l5.132,0.024,0.026,1.728-5.158-.026V38l7.861-.05,0.025,1.7-17.123.025v-1.7L315.41,38V36.626l-5.232.05-0.025-1.727h5.182V33.872h-5.908V32.12h5.908V30.993h-5.908V25.937l5.908,0.024Zm-3.931,4.456,3.931-.024v-1.6h-3.955Zm7.16-6.183V21.931h-4.581l-0.025,1.176h4.606Zm-1.327,4.556v1.552l3.981,0.026,0.05-1.552ZM327.426,39.58a14.977,14.977,0,0,0,1.74-1.791,11.44,11.44,0,0,0,1.59-2.541,10.2,10.2,0,0,0,.876-2.879l-3.606.026V30.718a17.2,17.2,0,0,0,1.69-1.965,21.492,21.492,0,0,0,1.765-2.766h-3.729V24.26h5.833v1.677a24.657,24.657,0,0,1-1.478,2.491,25.362,25.362,0,0,1-1.6,2.216h3.13a18.675,18.675,0,0,1-1.278,5.382,6.24,6.24,0,0,0,.989.726,6.57,6.57,0,0,0,1.439.639,11.526,11.526,0,0,0,2.054.413,41.581,41.581,0,0,0,4.681.1l4.029-.051q0.777-.023,2.454-0.113t1.9-.087L349.08,39.6l-10.739.075a10.238,10.238,0,0,1-6.759-2.027,17.4,17.4,0,0,1-1.3,1.627,17.023,17.023,0,0,1-1.551,1.552Zm2.6-21.3a9.508,9.508,0,0,1,.952.926,9.783,9.783,0,0,1,1.1,1.478q0.525,0.851.8,1.377c-0.068.05-.285,0.2-0.652,0.438s-0.668.429-.9,0.563a22.131,22.131,0,0,0-1.215-2.053,8.779,8.779,0,0,0-1.564-1.752ZM343.1,35.224a14.509,14.509,0,0,0,2.879-.05,0.363,0.363,0,0,0,.25-0.2,0.789,0.789,0,0,0,.1-0.4V28.089h-9.963l-0.025,9.063h-1.877V26.312h1.351l0.026-6.934h10.889v6.909l1.5-.024L348.2,34.9a2.214,2.214,0,0,1-.225,1,1.961,1.961,0,0,1-.976.8,10.558,10.558,0,0,1-3.18.25Zm-2.93-12.517h4.682l-0.025-1.527h-7.109v5.107h2.452v-3.58ZM338.115,34.5l-0.025-.2V29.291h6.434V34.5h-6.409Zm1.627-3.5v1.778h3V30.993h-3ZM342,26.287h2.829V24.359L342,24.385v1.9Zm27.637,9.864a7.722,7.722,0,0,0-1.339-1.314,11.908,11.908,0,0,0-1.841-1.139l1.979-1.051a12.842,12.842,0,0,1,3.028,2.7,21.1,21.1,0,0,1,2.654,4.081q-0.225.125-.8,0.5a5.873,5.873,0,0,1-.951.526,19.5,19.5,0,0,0-1.4-2.553l-0.864.074q-0.588.051-5.545,0.451t-8.436,1.027l-1.2-1.8a18.937,18.937,0,0,0,3.642-3.129,24.938,24.938,0,0,0,2.891-3.806h-7.334V28.865l8.711,0.05,0.025-4.556h-6.884l-0.026-1.9,6.885,0.051V18.251l2.053-.025-0.051,4.281,6.86,0.05v1.8h-6.86v4.506h8.738v1.852H363.75a24.172,24.172,0,0,1-5.132,6.359Zm9.513-8.086h19.4v2.078l-19.4.024v-2.1Zm30.39-9.288q-0.024.226-.087,0.551t-0.388,1.4h14.019v1.828l-7.635.05,0.024,3.2h6.384v1.852h-6.384v4.055h8.637v1.853l-8.637-.026v7.21h-1.977V33.572h-9.763V31.694l3.1,0.024V25.811l6.659-.025v-3.2h-5.157a26.7,26.7,0,0,1-1.539,2.742,12.136,12.136,0,0,1-1.916,2.265L403.3,26.312A16.336,16.336,0,0,0,407.934,18Zm-0.776,8.887v4.055h4.707l0.025-4.055h-4.732ZM276.2,48.267q0,1.652.063,4.043t0.162,3.618h6.66v1.878H276.6a27.458,27.458,0,0,0,1,4.806,19.007,19.007,0,0,0,2.8-4.106l1.7,0.727a22.064,22.064,0,0,1-3.755,5.282,11.275,11.275,0,0,0,1,1.653,20.149,20.149,0,0,0,1.389,1.815q0.414,0.439.514,0.162a14.271,14.271,0,0,0,.626-3.479l1.953,0.751a15.417,15.417,0,0,1-.852,4.131,1.768,1.768,0,0,1-.826.876,2.674,2.674,0,0,1-.927-0.013,4.222,4.222,0,0,1-1.651-1.014,13.588,13.588,0,0,1-2.7-3.4,26.572,26.572,0,0,1-4.856,3.154l-1.678-1.4A23.891,23.891,0,0,0,276,64.114a30.826,30.826,0,0,1-1.4-6.284h-4.807l0.026,3.605,3.805-.977,0.025,1.927-3.83,1.027-0.026,5.182a2,2,0,0,1-1.076,1.728,4.07,4.07,0,0,1-.964.212,12.322,12.322,0,0,1-1.564.038q-1-.026-1.353,0l-0.7-1.953,3.079,0.075a0.623,0.623,0,0,0,.576-0.651V63.963L263.4,65.139,262,63.313q2.63-.5,5.758-1.3V57.83l-5.107-.024-0.025-1.878h5.107V52.322a10.63,10.63,0,0,1-1.928.451,16.623,16.623,0,0,1-2.127.225A15.8,15.8,0,0,0,262.5,51.12a20.288,20.288,0,0,0,3.579-.325A16.471,16.471,0,0,0,269,49.957a30.437,30.437,0,0,0,3.292-1.59l1.251,1.428q-2.328,1.351-2.891,1.639t-0.888.414v4.081l4.656-.025a74.253,74.253,0,0,1-.15-7.635H276.2Zm2.228,1.051a12.225,12.225,0,0,1,2.453,1.815,8.16,8.16,0,0,1,1.852,2.416,11.881,11.881,0,0,1-1.6,1.377,7.31,7.31,0,0,0-1.715-2.4,9.723,9.723,0,0,0-2.591-1.752Zm15.421-.576a48.878,48.878,0,0,1-1.6,4.907v17.2h-1.952V57.68c-0.05.083-.2,0.309-0.45,0.676s-0.477.688-.676,0.963-0.393.53-.576,0.764l-1.752-.951a31.117,31.117,0,0,0,1.789-2.828,32.76,32.76,0,0,0,1.791-3.731q0.851-2.077,1.651-4.531Zm7.284,10.289h-4.681l-0.024,11.816-1.929-.05L294.47,49.443H301.1ZM296.5,57.2h2.679l-0.025-2.1H296.5v2.1Zm0.075-5.907v2.052l2.579-.025,0.025-2.053Zm6.785,17.223h0.412c0.159,0,.5.009,1.04,0.025s0.909,0.017,1.126,0a0.592,0.592,0,0,0,.413-0.225,0.848,0.848,0,0,0,.162-0.552l-0.024-8.736h-4.532V49.443l6.509,0.05,0.026,18.075a4.074,4.074,0,0,1-.238,1.627,2.255,2.255,0,0,1-.714.851,3.514,3.514,0,0,1-.876.313,5.141,5.141,0,0,1-1.314.075,10.271,10.271,0,0,0-1.114-.013Zm0.5-17.274L303.832,53.3h2.678l0.051-2.078ZM303.832,55.1v2.1l2.678,0.025V55.1h-2.678Zm26.46,14.57,0.026-1.778-14.8-.024v1.977h-1.9l0.025-19.6,18.55-.05V69.621Zm-14.77-3.655,14.8-.025-0.05-13.944h-14.72Zm2.68-2.8V54.776h9.312v8.412Zm1.927-1.828h5.482l-0.024-4.757H320.1Zm26.61,6.659a7.03,7.03,0,0,1-1.627.951,7.475,7.475,0,0,0-.626-1.227q-2.354,1.052-4.881,2.454-0.3-.2-0.852-0.65l-0.7-.576a2.972,2.972,0,0,0,.6-1.877l0.025-10.439a5.815,5.815,0,0,1-.751.55l-1.451-1.3a11.608,11.608,0,0,0,4.381-7.711l1.677,0.5a2.016,2.016,0,0,1-.076.688,3.285,3.285,0,0,0-.1.413,6.67,6.67,0,0,1,2.3,1.239,9.274,9.274,0,0,1,1.978,2.166l-1.5,1.127-0.225-.425-0.05,1.051H340.08a4.382,4.382,0,0,1-.7.939c-0.1.059-.167,0.1-0.2,0.112l6.584,0.05v7.911h-5.257l0.025,3.529,2.7-1.1a3.291,3.291,0,0,0-.576-0.425c-0.335-.217-0.576-0.384-0.727-0.5l1.478-1.027A7.56,7.56,0,0,1,346.739,68.044Zm-2.753-10.164h-3.455v1.3h3.455v-1.3Zm0,2.93h-3.455v1.427h3.455V60.809Zm0.3-7.561a5.259,5.259,0,0,0-2.354-1.827,5.421,5.421,0,0,1-.262.638q-0.164.339-.351,0.7t-0.237.464ZM358.505,70.8a10.048,10.048,0,0,0-2.2-1.527,12.088,12.088,0,0,0-3.605-1.076l0.9-1.452h-2.5l0.976,1.151a9.436,9.436,0,0,1-2.754,1.778,15.863,15.863,0,0,1-3.2,1.127,7.647,7.647,0,0,1-.652-0.989c-0.267-.46-0.425-0.722-0.475-0.789a11.592,11.592,0,0,0,2.378-.613,14.665,14.665,0,0,0,2.979-1.589l-3.1-.051V57.7h10.614l-0.025,9.038h-3.755a17.819,17.819,0,0,1,2.741.764,10.535,10.535,0,0,1,2.265,1.164l0.777,0.676ZM346.164,56.828v-1.7h5.457V54.45h-4.607v-4.53l4.607,0.024v-1.7h1.852l0.026,1.678h4.6v4.53h-4.631l0.026,0.676h5.857v1.7H346.164Zm5.457-5.182-2.779-.025v1.127h2.779v-1.1Zm4.33,7.711h-6.809l-0.024.726,6.833,0.025V59.357Zm0,2.253h-6.833v0.876l6.833-.026V61.61Zm-6.833,2.353v1.051h6.809l0.024-1.026Zm7.134-12.342-2.779.025v1.1h2.779V51.621Zm15.821,16.5a0.431,0.431,0,0,0,.275-0.25,1.008,1.008,0,0,0,.125-0.5V56a22.716,22.716,0,0,0,6.059-4.381L364.913,51.6V49.719H381.36V51.4a21.682,21.682,0,0,1-6.833,5.583L374.5,68.119a2.122,2.122,0,0,1-.475,1.3,1.67,1.67,0,0,1-1.352.651l-3.68.05-0.9-2h3.981ZM394.4,69.47V72h-1.752V69.446c-3.654-.3-6.207-2.178-6.257-6.232h2.177c0.051,2.852,1.752,4.054,4.08,4.3V60.736l-0.251-.05c-3.028-.676-5.405-1.9-5.405-5.156,0-2.753,2.2-4.5,5.656-4.655v-2.5H394.4V50.95c4.2,0.4,5.556,2.853,5.631,5.506h-2.153c-0.149-1.977-.976-3.278-3.478-3.6v6.207l0.525,0.125c4.105,0.9,5.556,2.5,5.556,5.081C400.482,67.268,398.305,69.3,394.4,69.47Zm-1.752-10.811V52.777c-2.3.125-3.479,1.176-3.479,2.753S389.871,57.958,392.649,58.659Zm5.656,5.606c0-1.627-1.076-2.454-3.9-3.129v6.433C396.879,67.418,398.305,66.317,398.305,64.265Zm9.864,4.83h-2.1V55.805h-4.055V54.154l0.4-.025c2.3-.15,3.6-0.7,4.054-2.854h1.7v17.82Zm2.506-1.3a1.465,1.465,0,0,1,2.928,0A1.464,1.464,0,1,1,410.675,67.793Zm16.494-.6v1.9H415.406l0.05-.976a7.3,7.3,0,0,1,3.879-6.532l2.253-1.3c2.152-1.251,3.128-2.377,3.128-4.255s-1.252-3.253-3.529-3.253c-2.228,0-3.729,1.1-3.729,3.829H415.38c-0.05-3.679,2.178-5.731,5.857-5.731,3.378,0,5.681,2.127,5.681,5.155,0,2.278-1.2,4.155-4.054,5.807l-1.9,1.1c-2.053,1.2-3.054,2.277-3.2,4.255h9.411Zm13.518-3.7a5.8,5.8,0,0,1-6.182,6.007c-3.454,0-5.857-2.152-6.056-5.356h2.1a3.758,3.758,0,0,0,3.954,3.454,4.107,4.107,0,0,0,0-8.209,3.724,3.724,0,0,0-3.654,2.152H428.9l1.5-10.262h9.211v1.9H432.1l-0.851,5.606a5.089,5.089,0,0,1,3.379-1.3A5.673,5.673,0,0,1,440.687,63.489Zm1.7-3.957a31.529,31.529,0,0,0,2.5-3.455,19.83,19.83,0,0,0,1.49-3.017Q447,51.5,447.949,48.016l1.727,0.751a36.6,36.6,0,0,1-1.827,5.808l0.025,16.172L446,70.772V58.105q-0.1.15-.751,0.963t-1.052,1.39Zm5.907,8.562a11.658,11.658,0,0,0,2.955-3.58l1.426,0.951a13.6,13.6,0,0,1-1.1,1.8,11.867,11.867,0,0,1-2.052,2.1Zm13.294-15.646a4.463,4.463,0,0,1-.238.4c-0.109.167-.234,0.35-0.376,0.55s-0.329.46-.563,0.776h5.007l0.024,1.752h-17.1l0.025-1.728h5.181a7.815,7.815,0,0,0-1.677-1.677l1.353-.8-3.705-.05V49.944h5.757a3.336,3.336,0,0,0-.45-0.538,6.984,6.984,0,0,0-.777-0.688l1.878-.9a7.8,7.8,0,0,1,1.427,2.128l6.884-.024,0.025,1.752h-3.83Zm-3.555,14.645a12.294,12.294,0,0,0-3.129-2.378l0.9-.876h-5.031V56.778h12.241v7.059h-6.208a13.516,13.516,0,0,1,2.7,2.028Zm3.029-8.587-8.336.025v0.851l8.336,0.026v-0.9Zm-8.336,2.629v0.951l8.336,0.026V61.134h-8.336Zm9.162,5.333a10.945,10.945,0,0,1-.976,2.078,1.949,1.949,0,0,1-1.778,1.126h-4.355a2.154,2.154,0,0,1-.751-0.162,1.843,1.843,0,0,1-.764-0.576,1.412,1.412,0,0,1-.338-0.914V64.739h1.877l0.026,2.7a0.447,0.447,0,0,0,.2.337,0.491,0.491,0,0,0,.375.138h3.4a0.859,0.859,0,0,0,.639-0.376,7.005,7.005,0,0,0,.814-1.653Zm-8.086-14.795a6.553,6.553,0,0,1,.688.688,7.472,7.472,0,0,1,.764,1.076c0.267,0.443.417,0.688,0.451,0.739h2.352a7.58,7.58,0,0,0,1.8-2.5h-6.059Zm10.614,17.423a11.09,11.09,0,0,0-1.039-1.64,13.894,13.894,0,0,0-2.115-2.115l1.477-1.051a16.53,16.53,0,0,1,1.777,1.677A10.051,10.051,0,0,1,466,68.044Z"/>
</svg>
