<svg xmlns="http://www.w3.org/2000/svg" width="320" height="50" viewBox="0 0 640 100">
  <defs>
    <style>
      .cls-1 {
        fill: #4b286d;
        fill-rule: evenodd;
      }
    </style>
  </defs>
  <path id="TELUS家庭优惠计划_无限流量_节省更多_" data-name="TELUS家庭优惠计划 无限流量 节省更多 " class="cls-1" d="M52.973,17.511H31.861v2.81h8.948V43.837h3.217V20.321h8.948v-2.81Zm21.074,2.81v-2.81h-18.3V43.837H73.9v-2.81H58.851v-9.5H72.568v-2.81H58.851V20.321h15.2Zm6.432,20.706V17.511H77.373V43.837H93.716v-2.81H80.479Zm25.068,3.365c6.581,0,10.353-3.734,10.353-10.316V17.511h-3.106V34.076c0,5.176-2.662,7.506-7.247,7.506S98.3,39.252,98.3,34.076V17.511H95.194V34.076C95.194,40.657,98.966,44.392,105.547,44.392Zm24.439,0.037c6.322,0,9.872-3.069,9.872-7.728,0-3.808-2.145-6.175-8.208-7.506l-2.33-.518c-4.954-1.109-6.175-2.366-6.175-4.881,0-2.477,1.96-4.067,5.768-4.067,5.251,0,6.841,2.034,7.1,5.435h3.179c-0.111-4.289-2.514-8.245-10.279-8.245-5.472,0-8.984,2.662-8.984,6.877,0,4.807,3.512,6.618,7.986,7.617l2.33,0.518c4.658,1.035,6.4,2.255,6.4,4.77,0,3.254-2.44,4.918-6.655,4.918-4.289,0-7.654-1.59-7.728-6.471h-3.217C119.115,41.729,123.7,44.429,129.986,44.429Zm44.181-20.261V17.4h-12.5a12.859,12.859,0,0,0-2.218-2.847,13.173,13.173,0,0,0-2.477-1.96l-2.329,1.738a28.1,28.1,0,0,1,2.939,2.329,5.183,5.183,0,0,1,.573.739H144.811v6.914h2.81V20.1h23.736v4.067h2.81Zm1.775,17.044a10.261,10.261,0,0,1-3.2-2,17.321,17.321,0,0,1-2.829-3.291,14.567,14.567,0,0,1-1.885-3.845,27.05,27.05,0,0,0,4.1-3.7L169.989,26.5q-3.549,4.252-6.84,5.324a9.739,9.739,0,0,0-1.5-2.348,8.754,8.754,0,0,0-1.978-1.793q0.111-.074.869-0.5t1.423-.869a11.976,11.976,0,0,0,1.257-.961h6.8v-2.7H149.174v2.7l9.28,0.037Q153.868,28.161,145,29.566l1.922,2.44a32.255,32.255,0,0,0,10.02-2.921,11.175,11.175,0,0,1,1.848,1.257,24.353,24.353,0,0,1-3.438,2.033,26.06,26.06,0,0,1-4.9,1.793,53.058,53.058,0,0,1-6.156,1.239l1.96,2.4A27.886,27.886,0,0,0,153.74,36a34.335,34.335,0,0,0,6.562-3.549,15.266,15.266,0,0,1,1,2.144,24.45,24.45,0,0,1-7.765,4.492,51.009,51.009,0,0,1-9.982,2.422l2.033,2.551a59.594,59.594,0,0,0,6.156-1.5,38.26,38.26,0,0,0,5.62-2.163,20.435,20.435,0,0,0,4.529-2.921,30.876,30.876,0,0,1-.148,4.954,1.614,1.614,0,0,1-.406.7,2.032,2.032,0,0,1-.666.518,12.375,12.375,0,0,1-2.7-.24,30.922,30.922,0,0,1-3.512-.943l1.146,3.291q4.768,0.887,6.47.259a3.194,3.194,0,0,0,1.645-1.276,7.163,7.163,0,0,0,.869-3.2,21.258,21.258,0,0,0-.018-3.642,27.53,27.53,0,0,0-.536-3.642l1.774-.739a22.142,22.142,0,0,0,1.516,3.309,18.115,18.115,0,0,0,2.828,3.79,11.506,11.506,0,0,0,3.938,2.773Zm36.6-22.257v-2.7H199.493l0.629-.592a14.681,14.681,0,0,0-3.2-2.57,8.868,8.868,0,0,0-2.569-.943l-2.108,2a12.018,12.018,0,0,1,2.773.906,5.034,5.034,0,0,1,1.7,1.2H183.188l-0.3,17.488a17.2,17.2,0,0,1-1,5.361,14.681,14.681,0,0,1-2.7,4.659l1.96,2.329a14.872,14.872,0,0,0,3.531-5.842,27.923,27.923,0,0,0,1.164-8.467l0.111-12.829h26.583Zm1.294,22.812q-7.468.37-13.31,0.148a15.842,15.842,0,0,1-2.773-.388,15.164,15.164,0,0,1-4.362-2.052q2-3.327,2.181-9.8h-4.585A23.18,23.18,0,0,0,193.374,27a25.63,25.63,0,0,0,2.126-3.124l0.074-1.072,1.7,2.329q1.4,0.037,2.921-.074a22.065,22.065,0,0,0,2.477-.3v4.067H196.5v2.7h6.175V36.96h-7.617v2.7h17.636v-2.7h-7.209V31.525h6.285v-2.7h-6.285V24.2a27.884,27.884,0,0,0,6.4-2.514l-1.96-1.923a15.2,15.2,0,0,1-2.662,1.128,31.367,31.367,0,0,1-4.936,1.072,39.338,39.338,0,0,1-6.821.425v-1h-8.8v2.7h5.361a46.918,46.918,0,0,1-4.992,5.546v2.736h5.657a12.846,12.846,0,0,1-.517,2.828,14.307,14.307,0,0,1-.888,2.126L190.49,36q-0.647-1.035-1-1.7c-0.235-.444-0.425-0.838-0.573-1.183l-2.329,1.4a20.844,20.844,0,0,0,3.179,5.139,23.872,23.872,0,0,1-4.88,4.289l1.7,2.181a12.651,12.651,0,0,0,3.161-2.181,21.535,21.535,0,0,0,2.311-2.255,13.766,13.766,0,0,0,8.429,2.81l12.164,0.148Zm32.573-21.444a30,30,0,0,0-2.643-3.013,20.411,20.411,0,0,0-2.866-2.422L238.8,16.7a27.715,27.715,0,0,1,3.494,2.976,13.353,13.353,0,0,1,1.83,2.385Zm0.518,17.155a22.426,22.426,0,0,1-.37,3.919,1.813,1.813,0,0,1-.462.795,1.065,1.065,0,0,1-.573.129h-5.287a0.561,0.561,0,0,1-.462-0.2,0.761,0.761,0,0,1-.167-0.5v-15.2h-2.329l0.111-1.442h11.831v-2.7H237.464V13.113h-2.81v9.169H226.52v2.7h7.986q-0.037,1.257-.24,2.939a26.7,26.7,0,0,1-.463,2.791,23.608,23.608,0,0,1-3.235,8.171,17.013,17.013,0,0,1-5.379,5.1l1.886,2.218a17.422,17.422,0,0,0,4.436-3.586q3.956-4.473,5.176-12.016V42.617q0,2.4,2.514,2.4h7.617a1.973,1.973,0,0,0,1.682-1.257,14.266,14.266,0,0,0,1.165-4.178Zm-21.74-24.7a39.719,39.719,0,0,1-3.476,9.687,34.065,34.065,0,0,1-5.434,8.134l2.4,1.775a21.2,21.2,0,0,0,2.181-2.625q1.331-1.811,1.405-1.923V46.055h2.81V22.171q1.146-2.809,1.682-4.548t1.054-3.734Zm61.041,5.435V15.553H271.774V12.558h-2.81v2.995H254.545v2.662h14.419v1.294H259.2V30.638h9.76v1.738q-12.127.111-14.641,0.074l1.516,2.847q6.1-.185,13.347-0.259l-1.923,1.294a12.406,12.406,0,0,1,5.4,4.7l2.4-1.627c-0.074-.123-0.229-0.351-0.462-0.684a12.168,12.168,0,0,0-.962-1.165,7.975,7.975,0,0,0-1.294-1.146q-0.684-.48-1.479-0.943t-0.979-.573q6.654,0,11.794-.222a16.219,16.219,0,0,1,1.7,2.144l2.478-1.627a15.172,15.172,0,0,0-5.029-4.548h0.777V19.509h-9.835V18.215H286.23Zm1.11,24.291a14.61,14.61,0,0,0-2.718-3.143,15.686,15.686,0,0,0-4.233-2.514l-2.108,1.59a16.006,16.006,0,0,1,6.729,5.768Zm-10.907-4.1a10.446,10.446,0,0,0-.315,1.461,7.936,7.936,0,0,1-.332,1.442,1.25,1.25,0,0,1-.444.61,2.133,2.133,0,0,1-.5.259h-7.284a1.364,1.364,0,0,1-.61-0.444,1.249,1.249,0,0,1-.314-0.629V36.479h-2.921v3.993a8.784,8.784,0,0,0,.259,2.144,4.238,4.238,0,0,0,1.183,1.479,3.289,3.289,0,0,0,1.7.739h5.952a10.776,10.776,0,0,0,3.772-.259,2.952,2.952,0,0,0,.924-0.629,3.316,3.316,0,0,0,.647-0.906,6.734,6.734,0,0,0,.388-1q0.147-.5.314-1.368t0.241-1.165a24.351,24.351,0,0,0-2.662-1.109h0Zm-15.455-1.849a14.731,14.731,0,0,1-7.542,4.622l2.181,2.255a15.9,15.9,0,0,0,4.2-2.144,12.293,12.293,0,0,0,3.161-3.18q-0.408-.369-2-1.553h0Zm17.71-12.977h-6.914v-1.4h6.914v1.4Zm0,4.4h-6.914V26.238h6.914v1.738Zm-6.914,4.252v-1.59l5.62,0.074-0.924.555a10.487,10.487,0,0,0,1.811.85Zm-2.81-8.652h-6.951v-1.4h6.951v1.4Zm0,4.4h-6.951V26.238h6.951v1.738Zm54.35-1.22v-2.7H314.7V13.076h-2.81V24.057h-8.614v2.7h8.614V46.277h2.81V26.756h8.615ZM300.65,18.289a16.41,16.41,0,0,0-2.2-3.032,16.111,16.111,0,0,0-2.829-2.477l-2,1.7a17.153,17.153,0,0,1,4.695,5.583Zm4.51,23.33V38.55l-5.546,3.032V23.132h-8.207v2.7h5.4V41.693a1.768,1.768,0,0,1-.221.924,3.551,3.551,0,0,1-.74.813l1.664,2.366Zm53.647-28.654H356V42.4a0.84,0.84,0,0,1-.24.721,1.628,1.628,0,0,1-.61.24l-3.845-.111,1,2.847q0.369,0,1.664.037a10.982,10.982,0,0,0,1.959-.074,5.121,5.121,0,0,0,1.11-.3,2.814,2.814,0,0,0,1.774-2.81V12.965Zm-19.928,1.294q-0.48.481-2.07,1.738a13.676,13.676,0,0,1,5.361,5.361,9.839,9.839,0,0,0,1.22-.943q0.74-.646,1.035-0.869a15.291,15.291,0,0,0-5.546-5.287h0ZM352,38.365V17.439h-2.81V38.365H352ZM346.385,38q-0.26,1.368-1.184,4.733a0.43,0.43,0,0,1-.332.277,0.87,0.87,0,0,1-.333-0.129,15.4,15.4,0,0,1-4.733-6.4,31.769,31.769,0,0,0,6.582-8.873l-2.219-1.627a39.965,39.965,0,0,1-2.514,4.049,31.459,31.459,0,0,1-2.958,3.642,42.86,42.86,0,0,1-1.811-8.319l10.98-1.627-0.369-2.736-10.907,1.664-0.333-5.324V13.076h-2.921q-0.038,3.106.3,9.983l-5.213.776,0.37,2.662L334,25.757a49.414,49.414,0,0,0,.924,5.065,42.7,42.7,0,0,0,1.4,4.843,33.465,33.465,0,0,1-9.021,4.991l2.181,2.329a25.816,25.816,0,0,0,3.254-1.534q1.626-.906,4.695-3.05a33.909,33.909,0,0,0,3.217,4.917,7.86,7.86,0,0,0,2,2.015,5.842,5.842,0,0,0,1.7.721,2.309,2.309,0,0,0,1.682-.074,2.609,2.609,0,0,0,.869-0.887,17.059,17.059,0,0,0,2.145-6.063ZM63.287,77a32.652,32.652,0,0,1-1,4.7,1.354,1.354,0,0,1-1.146,1.072H54.155A1.414,1.414,0,0,1,53.4,82.4a0.972,0.972,0,0,1-.314-0.739V69.789H64.729v-2.7h-14.9q0.222-5.4.185-8.245h12.5v-2.81H35.188v2.81H47.093q-0.037.962-.019,3.217t0,3.291q-0.019,1.036-.092,1.738H33.192v2.7H46.539a21.522,21.522,0,0,1-5.01,9.1,28.346,28.346,0,0,1-9.262,6.064l2.218,2.292a36.178,36.178,0,0,0,7.672-4.64,19.667,19.667,0,0,0,4.492-5.361,30.726,30.726,0,0,0,2.884-7.45h0.739V82.582a2.592,2.592,0,0,0,.813,1.812,3.6,3.6,0,0,0,1.959,1.072h8.319a3.445,3.445,0,0,0,1.7-.536,3.045,3.045,0,0,0,1.257-1.2,25.107,25.107,0,0,0,1.7-5.361Zm39.524,7.8a15.481,15.481,0,0,1-3.975-2.311,11.37,11.37,0,0,1-2.828-3.2q3.217-2.366,4.455-3.457t1.83-1.645l-2.107-1.922L94.825,77a12.833,12.833,0,0,1-.906-2.366,27.082,27.082,0,0,1-.536-2.958h6.248V55.74H83.955V82.4a2.386,2.386,0,0,1-.518,1.627,4.063,4.063,0,0,1-1.257.961q0.517,0.444,1.386,1.128t0.943,0.721l7.912-3.475v-2.81q-0.037,0-2.44.961t-3.217,1.368v-11.2H90.61a23.032,23.032,0,0,0,1.331,5.953,17.989,17.989,0,0,0,3.7,5.657,14.65,14.65,0,0,0,5.472,3.845Zm-20-12.848a7.413,7.413,0,0,0-1.054-2.865A14.076,14.076,0,0,0,79.37,66.2l3.106-7.8V55.666H72.087V87.314l2.81-.074v-28.8h4.585q-0.74,2.4-3.254,8.245A10.815,10.815,0,0,1,80,72.3a3.791,3.791,0,0,1-.019,2.015,2.43,2.43,0,0,1-.758,1.165,2.02,2.02,0,0,1-.407.222,2.072,2.072,0,0,1-.591.148,2.857,2.857,0,0,1-.721-0.018q-0.388-.056-2.163-0.425l0.665,3.069a7.033,7.033,0,0,0,3.586-.111,4.389,4.389,0,0,0,2-1.4,4.81,4.81,0,0,0,1.146-2.218A8.83,8.83,0,0,0,82.809,71.952Zm14.013-9.705H86.765V58.439H96.821v3.808Zm-0.037,2.7L96.71,68.939l-9.946.074V64.946H96.784Zm42-4.03v-2.7l-10.352-.074,0.591-.333a11.358,11.358,0,0,0-2.107-2.533,7.755,7.755,0,0,0-2.588-1.571l-2.367,1.7a9.124,9.124,0,0,1,4.03,2.81h-9.465v2.7h7.617a13.087,13.087,0,0,1-3.272,4.511,15.749,15.749,0,0,1-4.456,2.921l1.849,2.477q2.625-.517,7.376-1.109t9.114-.961a10.666,10.666,0,0,1,1.331,2.329l2.477-1.664a14.132,14.132,0,0,0-2.681-3.753,15.922,15.922,0,0,0-3.567-2.791l-2.736,1.849a9.12,9.12,0,0,1,3.179,1.664l-10.167,1a12.065,12.065,0,0,0,2.218-2.311,29.859,29.859,0,0,0,2.44-4.159h11.536Zm-1.109,17.3a26.92,26.92,0,0,1-.241,2.865,5.774,5.774,0,0,1-.462,1.9,0.789,0.789,0,0,1-.684.388,1.862,1.862,0,0,1-.961-0.055,1.211,1.211,0,0,1-.555-0.37,0.75,0.75,0,0,1-.129-0.555V71.231h-2.81V82.84a2.717,2.717,0,0,0,1.276,2.514,6.722,6.722,0,0,0,4.011.518,2.444,2.444,0,0,0,1.5-.739,3.567,3.567,0,0,0,.943-1.479,19.5,19.5,0,0,0,.777-4.474Zm-21.3-17.895q-2.773-3.7-5.879-4.511l-2.071,2a9.024,9.024,0,0,1,5.768,4.548Zm11.794,26.361V71.231h-2.81V86.686h2.81ZM115.012,69.124a14.349,14.349,0,0,0-2.773-3.494,9.838,9.838,0,0,0-3.55-2.163L106.545,65.5a10.989,10.989,0,0,1,3.679,2.089,9.769,9.769,0,0,1,2.495,3.272Zm4.658,2.218q-0.038.629,0,2.976a20.608,20.608,0,0,1-.277,4.03,8.2,8.2,0,0,1-1.22,3.05,7.947,7.947,0,0,1-2.2,2.237,12.729,12.729,0,0,1-2.7,1.386l2.033,2.4a12.288,12.288,0,0,0,3.457-2.126A10.4,10.4,0,0,0,120.8,82.84a11.259,11.259,0,0,0,1.109-2.718,15.356,15.356,0,0,0,.481-3.069q0.091-1.608.073-3.512t-0.018-2.2H119.67Zm-6.174.739a25.719,25.719,0,0,1-2.108,7.228,16.713,16.713,0,0,1-4.178,5.638l2.441,1.812q0.664-.666,1.589-1.775a18.961,18.961,0,0,0,2.015-3.161,22.317,22.317,0,0,0,1.757-4.4q0.665-2.347,1.035-4.27Zm57.751-6.766v-9.65H149.655v9.65h21.592Zm4.288,3.254v-2.4H145.44v2.4h30.1Zm1.516,17.377v-2.7H161.893V82.175h11.979v-2.4H161.893V78.81h10.574V69.419H148.582V78.81h10.5v0.961H147.251v2.4h11.832v1.072H144.035v2.7h33.016ZM168.437,59.4H152.465V58.217h15.972V59.4Zm0,3.512H152.465V61.544h15.972v1.368Zm1.22,10.057H161.93l-0.037-1.146h7.764v1.146Zm0,3.439h-7.764V75.039h7.764v1.368ZM159.12,71.823l-0.037,1.146h-7.691V71.823h7.728Zm-0.037,4.585h-7.691l-0.037-1.368h7.728v1.368ZM222.971,60.99V58.328h-9.095V54.113h-2.81v4.215h-7.727V54.113h-2.81v4.215h-8.911l-0.074,2.662h8.985v4.289h2.81V60.99h7.727v4.289h2.81V60.99h9.095Zm-29.319,4.954v2.662h9.206V86.944h2.81V68.606h10.315q-0.074.74-.185,3.272T215.5,75.8a22.485,22.485,0,0,1-.444,2.422,0.9,0.9,0,0,1-.7.518,29.992,29.992,0,0,1-3.993-1.035l0.777,3.069q4.067,0.887,5.25.185a3.382,3.382,0,0,0,1.035-1.054,3.565,3.565,0,0,0,.555-1.35q0.3-2.144.536-5.934t0.314-6.674H193.652Zm66.735-2.662q-4.917-5.471-9.835-7.136l-2.181,1.923a22.212,22.212,0,0,1,9.613,7.173Zm-14.937.259V54.3h-2.81v9.243h2.81Zm-6.988-7.505a27.165,27.165,0,0,1-9.686,7.062l2.292,2.144a27.694,27.694,0,0,0,9.354-7.321ZM255.47,87.5V68.125l-11.351-.074a28.777,28.777,0,0,0,8.319-5.583l-2.07-1.886a22.47,22.47,0,0,1-4.03,3.291,23.834,23.834,0,0,1-4.677,2.255,38.736,38.736,0,0,1-5.9,1.553,79.827,79.827,0,0,1-8.244.887l1.442,2.81q4.066-.333,6.692-0.776V87.5h2.809V85.318h14.2V87.5h2.81Zm-2.81-14.6h-14.2V70.824h14.2v2.071Zm0,4.806h-14.2V75.446h14.2V77.7Zm0,4.917h-14.2V80.252h14.2v2.366Zm46.141,1.7q-3.438-.074-7.228-0.5a62.58,62.58,0,0,1-6.673-1.072,17.76,17.76,0,0,1-4.511-1.534,11.015,11.015,0,0,0,1.553-2.791,14.077,14.077,0,0,0,.85-3.272h10.8V61.433H283.347V58.808h14.271v-2.7H266.081v2.7h14.456v2.625H269.926V75.15h10.056a11.711,11.711,0,0,1-.757,2.44,10.159,10.159,0,0,1-1.276,2.218,43.572,43.572,0,0,1-5.4-4.215l-2.144,1.442a25.175,25.175,0,0,0,5.361,4.732,32.041,32.041,0,0,1-5.565,2.089,49.994,49.994,0,0,1-5.194,1.165l1.663,2.477a25.974,25.974,0,0,0,10.611-3.512l1.147-.776a34.532,34.532,0,0,0,7.061,2.459,67.208,67.208,0,0,0,11.573,1.5Zm-7.875-17.414h-7.579V64.132h7.579v2.773Zm0,5.546h-7.838l0.185-2.847h7.653v2.847Zm-10.389-5.546h-7.8V64.132h7.8v2.773ZM280.5,69.6l-0.148,2.847h-7.616V69.6H280.5Zm53.388-.259h-9.982a17.747,17.747,0,0,0,1.959-2.662L323.684,65.5a26.417,26.417,0,0,0,2.717-2.422,26.1,26.1,0,0,0,2.5-2.828V57.773H318.471a27.1,27.1,0,0,0,2.7-2.958l-2.588-1.368q-5.066,6.175-14.272,8.947l2.441,2.292a39.429,39.429,0,0,0,8.1-4.1h10.168a34.936,34.936,0,0,1-3.439,2.884,32.694,32.694,0,0,1-3.919,2.366,14.658,14.658,0,0,0-1.978-2.052,11.77,11.77,0,0,0-2.163-1.608l-2.588,1.664a12.9,12.9,0,0,1,4.141,3.106,42.319,42.319,0,0,1-5.157,1.7q-3.457.962-6.378,1.627l1.775,2.477a74.29,74.29,0,0,0,10.869-3.309,45.037,45.037,0,0,0,6.914-3.42,26.021,26.021,0,0,1-6.6,5.971,47.03,47.03,0,0,1-9.3,4.455l2.145,2.366a68.279,68.279,0,0,0,7.487-3.66,29.6,29.6,0,0,0,4.2-2.995h9.465a15.674,15.674,0,0,1-1.719,2.385,16.042,16.042,0,0,1-2.7,2.459,30.146,30.146,0,0,1-3.605,2.255,11.55,11.55,0,0,0-3.808-4.03l-2.662,1.516a13.248,13.248,0,0,1,4.067,3.7Q314.107,83.025,303.5,84.8l1.849,2.551a99.942,99.942,0,0,0,10.759-2.44,45.8,45.8,0,0,0,6.525-2.569,27.954,27.954,0,0,0,5.324-3.365,21.772,21.772,0,0,0,3.734-3.753,25.414,25.414,0,0,0,2.2-3.4V69.345Z"/>
</svg>
