<svg id="F2" xmlns="http://www.w3.org/2000/svg" width="728" height="90" viewBox="0 0 1456 180">
  <defs>
    <style>
      .cls-1 {
        fill: #080;
        fill-rule: evenodd;
      }
    </style>
  </defs>
  <g id="BUTTON_copy" data-name="BUTTON copy">
    <path id="了解更多_" data-name="了解更多 " class="cls-1" d="M1325.49,132.935h-14.58v1.62h12.07a20.1,20.1,0,0,1-5.35,3.927v10.074a0.845,0.845,0,0,1-.12.444,0.414,0.414,0,0,1-.26.222h-3.52l0.79,1.775,3.27-.044a1.436,1.436,0,0,0,1.18-.577,1.876,1.876,0,0,0,.41-1.154v-9.874a19.61,19.61,0,0,0,6.11-4.949v-1.464Zm22.01,13.824v-1.6h-3.73v-2.352h2.57v-1.6h-2.57v-2.218h-1.69v2.218h-1.29a9.321,9.321,0,0,0,.16-1.575l-1.66-.133a6.642,6.642,0,0,1-.34,2.352,4.391,4.391,0,0,1-1.13,1.842l1.22,1.265a4.639,4.639,0,0,0,.81-1.054,3.551,3.551,0,0,0,.5-1.1h1.73v2.352h-4.06v1.6h4.06v4.859h1.69v-4.859h3.73Zm-9.37-14.046v1.6h2.44a5.189,5.189,0,0,1-.47,1.708,3.892,3.892,0,0,1-.95,1.176,8.1,8.1,0,0,1-1.62,1.021V137.2h-2.33a23.757,23.757,0,0,0,1.16-3.528h-3.93a12.344,12.344,0,0,0,.29-1.376l-1.49-.6a14.905,14.905,0,0,1-1.3,3.783,11.631,11.631,0,0,1-2.29,3.074l1.35,1.109,0.53-.643v6.9a9.39,9.39,0,0,1-.31,1.653,7.326,7.326,0,0,1-.48,1.276,10.025,10.025,0,0,1-1.14,1.686l1.27,1.154a6.425,6.425,0,0,0,1.51-2.175,11.092,11.092,0,0,0,.82-3.062h1.48v2.8h1.69v-2.8h1.49v2.818c0,0.267-.05.407-0.14,0.422a1.473,1.473,0,0,1-.24.022h-1.33l0.55,1.6h1.07a1.769,1.769,0,0,0,.82-0.222,1.709,1.709,0,0,0,.69-0.71,2.062,2.062,0,0,0,.26-0.954l0.07-10.785,0.67,0.977a6.5,6.5,0,0,0,1.94-1.243,6.23,6.23,0,0,0,1.28-1.775,7.4,7.4,0,0,0,.68-2.285h2.49a12.9,12.9,0,0,1-.47,2.263,1.741,1.741,0,0,1-.21.521,0.362,0.362,0,0,1-.25.089,1.933,1.933,0,0,1-.36-0.011,6.751,6.751,0,0,1-.7-0.222q-0.5-.177-0.9-0.288l0.53,1.841a10.274,10.274,0,0,0,1.38.233,5.051,5.051,0,0,0,.6-0.011,1.286,1.286,0,0,0,.79-0.321,1.668,1.668,0,0,0,.47-0.633,11.111,11.111,0,0,0,.62-2.4c0.2-1.08.32-1.968,0.38-2.663h-8.41Zm-3.84,2.552a9,9,0,0,1-.88,1.93h-2.49a9.067,9.067,0,0,0,.91-1.93h2.46Zm1.56,5.7h-1.49v-2.174h1.49v2.174Zm-3.18,0h-1.46v-2.174h1.46v2.174Zm3.18,3.884h-1.49v-2.286h1.49v2.286Zm-3.18,0h-1.46v-2.286h1.46v2.286Zm36.69,4.926c-1.38-.03-2.82-0.13-4.34-0.3a37.191,37.191,0,0,1-4-.643,10.608,10.608,0,0,1-2.71-.921,6.561,6.561,0,0,0,.93-1.676,8.578,8.578,0,0,0,.51-1.963h6.48v-8.233h-6.15v-1.575h8.57v-1.62h-18.93v1.62h8.68v1.575h-6.37v8.233h6.03a6.787,6.787,0,0,1-.45,1.464,5.782,5.782,0,0,1-.77,1.332,26.774,26.774,0,0,1-3.24-2.53l-1.28.865a15.02,15.02,0,0,0,3.22,2.841,19.422,19.422,0,0,1-3.34,1.253,30,30,0,0,1-3.12.7l1,1.487a15.634,15.634,0,0,0,6.37-2.108l0.68-.466a20.94,20.94,0,0,0,4.24,1.476,40.379,40.379,0,0,0,6.95.9Zm-4.73-10.452h-4.55v-1.664h4.55v1.664Zm0,3.329h-4.7l0.11-1.709h4.59v1.709Zm-6.23-3.329h-4.68v-1.664h4.68v1.664Zm-0.02,1.62-0.09,1.709h-4.57v-1.709h4.66Zm31.76-.155h-6a10.23,10.23,0,0,0,1.18-1.6l-1.31-.71a15.741,15.741,0,0,0,1.63-1.453,14.647,14.647,0,0,0,1.5-1.7v-1.486h-6.26a15.76,15.76,0,0,0,1.62-1.776l-1.55-.821a17.09,17.09,0,0,1-8.57,5.37l1.47,1.376a23.873,23.873,0,0,0,4.86-2.463h6.1a21.882,21.882,0,0,1-2.06,1.731,19.524,19.524,0,0,1-2.36,1.42,8.647,8.647,0,0,0-1.18-1.232,7.26,7.26,0,0,0-1.3-.965l-1.55,1a7.8,7.8,0,0,1,2.48,1.864,25.345,25.345,0,0,1-3.09,1.02c-1.39.385-2.66,0.71-3.83,0.977l1.06,1.486a44.529,44.529,0,0,0,6.53-1.986,27.234,27.234,0,0,0,4.15-2.052,15.627,15.627,0,0,1-3.96,3.583,28.539,28.539,0,0,1-5.59,2.674l1.29,1.42a41.9,41.9,0,0,0,4.5-2.2,17.53,17.53,0,0,0,2.51-1.8h5.68a8.987,8.987,0,0,1-1.03,1.432,9.131,9.131,0,0,1-1.62,1.475,17.6,17.6,0,0,1-2.16,1.354,6.985,6.985,0,0,0-2.29-2.419l-1.59.91a8.048,8.048,0,0,1,2.44,2.219,44.3,44.3,0,0,1-9.94,2.618l1.11,1.531a60.084,60.084,0,0,0,6.45-1.464,27.6,27.6,0,0,0,3.92-1.542,16.819,16.819,0,0,0,3.19-2.02,13.289,13.289,0,0,0,2.25-2.252,16.344,16.344,0,0,0,1.32-2.041V140.79Z"/>
  </g>
</svg>
