<svg id="F1" xmlns="http://www.w3.org/2000/svg" width="728" height="90" viewBox="0 0 1456 180">
  <defs>
    <style>
      .cls-1 {
        fill: #4b286d;
        fill-rule: evenodd;
      }
    </style>
  </defs>
  <path id="流量不够_全家不爽_" data-name="流量不够，全家不爽？ " class="cls-1" d="M100.016,74.924v-4.38l-16.8-.12,0.96-.54a18.439,18.439,0,0,0-3.42-4.11,12.568,12.568,0,0,0-4.2-2.55l-3.84,2.76a14.811,14.811,0,0,1,6.54,4.56H63.9v4.38h12.36a21.228,21.228,0,0,1-5.31,7.32,25.545,25.545,0,0,1-7.23,4.74l3,4.02q4.26-.839,11.97-1.8t14.79-1.56a17.307,17.307,0,0,1,2.16,3.78l4.02-2.7a22.971,22.971,0,0,0-4.35-6.09,25.848,25.848,0,0,0-5.79-4.53l-4.44,3a14.816,14.816,0,0,1,5.16,2.7l-16.5,1.62a19.569,19.569,0,0,0,3.6-3.75,48.5,48.5,0,0,0,3.96-6.75h18.72ZM98.216,103a43.526,43.526,0,0,1-.39,4.65,9.394,9.394,0,0,1-.75,3.09,1.282,1.282,0,0,1-1.11.63,3.03,3.03,0,0,1-1.56-.09,1.969,1.969,0,0,1-.9-0.6,1.22,1.22,0,0,1-.21-0.9V91.664h-4.56V110.5a4.412,4.412,0,0,0,2.07,4.08q2.07,1.26,6.51.84a3.971,3.971,0,0,0,2.43-1.2,5.784,5.784,0,0,0,1.53-2.4,31.62,31.62,0,0,0,1.26-7.26Zm-34.56-29.04q-4.5-6-9.54-7.32l-3.36,3.24a14.646,14.646,0,0,1,9.36,7.38Zm19.14,42.78V91.664h-4.56v25.08H82.8Zm-21.36-28.5a23.262,23.262,0,0,0-4.5-5.67,15.951,15.951,0,0,0-5.76-3.51l-3.48,3.3a17.821,17.821,0,0,1,5.97,3.39,15.864,15.864,0,0,1,4.05,5.31Zm7.56,3.6q-0.06,1.021,0,4.83a33.392,33.392,0,0,1-.45,6.54,13.293,13.293,0,0,1-1.98,4.95,12.879,12.879,0,0,1-3.57,3.63,20.667,20.667,0,0,1-4.38,2.25l3.3,3.9a19.988,19.988,0,0,0,5.61-3.45,16.885,16.885,0,0,0,3.3-3.99,18.236,18.236,0,0,0,1.8-4.41,24.924,24.924,0,0,0,.78-4.98q0.149-2.611.12-5.7t-0.03-3.57H69Zm-10.02,1.2a41.715,41.715,0,0,1-3.42,11.73,27.139,27.139,0,0,1-6.78,9.15l3.96,2.94q1.08-1.08,2.58-2.88a30.817,30.817,0,0,0,3.27-5.13,36.225,36.225,0,0,0,2.85-7.14q1.08-3.81,1.68-6.93Zm93.72-10.98V66.4h-35.04v15.66H152.7Zm6.96,5.28v-3.9h-48.84v3.9h48.84Zm2.46,28.2v-4.38h-24.6v-1.74h19.44v-3.9h-19.44v-1.56h17.16V88.724h-38.76v15.24h17.04v1.56h-19.2v3.9h19.2v1.74h-24.42v4.38h53.58Zm-13.98-43.08h-25.92v-1.92h25.92v1.92Zm0,5.7h-25.92v-2.22h25.92v2.22Zm1.98,16.32h-12.54l-0.06-1.86h12.6v1.86Zm0,5.58h-12.6v-2.22h12.6v2.22Zm-17.1-7.44-0.06,1.86h-12.48v-1.86h12.54Zm-0.06,7.44h-12.48l-0.06-2.22h12.54v2.22Zm88.02-3.54q-9-10.379-18.78-14.82l-3.18,3.18a38.638,38.638,0,0,1,9.57,6,61.246,61.246,0,0,1,8.73,8.76Zm-0.36-24.36V67.6h-50.16v4.56h25.02q-1.44,2.34-4.02,5.94a44.639,44.639,0,0,1-9.39,9.72,78.416,78.416,0,0,1-12.51,7.68l3,3.9q14.04-7.8,19.92-15.3v33.54h4.92V77.984q2.1-2.939,3.84-5.82h19.38Zm59.1,18.96h-11.34l1.32-3.06-2.52-1.56a51.968,51.968,0,0,0,11.28-13.08v-3.84H266.1l1.44-3.96-3.78-2.4a24.71,24.71,0,0,1-1.89,5.28,32.381,32.381,0,0,1-8.37,10.62q-0.06-.779,0-3.39t-0.06-4.35h-15.18a15.016,15.016,0,0,0,.51-2.52q0.27-1.859.45-3.6l-4.08-1.56a62.551,62.551,0,0,1-2.94,12.42,36.374,36.374,0,0,1-6.06,10.02l3.54,2.88a11.9,11.9,0,0,0,2.58-3.12v18.66h4.26V100.9h4.38v3.66h4.26v-22.5h-10.5a13.409,13.409,0,0,0,1.14-2.49q0.72-1.89,1.26-3.81H249q-0.06,1.62-.12,9.27t-0.3,12.81a74.938,74.938,0,0,1-.78,8.43,18.968,18.968,0,0,1-1.26,4.77q-0.78,1.68-1.68,1.56-0.12,0-1.17-.21t-2.01-.45q-0.96-.24-1.89-0.57t-1.71-.63l1.14,5.04q5.16,1.62,7.98.96a3.724,3.724,0,0,0,1.77-1.08,14.511,14.511,0,0,0,2.01-3.18,26.17,26.17,0,0,0,.75-3.39q0.57-3.03.75-5.13l1.2,1.68q8.4-5.16,11.82-10.14h8.94a47.241,47.241,0,0,1-6.24,8.16,10.69,10.69,0,0,0-1.59-2.64,25.659,25.659,0,0,0-2.19-2.58l-3.3,2.76a15.587,15.587,0,0,1,4.26,5.04,35.21,35.21,0,0,1-6.21,4.11,55.528,55.528,0,0,1-7.47,3.27q0.48,0.72,1.47,1.95t1.35,1.71a47.863,47.863,0,0,0,25.2-22.2v-3.96Zm-7.08-17.16a29.8,29.8,0,0,1-5.46,6.66,39.188,39.188,0,0,0-4.02-3.9l-2.82,3.18a30.541,30.541,0,0,1,3.9,3.42q-6.24,5.161-10.92,6.42a35.381,35.381,0,0,0,.15-4.53q-0.03-3.269.03-3.75l1.8,2.04a43.824,43.824,0,0,0,5.04-4.71,28.86,28.86,0,0,0,3.72-4.83h8.58Zm-12.9,21.57a28.4,28.4,0,0,1-6.84,5.25q0.06-.96.27-4.14t0.27-4.62l1.26,2.4a70.933,70.933,0,0,0,9.96-5.88A25.576,25.576,0,0,1,259.736,95.534Zm-18.84,1.23h-4.38V86.2h4.38v10.56Zm77.34-11.04h-6.6v6.6h3.24a5.942,5.942,0,0,1-3.6,5.94l1.74,2.22a8.61,8.61,0,0,0,3.09-2.34,8.856,8.856,0,0,0,1.65-3.03,10.662,10.662,0,0,0,.48-3.09v-6.3Zm83.16,0.24a66.048,66.048,0,0,1-7.71-3.15,47.969,47.969,0,0,1-7.62-4.47,35.655,35.655,0,0,1-5.46-4.74,28.316,28.316,0,0,1-3.27-4.26l1.08-1.8-4.38-1.98a43.878,43.878,0,0,1-6.69,8.64,49.98,49.98,0,0,1-8.82,7.05,49.421,49.421,0,0,1-10.83,5.07l2.7,4.08a64.954,64.954,0,0,0,7.5-3.3v2.16h14.4v8.28h-12.42v4.38H372.3v8.82h-21.36v4.38h47.58v-4.38h-21.66v-8.82h12.42v-4.38h-12.42v-8.28h14.1v-2.4q5.16,2.281,7.8,3.24Zm-39.9-1.2a40.764,40.764,0,0,0,12.84-11.46,36.382,36.382,0,0,0,13.62,11.58Zm97.98-2.94V70.844H439.2a20.881,20.881,0,0,0-3.6-4.62,21.341,21.341,0,0,0-4.02-3.18l-3.78,2.82a45.353,45.353,0,0,1,4.77,3.78,8.315,8.315,0,0,1,.93,1.2h-21.66v11.22h4.56v-6.84h38.52v6.6h4.56Zm2.88,27.66a16.7,16.7,0,0,1-5.19-3.24,28.18,28.18,0,0,1-4.59-5.34,23.684,23.684,0,0,1-3.06-6.24,43.817,43.817,0,0,0,6.66-6L452.7,85.6q-5.76,6.9-11.1,8.64a15.807,15.807,0,0,0-2.43-3.81,14.161,14.161,0,0,0-3.21-2.91q0.18-.119,1.41-0.81t2.31-1.41a19.527,19.527,0,0,0,2.04-1.56h11.04v-4.38h-33.84v4.38l15.06,0.06q-7.44,4.5-21.84,6.78l3.12,3.96a52.338,52.338,0,0,0,16.26-4.74,18.131,18.131,0,0,1,3,2.04,39.506,39.506,0,0,1-5.58,3.3,42.271,42.271,0,0,1-7.95,2.91,86.221,86.221,0,0,1-9.99,2.01l3.18,3.9a45.256,45.256,0,0,0,12.15-2.94,55.713,55.713,0,0,0,10.65-5.76,24.8,24.8,0,0,1,1.62,3.48,39.659,39.659,0,0,1-12.6,7.29,82.858,82.858,0,0,1-16.2,3.93l3.3,4.14a97.011,97.011,0,0,0,9.99-2.43,62.157,62.157,0,0,0,9.12-3.51,33.186,33.186,0,0,0,7.35-4.74,50.023,50.023,0,0,1-.24,8.04,2.619,2.619,0,0,1-.66,1.14,3.308,3.308,0,0,1-1.08.84,20.114,20.114,0,0,1-4.38-.39,50.186,50.186,0,0,1-5.7-1.53l1.86,5.34q7.74,1.44,10.5.42a5.182,5.182,0,0,0,2.67-2.07,11.616,11.616,0,0,0,1.41-5.19,34.418,34.418,0,0,0-.03-5.91,44.523,44.523,0,0,0-.87-5.91l2.88-1.2a35.986,35.986,0,0,0,2.46,5.37,29.4,29.4,0,0,0,4.59,6.15,18.67,18.67,0,0,0,6.39,4.5Zm58.62-12.96q-9-10.379-18.78-14.82l-3.18,3.18a38.638,38.638,0,0,1,9.57,6,61.246,61.246,0,0,1,8.73,8.76Zm-0.36-24.36V67.6h-50.16v4.56h25.02q-1.44,2.34-4.02,5.94a44.639,44.639,0,0,1-9.39,9.72,78.416,78.416,0,0,1-12.51,7.68l3,3.9q14.04-7.8,19.92-15.3v33.54h4.92V77.984q2.1-2.939,3.84-5.82h19.38Zm57.9,14.88a29.693,29.693,0,0,0-5.58-4.8,17.927,17.927,0,0,0,1.92-3.09q0.66-1.409.9-2.01-0.24-.119-1.56-0.87a14.684,14.684,0,0,0-2.16-1.05,19.55,19.55,0,0,1-2.88,4.8,27.191,27.191,0,0,0-7.44-2.22l-3.12,3.6a18.218,18.218,0,0,1,7.02,1.86,44.591,44.591,0,0,1-7.68,4.26l3.42,3.18a27.914,27.914,0,0,0,8.16-5.04,49.784,49.784,0,0,1,5.34,4.26Zm-4.74,8.7a13.8,13.8,0,0,0,2.4-4.62l-3.6-1.86a39.868,39.868,0,0,1-2.46,4.2,19.4,19.4,0,0,0-3.03-1.41,29.962,29.962,0,0,0-3.69-1.17,30.5,30.5,0,0,0-3.24,3.48,20.922,20.922,0,0,1,6.84,2.28,13.589,13.589,0,0,1-1.38,1.11q-1.02.751-4.8,3.09l3.36,3.18a31.9,31.9,0,0,0,3.66-2.25,20.52,20.52,0,0,0,3.06-2.55,38.668,38.668,0,0,1,5.28,5.04,12.267,12.267,0,0,0,1.02-.72q0.54-.42,1.38-1.14t1.2-1.02a37.671,37.671,0,0,0-6-5.64h0Zm-1.02,14.76a24.824,24.824,0,0,1-9.18-5.91,27.846,27.846,0,0,1-6.24-9.21,35.475,35.475,0,0,0,.54-5.76v-14.7h22.08v-4.38h-22.08v-6.9h-4.74q0,1.021.03,3.54a27.2,27.2,0,0,1-.09,3.36h-22.26v4.38h22.32v15.06a26,26,0,0,1-.66,5.4,36.664,36.664,0,0,1-1.56,5.4,20.5,20.5,0,0,0-4.2-3.84,19.415,19.415,0,0,0,2.94-5.58,25.627,25.627,0,0,0-2.61-1.71q-0.57-.27-0.99-0.45a50.539,50.539,0,0,1-3,5.28,22.381,22.381,0,0,0-7.32-2.76l-3.18,3.54a17.267,17.267,0,0,1,7.26,2.34,31.853,31.853,0,0,1-8.46,4.44l3.3,3.42a32.988,32.988,0,0,0,6.9-3.6l2.04-1.62q0.06,0.06,1.44,1.32a28.887,28.887,0,0,1,2.46,2.52l3.06-2.58a28.235,28.235,0,0,1-8.46,7.53q-4.86,2.79-13.68,4.17l2.88,4.68a41.253,41.253,0,0,0,15.15-5.52,24.767,24.767,0,0,0,9.39-10.2,30.418,30.418,0,0,0,6.24,7.5,29.343,29.343,0,0,0,8.31,5.1,48.791,48.791,0,0,0,9.45,2.76,22.944,22.944,0,0,0,1.74-2.28q1.08-1.561,1.5-2.1a54.016,54.016,0,0,1-10.32-2.64h0Zm-19.68-23.4a16.187,16.187,0,0,0-1.35-1.44q-0.87-.839-4.23-3.54a23.824,23.824,0,0,0,2.76-5.46,14.792,14.792,0,0,1-1.86-.78,16.113,16.113,0,0,0-2.04-.84,17.5,17.5,0,0,1-2.82,4.8,20.116,20.116,0,0,0-6.9-2.04l-3.24,3.72q4.74,0.36,6.78,1.56a14.883,14.883,0,0,1-2.85,1.83q-1.71.871-4.83,2.31,0.18,0.18,1.38,1.35t1.59,1.5a7.1,7.1,0,0,0,.57.45,32.291,32.291,0,0,0,8.28-5.16,69.493,69.493,0,0,1,5.52,4.98Zm62.04-9.96a11.161,11.161,0,0,0-2.88-3.75,13.345,13.345,0,0,0-4.41-2.46,16.912,16.912,0,0,0-5.49-.87,15.544,15.544,0,0,0-5.46.96,12.56,12.56,0,0,0-4.41,2.73,13.386,13.386,0,0,0-2.91,4.17,16.555,16.555,0,0,0-1.14,4.56l5.4,0.6a13.684,13.684,0,0,1,1.8-5.01,7.064,7.064,0,0,1,3.12-2.91,9.138,9.138,0,0,1,3.66-.78,8.242,8.242,0,0,1,4.62,1.38,7.649,7.649,0,0,1,2.91,3.18,7.924,7.924,0,0,1,.81,3.18,6.672,6.672,0,0,1-.39,2.16,7.11,7.11,0,0,1-1.32,2.25,22.831,22.831,0,0,1-2.61,2.55,33.543,33.543,0,0,0-4.41,4.38,10.216,10.216,0,0,0-1.92,3.84,18.286,18.286,0,0,0-.51,4.44l0.06,1.44h5.04a29.947,29.947,0,0,1,.33-3.99,6.864,6.864,0,0,1,1.23-2.97,24.136,24.136,0,0,1,3.42-3.48q1.5-1.319,2.97-2.85a14.4,14.4,0,0,0,2.49-3.57,10.052,10.052,0,0,0,1.02-4.56A10.685,10.685,0,0,0,615.116,77.144Zm-9.84,36.6v-6h-6v6h6Z"/>
</svg>
