<svg id="F2" xmlns="http://www.w3.org/2000/svg" width="728" height="90" viewBox="0 0 1456 180">
  <defs>
    <style>
      .cls-1 {
        fill: #4b286d;
        fill-rule: evenodd;
      }
    </style>
  </defs>
  <path id="TELUS家庭优惠计划_无限流量_节省更多_" data-name="TELUS家庭优惠计划 无限流量 节省更多  " class="cls-1" d="M80.758,35.021H46.5v4.56H61.017V77.744h5.22V39.582H80.758v-4.56Zm34.2,4.56v-4.56h-29.7V77.744h29.462v-4.56H90.3V57.763h22.261V53.2H90.3V39.582h24.661Zm10.438,33.6V35.021h-5.04V77.744h26.521v-4.56H125.4Zm40.681,5.46c10.68,0,16.8-6.06,16.8-16.741V35.021h-5.04V61.9c0,8.4-4.321,12.181-11.761,12.181S154.316,70.3,154.316,61.9V35.021h-5.04V61.9C149.276,72.583,155.4,78.644,166.077,78.644Zm39.66,0.06c10.26,0,16.021-4.98,16.021-12.541,0-6.18-3.481-10.02-13.321-12.181l-3.78-.84c-8.041-1.8-10.021-3.84-10.021-7.921,0-4.02,3.18-6.6,9.361-6.6,8.52,0,11.1,3.3,11.52,8.821h5.161C220.5,40.482,216.6,34.061,204,34.061c-8.881,0-14.581,4.32-14.581,11.16,0,7.8,5.7,10.741,12.961,12.361l3.78,0.84c7.56,1.68,10.38,3.66,10.38,7.74,0,5.28-3.96,7.981-10.8,7.981-6.961,0-12.421-2.58-12.541-10.5h-5.22C188.1,74.324,195.536,78.7,205.737,78.7Zm71.7-32.88V34.844h-20.28a20.881,20.881,0,0,0-3.6-4.62,21.341,21.341,0,0,0-4.02-3.18l-3.78,2.82a45.353,45.353,0,0,1,4.77,3.78,8.315,8.315,0,0,1,.93,1.2H229.8v11.22h4.56v-6.84h38.52v6.6h4.56Zm2.88,27.66a16.68,16.68,0,0,1-5.19-3.24,28.146,28.146,0,0,1-4.59-5.34,23.676,23.676,0,0,1-3.06-6.24,43.817,43.817,0,0,0,6.66-6l-3.48-3.06q-5.76,6.9-11.1,8.64a15.807,15.807,0,0,0-2.43-3.81,14.161,14.161,0,0,0-3.21-2.91q0.18-.119,1.41-0.81t2.31-1.41a19.527,19.527,0,0,0,2.04-1.56h11.04v-4.38h-33.84v4.38l15.06,0.06q-7.44,4.5-21.84,6.78l3.12,3.96a52.338,52.338,0,0,0,16.26-4.74,18.131,18.131,0,0,1,3,2.04,39.506,39.506,0,0,1-5.58,3.3,42.271,42.271,0,0,1-7.95,2.91,86.14,86.14,0,0,1-9.99,2.01l3.18,3.9a45.241,45.241,0,0,0,12.15-2.94,55.689,55.689,0,0,0,10.65-5.76,24.8,24.8,0,0,1,1.62,3.48,39.666,39.666,0,0,1-12.6,7.29,82.808,82.808,0,0,1-16.2,3.93l3.3,4.14a96.65,96.65,0,0,0,9.99-2.43,62.067,62.067,0,0,0,9.12-3.51,33.161,33.161,0,0,0,7.35-4.74,50.018,50.018,0,0,1-.24,8.04,2.615,2.615,0,0,1-.66,1.14,3.293,3.293,0,0,1-1.08.84,20.089,20.089,0,0,1-4.38-.39,50.186,50.186,0,0,1-5.7-1.53l1.86,5.34q7.74,1.44,10.5.42a5.182,5.182,0,0,0,2.67-2.07,11.615,11.615,0,0,0,1.41-5.19,34.418,34.418,0,0,0-.03-5.91A44.524,44.524,0,0,0,261,62.2l2.88-1.2a35.965,35.965,0,0,0,2.46,5.37,29.382,29.382,0,0,0,4.59,6.15,18.67,18.67,0,0,0,6.39,4.5Zm59.4-36.12v-4.38h-21.18l1.02-.96a23.811,23.811,0,0,0-5.19-4.17,14.382,14.382,0,0,0-4.17-1.53l-3.42,3.24a19.5,19.5,0,0,1,4.5,1.47,8.177,8.177,0,0,1,2.76,1.95h-21.96l-0.48,28.38a27.912,27.912,0,0,1-1.62,8.7,23.825,23.825,0,0,1-4.38,7.56l3.18,3.78a24.108,24.108,0,0,0,5.73-9.48,45.253,45.253,0,0,0,1.89-13.74l0.18-20.82h43.14Zm2.1,37.02q-12.12.6-21.6,0.24a25.7,25.7,0,0,1-4.5-.63,24.642,24.642,0,0,1-7.08-3.33q3.24-5.4,3.54-15.9h-7.44a37.634,37.634,0,0,0,3.87-4.35,41.62,41.62,0,0,0,3.45-5.07l0.12-1.74,2.76,3.78q2.28,0.061,4.74-.12a35.722,35.722,0,0,0,4.02-.48v6.6h-10.02v4.38H323.7v8.82h-12.36v4.38h28.62v-4.38h-11.7v-8.82h10.2v-4.38h-10.2v-7.5a45.22,45.22,0,0,0,10.38-4.08l-3.18-3.12a24.66,24.66,0,0,1-4.32,1.83,50.9,50.9,0,0,1-8.01,1.74,63.848,63.848,0,0,1-11.07.69v-1.62h-14.28V45.7h8.7a76.145,76.145,0,0,1-8.1,9v4.44h9.18a20.759,20.759,0,0,1-.84,4.59,23.114,23.114,0,0,1-1.44,3.45l-1.35-2.16q-1.05-1.679-1.62-2.76t-0.93-1.92l-3.78,2.28a33.831,33.831,0,0,0,5.16,8.34,38.733,38.733,0,0,1-7.92,6.96l2.76,3.54a20.483,20.483,0,0,0,5.13-3.54,34.707,34.707,0,0,0,3.75-3.66,22.342,22.342,0,0,0,13.68,4.56l19.74,0.24Zm52.86-34.8a48.517,48.517,0,0,0-4.29-4.89,33.13,33.13,0,0,0-4.65-3.93l-3.42,2.94a44.927,44.927,0,0,1,5.67,4.83,21.619,21.619,0,0,1,2.97,3.87Zm0.84,27.84a36.26,36.26,0,0,1-.6,6.36,2.925,2.925,0,0,1-.75,1.29,1.725,1.725,0,0,1-.93.21h-8.58a0.914,0.914,0,0,1-.75-0.33,1.235,1.235,0,0,1-.27-0.81V49.484h-3.78l0.181-2.34h19.2v-4.38h-19.08V27.884H375.6v14.88H362.4v4.38h12.96q-0.06,2.041-.39,4.77a43.372,43.372,0,0,1-.75,4.53,38.315,38.315,0,0,1-5.25,13.26,27.613,27.613,0,0,1-8.73,8.28l3.06,3.6a28.268,28.268,0,0,0,7.2-5.82q6.42-7.259,8.4-19.5v19.5q0,3.9,4.08,3.9h12.36q1.622,0,2.73-2.04a23.123,23.123,0,0,0,1.89-6.78Zm-35.28-40.08a64.435,64.435,0,0,1-5.64,15.72,55.226,55.226,0,0,1-8.82,13.2l3.9,2.88a34.325,34.325,0,0,0,3.54-4.26q2.16-2.939,2.28-3.12v29.58h4.56V42.584q1.86-4.559,2.73-7.38t1.71-6.06Zm99.06,8.82v-4.32h-23.46v-4.86h-4.56v4.86h-23.4v4.32h23.4v2.1h-15.84v18.06h15.84v2.82q-19.68.18-23.76,0.12l2.46,4.62q9.9-.3,21.66-0.42l-3.12,2.1a20.141,20.141,0,0,1,8.76,7.62l3.9-2.64q-0.18-.3-0.75-1.11a19.584,19.584,0,0,0-1.56-1.89,12.99,12.99,0,0,0-2.1-1.86q-1.11-.779-2.4-1.53t-1.59-.93q10.8,0,19.14-.36a26.317,26.317,0,0,1,2.76,3.48l4.02-2.64a24.619,24.619,0,0,0-8.16-7.38h1.26V38.264h-15.96v-2.1H459.3Zm1.8,39.42a23.676,23.676,0,0,0-4.41-5.1,25.462,25.462,0,0,0-6.87-4.08l-3.42,2.58a25.974,25.974,0,0,1,10.92,9.36Zm-17.7-6.66a17.074,17.074,0,0,0-.51,2.37,12.851,12.851,0,0,1-.54,2.34,2.027,2.027,0,0,1-.72.99,3.461,3.461,0,0,1-.81.42H429a2.214,2.214,0,0,1-.99-0.72,2.038,2.038,0,0,1-.51-1.02V65.8h-4.74v6.48a14.291,14.291,0,0,0,.42,3.48,6.887,6.887,0,0,0,1.92,2.4,5.338,5.338,0,0,0,2.76,1.2h9.66q4.74,0.18,6.12-.42a4.759,4.759,0,0,0,1.5-1.02,5.349,5.349,0,0,0,1.05-1.47,10.821,10.821,0,0,0,.63-1.62q0.24-.81.51-2.22t0.39-1.89a39.382,39.382,0,0,0-4.32-1.8h0Zm-25.08-3a23.907,23.907,0,0,1-12.24,7.5l3.54,3.66a25.778,25.778,0,0,0,6.81-3.48,19.926,19.926,0,0,0,5.13-5.16q-0.66-.6-3.24-2.52h0Zm28.74-21.06h-11.22v-2.28h11.22v2.28Zm0,7.14h-11.22v-2.82h11.22V52Zm-11.22,6.9v-2.58l9.12,0.12-1.5.9a17.024,17.024,0,0,0,2.94,1.38Zm-4.56-14.04H420v-2.28h11.28v2.28Zm0,7.14H420v-2.82h11.28V52Zm88.2-1.98v-4.38H505.5V27.824h-4.56v17.82h-13.98v4.38h13.98V81.7h4.56V50.024h13.98ZM482.7,36.284a26.518,26.518,0,0,0-3.57-4.92,26.173,26.173,0,0,0-4.59-4.02L471.3,30.1a27.818,27.818,0,0,1,7.62,9.06Zm7.32,37.86v-4.98l-9,4.92V44.144H467.7v4.38h8.76v25.74a2.871,2.871,0,0,1-.36,1.5,5.748,5.748,0,0,1-1.2,1.32l2.7,3.84Zm87.06-46.5h-4.56V75.4a1.363,1.363,0,0,1-.39,1.17,2.624,2.624,0,0,1-.99.39l-6.24-.18,1.62,4.62q0.6,0,2.7.06a17.83,17.83,0,0,0,3.18-.12,8.3,8.3,0,0,0,1.8-.48,4.567,4.567,0,0,0,2.88-4.56V27.644Zm-32.34,2.1q-0.78.781-3.36,2.82a22.18,22.18,0,0,1,8.7,8.7,15.768,15.768,0,0,0,1.98-1.53q1.2-1.049,1.68-1.41-4.139-6.12-9-8.58h0Zm21.3,39.12V34.9h-4.56v33.96h4.56Zm-9.12-.6q-0.42,2.221-1.92,7.68a0.7,0.7,0,0,1-.54.45,1.417,1.417,0,0,1-.54-0.21,24.99,24.99,0,0,1-7.68-10.38,51.541,51.541,0,0,0,10.68-14.4l-3.6-2.64a64.537,64.537,0,0,1-4.08,6.57,51.161,51.161,0,0,1-4.8,5.91,69.531,69.531,0,0,1-2.941-13.5l17.82-2.64-0.6-4.44-17.7,2.7-0.541-8.64v-6.9h-4.739q-0.061,5.04.479,16.2l-8.459,1.26,0.6,4.32,8.46-1.2a80.015,80.015,0,0,0,1.5,8.22,69.221,69.221,0,0,0,2.279,7.86,54.282,54.282,0,0,1-14.64,8.1l3.54,3.78a41.751,41.751,0,0,0,5.28-2.49q2.64-1.469,7.62-4.95a55.175,55.175,0,0,0,5.22,7.98,12.767,12.767,0,0,0,3.24,3.27,9.476,9.476,0,0,0,2.76,1.17,3.748,3.748,0,0,0,2.73-.12,4.225,4.225,0,0,0,1.41-1.44,27.658,27.658,0,0,0,3.48-9.84ZM97.5,135.024a53.009,53.009,0,0,1-1.62,7.62,2.2,2.2,0,0,1-1.86,1.74H82.676a2.3,2.3,0,0,1-1.23-.6,1.578,1.578,0,0,1-.51-1.2v-19.26h18.9v-4.38H75.656q0.36-8.76.3-13.38h20.28V101H51.9v4.56h19.32q-0.06,1.56-.03,5.22t0,5.34q-0.031,1.68-.15,2.82H48.656v4.38h21.66a34.931,34.931,0,0,1-8.13,14.76q-5.49,5.7-15.03,9.84l3.6,3.72a58.723,58.723,0,0,0,12.45-7.53,31.923,31.923,0,0,0,7.29-8.7,49.871,49.871,0,0,0,4.68-12.09h1.2v20.76a4.209,4.209,0,0,0,1.32,2.94,5.841,5.841,0,0,0,3.18,1.74h13.5a5.6,5.6,0,0,0,2.76-.87,4.946,4.946,0,0,0,2.04-1.95,40.723,40.723,0,0,0,2.76-8.7Zm64.14,12.66a25.163,25.163,0,0,1-6.45-3.75,18.466,18.466,0,0,1-4.59-5.19q5.22-3.84,7.23-5.61t2.97-2.67l-3.42-3.12-8.7,7.68a20.9,20.9,0,0,1-1.47-3.84,44.156,44.156,0,0,1-.87-4.8h10.14v-25.86h-25.44v43.26a3.873,3.873,0,0,1-.84,2.64,6.6,6.6,0,0,1-2.04,1.56q0.84,0.72,2.25,1.83t1.53,1.17l12.84-5.64v-4.56q-0.06,0-3.96,1.56t-5.22,2.22v-18.18h6.24a37.4,37.4,0,0,0,2.16,9.66,29.215,29.215,0,0,0,6,9.18,23.785,23.785,0,0,0,8.88,6.24Zm-32.46-20.85a12.008,12.008,0,0,0-1.71-4.65,22.821,22.821,0,0,0-3.87-4.68l5.04-12.66V100.4h-16.86v51.36l4.56-.12V104.9h7.44q-1.2,3.9-5.28,13.38,5.16,4.56,6.12,9.12a6.147,6.147,0,0,1-.03,3.27,3.946,3.946,0,0,1-1.23,1.89,3.253,3.253,0,0,1-.66.36,3.376,3.376,0,0,1-.96.24,4.65,4.65,0,0,1-1.17-.03q-0.63-.09-3.51-0.69l1.08,4.98q4.08,0.6,5.82-.18a7.124,7.124,0,0,0,3.24-2.28,7.8,7.8,0,0,0,1.86-3.6A14.308,14.308,0,0,0,129.176,126.834Zm22.74-15.75H135.6V104.9h16.32v6.18Zm-0.06,4.38-0.12,6.48-16.14.12v-6.6h16.26Zm68.16-6.54v-4.38l-16.8-.12,0.96-.54a18.441,18.441,0,0,0-3.42-4.11,12.562,12.562,0,0,0-4.2-2.55l-3.84,2.76a14.808,14.808,0,0,1,6.54,4.56H183.9v4.38h12.36a21.232,21.232,0,0,1-5.31,7.32,25.564,25.564,0,0,1-7.23,4.74l3,4.02q4.26-.84,11.97-1.8t14.79-1.56a17.264,17.264,0,0,1,2.16,3.78l4.02-2.7a22.951,22.951,0,0,0-4.35-6.09,25.809,25.809,0,0,0-5.79-4.53l-4.44,3a14.784,14.784,0,0,1,5.16,2.7l-16.5,1.62a19.571,19.571,0,0,0,3.6-3.75,48.376,48.376,0,0,0,3.96-6.75h18.72Zm-1.8,28.08a43.294,43.294,0,0,1-.39,4.65,9.37,9.37,0,0,1-.75,3.09,1.282,1.282,0,0,1-1.11.63,3.03,3.03,0,0,1-1.56-.09,1.969,1.969,0,0,1-.9-0.6,1.221,1.221,0,0,1-.21-0.9v-18.12h-4.56V144.5a4.412,4.412,0,0,0,2.07,4.08q2.07,1.26,6.51.84a3.968,3.968,0,0,0,2.43-1.2,5.782,5.782,0,0,0,1.53-2.4,31.62,31.62,0,0,0,1.26-7.26Zm-34.56-29.04q-4.5-6-9.54-7.32l-3.36,3.24a14.645,14.645,0,0,1,9.36,7.38Zm19.14,42.78v-25.08h-4.56v25.08h4.56Zm-21.36-28.5a23.247,23.247,0,0,0-4.5-5.67,15.932,15.932,0,0,0-5.76-3.51l-3.48,3.3a17.811,17.811,0,0,1,5.97,3.39,15.864,15.864,0,0,1,4.05,5.31Zm7.56,3.6q-0.06,1.02,0,4.83a33.3,33.3,0,0,1-.45,6.54,13.283,13.283,0,0,1-1.98,4.95,12.867,12.867,0,0,1-3.57,3.63,20.645,20.645,0,0,1-4.38,2.25l3.3,3.9a19.975,19.975,0,0,0,5.61-3.45,16.871,16.871,0,0,0,3.3-3.99,18.236,18.236,0,0,0,1.8-4.41,24.9,24.9,0,0,0,.78-4.98q0.15-2.61.12-5.7t-0.03-3.57H189Zm-10.02,1.2a41.713,41.713,0,0,1-3.42,11.73,27.135,27.135,0,0,1-6.78,9.15l3.96,2.94q1.08-1.08,2.58-2.88a30.759,30.759,0,0,0,3.27-5.13,36.188,36.188,0,0,0,2.85-7.14q1.08-3.81,1.68-6.93Zm93.72-10.98V100.4h-35.04v15.66H272.7Zm6.96,5.28v-3.9h-48.84v3.9h48.84Zm2.46,28.2v-4.38h-24.6v-1.74h19.44v-3.9h-19.44v-1.56h17.16v-15.24h-38.76v15.24h17.04v1.56h-19.2v3.9h19.2v1.74h-24.42v4.38h53.58Zm-13.98-43.08h-25.92v-1.92h25.92v1.92Zm0,5.7h-25.92v-2.22h25.92v2.22Zm1.98,16.32h-12.54l-0.06-1.86h12.6v1.86Zm0,5.58h-12.6v-2.22h12.6v2.22Zm-17.1-7.44-0.06,1.86h-12.48v-1.86h12.54Zm-0.06,7.44h-12.48l-0.06-2.22h12.54v2.22Zm103.68-25.02v-4.32h-14.76v-6.84h-4.56v6.84h-12.54v-6.84h-4.56v6.84h-14.46l-0.12,4.32h14.58V116h4.56v-6.96h12.54V116h4.56v-6.96h14.76Zm-47.58,8.04v4.32H324v29.76h4.56V121.4H345.3q-0.12,1.2-.3,5.31t-0.48,6.36a36.02,36.02,0,0,1-.72,3.93,1.461,1.461,0,0,1-1.14.84,48.853,48.853,0,0,1-6.48-1.68l1.26,4.98q6.6,1.44,8.52.3a5.493,5.493,0,0,0,1.68-1.71,5.791,5.791,0,0,0,.9-2.19q0.48-3.48.87-9.63t0.51-10.83h-40.86Zm108.3-4.32q-7.98-8.88-15.96-11.58l-3.54,3.12q8.4,2.94,15.6,11.64Zm-24.24.42v-15h-4.56v15h4.56ZM381.776,101a44.092,44.092,0,0,1-15.72,11.46l3.72,3.48a44.937,44.937,0,0,0,15.18-11.88Zm27.6,51.06v-31.44l-18.42-.12a46.721,46.721,0,0,0,13.5-9.06l-3.36-3.06a36.479,36.479,0,0,1-6.54,5.34,38.673,38.673,0,0,1-7.59,3.66,62.9,62.9,0,0,1-9.57,2.52,129.864,129.864,0,0,1-13.38,1.44l2.34,4.56q6.6-.54,10.86-1.26v27.42h4.56v-3.54h23.04v3.54h4.56Zm-4.56-23.7h-23.04V125h23.04v3.36Zm0,7.8h-23.04V132.5h23.04v3.66Zm0,7.98h-23.04V140.3h23.04v3.84Zm74.88,2.76q-5.58-.12-11.73-0.81a101.862,101.862,0,0,1-10.83-1.74,28.863,28.863,0,0,1-7.32-2.49,17.87,17.87,0,0,0,2.52-4.53,22.836,22.836,0,0,0,1.38-5.31h17.52v-22.26h-16.62V105.5h23.16v-4.38H426.6v4.38h23.46v4.26h-17.22v22.26h16.32a19.081,19.081,0,0,1-1.23,3.96,16.464,16.464,0,0,1-2.07,3.6,70.974,70.974,0,0,1-8.76-6.84l-3.48,2.34a40.943,40.943,0,0,0,8.7,7.68,52.062,52.062,0,0,1-9.03,3.39,81.429,81.429,0,0,1-8.43,1.89l2.7,4.02a42.162,42.162,0,0,0,17.22-5.7l1.86-1.26a56.076,56.076,0,0,0,11.46,3.99,109.042,109.042,0,0,0,18.78,2.43Zm-12.78-28.26h-12.3v-4.5h12.3v4.5Zm0,9H454.2l0.3-4.62h12.42v4.62Zm-16.86-9H437.4v-4.5h12.66v4.5Zm-0.06,4.38-0.24,4.62H437.4v-4.62H450Zm86.64-.42h-16.2a28.765,28.765,0,0,0,3.18-4.32l-3.54-1.92a50.186,50.186,0,0,0,8.46-8.52v-4.02h-16.92a43.857,43.857,0,0,0,4.38-4.8l-4.2-2.22q-8.22,10.021-23.16,14.52l3.96,3.72a63.983,63.983,0,0,0,13.14-6.66h16.5a56.774,56.774,0,0,1-5.58,4.68,53.106,53.106,0,0,1-6.36,3.84,23.855,23.855,0,0,0-3.21-3.33,19.1,19.1,0,0,0-3.51-2.61l-4.2,2.7q4.98,2.7,6.72,5.04a68.8,68.8,0,0,1-8.37,2.76q-5.61,1.56-10.35,2.64l2.88,4.02a120.619,120.619,0,0,0,17.64-5.37,73.134,73.134,0,0,0,11.22-5.55,42.236,42.236,0,0,1-10.71,9.69,76.313,76.313,0,0,1-15.09,7.23l3.48,3.84a110.589,110.589,0,0,0,12.15-5.94,47.989,47.989,0,0,0,6.81-4.86h15.36a25.2,25.2,0,0,1-2.79,3.87,25.978,25.978,0,0,1-4.38,3.99,48.927,48.927,0,0,1-5.85,3.66,18.717,18.717,0,0,0-6.18-6.54l-4.32,2.46q4.8,3.12,6.6,6-9.66,4.2-26.88,7.08l3,4.14a162.114,162.114,0,0,0,17.46-3.96,74.4,74.4,0,0,0,10.59-4.17,45.4,45.4,0,0,0,8.64-5.46,35.376,35.376,0,0,0,6.06-6.09,41.4,41.4,0,0,0,3.57-5.52V122.6Z"/>
</svg>
