<svg id="Consideration" xmlns="http://www.w3.org/2000/svg" width="300" height="600" viewBox="0 0 300 600">
  <defs>
    <style>
      .cls-1 {
        fill: #462b69;
        fill-rule: evenodd;
      }
    </style>
  </defs>
  <g id="F3">
    <path id="Paayein_nayi_Galaxy_S23_Series_for_0_upfront_only_on_TELUS._" data-name="Paayein nayi Galaxy S23 Series for $0 upfront* only on TELUS. " class="cls-1" d="M88.667,85.1h-8.14v19.58h2.31V97.142h5.83c4.345,0,6.49-2.5,6.49-6.022S93.012,85.1,88.667,85.1Zm0,9.955h-5.83V87.187h5.83c2.75,0,4.1,1.458,4.1,3.933S91.417,95.052,88.667,95.052Zm19.962,7.838a0.651,0.651,0,0,1-.77-0.688v-7.92c0-2.392-1.4-4.125-5.335-4.125-4.153,0-5.61,1.953-5.775,4.7h2.2c0.138-2.117,1.155-2.8,3.575-2.8s3.19,0.742,3.19,2.227c0,1.265-.8,1.787-2.228,1.953l-2.035.22c-3.9.412-5.252,2.172-5.252,4.4,0,2.667,1.925,4.152,5,4.152a5.2,5.2,0,0,0,4.62-2.282c0.11,1.347.825,2.035,2.392,2.035a8.355,8.355,0,0,0,1.21-.083V102.89h-0.8Zm-7.315.247c-1.953,0-2.833-.935-2.833-2.337,0-1.375.715-2.255,3.3-2.558l2.063-.248a3.661,3.661,0,0,0,1.87-.605v1.678C105.714,101.872,103.431,103.137,101.314,103.137Zm21.67-.247a0.651,0.651,0,0,1-.77-0.688v-7.92c0-2.392-1.4-4.125-5.335-4.125-4.153,0-5.61,1.953-5.775,4.7h2.2c0.137-2.117,1.155-2.8,3.575-2.8s3.19,0.742,3.19,2.227c0,1.265-.8,1.787-2.228,1.953l-2.035.22c-3.905.412-5.252,2.172-5.252,4.4,0,2.667,1.925,4.152,5,4.152a5.2,5.2,0,0,0,4.62-2.282c0.11,1.347.825,2.035,2.392,2.035a8.355,8.355,0,0,0,1.21-.083V102.89h-0.8Zm-7.315.247c-1.953,0-2.833-.935-2.833-2.337,0-1.375.715-2.255,3.3-2.558l2.063-.248a3.661,3.661,0,0,0,1.87-.605v1.678C120.069,101.872,117.786,103.137,115.669,103.137Zm18.265-12.65-2.007,5.885c-0.715,2.063-1.4,4.125-2.035,6.16-0.66-2.035-1.32-4.07-2.035-6.132l-2.008-5.912h-2.42l5.335,14.658c-0.165.44-.33,0.907-0.5,1.32a2.486,2.486,0,0,1-2.585,1.76h-1.292v1.842a10.968,10.968,0,0,0,1.32.083,4.289,4.289,0,0,0,4.62-3.245l6-16.418h-2.393Zm15.774,7.095c0-4.07-2.283-7.425-6.518-7.425-3.932,0-6.545,2.97-6.545,7.425,0,4.593,2.723,7.425,6.6,7.425a5.919,5.919,0,0,0,6.1-4.647h-2.282A3.646,3.646,0,0,1,143.3,103c-2.475,0-4.152-1.458-4.372-4.648h10.78v-0.77Zm-6.518-5.417c2.53,0,3.933,1.87,4.153,4.207h-8.36C139.34,93.567,140.963,92.165,143.19,92.165ZM153.1,88.48a1.485,1.485,0,1,0-1.485-1.485A1.5,1.5,0,0,0,153.1,88.48Zm-1.1,16.2h2.2V90.487H152v14.19Zm11.77-14.52a5.228,5.228,0,0,0-4.455,2.448V90.487h-2.09v14.19h2.2v-8.03c0-3.135,2.062-4.51,3.905-4.51,2.035,0,3.245.963,3.245,3.162v9.377h2.2v-9.6C168.779,91.945,166.936,90.157,163.774,90.157Zm20.349,0a5.228,5.228,0,0,0-4.455,2.448V90.487h-2.089v14.19h2.2v-8.03c0-3.135,2.063-4.51,3.905-4.51,2.035,0,3.245.963,3.245,3.162v9.377h2.2v-9.6C189.128,91.945,187.286,90.157,184.123,90.157Zm19.7,12.733a0.651,0.651,0,0,1-.77-0.688v-7.92c0-2.392-1.4-4.125-5.335-4.125-4.153,0-5.61,1.953-5.775,4.7h2.2c0.137-2.117,1.155-2.8,3.575-2.8s3.19,0.742,3.19,2.227c0,1.265-.8,1.787-2.228,1.953l-2.035.22c-3.905.412-5.252,2.172-5.252,4.4,0,2.667,1.925,4.152,5,4.152a5.2,5.2,0,0,0,4.62-2.282c0.11,1.347.825,2.035,2.392,2.035a8.355,8.355,0,0,0,1.21-.083V102.89h-0.8Zm-7.315.247c-1.953,0-2.833-.935-2.833-2.337,0-1.375.715-2.255,3.3-2.558l2.063-.248a3.661,3.661,0,0,0,1.87-.605v1.678C200.9,101.872,198.621,103.137,196.5,103.137Zm18.265-12.65-2.007,5.885c-0.715,2.063-1.4,4.125-2.035,6.16-0.66-2.035-1.32-4.07-2.035-6.132l-2.008-5.912h-2.42l5.335,14.658c-0.165.44-.33,0.907-0.495,1.32a2.486,2.486,0,0,1-2.585,1.76h-1.292v1.842a10.968,10.968,0,0,0,1.32.083,4.289,4.289,0,0,0,4.62-3.245l6-16.418h-2.393Zm5.071-2.007a1.485,1.485,0,1,0-1.485-1.485A1.5,1.5,0,0,0,219.84,88.48Zm-1.1,16.2h2.2V90.487h-2.2v14.19ZM54.031,126.747v2.09h6.243a6.37,6.37,0,0,1-6.682,6.3c-4.152,0-6.875-3.135-6.875-8.112s2.7-8.113,6.875-8.113c3.08,0,5.637,1.788,6.16,4.73h2.392c-0.66-4.07-3.822-6.847-8.552-6.847-5.665,0-9.295,4.152-9.295,10.23s3.657,10.23,9.267,10.23a7.515,7.515,0,0,0,6.407-3.08l0.5,2.64h1.9V126.747H54.031Zm23.116,8.277a0.65,0.65,0,0,1-.77-0.687v-7.92c0-2.393-1.4-4.125-5.335-4.125-4.152,0-5.61,1.952-5.775,4.7h2.2c0.138-2.117,1.155-2.805,3.575-2.805s3.19,0.743,3.19,2.228c0,1.265-.8,1.787-2.227,1.952l-2.035.22c-3.9.413-5.252,2.173-5.252,4.4,0,2.668,1.925,4.153,5,4.153a5.2,5.2,0,0,0,4.62-2.283c0.11,1.348.825,2.035,2.392,2.035a8.37,8.37,0,0,0,1.21-.082v-1.788h-0.8Zm-7.315.248c-1.952,0-2.832-.935-2.832-2.338,0-1.375.715-2.255,3.3-2.557l2.063-.248a3.656,3.656,0,0,0,1.87-.6V131.2C74.232,134.007,71.95,135.272,69.832,135.272Zm12.944,1.622a13.964,13.964,0,0,0,1.4-.082v-1.843H83.134a1.1,1.1,0,0,1-1.347-1.21V117.232h-2.2v16.72C79.587,136.124,80.8,136.894,82.777,136.894Zm14.919-1.87a0.65,0.65,0,0,1-.77-0.687v-7.92c0-2.393-1.4-4.125-5.335-4.125-4.152,0-5.61,1.952-5.775,4.7h2.2c0.138-2.117,1.155-2.805,3.575-2.805s3.19,0.743,3.19,2.228c0,1.265-.8,1.787-2.227,1.952l-2.035.22c-3.9.413-5.252,2.173-5.252,4.4,0,2.668,1.925,4.153,5,4.153a5.2,5.2,0,0,0,4.62-2.283c0.11,1.348.825,2.035,2.392,2.035a8.37,8.37,0,0,0,1.21-.082v-1.788H97.7Zm-7.315.248c-1.953,0-2.833-.935-2.833-2.338,0-1.375.715-2.255,3.3-2.557l2.063-.248a3.656,3.656,0,0,0,1.87-.6V131.2C94.78,134.007,92.5,135.272,90.38,135.272Zm17.023-5.72,5.142-6.93h-2.557l-1.073,1.512c-0.88,1.21-1.842,2.558-2.75,3.85-0.88-1.292-1.815-2.585-2.75-3.85l-1.1-1.512H99.73l5.143,6.93-5.418,7.26h2.558l0.742-1.045c1.1-1.568,2.283-3.163,3.383-4.648,1.072,1.458,2.2,3.025,3.327,4.62l0.77,1.073h2.585Zm16.673-6.93-2.008,5.885c-0.715,2.062-1.4,4.125-2.035,6.16-0.66-2.035-1.32-4.07-2.035-6.133l-2.007-5.912h-2.42l5.335,14.657c-0.165.44-.33,0.908-0.5,1.32a2.487,2.487,0,0,1-2.585,1.76h-1.293V142.2a10.98,10.98,0,0,0,1.32.083,4.288,4.288,0,0,0,4.62-3.245l6-16.417h-2.392Zm16.994,14.63c4.7,0,7.342-2.283,7.342-5.748,0-2.832-1.595-4.592-6.105-5.582l-1.732-.385c-3.685-.825-4.593-1.76-4.593-3.63,0-1.843,1.458-3.025,4.29-3.025,3.905,0,5.088,1.512,5.28,4.042h2.365c-0.082-3.19-1.87-6.132-7.645-6.132-4.07,0-6.682,1.98-6.682,5.115,0,3.575,2.612,4.922,5.94,5.665l1.732,0.385c3.465,0.77,4.758,1.677,4.758,3.547,0,2.42-1.815,3.658-4.95,3.658-3.19,0-5.693-1.183-5.748-4.813H132.93C132.985,135.244,136.4,137.252,141.07,137.252Zm11.561-2.53c0.165-2.173,1.265-3.355,3.52-4.675l2.09-1.21c3.135-1.815,4.455-3.878,4.455-6.38,0-3.328-2.53-5.665-6.243-5.665-4.042,0-6.49,2.255-6.435,6.3H152.3c0-3,1.65-4.207,4.1-4.207,2.5,0,3.878,1.512,3.878,3.575s-1.073,3.3-3.438,4.675l-2.475,1.43a8.015,8.015,0,0,0-4.262,7.177l-0.055,1.073h12.925v-2.09h-10.34Zm22.043-8.333a4.727,4.727,0,0,0,2.668-4.29c0-3.437-2.64-5.307-6.27-5.307-3.96,0-6.38,2.337-6.407,5.83h2.31c0.11-2.64,1.842-3.74,4.1-3.74,2.392,0,3.932,1.182,3.932,3.272s-1.43,3.328-4.069,3.328h-1.32v1.925h1.457c2.75,0,4.455,1.54,4.455,3.905s-1.7,3.85-4.318,3.85c-2.859,0-4.482-1.485-4.564-4.263h-2.283c-0.027,3.795,2.365,6.353,6.847,6.353,3.988,0,6.738-2.365,6.738-5.94A5.438,5.438,0,0,0,174.674,126.389Zm18.7,10.863c4.7,0,7.342-2.283,7.342-5.748,0-2.832-1.595-4.592-6.105-5.582l-1.732-.385c-3.685-.825-4.593-1.76-4.593-3.63,0-1.843,1.458-3.025,4.29-3.025,3.905,0,5.088,1.512,5.28,4.042h2.365c-0.082-3.19-1.87-6.132-7.645-6.132-4.07,0-6.682,1.98-6.682,5.115,0,3.575,2.612,4.922,5.94,5.665l1.732,0.385c3.465,0.77,4.758,1.677,4.758,3.547,0,2.42-1.815,3.658-4.95,3.658-3.19,0-5.693-1.183-5.748-4.813h-2.392C185.289,135.244,188.7,137.252,193.374,137.252Zm21.942-7.535c0-4.07-2.283-7.425-6.517-7.425-3.933,0-6.545,2.97-6.545,7.425,0,4.592,2.722,7.425,6.6,7.425a5.918,5.918,0,0,0,6.1-4.648h-2.282a3.645,3.645,0,0,1-3.767,2.64c-2.475,0-4.153-1.457-4.373-4.647h10.78v-0.77ZM208.8,124.3c2.53,0,3.932,1.87,4.152,4.208h-8.36C204.949,125.7,206.571,124.3,208.8,124.3Zm15.545-1.9a4.956,4.956,0,0,0-4.565,2.722v-2.5h-2.09v14.19h2.2v-8.085c0-2.75,1.815-4.18,4.648-4.18h0.55v-2.118C224.784,122.4,224.564,122.4,224.344,122.4ZM228,120.614a1.485,1.485,0,1,0-1.484-1.485A1.5,1.5,0,0,0,228,120.614Zm-1.1,16.2h2.2v-14.19h-2.2v14.19Zm17.528-7.095c0-4.07-2.283-7.425-6.518-7.425-3.932,0-6.545,2.97-6.545,7.425,0,4.592,2.723,7.425,6.6,7.425a5.919,5.919,0,0,0,6.1-4.648H241.79a3.646,3.646,0,0,1-3.768,2.64c-2.475,0-4.152-1.457-4.372-4.647h10.78v-0.77Zm-6.518-5.418c2.53,0,3.933,1.87,4.153,4.208h-8.36C234.062,125.7,235.685,124.3,237.912,124.3Zm13.9,12.843c3.492,0,5.637-1.54,5.637-4.235,0-2.31-1.4-3.493-4.894-4.18l-1.265-.248c-1.815-.357-2.86-0.852-2.86-2.2,0-1.32,1.072-2.09,2.97-2.09,2.172,0,3.465.605,3.575,2.805h2.2c-0.054-3.025-1.979-4.7-5.774-4.7-3.245,0-5.17,1.595-5.17,4.015,0,2.2,1.347,3.6,4.427,4.18l1.32,0.247c2.475,0.468,3.245,1.045,3.245,2.31,0,1.4-1.017,2.2-3.41,2.2-2.5,0-3.547-.8-3.795-2.942h-2.227C246.006,135.629,248.206,137.142,251.808,137.142ZM75.346,151.236h1.265v-1.87c-0.33-.027-0.99-0.055-1.4-0.055-2.805,0-3.96,1.485-3.96,3.988v1.457H68.911v1.925h2.337v12.265h2.2V156.681h3.025v-1.925H73.448v-1.512A1.746,1.746,0,0,1,75.346,151.236Zm8.86,18.04c3.987,0,6.875-2.888,6.875-7.425s-2.888-7.425-6.875-7.425-6.875,2.887-6.875,7.425S80.219,169.276,84.206,169.276Zm0-1.98c-2.75,0-4.565-2.008-4.565-5.445s1.815-5.445,4.565-5.445,4.565,2.007,4.565,5.445S86.956,167.3,84.206,167.3Zm15.9-12.76a4.957,4.957,0,0,0-4.565,2.722v-2.5h-2.09v14.19h2.2v-8.085c0-2.75,1.815-4.18,4.647-4.18h0.55v-2.117A7.337,7.337,0,0,0,100.109,154.536Zm16.82,2c0-1.811-1.09-2.853-3.783-3.382l-0.369-.064v-3.174a1.792,1.792,0,0,1,1.715,1.86h2.1c-0.08-1.956-1.2-3.367-3.815-3.623v-1.635h-1.154v1.6c-2.533.112-3.911,1.41-3.911,3.222,0,2.068,1.458,3.045,3.67,3.462l0.241,0.048v3.4a2.068,2.068,0,0,1-2.068-2.229h-2.132c0.016,2.421,1.571,3.8,4.2,3.992v1.635h1.154v-1.619C115.358,159.9,116.929,158.666,116.929,156.534Zm-7-5.257c0-.786.561-1.315,1.7-1.395v2.95C110.34,152.511,109.924,152.094,109.924,151.277Zm2.853,7.005v-3.19c1.411,0.336,1.907.737,1.907,1.555C114.684,157.624,114.011,158.185,112.777,158.282Zm13.153,11.1c5.253,0,7.865-3.74,7.865-10.23s-2.64-10.23-7.865-10.23c-5.2,0-7.837,3.74-7.837,10.23S120.733,169.386,125.93,169.386Zm0-3.135c-2.53,0-3.96-2.118-3.96-7.095s1.43-7.095,3.96-7.095c2.558,0,3.988,2.118,3.988,7.095S128.515,166.251,125.93,166.251Zm25.492-11.5v8.03c0,3.135-2.062,4.51-3.905,4.51-2.034,0-3.244-.963-3.244-3.163v-9.377h-2.2v9.6c0,3.135,1.842,4.923,5,4.923a5.228,5.228,0,0,0,4.455-2.448v2.118h2.09v-14.19h-2.2Zm12.23-.33a5.58,5.58,0,0,0-4.868,2.53v-2.2h-2.09v19.58h2.2v-7.425a5.576,5.576,0,0,0,4.758,2.365c3.987,0,6.6-2.888,6.6-7.425S167.639,154.426,163.652,154.426Zm-0.275,12.87c-2.75,0-4.565-2.008-4.565-5.445s1.815-5.445,4.565-5.445,4.564,1.9,4.564,5.335S166.126,167.3,163.377,167.3Zm14.055-16.06H178.7v-1.87c-0.33-.027-0.99-0.055-1.4-0.055-2.805,0-3.96,1.485-3.96,3.988v1.457H171v1.925h2.337v12.265h2.2V156.681h3.025v-1.925h-3.025v-1.512A1.747,1.747,0,0,1,177.432,151.236Zm9.671,3.3a4.957,4.957,0,0,0-4.565,2.722v-2.5h-2.09v14.19h2.2v-8.085c0-2.75,1.815-4.18,4.648-4.18h0.55v-2.117A7.366,7.366,0,0,0,187.1,154.536Zm8.412,14.74c3.988,0,6.875-2.888,6.875-7.425s-2.887-7.425-6.875-7.425-6.875,2.887-6.875,7.425S191.528,169.276,195.515,169.276Zm0-1.98c-2.75,0-4.565-2.008-4.565-5.445s1.815-5.445,4.565-5.445,4.565,2.007,4.565,5.445S198.265,167.3,195.515,167.3Zm15.793-12.87a5.23,5.23,0,0,0-4.455,2.447v-2.117h-2.09v14.19h2.2v-8.03c0-3.135,2.063-4.51,3.905-4.51,2.035,0,3.245.962,3.245,3.162v9.378h2.2v-9.6C216.313,156.214,214.471,154.426,211.308,154.426Zm13.978,2.255v-1.925h-2.915v-4.015h-2.2v4.015h-2.337v1.925h2.337v9.405c0,2.172,1.348,2.942,3.548,2.942q0.66,0,1.567-.082V167.1h-1.292c-1.265,0-1.623-.467-1.623-1.21v-9.212h2.915Zm2.648-.725,1.385-1.909,1.385,1.909,0.729-.583-1.4-1.939,2.216-.714-0.306-.875-2.158.7v-2.3h-0.933v2.3l-2.157-.7-0.306.875,2.216,0.714-1.4,1.939ZM70.5,201.41c3.987,0,6.875-2.887,6.875-7.425S74.49,186.56,70.5,186.56s-6.875,2.888-6.875,7.425S66.515,201.41,70.5,201.41Zm0-1.98c-2.75,0-4.565-2.007-4.565-5.445s1.815-5.445,4.565-5.445,4.565,2.008,4.565,5.445S73.252,199.43,70.5,199.43ZM86.3,186.56a5.228,5.228,0,0,0-4.455,2.448V186.89H79.75v14.19h2.2v-8.03c0-3.135,2.063-4.51,3.905-4.51,2.035,0,3.245.963,3.245,3.163v9.377h2.2v-9.6C91.3,188.348,89.458,186.56,86.3,186.56Zm11.2,14.6a13.991,13.991,0,0,0,1.4-.083v-1.842H97.853a1.1,1.1,0,0,1-1.348-1.21V181.5h-2.2v16.72C94.306,200.393,95.516,201.163,97.5,201.163ZM109.01,186.89L107,192.775c-0.715,2.063-1.4,4.125-2.035,6.16-0.66-2.035-1.32-4.07-2.034-6.132l-2.008-5.913h-2.42l5.335,14.658c-0.165.44-.33,0.907-0.5,1.32a2.486,2.486,0,0,1-2.585,1.76H99.468v1.842a10.982,10.982,0,0,0,1.32.083,4.288,4.288,0,0,0,4.619-3.245l6-16.418H109.01Zm15.867,14.52c3.987,0,6.875-2.887,6.875-7.425s-2.888-7.425-6.875-7.425S118,189.448,118,193.985,120.889,201.41,124.877,201.41Zm0-1.98c-2.75,0-4.565-2.007-4.565-5.445s1.815-5.445,4.565-5.445,4.565,2.008,4.565,5.445S127.627,199.43,124.877,199.43Zm15.793-12.87a5.228,5.228,0,0,0-4.455,2.448V186.89h-2.09v14.19h2.2v-8.03c0-3.135,2.062-4.51,3.905-4.51,2.035,0,3.245.963,3.245,3.163v9.377h2.2v-9.6C145.675,188.348,143.832,186.56,140.67,186.56Zm28.407-5.06h-15.7v2.09h6.655v17.49h2.393V183.59h6.655V181.5Zm15.446,2.09V181.5H170.911v19.58h13.5v-2.09H173.221v-7.067h10.2v-2.09h-10.2V183.59h11.3Zm4.271,15.4V181.5h-2.31v19.58h12.155v-2.09h-9.845Zm18.535,2.5c4.895,0,7.7-2.778,7.7-7.673V181.5h-2.31v12.32c0,3.85-1.98,5.583-5.39,5.583s-5.39-1.733-5.39-5.583V181.5h-2.31v12.32C199.629,198.715,202.434,201.493,207.329,201.493ZM225.3,201.52c4.7,0,7.342-2.282,7.342-5.747,0-2.833-1.595-4.593-6.105-5.583l-1.732-.385c-3.685-.825-4.593-1.76-4.593-3.63,0-1.842,1.458-3.025,4.29-3.025,3.905,0,5.088,1.513,5.28,4.043h2.365c-0.082-3.19-1.87-6.133-7.645-6.133-4.07,0-6.682,1.98-6.682,5.115,0,3.575,2.612,4.923,5.94,5.665l1.732,0.385c3.465,0.77,4.758,1.678,4.758,3.548,0,2.42-1.815,3.657-4.95,3.657-3.19,0-5.693-1.182-5.748-4.812h-2.392C217.218,199.513,220.628,201.52,225.3,201.52Zm10.557-.247a1.58,1.58,0,0,0,1.567-1.623,1.61,1.61,0,0,0-3.217,0A1.582,1.582,0,0,0,235.86,201.273Z"/>
  </g>
</svg>
