<svg id="Consideration" xmlns="http://www.w3.org/2000/svg" width="300" height="600" viewBox="0 0 300 600">
  <defs>
    <style>
      .cls-1 {
        fill: #462b69;
        fill-rule: evenodd;
      }
    </style>
  </defs>
  <g id="F1">
    <path id="Din_ho_ya_raat_Nightography_banaye_Diwali_shaandaar_" data-name="Din ho ya raat, Nightography banaye Diwali shaandaar!" class="cls-1" d="M75.439,101.7h-6.6v19.578h6.6c5.912,0,9.6-3.657,9.6-9.789S81.351,101.7,75.439,101.7Zm0,17.488H71.15v-15.4h4.29c4.729,0,7.177,2.969,7.177,7.7S80.169,119.186,75.439,119.186ZM88.686,105.08A1.485,1.485,0,1,0,87.2,103.6,1.5,1.5,0,0,0,88.686,105.08Zm-1.1,16.2h2.2V107.087h-2.2v14.189ZM99.51,106.757a5.227,5.227,0,0,0-4.455,2.448v-2.118h-2.09v14.189h2.2v-8.029c0-3.135,2.062-4.51,3.9-4.51,2.034,0,3.244.963,3.244,3.162v9.377h2.2v-9.6C104.514,108.545,102.672,106.757,99.51,106.757Zm20.349,0a5.225,5.225,0,0,0-4.344,2.283V101.7h-2.2v19.578h2.2v-8.029c0-3.135,2.062-4.51,3.9-4.51,2.035,0,3.245.963,3.245,3.162v9.377h2.2v-9.6C124.864,108.545,123.021,106.757,119.859,106.757Zm14.363,14.849c3.987,0,6.874-2.887,6.874-7.424s-2.887-7.425-6.874-7.425-6.874,2.888-6.874,7.425S130.235,121.606,134.222,121.606Zm0-1.98c-2.75,0-4.564-2.007-4.564-5.444s1.814-5.445,4.564-5.445,4.565,2.008,4.565,5.445S136.972,119.626,134.222,119.626ZM158.2,107.087l-2.007,5.885c-0.715,2.062-1.4,4.124-2.035,6.159-0.66-2.035-1.32-4.069-2.035-6.132l-2.007-5.912H147.7l5.335,14.656c-0.165.44-.33,0.908-0.5,1.32a2.485,2.485,0,0,1-2.585,1.76H148.66v1.842a10.968,10.968,0,0,0,1.32.083A4.288,4.288,0,0,0,154.6,123.5l6-16.416H158.2Zm15.309,12.4a0.651,0.651,0,0,1-.77-0.688v-7.919c0-2.392-1.4-4.125-5.334-4.125-4.152,0-5.61,1.953-5.775,4.7h2.2c0.138-2.117,1.155-2.8,3.575-2.8s3.189,0.742,3.189,2.227c0,1.265-.8,1.787-2.227,1.952l-2.035.22c-3.9.413-5.252,2.173-5.252,4.4,0,2.667,1.925,4.152,5.005,4.152a5.2,5.2,0,0,0,4.619-2.282c0.11,1.347.825,2.034,2.392,2.034a8.36,8.36,0,0,0,1.21-.082v-1.787h-0.8Zm-7.314.247c-1.953,0-2.832-.935-2.832-2.337,0-1.375.714-2.255,3.3-2.557l2.062-.248a3.656,3.656,0,0,0,1.87-.6v1.677C170.6,118.471,168.313,119.736,166.2,119.736Zm22.192-12.869a4.955,4.955,0,0,0-4.565,2.723v-2.5h-2.09v14.189h2.2v-8.084c0-2.75,1.815-4.18,4.647-4.18h0.55V106.9A7.347,7.347,0,0,0,188.388,106.867Zm14.279,12.622a0.65,0.65,0,0,1-.769-0.688v-7.919c0-2.392-1.4-4.125-5.335-4.125-4.152,0-5.609,1.953-5.774,4.7h2.2c0.137-2.117,1.154-2.8,3.574-2.8s3.19,0.742,3.19,2.227c0,1.265-.8,1.787-2.227,1.952l-2.035.22c-3.905.413-5.252,2.173-5.252,4.4,0,2.667,1.925,4.152,5,4.152a5.2,5.2,0,0,0,4.62-2.282c0.11,1.347.825,2.034,2.392,2.034a8.38,8.38,0,0,0,1.21-.082v-1.787h-0.8Zm-7.314.247c-1.952,0-2.832-.935-2.832-2.337,0-1.375.715-2.255,3.3-2.557l2.062-.248a3.656,3.656,0,0,0,1.87-.6v1.677C199.753,118.471,197.471,119.736,195.353,119.736Zm21.815-.247a0.651,0.651,0,0,1-.77-0.688v-7.919c0-2.392-1.4-4.125-5.334-4.125-4.152,0-5.61,1.953-5.775,4.7h2.2c0.138-2.117,1.155-2.8,3.575-2.8s3.189,0.742,3.189,2.227c0,1.265-.8,1.787-2.227,1.952l-2.035.22c-3.9.413-5.252,2.173-5.252,4.4,0,2.667,1.925,4.152,5,4.152a5.2,5.2,0,0,0,4.619-2.282c0.11,1.347.825,2.034,2.393,2.034a8.356,8.356,0,0,0,1.209-.082v-1.787h-0.8Zm-7.314.247c-1.952,0-2.832-.935-2.832-2.337,0-1.375.715-2.255,3.3-2.557l2.063-.248a3.652,3.652,0,0,0,1.869-.6v1.677C214.253,118.471,211.971,119.736,209.854,119.736Zm15.862-10.724v-1.925H222.8v-4.014h-2.2v4.014h-2.337v1.925H220.6v9.4c0,2.172,1.347,2.942,3.547,2.942q0.66,0,1.568-.082v-1.842h-1.293c-1.265,0-1.622-.468-1.622-1.21v-9.212h2.915Zm3.256,9.514a1.476,1.476,0,0,0-1.54,1.485,1.432,1.432,0,0,0,1.54,1.43h0.165a2.036,2.036,0,0,1-1.512,2.145l-0.193.055V125.1l0.275-.055c1.787-.358,3.08-1.567,3.08-4.18C230.787,119.351,230.1,118.526,228.972,118.526ZM37.553,134v6.6c0,2.64,0,6.269.082,10.119-1.072-1.9-2.722-4.51-4.07-6.627L27.077,134h-2.8v19.577h2.282v-6.6c0-2.64,0-6.269-.082-10.119,1.072,1.9,2.722,4.51,4.07,6.627l6.489,10.091h2.8V134H37.553ZM44.5,137.38a1.485,1.485,0,1,0-1.485-1.485A1.5,1.5,0,0,0,44.5,137.38Zm-1.1,16.195h2.2V139.387H43.4v14.188ZM59.49,139.387v2.062a5.727,5.727,0,0,0-4.867-2.392c-3.987,0-6.6,2.887-6.6,7.424s2.612,7.424,6.6,7.424a5.735,5.735,0,0,0,4.757-2.254v1.374c0,2.943-1.567,4.4-4.4,4.4-2.227,0-3.575-.907-3.85-2.7h-2.2c0.3,2.75,2.42,4.565,6.049,4.565,4.482,0,6.6-2.585,6.6-6.27V139.387H59.49ZM54.9,151.926c-2.75,0-4.564-2.118-4.564-5.445s1.815-5.444,4.564-5.444,4.565,2.007,4.565,5.444S57.648,151.926,54.9,151.926Zm16.456-12.869a5.226,5.226,0,0,0-4.344,2.282V134h-2.2v19.577h2.2v-8.029c0-3.134,2.062-4.509,3.9-4.509,2.035,0,3.245.962,3.245,3.162v9.376h2.2v-9.6C76.358,140.844,74.516,139.057,71.354,139.057ZM85.5,141.312v-1.925H82.585v-4.015h-2.2v4.015H78.048v1.925h2.337v9.4c0,2.172,1.347,2.942,3.547,2.942q0.66,0,1.567-.083v-1.842H84.207c-1.265,0-1.622-.467-1.622-1.21v-9.211H85.5Zm7.845,12.593c3.987,0,6.874-2.887,6.874-7.424s-2.887-7.424-6.874-7.424-6.874,2.887-6.874,7.424S89.358,153.905,93.345,153.905Zm0-1.979c-2.75,0-4.564-2.008-4.564-5.445s1.815-5.444,4.564-5.444,4.564,2.007,4.564,5.444S96.095,151.926,93.345,151.926Zm20.217-12.539v2.062a5.725,5.725,0,0,0-4.867-2.392c-3.987,0-6.6,2.887-6.6,7.424s2.612,7.424,6.6,7.424a5.734,5.734,0,0,0,4.757-2.254v1.374c0,2.943-1.567,4.4-4.4,4.4-2.227,0-3.575-.907-3.85-2.7H103c0.3,2.75,2.42,4.565,6.05,4.565,4.482,0,6.6-2.585,6.6-6.27V139.387h-2.09Zm-4.592,12.539c-2.749,0-4.564-2.118-4.564-5.445s1.815-5.444,4.564-5.444,4.565,2.007,4.565,5.444S111.72,151.926,108.97,151.926Zm16.566-12.759a4.953,4.953,0,0,0-4.564,2.722v-2.5h-2.09v14.188h2.2v-8.084c0-2.749,1.814-4.179,4.647-4.179h0.55V139.2A7.366,7.366,0,0,0,125.536,139.167Zm14.28,12.621a0.65,0.65,0,0,1-.77-0.687v-7.919c0-2.393-1.4-4.125-5.334-4.125-4.152,0-5.61,1.952-5.775,4.7h2.2c0.138-2.117,1.155-2.8,3.575-2.8s3.189,0.743,3.189,2.228c0,1.264-.8,1.787-2.227,1.952l-2.035.22c-3.9.412-5.252,2.172-5.252,4.4,0,2.668,1.925,4.152,5,4.152a5.2,5.2,0,0,0,4.619-2.282c0.11,1.347.825,2.035,2.393,2.035a8.351,8.351,0,0,0,1.209-.083v-1.787h-0.8Zm-7.314.248c-1.952,0-2.832-.935-2.832-2.338,0-1.375.715-2.254,3.3-2.557l2.063-.247a3.662,3.662,0,0,0,1.869-.605v1.677C136.9,150.771,134.619,152.036,132.5,152.036Zm17-12.979a5.574,5.574,0,0,0-4.866,2.53v-2.2h-2.09v19.578h2.2v-7.424a5.572,5.572,0,0,0,4.756,2.364c3.988,0,6.6-2.887,6.6-7.424S153.5,139.057,149.507,139.057Zm-0.274,12.869c-2.75,0-4.565-2.008-4.565-5.445s1.815-5.444,4.565-5.444,4.564,1.9,4.564,5.334S151.982,151.926,149.233,151.926Zm16-12.869a5.225,5.225,0,0,0-4.344,2.282V134h-2.2v19.577h2.2v-8.029c0-3.134,2.062-4.509,3.9-4.509,2.035,0,3.245.962,3.245,3.162v9.376h2.2v-9.6C170.234,140.844,168.391,139.057,165.229,139.057Zm16.717,0.33-2.007,5.884c-0.715,2.063-1.4,4.125-2.035,6.16-0.66-2.035-1.32-4.07-2.035-6.132l-2.007-5.912h-2.42l5.335,14.656c-0.165.44-.33,0.907-0.495,1.32a2.487,2.487,0,0,1-2.585,1.76h-1.292v1.842a10.946,10.946,0,0,0,1.319.082,4.288,4.288,0,0,0,4.62-3.244l5.994-16.416h-2.392Zm16.637-.33a5.572,5.572,0,0,0-4.757,2.365V134h-2.2v19.577h2.09v-2.2a5.577,5.577,0,0,0,4.867,2.529c3.987,0,6.6-2.887,6.6-7.424S202.57,139.057,198.583,139.057Zm-0.275,12.869c-2.75,0-4.564-2.008-4.564-5.445s1.814-5.444,4.564-5.444,4.565,1.9,4.565,5.334S201.058,151.926,198.308,151.926Zm20.982-.138a0.65,0.65,0,0,1-.77-0.687v-7.919c0-2.393-1.4-4.125-5.334-4.125-4.152,0-5.61,1.952-5.775,4.7h2.2c0.138-2.117,1.155-2.8,3.575-2.8s3.189,0.743,3.189,2.228c0,1.264-.8,1.787-2.227,1.952l-2.035.22c-3.9.412-5.252,2.172-5.252,4.4,0,2.668,1.925,4.152,5.005,4.152a5.2,5.2,0,0,0,4.619-2.282c0.11,1.347.825,2.035,2.393,2.035a8.351,8.351,0,0,0,1.209-.083v-1.787h-0.8Zm-7.314.248c-1.952,0-2.832-.935-2.832-2.338,0-1.375.715-2.254,3.3-2.557l2.063-.247a3.665,3.665,0,0,0,1.869-.605v1.677C216.375,150.771,214.093,152.036,211.976,152.036Zm16.593-12.979a5.227,5.227,0,0,0-4.455,2.447v-2.117h-2.089v14.188h2.2v-8.029c0-3.134,2.063-4.509,3.905-4.509,2.035,0,3.245.962,3.245,3.162v9.376h2.2v-9.6C233.573,140.844,231.731,139.057,228.569,139.057Zm19.851,12.731a0.65,0.65,0,0,1-.769-0.687v-7.919c0-2.393-1.4-4.125-5.335-4.125-4.152,0-5.609,1.952-5.774,4.7h2.2c0.137-2.117,1.154-2.8,3.574-2.8s3.19,0.743,3.19,2.228c0,1.264-.8,1.787-2.227,1.952l-2.035.22c-3.905.412-5.252,2.172-5.252,4.4,0,2.668,1.925,4.152,5,4.152a5.2,5.2,0,0,0,4.62-2.282c0.11,1.347.825,2.035,2.392,2.035a8.375,8.375,0,0,0,1.21-.083v-1.787h-0.8Zm-7.314.248c-1.952,0-2.832-.935-2.832-2.338,0-1.375.715-2.254,3.3-2.557l2.062-.247a3.666,3.666,0,0,0,1.87-.605v1.677C245.506,150.771,243.224,152.036,241.106,152.036Zm18.438-12.649-2.007,5.884c-0.715,2.063-1.4,4.125-2.035,6.16-0.66-2.035-1.32-4.07-2.034-6.132l-2.008-5.912h-2.419l5.334,14.656c-0.165.44-.33,0.907-0.5,1.32a2.486,2.486,0,0,1-2.585,1.76H250v1.842a10.962,10.962,0,0,0,1.32.082,4.286,4.286,0,0,0,4.619-3.244l6-16.416h-2.393Zm15.947,7.094c0-4.069-2.282-7.424-6.517-7.424-3.932,0-6.544,2.97-6.544,7.424,0,4.592,2.722,7.424,6.6,7.424a5.919,5.919,0,0,0,6.105-4.647h-2.283a3.645,3.645,0,0,1-3.767,2.64c-2.475,0-4.152-1.457-4.372-4.647h10.779v-0.77Zm-6.517-5.417c2.53,0,3.932,1.87,4.152,4.207h-8.359C265.125,142.467,266.747,141.064,268.974,141.064ZM53.716,166.3h-6.6v19.578h6.6c5.912,0,9.6-3.657,9.6-9.789S59.628,166.3,53.716,166.3Zm0,17.488h-4.29v-15.4h4.29c4.729,0,7.177,2.97,7.177,7.7S58.446,183.785,53.716,183.785Zm13.247-14.106a1.485,1.485,0,1,0-1.485-1.485A1.5,1.5,0,0,0,66.964,169.679Zm-1.1,16.2h2.2V171.687h-2.2v14.188Zm22.642-14.188L86.5,178.093c-0.523,1.705-1.045,3.41-1.512,5.115-0.495-1.705-1.017-3.41-1.54-5.115l-1.98-6.406h-2.31l-1.98,6.406c-0.55,1.733-1.045,3.437-1.512,5.17-0.495-1.733-.99-3.437-1.54-5.17l-2.007-6.406H69.752l4.73,14.188h2.31l2.062-6.572c0.495-1.567.99-3.217,1.457-4.812,0.44,1.595.935,3.245,1.43,4.812l2.09,6.572h2.31l4.73-14.188H88.505Zm15.354,12.4a0.651,0.651,0,0,1-.77-0.688v-7.919c0-2.392-1.4-4.124-5.334-4.124-4.152,0-5.609,1.952-5.774,4.7h2.2c0.138-2.118,1.155-2.805,3.575-2.805s3.189,0.742,3.189,2.227c0,1.265-.8,1.787-2.227,1.952l-2.035.22c-3.9.413-5.252,2.173-5.252,4.4,0,2.667,1.925,4.152,5,4.152a5.2,5.2,0,0,0,4.619-2.282c0.11,1.347.825,2.034,2.393,2.034a8.38,8.38,0,0,0,1.21-.082v-1.787h-0.8Zm-7.314.247c-1.952,0-2.832-.935-2.832-2.337,0-1.375.715-2.255,3.3-2.557l2.062-.248a3.654,3.654,0,0,0,1.869-.605v1.678C100.944,183.07,98.662,184.335,96.545,184.335Zm13.1,1.622a13.981,13.981,0,0,0,1.4-.082v-1.842H110a1.1,1.1,0,0,1-1.348-1.21V166.3h-2.2v16.718C106.454,185.188,107.663,185.957,109.643,185.957Zm4.255-16.278a1.485,1.485,0,1,0-1.485-1.485A1.5,1.5,0,0,0,113.9,169.679Zm-1.1,16.2H115V171.687h-2.2v14.188Zm16,0.33c3.492,0,5.637-1.54,5.637-4.235,0-2.309-1.4-3.492-4.895-4.179l-1.265-.248c-1.814-.357-2.859-0.852-2.859-2.2,0-1.32,1.072-2.09,2.969-2.09,2.173,0,3.465.605,3.575,2.805h2.2c-0.055-3.025-1.98-4.7-5.775-4.7-3.244,0-5.169,1.594-5.169,4.014,0,2.2,1.347,3.6,4.427,4.18l1.32,0.247c2.474,0.468,3.244,1.045,3.244,2.31,0,1.4-1.017,2.2-3.409,2.2-2.5,0-3.547-.8-3.795-2.943H122.78C123,184.693,125.2,186.205,128.8,186.205Zm14.563-14.848a5.227,5.227,0,0,0-4.344,2.282V166.3h-2.2v19.578h2.2v-8.029c0-3.135,2.062-4.51,3.905-4.51,2.034,0,3.244.963,3.244,3.162v9.377h2.2v-9.6C148.37,173.144,146.528,171.357,143.365,171.357Zm19.852,12.731a0.651,0.651,0,0,1-.77-0.688v-7.919c0-2.392-1.4-4.124-5.334-4.124-4.152,0-5.61,1.952-5.775,4.7h2.2c0.138-2.118,1.155-2.805,3.575-2.805S160.3,174,160.3,175.481c0,1.265-.8,1.787-2.227,1.952l-2.035.22c-3.9.413-5.252,2.173-5.252,4.4,0,2.667,1.925,4.152,5,4.152a5.2,5.2,0,0,0,4.619-2.282c0.11,1.347.825,2.034,2.393,2.034a8.356,8.356,0,0,0,1.209-.082v-1.787h-0.8Zm-7.314.247c-1.952,0-2.832-.935-2.832-2.337,0-1.375.715-2.255,3.3-2.557l2.063-.248a3.656,3.656,0,0,0,1.869-.605v1.678C160.3,183.07,158.02,184.335,155.9,184.335Zm21.815-.247a0.651,0.651,0,0,1-.77-0.688v-7.919c0-2.392-1.4-4.124-5.335-4.124-4.152,0-5.609,1.952-5.774,4.7h2.2c0.137-2.118,1.155-2.805,3.574-2.805s3.19,0.742,3.19,2.227c0,1.265-.8,1.787-2.227,1.952l-2.035.22c-3.905.413-5.252,2.173-5.252,4.4,0,2.667,1.925,4.152,5,4.152a5.2,5.2,0,0,0,4.62-2.282c0.11,1.347.825,2.034,2.392,2.034a8.36,8.36,0,0,0,1.21-.082v-1.787h-0.8Zm-7.315.247c-1.952,0-2.832-.935-2.832-2.337,0-1.375.715-2.255,3.3-2.557l2.062-.248a3.656,3.656,0,0,0,1.87-.605v1.678C174.8,183.07,172.521,184.335,170.4,184.335ZM187,171.357a5.227,5.227,0,0,0-4.455,2.447v-2.117h-2.09v14.188h2.2v-8.029c0-3.135,2.062-4.51,3.905-4.51,2.034,0,3.244.963,3.244,3.162v9.377H192v-9.6C192,173.144,190.159,171.357,187,171.357Zm18.894-5.06v7.424a5.572,5.572,0,0,0-4.757-2.364c-3.987,0-6.6,2.887-6.6,7.424s2.612,7.424,6.6,7.424a5.577,5.577,0,0,0,4.867-2.53v2.2h2.09V166.3h-2.2Zm-4.482,17.928c-2.749,0-4.564-1.9-4.564-5.334s1.815-5.555,4.564-5.555,4.565,2.008,4.565,5.445S204.159,184.225,201.409,184.225Zm21.579-.137a0.651,0.651,0,0,1-.77-0.688v-7.919c0-2.392-1.4-4.124-5.335-4.124-4.152,0-5.609,1.952-5.774,4.7h2.2c0.137-2.118,1.155-2.805,3.574-2.805s3.19,0.742,3.19,2.227c0,1.265-.8,1.787-2.227,1.952l-2.035.22c-3.9.413-5.252,2.173-5.252,4.4,0,2.667,1.925,4.152,5,4.152a5.2,5.2,0,0,0,4.619-2.282c0.11,1.347.825,2.034,2.392,2.034a8.36,8.36,0,0,0,1.21-.082v-1.787h-0.8Zm-7.314.247c-1.953,0-2.833-.935-2.833-2.337,0-1.375.715-2.255,3.3-2.557l2.062-.248a3.656,3.656,0,0,0,1.87-.605v1.678C220.073,183.07,217.791,184.335,215.674,184.335Zm21.814-.247a0.65,0.65,0,0,1-.769-0.688v-7.919c0-2.392-1.4-4.124-5.335-4.124-4.152,0-5.609,1.952-5.774,4.7h2.2c0.137-2.118,1.154-2.805,3.574-2.805s3.19,0.742,3.19,2.227c0,1.265-.8,1.787-2.228,1.952l-2.034.22c-3.905.413-5.252,2.173-5.252,4.4,0,2.667,1.925,4.152,5,4.152a5.2,5.2,0,0,0,4.62-2.282c0.11,1.347.825,2.034,2.392,2.034a8.38,8.38,0,0,0,1.21-.082v-1.787h-0.8Zm-7.314.247c-1.952,0-2.832-.935-2.832-2.337,0-1.375.715-2.255,3.3-2.557l2.062-.248a3.656,3.656,0,0,0,1.87-.605v1.678C234.574,183.07,232.292,184.335,230.174,184.335Zm16.7-12.868a4.954,4.954,0,0,0-4.564,2.722v-2.5h-2.09v14.188h2.2v-8.084c0-2.75,1.815-4.18,4.647-4.18h0.55v-2.117C247.317,171.467,247.1,171.467,246.877,171.467Zm3.13,9.294h1.43l0.495-9.074V166.3h-2.31v5.39Zm0.8,5.306a1.579,1.579,0,0,0,1.567-1.622,1.61,1.61,0,0,0-3.217,0A1.581,1.581,0,0,0,250.805,186.067Z"/>
  </g>
</svg>
