<svg xmlns="http://www.w3.org/2000/svg" width="70" height="100%" viewBox="0 0 58 9">
  <defs>
    <style>
      .cls-1 {
        fill: #2c8000;
        fill-rule: evenodd;
      }
    </style>
  </defs>
  <path id="Learn_more_" data-name="Learn more " class="cls-1" d="M1.639,7.834V0.9H0.617V8.725h5.1V7.834H1.639ZM11.59,5.757A2.519,2.519,0,0,0,9,2.922,2.63,2.63,0,0,0,6.326,5.867,2.677,2.677,0,0,0,9.019,8.856,2.491,2.491,0,0,0,11.547,7.01L10.623,6.9A1.531,1.531,0,0,1,9.052,8.032a1.667,1.667,0,0,1-1.714-1.9H11.59V5.757ZM9.008,3.746a1.616,1.616,0,0,1,1.638,1.66h-3.3A1.607,1.607,0,0,1,9.008,3.746Zm9.018,4.231a0.408,0.408,0,0,1-.495-0.495V4.691c0-1.242-.813-1.813-2.22-1.813-1.462,0-2.264.593-2.363,1.846h1a1.04,1.04,0,0,1,1.286-1.011c0.879,0,1.275.286,1.275,0.879V4.834a0.392,0.392,0,0,1-.407.429l-1.451.187c-1.374.176-1.934,0.835-1.934,1.769a1.653,1.653,0,0,0,1.9,1.649,2.4,2.4,0,0,0,2.055-.978,0.845,0.845,0,0,0,.978.835H18.19V7.977H18.025Zm-3.22.11a0.933,0.933,0,0,1-1.088-.912,1.021,1.021,0,0,1,1.1-.978l1.693-.253V6.735A1.593,1.593,0,0,1,14.805,8.087ZM22.086,2.9A1.963,1.963,0,0,0,20.24,4.2V3.053H19.295V8.725h1.011v-3.1a1.68,1.68,0,0,1,1.627-1.736c0.132,0,.242,0,0.363.011V2.911A1.262,1.262,0,0,0,22.086,2.9Zm4.1,0.011a2.161,2.161,0,0,0-1.9.945v-0.8H23.343V8.725h1.011V5.57a1.557,1.557,0,0,1,1.616-1.78,1.032,1.032,0,0,1,1.132,1.2V8.725h1.011V4.79A1.746,1.746,0,0,0,26.189,2.911Zm12.68,0a1.92,1.92,0,0,0-1.8.989A1.548,1.548,0,0,0,35.5,2.911a1.886,1.886,0,0,0-1.726.978l0.044-.835H32.846V8.725h1.011V5.7c0-1.462.725-1.912,1.385-1.912a0.93,0.93,0,0,1,.978,1.055v3.88h1.011V5.647c0-1.462.725-1.857,1.385-1.857a0.93,0.93,0,0,1,.978,1.055v3.88h1.011V4.834A1.627,1.627,0,0,0,38.869,2.911Zm5.9,5.957A2.774,2.774,0,0,0,47.5,5.845a2.669,2.669,0,0,0-2.7-2.934,2.711,2.711,0,0,0-2.759,2.978A2.71,2.71,0,0,0,44.768,8.867Zm0-.846c-1.066,0-1.715-.846-1.715-2.132s0.638-2.132,1.715-2.132c1.1,0,1.725.8,1.725,2.088S45.867,8.021,44.768,8.021ZM51.731,2.9a1.963,1.963,0,0,0-1.846,1.3V3.053H48.939V8.725H49.95v-3.1a1.68,1.68,0,0,1,1.627-1.736c0.132,0,.242,0,0.363.011V2.911A1.261,1.261,0,0,0,51.731,2.9Zm6.191,2.858a2.519,2.519,0,0,0-2.594-2.836,2.63,2.63,0,0,0-2.671,2.945A2.677,2.677,0,0,0,55.35,8.856,2.491,2.491,0,0,0,57.878,7.01L56.955,6.9a1.531,1.531,0,0,1-1.572,1.132,1.667,1.667,0,0,1-1.715-1.9h4.253V5.757ZM55.339,3.746a1.616,1.616,0,0,1,1.637,1.66h-3.3A1.607,1.607,0,0,1,55.339,3.746Z"/>
</svg>
