<svg id="F1" xmlns="http://www.w3.org/2000/svg" width="728" height="90" viewBox="0 0 728 90">
  <defs>
    <style>
      .cls-1 {
        fill: #462b69;
        fill-rule: evenodd;
      }
    </style>
  </defs>
  <path id="Din_ho_ya_raat_Nightography_banaye_Diwali_shaandaar_" data-name="Din ho ya raat, Nightography banaye Diwali shaandaar!" class="cls-1" d="M279.9,23.432h-5.5V39.75h5.5c4.928,0,8-3.048,8-8.159S284.825,23.432,279.9,23.432Zm0,14.576h-3.575V25.173H279.9c3.942,0,5.982,2.475,5.982,6.417S283.839,38.008,279.9,38.008Zm11.025-11.757a1.238,1.238,0,1,0-1.238-1.238A1.247,1.247,0,0,0,290.922,26.251Zm-0.917,13.5h1.834V27.924h-1.834V39.75Zm9.924-12.1a4.356,4.356,0,0,0-3.713,2.04V27.924h-1.742V39.75h1.833V33.057c0-2.613,1.719-3.759,3.255-3.759a2.371,2.371,0,0,1,2.7,2.636V39.75H304.1v-8C304.1,29.138,302.564,27.649,299.929,27.649Zm16.957,0a4.358,4.358,0,0,0-3.621,1.9V23.432h-1.833V39.75h1.833V33.057c0-2.613,1.719-3.759,3.255-3.759a2.371,2.371,0,0,1,2.7,2.636V39.75h1.834v-8C321.058,29.138,319.522,27.649,316.886,27.649Zm11.958,12.376c3.323,0,5.73-2.407,5.73-6.188s-2.407-6.188-5.73-6.188-5.729,2.407-5.729,6.188S325.521,40.025,328.844,40.025Zm0-1.65c-2.292,0-3.8-1.673-3.8-4.538s1.512-4.538,3.8-4.538,3.805,1.673,3.805,4.538S331.136,38.375,328.844,38.375Zm19.983-10.451-1.673,4.9c-0.6,1.719-1.169,3.438-1.7,5.134-0.55-1.7-1.1-3.392-1.7-5.111l-1.673-4.928h-2.017l4.447,12.216c-0.138.367-.275,0.756-0.413,1.1a2.071,2.071,0,0,1-2.154,1.467h-1.078v1.535a9.147,9.147,0,0,0,1.1.069,3.573,3.573,0,0,0,3.85-2.7l5-13.683h-1.994ZM361.571,38.26a0.543,0.543,0,0,1-.642-0.573v-6.6c0-1.994-1.168-3.438-4.446-3.438-3.461,0-4.675,1.627-4.813,3.919H353.5c0.114-1.765.962-2.338,2.979-2.338s2.659,0.619,2.659,1.856c0,1.054-.665,1.49-1.857,1.627l-1.7.183c-3.254.344-4.377,1.811-4.377,3.667,0,2.223,1.6,3.461,4.171,3.461a4.334,4.334,0,0,0,3.85-1.9,1.7,1.7,0,0,0,1.994,1.7,6.986,6.986,0,0,0,1.009-.069V38.26h-0.665Zm-6.1.206c-1.627,0-2.361-.779-2.361-1.948,0-1.146.6-1.879,2.75-2.131l1.719-.206a3.051,3.051,0,0,0,1.559-.5v1.4A3.4,3.4,0,0,1,355.475,38.466ZM373.968,27.74a4.129,4.129,0,0,0-3.8,2.269V27.924h-1.742V39.75h1.833V33.012c0-2.292,1.513-3.484,3.874-3.484h0.458V27.763C374.335,27.74,374.152,27.74,373.968,27.74Zm11.887,10.52a0.542,0.542,0,0,1-.641-0.573v-6.6c0-1.994-1.169-3.438-4.447-3.438-3.46,0-4.675,1.627-4.813,3.919h1.834c0.115-1.765.962-2.338,2.979-2.338s2.659,0.619,2.659,1.856c0,1.054-.665,1.49-1.856,1.627l-1.7.183c-3.255.344-4.378,1.811-4.378,3.667,0,2.223,1.6,3.461,4.171,3.461a4.336,4.336,0,0,0,3.851-1.9,1.7,1.7,0,0,0,1.994,1.7,6.982,6.982,0,0,0,1.008-.069V38.26h-0.665Zm-6.1.206c-1.627,0-2.361-.779-2.361-1.948,0-1.146.6-1.879,2.751-2.131l1.718-.206a3.051,3.051,0,0,0,1.559-.5v1.4A3.4,3.4,0,0,1,379.759,38.466Zm18.171-.206a0.543,0.543,0,0,1-.642-0.573v-6.6c0-1.994-1.169-3.438-4.446-3.438-3.461,0-4.675,1.627-4.813,3.919h1.834c0.114-1.765.962-2.338,2.979-2.338s2.659,0.619,2.659,1.856c0,1.054-.665,1.49-1.857,1.627l-1.7.183c-3.254.344-4.377,1.811-4.377,3.667,0,2.223,1.6,3.461,4.171,3.461a4.334,4.334,0,0,0,3.85-1.9,1.7,1.7,0,0,0,1.994,1.7,6.986,6.986,0,0,0,1.009-.069V38.26H397.93Zm-6.1.206c-1.628,0-2.361-.779-2.361-1.948,0-1.146.6-1.879,2.75-2.131l1.719-.206a3.051,3.051,0,0,0,1.559-.5v1.4A3.4,3.4,0,0,1,391.834,38.466Zm13.207-8.938v-1.6h-2.43V24.577h-1.833v3.346H398.83v1.6h1.948v7.838c0,1.811,1.123,2.452,2.956,2.452q0.55,0,1.307-.069V38.214h-1.078c-1.054,0-1.352-.39-1.352-1.008V29.528h2.43Zm2.7,7.93a1.23,1.23,0,0,0-1.284,1.238,1.194,1.194,0,0,0,1.284,1.192h0.137a1.7,1.7,0,0,1-1.26,1.788l-0.161.046v1.215l0.23-.046c1.489-.3,2.566-1.306,2.566-3.484C409.254,38.145,408.681,37.458,407.742,37.458Zm19.571-14.026v5.5c0,2.2,0,5.225.069,8.434-0.894-1.581-2.269-3.759-3.392-5.523l-5.409-8.411h-2.338V39.75h1.9v-5.5c0-2.2,0-5.225-.069-8.434,0.894,1.581,2.269,3.759,3.392,5.523l5.409,8.411h2.337V23.432h-1.9Zm5.777,2.819a1.238,1.238,0,1,0-1.238-1.238A1.247,1.247,0,0,0,433.09,26.251Zm-0.917,13.5h1.833V27.924h-1.833V39.75Zm13.4-11.826v1.719a4.773,4.773,0,0,0-4.057-1.994c-3.323,0-5.5,2.407-5.5,6.188s2.178,6.188,5.5,6.188a4.779,4.779,0,0,0,3.965-1.879v1.146c0,2.452-1.306,3.667-3.667,3.667-1.856,0-2.98-.756-3.209-2.246H436.77c0.252,2.292,2.017,3.8,5.042,3.8,3.736,0,5.5-2.154,5.5-5.225V27.924h-1.741Zm-3.828,10.451c-2.292,0-3.8-1.765-3.8-4.538s1.512-4.538,3.8-4.538,3.805,1.673,3.805,4.538S444.035,38.375,441.743,38.375Zm13.7-10.726a4.355,4.355,0,0,0-3.621,1.9V23.432h-1.834V39.75h1.834V33.057c0-2.613,1.718-3.759,3.254-3.759a2.371,2.371,0,0,1,2.7,2.636V39.75h1.834v-8C459.614,29.138,458.078,27.649,455.443,27.649Zm11.774,1.879v-1.6h-2.429V24.577h-1.834v3.346h-1.948v1.6h1.948v7.838c0,1.811,1.123,2.452,2.957,2.452q0.549,0,1.306-.069V38.214H466.14c-1.054,0-1.352-.39-1.352-1.008V29.528h2.429Zm6.524,10.5c3.323,0,5.73-2.407,5.73-6.188s-2.407-6.188-5.73-6.188-5.729,2.407-5.729,6.188S470.418,40.025,473.741,40.025Zm0-1.65c-2.292,0-3.8-1.673-3.8-4.538s1.512-4.538,3.8-4.538,3.805,1.673,3.805,4.538S476.033,38.375,473.741,38.375Zm16.837-10.451v1.719a4.773,4.773,0,0,0-4.056-1.994c-3.324,0-5.5,2.407-5.5,6.188s2.177,6.188,5.5,6.188a4.779,4.779,0,0,0,3.965-1.879v1.146c0,2.452-1.307,3.667-3.667,3.667-1.857,0-2.98-.756-3.209-2.246h-1.833c0.252,2.292,2.016,3.8,5.042,3.8,3.735,0,5.5-2.154,5.5-5.225V27.924h-1.742Zm-3.827,10.451c-2.292,0-3.8-1.765-3.8-4.538s1.513-4.538,3.8-4.538,3.8,1.673,3.8,4.538S489.043,38.375,486.751,38.375ZM500.542,27.74a4.129,4.129,0,0,0-3.8,2.269V27.924H495V39.75h1.833V33.012c0-2.292,1.513-3.484,3.874-3.484h0.458V27.763C500.909,27.74,500.725,27.74,500.542,27.74Zm11.887,10.52a0.543,0.543,0,0,1-.642-0.573v-6.6c0-1.994-1.169-3.438-4.446-3.438-3.461,0-4.675,1.627-4.813,3.919h1.834c0.114-1.765.962-2.338,2.979-2.338S510,29.849,510,31.086c0,1.054-.665,1.49-1.857,1.627l-1.7.183c-3.254.344-4.377,1.811-4.377,3.667,0,2.223,1.6,3.461,4.171,3.461a4.334,4.334,0,0,0,3.85-1.9,1.7,1.7,0,0,0,1.994,1.7,6.986,6.986,0,0,0,1.009-.069V38.26h-0.665Zm-6.1.206c-1.628,0-2.361-.779-2.361-1.948,0-1.146.6-1.879,2.75-2.131l1.719-.206a3.051,3.051,0,0,0,1.559-.5v1.4A3.4,3.4,0,0,1,506.333,38.466Zm14.16-10.818a4.649,4.649,0,0,0-4.057,2.109V27.924H514.7V44.242h1.833V38.054a4.646,4.646,0,0,0,3.965,1.971c3.323,0,5.5-2.407,5.5-6.188S523.816,27.649,520.493,27.649Zm-0.229,10.726c-2.292,0-3.805-1.673-3.805-4.538s1.513-4.538,3.805-4.538,3.8,1.581,3.8,4.446S522.556,38.375,520.264,38.375Zm13.319-10.726a4.357,4.357,0,0,0-3.621,1.9V23.432h-1.834V39.75h1.834V33.057c0-2.613,1.719-3.759,3.254-3.759a2.372,2.372,0,0,1,2.705,2.636V39.75h1.833v-8C537.754,29.138,536.219,27.649,533.583,27.649Zm13.92,0.275-1.674,4.9c-0.595,1.719-1.168,3.438-1.7,5.134-0.55-1.7-1.1-3.392-1.7-5.111l-1.674-4.928h-2.016l4.446,12.216c-0.138.367-.275,0.756-0.413,1.1a2.071,2.071,0,0,1-2.154,1.467H539.55v1.535a9.118,9.118,0,0,0,1.1.069,3.573,3.573,0,0,0,3.85-2.7l5-13.683H547.5ZM293.431,53.869a4.646,4.646,0,0,0-3.965,1.971V49.652h-1.833V65.97h1.742V64.137a4.646,4.646,0,0,0,4.056,2.109c3.323,0,5.5-2.407,5.5-6.188S296.754,53.869,293.431,53.869ZM293.2,64.6c-2.292,0-3.805-1.673-3.805-4.538s1.513-4.538,3.805-4.538,3.8,1.581,3.8,4.446S295.494,64.6,293.2,64.6Zm17.474-.115a0.542,0.542,0,0,1-.642-0.573v-6.6c0-1.994-1.168-3.438-4.446-3.438-3.46,0-4.675,1.627-4.813,3.919h1.834c0.114-1.765.962-2.338,2.979-2.338s2.659,0.619,2.659,1.856c0,1.054-.665,1.49-1.857,1.627l-1.7.183c-3.254.344-4.377,1.81-4.377,3.667,0,2.223,1.6,3.461,4.171,3.461a4.334,4.334,0,0,0,3.85-1.9,1.7,1.7,0,0,0,1.994,1.7,6.986,6.986,0,0,0,1.009-.069v-1.49h-0.665Zm-6.1.206c-1.627,0-2.361-.779-2.361-1.948,0-1.146.6-1.879,2.75-2.131l1.719-.206a3.052,3.052,0,0,0,1.559-.5v1.4A3.4,3.4,0,0,1,304.58,64.687ZM318.4,53.869a4.355,4.355,0,0,0-3.712,2.04V54.144h-1.742V65.97h1.833V59.278c0-2.613,1.719-3.759,3.255-3.759a2.372,2.372,0,0,1,2.7,2.636V65.97h1.834v-8C322.568,55.359,321.032,53.869,318.4,53.869Zm16.535,10.611a0.542,0.542,0,0,1-.642-0.573v-6.6c0-1.994-1.169-3.438-4.446-3.438-3.461,0-4.675,1.627-4.813,3.919h1.834c0.114-1.765.962-2.338,2.979-2.338s2.659,0.619,2.659,1.856c0,1.054-.665,1.49-1.857,1.627l-1.7.183c-3.254.344-4.377,1.81-4.377,3.667,0,2.223,1.6,3.461,4.171,3.461a4.334,4.334,0,0,0,3.85-1.9,1.7,1.7,0,0,0,1.994,1.7,6.986,6.986,0,0,0,1.009-.069v-1.49h-0.665Zm-6.1.206c-1.628,0-2.361-.779-2.361-1.948,0-1.146.6-1.879,2.75-2.131l1.719-.206a3.052,3.052,0,0,0,1.559-.5v1.4A3.4,3.4,0,0,1,328.835,64.687Zm15.352-10.543-1.673,4.9c-0.6,1.719-1.169,3.438-1.7,5.134-0.55-1.7-1.1-3.392-1.7-5.111l-1.673-4.928h-2.017l4.446,12.216c-0.138.367-.275,0.756-0.413,1.1a2.071,2.071,0,0,1-2.154,1.467h-1.077v1.535a9.13,9.13,0,0,0,1.1.069,3.573,3.573,0,0,0,3.85-2.7l5-13.683h-1.994Zm13.278,5.913c0-3.392-1.9-6.188-5.432-6.188-3.277,0-5.455,2.475-5.455,6.188,0,3.828,2.269,6.188,5.5,6.188a4.933,4.933,0,0,0,5.088-3.873h-1.9a3.037,3.037,0,0,1-3.139,2.2c-2.063,0-3.461-1.215-3.645-3.873h8.985V60.057Zm-5.432-4.515c2.108,0,3.277,1.559,3.461,3.507h-6.968C348.824,56.711,350.176,55.542,352.033,55.542Zm17.806-5.89h-5.5V65.97h5.5c4.927,0,8-3.048,8-8.159S374.766,49.652,369.839,49.652Zm0,14.576h-3.575V51.394h3.575c3.942,0,5.982,2.475,5.982,6.417S373.781,64.229,369.839,64.229Zm11.025-11.757a1.238,1.238,0,1,0-1.238-1.238A1.247,1.247,0,0,0,380.864,52.471Zm-0.917,13.5h1.833V54.144h-1.833V65.97Zm18.859-11.826-1.673,5.34c-0.435,1.421-.871,2.842-1.26,4.263-0.413-1.421-.848-2.842-1.284-4.263l-1.65-5.34h-1.925l-1.65,5.34c-0.459,1.444-.871,2.865-1.261,4.309-0.412-1.444-.825-2.865-1.283-4.309l-1.673-5.34h-1.971l3.942,11.826h1.925l1.719-5.478c0.412-1.306.825-2.681,1.214-4.011,0.367,1.329.78,2.7,1.192,4.011l1.742,5.478h1.925l3.942-11.826h-1.971Zm12.783,10.336a0.542,0.542,0,0,1-.642-0.573v-6.6c0-1.994-1.169-3.438-4.446-3.438-3.461,0-4.676,1.627-4.813,3.919h1.833c0.115-1.765.963-2.338,2.98-2.338s2.658,0.619,2.658,1.856c0,1.054-.664,1.49-1.856,1.627l-1.7.183c-3.255.344-4.378,1.81-4.378,3.667,0,2.223,1.605,3.461,4.172,3.461a4.334,4.334,0,0,0,3.85-1.9,1.7,1.7,0,0,0,1.994,1.7,6.972,6.972,0,0,0,1.008-.069v-1.49h-0.664Zm-6.1.206c-1.627,0-2.36-.779-2.36-1.948,0-1.146.6-1.879,2.75-2.131L407.6,60.4a3.048,3.048,0,0,0,1.558-.5v1.4A3.4,3.4,0,0,1,405.492,64.687Zm10.9,1.352a11.669,11.669,0,0,0,1.169-.069V64.435h-0.871a0.918,0.918,0,0,1-1.123-1.008V49.652h-1.834V63.587C413.737,65.4,414.746,66.039,416.4,66.039Zm3.536-13.568a1.238,1.238,0,1,0-1.238-1.238A1.247,1.247,0,0,0,419.932,52.471Zm-0.917,13.5h1.833V54.144h-1.833V65.97Zm13.337,0.275c2.911,0,4.7-1.284,4.7-3.53,0-1.925-1.169-2.911-4.08-3.484l-1.054-.206c-1.513-.3-2.384-0.711-2.384-1.834,0-1.1.894-1.742,2.476-1.742,1.81,0,2.887.5,2.979,2.338h1.834c-0.046-2.521-1.651-3.919-4.813-3.919-2.705,0-4.309,1.329-4.309,3.346,0,1.834,1.123,3,3.69,3.484l1.1,0.206c2.063,0.39,2.7.871,2.7,1.925,0,1.169-.848,1.834-2.842,1.834-2.085,0-2.956-.665-3.162-2.452h-1.857C427.517,64.985,429.35,66.245,432.352,66.245Zm12.126-12.376a4.355,4.355,0,0,0-3.621,1.9V49.652h-1.834V65.97h1.834V59.278c0-2.613,1.718-3.759,3.254-3.759a2.372,2.372,0,0,1,2.7,2.636V65.97h1.834v-8C448.649,55.359,447.113,53.869,444.478,53.869Zm16.534,10.611a0.542,0.542,0,0,1-.641-0.573v-6.6c0-1.994-1.169-3.438-4.447-3.438-3.46,0-4.675,1.627-4.813,3.919h1.834c0.114-1.765.962-2.338,2.979-2.338s2.659,0.619,2.659,1.856c0,1.054-.665,1.49-1.857,1.627l-1.7.183c-3.254.344-4.377,1.81-4.377,3.667,0,2.223,1.6,3.461,4.171,3.461a4.337,4.337,0,0,0,3.851-1.9,1.7,1.7,0,0,0,1.993,1.7,6.986,6.986,0,0,0,1.009-.069v-1.49h-0.665Zm-6.1.206c-1.627,0-2.361-.779-2.361-1.948,0-1.146.6-1.879,2.751-2.131l1.718-.206a3.052,3.052,0,0,0,1.559-.5v1.4A3.4,3.4,0,0,1,454.916,64.687Zm18.171-.206a0.542,0.542,0,0,1-.642-0.573v-6.6c0-1.994-1.169-3.438-4.446-3.438-3.461,0-4.675,1.627-4.813,3.919h1.834c0.114-1.765.962-2.338,2.979-2.338s2.659,0.619,2.659,1.856c0,1.054-.665,1.49-1.857,1.627l-1.7.183c-3.254.344-4.377,1.81-4.377,3.667,0,2.223,1.6,3.461,4.171,3.461a4.334,4.334,0,0,0,3.85-1.9,1.7,1.7,0,0,0,1.994,1.7,6.986,6.986,0,0,0,1.009-.069v-1.49h-0.665Zm-6.1.206c-1.628,0-2.361-.779-2.361-1.948,0-1.146.6-1.879,2.75-2.131L469.1,60.4a3.052,3.052,0,0,0,1.559-.5v1.4A3.4,3.4,0,0,1,466.991,64.687Zm13.816-10.818a4.358,4.358,0,0,0-3.713,2.04V54.144h-1.741V65.97h1.833V59.278c0-2.613,1.719-3.759,3.254-3.759a2.372,2.372,0,0,1,2.7,2.636V65.97h1.833v-8C484.978,55.359,483.443,53.869,480.807,53.869Zm15.733-4.217V55.84a4.646,4.646,0,0,0-3.965-1.971c-3.324,0-5.5,2.406-5.5,6.188s2.177,6.188,5.5,6.188a4.649,4.649,0,0,0,4.056-2.109V65.97h1.742V49.652H496.54ZM492.8,64.6c-2.292,0-3.8-1.581-3.8-4.446s1.513-4.63,3.8-4.63,3.8,1.673,3.8,4.538S495.1,64.6,492.8,64.6Zm17.971-.115a0.542,0.542,0,0,1-.641-0.573v-6.6c0-1.994-1.169-3.438-4.447-3.438-3.46,0-4.675,1.627-4.812,3.919h1.833c0.115-1.765.963-2.338,2.979-2.338s2.659,0.619,2.659,1.856c0,1.054-.665,1.49-1.856,1.627l-1.7.183c-3.255.344-4.378,1.81-4.378,3.667,0,2.223,1.605,3.461,4.171,3.461a4.335,4.335,0,0,0,3.851-1.9,1.7,1.7,0,0,0,1.994,1.7,6.982,6.982,0,0,0,1.008-.069v-1.49h-0.665Zm-6.1.206c-1.627,0-2.361-.779-2.361-1.948,0-1.146.6-1.879,2.751-2.131l1.719-.206a3.052,3.052,0,0,0,1.558-.5v1.4A3.4,3.4,0,0,1,504.679,64.687Zm18.171-.206a0.542,0.542,0,0,1-.642-0.573v-6.6c0-1.994-1.168-3.438-4.446-3.438-3.461,0-4.675,1.627-4.813,3.919h1.834c0.114-1.765.962-2.338,2.979-2.338s2.659,0.619,2.659,1.856c0,1.054-.665,1.49-1.857,1.627l-1.7.183c-3.254.344-4.377,1.81-4.377,3.667,0,2.223,1.6,3.461,4.171,3.461a4.334,4.334,0,0,0,3.85-1.9,1.7,1.7,0,0,0,1.994,1.7,6.986,6.986,0,0,0,1.009-.069v-1.49H522.85Zm-6.1.206c-1.627,0-2.361-.779-2.361-1.948,0-1.146.6-1.879,2.75-2.131l1.719-.206a3.052,3.052,0,0,0,1.559-.5v1.4A3.4,3.4,0,0,1,516.754,64.687Zm13.908-10.726a4.131,4.131,0,0,0-3.805,2.269V54.144h-1.741V65.97h1.833V59.232c0-2.292,1.513-3.484,3.873-3.484h0.459V53.984C531.029,53.961,530.845,53.961,530.662,53.961Zm2.6,7.747h1.192l0.412-7.563V49.652h-1.925v4.492Zm0.664,4.423a1.317,1.317,0,0,0,1.307-1.352,1.342,1.342,0,0,0-2.682,0A1.318,1.318,0,0,0,533.922,66.131Z"/>
</svg>
