<svg id="F3" xmlns="http://www.w3.org/2000/svg" width="728" height="90" viewBox="0 0 728 90">
  <defs>
    <style>
      .cls-1 {
        fill: #462b69;
        fill-rule: evenodd;
      }
    </style>
  </defs>
  <path id="Paayein_nayi_Galaxy_S23_Series_for_0_upfront_only_on_TELUS._" data-name="Paayein nayi Galaxy S23 Series for $0 upfront* only on TELUS. " class="cls-1" d="M265.576,15.176H259.1V30.75h1.837V24.756h4.637c3.456,0,5.163-1.991,5.163-4.79S269.032,15.176,265.576,15.176Zm0,7.918h-4.637V16.838h4.637c2.188,0,3.26,1.159,3.26,3.128S267.764,23.094,265.576,23.094Zm16.013,6.234a0.518,0.518,0,0,1-.613-0.547v-6.3c0-1.9-1.115-3.281-4.243-3.281-3.3,0-4.462,1.553-4.594,3.74h1.75c0.11-1.684.919-2.231,2.844-2.231s2.537,0.59,2.537,1.772c0,1.006-.634,1.422-1.772,1.553l-1.618.175c-3.106.328-4.178,1.728-4.178,3.5,0,2.122,1.531,3.3,3.981,3.3a4.139,4.139,0,0,0,3.675-1.815,1.618,1.618,0,0,0,1.9,1.619,6.654,6.654,0,0,0,.962-0.066V29.328h-0.634Zm-5.819.2c-1.553,0-2.253-.744-2.253-1.859,0-1.094.569-1.794,2.625-2.034l1.641-.2a2.911,2.911,0,0,0,1.487-.481v1.334A3.242,3.242,0,0,1,275.77,29.525Zm17.353-.2a0.517,0.517,0,0,1-.612-0.547v-6.3c0-1.9-1.116-3.281-4.244-3.281-3.3,0-4.462,1.553-4.593,3.74h1.75c0.109-1.684.918-2.231,2.843-2.231s2.538,0.59,2.538,1.772c0,1.006-.635,1.422-1.772,1.553l-1.619.175c-3.106.328-4.178,1.728-4.178,3.5,0,2.122,1.532,3.3,3.981,3.3a4.136,4.136,0,0,0,3.675-1.815,1.619,1.619,0,0,0,1.9,1.619,6.678,6.678,0,0,0,.963-0.066V29.328h-0.635Zm-5.818.2c-1.553,0-2.253-.744-2.253-1.859,0-1.094.569-1.794,2.625-2.034l1.64-.2a2.915,2.915,0,0,0,1.488-.481v1.334A3.242,3.242,0,0,1,287.305,29.525Zm14.667-10.062-1.6,4.681c-0.569,1.641-1.116,3.281-1.619,4.9-0.525-1.619-1.05-3.237-1.618-4.878l-1.6-4.7h-1.925l4.244,11.659c-0.132.35-.263,0.722-0.394,1.05a1.978,1.978,0,0,1-2.056,1.4h-1.028v1.465a8.726,8.726,0,0,0,1.05.066,3.41,3.41,0,0,0,3.674-2.581l4.769-13.058h-1.9Zm12.685,5.643c0-3.237-1.816-5.906-5.184-5.906-3.128,0-5.206,2.362-5.206,5.906,0,3.653,2.165,5.906,5.249,5.906a4.708,4.708,0,0,0,4.856-3.7h-1.815a2.9,2.9,0,0,1-3,2.1c-1.969,0-3.3-1.159-3.478-3.7h8.575V25.106ZM309.473,20.8c2.012,0,3.128,1.487,3.3,3.347h-6.649C306.41,21.913,307.7,20.8,309.473,20.8Zm8.008-2.931a1.181,1.181,0,1,0-1.181-1.181A1.19,1.19,0,0,0,317.481,17.866ZM316.606,30.75h1.75V19.463h-1.75V30.75ZM326.091,19.2a4.159,4.159,0,0,0-3.544,1.947V19.463h-1.662V30.75h1.75V24.363c0-2.494,1.64-3.587,3.106-3.587a2.263,2.263,0,0,1,2.581,2.515V30.75h1.75V23.116C330.072,20.622,328.606,19.2,326.091,19.2Zm16.187,0a4.159,4.159,0,0,0-3.544,1.947V19.463h-1.662V30.75h1.75V24.363c0-2.494,1.64-3.587,3.106-3.587a2.263,2.263,0,0,1,2.581,2.515V30.75h1.75V23.116C346.259,20.622,344.793,19.2,342.278,19.2Zm15.791,10.127a0.517,0.517,0,0,1-.612-0.547v-6.3c0-1.9-1.116-3.281-4.244-3.281-3.3,0-4.462,1.553-4.593,3.74h1.75c0.109-1.684.918-2.231,2.843-2.231s2.538,0.59,2.538,1.772c0,1.006-.635,1.422-1.772,1.553l-1.619.175c-3.106.328-4.178,1.728-4.178,3.5,0,2.122,1.531,3.3,3.981,3.3a4.136,4.136,0,0,0,3.675-1.815,1.618,1.618,0,0,0,1.9,1.619,6.654,6.654,0,0,0,.962-0.066V29.328h-0.634Zm-5.818.2c-1.553,0-2.253-.744-2.253-1.859,0-1.094.568-1.794,2.625-2.034l1.64-.2a2.915,2.915,0,0,0,1.488-.481v1.334A3.242,3.242,0,0,1,352.251,29.525Zm14.667-10.062-1.6,4.681c-0.569,1.641-1.116,3.281-1.619,4.9-0.525-1.619-1.05-3.237-1.618-4.878l-1.6-4.7h-1.925l4.243,11.659c-0.131.35-.262,0.722-0.393,1.05a1.978,1.978,0,0,1-2.056,1.4h-1.029v1.465a8.739,8.739,0,0,0,1.05.066,3.411,3.411,0,0,0,3.675-2.581l4.769-13.058h-1.9Zm4.154-1.6a1.181,1.181,0,1,0-1.181-1.181A1.19,1.19,0,0,0,371.072,17.866ZM370.2,30.75h1.75V19.463H370.2V30.75Zm15.946-8.006v1.662h4.965a5.067,5.067,0,0,1-5.315,5.009c-3.3,0-5.468-2.494-5.468-6.453s2.143-6.453,5.468-6.453a4.689,4.689,0,0,1,4.9,3.762h1.9c-0.525-3.237-3.041-5.447-6.8-5.447-4.506,0-7.393,3.3-7.393,8.137s2.909,8.137,7.371,8.137a5.978,5.978,0,0,0,5.1-2.45l0.393,2.1h1.51V22.744h-6.628Zm18.5,6.584a0.518,0.518,0,0,1-.613-0.547v-6.3c0-1.9-1.115-3.281-4.243-3.281-3.3,0-4.462,1.553-4.594,3.74h1.75c0.11-1.684.919-2.231,2.844-2.231s2.537,0.59,2.537,1.772c0,1.006-.634,1.422-1.772,1.553l-1.618.175c-3.106.328-4.178,1.728-4.178,3.5,0,2.122,1.531,3.3,3.981,3.3a4.138,4.138,0,0,0,3.675-1.815,1.618,1.618,0,0,0,1.9,1.619,6.654,6.654,0,0,0,.962-0.066V29.328h-0.634Zm-5.819.2c-1.553,0-2.253-.744-2.253-1.859,0-1.094.569-1.794,2.625-2.034l1.641-.2a2.911,2.911,0,0,0,1.487-.481v1.334A3.242,3.242,0,0,1,398.828,29.525Zm10.419,1.291a11.135,11.135,0,0,0,1.116-.066V29.284h-0.831a0.877,0.877,0,0,1-1.072-.962V15.176h-1.75v13.3C406.71,30.2,407.673,30.815,409.247,30.815Zm11.983-1.487a0.517,0.517,0,0,1-.612-0.547v-6.3c0-1.9-1.116-3.281-4.244-3.281-3.3,0-4.462,1.553-4.593,3.74h1.75c0.109-1.684.918-2.231,2.843-2.231s2.537,0.59,2.537,1.772c0,1.006-.634,1.422-1.771,1.553l-1.619.175c-3.106.328-4.178,1.728-4.178,3.5,0,2.122,1.531,3.3,3.981,3.3A4.136,4.136,0,0,0,419,29.2a1.618,1.618,0,0,0,1.9,1.619,6.654,6.654,0,0,0,.962-0.066V29.328H421.23Zm-5.818.2c-1.553,0-2.253-.744-2.253-1.859,0-1.094.568-1.794,2.625-2.034l1.64-.2a2.911,2.911,0,0,0,1.487-.481v1.334A3.241,3.241,0,0,1,415.412,29.525Zm13.645-4.55,4.09-5.512h-2.034l-0.853,1.2c-0.7.962-1.465,2.034-2.187,3.062-0.7-1.028-1.444-2.056-2.188-3.062l-0.874-1.2h-2.057l4.091,5.512-4.309,5.775h2.034l0.591-.831c0.874-1.247,1.815-2.515,2.69-3.7,0.853,1.159,1.75,2.406,2.647,3.675l0.612,0.853h2.056Zm13.368-5.512-1.6,4.681c-0.569,1.641-1.116,3.281-1.619,4.9-0.525-1.619-1.05-3.237-1.619-4.878l-1.6-4.7h-1.925l4.243,11.659c-0.131.35-.262,0.722-0.393,1.05a1.978,1.978,0,0,1-2.057,1.4h-1.028v1.465a8.739,8.739,0,0,0,1.05.066,3.411,3.411,0,0,0,3.675-2.581l4.769-13.058h-1.9ZM455.943,31.1c3.74,0,5.84-1.815,5.84-4.572,0-2.253-1.269-3.653-4.856-4.44l-1.378-.306c-2.931-.656-3.653-1.4-3.653-2.887,0-1.466,1.16-2.406,3.413-2.406,3.106,0,4.046,1.2,4.2,3.215h1.881c-0.065-2.537-1.487-4.878-6.08-4.878-3.238,0-5.316,1.575-5.316,4.069,0,2.843,2.078,3.915,4.725,4.506l1.378,0.306c2.756,0.613,3.784,1.334,3.784,2.822,0,1.925-1.444,2.909-3.937,2.909-2.537,0-4.528-.941-4.572-3.828h-1.9C449.512,29.5,452.224,31.1,455.943,31.1Zm9.319-2.012c0.131-1.728,1.006-2.669,2.8-3.718l1.662-.962c2.494-1.444,3.543-3.084,3.543-5.075,0-2.647-2.012-4.506-4.965-4.506-3.215,0-5.162,1.794-5.118,5.009H465c0-2.384,1.313-3.347,3.259-3.347a2.769,2.769,0,0,1,3.085,2.844c0,1.64-.853,2.625-2.735,3.718l-1.968,1.137a6.379,6.379,0,0,0-3.391,5.709l-0.043.853h10.28V29.087h-8.224Zm17.665-6.628a3.76,3.76,0,0,0,2.122-3.412c0-2.734-2.1-4.222-4.987-4.222-3.15,0-5.075,1.859-5.1,4.637H476.8c0.087-2.1,1.465-2.975,3.259-2.975,1.9,0,3.128.941,3.128,2.6s-1.138,2.647-3.237,2.647H478.9v1.531h1.159c2.187,0,3.543,1.225,3.543,3.106s-1.356,3.062-3.434,3.062c-2.275,0-3.565-1.181-3.631-3.39h-1.815c-0.022,3.018,1.881,5.053,5.446,5.053,3.172,0,5.359-1.881,5.359-4.725A4.325,4.325,0,0,0,482.927,22.46ZM497.8,31.1c3.74,0,5.84-1.815,5.84-4.572,0-2.253-1.268-3.653-4.856-4.44l-1.378-.306c-2.931-.656-3.653-1.4-3.653-2.887,0-1.466,1.16-2.406,3.413-2.406,3.106,0,4.046,1.2,4.2,3.215h1.881c-0.065-2.537-1.487-4.878-6.08-4.878-3.238,0-5.316,1.575-5.316,4.069,0,2.843,2.078,3.915,4.725,4.506l1.378,0.306c2.756,0.613,3.784,1.334,3.784,2.822,0,1.925-1.443,2.909-3.937,2.909-2.537,0-4.528-.941-4.572-3.828h-1.9C491.371,29.5,494.084,31.1,497.8,31.1Zm17.572-5.993c0-3.237-1.816-5.906-5.184-5.906-3.128,0-5.206,2.362-5.206,5.906,0,3.653,2.165,5.906,5.25,5.906a4.707,4.707,0,0,0,4.855-3.7h-1.815a2.9,2.9,0,0,1-3,2.1c-1.968,0-3.3-1.159-3.478-3.7h8.575V25.106ZM510.19,20.8c2.012,0,3.128,1.487,3.3,3.347h-6.65C507.128,21.913,508.418,20.8,510.19,20.8Zm12.493-1.509a3.94,3.94,0,0,0-3.631,2.165v-1.99h-1.663V30.75h1.75V24.319c0-2.187,1.444-3.325,3.7-3.325h0.437V19.31C523.033,19.288,522.858,19.288,522.683,19.288Zm3.038-1.422a1.181,1.181,0,1,0-1.181-1.181A1.19,1.19,0,0,0,525.721,17.866ZM524.846,30.75h1.75V19.463h-1.75V30.75Zm14.067-5.643c0-3.237-1.815-5.906-5.184-5.906-3.128,0-5.206,2.362-5.206,5.906,0,3.653,2.166,5.906,5.25,5.906a4.709,4.709,0,0,0,4.856-3.7h-1.816a2.9,2.9,0,0,1-3,2.1c-1.969,0-3.3-1.159-3.478-3.7h8.574V25.106ZM533.729,20.8c2.013,0,3.128,1.487,3.3,3.347h-6.649C530.667,21.913,531.957,20.8,533.729,20.8Zm11.18,10.215c2.778,0,4.485-1.225,4.485-3.369,0-1.837-1.116-2.778-3.894-3.325l-1.006-.2c-1.444-.284-2.275-0.678-2.275-1.75,0-1.05.853-1.662,2.362-1.662,1.728,0,2.756.481,2.844,2.231h1.75c-0.044-2.406-1.575-3.74-4.594-3.74-2.581,0-4.112,1.269-4.112,3.194,0,1.75,1.072,2.865,3.522,3.325l1.05,0.2c1.968,0.372,2.581.831,2.581,1.837,0,1.116-.81,1.75-2.713,1.75-1.99,0-2.821-.634-3.018-2.341h-1.772C540.294,29.809,542.044,31.012,544.909,31.012ZM271.194,44.551H272.2V43.063c-0.263-.022-0.788-0.044-1.116-0.044-2.231,0-3.15,1.181-3.15,3.172V47.35h-1.859v1.531h1.859v9.755h1.75V48.882h2.406V47.35h-2.406v-1.2A1.389,1.389,0,0,1,271.194,44.551ZM278.385,58.9c3.171,0,5.468-2.3,5.468-5.906s-2.3-5.906-5.468-5.906-5.469,2.3-5.469,5.906S275.213,58.9,278.385,58.9Zm0-1.575c-2.188,0-3.631-1.6-3.631-4.331s1.443-4.331,3.631-4.331,3.631,1.6,3.631,4.331S280.572,57.325,278.385,57.325Zm12.777-10.149a3.94,3.94,0,0,0-3.631,2.166V47.35h-1.663V58.637h1.75V52.206c0-2.187,1.444-3.325,3.7-3.325h0.437V47.2C291.511,47.175,291.336,47.175,291.162,47.175Zm13.383,1.588c0-1.442-.868-2.271-3.011-2.692l-0.293-.051V43.495a1.426,1.426,0,0,1,1.365,1.48h1.671c-0.064-1.556-.957-2.679-3.036-2.883v-1.3h-0.919v1.276c-2.015.089-3.112,1.123-3.112,2.564,0,1.645,1.161,2.424,2.921,2.755l0.191,0.038v2.7a1.644,1.644,0,0,1-1.645-1.773h-1.7c0.013,1.926,1.25,3.023,3.342,3.176v1.3h0.919V51.544C303.294,51.442,304.545,50.46,304.545,48.763Zm-5.575-4.184a1.186,1.186,0,0,1,1.352-1.11v2.347C299.3,45.561,298.97,45.23,298.97,44.579Zm2.271,5.575V47.615c1.122,0.268,1.518.587,1.518,1.237A1.348,1.348,0,0,1,301.241,50.154Zm10.57,8.833c4.177,0,6.255-2.975,6.255-8.137s-2.1-8.137-6.255-8.137c-4.135,0-6.234,2.975-6.234,8.137S307.676,58.987,311.811,58.987Zm0-2.494c-2.013,0-3.15-1.684-3.15-5.643s1.137-5.643,3.15-5.643c2.034,0,3.171,1.684,3.171,5.643S313.867,56.493,311.811,56.493Zm20.277-9.143v6.387c0,2.493-1.64,3.587-3.106,3.587a2.264,2.264,0,0,1-2.581-2.515V47.35h-1.75v7.634c0,2.493,1.466,3.915,3.981,3.915a4.159,4.159,0,0,0,3.544-1.947v1.684h1.662V47.35h-1.75Zm9.851-.262a4.436,4.436,0,0,0-3.872,2.012V47.35h-1.662V62.924h1.749V57.018a4.436,4.436,0,0,0,3.785,1.881c3.171,0,5.249-2.3,5.249-5.906S345.11,47.088,341.939,47.088ZM341.72,57.325c-2.188,0-3.631-1.6-3.631-4.331s1.443-4.331,3.631-4.331,3.631,1.509,3.631,4.243S343.907,57.325,341.72,57.325Zm11.314-12.774h1.006V43.063c-0.263-.022-0.788-0.044-1.116-0.044-2.231,0-3.15,1.181-3.15,3.172V47.35h-1.859v1.531h1.859v9.755h1.75V48.882h2.406V47.35h-2.406v-1.2A1.389,1.389,0,0,1,353.034,44.551Zm7.826,2.625a3.943,3.943,0,0,0-3.631,2.166V47.35h-1.662V58.637h1.75V52.206c0-2.187,1.443-3.325,3.7-3.325h0.438V47.2C361.21,47.175,361.035,47.175,360.86,47.175ZM367.692,58.9c3.171,0,5.468-2.3,5.468-5.906s-2.3-5.906-5.468-5.906-5.469,2.3-5.469,5.906S364.52,58.9,367.692,58.9Zm0-1.575c-2.188,0-3.631-1.6-3.631-4.331s1.443-4.331,3.631-4.331,3.631,1.6,3.631,4.331S369.879,57.325,367.692,57.325Zm12.689-10.237a4.156,4.156,0,0,0-3.543,1.947V47.35h-1.663V58.637h1.75V52.25c0-2.494,1.641-3.587,3.106-3.587a2.263,2.263,0,0,1,2.581,2.515v7.459h1.75V51C384.362,48.51,382.9,47.088,380.381,47.088Zm11.252,1.794V47.35h-2.318V44.157h-1.75V47.35h-1.859v1.531h1.859v7.481c0,1.728,1.072,2.34,2.822,2.34q0.525,0,1.246-.066V57.172h-1.028c-1.006,0-1.29-.372-1.29-0.962V48.882h2.318Zm2.145-1.611L394.99,45.6l1.212,1.671,0.638-.51-1.225-1.7,1.939-.625-0.268-.765-1.888.612V42.27h-0.816v2.016l-1.888-.612-0.268.765,1.939,0.625-1.225,1.7ZM406.847,58.9c3.172,0,5.469-2.3,5.469-5.906s-2.3-5.906-5.469-5.906-5.468,2.3-5.468,5.906S403.676,58.9,406.847,58.9Zm0-1.575c-2.187,0-3.631-1.6-3.631-4.331s1.444-4.331,3.631-4.331,3.631,1.6,3.631,4.331S409.035,57.325,406.847,57.325Zm12.69-10.237a4.159,4.159,0,0,0-3.544,1.947V47.35h-1.662V58.637h1.75V52.25c0-2.494,1.64-3.587,3.106-3.587a2.264,2.264,0,0,1,2.581,2.515v7.459h1.75V51C423.518,48.51,422.052,47.088,419.537,47.088ZM428.571,58.7a11.121,11.121,0,0,0,1.116-.066V57.172h-0.832a0.876,0.876,0,0,1-1.071-.962V43.063h-1.75v13.3C426.034,58.09,427,58.7,428.571,58.7Zm9.294-11.352-1.6,4.681c-0.569,1.641-1.116,3.281-1.619,4.9-0.525-1.619-1.05-3.237-1.619-4.878l-1.6-4.7H429.51l4.243,11.659c-0.131.35-.262,0.722-0.394,1.05a1.976,1.976,0,0,1-2.056,1.4h-1.028v1.465a8.718,8.718,0,0,0,1.05.066A3.411,3.411,0,0,0,435,60.409l4.768-13.059h-1.9ZM450.487,58.9c3.172,0,5.468-2.3,5.468-5.906s-2.3-5.906-5.468-5.906-5.468,2.3-5.468,5.906S447.315,58.9,450.487,58.9Zm0-1.575c-2.187,0-3.631-1.6-3.631-4.331s1.444-4.331,3.631-4.331,3.631,1.6,3.631,4.331S452.674,57.325,450.487,57.325Zm12.689-10.237a4.159,4.159,0,0,0-3.543,1.947V47.35h-1.662V58.637h1.749V52.25c0-2.494,1.641-3.587,3.106-3.587a2.264,2.264,0,0,1,2.582,2.515v7.459h1.749V51C467.157,48.51,465.692,47.088,463.176,47.088Zm22.6-4.025H473.283v1.662h5.293V58.637h1.9V44.726h5.293V43.063Zm12.414,1.662V43.063H487.359V58.637H498.1V56.975h-8.9V51.353h8.115V49.691H489.2V44.726h8.99Zm3.525,12.249V43.063h-1.838V58.637h9.669V56.975h-7.831Zm14.885,1.99c3.894,0,6.125-2.209,6.125-6.1v-9.8h-1.837v9.8c0,3.062-1.575,4.44-4.288,4.44s-4.287-1.378-4.287-4.44v-9.8h-1.837v9.8C510.472,56.756,512.7,58.965,516.6,58.965Zm14.416,0.022c3.74,0,5.84-1.815,5.84-4.572,0-2.253-1.268-3.653-4.856-4.44l-1.378-.306c-2.931-.656-3.653-1.4-3.653-2.887,0-1.465,1.16-2.406,3.413-2.406,3.106,0,4.046,1.2,4.2,3.215h1.881c-0.065-2.537-1.487-4.878-6.08-4.878-3.238,0-5.316,1.575-5.316,4.069,0,2.844,2.078,3.915,4.725,4.506l1.378,0.306c2.756,0.612,3.784,1.334,3.784,2.822,0,1.925-1.443,2.909-3.937,2.909-2.537,0-4.528-.941-4.572-3.828h-1.9C524.581,57.39,527.293,58.987,531.012,58.987Zm8.521-.2a1.256,1.256,0,0,0,1.246-1.291,1.281,1.281,0,0,0-2.559,0A1.259,1.259,0,0,0,539.533,58.79Z"/>
</svg>
