<svg xmlns="http://www.w3.org/2000/svg" width="728" height="90" viewBox="0 0 728 90">
  <defs>
    <style>
      .cls-1 {
        fill: #fff;
        fill-rule: evenodd;
      }
    </style>
  </defs>
  <path id="Sign_up" data-name="Sign up" class="cls-1" d="M643.7,69c2.536,0,3.54-1.31,3.54-2.833,0-1.484-.927-2.326-2.626-2.7l-1.609-.361c-1.146-.254-1.6-0.682-1.6-1.444,0-1,.772-1.577,2.085-1.577,1.4,0,2.214.642,2.317,1.858h1.145c-0.141-1.844-1.39-2.873-3.423-2.873-2.111,0-3.257,1.1-3.257,2.7,0,1.524,1.082,2.165,2.575,2.486l1.287,0.281c1.428,0.307,1.943.8,1.943,1.7,0,1.083-.772,1.751-2.342,1.751s-2.51-.682-2.639-2.272h-1.145C640.111,67.914,641.411,69,643.7,69Zm5.227-8.393h1.185V59.28h-1.185V60.6Zm0,8.193h1.185V61.9h-1.185v6.9Zm7.878-6.9v1.069a2.357,2.357,0,0,0-2.149-1.216c-1.686,0-2.871,1.4-2.871,3.488,0,2.138,1.094,3.7,2.9,3.7a2.418,2.418,0,0,0,2.085-1.149v0.9c0,1.444-.566,2.018-1.93,2.018a1.428,1.428,0,0,1-1.686-1.042h-1.159c0.181,1.4,1.262,2.018,2.806,2.018a2.773,2.773,0,0,0,3.115-3.114V61.9h-1.107ZM654.8,67.887c-1.145,0-1.827-1.043-1.827-2.646,0-1.577.707-2.432,1.853-2.432,1.107,0,1.9.829,1.9,2.459S655.906,67.887,654.8,67.887Zm8.509-6.161a2.5,2.5,0,0,0-2.226,1.15V61.9h-1.107v6.9h1.184V64.96a1.861,1.861,0,0,1,1.892-2.165,1.235,1.235,0,0,1,1.326,1.457V68.8h1.184V64.011A2.083,2.083,0,0,0,663.308,61.726ZM675.5,61.9v3.836a1.861,1.861,0,0,1-1.892,2.165,1.234,1.234,0,0,1-1.325-1.457V61.9H671.1v4.785a2.083,2.083,0,0,0,2.253,2.285,2.5,2.5,0,0,0,2.226-1.149V68.8h1.107V61.9H675.5Zm6.45-.147a2.377,2.377,0,0,0-2.175,1.256V61.9h-1.03v9.623h1.184V67.954a2.393,2.393,0,0,0,1.97.989c1.8,0,2.908-1.617,2.908-3.756C684.806,63.1,683.635,61.752,681.949,61.752Zm-0.167,6.135c-1.107,0-1.918-.989-1.918-2.62s0.811-2.459,1.918-2.459c1.145,0,1.84.8,1.84,2.379C683.622,66.791,682.927,67.887,681.782,67.887Z"/>
</svg>
