<svg id="Frame_1" data-name="Frame 1" xmlns="http://www.w3.org/2000/svg" width="728" height="90" viewBox="0 0 728 90">
  <defs>
    <style>
      .cls-1 {
        fill: #4b286d;
        fill-rule: evenodd;
      }
    </style>
  </defs>
  <path id="Ghar_pe_lights_on_reh_gayi_" data-name="Ghar pe lights on reh gayi?" class="cls-1" d="M267.9,42.013v1.9h5.673a5.789,5.789,0,0,1-6.073,5.724c-3.774,0-6.249-2.849-6.249-7.373s2.45-7.373,6.249-7.373a5.357,5.357,0,0,1,5.6,4.3h2.175c-0.6-3.7-3.474-6.224-7.773-6.224-5.149,0-8.448,3.774-8.448,9.3s3.324,9.3,8.423,9.3a6.827,6.827,0,0,0,5.823-2.8l0.45,2.4h1.725V42.013H267.9Zm16.525-4.049a4.751,4.751,0,0,0-3.949,2.075V33.365h-2v17.8h2v-7.3c0-2.849,1.874-4.1,3.549-4.1,1.85,0,2.949.875,2.949,2.874v8.523h2V42.438C288.971,39.589,287.3,37.964,284.422,37.964Zm18.224,11.572a0.591,0.591,0,0,1-.7-0.625v-7.2c0-2.175-1.275-3.749-4.849-3.749-3.774,0-5.1,1.775-5.249,4.274h2c0.125-1.925,1.05-2.549,3.249-2.549s2.9,0.675,2.9,2.025c0,1.15-.725,1.625-2.024,1.775l-1.85.2c-3.549.375-4.774,1.974-4.774,4,0,2.424,1.75,3.774,4.549,3.774a4.727,4.727,0,0,0,4.2-2.075,1.85,1.85,0,0,0,2.175,1.85,7.583,7.583,0,0,0,1.1-.075V49.537h-0.724ZM296,49.761c-1.774,0-2.574-.85-2.574-2.125,0-1.25.65-2.049,3-2.324l1.875-.225a3.325,3.325,0,0,0,1.7-.55v1.525A3.7,3.7,0,0,1,296,49.761Zm15.3-11.7a4.5,4.5,0,0,0-4.149,2.474V38.264h-1.9v12.9h2V43.813c0-2.5,1.649-3.8,4.224-3.8h0.5V38.089C311.7,38.064,311.5,38.064,311.3,38.064Zm14.124-.1a5.069,5.069,0,0,0-4.424,2.3v-2h-1.9v17.8h2V49.312a5.066,5.066,0,0,0,4.324,2.149c3.624,0,6-2.624,6-6.748S329.045,37.964,325.421,37.964Zm-0.25,11.7c-2.5,0-4.149-1.825-4.149-4.949s1.65-4.949,4.149-4.949,4.149,1.724,4.149,4.849S327.67,49.662,325.171,49.662Zm20-4.949c0-3.7-2.075-6.748-5.924-6.748-3.574,0-5.948,2.7-5.948,6.748,0,4.174,2.474,6.748,6,6.748a5.381,5.381,0,0,0,5.549-4.224H342.77a3.313,3.313,0,0,1-3.424,2.4c-2.249,0-3.774-1.325-3.974-4.224h9.8v-0.7Zm-5.924-4.924c2.3,0,3.574,1.7,3.774,3.824h-7.6C335.747,41.064,337.222,39.789,339.246,39.789Zm16.2,11.447a12.708,12.708,0,0,0,1.275-.075V49.487h-0.95a1,1,0,0,1-1.224-1.1V33.365h-2v15.2C352.547,50.536,353.647,51.236,355.446,51.236Zm4.151-14.8a1.35,1.35,0,1,0-1.35-1.35A1.359,1.359,0,0,0,359.6,36.44Zm-1,14.721h2v-12.9h-2v12.9Zm14.923-12.9v1.875a5.206,5.206,0,0,0-4.424-2.175c-3.624,0-6,2.624-6,6.748s2.375,6.748,6,6.748a5.213,5.213,0,0,0,4.324-2.05v1.25c0,2.674-1.425,4-4,4-2.025,0-3.25-.825-3.5-2.449h-2c0.275,2.5,2.2,4.149,5.5,4.149,4.074,0,6-2.349,6-5.7v-12.4h-1.9Zm-4.174,11.4c-2.5,0-4.149-1.925-4.149-4.949s1.649-4.949,4.149-4.949,4.149,1.825,4.149,4.949S371.845,49.662,369.346,49.662Zm15.149-11.7a4.752,4.752,0,0,0-3.949,2.075V33.365h-2v17.8h2v-7.3c0-2.849,1.875-4.1,3.55-4.1,1.849,0,2.949.875,2.949,2.874v8.523h2V42.438C389.044,39.589,387.37,37.964,384.5,37.964Zm13.325,2.05v-1.75h-2.649V34.615h-2v3.649h-2.125v1.75h2.125v8.548c0,1.974,1.224,2.674,3.224,2.674q0.6,0,1.424-.075V49.487h-1.174c-1.15,0-1.475-.425-1.475-1.1V40.014h2.649Zm6.8,11.447c3.175,0,5.124-1.4,5.124-3.849,0-2.1-1.275-3.174-4.449-3.8l-1.149-.225c-1.65-.325-2.6-0.775-2.6-2,0-1.2.975-1.9,2.7-1.9,1.975,0,3.15.55,3.25,2.549h2c-0.05-2.749-1.8-4.274-5.249-4.274-2.949,0-4.7,1.45-4.7,3.649,0,2,1.224,3.274,4.024,3.8l1.2,0.225c2.25,0.425,2.95.95,2.95,2.1,0,1.275-.925,2-3.1,2-2.274,0-3.224-.725-3.449-2.674h-2.024C399.347,50.086,401.346,51.461,404.62,51.461Zm17.75,0c3.624,0,6.248-2.624,6.248-6.748s-2.624-6.748-6.248-6.748-6.249,2.624-6.249,6.748S418.746,51.461,422.37,51.461Zm0-1.8c-2.5,0-4.149-1.825-4.149-4.949s1.649-4.949,4.149-4.949,4.149,1.825,4.149,4.949S424.869,49.662,422.37,49.662Zm14.7-11.7a4.752,4.752,0,0,0-4.049,2.224V38.264h-1.9v12.9h2v-7.3c0-2.849,1.875-4.1,3.55-4.1,1.849,0,2.949.875,2.949,2.874v8.523h2V42.438C441.618,39.589,439.944,37.964,437.069,37.964Zm18.6,0.1a4.5,4.5,0,0,0-4.149,2.474V38.264h-1.9v12.9h2V43.813c0-2.5,1.649-3.8,4.224-3.8h0.5V38.089C456.069,38.064,455.869,38.064,455.669,38.064Zm14.173,6.648c0-3.7-2.074-6.748-5.923-6.748-3.574,0-5.949,2.7-5.949,6.748,0,4.174,2.475,6.748,6,6.748a5.379,5.379,0,0,0,5.548-4.224h-2.074a3.313,3.313,0,0,1-3.424,2.4c-2.25,0-3.774-1.325-3.974-4.224h9.8v-0.7Zm-5.923-4.924c2.3,0,3.574,1.7,3.774,3.824h-7.6C460.42,41.064,461.894,39.789,463.919,39.789Zm14.375-1.825a4.75,4.75,0,0,0-3.949,2.075V33.365h-2v17.8h2v-7.3c0-2.849,1.874-4.1,3.549-4.1,1.849,0,2.949.875,2.949,2.874v8.523h2V42.438C482.842,39.589,481.168,37.964,478.294,37.964Zm22.348,0.3v1.875a5.2,5.2,0,0,0-4.424-2.175c-3.624,0-6,2.624-6,6.748s2.374,6.748,6,6.748a5.211,5.211,0,0,0,4.324-2.05v1.25c0,2.674-1.424,4-4,4-2.024,0-3.249-.825-3.5-2.449h-2c0.274,2.5,2.2,4.149,5.5,4.149,4.074,0,6-2.349,6-5.7v-12.4h-1.9Zm-4.174,11.4c-2.5,0-4.149-1.925-4.149-4.949s1.65-4.949,4.149-4.949,4.149,1.825,4.149,4.949S498.968,49.662,496.468,49.662Zm19.749-.125a0.591,0.591,0,0,1-.7-0.625v-7.2c0-2.175-1.275-3.749-4.849-3.749-3.774,0-5.1,1.775-5.248,4.274h2c0.125-1.925,1.05-2.549,3.249-2.549s2.9,0.675,2.9,2.025c0,1.15-.725,1.625-2.025,1.775l-1.849.2c-3.55.375-4.774,1.974-4.774,4,0,2.424,1.749,3.774,4.549,3.774a4.728,4.728,0,0,0,4.2-2.075,1.849,1.849,0,0,0,2.174,1.85,7.607,7.607,0,0,0,1.1-.075V49.537h-0.725Zm-6.648.225c-1.775,0-2.575-.85-2.575-2.125,0-1.25.65-2.049,3-2.324l1.875-.225a3.329,3.329,0,0,0,1.7-.55v1.525A3.7,3.7,0,0,1,509.569,49.761Zm17.423-11.5-1.824,5.349c-0.65,1.875-1.275,3.749-1.85,5.6-0.6-1.85-1.2-3.7-1.849-5.574l-1.825-5.374h-2.2l4.849,13.322c-0.15.4-.3,0.825-0.45,1.2a2.26,2.26,0,0,1-2.35,1.6H518.32V56.06a9.945,9.945,0,0,0,1.2.075,3.9,3.9,0,0,0,4.2-2.949l5.449-14.921h-2.175Zm4.927-1.825a1.35,1.35,0,1,0-1.35-1.35A1.36,1.36,0,0,0,531.919,36.44Zm-1,14.721h2v-12.9h-2v12.9Zm8.749-4.649h1.975a5.139,5.139,0,0,1,.325-2.224,6.229,6.229,0,0,1,1.874-2.124c1.5-1.275,2.625-2.549,2.625-4.474,0-3.149-2.175-4.724-5.5-4.724-3.424,0-5.749,1.85-5.8,5.874h2.05c0.175-3.149,1.674-3.974,3.824-3.974,2.324,0,3.3,1.125,3.3,2.849,0,1.425-1.1,2.4-2.2,3.374a6.908,6.908,0,0,0-2.025,2.449A6.744,6.744,0,0,0,539.668,46.512Zm1.025,4.824a1.436,1.436,0,0,0,1.425-1.475,1.464,1.464,0,0,0-2.925,0A1.438,1.438,0,0,0,540.693,51.336Z"/>
</svg>
