<svg xmlns="http://www.w3.org/2000/svg" width="728" height="90" viewBox="0 0 728 90">
  <defs>
    <style>
      .cls-1 {
        fill: #4b296e;
        fill-rule: evenodd;
      }
    </style>
  </defs>
  <path id="fr1" class="cls-1" d="M278.691,22.014v-1.9h-12.4V37.956h12.3V36.051H268.4V29.609h9.292V27.7H268.4v-5.69h10.294Zm10.8,15.942h2.329l-5.26-8.272,4.91-4.662H288.81l-5.986,5.79v-10.7h-2V37.956h2V33.169l2.3-2.156Zm13.274,0.3c3.181,0,5.135-1.4,5.135-3.86,0-2.105-1.278-3.183-4.459-3.81l-1.152-.226c-1.653-.326-2.605-0.777-2.605-2.005,0-1.2.977-1.905,2.705-1.905,1.979,0,3.156.551,3.256,2.557h2c-0.05-2.757-1.8-4.286-5.26-4.286-2.955,0-4.708,1.454-4.708,3.66,0,2.005,1.227,3.284,4.032,3.81l1.2,0.226c2.254,0.426,2.956.953,2.956,2.105,0,1.278-.927,2.005-3.106,2.005-2.279,0-3.231-.727-3.456-2.682h-2.029C297.475,36.878,299.479,38.257,302.76,38.257Zm15.654-13.235v7.319c0,2.858-1.879,4.111-3.557,4.111-1.853,0-2.955-.877-2.955-2.883V25.022h-2V33.77c0,2.858,1.678,4.487,4.559,4.487a4.761,4.761,0,0,0,4.057-2.231v1.93h1.9V25.022h-2Zm10.97-.3a4.762,4.762,0,0,0-4.058,2.231v-1.93h-1.9V37.956h2V30.637c0-2.858,1.878-4.111,3.556-4.111,1.854,0,2.956.877,2.956,2.883v8.547h2V29.208C333.942,26.351,332.264,24.721,329.384,24.721Zm13.525,0a4.761,4.761,0,0,0-3.958,2.081V20.109h-2V37.956h2V30.637c0-2.858,1.879-4.111,3.557-4.111,1.853,0,2.955.877,2.955,2.883v8.547h2V29.208C347.467,26.351,345.789,24.721,342.909,24.721Zm18.834,6.768c0-3.71-2.078-6.768-5.936-6.768-3.581,0-5.961,2.707-5.961,6.768,0,4.186,2.48,6.768,6.011,6.768a5.393,5.393,0,0,0,5.561-4.236h-2.079a3.32,3.32,0,0,1-3.431,2.406c-2.255,0-3.782-1.329-3.983-4.236h9.818v-0.7Zm-5.936-4.938c2.305,0,3.582,1.7,3.782,3.835h-7.614C352.3,27.83,353.779,26.551,355.807,26.551Zm14.377-1.73a4.514,4.514,0,0,0-4.158,2.482V25.022h-1.9V37.956h2V30.587c0-2.507,1.653-3.81,4.233-3.81h0.5v-1.93C370.585,24.822,370.384,24.822,370.184,24.822Zm3.556-1.629a1.354,1.354,0,1,0-1.352-1.354A1.363,1.363,0,0,0,373.74,23.192Zm-1,14.764h2V25.022h-2V37.956Zm14.327,0.3c3.18,0,5.134-1.4,5.134-3.86,0-2.105-1.277-3.183-4.458-3.81l-1.152-.226c-1.653-.326-2.605-0.777-2.605-2.005,0-1.2.977-1.905,2.705-1.905,1.979,0,3.156.551,3.256,2.557h2c-0.05-2.757-1.8-4.286-5.26-4.286-2.956,0-4.709,1.454-4.709,3.66,0,2.005,1.227,3.284,4.033,3.81l1.2,0.226c2.254,0.426,2.955.953,2.955,2.105,0,1.278-.926,2.005-3.105,2.005-2.28,0-3.231-.727-3.457-2.682h-2.029C381.78,36.878,383.783,38.257,387.065,38.257Zm13.1-13.536a4.761,4.761,0,0,0-3.958,2.081V20.109h-2V37.956h2V30.637c0-2.858,1.879-4.111,3.557-4.111,1.853,0,2.955.877,2.955,2.883v8.547h2V29.208C404.722,26.351,403.044,24.721,400.164,24.721Zm15.579,0.3v7.319c0,2.858-1.879,4.111-3.557,4.111-1.854,0-2.956-.877-2.956-2.883V25.022h-2V33.77c0,2.858,1.678,4.487,4.558,4.487a4.761,4.761,0,0,0,4.058-2.231v1.93h1.9V25.022h-2Zm11.07-.2a4.513,4.513,0,0,0-4.158,2.482V25.022h-1.9V37.956h2V30.587c0-2.507,1.653-3.81,4.233-3.81h0.5v-1.93C427.214,24.822,427.013,24.822,426.813,24.822Zm10.945,0.2v7.319c0,2.858-1.879,4.111-3.557,4.111-1.853,0-2.955-.877-2.955-2.883V25.022h-2V33.77c0,2.858,1.678,4.487,4.558,4.487a4.761,4.761,0,0,0,4.058-2.231v1.93h1.9V25.022h-2Zm15.578,11.3a0.593,0.593,0,0,1-.7-0.627V28.481c0-2.181-1.277-3.76-4.859-3.76-3.782,0-5.109,1.78-5.26,4.286h2c0.125-1.93,1.052-2.557,3.256-2.557s2.9,0.677,2.9,2.03c0,1.153-.726,1.629-2.028,1.78l-1.854.2c-3.556.376-4.784,1.98-4.784,4.011,0,2.431,1.754,3.785,4.559,3.785a4.737,4.737,0,0,0,4.208-2.081,1.853,1.853,0,0,0,2.179,1.855,7.63,7.63,0,0,0,1.1-.075V36.327h-0.727Zm-6.662.226c-1.778,0-2.58-.852-2.58-2.13,0-1.253.651-2.055,3.006-2.331l1.878-.226a3.326,3.326,0,0,0,1.7-.551v1.529A3.712,3.712,0,0,1,446.674,36.552Zm19.836-.226a0.592,0.592,0,0,1-.7-0.627V28.481c0-2.181-1.277-3.76-4.859-3.76-3.782,0-5.109,1.78-5.26,4.286h2c0.125-1.93,1.052-2.557,3.256-2.557s2.905,0.677,2.905,2.03c0,1.153-.726,1.629-2.028,1.78l-1.854.2c-3.556.376-4.784,1.98-4.784,4.011,0,2.431,1.754,3.785,4.559,3.785a4.737,4.737,0,0,0,4.208-2.081,1.853,1.853,0,0,0,2.179,1.855,7.63,7.63,0,0,0,1.1-.075V36.327H466.51Zm-6.662.226c-1.778,0-2.58-.852-2.58-2.13,0-1.253.651-2.055,3.006-2.331l1.878-.226a3.326,3.326,0,0,0,1.7-.551v1.529A3.712,3.712,0,0,1,459.848,36.552Zm14.3-9.776V25.022H471.5v-3.66h-2v3.66h-2.129v1.755h2.129v8.572c0,1.98,1.227,2.682,3.231,2.682q0.6,0,1.428-.075V36.277h-1.178c-1.152,0-1.477-.426-1.477-1.1v-8.4h2.655Zm3.03,8.673a1.344,1.344,0,0,0-1.4,1.354,1.3,1.3,0,0,0,1.4,1.3h0.15a1.855,1.855,0,0,1-1.377,1.955l-0.176.05V41.44l0.251-.05c1.628-.326,2.805-1.429,2.805-3.81C478.833,36.2,478.207,35.45,477.18,35.45ZM252.286,54.8a4.762,4.762,0,0,0-4.058,2.231V55.1h-1.9V68.035h2V60.716c0-2.858,1.878-4.111,3.556-4.111,1.854,0,2.956.877,2.956,2.883v8.547h2V59.287C256.844,56.429,255.166,54.8,252.286,54.8Zm18.133,11.605a0.592,0.592,0,0,1-.7-0.627V58.56c0-2.181-1.277-3.76-4.859-3.76-3.782,0-5.109,1.78-5.26,4.286h2c0.125-1.93,1.052-2.557,3.256-2.557s2.905,0.677,2.905,2.03c0,1.153-.726,1.629-2.028,1.78l-1.854.2c-3.556.376-4.784,1.98-4.784,4.011,0,2.431,1.754,3.785,4.559,3.785a4.737,4.737,0,0,0,4.208-2.081,1.853,1.853,0,0,0,2.179,1.855,7.63,7.63,0,0,0,1.1-.075V66.405h-0.727Zm-6.662.226c-1.778,0-2.58-.852-2.58-2.131,0-1.253.651-2.055,3.006-2.331l1.878-.226a3.327,3.327,0,0,0,1.7-.551v1.529A3.712,3.712,0,0,1,263.757,66.631ZM280.463,55.1l-1.828,5.364c-0.652,1.88-1.278,3.76-1.854,5.615-0.6-1.855-1.2-3.71-1.853-5.59L273.1,55.1h-2.2l4.859,13.36c-0.15.4-.3,0.827-0.451,1.2a2.264,2.264,0,0,1-2.354,1.6h-1.177v1.679a9.987,9.987,0,0,0,1.2.075,3.906,3.906,0,0,0,4.208-2.958l5.46-14.964h-2.179Zm14.326,6.467c0-3.71-2.079-6.768-5.936-6.768-3.582,0-5.961,2.707-5.961,6.768,0,4.186,2.48,6.768,6.011,6.768a5.393,5.393,0,0,0,5.561-4.236h-2.079a3.321,3.321,0,0,1-3.432,2.406c-2.254,0-3.782-1.329-3.982-4.236h9.818v-0.7Zm-5.936-4.938c2.3,0,3.582,1.7,3.782,3.835h-7.614C285.347,57.908,286.824,56.63,288.853,56.63Zm20.989,11.806c5.184,0,8.54-3.785,8.54-9.324s-3.356-9.324-8.54-9.324-8.541,3.785-8.541,9.324S304.657,68.436,309.842,68.436Zm0-1.93c-3.833,0-6.337-2.858-6.337-7.394s2.5-7.394,6.337-7.394,6.336,2.857,6.336,7.394S313.674,66.506,309.842,66.506ZM327.1,54.8a5.08,5.08,0,0,0-4.433,2.306V55.1h-1.9V72.948h2V66.18a5.076,5.076,0,0,0,4.333,2.156c3.632,0,6.012-2.632,6.012-6.768S330.73,54.8,327.1,54.8Zm-0.25,11.731c-2.5,0-4.158-1.83-4.158-4.963s1.653-4.963,4.158-4.963,4.158,1.73,4.158,4.863S329.353,66.531,326.848,66.531Zm13.55-9.675V55.1h-2.655v-3.66h-2V55.1H333.61v1.755h2.129v8.572c0,1.98,1.228,2.682,3.231,2.682q0.6,0,1.428-.075V66.355h-1.177c-1.152,0-1.478-.426-1.478-1.1v-8.4H340.4Zm3.13-3.584a1.354,1.354,0,1,0-1.352-1.354A1.364,1.364,0,0,0,343.528,53.271Zm-1,14.764h2V55.1h-2V68.035Zm13.675,0h2.329l-5.26-8.272L358.18,55.1h-2.654l-5.987,5.79v-10.7h-2V68.035h2V63.247l2.305-2.156Zm22.015-17.847h-14.3v1.905h6.061V68.035h2.179V52.093h6.061V50.188Zm14.1,0-4.057,11.3c-0.551,1.529-1.077,3.033-1.528,4.437-0.451-1.4-.977-2.908-1.528-4.437l-4.133-11.3h-2.229l6.713,17.847h2.354l6.612-17.847h-2.2Zm5.372-.5a2.325,2.325,0,1,0,2.39,2.324A2.34,2.34,0,0,0,397.69,49.693Zm0,4.186a1.868,1.868,0,1,1,1.9-1.863A1.855,1.855,0,0,1,397.69,53.879Zm0.93-1.392a0.492,0.492,0,0,0-.294-0.461,0.6,0.6,0,0,0,.363-0.588,0.733,0.733,0,0,0-.872-0.7h-1.058v2.49h0.431v-1h0.676c0.245,0,.323.088,0.343,0.363l0.019,0.255a0.692,0.692,0,0,0,.1.382h0.441a0.7,0.7,0,0,1-.117-0.382Zm-0.764-.647H397.19V51.134h0.627a0.352,0.352,0,0,1,.431.353A0.342,0.342,0,0,1,397.856,51.84ZM415.4,68.035h2.33l-5.26-8.272,4.909-4.662h-2.655l-5.986,5.79v-10.7h-2V68.035h2V63.247l2.3-2.156Zm14.352-6.467c0-3.71-2.079-6.768-5.936-6.768-3.581,0-5.961,2.707-5.961,6.768,0,4.186,2.48,6.768,6.011,6.768a5.393,5.393,0,0,0,5.561-4.236h-2.079a3.321,3.321,0,0,1-3.432,2.406c-2.254,0-3.782-1.329-3.982-4.236h9.818v-0.7Zm-5.936-4.938c2.3,0,3.582,1.7,3.782,3.835h-7.614C420.308,57.908,421.785,56.63,423.814,56.63Zm17.632,11.706c3.181,0,5.135-1.4,5.135-3.86,0-2.106-1.277-3.183-4.458-3.81l-1.153-.226c-1.653-.326-2.6-0.777-2.6-2.005,0-1.2.976-1.905,2.705-1.905,1.978,0,3.156.552,3.256,2.557h2c-0.05-2.757-1.8-4.286-5.259-4.286-2.956,0-4.709,1.454-4.709,3.66,0,2.005,1.227,3.284,4.032,3.81l1.2,0.226c2.254,0.426,2.955.953,2.955,2.106,0,1.278-.927,2.005-3.106,2.005-2.279,0-3.231-.727-3.456-2.682h-2.029C436.162,66.957,438.165,68.336,441.446,68.336Zm18.084-1.93a0.593,0.593,0,0,1-.7-0.627V58.56c0-2.181-1.277-3.76-4.859-3.76-3.782,0-5.109,1.78-5.259,4.286h2c0.126-1.93,1.052-2.557,3.256-2.557s2.906,0.677,2.906,2.03c0,1.153-.727,1.629-2.029,1.78l-1.853.2c-3.557.376-4.784,1.98-4.784,4.011,0,2.431,1.753,3.785,4.558,3.785a4.736,4.736,0,0,0,4.208-2.081,1.853,1.853,0,0,0,2.179,1.855,7.62,7.62,0,0,0,1.1-.075V66.405H459.53Zm-6.663.226c-1.778,0-2.579-.852-2.579-2.131,0-1.253.651-2.055,3-2.331l1.879-.226a3.334,3.334,0,0,0,1.7-.551v1.529A3.713,3.713,0,0,1,452.867,66.631Zm19.837-.226a0.593,0.593,0,0,1-.7-0.627V58.56c0-2.181-1.277-3.76-4.859-3.76-3.782,0-5.109,1.78-5.259,4.286h2c0.126-1.93,1.052-2.557,3.256-2.557s2.906,0.677,2.906,2.03c0,1.153-.727,1.629-2.029,1.78l-1.853.2c-3.557.376-4.784,1.98-4.784,4.011,0,2.431,1.753,3.785,4.558,3.785a4.736,4.736,0,0,0,4.208-2.081,1.853,1.853,0,0,0,2.179,1.855,7.62,7.62,0,0,0,1.1-.075V66.405H472.7Zm-6.663.226c-1.778,0-2.579-.852-2.579-2.131,0-1.253.651-2.055,3-2.331l1.879-.226a3.334,3.334,0,0,0,1.7-.551v1.529A3.713,3.713,0,0,1,466.041,66.631Zm14.3-9.776V55.1h-2.655v-3.66h-2V55.1h-2.129v1.755h2.129v8.572c0,1.98,1.228,2.682,3.231,2.682q0.6,0,1.428-.075V66.355h-1.177c-1.152,0-1.478-.426-1.478-1.1v-8.4h2.655Zm8.09-2.055a4.761,4.761,0,0,0-3.958,2.08V50.188h-2V68.035h2V60.716c0-2.858,1.879-4.111,3.557-4.111,1.853,0,2.955.877,2.955,2.883v8.547h2V59.287C492.991,56.429,491.313,54.8,488.433,54.8Zm8.69,13.41a1.439,1.439,0,0,0,1.428-1.479,1.466,1.466,0,0,0-2.93,0A1.441,1.441,0,0,0,497.123,68.21Z"/>
</svg>
