<svg xmlns="http://www.w3.org/2000/svg" width="728" height="90" viewBox="0 0 728 90">
  <defs>
    <style>
      .cls-1 {
        fill: #4b296e;
        fill-rule: evenodd;
      }
    </style>
  </defs>
  <path id="fr3" class="cls-1" d="M330.705,33.763c3.755,0,5.863-1.834,5.863-4.618,0-2.276-1.273-3.689-4.875-4.485l-1.383-.309c-2.943-.663-3.668-1.414-3.668-2.916,0-1.48,1.164-2.43,3.426-2.43,3.118,0,4.063,1.215,4.217,3.248h1.888c-0.066-2.563-1.493-4.927-6.105-4.927-3.25,0-5.336,1.591-5.336,4.109,0,2.872,2.086,3.955,4.743,4.551l1.384,0.309c2.767,0.619,3.8,1.348,3.8,2.85,0,1.944-1.45,2.938-3.953,2.938-2.548,0-4.546-.95-4.59-3.866H324.2C324.248,32.15,326.972,33.763,330.705,33.763ZM339.312,20.4a1.193,1.193,0,1,0-1.186-1.193A1.2,1.2,0,0,0,339.312,20.4Zm-0.879,13.013h1.757v-11.4h-1.757v11.4Zm13-11.4v1.657a4.564,4.564,0,0,0-3.887-1.922c-3.184,0-5.27,2.32-5.27,5.965s2.086,5.965,5.27,5.965a4.568,4.568,0,0,0,3.8-1.812v1.1c0,2.364-1.251,3.535-3.513,3.535-1.779,0-2.855-.729-3.075-2.165H343c0.242,2.209,1.933,3.667,4.832,3.667,3.579,0,5.27-2.077,5.27-5.037V22.009h-1.669Zm-3.667,10.074c-2.2,0-3.646-1.7-3.646-4.374s1.45-4.375,3.646-4.375,3.645,1.613,3.645,4.375S349.962,32.083,347.766,32.083Zm13.2-10.34a4.168,4.168,0,0,0-3.557,1.966v-1.7h-1.669v11.4h1.757V26.958c0-2.519,1.647-3.623,3.118-3.623a2.279,2.279,0,0,1,2.591,2.541v7.534h1.757V25.7A3.623,3.623,0,0,0,360.962,21.744Zm18.269,0.265V28.46c0,2.519-1.647,3.623-3.118,3.623a2.28,2.28,0,0,1-2.592-2.541V22.009h-1.757v7.71a3.624,3.624,0,0,0,4,3.955,4.171,4.171,0,0,0,3.558-1.966v1.7h1.669v-11.4h-1.757Zm9.947-.265a4.449,4.449,0,0,0-3.888,2.033V22.009h-1.669v15.73h1.757V31.774a4.444,4.444,0,0,0,3.8,1.9c3.184,0,5.27-2.32,5.27-5.965S392.362,21.744,389.178,21.744Zm-0.22,10.34c-2.2,0-3.646-1.613-3.646-4.374s1.45-4.375,3.646-4.375,3.645,1.525,3.645,4.286S391.154,32.083,388.958,32.083ZM408.3,33.409h2.042l-4.612-7.291,4.305-4.109H407.71l-5.249,5.1V17.679H400.7v15.73h1.757v-4.22l2.02-1.9Zm12.187-1.436a0.52,0.52,0,0,1-.615-0.552V25.058c0-1.922-1.12-3.314-4.261-3.314-3.316,0-4.48,1.569-4.612,3.778h1.757c0.11-1.7.923-2.253,2.855-2.253s2.548,0.6,2.548,1.79c0,1.016-.637,1.436-1.779,1.569l-1.625.177c-3.119.331-4.195,1.745-4.195,3.535,0,2.143,1.537,3.336,4,3.336a4.147,4.147,0,0,0,3.69-1.834,1.627,1.627,0,0,0,1.91,1.635,6.627,6.627,0,0,0,.966-0.066V31.973H420.49Zm-5.842.2c-1.559,0-2.262-.751-2.262-1.878,0-1.1.571-1.812,2.635-2.055l1.647-.2a2.916,2.916,0,0,0,1.494-.486V28.9A3.262,3.262,0,0,1,414.648,32.172Zm13.329-10.34a3.955,3.955,0,0,0-3.646,2.187v-2.01h-1.669v11.4h1.757v-6.5c0-2.209,1.449-3.358,3.711-3.358h0.439v-1.7A5.923,5.923,0,0,0,427.977,21.832Zm11.462,5.877c0-3.27-1.823-5.965-5.205-5.965-3.14,0-5.226,2.386-5.226,5.965,0,3.689,2.174,5.965,5.27,5.965a4.732,4.732,0,0,0,4.875-3.734h-1.822a2.914,2.914,0,0,1-3.009,2.121c-1.976,0-3.316-1.171-3.492-3.734h8.609V27.709Zm-5.205-4.352c2.021,0,3.141,1.5,3.316,3.38h-6.676C431.16,24.483,432.455,23.357,434.234,23.357ZM442.4,20.4a1.193,1.193,0,1,0-1.186-1.193A1.2,1.2,0,0,0,442.4,20.4Zm-0.878,13.013h1.756v-11.4h-1.756v11.4Zm9.618-11.665a4.171,4.171,0,0,0-3.558,1.966v-1.7h-1.669v11.4h1.757V26.958c0-2.519,1.647-3.623,3.118-3.623a2.28,2.28,0,0,1,2.592,2.541v7.534h1.757V25.7A3.624,3.624,0,0,0,451.142,21.744ZM294.892,48.252a4.168,4.168,0,0,0-3.535,1.9V48.517h-2.68v11.4h2.767V53.532a2.56,2.56,0,0,1,2.526-2.872,1.9,1.9,0,0,1,2.13,2.165v7.092h2.767V52.361C298.867,49.644,297.264,48.252,294.892,48.252Zm16.4,11.665a4.343,4.343,0,0,1-.461-2.165V51.676c0-2.055-1.34-3.424-4.722-3.424-3.535,0-4.941,1.48-5.094,3.888h2.723c0.109-1.392.768-1.812,2.349-1.812,1.6,0,2.065.53,2.065,1.414,0,0.839-.549,1.171-1.6,1.3l-1.713.155c-3.207.309-4.349,1.657-4.349,3.557,0,2.209,1.669,3.424,4.085,3.424a4.2,4.2,0,0,0,3.646-1.657,3.726,3.726,0,0,0,.307,1.392H311.3Zm-6.061-1.723c-1.274,0-1.911-.6-1.911-1.547,0-.906.506-1.458,2.043-1.635l1.493-.177a2.2,2.2,0,0,0,1.3-.464V55.41A2.667,2.667,0,0,1,305.234,58.194Zm14.558-9.677-0.922,2.872c-0.615,2.01-1.23,4.087-1.823,6.341-0.571-2.231-1.186-4.374-1.8-6.363l-0.922-2.85h-2.987l3.294,9.367a7.676,7.676,0,0,1,.528,2.3,1.7,1.7,0,0,1-1.867,1.834h-1.054V64.2a8.978,8.978,0,0,0,1.208.066c2.745,0,3.975-.884,4.875-3.424l4.37-12.328h-2.9Zm14.186,5.9c0-3.623-2.131-6.164-5.6-6.164-3.36,0-5.6,2.386-5.6,5.965,0,3.645,2.306,5.965,5.644,5.965a5.063,5.063,0,0,0,5.271-3.8h-2.657a2.582,2.582,0,0,1-2.592,1.635c-1.6,0-2.745-.906-2.942-2.938h8.477V54.416Zm-5.622-4a2.808,2.808,0,0,1,2.854,2.717h-5.687C325.786,51.256,326.884,50.417,328.356,50.417ZM347.81,60.27c4.678,0,7.8-3.27,7.8-8.219s-3.118-8.219-7.8-8.219c-4.7,0-7.818,3.27-7.818,8.219S343.11,60.27,347.81,60.27Zm0-2.629c-2.855,0-4.722-2.121-4.722-5.59s1.867-5.59,4.722-5.59,4.722,2.121,4.722,5.59S350.665,57.641,347.81,57.641Zm15.831-9.389a4.077,4.077,0,0,0-3.623,1.9V48.517H357.36v15.73h2.767v-5.81a4.046,4.046,0,0,0,3.514,1.745c3.119,0,5.073-2.342,5.073-5.965S366.76,48.252,363.641,48.252Zm-0.659,9.633c-1.8,0-2.92-1.259-2.92-3.667s1.12-3.667,2.92-3.667,2.921,1.171,2.921,3.579S364.783,57.884,362.982,57.884Zm12.8-7.246V48.517h-2.24V45.2H370.8v3.314h-1.757v2.121H370.8v6.451c0,2.1,1.142,2.916,3.535,2.916,0.44,0,.945-0.044,1.45-0.088V57.8H374.84c-0.923,0-1.3-.243-1.3-0.994V50.638h2.24Zm3.007-3.491a1.535,1.535,0,1,0-1.537-1.524A1.522,1.522,0,0,0,378.791,47.147Zm-1.383,12.77h2.767v-11.4h-2.767v11.4Zm12.736,0h3.163l-4.546-7.092,4.282-4.308h-3.294l-4.612,4.728V44.187h-2.723v15.73h2.723V56.338l1.713-1.723Zm21.321-15.73h-13V46.86h5.008V59.917h2.986V46.86h5.007V44.187Zm12.187,0-2.767,8.13c-0.506,1.547-1.033,3.226-1.472,4.9-0.461-1.679-.988-3.358-1.493-4.9l-2.833-8.13h-3.162l5.731,15.73h3.47l5.6-15.73h-3.074Zm16.291,15.73h2.043l-4.612-7.291,4.3-4.109H439.35l-5.248,5.1V44.187h-1.757v15.73H434.1V55.7l2.02-1.9Zm12.583-5.7c0-3.27-1.823-5.965-5.2-5.965-3.14,0-5.227,2.386-5.227,5.965,0,3.69,2.174,5.965,5.271,5.965a4.732,4.732,0,0,0,4.875-3.734h-1.823a2.912,2.912,0,0,1-3.008,2.121c-1.977,0-3.316-1.171-3.492-3.734h8.609V54.217Zm-5.2-4.352c2.02,0,3.14,1.5,3.316,3.38h-6.676C444.246,50.991,445.542,49.865,447.321,49.865Zm14.008,10.119a11.081,11.081,0,0,0,1.12-.066v-1.48h-0.834a0.882,0.882,0,0,1-1.076-.972V44.187h-1.757V57.619C458.782,59.365,459.748,59.983,461.329,59.983ZM464.864,46.9a1.193,1.193,0,1,0-1.186-1.193A1.2,1.2,0,0,0,464.864,46.9Zm-0.878,13.013h1.757v-11.4h-1.757v11.4Zm11.463-11.4-1.6,4.728c-0.571,1.657-1.12,3.314-1.625,4.949-0.527-1.635-1.054-3.27-1.625-4.927l-1.6-4.75H467.06l4.26,11.776c-0.131.353-.263,0.729-0.395,1.06a1.985,1.985,0,0,1-2.064,1.414h-1.032v1.48a8.693,8.693,0,0,0,1.054.066,3.426,3.426,0,0,0,3.689-2.607l4.788-13.189h-1.911Zm12.56,5.7c0-3.27-1.823-5.965-5.205-5.965-3.14,0-5.226,2.386-5.226,5.965,0,3.69,2.174,5.965,5.27,5.965a4.732,4.732,0,0,0,4.875-3.734H485.9a2.914,2.914,0,0,1-3.009,2.121c-1.976,0-3.316-1.171-3.492-3.734h8.609V54.217ZM482.8,49.865c2.021,0,3.141,1.5,3.316,3.38h-6.676C479.73,50.991,481.025,49.865,482.8,49.865Zm7.4,10.207a1.265,1.265,0,0,0,1.251-1.3,1.285,1.285,0,0,0-2.569,0A1.267,1.267,0,0,0,490.2,60.071Z"/>
</svg>
