<svg id="Frame_3" data-name="Frame 3" xmlns="http://www.w3.org/2000/svg" width="728" height="90" viewBox="0 0 728 90">
  <defs>
    <style>
      .cls-1 {
        fill: #4b286d;
        fill-rule: evenodd;
      }
    </style>
  </defs>
  <path id="Apne_ghar_ko_banayein_aur_bhi_energy_efficient_" data-name="Apne ghar ko banayein aur bhi energy efficient " class="cls-1" d="M55.893,39.161h2.224l-7.2-17.8H48.57l-7.1,17.8h2.2l2.05-5.174h8.1ZM46.47,32.088l0.075-.2c0.775-1.95,2.15-5.5,3.174-8.248,1.075,2.749,2.474,6.3,3.249,8.223l0.1,0.225h-6.6Zm19.974-6.123a5.07,5.07,0,0,0-4.424,2.3v-2h-1.9v17.8h2V37.312a5.066,5.066,0,0,0,4.324,2.149c3.624,0,6-2.624,6-6.748S70.069,25.964,66.445,25.964Zm-0.25,11.7c-2.5,0-4.149-1.825-4.149-4.949s1.65-4.949,4.149-4.949,4.149,1.724,4.149,4.849S68.694,37.662,66.195,37.662Zm14.7-11.7a4.751,4.751,0,0,0-4.049,2.224V26.264h-1.9v12.9h2v-7.3c0-2.849,1.875-4.1,3.549-4.1,1.849,0,2.949.875,2.949,2.874v8.523h2V30.438C85.444,27.589,83.769,25.964,80.895,25.964Zm18.923,6.748c0-3.7-2.075-6.748-5.923-6.748-3.574,0-5.949,2.7-5.949,6.748,0,4.174,2.474,6.748,6,6.748a5.38,5.38,0,0,0,5.549-4.224H97.419a3.313,3.313,0,0,1-3.424,2.4c-2.249,0-3.774-1.325-3.974-4.224h9.8v-0.7Zm-5.923-4.924c2.3,0,3.574,1.7,3.774,3.824h-7.6C90.4,29.064,91.87,27.789,93.895,27.789Zm23.1-1.525v1.875a5.2,5.2,0,0,0-4.424-2.174c-3.624,0-6,2.624-6,6.748s2.374,6.748,6,6.748a5.21,5.21,0,0,0,4.324-2.05v1.25c0,2.674-1.424,4-4,4-2.024,0-3.249-.825-3.5-2.449h-2c0.275,2.5,2.2,4.149,5.5,4.149,4.074,0,6-2.349,6-5.7v-12.4h-1.9Zm-4.174,11.4c-2.5,0-4.149-1.925-4.149-4.949s1.65-4.949,4.149-4.949,4.149,1.825,4.149,4.949S115.319,37.662,112.819,37.662Zm15.15-11.7a4.752,4.752,0,0,0-3.949,2.074V21.365h-2v17.8h2v-7.3c0-2.849,1.875-4.1,3.549-4.1,1.85,0,2.95.875,2.95,2.874v8.523h2V30.438C132.518,27.589,130.843,25.964,127.969,25.964Zm18.224,11.572a0.591,0.591,0,0,1-.7-0.625v-7.2c0-2.174-1.275-3.749-4.849-3.749-3.774,0-5.1,1.775-5.248,4.274h2c0.125-1.925,1.05-2.549,3.249-2.549s2.9,0.675,2.9,2.024c0,1.15-.725,1.625-2.025,1.775l-1.85.2c-3.549.375-4.773,1.974-4.773,4,0,2.424,1.749,3.774,4.549,3.774a4.728,4.728,0,0,0,4.2-2.075,1.848,1.848,0,0,0,2.174,1.85,7.607,7.607,0,0,0,1.1-.075V37.537h-0.725Zm-6.648.225c-1.775,0-2.575-.85-2.575-2.125,0-1.25.65-2.049,3-2.324l1.875-.225a3.329,3.329,0,0,0,1.7-.55v1.525A3.7,3.7,0,0,1,139.545,37.761Zm15.3-11.7a4.5,4.5,0,0,0-4.149,2.474V26.264h-1.9v12.9h2V31.813c0-2.5,1.649-3.8,4.224-3.8h0.5V26.089C155.244,26.064,155.044,26.064,154.844,26.064Zm16.449,13.1h2.324l-5.249-8.248,4.9-4.649h-2.649l-5.974,5.774V21.365h-2v17.8h2V34.387l2.3-2.15Zm9.7,0.3c3.624,0,6.249-2.624,6.249-6.748s-2.625-6.748-6.249-6.748-6.248,2.624-6.248,6.748S177.369,39.461,180.993,39.461Zm0-1.8c-2.5,0-4.149-1.825-4.149-4.949s1.65-4.949,4.149-4.949,4.149,1.825,4.149,4.949S183.493,37.662,180.993,37.662Zm19.95-11.7a5.065,5.065,0,0,0-4.324,2.149V21.365h-2v17.8h1.9v-2a5.068,5.068,0,0,0,4.424,2.3c3.624,0,6-2.624,6-6.748S204.567,25.964,200.943,25.964Zm-0.25,11.7c-2.5,0-4.149-1.825-4.149-4.949s1.649-4.949,4.149-4.949,4.149,1.724,4.149,4.849S203.192,37.662,200.693,37.662Zm19.3-.125a0.591,0.591,0,0,1-.7-0.625v-7.2c0-2.174-1.275-3.749-4.849-3.749-3.774,0-5.1,1.775-5.249,4.274h2c0.125-1.925,1.049-2.549,3.249-2.549s2.9,0.675,2.9,2.024c0,1.15-.725,1.625-2.024,1.775l-1.85.2c-3.549.375-4.774,1.974-4.774,4,0,2.424,1.75,3.774,4.549,3.774a4.727,4.727,0,0,0,4.2-2.075,1.85,1.85,0,0,0,2.175,1.85,7.593,7.593,0,0,0,1.1-.075V37.537h-0.724Zm-6.649.225c-1.774,0-2.574-.85-2.574-2.125,0-1.25.65-2.049,3-2.324l1.875-.225a3.328,3.328,0,0,0,1.7-.55v1.525A3.7,3.7,0,0,1,213.343,37.761Zm15.2-11.8a4.75,4.75,0,0,0-4.049,2.224V26.264h-1.9v12.9h2v-7.3c0-2.849,1.874-4.1,3.549-4.1,1.849,0,2.949.875,2.949,2.874v8.523h2V30.438C233.091,27.589,231.417,25.964,228.543,25.964Zm18.223,11.572a0.591,0.591,0,0,1-.7-0.625v-7.2c0-2.174-1.274-3.749-4.848-3.749-3.774,0-5.1,1.775-5.249,4.274h2c0.125-1.925,1.05-2.549,3.25-2.549s2.9,0.675,2.9,2.024c0,1.15-.725,1.625-2.025,1.775l-1.849.2c-3.549.375-4.774,1.974-4.774,4,0,2.424,1.75,3.774,4.549,3.774a4.728,4.728,0,0,0,4.2-2.075,1.849,1.849,0,0,0,2.174,1.85,7.607,7.607,0,0,0,1.1-.075V37.537h-0.725Zm-6.648.225c-1.775,0-2.574-.85-2.574-2.125,0-1.25.649-2.049,3-2.324l1.874-.225a3.329,3.329,0,0,0,1.7-.55v1.525A3.7,3.7,0,0,1,240.118,37.761Zm17.424-11.5-1.825,5.349c-0.65,1.875-1.274,3.749-1.849,5.6-0.6-1.85-1.2-3.7-1.85-5.574l-1.824-5.374h-2.2l4.849,13.322c-0.15.4-.3,0.825-0.45,1.2a2.259,2.259,0,0,1-2.349,1.6h-1.175V44.06a9.974,9.974,0,0,0,1.2.075,3.9,3.9,0,0,0,4.2-2.949l5.448-14.921h-2.174Zm15.174,6.448c0-3.7-2.075-6.748-5.924-6.748-3.574,0-5.948,2.7-5.948,6.748,0,4.174,2.474,6.748,6,6.748a5.381,5.381,0,0,0,5.549-4.224h-2.075a3.313,3.313,0,0,1-3.424,2.4c-2.249,0-3.774-1.325-3.974-4.224h9.8v-0.7Zm-5.924-4.924c2.3,0,3.574,1.7,3.774,3.824h-7.6C263.293,29.064,264.768,27.789,266.792,27.789Zm9.426-3.349a1.35,1.35,0,1,0-1.349-1.35A1.36,1.36,0,0,0,276.218,24.44Zm-1,14.721h2v-12.9h-2v12.9Zm11.074-13.2a4.751,4.751,0,0,0-4.049,2.224V26.264h-1.9v12.9h2v-7.3c0-2.849,1.874-4.1,3.549-4.1,1.85,0,2.949.875,2.949,2.874v8.523h2V30.438C290.841,27.589,289.166,25.964,286.292,25.964ZM53.144,67.537a0.591,0.591,0,0,1-.7-0.625v-7.2c0-2.175-1.275-3.749-4.849-3.749-3.774,0-5.1,1.775-5.249,4.274h2c0.125-1.925,1.05-2.549,3.249-2.549s2.9,0.675,2.9,2.025c0,1.15-.725,1.625-2.024,1.775l-1.85.2c-3.549.375-4.774,1.974-4.774,4,0,2.424,1.75,3.774,4.549,3.774a4.727,4.727,0,0,0,4.2-2.075,1.849,1.849,0,0,0,2.174,1.85,7.605,7.605,0,0,0,1.1-.075V67.537H53.144Zm-6.648.225c-1.775,0-2.574-.85-2.574-2.124,0-1.25.65-2.049,3-2.324l1.875-.225a3.328,3.328,0,0,0,1.7-.55v1.525A3.7,3.7,0,0,1,46.5,67.761Zm17.749-11.5v7.3c0,2.849-1.875,4.1-3.549,4.1-1.849,0-2.949-.875-2.949-2.874V56.264h-2v8.723c0,2.849,1.675,4.474,4.549,4.474a4.751,4.751,0,0,0,4.049-2.224v1.925h1.9v-12.9h-2Zm11.176-.2a4.5,4.5,0,0,0-4.149,2.474V56.264h-1.9v12.9h2V61.813c0-2.5,1.65-3.8,4.224-3.8h0.5V56.089C75.82,56.064,75.62,56.064,75.42,56.064Zm14.124-.1a5.066,5.066,0,0,0-4.324,2.149V51.365h-2v17.8h1.9v-2a5.069,5.069,0,0,0,4.424,2.3c3.624,0,6-2.624,6-6.748S93.168,55.964,89.544,55.964Zm-0.25,11.7c-2.5,0-4.149-1.825-4.149-4.949s1.65-4.949,4.149-4.949,4.149,1.724,4.149,4.849S91.793,67.662,89.294,67.662Zm14.7-11.7a4.751,4.751,0,0,0-3.949,2.075V51.365h-2v17.8h2v-7.3c0-2.849,1.874-4.1,3.549-4.1,1.85,0,2.949.875,2.949,2.874v8.523h2V60.438C108.543,57.589,106.868,55.964,103.994,55.964Zm8.676-1.525a1.35,1.35,0,1,0-1.35-1.35A1.36,1.36,0,0,0,112.67,54.44Zm-1,14.721h2v-12.9h-2v12.9Zm21.247-6.448c0-3.7-2.074-6.748-5.923-6.748-3.575,0-5.949,2.7-5.949,6.748,0,4.174,2.474,6.748,6,6.748a5.38,5.38,0,0,0,5.549-4.224h-2.074a3.314,3.314,0,0,1-3.425,2.4c-2.249,0-3.774-1.325-3.974-4.224h9.8v-0.7Zm-5.923-4.924c2.3,0,3.574,1.7,3.774,3.824h-7.6C123.494,59.064,124.969,57.789,126.994,57.789Zm14.374-1.825a4.752,4.752,0,0,0-4.049,2.224V56.264h-1.9v12.9h2v-7.3c0-2.849,1.875-4.1,3.549-4.1,1.85,0,2.95.875,2.95,2.874v8.523h2V60.438C145.917,57.589,144.243,55.964,141.368,55.964Zm18.924,6.748c0-3.7-2.075-6.748-5.924-6.748-3.574,0-5.948,2.7-5.948,6.748,0,4.174,2.474,6.748,6,6.748a5.38,5.38,0,0,0,5.549-4.224h-2.075a3.312,3.312,0,0,1-3.424,2.4c-2.249,0-3.774-1.325-3.974-4.224h9.8v-0.7Zm-5.924-4.924c2.3,0,3.574,1.7,3.774,3.824h-7.6C150.869,59.064,152.344,57.789,154.368,57.789Zm14.475-1.725a4.5,4.5,0,0,0-4.149,2.474V56.264h-1.9v12.9h2V61.813c0-2.5,1.65-3.8,4.224-3.8h0.5V56.089C169.243,56.064,169.043,56.064,168.843,56.064Zm12.724,0.2v1.875a5.206,5.206,0,0,0-4.424-2.175c-3.624,0-6,2.624-6,6.748s2.375,6.748,6,6.748a5.211,5.211,0,0,0,4.324-2.049v1.25c0,2.674-1.425,4-4,4-2.025,0-3.249-.825-3.5-2.449h-2c0.275,2.5,2.2,4.149,5.5,4.149,4.074,0,6-2.349,6-5.7v-12.4h-1.9Zm-4.174,11.4c-2.5,0-4.149-1.925-4.149-4.949s1.65-4.949,4.149-4.949,4.149,1.825,4.149,4.949S179.892,67.662,177.393,67.662Zm17.374-11.4-1.824,5.349c-0.65,1.875-1.275,3.749-1.85,5.6-0.6-1.85-1.2-3.7-1.849-5.574l-1.825-5.374h-2.2l4.848,13.322c-0.15.4-.3,0.825-0.45,1.2a2.258,2.258,0,0,1-2.349,1.6h-1.175V74.06a9.974,9.974,0,0,0,1.2.075,3.9,3.9,0,0,0,4.2-2.949l5.449-14.921h-2.175Zm20.049,6.448c0-3.7-2.075-6.748-5.924-6.748-3.574,0-5.948,2.7-5.948,6.748,0,4.174,2.474,6.748,6,6.748a5.38,5.38,0,0,0,5.549-4.224h-2.075a3.312,3.312,0,0,1-3.424,2.4c-2.249,0-3.774-1.325-3.974-4.224h9.8v-0.7Zm-5.924-4.924c2.3,0,3.574,1.7,3.774,3.824h-7.6C205.393,59.064,206.868,57.789,208.892,57.789Zm13.15-4.724h1.15v-1.7c-0.3-.025-0.9-0.05-1.275-0.05-2.549,0-3.6,1.35-3.6,3.624v1.325h-2.124v1.75h2.124V69.161h2V58.014h2.749v-1.75h-2.749V54.89A1.587,1.587,0,0,1,222.042,53.065Zm4.4,1.875v1.325h-2.124v1.75h2.124V69.161h2V58.014h2.749v-1.75h-2.749V54.89a1.586,1.586,0,0,1,1.724-1.825h1.15v-1.7c-0.3-.025-0.9-0.05-1.275-0.05C227.493,51.315,226.443,52.665,226.443,54.94Zm7.748-.5a1.35,1.35,0,1,0-1.349-1.35A1.36,1.36,0,0,0,234.191,54.44Zm-1,14.721h2v-12.9h-2v12.9Zm10.476,0.3a5.32,5.32,0,0,0,5.549-4.724h-2.05a3.387,3.387,0,0,1-3.5,2.924c-2.15,0-3.874-1.575-3.874-4.949s1.674-4.949,3.874-4.949a3.357,3.357,0,0,1,3.474,2.874h2.075a5.227,5.227,0,0,0-5.549-4.674c-3.574,0-5.974,2.6-5.974,6.748S240.143,69.461,243.667,69.461Zm8.8-15.021a1.35,1.35,0,1,0-1.35-1.35A1.36,1.36,0,0,0,252.468,54.44Zm-1,14.721h2v-12.9h-2v12.9Zm16.372-6.448c0-3.7-2.074-6.748-5.923-6.748-3.574,0-5.949,2.7-5.949,6.748,0,4.174,2.475,6.748,6,6.748a5.379,5.379,0,0,0,5.548-4.224h-2.074a3.313,3.313,0,0,1-3.424,2.4c-2.25,0-3.774-1.325-3.974-4.224h9.8v-0.7Zm-5.923-4.924c2.3,0,3.574,1.7,3.774,3.824h-7.6C258.418,59.064,259.892,57.789,261.917,57.789Zm14.375-1.825a4.75,4.75,0,0,0-4.049,2.224V56.264h-1.9v12.9h2v-7.3c0-2.849,1.874-4.1,3.549-4.1,1.849,0,2.949.875,2.949,2.874v8.523h2V60.438C280.84,57.589,279.166,55.964,276.292,55.964Zm13.324,2.05v-1.75h-2.649V52.615h-2v3.649h-2.125v1.75h2.125v8.548c0,1.974,1.224,2.674,3.224,2.674q0.6,0,1.424-.075V67.487h-1.174c-1.15,0-1.475-.425-1.475-1.1V58.014h2.649Z"/>
</svg>
