<svg id="Frame_4" data-name="Frame 4" xmlns="http://www.w3.org/2000/svg" width="728" height="90" viewBox="0 0 728 90">
  <defs>
    <style>
      .cls-1 {
        fill: #4b286d;
        fill-rule: evenodd;
      }
    </style>
  </defs>
  <path id="TELUS_smart_plugs_bulbs_ke_saath._" data-name="TELUS smart plugs  &amp; bulbs ke saath. " class="cls-1" d="M56.868,21.365H42.6v1.9h6.048v15.9H50.82v-15.9h6.049v-1.9Zm14.625,1.9v-1.9H59.121v17.8H71.393v-1.9H61.221V30.838h9.273v-1.9H61.221V23.265H71.493Zm4.477,14v-15.9h-2.1v17.8H84.918v-1.9H75.97Zm17.949,2.274c4.449,0,7-2.524,7-6.973v-11.2h-2.1v11.2c0,3.5-1.8,5.074-4.9,5.074s-4.9-1.575-4.9-5.074v-11.2h-2.1v11.2C86.921,37.012,89.47,39.536,93.919,39.536Zm16.65,0.025c4.274,0,6.673-2.075,6.673-5.224,0-2.574-1.449-4.174-5.548-5.074l-1.575-.35c-3.349-.75-4.174-1.6-4.174-3.3,0-1.675,1.325-2.749,3.9-2.749,3.549,0,4.624,1.375,4.8,3.674h2.15c-0.075-2.9-1.7-5.574-6.949-5.574-3.7,0-6.073,1.8-6.073,4.649,0,3.249,2.374,4.474,5.4,5.149l1.575,0.35c3.149,0.7,4.324,1.525,4.324,3.224,0,2.2-1.65,3.324-4.5,3.324-2.9,0-5.174-1.075-5.224-4.374h-2.174C103.221,37.736,106.32,39.561,110.569,39.561Zm18.35-.1c3.174,0,5.124-1.4,5.124-3.849,0-2.1-1.275-3.174-4.449-3.8l-1.15-.225c-1.649-.325-2.6-0.775-2.6-2,0-1.2.975-1.9,2.7-1.9,1.975,0,3.149.55,3.249,2.549h2c-0.05-2.749-1.8-4.274-5.249-4.274-2.949,0-4.7,1.45-4.7,3.649,0,2,1.225,3.274,4.024,3.8l1.2,0.225c2.25,0.425,2.949.95,2.949,2.1,0,1.275-.924,2-3.1,2-2.274,0-3.224-.725-3.449-2.674h-2.025C123.645,38.086,125.645,39.461,128.919,39.461Zm20.823-13.5a4.454,4.454,0,0,0-3.974,2.424,4.039,4.039,0,0,0-3.974-2.424,4.141,4.141,0,0,0-3.724,2.2v-1.9h-1.9v12.9h2V32.113c0-3.1,1.724-4.349,3.3-4.349,1.674,0,2.7.85,2.7,2.849v8.548h2V32.113c0-3.1,1.674-4.349,3.3-4.349,1.7,0,2.7.85,2.7,2.849v8.548h2V30.413A4.1,4.1,0,0,0,149.742,25.964Zm18.1,11.572a0.591,0.591,0,0,1-.7-0.625v-7.2c0-2.174-1.275-3.749-4.849-3.749-3.774,0-5.1,1.775-5.249,4.274h2c0.125-1.925,1.049-2.549,3.249-2.549s2.9,0.675,2.9,2.024c0,1.15-.725,1.625-2.024,1.775l-1.85.2c-3.549.375-4.774,1.974-4.774,4,0,2.424,1.75,3.774,4.549,3.774a4.727,4.727,0,0,0,4.2-2.075,1.85,1.85,0,0,0,2.175,1.85,7.6,7.6,0,0,0,1.1-.075V37.537h-0.725Zm-6.648.225c-1.774,0-2.574-.85-2.574-2.125,0-1.25.65-2.049,3-2.324l1.875-.225a3.328,3.328,0,0,0,1.7-.55v1.525A3.7,3.7,0,0,1,161.194,37.761Zm15.3-11.7a4.5,4.5,0,0,0-4.149,2.474V26.264h-1.9v12.9h2V31.813c0-2.5,1.65-3.8,4.224-3.8h0.5V26.089C176.893,26.064,176.693,26.064,176.493,26.064Zm8.575,1.95v-1.75h-2.649V22.615h-2v3.649H178.3v1.75h2.124v8.548c0,1.974,1.225,2.674,3.225,2.674q0.6,0,1.424-.075V37.487h-1.174c-1.15,0-1.475-.425-1.475-1.1V28.014h2.649Zm13.45-2.049a5.068,5.068,0,0,0-4.424,2.3v-2h-1.9v17.8h2V37.312a5.065,5.065,0,0,0,4.324,2.149c3.624,0,6-2.624,6-6.748S202.142,25.964,198.518,25.964Zm-0.25,11.7c-2.5,0-4.149-1.825-4.149-4.949s1.649-4.949,4.149-4.949,4.149,1.724,4.149,4.849S200.767,37.662,198.268,37.662Zm11.65,1.575a12.708,12.708,0,0,0,1.275-.075V37.487h-0.95a1,1,0,0,1-1.224-1.1V21.365h-2v15.2C207.019,38.536,208.119,39.236,209.918,39.236Zm11.649-12.972v7.3c0,2.849-1.875,4.1-3.549,4.1-1.85,0-2.949-.875-2.949-2.874V26.264h-2v8.723c0,2.849,1.675,4.474,4.549,4.474a4.752,4.752,0,0,0,4.049-2.224v1.924h1.9v-12.9h-2Zm14.924,0v1.875a5.2,5.2,0,0,0-4.423-2.174c-3.625,0-6,2.624-6,6.748s2.374,6.748,6,6.748a5.209,5.209,0,0,0,4.323-2.05v1.25c0,2.674-1.424,4-4,4-2.024,0-3.249-.825-3.5-2.449h-2c0.275,2.5,2.2,4.149,5.5,4.149,4.074,0,6-2.349,6-5.7v-12.4h-1.9Zm-4.174,11.4c-2.5,0-4.149-1.925-4.149-4.949s1.65-4.949,4.149-4.949,4.149,1.825,4.149,4.949S234.817,37.662,232.317,37.662Zm13.751,1.8c3.174,0,5.123-1.4,5.123-3.849,0-2.1-1.274-3.174-4.448-3.8l-1.15-.225c-1.65-.325-2.6-0.775-2.6-2,0-1.2.975-1.9,2.7-1.9,1.974,0,3.149.55,3.249,2.549h2c-0.05-2.749-1.8-4.274-5.248-4.274-2.95,0-4.7,1.45-4.7,3.649,0,2,1.225,3.274,4.024,3.8l1.2,0.225c2.249,0.425,2.949.95,2.949,2.1,0,1.275-.925,2-3.1,2-2.275,0-3.225-.725-3.449-2.674h-2.025C240.794,38.086,242.793,39.461,246.068,39.461ZM58.543,69.161l-3.449-3.849a12.07,12.07,0,0,0,1.075-4.749H54.144a9.614,9.614,0,0,1-.5,3.124l-3.7-4.124c2.249-1.3,3.649-2.924,3.649-4.749,0-2.5-2.075-3.849-4.349-3.849-2.774,0-4.374,1.8-4.374,3.924,0,1.425.65,2.624,2.124,4.324-2.649,1.475-4.149,2.874-4.149,5.4,0,2.674,2,4.949,5.374,4.949a7.168,7.168,0,0,0,5.749-2.5l1.874,2.1h2.7Zm-9.323-16.4a2.158,2.158,0,0,1,2.274,2.125c0,1.375-.95,2.349-2.724,3.349-1.225-1.375-1.8-2.474-1.8-3.349A2.08,2.08,0,0,1,49.22,52.765Zm-0.875,14.9a3.177,3.177,0,0,1-3.374-3.149c0-1.95,1.25-2.924,3.2-3.974l4.474,5.024A5.132,5.132,0,0,1,48.345,67.662Zm23.024-11.7a5.066,5.066,0,0,0-4.324,2.149V51.365h-2v17.8h1.9v-2a5.069,5.069,0,0,0,4.424,2.3c3.624,0,6-2.624,6-6.748S74.993,55.964,71.369,55.964Zm-0.25,11.7c-2.5,0-4.149-1.825-4.149-4.949s1.65-4.949,4.149-4.949,4.149,1.724,4.149,4.849S73.619,67.662,71.119,67.662Zm17.249-11.4v7.3c0,2.849-1.875,4.1-3.549,4.1-1.85,0-2.949-.875-2.949-2.874V56.264h-2v8.723c0,2.849,1.675,4.474,4.549,4.474a4.752,4.752,0,0,0,4.049-2.224v1.925h1.9v-12.9h-2Zm8.026,12.972a12.7,12.7,0,0,0,1.275-.075V67.487H96.72a1,1,0,0,1-1.225-1.1V51.365h-2v15.2C93.5,68.536,94.6,69.236,96.395,69.236Zm9.474-13.272a5.066,5.066,0,0,0-4.324,2.149V51.365h-2v17.8h1.9v-2a5.069,5.069,0,0,0,4.424,2.3c3.624,0,6-2.624,6-6.748S109.493,55.964,105.869,55.964Zm-0.25,11.7c-2.5,0-4.149-1.825-4.149-4.949s1.65-4.949,4.149-4.949,4.149,1.724,4.149,4.849S108.118,67.662,105.619,67.662Zm13.3,1.8c3.175,0,5.124-1.4,5.124-3.849,0-2.1-1.275-3.174-4.449-3.8l-1.15-.225c-1.649-.325-2.6-0.775-2.6-2,0-1.2.975-1.9,2.7-1.9,1.975,0,3.15.55,3.25,2.549h2c-0.05-2.749-1.8-4.274-5.249-4.274-2.949,0-4.7,1.45-4.7,3.649,0,2,1.224,3.274,4.024,3.8l1.2,0.225c2.25,0.425,2.95.95,2.95,2.1,0,1.275-.925,2-3.1,2-2.274,0-3.224-.725-3.449-2.674h-2.024C113.646,68.086,115.645,69.461,118.919,69.461Zm20.774-.3h2.324l-5.248-8.248,4.9-4.649h-2.649l-5.974,5.774V51.365h-2v17.8h2V64.387l2.3-2.149Zm15.324-6.448c0-3.7-2.074-6.748-5.923-6.748-3.575,0-5.949,2.7-5.949,6.748,0,4.174,2.474,6.748,6,6.748a5.38,5.38,0,0,0,5.548-4.224h-2.074a3.313,3.313,0,0,1-3.424,2.4c-2.25,0-3.774-1.325-3.974-4.224h9.8v-0.7Zm-5.923-4.924c2.3,0,3.574,1.7,3.774,3.824h-7.6C145.594,59.064,147.069,57.789,149.094,57.789Zm17.849,11.672c3.175,0,5.124-1.4,5.124-3.849,0-2.1-1.274-3.174-4.449-3.8l-1.149-.225c-1.65-.325-2.6-0.775-2.6-2,0-1.2.975-1.9,2.7-1.9,1.974,0,3.149.55,3.249,2.549h2c-0.05-2.749-1.8-4.274-5.248-4.274-2.95,0-4.7,1.45-4.7,3.649,0,2,1.224,3.274,4.024,3.8l1.2,0.225c2.25,0.425,2.95.95,2.95,2.1,0,1.275-.925,2-3.1,2-2.274,0-3.224-.725-3.449-2.674H161.47C161.67,68.086,163.669,69.461,166.943,69.461Zm17.8-1.924a0.591,0.591,0,0,1-.7-0.625v-7.2c0-2.175-1.275-3.749-4.849-3.749-3.774,0-5.1,1.775-5.248,4.274h2c0.125-1.925,1.05-2.549,3.249-2.549s2.9,0.675,2.9,2.025c0,1.15-.725,1.625-2.025,1.775l-1.85.2c-3.549.375-4.773,1.974-4.773,4,0,2.424,1.749,3.774,4.549,3.774a4.725,4.725,0,0,0,4.2-2.075,1.85,1.85,0,0,0,2.175,1.85,7.607,7.607,0,0,0,1.1-.075V67.537h-0.725Zm-6.649.225c-1.774,0-2.574-.85-2.574-2.124,0-1.25.65-2.049,3-2.324l1.875-.225a3.329,3.329,0,0,0,1.7-.55v1.525A3.7,3.7,0,0,1,178.093,67.761Zm19.8-.225a0.591,0.591,0,0,1-.7-0.625v-7.2c0-2.175-1.275-3.749-4.849-3.749-3.774,0-5.1,1.775-5.249,4.274h2c0.125-1.925,1.05-2.549,3.249-2.549s2.9,0.675,2.9,2.025c0,1.15-.724,1.625-2.024,1.775l-1.85.2c-3.549.375-4.773,1.974-4.773,4,0,2.424,1.749,3.774,4.548,3.774a4.726,4.726,0,0,0,4.2-2.075,1.85,1.85,0,0,0,2.175,1.85,7.607,7.607,0,0,0,1.1-.075V67.537h-0.725Zm-6.649.225c-1.774,0-2.574-.85-2.574-2.124,0-1.25.65-2.049,3-2.324l1.875-.225a3.322,3.322,0,0,0,1.7-.55v1.525A3.7,3.7,0,0,1,191.243,67.761Zm14.9-9.748v-1.75h-2.649V52.615h-2v3.649H199.37v1.75h2.124v8.548c0,1.974,1.225,2.674,3.224,2.674q0.6,0,1.425-.075V67.487h-1.175c-1.15,0-1.474-.425-1.474-1.1V58.014h2.649Zm8.2-2.05a4.753,4.753,0,0,0-3.95,2.075V51.365h-2v17.8h2v-7.3c0-2.849,1.875-4.1,3.55-4.1,1.849,0,2.949.875,2.949,2.874v8.523h2V60.438C218.891,57.589,217.217,55.964,214.343,55.964Zm8.8,13.372a1.436,1.436,0,0,0,1.424-1.475,1.463,1.463,0,0,0-2.924,0A1.438,1.438,0,0,0,223.144,69.336Z"/>
</svg>
