<svg id="Frame_5" data-name="Frame 5" xmlns="http://www.w3.org/2000/svg" width="728" height="90" viewBox="0 0 728 90">
  <defs>
    <style>
      .cls-1 {
        fill: #4b286d;
        fill-rule: evenodd;
      }
    </style>
  </defs>
  <path id="SmartHome_Security_make_home_life_easier" data-name="SmartHome Security make home life easier" class="cls-1" d="M277.124,39.561c4.449,0,7.2-1.95,7.2-5.474,0-2.824-1.7-4.449-5.9-5.274l-1.55-.3c-2.649-.55-3.474-1.2-3.474-2.624,0-1.35,1.05-2.2,3.2-2.2,2.825,0,3.8,1.075,3.924,2.974H283.8c-0.124-3.349-2.249-5.7-7.248-5.7-4.274,0-6.6,2.075-6.6,5.024,0,3.224,2.274,4.749,5.723,5.4l1.5,0.3c2.724,0.55,3.649,1.175,3.649,2.574,0,1.675-1.274,2.574-3.6,2.574-2.474,0-4.349-.75-4.4-3.549H269.5C269.526,37.387,272.375,39.561,277.124,39.561Zm23.823-13.6a4.659,4.659,0,0,0-4,2.4,4.079,4.079,0,0,0-4-2.4,4.194,4.194,0,0,0-3.674,2.149v-1.85h-3.049v12.9h3.149v-7.1c0-2.424,1.325-3.374,2.649-3.374,1.5,0,2.25.8,2.25,2.449v8.023H297.4v-7.1c0-2.424,1.3-3.374,2.674-3.374,1.5,0,2.225.8,2.225,2.449v8.023h3.149V30.638C305.446,27.789,303.821,25.964,300.947,25.964Zm18.775,13.2a4.893,4.893,0,0,1-.524-2.449V29.838c0-2.325-1.525-3.874-5.374-3.874-4.024,0-5.624,1.675-5.8,4.4h3.1c0.125-1.575.874-2.049,2.674-2.049,1.824,0,2.349.6,2.349,1.6,0,0.95-.624,1.325-1.824,1.475l-1.95.175c-3.649.35-4.949,1.875-4.949,4.024,0,2.5,1.9,3.874,4.649,3.874a4.791,4.791,0,0,0,4.149-1.874,4.2,4.2,0,0,0,.35,1.575h3.149Zm-6.9-1.95c-1.449,0-2.174-.675-2.174-1.75,0-1.025.575-1.65,2.324-1.85l1.7-.2a2.505,2.505,0,0,0,1.474-.525v1.175A3.027,3.027,0,0,1,312.824,37.212Zm15.8-11.147a3.932,3.932,0,0,0-3.849,2.5v-2.3h-3.049v12.9h3.149V32.613c0-2.449,1.4-3.6,3.724-3.6h0.8v-2.9A4.039,4.039,0,0,0,328.623,26.064Zm9.475,2.6v-2.4h-2.549V22.515h-3.124v3.749h-2v2.4h2v7.3c0,2.374,1.3,3.3,4.024,3.3,0.5,0,1.074-.05,1.649-0.1v-2.4h-1.074c-1.05,0-1.475-.275-1.475-1.125V28.664H338.1Zm13.8-7.3v7.148h-8.273V21.365H340.25v17.8h3.374v-7.6H351.9v7.6h3.374v-17.8H351.9Zm12.226,18.1c3.924,0,6.548-2.649,6.548-6.748s-2.624-6.748-6.548-6.748-6.573,2.649-6.573,6.748S360.2,39.461,364.123,39.461Zm0-2.6c-2.05,0-3.349-1.425-3.349-4.149s1.3-4.149,3.349-4.149c2.024,0,3.349,1.425,3.349,4.149S366.147,36.862,364.123,36.862Zm23.373-10.9a4.658,4.658,0,0,0-4,2.4,4.08,4.08,0,0,0-4-2.4,4.193,4.193,0,0,0-3.674,2.149v-1.85h-3.05v12.9h3.15v-7.1c0-2.424,1.324-3.374,2.649-3.374,1.5,0,2.249.8,2.249,2.449v8.023h3.125v-7.1c0-2.424,1.3-3.374,2.674-3.374,1.5,0,2.224.8,2.224,2.449v8.023H392V30.638C392,27.789,390.37,25.964,387.5,25.964Zm19.35,6.973c0-4.1-2.424-6.973-6.373-6.973-3.825,0-6.374,2.7-6.374,6.748,0,4.124,2.624,6.748,6.424,6.748,3.1,0,5.348-1.675,6-4.3H403.5a2.939,2.939,0,0,1-2.949,1.849c-1.825,0-3.125-1.025-3.35-3.324h9.648v-0.75Zm-6.4-4.524a3.189,3.189,0,0,1,3.249,3.074h-6.474C397.523,29.364,398.773,28.414,400.448,28.414Zm21.024,11.147c4.449,0,7.2-1.95,7.2-5.474,0-2.824-1.7-4.449-5.9-5.274l-1.549-.3c-2.649-.55-3.474-1.2-3.474-2.624,0-1.35,1.049-2.2,3.2-2.2,2.824,0,3.8,1.075,3.924,2.974h3.274c-0.125-3.349-2.249-5.7-7.248-5.7-4.274,0-6.6,2.075-6.6,5.024,0,3.224,2.274,4.749,5.723,5.4l1.5,0.3c2.724,0.55,3.649,1.175,3.649,2.574,0,1.675-1.275,2.574-3.6,2.574-2.475,0-4.349-.75-4.4-3.549h-3.324C413.874,37.387,416.723,39.561,421.472,39.561Zm21.273-6.623c0-4.1-2.424-6.973-6.373-6.973-3.824,0-6.374,2.7-6.374,6.748,0,4.124,2.625,6.748,6.424,6.748,3.1,0,5.349-1.675,6-4.3H439.4a2.938,2.938,0,0,1-2.949,1.849c-1.825,0-3.124-1.025-3.349-3.324h9.647v-0.75Zm-6.4-4.524a3.189,3.189,0,0,1,3.249,3.074h-6.473C433.423,29.364,434.672,28.414,436.347,28.414ZM450.7,39.461c3.3,0,5.7-1.95,6.048-5.1H453.6a2.739,2.739,0,0,1-2.9,2.474c-1.825,0-3.149-1.3-3.149-4.124s1.274-4.124,3.149-4.124a2.691,2.691,0,0,1,2.849,2.324H456.7c-0.375-3.024-2.624-4.949-6-4.949-3.849,0-6.374,2.624-6.374,6.748S446.873,39.461,450.7,39.461Zm16.349-13.2v7.223c0,2.3-1.5,3.249-2.874,3.249a2.144,2.144,0,0,1-2.425-2.449V26.264H458.6v8.548c0,3.074,1.825,4.649,4.5,4.649a4.759,4.759,0,0,0,4.049-2.175v1.875H470.2v-12.9h-3.149Zm12.725-.2a3.932,3.932,0,0,0-3.849,2.5v-2.3h-3.049v12.9h3.149V32.613c0-2.449,1.4-3.6,3.724-3.6h0.8v-2.9A4.039,4.039,0,0,0,479.771,26.064Zm4.327-1.35a1.737,1.737,0,1,0-1.75-1.725A1.728,1.728,0,0,0,484.1,24.715Zm-1.575,14.446h3.149v-12.9h-3.149v12.9Zm12.548-10.5v-2.4h-2.549V22.515H489.4v3.749h-2v2.4h2v7.3c0,2.374,1.3,3.3,4.024,3.3,0.5,0,1.074-.05,1.649-0.1v-2.4H494c-1.049,0-1.474-.275-1.474-1.125V28.664h2.549Zm10.4-2.4-1.049,3.249c-0.7,2.274-1.4,4.624-2.075,7.173-0.65-2.524-1.349-4.949-2.049-7.2l-1.05-3.224h-3.4l3.749,10.6a8.651,8.651,0,0,1,.6,2.6,1.926,1.926,0,0,1-2.125,2.075h-1.2V44.01a10.258,10.258,0,0,0,1.374.075c3.124,0,4.524-1,5.549-3.874l4.974-13.947h-3.3Zm-220.4,29.7a4.454,4.454,0,0,0-3.974,2.424,4.039,4.039,0,0,0-3.974-2.424,4.143,4.143,0,0,0-3.724,2.2v-1.9h-1.9v12.9h2V62.113c0-3.1,1.724-4.349,3.3-4.349,1.675,0,2.7.85,2.7,2.849v8.548h2V62.113c0-3.1,1.674-4.349,3.3-4.349,1.7,0,2.7.85,2.7,2.849v8.548h2V60.413A4.1,4.1,0,0,0,285.072,55.964Zm18.1,11.572a0.591,0.591,0,0,1-.7-0.625v-7.2c0-2.175-1.275-3.749-4.849-3.749-3.774,0-5.1,1.775-5.249,4.274h2c0.125-1.925,1.05-2.549,3.249-2.549s2.9,0.675,2.9,2.025c0,1.15-.725,1.625-2.024,1.775l-1.85.2c-3.549.375-4.774,1.974-4.774,4,0,2.424,1.75,3.774,4.549,3.774a4.727,4.727,0,0,0,4.2-2.075,1.85,1.85,0,0,0,2.175,1.85,7.583,7.583,0,0,0,1.1-.075V67.537h-0.724Zm-6.649.225c-1.774,0-2.574-.85-2.574-2.124,0-1.25.65-2.049,3-2.324l1.875-.225a3.325,3.325,0,0,0,1.7-.55v1.525A3.7,3.7,0,0,1,296.524,67.761Zm17.9,1.4h2.324L311.5,60.913l4.9-4.649h-2.65l-5.973,5.774V51.365h-2v17.8h2V64.387l2.3-2.149Zm15.324-6.448c0-3.7-2.074-6.748-5.923-6.748-3.574,0-5.949,2.7-5.949,6.748,0,4.174,2.475,6.748,6,6.748a5.379,5.379,0,0,0,5.548-4.224h-2.074a3.313,3.313,0,0,1-3.424,2.4c-2.25,0-3.774-1.325-3.974-4.224h9.8v-0.7Zm-5.923-4.924c2.3,0,3.574,1.7,3.774,3.824H320C320.325,59.064,321.8,57.789,323.824,57.789Zm19.249-1.825a4.752,4.752,0,0,0-3.949,2.075V51.365h-2v17.8h2v-7.3c0-2.849,1.875-4.1,3.549-4.1,1.85,0,2.95.875,2.95,2.874v8.523h2V60.438C347.622,57.589,345.948,55.964,343.073,55.964Zm13.3,13.5c3.624,0,6.249-2.624,6.249-6.748s-2.625-6.748-6.249-6.748-6.248,2.624-6.248,6.748S352.749,69.461,356.373,69.461Zm0-1.8c-2.5,0-4.149-1.825-4.149-4.949s1.65-4.949,4.149-4.949,4.149,1.825,4.149,4.949S358.873,67.662,356.373,67.662Zm22.323-11.7a4.454,4.454,0,0,0-3.974,2.424,4.039,4.039,0,0,0-3.974-2.424,4.143,4.143,0,0,0-3.724,2.2v-1.9h-1.9v12.9h2V62.113c0-3.1,1.724-4.349,3.3-4.349,1.675,0,2.7.85,2.7,2.849v8.548h2V62.113c0-3.1,1.674-4.349,3.3-4.349,1.7,0,2.7.85,2.7,2.849v8.548h2V60.413A4.1,4.1,0,0,0,378.7,55.964Zm18.8,6.748c0-3.7-2.075-6.748-5.924-6.748-3.574,0-5.949,2.7-5.949,6.748,0,4.174,2.475,6.748,6,6.748a5.381,5.381,0,0,0,5.549-4.224H395.1a3.313,3.313,0,0,1-3.424,2.4c-2.25,0-3.774-1.325-3.974-4.224h9.8v-0.7Zm-5.924-4.924c2.3,0,3.574,1.7,3.774,3.824h-7.6C388.074,59.064,389.548,57.789,391.573,57.789Zm16.2,11.447a12.708,12.708,0,0,0,1.275-.075V67.487H408.1a1,1,0,0,1-1.225-1.1V51.365h-2v15.2C404.874,68.536,405.974,69.236,407.773,69.236Zm4.151-14.8a1.35,1.35,0,1,0-1.35-1.35A1.36,1.36,0,0,0,411.924,54.44Zm-1,14.721h2v-12.9h-2v12.9Zm9.849-16.1h1.149v-1.7c-0.3-.025-0.9-0.05-1.274-0.05-2.55,0-3.6,1.35-3.6,3.624v1.325h-2.125v1.75h2.125V69.161h2V58.014H421.8v-1.75h-2.749V54.89A1.587,1.587,0,0,1,420.773,53.065Zm14.648,9.648c0-3.7-2.075-6.748-5.924-6.748-3.574,0-5.948,2.7-5.948,6.748,0,4.174,2.474,6.748,6,6.748a5.38,5.38,0,0,0,5.549-4.224h-2.075a3.312,3.312,0,0,1-3.424,2.4c-2.249,0-3.774-1.325-3.974-4.224h9.8v-0.7ZM429.5,57.789c2.3,0,3.574,1.7,3.774,3.824h-7.6C426,59.064,427.473,57.789,429.5,57.789Zm24.548,4.924c0-3.7-2.074-6.748-5.923-6.748-3.574,0-5.949,2.7-5.949,6.748,0,4.174,2.475,6.748,6,6.748a5.381,5.381,0,0,0,5.549-4.224h-2.075a3.313,3.313,0,0,1-3.424,2.4c-2.25,0-3.774-1.325-3.974-4.224h9.8v-0.7Zm-5.923-4.924c2.3,0,3.574,1.7,3.774,3.824h-7.6C444.623,59.064,446.1,57.789,448.122,57.789ZM467.1,67.537a0.591,0.591,0,0,1-.7-0.625v-7.2c0-2.175-1.275-3.749-4.849-3.749-3.774,0-5.1,1.775-5.249,4.274h2c0.125-1.925,1.05-2.549,3.249-2.549s2.9,0.675,2.9,2.025c0,1.15-.725,1.625-2.024,1.775l-1.85.2c-3.549.375-4.774,1.974-4.774,4,0,2.424,1.75,3.774,4.549,3.774a4.727,4.727,0,0,0,4.2-2.075,1.85,1.85,0,0,0,2.175,1.85,7.583,7.583,0,0,0,1.1-.075V67.537H467.1Zm-6.649.225c-1.774,0-2.574-.85-2.574-2.124,0-1.25.65-2.049,3-2.324l1.875-.225a3.328,3.328,0,0,0,1.7-.55v1.525A3.7,3.7,0,0,1,460.447,67.761Zm13.8,1.7c3.174,0,5.124-1.4,5.124-3.849,0-2.1-1.275-3.174-4.449-3.8l-1.15-.225c-1.65-.325-2.6-0.775-2.6-2,0-1.2.974-1.9,2.7-1.9,1.975,0,3.149.55,3.249,2.549h2c-0.05-2.749-1.8-4.274-5.249-4.274-2.949,0-4.7,1.45-4.7,3.649,0,2,1.225,3.274,4.024,3.8l1.2,0.225c2.249,0.425,2.949.95,2.949,2.1,0,1.275-.925,2-3.1,2-2.274,0-3.224-.725-3.449-2.674h-2.025C468.973,68.086,470.973,69.461,474.247,69.461ZM482.5,54.44a1.35,1.35,0,1,0-1.35-1.35A1.359,1.359,0,0,0,482.5,54.44Zm-1,14.721h2v-12.9h-2v12.9Zm16.372-6.448c0-3.7-2.074-6.748-5.923-6.748-3.575,0-5.949,2.7-5.949,6.748,0,4.174,2.474,6.748,6,6.748a5.38,5.38,0,0,0,5.548-4.224h-2.074a3.313,3.313,0,0,1-3.424,2.4c-2.25,0-3.775-1.325-3.974-4.224h9.8v-0.7Zm-5.923-4.924c2.3,0,3.574,1.7,3.774,3.824h-7.6C488.447,59.064,489.922,57.789,491.947,57.789Zm14.474-1.725a4.5,4.5,0,0,0-4.149,2.474V56.264h-1.9v12.9h2V61.813c0-2.5,1.65-3.8,4.224-3.8h0.5V56.089C506.821,56.064,506.621,56.064,506.421,56.064Z"/>
</svg>
