<svg id="Frame_1" data-name="Frame 1" xmlns="http://www.w3.org/2000/svg" width="320" height="50" viewBox="0 0 320 50">
  <defs>
    <style>
      .cls-1 {
        fill: #4b286d;
        fill-rule: evenodd;
      }
    </style>
  </defs>
  <path id="家里忘记关灯_" data-name="家里忘记关灯?" class="cls-1" d="M26.561,23.088V20.322H21.485a5.254,5.254,0,0,0-.9-1.163,5.35,5.35,0,0,0-1.006-.8l-0.946.71a11.4,11.4,0,0,1,1.194.952,2.117,2.117,0,0,1,.233.3H14.637v2.826h1.141V21.426h9.641v1.662h1.141Zm0.721,6.966a4.168,4.168,0,0,1-1.3-.816,7.075,7.075,0,0,1-1.149-1.345,5.973,5.973,0,0,1-.766-1.572,11,11,0,0,0,1.667-1.511l-0.871-.771a6.519,6.519,0,0,1-2.778,2.176,4,4,0,0,0-.608-0.96,3.557,3.557,0,0,0-.8-0.733q0.045-.03.353-0.2t0.578-.355a4.907,4.907,0,0,0,.511-0.393h2.763v-1.1h-8.47v1.1l3.769,0.015a15.439,15.439,0,0,1-5.466,1.708l0.781,1a13.04,13.04,0,0,0,4.07-1.194,4.536,4.536,0,0,1,.751.514,9.882,9.882,0,0,1-1.4.831,10.544,10.544,0,0,1-1.99.733,21.447,21.447,0,0,1-2.5.506l0.8,0.982a11.265,11.265,0,0,0,3.041-.741,13.914,13.914,0,0,0,2.665-1.451,6.258,6.258,0,0,1,.406.877,9.913,9.913,0,0,1-3.154,1.836,20.611,20.611,0,0,1-4.055.99l0.826,1.043a24.076,24.076,0,0,0,2.5-.612,15.477,15.477,0,0,0,2.283-.884,8.3,8.3,0,0,0,1.84-1.194,12.7,12.7,0,0,1-.06,2.025,0.661,0.661,0,0,1-.165.287,0.824,0.824,0,0,1-.27.212,5,5,0,0,1-1.1-.1,12.5,12.5,0,0,1-1.427-.385l0.465,1.345a5.807,5.807,0,0,0,2.628.106,1.3,1.3,0,0,0,.668-0.521,2.939,2.939,0,0,0,.353-1.307,8.733,8.733,0,0,0-.008-1.489,11.3,11.3,0,0,0-.218-1.488l0.721-.3a9.065,9.065,0,0,0,.616,1.352,7.388,7.388,0,0,0,1.149,1.549,4.671,4.671,0,0,0,1.6,1.133Zm14.984,1.269V30.175H36.019V28.528h5.2v-1.1h-5.2V25.944h4.34V19.1h-9.9v6.846h4.415v1.481H29.831v1.1h5.046v1.647H28.825v1.148H42.266Zm-3.049-9.414h-3.2V20.2h3.2v1.708Zm0,2.932h-3.2V23.012h3.2v1.828Zm-4.34-2.932H31.648V20.2h3.229v1.708Zm0,2.932H31.648V23.012h3.229v1.828Zm21.765-3.264v-1.1H51.416a1.859,1.859,0,0,0,.435-0.287,6.15,6.15,0,0,0-2.328-1.859l-0.856.68a8.786,8.786,0,0,1,1.134.725,3.833,3.833,0,0,1,.773.741H44.463v1.1h1.622v2.69a1.341,1.341,0,0,0,.368.99,1.3,1.3,0,0,0,.969.37h8.139v-1.1H47.706a0.424,0.424,0,0,1-.315-0.121,0.392,0.392,0,0,1-.12-0.287V21.577h9.371Zm0.751,8.553a9.133,9.133,0,0,0-1.352-1.9A7.648,7.648,0,0,0,54.7,27.107l-0.856.65a5.841,5.841,0,0,1,1.4,1.277A11.98,11.98,0,0,1,56.4,30.795Zm-5.046-1.874a8.139,8.139,0,0,0-.488-0.8,5.478,5.478,0,0,0-.781-0.9,4.194,4.194,0,0,0-.984-0.7l-0.9.619a5.686,5.686,0,0,1,2.133,2.357Zm0.946,0.272a6.489,6.489,0,0,1-.345,1.217,0.726,0.726,0,0,1-.451.567H49.313a0.359,0.359,0,0,1-.263-0.113,0.381,0.381,0,0,1-.113-0.28V26.866H47.8V30.1a1.671,1.671,0,0,0,.113.567,1.081,1.081,0,0,0,.443.529,1.493,1.493,0,0,0,.841.219h3.3a1.554,1.554,0,0,0,.781-0.2q0.09-.076.308-0.295a1.748,1.748,0,0,0,.368-0.6,10.488,10.488,0,0,0,.36-1.307Zm-7.133-1.39a7.453,7.453,0,0,1-2.3,3.037L44.7,31.021a11.266,11.266,0,0,0,1.494-1.6,6.69,6.69,0,0,0,.878-1.738Zm23.57,1.043a8.957,8.957,0,0,1-.225,1.738,0.7,0.7,0,0,1-.21.332,0.5,0.5,0,0,1-.33.181H65.374a0.511,0.511,0,0,1-.368-0.136,0.477,0.477,0,0,1-.143-0.363V25.294h3.679v0.831h1.186V19.567H63.167v1.1h5.376v3.521H63.677V30.1a1.29,1.29,0,0,0,.481,1.028,1.589,1.589,0,0,0,1.051.408h3.829a1.488,1.488,0,0,0,1.216-.665,2.236,2.236,0,0,0,.33-0.68,7.658,7.658,0,0,0,.3-1.541ZM61.77,20.746a6.407,6.407,0,0,0-2.012-2.221l-0.826.665a6.9,6.9,0,0,1,1.892,2.282Zm1.562,9.324V28.815l-1.907,1.1V22.725H58.166v1.1h2.117v6.12a0.952,0.952,0,0,1-.391.725l0.676,0.967Zm22.026,1.148a11.573,11.573,0,0,1-2.981-1.859,7.4,7.4,0,0,1-1.945-2.811h4.775v-1.1H79.141q0.03-.272.053-0.68t0.03-1.088q0.007-.68.007-0.876h5.091V21.758h-3.6a19.6,19.6,0,0,0,1.442-2.72l-1.051-.468a22.06,22.06,0,0,1-.916,2.04,11.931,11.931,0,0,1-.706,1.148H78A11.158,11.158,0,0,0,75.867,18.6l-0.931.469a12.451,12.451,0,0,1,1.832,2.69H73.284V22.8h4.805q0,1.6-.015,2t-0.045.642H72.413v1.1h5.346a5.56,5.56,0,0,1-.826,1.436,7.522,7.522,0,0,1-1.464,1.436,10.613,10.613,0,0,1-1.727,1.08,11.66,11.66,0,0,1-1.614.657l0.781,0.907a7.308,7.308,0,0,0,1.847-.733,9.61,9.61,0,0,0,1.787-1.277,9.709,9.709,0,0,0,1.479-1.67,7.021,7.021,0,0,0,.939-1.836h0.21a11.137,11.137,0,0,0,1.442,2.7,7.773,7.773,0,0,0,1.742,1.662A11.536,11.536,0,0,0,84.5,32.064Zm15.059-10.472V19.6H91.992v1.148h3.769v9.686q0,0.635-.436.589-0.946-.091-1.772-0.106l0.36,1.224h1.922a1.077,1.077,0,0,0,.526-0.151,1.2,1.2,0,0,0,.458-0.506,1.5,1.5,0,0,0,.188-0.7V20.746h3.409Zm-12.6.982a5.106,5.106,0,0,1-.128,1.738,5.649,5.649,0,0,1-.683,1.677l1.2,0.408a3.822,3.822,0,0,0,.511-1.2,7.512,7.512,0,0,0,.255-1.428,6.892,6.892,0,0,0,.015-1Zm5.151,7.782a6.243,6.243,0,0,0-2.463-2.357q0.075-.8.075-2.871A6.45,6.45,0,0,0,92.533,22.5l-0.871-.892q-0.526.756-.713,0.982a1.969,1.969,0,0,1-.383.363V18.826H89.379V24.04q0,1.6-.09,2.781a7.709,7.709,0,0,1-.661,2.728,6.552,6.552,0,0,1-1.562,2.063L88.148,32.5a8.483,8.483,0,0,0,1.464-1.949,6.81,6.81,0,0,0,.743-2.116,2.942,2.942,0,0,1,.976.839,5.086,5.086,0,0,1,.616,1.02Zm12.974-1.194h1.187a3.128,3.128,0,0,1,.2-1.345,3.763,3.763,0,0,1,1.126-1.284,3.528,3.528,0,0,0,1.577-2.7c0-1.9-1.307-2.856-3.3-2.856-2.057,0-3.454,1.118-3.484,3.551h1.232c0.105-1.9,1.006-2.4,2.3-2.4,1.4,0,1.982.68,1.982,1.723a2.93,2.93,0,0,1-1.321,2.04,4.161,4.161,0,0,0-1.216,1.481A4.089,4.089,0,0,0,105.943,28.316Zm0.616,2.916a0.866,0.866,0,0,0,.856-0.892,0.879,0.879,0,0,0-1.757,0A0.866,0.866,0,0,0,106.559,31.233Z"/>
</svg>
