<svg id="Frame_2" data-name="Frame 2" xmlns="http://www.w3.org/2000/svg" width="320" height="50" viewBox="0 0 320 50">
  <defs>
    <style>
      .cls-1 {
        fill: #4b286d;
        fill-rule: evenodd;
      }
    </style>
  </defs>
  <path id="通过手机一键关闭_" data-name="通过手机一键关闭 " class="cls-1" d="M26.274,21.65H23.289l-0.315-.165A11.249,11.249,0,0,0,26,19.835V18.89h-8.31v1.035L23.9,19.97q-0.045.015-.63,0.3a7.032,7.032,0,0,1-.922.39q-0.338.105-.457,0.135a8.455,8.455,0,0,0-1.62-.675L19.419,21q0.885,0.27,1.89.645H18.1v7.665h1.08v-2.43h2.445v2.1H22.7v-2.1h2.43v1.23a0.287,0.287,0,0,1-.18.345,6.772,6.772,0,0,1-1.53.015L23.8,29.54q0.15-.015.675-0.008a4.514,4.514,0,0,0,.78-0.037,1.15,1.15,0,0,0,.42-0.15,1.28,1.28,0,0,0,.48-0.42,0.865,0.865,0,0,0,.12-0.435V21.65Zm-9.24-.51a8.643,8.643,0,0,0-1.057-1.582,8.305,8.305,0,0,0-1.057-1.073l-0.84.615a7.065,7.065,0,0,1,1.133,1.245,8.126,8.126,0,0,1,.848,1.44Zm10.155,8.79-3.195.18q-0.33.015-.87,0.023t-2.85-.082a4.673,4.673,0,0,1-1.793-.413,4.451,4.451,0,0,1-1.448-1.027V22.94H13.9v1.035h1.995v4.65q-1.845,1.53-2.52,2.01l0.855,0.9q0.165-.135.96-0.848t1.3-1.088a5.283,5.283,0,0,0,1.163.99,4.092,4.092,0,0,0,1.26.427,9.354,9.354,0,0,0,1.718.143h6.105Zm-2.055-6.21H22.7V22.685h2.43V23.72Zm0,2.13H22.7V24.815h2.43V25.85Zm-3.51-2.13H19.179V22.685h2.445V23.72Zm0,2.13H19.179V24.815h2.445V25.85Zm19.949-3.765V21.05H39.758V18.335h-1.14V21.05H32.933v1.035h5.685v6.4a0.342,0.342,0,0,1-.15.165,11.356,11.356,0,0,1-1.53-.09l0.405,1.185H38.16a3.206,3.206,0,0,0,.427-0.03,3.548,3.548,0,0,0,.45-0.09,1.168,1.168,0,0,0,.48-0.442,1.823,1.823,0,0,0,.24-0.578V22.085h1.815Zm-9.15-.855a9.9,9.9,0,0,0-2.37-2.655l-0.885.6a10.766,10.766,0,0,1,2.34,2.775Zm5.19,5.13a10.1,10.1,0,0,0-1.3-1.605,12.24,12.24,0,0,0-1.582-1.35l-0.87.75a11.418,11.418,0,0,1,2.865,2.91Zm4.245,3.525-1.53.105-2.31.06-2.64-.06a3.644,3.644,0,0,1-1.245-.247,3.8,3.8,0,0,1-1.095-.652,3.707,3.707,0,0,1-.72-0.765V23.15H28.7v1.1h2.55v4.23a34.145,34.145,0,0,1-2.85,2.16l0.75,0.87q0.51-.375,1.553-1.223t1.087-.877a4.559,4.559,0,0,0,1.582,1.185,4.879,4.879,0,0,0,1.973.435l6.09,0.045ZM55.3,26.975V25.88h-5.52V23.6h4.29V22.5h-4.29v-2.22a20.815,20.815,0,0,0,4.86-1.185l-0.63-.855a22.653,22.653,0,0,1-4.995,1.035,43.5,43.5,0,0,1-5.715.27l0.675,1.11q3.45-.09,4.665-0.24V22.5H44.129V23.6h4.515v2.28h-5.76v1.095h5.76v3.15a0.481,0.481,0,0,1-.525.525q-0.39.015-1.89-.12l0.42,1.23h2.07a1,1,0,0,0,1.065-1.2V26.975H55.3Zm14.442,0.78q-0.015.09-.1,0.637t-0.165.9a2.265,2.265,0,0,1-.2.57A0.341,0.341,0,0,1,69,30.08h-0.48q-0.27,0-.27-0.2V19.01h-4.62v7.74a4.355,4.355,0,0,1-.6,2.22,8.723,8.723,0,0,1-1.68,2.025l1.02,0.84a8.071,8.071,0,0,0,1.763-2.347,5.825,5.825,0,0,0,.637-2.588V20.09h2.34V30.245a0.93,0.93,0,0,0,.128.465,0.781,0.781,0,0,0,.412.337,1.542,1.542,0,0,0,.57.113h1.02a1.087,1.087,0,0,0,.645-0.2,1.02,1.02,0,0,0,.39-0.517,17.391,17.391,0,0,0,.525-1.98ZM63.011,26.1a6.537,6.537,0,0,0-1.665-2.64l-0.465.285V22.265h2.07v-1.08h-2.07v-2.85H59.7v2.85H57.431v1.08h2.16a10.982,10.982,0,0,1-.622,1.957A9.738,9.738,0,0,1,58,26.03a9.194,9.194,0,0,1-1.02,1.26l0.885,0.765a9.258,9.258,0,0,0,1.11-1.372,9.655,9.655,0,0,0,.72-1.253V31.7h1.185l0.045-7.02a6.111,6.111,0,0,1,.63,1.065,5.987,5.987,0,0,1,.375,1.035ZM83.2,25.4V24.155H71.574V25.4H83.2Zm14.98-2.8V21.56H97.415V19.73H95.27V18.38H94.19v1.35H92.63v1.035h1.56V21.56H92.015v1.035H94.19v0.87H92.735V24.5H94.19v0.885H92.525V26.42H94.19v0.93H92.255v1.035H94.19v1.38h1.08v-1.38H98V27.35H95.27V26.42h2.37V25.385H95.27V24.5h2.145V22.595H98.18Zm0.375,7.365a12.342,12.342,0,0,1-1.62.12h-2.91a3.386,3.386,0,0,1-1.59-.307,2.135,2.135,0,0,1-.9-0.983,8.661,8.661,0,0,0,.54-1.883,25.672,25.672,0,0,0,.3-3.367h-1.56a14.407,14.407,0,0,0,.9-1.657q0.48-1.013.615-1.283V19.565H89.36v0.81H87.71a8.106,8.106,0,0,0,.21-1.71l-1.08-.315a13.115,13.115,0,0,1-.39,2.228,10.631,10.631,0,0,1-.713,1.988,6.947,6.947,0,0,1-.847,1.365l0.93,0.795,0.48-.78h0.51v1.38H85.535V26.36H86.81V29.4a0.779,0.779,0,0,1-.2.54,1.208,1.208,0,0,1-.488.33l0.63,0.945L89.4,29.285v-1.17l-1.515,1.02V26.36h1.44V25.325H87.89v-1.38h1.245V22.91H86.87q0.12-.24.54-1.5h2V20.6h1.71a17.122,17.122,0,0,1-1.59,2.955v1.02H91.31a13.964,13.964,0,0,1-.255,2.25l-0.165.705a17.872,17.872,0,0,1-.375-2.22l-0.96.465q0.285,1.68.443,2.205a3.883,3.883,0,0,0,.277.735,6.084,6.084,0,0,1-.93,1.2,7.272,7.272,0,0,1-1.2,1l0.72,0.825a6.437,6.437,0,0,0,.847-0.652,6.737,6.737,0,0,0,.8-0.818,2.525,2.525,0,0,0,.375-0.57,2.1,2.1,0,0,0,1.057,1.043,4.417,4.417,0,0,0,1.928.367h4.08Zm-2.22-8.4H95.27V20.765h1.065V21.56Zm0,1.905H95.27v-0.87h1.065v0.87Zm16.632,7.365a11.576,11.576,0,0,1-2.978-1.845,7.342,7.342,0,0,1-1.942-2.79h4.77V25.1h-6.06q0.03-.27.052-0.675t0.03-1.08q0.007-.675.008-0.87h5.085V21.44h-3.6a19.409,19.409,0,0,0,1.44-2.7l-1.05-.465a22.03,22.03,0,0,1-.915,2.025,12.011,12.011,0,0,1-.7,1.14h-1.485a11.071,11.071,0,0,0-2.13-3.135l-0.93.465a12.381,12.381,0,0,1,1.83,2.67h-3.48v1.035h4.8q0,1.59-.015,1.988t-0.045.637h-5.61v1.1h5.34a5.5,5.5,0,0,1-.825,1.425,7.491,7.491,0,0,1-1.463,1.425,10.6,10.6,0,0,1-1.725,1.073,11.662,11.662,0,0,1-1.612.652l0.78,0.9a7.322,7.322,0,0,0,1.845-.727,9.8,9.8,0,0,0,3.262-2.925,6.977,6.977,0,0,0,.938-1.822h0.21a11.032,11.032,0,0,0,1.44,2.677,7.724,7.724,0,0,0,1.74,1.65,11.54,11.54,0,0,0,2.145,1.147Zm6.421-10.11a8.659,8.659,0,0,0-.555-0.727,8.835,8.835,0,0,0-.8-0.832,9.524,9.524,0,0,0-.878-0.72l-0.78.675a5.43,5.43,0,0,1,1.185,1.043,9.016,9.016,0,0,1,.855,1.238Zm6.96-1.275h-6.66V20.54h5.52v9.435a0.379,0.379,0,0,1-.12.338,0.4,0.4,0,0,1-.3.1l-1.26-.09,0.345,1.14h0.51q0.36,0,.63-0.023a2.369,2.369,0,0,0,.51-0.1,1.116,1.116,0,0,0,.578-0.4,1.081,1.081,0,0,0,.247-0.7v-10.8Zm-1.56,4.47V22.82h-2.565V20.855h-1.14V22.82h-4.47v1.095h3.615a7.122,7.122,0,0,1-1.56,2.378,9.774,9.774,0,0,1-2.385,1.852l0.81,0.84a14.869,14.869,0,0,0,2.1-1.665,7.431,7.431,0,0,0,1.178-1.492,11.493,11.493,0,0,0,.712-1.418v4.41a0.248,0.248,0,0,1-.105.157,0.431,0.431,0,0,1-.21.082l-1.38-.12,0.375,1.125h1.56a0.816,0.816,0,0,0,.63-0.308,1.149,1.149,0,0,0,.27-0.788V23.915h2.565ZM116.1,31.58V20.255h-1.065V31.58H116.1Z"/>
</svg>
