<svg id="Frame_3" data-name="Frame 3" xmlns="http://www.w3.org/2000/svg" width="320" height="50" viewBox="0 0 320 50">
  <defs>
    <style>
      .cls-1 {
        fill: #4b286d;
        fill-rule: evenodd;
      }
    </style>
  </defs>
  <path id="使用TELUS_智能插座及灯泡_" data-name="使用TELUS 智能插座及灯泡 " class="cls-1" d="M27.684,21.43A15.169,15.169,0,0,1,21.909,19.8a5.767,5.767,0,0,0,.488-1.058,10.114,10.114,0,0,0,.352-1.687h3.465V12.91h-3.42V11.89l4.05,0.03V10.78h-4.05v-1.7H21.609v1.7h-3.93l0.39-1.26-1.05-.39q-0.645,2.07-1.2,3.39a13.87,13.87,0,0,1-2.16,3.57l0.84,0.75q0.96-1.23,1.275-1.695V22.72h1.08V13.03l0.45-1.14,4.305,0.03v0.99h-3.39V17.1l3.33-.03a5.813,5.813,0,0,1-.24,1.245,4.443,4.443,0,0,1-.375.795,9.208,9.208,0,0,1-1.68-1.815l-0.975.615a16.57,16.57,0,0,0,1.905,2.1,7.789,7.789,0,0,1-3.015,1.68l0.885,1A12.9,12.9,0,0,0,20,21.625a8.605,8.605,0,0,0,1.177-.93,9.483,9.483,0,0,0,2.745,1.192,14.314,14.314,0,0,0,3.075.623Zm-2.61-5.475h-2.28v-1.95h2.28v1.95Zm-3.465,0H19.3v-1.9h2.31v1.9ZM40.95,9.805H30.96V16.48a9.881,9.881,0,0,1-.165,1.785,7.119,7.119,0,0,1-.5,1.635A9.544,9.544,0,0,1,28.905,22l0.96,0.72a9.08,9.08,0,0,0,1.6-2.49,10.554,10.554,0,0,0,.585-2.64h3.3v3.585H36.5V17.59h3.27v3.225a0.256,0.256,0,0,1-.225.315,4.1,4.1,0,0,1-.562.022q-0.292-.007-1.028-0.037l0.36,1.17,1.71-.03a0.972,0.972,0,0,0,.413-0.187A1.219,1.219,0,0,0,40.8,21.6a1.3,1.3,0,0,0,.15-0.562V9.805ZM39.765,13.09H36.5V10.9h3.27v2.19Zm0,3.4H36.5v-2.31h3.27V16.5Zm-4.41-3.4H32.1V10.9h3.255v2.19Zm0,3.4H32.1v-2.31h3.255V16.5Zm15.933-5.55H42.723v1.14h3.63v9.54h1.3v-9.54h3.63v-1.14Zm8.565,1.14v-1.14H52.428v10.68h7.365v-1.14h-6.1V16.631h5.565v-1.14H53.688v-3.4h6.165Zm2.469,8.4v-9.54h-1.26v10.68h6.63v-1.14h-5.37ZM72.6,21.85c2.67,0,4.2-1.515,4.2-4.185v-6.72h-1.26v6.72c0,2.1-1.08,3.045-2.94,3.045s-2.94-.945-2.94-3.045v-6.72H68.4v6.72C68.4,20.335,69.925,21.85,72.6,21.85Zm9.932,0.015c2.565,0,4-1.245,4-3.135,0-1.545-.87-2.5-3.33-3.045l-0.945-.21c-2.01-.45-2.5-0.96-2.5-1.98,0-1,.8-1.65,2.34-1.65,2.13,0,2.775.825,2.88,2.2h1.29c-0.045-1.74-1.02-3.345-4.17-3.345-2.22,0-3.645,1.08-3.645,2.79,0,1.95,1.425,2.685,3.24,3.09l0.945,0.21c1.89,0.42,2.595.915,2.595,1.935,0,1.32-.99,1.995-2.7,1.995-1.74,0-3.1-.645-3.135-2.625h-1.3C78.117,20.77,79.977,21.865,82.527,21.865ZM26.364,33.13V28.165H21.4V33.13h4.965Zm-1.41,7.455V34.27l-8.37-.03a3.857,3.857,0,0,0,1.245-1.02,5.288,5.288,0,0,1,1.125.165,12.305,12.305,0,0,1,1.785.675l0.6-.915a5.7,5.7,0,0,0-1.177-.54,10.672,10.672,0,0,0-1.793-.39l0.12-.27h2.49V30.85H18.654a5.7,5.7,0,0,0,.075-1.32h1.755V28.435H17.019a3.06,3.06,0,0,0,.255-0.825l-1.1-.42a6.038,6.038,0,0,1-.555,1.785,4.029,4.029,0,0,1-1.11,1.335l1.05,0.465a5.757,5.757,0,0,0,.66-0.608,3.268,3.268,0,0,0,.48-0.637h0.9a5.021,5.021,0,0,1-.075,1.32h-2.94v1.095h2.655a2.387,2.387,0,0,1-.54.81,3.6,3.6,0,0,1-1.08.727,6.2,6.2,0,0,1-1.485.472l0.54,1.125a6.9,6.9,0,0,0,1.072-.345,4.21,4.21,0,0,0,.7-0.345v6.27h1.14V39.7h6.225v0.885h1.14Zm0.27-8.55H22.539V29.26h2.685v2.775Zm-1.41,4.41H17.589v-1.08h6.225v1.08Zm0,2.16H17.589V37.54h6.225v1.065Zm16.345-7.95q-0.33,2.01-.7,2.01h-1.98a1.143,1.143,0,0,1-.532-0.12,0.35,0.35,0,0,1-.233-0.3V31.15A16.223,16.223,0,0,0,39.3,30.123a9.24,9.24,0,0,0,1.657-1.088l-0.69-.855a9.529,9.529,0,0,1-1.77,1.117,10.394,10.394,0,0,1-1.785.728v-2.58H35.57v5.19a1.186,1.186,0,0,0,.443.78,1.424,1.424,0,0,0,.967.345h2.67a0.942,0.942,0,0,0,.66-0.307,1.832,1.832,0,0,0,.45-0.667,16.244,16.244,0,0,0,.5-1.71Zm-4.815.855a7.231,7.231,0,0,0-2.01-2.85l-1.005.555a9.532,9.532,0,0,1,.93.99l-3.195.27a10.2,10.2,0,0,0,2.16-2.985l-1.035-.525a22.017,22.017,0,0,1-1.568,2.4,9.417,9.417,0,0,1-.832.9,5.334,5.334,0,0,1-.585.54L28.97,31.81q0.27-.03,1.568-0.2t2.1-.255q0.8-.082,1.357-0.113l0.27,0.72Zm4.995,5.67a7.3,7.3,0,0,1-.345,1.5,0.934,0.934,0,0,1-.21.33,0.461,0.461,0,0,1-.255.15H37.22q-0.51,0-.51-0.375v-1.4a12.5,12.5,0,0,0,2.28-.7A9.171,9.171,0,0,0,41.1,35.485l-0.765-.8a9.872,9.872,0,0,1-3.63,1.575V34.18H35.57v4.8a1.136,1.136,0,0,0,.24.675,1.336,1.336,0,0,0,.563.465,1.519,1.519,0,0,0,.578.135h2.7a1.258,1.258,0,0,0,.57-0.135,1.023,1.023,0,0,0,.42-0.375,4.083,4.083,0,0,0,.428-0.877,10.192,10.192,0,0,0,.337-1.282Zm-5.865-4.8H29.06v8.07H30.2V37.465h3.135v1.41a0.449,0.449,0,0,1-.075.24,0.259,0.259,0,0,1-.18.135,3.8,3.8,0,0,1-.96,0q-0.585-.06-0.615-0.06l0.42,1.155a10.365,10.365,0,0,0,1.62-.045,1.009,1.009,0,0,0,.637-0.4,1.306,1.306,0,0,0,.293-0.863V32.38Zm-1.14,1.995H30.2v-0.9h3.135v0.9Zm0,1.995H30.2v-0.9h3.135v0.9Zm22.842-5.01V30.265H52.112V29.02a13.871,13.871,0,0,0,3.555-1.05l-0.78-.885a11.645,11.645,0,0,1-2.835.855,31.956,31.956,0,0,1-5.01.36l0.6,1.155q1.365-.06,3.33-0.255v1.065H47.327V30.19h-1.14V27.325h-1.14V30.19H43.052v1.095h1.995v3.03q-1.425.66-2.25,0.99l0.78,0.855,1.47-.69v3.705l-0.06.21a0.62,0.62,0,0,1-.15.128,1.177,1.177,0,0,1-.6.052,3.169,3.169,0,0,0-.72.015l0.465,1.1q0.165-.015.638-0.015a2.633,2.633,0,0,0,.72-0.075,1.065,1.065,0,0,0,.413-0.225,1.294,1.294,0,0,0,.322-0.48,1.542,1.542,0,0,0,.112-0.57V34.945l1.29-.585V33.145q-1.11.615-1.29,0.69v-2.55h1.14V31.36h3.645v0.975l-0.69-.81a3.817,3.817,0,0,1-.862.832,5.256,5.256,0,0,1-1.538.682v7.65h1.14V39.6h5.1V40.63h1.14V32.365h-2.85V33.46h1.71v1.8h-1.41v1.1h1.41V38.5h-2.01V31.36h4.065Zm-5.2,7.14h-1.95V36.355h1.455v-1.1H49.022V33.775a6.527,6.527,0,0,0,1.3-.7,2.718,2.718,0,0,0,.653-0.667V38.5Zm17.244-6.3a16.537,16.537,0,0,0,.15-1.7l-1.095-.165a7.432,7.432,0,0,1-.345,2.52,5.837,5.837,0,0,1-1.29,2.115v-4.92l-1.14-.03V34.27q-0.51-.555-0.915-0.915a10.183,10.183,0,0,0-.87-0.69,9.56,9.56,0,0,0,.255-2.07l-1.095-.2a5.63,5.63,0,0,1-.218,2,4.508,4.508,0,0,1-.75,1.477A7.213,7.213,0,0,1,60,34.84V29.7H70.271V28.6h-4.95a9.435,9.435,0,0,0-.66-0.893,6.579,6.579,0,0,0-.735-0.772l-1.155.63a9.284,9.284,0,0,1,.758.593,2.91,2.91,0,0,1,.442.442H58.856v2.34q0,0.495.015,1.59T58.863,34.5q-0.023.877-.113,1.867a6.21,6.21,0,0,1-.667,2.153q-0.307.593-.8,1.4l0.99,0.69a13.106,13.106,0,0,0,1.3-2.625,10.4,10.4,0,0,0,.45-2.9l0.855,0.48a4.78,4.78,0,0,0,.885-0.84,4.828,4.828,0,0,0,.6-0.99,8.763,8.763,0,0,1,1.47,1.5l0.66-.54V35.98h-3.69v1.095H64.5V38.62h-4.53v1.1H70.421l0.03-1.1H65.636V37.075h3.945V35.98H65.636V35.14l0.885,0.525a5.716,5.716,0,0,0,.862-1.065,8.625,8.625,0,0,0,.593-1.215,7.156,7.156,0,0,1,.757.788q0.368,0.443.878,1.178a3.02,3.02,0,0,0,.255-0.18q0.135-.1.338-0.285t0.277-.24A9.746,9.746,0,0,0,68.216,32.2h0ZM85.1,39.535a12.7,12.7,0,0,1-4.44-2.1,12.648,12.648,0,0,0,1.905-2.52,7.888,7.888,0,0,0,.945-3.1h-2.97q1.215-1.6,1.95-2.7V28.12H72.93v1.14h2.01q0.045,1.335-.06,3.24-0.09,1.68-.2,2.46T74.46,36.205a7.387,7.387,0,0,1-2.31,3.75q0.03,0.015.5,0.3t0.712,0.405a11.632,11.632,0,0,0,1.905-2.925,14.741,14.741,0,0,0,.855-4.695,13.6,13.6,0,0,0,1.155,2.407,11.456,11.456,0,0,0,1.6,2.033,11.516,11.516,0,0,1-4.29,2.13l0.735,1.005a11.151,11.151,0,0,0,4.425-2.355,13.648,13.648,0,0,0,4.635,2.355Zm-2.97-6.63a7.921,7.921,0,0,1-.937,1.987A10.212,10.212,0,0,1,79.8,36.67a13.713,13.713,0,0,1-1.388-1.62,9.1,9.1,0,0,1-.668-1.17,24.517,24.517,0,0,1-1.05-2.43q-0.3-.87-0.48-1.5V29.26H80.91q-0.69,1.035-1.98,2.655v0.99h3.2Zm17.75-3.585V28.18H91.46v1.14h3.765v9.615q0,0.63-.435.585-0.945-.09-1.77-0.105l0.36,1.215H95.3a1.081,1.081,0,0,0,.525-0.15,1.192,1.192,0,0,0,.457-0.5,1.478,1.478,0,0,0,.188-0.7V29.32h3.405ZM87.29,30.3a5.04,5.04,0,0,1-.127,1.725,5.593,5.593,0,0,1-.683,1.665l1.2,0.405a3.786,3.786,0,0,0,.51-1.193,7.419,7.419,0,0,0,.255-1.418,6.821,6.821,0,0,0,.015-0.99Zm5.145,7.725a6.218,6.218,0,0,0-2.46-2.34q0.075-.795.075-2.85A6.428,6.428,0,0,0,92,31.06l-0.87-.885q-0.525.75-.713,0.975a1.966,1.966,0,0,1-.382.36V27.415H88.85V32.59q0,1.59-.09,2.76a7.613,7.613,0,0,1-.66,2.707,6.51,6.51,0,0,1-1.56,2.048l1.08,0.885a8.43,8.43,0,0,0,1.463-1.935,6.735,6.735,0,0,0,.743-2.1,2.933,2.933,0,0,1,.975.833,5.047,5.047,0,0,1,.615,1.013Zm21.669-1c-0.246-.095-0.423-0.167-0.533-0.218l-0.135.825q-0.03.105-.12,0.472a1.369,1.369,0,0,1-.232.54,0.632,0.632,0,0,1-.383.218h-4.725l-0.375-.045a0.758,0.758,0,0,1-.315-0.2,0.523,0.523,0,0,1-.15-0.323V35.98h3.36V31.525h-3.8a11.566,11.566,0,0,0,.57-1.515h4.77q0,0.105-.052,1.53t-0.128,2.67a19.66,19.66,0,0,1-.21,2.04,0.339,0.339,0,0,1-.27.165,4.233,4.233,0,0,1-.682-0.082c-0.306-.055-0.528-0.092-0.668-0.113l0.285,1.125a4.277,4.277,0,0,0,1.77.045,1.346,1.346,0,0,0,.78-1.065q0.255-2.445.375-7.455h-5.655a9.755,9.755,0,0,0,.21-1.725l-1.08-.27a8.928,8.928,0,0,1-2.7,6.2l0.945,0.81q0.87-.915,1.035-1.11v5.415l0.075,0.54a1.626,1.626,0,0,0,.578.8,1.735,1.735,0,0,0,.907.375h5.07a1.73,1.73,0,0,0,.8-0.15,1.666,1.666,0,0,0,.472-0.375,6.063,6.063,0,0,0,.765-2.1A5.3,5.3,0,0,0,114.1,37.023Zm-8.588-7.448a6.788,6.788,0,0,0-.742-0.892,6.677,6.677,0,0,0-.99-0.84,4.266,4.266,0,0,0-.953-0.518l-0.84.705a6.368,6.368,0,0,1,1.425.96,6.2,6.2,0,0,1,1.185,1.32Zm-1.185,3.06a5.9,5.9,0,0,0-.667-0.892,5.09,5.09,0,0,0-.885-0.78,9.458,9.458,0,0,0-1.148-.668l-0.945.69a9.363,9.363,0,0,1,1.043.57,4.5,4.5,0,0,1,.862.742,7.221,7.221,0,0,1,.765,1ZM103.6,34.24a9.487,9.487,0,0,1-.48,1.845,10.506,10.506,0,0,1-.862,1.807A7.2,7.2,0,0,1,101,39.445l1.065,0.63q0.12-.165.54-0.72t0.713-1.005a7.523,7.523,0,0,0,.532-0.975,9.69,9.69,0,0,0,.443-1.185,10.113,10.113,0,0,0,.322-1.455q-0.39-.165-1.02-0.495h0Zm5.76,0.645h-2.22V32.62h2.22v2.265Z"/>
</svg>
