<svg id="Frame_4" data-name="Frame 4" xmlns="http://www.w3.org/2000/svg" width="320" height="50" viewBox="0 0 320 50">
  <defs>
    <style>
      .cls-1 {
        fill: #4b286d;
        fill-rule: evenodd;
      }
    </style>
  </defs>
  <path id="家居节能更有效_" data-name="家居节能更有效 " class="cls-1" d="M26.454,22.645V19.9h-5.07a5.218,5.218,0,0,0-.9-1.155,5.338,5.338,0,0,0-1.005-.8l-0.945.705a11.317,11.317,0,0,1,1.193.945,2.082,2.082,0,0,1,.232.3H14.544v2.805h1.14V21h9.63v1.65h1.14Zm0.72,6.915a4.169,4.169,0,0,1-1.3-.81,7.039,7.039,0,0,1-1.148-1.335,5.914,5.914,0,0,1-.765-1.56,10.954,10.954,0,0,0,1.665-1.5l-0.87-.765a6.506,6.506,0,0,1-2.775,2.16,3.958,3.958,0,0,0-.608-0.953,3.539,3.539,0,0,0-.8-0.727q0.045-.03.352-0.2t0.578-.352a4.892,4.892,0,0,0,.51-0.39h2.76V22.03h-8.46v1.095l3.765,0.015a15.49,15.49,0,0,1-5.46,1.7l0.78,0.99a13.085,13.085,0,0,0,4.065-1.185,4.528,4.528,0,0,1,.75.51,9.884,9.884,0,0,1-1.395.825,10.576,10.576,0,0,1-1.987.727,21.551,21.551,0,0,1-2.5.5l0.8,0.975a11.31,11.31,0,0,0,3.037-.735,13.933,13.933,0,0,0,2.663-1.44,6.2,6.2,0,0,1,.405.87,9.916,9.916,0,0,1-3.15,1.823,20.707,20.707,0,0,1-4.05.982l0.825,1.035a24.214,24.214,0,0,0,2.5-.607,15.517,15.517,0,0,0,2.28-.878,8.293,8.293,0,0,0,1.837-1.185,12.516,12.516,0,0,1-.06,2.01,0.655,0.655,0,0,1-.165.285,0.824,0.824,0,0,1-.27.21,5.022,5.022,0,0,1-1.095-.1,12.547,12.547,0,0,1-1.425-.383l0.465,1.335a5.835,5.835,0,0,0,2.625.105,1.3,1.3,0,0,0,.668-0.518,2.9,2.9,0,0,0,.352-1.3,8.615,8.615,0,0,0-.008-1.477,11.146,11.146,0,0,0-.217-1.477l0.72-.3a8.985,8.985,0,0,0,.615,1.343,7.341,7.341,0,0,0,1.148,1.537,4.667,4.667,0,0,0,1.6,1.125ZM41.42,25.21V24.115H36.665V22.57h-1.14v1.545H31.1V22.45h9.57V18.9H29.96v6.36a18.912,18.912,0,0,1-.09,2.242,7.632,7.632,0,0,1-.27,1.23,6.707,6.707,0,0,1-.5,1.177,6.367,6.367,0,0,1-.788,1.14L29.3,31.72a7.17,7.17,0,0,0,1.267-2.152,9.187,9.187,0,0,0,.5-2.64q0.082-1.508.1-1.718h4.365v1.605H31.94V31.6h1.14V30.715h6.135V31.6h1.14V26.815h-3.69V25.21H41.42Zm-1.89-3.855H31.1V19.99h8.43v1.365ZM39.215,29.62H33.08V27.91h6.135v1.71ZM55.53,20.95V19.87H51.84V18.16H50.7v1.71H47.565V18.16h-1.14v1.71H42.81l-0.03,1.08h3.645v1.74h1.14V20.95H50.7v1.74h1.14V20.95h3.69ZM43.635,22.96v1.08H47.37v7.44h1.14V24.04H52.7q-0.03.3-.075,1.327t-0.12,1.59a9.049,9.049,0,0,1-.18.983,0.365,0.365,0,0,1-.285.21,12.182,12.182,0,0,1-1.62-.42l0.315,1.245a3.557,3.557,0,0,0,2.13.075,1.372,1.372,0,0,0,.42-0.427,1.447,1.447,0,0,0,.225-0.548q0.12-.87.218-2.407T53.85,22.96H43.635Zm25.381-1.3q-0.33,2.01-.7,2.01h-1.98a1.143,1.143,0,0,1-.532-0.12,0.35,0.35,0,0,1-.233-0.3V22.15a16.218,16.218,0,0,0,2.588-1.027,9.238,9.238,0,0,0,1.657-1.088l-0.69-.855a9.529,9.529,0,0,1-1.77,1.117,10.4,10.4,0,0,1-1.785.728v-2.58h-1.14v5.19a1.186,1.186,0,0,0,.443.78,1.424,1.424,0,0,0,.968.345h2.67a0.942,0.942,0,0,0,.66-0.308,1.834,1.834,0,0,0,.45-0.668,16.244,16.244,0,0,0,.495-1.71ZM64.2,22.51a7.231,7.231,0,0,0-2.01-2.85l-1.005.555a9.532,9.532,0,0,1,.93.99l-3.195.27a10.2,10.2,0,0,0,2.16-2.985l-1.035-.525a22.006,22.006,0,0,1-1.567,2.4,9.417,9.417,0,0,1-.833.9,5.334,5.334,0,0,1-.585.54l0.765,1.005q0.27-.03,1.568-0.2t2.1-.255q0.8-.082,1.357-0.113l0.27,0.72Zm5,5.67a7.3,7.3,0,0,1-.345,1.5,0.934,0.934,0,0,1-.21.33,0.461,0.461,0,0,1-.255.15h-2.31q-0.51,0-.51-0.375V28.39a12.5,12.5,0,0,0,2.28-.7,9.171,9.171,0,0,0,2.115-1.208L69.2,25.69a9.872,9.872,0,0,1-3.63,1.575V25.18h-1.14v4.8a1.136,1.136,0,0,0,.24.675,1.336,1.336,0,0,0,.563.465,1.519,1.519,0,0,0,.578.135h2.7a1.258,1.258,0,0,0,.57-0.135,1.023,1.023,0,0,0,.42-0.375,4.083,4.083,0,0,0,.427-0.878,10.192,10.192,0,0,0,.338-1.282Zm-5.865-4.8H57.917v8.07h1.14V28.465h3.135v1.41a0.449,0.449,0,0,1-.075.24,0.259,0.259,0,0,1-.18.135,3.8,3.8,0,0,1-.96,0q-0.585-.06-0.615-0.06l0.42,1.155A10.365,10.365,0,0,0,62.4,31.3a1.009,1.009,0,0,0,.637-0.4,1.306,1.306,0,0,0,.293-0.862V23.38Zm-1.14,1.995H59.057v-0.9h3.135v0.9Zm0,2H59.057v-0.9h3.135v0.9ZM85.28,30.415q-1.4-.03-2.933-0.2a25.408,25.408,0,0,1-2.707-.435,7.21,7.21,0,0,1-1.83-.622,4.475,4.475,0,0,0,.63-1.133,5.7,5.7,0,0,0,.345-1.328h4.38V21.13H79.01V20.065H84.8V18.97H72v1.095H77.87V21.13h-4.3V26.7h4.08a4.779,4.779,0,0,1-.308.99,4.119,4.119,0,0,1-.517.9,17.709,17.709,0,0,1-2.19-1.71l-0.87.585a10.226,10.226,0,0,0,2.175,1.92,13.005,13.005,0,0,1-2.258.848,20.322,20.322,0,0,1-2.108.472l0.675,1.005A10.541,10.541,0,0,0,76.55,30.28l0.465-.315a14.006,14.006,0,0,0,2.865,1,27.258,27.258,0,0,0,4.7.607Zm-3.2-7.065H79.01V22.225h3.075V23.35Zm0,2.25H78.9l0.075-1.155h3.105V25.6ZM77.87,23.35H74.7V22.225H77.87V23.35Zm-0.015,1.095L77.795,25.6H74.7V24.445h3.15Zm21.468-3.27V20.08H91.688q0.36-1.23.5-1.86l-1.155-.255a20.8,20.8,0,0,1-.585,2.115h-3.57v1.095h3.15A9.98,9.98,0,0,1,88.485,23.9a19.611,19.611,0,0,1-2.528,2.677l1.05,0.69q1.365-1.395,1.823-1.92a9.955,9.955,0,0,0,.712-0.9V31.6h1.185V28.435h5.64V29.92a0.245,0.245,0,0,1-.075.18,0.264,0.264,0,0,1-.195.075,11.092,11.092,0,0,1-1.89-.075q0.135,0.345.525,1.155H95.6a5.984,5.984,0,0,0,1.132-.075,1.3,1.3,0,0,0,.532-0.375,1.012,1.012,0,0,0,.247-0.57V22.57H90.713q0.195-.405.54-1.395h8.07ZM96.368,24.88h-5.64V23.665h5.64V24.88Zm0,2.46h-5.64V25.975h5.64V27.34Zm17.86,3.375a8.276,8.276,0,0,1-2.895-2.865,11.248,11.248,0,0,0,1.118-2.678,13.593,13.593,0,0,0,.487-2.992h0.9V21.085h-3.855a19.594,19.594,0,0,0,.135-2.79,3.522,3.522,0,0,0-.6-0.12q-0.36-.045-0.45-0.06,0,1.005-.105,2.22a10.163,10.163,0,0,1-1.995,5.415l1,0.54a11.778,11.778,0,0,0,.975-1.605,12.647,12.647,0,0,0,1.11,3.135,10.777,10.777,0,0,1-3.12,2.955l0.885,0.795a13.691,13.691,0,0,0,1.605-1.335,12.16,12.16,0,0,0,1.26-1.38,10.136,10.136,0,0,0,1.2,1.44,11.92,11.92,0,0,0,1.47,1.29Zm-6.465-9.18V20.44l-2.67-.03,0.42-.285a8.018,8.018,0,0,0-.915-1.14,6.879,6.879,0,0,0-1.08-.945l-0.93.645a6.921,6.921,0,0,1,1.058.862,4.366,4.366,0,0,1,.712.893h-3.135v1.095h6.54Zm0.1,2.67a6.365,6.365,0,0,0-1.98-2.475l-0.96.585a5.213,5.213,0,0,1,1.125,1.027,6.464,6.464,0,0,1,.8,1.3Zm-4.785-2.43a8.7,8.7,0,0,1-.562,1.215,5.48,5.48,0,0,1-.728,1,7.437,7.437,0,0,1-.855.8l0.96,0.78A8.972,8.972,0,0,0,103.2,24a9.294,9.294,0,0,0,.87-1.852Zm4.59,7.9a17.4,17.4,0,0,0-1.95-2.58,6.245,6.245,0,0,0,.42-1.058,9.485,9.485,0,0,0,.3-1.177l-1-.33a11.161,11.161,0,0,1-.6,1.785,8.232,8.232,0,0,0-.765-0.555,8.111,8.111,0,0,0-.915-0.525l-0.84.69a10.067,10.067,0,0,1,1.1.683,7.13,7.13,0,0,1,.922.758,8.328,8.328,0,0,1-3.42,3.27l0.7,0.96A9.869,9.869,0,0,0,105.2,28.2a11.556,11.556,0,0,1,.8,1.058,7.46,7.46,0,0,1,.652,1.148Zm4.08-7.5a11.43,11.43,0,0,1-.18,1.8,10.212,10.212,0,0,1-.4,1.59,6.935,6.935,0,0,1-.443,1.035,8.822,8.822,0,0,1-.585-1.665q-0.315-1.155-.495-2.1l0.15-.66h1.95Z"/>
</svg>
