<svg id="Frame_5" data-name="Frame 5" xmlns="http://www.w3.org/2000/svg" width="320" height="50" viewBox="0 0 320 50">
  <defs>
    <style>
      .cls-1 {
        fill: #4b286d;
        fill-rule: evenodd;
      }
    </style>
  </defs>
  <path id="智能家居安防_让家庭生活更轻松_" data-name="智能家居安防 让家庭生活更轻松 " class="cls-1" d="M26.754,16.345V10.12H21.129v6.24h1.935V15.805h1.77v0.54h1.92Zm-1.74,6.3V16.57H19.989a5.9,5.9,0,0,1,1.08-1.095,7.706,7.706,0,0,1-1.74-1.26h1.605v-1.74h-2.16v-0.5h1.98V10.12h-3.51a3.781,3.781,0,0,0,.345-0.645l-1.95-.225a8.491,8.491,0,0,1-1.875,2.46,9.632,9.632,0,0,1,1.155.765h-0.99v1.74h2.265a5.951,5.951,0,0,1-2.415,2.055A7.916,7.916,0,0,1,15.2,17.905a6.541,6.541,0,0,0,.99-0.72v5.46h2.055V22.21h4.71v0.435h2.055Zm-0.18-8.7h-1.77V11.98h1.77v1.965Zm-8.16-1.47h-0.93l0.42-.5h0.51v0.5ZM22.959,18.7h-4.71V18.31h4.71V18.7Zm-6.18-2.13a8.714,8.714,0,0,0,.885-1.14l0.225,0.24a6.729,6.729,0,0,0,.51.465,5.977,5.977,0,0,0,.63.435h-2.25Zm6.18,3.9h-4.71V20.08h4.71v0.39ZM40.88,12.7a8.251,8.251,0,0,1-.765-0.48,4.395,4.395,0,0,1-.165.87,1.3,1.3,0,0,1-.233.525,0.779,0.779,0,0,1-.307.165H37.625q-0.225,0-.225-0.465v-0.48l3.9-2.01L39.74,9.61q-0.855.5-2.34,1.245V9.34H35.525q-0.285,0-.285.18a0.371,0.371,0,0,0,.142.255,0.387,0.387,0,0,1,.143.2l-0.03,3.255q-0.24-.555-0.683-1.4t-0.8-1.455l-1.65.645a7.58,7.58,0,0,1,.585,1.035h-1.41q0.12-.24.57-1.1t0.66-1.305l-1.89-.48-1.29,2.94H28.31l0.615,2,4.7-.39,0.225,0.555a5.453,5.453,0,0,1,1.7-.735,4.114,4.114,0,0,0,.09.78,1.675,1.675,0,0,0,.555.8,1.358,1.358,0,0,0,.885.353h3.18a1.013,1.013,0,0,0,.87-0.54,4.934,4.934,0,0,0,.51-1.92A3.263,3.263,0,0,1,40.88,12.7Zm-0.735,6.465a5.826,5.826,0,0,1-.225.915,0.586,0.586,0,0,1-.435.495H37.76a0.3,0.3,0,0,1-.3-0.285V19.36q1.455-.645,3.975-2.1-1.1-.72-1.7-1.17a22.887,22.887,0,0,1-2.28,1.29V15.655H35.585q-0.27,0-.27.135a0.327,0.327,0,0,0,.142.24,0.329,0.329,0,0,1,.142.24v4.035a2.532,2.532,0,0,0,.225,1.2,1.84,1.84,0,0,0,.563.6,1.277,1.277,0,0,0,.727.24H40.04L40.5,22.33a1.467,1.467,0,0,0,.6-0.367,1.783,1.783,0,0,0,.375-0.585,5.584,5.584,0,0,0,.248-0.84q0.112-.5.127-0.562a8.1,8.1,0,0,1-1.71-.81h0Zm-5.22-4.7H29.21v8.085h1.785V19.87h2.13v0.555a0.4,0.4,0,0,1-.045.225,0.175,0.175,0,0,1-.15.06,5.307,5.307,0,0,1-1.2.015,4.035,4.035,0,0,1,.495.885,3.375,3.375,0,0,1,.24.945,5.908,5.908,0,0,0,1.23-.082,1.97,1.97,0,0,0,.69-0.232,1.266,1.266,0,0,0,.39-0.435,1.106,1.106,0,0,0,.15-0.54V14.47Zm-1.8,2.055h-2.13V16.18h2.13v0.345Zm0,1.845h-2.13V18.025h2.13V18.37Zm23.1-4.425V10.42h-4.98q-0.06-.12-0.142-0.278t-0.578-.938l-2.235.27a4.884,4.884,0,0,1,.72.945h-5.2v3.585h1.77v-1.83h8.85v1.77h1.8Zm-1.9,5a7.13,7.13,0,0,1-1.778-1.275,17.807,17.807,0,0,0,2.685-2.04L53.453,14.56a12.381,12.381,0,0,1-2.115,1.71,8.981,8.981,0,0,0-.84-1.29,5.612,5.612,0,0,0,.547-0.36,3.684,3.684,0,0,0,.518-0.45H54.1V12.52h-8.19v1.665l2.085,0.03a23.093,23.093,0,0,1-2.505.675,12.415,12.415,0,0,1-1.995.27,4.116,4.116,0,0,1,.577.825,3.2,3.2,0,0,1,.368.915,14.109,14.109,0,0,0,4.17-1.23l0.075,0.135a11.49,11.49,0,0,1-4.935,1.77,3.166,3.166,0,0,1,.54.728q0.225,0.413.48,1a13.223,13.223,0,0,0,4.665-2.04l0.09,0.3a9.657,9.657,0,0,1-2.49,1.537,17,17,0,0,1-3.69,1.133,4.985,4.985,0,0,1,1.11,1.845q0.96-.27,1.673-0.54a15.447,15.447,0,0,0,1.432-.63,3.687,3.687,0,0,1,.352.788,2.463,2.463,0,0,1,.127.848q0.45,0.015,1.02.015a5.322,5.322,0,0,0,1.17-.135,2.435,2.435,0,0,0,1.035-.5,1.665,1.665,0,0,0,.51-0.788,5.651,5.651,0,0,0,.165-1.612,7.523,7.523,0,0,0,3.48,2.025,4.291,4.291,0,0,1,.48-0.96,4.407,4.407,0,0,1,.705-0.855A11.167,11.167,0,0,1,54.33,18.94ZM49.853,20.1a0.816,0.816,0,0,1-.21.375,1.158,1.158,0,0,1-.623.142,5.37,5.37,0,0,1-.8-0.082,9.08,9.08,0,0,0,1.665-1.14A2.409,2.409,0,0,1,49.853,20.1Zm21.234-3.48v-1.77H66.572v-0.96h3.645v-4.2H59.132v5.58a16.078,16.078,0,0,1-.315,3.3,7.565,7.565,0,0,1-1.095,2.67,2.905,2.905,0,0,1,1.725,1.185,6.953,6.953,0,0,0,.983-2.115,17.7,17.7,0,0,0,.563-3.69h3.555V17.65h-3.24v4.89H63.3V22.105h4.68v0.45h1.995v-4.9h-3.4V16.615h4.515Zm-2.85-4.41H61.052V11.41h7.185v0.8Zm-3.69,2.625h-3.5V13.885h3.5V14.83Zm3.435,5.505H63.3v-0.93h4.68v0.93Zm17.5-5.895V10.87H80.5q-0.45-1.095-.735-1.62L77.712,9.6a3.866,3.866,0,0,1,.3.533q0.12,0.263.315,0.742h-5.1V14.4h2.01v-1.68h8.235V14.44h2.01Zm0.51,2.4V15H78.747a15.833,15.833,0,0,0,.69-1.575L77.5,12.955,76.557,15H72.732v1.86h3.045l-1.26,2.31a20.044,20.044,0,0,1,1.965.72l0.33-.615q0.57,0.165,1.5.54a8.152,8.152,0,0,1-2.407.645,15.314,15.314,0,0,1-3.127.075,4.862,4.862,0,0,1,.6,1,2.732,2.732,0,0,1,.255,1.02,16.377,16.377,0,0,0,4.1-.435,8.314,8.314,0,0,0,2.933-1.3,16.431,16.431,0,0,1,3.345,1.83,5,5,0,0,1,1.635-1.6,32.111,32.111,0,0,0-3.54-1.845,10.646,10.646,0,0,0,1.35-2.355h2.535Zm-4.785,0a3.874,3.874,0,0,1-.405.75q-0.24.345-.66,0.855l-2.58-.81,0.405-.8h3.24Zm19.545-3.495V11.47l-3.465-.03a7.915,7.915,0,0,1,.96-0.27,10.041,10.041,0,0,0-1.77-1.89l-1.695.705a8.365,8.365,0,0,1,1.245,1.485H92.952q0.045-.12.255-0.562a6.657,6.657,0,0,0,.285-0.668l-0.855-.63H87.852v12.9h1.905V18.52a1.641,1.641,0,0,1,.45.683,2.977,2.977,0,0,1,.24.922,4.889,4.889,0,0,0,1.193-.255,2.308,2.308,0,0,0,.892-0.547,2.562,2.562,0,0,0,.51-0.713,3.05,3.05,0,0,0,.15-2.032A5.453,5.453,0,0,0,91.9,14.32q0.225-.465.8-2.055v1.08h1.47V15.46q0,0.39-.007.712t-0.045.652a6.465,6.465,0,0,1-.112.668,4.207,4.207,0,0,1-.225.7,5.8,5.8,0,0,1-.352.7,6.626,6.626,0,0,1-.442.66,5.971,5.971,0,0,1-2.1,1.62,4.667,4.667,0,0,1,1.178.69,3.513,3.513,0,0,1,.652.69q0.3-.225.758-0.622a6.888,6.888,0,0,0,.892-0.953q0.435-.555.6-0.81a7.924,7.924,0,0,0,.975-3.57h2.2q0,1.725-.045,2.287t-0.105.923a0.92,0.92,0,0,1-.315.435,4.025,4.025,0,0,1-.968.21,5.233,5.233,0,0,1-1.043.015,4.365,4.365,0,0,1,.578.967,4.083,4.083,0,0,1,.308,1.073l0.24-.015a5,5,0,0,0,1.965-.427,1.805,1.805,0,0,0,.9-0.923,4.193,4.193,0,0,0,.24-1.095q0.075-.69.075-2.28l0.015-2.94h-3.96l0.03-1.485h4.695Zm-9.4,4.178a0.631,0.631,0,0,1-.1.143,1.317,1.317,0,0,1-.645.322,5.62,5.62,0,0,1-.855.082V11.515h1.335L90.012,14.5a5.3,5.3,0,0,1,1.44,2.55A1.7,1.7,0,0,1,91.355,17.523ZM26.844,39.955v-1.02H22.239V33.31h3.84V32.215h-3.84v-4.86h-1.08v11.58H17.544v1.02h9.3Zm-8.61-10.17A5.892,5.892,0,0,0,16,27.625l-0.885.615a4.525,4.525,0,0,1,1.192.945,5.071,5.071,0,0,1,.922,1.32Zm1.59,7.62-0.03-1.185q-0.45.21-1.425,0.675t-1.38.645V31.075H13.9v1.1h2.01v5.79a0.166,0.166,0,0,1-.09.135,1.261,1.261,0,0,1-.248.12q-0.158.06-.2,0.075l0.75,1.08Zm21.265-5.76V28.9H36.02a5.218,5.218,0,0,0-.9-1.155,5.338,5.338,0,0,0-1-.8l-0.945.705a11.317,11.317,0,0,1,1.192.945,2.082,2.082,0,0,1,.233.3H29.18v2.805h1.14V30h9.63v1.65h1.14Zm0.72,6.915a4.169,4.169,0,0,1-1.3-.81,7.039,7.039,0,0,1-1.147-1.335,5.914,5.914,0,0,1-.765-1.56,10.954,10.954,0,0,0,1.665-1.5l-0.87-.765a6.506,6.506,0,0,1-2.775,2.16,3.958,3.958,0,0,0-.608-0.953,3.539,3.539,0,0,0-.8-0.727q0.045-.03.352-0.2t0.578-.352a4.892,4.892,0,0,0,.51-0.39h2.76V31.03H30.95v1.095l3.765,0.015a15.49,15.49,0,0,1-5.46,1.7l0.78,0.99A13.085,13.085,0,0,0,34.1,33.64a4.528,4.528,0,0,1,.75.51,9.884,9.884,0,0,1-1.4.825,10.576,10.576,0,0,1-1.988.727,21.551,21.551,0,0,1-2.5.5l0.8,0.975a11.31,11.31,0,0,0,3.038-.735,13.933,13.933,0,0,0,2.662-1.44,6.2,6.2,0,0,1,.405.87A9.916,9.916,0,0,1,32.72,37.7a20.707,20.707,0,0,1-4.05.983l0.825,1.035a24.214,24.214,0,0,0,2.5-.608,15.517,15.517,0,0,0,2.28-.877,8.293,8.293,0,0,0,1.837-1.185,12.516,12.516,0,0,1-.06,2.01,0.655,0.655,0,0,1-.165.285,0.824,0.824,0,0,1-.27.21,5.022,5.022,0,0,1-1.1-.1,12.547,12.547,0,0,1-1.425-.383l0.465,1.335a5.835,5.835,0,0,0,2.625.1,1.3,1.3,0,0,0,.667-0.517,2.9,2.9,0,0,0,.352-1.3,8.615,8.615,0,0,0-.008-1.477,11.146,11.146,0,0,0-.218-1.477l0.72-.3a8.985,8.985,0,0,0,.615,1.343,7.341,7.341,0,0,0,1.148,1.538,4.667,4.667,0,0,0,1.6,1.125Zm14.675-9.03V28.435h-5.3l0.255-.24a5.96,5.96,0,0,0-1.3-1.043A3.6,3.6,0,0,0,49.1,26.77l-0.855.81a4.882,4.882,0,0,1,1.125.367,2.046,2.046,0,0,1,.69.488h-5.49l-0.12,7.095a6.99,6.99,0,0,1-.405,2.175,5.958,5.958,0,0,1-1.095,1.89l0.8,0.945a6.031,6.031,0,0,0,1.432-2.37,11.32,11.32,0,0,0,.473-3.435l0.045-5.2H56.484Zm0.525,9.255q-3.03.15-5.4,0.06a6.437,6.437,0,0,1-1.125-.157,6.157,6.157,0,0,1-1.77-.832A8.321,8.321,0,0,0,49.6,33.88h-1.86a9.434,9.434,0,0,0,.968-1.087,10.439,10.439,0,0,0,.863-1.268l0.03-.435,0.69,0.945q0.57,0.015,1.185-.03a8.957,8.957,0,0,0,1-.12v1.65h-2.5V34.63h2.5v2.2h-3.09V37.93h7.155V36.835H53.619v-2.2h2.55V33.535h-2.55V31.66a11.31,11.31,0,0,0,2.595-1.02l-0.8-.78a6.178,6.178,0,0,1-1.08.458,12.738,12.738,0,0,1-2,.435,15.972,15.972,0,0,1-2.767.172V30.52H46v1.1h2.175a19.036,19.036,0,0,1-2.025,2.25v1.11h2.3a5.207,5.207,0,0,1-.21,1.148,5.8,5.8,0,0,1-.36.862l-0.337-.54q-0.263-.42-0.405-0.69t-0.233-.48l-0.945.57a8.456,8.456,0,0,0,1.29,2.085,9.7,9.7,0,0,1-1.98,1.74l0.69,0.885a5.13,5.13,0,0,0,1.282-.885,8.714,8.714,0,0,0,.938-0.915,5.586,5.586,0,0,0,3.42,1.14l4.935,0.06Zm14.127,0.96V38.65h-5.88V35.455h4.215V34.36H65.256v-2.8h4.92V30.46h-4.92V27.265h-1.14v3.2H61.6q0.015-.075.1-0.42t0.15-.69a4.116,4.116,0,0,0,.06-0.705l-1.14-.345a9.177,9.177,0,0,1-.45,2.265,6.755,6.755,0,0,1-.9,1.755,11.368,11.368,0,0,1-1.4,1.56l1.14,0.615a9.059,9.059,0,0,0,2.025-2.94h2.925V34.36H60.231v1.095h3.885v3.2H58.761v1.095H71.136ZM86.012,32.53V31.45H81.767V29.335a15.872,15.872,0,0,0,3.555-1.245l-0.8-.855a13.569,13.569,0,0,1-2.917.923,25.3,25.3,0,0,1-4.763.4l0.6,1.11q2.415-.09,3.18-0.21V31.45H76.4v1.08h4.23v2.52h-3.09v5.625h1.14V39.67H83.7v0.96h1.14V35.05H81.767V32.53h4.245Zm-8.94-2.79a5.736,5.736,0,0,0-1.223-1.14,6.057,6.057,0,0,0-1.462-.78l-0.765.765a6.624,6.624,0,0,1,2.655,1.965Zm-1.155,3.495a6.166,6.166,0,0,0-2.5-2.1l-0.885.78a5.268,5.268,0,0,1,2.58,2.13ZM75.6,34.63a12.161,12.161,0,0,1-2.73,4.965l0.915,0.66a12.43,12.43,0,0,0,2.76-5.175Zm8.1,3.96H78.677V36.13H83.7v2.46Zm16.974,0.825q-1.4-.03-2.933-0.2a25.41,25.41,0,0,1-2.707-.435,7.213,7.213,0,0,1-1.83-.623,4.472,4.472,0,0,0,.63-1.133,5.709,5.709,0,0,0,.345-1.328h4.38V30.13H94.406V29.065h5.79V27.97H87.4v1.095h5.865V30.13H88.961V35.7h4.08a4.778,4.778,0,0,1-.307.99,4.115,4.115,0,0,1-.518.9,17.716,17.716,0,0,1-2.19-1.71l-0.87.585a10.228,10.228,0,0,0,2.175,1.92,13,13,0,0,1-2.258.847,20.311,20.311,0,0,1-2.108.473l0.675,1a10.54,10.54,0,0,0,4.3-1.425l0.465-.315a14.011,14.011,0,0,0,2.865,1,27.26,27.26,0,0,0,4.7.608Zm-3.2-7.065H94.406V31.225h3.075V32.35Zm0,2.25H94.3l0.075-1.155h3.1V34.6Zm-4.215-2.25H90.1V31.225h3.165V32.35Zm-0.015,1.095L93.191,34.6H90.1V33.445h3.15Zm21.655,0.24a6.063,6.063,0,0,0-1.02-1.155q-0.555-.48-1.365-1.08a24.42,24.42,0,0,0,1.5-2.475v-1.05h-5.94v1.08h4.56a9.7,9.7,0,0,1-2,2.842,7.5,7.5,0,0,1-2.633,1.582V33.025h-2.16v-1.98h-1.14v1.98h-1.23L104.6,29.83h3.09V28.75H104.9l0.36-1.32-1.05-.345q-0.12.45-.465,1.665h-1.665v1.08h1.335l-1.08,3.105v1.17h2.37v2.01q-1.98.465-3.075,0.615l0.69,1.11,2.385-.615v3.12l1.14-.03V36.97l1.74-.465v-1.14q-1.17.33-1.74,0.48v-1.74h2.145l0.315,0.45a8.777,8.777,0,0,0,1.965-.975,9.013,9.013,0,0,0,1.53-1.26,9.813,9.813,0,0,1,2.19,2.115Zm0.03,6.15V38.71H111.7V35.86h2.85V34.735H107.9V35.86h2.655v2.85h-3.675v1.125h8.055ZM129.7,33.82a13.572,13.572,0,0,1-1.732-2.895,10.966,10.966,0,0,1-.923-3.39l-1.185.33q0.48,2.325.765,3.188a8.936,8.936,0,0,0,.66,1.538,8.327,8.327,0,0,0,.773,1.17q0.4,0.5.772,0.885Zm-0.465,6.3a7.365,7.365,0,0,0-2.49-4.08l-1.02.6,1.41,1.455-3.66.405,0.42-.51a8.19,8.19,0,0,0,1.17-2.01,12.963,12.963,0,0,0,.8-3.36l-1.215-.375a10.077,10.077,0,0,1-.45,2.325,10.976,10.976,0,0,1-1.095,2.52,5.4,5.4,0,0,1-1.41,1.665l0.63,1.08q0.27-.03,1.26-0.18t1.485-.21l2.625-.285a4.337,4.337,0,0,1,.36,1.365Zm-5.67-12.135q-0.015.045-.195,1.125a15.28,15.28,0,0,1-.36,1.7,7.373,7.373,0,0,1-.412,1.1,5.5,5.5,0,0,1-.578.945,5.6,5.6,0,0,1-.75.818,5.036,5.036,0,0,0-1.05-1.125l-0.165.075V31.105h1.785V30.01h-1.785V27.13h-1.14v2.88h-2.16v1.095h2.1a10.391,10.391,0,0,1-.607,2.168,9.115,9.115,0,0,1-2.123,3.2l0.855,0.81a6.672,6.672,0,0,0,.825-0.863,6.84,6.84,0,0,0,.743-1.072,4.148,4.148,0,0,0,.367-0.84v6.045h1.14l0.03-6.63,0.555,1.042a5.356,5.356,0,0,1,.33.773l0.99-.54a4.119,4.119,0,0,0-.5-1.23l0.69,0.5a6.252,6.252,0,0,0,1.1-1.41,8.664,8.664,0,0,0,.757-1.762,22.839,22.839,0,0,0,.615-3.037Z"/>
</svg>
