<svg xmlns="http://www.w3.org/2000/svg" width="320" height="50" viewBox="0 0 320 50">
  <defs>
    <style>
      .cls-1 {
        fill: #4b286d;
        fill-rule: evenodd;
      }
    </style>
  </defs>
  <path id="攜手讓所有人保持連繫_" data-name="攜手讓所有人保持連繫 " class="cls-1" d="M35.146,24.4l-0.944.432V22.163H35.29V21.011H34.2v-3.1H32.986V21l-1.648.016v1.152h1.648v3.1a16.826,16.826,0,0,1-1.9.928l0.832,0.928q0.16-.064.352-0.144t0.448-.208a2.642,2.642,0,0,1,.272-0.128v4.224l-0.1.144a2.1,2.1,0,0,1-.7.024q-0.5-.04-0.7-0.04a12.023,12.023,0,0,1,.448,1.168h0.584a4.288,4.288,0,0,0,.76-0.048,1.062,1.062,0,0,0,.576-0.352,1.29,1.29,0,0,0,.352-0.672V26.163q0.64-.368,1.152-0.608V24.6a3.375,3.375,0,0,1,.608-0.5v2.384H45.58V25.315H41.355v-0.16l3.28-.016V23.971h-3.3v-0.16h3.3V22.675h-3.3V22.483h3.889l0.016-1.168H41.131a4.431,4.431,0,0,0-.992-0.912h4.737v-2.16h-1.2v0.992H40.859V17.7H39.643v1.552l-2.736-.016v-0.9h-1.2V20.4h0.816a6.669,6.669,0,0,1-.5,1.408,4.721,4.721,0,0,1-.752,1.128,5.821,5.821,0,0,1-.848.776Zm4.993-1.9v0.176h-2.96V22.483Zm0,1.312v0.16l-2.96.016V23.811h2.96Zm0,1.344v0.16H37.194l-0.016-.176Zm-2.8-3.84a4.983,4.983,0,0,0,.32-0.624,7.051,7.051,0,0,0-.8-0.288l3.169,0.032a8.2,8.2,0,0,0-.96.688l0.368,0.192h-2.1Zm1.28,6.464a0.957,0.957,0,0,1-.384.544,4.328,4.328,0,0,1-1.168.576l-0.432.112V27.779h1.984Zm3.648,3.472,0.032-.272a7.084,7.084,0,0,0,.384.976,5.659,5.659,0,0,0,1.408-.064,1.392,1.392,0,0,0,.632-0.456,1.112,1.112,0,0,0,.264-0.712l-0.016-4.1H35.434L35.45,32.2h1.2l-0.016-2.688,0.5,0.576a4.96,4.96,0,0,0,1.008-.4l-0.016,1.568h4.145Zm-2.784-2.688a1.114,1.114,0,0,0,.224-0.44,1.666,1.666,0,0,0,.064-0.344h1.184a1.1,1.1,0,0,0,.1.784H39.483Zm2.672-.784h1.6v0.512l-1.408-.016a0.283,0.283,0,0,1-.192-0.208V27.779Zm-2.832,2.3,0.016-.368h1.7l0.016,0.368H39.323Zm2.944-.64h1.488v1.1a0.46,0.46,0,0,1-.192.272,1.948,1.948,0,0,1-.7.016q-0.5-.048-0.6-0.048V29.443Zm11.586-6.96h-4.8l0.016,1.168h4.8L53.853,26.1H47.724l0.016,1.152h6.113v3.36a0.55,0.55,0,0,1-.136.416,0.632,0.632,0,0,1-.408.144q-0.416.016-2.016-.128l0.448,1.312h2.208a1.072,1.072,0,0,0,1.136-1.28V27.251h5.889V26.083L55.1,26.1V23.651h4.561V22.483H55.1V20.115a21.429,21.429,0,0,0,5.169-1.264L59.6,17.939a24.175,24.175,0,0,1-5.329,1.1,46.4,46.4,0,0,1-6.1.288l0.72,1.184q3.648-.1,4.961-0.256v2.224Zm14.514,8.256a12.464,12.464,0,0,0,1.616-.544v0.912a0.281,0.281,0,0,1-.12.088q-0.088.04-.472,0.184L70,32.339q0.8-.32,3.216-0.992l-0.032-1.072q-0.624.128-2.016,0.5v-1.3a5.038,5.038,0,0,0,1.024-.992h0.384a5.957,5.957,0,0,0,.576,1.28,4.438,4.438,0,0,0,1.64,1.656,7.665,7.665,0,0,0,2.376.9l0.512-1.056a5.166,5.166,0,0,1-1.1-.232,6.205,6.205,0,0,1-1.328-.648,6.819,6.819,0,0,0,1.6-1.248l-0.736-.672h1.04L77.136,27.4H74.8V26.771h1.68V25.7H74.8V25.187h2.16V24.131H74.816V23.459H76.56v-2.7h-3.7v2.736l0.832-.016-0.016.656h-2.3a3.344,3.344,0,0,1,0-.656h0.784v-2.72h-3.68v2.72h1.776v0.656H68.111l0.016,1.056h2.144v0.5l-1.632.016v1.056h1.632V27.4H68.015v1.088l2.72,0.032a7.118,7.118,0,0,1-3.024,1.264v-3.04H64.078v5.3H65.23v-1.1h1.344v1.088h1.136l0.032-2.064ZM73.7,26.771l-0.016.624h-2.24V26.771H73.7Zm-0.016-1.584V25.7h-2.3V25.187h2.3Zm2.336,3.264a6.72,6.72,0,0,1-1.584,1.264,3.473,3.473,0,0,1-.352-0.584,5.846,5.846,0,0,1-.3-0.68h2.24Zm-9.473-.624v2.016H65.23l0.016-2.016h1.3Zm8.913-5.36H73.967V21.731h1.488v0.736Zm-5.9-.736h1.52V22.5h-1.52V21.731Zm-1.68-1.5L66.126,20.2l0.608-.256a9.044,9.044,0,0,0-.632-1.168,5.642,5.642,0,0,0-.744-0.96l-1.072.576a5.289,5.289,0,0,1,.832,1.008,5.949,5.949,0,0,1,.4.832H63.31l0.016,1.12h4.881V20.275l9.057,0.016v-1.12H73.119A9.219,9.219,0,0,0,71.935,17.8l-1.1.576q0.784,0.656.832,0.712c0.032,0.037.058,0.067,0.08,0.088l-3.856-.016Zm0.1,2.032H63.934V23.4l4.032-.016v-1.12Zm0,2.128H63.934v1.136h4.032V24.387Zm17.891,7.936q0.016-.016.456-0.536a5.7,5.7,0,0,0,.6-0.808,12.612,12.612,0,0,0,1.44-5.328q0.016-.208.016-0.768A6.408,6.408,0,0,1,88.4,24.1l1.888,0.016v8.176h1.264l-0.016-8.176,2.176-.016,0.016-1.152-5.345-.032V20.691a12.236,12.236,0,0,0,4.881-1.936l-0.944-.944a12.591,12.591,0,0,1-2.5,1.24,9.893,9.893,0,0,1-2.744.616l0.016,5.376a12.688,12.688,0,0,1-.248,2.584,8.282,8.282,0,0,1-.776,2.192,7.053,7.053,0,0,1-1.36,1.8ZM81.12,26.067a8.308,8.308,0,0,1-1.952,5.664l1.072,0.72A8.456,8.456,0,0,0,81.625,30.2a13.42,13.42,0,0,0,.776-3.56h3.648V21.571H82.385V20.387a13.1,13.1,0,0,0,4.5-1.616l-0.928-.912a11.409,11.409,0,0,1-4.849,1.5Zm3.7-3.264v2.672H82.4v-2.7Zm11.41,4.88q1.456-1.488,1.944-2.048a10.611,10.611,0,0,0,.76-0.96v7.632H100.2V28.915l6.033,0.016v1.584a0.263,0.263,0,0,1-.088.184,0.294,0.294,0,0,1-.216.088,11.826,11.826,0,0,1-2.016-.08q0.144,0.368.56,1.232h0.92a6.38,6.38,0,0,0,1.208-.08,1.385,1.385,0,0,0,.568-0.4,1.073,1.073,0,0,0,.264-0.608V22.675h-7.249a15.883,15.883,0,0,0,.576-1.488l8.609-.016V20.019h-8.145q0.384-1.312.528-1.984l-1.232-.272q-0.319,1.328-.44,1.7T99.891,20H96.083v1.168l3.36,0.016a10.645,10.645,0,0,1-1.64,2.9,20.911,20.911,0,0,1-2.7,2.856Zm9.969-3.84v1.312l-6-.016v-1.3h6Zm-6.033,2.464,6.049,0.016v1.44h-6.049V26.307Zm17.746-7.936c0,0.181,0,.523-0.008,1.024s-0.013.963-.024,1.384-0.034.9-.072,1.44a11.488,11.488,0,0,1-.24,1.656,6.564,6.564,0,0,1-.5,1.5,10.063,10.063,0,0,1-1.144,1.9,15.047,15.047,0,0,1-1.48,1.592,16.43,16.43,0,0,1-2.912,2.176l0.96,0.944a13.979,13.979,0,0,0,2.656-1.9,13.421,13.421,0,0,0,2.136-2.384,9.126,9.126,0,0,0,1.145-2.12,13.033,13.033,0,0,0,1.664,2.9,11.24,11.24,0,0,0,1.984,1.984,16.984,16.984,0,0,0,2.48,1.56L125.479,31a11.833,11.833,0,0,1-2.657-1.552A10.525,10.525,0,0,1,120.79,27.3a14.8,14.8,0,0,1-1.648-3.12,1.989,1.989,0,0,0-.088-0.192,1.042,1.042,0,0,1-.1-0.272,1,1,0,0,1-.008-0.288,45.713,45.713,0,0,0,.24-5.056h-1.281Zm12.69-.416a12.692,12.692,0,0,1-1.208,3.944,13.429,13.429,0,0,1-2.44,3.368l0.9,0.864,0.336-.336q0.24-.24,1.264-1.552v8.192h1.2v-10.3a16.813,16.813,0,0,0,.624-1.784,15.2,15.2,0,0,0,.432-1.9Zm10.29,8.384V25.171H136.7v-1.28H139.7V18.739h-7.377v5.152l3.169-.016v1.3h-4.289v1.168h3.265a10.12,10.12,0,0,1-1.184,1.912,7.569,7.569,0,0,1-1.361,1.376,6.987,6.987,0,0,1-1.184.744l0.9,0.928a8.1,8.1,0,0,0,1.465-1.056,9.8,9.8,0,0,0,1.432-1.6,7.264,7.264,0,0,0,.96-1.712l-0.016,5.456H136.7l0.032-5.664a8.393,8.393,0,0,0,4.161,4.528l0.944-.9a10.67,10.67,0,0,1-2.537-1.736,6.125,6.125,0,0,1-1.464-2.28h3.057Zm-2.4-3.616h-4.944l-0.016-2.832H138.5Zm5.537,9.584h1.488a1.36,1.36,0,0,0,.96-0.312,1.2,1.2,0,0,0,.336-0.92l0.016-4.608,1.841-.688v-1.3l-1.841.752V22.259h1.937l-0.016-1.136h-1.921V17.939h-1.232l0.016,3.184h-2.192v1.136h2.192v3.392q-0.416.16-1.448,0.488t-1.144.36l0.8,1.008a9.307,9.307,0,0,0,.928-0.3,8.646,8.646,0,0,0,.864-0.36v3.856a0.443,0.443,0,0,1-.16.368,1.672,1.672,0,0,1-.52.088,6.919,6.919,0,0,1-.712-0.024q-0.416-.032-0.576-0.032Zm9.825-.016a1.626,1.626,0,0,0,.921-0.392,1.326,1.326,0,0,0,.36-0.792V27.219H157.5V26.083h-2.352V24.851H153.93l-0.016,1.232H148.3v1.136h5.616v3.632a0.424,0.424,0,0,1-.32.272,15.2,15.2,0,0,1-1.824-.08,8.458,8.458,0,0,0,.464,1.232ZM153.5,17.923h-1.232v2.256h-3.088l-0.016,1.136h3.1V23.3h-3.68v1.152l8.817-.016V23.3l-3.905.016V21.331l3.025-.016V20.179H153.5V17.923ZM152.522,29.6a10.3,10.3,0,0,0-2.9-1.92l-0.8.88a11.016,11.016,0,0,1,2.88,1.936Zm14.9,0.8,1.216-.016V28.835l4.5-.016V27.667h-4.5V26.8l3.5,0.016V21.107h-3.5V20.371h4.209V19.219l-4.209-.016V17.987H167.42V19.2l-4.3.016v1.168l4.3-.016v0.736h-3.472l-0.016,5.712,3.488-.016v0.864h-4.352v1.152h4.352V30.4Zm3.505-7.024h-2.289v-1.1l2.305-.016Zm-3.505,1.168v1.1h-2.272v-1.1h2.272Zm0-2.288v1.12h-2.256l-0.016-1.1Zm3.505,2.288v1.1h-2.289v-1.12Zm-8.4-3.68a7.932,7.932,0,0,0-1.889-2.848l-1.008.688a6.505,6.505,0,0,1,1.872,2.816Zm-2.273,11.52a18.375,18.375,0,0,0,1.208-1.432,7.037,7.037,0,0,0,.425-0.648,7.4,7.4,0,0,0,4.336,1.376H173.2l0.48-1.264-1.28.048-4.609.064a13.348,13.348,0,0,1-3.152-.256,6.1,6.1,0,0,1-2.24-1.008,5.62,5.62,0,0,0,.5-1.416q0.175-.808.3-1.944h-1.937a8.417,8.417,0,0,0,1.017-1.416,18.08,18.08,0,0,0,.856-1.624V21.811h-3.841v1.152h2.5a11.655,11.655,0,0,1-2.177,3.088l0.016,1.008,2.209,0.016a6.82,6.82,0,0,1-.409,1.36,7.565,7.565,0,0,1-.968,1.672,12.454,12.454,0,0,1-1.488,1.672Zm15.282-8.16h3.473v0.608H177.39V24.371h-1.072v1.472l4.784,0.032a7.816,7.816,0,0,1-3.808,1.088l0.688,1.248Q180.061,28,181.47,28a17.8,17.8,0,0,1-2.128.544q-1.025.192-2.768,0.448,0.144,0.208.384,0.624a6.519,6.519,0,0,0,.384.608q0.912-.128,3.088-0.288a12.274,12.274,0,0,1-4.849.864q0.144,0.224.416,0.584c0.182,0.24.315,0.424,0.4,0.552a16.331,16.331,0,0,0,2.976-.488,13.488,13.488,0,0,0,2.256-.92l-0.544-.64,1.12-.064,0.016,1.3a0.431,0.431,0,0,1-.3.176,15.063,15.063,0,0,1-1.616-.064l0.56,1.152a6.566,6.566,0,0,1,.664,0,4.151,4.151,0,0,0,.728-0.024,1.522,1.522,0,0,0,.448-0.136,1.23,1.23,0,0,0,.488-0.464,1.214,1.214,0,0,0,.184-0.64v-1.36q1.617-.112,4.417-0.24a8.31,8.31,0,0,1,.928.9l0.88-.816a8.823,8.823,0,0,0-3.552-2.272q-0.705.624-.944,0.88a8.174,8.174,0,0,1,1.28.4q-2.849.064-3.905,0.064a20.385,20.385,0,0,0,4.961-2.24l-1.072-.784a25.615,25.615,0,0,1-2.24,1.28q-0.544.016-1.625-.008t-1.416-.024a4.936,4.936,0,0,0,.808-0.272,5.732,5.732,0,0,0,.792-0.4l-0.464-.384h0.672V24.371h-1.12l0.016,0.464h-1.616V24.227H183.7V23.235h-3.521V23.059h2.752V21.4l0.641,0.544h-0.112v1.12h0.784a5.068,5.068,0,0,0,1.024,1.216,10.1,10.1,0,0,1-2.305.736l0.705,1.008a11.423,11.423,0,0,0,2.592-1.008,9.057,9.057,0,0,0,2.512,1.12l0.816-.976a11.743,11.743,0,0,1-2.336-.784,6.093,6.093,0,0,0,1.44-1.44V21.955L184,21.923a2.308,2.308,0,0,0,1.5-2.128h1.328v0.312q0,0.248.024,0.488a1.39,1.39,0,0,0,.12.448,1.111,1.111,0,0,0,.328.368,0.85,0.85,0,0,0,.456.176h1.568V20.531h-1.1a0.24,0.24,0,0,1-.272-0.272V18.707H184.4q0,1.1-.032,1.392a1.238,1.238,0,0,1-.488.616,4.061,4.061,0,0,1-.953.456V19.923H180.19l-0.016-.192,3.264-.016,0.017-.928h-3.281V18.1h-1.168l0.016,0.688h-3.217v0.944h3.217v0.192h-2.688v3.152h2.688v0.16l-3.489-.016v1.008Zm3.489-3.168h-1.584V20.851h1.584v0.208Zm2.784,0-1.616-.016-0.016-.208h1.632v0.224Zm-2.784,1.056-1.568.016V21.923h1.568v0.192Zm2.784,0H180.19V21.923l1.616,0.016v0.176Zm2.385,7.728-0.656,1.04a10.675,10.675,0,0,1,5.136,1.28l0.7-.976a11.574,11.574,0,0,0-5.184-1.344h0Zm2.944-6.768a4.367,4.367,0,0,1-.4.312L186.3,23.7a3.22,3.22,0,0,1-.376-0.32c-0.144-.139-0.243-0.24-0.3-0.3h1.5Z"/>
</svg>
