<svg id="F2" xmlns="http://www.w3.org/2000/svg" width="300" height="600" viewBox="0 0 600 1200">
  <defs>
    <style>
      .cls-1 {
        fill: #fff;
        fill-rule: evenodd;
      }
    </style>
  </defs>
  <g id="BUTTON_copy" data-name="BUTTON copy">
    <path id="了解更多_" data-name="了解更多 " class="cls-1" d="M256.646,462.154l0.972,2.16,3.969-.054a1.8,1.8,0,0,0,1.458-.7,2.292,2.292,0,0,0,.513-1.4l0.027-12.015a23.4,23.4,0,0,0,7.371-6.021v-1.809H253.217v2.025l14.688,0.027a24.5,24.5,0,0,1-6.534,4.725v12.258a1.093,1.093,0,0,1-.135.54,0.465,0.465,0,0,1-.3.27h-4.293ZM285.9,449.248l0.864,1.188a7.946,7.946,0,0,0,3.281-2.633,9.885,9.885,0,0,0,1.471-3.82h3.024q-0.378,2.052-.567,2.7a0.813,0.813,0,0,1-1,.756,9.591,9.591,0,0,1-1.917-.621l0.621,2.241q0.3,0.027,1.067.148a5.868,5.868,0,0,0,1.2.1,1.845,1.845,0,0,0,1.026-.365,1.819,1.819,0,0,0,.648-0.85,22.665,22.665,0,0,0,1.215-6.075H286.605v1.971h2.943a5.132,5.132,0,0,1-1.242,2.862,6.712,6.712,0,0,1-2.457,1.863v-1.215h-2.835a31.719,31.719,0,0,0,1.4-4.347h-4.779a11.83,11.83,0,0,0,.324-1.674l-1.755-.7a16.259,16.259,0,0,1-4.482,8.5l1.7,1.161,0.7-.783v8.4a12.755,12.755,0,0,1-.378,2.038,9.435,9.435,0,0,1-.594,1.566,12.714,12.714,0,0,1-1.4,2.039l1.539,1.4a12.465,12.465,0,0,0,2.862-6.372H283.8v3.213a0.8,0.8,0,0,1-.189.526,0.63,0.63,0,0,1-.513.23h-2.376l1.134,2h2.133a1.545,1.545,0,0,0,1.4-.729,3.388,3.388,0,0,0,.459-1.836Zm-2.106,2.889h-1.89V449.41h1.863Zm-5.643,0V449.41h1.809v2.727h-1.809Zm1.809,1.836v2.835h-1.782l-0.027-2.835h1.809Zm1.944-8.856a9.28,9.28,0,0,1-.445,1.147,13.466,13.466,0,0,1-.608,1.2l-3.1.027a18.273,18.273,0,0,0,1.161-2.376h3Zm1.89,11.691-1.863-.027-0.027-2.808h1.89v2.835Zm14.2,2.268v-1.971h-4.563V454.3h3.132l0.027-1.971h-3.159v-2.808l-2.025.027-0.027,2.808-1.323-.027a9.008,9.008,0,0,0,.189-1.755L288.387,450a11.946,11.946,0,0,1-.823,3.766,7.5,7.5,0,0,1-1.5,2.228l2.079,0.729a9.764,9.764,0,0,0,1.377-2.43h1.89v2.808l-5.238.027v1.944h5.211l0.027,5.94h2.025v-5.94H298Zm26.371,3.753q-2.511-.054-5.278-0.365a45.849,45.849,0,0,1-4.874-.783,12.99,12.99,0,0,1-3.294-1.12,8.045,8.045,0,0,0,1.134-2.039,10.272,10.272,0,0,0,.621-2.389h7.884v-9.99h-7.506v-2l10.449,0.027v-1.917H300.475v1.917l10.584-.027v2H303.31l-0.027,9.99h7.344a8.584,8.584,0,0,1-.553,1.782,7.41,7.41,0,0,1-.932,1.62,31.938,31.938,0,0,1-3.942-3.078l-1.566,1.053a18.424,18.424,0,0,0,3.915,3.456,23.421,23.421,0,0,1-4.063,1.525,36.663,36.663,0,0,1-3.794.851l1.215,1.809a18.981,18.981,0,0,0,7.749-2.565l0.837-.567a25.236,25.236,0,0,0,5.157,1.8,49.061,49.061,0,0,0,8.451,1.094Zm-5.778-12.69h-5.508l0.027-2.079h5.481v2.079Zm-13.284-2.079,5.751,0.027v2.052h-5.751V448.06Zm13.311,4v2.133H312.9l0.135-2.133h5.589Zm-13.311,0h5.7l-0.108,2.133-5.589-.027v-2.106Zm26.414,6.75a49.782,49.782,0,0,0,5.468-2.673,21.588,21.588,0,0,0,3.064-2.187h6.912a11.332,11.332,0,0,1-1.255,1.741,11.692,11.692,0,0,1-1.971,1.8,22.025,22.025,0,0,1-2.633,1.647,8.422,8.422,0,0,0-2.781-2.943l-1.944,1.107a9.66,9.66,0,0,1,2.97,2.7,53.624,53.624,0,0,1-12.1,3.186l1.35,1.863a72.952,72.952,0,0,0,7.857-1.782,33.487,33.487,0,0,0,4.766-1.877,20.033,20.033,0,0,0,3.874-2.457,16.13,16.13,0,0,0,2.714-2.74,18.623,18.623,0,0,0,1.606-2.484l0.027-1.809-7.29-.027a12.351,12.351,0,0,0,1.431-1.917l-1.593-.864a22.584,22.584,0,0,0,3.807-3.834v-1.809h-7.614a19.757,19.757,0,0,0,1.971-2.16l-1.89-1a20.8,20.8,0,0,1-10.422,6.534l1.782,1.674a28.792,28.792,0,0,0,5.913-3h7.425a25.548,25.548,0,0,1-2.511,2.106,23.9,23.9,0,0,1-2.862,1.728,10.726,10.726,0,0,0-1.444-1.5,8.589,8.589,0,0,0-1.58-1.174l-1.89,1.215a9.418,9.418,0,0,1,3.024,2.268,30.947,30.947,0,0,1-3.766,1.242q-2.524.7-4.658,1.188l1.3,1.809a54.273,54.273,0,0,0,7.938-2.417,32.914,32.914,0,0,0,5.049-2.5,19,19,0,0,1-4.819,4.36,34.346,34.346,0,0,1-6.791,3.254Z"/>
  </g>
</svg>
