<svg id="F1" xmlns="http://www.w3.org/2000/svg" width="300" height="600" viewBox="0 0 600 1200">
  <defs>
    <style>
      .cls-1 {
        fill: #4b286d;
        fill-rule: evenodd;
      }
    </style>
  </defs>
  <path id="數據不夠_全家不高興_" data-name="數據不夠， 全家不高興？ " class="cls-1" d="M205.782,241.664a54.638,54.638,0,0,1-1.352,11.778,24.148,24.148,0,0,1-4.212,9.126v-1.092H190.65l-0.052-1.768,9.464,0.052,0.052-5.772h3.12v-3.536h-3.12l-0.052-5.2H190.65l-0.052-3.484-3.9.052v3.432h-9.412v5.2h-3.744l0.052,3.536h3.692v5.772l9.412-.052v1.768h-9.36v8.476h9l-1.56,2.392-10.5.052-0.052,3.64h7.956a12.087,12.087,0,0,1-1.482,1.768q-1.014,1.04-3.042,3.016a29.818,29.818,0,0,1,7.644,1.3q-3.693,1.976-12.064,2.86l1.612,3.588a35.164,35.164,0,0,0,15.028-4.992q0.519,0.26,2.5,1.274t3.016,1.612l1.4,0.806,2.184-3.172q-4.161-2.236-5.824-2.964a14.142,14.142,0,0,0,3.952-5.148l6.292,0.052V272.4l-13.988-.052,0.78-1.4-2.236-.988h12.272V264.96l2.08,1.4a14.361,14.361,0,0,0,.962-1.378q0.65-1.014.91-1.378a65.05,65.05,0,0,0,3.276,11.96,40.764,40.764,0,0,1-4.238,6.474,24.037,24.037,0,0,1-3.978,3.822l2.6,2.652a34.284,34.284,0,0,0,4.342-4.394,38,38,0,0,0,3.2-4.706,28.493,28.493,0,0,0,7.9,9.2l2.7-2.86a26.9,26.9,0,0,1-5.018-4.706,25.4,25.4,0,0,1-3.51-5.486q3.692-7.593,4.524-20.28h2.5v-3.8h-9.932a36.853,36.853,0,0,0,.78-9ZM186.7,248.58v1.872H181.03l0.052-1.924Zm9.672-.052v1.924h-5.72v-1.924h5.72Zm0,7.9-5.772.052,0.052-2.5h5.72v2.444Zm-9.672-2.444v2.444l-5.616-.052-0.052-2.392H186.7Zm9.776,12.74H190.65L190.6,264.7h5.876v2.028Zm-15.34,0V264.7l5.616-.052-0.052,2.08h-5.564Zm3.692,11.648,2.028-2.392,5.98,0.052a12.8,12.8,0,0,1-3.276,3.588Zm27.508-23.14a48.865,48.865,0,0,1-.936,8.814,66.841,66.841,0,0,1-1.872,6.838q-0.261-.729-0.6-1.846t-0.728-2.808q-0.39-1.69-.806-4.29t-0.624-3.588q0.156-.573.546-1.69t0.494-1.43h4.524Zm43.732,4.94a1.167,1.167,0,0,1-1.352-1.4l8.684-.884v-3.276l-8.684.832v-1.872h10.972q-0.052.207-.416,1.248t-0.546,1.69q-0.183.649-.234,0.858l3.536,0.832q1.455-4.317,1.794-5.8a20.788,20.788,0,0,0,.442-2.574h-15.6V248.06l11.908-.052v-3.12l-11.908-.052v-2.808h-3.9l-0.052,7.8h-9.88v15.86q0,8.736-1.4,13.1a21.078,21.078,0,0,1-4.056,7.436l3.38,2.392q5.979-7.8,5.98-18.876l0.052-16.12h5.98l-0.052,2.236-5.1.416,0.052,3.484,5.252-.676a6.665,6.665,0,0,0,.312,1.924,3.419,3.419,0,0,0,1.378,1.664,3.674,3.674,0,0,0,2.054.676h11.024v-3.12Zm-20.436,9.2L240,267.456v-4l-4.316,1.924v-9.36h4.212v-3.8H235.63l-0.052-10.088h-3.9l0.052,10.14h-5.46l0.052,3.744h5.356v11.076l-7.124,3.12,2.392,3.016,4.784-2.028v12.272a1.527,1.527,0,0,1-.364,1.04,1.247,1.247,0,0,1-.988.416q-2.184,0-4.472-.156l1.664,3.744h1.586q1.118,0,2-.078a6.5,6.5,0,0,0,1.716-.39,4.459,4.459,0,0,0,2.158-1.508,3.916,3.916,0,0,0,.65-2.288Zm36.14,13.156a10.89,10.89,0,0,1-3.874-3.328,10.769,10.769,0,0,1-1.846-4.368,26.274,26.274,0,0,0,2.158-1.95q0.546-.6.962-1.118l-2.652-2.6a23.6,23.6,0,0,1-2.86,2.7,12.257,12.257,0,0,1-2.964,1.82,16.963,16.963,0,0,0-2.444-3.12q2.652-1.509,3.224-1.95t0.728-.6l6.916-.052,0.052-3.38H246.082v3.38l10.036,0.1q-3.588,1.976-11.232,2.964l2.08,3.12a44.967,44.967,0,0,0,8.164-2.08,2.627,2.627,0,0,1,.468.494q0.312,0.39.364,0.442a21.917,21.917,0,0,1-5.1,2.548,49.539,49.539,0,0,1-6.76,1.82l2.288,2.912a44.738,44.738,0,0,0,5.46-1.612,34.136,34.136,0,0,0,5.876-2.912l0.624,1.3A26.535,26.535,0,0,1,251.49,281a49.554,49.554,0,0,1-7.644,2.054l2.288,2.86a41.807,41.807,0,0,0,7.072-2.236,43.4,43.4,0,0,0,6.084-3.328,9.84,9.84,0,0,1,.078,3.588,1.806,1.806,0,0,1-.65.936,6.338,6.338,0,0,1-3.354.078q-2.211-.39-3.042-0.442l1.3,3.64q0.156,0,1.976.1a14.379,14.379,0,0,0,2.964-.078,6.511,6.511,0,0,0,2.028-.65,4.357,4.357,0,0,0,2.132-3.3,19.978,19.978,0,0,0-.624-7.1l0.884-.52q1.611,6.4,6.24,8.528Zm26.728,5.772h4.264l-0.1-34.372q0.624-.885,1.742-2.756t1.378-2.288l14.4,0.052v-3.9l-39.1-.1v3.952h20.28a25.627,25.627,0,0,1-1.976,2.808q-1.56,2.028-1.768,2.34a38.694,38.694,0,0,1-8.138,8.424,68.094,68.094,0,0,1-10.842,6.656l2.6,3.38q12.063-6.708,17.264-13.156v28.964Zm5.668-28.392a33.435,33.435,0,0,1,8.294,5.2,53.031,53.031,0,0,1,7.566,7.592L323.2,270q-7.8-9-16.276-12.844Zm65.78-8.112q0,5.979-.624,14.872a83.086,83.086,0,0,1-2.132,15.34,2.345,2.345,0,0,1-1.222,1.534,5,5,0,0,1-2.366.286q-2.236-.261-6.24-1.092l0.988,4.42q3.483,0.519,4.368.6t1.4,0.078a7.551,7.551,0,0,0,4.42-.988,6.068,6.068,0,0,0,2.444-3.64q1.507-5.148,2.288-16.172,0.571-7.956.728-19.032H359.494a32.287,32.287,0,0,0,1.248-6.552l-3.9-.78A29.225,29.225,0,0,1,354.164,251a49.583,49.583,0,0,1-6.318,9.854l3.484,2.288q0.728-.885,2.288-3.276v18.512l3.744-.052v-2.7h5.2v2.756h3.8V257.784h-11.44a38.982,38.982,0,0,0,3.172-5.98h11.856Zm-12.584,9.724h5.2v10.348h-5.2V261.528Zm-15.7-20.592a35.6,35.6,0,0,1-4.394,7.332,43.211,43.211,0,0,1-6.37,6.344L334.118,257a44.131,44.131,0,0,0,6.552-6.708h6.6a15.452,15.452,0,0,1-1.924,3.25,19.038,19.038,0,0,1-2.808,3.042,14.811,14.811,0,0,0-1.274-1.69q-0.858-1.014-1.69-1.846l-2.964,2.236a21.034,21.034,0,0,1,3.276,3.64,42.353,42.353,0,0,1-9.36,4.784l2.912,3.068a42.137,42.137,0,0,0,11.7-7.436,21.491,21.491,0,0,0,4.576-5.746,21.127,21.127,0,0,0,2.392-7.1h-9q0.572-.988,2.028-3.744Zm2.132,20.072a26.741,26.741,0,0,1-5.2,6.838,55.589,55.589,0,0,1-7.9,6.006l3.224,2.548a46.922,46.922,0,0,0,8.892-7.436h4.68a20.326,20.326,0,0,1-3.9,7.176,17.3,17.3,0,0,0-2.964-3.8l-3.328,2.132a15.518,15.518,0,0,1,2.288,2.106,11.24,11.24,0,0,1,1.56,2.158,53.362,53.362,0,0,1-5.538,3.536,55.658,55.658,0,0,1-6.058,2.964l2.548,3.12a62.035,62.035,0,0,0,10.088-5.746,25.529,25.529,0,0,0,5.1-5.018,27.612,27.612,0,0,0,4.784-12.376H345.61a26.3,26.3,0,0,0,1.456-2.548Zm62.868-.312h-5.72v5.72h2.808a5.15,5.15,0,0,1-3.12,5.148l1.508,1.924a7.46,7.46,0,0,0,2.678-2.028,7.7,7.7,0,0,0,1.43-2.626,9.262,9.262,0,0,0,.416-2.678V260.7ZM168.29,342.224H149.83v3.9l41.34-.052v-3.848H172.346V334.58H183.11v-3.744H172.346l-0.052-7.228h12.324l-0.052-2.34a48.579,48.579,0,0,0,6.76,2.86l2.288-3.536a40.415,40.415,0,0,1-10.166-4.784,33.111,33.111,0,0,1-6.682-5.72,24.46,24.46,0,0,1-3.744-5.72l-15.08-.052,0.052,3.9,7.644-.052a27.787,27.787,0,0,1-7.748,7.618,45.574,45.574,0,0,1-10.816,5.33l2.288,3.484a43.139,43.139,0,0,0,6.5-2.86l-0.052,1.872,12.48-.052,0.052,7.28H157.63v3.8l10.66-.052v7.644Zm2.236-34.008a26.866,26.866,0,0,0,2.6,3.848,30.244,30.244,0,0,0,4.186,4.29,38.613,38.613,0,0,0,4.654,3.458l-23.14-.1a32.749,32.749,0,0,0,4.6-3.354,28.449,28.449,0,0,0,4.16-4.316,25.291,25.291,0,0,0,2.522-3.874Zm72.54-.364H225.49a19.3,19.3,0,0,0-3.146-4.056,17.874,17.874,0,0,0-3.458-2.756l-3.276,2.444a38.249,38.249,0,0,1,4.082,3.276,7.571,7.571,0,0,1,.858,1.092H201.778v9.672h4l-0.052-5.98h33.332v5.772h4v-9.464Zm2.5,33.436a14.486,14.486,0,0,1-4.5-2.808,24.43,24.43,0,0,1-3.978-4.628,20.507,20.507,0,0,1-2.652-5.408,38.06,38.06,0,0,0,5.772-5.2l-3.016-2.652q-4.992,5.979-9.62,7.488a13.721,13.721,0,0,0-2.106-3.3,12.258,12.258,0,0,0-2.782-2.522,37.388,37.388,0,0,0,4.992-3.328h9.568v-3.692H207.914l-0.052,3.744,13.1,0.052q-6.449,3.9-18.928,5.876l2.7,3.432a45.392,45.392,0,0,0,14.092-4.108,15.608,15.608,0,0,1,2.6,1.768,34.367,34.367,0,0,1-4.836,2.86,36.79,36.79,0,0,1-6.89,2.522,75.067,75.067,0,0,1-8.658,1.742l2.756,3.38a39.247,39.247,0,0,0,10.53-2.548,48.388,48.388,0,0,0,9.23-4.992,21.388,21.388,0,0,1,1.4,3.016,34.377,34.377,0,0,1-10.92,6.318,71.834,71.834,0,0,1-14.04,3.406l2.86,3.588a84.334,84.334,0,0,0,8.658-2.106,54.035,54.035,0,0,0,7.9-3.042,28.781,28.781,0,0,0,6.37-4.108,43.435,43.435,0,0,1-.208,6.968,2.278,2.278,0,0,1-.572.988,2.881,2.881,0,0,1-.936.728,17.472,17.472,0,0,1-3.8-.338,43.476,43.476,0,0,1-4.94-1.326l1.612,4.628q6.708,1.248,9.1.364a4.492,4.492,0,0,0,2.314-1.794,10.079,10.079,0,0,0,1.222-4.5,29.9,29.9,0,0,0-.026-5.122,38.675,38.675,0,0,0-.754-5.122l2.5-1.04a31.157,31.157,0,0,0,2.132,4.654,25.442,25.442,0,0,0,3.978,5.33,16.174,16.174,0,0,0,5.538,3.9Zm26.936,7.02h4.264l-0.1-34.372q0.624-.885,1.742-2.756t1.378-2.288l14.4,0.052v-3.9l-39.1-.1v3.952h20.28a25.627,25.627,0,0,1-1.976,2.808q-1.56,2.028-1.768,2.34a38.694,38.694,0,0,1-8.138,8.424,68.094,68.094,0,0,1-10.842,6.656l2.6,3.38q12.063-6.708,17.264-13.156v28.964Zm5.668-28.392a33.435,33.435,0,0,1,8.294,5.2,53.031,53.031,0,0,1,7.566,7.592L297.2,330q-7.8-9-16.276-12.844Zm35.62-7.852,0.052,10.452h25.428V312.064h-25.48Zm3.848,3.744h17.784v2.912H317.686ZM336.77,341.6V330.472l-20.436.052L316.282,341.6H336.77Zm-16.588-7.28H332.87l0.052,3.536-12.74-.052V334.32Zm-14.768-24.6,42.328,0.052-0.052-3.8H328.554a22.374,22.374,0,0,0-1.612-2.392,19.568,19.568,0,0,0-2.08-2.34l-4,1.664q1.039,0.78,2.08,1.69a18.026,18.026,0,0,1,1.456,1.378H305.362Zm30.992,37.7q0.312,0,2.7-.026a22.126,22.126,0,0,0,3.484-.234,3.8,3.8,0,0,0,2.314-1.508,4.561,4.561,0,0,0,.962-2.86V324.6l-38.428.052-0.052,23.816,4.108-.052v-20.02l30.316-.052V341.6a2.421,2.421,0,0,1-.312,1.222,1.223,1.223,0,0,1-.78.65,14.578,14.578,0,0,1-2.886.052q-1.95-.105-2.522-0.1Zm33.28-43.576v0.572l-2.184-2.392a20.074,20.074,0,0,1-8.528,5.46l1.716,25.376h-4.212l-0.052,3.8h44.356v-3.8h-4.368l2.028-28.288H387.834v3.744h6.448l-0.364,4.836h-5.46V316.9h5.252l-0.52,5.72h-4.732v3.8h4.576l-0.468,6.5-5.356-.052-0.052-29.016H369.686Zm3.952,3.8h9.62v25.22l-9.568.052Zm-3.9,25.22h-5.2l-0.416-6.448h4.524v-3.8h-4.784l-0.416-5.72H368.8v-3.8h-5.564l-0.208-3.588a24.779,24.779,0,0,0,6.708-4.16v27.508Zm4.836-17.108,0.052,14.664h7.9V315.756h-7.956Zm3.172,10.92-0.052-7.176h1.612v7.176h-1.56Zm5.356-12.9v-3.8h-9.048v3.8H383.1Zm-24.96,34.112a41.516,41.516,0,0,0,16.276-8.476l-2.5-2.7a39.908,39.908,0,0,1-16.276,7.644Zm43.42-3.224a52.161,52.161,0,0,0-4.966-3.432,34.52,34.52,0,0,0-4.6-2.314,45.093,45.093,0,0,0-7.28-2l-2.6,3.172a39.76,39.76,0,0,1,16.9,7.644Zm39.624-32.6a9.68,9.68,0,0,0-2.5-3.25,11.538,11.538,0,0,0-3.822-2.132,14.637,14.637,0,0,0-4.758-.754,13.448,13.448,0,0,0-4.732.832,10.852,10.852,0,0,0-3.822,2.366,11.567,11.567,0,0,0-2.522,3.614,14.3,14.3,0,0,0-.988,3.952l4.68,0.52a11.84,11.84,0,0,1,1.56-4.342,6.108,6.108,0,0,1,2.7-2.522,7.9,7.9,0,0,1,3.172-.676,7.137,7.137,0,0,1,4,1.2,6.626,6.626,0,0,1,2.522,2.756,6.863,6.863,0,0,1,.7,2.756,5.8,5.8,0,0,1-.338,1.872,6.2,6.2,0,0,1-1.144,1.95,19.979,19.979,0,0,1-2.262,2.21,27.825,27.825,0,0,0-4.03,4.108A8.55,8.55,0,0,0,428,330.238a20.878,20.878,0,0,0-.234,4.394h4.368a25.827,25.827,0,0,1,.286-3.458,5.935,5.935,0,0,1,1.066-2.574,20.8,20.8,0,0,1,2.964-3.016q1.3-1.144,2.574-2.47a12.529,12.529,0,0,0,2.158-3.094,8.719,8.719,0,0,0,.884-3.952A9.262,9.262,0,0,0,441.186,312.064Zm-8.528,31.72v-5.2h-5.2v5.2h5.2Z"/>
</svg>
