<svg id="F2" xmlns="http://www.w3.org/2000/svg" width="300" height="600" viewBox="0 0 600 1200">
  <defs>
    <style>
      .cls-1 {
        fill: #4b286d;
        fill-rule: evenodd;
      }
    </style>
  </defs>
  <path id="TELUS家庭優惠計劃_無限數據_節省更多_" data-name="TELUS家庭優惠計劃 無限數據 節省更多 " class="cls-1" d="M96.821,248.4H67.132v3.952H79.715v33.069h4.524V252.348H96.821V248.4Zm29.64,3.952V248.4H100.723v37.021h25.53v-3.952H105.091V268.1h19.29V264.15h-19.29v-11.8h21.37Zm9.05,29.117V248.4h-4.368v37.021h22.982v-3.952H135.511Zm35.255,4.731c9.255,0,14.559-5.251,14.559-14.506V248.4h-4.368V271.69c0,7.279-3.744,10.555-10.191,10.555s-10.191-3.276-10.191-10.555V248.4h-4.368V271.69C156.207,280.945,161.511,286.2,170.766,286.2Zm34.372,0.052c8.891,0,13.883-4.315,13.883-10.867,0-5.355-3.016-8.683-11.543-10.555L204.2,264.1c-6.967-1.559-8.683-3.327-8.683-6.863,0-3.484,2.755-5.719,8.111-5.719,7.383,0,9.619,2.859,9.983,7.643h4.472c-0.156-6.032-3.536-11.595-14.455-11.595-7.695,0-12.635,3.744-12.635,9.671,0,6.759,4.94,9.307,11.231,10.711l3.276,0.728c6.551,1.456,9,3.172,9,6.707,0,4.576-3.432,6.916-9.359,6.916-6.032,0-10.763-2.236-10.867-9.1h-4.524C189.851,282.453,196.3,286.248,205.138,286.248Zm62.141-37.959H249.7a19.3,19.3,0,0,0-3.146-4.056,17.874,17.874,0,0,0-3.458-2.756l-3.276,2.444a38.249,38.249,0,0,1,4.082,3.276,7.571,7.571,0,0,1,.858,1.092H225.991v9.672h4l-0.052-5.98h33.332v5.772h4v-9.464Zm2.5,33.436a14.486,14.486,0,0,1-4.5-2.808,24.43,24.43,0,0,1-3.978-4.628,20.507,20.507,0,0,1-2.652-5.408,38.06,38.06,0,0,0,5.772-5.2l-3.016-2.652q-4.992,5.979-9.62,7.488a13.721,13.721,0,0,0-2.106-3.3,12.258,12.258,0,0,0-2.782-2.522,37.388,37.388,0,0,0,4.992-3.328h9.568v-3.692H232.127l-0.052,3.744,13.1,0.052q-6.448,3.9-18.928,5.876l2.7,3.432a45.392,45.392,0,0,0,14.092-4.108,15.608,15.608,0,0,1,2.6,1.768,34.367,34.367,0,0,1-4.836,2.86,36.79,36.79,0,0,1-6.89,2.522,75.067,75.067,0,0,1-8.658,1.742l2.756,3.38a39.247,39.247,0,0,0,10.53-2.548,48.388,48.388,0,0,0,9.23-4.992,21.388,21.388,0,0,1,1.4,3.016,34.377,34.377,0,0,1-10.92,6.318,71.834,71.834,0,0,1-14.04,3.406l2.86,3.588a84.334,84.334,0,0,0,8.658-2.106,54.035,54.035,0,0,0,7.9-3.042,28.781,28.781,0,0,0,6.37-4.108,43.435,43.435,0,0,1-.208,6.968,2.278,2.278,0,0,1-.572.988,2.881,2.881,0,0,1-.936.728,17.472,17.472,0,0,1-3.8-.338,43.476,43.476,0,0,1-4.94-1.326l1.612,4.628q6.708,1.248,9.1.364a4.492,4.492,0,0,0,2.314-1.794,10.079,10.079,0,0,0,1.222-4.5,29.9,29.9,0,0,0-.026-5.122,38.675,38.675,0,0,0-.754-5.122l2.5-1.04a31.157,31.157,0,0,0,2.132,4.654,25.442,25.442,0,0,0,3.978,5.33,16.174,16.174,0,0,0,5.538,3.9Zm7.644,6.4a23.116,23.116,0,0,0,4.914-8.84,39.116,39.116,0,0,0,1.378-10.816V250.473h37.544v-3.8H302.9l0.884-.884a18.173,18.173,0,0,0-3.8-3.068,16.134,16.134,0,0,0-4.316-1.872q-1.041,1.092-2.964,2.808,4.471,1.143,6.292,3.016H279.551v21.788a36,36,0,0,1-1.144,9.8,18.125,18.125,0,0,1-4.368,7.41Zm45.656-5.616q-10.14.519-18.72,0.208a22.446,22.446,0,0,1-3.9-.546,21.4,21.4,0,0,1-6.136-2.886q2.808-4.68,3.068-13.78h-6.448a31.292,31.292,0,0,0,3.328-3.77,37.862,37.862,0,0,0,2.964-4.394v-1.508l2.548,3.276q1.976,0.051,4.134-.1a31.277,31.277,0,0,0,3.51-.416v5.772h-8.736V268.1h8.736l-0.052,7.644H296.607v3.8h24.856v-3.8h-10.14V268.1h8.84v-3.8l-8.84.052v-6.448a39.715,39.715,0,0,0,8.892-3.432l-2.652-2.912q-6.813,3.951-20.332,3.692v-1.352H284.907v3.744h7.54a66.153,66.153,0,0,1-7.02,7.8V269.3h7.956a19.27,19.27,0,0,1-.676,3.536,21.347,21.347,0,0,1-1.3,3.432,29.347,29.347,0,0,1-3.38-5.928l-3.276,1.976a44.054,44.054,0,0,0,2.834,5.148,24.649,24.649,0,0,0,1.742,2.392,31.89,31.89,0,0,1-3.51,3.3A22.454,22.454,0,0,1,282,285.677l2.756,2.964a34.474,34.474,0,0,0,4.134-2.938,33.026,33.026,0,0,0,3.51-3.3,19.44,19.44,0,0,0,11.908,3.952l17.108,0.208Zm36.816-8.268a3.228,3.228,0,0,0,2.626-1.248,6.192,6.192,0,0,0,1.274-3.12,16.138,16.138,0,0,1,4.992,4.888l2.7-1.872a20.77,20.77,0,0,0-2.912-3.692h2.912l0.052-5.98h-4.108v-13.52h-9.984l0.468-1.508,14.924,0.052v-3.328H340.6v3.328h13.52l-0.78,1.456h-9.932v13.52h-3.9v6.448h3.744v-3.068l9.412-.052-0.988.884a9.947,9.947,0,0,1,2.288,1.04q0.987,0.624,2.08,1.43t1.508,1.118l2.7-2.08a11.774,11.774,0,0,0-3.536-2.392h11.024v2.028a6.686,6.686,0,0,0-1.716-1.2l-3.328,1.612-1.56-.52q-0.053.78-.13,1.43a2.555,2.555,0,0,1-.364,1.092,1.006,1.006,0,0,1-.91.442h-6.656a1.142,1.142,0,0,1-.91-0.39,0.937,0.937,0,0,1-.234-0.858v-2.5l-3.016.052q0.051,0.519.052,2.21a8.9,8.9,0,0,0,.156,2.158l0.416,1.092-1.092-.572a15.074,15.074,0,0,1-9,7.852l2.548,2.6a18.563,18.563,0,0,0,2.938-1.43,20.507,20.507,0,0,0,3.2-2.574,16.515,16.515,0,0,0,4.524,4.368,40.008,40.008,0,0,1-14.2,2.08l1.664,3.484a44.5,44.5,0,0,0,16.38-3.432,40.714,40.714,0,0,0,15.5,3.224l1.924-3.484a39.415,39.415,0,0,1-7.488-.416,28.885,28.885,0,0,1-5.98-1.4,16.457,16.457,0,0,0,2.938-2.184,37.665,37.665,0,0,0,2.99-2.964v-2.808l-15.652-.052a7.957,7.957,0,0,0,.572-1.248h8.58Zm3.692-16.9v1.508H347.307v-1.508h16.276Zm-16.276-4.368,16.276,0.052v1.508l-16.276-.052v-1.508Zm0,10.244v-1.456h16.276v1.456H347.307Zm-10.192,26V255.725q0.884-2.445,2.028-6.188t1.716-6.188L337.271,242a66.483,66.483,0,0,1-4.576,13.91,39.636,39.636,0,0,1-6.812,10.634l3.536,2.288a29.38,29.38,0,0,0,3.8-4.94v25.324h3.9Zm24.44-10.348q-0.312.207-1.17,0.806t-1.508.988a9.97,9.97,0,0,1-1.274.65q-0.624.26-1.2,0.468-0.312-.209-1.3-0.858t-1.664-1.144a5.694,5.694,0,0,1-1.092-1.014ZM345.7,267.633a16.348,16.348,0,0,1-3.3,3.016,18.172,18.172,0,0,1-2.938,1.56l2.652,2.86a17.514,17.514,0,0,0,6.188-5.46Zm54.86,1.664q-17,.156-20.54.1l2.132,4q8.58-.261,18.772-0.364l-2.7,1.82a17.449,17.449,0,0,1,7.592,6.6l3.38-2.288q-0.156-.261-0.65-0.962a17.073,17.073,0,0,0-1.352-1.638,11.223,11.223,0,0,0-1.82-1.612q-0.963-.676-2.08-1.326t-1.378-.806q9.36,0,16.588-.312a22.709,22.709,0,0,1,2.392,3.016l3.484-2.288a21.34,21.34,0,0,0-7.072-6.4h1.092l0.052-15.6-13.884-.052v-1.82h20.332v-3.744l-20.332-.052v-4.16h-4v4.212H380.327l-0.052,3.744,20.28,0.052V251.2l-13.728-.052V266.9l13.728-.052V269.3Zm0-6.24h-9.672v-2.444h9.672v2.444Zm4.056-2.392h9.672v2.392h-9.672v-2.392Zm-13.728-3.744v-2.028h9.672v2.028h-9.672Zm13.676-2.028h9.776v2.028h-9.776v-2.028Zm-0.052,14.2,0.052-2.236,7.9,0.1-1.3.78a14.683,14.683,0,0,0,2.548,1.2Zm-11.336,5.98v5.616a12.519,12.519,0,0,0,.416,3.016,5.982,5.982,0,0,0,1.664,2.08,4.626,4.626,0,0,0,2.392,1.04h8.372q4.107,0.156,5.3-.364a4.137,4.137,0,0,0,1.3-.884,4.672,4.672,0,0,0,.91-1.274,9.45,9.45,0,0,0,.546-1.4q0.207-.7.442-1.924t0.338-1.638a34.131,34.131,0,0,0-3.744-1.56,14.713,14.713,0,0,0-.442,2.054,11.178,11.178,0,0,1-.468,2.028,1.767,1.767,0,0,1-.624.858,3.076,3.076,0,0,1-.7.364H398.631a1.919,1.919,0,0,1-.858-0.624,1.764,1.764,0,0,1-.442-0.884v-6.5h-4.16Zm-11.336,9.776a22.4,22.4,0,0,0,5.9-3.016,17.306,17.306,0,0,0,4.446-4.472q-0.573-.521-2.808-2.184a20.726,20.726,0,0,1-10.608,6.5Zm44.616-1.3a20.473,20.473,0,0,0-3.822-4.42,22.047,22.047,0,0,0-5.954-3.536l-2.964,2.236a22.517,22.517,0,0,1,9.464,8.112Zm4.992-34.008v3.8h21.424v-3.8l-8.736-.1,0.832-.468q-1.2-3.952-5.668-7.592l-3.224,2.236a23.3,23.3,0,0,1,2.938,3.042,14.223,14.223,0,0,1,1.742,2.886h-9.308Zm30.368,39.208h3.952V261.289l12.168-.052v-3.744H465.815l-0.052-15.444L461.811,242l0.052,15.5H451v3.744l10.816,0.052v27.456Zm-12.168-.988V270.7l-14.612.052v17.056l3.9-.052v-2.5h6.76l0.052,2.5h3.9Zm-3.952-6.292h-6.76V274.5l6.76-.052v7.02Zm5.044-25.324h-16.9v3.848l16.9-.052v-3.8Zm-16.8,10.712h16.692v-3.8H433.887Zm79.768,16.224v-12.74H488.955v12.74h24.752Zm-3.9-9.464v1.508h-6.6v-1.508h6.6Zm-10.3,1.508h-6.6v-1.508h6.6v1.508Zm10.3,3.068v1.456l-6.552.052-0.052-1.508h6.6Zm-16.848,0h6.6l0.052,1.508h-6.708ZM517.087,265.4l-13.936.052v-1.56h10.972v-3.172l-10.972-.052v-1.248l10.452,0.052v-5.2h3.432v-3.432H513.6v-4.888l-10.452-.052v-3.484H499.2v3.536h-9.828v3.38l9.828-.052v1.56l-13.676-.052v3.484H499.2v1.82h-9.776v3.38l9.776-.052-0.052,1.3H488.435v3.172H499.2v1.56H484.431v3.224h32.656V265.4Zm-7.436-14.612-6.5.052-0.052-1.56h6.552v1.508Zm-6.5,3.484h6.5v1.82l-6.5-.052v-1.768Zm21.112-11.648v40.716a1.419,1.419,0,0,1-.338.962,1.313,1.313,0,0,1-.91.442,13.868,13.868,0,0,1-2.99.026q-2.315-.13-2.47-0.13l1.4,4.056q0.884-.052,3.38-0.052a8.111,8.111,0,0,0,3.744-.676,4.685,4.685,0,0,0,1.4-1.326,3.217,3.217,0,0,0,.728-1.95V242.621h-3.952Zm-6.344,35.308,3.9-.052,0.052-30.316h-3.952v30.368Zm-31.72,10.92,31.044-1.872V283.7l-33.072,1.56ZM89.544,318.481a31.057,31.057,0,0,0,5.616-4.628v5.72l-5.98-.052v3.848h5.928v8.008H87.776l-0.052,3.8h44.252l-0.052-3.848H125.58v-7.9h4.888v-3.9l-4.888.052v-7.8h4.732l-0.052-3.848H100.1a49.073,49.073,0,0,0,2.652-4.628L98.8,301.789q-4.941,9.1-12.012,13.676Zm23.3,12.844h-4.992l-0.052-7.956h5.044v7.956Zm8.84-11.752h-4.888v-7.8h4.888v7.8Zm-13.78-.052v-7.748h4.992v7.748H107.9Zm13.78,3.848-0.052,8.008h-4.836v-8.008h4.888ZM103.9,319.521H99.112l0.052-7.748H103.9v7.748Zm-0.052,11.8H99.112l0.052-7.9,4.732-.052ZM89.8,348.693a50.562,50.562,0,0,0,5.434-6.214,20.3,20.3,0,0,0,2.366-4.446l-3.068-1.976a32.254,32.254,0,0,1-8.216,10.3Zm31.98-10.452a22.152,22.152,0,0,1,4.472,4.524,33.493,33.493,0,0,1,3.536,5.824,12.521,12.521,0,0,0,2.028-.962q1.248-.7,1.612-0.91a29.093,29.093,0,0,0-8.476-10.4Zm-1.768,8.112a31.906,31.906,0,0,0-5.564-9.62,19.151,19.151,0,0,0-2.106.65q-1.222.441-1.638,0.6a27.631,27.631,0,0,1,5.356,9.724Zm-20.436-8.06a20.65,20.65,0,0,1,3.094,4.42,28.4,28.4,0,0,1,2,5.252l3.9-1.4a28.069,28.069,0,0,0-2.6-5.9,22.366,22.366,0,0,0-2.808-3.666Zm85.228,7.072a21.832,21.832,0,0,1-5.59-3.25,16.017,16.017,0,0,1-3.978-4.5q4.524-3.329,6.266-4.862t2.574-2.314l-2.964-2.7-7.54,6.656a18.1,18.1,0,0,1-1.274-3.328,38.136,38.136,0,0,1-.754-4.16l8.788-.052-0.052-22.308h-22v37.44a3.36,3.36,0,0,1-.728,2.288,5.744,5.744,0,0,1-1.768,1.352q0.727,0.624,1.95,1.586t1.326,1.014l11.128-4.888v-3.952q-0.468.207-3.666,1.456t-4.342,1.82l0.052-15.652,5.408-.052a29.664,29.664,0,0,0,1.872,8.32,25.323,25.323,0,0,0,5.2,7.956,20.6,20.6,0,0,0,7.7,5.408ZM162.24,308.289h14.144v5.356H162.24v-5.356Zm13.988,14.768-13.988.1v-5.72l14.092-.052Zm-20.02-14.82v-3.848H141.6l0.052,44.512,3.848-.1v-40.56l6.5,0.052q-1.041,3.38-4.576,11.6,4.472,3.951,5.3,7.9a5.335,5.335,0,0,1-.026,2.834,3.428,3.428,0,0,1-1.066,1.638,2.847,2.847,0,0,1-.572.312,2.94,2.94,0,0,1-.832.208,4.061,4.061,0,0,1-1.014-.026q-0.546-.078-3.042-0.6l0.936,4.316q3.536,0.519,5.044-.156a6.18,6.18,0,0,0,2.808-1.976,6.774,6.774,0,0,0,1.612-3.12,12.43,12.43,0,0,0,.1-3.926,10.427,10.427,0,0,0-1.482-4.03,19.8,19.8,0,0,0-3.354-4.056Zm67.444-6.136a54.638,54.638,0,0,1-1.352,11.778,24.148,24.148,0,0,1-4.212,9.126v-1.092H208.52l-0.052-1.768,9.464,0.052,0.052-5.772h3.12v-3.536h-3.12l-0.052-5.2H208.52l-0.052-3.484-3.9.052v3.432h-9.412v5.2h-3.744l0.052,3.536h3.692V320.2l9.412-.052v1.768h-9.36v8.476h9l-1.56,2.392-10.5.052-0.052,3.64h7.956a12.087,12.087,0,0,1-1.482,1.768q-1.014,1.04-3.042,3.016a29.818,29.818,0,0,1,7.644,1.3q-3.693,1.976-12.064,2.86l1.612,3.588a35.164,35.164,0,0,0,15.028-4.992q0.519,0.26,2.5,1.274t3.016,1.612l1.4,0.806,2.184-3.172q-4.161-2.237-5.824-2.964a14.142,14.142,0,0,0,3.952-5.148l6.292,0.052v-3.64l-13.988-.052,0.78-1.4-2.236-.988h12.272V325.4l2.08,1.4a14.361,14.361,0,0,0,.962-1.378q0.649-1.014.91-1.378a65.05,65.05,0,0,0,3.276,11.96,40.764,40.764,0,0,1-4.238,6.474A24.037,24.037,0,0,1,217.1,346.3l2.6,2.652a34.284,34.284,0,0,0,4.342-4.394,38,38,0,0,0,3.2-4.706,28.493,28.493,0,0,0,7.9,9.2l2.7-2.86a26.9,26.9,0,0,1-5.018-4.706,25.4,25.4,0,0,1-3.51-5.486q3.692-7.593,4.524-20.28h2.5v-3.8h-9.932a36.853,36.853,0,0,0,.78-9Zm-19.084,6.916v1.872H198.9l0.052-1.924Zm9.672-.052v1.924h-5.72v-1.924h5.72Zm0,7.9-5.772.052,0.052-2.5h5.72v2.444Zm-9.672-2.444v2.444l-5.616-.052-0.052-2.392h5.668Zm9.776,12.74H208.52l-0.052-2.028h5.876v2.028Zm-15.34,0v-2.028l5.616-.052-0.052,2.08H199Zm3.692,11.648,2.028-2.392,5.98,0.052a12.8,12.8,0,0,1-3.276,3.588Zm27.508-23.14a48.865,48.865,0,0,1-.936,8.814,66.841,66.841,0,0,1-1.872,6.838q-0.261-.729-0.6-1.846t-0.728-2.808q-0.39-1.69-.806-4.29t-0.624-3.588q0.156-.573.546-1.69t0.494-1.43H230.2Zm43.732,4.94a1.167,1.167,0,0,1-1.352-1.4l8.684-.884v-3.276l-8.684.832v-1.872h10.972q-0.052.207-.416,1.248t-0.546,1.69q-0.183.649-.234,0.858l3.536,0.832q1.455-4.317,1.794-5.8a20.788,20.788,0,0,0,.442-2.574h-15.6V308.5l11.908-.052v-3.12l-11.908-.052v-2.808h-3.9l-0.052,7.8H258.7v15.86q0,8.736-1.4,13.1a21.078,21.078,0,0,1-4.056,7.436l3.38,2.392q5.979-7.8,5.98-18.876l0.052-16.12h5.98L268.58,316.3l-5.1.416,0.052,3.484,5.252-.676a6.665,6.665,0,0,0,.312,1.924,3.419,3.419,0,0,0,1.378,1.664,3.674,3.674,0,0,0,2.054.676h11.024v-3.12Zm-20.436,9.2,4.368-1.924v-4l-4.316,1.924v-9.36h4.212v-3.8H253.5l-0.052-10.088h-3.9l0.052,10.14h-5.46l0.052,3.744h5.356v11.076l-7.124,3.12,2.392,3.016,4.784-2.028v12.272a1.527,1.527,0,0,1-.364,1.04,1.247,1.247,0,0,1-.988.416q-2.184,0-4.472-.156l1.664,3.744h1.586q1.117,0,2-.078a6.5,6.5,0,0,0,1.716-.39,4.459,4.459,0,0,0,2.158-1.508,3.916,3.916,0,0,0,.65-2.288Zm36.14,13.156a10.89,10.89,0,0,1-3.874-3.328,10.769,10.769,0,0,1-1.846-4.368,26.274,26.274,0,0,0,2.158-1.95q0.546-.6.962-1.118l-2.652-2.6a23.6,23.6,0,0,1-2.86,2.7,12.257,12.257,0,0,1-2.964,1.82,16.963,16.963,0,0,0-2.444-3.12q2.652-1.509,3.224-1.95t0.728-.6l6.916-.052,0.052-3.38H263.952v3.38l10.036,0.1q-3.588,1.976-11.232,2.964l2.08,3.12a44.967,44.967,0,0,0,8.164-2.08,2.627,2.627,0,0,1,.468.494q0.312,0.39.364,0.442a21.917,21.917,0,0,1-5.1,2.548,49.539,49.539,0,0,1-6.76,1.82l2.288,2.912a44.738,44.738,0,0,0,5.46-1.612,34.136,34.136,0,0,0,5.876-2.912l0.624,1.3a26.535,26.535,0,0,1-6.864,3.926,49.554,49.554,0,0,1-7.644,2.054l2.288,2.86a41.807,41.807,0,0,0,7.072-2.236,43.4,43.4,0,0,0,6.084-3.328,9.84,9.84,0,0,1,.078,3.588,1.806,1.806,0,0,1-.65.936,6.338,6.338,0,0,1-3.354.078q-2.211-.39-3.042-0.442l1.3,3.64q0.156,0,1.976.1a14.379,14.379,0,0,0,2.964-.078,6.511,6.511,0,0,0,2.028-.65,4.357,4.357,0,0,0,2.132-3.3,19.978,19.978,0,0,0-.624-7.1l0.884-.52q1.611,6.4,6.24,8.528Zm24.492,5.772q1.56-.885,15.028-5.616,0.519,0.884,1.456,2.652t1.092,2.08q1.351-.624,3.536-1.924a43.426,43.426,0,0,0-4.16-6.812,22.9,22.9,0,0,0-3.744-3.8l-3.484,1.924a16.078,16.078,0,0,1,3.12,3.016l-9.932,3.276v-8.736h15.184V317.025H313.092l0.052,25.636a3.4,3.4,0,0,1-.624,2.21,4.344,4.344,0,0,1-1.508,1.17Zm14.144-28.028,0.052,3.172-11.336-.052v-3.12h11.284Zm0,6.812v3.588H317.044v-3.588h11.232Zm4.888-17.108,0.052-3.744-13.988.052c0.034-.07.138-0.364,0.312-0.884s0.329-1.006.468-1.456,0.242-.815.312-1.092l-3.588-1.352a23.029,23.029,0,0,1-7.8,13.052L312,317.6a24.518,24.518,0,0,0,3.51-3.64,17.869,17.869,0,0,0,2.366-3.536h3.8a25.7,25.7,0,0,1,3.536,5.928l0.78-.338q0.416-.183,2.7-1.43a19.125,19.125,0,0,0-2.756-4.16h7.228Zm22.308-.156v-3.692l-15.34-.052q0.519-1.769.884-3.536l-3.536-1.3a22.493,22.493,0,0,1-2.678,6.942,18.437,18.437,0,0,1-5.018,5.486l3.328,2.652a19.686,19.686,0,0,0,5.408-6.5h4.524a22.973,22.973,0,0,1,3.276,5.824,9.065,9.065,0,0,0,1.014-.416q0.546-.261,1.378-0.754t1.144-.65a28.905,28.905,0,0,0-2.6-4h8.216Zm-7.28,10.3,0.052,15.028a1.4,1.4,0,0,1-.39.988,1.184,1.184,0,0,1-1.014.364l-5.772-.312,1.716,4.056q0.78-.053,3.25,0a11.129,11.129,0,0,0,3.354-.26,6.2,6.2,0,0,0,1.794-1.2,3.01,3.01,0,0,0,.78-1.482,7.025,7.025,0,0,0,.182-1.378v-19.5l-16.38-.052V348.8h3.952l-0.052-28.236h8.528Zm14.924,5.772q4.16-.312,9.412-1.2v23.92l3.9-.052v-3.016h20.02v2.756l3.9-.052V321.809l-15.808-.1a26.112,26.112,0,0,0,6.708-3.64,42.108,42.108,0,0,0,5.512-4.732l-2.912-2.6a33.885,33.885,0,0,1-7.358,5.642,42.628,42.628,0,0,1-10.218,3.978,75.311,75.311,0,0,1-15.08,2.08Zm13.364,6.084h19.968v3.12h-20.02Zm-0.052-6.812H396.4l0.052,3.276-20.02.052v-3.328ZM396.4,339.021l0.052,3.172-19.968-.052-0.052-3.12H396.4ZM377,312.657l1.092,3.848,4.212,0.052a4.354,4.354,0,0,0,2.964-.806,2.9,2.9,0,0,0,1.04-2.366l-0.052-11.076h-3.9l-0.052,9.464a1.006,1.006,0,0,1-.988,1.2Zm-0.624-7.852a38.015,38.015,0,0,1-13.572,9.88l3.224,3.068a39.854,39.854,0,0,0,13.156-10.3Zm30.888,10.14a47.83,47.83,0,0,0-4.81-4.758,28.515,28.515,0,0,0-4.81-3.38,26.5,26.5,0,0,0-4.212-1.9l-3.016,2.7q7.28,2.547,13.52,10.088Zm53.2,29.744q-4.836-.1-10.166-0.7a88.509,88.509,0,0,1-9.386-1.508,25.023,25.023,0,0,1-6.344-2.158,15.54,15.54,0,0,0,2.184-3.926,19.808,19.808,0,0,0,1.2-4.6h15.184v-19.24H438.672v-3.848l20.124,0.052v-3.692H414.44v3.692l20.384-.052v3.848H419.9l-0.052,19.24h14.144a16.589,16.589,0,0,1-1.066,3.432,14.327,14.327,0,0,1-1.794,3.12,61.526,61.526,0,0,1-7.592-5.928l-3.016,2.028a35.478,35.478,0,0,0,7.54,6.656,45.212,45.212,0,0,1-7.826,2.938,70.8,70.8,0,0,1-7.306,1.638l2.34,3.484a36.541,36.541,0,0,0,14.924-4.94l1.612-1.092a48.6,48.6,0,0,0,9.932,3.458,94.493,94.493,0,0,0,16.276,2.106Zm-11.128-24.44H438.724l0.052-4h10.556v4Zm-25.584-4,11.076,0.052v3.952H423.748v-4Zm25.636,7.7v4.108H438.36l0.26-4.108h10.764Zm-25.636,0H434.72l-0.208,4.108L423.748,328v-4.056Zm51.532,13a96.212,96.212,0,0,0,10.53-5.148,41.7,41.7,0,0,0,5.9-4.212h13.312a21.931,21.931,0,0,1-2.418,3.354,22.555,22.555,0,0,1-3.8,3.458,42.531,42.531,0,0,1-5.07,3.172,16.216,16.216,0,0,0-5.356-5.668l-3.744,2.132a18.6,18.6,0,0,1,5.72,5.2q-8.373,3.639-23.3,6.136l2.6,3.588a140.5,140.5,0,0,0,15.132-3.432,64.535,64.535,0,0,0,9.178-3.614,38.658,38.658,0,0,0,7.462-4.732,31.1,31.1,0,0,0,5.226-5.278,35.957,35.957,0,0,0,3.094-4.784l0.052-3.484-14.04-.052a23.846,23.846,0,0,0,2.756-3.692l-3.068-1.664a43.495,43.495,0,0,0,7.332-7.384v-3.484H488.124a38.221,38.221,0,0,0,3.8-4.16l-3.64-1.924q-7.125,8.683-20.072,12.584l3.432,3.224a55.452,55.452,0,0,0,11.388-5.772h14.3a49.454,49.454,0,0,1-4.836,4.056,46.139,46.139,0,0,1-5.512,3.328A20.713,20.713,0,0,0,484.2,315.8a16.579,16.579,0,0,0-3.042-2.262l-3.64,2.34q4.315,2.34,5.824,4.368a59.846,59.846,0,0,1-7.254,2.392q-4.863,1.351-8.97,2.288l2.5,3.484a104.67,104.67,0,0,0,15.288-4.654,63.46,63.46,0,0,0,9.724-4.81,36.629,36.629,0,0,1-9.282,8.4,66.2,66.2,0,0,1-13.078,6.266Z"/>
</svg>
