<svg xmlns="http://www.w3.org/2000/svg" width="320" height="50" viewBox="0 0 320 50">
  <defs>
    <style>
      .cls-1 {
        fill: #4b286d;
        fill-rule: evenodd;
      }
    </style>
  </defs>
  <path id="携手让所有人紧密连接_" data-name="携手让所有人紧密连接 " class="cls-1" d="M45.532,26.211V25.043H41.867V24.4H44.6V23.235H41.867V22.611H44.6V21.443h-2.72l-0.016-.624h3.169V19.651H41.851a4.027,4.027,0,0,0-.464-0.848,7.075,7.075,0,0,0-.72-0.88,11.957,11.957,0,0,0-1.216.544,8.427,8.427,0,0,1,1.2,1.184H38.315a9.079,9.079,0,0,0,.336-1.328,8.429,8.429,0,0,0-1.072-.448,10.42,10.42,0,0,1-.72,2.224,9.461,9.461,0,0,1-.928,1.664l0.016-.608h-1.36V18.163H33.37v2.992H31.434v1.168H33.37v3.36Q33,25.86,32.1,26.227l-1.1.448,0.9,0.912,1.472-.608v3.936a0.313,0.313,0,0,1-.272.288H31.706q0.064,0.176.208,0.592t0.24,0.624a8.9,8.9,0,0,0,1.36-.032,1.665,1.665,0,0,0,.744-0.488,1.118,1.118,0,0,0,.328-0.76V26.387l1.52-.688q0-.16.016-0.568a4.775,4.775,0,0,0-.016-0.7l-1.52.64V22.323H35.4l-0.56.512,0.976,0.816a6.679,6.679,0,0,0,.928-0.912v3.472h8.785Zm-2.72,2.608a6.064,6.064,0,0,0,.512-0.9V26.9h-7.2v1.168h2.144a4.186,4.186,0,0,1-.3,1.184,3.159,3.159,0,0,1-.592.9,3.053,3.053,0,0,1-.952.664,8.923,8.923,0,0,1-1.736.528l0.8,1.1a7.181,7.181,0,0,0,2.144-.928,3.777,3.777,0,0,0,.856-0.776,3.924,3.924,0,0,0,.68-1.224,4.977,4.977,0,0,0,.288-1.456H41.9a4.613,4.613,0,0,1-.768.928v0.992h2.688q-0.016.08-.04,0.368a1.616,1.616,0,0,1-.088.448,0.751,0.751,0,0,1-.16.256,0.492,0.492,0,0,1-.264.128,1.651,1.651,0,0,1-.52-0.024,3.96,3.96,0,0,0-.448-0.056q-0.24-.048-1.5-0.368l0.384,1.312q0.032,0,.936.16a3.845,3.845,0,0,0,1.416.048,1.767,1.767,0,0,0,.816-0.384,1.569,1.569,0,0,0,.2-0.208,1.825,1.825,0,0,0,.272-0.528A4.9,4.9,0,0,0,45,29.859q0.048-.912.064-1.04H42.811Zm-2.16-7.376H37.963V20.819h2.688v0.624Zm0,1.792H37.963V22.611h2.688v0.624Zm0,1.808H37.963V24.4h2.688v0.64ZM60.99,27.251V26.083H55.1V23.651h4.577V22.483H55.1V20.115a22.209,22.209,0,0,0,5.185-1.264l-0.672-.912a24.175,24.175,0,0,1-5.329,1.1,46.4,46.4,0,0,1-6.1.288l0.72,1.184q3.68-.1,4.977-0.256v2.224H49.068v1.168h4.817v2.432H47.74v1.168h6.145v3.36a0.513,0.513,0,0,1-.56.56q-0.416.016-2.016-.128l0.448,1.312h2.208a1.072,1.072,0,0,0,1.136-1.28V27.251H60.99Zm16.258,4.368V30.531H72.335v-6h4.1V23.363h-4.1V18.179H71.183V30.531H67.327v1.088h9.921ZM68.063,20.771a6.286,6.286,0,0,0-2.384-2.3l-0.944.656a4.829,4.829,0,0,1,1.272,1.008,5.41,5.41,0,0,1,.984,1.408Zm1.7,8.128-0.032-1.264q-0.48.224-1.52,0.72t-1.472.688v-6.9h-3.3v1.168h2.144v6.176a0.177,0.177,0,0,1-.1.144,1.342,1.342,0,0,1-.264.128q-0.168.064-.216,0.08L65.806,31ZM93.73,24.1V22.931H88.369v-2.24a12.557,12.557,0,0,0,4.9-1.936l-0.944-.944q-0.5.32-1.3,0.728a11.237,11.237,0,0,1-1.864.728,9.894,9.894,0,0,1-2.056.4v5.376a12.346,12.346,0,0,1-.256,2.576,8.474,8.474,0,0,1-.784,2.2,7.053,7.053,0,0,1-1.36,1.8l1.152,0.7q0.016-.016.456-0.536a5.7,5.7,0,0,0,.6-0.808,12.612,12.612,0,0,0,1.44-5.328q0.016-.208.016-0.768A6.408,6.408,0,0,1,88.4,24.1h1.9v8.192h1.216V24.1H93.73Zm-7.777-6.24a11.388,11.388,0,0,1-4.833,1.5v6.7a8.308,8.308,0,0,1-1.952,5.664l1.072,0.72A8.456,8.456,0,0,0,81.625,30.2a13.42,13.42,0,0,0,.776-3.56h3.648V21.571H82.385V20.387a13.1,13.1,0,0,0,4.5-1.616Zm-1.12,7.616H82.385v-2.7L84.833,22.8v2.672Zm24.531-4.288V20.019h-8.145q0.384-1.312.528-1.984l-1.232-.272a22.121,22.121,0,0,1-.624,2.256H96.083v1.168h3.36a10.645,10.645,0,0,1-1.64,2.9,20.911,20.911,0,0,1-2.7,2.856l1.12,0.736q1.456-1.488,1.944-2.048a10.611,10.611,0,0,0,.76-0.96v7.632H100.2V28.931h6.017v1.584a0.263,0.263,0,0,1-.08.192,0.282,0.282,0,0,1-.208.08,11.826,11.826,0,0,1-2.016-.08q0.144,0.368.56,1.232h0.92a6.38,6.38,0,0,0,1.208-.08,1.385,1.385,0,0,0,.568-0.4,1.073,1.073,0,0,0,.264-0.608V22.675h-7.249a15.883,15.883,0,0,0,.576-1.488h8.609Zm-3.152,3.952H100.2v-1.3h6.017v1.3Zm0,2.624H100.2V26.307h6.017v1.456ZM125.479,31a11.833,11.833,0,0,1-2.657-1.552A10.525,10.525,0,0,1,120.79,27.3a14.8,14.8,0,0,1-1.648-3.12,1.989,1.989,0,0,0-.088-0.192,1.042,1.042,0,0,1-.1-0.272,1,1,0,0,1-.008-0.288,45.713,45.713,0,0,0,.24-5.056h-1.281c0,0.181,0,.523-0.008,1.024s-0.013.963-.024,1.384-0.034.9-.072,1.44a11.488,11.488,0,0,1-.24,1.656,6.564,6.564,0,0,1-.5,1.5,10.063,10.063,0,0,1-1.144,1.9,15.047,15.047,0,0,1-1.48,1.592,16.43,16.43,0,0,1-2.912,2.176l0.96,0.944a13.979,13.979,0,0,0,2.656-1.9,13.421,13.421,0,0,0,2.136-2.384,9.126,9.126,0,0,0,1.145-2.12,13.033,13.033,0,0,0,1.664,2.9,11.24,11.24,0,0,0,1.984,1.984,16.984,16.984,0,0,0,2.48,1.56Zm15.874-8.736a11.521,11.521,0,0,1-2.961-.848,7.412,7.412,0,0,0,1.937-1.872V18.6H133.08v1.152h1.3a7.282,7.282,0,0,0,1.664,1.616,3.385,3.385,0,0,1-.552.24q-0.36.128-2.232,0.608l0.96,0.992a13.789,13.789,0,0,0,2.992-1.072,12.6,12.6,0,0,0,3.3,1.264ZM139.961,28a7.226,7.226,0,0,0-2.689-2.688L136.3,26a3.789,3.789,0,0,1,.992.688l-5.441.64a14.61,14.61,0,0,0,1.889-.744,15.305,15.305,0,0,0,2.208-1.272,14.739,14.739,0,0,0,1.84-1.456l-1.1-.72q-0.641.576-1.76,1.408l-3.073.256a9.921,9.921,0,0,0,1.409-.952q0.384-.344.656-0.632l-0.88-.88-0.577.576V17.923H131.3v5.2l0.9,0.032a11.137,11.137,0,0,1-2.752,1.856l0.544,1.2,3.329-.528q-1.665.8-2.633,1.168t-1.816.608l0.672,1.36q2.272-.416,4.161-0.608v2.32c0,0.043,0,.136.008,0.28a0.5,0.5,0,0,1-.04.28,0.168,0.168,0,0,1-.144.064,6.422,6.422,0,0,1-.776-0.08L132.263,31a0.986,0.986,0,0,0-.144-0.016l0.561,1.248h1.072a1.761,1.761,0,0,0,.736-0.36,1.142,1.142,0,0,0,.432-0.632V28.1l3.152-.464q0.017,0.032.24,0.32c0.15,0.192.272,0.357,0.368,0.5s0.171,0.251.224,0.336Zm0.752,2.768a12.982,12.982,0,0,0-4.433-2.464l-0.7.944a11.333,11.333,0,0,1,2.288.992,13.044,13.044,0,0,1,2.049,1.472Zm-11.33-6.784V18.6h-1.152v5.392h1.152Zm3.024,4.528a14.861,14.861,0,0,1-4.672,2.224l0.832,1.04a16.223,16.223,0,0,0,2.472-1.032,10.653,10.653,0,0,0,2.121-1.368Zm6.241-8.768a5.855,5.855,0,0,1-1.472,1.04,4.272,4.272,0,0,1-.736-0.48,7.32,7.32,0,0,1-.64-0.56h2.848ZM157.5,26.131a11.609,11.609,0,0,0-1.136-1.6A7.886,7.886,0,0,0,155,23.2l-0.961.672a7.974,7.974,0,0,1,2.433,3.056Zm-0.624-3.248V19.539H151.53a3.478,3.478,0,0,0-.808-0.832,7.06,7.06,0,0,0-1.224-.784l-1.008.832a3.825,3.825,0,0,1,1.456.784h-5.857v3.344h1.216V20.707h10.354v2.176h1.216Zm-5.265-.208a5.609,5.609,0,0,0-.984-1.048,3.431,3.431,0,0,0-1.288-.7l-0.816.7a7.762,7.762,0,0,1,1.5.992,3.268,3.268,0,0,1,.776.9Zm2.5-1.36a18.868,18.868,0,0,1-5.3,3.776V22.627h-1.216v3.04a27.125,27.125,0,0,1-4.145,1.392l0.736,1.04a34.257,34.257,0,0,0,3.745-1.328,1.688,1.688,0,0,0,.56.456,1.555,1.555,0,0,0,.752.2h2.96a1.945,1.945,0,0,0,.992-0.184,1.361,1.361,0,0,0,.464-0.5,8.439,8.439,0,0,0,.544-1.888q-0.015-.016-0.456-0.184t-0.68-.232a9.47,9.47,0,0,1-.224,1.24,2.08,2.08,0,0,1-.144.344,0.469,0.469,0,0,1-.4.24h-2.72q-0.641,0-.512-0.064a29.6,29.6,0,0,0,3.7-2.208,14.4,14.4,0,0,0,2.161-1.92Zm-7.905.912a6.473,6.473,0,0,1-2.448,2.96L144.665,26a8.213,8.213,0,0,0,1.584-1.528,9.645,9.645,0,0,0,.961-1.56Zm9.49,10.016V28.259h-1.216v2.192h-3.457V27.7H149.8v2.752h-3.425V28.259h-1.216l-0.016,3.36h9.33v0.624h1.216Zm17.282-4.576V26.5h-4.225V24.931h3.009V23.763h-3.009V21.987h-1.216v1.776H165.6q0.4-.88.944-2.4h5.825V20.2h-5.441L167.34,18.8l-1.168-.5a10.49,10.49,0,0,1-.464,1.888h-2.384v1.168h2q-0.177.576-1.056,2.592v0.976h3.264V26.5h-4.368v1.168h4.368V30.4h1.216V27.667h4.225Zm-10.1-6.192a9.243,9.243,0,0,0-1-1.432,7.89,7.89,0,0,0-1.289-1.256l-0.912.784a9.178,9.178,0,0,1,2.209,2.608ZM173.5,30.707q-1.312.1-1.648,0.1h-5.281a8.037,8.037,0,0,1-1.344-.136,6.2,6.2,0,0,1-1.584-.512,4.344,4.344,0,0,1-1.3-.888V23.459h-3.057v1.168h1.84v4.512q-0.336.32-.728,0.656t-0.912.744q-0.52.408-.552,0.424l0.816,0.864q0.881-.7,1.953-1.712a5.186,5.186,0,0,0,2.048,1.352,6.693,6.693,0,0,0,2.416.5h6.641Zm16,0.576a16.123,16.123,0,0,0-3.376-1.824,12.875,12.875,0,0,0,.984-1.376,4.663,4.663,0,0,0,.328-0.688h1.744V26.243h-4.816q0.032-.064.208-0.408t0.288-.616l-0.96-.48h5.6V23.587h-3.1a7.2,7.2,0,0,0,1.44-2.352l-0.88-.432H188.9V19.651h-3.9l0.368-.352a5.724,5.724,0,0,0-2.1-1.488l-0.944.9a4.839,4.839,0,0,1,.944.456,4.533,4.533,0,0,1,.657.488h-3.665V20.8l1.856,0.048-0.992.448a8.209,8.209,0,0,1,1.184,1.288,3.773,3.773,0,0,1,.512,1h-2.992v1.152h3.825a9.348,9.348,0,0,1-.7,1.5h-2.768V27.4h2.048a12.283,12.283,0,0,1-1.68,2,23.169,23.169,0,0,1,3.233.56,5.792,5.792,0,0,1-1.809.744q-1.152.3-2.912,0.568l0.8,1.136q1.248-.24,2.288-0.536a10.849,10.849,0,0,0,1.833-.688,9.189,9.189,0,0,0,1.32-.776,11.7,11.7,0,0,1,3.36,1.856ZM180.382,26.1V24.883l-1.84.592v-3.04h1.68V21.283h-1.68V18.115h-1.216v3.168h-1.921v1.152h1.921v3.52l-2.161.72,0.768,1.008,1.393-.448v3.552a0.489,0.489,0,0,1-.112.28,0.371,0.371,0,0,1-.256.168,6.627,6.627,0,0,1-1.345,0l0.432,1.152c0.064,0,.241,0,0.529.008a5.076,5.076,0,0,0,.688-0.024,2.667,2.667,0,0,0,.416-0.08,1.165,1.165,0,0,0,.632-0.48A1.454,1.454,0,0,0,178.542,31V26.739Zm6.241-5.3a10.57,10.57,0,0,1-.88,1.672,3.816,3.816,0,0,1-1.024,1.112l-1.409-.016L184,23.315a5.147,5.147,0,0,0-1.713-2.512h4.337ZM186.111,27.4a3.5,3.5,0,0,1-.5.928,3.462,3.462,0,0,1-.68.736q-0.16-.032-0.92-0.224t-1.1-.256q0.336-.432.849-1.184h2.352Z"/>
</svg>
