<svg xmlns="http://www.w3.org/2000/svg" width="320" height="50" viewBox="0 0 320 50">
  <defs>
    <style>
      .cls-1 {
        fill: #4b286d;
        fill-rule: evenodd;
      }
    </style>
  </defs>
  <path id="我们为需要帮助的人_提供上网及手机补贴计划_" data-name="我们为需要帮助的人 提供上网及手机补贴计划 " class="cls-1" d="M52.413,9.787a7.79,7.79,0,0,0-1.568-1.16l-1.024.928a6.216,6.216,0,0,1,1.656,1.12,4.666,4.666,0,0,1,1.1,1.536,7.594,7.594,0,0,0,1.024-.88A5.23,5.23,0,0,0,52.413,9.787Zm0.64,8.648a9.106,9.106,0,0,1-.4,2.224q-0.064.176-.328-0.1a12.746,12.746,0,0,1-.888-1.16,7.271,7.271,0,0,1-.64-1.056,14.1,14.1,0,0,0,2.4-3.376L52.109,14.5a12.161,12.161,0,0,1-1.792,2.624,17.58,17.58,0,0,1-.64-3.056h4.145V12.851H49.564q-0.064-.784-0.1-2.312T49.42,7.955H48.188a47.845,47.845,0,0,0,.1,4.9H45.308V10.243q0.208-.08.568-0.264t1.848-1.048l-0.8-.912a19.5,19.5,0,0,1-2.1,1.016,10.507,10.507,0,0,1-1.864.536,12.977,12.977,0,0,1-2.288.208,10,10,0,0,1,.752,1.2,11.139,11.139,0,0,0,1.376-.144,6.832,6.832,0,0,0,1.248-.288v2.3h-3.28v1.216h3.28v2.672q-1.953.5-3.7,0.832l0.9,1.168,2.8-.752V20.6a0.406,0.406,0,0,1-.1.288,0.4,0.4,0,0,1-.264.128l-1.968-.048,0.448,1.248q0.224-.016.864,0a7.9,7.9,0,0,0,1-.024,2.581,2.581,0,0,0,.616-0.136,1.255,1.255,0,0,0,.672-1.1V17.635l2.48-.656V15.747l-2.48.624v-2.3H48.4a19.687,19.687,0,0,0,.9,4.016,15.251,15.251,0,0,1-3.616,2.32l1.072,0.9a16.992,16.992,0,0,0,3.1-2.016,8.69,8.69,0,0,0,1.728,2.176,2.7,2.7,0,0,0,1.056.648,1.708,1.708,0,0,0,.592.008,1.13,1.13,0,0,0,.528-0.56,9.847,9.847,0,0,0,.544-2.64Zm10.785-7.664a4.914,4.914,0,0,0-.816-1.392A4.928,4.928,0,0,0,61.9,8.307l-0.992.608a6.586,6.586,0,0,1,1.856,2.512Zm5.889-1.9H63.966v1.168h4.545v10.48a0.465,0.465,0,0,1-.048.256,0.214,0.214,0,0,1-.144.08l-1.824-.128,0.432,1.264a7.932,7.932,0,0,0,1.9-.048,1.063,1.063,0,0,0,.9-1.008V8.867ZM62.318,22.179V11.555H61.1V22.179h1.216ZM59.39,7.875a18.827,18.827,0,0,1-1.3,4.736,13.2,13.2,0,0,1-2.2,3.408l0.928,0.832a9.872,9.872,0,0,0,.848-1.032,7.473,7.473,0,0,0,.688-1.112v7.472h1.216V12.227a32.24,32.24,0,0,0,.944-4Zm17.7,2.816a7.878,7.878,0,0,0-2.08-2.128l-0.992.752A7.291,7.291,0,0,1,75.44,10.5a3.486,3.486,0,0,1,.608,1.008Zm5.537,7.2a9.233,9.233,0,0,0-2.192-3.264l-1.008.592a11.235,11.235,0,0,1,1.5,1.9,6,6,0,0,1,.616,1.44Zm-3.3-6.192V8l-1.216.032V11.7H72.687v1.168h5.425a12.481,12.481,0,0,1-.592,3.792,6.2,6.2,0,0,1-1.7,2.752,7.75,7.75,0,0,1-2.888,1.824l0.832,1.072a10.843,10.843,0,0,0,1.952-1.168,7.611,7.611,0,0,0,1.6-1.52,8.938,8.938,0,0,0,1.248-2.3,10.392,10.392,0,0,0,.592-2.28q0.128-1.024.152-1.512t0.024-.664h4.209q-0.064,3.008-.256,5.032a16.207,16.207,0,0,1-.448,2.856,0.543,0.543,0,0,1-.432.3,4.442,4.442,0,0,1-1.1-.16q-0.744-.176-0.872-0.192l0.192,1.248a8.72,8.72,0,0,0,1.872.28,1.458,1.458,0,0,0,.752-0.2,1.65,1.65,0,0,0,.512-0.456A1.531,1.531,0,0,0,84.049,21q0.208-.992.36-2.368t0.24-3.928q0.088-2.552.1-3H79.328Zm20.947,1.424V12.131H96.723v0.992h3.552Zm0,1.712V13.859H96.723v0.976h3.552Zm1.68-1.936-0.032-2.352H96.051v-0.7h4.977V8.675H89.794V9.843h5.041v0.7H89.01V13l1.136-.032V11.635h4.689v3.632h1.216V11.635h4.7V12.9h1.2Zm-7.841.288V12.211H90.546v0.976h3.568Zm0,1.648V13.859H90.546v0.976h3.568Zm8.145,1.712V15.459H88.642v1.088h6.145a4.95,4.95,0,0,1-.5,1.072h-4.5v4.768H90.93v-3.68h2.32v2.816h1.136V18.755l2.08-.032v2.8h1.216V18.707h2.176V20.6a0.283,0.283,0,0,1-.24.352,2.807,2.807,0,0,1-.712.016q-0.5-.032-0.648-0.032l0.4,1.168q0.128,0,.488.016a5.013,5.013,0,0,0,.64-0.008,1.809,1.809,0,0,0,.52-0.12A1.074,1.074,0,0,0,101.075,21V17.619H95.587a9.957,9.957,0,0,0,.384-1.072h6.288Zm16.083-6.608V8.771h-13.6V9.939h4.544v1.072L106,10.979v4.3h4.7l-1.169,1.248H104.9v1.1h3.552l-1.712,1.92q2.9,0.3,3.777.464a15.226,15.226,0,0,1-2.873.8,28.121,28.121,0,0,1-3.432.352l0.848,1.12a23.111,23.111,0,0,0,4.112-.656,13.03,13.03,0,0,0,3.313-1.264,24.844,24.844,0,0,1,2.432.864,25.468,25.468,0,0,1,2.448,1.136l0.865-.944a19.76,19.76,0,0,0-1.873-.976,19.2,19.2,0,0,0-2.544-.992,6.887,6.887,0,0,0,.872-0.816,7.426,7.426,0,0,0,.792-1.008h2.737v-1.1h-7.089L111.8,15.8l-0.656-.512h6.032v-4.3l-3.328.032V9.939h4.5Zm-2.417,4.176h-2.08V12.131h2.08v1.984ZM112.6,10.963h-2.064V9.939H112.6v1.024Zm0,3.152h-2.064V12.131H112.6v1.984Zm-3.313-1.984-0.032,1.984H107.2V12.131h2.08Zm4.737,5.5a6.45,6.45,0,0,1-1.728,1.424l-1.072-.192q-0.449-.08-1.129-0.16T109.22,18.6l0.88-.96h3.921ZM133.928,13.2a7.449,7.449,0,0,0-1.632-1.68l1.52-1.872V8.563h-4.737v7.344h1.152V9.731h2.081L130.807,11.7c0.086,0.064.256,0.195,0.512,0.392s0.48,0.379.672,0.544a3.935,3.935,0,0,1,.489.5,3.754,3.754,0,0,1,.328.472,0.7,0.7,0,0,1,.1.408,0.392,0.392,0,0,1-.224.328,3.186,3.186,0,0,1-1.121.088c-0.49-.027-0.768-0.04-0.832-0.04l0.512,1.28,0.992-.032a2.659,2.659,0,0,0,.825-0.16,1.8,1.8,0,0,0,.64-0.384,2,2,0,0,0,.376-0.48,1.518,1.518,0,0,0-.144-1.408h0Zm-1.264,2.928h-4.689V14.643h-1.216v1.488l-3.153-.032a2.877,2.877,0,0,0,1.152-1.824h3.649V13.107H125a2.989,2.989,0,0,0,.04-0.52c0-.261.008-0.4,0.008-0.424h2.432V11h-2.4v-0.96h2.672V8.867h-2.672v-0.9h-1.217v0.9h-3.024v1.168h3.024V11H121.3v1.168h2.56a3.767,3.767,0,0,1-.08.944H120.71v1.168h2.784a2.688,2.688,0,0,1-.936,1.184,7.841,7.841,0,0,1-2.312,1.1l0.688,1.184q0.992-.464,1.176-0.576a2.355,2.355,0,0,0,.28-0.192v3.984h1.216V17.3h3.153v4.848h1.216V17.3h3.536v2.016a0.255,0.255,0,0,1-.128.216,0.417,0.417,0,0,1-.288.072l-1.536-.128,0.464,1.344q0.16-.016.936-0.008a2.257,2.257,0,0,0,1.128-.2,1.214,1.214,0,0,0,.4-0.392,0.938,0.938,0,0,0,.176-0.52V16.131ZM150.2,11.443h-3.425l0.081-3.5h-1.249q0.016,1.392-.048,3.5h-2.288v1.168h2.24q-0.079,1.232-.3,3.008a5.73,5.73,0,0,1-.608,1.992,7.462,7.462,0,0,1-1.032,1.536,11.13,11.13,0,0,1-1.2,1.152,9.828,9.828,0,0,1-1.48,1l0.768,0.864,0.064,0.176a15.468,15.468,0,0,0,1.944-1.528,10.511,10.511,0,0,0,1.48-1.672,6.085,6.085,0,0,0,.528-0.9,8.576,8.576,0,0,0,.424-1.1,9.262,9.262,0,0,0,.32-1.44q0.12-.808.208-1.824t0.12-1.256h2.161q-0.336,6.144-1.136,7.84a0.67,0.67,0,0,1-.656.24,14.816,14.816,0,0,1-1.745-.4l0.144,1.328q0.177,0.032.88,0.176a3.6,3.6,0,0,0,1.033.1,3.521,3.521,0,0,0,.44-0.072,1.679,1.679,0,0,0,.864-0.6,2.358,2.358,0,0,0,.5-0.984,39.119,39.119,0,0,0,.8-5.7Zm-6.5,7.52V17.7l-1.008.368V8.819h-5.009v10.72l-1.456.432c0.053,0.064.171,0.219,0.352,0.464s0.325,0.453.432,0.624Zm-2.224-6.912h-2.513V9.987h2.513v2.064Zm0,3.36H138.9V13.235l2.577-.032v2.208Zm0,3.024-2.577.736V16.579h2.577v1.856Zm21.843-.592a12.013,12.013,0,0,0-.944-2,14.016,14.016,0,0,0-1.393-1.9L160,14.6a13.549,13.549,0,0,1,2.177,3.76Zm-2.145-7.28q0.065-.224.265-0.832t0.288-.96c0.058-.235.1-0.443,0.136-0.624l-1.281-.288a14.963,14.963,0,0,1-2.4,6.16V10.8h-2.448a10.618,10.618,0,0,0,.864-2.352l-1.152-.464a9.972,9.972,0,0,1-.976,2.816H153V21.891h1.265V20.6h2.656v1.04h1.264V14.5l0.832,0.528a13.114,13.114,0,0,0,1.856-3.36h3.409q-0.064,2.816-.192,4.392t-0.336,2.7a10.191,10.191,0,0,1-.528,1.888,0.613,0.613,0,0,1-.608.288,11.9,11.9,0,0,1-2.417-.672l0.208,1.344a15.793,15.793,0,0,0,2.1.5,2.805,2.805,0,0,0,.744,0,1.259,1.259,0,0,0,.752-0.472,2.791,2.791,0,0,0,.48-0.856,15.921,15.921,0,0,0,.52-2.064q0.2-1.088.28-2.064t0.12-1.84q0.04-.864.056-2.336t0.032-1.9h-4.321Zm-4.256,4.5h-2.656V11.971h2.656v3.088Zm0,4.368h-2.656v-3.2h2.656v3.2ZM182.478,21a11.826,11.826,0,0,1-2.656-1.552A10.5,10.5,0,0,1,177.79,17.3a14.8,14.8,0,0,1-1.648-3.12,1.989,1.989,0,0,0-.088-0.192,1.042,1.042,0,0,1-.1-0.272,1,1,0,0,1-.008-0.288,45.713,45.713,0,0,0,.24-5.056h-1.281c0,0.181,0,.523-0.008,1.024s-0.013.963-.024,1.384-0.034.9-.072,1.44a11.488,11.488,0,0,1-.24,1.656,6.564,6.564,0,0,1-.5,1.5,10.116,10.116,0,0,1-1.144,1.9,15.153,15.153,0,0,1-1.48,1.592,16.4,16.4,0,0,1-2.913,2.176l0.961,0.944a13.979,13.979,0,0,0,2.656-1.9,13.421,13.421,0,0,0,2.136-2.384,9.079,9.079,0,0,0,1.144-2.12,13.072,13.072,0,0,0,1.665,2.9,11.24,11.24,0,0,0,1.984,1.984,16.931,16.931,0,0,0,2.48,1.56ZM37,33.427V27.843H29.993v5.584H37Zm-1.136,6.248q-0.384.008-.928-0.032T34.2,39.571V37.923h3.153V36.755H34.2V35.363h4.049V34.2H29.337v1.168h3.649V39.3a5.494,5.494,0,0,1-1.2-.608,3.041,3.041,0,0,1-.752-0.656,11.434,11.434,0,0,0,.144-1.9l-1.2-.16a5.859,5.859,0,0,1-.4,2.808,4.168,4.168,0,0,1-1.648,1.944l0.832,0.9a4.665,4.665,0,0,0,1.048-.888,5.882,5.882,0,0,0,.872-1.432,5.559,5.559,0,0,0,1.976,1.088,8.1,8.1,0,0,0,2.424.4l3.313,0.032,0.48-1.248Q36.25,39.667,35.866,39.675Zm-6.4-8.216V30.291H27.737v-3.04H26.521v3.04H24.489v1.168h2.032v3.36a12.588,12.588,0,0,1-1.28.456l-1.1.344,0.8,1.024a15.217,15.217,0,0,0,1.584-.624v3.664a0.8,0.8,0,0,1-.048.416,0.3,0.3,0,0,1-.256.224,2.717,2.717,0,0,1-.8.024q-0.56-.04-0.8-0.04L25,41.475a6.158,6.158,0,0,0,1.824-.1,1.22,1.22,0,0,0,.656-0.448,1.127,1.127,0,0,0,.256-0.688V35.6l1.472-.656,0.032-1.3-1.5.672V31.459h1.728ZM35.786,30H31.21V29.011h4.577V30Zm0,2.256H31.21V31.171h4.577v1.088Zm18.643,3.9V35H52.141v-3.5h1.84V30.275h-1.84v-3.12H50.876v3.152l-2.96-.032v-3.12H46.7v3.152l-1.76-.032v1.216H46.7V35H44.443v1.168h9.985Zm-0.808,3.176a10.952,10.952,0,0,0-1.208-1.288,18.517,18.517,0,0,0-1.44-1.184l-1.024.72a14.16,14.16,0,0,1,2.112,1.832,10.92,10.92,0,0,1,1.584,2.12,6.435,6.435,0,0,0,.528-0.376,5.49,5.49,0,0,1,.48-0.344A12.227,12.227,0,0,0,53.621,39.339ZM44.091,26.963q-0.288.912-.808,2.152a18.776,18.776,0,0,1-1.368,2.608,14.092,14.092,0,0,1-1.84,2.392l1.04,0.736a12.9,12.9,0,0,0,1.312-1.632v8.352h1.216V31.251a32.44,32.44,0,0,0,1.584-3.76Zm3.584,9.792a13.615,13.615,0,0,1-3.456,3.936l0.928,0.9a13.236,13.236,0,0,0,3.569-4.16Zm3.2-1.76h-2.96V31.459l2.96,0.032V35Zm19.331,5.312V39.139h-6.9V33.251H68.8V32.083H63.31v-4.64H62.094v11.7H56.845v1.168H70.207Zm13.65-3.056A15.082,15.082,0,0,0,82,33.827a32.46,32.46,0,0,0,1.088-3.872l-1.1-.32a15.142,15.142,0,0,1-.44,1.824q-0.28.912-.312,1.04c-0.022.085-.038,0.144-0.048,0.176q-0.24-.336-0.8-1.008T79.7,30.851l-0.96.656q0.976,1.136,1.952,2.512a11.809,11.809,0,0,1-2.608,3.76l1.152,0.768a11.279,11.279,0,0,0,1.24-1.648,17.786,17.786,0,0,0,.984-1.856q0.4,0.7.776,1.544a9.157,9.157,0,0,1,.536,1.48Zm1.5-9.2H73.119V41.523h1.216v-12.3h9.809V40.051a0.325,0.325,0,0,1-.208.144l-1.7-.064,0.448,1.2h1.6a1.007,1.007,0,0,0,.728-0.36,1.077,1.077,0,0,0,.344-0.744V28.051Zm-5.953,7.824a7.591,7.591,0,0,0-.6-1.28q-0.328-.544-0.792-1.2a30.319,30.319,0,0,0,.864-3.36l-1.12-.288a11.492,11.492,0,0,1-.608,2.56q-0.064-.064-0.552-0.632t-0.712-.792l-0.32-.32-0.976.672a13.61,13.61,0,0,1,2.1,2.4,11.472,11.472,0,0,1-1.032,2.256,10.536,10.536,0,0,1-1.16,1.488,5.548,5.548,0,0,1,.528.352,6.545,6.545,0,0,0,.576.384q0.128-.192.672-0.952a11.376,11.376,0,0,0,.824-1.3,7.9,7.9,0,0,0,.44-0.984,4.766,4.766,0,0,1,.456.832q0.2,0.464.392,0.976Zm22.979,4.5a13.546,13.546,0,0,1-4.736-2.24,13.492,13.492,0,0,0,2.032-2.688,8.4,8.4,0,0,0,1.008-3.312H97.523q1.3-1.712,2.08-2.88V28.2H89.41v1.216h2.144q0.048,1.424-.064,3.456-0.1,1.792-.216,2.624t-0.232,1.328a7.88,7.88,0,0,1-2.464,4q0.032,0.016.536,0.32t0.76,0.432a12.41,12.41,0,0,0,2.032-3.12,15.726,15.726,0,0,0,.912-5.008,14.489,14.489,0,0,0,1.232,2.568,12.212,12.212,0,0,0,1.712,2.168,12.286,12.286,0,0,1-4.577,2.272l0.784,1.072a11.9,11.9,0,0,0,4.721-2.512,14.561,14.561,0,0,0,4.944,2.512ZM99.219,33.3a8.451,8.451,0,0,1-1,2.12,10.9,10.9,0,0,1-1.48,1.9,14.62,14.62,0,0,1-1.48-1.728,9.7,9.7,0,0,1-.712-1.248,26.105,26.105,0,0,1-1.12-2.592q-0.32-.928-0.512-1.6V29.411h5.009q-0.736,1.1-2.112,2.832V33.3h3.408Zm18.771,3.152V35.283H112.1V32.851h4.576V31.683H112.1V29.315a22.209,22.209,0,0,0,5.184-1.264l-0.672-.912a24.174,24.174,0,0,1-5.328,1.1,46.406,46.406,0,0,1-6.1.288l0.72,1.184q3.68-.1,4.977-0.256v2.224h-4.817v1.168h4.817v2.432H104.74v1.168h6.145v3.36a0.513,0.513,0,0,1-.561.56q-0.415.016-2.016-.128l0.448,1.312h2.209a1.073,1.073,0,0,0,1.136-1.28V36.451h5.889Zm15.874,0.832q-0.016.1-.1,0.68t-0.176.96a2.434,2.434,0,0,1-.216.608,0.365,0.365,0,0,1-.3.232h-0.512q-0.288,0-.288-0.208v-11.6h-4.929v8.256a4.65,4.65,0,0,1-.64,2.368,9.291,9.291,0,0,1-1.793,2.16l1.089,0.9a8.615,8.615,0,0,0,1.88-2.5,6.217,6.217,0,0,0,.68-2.76V29.107h2.5V39.939a1,1,0,0,0,.136.5,0.838,0.838,0,0,0,.44.36,1.649,1.649,0,0,0,.608.12h1.089a1.16,1.16,0,0,0,.688-0.216,1.093,1.093,0,0,0,.416-0.552,18.715,18.715,0,0,0,.56-2.112Zm-7.185-1.76a6.975,6.975,0,0,0-1.777-2.816l-0.5.3V31.427h2.209V30.275h-2.209v-3.04h-1.264v3.04h-2.416v1.152h2.3a11.745,11.745,0,0,1-.664,2.088,10.381,10.381,0,0,1-1.032,1.928,9.821,9.821,0,0,1-1.088,1.344L121.19,37.6a9.845,9.845,0,0,0,1.184-1.464,10.354,10.354,0,0,0,.768-1.336v6.688h1.264L124.454,34a6.672,6.672,0,0,1,1.073,2.24Zm23.763,0.3a13.216,13.216,0,0,0-1.592-2.144,16.34,16.34,0,0,0-2.008-2l-0.769.768a15.883,15.883,0,0,1,1.8,1.936,14.038,14.038,0,0,1,1.5,2.24Zm-4.865,5.44V27.091h-1.216V41.267h1.216Zm-4.8-12.064A12.574,12.574,0,0,0,138.44,27l-0.864.768a10.676,10.676,0,0,1,1.28,1.1A6.521,6.521,0,0,1,139.8,30Zm1.648,3.408a8.693,8.693,0,0,1-1.728,1.728l-0.224-.128v-0.1a9.15,9.15,0,0,0,.92-1.752,9.828,9.828,0,0,0,.648-2.232h-5.457V31.3h3.841a8.438,8.438,0,0,1-1.561,2.984,8.79,8.79,0,0,1-2.824,2.184l0.656,1.072q0.641-.384,1.392-0.9a7.127,7.127,0,0,0,1.168-.968v5.6h1.217V35.491a4.949,4.949,0,0,1,.96.888,8.73,8.73,0,0,1,.944,1.256l0.944-.784a7.936,7.936,0,0,0-.768-1.04,5.247,5.247,0,0,0-.8-0.768,12.15,12.15,0,0,0,1.584-1.632ZM166.4,31.587V30.419h-3.824V27.155h-1.216v7.456H159.4v6.928h1.216V40.387h3.425v1.152h1.216V34.611h-2.688V31.587H166.4ZM158.539,37.2V27.891h-5.345V37.2h1.217V29.059h2.912V37.2h1.216Zm-2.08-6.864h-1.216V35a6.049,6.049,0,0,1-.76,3.056,8.014,8.014,0,0,1-2.425,2.5l0.72,0.992a9.274,9.274,0,0,0,2.745-2.8,7.054,7.054,0,0,0,.936-3.712V30.339Zm2.8,10.112a7.451,7.451,0,0,0-1.1-1.608,6.073,6.073,0,0,0-1.376-1.16l-0.752.8A7.435,7.435,0,0,1,157.555,40a9.05,9.05,0,0,1,.76,1.344Zm4.785-1.232h-3.425v-3.44h3.425v3.44Zm18.338-6.144V31.907h-3.728V27.155h-1.216v4.752h-3.729v1.168h3.729v8.448h1.216V33.075h3.728Zm-9.809-3.664a7.1,7.1,0,0,0-.952-1.312,7,7,0,0,0-1.224-1.072l-0.864.736a7.431,7.431,0,0,1,2.032,2.416Zm1.952,10.1V38.179l-2.4,1.312V31.507h-3.552v1.168h2.336v6.864a0.766,0.766,0,0,1-.1.4,1.54,1.54,0,0,1-.32.352l0.72,1.024Zm23.22-12.4h-1.217V39.843a0.362,0.362,0,0,1-.1.312,0.7,0.7,0,0,1-.264.1l-1.664-.048,0.432,1.232q0.161,0,.72.016a4.752,4.752,0,0,0,.848-0.032,2.21,2.21,0,0,0,.48-0.128,1.219,1.219,0,0,0,.769-1.216V27.107Zm-8.626.56q-0.207.208-.9,0.752a5.917,5.917,0,0,1,2.321,2.32,4.3,4.3,0,0,0,.528-0.408q0.32-.28.448-0.376a6.62,6.62,0,0,0-2.4-2.288h0ZM194.8,38.1V29.043h-1.216V38.1H194.8Zm-2.432-.16q-0.112.592-.512,2.048a0.188,0.188,0,0,1-.144.12,0.374,0.374,0,0,1-.144-0.056,6.67,6.67,0,0,1-2.049-2.768,13.737,13.737,0,0,0,2.849-3.84l-0.96-.7a17.213,17.213,0,0,1-1.089,1.752,13.576,13.576,0,0,1-1.28,1.576,18.612,18.612,0,0,1-.784-3.6l4.753-.7-0.16-1.184-4.721.72L187.983,29v-1.84h-1.264q-0.017,1.344.128,4.32l-2.256.336,0.16,1.152,2.256-.32a21.4,21.4,0,0,0,.4,2.192,18.442,18.442,0,0,0,.608,2.1,14.479,14.479,0,0,1-3.9,2.16l0.944,1.008a11.2,11.2,0,0,0,1.408-.664q0.7-.392,2.032-1.32a14.773,14.773,0,0,0,1.392,2.128,3.4,3.4,0,0,0,.865.872,2.521,2.521,0,0,0,.736.312,1,1,0,0,0,.728-0.032,1.133,1.133,0,0,0,.376-0.384,7.394,7.394,0,0,0,.928-2.624Z"/>
</svg>
