<svg xmlns="http://www.w3.org/2000/svg" width="300" height="250" viewBox="0 0 300 250">
  <defs>
    <style>
      .cls-1 {
        fill: #4c286c;
        fill-rule: evenodd;
      }
    </style>
  </defs>
  <path class="cls-1" d="M150.491,112.449V107.68a9.232,9.232,0,0,1-1.273,1.253l-1.339-1.121,0.769-.7h-1.12v3.779l2.085-.879a6.8,6.8,0,0,1,.023.957c-0.016.373-.023,0.634-0.023,0.78l-2.085.945v6.527a1.537,1.537,0,0,1-.45,1.044,2.274,2.274,0,0,1-1.021.67,12.012,12.012,0,0,1-1.865.044q-0.132-.285-0.329-0.857t-0.286-.813h1.91a0.43,0.43,0,0,0,.373-0.395V113.5l-2.019.835-1.229-1.253q0.263-.109,1.5-0.615t1.745-.747v-4.615H143.2v-1.6h2.656v-4.11h1.668v4.11h1.866l-0.023.835a12.935,12.935,0,0,0,1.274-2.285,14.452,14.452,0,0,0,.988-3.055,11.485,11.485,0,0,1,1.47.615,12.34,12.34,0,0,1-.461,1.824h3.205a11.573,11.573,0,0,0-1.647-1.626,16.279,16.279,0,0,1,1.669-.747,9.7,9.7,0,0,1,.987,1.208,5.541,5.541,0,0,1,.637,1.165h4.368v1.6h-4.347l0.023,0.858h3.73v1.6h-3.753v0.857h3.753v1.6h-3.753v0.879h5.027v1.6h-12.05Zm11.414,3.582q-0.023.177-.088,1.429a6.8,6.8,0,0,1-.252,1.758,2.514,2.514,0,0,1-.374.725,2.106,2.106,0,0,1-.274.286,2.422,2.422,0,0,1-1.12.527,5.236,5.236,0,0,1-1.942-.066q-1.24-.219-1.285-0.219l-0.526-1.8q1.734,0.44,2.063.505a5.456,5.456,0,0,1,.615.077,2.261,2.261,0,0,0,.713.033,0.669,0.669,0,0,0,.362-0.176,1.018,1.018,0,0,0,.219-0.352,2.155,2.155,0,0,0,.121-0.615c0.023-.264.04-0.432,0.056-0.505h-3.688v-1.363A6.34,6.34,0,0,0,157.558,115H154.2a6.821,6.821,0,0,1-.395,2,5.381,5.381,0,0,1-.933,1.682,5.2,5.2,0,0,1-1.174,1.066,9.837,9.837,0,0,1-2.941,1.274l-1.1-1.516a12.152,12.152,0,0,0,2.381-.726,4.178,4.178,0,0,0,1.306-.911,4.353,4.353,0,0,0,.812-1.242,5.74,5.74,0,0,0,.417-1.626h-2.94v-1.6h9.876V114.8a8.263,8.263,0,0,1-.7,1.231h3.1Zm-6.058-10.989h-3.688V105.9h3.688v-0.858Zm0,2.462h-3.688v0.857h3.688V107.5Zm0,2.462h-3.688v0.879h3.688v-0.879Zm19.819,3.912v5.252a1.473,1.473,0,0,1-1.559,1.759h-3.029l-0.613-1.8q2.193,0.2,2.765.176a0.7,0.7,0,0,0,.768-0.769v-4.615H165.57v-1.605H174v-3.34h-6.606v-1.605H174v-3.055q-1.778.221-6.826,0.352L166.185,103a63.61,63.61,0,0,0,8.362-.4,33.118,33.118,0,0,0,7.309-1.516l0.922,1.253a30.487,30.487,0,0,1-7.112,1.736v3.252h6.278v1.605h-6.278v3.34h8.077v1.605h-8.077Zm14.684,5.142-1.1-1.582c0.043-.015.142-0.051,0.3-0.11a1.787,1.787,0,0,0,.361-0.176,0.242,0.242,0,0,0,.133-0.2v-8.484H187.1v-1.6h4.522v9.472q0.593-.264,2.019-0.945t2.085-.989l0.043,1.736Zm1.624-12.988a7.4,7.4,0,0,0-1.35-1.934,6.635,6.635,0,0,0-1.745-1.385l1.3-.9a8.621,8.621,0,0,1,3.27,3.165Zm0.461,13.845v-1.494h5.289V101.416h1.58v7.121h5.62v1.6H199.3v8.242h6.739v1.494H192.435Zm35.645-3.714a13.594,13.594,0,0,1-.747,3.627,1.553,1.553,0,0,1-.725.769,2.318,2.318,0,0,1-.811-0.012,3.685,3.685,0,0,1-1.449-.889,11.936,11.936,0,0,1-2.37-2.989,23.37,23.37,0,0,1-4.259,2.769l-1.47-1.231a20.876,20.876,0,0,0,4.96-3.187,27.127,27.127,0,0,1-1.229-5.516h-4.236v3.165l3.4-.857V113.5l-3.4.9v4.549a1.727,1.727,0,0,1-.921,1.517,3.566,3.566,0,0,1-.846.187,10.814,10.814,0,0,1-1.372.032q-0.877-.021-1.185,0l-0.614-1.714,2.7,0.066a0.555,0.555,0,0,0,.363-0.175,0.564,0.564,0,0,0,.142-0.4v-3.582l-3.841,1.032-1.229-1.6q2.392-.462,5.07-1.143V109.5h-4.5v-1.67h4.5v-3.165a9.341,9.341,0,0,1-1.712.395,15.08,15.08,0,0,1-1.887.2,13.777,13.777,0,0,0-1.032-1.648,17.706,17.706,0,0,0,3.138-.286,14.343,14.343,0,0,0,2.558-.736,26.831,26.831,0,0,0,2.886-1.395l1.1,1.252q-2.041,1.188-2.535,1.44a8.577,8.577,0,0,1-.78.362v3.583h4.083a66.056,66.056,0,0,1-.132-6.725h1.69q0,1.45.055,3.549t0.142,3.176h5.839v1.67h-5.685a24.168,24.168,0,0,0,.878,4.2,16.716,16.716,0,0,0,2.458-3.605l1.493,0.638a19.413,19.413,0,0,1-3.292,4.637,9.869,9.869,0,0,0,.877,1.45,17.506,17.506,0,0,0,1.218,1.594c0.242,0.257.392,0.3,0.45,0.143a12.485,12.485,0,0,0,.549-3.055Zm-0.967-10.417a10.355,10.355,0,0,1-1.4,1.209,6.41,6.41,0,0,0-1.5-2.11,8.536,8.536,0,0,0-2.271-1.539l1.405-1.274a10.73,10.73,0,0,1,2.15,1.593A7.175,7.175,0,0,1,227.113,105.746Zm9.482-4.264a44.242,44.242,0,0,1-1.295,5.5v13.67h-1.668V110.383a10.239,10.239,0,0,1-.943,1.527,13.639,13.639,0,0,1-1.163,1.418l-1.274-1.143a18.129,18.129,0,0,0,3.018-4.681A25.89,25.89,0,0,0,235.059,101Zm3.095,4.4a9.051,9.051,0,0,0-2.546-3.451l1.36-.835a7.862,7.862,0,0,1,2.656,3.385Zm-2.283,14.769V106.054h1.668v14.593h-1.668Zm11.831-1.715a1.46,1.46,0,0,1-1.23,1.385,10.882,10.882,0,0,1-2.612.066l-0.592-1.736,2.5,0.176a0.3,0.3,0,0,0,.2-0.111,0.636,0.636,0,0,0,.065-0.351v-14.4h-6.232v-1.6h7.9v16.57Zm-99.1,11.733q-0.021.593-.044,2.615t-0.077,3.208q-0.055,1.186-.164,2.528t-0.384,2.835a21.629,21.629,0,0,1-.714,2.835,3.833,3.833,0,0,1-.658,1.176,1.727,1.727,0,0,1-1.032.648,3.842,3.842,0,0,1-1.021,0,21.6,21.6,0,0,1-2.886-.681l-0.285-1.847a16.26,16.26,0,0,0,3.314.924,0.84,0.84,0,0,0,.834-0.4,13.787,13.787,0,0,0,.724-2.593,37.183,37.183,0,0,0,.461-3.7q0.175-2.165.264-6.033H143.8a18.079,18.079,0,0,1-2.546,4.615l-1.142-.725v9.8h-1.733v-1.428h-3.644v1.779H133v-15.23h2.019a13.665,13.665,0,0,0,1.339-3.868l1.58,0.637a14.525,14.525,0,0,1-1.184,3.231h3.357v4.418a20.582,20.582,0,0,0,3.293-8.462l1.756,0.4q-0.066.373-.187,0.857c-0.08.322-.213,0.762-0.4,1.319s-0.3.937-.362,1.143h5.926ZM138.376,132.6h-3.644v4.241h3.644V132.6Zm0,5.845h-3.644v4.4h3.644v-4.4Zm7.2,2.924a18.607,18.607,0,0,0-2.985-5.165l1.361-.9a19.321,19.321,0,0,1,1.909,2.615,16.465,16.465,0,0,1,1.295,2.748Zm16.242-.418q-0.594-.724-1.328-1.494a7.518,7.518,0,0,0-1.284-1.121v8.549h-1.734v-8.307a16.98,16.98,0,0,1-2.5,2.175l-1.251-1.384a28.13,28.13,0,0,0,3.434-2.968,19.026,19.026,0,0,0,2.491-3.274h-5.4l0.044-1.6h7.265v1.45a20.281,20.281,0,0,1-2.371,3.781l0.023,0.768,0.636-.637a6.824,6.824,0,0,1,1.383.934,18.967,18.967,0,0,1,1.888,1.924Zm-2.195-10.308q-0.2.089-.713,0.374a7.817,7.817,0,0,1-.846.418,10.4,10.4,0,0,0-2.216-3.583l1.426-.791a16.923,16.923,0,0,1,1.273,1.528A8.818,8.818,0,0,1,159.622,130.642Zm0.7,14.726V143.7h5.707v-7.847H161.29v-1.6h4.741v-7.033h1.734v7.033h5.026l-0.044,1.6h-4.982V143.7h5.794v1.67H160.324Zm17.164,0.549-0.022-17.45H194.3v1.582H179.134v14.286h15.89v1.582H177.488Zm13.806-2.286-0.352-.615a24.867,24.867,0,0,0-1.646-2.462q-0.987-1.319-1.932-2.373a21.041,21.041,0,0,1-2.151,2.5,30.164,30.164,0,0,1-3.686,3.077l-1.295-1.407a21.218,21.218,0,0,0,6.013-5.472q-1.076-1.186-2.59-2.561t-3.05-2.538l1.251-1.033a48.3,48.3,0,0,1,5.311,4.7,52.789,52.789,0,0,0,2.985-4.769l1.405,0.769q-1.185,2.329-2.108,3.758l-1.1,1.516q0.768,0.813,1.658,1.9a26.2,26.2,0,0,1,1.591,2.153q0.7,1.067,1.141,1.879Zm25.416,3.121a39.81,39.81,0,0,1-6.87-.89,20.5,20.5,0,0,1-4.192-1.461l-0.68.461a15.426,15.426,0,0,1-6.3,2.088l-0.988-1.473a29.721,29.721,0,0,0,3.085-.692,18.994,18.994,0,0,0,3.3-1.242,14.962,14.962,0,0,1-3.184-2.813l1.274-.857a26.11,26.11,0,0,0,3.2,2.506,6.019,6.019,0,0,0,.757-1.319,6.9,6.9,0,0,0,.45-1.451H200.6v-8.153h6.3V129.9h-8.582v-1.6h18.722v1.6h-8.472v1.561h6.079v8.153h-6.409a8.356,8.356,0,0,1-.5,1.945,6.594,6.594,0,0,1-.922,1.66,10.613,10.613,0,0,0,2.677.912,37.207,37.207,0,0,0,3.963.637q2.249,0.253,4.29.3ZM206.9,133.06h-4.631v1.649H206.9V133.06Zm-4.631,3.253v1.692h4.521l0.088-1.692h-4.609Zm10.8,0h-4.543l-0.109,1.692h4.652v-1.692Zm0-3.253h-4.5v1.649h4.5V133.06Zm14,4.352a42.3,42.3,0,0,1-1.075,8,2.908,2.908,0,0,1-.68,1,1.645,1.645,0,0,1-.966.56,4.1,4.1,0,0,1-.889-0.011q-0.494-.055-1.087-0.154l-0.724-.121-0.439-1.714,2.5,0.373a0.436,0.436,0,0,0,.428-0.142,1.671,1.671,0,0,0,.285-0.5,4.689,4.689,0,0,0,.209-0.825c0.058-.336.094-0.528,0.109-0.571q0.043-.242.164-0.923t0.242-1.869c0.081-.791.135-1.3,0.165-1.516h-4.983l1.054-6.109h3.972v-2.77h-5.333v-1.583h7v5.935H222.68l-0.5,2.945h4.894Zm10.755,9.56-1.053-1.6-8.933,1.165-0.9-1.649q1.778-.088,4.96-0.439v-3.319h-2.546v1.384h-1.668V135H231.9v-0.9h-3.226v-5.341h8.406v5.341h-3.511V135h4.324v7.23h-1.668v-1.1h-2.656v3.165l1.953-.33-1.361-1.1,1.449-.747a12.882,12.882,0,0,1,2.041,1.791,8.179,8.179,0,0,1,1.558,2.165Zm-5.926-10.4h-2.546v2.967H231.9v-2.967Zm3.512-6.242h-5.158v2.176h5.158v-2.176Zm0.813,6.242h-2.656v2.967h2.656v-2.967Zm23.594,9.735a24.072,24.072,0,0,1-2.612-1.835,13.283,13.283,0,0,1-2.294-2.373,14.066,14.066,0,0,1-1.778-3.231,20.952,20.952,0,0,1-1.174-4.692,24.631,24.631,0,0,1-1.119,4.054,14.768,14.768,0,0,1-1.668,3.21,13.747,13.747,0,0,1-2.348,2.582,19.249,19.249,0,0,1-3.183,2.176l-1.251-1.517a13.764,13.764,0,0,0,3.062-1.967,13.05,13.05,0,0,0,2.293-2.528,14.28,14.28,0,0,0,1.537-2.889,16.636,16.636,0,0,0,.878-3.121h-6.695v-1.67h6.848a46.665,46.665,0,0,0,.154-5.539,8.288,8.288,0,0,0,.965.154c0.4,0.044.666,0.081,0.813,0.11q0.065,3.142-.111,5.275h7.881v1.67h-6.453a19.078,19.078,0,0,0,1.426,4.648,12.7,12.7,0,0,0,2.348,3.374A17.1,17.1,0,0,0,261,144.994Z"/>
</svg>
