<svg xmlns="http://www.w3.org/2000/svg" width="300" height="250" viewBox="0 0 300 250">
  <defs>
    <style>
      .cls-1 {
        fill: #4c286c;
        fill-rule: evenodd;
      }
    </style>
  </defs>
  <path class="cls-1" d="M98.174,65.476V61.165A8.273,8.273,0,0,1,97.015,62.3L95.8,61.284l0.7-.636h-1.02v3.417l1.9-.794a5.85,5.85,0,0,1,.02.864q-0.019.506-.02,0.705l-1.9.854v5.9a1.382,1.382,0,0,1-.41.944,2.081,2.081,0,0,1-.929.606,11.151,11.151,0,0,1-1.7.04q-0.12-.258-0.3-0.775t-0.26-.735h1.739a0.39,0.39,0,0,0,.34-0.358V66.429l-1.839.755L91,66.052q0.24-.1,1.369-0.556t1.589-.676V60.649H91.539V59.2h2.418V55.484h1.519V59.2h1.7l-0.02.755a11.71,11.71,0,0,0,1.158-2.066,12.878,12.878,0,0,0,.9-2.761,10.565,10.565,0,0,1,1.339.556,11.251,11.251,0,0,1-.419,1.649h2.918a10.437,10.437,0,0,0-1.5-1.47,14.954,14.954,0,0,1,1.519-.676,8.722,8.722,0,0,1,.9,1.093,5.011,5.011,0,0,1,.58,1.053h3.977v1.45H104.57l0.02,0.775h3.4v1.45H104.57v0.774h3.418v1.45H104.57v0.795h4.577v1.45H98.174Zm10.393,3.238q-0.019.159-.08,1.291a6.05,6.05,0,0,1-.23,1.589,2.256,2.256,0,0,1-.339.656,2.016,2.016,0,0,1-.25.258,2.22,2.22,0,0,1-1.019.477,4.854,4.854,0,0,1-1.77-.06q-1.128-.2-1.169-0.2L103.23,71.1q1.579,0.4,1.88.457a4.913,4.913,0,0,1,.559.07,2.073,2.073,0,0,0,.65.03,0.618,0.618,0,0,0,.33-0.159,0.943,0.943,0,0,0,.2-0.318,1.925,1.925,0,0,0,.11-0.556c0.02-.238.036-0.39,0.05-0.457h-3.357V68.932a5.762,5.762,0,0,0,.959-1.152h-3.058a6.182,6.182,0,0,1-.359,1.807,4.877,4.877,0,0,1-.85,1.52,4.711,4.711,0,0,1-1.07.963A9,9,0,0,1,96.6,73.223l-1-1.37a11.188,11.188,0,0,0,2.168-.656,3.811,3.811,0,0,0,1.19-.825,3.936,3.936,0,0,0,.74-1.122,5.187,5.187,0,0,0,.379-1.47H97.394V66.33h8.994V67.6a7.5,7.5,0,0,1-.639,1.113h2.818Zm-5.516-9.932H99.694v0.775h3.357V58.781Zm0,2.225H99.694v0.774h3.357V61.007Zm0,2.224H99.694v0.795h3.357V63.231ZM121.1,66.767v4.748A1.335,1.335,0,0,1,119.68,73.1h-2.759l-0.559-1.629q2,0.178,2.518.159a0.639,0.639,0,0,0,.7-0.695V66.767h-7.675v-1.45h7.675V62.3h-6.016v-1.45h6.016V58.086q-1.62.2-6.216,0.318l-0.9-1.47a58.343,58.343,0,0,0,7.615-.357,30.345,30.345,0,0,0,6.656-1.371l0.839,1.133a27.878,27.878,0,0,1-6.475,1.569v2.94h5.716V62.3H121.1v3.019h7.355v1.45H121.1Zm13.371,4.648-1-1.43c0.04-.013.13-0.047,0.269-0.1a1.645,1.645,0,0,0,.33-0.159,0.221,0.221,0,0,0,.12-0.179V61.88h-2.678V60.43h4.117v8.562q0.54-.239,1.839-0.855t1.9-.894l0.04,1.569Zm1.479-11.74a6.685,6.685,0,0,0-1.229-1.748,6.044,6.044,0,0,0-1.589-1.252l1.179-.814a7.824,7.824,0,0,1,2.978,2.861Zm0.419,12.515V70.839h4.817V55.5h1.44V61.94h5.116v1.45h-5.116v7.449h6.135V72.19H136.368Zm24.424-15.951a16.415,16.415,0,0,1-5.616,2.006v1.47h4.577v6.3H155.2a16.514,16.514,0,0,1-.97,4.42,10.491,10.491,0,0,1-1.728,2.791l-1.339-.894A10.28,10.28,0,0,0,153.6,65.3V56.974a14.293,14.293,0,0,0,6.036-1.867Zm-2.558,5.006-3.058-.04v3.357h3.058V61.245Zm8.354,1.609v10.17H165.07V62.854h-2.379a7.932,7.932,0,0,0-.039.973c0,0.464-.008.781-0.021,0.954a15.582,15.582,0,0,1-1.8,6.615,7.064,7.064,0,0,1-.749,1c-0.367.43-.556,0.652-0.57,0.665l-1.438-.874a8.8,8.8,0,0,0,1.7-2.235,10.453,10.453,0,0,0,.979-2.731,15.233,15.233,0,0,0,.321-3.2V57.351a12.4,12.4,0,0,0,2.567-.5,14.085,14.085,0,0,0,2.329-.9q1-.506,1.619-0.9l1.179,1.172a15.726,15.726,0,0,1-6.115,2.4V61.4h6.694v1.45h-2.758Zm11.533-3.616q-0.461,1.311-.72,1.847h9.054V71.237a1.333,1.333,0,0,1-.33.755,1.723,1.723,0,0,1-.709.5,8.045,8.045,0,0,1-1.509.1h-1.15q-0.519-1.072-.7-1.53a14.836,14.836,0,0,0,2.517.1,0.351,0.351,0,0,0,.26-0.1,0.327,0.327,0,0,0,.1-0.238V68.853h-7.516v4.191h-1.579V63.569a13.053,13.053,0,0,1-.949,1.192q-0.611.7-2.429,2.543l-1.4-.914a25.978,25.978,0,0,0,3.367-3.546,13.161,13.161,0,0,0,2.049-3.605h-4.2v-1.45h4.756a27.3,27.3,0,0,0,.78-2.8l1.539,0.337q-0.18.834-.66,2.463h10.173v1.45H178.121Zm6.816,3.3h-7.516v1.609h7.516V62.536Zm0,3.059h-7.516V67.4h7.516V65.595Zm22.9,7.112a21.143,21.143,0,0,1-3.1-1.937,14.009,14.009,0,0,1-2.478-2.463,16.172,16.172,0,0,1-2.079-3.605,11.326,11.326,0,0,1-1.429,2.632,16.68,16.68,0,0,1-2.668,2.96,17.425,17.425,0,0,1-3.318,2.354l-1.2-1.172a20.5,20.5,0,0,0,3.637-2.7,18.7,18.7,0,0,0,1.849-1.977,12.5,12.5,0,0,0,1.429-2.354,8.216,8.216,0,0,0,.629-1.868,14.245,14.245,0,0,0,.3-2.056q0.07-1,.091-1.788t0.029-1.718q0.011-.934.011-1.271h1.6a56.143,56.143,0,0,1-.3,6.277,1.229,1.229,0,0,0,.01.357,1.25,1.25,0,0,0,.12.338c0.059,0.119.1,0.2,0.11,0.239a18.3,18.3,0,0,0,2.058,3.874,13.1,13.1,0,0,0,2.538,2.662A14.814,14.814,0,0,0,209,71.416ZM118.66,93.247a13.273,13.273,0,0,1-2.648,1.7,20.449,20.449,0,0,1-3.088,1.281l-1.039-1.291a18.629,18.629,0,0,0,5.836-2.761ZM112.5,86.552V79.858h1.44v6.694H112.5Zm13.331,5.959q-0.1-.159-0.279-0.417t-0.459-.616c-0.188-.238-0.287-0.37-0.3-0.4l-3.937.576v3.893a1.413,1.413,0,0,1-.54.785,2.208,2.208,0,0,1-.919.447h-1.339l-0.7-1.55a1.243,1.243,0,0,1,.18.02l0.61,0.1a8.018,8.018,0,0,0,.969.1,0.21,0.21,0,0,0,.18-0.08,0.618,0.618,0,0,0,.05-0.347c-0.007-.179-0.01-0.295-0.01-0.348V91.8q-2.36.238-5.2,0.754l-0.84-1.688q1.059-.3,2.269-0.755t3.287-1.45l-4.157.656-0.679-1.49a13.939,13.939,0,0,0,3.437-2.3l-1.119-.04V79.023h1.439v6.2l0.719-.715,1.1,1.093c-0.227.239-.5,0.5-0.82,0.785a12.4,12.4,0,0,1-1.758,1.182l3.837-.318q1.4-1.033,2.2-1.748l1.379,0.894a18.55,18.55,0,0,1-2.3,1.807,19.031,19.031,0,0,1-2.758,1.579,18.408,18.408,0,0,1-2.358.924l6.795-.795a4.733,4.733,0,0,0-1.239-.854L123.8,88.2a9,9,0,0,1,3.358,3.337Zm2-6.694a15.8,15.8,0,0,1-4.117-1.569,17.286,17.286,0,0,1-3.737,1.331l-1.2-1.231q2.338-.6,2.789-0.755a4.238,4.238,0,0,0,.689-0.3,9.067,9.067,0,0,1-2.078-2.006h-1.619v-1.43h9.053V81.03a9.211,9.211,0,0,1-2.418,2.325,14.431,14.431,0,0,0,3.7,1.053ZM127.1,96.147a16.2,16.2,0,0,0-2.559-1.827,14.141,14.141,0,0,0-2.857-1.232l0.879-1.172a16.259,16.259,0,0,1,5.537,3.059Zm-5.137-14.859a9.32,9.32,0,0,0,.8.695,5.351,5.351,0,0,0,.921.6,7.324,7.324,0,0,0,1.838-1.291h-3.558Zm23.884,2.88a17.968,17.968,0,0,1-2.7,2.384,36.959,36.959,0,0,1-4.617,2.742c-0.106.053,0.106,0.08,0.64,0.08h3.4a0.589,0.589,0,0,0,.5-0.3,2.607,2.607,0,0,0,.18-0.427,11.762,11.762,0,0,0,.28-1.539c0.2,0.053.483,0.149,0.85,0.288s0.555,0.215.569,0.228a10.487,10.487,0,0,1-.68,2.344,1.691,1.691,0,0,1-.579.626,2.449,2.449,0,0,1-1.24.228h-3.7a1.953,1.953,0,0,1-.939-0.248,2.123,2.123,0,0,1-.7-0.566,42.949,42.949,0,0,1-4.677,1.649l-0.919-1.291a34.02,34.02,0,0,0,5.176-1.728V84.864h1.519v3.059a23.554,23.554,0,0,0,6.616-4.688Zm-9.634,1.053a12.041,12.041,0,0,1-1.2,1.937,10.258,10.258,0,0,1-1.979,1.9l-1.139-1.013a8.049,8.049,0,0,0,3.057-3.675Zm10.554-.04v-2.7H133.83v2.7h-1.519V81.03h7.316a4.8,4.8,0,0,0-1.819-.973l1.259-1.033A8.819,8.819,0,0,1,140.6,80,4.326,4.326,0,0,1,141.6,81.03h6.675v4.152h-1.518ZM145.282,96.8V96.028H133.631l0.019-4.171h1.52v2.721h4.276V91.161h1.52v3.417h4.316V91.856h1.52V96.8h-1.52Zm-4.6-10.827a4.061,4.061,0,0,0-.969-1.112,9.7,9.7,0,0,0-1.869-1.232l1.019-.874a4.292,4.292,0,0,1,1.609.864,6.968,6.968,0,0,1,1.229,1.3Zm7.095,4.231a9.928,9.928,0,0,0-3.038-3.794l1.2-.834a9.811,9.811,0,0,1,1.7,1.649,14.341,14.341,0,0,1,1.419,1.987Zm20.406,6.257h-8.294a8.41,8.41,0,0,1-3.018-.626,6.49,6.49,0,0,1-2.559-1.678q-1.34,1.251-2.438,2.126l-1.019-1.073c0.027-.013.256-0.189,0.69-0.527s0.813-.645,1.139-0.923,0.629-.549.909-0.815v-5.6h-2.3V85.9h3.818v7.211a5.43,5.43,0,0,0,1.618,1.1,7.8,7.8,0,0,0,1.979.636,10.11,10.11,0,0,0,1.678.169h6.6q0.42,0,2.059-.119Zm-13.65-12.157a11.413,11.413,0,0,0-2.759-3.238l1.14-.973a9.859,9.859,0,0,1,1.608,1.56,11.318,11.318,0,0,1,1.249,1.778Zm8.574,6.814v3.4h-1.519v-3.4h-5.457v-1.45h5.457V87.724h-4.078V86.512q1.1-2.5,1.32-3.218h-2.5v-1.45h2.978a12.869,12.869,0,0,0,.58-2.344l1.459,0.616-0.52,1.728h6.8v1.45h-7.276q-0.678,1.887-1.179,2.98h2.419V84.069h1.519v2.205h3.757v1.45h-3.757v1.947h5.276v1.45h-5.276Zm12.231-1.152v5.284a1.786,1.786,0,0,1-.29,1.013,1.443,1.443,0,0,1-.789.6,3.313,3.313,0,0,1-.519.1,6.388,6.388,0,0,1-.86.03c-0.359-.007-0.58-0.01-0.66-0.01l-0.539-1.43a8.28,8.28,0,0,0,1.679,0,0.46,0.46,0,0,0,.319-0.209,0.6,0.6,0,0,0,.141-0.348v-4.41l-1.739.556-0.96-1.252,2.7-.894v-4.37h-2.4V83.2h2.4V79.262h1.518V83.2h2.1v1.43h-2.1V88.4l2.3-.735v1.51Zm12.632,6.854a14.629,14.629,0,0,0-4.2-2.3,11.463,11.463,0,0,1-1.649.964,13.585,13.585,0,0,1-2.289.854q-1.3.367-2.857,0.665l-1-1.41q2.2-.337,3.638-0.705a7.248,7.248,0,0,0,2.258-.924,29.05,29.05,0,0,0-4.037-.695,15.344,15.344,0,0,0,2.1-2.483h-2.559v-1.43h3.458a11.627,11.627,0,0,0,.879-1.868h-4.776v-1.43h3.737a4.66,4.66,0,0,0-.64-1.242,10.235,10.235,0,0,0-1.478-1.6l1.238-.556-2.318-.06v-1.43h4.578a5.757,5.757,0,0,0-.82-0.606A6.1,6.1,0,0,0,180.06,80l1.179-1.112a7.144,7.144,0,0,1,2.618,1.847l-0.46.437h4.877V82.6h-2.418l1.1,0.536a8.953,8.953,0,0,1-1.8,2.92h3.877v1.43h-6.995l1.2,0.6q-0.139.338-.36,0.765c-0.146.285-.233,0.454-0.259,0.507h6.016v1.43h-2.179a5.873,5.873,0,0,1-.41.854,15.913,15.913,0,0,1-1.229,1.709,20.149,20.149,0,0,1,4.217,2.264ZM180.02,82.6a6.387,6.387,0,0,1,2.138,3.119l-0.86.318,1.76,0.02a4.747,4.747,0,0,0,1.278-1.381,13.029,13.029,0,0,0,1.1-2.076H180.02Zm1.838,8.184q-0.639.934-1.059,1.47,0.42,0.079,1.369.318t1.149,0.278a4.3,4.3,0,0,0,.85-0.914,4.356,4.356,0,0,0,.629-1.152h-2.938Z"/>
</svg>
