<svg xmlns="http://www.w3.org/2000/svg" width="300" height="250" viewBox="0 0 300 250">
  <defs>
    <style>
      .cls-1 {
        fill: #4c286c;
        fill-rule: evenodd;
      }
    </style>
  </defs>
  <path class="cls-1" d="M78.7,68.743a12.251,12.251,0,0,1-.68,3.283,1.412,1.412,0,0,1-.66.7,2.14,2.14,0,0,1-.74-0.01,3.383,3.383,0,0,1-1.32-.806,10.834,10.834,0,0,1-2.16-2.707,21.213,21.213,0,0,1-3.88,2.508l-1.34-1.115a19.081,19.081,0,0,0,4.521-2.886,24.341,24.341,0,0,1-1.12-4.995H67.462v2.866l3.1-.776v1.532l-3.1.816v4.12a1.561,1.561,0,0,1-.84,1.373,3.236,3.236,0,0,1-.771.169,9.914,9.914,0,0,1-1.25.03q-0.8-.02-1.079,0l-0.561-1.552,2.46,0.06a0.5,0.5,0,0,0,.46-0.518V67.589l-3.5.935-1.12-1.453q2.18-.418,4.62-1.035V62.713h-4.1V61.2h4.1V58.335a8.565,8.565,0,0,1-1.56.358,14.03,14.03,0,0,1-1.721.179,12.483,12.483,0,0,0-.94-1.493,16.3,16.3,0,0,0,2.861-.259,13.122,13.122,0,0,0,2.329-.667,24.437,24.437,0,0,0,2.631-1.264l1,1.135q-1.86,1.074-2.311,1.3c-0.3.152-.537,0.262-0.71,0.328V61.2h3.72a59.561,59.561,0,0,1-.12-6.09H72.6q0,1.314.051,3.214t0.13,2.876H78.1v1.513h-5.18a21.794,21.794,0,0,0,.8,3.8,15.087,15.087,0,0,0,2.24-3.264l1.361,0.577a17.547,17.547,0,0,1-3,4.2,9.067,9.067,0,0,0,.8,1.314,15.574,15.574,0,0,0,1.11,1.442q0.33,0.348.409,0.13a11.249,11.249,0,0,0,.5-2.766Zm-0.88-9.433a9.476,9.476,0,0,1-1.28,1.095,5.8,5.8,0,0,0-1.37-1.911A7.781,7.781,0,0,0,73.1,57.1l1.28-1.154a9.713,9.713,0,0,1,1.96,1.442A6.512,6.512,0,0,1,77.824,59.311Zm8.64-3.861a40.085,40.085,0,0,1-1.18,4.975V72.8H83.764V63.509a9.293,9.293,0,0,1-.859,1.383,12.389,12.389,0,0,1-1.061,1.284l-1.16-1.035a16.382,16.382,0,0,0,2.75-4.239,23.28,23.28,0,0,0,1.63-5.891Zm2.82,3.98a8.194,8.194,0,0,0-2.32-3.125l1.24-.756a7.144,7.144,0,0,1,2.42,3.065ZM87.2,72.8V59.589h1.52V72.8H87.2Zm10.781-1.552a1.324,1.324,0,0,1-1.12,1.253,9.925,9.925,0,0,1-2.38.06l-0.54-1.572,2.279,0.159a0.27,0.27,0,0,0,.181-0.1,0.575,0.575,0,0,0,.06-0.318V57.7h-5.68V56.246h7.2V71.251Zm18.781-11.483q-0.019.558-.13,3.731t-0.3,4.886q-0.191,1.711-.45,2.945a1.9,1.9,0,0,1-.36.726,2.059,2.059,0,0,1-.64.567,1.828,1.828,0,0,1-.94.249,10.936,10.936,0,0,1-2.341-.348l-0.239-1.552q0.159,0.02,1.09.239a5.589,5.589,0,0,0,1.37.2,0.679,0.679,0,0,0,.54-0.379,20.168,20.168,0,0,0,.56-3.552q0.24-2.517.32-6.259h-5.26c0,0.146-.011.421-0.031,0.826s-0.084,1.032-.19,1.881a12.91,12.91,0,0,1-.739,2.836,11.144,11.144,0,0,1-1.561,2.856,9.487,9.487,0,0,1-2,1.891,13.556,13.556,0,0,1-2.44,1.453l-1.04-1.333a9.7,9.7,0,0,0,3.61-2.268,7.7,7.7,0,0,0,2.13-3.423,15.446,15.446,0,0,0,.74-4.717h-6.781V59.768h6.781V55.211l1.521-.04v4.6h6.78Zm-10.881-.239a4.327,4.327,0,0,0-.76-1.254,9.119,9.119,0,0,0-1.781-1.473l1.241-.935a9.826,9.826,0,0,1,2.6,2.647Zm6.861,8.776a7.474,7.474,0,0,0-.771-1.791,13.9,13.9,0,0,0-1.87-2.368l1.261-.736a11.49,11.49,0,0,1,2.739,4.059ZM130.788,65.8a12.147,12.147,0,0,1-.48,1.333h6.861v4.2a1.338,1.338,0,0,1-.96,1.234,2.268,2.268,0,0,1-.651.149,6.286,6.286,0,0,1-.8.01c-0.3-.013-0.5-0.02-0.61-0.02l-0.5-1.453c0.12,0,.391.013,0.811,0.04a3.518,3.518,0,0,0,.889-0.02,0.352,0.352,0,0,0,.3-0.438V68.484h-2.72v3.5h-1.52V68.5l-2.6.04v3.443h-1.42v-3.5h-2.9v4.577h-1.421v-5.93h5.621a6.193,6.193,0,0,0,.62-1.333h-7.681V64.445h17.021V65.8h-7.86Zm5.98-4.538V59.688h-5.88v4.517h-1.52V59.688h-5.861V61.34l-1.42.04V58.335h7.281V57.46h-6.3V56.007h14.041V57.46h-6.22v0.875h7.34l0.04,2.925h-1.5Zm-12.76.358V60.405h4.46v1.214h-4.46Zm0,2.05V62.455h4.46v1.214h-4.46Zm7.72-2.129V60.306h4.441v1.234h-4.441Zm0,2.129V62.455h4.441v1.214h-4.441Zm21.4-6.09v1.334l4.161-.04v5.353H149.75l0.819,0.637-0.839.915h8.861v1.373H155.17a9.215,9.215,0,0,1-.99,1.254,8.689,8.689,0,0,1-1.09,1.015,24.069,24.069,0,0,1,3.18,1.234,24.616,24.616,0,0,1,2.34,1.214l-1.079,1.174a32.07,32.07,0,0,0-3.061-1.413,31.059,31.059,0,0,0-3.04-1.075,16.337,16.337,0,0,1-4.14,1.572,28.991,28.991,0,0,1-5.141.816l-1.06-1.393a35.387,35.387,0,0,0,4.291-.438,19.1,19.1,0,0,0,3.59-1q-1.1-.2-4.72-0.577l2.139-2.388H141.95V65.778h5.8l1.46-1.552h-5.88V58.873l4.1,0.04V57.579h-5.681V56.126h17v1.453H153.13Zm-8.3,2.727v2.468h2.559l0.041-2.468h-2.6Zm3.62,6.846-1.1,1.194q0.242,0.04,1.09.139t1.411,0.2l1.34,0.239a8.043,8.043,0,0,0,2.16-1.772h-4.9Zm3.119-9.572H148.99v1.274h2.579V57.579Zm0,2.727H148.99v2.468h2.579V60.306Zm4.161,0h-2.6v2.468h2.6V60.306Zm20.922,9.413a1.156,1.156,0,0,1-.22.647,1.5,1.5,0,0,1-.5.488,2.84,2.84,0,0,1-1.41.249c-0.647-.007-1.036,0-1.17.01l-0.58-1.672,1.92,0.159a0.524,0.524,0,0,0,.36-0.089,0.321,0.321,0,0,0,.16-0.269V66.733h-4.42v6.03h-1.521v-6.03h-3.939v4.557h-1.521V66.335a2.877,2.877,0,0,1-.35.239q-0.23.14-1.47,0.717l-0.86-1.473a9.826,9.826,0,0,0,2.89-1.373,3.351,3.351,0,0,0,1.17-1.473h-3.48V61.519h3.84a4.685,4.685,0,0,0,.1-1.174h-3.2V58.893h3.2V57.7h-3.78V56.246h3.78V55.131h1.52v1.115h3.341V57.7h-3.341v1.194h3v1.453h-3.041c0,0.027,0,.2-0.009.527a3.541,3.541,0,0,1-.051.647h4.261v1.453h-4.561a3.583,3.583,0,0,1-1.439,2.269l3.939,0.04V63.43h1.521v1.851h5.86v4.438Zm1.761-6.328a2.484,2.484,0,0,1-.471.6,2.231,2.231,0,0,1-.8.478,3.334,3.334,0,0,1-1.03.2l-1.24.04-0.64-1.592c0.08,0,.426.017,1.04,0.05a4,4,0,0,0,1.4-.11,0.487,0.487,0,0,0,.281-0.408,0.877,0.877,0,0,0-.12-0.508,4.773,4.773,0,0,0-.411-0.587,4.867,4.867,0,0,0-.61-0.617q-0.36-.308-0.84-0.677t-0.64-.487l1.88-2.448h-2.6V65h-1.44V55.868h5.92v1.353l-1.9,2.328a9.259,9.259,0,0,1,2.04,2.09A1.879,1.879,0,0,1,178.413,63.39Zm3.68,8.02q-0.2-.319-0.54-0.776c-0.227-.305-0.373-0.5-0.441-0.577l1.821-.537V56.186h6.26v11.5l1.261-.458V68.8Zm5.58-9.772-3.22.04v2.707h3.22V61.639Zm0,4.2h-3.22v3.224l3.22-.915V65.838Zm0-8.2h-3.14v2.567h3.14V57.639Zm10.681,5.672a48.334,48.334,0,0,1-1,7.085,2.922,2.922,0,0,1-.62,1.224,2.1,2.1,0,0,1-1.08.746,3.569,3.569,0,0,1-1.84-.04q-0.88-.179-1.1-0.219l-0.18-1.652a18.493,18.493,0,0,0,2.18.5,0.838,0.838,0,0,0,.82-0.3q1-2.109,1.42-9.751h-2.7q-0.04.3-.15,1.562t-0.26,2.268a11.529,11.529,0,0,1-.4,1.791,10.822,10.822,0,0,1-.529,1.373,7.768,7.768,0,0,1-.66,1.124A13.063,13.063,0,0,1,190.4,71.1a19.26,19.26,0,0,1-2.43,1.9l-0.08-.219-0.96-1.075a12.3,12.3,0,0,0,1.851-1.244,14.126,14.126,0,0,0,1.5-1.433,9.244,9.244,0,0,0,1.289-1.91,7.12,7.12,0,0,0,.761-2.478q0.279-2.209.38-3.741h-2.8V59.45h2.859q0.081-2.627.061-4.359h1.56l-0.1,4.359h4.28ZM217.7,58.355q-0.02.537-.04,2.368t-0.07,2.905q-0.051,1.075-.15,2.289t-0.35,2.567a19.666,19.666,0,0,1-.65,2.567,3.457,3.457,0,0,1-.6,1.065,1.577,1.577,0,0,1-.941.587,3.507,3.507,0,0,1-.929,0,19.813,19.813,0,0,1-2.63-.617l-0.261-1.671a14.948,14.948,0,0,0,3.021.836,0.767,0.767,0,0,0,.759-0.358,12.551,12.551,0,0,0,.661-2.349,33.638,33.638,0,0,0,.42-3.353q0.159-1.96.24-5.463h-4.26a16.348,16.348,0,0,1-2.321,4.179l-1.04-.657v8.876h-1.58V70.833h-3.321v1.612h-1.58V58.654h1.841a12.369,12.369,0,0,0,1.22-3.5l1.439,0.577a13.08,13.08,0,0,1-1.079,2.925h3.06v4a18.577,18.577,0,0,0,3-7.661l1.6,0.358q-0.06.338-.17,0.776t-0.359,1.194c-0.167.5-.278,0.849-0.33,1.035h5.4Zm-10.721,1.751h-3.321v3.841h3.321V60.106Zm0,5.294h-3.321v3.98h3.321V65.4Zm6.561,2.646a16.843,16.843,0,0,0-2.721-4.676l1.24-.816a17.5,17.5,0,0,1,1.741,2.369,14.794,14.794,0,0,1,1.18,2.487Zm24.222,4.577a21.161,21.161,0,0,1-3.1-1.94,14.03,14.03,0,0,1-2.48-2.468A16.211,16.211,0,0,1,230.1,64.6a11.325,11.325,0,0,1-1.43,2.637A16.754,16.754,0,0,1,226,70.206a17.443,17.443,0,0,1-3.321,2.358l-1.2-1.174a20.452,20.452,0,0,0,3.64-2.707,18.759,18.759,0,0,0,1.851-1.98,12.525,12.525,0,0,0,1.43-2.358,8.287,8.287,0,0,0,.63-1.871,14.291,14.291,0,0,0,.3-2.06q0.071-1,.091-1.791t0.03-1.721q0.009-.936.01-1.274h1.6a56.341,56.341,0,0,1-.3,6.289,1.27,1.27,0,0,0,.01.358,1.328,1.328,0,0,0,.12.338,2.294,2.294,0,0,1,.11.239,18.434,18.434,0,0,0,2.06,3.88A13.072,13.072,0,0,0,235.6,69.4a14.777,14.777,0,0,0,3.32,1.93ZM45.5,84.346v3.562l1.88-.836-0.04,1.612L45.5,89.5v5.772a1.394,1.394,0,0,1-.32.856,1.526,1.526,0,0,1-.819.557,7.753,7.753,0,0,1-2.281.119L41.6,95.35q0.3,0,1,.05a3.41,3.41,0,0,0,1-.03,0.377,0.377,0,0,0,.32-0.278,1,1,0,0,0,.061-0.517V90.017A19.225,19.225,0,0,1,42,90.793l-1-1.274,1.38-.428a15.683,15.683,0,0,0,1.6-.567V84.346h-2.54V82.892h2.54V79.112H45.5v3.781h2.16v1.453H45.5ZM59.422,94.435l-0.6,1.552-4.141-.04a10.149,10.149,0,0,1-3.03-.5A6.958,6.958,0,0,1,49.18,94.1a7.311,7.311,0,0,1-1.09,1.781,5.811,5.811,0,0,1-1.31,1.1l-1.04-1.115A5.19,5.19,0,0,0,47.8,93.45a7.252,7.252,0,0,0,.5-3.493l1.5,0.2a14.142,14.142,0,0,1-.18,2.368,3.779,3.779,0,0,0,.939.816,6.885,6.885,0,0,0,1.5.756V89.2H47.5V87.749H58.641V89.2h-5.06v1.731h3.941v1.453H53.581v2.05q0.24,0.04.92,0.09t1.16,0.04Q56.142,94.555,59.422,94.435Zm-11.1-7.641V79.848h8.761v6.945h-8.76Zm7.24-5.493h-5.72v1.234h5.72V81.3Zm0,2.686h-5.72v1.353h5.72V83.987Zm11.8-4.577a40.441,40.441,0,0,1-1.981,4.677V96.923h-1.52V86.534a16.032,16.032,0,0,1-1.641,2.03l-1.3-.915a17.521,17.521,0,0,0,2.3-2.975,23.163,23.163,0,0,0,1.71-3.244q0.651-1.542,1.011-2.677Zm4.36,12.359a16.478,16.478,0,0,1-4.46,5.174L66.1,95.828a16.952,16.952,0,0,0,4.321-4.9ZM66.382,90.2V88.744H69.2V84.385H67V82.873l2.2,0.04v-3.92h1.52v3.881l3.7,0.04v-3.92H76v3.881h2.3v1.513H76v4.358h2.861V90.2H66.382Zm8.041-5.811-3.7-.039v4.4h3.7V84.385Zm4.72,11.6a6.981,6.981,0,0,0-.6.428,8.052,8.052,0,0,1-.66.467,13.583,13.583,0,0,0-1.98-2.637,17.711,17.711,0,0,0-2.641-2.279l1.28-.9a23.14,23.14,0,0,1,1.8,1.473,13.675,13.675,0,0,1,1.51,1.6A15.159,15.159,0,0,1,79.143,95.987Zm2.74-.637V93.9h6.561V79.351h1.52v5.771h6.861v1.453H89.964V93.9h8.621V95.35h-16.7Zm35.643-.1a1.335,1.335,0,0,1-.43.925,1.26,1.26,0,0,1-.911.448h-2l-0.559-1.493,2.12,0.08a0.406,0.406,0,0,0,.26-0.179V81.559H103.746v15.3h-1.521V80.107h15.3V95.251Zm-8.721-4.4q-0.24-.636-0.49-1.214a5.856,5.856,0,0,0-.57-1.035,9.909,9.909,0,0,1-.55,1.224,14.125,14.125,0,0,1-1.03,1.612q-0.68.945-.84,1.184a8.258,8.258,0,0,1-.721-0.477,6.8,6.8,0,0,0-.659-0.438,13.089,13.089,0,0,0,1.449-1.851,14.22,14.22,0,0,0,1.291-2.806,16.959,16.959,0,0,0-2.621-2.985l1.221-.836,0.4,0.4q0.28,0.279.891,0.985c0.406,0.471.637,0.734,0.69,0.786a14.273,14.273,0,0,0,.761-3.184l1.4,0.358a37.367,37.367,0,0,1-1.08,4.179q0.581,0.816.99,1.492a9.281,9.281,0,0,1,.75,1.592Zm5.481,1.712a11.529,11.529,0,0,0-.67-1.841q-0.471-1.044-.971-1.92a22.152,22.152,0,0,1-1.23,2.308,14.058,14.058,0,0,1-1.549,2.05l-1.441-.955a14.679,14.679,0,0,0,3.26-4.677q-1.22-1.711-2.44-3.124l1.2-.816q0.159,0.179.859,1.015t1,1.254c0.014-.039.033-0.112,0.061-0.219s0.156-.537.39-1.293a18.7,18.7,0,0,0,.549-2.269l1.38,0.4a40.251,40.251,0,0,1-1.359,4.816,18.7,18.7,0,0,1,2.319,4.259Zm23.582,4.3a18.234,18.234,0,0,1-6.181-3.124,14.891,14.891,0,0,1-5.9,3.124l-0.981-1.333a15.4,15.4,0,0,0,5.722-2.826,15.189,15.189,0,0,1-2.141-2.7,18,18,0,0,1-1.54-3.194,19.482,19.482,0,0,1-1.14,6.229,15.442,15.442,0,0,1-2.54,3.88q-0.321-.16-0.951-0.537t-0.67-.4a9.793,9.793,0,0,0,3.081-4.975q0.138-.617.29-1.652t0.269-3.264q0.141-2.527.08-4.3h-2.68V80.286h12.742V81.6q-0.981,1.453-2.6,3.582h3.96a10.4,10.4,0,0,1-1.26,4.12,16.786,16.786,0,0,1-2.54,3.343,16.978,16.978,0,0,0,5.921,2.786Zm-7.281-10.229V85.321q1.721-2.15,2.64-3.522h-6.26v0.915q0.24,0.836.639,1.99a32.509,32.509,0,0,0,1.4,3.224,12.007,12.007,0,0,0,.89,1.552,18.241,18.241,0,0,0,1.85,2.149,13.547,13.547,0,0,0,1.85-2.358,10.456,10.456,0,0,0,1.25-2.637h-4.26Zm20.362,3.921V95.31a1.336,1.336,0,0,1-1.42,1.592h-2.761l-0.559-1.632q2,0.178,2.519.159a0.64,0.64,0,0,0,.7-0.7V90.554h-7.681V89.1h7.681V86.077h-6.02V84.624h6.02V81.858q-1.62.2-6.221,0.318l-0.9-1.472a58.341,58.341,0,0,0,7.621-.358,30.339,30.339,0,0,0,6.66-1.374l0.84,1.135a27.868,27.868,0,0,1-6.48,1.572v2.945h5.721v1.453H150.95V89.1h7.36v1.453h-7.36Zm16.781-.258a7.829,7.829,0,0,0-.5-1.374,8.119,8.119,0,0,0-.84-1.413l-0.059,9.313h-1.581V88.5a12.807,12.807,0,0,1-.96,1.662,12.236,12.236,0,0,1-1.48,1.821l-1.18-1.015a12.16,12.16,0,0,0,1.36-1.671,12.956,12.956,0,0,0,1.291-2.4,14.571,14.571,0,0,0,.829-2.6h-2.88V82.873h3.02V79.092h1.581v3.781h2.76v1.433h-2.76v1.97l0.62-.378a8.672,8.672,0,0,1,2.22,3.5Zm11.821,2.228a22.922,22.922,0,0,1-.7,2.627,1.352,1.352,0,0,1-.519.686,1.455,1.455,0,0,1-.861.269h-1.36a2.072,2.072,0,0,1-.76-0.149,1.041,1.041,0,0,1-.55-0.448,1.234,1.234,0,0,1-.17-0.617V81.42h-3.12v9.035a7.706,7.706,0,0,1-.85,3.433A10.719,10.719,0,0,1,168.311,97l-1.359-1.115a11.567,11.567,0,0,0,2.239-2.686,5.758,5.758,0,0,0,.8-2.945V79.987h6.16V94.415q0,0.259.36,0.259h0.64a0.458,0.458,0,0,0,.381-0.289,3.006,3.006,0,0,0,.269-0.757q0.111-.467.22-1.194c0.073-.484.117-0.766,0.13-0.846Zm10.442-5.751a15.236,15.236,0,0,1-1.981,2.03,6.5,6.5,0,0,1,1,.955,9.746,9.746,0,0,1,.96,1.293l-1.179.975a10.852,10.852,0,0,0-1.181-1.562,6.185,6.185,0,0,0-1.2-1.1v7.184h-1.52V89.579a8.946,8.946,0,0,1-1.46,1.2q-0.94.647-1.741,1.124l-0.819-1.333a10.993,10.993,0,0,0,3.53-2.716,10.48,10.48,0,0,0,1.95-3.711h-4.8V82.694h6.821a12.131,12.131,0,0,1-.811,2.776,11.294,11.294,0,0,1-1.15,2.179v0.12l0.28,0.159a10.8,10.8,0,0,0,2.16-2.149Zm-4.421-4.239a8.094,8.094,0,0,0-1.18-1.413,13.477,13.477,0,0,0-1.6-1.373l1.08-.955a15.685,15.685,0,0,1,2.92,2.746Zm5.7,14.01V78.912h1.521V96.545h-1.521Zm6.262-5.771a17.483,17.483,0,0,0-1.871-2.786,19.79,19.79,0,0,0-2.25-2.408l0.96-.955a20.332,20.332,0,0,1,2.51,2.488,16.432,16.432,0,0,1,1.991,2.667Zm8.86-1.99a8.738,8.738,0,0,1-1.17,4.617,11.587,11.587,0,0,1-3.43,3.483l-0.9-1.234a10,10,0,0,0,3.031-3.1,7.489,7.489,0,0,0,.95-3.8V82.952h1.52v5.831Zm1.08,2.706V81.361h-3.64V91.49h-1.521V79.907H209V91.49h-1.521Zm1.24,5.154a11.26,11.26,0,0,0-.95-1.672,9.256,9.256,0,0,0-1.91-1.89l0.94-1a7.586,7.586,0,0,1,1.72,1.443,9.208,9.208,0,0,1,1.38,2Zm5.321-12.14v3.762h3.36v8.617h-1.52V95.45H211.6v1.433h-1.52V88.266h2.44V78.992h1.521v4.06h4.78V84.5h-4.78Zm1.84,5.214H211.6V94h4.281V89.719Zm8.961,6.886-0.9-1.274a1.9,1.9,0,0,0,.4-0.438,0.947,0.947,0,0,0,.12-0.5V85.858h-2.92V84.4h4.44v9.93l3-1.632v1.651Zm0.439-13.851a9.235,9.235,0,0,0-2.54-3l1.08-.915a8.707,8.707,0,0,1,1.531,1.333,8.855,8.855,0,0,1,1.19,1.632Zm8.861,3.6V96.863h-1.52V86.355h-4.66V84.9h4.66v-5.91h1.52V84.9H238.8v1.453h-4.661Zm18.582,6.607a9.158,9.158,0,0,1-1.16,3.264,1.411,1.411,0,0,1-.47.478,1.259,1.259,0,0,1-.91.04,3.155,3.155,0,0,1-.92-0.388,4.227,4.227,0,0,1-1.08-1.084,18.177,18.177,0,0,1-1.741-2.647q-1.659,1.155-2.54,1.642a13.9,13.9,0,0,1-1.76.826l-1.18-1.254a18.154,18.154,0,0,0,4.881-2.686,22.606,22.606,0,0,1-.761-2.607,26.522,26.522,0,0,1-.5-2.726l-2.82.4-0.2-1.433,2.821-.418q-0.181-3.7-.161-5.373H245.8v2.289l0.179,2.866,5.9-.9,0.2,1.473-5.939.876a23.022,23.022,0,0,0,.979,4.478,17.062,17.062,0,0,0,1.6-1.961,21.447,21.447,0,0,0,1.359-2.179l1.2,0.876a17.12,17.12,0,0,1-3.56,4.776,8.275,8.275,0,0,0,2.56,3.443,0.47,0.47,0,0,0,.18.07,0.233,0.233,0,0,0,.18-0.149q0.5-1.81.64-2.547Zm-2.5-10.488q-0.161.12-.561,0.468a5.214,5.214,0,0,1-.659.507,7.38,7.38,0,0,0-2.9-2.885q0.861-.676,1.121-0.935A8.258,8.258,0,0,1,250.219,82.475ZM252.8,92.6V81.341h1.52V92.6H252.8Zm5.2,2.468a1.515,1.515,0,0,1-.96,1.513,2.806,2.806,0,0,1-.6.159,6.015,6.015,0,0,1-1.059.04c-0.467-.014-0.768-0.02-0.9-0.02l-0.54-1.532,2.08,0.06a0.883,0.883,0,0,0,.33-0.13,0.449,0.449,0,0,0,.13-0.388V78.932H258v16.14Z"/>
</svg>
