<svg xmlns="http://www.w3.org/2000/svg" width="320" height="50" viewBox="0 0 320 50">
  <defs>
    <style>
      .cls-1 {
        fill: #4b286d;
        fill-rule: evenodd;
      }
    </style>
  </defs>
  <path id="回饋社會_建造更強大的社區_" data-name="回饋社會 建造更強大的社區 " class="cls-1" d="M98.666,21.6V9.187l-11.858.032L86.792,21.747h1.216V20.483L97.465,20.5l-0.016,1.136ZM88.024,10.371h9.409l0.032,8.912-9.457.016Zm7.649,7.12V12.115H89.72v5.392ZM90.937,13.3h3.5l0.016,3.04h-3.5Zm25.092,0.128V12.339h-3.745l-0.016-.432h2.961v-2.9h-2.945l-0.016-1.072h-1.184V9.027l-2.944-.016v2.9h2.944v0.432H107.6v1.088h8.433Zm0.32,8-0.5-.432a6.768,6.768,0,0,0-1.448-.744,11.4,11.4,0,0,0-1.752-.488h2.4l0.016-5.776h-6.785v5.792l1.984,0.032a9.383,9.383,0,0,1-1.9,1.016,7.432,7.432,0,0,1-1.52.392q0.048,0.064.3,0.5a4.849,4.849,0,0,0,.416.632,10.123,10.123,0,0,0,2.048-.72,6.036,6.036,0,0,0,1.76-1.136l-0.624-.736h1.6l-0.576.928a7.716,7.716,0,0,1,2.3.688,6.413,6.413,0,0,1,1.408.976Zm-10.513-3.12-0.945.656q0.144,0.112.465,0.32a2.067,2.067,0,0,1,.368.272l-1.729.7L103.978,18h3.361V12.947l-4.209-.032c0.021-.011.064-0.034,0.128-0.072a2.784,2.784,0,0,0,.448-0.6h3.057l0.032-.672,0.144,0.272,0.96-.72a5.927,5.927,0,0,0-1.264-1.384,4.255,4.255,0,0,0-1.473-.792,2.134,2.134,0,0,1,.065-0.264,1.314,1.314,0,0,0,.048-0.44l-1.073-.32a7.407,7.407,0,0,1-2.8,4.928l0.928,0.832a3.741,3.741,0,0,0,.48-0.352L102.794,20a1.9,1.9,0,0,1-.384,1.2q0.1,0.08.448,0.368t0.544,0.416q1.617-.9,3.121-1.568a4.776,4.776,0,0,1,.4.784,4.5,4.5,0,0,0,1.04-.608,4.833,4.833,0,0,0-2.128-2.288h0Zm8.209-7.488h-1.777v-0.7l1.777-.016v0.72Zm-2.961,0h-1.776V10.1l1.776,0.016v0.7Zm2.769,4.7-4.369-.016,0.016-.464h4.353v0.48Zm0,1.5-4.369.016v-0.56h4.369v0.544Zm-9.506-5.9,0.152-.3q0.12-.232.224-0.448a3.276,3.276,0,0,0,.168-0.408,3.363,3.363,0,0,1,1.5,1.168ZM113.852,18l-0.016.656h-4.353V17.987ZM106.2,14.931h-2.209V14.1H106.2v0.832Zm0,1.952h-2.209V15.971H106.2v0.912Zm12.9-8.368a7.567,7.567,0,0,1,1.617,2.608,5.781,5.781,0,0,0,.616-0.3c0.25-.139.424-0.229,0.52-0.272a6.4,6.4,0,0,0-.784-1.5,12.472,12.472,0,0,0-.928-1.112Zm8.722-.464-1.313.016v5.088h-3.44v1.184h3.44v5.712h-4.16l0.016,1.232,9.649-.016v-1.2l-4.192-.016-0.032-5.712,3.632,0.016,0.032-1.168-3.664-.016Zm-3.425,9.12a13.853,13.853,0,0,0-1.376-1.4,5.021,5.021,0,0,0-1.008-.68l-0.464.464L121.533,15a14.73,14.73,0,0,0,1.728-2.752V11.187l-5.3-.016-0.032,1.184h3.937a13.872,13.872,0,0,1-1.816,2.384,20.554,20.554,0,0,1-2.5,2.16l0.912,1.008a12.423,12.423,0,0,0,1.825-1.584v6.048h1.264V16.147a5.515,5.515,0,0,1,.936.816q0.535,0.56.968,1.088Zm19.075-6.064q0.447,0.3,1.08.664a9.828,9.828,0,0,0,.936.488l-9.681-.032a15.863,15.863,0,0,0,2.432-1.3l0.016,0.656h5.217v-0.48ZM140.255,13.4l-0.016,1.456h-0.96a6.879,6.879,0,0,0-1.392-1.456h2.368Zm-2.608.032a4.282,4.282,0,0,0-.832.416l0.5,0.432q0.392,0.336.488,0.44c0.064,0.069.107,0.115,0.128,0.136h-1.664V13.4ZM141.9,8.051l-1.1-.608a15.135,15.135,0,0,1-2.752,2.248,27.515,27.515,0,0,1-4.689,2.28l0.656,1.056a10.215,10.215,0,0,0,1.025-.432v3.392h11.585l0.016-3.232q0.928,0.288,1.072.32l0.768-1.056a11.342,11.342,0,0,1-2.976-1.056,25.891,25.891,0,0,1-3.9-2.656Zm1.68,5.328a6.321,6.321,0,0,1-1.088,1.488h-1.057l0.016-1.488h2.129Zm0.192,0h1.6l0.016,1.488h-1.376l0.576-1.008Zm-4.689-2.96q0.368-.24.72-0.5t1.1-.872q0.417,0.4,1.665,1.408ZM137.215,22.2V21.411h7.233V22.2h1.264L145.7,16.563l-9.7.016V22.2h1.216Zm0.016-4.48h7.249V18.4l-7.249-.016V17.715Zm7.233,2.56h-7.233V19.523h7.249ZM63.045,39.355l-0.016-1.52,4.561,0.016-0.016-1.168H63.029l0.016-.944h3.664V34.571l-3.68.016v-0.96l3.489,0.016V31.5h1.04V30.347h-1.04V28.315L63.045,28.3l-0.016-1.248H61.813V28.3l-2.7.016v1.152h2.7v0.864l-3.761.016V31.5l3.761,0.016,0.016,0.96h-2.72v1.168h2.72l-0.016.944H58.8v1.152h3.024l-0.016.944H58.2v1.168h3.633v1.5h1.216ZM65.3,29.467v0.88H63.029v-0.88H65.3Zm-2.272,3.024V31.515L65.3,31.5v0.976Zm4.977,6.96q-2.32.128-4.881,0.16a14.236,14.236,0,0,1-4-.312,5.026,5.026,0,0,1-2.064-1.112,11.252,11.252,0,0,0,1.12-4.9l-2.288-.016A13.741,13.741,0,0,0,58.2,29.5L58.18,28.443l-4.193-.016L53.972,29.6h2.912a12.885,12.885,0,0,1-1.112,1.952,14.324,14.324,0,0,1-1.528,1.888v1.008h2.72a9.121,9.121,0,0,1-.328,1.944,5.959,5.959,0,0,1-.408.936,3.256,3.256,0,0,1-.32-0.44q-0.176-.28-0.48-0.88t-0.4-.76l-0.976.56A11.591,11.591,0,0,0,55.6,38.347a13.1,13.1,0,0,1-1.856,2.128l0.912,0.88a15.993,15.993,0,0,0,1.128-1.216,9.1,9.1,0,0,0,.7-0.912A7.007,7.007,0,0,0,59.4,40.539a9.968,9.968,0,0,0,2.048.208h6.081Zm10.273-9.3v1.616H74.246v1.168h4.049l-0.016.944H79.5v-0.96l4.144,0.016V31.771H79.5V30.155h3.056V28.987h-3.04L79.5,26.923l-1.216.016v2.048H77a5.964,5.964,0,0,0,.288-1.088l-1.1-.4a5.62,5.62,0,0,1-2.064,3.376l0.976,0.784a6.711,6.711,0,0,0,1.312-1.52Zm0,9.248a15,15,0,0,1-2.832-.264,8.888,8.888,0,0,1-2.352-.76,9.919,9.919,0,0,0,.96-3.6h-2.1a12.207,12.207,0,0,0,2.064-3.024V30.731l-4.1.016L69.91,31.9H72.6a12.865,12.865,0,0,1-2.32,2.976l-0.032,1.04h2.432q-0.272,2.24-2.992,4.624l0.976,0.816q0.288-.272.7-0.7t0.7-.768q0.288-.344.432-0.536,0.064,0.032.272,0.144t0.352,0.184q0.144,0.072.344,0.168t0.488,0.208q0.288,0.112.7,0.232a7.588,7.588,0,0,0,.888.2,8.434,8.434,0,0,0,.9.1q0.416,0.024.736,0.024l6.033-.016,0.928-1.2H78.279Zm4.081-5.216H75.3v4.848l1.232-.016V38.267l4.609-.016v0.768l1.2,0.016Zm-1.216,1.168V37.1H76.535l-0.016-1.744h4.625Zm-7.585-5.872a16.95,16.95,0,0,0-1.488-1.976,4.4,4.4,0,0,0-.736-0.6l-1.1.832a6.114,6.114,0,0,1,2.192,2.448Zm26.66,10.56q-1.488-.032-3.129-0.216a27.084,27.084,0,0,1-2.888-.464,7.691,7.691,0,0,1-1.952-.664,4.77,4.77,0,0,0,.672-1.208,6.1,6.1,0,0,0,.368-1.416h4.673v-5.92H93.513V28.971l6.193,0.016V27.851H86.056v1.136l6.273-.016v1.184H87.736l-0.016,5.92h4.353a5.087,5.087,0,0,1-.328,1.056,4.391,4.391,0,0,1-.552.96,18.888,18.888,0,0,1-2.336-1.824l-0.928.624a10.911,10.911,0,0,0,2.32,2.048,13.863,13.863,0,0,1-2.408.9,21.649,21.649,0,0,1-2.248.5l0.72,1.072A11.245,11.245,0,0,0,90.9,39.9l0.5-.336a14.941,14.941,0,0,0,3.056,1.064,29.084,29.084,0,0,0,5.009.648Zm-3.425-7.52H93.529l0.016-1.232h3.248v1.232ZM88.92,31.291l3.408,0.016v1.216H88.92V31.291Zm7.889,2.368v1.264H93.417l0.08-1.264h3.312Zm-7.889,0H92.3l-0.064,1.264-3.312-.016V33.659Zm23.716,4.3a11.9,11.9,0,0,1,1.024.992l-2.081.224V37.163h3.185V32.7h-3.137l-0.016-1.392L114.2,31.1a5.876,5.876,0,0,1,.7,1.072l1.024-.624a10.448,10.448,0,0,0-1.424-1.8,12.357,12.357,0,0,0-1.728-1.5l-1.057.7a6.68,6.68,0,0,1,1.617,1.136q-1.041.1-2.561,0.2t-2.24.12A9.57,9.57,0,0,0,110.163,29a13.9,13.9,0,0,0,1.224-1.5q-0.127-.08-0.464-0.32t-0.544-.368a13.278,13.278,0,0,1-3.968,3.9l0.656,1.04q1.647-.24,3.344-0.352v1.3h-3.232l0.016,4.464h3.184l0.016,2.144-1.376.144q-1.073.112-1.728,0.152t-1.2.04q0.063,0.128.264,0.52T106.7,40.8l7.665-.784a6.437,6.437,0,0,1,.544,1.28,4.809,4.809,0,0,0,.608-0.312q0.367-.216.528-0.3a10.4,10.4,0,0,0-2.1-3.1Zm0.976-4.1V36l-1.985-.016-0.016-2.112h2Zm-5.217-.016h2.016v2.16L108.4,36V33.851Zm-6.081,6.9a6.848,6.848,0,0,0,2.224.448,1.336,1.336,0,0,0,.672-0.336,1.5,1.5,0,0,0,.433-0.688,19.214,19.214,0,0,0,.7-5.5l-2.689.016q0.144-1.232.208-2.32l2.449-.016,0.016-4.608h-4.289v1.136h3.088v2.336h-2.464a33.866,33.866,0,0,1-.448,4.608l2.944-.016a17.571,17.571,0,0,1-.416,3.008,8.689,8.689,0,0,1-.216.88,0.744,0.744,0,0,1-.144.24,0.376,0.376,0,0,1-.184.12,0.465,0.465,0,0,1-.192.008,8.687,8.687,0,0,1-1.856-.608Zm21.539-8.608a11.042,11.042,0,0,1-1.08,3.248,10.1,10.1,0,0,1-1.9,2.544,9.92,9.92,0,0,1-2.689,1.84l0.912,1.1a11.7,11.7,0,0,0,4.041-3.464,13.842,13.842,0,0,0,2.024-5.272,15.235,15.235,0,0,0,.856,3.416,10.013,10.013,0,0,0,1.3,2.344,9.817,9.817,0,0,0,1.672,1.72,17.719,17.719,0,0,0,1.9,1.336l0.864-.96a12.441,12.441,0,0,1-2.672-2.032,9.273,9.273,0,0,1-1.712-2.448,13.713,13.713,0,0,1-1.041-3.376h4.705l-0.016-1.232h-5.729a38.032,38.032,0,0,0,.08-3.84c-0.106-.021-0.3-0.048-0.592-0.08a6.1,6.1,0,0,1-.7-0.112,33.668,33.668,0,0,1-.112,4.032h-4.993v1.232h4.881Zm18.6-5.28a14.113,14.113,0,0,1-2.417,6.112l0.016-3.152H137.6a10.151,10.151,0,0,0,.864-2.368l-1.152-.464a9.743,9.743,0,0,1-.976,2.832h-1.472V40.891h1.264V39.6l2.688-.016c0,0.053,0,.232-0.016.536a5.893,5.893,0,0,0,.016.776l1.232-.016V33.5l0.832,0.528a12.935,12.935,0,0,0,1.857-3.344h3.408a50.894,50.894,0,0,1-.528,7.072,10.038,10.038,0,0,1-.528,1.888,0.593,0.593,0,0,1-.608.288,11.875,11.875,0,0,1-2.416-.672l0.208,1.344a15.756,15.756,0,0,0,2.1.5,2.805,2.805,0,0,0,.744,0,1.422,1.422,0,0,0,.672-0.4,2.313,2.313,0,0,0,.56-0.944,14.713,14.713,0,0,0,.56-2.28q0.192-1.176.264-2.168t0.1-1.832q0.033-.84.048-2.192t0.032-1.72h-4.32q0.063-.224.264-0.832t0.288-.96c0.058-.235.1-0.442,0.136-0.624Zm-3.681,4.1v3.12l-2.656-.016-0.016-3.1h2.672Zm-2.64,7.472v-3.2l2.656-.016,0.016,3.232Zm9.057-1.584a12.013,12.013,0,0,0-.944-2,14.089,14.089,0,0,0-1.392-1.9l-0.992.656a14.025,14.025,0,0,1,2.176,3.76Zm5.921-9.328a7.565,7.565,0,0,1,1.616,2.608,5.781,5.781,0,0,0,.616-0.3q0.377-.208.52-0.272a6.4,6.4,0,0,0-.784-1.5,12.311,12.311,0,0,0-.928-1.112Zm8.721-.464-1.312.016v5.088h-3.441v1.184h3.441v5.712h-4.161l0.016,1.232,9.65-.016v-1.2l-4.193-.016-0.032-5.712,3.633,0.016,0.032-1.168-3.665-.016Zm-3.424,9.12a13.843,13.843,0,0,0-1.377-1.4,4.965,4.965,0,0,0-1.008-.68l-0.464.464L153.537,34a14.73,14.73,0,0,0,1.728-2.752V30.187l-5.3-.016-0.032,1.184h3.936a13.872,13.872,0,0,1-1.816,2.384,20.538,20.538,0,0,1-2.5,2.16l0.912,1.008a12.4,12.4,0,0,0,1.824-1.584v6.048h1.264V35.147a5.439,5.439,0,0,1,.936.816q0.537,0.56.968,1.088Zm17.25-2.16L169.123,34v4.432h4.529V34.011Zm4.176,3.216-2.144-.016V35.163l2.16-.016ZM174.468,34v4.384h4.577V34h-4.577Zm-2.048,1.152,0.016,2.128-2.113-.016v-2.1Zm5.216-5.552h-7.185l-0.016,3.568,7.2-.016V29.6Zm-5.984,1.072h4.768v1.392h-4.768V30.667Zm8.145,8.8H169.123a0.717,0.717,0,0,1-.512-0.144,0.662,0.662,0,0,1-.144-0.48l-0.016-9.824h11.266V27.835l-13.49-.016V29l1.008,0.016V39.163a1.871,1.871,0,0,0,.176.816,1.08,1.08,0,0,0,.472.52,1.271,1.271,0,0,0,.584.152H179.8V39.467Z"/>
</svg>
