<svg xmlns="http://www.w3.org/2000/svg" width="320" height="50" viewBox="0 0 320 50">
  <defs>
    <style>
      .cls-1 {
        fill: #4b286d;
        fill-rule: evenodd;
      }
    </style>
  </defs>
  <path id="僅過去一年_我們回饋了_1.25億_" data-name="僅過去一年 我們回饋了$1.25億 " class="cls-1" d="M85.831,12.9l-3.776-.016v3.232h3.776v0.72H82.055v1.12h3.776v0.688H82.519l0.016,1.1,3.344-.032V20.6l-4.7-.016v1.088l10.945-.016L92.1,20.563,87.08,20.6v-0.88l3.3,0.016-0.016-1.1-3.28-.016V17.923l3.761,0.016v-1.1H87.048l-0.016-.72H90.84L90.856,12.9l-3.825-.016V12.211l2.1-.016V10.323h2.608v-1.1H89.128L89.112,7.987H87.9L87.88,9.2H84.935V8H83.671V9.219L81.719,9.2,81.7,10.323h1.952v1.84l2.16,0.016ZM89.608,14L89.576,15l-2.544-.016V13.987Zm-6.321-.016h2.528v1.024l-2.512.016Zm1.648-2.912,0.016-.752H87.88v0.752H84.935Zm-6.513,4.9a17.445,17.445,0,0,0,1.248-1.68v8.1h1.264L80.919,11.539q0.064-.224.424-1.352a17.611,17.611,0,0,0,.488-1.768l-1.136-.592a25.988,25.988,0,0,1-.872,3.1,13.439,13.439,0,0,1-1.144,2.48,13,13,0,0,1-1.328,1.84Zm25.62,3.952a6.742,6.742,0,0,0,2.032-.16,1.251,1.251,0,0,0,.624-0.512,1.411,1.411,0,0,0,.144-0.64l0.016-5.52-0.96.016V8.691H98.937l-0.016,4.432H98.057v6.928h1.2l0.016-5.792h6.369V18.4a0.5,0.5,0,0,1-.064.256,0.231,0.231,0,0,1-.16.128,9.329,9.329,0,0,1-1.84.032Zm-2.337-6.816h-1.568V9.843h4.545l0.016,0.976h-2.993v2.288Zm1.169-1.216,1.808-.016v1.232h-1.808V11.891Zm1.616,6.464V15.027h-4.113v3.2l0.016,0.128h4.1Zm-1.136-2.24v1.136h-1.921V16.115h1.921Zm-9.073-7.5a5.639,5.639,0,0,1,1,1.12,14.023,14.023,0,0,1,.776,1.312q0.224-.128.576-0.36t0.416-.28q-0.176-.336-0.512-0.88a6.224,6.224,0,0,0-.7-0.944,5.953,5.953,0,0,0-.608-0.592ZM94.393,22.4a10.9,10.9,0,0,0,.992-0.992,11.048,11.048,0,0,0,.832-1.04,6.543,6.543,0,0,0,4.32,1.3l6.865-.048,0.528-1.248q-0.144,0-1.216.056t-1.568.072l-2.576.032a26.662,26.662,0,0,1-2.993-.064,7.355,7.355,0,0,1-1.312-.264,4.193,4.193,0,0,1-.92-0.408,3.954,3.954,0,0,1-.632-0.464,11.935,11.935,0,0,0,.816-3.44h-2a16.177,16.177,0,0,0,1.024-1.416,15.8,15.8,0,0,0,.944-1.592V11.811H93.768v1.1h2.384a13.774,13.774,0,0,1-1.128,1.768,11.061,11.061,0,0,1-1.08,1.256v1.072l2.3-.016a6.5,6.5,0,0,1-.56,1.84,7.311,7.311,0,0,1-1.016,1.624A9.578,9.578,0,0,1,93.56,21.6ZM113.5,20a15.433,15.433,0,0,0,3.281-4.064h6.272V14.755h-5.584v-2.88h4.384V10.723l-4.384-.032L117.5,7.955l-1.313.016v2.72l-4.4-.032,0.016,1.216h4.4l-0.016,2.912-5.568-.032v1.184h4.688a15.878,15.878,0,0,1-1.848,2.432,12.07,12.07,0,0,1-2.328,2l0.768,1.152q2.225-.4,5.393-0.656t3.544-.288l0.552-.048a12.326,12.326,0,0,1,.9,1.632,3.693,3.693,0,0,0,.608-0.336c0.246-.16.416-0.267,0.512-0.32a13.428,13.428,0,0,0-1.7-2.608,8.2,8.2,0,0,0-1.936-1.728l-1.264.672a7.69,7.69,0,0,1,1.176.728,4.924,4.924,0,0,1,.856.84Zm13.122-4.416,12.4-.016V14.243h-12.4v1.344Zm18.4-7.776a10.432,10.432,0,0,1-2.96,5.312l1.008,0.816a7.766,7.766,0,0,0,1.224-1.448,16.944,16.944,0,0,0,.984-1.752h3.3v2.048l-4.257.016v3.776l-1.984-.016v1.2h6.241v4.592h1.264V17.747l5.521,0.016V16.579H149.84V13.987h4.081V12.8H149.84l-0.016-2.048,4.881-.032V9.555h-8.961q0.207-.688.248-0.9c0.026-.139.045-0.256,0.056-0.352Zm3.553,6.176-0.016,2.592h-3.008V13.987h3.024Zm-89,12.968a47.513,47.513,0,0,0,.1,4.88l-2.977.016V29.243q0.208-.08.568-0.264t1.848-1.048l-0.8-.912a19.486,19.486,0,0,1-2.1,1.016,10.506,10.506,0,0,1-1.864.536,12.977,12.977,0,0,1-2.288.208,10,10,0,0,1,.752,1.2,10.727,10.727,0,0,0,1.36-.144,6.828,6.828,0,0,0,1.232-.288v2.3H52.139l0.016,1.2,3.264,0.016v2.672q-2,.512-3.681.832l0.9,1.168,2.8-.752V39.6a0.406,0.406,0,0,1-.1.288,0.4,0.4,0,0,1-.264.128L53.1,39.963l0.448,1.248q0.224-.016.864,0a7.9,7.9,0,0,0,1-.024,2.581,2.581,0,0,0,.616-0.136,1.276,1.276,0,0,0,.688-1.1l0.016-3.312,2.448-.656-0.016-1.232-2.432.624-0.016-2.3h3.072a19.673,19.673,0,0,0,.9,4.016,15.251,15.251,0,0,1-3.616,2.32l1.072,0.9a16.99,16.99,0,0,0,3.1-2.016,8.69,8.69,0,0,0,1.728,2.176,2.7,2.7,0,0,0,1.056.648,1.708,1.708,0,0,0,.592.008,1.13,1.13,0,0,0,.528-0.56,9.847,9.847,0,0,0,.544-2.64l-1.248-.48a9.106,9.106,0,0,1-.4,2.224q-0.064.176-.328-0.1a12.727,12.727,0,0,1-.888-1.16,7.271,7.271,0,0,1-.64-1.056,14.1,14.1,0,0,0,2.4-3.376L63.5,33.5a12.161,12.161,0,0,1-1.792,2.624,17.546,17.546,0,0,1-.64-3.072h4.145v-1.2H60.956q-0.064-.784-0.1-2.312t-0.04-2.584H59.58Zm1.632,1.6a6.218,6.218,0,0,1,1.656,1.12,4.665,4.665,0,0,1,1.1,1.536,7.588,7.588,0,0,0,1.024-.88A5.233,5.233,0,0,0,63.8,28.787a7.792,7.792,0,0,0-1.568-1.16ZM73.79,31.323h1.7L75.5,32.667H73.79V31.323Zm4.945,9.792a6.608,6.608,0,0,1,.712.008,3.272,3.272,0,0,0,.84-0.048,2.229,2.229,0,0,0,.56-0.2,1.441,1.441,0,0,0,.456-0.544,2.6,2.6,0,0,0,.152-1.04L81.439,27.739l-4.16-.032v6.128h2.9l0.016,5.584a0.543,0.543,0,0,1-.1.352,0.377,0.377,0,0,1-.264.144q-0.208.016-.72,0T78.438,39.9H78.174Zm1.488-12.272-0.032,1.328H78.478l0.016-1.312Zm-0.032,2.48v1.36l-1.712-.016V31.323h1.712Zm-3.457-3.616H72.494L72.51,41.355l1.232,0.032,0.016-7.552H76.75ZM75.5,28.875l-0.016,1.312-1.648.016V28.891Zm-4.545-2.064q-0.512,1.568-1.056,2.9a20.766,20.766,0,0,1-1.144,2.384A19.8,19.8,0,0,1,67.613,33.9l1.12,0.608q0.176-.224.368-0.488t0.432-.616q0.24-.352.288-0.432v8.416h1.248V30.4a31.3,31.3,0,0,0,1.024-3.136ZM96.609,40.6V28.187l-11.858.032L84.735,40.747h1.216V39.483L95.409,39.5l-0.016,1.136ZM85.968,29.371h9.409l0.032,8.912-9.457.016Zm7.649,7.12V31.115H87.664v5.392ZM88.88,32.3h3.5l0.016,3.04H88.9Zm25.091,0.128V31.339h-3.744l-0.016-.432h2.96v-2.9h-2.944l-0.016-1.072h-1.184v1.088l-2.945-.016v2.9h2.945v0.432h-3.489v1.088h8.433Zm0.32,8L113.8,40a6.745,6.745,0,0,0-1.448-.744,11.4,11.4,0,0,0-1.752-.488H113l0.016-5.776h-6.785v5.792l1.985,0.032a9.414,9.414,0,0,1-1.905,1.016,7.432,7.432,0,0,1-1.52.392q0.048,0.064.3,0.5a4.956,4.956,0,0,0,.416.632,10.123,10.123,0,0,0,2.048-.72,6.043,6.043,0,0,0,1.761-1.136l-0.624-.736h1.6l-0.576.928a7.718,7.718,0,0,1,2.3.688,6.389,6.389,0,0,1,1.408.976Zm-10.513-3.12-0.944.656c0.1,0.075.25,0.181,0.464,0.32a2.067,2.067,0,0,1,.368.272l-1.728.7L101.922,37h3.36V31.947l-4.208-.032c0.021-.011.064-0.035,0.128-0.072a2.821,2.821,0,0,0,.448-0.6h3.056l0.032-.672,0.144,0.272,0.96-.72a5.906,5.906,0,0,0-1.264-1.384,4.262,4.262,0,0,0-1.472-.792,2.031,2.031,0,0,1,.064-0.264,1.314,1.314,0,0,0,.048-0.44l-1.072-.32a7.409,7.409,0,0,1-2.8,4.928l0.928,0.832a3.741,3.741,0,0,0,.48-0.352L100.737,39a1.9,1.9,0,0,1-.384,1.2q0.1,0.08.449,0.368c0.234,0.192.416,0.331,0.544,0.416q1.615-.9,3.12-1.568a4.7,4.7,0,0,1,.4.784,4.484,4.484,0,0,0,1.04-.608,4.833,4.833,0,0,0-2.128-2.288h0Zm8.209-7.488h-1.776v-0.7l1.776-.016v0.72Zm-2.96,0H107.25V29.1l1.777,0.016v0.7Zm2.768,4.7-4.369-.016,0.016-.464H111.8v0.48Zm0,1.5-4.369.016v-0.56H111.8v0.544Zm-9.5-5.9c0.021-.043.072-0.141,0.152-0.3s0.154-.3.224-0.448a3.612,3.612,0,0,0,.168-0.408,3.367,3.367,0,0,1,1.5,1.168ZM111.8,37l-0.016.656h-4.353V36.987Zm-7.649-3.072h-2.208V33.1h2.208v0.832Zm0,1.952h-2.208V34.971h2.208v0.912Zm15.41,3.76,0.576,1.28,2.352-.032a1.064,1.064,0,0,0,.865-0.416,1.362,1.362,0,0,0,.3-0.832l0.016-7.12a13.866,13.866,0,0,0,4.368-3.568V27.883H117.524v1.2l8.7,0.016a14.524,14.524,0,0,1-3.873,2.8v7.264a0.64,0.64,0,0,1-.08.32,0.274,0.274,0,0,1-.176.16h-2.544Zm20.708-2.464c0-1.648-.928-2.672-3.553-3.248l-0.336-.08V29.883a2.217,2.217,0,0,1,2.224,2.3h1.377c-0.048-1.7-.913-3.264-3.6-3.52V27.018h-1.12v1.6c-2.209.1-3.617,1.216-3.617,2.976,0,2.08,1.52,2.864,3.457,3.3l0.16,0.032v4.336a2.587,2.587,0,0,1-2.609-2.752h-1.392c0.032,2.592,1.664,3.792,4,3.984v1.632h1.12V40.507C138.871,40.4,140.264,39.1,140.264,37.179Zm-7.234-5.584c0-1.008.752-1.68,2.225-1.76v3.76C133.478,33.147,133.03,32.6,133.03,31.595Zm3.345,7.7V35.179c1.808,0.432,2.5.96,2.5,2C138.871,38.491,137.959,39.2,136.375,39.291Zm8.8-10.417h-1.088c-0.288,1.376-1.12,1.728-2.593,1.824l-0.256.016v1.056h2.593v8.5h1.344V28.874Zm2.56,11.5a0.919,0.919,0,0,0,.912-0.944,0.937,0.937,0,0,0-1.872,0A0.92,0.92,0,0,0,147.736,40.379Zm3.569-1.328c0.1-1.264.736-1.952,2.048-2.72l1.216-.7c1.825-1.056,2.593-2.256,2.593-3.712a3.317,3.317,0,0,0-3.633-3.3c-2.352,0-3.777,1.312-3.745,3.664h1.329a2.156,2.156,0,0,1,2.384-2.448,2.026,2.026,0,0,1,2.257,2.08c0,1.2-.625,1.92-2,2.72l-1.44.832a4.665,4.665,0,0,0-2.481,4.176l-0.032.624h7.522V39.051h-6.017Zm10.785-6.209a3.254,3.254,0,0,0-2.16.832l0.544-3.584h4.8V28.874h-5.889l-0.961,6.561h1.249a2.381,2.381,0,0,1,2.336-1.376,2.625,2.625,0,0,1,0,5.248,2.4,2.4,0,0,1-2.528-2.208h-1.345a3.6,3.6,0,0,0,3.873,3.424,3.709,3.709,0,0,0,3.953-3.84A3.627,3.627,0,0,0,162.09,32.843ZM178,38.2a8.671,8.671,0,0,0-1.728-1.3h3.968V32.4h-7.825v4.512h3.217l-0.577.56a7.826,7.826,0,0,1,2,1.52Zm0.992-4.128-5.329-.016V33.515l5.329-.016v0.576Zm0,1.1V35.8l-5.329-.016V35.179h5.329Zm-0.4-6.048h2.448l-0.016-1.12-4.4.016a5.02,5.02,0,0,0-.912-1.36l-1.2.576a4.361,4.361,0,0,1,.5.44,2.05,2.05,0,0,1,.288.344h-3.68v1.1l2.368,0.032-0.864.512a5,5,0,0,1,1.072,1.072h-3.312l-0.016,1.1h10.929l-0.016-1.12h-3.2q0.224-.3.36-0.5t0.24-.352a2.866,2.866,0,0,0,.152-0.256Zm-0.368,0a4.854,4.854,0,0,1-1.152,1.6h-1.5q-0.033-.048-0.289-0.472a4.778,4.778,0,0,0-.488-0.688,4.185,4.185,0,0,0-.44-0.44h3.873ZM168.2,34.747q0.256-.368.673-0.888t0.48-.616v8.1l1.2-.016-0.016-10.336a23.483,23.483,0,0,0,1.168-3.712l-1.1-.48q-0.609,2.224-1,3.224a12.769,12.769,0,0,1-.952,1.928,20.216,20.216,0,0,1-1.6,2.208ZM182.14,39.6a6.377,6.377,0,0,0-.944-1.328A10.547,10.547,0,0,0,180.06,37.2l-0.944.672a8.857,8.857,0,0,1,1.352,1.352,7.063,7.063,0,0,1,.664,1.048Zm-10.529.848a7.548,7.548,0,0,0,1.312-1.344,8.771,8.771,0,0,0,.7-1.152l-0.912-.608a7.459,7.459,0,0,1-1.888,2.288Zm6.865-2.224a4.5,4.5,0,0,1-.52,1.056,0.553,0.553,0,0,1-.408.24h-2.177a0.315,0.315,0,0,1-.24-0.088A0.288,0.288,0,0,1,175,39.211l-0.016-1.728h-1.2v2.1a0.9,0.9,0,0,0,.216.584,1.179,1.179,0,0,0,.488.368,1.377,1.377,0,0,0,.48.1h2.785a1.246,1.246,0,0,0,1.136-.72,6.926,6.926,0,0,0,.624-1.328Z"/>
</svg>
