<svg xmlns="http://www.w3.org/2000/svg" width="728" height="90" viewBox="0 0 728 90">
  <defs>
    <style>
      .cls-1 {
        fill: #fff;
        fill-rule: evenodd;
      }
    </style>
  </defs>
  <path id="cta" class="cls-1" d="M638.161,66.781v1.05H632V58h1.171v8.786h4.987Zm7.038-2.128h-5.461c0.111,1.6.961,2.335,2.216,2.335a1.846,1.846,0,0,0,1.908-1.326h1.156A2.993,2.993,0,0,1,641.925,68c-1.964,0-3.343-1.423-3.343-3.729,0-2.238,1.324-3.73,3.315-3.73,2.146,0,3.3,1.685,3.3,3.73v0.386Zm-5.434-.995H644A2.119,2.119,0,0,0,639.765,63.659Zm13.044,3.274v0.9a4.292,4.292,0,0,1-.613.041,1.028,1.028,0,0,1-1.212-1.022A2.642,2.642,0,0,1,648.643,68c-1.56,0-2.536-.745-2.536-2.086,0-1.118.684-2,2.662-2.21l1.031-.11a1,1,0,0,0,1.129-.981c0-.746-0.391-1.119-1.617-1.119s-1.742.346-1.811,1.409h-1.114c0.083-1.382.821-2.362,2.925-2.362,1.993,0,2.7.87,2.7,2.072v3.978a0.328,0.328,0,0,0,.39.345h0.4Zm-1.88-1.92V64.17a1.871,1.871,0,0,1-.948.3l-1.045.124c-1.31.152-1.672,0.594-1.672,1.285a1.188,1.188,0,0,0,1.436,1.174A2.058,2.058,0,0,0,650.929,65.013Zm6.675-4.407V61.67h-0.279c-1.435,0-2.354.718-2.354,2.1v4.061h-1.115V60.7h1.058V61.96a2.515,2.515,0,0,1,2.313-1.367C657.339,60.593,657.45,60.593,657.6,60.607Zm6.968,2.4v4.821h-1.115v-4.71a1.436,1.436,0,0,0-1.644-1.589,2.035,2.035,0,0,0-1.978,2.265v4.034H658.72V60.7h1.059v1.064a2.653,2.653,0,0,1,2.257-1.23A2.283,2.283,0,0,1,664.572,63.01ZM679.064,63v4.835H677.95V63.107a1.362,1.362,0,0,0-1.5-1.575c-0.906,0-1.839.691-1.839,2.4v3.9h-1.115V63.107a1.367,1.367,0,0,0-1.5-1.575c-0.878,0-1.838.691-1.838,2.4v3.9h-1.115V60.7h1.059v1.05a2.31,2.31,0,0,1,2.075-1.216,2.253,2.253,0,0,1,2.216,1.34,2.485,2.485,0,0,1,2.215-1.34A2.275,2.275,0,0,1,679.064,63Zm5.123-2.411a3.9,3.9,0,0,1,1.468.267,3.294,3.294,0,0,1,1.142.753,3.37,3.37,0,0,1,.741,1.163,4.439,4.439,0,0,1,0,3,3.375,3.375,0,0,1-.737,1.16,3.263,3.263,0,0,1-1.143.747,3.971,3.971,0,0,1-1.471.263,3.908,3.908,0,0,1-1.508-.279,3.3,3.3,0,0,1-1.87-1.9,3.829,3.829,0,0,1-.253-1.4,4.484,4.484,0,0,1,.265-1.593,3.322,3.322,0,0,1,.747-1.186,3.239,3.239,0,0,1,1.149-.74A4.056,4.056,0,0,1,684.187,60.585Zm-0.012,6.4a2.534,2.534,0,0,0,1-.188,2.056,2.056,0,0,0,.749-0.536,2.437,2.437,0,0,0,.475-0.85,3.8,3.8,0,0,0,.18-1.135,3.533,3.533,0,0,0-.174-1.148,2.438,2.438,0,0,0-.487-0.856,2.087,2.087,0,0,0-.75-0.534,2.455,2.455,0,0,0-.968-0.185,2.755,2.755,0,0,0-.984.169,2,2,0,0,0-.768.517,2.393,2.393,0,0,0-.5.878,3.9,3.9,0,0,0-.18,1.258,3.155,3.155,0,0,0,.167,1.054,2.41,2.41,0,0,0,.481.825,2.122,2.122,0,0,0,.759.54A2.514,2.514,0,0,0,684.175,66.984Zm8.856-6.378V61.67h-0.278c-1.436,0-2.355.718-2.355,2.1v4.061h-1.115V60.7h1.059V61.96a2.515,2.515,0,0,1,2.313-1.367C692.767,60.593,692.877,60.593,693.031,60.607ZM700,64.654h-5.461c0.111,1.6.961,2.335,2.216,2.335a1.845,1.845,0,0,0,1.908-1.326h1.156A2.993,2.993,0,0,1,696.725,68c-1.965,0-3.344-1.423-3.344-3.729,0-2.238,1.324-3.73,3.315-3.73,2.146,0,3.3,1.685,3.3,3.73v0.386Zm-5.434-.995H698.8A2.119,2.119,0,0,0,694.564,63.659Z"/>
</svg>
