<svg xmlns="http://www.w3.org/2000/svg" width="728" height="90" viewBox="0 0 728 90">
  <defs>
    <style>
      .cls-1 {
        fill: #4c286c;
        fill-rule: evenodd;
      }
    </style>
  </defs>
  <path class="cls-1" d="M259.531,31.008c0-5.588,3.338-9,7.9-9a7,7,0,0,1,7.276,5.927h-2.042a5.023,5.023,0,0,0-5.234-4.064c-3.457,0-5.785,2.637-5.785,7.136s2.328,7.137,5.785,7.137a5.22,5.22,0,0,0,5.354-4.79H274.8a7.085,7.085,0,0,1-7.371,6.653C262.869,40.008,259.531,36.6,259.531,31.008Zm27.631,0.169v8.443h-1.92V31.372c0-1.936-1.056-2.782-2.833-2.782C280.8,28.59,279,29.8,279,32.557v7.064h-1.921V22.4H279v6.459a4.555,4.555,0,0,1,3.793-2.008C285.554,26.847,287.162,28.42,287.162,31.178Zm13.828,6.871v1.572a7.273,7.273,0,0,1-1.056.072,1.781,1.781,0,0,1-2.089-1.79,4.53,4.53,0,0,1-4.033,2.008c-2.689,0-4.37-1.306-4.37-3.653,0-1.959,1.177-3.508,4.586-3.871l1.777-.193c1.248-.145,1.944-0.6,1.944-1.718,0-1.306-.673-1.96-2.785-1.96s-3,.6-3.121,2.468h-1.921c0.144-2.419,1.417-4.137,5.042-4.137,3.433,0,4.657,1.524,4.657,3.629v6.967a0.57,0.57,0,0,0,.673.6h0.7Zm-3.241-3.363V33.21a3.183,3.183,0,0,1-1.633.532l-1.8.218c-2.257.266-2.882,1.04-2.882,2.25,0,1.234.769,2.056,2.474,2.056A3.569,3.569,0,0,0,297.749,34.686ZM302.67,37.1V22.4h1.92V36.936A0.965,0.965,0,0,0,305.766,38h0.912v1.621a12.132,12.132,0,0,1-1.223.072C303.726,39.693,302.67,39.016,302.67,37.1Zm4.969-3.725c0-3.992,2.521-6.532,6-6.532s6,2.54,6,6.532-2.52,6.532-6,6.532S307.639,37.371,307.639,33.38Zm9.988,0c0-3.024-1.585-4.79-3.986-4.79s-3.985,1.766-3.985,4.79,1.584,4.79,3.985,4.79S317.627,36.4,317.627,33.38Zm20.933,0c0,3.991-2.281,6.532-5.763,6.532a4.857,4.857,0,0,1-4.249-2.226v1.936h-1.824V22.4h1.92v6.532a4.854,4.854,0,0,1,4.153-2.081C336.279,26.847,338.56,29.388,338.56,33.38Zm-2.018-.1c0-3.024-1.584-4.693-3.985-4.693s-3.985,1.766-3.985,4.79,1.584,4.79,3.985,4.79S336.542,36.307,336.542,33.283Zm15,4.766v1.572a7.253,7.253,0,0,1-1.056.072A1.78,1.78,0,0,1,348.4,37.9a4.532,4.532,0,0,1-4.033,2.008c-2.69,0-4.371-1.306-4.371-3.653,0-1.959,1.177-3.508,4.586-3.871l1.777-.193c1.249-.145,1.944-0.6,1.944-1.718,0-1.306-.672-1.96-2.785-1.96s-3,.6-3.121,2.468h-1.92c0.144-2.419,1.416-4.137,5.041-4.137,3.434,0,4.658,1.524,4.658,3.629v6.967a0.57,0.57,0,0,0,.673.6h0.695Zm-3.241-3.363V33.21a3.179,3.179,0,0,1-1.632.532l-1.8.218c-2.258.266-2.882,1.04-2.882,2.25,0,1.234.769,2.056,2.473,2.056A3.569,3.569,0,0,0,348.305,34.686Zm15.124-3.508v8.443h-1.92V31.372c0-1.936-1.056-2.782-2.833-2.782-1.609,0-3.409,1.21-3.409,3.967v7.064h-1.921V27.138h1.825V29a4.556,4.556,0,0,1,3.889-2.153C361.821,26.847,363.429,28.42,363.429,31.178Zm13.828,6.871v1.572a7.273,7.273,0,0,1-1.056.072,1.781,1.781,0,0,1-2.089-1.79,4.53,4.53,0,0,1-4.033,2.008c-2.689,0-4.37-1.306-4.37-3.653,0-1.959,1.177-3.508,4.586-3.871l1.777-.193c1.248-.145,1.944-0.6,1.944-1.718,0-1.306-.672-1.96-2.785-1.96s-3,.6-3.121,2.468h-1.92c0.143-2.419,1.416-4.137,5.041-4.137,3.433,0,4.657,1.524,4.657,3.629v6.967a0.57,0.57,0,0,0,.673.6h0.7Zm-3.241-3.363V33.21a3.183,3.183,0,0,1-1.633.532l-1.8.218c-2.257.266-2.881,1.04-2.881,2.25,0,1.234.768,2.056,2.473,2.056A3.569,3.569,0,0,0,374.016,34.686ZM388.4,27.138l-5.233,14.443a3.746,3.746,0,0,1-4.034,2.854,9.516,9.516,0,0,1-1.152-.072V42.741H379.1a2.171,2.171,0,0,0,2.257-1.548c0.144-.363.289-0.774,0.432-1.161l-4.657-12.895h2.112l1.753,5.2c0.624,1.815,1.2,3.6,1.777,5.395,0.552-1.79,1.152-3.6,1.777-5.419l1.752-5.177H388.4Zm11.764,6.919h-9.412c0.193,2.806,1.657,4.088,3.818,4.088a3.184,3.184,0,0,0,3.289-2.322h1.992a5.173,5.173,0,0,1-5.329,4.089c-3.386,0-5.762-2.492-5.762-6.532,0-3.919,2.281-6.532,5.714-6.532,3.7,0,5.69,2.952,5.69,6.532v0.677ZM390.8,32.315h7.3c-0.191-2.056-1.416-3.7-3.625-3.7C392.524,28.614,391.108,29.847,390.8,32.315Zm11.427-8.249a1.3,1.3,0,1,1,1.3,1.306A1.311,1.311,0,0,1,402.222,24.066Zm0.336,3.072h1.92V39.621h-1.92V27.138Zm15,4.04v8.443h-1.921V31.372c0-1.936-1.056-2.782-2.832-2.782-1.609,0-3.409,1.21-3.409,3.967v7.064h-1.921V27.138H409.3V29a4.556,4.556,0,0,1,3.889-2.153C415.954,26.847,417.562,28.42,417.562,31.178Zm18.508,6.871v1.572a7.253,7.253,0,0,1-1.056.072,1.78,1.78,0,0,1-2.088-1.79,4.53,4.53,0,0,1-4.033,2.008c-2.689,0-4.37-1.306-4.37-3.653,0-1.959,1.177-3.508,4.586-3.871l1.776-.193c1.249-.145,1.944-0.6,1.944-1.718,0-1.306-.672-1.96-2.785-1.96s-3,.6-3.12,2.468H425c0.144-2.419,1.417-4.137,5.041-4.137,3.434,0,4.658,1.524,4.658,3.629v6.967a0.57,0.57,0,0,0,.673.6h0.695Zm-3.241-3.363V33.21a3.179,3.179,0,0,1-1.632.532l-1.8.218c-2.258.266-2.882,1.04-2.882,2.25,0,1.234.769,2.056,2.473,2.056A3.568,3.568,0,0,0,432.829,34.686Zm16.878-1.306c0,3.991-2.281,6.532-5.763,6.532a4.854,4.854,0,0,1-4.153-2.081v6.532h-1.92V27.138H439.7v1.936a4.858,4.858,0,0,1,4.249-2.226C447.426,26.847,449.707,29.388,449.707,33.38Zm-2.018-.1c0-3.024-1.584-4.693-3.985-4.693s-3.985,1.766-3.985,4.79,1.584,4.79,3.985,4.79S447.689,36.307,447.689,33.283Zm14.5-2.1v8.443h-1.92V31.372c0-1.936-1.056-2.782-2.833-2.782-1.609,0-3.409,1.21-3.409,3.967v7.064h-1.92V27.138h1.824V29a4.556,4.556,0,0,1,3.889-2.153C460.58,26.847,462.188,28.42,462.188,31.178Zm2.665-7.112a1.3,1.3,0,1,1,1.3,1.306A1.311,1.311,0,0,1,464.853,24.066Zm0.336,3.072h1.92V39.621h-1.92V27.138ZM234,60.72c0-4.016,2.305-6.532,5.738-6.532a5.031,5.031,0,0,1,5.33,4.524h-1.992a3.233,3.233,0,0,0-3.338-2.782c-2.112,0-3.721,1.525-3.721,4.791s1.657,4.789,3.721,4.789a3.26,3.26,0,0,0,3.361-2.831h1.969a5.122,5.122,0,0,1-5.33,4.573C236.353,67.252,234,64.736,234,60.72Zm12.627,0c0-3.992,2.521-6.532,6-6.532s6,2.539,6,6.532-2.52,6.532-6,6.532S246.627,64.712,246.627,60.72Zm9.988,0c0-3.025-1.584-4.791-3.985-4.791s-3.986,1.766-3.986,4.791,1.585,4.789,3.986,4.789S256.615,63.744,256.615,60.72Zm21.7-2.226v8.468H276.4V58.688c0-1.935-.96-2.758-2.593-2.758-1.56,0-3.169,1.21-3.169,4.21v6.822h-1.92V58.688c0-1.935-.985-2.758-2.593-2.758-1.513,0-3.169,1.21-3.169,4.21v6.822h-1.921V54.478h1.825v1.839a3.975,3.975,0,0,1,3.577-2.128,3.877,3.877,0,0,1,3.817,2.347,4.274,4.274,0,0,1,3.818-2.347A3.953,3.953,0,0,1,278.317,58.494Zm20.285,0v8.468h-1.92V58.688c0-1.935-.96-2.758-2.594-2.758-1.56,0-3.168,1.21-3.168,4.21v6.822H289V58.688c0-1.935-.984-2.758-2.593-2.758-1.512,0-3.169,1.21-3.169,4.21v6.822h-1.92V54.478h1.824v1.839a3.977,3.977,0,0,1,3.577-2.128,3.878,3.878,0,0,1,3.818,2.347,4.274,4.274,0,0,1,3.817-2.347A3.953,3.953,0,0,1,298.6,58.494Zm12.6-4.016V66.962H309.38V65.1a4.553,4.553,0,0,1-3.889,2.154c-2.762,0-4.37-1.573-4.37-4.331V54.478h1.921v8.25c0,1.935,1.056,2.782,2.833,2.782,1.608,0,3.409-1.21,3.409-3.968V54.478h1.921Zm13.083,4.041v8.443h-1.921V58.712c0-1.936-1.056-2.782-2.833-2.782-1.608,0-3.409,1.21-3.409,3.968v7.064h-1.92V54.478h1.825v1.863a4.553,4.553,0,0,1,3.888-2.153C322.68,54.189,324.288,55.761,324.288,58.519Zm2.663-7.113a1.3,1.3,0,1,1,1.3,1.306A1.311,1.311,0,0,1,326.951,51.406Zm0.336,3.072h1.921V66.962h-1.921V54.478Zm7.8,1.694v8.1c0,0.653.312,1.064,1.416,1.064h1.129v1.621q-0.792.072-1.369,0.073c-1.92,0-3.1-.677-3.1-2.589V56.172h-2.041V54.478h2.041V50.946h1.92v3.532h2.545v1.694h-2.545Zm4.369-4.766a1.3,1.3,0,1,1,1.3,1.306A1.311,1.311,0,0,1,339.458,51.406Zm0.336,3.072h1.921V66.962h-1.921V54.478ZM355.519,61.4h-9.412c0.193,2.806,1.657,4.089,3.818,4.089a3.185,3.185,0,0,0,3.289-2.323h1.992a5.174,5.174,0,0,1-5.329,4.089c-3.386,0-5.762-2.492-5.762-6.532,0-3.919,2.281-6.532,5.714-6.532,3.7,0,5.69,2.951,5.69,6.532V61.4Zm-9.364-1.742h7.3c-0.192-2.056-1.416-3.7-3.625-3.7C347.884,55.954,346.468,57.188,346.155,59.655Zm10.755,3.339h1.945c0.216,1.887,1.128,2.589,3.313,2.589,2.088,0,2.977-.7,2.977-1.935,0-1.113-.673-1.621-2.833-2.032L361.16,61.4c-2.689-.508-3.865-1.742-3.865-3.677,0-2.129,1.68-3.532,4.513-3.532,3.313,0,4.993,1.475,5.042,4.136h-1.921c-0.1-1.935-1.225-2.468-3.121-2.468-1.657,0-2.593.678-2.593,1.839,0,1.186.913,1.621,2.5,1.936l1.105,0.218c3.048,0.6,4.272,1.645,4.272,3.677,0,2.371-1.872,3.725-4.921,3.725C359.023,67.252,357.1,65.921,356.91,62.994Zm21.03-2.733-2.209,2.08v4.621h-1.92V49.737h1.92v10.33l5.738-5.589h2.544l-4.7,4.5,5.041,7.984h-2.232Zm6.649,0.46c0-3.992,2.521-6.532,6-6.532s6,2.539,6,6.532-2.52,6.532-6,6.532S384.589,64.712,384.589,60.72Zm9.988,0c0-3.025-1.585-4.791-3.986-4.791s-3.985,1.766-3.985,4.791,1.584,4.789,3.985,4.789S394.577,63.744,394.577,60.72Zm8.208,2.274h1.944c0.216,1.887,1.129,2.589,3.314,2.589,2.088,0,2.977-.7,2.977-1.935,0-1.113-.673-1.621-2.834-2.032l-1.151-.218c-2.689-.508-3.865-1.742-3.865-3.677,0-2.129,1.68-3.532,4.512-3.532,3.314,0,4.994,1.475,5.043,4.136H410.8c-0.095-1.935-1.224-2.468-3.121-2.468-1.656,0-2.592.678-2.592,1.839,0,1.186.912,1.621,2.5,1.936l1.1,0.218c3.049,0.6,4.273,1.645,4.273,3.677,0,2.371-1.873,3.725-4.921,3.725C404.9,67.252,402.977,65.921,402.785,62.994Zm14.86-6.822v8.1c0,0.653.312,1.064,1.416,1.064h1.128v1.621q-0.791.072-1.368,0.073c-1.92,0-3.1-.677-3.1-2.589V56.172h-2.04V54.478h2.04V50.946h1.921v3.532h2.544v1.694h-2.544Zm11.163-1.863v1.863h-0.48c-2.473,0-4.058,1.258-4.058,3.677v7.112h-1.92V54.478h1.825v2.2a4.321,4.321,0,0,1,3.985-2.395C428.352,54.285,428.544,54.285,428.808,54.309Zm0.6,6.412c0-3.992,2.521-6.532,6-6.532s6,2.539,6,6.532-2.52,6.532-6,6.532S429.408,64.712,429.408,60.72Zm9.987,0c0-3.025-1.584-4.791-3.985-4.791s-3.985,1.766-3.985,4.791,1.584,4.789,3.985,4.789S439.4,63.744,439.4,60.72Zm14.5-2.2v8.443h-1.921V58.712c0-1.936-1.056-2.782-2.833-2.782-1.609,0-3.409,1.21-3.409,3.968v7.064h-1.92V54.478h1.824v1.863a4.556,4.556,0,0,1,3.889-2.153C452.286,54.189,453.9,55.761,453.9,58.519Zm14.235-4.041v12c0,3.242-1.848,5.516-5.762,5.516-3.169,0-5.017-1.6-5.282-4.016h1.922c0.239,1.573,1.416,2.371,3.36,2.371,2.473,0,3.842-1.283,3.842-3.871V65.269a4.993,4.993,0,0,1-4.154,1.983c-3.481,0-5.762-2.54-5.762-6.532s2.281-6.532,5.762-6.532a4.983,4.983,0,0,1,4.249,2.1V54.478h1.825Zm-1.848,6.242c0-3.025-1.584-4.791-3.985-4.791s-3.986,1.863-3.986,4.791S459.9,65.51,462.3,65.51,466.282,63.744,466.282,60.72ZM481.933,61.4h-9.411c0.192,2.806,1.657,4.089,3.817,4.089a3.184,3.184,0,0,0,3.289-2.323h1.993a5.176,5.176,0,0,1-5.33,4.089c-3.385,0-5.762-2.492-5.762-6.532,0-3.919,2.281-6.532,5.715-6.532,3.7,0,5.689,2.951,5.689,6.532V61.4Zm-9.363-1.742h7.3c-0.191-2.056-1.416-3.7-3.624-3.7C474.3,55.954,472.882,57.188,472.57,59.655Zm18.221-5.347v1.863h-0.48c-2.473,0-4.057,1.258-4.057,3.677v7.112h-1.921V54.478h1.825v2.2a4.322,4.322,0,0,1,3.986-2.395C490.335,54.285,490.527,54.285,490.791,54.309ZM490.19,65.7a1.406,1.406,0,0,1,2.81,0A1.405,1.405,0,1,1,490.19,65.7Z"/>
</svg>
