<svg xmlns="http://www.w3.org/2000/svg" width="728" height="90" viewBox="0 0 728 90">
  <defs>
    <style>
      .cls-1 {
        fill: #4c286c;
        fill-rule: evenodd;
      }
    </style>
  </defs>
  <path class="cls-1" d="M279.267,37.436V39.28H268.672V22.008h2.014V37.436h8.581ZM291.874,37.7V39.28a7.237,7.237,0,0,1-1.055.073,1.782,1.782,0,0,1-2.086-1.8,4.513,4.513,0,0,1-4.026,2.013c-2.685,0-4.363-1.31-4.363-3.663,0-1.965,1.175-3.518,4.579-3.882l1.773-.194c1.246-.146,1.942-0.607,1.942-1.723,0-1.31-.672-1.964-2.781-1.964s-3,.606-3.116,2.474h-1.917c0.144-2.426,1.414-4.148,5.033-4.148,3.428,0,4.65,1.528,4.65,3.638V37.1a0.57,0.57,0,0,0,.671.606h0.7Zm-3.236-3.372V32.852a3.17,3.17,0,0,1-1.63.534l-1.8.218c-2.253.266-2.876,1.043-2.876,2.255,0,1.238.767,2.063,2.469,2.063A3.57,3.57,0,0,0,288.638,34.331Zm4.146,0.97h1.941c0.216,1.892,1.127,2.6,3.308,2.6,2.085,0,2.972-.7,2.972-1.94,0-1.116-.671-1.626-2.828-2.038l-1.151-.218c-2.684-.509-3.859-1.747-3.859-3.687,0-2.135,1.678-3.541,4.506-3.541,3.308,0,4.986,1.479,5.034,4.148h-1.918c-0.1-1.941-1.222-2.474-3.116-2.474-1.654,0-2.588.679-2.588,1.844,0,1.188.911,1.625,2.492,1.94l1.1,0.218c3.044,0.606,4.267,1.649,4.267,3.687,0,2.378-1.87,3.736-4.914,3.736C294.893,39.571,292.975,38.237,292.784,35.3Zm14.835-6.841v8.127c0,0.654.312,1.067,1.415,1.067h1.126V39.28q-0.791.073-1.366,0.073c-1.918,0-3.092-.679-3.092-2.6v-8.3h-2.038v-1.7H305.7V23.221h1.917v3.542h2.541v1.7h-2.541Zm19.295-1.7-5.226,14.482a3.74,3.74,0,0,1-4.027,2.862,9.467,9.467,0,0,1-1.15-.073V42.41h1.127a2.167,2.167,0,0,0,2.252-1.552c0.144-.364.288-0.777,0.432-1.165l-4.65-12.929h2.109l1.75,5.215c0.623,1.819,1.2,3.614,1.774,5.41,0.551-1.8,1.15-3.614,1.773-5.434l1.75-5.19h2.086ZM338.657,33.7h-9.4c0.192,2.814,1.654,4.1,3.811,4.1a3.18,3.18,0,0,0,3.284-2.329h1.99a5.172,5.172,0,0,1-5.322,4.1c-3.379,0-5.752-2.5-5.752-6.549,0-3.93,2.277-6.55,5.7-6.55,3.691,0,5.68,2.959,5.68,6.55V33.7Zm-9.348-1.747H336.6c-0.192-2.062-1.414-3.711-3.619-3.711C331.035,28.243,329.621,29.479,329.309,31.954ZM351.744,37.7V39.28a7.217,7.217,0,0,1-1.055.073,1.781,1.781,0,0,1-2.085-1.8,4.516,4.516,0,0,1-4.027,2.013c-2.684,0-4.362-1.31-4.362-3.663,0-1.965,1.174-3.518,4.578-3.882l1.774-.194c1.246-.146,1.941-0.607,1.941-1.723,0-1.31-.671-1.964-2.78-1.964s-3,.606-3.116,2.474h-1.918c0.144-2.426,1.414-4.148,5.034-4.148,3.427,0,4.65,1.528,4.65,3.638V37.1a0.569,0.569,0,0,0,.671.606h0.7Zm-3.236-3.372V32.852a3.166,3.166,0,0,1-1.63.534l-1.8.218c-2.252.266-2.876,1.043-2.876,2.255,0,1.238.767,2.063,2.469,2.063A3.569,3.569,0,0,0,348.508,34.331Zm11.48-7.738v1.867h-0.479c-2.469,0-4.051,1.261-4.051,3.687V39.28H353.54V26.763h1.822V28.97a4.314,4.314,0,0,1,3.979-2.4A6.345,6.345,0,0,1,359.988,26.593Zm2.2,12.323c0,2.3-1.126,3.373-2.684,3.687l-0.24.048V41.367l0.167-.048a1.793,1.793,0,0,0,1.319-1.893h-0.144a1.254,1.254,0,0,1-1.342-1.261,1.293,1.293,0,0,1,1.342-1.31C361.594,36.854,362.193,37.582,362.193,38.916Zm6.59-5.894c0-4,2.517-6.55,5.993-6.55s5.992,2.546,5.992,6.55-2.517,6.549-5.992,6.549S368.783,37.024,368.783,33.022Zm9.971,0c0-3.032-1.581-4.8-3.978-4.8s-3.979,1.772-3.979,4.8,1.582,4.8,3.979,4.8S378.754,36.054,378.754,33.022Zm14.117-6.259V39.28H391.05V37.412a4.543,4.543,0,0,1-3.883,2.159c-2.757,0-4.362-1.577-4.362-4.343V26.763h1.917v8.272a2.494,2.494,0,0,0,2.828,2.789c1.606,0,3.4-1.213,3.4-3.979V26.763h1.917Zm9.443-.17v1.867h-0.479c-2.469,0-4.051,1.261-4.051,3.687V39.28h-1.917V26.763h1.822V28.97a4.312,4.312,0,0,1,3.979-2.4A6.336,6.336,0,0,1,402.314,26.593Zm9.707,1.867v8.127c0,0.654.312,1.067,1.414,1.067h1.126V39.28q-0.789.073-1.366,0.073c-1.917,0-3.091-.679-3.091-2.6v-8.3h-2.038v-1.7H410.1V23.221h1.917v3.542h2.54v1.7h-2.54Zm15.244,5.24h-9.4c0.193,2.814,1.654,4.1,3.812,4.1a3.18,3.18,0,0,0,3.283-2.329h1.99a5.172,5.172,0,0,1-5.321,4.1c-3.38,0-5.753-2.5-5.753-6.549,0-3.93,2.277-6.55,5.7-6.55,3.691,0,5.681,2.959,5.681,6.55V33.7Zm-9.349-1.747H425.2c-0.192-2.062-1.414-3.711-3.619-3.711C419.642,28.243,418.228,29.479,417.916,31.954ZM440.351,37.7V39.28a7.217,7.217,0,0,1-1.055.073,1.781,1.781,0,0,1-2.085-1.8,4.516,4.516,0,0,1-4.026,2.013c-2.685,0-4.364-1.31-4.364-3.663,0-1.965,1.175-3.518,4.579-3.882l1.774-.194c1.246-.146,1.941-0.607,1.941-1.723,0-1.31-.671-1.964-2.781-1.964s-3,.606-3.115,2.474H429.3c0.144-2.426,1.414-4.148,5.033-4.148,3.428,0,4.65,1.528,4.65,3.638V37.1a0.57,0.57,0,0,0,.672.606h0.695Zm-3.236-3.372V32.852a3.166,3.166,0,0,1-1.63.534l-1.8.218c-2.254.266-2.877,1.043-2.877,2.255,0,1.238.767,2.063,2.469,2.063A3.57,3.57,0,0,0,437.115,34.331Zm22.291-3.541v8.49h-1.917v-8.3c0-1.94-.959-2.765-2.59-2.765-1.557,0-3.163,1.213-3.163,4.221V39.28h-1.918v-8.3c0-1.94-.983-2.765-2.589-2.765-1.51,0-3.164,1.213-3.164,4.221V39.28h-1.917V26.763h1.822v1.844a3.965,3.965,0,0,1,3.571-2.135,3.87,3.87,0,0,1,3.811,2.353,4.266,4.266,0,0,1,3.812-2.353C458.04,26.472,459.406,28.364,459.406,30.79ZM226.719,54.179L221.853,66.7h-2.014L215,54.179h2.085l2.038,5.58c0.575,1.576,1.222,3.275,1.749,4.851,0.528-1.576,1.175-3.3,1.75-4.876l2.038-5.555h2.061Zm0.358,6.258c0-4,2.517-6.55,5.993-6.55s5.993,2.546,5.993,6.55-2.518,6.55-5.993,6.55S227.077,64.439,227.077,60.437Zm9.972,0c0-3.032-1.582-4.8-3.979-4.8s-3.979,1.772-3.979,4.8,1.582,4.8,3.979,4.8S237.049,63.469,237.049,60.437Zm4.409,3.736V49.423h1.917V64a0.966,0.966,0,0,0,1.175,1.067h0.911V66.7a12.081,12.081,0,0,1-1.223.073C242.512,66.769,241.458,66.089,241.458,64.173Zm15.867-9.994V66.7H255.5V64.827a4.544,4.544,0,0,1-3.883,2.159c-2.757,0-4.363-1.577-4.363-4.343V54.179h1.918V62.45A2.494,2.494,0,0,0,252,65.24c1.606,0,3.4-1.213,3.4-3.977V54.179h1.918Zm13.062,4.051V66.7H268.47V58.424a2.5,2.5,0,0,0-2.829-2.79c-1.606,0-3.4,1.213-3.4,3.979V66.7H260.32V54.179h1.822v1.867a4.544,4.544,0,0,1,3.883-2.159C268.781,53.887,270.387,55.464,270.387,58.229Zm5.392-2.353V64c0,0.654.312,1.067,1.414,1.067h1.127V66.7q-0.791.073-1.366,0.073c-1.918,0-3.092-.679-3.092-2.6v-8.3h-2.038v-1.7h2.038V50.636h1.917v3.542h2.541v1.7h-2.541Zm15.244,5.24h-9.4c0.192,2.814,1.654,4.1,3.811,4.1a3.181,3.181,0,0,0,3.284-2.329h1.99a5.174,5.174,0,0,1-5.322,4.1c-3.379,0-5.753-2.5-5.753-6.55,0-3.93,2.278-6.55,5.7-6.55,3.692,0,5.681,2.959,5.681,6.55v0.679Zm-9.348-1.747h7.287c-0.192-2.062-1.415-3.711-3.62-3.711C283.4,55.658,281.987,56.895,281.675,59.369Zm22.531,1.747h-9.4c0.192,2.814,1.654,4.1,3.811,4.1a3.182,3.182,0,0,0,3.285-2.329h1.989a5.172,5.172,0,0,1-5.321,4.1c-3.38,0-5.753-2.5-5.753-6.55,0-3.93,2.277-6.55,5.7-6.55,3.691,0,5.681,2.959,5.681,6.55v0.679Zm-9.349-1.747h7.287c-0.192-2.062-1.414-3.711-3.619-3.711C296.583,55.658,295.169,56.895,294.857,59.369Zm18.192-5.36v1.867h-0.48c-2.469,0-4.05,1.261-4.05,3.687V66.7H306.6V54.179h1.822v2.207a4.313,4.313,0,0,1,3.978-2.4A6.348,6.348,0,0,1,313.049,54.009Zm11.984,7.107h-9.4c0.192,2.814,1.654,4.1,3.811,4.1a3.181,3.181,0,0,0,3.284-2.329h1.99a5.172,5.172,0,0,1-5.322,4.1c-3.379,0-5.753-2.5-5.753-6.55,0-3.93,2.278-6.55,5.706-6.55,3.691,0,5.68,2.959,5.68,6.55v0.679Zm-9.348-1.747h7.287c-0.192-2.062-1.414-3.711-3.619-3.711C317.411,55.658,316,56.895,315.685,59.369Zm22.961-9.946V66.7h-1.821v-1.94a4.846,4.846,0,0,1-4.243,2.232c-3.476,0-5.753-2.547-5.753-6.55s2.277-6.55,5.753-6.55a4.842,4.842,0,0,1,4.147,2.085v-6.55h1.917ZM336.8,60.437c0-3.032-1.582-4.8-3.979-4.8s-3.979,1.868-3.979,4.9,1.582,4.706,3.979,4.706S336.8,63.469,336.8,60.437ZM351.876,66.7h-2.013V53.814h-3.884v-1.6l0.384-.025c2.2-.145,3.451-0.679,3.883-2.766h1.63V66.7Zm2.516-1.261a1.4,1.4,0,0,1,2.8,0A1.4,1.4,0,1,1,354.392,65.434Zm16.514-3.057h-2.3V66.7h-2.013V62.377h-8.557V60.412l8.389-10.989h2.181v11.11h2.3v1.844Zm-10.762-1.844h6.448V52.092Zm34.73-2.328V66.7h-1.917V58.4c0-1.94-.959-2.766-2.589-2.766-1.558,0-3.164,1.213-3.164,4.221V66.7h-1.917V58.4c0-1.94-.983-2.766-2.59-2.766-1.509,0-3.163,1.213-3.163,4.221V66.7h-1.919V54.179h1.822v1.844a3.967,3.967,0,0,1,3.572-2.135,3.871,3.871,0,0,1,3.812,2.353,4.264,4.264,0,0,1,3.811-2.353C393.508,53.887,394.874,55.779,394.874,58.205Zm2.66-7.108a1.294,1.294,0,1,1,1.294,1.31A1.311,1.311,0,0,1,397.534,51.1Zm0.335,3.081h1.918V66.7h-1.918V54.179Zm4.913,9.994V49.423H404.7V64a0.965,0.965,0,0,0,1.174,1.067h0.911V66.7a12.1,12.1,0,0,1-1.222.073C403.837,66.769,402.782,66.089,402.782,64.173Zm5.8,0V49.423H410.5V64a0.965,0.965,0,0,0,1.174,1.067h0.911V66.7a12.1,12.1,0,0,1-1.222.073C409.636,66.769,408.582,66.089,408.582,64.173ZM414.047,51.1a1.294,1.294,0,1,1,1.294,1.31A1.311,1.311,0,0,1,414.047,51.1Zm0.335,3.081H416.3V66.7h-1.917V54.179Zm4.313,6.258c0-4,2.517-6.55,5.993-6.55s5.992,2.546,5.992,6.55-2.516,6.55-5.992,6.55S418.7,64.439,418.7,60.437Zm9.972,0c0-3.032-1.582-4.8-3.979-4.8s-3.979,1.772-3.979,4.8,1.582,4.8,3.979,4.8S428.667,63.469,428.667,60.437Zm14.476-2.208V66.7h-1.918V58.424a2.5,2.5,0,0,0-2.828-2.79c-1.606,0-3.4,1.213-3.4,3.979V66.7h-1.918V54.179H434.9v1.867a4.543,4.543,0,0,1,3.882-2.159C441.538,53.887,443.143,55.464,443.143,58.229Zm17.736,0V66.7h-1.918V58.424a2.5,2.5,0,0,0-2.828-2.79c-1.606,0-3.4,1.213-3.4,3.979V66.7h-1.917V49.423h1.917V55.9a4.544,4.544,0,0,1,3.787-2.013C459.273,53.887,460.879,55.464,460.879,58.229Zm2.4,2.208c0-4,2.517-6.55,5.992-6.55s5.992,2.546,5.992,6.55-2.516,6.55-5.992,6.55S463.275,64.439,463.275,60.437Zm9.971,0c0-3.032-1.581-4.8-3.979-4.8s-3.978,1.772-3.978,4.8,1.581,4.8,3.978,4.8S473.246,63.469,473.246,60.437Zm14.116-6.258V66.7h-1.821V64.827a4.543,4.543,0,0,1-3.883,2.159c-2.757,0-4.362-1.577-4.362-4.343V54.179h1.917V62.45a2.494,2.494,0,0,0,2.828,2.789c1.606,0,3.4-1.213,3.4-3.977V54.179h1.917Zm9.443-.17v1.867h-0.478c-2.47,0-4.052,1.261-4.052,3.687V66.7h-1.917V54.179h1.822v2.207a4.312,4.312,0,0,1,3.979-2.4A6.311,6.311,0,0,1,496.805,54.009Zm0.55,8.708H499.3c0.216,1.892,1.127,2.6,3.308,2.6,2.085,0,2.973-.7,2.973-1.94,0-1.116-.672-1.626-2.83-2.038l-1.149-.218c-2.685-.509-3.859-1.747-3.859-3.687,0-2.135,1.677-3.541,4.5-3.541,3.308,0,4.986,1.479,5.034,4.148h-1.918c-0.095-1.941-1.222-2.474-3.116-2.474-1.654,0-2.588.679-2.588,1.844,0,1.188.911,1.625,2.493,1.94l1.1,0.218c3.043,0.606,4.265,1.649,4.265,3.687,0,2.378-1.869,3.736-4.913,3.736C499.465,66.987,497.548,65.652,497.355,62.717ZM509.2,65.434a1.4,1.4,0,0,1,2.8,0A1.4,1.4,0,1,1,509.2,65.434Z"/>
</svg>
