<svg xmlns="http://www.w3.org/2000/svg" width="728" height="90" viewBox="0 0 728 90">
  <defs>
    <style>
      .cls-1 {
        fill: #4c286c;
        fill-rule: evenodd;
      }
    </style>
  </defs>
  <path class="cls-1" d="M260,30.015c0-5.594,3.345-9.009,7.917-9.009a7.013,7.013,0,0,1,7.293,5.933h-2.046a5.035,5.035,0,0,0-5.247-4.068c-3.465,0-5.8,2.64-5.8,7.144s2.334,7.144,5.8,7.144a5.232,5.232,0,0,0,5.367-4.8h2.022a7.1,7.1,0,0,1-7.389,6.659C263.345,39.023,260,35.609,260,30.015Zm27.7,0.17v8.452h-1.925V30.378c0-1.937-1.059-2.785-2.84-2.785-1.613,0-3.417,1.211-3.417,3.971v7.071h-1.925V21.394h1.925V27.86a4.565,4.565,0,0,1,3.8-2.01C286.088,25.85,287.7,27.424,287.7,30.184Zm13.862,6.878v1.574a7.243,7.243,0,0,1-1.059.073,1.784,1.784,0,0,1-2.093-1.792,4.543,4.543,0,0,1-4.043,2.01c-2.7,0-4.381-1.308-4.381-3.657,0-1.962,1.18-3.512,4.6-3.875l1.781-.194c1.252-.145,1.949-0.605,1.949-1.719,0-1.308-.674-1.962-2.791-1.962s-3.009.606-3.129,2.47h-1.925c0.144-2.422,1.42-4.141,5.054-4.141,3.441,0,4.668,1.525,4.668,3.633v6.974a0.571,0.571,0,0,0,.674.605h0.7ZM298.313,33.7V32.218a3.185,3.185,0,0,1-1.636.533l-1.805.218c-2.262.266-2.888,1.041-2.888,2.252,0,1.235.77,2.059,2.479,2.059A3.575,3.575,0,0,0,298.313,33.7Zm4.934,2.422V21.394h1.925V35.948a0.967,0.967,0,0,0,1.18,1.065h0.914v1.623a12.07,12.07,0,0,1-1.227.073C304.306,38.709,303.247,38.031,303.247,36.118Zm4.982-3.73c0-4,2.527-6.538,6.017-6.538s6.016,2.543,6.016,6.538-2.527,6.539-6.016,6.539S308.229,36.384,308.229,32.388Zm10.011,0c0-3.027-1.588-4.794-3.994-4.794s-4,1.768-4,4.794,1.589,4.8,4,4.8S318.24,35.415,318.24,32.388Zm9.121,3.73V21.394h1.925V35.948a0.967,0.967,0,0,0,1.18,1.065h0.914v1.623a12.07,12.07,0,0,1-1.227.073C328.42,38.709,327.361,38.031,327.361,36.118Zm16.678,0.944v1.574a7.243,7.243,0,0,1-1.059.073,1.784,1.784,0,0,1-2.093-1.792,4.543,4.543,0,0,1-4.043,2.01c-2.7,0-4.38-1.308-4.38-3.657,0-1.962,1.179-3.512,4.6-3.875l1.781-.194c1.252-.145,1.95-0.605,1.95-1.719,0-1.308-.674-1.962-2.792-1.962s-3.008.606-3.129,2.47h-1.925c0.145-2.422,1.42-4.141,5.054-4.141,3.441,0,4.669,1.525,4.669,3.633v6.974a0.57,0.57,0,0,0,.673.605h0.7ZM340.791,33.7V32.218a3.192,3.192,0,0,1-1.637.533l-1.805.218c-2.262.266-2.888,1.041-2.888,2.252,0,1.235.77,2.059,2.479,2.059A3.576,3.576,0,0,0,340.791,33.7Zm16.027,3.366v1.574a7.243,7.243,0,0,1-1.059.073,1.785,1.785,0,0,1-2.094-1.792,4.541,4.541,0,0,1-4.043,2.01c-2.695,0-4.38-1.308-4.38-3.657,0-1.962,1.179-3.512,4.6-3.875l1.781-.194c1.251-.145,1.949-0.605,1.949-1.719,0-1.308-.674-1.962-2.792-1.962s-3.008.606-3.128,2.47h-1.925c0.144-2.422,1.42-4.141,5.053-4.141,3.441,0,4.669,1.525,4.669,3.633v6.974a0.571,0.571,0,0,0,.674.605h0.7ZM353.569,33.7V32.218a3.188,3.188,0,0,1-1.636.533l-1.805.218c-2.263.266-2.888,1.041-2.888,2.252,0,1.235.77,2.059,2.479,2.059A3.575,3.575,0,0,0,353.569,33.7Zm14.416-7.556L362.739,40.6a3.754,3.754,0,0,1-4.043,2.858,9.486,9.486,0,0,1-1.155-.073V41.76h1.131a2.176,2.176,0,0,0,2.262-1.55c0.145-.363.289-0.775,0.433-1.162L356.7,26.14h2.118l1.757,5.206c0.626,1.816,1.2,3.608,1.781,5.4,0.553-1.792,1.155-3.608,1.781-5.425l1.757-5.182h2.093Zm11.793,6.926h-9.434c0.192,2.81,1.66,4.093,3.827,4.093a3.191,3.191,0,0,0,3.3-2.325h2a5.187,5.187,0,0,1-5.343,4.092c-3.393,0-5.775-2.494-5.775-6.539,0-3.923,2.286-6.538,5.727-6.538,3.706,0,5.7,2.954,5.7,6.538v0.678Zm-9.386-1.743h7.316c-0.192-2.059-1.42-3.705-3.634-3.705C372.124,27.617,370.7,28.852,370.392,31.323Zm11.456-8.258a1.3,1.3,0,1,1,1.3,1.308A1.313,1.313,0,0,1,381.848,23.065Zm0.337,3.076h1.925v12.5h-1.925V26.14Zm15.041,4.044v8.452H395.3V30.378c0-1.937-1.058-2.785-2.839-2.785-1.612,0-3.417,1.211-3.417,3.971v7.071h-1.926V26.14h1.829v1.865a4.571,4.571,0,0,1,3.9-2.155C395.614,25.85,397.226,27.424,397.226,30.184Zm7.1,2.2c0-4.02,2.311-6.538,5.752-6.538a5.042,5.042,0,0,1,5.343,4.528h-2a3.238,3.238,0,0,0-3.345-2.785c-2.118,0-3.73,1.525-3.73,4.794s1.66,4.8,3.73,4.8a3.267,3.267,0,0,0,3.369-2.834h1.974a5.133,5.133,0,0,1-5.343,4.577C406.683,38.926,404.325,36.408,404.325,32.388Zm12.659,0c0-4,2.528-6.538,6.017-6.538s6.017,2.543,6.017,6.538S426.49,38.926,423,38.926,416.984,36.384,416.984,32.388Zm10.012,0c0-3.027-1.588-4.794-4-4.794s-4,1.768-4,4.794,1.589,4.8,4,4.8S427,35.415,427,32.388Zm14.535-2.2v8.452h-1.926V30.378c0-1.937-1.058-2.785-2.839-2.785-1.612,0-3.417,1.211-3.417,3.971v7.071h-1.926V26.14h1.829v1.865a4.571,4.571,0,0,1,3.9-2.155C439.919,25.85,441.531,27.424,441.531,30.184Zm13.117,0v8.452h-1.926V30.378c0-1.937-1.059-2.785-2.839-2.785-1.613,0-3.417,1.211-3.417,3.971v7.071H444.54V26.14h1.829v1.865a4.568,4.568,0,0,1,3.9-2.155C453.035,25.85,454.648,27.424,454.648,30.184Zm13.838,2.881h-9.433c0.192,2.81,1.66,4.093,3.825,4.093a3.191,3.191,0,0,0,3.3-2.325h2a5.186,5.186,0,0,1-5.343,4.092c-3.393,0-5.776-2.494-5.776-6.539,0-3.923,2.287-6.538,5.728-6.538,3.707,0,5.7,2.954,5.7,6.538v0.678ZM459.1,31.323h7.316c-0.194-2.059-1.42-3.705-3.635-3.705C460.833,27.617,459.413,28.852,459.1,31.323Zm11.19,1.065c0-4.02,2.311-6.538,5.753-6.538a5.042,5.042,0,0,1,5.342,4.528h-2a3.239,3.239,0,0,0-3.345-2.785c-2.119,0-3.731,1.525-3.731,4.794s1.66,4.8,3.731,4.8a3.267,3.267,0,0,0,3.368-2.834h1.974a5.132,5.132,0,0,1-5.342,4.577C472.65,38.926,470.291,36.408,470.291,32.388Zm15.667-4.552v8.113c0,0.654.313,1.065,1.42,1.065h1.131v1.623q-0.8.073-1.372,0.073c-1.926,0-3.1-.678-3.1-2.591V27.836h-2.046v-1.7h2.046V22.6h1.925V26.14h2.551v1.7h-2.551Zm4.38-4.771a1.3,1.3,0,1,1,1.3,1.308A1.314,1.314,0,0,1,490.338,23.065Zm0.337,3.076H492.6v12.5h-1.926V26.14Zm15.257,0-4.885,12.5h-2.021l-4.862-12.5h2.094l2.045,5.57c0.579,1.574,1.228,3.269,1.757,4.843,0.53-1.574,1.18-3.294,1.758-4.868l2.045-5.546h2.069Zm1.229-3.076a1.3,1.3,0,1,1,1.3,1.308A1.314,1.314,0,0,1,507.161,23.065ZM507.5,26.14h1.926v12.5H507.5V26.14Zm7.821,1.7v8.113c0,0.654.313,1.065,1.42,1.065h1.131v1.623q-0.795.073-1.371,0.073c-1.926,0-3.105-.678-3.105-2.591V27.836h-2.045v-1.7h2.045V22.6h1.925V26.14h2.551v1.7h-2.551ZM530,26.14L524.753,40.6a3.754,3.754,0,0,1-4.043,2.858,9.5,9.5,0,0,1-1.155-.073V41.76h1.131a2.175,2.175,0,0,0,2.262-1.55c0.145-.363.289-0.775,0.433-1.162L518.713,26.14h2.118l1.756,5.206c0.626,1.816,1.2,3.608,1.781,5.4,0.553-1.792,1.156-3.608,1.781-5.425l1.757-5.182H530ZM319.648,61.995l-2.214,2.082V68.7h-1.925V51.46h1.925V61.8l5.752-5.594h2.55l-4.716,4.505,5.053,7.991h-2.238Zm6.667,0.46c0-4,2.527-6.539,6.016-6.539s6.016,2.542,6.016,6.539-2.526,6.539-6.016,6.539S326.315,66.45,326.315,62.455Zm10.011,0c0-3.027-1.588-4.8-4-4.8s-4,1.768-4,4.8,1.589,4.8,4,4.8S336.326,65.482,336.326,62.455Zm26.279-6.249-4.138,12.5h-2.022l-1.829-5.788c-0.433-1.381-.866-2.833-1.252-4.238-0.408,1.4-.841,2.857-1.275,4.238L350.284,68.7h-2.021l-4.14-12.5h2.07l1.757,5.643c0.481,1.525.914,3.027,1.348,4.552,0.409-1.525.842-3.027,1.323-4.552l1.733-5.643h2.021l1.733,5.643c0.457,1.5.914,3,1.348,4.5,0.409-1.5.866-3,1.324-4.5l1.756-5.643h2.069Zm1.229-3.075a1.3,1.3,0,1,1,1.3,1.308A1.314,1.314,0,0,1,363.834,53.131Zm0.337,3.075H366.1V68.7h-1.925v-12.5Zm7.822,1.7v8.113c0,0.654.312,1.065,1.42,1.065h1.131V68.7q-0.795.072-1.373,0.073c-1.924,0-3.1-.678-3.1-2.592V57.9h-2.046v-1.7h2.046V52.671h1.925v3.535h2.551v1.7h-2.551Zm14.824,2.349V68.7h-1.925V60.445c0-1.938-1.059-2.785-2.84-2.785-1.612,0-3.417,1.211-3.417,3.971V68.7H376.71V51.46h1.925v6.466a4.565,4.565,0,0,1,3.8-2.01C385.205,55.916,386.817,57.49,386.817,60.25Zm2.671-7.12a1.3,1.3,0,1,1,1.3,1.308A1.315,1.315,0,0,1,389.488,53.131Zm0.337,3.075h1.926V68.7h-1.926v-12.5Zm15.043,4.044V68.7h-1.926V60.445c0-1.938-1.059-2.785-2.839-2.785-1.613,0-3.418,1.211-3.418,3.971V68.7h-1.926v-12.5h1.83v1.865a4.567,4.567,0,0,1,3.9-2.155C403.255,55.916,404.868,57.49,404.868,60.25Zm14.174-4.213V57.9h-0.481c-2.479,0-4.067,1.26-4.067,3.682V68.7h-1.926v-12.5H414.4v2.2a4.334,4.334,0,0,1,4-2.4A6.437,6.437,0,0,1,419.042,56.037Zm12.033,7.1h-9.433c0.192,2.809,1.66,4.092,3.825,4.092a3.192,3.192,0,0,0,3.3-2.325h2a5.186,5.186,0,0,1-5.342,4.093c-3.393,0-5.776-2.494-5.776-6.539,0-3.923,2.286-6.539,5.728-6.539,3.706,0,5.7,2.954,5.7,6.539v0.678Zm-9.385-1.744h7.316c-0.193-2.059-1.42-3.705-3.634-3.705C423.422,57.684,422,58.919,421.69,61.389Zm22.525,5.739V68.7a7.289,7.289,0,0,1-1.058.073,1.784,1.784,0,0,1-2.094-1.792,4.543,4.543,0,0,1-4.043,2.01c-2.695,0-4.38-1.308-4.38-3.657,0-1.962,1.18-3.512,4.6-3.875l1.781-.194c1.251-.145,1.949-0.605,1.949-1.719,0-1.308-.674-1.962-2.791-1.962s-3.009.605-3.13,2.47h-1.925c0.145-2.422,1.421-4.141,5.055-4.141,3.44,0,4.668,1.525,4.668,3.632v6.974a0.571,0.571,0,0,0,.674.605h0.7Zm-3.248-3.366V62.285a3.188,3.188,0,0,1-1.637.533l-1.805.218c-2.262.266-2.888,1.042-2.888,2.253,0,1.234.771,2.058,2.479,2.058A3.575,3.575,0,0,0,440.967,63.762Zm4.331-1.307c0-4.021,2.311-6.539,5.753-6.539a5.043,5.043,0,0,1,5.342,4.529h-2a3.239,3.239,0,0,0-3.345-2.785c-2.118,0-3.731,1.525-3.731,4.8s1.66,4.8,3.731,4.8a3.267,3.267,0,0,0,3.368-2.833h1.974a5.132,5.132,0,0,1-5.342,4.577C447.657,68.993,445.3,66.474,445.3,62.455Zm23.369-2.2V68.7h-1.925V60.445c0-1.938-1.059-2.785-2.839-2.785-1.613,0-3.418,1.211-3.418,3.971V68.7h-1.926V51.46h1.926v6.466a4.567,4.567,0,0,1,3.8-2.01C467.055,55.916,468.667,57.49,468.667,60.25Zm2.648,7.193a1.408,1.408,0,0,1,2.815,0A1.408,1.408,0,1,1,471.315,67.443Z"/>
</svg>
