<svg xmlns="http://www.w3.org/2000/svg" width="728" height="90" viewBox="0 0 728 90">
  <defs>
    <style>
      .cls-1 {
        fill: #4c286c;
        fill-rule: evenodd;
      }
    </style>
  </defs>
  <path class="cls-1" d="M268.291,21l-4.863,17.221h-2.263l-2.455-8.78c-0.529-1.862-1.083-3.894-1.565-5.829-0.481,1.935-1.035,3.967-1.564,5.829l-2.456,8.78h-2.262L246,21H248.1l2.335,8.489c0.553,1.959,1.131,4.112,1.612,6.168,0.53-2.056,1.083-4.184,1.637-6.216L256.014,21h2.263l2.335,8.441c0.553,2.032,1.107,4.16,1.637,6.216,0.481-2.056,1.059-4.209,1.612-6.168L266.2,21h2.095ZM279.484,32.66h-9.435c0.192,2.806,1.661,4.088,3.827,4.088a3.194,3.194,0,0,0,3.3-2.322h2a5.186,5.186,0,0,1-5.344,4.087c-3.394,0-5.777-2.491-5.777-6.53,0-3.917,2.287-6.529,5.729-6.529,3.707,0,5.7,2.951,5.7,6.529V32.66ZM270.1,30.919h7.317c-0.192-2.055-1.419-3.7-3.634-3.7C271.83,27.218,270.41,28.452,270.1,30.919Zm13.24-7.908c0,2.273-1.107,3.314-2.648,3.628l-0.241.048V25.4l0.169-.023a1.744,1.744,0,0,0,1.3-1.863h-0.144a1.244,1.244,0,0,1-1.324-1.233A1.269,1.269,0,0,1,281.772,21C282.759,21,283.337,21.7,283.337,23.01Zm8.281,2.564v1.862h-0.482c-2.479,0-4.068,1.257-4.068,3.676v7.111h-1.925V25.743h1.829v2.2a4.336,4.336,0,0,1,4-2.394A6.446,6.446,0,0,1,291.618,25.574Zm12.035,7.086h-9.435c0.192,2.806,1.661,4.088,3.827,4.088a3.194,3.194,0,0,0,3.3-2.322h2A5.186,5.186,0,0,1,298,38.513c-3.394,0-5.777-2.491-5.777-6.53,0-3.917,2.287-6.529,5.729-6.529,3.707,0,5.7,2.951,5.7,6.529V32.66Zm-9.387-1.741h7.317c-0.192-2.055-1.42-3.7-3.634-3.7C296,27.218,294.579,28.452,294.266,30.919Zm26.6-1.137v8.441h-1.926V29.976c0-1.935-1.059-2.781-2.84-2.781-1.613,0-3.419,1.209-3.419,3.967v7.062h-1.925V21h1.925v6.458a4.571,4.571,0,0,1,3.8-2.007C319.252,25.453,320.865,27.025,320.865,29.782Zm13.841,2.878H325.27c0.193,2.806,1.661,4.088,3.828,4.088a3.192,3.192,0,0,0,3.3-2.322h2a5.186,5.186,0,0,1-5.344,4.087c-3.393,0-5.777-2.491-5.777-6.53,0-3.917,2.287-6.529,5.729-6.529,3.707,0,5.705,2.951,5.705,6.529V32.66Zm-9.387-1.741h7.317c-0.192-2.055-1.42-3.7-3.635-3.7C327.052,27.218,325.631,28.452,325.319,30.919Zm11.795,4.789V21h1.926V35.539a0.966,0.966,0,0,0,1.179,1.064h0.915v1.62a12.25,12.25,0,0,1-1.227.073C338.173,38.3,337.114,37.619,337.114,35.708Zm17.693-3.725c0,3.991-2.287,6.53-5.777,6.53a4.87,4.87,0,0,1-4.165-2.08v6.53H342.94V25.743h1.829v1.935a4.877,4.877,0,0,1,4.261-2.224C352.52,25.453,354.807,27.993,354.807,31.983Zm-2.022-.1c0-3.023-1.589-4.692-4-4.692s-4,1.765-4,4.788,1.588,4.789,4,4.789S352.785,34.91,352.785,31.887Zm4.093-9.215a1.3,1.3,0,1,1,1.3,1.306A1.313,1.313,0,0,1,356.878,22.672Zm0.337,3.071h1.925V38.224h-1.925V25.743Zm15.045,4.039v8.441h-1.925V29.976c0-1.935-1.06-2.781-2.842-2.781-1.613,0-3.418,1.209-3.418,3.967v7.062H362.15V25.743h1.829v1.863a4.57,4.57,0,0,1,3.9-2.153C370.647,25.453,372.26,27.025,372.26,29.782Zm14.274-4.039v12c0,3.241-1.853,5.514-5.777,5.514-3.177,0-5.031-1.6-5.3-4.015h1.927c0.24,1.571,1.419,2.37,3.369,2.37,2.479,0,3.852-1.282,3.852-3.869V36.53a5.013,5.013,0,0,1-4.165,1.983c-3.49,0-5.777-2.539-5.777-6.53s2.287-6.529,5.777-6.529a5.005,5.005,0,0,1,4.261,2.1V25.743h1.829Zm-1.853,6.24c0-3.023-1.589-4.788-4-4.788s-4,1.862-4,4.788,1.589,4.789,4,4.789S384.681,35.007,384.681,31.983Zm21.424,0c0,3.991-2.287,6.53-5.777,6.53a4.867,4.867,0,0,1-4.164-2.08v6.53h-1.927V25.743h1.83v1.935a4.877,4.877,0,0,1,4.261-2.224C403.818,25.453,406.105,27.993,406.105,31.983Zm-2.023-.1c0-3.023-1.588-4.692-4-4.692s-4,1.765-4,4.788,1.589,4.789,4,4.789S404.082,34.91,404.082,31.887Zm15.263,0.773H409.91c0.192,2.806,1.66,4.088,3.826,4.088a3.192,3.192,0,0,0,3.3-2.322h2a5.186,5.186,0,0,1-5.344,4.087c-3.393,0-5.777-2.491-5.777-6.53,0-3.917,2.287-6.529,5.729-6.529,3.708,0,5.705,2.951,5.705,6.529V32.66Zm-9.387-1.741h7.317c-0.193-2.055-1.42-3.7-3.635-3.7C411.691,27.218,410.27,28.452,409.958,30.919Zm11.193,1.064c0-3.99,2.528-6.529,6.018-6.529s6.018,2.539,6.018,6.529-2.528,6.53-6.018,6.53S421.151,35.974,421.151,31.983Zm10.014,0c0-3.023-1.588-4.788-4-4.788s-4,1.765-4,4.788,1.589,4.789,4,4.789S431.165,35.007,431.165,31.983Zm16.3,0c0,3.991-2.287,6.53-5.777,6.53a4.867,4.867,0,0,1-4.164-2.08v6.53h-1.927V25.743h1.83v1.935a4.877,4.877,0,0,1,4.261-2.224C445.175,25.453,447.462,27.993,447.462,31.983Zm-2.023-.1c0-3.023-1.588-4.692-4-4.692s-4,1.765-4,4.788,1.589,4.789,4,4.789S445.439,34.91,445.439,31.887Zm4.43,3.821V21H451.8V35.539a0.966,0.966,0,0,0,1.179,1.064h0.915v1.62a12.233,12.233,0,0,1-1.227.073C450.929,38.3,449.869,37.619,449.869,35.708Zm16.417-3.048h-9.435c0.192,2.806,1.66,4.088,3.826,4.088a3.193,3.193,0,0,0,3.3-2.322h2a5.186,5.186,0,0,1-5.344,4.087c-3.394,0-5.777-2.491-5.777-6.53,0-3.917,2.287-6.529,5.729-6.529,3.708,0,5.7,2.951,5.7,6.529V32.66ZM456.9,30.919h7.318c-0.192-2.055-1.42-3.7-3.635-3.7C458.631,27.218,457.211,28.452,456.9,30.919Zm16.152-8.247a1.3,1.3,0,1,1,1.3,1.306A1.314,1.314,0,0,1,473.05,22.672Zm0.337,3.071h1.927V38.224h-1.927V25.743Zm15.046,4.039v8.441h-1.927V29.976c0-1.935-1.059-2.781-2.84-2.781-1.613,0-3.418,1.209-3.418,3.967v7.062h-1.926V25.743h1.83v1.863a4.568,4.568,0,0,1,3.9-2.153C486.82,25.453,488.433,27.025,488.433,29.782Zm17.812,0v8.441H504.32V29.976c0-1.935-1.059-2.781-2.84-2.781-1.613,0-3.418,1.209-3.418,3.967v7.062h-1.927V25.743h1.83v1.863a4.571,4.571,0,0,1,3.9-2.153C504.634,25.453,506.245,27.025,506.245,29.782Zm13.842,2.878h-9.436c0.193,2.806,1.661,4.088,3.827,4.088a3.193,3.193,0,0,0,3.3-2.322h2a5.186,5.186,0,0,1-5.344,4.087c-3.394,0-5.778-2.491-5.778-6.53,0-3.917,2.287-6.529,5.73-6.529,3.707,0,5.705,2.951,5.705,6.529V32.66ZM510.7,30.919h7.318c-0.193-2.055-1.42-3.7-3.635-3.7C512.432,27.218,511.012,28.452,510.7,30.919Zm22.628,1.741h-9.436c0.193,2.806,1.661,4.088,3.827,4.088a3.193,3.193,0,0,0,3.3-2.322h2a5.184,5.184,0,0,1-5.343,4.087c-3.394,0-5.778-2.491-5.778-6.53,0-3.917,2.287-6.529,5.73-6.529,3.707,0,5.705,2.951,5.705,6.529V32.66Zm-9.388-1.741h7.318c-0.193-2.055-1.42-3.7-3.635-3.7C525.672,27.218,524.252,28.452,523.939,30.919ZM547,21V38.224h-1.829V36.289a4.877,4.877,0,0,1-4.261,2.224c-3.491,0-5.778-2.539-5.778-6.53s2.287-6.529,5.778-6.529a4.87,4.87,0,0,1,4.164,2.08V21H547Zm-1.854,10.98c0-3.023-1.588-4.788-4-4.788s-4,1.862-4,4.885,1.59,4.692,4,4.692S545.146,35.007,545.146,31.983Zm-264.674,34.7v1.573a7.332,7.332,0,0,1-1.06.073,1.784,1.784,0,0,1-2.094-1.789,4.546,4.546,0,0,1-4.044,2.007c-2.7,0-4.381-1.306-4.381-3.652,0-1.959,1.179-3.507,4.6-3.87l1.781-.193c1.252-.145,1.95-0.6,1.95-1.717,0-1.306-.674-1.959-2.793-1.959s-3.008.6-3.128,2.467h-1.926c0.144-2.419,1.42-4.135,5.054-4.135,3.443,0,4.671,1.523,4.671,3.628v6.965a0.57,0.57,0,0,0,.674.6h0.7Zm-3.25-3.362V61.842a3.193,3.193,0,0,1-1.637.532l-1.805.218c-2.263.266-2.889,1.04-2.889,2.25,0,1.233.77,2.055,2.48,2.055A3.574,3.574,0,0,0,277.222,63.317Zm4.333-1.306c0-4.016,2.311-6.53,5.753-6.53A5.041,5.041,0,0,1,292.652,60h-2a3.238,3.238,0,0,0-3.346-2.782c-2.118,0-3.731,1.523-3.731,4.789s1.661,4.789,3.731,4.789a3.266,3.266,0,0,0,3.37-2.83h1.974a5.131,5.131,0,0,1-5.344,4.571C283.914,68.542,281.555,66.026,281.555,62.012Zm12.663,0c0-4.016,2.31-6.53,5.752-6.53A5.042,5.042,0,0,1,305.315,60h-2a3.238,3.238,0,0,0-3.346-2.782c-2.118,0-3.731,1.523-3.731,4.789S297.9,66.8,299.97,66.8a3.267,3.267,0,0,0,3.37-2.83h1.975a5.132,5.132,0,0,1-5.345,4.571C296.576,68.542,294.218,66.026,294.218,62.012Zm24.095,0.677h-9.436c0.193,2.805,1.662,4.087,3.828,4.087a3.191,3.191,0,0,0,3.3-2.322h2a5.187,5.187,0,0,1-5.344,4.088c-3.394,0-5.777-2.491-5.777-6.53,0-3.918,2.287-6.53,5.729-6.53,3.706,0,5.7,2.951,5.7,6.53v0.677Zm-9.387-1.741h7.317c-0.192-2.056-1.42-3.7-3.634-3.7C310.659,57.247,309.238,58.48,308.926,60.948Zm10.784,3.337h1.95c0.217,1.887,1.131,2.587,3.322,2.587,2.094,0,2.985-.7,2.985-1.935,0-1.112-.674-1.621-2.84-2.032l-1.156-.217c-2.7-.508-3.875-1.741-3.875-3.677,0-2.128,1.685-3.531,4.525-3.531,3.322,0,5.007,1.475,5.055,4.135H327.75c-0.1-1.935-1.227-2.467-3.129-2.467-1.661,0-2.6.677-2.6,1.838,0,1.185.915,1.621,2.5,1.935l1.107,0.218c3.057,0.6,4.285,1.644,4.285,3.676,0,2.371-1.878,3.725-4.935,3.725C321.829,68.542,319.9,67.211,319.71,64.285Zm11.6,0h1.95c0.217,1.887,1.131,2.587,3.322,2.587,2.094,0,2.985-.7,2.985-1.935,0-1.112-.674-1.621-2.841-2.032l-1.155-.217c-2.7-.508-3.876-1.741-3.876-3.677,0-2.128,1.685-3.531,4.526-3.531,3.322,0,5.006,1.475,5.055,4.135h-1.926c-0.1-1.935-1.228-2.467-3.129-2.467-1.662,0-2.6.677-2.6,1.838,0,1.185.915,1.621,2.5,1.935l1.108,0.218c3.056,0.6,4.284,1.644,4.284,3.676,0,2.371-1.877,3.725-4.934,3.725C333.431,68.542,331.506,67.211,331.313,64.285Zm16.056,0h1.949c0.217,1.887,1.132,2.587,3.322,2.587,2.1,0,2.985-.7,2.985-1.935,0-1.112-.674-1.621-2.84-2.032l-1.156-.217c-2.695-.508-3.875-1.741-3.875-3.677,0-2.128,1.685-3.531,4.526-3.531,3.321,0,5.006,1.475,5.054,4.135h-1.926c-0.1-1.935-1.227-2.467-3.128-2.467-1.662,0-2.6.677-2.6,1.838,0,1.185.915,1.621,2.5,1.935l1.108,0.218c3.056,0.6,4.284,1.644,4.284,3.676,0,2.371-1.877,3.725-4.935,3.725C349.487,68.542,347.561,67.211,347.369,64.285Zm22.363-8.514V68.252H367.9V66.39a4.571,4.571,0,0,1-3.9,2.152c-2.768,0-4.381-1.572-4.381-4.33V55.771h1.925v8.248c0,1.935,1.06,2.782,2.841,2.782,1.613,0,3.418-1.209,3.418-3.966V55.771h1.926Zm14.877,6.241c0,3.99-2.287,6.53-5.777,6.53a4.876,4.876,0,0,1-4.262-2.225v1.935h-1.828V51.031h1.925v6.53a4.873,4.873,0,0,1,4.165-2.08C382.322,55.481,384.609,58.021,384.609,62.012Zm-2.022-.1c0-3.023-1.59-4.692-4-4.692s-3.995,1.766-3.995,4.789,1.588,4.789,3.995,4.789S382.587,64.938,382.587,61.915Zm3.3,2.371h1.95c0.216,1.887,1.131,2.587,3.322,2.587,2.094,0,2.984-.7,2.984-1.935,0-1.112-.674-1.621-2.84-2.032l-1.156-.217c-2.695-.508-3.875-1.741-3.875-3.677,0-2.128,1.685-3.531,4.526-3.531,3.321,0,5.006,1.475,5.054,4.135h-1.925c-0.1-1.935-1.227-2.467-3.129-2.467-1.662,0-2.6.677-2.6,1.838,0,1.185.915,1.621,2.5,1.935l1.108,0.218c3.056,0.6,4.284,1.644,4.284,3.676,0,2.371-1.877,3.725-4.934,3.725C388,68.542,386.077,67.211,385.885,64.285ZM397.8,52.7a1.3,1.3,0,1,1,1.3,1.307A1.313,1.313,0,0,1,397.8,52.7Zm0.337,3.071h1.926V68.252h-1.926V55.771Zm16.2-4.74V68.252h-1.829V66.317a4.877,4.877,0,0,1-4.261,2.225c-3.491,0-5.777-2.54-5.777-6.53s2.286-6.53,5.777-6.53a4.871,4.871,0,0,1,4.164,2.08v-6.53h1.926Zm-1.853,10.981c0-3.023-1.589-4.789-4-4.789s-4,1.862-4,4.885,1.589,4.693,4,4.693S412.485,65.035,412.485,62.012ZM417.01,52.7a1.3,1.3,0,1,1,1.3,1.307A1.313,1.313,0,0,1,417.01,52.7Zm0.337,3.071h1.926V68.252h-1.926V55.771Zm14.131,10.787v1.693H421.44V66.8l5.682-7.353c0.529-.677,1.059-1.355,1.612-2.032-0.891.048-1.757,0.048-2.648,0.048h-4.405V55.771h9.46v1.452l-5.681,7.353c-0.53.677-1.059,1.355-1.613,2.031,0.891-.048,1.757-0.048,2.648-0.048h4.983Zm12.277-3.869h-9.436c0.193,2.805,1.661,4.087,3.827,4.087a3.192,3.192,0,0,0,3.3-2.322h2a5.186,5.186,0,0,1-5.344,4.088c-3.394,0-5.777-2.491-5.777-6.53,0-3.918,2.287-6.53,5.729-6.53,3.707,0,5.7,2.951,5.7,6.53v0.677Zm-9.388-1.741h7.318c-0.192-2.056-1.42-3.7-3.635-3.7C436.1,57.247,434.68,58.48,434.367,60.948Zm23.061-9.917V68.252H455.6V66.317a4.876,4.876,0,0,1-4.261,2.225c-3.491,0-5.777-2.54-5.777-6.53s2.286-6.53,5.777-6.53a4.871,4.871,0,0,1,4.164,2.08v-6.53h1.926Zm-1.853,10.981c0-3.023-1.589-4.789-4-4.789s-4,1.862-4,4.885,1.589,4.693,4,4.693S455.575,65.035,455.575,62.012Zm21.423,0c0,3.99-2.287,6.53-5.776,6.53a4.871,4.871,0,0,1-4.165-2.08v6.53h-1.926V55.771h1.829v1.936a4.878,4.878,0,0,1,4.262-2.225C474.711,55.481,477,58.021,477,62.012Zm-2.022-.1c0-3.023-1.589-4.692-4-4.692s-4,1.766-4,4.789,1.588,4.789,4,4.789S474.976,64.938,474.976,61.915Zm4.43,3.821v-14.7h1.927V65.567a0.966,0.966,0,0,0,1.179,1.064h0.914v1.621a12.243,12.243,0,0,1-1.227.073C480.466,68.324,479.406,67.647,479.406,65.736Zm16.682,0.943v1.573a7.328,7.328,0,0,1-1.059.073,1.785,1.785,0,0,1-2.095-1.789,4.544,4.544,0,0,1-4.043,2.007c-2.7,0-4.382-1.306-4.382-3.652,0-1.959,1.181-3.507,4.6-3.87l1.781-.193c1.251-.145,1.949-0.6,1.949-1.717,0-1.306-.674-1.959-2.791-1.959s-3.01.6-3.13,2.467h-1.926c0.145-2.419,1.42-4.135,5.056-4.135,3.441,0,4.669,1.523,4.669,3.628v6.965a0.57,0.57,0,0,0,.674.6h0.7Zm-3.25-3.362V61.842a3.186,3.186,0,0,1-1.637.532l-1.805.218c-2.263.266-2.889,1.04-2.889,2.25,0,1.233.771,2.055,2.48,2.055A3.573,3.573,0,0,0,492.838,63.317ZM508,59.81v8.441h-1.927V60c0-1.936-1.059-2.782-2.839-2.782-1.613,0-3.419,1.209-3.419,3.966v7.063h-1.926V55.771h1.83v1.863a4.568,4.568,0,0,1,3.9-2.153C506.391,55.481,508,57.053,508,59.81Zm2.119,4.475h1.95c0.216,1.887,1.131,2.587,3.321,2.587,2.1,0,2.984-.7,2.984-1.935,0-1.112-.673-1.621-2.839-2.032l-1.156-.217c-2.7-.508-3.875-1.741-3.875-3.677,0-2.128,1.685-3.531,4.525-3.531,3.322,0,5.007,1.475,5.055,4.135h-1.925c-0.1-1.935-1.228-2.467-3.13-2.467-1.661,0-2.6.677-2.6,1.838,0,1.185.915,1.621,2.5,1.935l1.107,0.218c3.057,0.6,4.284,1.644,4.284,3.676,0,2.371-1.877,3.725-4.934,3.725C512.241,68.542,510.315,67.211,510.123,64.285Zm11.891,2.709a1.41,1.41,0,0,1,2.817,0A1.409,1.409,0,1,1,522.014,66.994Z"/>
</svg>
