<svg id="Frame_3" data-name="Frame 3" xmlns="http://www.w3.org/2000/svg" width="300" height="250" viewBox="0 0 600 500">
  <defs>
    <style>
      .cls-1 {
        fill: #2b8000;
        fill-rule: evenodd;
      }
    </style>
  </defs>
  <g id="CTA">
    <path id="Sign_up" data-name="Sign up" class="cls-1" d="M465.6,469.242c4.1,0,5.728-2.041,5.728-4.416,0-2.312-1.5-3.624-4.25-4.207l-2.6-.563c-1.854-.4-2.583-1.062-2.583-2.249,0-1.563,1.25-2.458,3.374-2.458,2.271,0,3.583,1,3.75,2.9h1.853c-0.229-2.874-2.249-4.478-5.54-4.478-3.416,0-5.27,1.708-5.27,4.207,0,2.375,1.75,3.375,4.166,3.875l2.083,0.437c2.312,0.479,3.145,1.25,3.145,2.645,0,1.687-1.25,2.729-3.791,2.729-2.562,0-4.062-1.062-4.27-3.541h-1.854C459.787,467.555,461.891,469.242,465.6,469.242Zm8.459-13.081h1.916V454.1h-1.916v2.062Zm0,12.768h1.916V458.182h-1.916v10.747Zm12.748-10.747v1.666a3.842,3.842,0,0,0-3.478-1.9c-2.729,0-4.645,2.188-4.645,5.437,0,3.333,1.771,5.77,4.687,5.77a3.95,3.95,0,0,0,3.374-1.792v1.4c0,2.249-.917,3.145-3.124,3.145-1.521,0-2.437-.417-2.729-1.625h-1.875c0.292,2.187,2.042,3.145,4.541,3.145,3.041,0,5.041-1.395,5.041-4.853V458.182h-1.792Zm-3.249,9.331c-1.854,0-2.958-1.625-2.958-4.124,0-2.458,1.146-3.791,3-3.791,1.791,0,3.082,1.291,3.082,3.833S485.348,467.513,483.557,467.513Zm13.77-9.6a4.1,4.1,0,0,0-3.6,1.791v-1.52h-1.791v10.747h1.916v-5.978c0-2.562,1.583-3.374,3.062-3.374a1.956,1.956,0,0,1,2.145,2.271v7.081h1.917v-7.456A3.308,3.308,0,0,0,497.327,457.911Zm19.729,0.271v5.978c0,2.562-1.583,3.374-3.062,3.374a1.956,1.956,0,0,1-2.145-2.271v-7.081h-1.917v7.456a3.308,3.308,0,0,0,3.645,3.562,4.1,4.1,0,0,0,3.6-1.791v1.52h1.791V458.182h-1.916Zm10.438-.23a3.872,3.872,0,0,0-3.52,1.958v-1.728h-1.667v15h1.917v-5.562a3.917,3.917,0,0,0,3.186,1.542c2.916,0,4.708-2.521,4.708-5.853C532.118,460.056,530.222,457.952,527.494,457.952Zm-0.271,9.561c-1.791,0-3.1-1.541-3.1-4.082s1.313-3.833,3.1-3.833c1.854,0,2.979,1.25,2.979,3.708C530.2,465.805,529.077,467.513,527.223,467.513Z"/>
  </g>
</svg>
