<svg id="Frame_3" data-name="Frame 3" xmlns="http://www.w3.org/2000/svg" width="300" height="250" viewBox="0 0 600 500">
  <defs>
    <style>
      .cls-1 {
        fill: #4d4d4f;
        fill-rule: evenodd;
      }
    </style>
  </defs>
  <path id="_On_a_2-year_term._Conditions_apply." data-name="*On a 2-year term. Conditions apply." class="cls-1" d="M26.611,481.757l1.4-2.083,1.4,2.083,0.984-.683-1.567-1.967,2.368-.75-0.434-1.083-2.251.933,0.083-2.383H27.412l0.083,2.383-2.251-.933-0.433,1.083,2.368,0.75-1.617,1.967Zm6.955,3.1a5.236,5.236,0,0,0,2.011,2.221,5.642,5.642,0,0,0,3.013.814,5.934,5.934,0,0,0,2.9-.736,5,5,0,0,0,2.076-2.169,7.027,7.027,0,0,0,.733-3.247,7.15,7.15,0,0,0-.7-3.2,5.156,5.156,0,0,0-2.023-2.2,5.72,5.72,0,0,0-2.98-.789,5.428,5.428,0,0,0-4.12,1.68,6.483,6.483,0,0,0-1.6,4.651A6.733,6.733,0,0,0,33.566,484.858Zm2.154-6.8a4.042,4.042,0,0,1,2.886-1.151,3.907,3.907,0,0,1,2.129.6,3.786,3.786,0,0,1,1.441,1.684,6.118,6.118,0,0,1,.493,2.544,5.066,5.066,0,0,1-1.152,3.556,4.049,4.049,0,0,1-5.846.012,4.777,4.777,0,0,1-1.16-3.4A5.144,5.144,0,0,1,35.72,478.058Zm11.888,9.632v-4.72a2.931,2.931,0,0,1,.68-2.255,2.375,2.375,0,0,1,1.616-.594,1.933,1.933,0,0,1,1.022.265,1.406,1.406,0,0,1,.607.708,3.944,3.944,0,0,1,.171,1.338v5.258h1.466v-5.314a8.4,8.4,0,0,0-.081-1.425,2.834,2.834,0,0,0-.456-1.082,2.258,2.258,0,0,0-.981-0.736,3.6,3.6,0,0,0-1.437-.281,3.11,3.11,0,0,0-2.752,1.424v-1.229H46.143v8.643h1.466Zm18.544,0h1.531a3.256,3.256,0,0,1-.371-1.038,20.71,20.71,0,0,1-.094-2.584v-1.953a8.254,8.254,0,0,0-.073-1.351,2.307,2.307,0,0,0-.456-1,2.376,2.376,0,0,0-1.018-.655,5.213,5.213,0,0,0-1.8-.26,5.763,5.763,0,0,0-1.962.305,2.816,2.816,0,0,0-1.295.871,3.548,3.548,0,0,0-.643,1.485l1.433,0.2a2.215,2.215,0,0,1,.729-1.282,2.592,2.592,0,0,1,1.527-.362,2.454,2.454,0,0,1,1.669.5,1.615,1.615,0,0,1,.415,1.261c0,0.054,0,.182-0.008.383a13.431,13.431,0,0,1-2.614.5,10.543,10.543,0,0,0-1.3.22,3.538,3.538,0,0,0-1.054.48,2.392,2.392,0,0,0-.757.842,2.365,2.365,0,0,0-.289,1.16,2.3,2.3,0,0,0,.765,1.778,3.144,3.144,0,0,0,2.19.7,4.53,4.53,0,0,0,1.616-.285,5.462,5.462,0,0,0,1.567-.976,3.11,3.11,0,0,0,.293,1.066h0Zm-0.415-3.8a3.539,3.539,0,0,1-.236,1.465,2.28,2.28,0,0,1-.969,1.013,3.022,3.022,0,0,1-1.506.37,1.912,1.912,0,0,1-1.3-.39,1.3,1.3,0,0,1-.24-1.673,1.282,1.282,0,0,1,.578-0.476,5.575,5.575,0,0,1,1.278-.293,10.713,10.713,0,0,0,2.394-.553v0.537Zm9.994,2.393a4.847,4.847,0,0,1,.619-0.794q0.374-.394,1.694-1.5a23.732,23.732,0,0,0,2.259-2.1,5.465,5.465,0,0,0,.973-1.456,3.583,3.583,0,0,0,.293-1.408,3.123,3.123,0,0,0-1-2.36,3.784,3.784,0,0,0-2.72-.953,3.976,3.976,0,0,0-2.711.883,3.706,3.706,0,0,0-1.164,2.568l1.506,0.155a2.4,2.4,0,0,1,.643-1.758,2.29,2.29,0,0,1,1.694-.635,2.247,2.247,0,0,1,1.624.6,1.959,1.959,0,0,1,.623,1.469,3.025,3.025,0,0,1-.684,1.762,16.25,16.25,0,0,1-2.63,2.527,15.121,15.121,0,0,0-1.918,1.806,5.382,5.382,0,0,0-.965,1.587,2.592,2.592,0,0,0-.171,1.018h7.89v-1.408H75.731Zm11.245-2.173v-1.473h-4.5v1.473h4.5Zm2.23,7.088a2.118,2.118,0,0,0,1.205-.338,2.892,2.892,0,0,0,.9-1.062,17.3,17.3,0,0,0,.822-1.961l3.289-8.789H93.953L92.1,484.084a19.741,19.741,0,0,0-.6,1.97q-0.277-1.05-.627-2l-1.8-5H87.5l3.281,8.659c-0.06.157-.1,0.277-0.13,0.358a7.194,7.194,0,0,1-.448,1.09,1.323,1.323,0,0,1-.48.456,1.6,1.6,0,0,1-.782.163,3.3,3.3,0,0,1-.839-0.13l0.163,1.375a2.945,2.945,0,0,0,.945.179h0Zm12.05-4.94a2.239,2.239,0,0,1-1.376.424,2.4,2.4,0,0,1-1.808-.757,3.321,3.321,0,0,1-.806-2.181h6.449c0-.174.008-0.3,0.008-0.391a4.684,4.684,0,0,0-1.1-3.32,3.7,3.7,0,0,0-2.834-1.18,3.8,3.8,0,0,0-2.915,1.2,4.776,4.776,0,0,0-1.124,3.386,4.56,4.56,0,0,0,1.111,3.275,4.5,4.5,0,0,0,5.484.436,3.7,3.7,0,0,0,1.327-2.059l-1.514-.188A2.809,2.809,0,0,1,101.256,486.257Zm-3.147-5.525a2.326,2.326,0,0,1,1.7-.676,2.245,2.245,0,0,1,1.815.847,2.922,2.922,0,0,1,.554,1.635H97.348A2.67,2.67,0,0,1,98.109,480.732Zm13.169,6.958h1.531a3.264,3.264,0,0,1-.371-1.038,20.864,20.864,0,0,1-.093-2.584v-1.953a8.359,8.359,0,0,0-.073-1.351,2.309,2.309,0,0,0-.456-1,2.385,2.385,0,0,0-1.018-.655,5.215,5.215,0,0,0-1.8-.26,5.767,5.767,0,0,0-1.962.305,2.818,2.818,0,0,0-1.3.871,3.563,3.563,0,0,0-.643,1.485l1.433,0.2a2.221,2.221,0,0,1,.729-1.282,2.592,2.592,0,0,1,1.527-.362,2.454,2.454,0,0,1,1.669.5,1.615,1.615,0,0,1,.415,1.261c0,0.054,0,.182-0.008.383a13.422,13.422,0,0,1-2.614.5,10.5,10.5,0,0,0-1.3.22,3.538,3.538,0,0,0-1.055.48,2.4,2.4,0,0,0-.757.842,2.363,2.363,0,0,0-.289,1.16,2.3,2.3,0,0,0,.765,1.778,3.145,3.145,0,0,0,2.19.7,4.53,4.53,0,0,0,1.617-.285,5.463,5.463,0,0,0,1.567-.976,3.1,3.1,0,0,0,.293,1.066h0Zm-0.415-3.8a3.544,3.544,0,0,1-.236,1.465,2.281,2.281,0,0,1-.969,1.013,3.023,3.023,0,0,1-1.506.37,1.913,1.913,0,0,1-1.3-.39,1.294,1.294,0,0,1-.24-1.673,1.277,1.277,0,0,1,.578-0.476,5.57,5.57,0,0,1,1.278-.293,10.712,10.712,0,0,0,2.394-.553v0.537Zm5,3.8v-4.525a5.7,5.7,0,0,1,.245-1.709,1.563,1.563,0,0,1,.545-0.8,1.4,1.4,0,0,1,.863-0.289,2.1,2.1,0,0,1,1.075.318l0.5-1.359a2.858,2.858,0,0,0-1.506-.472,1.625,1.625,0,0,0-.941.293,3.563,3.563,0,0,0-.932,1.212v-1.31H114.4v8.643h1.465Zm11.46-1.254a0.977,0.977,0,0,1-.5-0.1,0.617,0.617,0,0,1-.253-0.285,2.578,2.578,0,0,1-.077-0.806v-5.054h1.474v-1.139H126.5v-3.019l-1.458.879v2.14h-1.074v1.139h1.074v4.973a5.215,5.215,0,0,0,.18,1.729,1.408,1.408,0,0,0,.618.663,2.511,2.511,0,0,0,1.238.253,5.421,5.421,0,0,0,1.107-.131l-0.211-1.294a4.775,4.775,0,0,1-.644.057h0Zm6.784-.179a2.239,2.239,0,0,1-1.376.424,2.4,2.4,0,0,1-1.808-.757,3.321,3.321,0,0,1-.806-2.181h6.449c0-.174.008-0.3,0.008-0.391a4.688,4.688,0,0,0-1.1-3.32,3.7,3.7,0,0,0-2.834-1.18,3.8,3.8,0,0,0-2.915,1.2,4.776,4.776,0,0,0-1.123,3.386,4.559,4.559,0,0,0,1.111,3.275,4.5,4.5,0,0,0,5.484.436,3.7,3.7,0,0,0,1.327-2.059l-1.514-.188A2.809,2.809,0,0,1,134.111,486.257Zm-3.147-5.525a2.324,2.324,0,0,1,1.7-.676,2.245,2.245,0,0,1,1.816.847,2.922,2.922,0,0,1,.554,1.635H130.2A2.67,2.67,0,0,1,130.964,480.732Zm8.691,6.958v-4.525a5.7,5.7,0,0,1,.244-1.709,1.571,1.571,0,0,1,.546-0.8,1.4,1.4,0,0,1,.863-0.289,2.1,2.1,0,0,1,1.075.318l0.5-1.359a2.855,2.855,0,0,0-1.506-.472,1.622,1.622,0,0,0-.94.293,3.575,3.575,0,0,0-.933,1.212v-1.31h-1.319v8.643h1.466Zm5.654,0v-4.484a5.37,5.37,0,0,1,.236-1.807,1.85,1.85,0,0,1,.762-0.952,2.13,2.13,0,0,1,1.144-.326,1.356,1.356,0,0,1,1.172.489,2.465,2.465,0,0,1,.358,1.464v5.616h1.466v-5.022a2.666,2.666,0,0,1,.6-1.94,2.042,2.042,0,0,1,1.514-.607,1.616,1.616,0,0,1,.879.236,1.227,1.227,0,0,1,.517.623,4,4,0,0,1,.143,1.265v5.445h1.457v-5.933a3.04,3.04,0,0,0-.692-2.193,2.631,2.631,0,0,0-1.978-.712,3.1,3.1,0,0,0-2.671,1.513,2.128,2.128,0,0,0-.867-1.114,2.845,2.845,0,0,0-1.576-.4,3.044,3.044,0,0,0-2.621,1.408v-1.213h-1.311v8.643h1.465Zm14.2,0v-1.669h-1.669v1.669h1.669Zm14.807-1.913a3.4,3.4,0,0,1-2.248.765,3.874,3.874,0,0,1-2.027-.561,3.309,3.309,0,0,1-1.38-1.7,7.275,7.275,0,0,1-.444-2.657,7.116,7.116,0,0,1,.375-2.291,3.473,3.473,0,0,1,1.3-1.77,3.858,3.858,0,0,1,2.3-.659,3.211,3.211,0,0,1,1.986.594,3.684,3.684,0,0,1,1.2,1.9l1.555-.366a4.732,4.732,0,0,0-1.7-2.564,4.9,4.9,0,0,0-3.013-.911,5.924,5.924,0,0,0-2.894.72,4.879,4.879,0,0,0-2.028,2.108,7.027,7.027,0,0,0-.712,3.251,8.107,8.107,0,0,0,.631,3.2,4.9,4.9,0,0,0,1.84,2.275,5.676,5.676,0,0,0,3.139.785,4.926,4.926,0,0,0,3.155-1.021,5.316,5.316,0,0,0,1.787-2.967l-1.58-.4A3.916,3.916,0,0,1,174.312,485.777Zm5.151,0.944a3.887,3.887,0,0,0,2.935,1.164,4.242,4.242,0,0,0,2.089-.529,3.547,3.547,0,0,0,1.457-1.485,5.714,5.714,0,0,0,.5-2.625,4.438,4.438,0,0,0-1.132-3.226,3.878,3.878,0,0,0-2.915-1.168,4.024,4.024,0,0,0-2.719.96,4.454,4.454,0,0,0-1.336,3.556A4.648,4.648,0,0,0,179.463,486.721Zm1.111-5.835a2.418,2.418,0,0,1,3.636,0,3.571,3.571,0,0,1,.729,2.43,3.766,3.766,0,0,1-.725,2.53,2.413,2.413,0,0,1-3.64,0A4.625,4.625,0,0,1,180.574,480.886Zm8.926,6.8v-4.72a2.932,2.932,0,0,1,.68-2.255,2.375,2.375,0,0,1,1.616-.594,1.933,1.933,0,0,1,1.022.265,1.409,1.409,0,0,1,.607.708,3.944,3.944,0,0,1,.171,1.338v5.258h1.465v-5.314a8.438,8.438,0,0,0-.081-1.425,2.835,2.835,0,0,0-.456-1.082,2.255,2.255,0,0,0-.981-0.736,3.6,3.6,0,0,0-1.437-.281,3.109,3.109,0,0,0-2.752,1.424v-1.229h-1.319v8.643H189.5Zm14.615,0V475.759h-1.458v4.281a2.879,2.879,0,0,0-2.385-1.188,3.465,3.465,0,0,0-1.93.561,3.41,3.41,0,0,0-1.3,1.616,6.151,6.151,0,0,0-.431,2.347,5.5,5.5,0,0,0,.476,2.348,3.746,3.746,0,0,0,1.344,1.591,3.388,3.388,0,0,0,1.9.57,2.69,2.69,0,0,0,2.418-1.286v1.091h1.36Zm-5.337-6.828a2.03,2.03,0,0,1,1.632-.8,2.106,2.106,0,0,1,1.686.83,4.066,4.066,0,0,1,.684,2.605,3.616,3.616,0,0,1-.672,2.4,2.073,2.073,0,0,1-1.633.786,2.112,2.112,0,0,1-1.653-.822,3.759,3.759,0,0,1-.7-2.483A3.934,3.934,0,0,1,198.778,480.862Zm8.855-3.418v-1.685h-1.466v1.685h1.466Zm0,10.246v-8.643h-1.466v8.643h1.466Zm4.581-1.254a0.979,0.979,0,0,1-.5-0.1,0.617,0.617,0,0,1-.253-0.285,2.578,2.578,0,0,1-.077-0.806v-5.054h1.474v-1.139h-1.474v-3.019l-1.457.879v2.14h-1.075v1.139h1.075v4.973a5.224,5.224,0,0,0,.179,1.729,1.405,1.405,0,0,0,.619.663,2.506,2.506,0,0,0,1.237.253,5.421,5.421,0,0,0,1.107-.131l-0.211-1.294a4.776,4.776,0,0,1-.643.057h0Zm3.443-8.992v-1.685h-1.466v1.685h1.466Zm0,10.246v-8.643h-1.466v8.643h1.466Zm2.7-.969a3.887,3.887,0,0,0,2.935,1.164,4.242,4.242,0,0,0,2.089-.529,3.547,3.547,0,0,0,1.457-1.485,5.714,5.714,0,0,0,.5-2.625,4.438,4.438,0,0,0-1.132-3.226,3.878,3.878,0,0,0-2.915-1.168,4.024,4.024,0,0,0-2.719.96,4.453,4.453,0,0,0-1.335,3.556A4.648,4.648,0,0,0,218.36,486.721Zm1.112-5.835a2.416,2.416,0,0,1,3.635,0,3.571,3.571,0,0,1,.729,2.43,3.766,3.766,0,0,1-.725,2.53,2.412,2.412,0,0,1-3.639,0A4.62,4.62,0,0,1,219.472,480.886Zm8.925,6.8v-4.72a2.932,2.932,0,0,1,.68-2.255,2.375,2.375,0,0,1,1.616-.594,1.933,1.933,0,0,1,1.022.265,1.4,1.4,0,0,1,.607.708,3.944,3.944,0,0,1,.171,1.338v5.258h1.465v-5.314a8.438,8.438,0,0,0-.081-1.425,2.835,2.835,0,0,0-.456-1.082,2.255,2.255,0,0,0-.981-0.736,3.6,3.6,0,0,0-1.437-.281,3.109,3.109,0,0,0-2.752,1.424v-1.229h-1.319v8.643H228.4Zm8.13-.5a4.062,4.062,0,0,0,2.569.7,4.5,4.5,0,0,0,1.824-.354,2.765,2.765,0,0,0,1.233-1,2.458,2.458,0,0,0,.428-1.379,2.151,2.151,0,0,0-.35-1.254,2.217,2.217,0,0,0-.965-0.769,17.985,17.985,0,0,0-2.17-.679c-0.717-.2-1.148-0.32-1.3-0.375a1.3,1.3,0,0,1-.562-0.39,0.811,0.811,0,0,1-.179-0.513,0.971,0.971,0,0,1,.432-0.781,2.391,2.391,0,0,1,1.441-.334,2.067,2.067,0,0,1,1.323.375,1.563,1.563,0,0,1,.566,1.041l1.433-.195a3.1,3.1,0,0,0-.5-1.339,2.432,2.432,0,0,0-1.136-.793,4.989,4.989,0,0,0-1.787-.293,4.427,4.427,0,0,0-1.266.175,3,3,0,0,0-.932.427,2.371,2.371,0,0,0-.721.818,2.228,2.228,0,0,0-.264,1.07,2.13,2.13,0,0,0,1.266,1.982,13.734,13.734,0,0,0,2.235.7,6.339,6.339,0,0,1,1.5.5,0.89,0.89,0,0,1,.431.781,1.228,1.228,0,0,1-.488.965,2.292,2.292,0,0,1-1.5.411,2.374,2.374,0,0,1-1.56-.464,2.027,2.027,0,0,1-.679-1.335l-1.45.228A3.253,3.253,0,0,0,236.527,487.185Zm18.531,0.5h1.531a3.262,3.262,0,0,1-.37-1.038,20.575,20.575,0,0,1-.094-2.584v-1.953a8.241,8.241,0,0,0-.073-1.351,2.309,2.309,0,0,0-.456-1,2.378,2.378,0,0,0-1.018-.655,5.209,5.209,0,0,0-1.8-.26,5.769,5.769,0,0,0-1.963.305,2.815,2.815,0,0,0-1.294.871,3.538,3.538,0,0,0-.643,1.485l1.433,0.2a2.215,2.215,0,0,1,.728-1.282,2.6,2.6,0,0,1,1.527-.362,2.452,2.452,0,0,1,1.669.5,1.615,1.615,0,0,1,.415,1.261c0,0.054,0,.182-0.008.383a13.425,13.425,0,0,1-2.613.5,10.524,10.524,0,0,0-1.3.22,3.538,3.538,0,0,0-1.055.48,2.4,2.4,0,0,0-.757.842,2.363,2.363,0,0,0-.289,1.16,2.3,2.3,0,0,0,.765,1.778,3.147,3.147,0,0,0,2.191.7,4.529,4.529,0,0,0,1.616-.285,5.463,5.463,0,0,0,1.567-.976,3.124,3.124,0,0,0,.293,1.066h0Zm-0.415-3.8a3.544,3.544,0,0,1-.236,1.465,2.276,2.276,0,0,1-.969,1.013,3.023,3.023,0,0,1-1.506.37,1.913,1.913,0,0,1-1.3-.39,1.294,1.294,0,0,1-.24-1.673,1.282,1.282,0,0,1,.578-0.476,5.584,5.584,0,0,1,1.278-.293,10.712,10.712,0,0,0,2.394-.553v0.537ZM259.654,491v-4.208a2.985,2.985,0,0,0,.957.782,2.759,2.759,0,0,0,1.315.309,3.622,3.622,0,0,0,3.293-2.193,5.768,5.768,0,0,0,.476-2.389,5.857,5.857,0,0,0-.431-2.274,3.5,3.5,0,0,0-1.278-1.608,3.426,3.426,0,0,0-1.955-.569,2.94,2.94,0,0,0-1.441.329,3.292,3.292,0,0,0-1.066.989v-1.123h-1.336V491h1.466Zm0.582-10.128a2.112,2.112,0,0,1,1.657-.875,2.046,2.046,0,0,1,1.624.822,3.813,3.813,0,0,1,.68,2.474,3.92,3.92,0,0,1-.7,2.56,2.121,2.121,0,0,1-1.673.826,2.073,2.073,0,0,1-1.637-.8,3.763,3.763,0,0,1-.676-2.466A3.914,3.914,0,0,1,260.236,480.874ZM268.773,491v-4.208a2.981,2.981,0,0,0,.956.782,2.765,2.765,0,0,0,1.315.309,3.622,3.622,0,0,0,3.294-2.193,5.768,5.768,0,0,0,.476-2.389,5.875,5.875,0,0,0-.431-2.274,3.5,3.5,0,0,0-1.279-1.608,3.422,3.422,0,0,0-1.954-.569,2.94,2.94,0,0,0-1.441.329,3.292,3.292,0,0,0-1.066.989v-1.123h-1.336V491h1.466Zm0.582-10.128a2.112,2.112,0,0,1,1.657-.875,2.046,2.046,0,0,1,1.624.822,3.819,3.819,0,0,1,.68,2.474,3.92,3.92,0,0,1-.7,2.56,2.121,2.121,0,0,1-1.673.826,2.073,2.073,0,0,1-1.637-.8,3.763,3.763,0,0,1-.676-2.466A3.914,3.914,0,0,1,269.355,480.874Zm8.611-5.115H276.5v9.4q0,0.577.028,1.062a1.951,1.951,0,0,0,.22.834,1.313,1.313,0,0,0,.6.549,2.788,2.788,0,0,0,1.184.2,4.2,4.2,0,0,0,.5-0.033c0.182-.022.381-0.054,0.6-0.1l-0.195-1.3q-0.178.025-.342,0.045a2.422,2.422,0,0,1-.309.02,1.209,1.209,0,0,1-.452-0.069,0.492,0.492,0,0,1-.249-0.211,0.907,0.907,0,0,1-.1-0.371c-0.014-.151-0.021-0.333-0.021-0.545v-9.481Zm3.256,15.438a2.116,2.116,0,0,0,1.205-.338,2.891,2.891,0,0,0,.9-1.062,17.4,17.4,0,0,0,.822-1.961l3.29-8.789h-1.466l-1.848,5.037a19.535,19.535,0,0,0-.6,1.97q-0.276-1.05-.627-2l-1.8-5h-1.58l3.282,8.659c-0.06.157-.1,0.277-0.131,0.358a7.2,7.2,0,0,1-.447,1.09,1.32,1.32,0,0,1-.481.456,1.6,1.6,0,0,1-.782.163,3.3,3.3,0,0,1-.838-0.13l0.163,1.375a2.943,2.943,0,0,0,.944.179h0Zm8.319-3.507v-1.669h-1.669v1.669h1.669Z"/>
</svg>
