<svg id="Frame_2" data-name="Frame 2" xmlns="http://www.w3.org/2000/svg" width="300" height="250" viewBox="0 0 300 250">
  <defs>
    <style>
      .cls-1 {
        fill: #fff;
        fill-rule: evenodd;
      }
    </style>
  </defs>
  <path id="Lahat_ng_malapit_sa_puso_mo_nasa_bagong_Optik_TV_." data-name="Lahat ng malapit  sa puso mo, nasa  bagong Optik TV®." class="cls-1" d="M49.182,105.273V86.3H46.687V107.54H59.812v-2.267H49.182Zm25.39,0.328a0.7,0.7,0,0,1-.831-0.746V96.262c0-2.6-1.514-4.476-5.761-4.476-4.484,0-6.057,2.118-6.236,5.1H64.12c0.148-2.3,1.247-3.043,3.86-3.043s3.445,0.806,3.445,2.417c0,1.373-.861,1.939-2.405,2.118l-2.2.239c-4.216.448-5.671,2.357-5.671,4.774,0,2.894,2.079,4.5,5.4,4.5a5.607,5.607,0,0,0,4.989-2.476c0.119,1.462.891,2.208,2.583,2.208a8.944,8.944,0,0,0,1.306-.09V105.6H74.572Zm-7.9.268c-2.108,0-3.058-1.014-3.058-2.536,0-1.492.772-2.447,3.563-2.775l2.227-.268a3.944,3.944,0,0,0,2.019-.657v1.82C71.424,104.5,68.96,105.869,66.673,105.869Zm17.7-14.083a5.637,5.637,0,0,0-4.691,2.477V86.3H77.306V107.54h2.376V98.828c0-3.4,2.227-4.893,4.216-4.893,2.2,0,3.5,1.044,3.5,3.431V107.54h2.375V97.127C89.777,93.726,87.788,91.786,84.373,91.786ZM105.589,105.6a0.7,0.7,0,0,1-.832-0.746V96.262c0-2.6-1.514-4.476-5.76-4.476-4.484,0-6.058,2.118-6.236,5.1h2.376c0.148-2.3,1.247-3.043,3.86-3.043s3.444,0.806,3.444,2.417c0,1.373-.861,1.939-2.405,2.118l-2.2.239c-4.216.448-5.671,2.357-5.671,4.774,0,2.894,2.079,4.5,5.4,4.5a5.607,5.607,0,0,0,4.989-2.476c0.119,1.462.891,2.208,2.583,2.208a8.945,8.945,0,0,0,1.307-.09V105.6h-0.861Zm-7.9.268c-2.108,0-3.058-1.014-3.058-2.536,0-1.492.772-2.447,3.563-2.775l2.227-.268a3.943,3.943,0,0,0,2.019-.657v1.82C102.441,104.5,99.977,105.869,97.69,105.869Zm16.892-11.636V92.144h-3.147V87.788h-2.376v4.356h-2.524v2.089h2.524v10.2c0,2.357,1.455,3.193,3.831,3.193q0.712,0,1.692-.09v-2h-1.395c-1.366,0-1.752-.507-1.752-1.313v-10h3.147Zm15.529-2.447a5.637,5.637,0,0,0-4.81,2.655v-2.3h-2.257v15.4h2.375V98.828c0-3.4,2.227-4.893,4.217-4.893,2.2,0,3.5,1.044,3.5,3.431V107.54h2.375V97.127C135.515,93.726,133.526,91.786,130.111,91.786Zm20.3,0.358v2.238a6.175,6.175,0,0,0-5.256-2.6c-4.306,0-7.126,3.133-7.126,8.056s2.82,8.056,7.126,8.056a6.182,6.182,0,0,0,5.137-2.446v1.491c0,3.193-1.693,4.774-4.751,4.774-2.405,0-3.86-.984-4.157-2.924h-2.376c0.327,2.984,2.614,4.953,6.533,4.953,4.84,0,7.126-2.8,7.126-6.8v-14.8h-2.256ZM145.45,105.75c-2.969,0-4.929-2.3-4.929-5.908s1.96-5.908,4.929-5.908,4.929,2.178,4.929,5.908S148.419,105.75,145.45,105.75Zm32.84-13.964a5.288,5.288,0,0,0-4.721,2.894,4.8,4.8,0,0,0-4.722-2.894,4.92,4.92,0,0,0-4.424,2.626V92.144h-2.257v15.4h2.376V99.126c0-3.7,2.049-5.192,3.919-5.192,1.99,0,3.207,1.014,3.207,3.4v10.2h2.376V99.126c0-3.7,1.989-5.192,3.919-5.192,2.019,0,3.207,1.014,3.207,3.4v10.2h2.376V97.1C183.546,94.113,181.853,91.786,178.29,91.786Zm21.1,13.815a0.7,0.7,0,0,1-.831-0.746V96.262c0-2.6-1.514-4.476-5.761-4.476-4.483,0-6.057,2.118-6.235,5.1h2.375c0.149-2.3,1.247-3.043,3.86-3.043s3.445,0.806,3.445,2.417c0,1.373-.861,1.939-2.405,2.118l-2.2.239c-4.216.448-5.671,2.357-5.671,4.774,0,2.894,2.079,4.5,5.4,4.5a5.607,5.607,0,0,0,4.989-2.476c0.118,1.462.891,2.208,2.583,2.208a8.955,8.955,0,0,0,1.307-.09V105.6h-0.862Zm-7.9.268c-2.108,0-3.058-1.014-3.058-2.536,0-1.492.772-2.447,3.563-2.775l2.227-.268a3.943,3.943,0,0,0,2.019-.657v1.82C196.242,104.5,193.777,105.869,191.491,105.869Zm13.923,1.761a14.944,14.944,0,0,0,1.514-.09v-2H205.8a1.192,1.192,0,0,1-1.455-1.313V86.3h-2.376v18.141C201.969,106.794,203.276,107.63,205.414,107.63Zm16.058-2.029a0.7,0.7,0,0,1-.832-0.746V96.262c0-2.6-1.514-4.476-5.76-4.476-4.484,0-6.058,2.118-6.236,5.1h2.376c0.148-2.3,1.247-3.043,3.86-3.043s3.444,0.806,3.444,2.417c0,1.373-.861,1.939-2.405,2.118l-2.2.239c-4.217.448-5.672,2.357-5.672,4.774,0,2.894,2.079,4.5,5.405,4.5a5.607,5.607,0,0,0,4.988-2.476c0.119,1.462.891,2.208,2.583,2.208a8.945,8.945,0,0,0,1.307-.09V105.6h-0.861Zm-7.9.268c-2.108,0-3.058-1.014-3.058-2.536,0-1.492.772-2.447,3.563-2.775l2.227-.268a3.943,3.943,0,0,0,2.019-.657v1.82C218.324,104.5,215.86,105.869,213.573,105.869Zm18.146-14.083a6.015,6.015,0,0,0-5.256,2.745V92.144h-2.257v21.244h2.376v-8.056a6.009,6.009,0,0,0,5.137,2.566c4.305,0,7.126-3.133,7.126-8.056S236.024,91.786,231.719,91.786Zm-0.3,13.964c-2.97,0-4.929-2.178-4.929-5.908s1.959-5.908,4.929-5.908,4.929,2.059,4.929,5.788S234.391,105.75,231.422,105.75Zm11.1-15.784a1.611,1.611,0,1,0-1.6-1.611A1.62,1.62,0,0,0,242.527,89.966Zm-1.188,17.574h2.375v-15.4h-2.375v15.4ZM253.5,94.233V92.144h-3.148V87.788h-2.375v4.356h-2.524v2.089h2.524v10.2c0,2.357,1.455,3.193,3.83,3.193q0.714,0,1.693-.09v-2h-1.4c-1.365,0-1.752-.507-1.752-1.313v-10H253.5ZM47.7,141.907c3.771,0,6.087-1.671,6.087-4.595,0-2.507-1.514-3.79-5.285-4.536l-1.366-.268c-1.96-.388-3.088-0.925-3.088-2.387,0-1.432,1.158-2.268,3.207-2.268,2.346,0,3.741.657,3.86,3.044h2.376c-0.059-3.283-2.138-5.1-6.236-5.1-3.5,0-5.582,1.731-5.582,4.357,0,2.387,1.455,3.908,4.781,4.535l1.425,0.268c2.672,0.508,3.5,1.134,3.5,2.507,0,1.521-1.1,2.387-3.682,2.387-2.7,0-3.831-.866-4.1-3.193H41.2C41.436,140.265,43.812,141.907,47.7,141.907Zm21.046-2.3a0.7,0.7,0,0,1-.831-0.746V130.27c0-2.6-1.514-4.476-5.761-4.476-4.484,0-6.057,2.119-6.236,5.1H58.3c0.148-2.3,1.247-3.044,3.86-3.044s3.444,0.806,3.444,2.417c0,1.372-.861,1.939-2.405,2.118l-2.2.239c-4.216.448-5.671,2.357-5.671,4.774,0,2.894,2.078,4.506,5.4,4.506a5.608,5.608,0,0,0,4.988-2.477c0.119,1.462.891,2.208,2.583,2.208a8.944,8.944,0,0,0,1.306-.09v-1.939H68.748Zm-7.9.269c-2.108,0-3.059-1.015-3.059-2.537,0-1.491.772-2.446,3.563-2.774l2.227-.269a3.945,3.945,0,0,0,2.019-.656v1.82C65.6,138.505,63.136,139.878,60.849,139.878Zm24.288-14.084a6.015,6.015,0,0,0-5.256,2.745v-2.387H77.625V147.4H80V139.34a6.008,6.008,0,0,0,5.137,2.567c4.306,0,7.126-3.133,7.126-8.057S89.443,125.794,85.138,125.794Zm-0.3,13.964c-2.969,0-4.929-2.178-4.929-5.908s1.96-5.907,4.929-5.907S89.77,130,89.77,133.731,87.81,139.758,84.841,139.758Zm19.977-13.606v8.713c0,3.4-2.227,4.893-4.217,4.893-2.2,0-3.5-1.044-3.5-3.431V126.152H94.722v10.414c0,3.4,1.99,5.341,5.4,5.341a5.64,5.64,0,0,0,4.811-2.656v2.3h2.256v-15.4h-2.375Zm11.176,15.755c3.771,0,6.087-1.671,6.087-4.595,0-2.507-1.514-3.79-5.285-4.536l-1.366-.268c-1.96-.388-3.088-0.925-3.088-2.387,0-1.432,1.158-2.268,3.207-2.268,2.345,0,3.741.657,3.86,3.044h2.375c-0.059-3.283-2.138-5.1-6.235-5.1-3.5,0-5.583,1.731-5.583,4.357,0,2.387,1.455,3.908,4.781,4.535l1.425,0.268c2.673,0.508,3.5,1.134,3.5,2.507,0,1.521-1.1,2.387-3.682,2.387-2.7,0-3.831-.866-4.1-3.193h-2.405C109.729,140.265,112.1,141.907,115.994,141.907Zm14.965,0c4.306,0,7.423-3.133,7.423-8.057s-3.117-8.056-7.423-8.056-7.423,3.133-7.423,8.056S126.653,141.907,130.959,141.907Zm0-2.149c-2.969,0-4.929-2.178-4.929-5.908s1.96-5.907,4.929-5.907,4.929,2.178,4.929,5.907S133.928,139.758,130.959,139.758Zm32.305-13.964a5.29,5.29,0,0,0-4.721,2.895,4.8,4.8,0,0,0-4.721-2.895,4.921,4.921,0,0,0-4.425,2.626v-2.268h-2.256v15.4h2.375v-8.414c0-3.7,2.049-5.191,3.92-5.191,1.989,0,3.207,1.014,3.207,3.4v10.2h2.375v-8.414c0-3.7,1.99-5.191,3.92-5.191,2.019,0,3.207,1.014,3.207,3.4v10.2h2.375V131.1C168.52,128.122,166.828,125.794,163.264,125.794Zm15.17,16.113c4.306,0,7.423-3.133,7.423-8.057s-3.117-8.056-7.423-8.056-7.423,3.133-7.423,8.056S174.129,141.907,178.434,141.907Zm0-2.149c-2.969,0-4.929-2.178-4.929-5.908s1.96-5.907,4.929-5.907,4.929,2.178,4.929,5.907S181.4,139.758,178.434,139.758Zm10.455-1.193a1.6,1.6,0,0,0-1.663,1.611,1.549,1.549,0,0,0,1.663,1.551h0.178c-0.119,1.492-.713,2.059-1.633,2.328l-0.208.059V145.7l0.3-.06c1.93-.388,3.325-1.7,3.325-4.535C190.848,139.46,190.106,138.565,188.889,138.565Zm17.934-12.771a5.64,5.64,0,0,0-4.811,2.656v-2.3h-2.256v15.4h2.375v-8.712c0-3.4,2.227-4.893,4.216-4.893,2.2,0,3.5,1.044,3.5,3.431v10.174h2.376V131.135C212.227,127.734,210.237,125.794,206.823,125.794Zm21.215,13.815a0.7,0.7,0,0,1-.831-0.746V130.27c0-2.6-1.515-4.476-5.761-4.476-4.484,0-6.057,2.119-6.236,5.1h2.376c0.148-2.3,1.247-3.044,3.86-3.044s3.445,0.806,3.445,2.417c0,1.372-.862,1.939-2.406,2.118l-2.2.239c-4.216.448-5.671,2.357-5.671,4.774,0,2.894,2.078,4.506,5.4,4.506a5.607,5.607,0,0,0,4.988-2.477c0.119,1.462.891,2.208,2.584,2.208a8.941,8.941,0,0,0,1.306-.09v-1.939h-0.861Zm-7.9.269c-2.109,0-3.059-1.015-3.059-2.537,0-1.491.772-2.446,3.563-2.774l2.227-.269a3.951,3.951,0,0,0,2.02-.656v1.82C224.891,138.505,222.426,139.878,220.14,139.878Zm16.14,2.029c3.772,0,6.088-1.671,6.088-4.595,0-2.507-1.515-3.79-5.286-4.536l-1.366-.268c-1.959-.388-3.088-0.925-3.088-2.387,0-1.432,1.158-2.268,3.207-2.268,2.346,0,3.741.657,3.86,3.044h2.376c-0.06-3.283-2.138-5.1-6.236-5.1-3.5,0-5.582,1.731-5.582,4.357,0,2.387,1.455,3.908,4.78,4.535l1.426,0.268c2.672,0.508,3.5,1.134,3.5,2.507,0,1.521-1.1,2.387-3.682,2.387-2.7,0-3.83-.866-4.1-3.193h-2.405C230.015,140.265,232.391,141.907,236.28,141.907Zm21.047-2.3a0.7,0.7,0,0,1-.832-0.746V130.27c0-2.6-1.514-4.476-5.76-4.476-4.484,0-6.058,2.119-6.236,5.1h2.376c0.148-2.3,1.247-3.044,3.86-3.044s3.444,0.806,3.444,2.417c0,1.372-.861,1.939-2.405,2.118l-2.2.239c-4.217.448-5.672,2.357-5.672,4.774,0,2.894,2.079,4.506,5.4,4.506a5.608,5.608,0,0,0,4.989-2.477c0.119,1.462.891,2.208,2.583,2.208a8.945,8.945,0,0,0,1.307-.09v-1.939h-0.861Zm-7.9.269c-2.108,0-3.058-1.015-3.058-2.537,0-1.491.772-2.446,3.563-2.774l2.227-.269a3.944,3.944,0,0,0,2.019-.656v1.82C254.179,138.505,251.715,139.878,249.428,139.878ZM42.985,159.8a5.471,5.471,0,0,0-4.751,2.357v-7.847H34.492v21.244h3.593v-2.208a5.518,5.518,0,0,0,4.9,2.566c4.216,0,6.859-3.163,6.859-8.056S47.2,159.8,42.985,159.8Zm-0.891,13.009c-2.435,0-3.949-1.7-3.949-4.953s1.514-4.953,3.949-4.953,3.949,1.581,3.949,4.833S44.529,172.812,42.094,172.812Zm23.585,2.745a5.853,5.853,0,0,1-.624-2.924v-8.206c0-2.774-1.811-4.624-6.384-4.624-4.781,0-6.681,2-6.889,5.251h3.682c0.148-1.88,1.039-2.447,3.177-2.447,2.168,0,2.791.716,2.791,1.91,0,1.134-.742,1.581-2.168,1.76l-2.316.209c-4.335.418-5.879,2.238-5.879,4.8,0,2.984,2.257,4.625,5.523,4.625a5.683,5.683,0,0,0,4.929-2.238,5.036,5.036,0,0,0,.416,1.88h3.741Zm-8.2-2.328c-1.722,0-2.583-.805-2.583-2.088,0-1.224.683-1.969,2.761-2.208l2.019-.239a2.967,2.967,0,0,0,1.752-.626v1.4C61.433,172.155,59.473,173.229,57.483,173.229Zm21.224-13.068v2.118a5.442,5.442,0,0,0-4.84-2.476c-4.187,0-6.889,3.133-6.889,7.847,0,4.684,2.761,7.847,6.919,7.847a5.424,5.424,0,0,0,4.692-2.3v1.939c0,2.417-1.306,3.73-3.771,3.73-2.049,0-3.237-.836-3.415-2.477H67.721c0.238,3.193,2.613,5.371,7.037,5.371,4.989,0,7.572-2.656,7.572-6.714V160.161H78.707Zm-3.979,12.233c-2.405,0-3.92-1.731-3.92-4.714s1.514-4.774,3.92-4.774c2.435,0,3.949,1.671,3.949,4.744C78.678,170.693,77.163,172.394,74.729,172.394Zm17.519,3.521c4.662,0,7.78-3.163,7.78-8.056s-3.118-8.056-7.78-8.056-7.809,3.162-7.809,8.056S87.585,175.915,92.247,175.915Zm0-3.1c-2.435,0-3.979-1.7-3.979-4.953s1.544-4.953,3.979-4.953c2.405,0,3.979,1.7,3.979,4.953S94.652,172.812,92.247,172.812ZM110.538,159.8a5.641,5.641,0,0,0-4.781,2.566v-2.208h-3.623v15.4h3.742v-8.623c0-2.745,1.781-3.879,3.414-3.879,1.9,0,2.881.955,2.881,2.924v9.578h3.741v-10.2C115.912,161.682,113.744,159.8,110.538,159.8Zm19.157,0.358v2.118a5.441,5.441,0,0,0-4.84-2.476c-4.187,0-6.889,3.133-6.889,7.847,0,4.684,2.762,7.847,6.919,7.847a5.422,5.422,0,0,0,4.691-2.3v1.939c0,2.417-1.306,3.73-3.771,3.73-2.048,0-3.236-.836-3.414-2.477h-3.682c0.237,3.193,2.613,5.371,7.037,5.371,4.989,0,7.572-2.656,7.572-6.714V160.161H129.7Zm-3.979,12.233c-2.4,0-3.919-1.731-3.919-4.714s1.514-4.774,3.919-4.774c2.435,0,3.95,1.671,3.95,4.744C129.666,170.693,128.151,172.394,125.716,172.394Zm26.456,3.64c6.325,0,10.541-4.416,10.541-11.1s-4.216-11.1-10.541-11.1c-6.354,0-10.571,4.416-10.571,11.1S145.818,176.034,152.172,176.034Zm0-3.551c-3.86,0-6.384-2.864-6.384-7.548s2.524-7.549,6.384-7.549,6.384,2.864,6.384,7.549S156.032,172.483,152.172,172.483Zm21.343-12.68a5.515,5.515,0,0,0-4.9,2.566v-2.208h-3.593v21.244h3.741v-7.847a5.473,5.473,0,0,0,4.751,2.357c4.216,0,6.859-3.163,6.859-8.056S177.731,159.8,173.515,159.8Zm-0.891,13.009c-2.435,0-3.949-1.7-3.949-4.953s1.514-4.953,3.949-4.953,3.949,1.581,3.949,4.833S175.059,172.812,172.624,172.812Zm17.513-9.787v-2.864h-3.029v-4.476H183.4v4.476h-2.375v2.864H183.4v8.713c0,2.834,1.544,3.938,4.781,3.938,0.594,0,1.277-.06,1.96-0.119v-2.865H188.86c-1.247,0-1.752-.328-1.752-1.342v-8.325h3.029Zm3.556-4.714a2.074,2.074,0,1,0-2.078-2.059A2.058,2.058,0,0,0,193.693,158.311Zm-1.87,17.246h3.741v-15.4h-3.741v15.4Zm17.008,0h4.276l-6.147-9.578,5.79-5.818H208.3l-6.235,6.385V154.313h-3.682v21.244h3.682v-4.834l2.316-2.327Zm29.128-21.244H220.38v3.61h6.77v17.634h4.039V157.923h6.77v-3.61Zm16.761,0-3.741,10.98c-0.683,2.088-1.4,4.356-1.99,6.624-0.623-2.268-1.336-4.536-2.019-6.624l-3.83-10.98h-4.276l7.75,21.244h4.692l7.571-21.244H254.72Zm7.971-.334a3.077,3.077,0,1,0,3.154,3.082A3.085,3.085,0,0,0,262.691,153.979Zm0,5.48a2.411,2.411,0,1,1,2.449-2.4A2.377,2.377,0,0,1,262.691,159.459Zm1.274-1.715a0.668,0.668,0,0,0-.371-0.658,0.77,0.77,0,0,0,.445-0.734,0.959,0.959,0,0,0-1.138-.919h-1.434v3.181h0.717v-1.18h0.668c0.284,0,.371.1,0.4,0.41l0.024,0.335a0.869,0.869,0,0,0,.112.435h0.754a0.733,0.733,0,0,1-.136-0.435Zm-1.781-.907v-0.783h0.656a0.395,0.395,0,1,1,.024.783h-0.68Zm0.81,18.929a1.71,1.71,0,0,0,1.692-1.761,1.738,1.738,0,0,0-3.474,0A1.713,1.713,0,0,0,262.994,175.766Z"/>
</svg>
