<svg id="TC" xmlns="http://www.w3.org/2000/svg" width="728" height="90" viewBox="0 0 728 90">
  <defs>
    <style>
      .cls-1 {
        fill: #fff;
        fill-rule: evenodd;
      }
    </style>
  </defs>
  <path id="立即登記_" data-name="立即登記 " class="cls-1" d="M637.846,64.626v0.912h8.938V64.614l-4.259-.013,0.654-.475a4.731,4.731,0,0,0-2.086-1.838l-0.79.65a3.5,3.5,0,0,1,.66.319,3.656,3.656,0,0,1,.716.575,5.254,5.254,0,0,1,.636.781Zm3.889,6.337a10.038,10.038,0,0,0-.642-2.844,7.2,7.2,0,0,0-1.383-2.394l-0.864.425a5.4,5.4,0,0,1,.907,1.344,10.392,10.392,0,0,1,.667,1.788,11.714,11.714,0,0,1,.377,1.969Zm5.641,0.763h-4.111a11.662,11.662,0,0,0,1.044-1.869,12.331,12.331,0,0,0,.709-2q0.247-.969.358-1.706l-0.938-.4a13.878,13.878,0,0,1-.79,3.231,11.282,11.282,0,0,1-1.481,2.744h-4.876v0.925h10.085V71.726Zm4.525-1.987q0.543,0.588.777,0.9l-2.2,1.038,0.025-2.85,3.5-.012V63.026H649.53v8.587a0.784,0.784,0,0,1-.092.419,0.92,0.92,0,0,1-.364.281l0.827,0.712q1.568-.862,3.308-1.625a8.518,8.518,0,0,1,.753,1.475q0.123-.038.839-0.363a7.862,7.862,0,0,0-.87-1.669,10.022,10.022,0,0,0-1.216-1.544Zm-1.408-5.788h2.568v1.462l-2.555.013Zm2.568,2.387v1.55h-2.58l0.025-1.55h2.555Zm3.74,5.225h0.58a3.271,3.271,0,0,0,.778-0.075,1.227,1.227,0,0,0,.543-0.425,0.887,0.887,0,0,0,.161-0.475V63.126l-3.975.013V73.714h0.95l0.013-9.65H657.9l0.012,6.063a0.457,0.457,0,0,1-.21.475,2.726,2.726,0,0,1-.654.044l-0.494-.006Zm13.071-7.575a7.052,7.052,0,0,1-1.395,1.513,0.214,0.214,0,0,1-.087-0.075q-0.049-.062-0.37-0.487a4.864,4.864,0,0,0,.71-0.681,10.167,10.167,0,0,0,.685-0.881q-0.531-.437-0.716-0.562a6,6,0,0,1-1.111,1.313,11.824,11.824,0,0,1-.765-1.788l-0.79.387a11.085,11.085,0,0,0,.685,1.7,6.59,6.59,0,0,0,.808,1.375h-2.975a4.661,4.661,0,0,0,1.074-2.712l-4.357-.013,0.012,0.913h3.209a3.9,3.9,0,0,1-.444.925,4.51,4.51,0,0,1-.642.8,5.844,5.844,0,0,0-.7-0.731,3.892,3.892,0,0,0-.648-0.481l-0.63.637a7.064,7.064,0,0,1,1,.8,3.121,3.121,0,0,1,.3.375,9.377,9.377,0,0,1-2.333,1.412l0.654,0.75a9.771,9.771,0,0,0,3.062-2.162l0.012,0.4h3.741l0.024-.537a6.749,6.749,0,0,0,1.29,1.319,11.76,11.76,0,0,0,1.735,1.094l0.592-.775a8.257,8.257,0,0,1-2.407-1.638,6.541,6.541,0,0,0,1.481-1.65Zm-0.84,6.6V67.626h-6.11l-0.013,2.962,1.272,0.025-0.741.362a5.5,5.5,0,0,1,1.012,1.088h-3.518v0.9H671l-0.012-.912-3.346.013a4.957,4.957,0,0,0,.655-0.975l-0.8-.462a4.555,4.555,0,0,1-1.074,1.438h-1.037a5.558,5.558,0,0,0-1.024-1.475h4.678Zm-0.963-2.062,0.013,1.163h-4.21v-1.15Zm8.677,4.963V69.251h-3.58l-0.012,4.262,0.926-.012v-0.95h1.728v0.938h0.938Zm-0.925-1.838h-1.729l-0.012-1.5h1.728Zm-0.692-7.437,0.408-.2a3.9,3.9,0,0,0-.593-0.937,5.79,5.79,0,0,0-.79-0.775l-0.765.512a5.083,5.083,0,0,1,1.2,1.425h-2.2v0.9l4.95,0.013,0.012-.912Zm2.457,2.825v4.7a1.913,1.913,0,0,0,.136.7,1.092,1.092,0,0,0,.376.519,0.9,0.9,0,0,0,.525.169h3.3a1.052,1.052,0,0,0,.592-0.2,1.513,1.513,0,0,0,.457-0.463,1.706,1.706,0,0,0,.21-0.462q0.012-.087.093-0.4t0.111-.519c0.02-.138.035-0.26,0.043-0.369l-0.951-.362a6.384,6.384,0,0,1-.2,1.487,0.57,0.57,0,0,1-.173.256,0.392,0.392,0,0,1-.259.106h-2.864a0.341,0.341,0,0,1-.3-0.162,0.584,0.584,0,0,1-.112-0.338l-0.012-3.737h2.926v0.675h1l-0.013-5.45-5.147.013v0.925h4.16v2.912h-3.9Zm-0.7-1.25h-3.975l0.013,0.9h3.95Zm0.013,1.662h-3.951l-0.012.913H676.9V67.451Z"/>
</svg>
