<svg id="Frame_1" data-name="Frame 1" xmlns="http://www.w3.org/2000/svg" width="728" height="90" viewBox="0 0 728 90">
  <defs>
    <style>
      .cls-1 {
        fill: #4b286d;
        fill-rule: evenodd;
      }
    </style>
  </defs>
  <path id="家裏忘記關燈_" data-name="家裏忘記關燈?" class="cls-1" d="M345.8,36.413h-8.45a9.285,9.285,0,0,0-1.513-1.95,8.6,8.6,0,0,0-1.662-1.325L332.6,34.313a18.408,18.408,0,0,1,1.962,1.575,3.653,3.653,0,0,1,.413.525h-9.025v4.65h1.925l-0.025-2.875h16.025v2.775H345.8v-4.55ZM347,52.488a6.957,6.957,0,0,1-2.163-1.35,11.739,11.739,0,0,1-1.912-2.225,9.825,9.825,0,0,1-1.275-2.6,18.291,18.291,0,0,0,2.775-2.5l-1.45-1.275a10.845,10.845,0,0,1-4.625,3.6,6.6,6.6,0,0,0-1.013-1.587A5.885,5.885,0,0,0,336,43.338a17.954,17.954,0,0,0,2.4-1.6H343V39.963H328.9l-0.025,1.8,6.3,0.025a25.82,25.82,0,0,1-9.1,2.825l1.3,1.65a21.814,21.814,0,0,0,6.775-1.975,7.565,7.565,0,0,1,1.25.85,16.5,16.5,0,0,1-2.325,1.375,17.64,17.64,0,0,1-3.313,1.212,35.9,35.9,0,0,1-4.162.838l1.325,1.625a18.848,18.848,0,0,0,5.062-1.225,23.23,23.23,0,0,0,4.438-2.4,10.331,10.331,0,0,1,.675,1.45,16.527,16.527,0,0,1-5.25,3.038,34.5,34.5,0,0,1-6.75,1.638l1.375,1.725A40.3,40.3,0,0,0,330.64,53.4a25.84,25.84,0,0,0,3.8-1.462,13.829,13.829,0,0,0,3.063-1.975,20.919,20.919,0,0,1-.1,3.35,1.1,1.1,0,0,1-.275.475,1.373,1.373,0,0,1-.45.35,8.371,8.371,0,0,1-1.825-.163,20.892,20.892,0,0,1-2.375-.637l0.775,2.225a9.724,9.724,0,0,0,4.375.175,2.155,2.155,0,0,0,1.112-.862,4.834,4.834,0,0,0,.588-2.163,14.412,14.412,0,0,0-.013-2.462,18.665,18.665,0,0,0-.362-2.463l1.2-.5a14.887,14.887,0,0,0,1.025,2.238,12.228,12.228,0,0,0,1.912,2.563,7.784,7.784,0,0,0,2.663,1.875Zm23.332-15.825V34.938H361.41a8.079,8.079,0,0,0-2.3-1.975l-1.8,1.275a8.531,8.531,0,0,1,1.65.7l-8.625.025v1.7h20Zm1.375,17.425a19.1,19.1,0,0,1-2.887-.6,16.025,16.025,0,0,1-2.238-.775,9.89,9.89,0,0,0,2.625-1.8l-1.325-1.225a13.306,13.306,0,0,1-2.975,2.125,9.171,9.171,0,0,1-2.475-2.2h7.95V47.888l-9.025-.025V46.888h7.2l0.025-1.725H361.36v-0.85h6.7l0.025-6.975-15.525-.025v7h6.75v0.825l-7.35.025v1.725h7.35l-0.025.975-9.1.025v1.725l5.975,0.05a22.005,22.005,0,0,1-2.937,1.538,39.88,39.88,0,0,1-3.788,1.488l1.125,1.5a27.19,27.19,0,0,0,4.8-1.925v1.275a0.733,0.733,0,0,1-.275.513,1.713,1.713,0,0,1-.8.388l1.25,1.5,6.4-1.6,0.025-1.825-4.65,1.175-0.025-2.6q1.275-1.025,1.463-1.225c0.125-.133.212-0.225,0.262-0.275l1.325,0.025a8.217,8.217,0,0,0,2.188,2.788,14.157,14.157,0,0,0,3.537,2.137,19.032,19.032,0,0,0,4.55,1.3Zm-5.55-15.025-0.025.95-4.8-.025v-0.95Zm0,2.6-0.025.95-4.775.025-0.025-.975h4.825Zm-6.85-1.65-4.825-.025v-0.95l4.8,0.025Zm0,2.6h-4.85v-0.95l4.85,0.025v0.925Zm33.8,0.725H380.033a0.642,0.642,0,0,1-.675-0.675l-0.025-4.225,15.575,0.025v-1.8h-8.725l0.75-.5a10.23,10.23,0,0,0-3.875-3.075l-1.425,1.125a13.247,13.247,0,0,1,1.875,1.212,7.573,7.573,0,0,1,1.3,1.237h-10.2l0.025,1.8h2.675v4.45a2.108,2.108,0,0,0,2.25,2.25h13.525Zm-5.35,6.175a13.354,13.354,0,0,0-.813-1.325,9.047,9.047,0,0,0-1.3-1.488,6.985,6.985,0,0,0-1.637-1.163l-1.5,1.025a9.43,9.43,0,0,1,3.55,3.9Zm-7.6-2.3v5.35a2.232,2.232,0,0,0,.337,1.212,1.791,1.791,0,0,0,.9.75,3.139,3.139,0,0,0,1.113.212h5.575a2.432,2.432,0,0,0,2.325-1.725,10.672,10.672,0,0,0,.625-2.25l-1.7-.8a10.012,10.012,0,0,1-.575,2.225,1.153,1.153,0,0,1-1.05.725h-5a0.6,0.6,0,0,1-.438-0.187,0.628,0.628,0,0,1-.187-0.462v-5.05h-1.925Zm16,5.4a14.652,14.652,0,0,0-4.475-5l-1.425,1.075a12.8,12.8,0,0,1,2.4,2.237,14.236,14.236,0,0,1,1.85,2.788Zm-21.125,1.475a13.047,13.047,0,0,0,3.95-5.525l-1.525-.9a12.251,12.251,0,0,1-3.825,5.025Zm31.562,1.55V47.163h-7.25l-0.025,8.525,1.875-.025v-1.9h3.5v1.875h1.9Zm-1.875-3.675h-3.5l-0.025-3h3.5Zm-1.4-14.875,0.825-.4a7.791,7.791,0,0,0-1.2-1.875,11.65,11.65,0,0,0-1.6-1.55l-1.55,1.025a10.21,10.21,0,0,1,2.425,2.85h-4.45v1.8L407.8,38.963l0.025-1.825Zm4.975,5.65v9.4a3.81,3.81,0,0,0,.275,1.4,2.192,2.192,0,0,0,.763,1.038,1.828,1.828,0,0,0,1.062.337h6.675a2.153,2.153,0,0,0,1.2-.4,3.045,3.045,0,0,0,.925-0.925,3.355,3.355,0,0,0,.425-0.925c0.017-.116.079-0.383,0.188-0.8s0.183-.763.225-1.038,0.071-.521.087-0.737l-1.925-.725a12.668,12.668,0,0,1-.4,2.975,1.124,1.124,0,0,1-.35.512,0.8,0.8,0,0,1-.525.213h-5.8a0.7,0.7,0,0,1-.6-0.325,1.169,1.169,0,0,1-.225-0.675l-0.025-7.475H416.2v1.35h2.025l-0.025-10.9-10.425.025v1.85H416.2v5.825h-7.9Zm-1.425-2.5h-8.05l0.025,1.8h8Zm0.025,3.325h-8l-0.025,1.825H406.9V43.563Zm34.26,4.875a10.2,10.2,0,0,0-1.525-3l-1.55.575,0.6,0.75-2.25.2a17.094,17.094,0,0,0,3.85-3.9l-1.45-.975a11.2,11.2,0,0,1-1.375,1.8l-1.675.125a10.367,10.367,0,0,0,2.2-2.075l-0.975-.575h4.15v7.075Zm-4.85-7.1a10.792,10.792,0,0,1-1.8,1.862,18.1,18.1,0,0,1-1.825,1.337l0.475,1.5,2.5-.375q-1,.775-2.3,1.625l0.6,1.575q2.5-.275,5.375-0.475a4.934,4.934,0,0,1,.275.925l1.55-.475v4.225a0.52,0.52,0,0,1-.5.6q-1.125.075-2.675,0.075l0.575,1.7q0.075,0,1.238-.025a10.786,10.786,0,0,0,1.887-.175,1.536,1.536,0,0,0,.95-0.663,2.069,2.069,0,0,0,.375-1.212V34.488H433.78v6.875Zm-0.65-5.1h5.475v0.825h-5.5Zm0.025,2.55h5.45l-0.025.85-5.45-.025Zm-4.775,10.225-0.125,1.625h-2.65V49.463h-1.825l-0.025,2.9h4.075a3.667,3.667,0,0,1-1.587.862,11.658,11.658,0,0,1-3.413.288l0.675,1.775a10.771,10.771,0,0,0,4.45-.925,3.191,3.191,0,0,0,1.675-1.85,12.417,12.417,0,0,0,.5-3.5l1.05-.275a11.342,11.342,0,0,0-1.675-3.05l-1.525.65,0.6,0.65q-1.05.15-2,.2a16.471,16.471,0,0,0,2.288-1.763,25.711,25.711,0,0,0,2.137-2.138l-1.475-.95q-0.649.8-1.35,1.55l-1.825.175a10.947,10.947,0,0,0,2-2.025l-0.8-.6h2.175V34.563h-9.2l-0.025,21.45h1.9l-0.025-14.575h4.275a13.631,13.631,0,0,1-3.825,3.025l0.65,1.625q1.551-.275,2.525-0.35a18.357,18.357,0,0,1-2.925,1.825l0.725,1.625q2.976-.375,5.575-0.575l0.2,0.4h-1.2Zm-0.475-12.7v0.825h-5.525l0.025-.825h5.5Zm-0.025,2.55,0.025,0.85h-5.525l0.025-.85h5.475Zm4.95,16.6V52.388l4.35-.025V49.438l-1.85-.025v1.225H435.38l-0.025-1.575h-1.85v6.4h1.85Zm17.915-2.4-0.025,1.775h14.6V53.063l-5.025-.025a9.994,9.994,0,0,0,1.5-3l-1.5-.525H465l-0.025-5.55H456.1v5.55l1.975,0.05-1.65.625a5.43,5.43,0,0,1,1.325,1.25,6.523,6.523,0,0,1,.95,1.625H453.27Zm4.7-7.275H463.1v1.9H457.97v-1.9Zm1.15,7.225,1.275-.6a6.47,6.47,0,0,0-2.15-2.9h4.35a10.458,10.458,0,0,1-1.9,3.55Zm-9.55-19.15,0.05,7.8-0.125,5.45a11.087,11.087,0,0,1-3.65,8.05l1.525,1.225a13.675,13.675,0,0,0,3.675-6.625,5.728,5.728,0,0,1,1.613,1.2,6.541,6.541,0,0,1,1.287,1.85,16.125,16.125,0,0,0,1.625-1.125,14.4,14.4,0,0,0-2.012-2.338,9.128,9.128,0,0,0-2.263-1.587q0.15-1.075.175-4.975a10.724,10.724,0,0,0,3.3-2.825l-0.487-.488a6.938,6.938,0,0,0-.588-0.537q-0.225-.175-0.3-0.225a12.757,12.757,0,0,1-.987,1.25,4.734,4.734,0,0,1-.938.85q-0.1-3.725-.025-6.95H449.57ZM468.9,43.538a8.885,8.885,0,0,1-2.075-1.387A17.923,17.923,0,0,1,465,40.388a8.524,8.524,0,0,0,2.6-2.45q-0.05-.05-0.5-0.45a5.844,5.844,0,0,0-.775-0.6,7.929,7.929,0,0,1-2.2,2.2,3.084,3.084,0,0,1-.6-1.025,11.678,11.678,0,0,0,2.7-2.725q-0.174-.125-0.6-0.5a5.961,5.961,0,0,0-.7-0.55,8.459,8.459,0,0,1-2.125,2.25,23.428,23.428,0,0,1-1.025-3.2,5.278,5.278,0,0,0-.887.3c-0.359.15-.6,0.25-0.738,0.3a19.844,19.844,0,0,0,2.775,6.6h-4.7a7.024,7.024,0,0,0,.9-1.725,10.811,10.811,0,0,0,.625-2.25,12.079,12.079,0,0,0,.175-1.85h-6.75v1.85h4.675a9.76,9.76,0,0,1-.425,1.337q-0.324.862-.55,1.313a4.91,4.91,0,0,0-.812-1.062,17.122,17.122,0,0,0-1.288-1.138l-1.4,1.175a6.4,6.4,0,0,1,2.525,2.45A8.455,8.455,0,0,1,454.52,42a16.585,16.585,0,0,1-2.625,1.637l1.525,1.45a16.786,16.786,0,0,0,3.7-3.125l0.025,0.4h6.7l0.05-.425a10.443,10.443,0,0,0,1.85,1.837,13.569,13.569,0,0,0,1.9,1.262Zm-21.275,1.25a8.5,8.5,0,0,0,.85-2.012,10.556,10.556,0,0,0,.425-2.15,7.774,7.774,0,0,0,0-1.538l-1.825-.425a9.118,9.118,0,0,1-1.375,5.65Zm26.994,4.826h1.975a5.14,5.14,0,0,1,.325-2.224,6.23,6.23,0,0,1,1.874-2.124c1.5-1.275,2.625-2.549,2.625-4.474,0-3.149-2.175-4.724-5.5-4.724-3.424,0-5.749,1.849-5.8,5.874h2.05c0.175-3.149,1.674-3.974,3.824-3.974,2.324,0,3.3,1.125,3.3,2.849,0,1.425-1.1,2.4-2.2,3.374a6.906,6.906,0,0,0-2.025,2.449A6.744,6.744,0,0,0,474.614,49.614Zm1.025,4.824a1.436,1.436,0,0,0,1.425-1.475,1.464,1.464,0,0,0-2.925,0A1.438,1.438,0,0,0,475.639,54.438Z"/>
</svg>
