<svg id="Frame_2" data-name="Frame 2" xmlns="http://www.w3.org/2000/svg" width="728" height="90" viewBox="0 0 728 90">
  <defs>
    <style>
      .cls-1 {
        fill: #4b286d;
        fill-rule: evenodd;
      }
    </style>
  </defs>
  <path id="透過手機一鍵關閉" class="cls-1" d="M305.237,37.636a11.308,11.308,0,0,0-3.275-4.2l-1.575,1.2a8.056,8.056,0,0,1,3.275,4.175Zm3.25,8.05h1.925a6.511,6.511,0,0,1-.913,3.763,4.975,4.975,0,0,1-2.962,1.938l0.525,0.925a6.943,6.943,0,0,1-2.375-1.2,13.738,13.738,0,0,0,1.3-5.35h-3.3a19.716,19.716,0,0,0,1.825-2.175,12.737,12.737,0,0,0,1.475-2.45V39.461l-6.4.025,0.025,1.8h4.275a14.041,14.041,0,0,1-3.775,4.475l0.025,1.8,3.875,0.025a9.641,9.641,0,0,1-.675,2.163,10.328,10.328,0,0,1-1.638,2.563,12.844,12.844,0,0,1-2.562,2.325l1.425,1.45a14.814,14.814,0,0,0,1.737-1.65,20.385,20.385,0,0,0,1.538-1.875,11.933,11.933,0,0,0,7.325,2.325l9.825,0.025,0.925-2.075-4.15.25-5.975.025A17.367,17.367,0,0,1,309.874,53a7.921,7.921,0,0,1-1.537-.288,6.269,6.269,0,0,0,2.525-1.937,6.073,6.073,0,0,0,.987-2.337,14.706,14.706,0,0,0,.238-2.75h3.25l-0.825,2.8,3.15-.025c-0.017.084-.054,0.259-0.113,0.525s-0.125.517-.2,0.75a5.015,5.015,0,0,1-.287.7,0.864,0.864,0,0,1-.825.4,13.891,13.891,0,0,1-3.025-.8l0.2,1.95,2.125,0.5q2,0.475,2.825-.775a12.766,12.766,0,0,0,1.475-5.05h-2.875l0.825-2.8h-3.325l0.05-3.2a5.7,5.7,0,0,0,2.225,2.35,14.425,14.425,0,0,0,3.725,1.775l1.25-1.625a13.33,13.33,0,0,1-3.675-1.525,5.525,5.525,0,0,1-1.725-1.675h4.175V38.136l-6.025.025,0.025-1.8a23.626,23.626,0,0,0,5.425-1.475l-1.1-1.4a30.234,30.234,0,0,1-3.15.813,33.684,33.684,0,0,1-4.163.575q-2.312.188-5.037,0.212l0.875,1.8,5.225-.25v1.525h-6l-0.025,1.825h4.2a7.312,7.312,0,0,1-2.325,1.9,13.513,13.513,0,0,1-3.375,1.275l1.5,1.6a14.226,14.226,0,0,0,1.95-.75v1.675Zm4.075-1.825-3.8-.05a11.551,11.551,0,0,0,1.787-1.05,7.964,7.964,0,0,0,1.325-1.15,4.348,4.348,0,0,0,.688-0.975v3.225Zm28.05,8.3a10.538,10.538,0,0,0,3.175-.25,1.955,1.955,0,0,0,.975-0.8,2.2,2.2,0,0,0,.225-1l0.025-8.625-1.5.025v-6.9H332.637l-0.025,6.925h-1.35V52.361h1.875l0.025-9.05h9.95v6.475a0.8,0.8,0,0,1-.1.4,0.361,0.361,0,0,1-.25.2,14.582,14.582,0,0,1-2.875.05Zm-3.65-10.65h-2.45v-5.1h7.1l0.025,1.525h-4.675v3.575Zm1.825-1.9,2.825-.025v1.925h-2.825v-1.9Zm2.525,10.1v-5.2h-6.425v5l0.025,0.2h6.4Zm-1.775-3.5v1.775h-3V46.211h3ZM325.362,34.486a8.82,8.82,0,0,1,1.562,1.75,22,22,0,0,1,1.213,2.05q0.349-.2.9-0.562t0.65-.437q-0.276-.525-0.8-1.375a9.744,9.744,0,0,0-1.1-1.475,9.346,9.346,0,0,0-.95-0.925Zm0.175,21.55a17.085,17.085,0,0,0,1.55-1.55,17.37,17.37,0,0,0,1.3-1.625,10.221,10.221,0,0,0,6.75,2.025l10.725-.075,0.825-1.95q-0.225,0-1.9.088t-2.45.112l-4.025.05a41.639,41.639,0,0,1-4.675-.1,11.483,11.483,0,0,1-2.05-.413,6.57,6.57,0,0,1-1.438-.638,6.2,6.2,0,0,1-.987-0.725,18.68,18.68,0,0,0,1.275-5.375h-3.125a25.4,25.4,0,0,0,1.6-2.212,24.747,24.747,0,0,0,1.475-2.487V39.486h-5.825v1.725h3.725a21.528,21.528,0,0,1-1.763,2.763,17.293,17.293,0,0,1-1.687,1.962v1.675l3.6-.025a10.166,10.166,0,0,1-.875,2.875A11.394,11.394,0,0,1,325.974,53a14.925,14.925,0,0,1-1.737,1.788Zm34-15.5h-7.5l0.025,1.825h7.5l-0.025,3.825h-9.575l0.025,1.8h9.55v5.25a0.858,0.858,0,0,1-.213.65,0.984,0.984,0,0,1-.637.225q-0.651.025-3.15-.2l0.7,2.05h3.45q1.774,0,1.775-2V47.986h9.2V46.161l-9.175.025V42.361h7.125V40.536h-7.125v-3.7a33.478,33.478,0,0,0,8.075-1.975l-1.05-1.425a37.766,37.766,0,0,1-8.325,1.725,72.519,72.519,0,0,1-9.525.45l1.125,1.85q5.7-.15,7.75-0.4v3.475Zm27.875-3.65-1.4-.75q-0.325.775-.85,1.75l-1.4.25a22.412,22.412,0,0,0,2.025-3.4l-1.625-.925a22.189,22.189,0,0,1-2.65,4.7h-2.1V33.686h-1.875v4.825l-2.825-.025v1.75h2.75a23.5,23.5,0,0,1-3.7,8.9l1.725,0.925a28.486,28.486,0,0,0,2.05-4.05v9.95h1.875V43.786a19.416,19.416,0,0,1,1.475,2.55l1.35-1.05a14.79,14.79,0,0,0-2.35-3.45l-0.475.45v-2.05h2.05V38.911l0.625,1.275,2.075-.475a22.6,22.6,0,0,1-2.725,3.625l0.75,1.35,3.675-.55,0.45,1.35,1.55-.475,0.125,1.425h-3.025V45.011h-1.85v1.425h-2.9v1.75h2.825a9.032,9.032,0,0,1-.65,2.438,7.455,7.455,0,0,1-1.275,2.063,8.892,8.892,0,0,1-1.525,1.4l1.375,1.425a10.092,10.092,0,0,0,3.375-4.625,10.383,10.383,0,0,1,2.825,1.85l1.025-1.45a13.474,13.474,0,0,0-3.425-2.15l0.15-.95h3.35a12.388,12.388,0,0,0,1.15,3.675,16.411,16.411,0,0,1-5.825,1.875l0.925,1.7a21.99,21.99,0,0,0,3.187-.9,21.305,21.305,0,0,0,2.738-1.225,11,11,0,0,0,2.275,1.85,2.765,2.765,0,0,0,1.875.45,1.9,1.9,0,0,0,1.35-1.175,17.874,17.874,0,0,0,.95-3.175l-1.825-.75-0.525,2.675a0.519,0.519,0,0,1-.325.413,0.769,0.769,0,0,1-.6-0.087,6.275,6.275,0,0,1-.825-0.562,6.345,6.345,0,0,1-.725-0.663,33.1,33.1,0,0,0,3.275-2.675l-1.25-1.2a25.105,25.105,0,0,1-3.025,2.425,13.631,13.631,0,0,1-.925-2.65h6.025v-1.75h-1.85l0.3-.375a14.8,14.8,0,0,0-1.45-1.25q-0.675-.5-0.975-0.7l2.2-.3a6.389,6.389,0,0,1,.375,1.375l1.625-.6a13.677,13.677,0,0,0-1.55-4.05l-1.4.65,0.45,1-1.7.25a24.329,24.329,0,0,0,3.8-5.525l-1.475-.85q-0.9,1.525-1.075,1.775l-1.6.2a20.6,20.6,0,0,0,2.2-3.325l-1.6-1.05a19.03,19.03,0,0,1-1.35,2.538q-0.9,1.462-1.7,2.537l0.875,1.425,2.1-.5a19.244,19.244,0,0,1-2.7,3.35l0.7,1.5,1.2-.225-0.95.825a14.909,14.909,0,0,1,1.775,1.325h-2.55q-0.625-7.275-.625-12.725l-1.9-.025Zm0.325,7.5q-0.2-.725-0.575-1.725a18.073,18.073,0,0,0-.725-1.7l-1.525.675,0.5,0.9-1.675.225a25.153,25.153,0,0,0,3.7-5.575q0,3.05.3,7.2h0Zm13.15,1,19.375-.025V43.286H400.887v2.1Zm38.6-1.575v1.45l-2.775.025v1.725h2.775v1.55h-3.275v1.75h3.275v2.475h1.75v-2.45l5-.05v-1.7l-5-.025v-1.55h4.475l-0.05-1.75h-4.425v-1.45l3.825,0.025,0.025-3.2h1.25V38.911h-1.275v-3.05l-3.825.025v-2.3h-1.75v2.275l-2.4.025v1.7h2.4v1.325h-3.475v1.75h3.475v1.425l-2.425.025v1.7h2.425Zm3.775-4.875-2.025-.025V37.536l2.05,0.05Zm-2.025,3.15V40.661l2.05-.025v1.475Zm-9.625-6.5-0.025,1.525q-0.426-.45-1.025-1a13.6,13.6,0,0,0-1.075-.9,5.359,5.359,0,0,0,.3-1l-1.6-.55a29.914,29.914,0,0,1-4.125,8.125l1.65,0.85,0.8-1.15h1.15v1.825h-2.825l0.025,1.75h2.8v6.675l-3.45,1.05,1.3,1.525,6.475-2.2v-1.8l-2.55.825V50.011l1.575,0.425a14.292,14.292,0,0,0,.662-2.062,9.77,9.77,0,0,0,.288-2.013l-1.65-.475a13.234,13.234,0,0,1-.875,3.85V45.061h2.275v-1.75h-2.3V41.486h1.625v-1.7l-3.5-.025a21.808,21.808,0,0,0,1.325-2.75,17.9,17.9,0,0,1,2.575,2.775l1.35-1.2a14.278,14.278,0,0,0-1.075-1.275h2.85l-2.525,4.9v1.725h2.85a24.812,24.812,0,0,1-.75,4.7q-0.051-.425-0.675-3.85l-1.6.75a28.658,28.658,0,0,0,1.425,5,15.622,15.622,0,0,1-3.675,3.975l1,1.525a17.8,17.8,0,0,0,2.112-2.013,13.953,13.953,0,0,0,1.513-2.112,5.905,5.905,0,0,0,1.012,1.438,4.585,4.585,0,0,0,1.713,1.125,6.027,6.027,0,0,0,2.225.413h6.75l1.025-1.75h-7.55a4.539,4.539,0,0,1-1.888-.413,4.467,4.467,0,0,1-1.475-1.025,4.764,4.764,0,0,1-.812-1.138,14.611,14.611,0,0,0,.9-3.038,38.419,38.419,0,0,0,.5-5.312h-2.525l2.425-4.9V35.586h-4.925Zm-4.125,14.975a22.15,22.15,0,0,0-1.175-4.65l-1.6.6a23.375,23.375,0,0,1,1,4.575Zm41.1-2.125a10.243,10.243,0,0,0-1.525-3l-1.55.575,0.6,0.75-2.25.2a17.114,17.114,0,0,0,3.85-3.9l-1.45-.975a11.253,11.253,0,0,1-1.375,1.8l-1.675.125a10.415,10.415,0,0,0,2.2-2.075l-0.975-.575h4.15v7.075Zm-4.85-7.1a10.867,10.867,0,0,1-1.8,1.863,18.326,18.326,0,0,1-1.825,1.337l0.475,1.5,2.5-.375q-1,.775-2.3,1.625l0.6,1.575q2.5-.275,5.375-0.475a5.088,5.088,0,0,1,.275.925l1.55-.475v4.225a0.521,0.521,0,0,1-.5.6q-1.125.075-2.675,0.075l0.575,1.7q0.075,0,1.237-.025a10.809,10.809,0,0,0,1.888-.175,1.539,1.539,0,0,0,.95-0.662,2.069,2.069,0,0,0,.375-1.213V34.486h-9.225v6.875Zm-0.65-5.1h5.475v0.825h-5.5Zm0.025,2.55h5.45l-0.025.85-5.45-.025Zm-4.775,10.225-0.125,1.625h-2.65V49.461h-1.825l-0.025,2.9h4.075a3.678,3.678,0,0,1-1.588.863,11.651,11.651,0,0,1-3.412.288l0.675,1.775a10.775,10.775,0,0,0,4.45-.925,3.2,3.2,0,0,0,1.675-1.85,12.454,12.454,0,0,0,.5-3.5l1.05-.275a11.37,11.37,0,0,0-1.675-3.05l-1.525.65,0.6,0.65q-1.05.15-2,.2a16.468,16.468,0,0,0,2.287-1.763,25.733,25.733,0,0,0,2.138-2.137l-1.475-.95q-0.651.8-1.35,1.55l-1.825.175a11.009,11.009,0,0,0,2-2.025l-0.8-.6h2.175V34.561h-9.2l-0.025,21.45h1.9l-0.025-14.575h4.275a13.66,13.66,0,0,1-3.825,3.025l0.65,1.625q1.55-.275,2.525-0.35a18.357,18.357,0,0,1-2.925,1.825l0.725,1.625q2.974-.375,5.575-0.575l0.2,0.4h-1.2Zm-0.475-12.7v0.825h-5.525l0.025-.825h5.5Zm-0.025,2.55,0.025,0.85h-5.525l0.025-.85h5.475Zm4.95,16.6V52.386l4.35-.025V49.436l-1.85-.025v1.225h-2.475l-0.025-1.575h-1.85v6.4h1.85Zm14.725,0.65V42.961h6.875V34.786h-8.775l0.025,21.325h1.875Zm10.675-19.525h5.05v1.3h-5.05v-1.3Zm2.65,19h2.25a1.876,1.876,0,0,0,1.162-.387,2,2,0,0,0,.7-0.888,2.6,2.6,0,0,0,.188-0.9V34.786h-8.85v8.175h6.95v9.975a0.74,0.74,0,0,1-.213.525,0.652,0.652,0,0,1-.487.225,9.49,9.49,0,0,1-2.425-.15Zm2.4-16v1.55h-5.05v-1.55h5.05Zm-15.75-1.6,0.025-1.375h5v1.35Zm0.025,1.675h5v1.475l-5,.025v-1.5Zm6.825,14.85,2.45-.025a2.092,2.092,0,0,0,1.487-.525,1.824,1.824,0,0,0,.563-1.4v-5.5l2.85-.025,0.025-1.8h-2.85V43.261h-1.9v1.975h-7.55v1.8h5.05a7.8,7.8,0,0,1-2.188,2.525,16.468,16.468,0,0,1-3.937,2.225l1.075,1.575a16.572,16.572,0,0,0,3.137-1.75,14.045,14.045,0,0,0,2.425-2.15,8.041,8.041,0,0,0,1.488-2.425h0.5v4.775a1.025,1.025,0,0,1-.138.5,0.442,0.442,0,0,1-.412.25,10.243,10.243,0,0,1-1.513-.013q-0.987-.062-1.287-0.062Z"/>
</svg>
