<svg id="Frame_3" data-name="Frame 3" xmlns="http://www.w3.org/2000/svg" width="728" height="90" viewBox="0 0 728 90">
  <defs>
    <style>
      .cls-1 {
        fill: #4b286d;
        fill-rule: evenodd;
      }
    </style>
  </defs>
  <path id="使用TELUS_智能插座及燈泡_" data-name="使用TELUS 智能插座及燈泡 " class="cls-1" d="M55.622,22.086L55.6,23.736h-5.65v6.975l5.55-.05a9.693,9.693,0,0,1-.4,2.075,7.412,7.412,0,0,1-.625,1.325,15.339,15.339,0,0,1-2.8-3.025l-1.625,1.025a27.612,27.612,0,0,0,3.175,3.5,12.982,12.982,0,0,1-5.025,2.8l1.475,1.675a21.505,21.505,0,0,0,3.237-1.775,14.341,14.341,0,0,0,1.962-1.55A15.806,15.806,0,0,0,59.447,38.7a23.848,23.848,0,0,0,5.125,1.037l1.15-1.8A25.28,25.28,0,0,1,56.1,35.211a8.583,8.583,0,0,0,.938-2.163,22.658,22.658,0,0,0,.462-2.387l5.75-.025,0.025-6.875-5.7-.025v-1.7l6.75,0.05v-1.9h-6.75v-2.8L55.6,17.361v2.825h-6.55l0.65-2.1-1.75-.65q-1.075,3.45-2,5.65a23.122,23.122,0,0,1-3.6,5.95l1.4,1.25q1.6-2.05,2.125-2.825V40.086h1.8L47.7,23.936l0.725-1.9Zm5.725,6.725H57.572v-3.25h3.8Zm-5.8,0h-3.8V25.636h3.8v3.175Zm15.7-10.25V29.686a16.684,16.684,0,0,1-.275,2.987,12.216,12.216,0,0,1-.8,2.713,15.911,15.911,0,0,1-2.325,3.5l1.6,1.2A16.583,16.583,0,0,0,71.972,36.3,15.879,15.879,0,0,0,73.1,31.561h5.475v5.95h1.95v-5.95h5.45v5.35a0.6,0.6,0,0,1-.1.362,0.414,0.414,0,0,1-.3.163,6.8,6.8,0,0,1-.937.038q-0.487-.012-1.713-0.062l0.6,1.95,2.85-.05A1.62,1.62,0,0,0,87.059,39a2.034,2.034,0,0,0,.612-0.775,2.166,2.166,0,0,0,.25-0.937V18.561H71.247Zm7.325,1.85v3.625H73.2V20.411h5.375Zm7.35,5.45L85.9,29.711H80.522l0.025-3.85h5.375Zm-5.4-5.45h5.4v3.6l-5.375.025ZM73.2,25.861h5.375v3.85H73.2v-3.85Zm32.671-5.4H91.6v1.9h6.049v15.9H99.82v-15.9h6.048v-1.9Zm14.5,1.9v-1.9H108v17.8h12.272v-1.9H110.1V29.938h9.272v-1.9H110.1V22.365h10.272Zm4.352,14v-15.9h-2.1v17.8h11.047v-1.9H124.72Zm17.824,2.274c4.449,0,7-2.524,7-6.973v-11.2h-2.1v11.2c0,3.5-1.8,5.074-4.9,5.074s-4.9-1.575-4.9-5.074v-11.2h-2.1v11.2C135.546,36.112,138.1,38.636,142.544,38.636Zm16.525,0.025c4.274,0,6.673-2.075,6.673-5.224,0-2.574-1.449-4.174-5.548-5.074l-1.575-.35c-3.349-.75-4.174-1.6-4.174-3.3,0-1.675,1.325-2.749,3.9-2.749,3.549,0,4.624,1.375,4.8,3.674h2.15c-0.075-2.9-1.7-5.574-6.949-5.574-3.7,0-6.073,1.8-6.073,4.649,0,3.249,2.374,4.474,5.4,5.149l1.575,0.35c3.149,0.7,4.324,1.525,4.324,3.224,0,2.2-1.65,3.324-4.5,3.324-2.9,0-5.174-1.075-5.224-4.374h-2.174C151.721,36.836,154.82,38.661,159.069,38.661ZM43.9,53.611l-0.025,1.85h4.45a3.982,3.982,0,0,1-.9,1.35,6,6,0,0,1-1.8,1.212,10.332,10.332,0,0,1-2.475.788l0.9,1.875a11.489,11.489,0,0,0,1.788-.575A7.03,7.03,0,0,0,47,59.536V69.961l1.875,0.025v-1.6H59.247v1.475H61.2L61.172,59.336l-13.95-.05a6.43,6.43,0,0,0,2.075-1.7,8.82,8.82,0,0,1,1.875.275,20.511,20.511,0,0,1,2.975,1.125l1-1.525a9.508,9.508,0,0,0-1.963-.9,17.8,17.8,0,0,0-2.987-.65l0.2-.475h4.15v-1.8l-3.875-.025a9.1,9.1,0,0,0,.125-2.15l2.925-.025v-1.8l-5.775-.025a5.1,5.1,0,0,0,.425-1.375l-1.825-.7a10.069,10.069,0,0,1-.925,2.975,6.717,6.717,0,0,1-1.85,2.225l1.75,0.775a9.606,9.606,0,0,0,1.1-1.013,5.448,5.448,0,0,0,.8-1.062h1.5a8.379,8.379,0,0,1-.125,2.2Zm15.35,9.35H48.872V61.136l10.375,0.025v1.8Zm-0.025,3.6H48.872V64.786H59.247Zm4.3-9.125V49.161H55.247v8.275h8.275Zm-1.9-1.8h-4.5l0.025-4.65h4.475v4.65Zm16.6,0.575H69.2v13.65l1.9,0.025q-0.025-2.825,0-5.225h5.2v2.35a0.809,0.809,0,0,1-.112.4,0.4,0.4,0,0,1-.288.225,6.342,6.342,0,0,1-1.387,0q-0.862-.075-1.238-0.1l0.7,1.925a17.266,17.266,0,0,0,2.7-.075,1.556,1.556,0,0,0,1.112-.587,3.117,3.117,0,0,0,.438-1.263V56.211Zm-7.1,3.325L71.1,58.011h5.2v1.5Zm-0.025,1.8h5.225L76.3,62.861H71.1V61.336Zm1.65-14.175q-1.525,2.6-2.05,3.325a14.779,14.779,0,0,1-1.013,1.263,9.432,9.432,0,0,1-.937.913,2.485,2.485,0,0,1-.525.462,5.8,5.8,0,0,0-.55.438l1.375,1.675q0.45-.05,2.612-0.337t3.5-.425q1.337-.137,2.263-0.187,0.45,1,.513,1.188c0.041,0.125.079,0.246,0.112,0.362a8.246,8.246,0,0,0,1.075-.425q0.65-.3.725-0.325a15.471,15.471,0,0,0-1.5-2.812,11.033,11.033,0,0,0-2.025-2.288l-1.675.925a15.9,15.9,0,0,1,1.55,1.65l-5.325.45a12.671,12.671,0,0,0,1.825-2.1,25.422,25.422,0,0,0,1.775-2.875ZM87.7,52.836q-0.55,3.375-1.175,3.375h-3.3A1.762,1.762,0,0,1,82.359,56a0.607,0.607,0,0,1-.388-0.513V53.661a24.5,24.5,0,0,0,4.3-1.7,16.041,16.041,0,0,0,2.75-1.825l-1.15-1.425a16.054,16.054,0,0,1-2.937,1.863,17,17,0,0,1-2.963,1.212l-0.025-4.325-1.875.025L80.1,56.161a1.964,1.964,0,0,0,.713,1.288,2.312,2.312,0,0,0,1.587.563h4.45a1.57,1.57,0,0,0,1.1-.513,3.055,3.055,0,0,0,.75-1.112,27.124,27.124,0,0,0,.825-2.85Zm-7.675,5.875v8a1.893,1.893,0,0,0,.4,1.125,2.205,2.205,0,0,0,.95.775,2.622,2.622,0,0,0,.975.225l4.525-.025a2.849,2.849,0,0,0,.9-0.263,1.976,1.976,0,0,0,.725-0.562,4.048,4.048,0,0,0,.475-0.838,9.446,9.446,0,0,0,.463-1.5q0.237-.987.337-1.263L88,63.711a10.969,10.969,0,0,1-.6,2.625,1.1,1.1,0,0,1-.75.7H82.8a1.027,1.027,0,0,1-.687-0.187,0.567,0.567,0,0,1-.213-0.437l0.025-2.35A21.146,21.146,0,0,0,85.734,62.9a15.207,15.207,0,0,0,3.537-2.012L88,59.561a14.044,14.044,0,0,1-2.95,1.625,20.467,20.467,0,0,1-3.125,1l-0.025-3.5Zm24.75-3.95a6.361,6.361,0,0,1-1.438,1.387,8.767,8.767,0,0,1-2.562,1.138v12.75h1.9v-1.8h8.5l0.025,1.7h1.875V56.161h-4.75l-0.025,1.85h2.875l-0.025,2.95h-2.325v1.825h2.35v3.575h-3.35V54.486H114.6l-0.025-1.8h-6.725v-2.1a22.229,22.229,0,0,0,5.9-1.75l-1.3-1.475a19.418,19.418,0,0,1-4.725,1.425,53.27,53.27,0,0,1-8.35.6l1,1.925q2.274-.1,5.55-0.425v1.8H99.847v-0.15h-1.9V47.761H96.072v4.775h-3.35v1.85h3.35v5.025q-2.225,1.05-3.775,1.65l1.3,1.425,2.45-1.15v6.175l-0.1.35a1.036,1.036,0,0,1-.25.212,1.962,1.962,0,0,1-1,.088,5.28,5.28,0,0,0-1.2.025l0.775,1.825q0.275-.025,1.063-0.025a4.388,4.388,0,0,0,1.2-.125,1.775,1.775,0,0,0,.688-0.375,2.036,2.036,0,0,0,.525-0.8,2.738,2.738,0,0,0,.175-0.95V60.461l2.175-.975V57.461q-1.851,1.025-2.15,1.15l-0.025-4.225h1.925v0.1h6.075v1.625Zm1.15,11.6h-3.25v-3.55H105.1v-1.8h-2.425v-2.5a10.876,10.876,0,0,0,2.162-1.163,4.532,4.532,0,0,0,1.088-1.113V66.361Zm13.25,3.55a21.843,21.843,0,0,0,2.175-4.375,17.376,17.376,0,0,0,.75-4.825l1.425,0.8a7.978,7.978,0,0,0,1.475-1.4,8.086,8.086,0,0,0,1-1.65,14.637,14.637,0,0,1,2.45,2.5l1.1-.9v2.125h-6.175l0.025,1.825,6.15,0.025,0.025,2.525H122v1.85h17.425l0.05-1.8-8-.025v-2.55l6.55-.025V62.136l-6.575.025V60.786l1.475,0.875a9.554,9.554,0,0,0,1.437-1.775,14.345,14.345,0,0,0,.988-2.025,11.926,11.926,0,0,1,1.262,1.313q0.612,0.738,1.463,1.963a5.1,5.1,0,0,0,.425-0.3q0.225-.175.562-0.475t0.463-.4a16.257,16.257,0,0,0-3.775-4.075,27.655,27.655,0,0,0,.25-2.825l-1.825-.275a12.407,12.407,0,0,1-.575,4.2,9.74,9.74,0,0,1-2.15,3.525v-8.2l-1.9-.05v7.075q-0.851-.925-1.525-1.525a17.044,17.044,0,0,0-1.45-1.15,15.952,15.952,0,0,0,.425-3.45l-1.825-.325a9.607,9.607,0,0,1-.35,3.337,7.355,7.355,0,0,1-1.238,2.45,12.029,12.029,0,0,1-1.512,1.613v-8.55h17.1v-1.85h-8.25a15.8,15.8,0,0,0-1.1-1.488,11.042,11.042,0,0,0-1.225-1.288l-1.925,1.05a15.537,15.537,0,0,1,1.262.987,4.834,4.834,0,0,1,.738.738h-8.55l-0.025,3.9q0,1,.05,3.913a44.217,44.217,0,0,1-.175,5.137,10.367,10.367,0,0,1-1.113,3.588q-0.513.988-1.337,2.337Zm29.1,0a18.591,18.591,0,0,0,7.375-3.925,22.748,22.748,0,0,0,7.725,3.925l1.175-1.8a21.159,21.159,0,0,1-7.4-3.5,21.105,21.105,0,0,0,3.175-4.2,13.2,13.2,0,0,0,1.575-5.2h-4.95q2.175-2.85,3.25-4.475v-1.65H144.272v1.9h3.35q0.075,2.225-.1,5.4-0.15,2.8-.338,4.1t-0.362,2.075a12.317,12.317,0,0,1-3.85,6.25q0.049,0.025.837,0.5T145,69.986a19.4,19.4,0,0,0,3.175-4.875,24.6,24.6,0,0,0,1.425-7.825,22.62,22.62,0,0,0,1.925,4.012,19.076,19.076,0,0,0,2.675,3.388,19.2,19.2,0,0,1-7.15,3.55Zm1.475-18.925h7.825q-1.15,1.725-3.3,4.425v1.675H159.6a13.023,13.023,0,0,1-1.55,3.288,17.161,17.161,0,0,1-2.325,2.962,22.821,22.821,0,0,1-2.313-2.7,15.107,15.107,0,0,1-1.112-1.95,40.668,40.668,0,0,1-1.75-4.05q-0.5-1.45-.8-2.5v-1.15Zm24.8,16.075-0.025,1.775h14.6V67.061l-5.025-.025a9.994,9.994,0,0,0,1.5-3l-1.5-.525h2.175l-0.025-5.55h-8.875v5.55l1.975,0.05-1.65.625a5.466,5.466,0,0,1,1.325,1.25,6.585,6.585,0,0,1,.95,1.625h-5.425Zm4.7-7.275h5.125v1.9h-5.125v-1.9Zm1.15,7.225,1.275-.6a6.478,6.478,0,0,0-2.15-2.9h4.35a10.475,10.475,0,0,1-1.9,3.55Zm-9.55-19.15,0.05,7.8-0.125,5.45a11.091,11.091,0,0,1-3.65,8.05l1.525,1.225a13.691,13.691,0,0,0,3.675-6.625,5.739,5.739,0,0,1,1.612,1.2,6.544,6.544,0,0,1,1.288,1.85,16.239,16.239,0,0,0,1.625-1.125,14.359,14.359,0,0,0-2.013-2.338,9.142,9.142,0,0,0-2.262-1.587q0.15-1.075.175-4.975a10.748,10.748,0,0,0,3.3-2.825l-0.488-.487a6.954,6.954,0,0,0-.587-0.538q-0.225-.175-0.3-0.225a12.768,12.768,0,0,1-.988,1.25,4.734,4.734,0,0,1-.937.85q-0.1-3.725-.025-6.95h-1.875Zm19.325,9.675a8.865,8.865,0,0,1-2.075-1.388,17.819,17.819,0,0,1-1.825-1.762,8.554,8.554,0,0,0,2.6-2.45c-0.034-.033-0.2-0.183-0.5-0.45a5.91,5.91,0,0,0-.775-0.6,7.943,7.943,0,0,1-2.2,2.2,3.05,3.05,0,0,1-.6-1.025,11.717,11.717,0,0,0,2.7-2.725q-0.176-.125-0.6-0.5a6.132,6.132,0,0,0-.7-0.55,8.475,8.475,0,0,1-2.125,2.25,23.29,23.29,0,0,1-1.025-3.2,5.254,5.254,0,0,0-.888.3q-0.537.225-.737,0.3a19.8,19.8,0,0,0,2.775,6.6h-4.7a7.024,7.024,0,0,0,.9-1.725,10.873,10.873,0,0,0,.625-2.25,12.207,12.207,0,0,0,.175-1.85h-6.75v1.85h4.675A10.052,10.052,0,0,1,178.7,51.9q-0.326.863-.55,1.313a4.947,4.947,0,0,0-.813-1.062q-0.488-.487-1.287-1.137l-1.4,1.175a6.417,6.417,0,0,1,2.525,2.45A8.536,8.536,0,0,1,175.8,56a16.68,16.68,0,0,1-2.625,1.638l1.525,1.45a16.833,16.833,0,0,0,3.7-3.125l0.025,0.4h6.7l0.05-.425a10.409,10.409,0,0,0,1.85,1.837,13.511,13.511,0,0,0,1.9,1.263ZM168.9,58.786a8.587,8.587,0,0,0,.85-2.013,10.624,10.624,0,0,0,.425-2.15,7.774,7.774,0,0,0,0-1.538l-1.825-.425a9.124,9.124,0,0,1-1.375,5.65Zm34.85-8.5a16.508,16.508,0,0,0,.35-2.825l-1.8-.45q-0.55,6.775-4.5,10.325l1.575,1.35,1.75-1.85L201.1,65.861l0.125,0.9a2.7,2.7,0,0,0,.962,1.325,2.893,2.893,0,0,0,1.513.625h8.45a2.871,2.871,0,0,0,1.337-.25,2.792,2.792,0,0,0,.788-0.625,10.118,10.118,0,0,0,1.275-3.5,8.975,8.975,0,0,0-.938-0.413q-0.612-.237-0.887-0.362L213.5,64.936c-0.034.117-.1,0.379-0.2,0.787a2.284,2.284,0,0,1-.388.9,1.046,1.046,0,0,1-.637.362H204.4l-0.625-.075a1.261,1.261,0,0,1-.525-0.338,0.868,0.868,0,0,1-.25-0.537V62.161h5.575v-7.4l-6.3.025a19.32,19.32,0,0,0,.95-2.525h7.95q0,0.175-.088,2.55t-0.212,4.438a32.917,32.917,0,0,1-.35,3.388,0.566,0.566,0,0,1-.45.275,7.066,7.066,0,0,1-1.138-.138q-0.762-.137-1.112-0.187l0.475,1.875a7.125,7.125,0,0,0,2.95.075,2.25,2.25,0,0,0,1.3-1.775q0.425-4.075.625-12.45Zm2.975,10.1H203v-3.8h3.725v3.8Zm-8.4-3.775a9.712,9.712,0,0,0-1.113-1.487,8.426,8.426,0,0,0-1.475-1.3,15.786,15.786,0,0,0-1.912-1.113l-1.575,1.15a15.678,15.678,0,0,1,1.737.95,7.452,7.452,0,0,1,1.438,1.237,12.145,12.145,0,0,1,1.275,1.663Zm1.975-5.1a11.393,11.393,0,0,0-1.238-1.488,10.934,10.934,0,0,0-1.65-1.4,7.124,7.124,0,0,0-1.587-.862l-1.4,1.175a10.632,10.632,0,0,1,2.375,1.6,10.36,10.36,0,0,1,1.975,2.2Zm-5.75,17.5q0.2-.275.9-1.2t1.187-1.675a12.576,12.576,0,0,0,.888-1.625,16.263,16.263,0,0,0,.737-1.975,16.937,16.937,0,0,0,.538-2.425q-0.651-.275-1.7-0.825a15.836,15.836,0,0,1-.8,3.075,17.567,17.567,0,0,1-1.438,3.013,12.008,12.008,0,0,1-2.087,2.587Z"/>
</svg>
