<svg id="Frame_4" data-name="Frame 4" xmlns="http://www.w3.org/2000/svg" width="728" height="90" viewBox="0 0 728 90">
  <defs>
    <style>
      .cls-1 {
        fill: #4b286d;
        fill-rule: evenodd;
      }
    </style>
  </defs>
  <path id="家居節能更有效_" data-name="家居節能更有效 " class="cls-1" d="M64.672,34.977h-8.45a9.3,9.3,0,0,0-1.512-1.95A8.608,8.608,0,0,0,53.047,31.7l-1.575,1.175a18.507,18.507,0,0,1,1.962,1.575,3.684,3.684,0,0,1,.413.525H44.822v4.65h1.925l-0.025-2.875H62.747v2.775h1.925v-4.55Zm1.2,16.075a6.948,6.948,0,0,1-2.163-1.35A11.72,11.72,0,0,1,61.8,47.477a9.849,9.849,0,0,1-1.275-2.6,18.272,18.272,0,0,0,2.775-2.5L61.847,41.1a10.844,10.844,0,0,1-4.625,3.6,6.6,6.6,0,0,0-1.012-1.587A5.9,5.9,0,0,0,54.872,41.9a17.926,17.926,0,0,0,2.4-1.6h4.6V38.527h-14.1l-0.025,1.8,6.3,0.025a25.818,25.818,0,0,1-9.1,2.825l1.3,1.65a21.81,21.81,0,0,0,6.775-1.975,7.556,7.556,0,0,1,1.25.85,16.478,16.478,0,0,1-2.325,1.375,17.624,17.624,0,0,1-3.312,1.212,35.9,35.9,0,0,1-4.163.837L45.8,48.752a18.852,18.852,0,0,0,5.063-1.225,23.214,23.214,0,0,0,4.438-2.4,10.331,10.331,0,0,1,.675,1.45,16.527,16.527,0,0,1-5.25,3.038,34.5,34.5,0,0,1-6.75,1.637l1.375,1.725a40.317,40.317,0,0,0,4.163-1.013,25.874,25.874,0,0,0,3.8-1.462,13.821,13.821,0,0,0,3.063-1.975,20.872,20.872,0,0,1-.1,3.35,1.092,1.092,0,0,1-.275.475,1.373,1.373,0,0,1-.45.35,8.372,8.372,0,0,1-1.825-.163,20.9,20.9,0,0,1-2.375-.638l0.775,2.225A9.724,9.724,0,0,0,56.5,54.3a2.16,2.16,0,0,0,1.113-.863,4.843,4.843,0,0,0,.587-2.163,14.368,14.368,0,0,0-.013-2.462,18.6,18.6,0,0,0-.362-2.462l1.2-.5a14.948,14.948,0,0,0,1.025,2.237,12.225,12.225,0,0,0,1.913,2.563,7.777,7.777,0,0,0,2.663,1.875Zm4.275,3.6a11.908,11.908,0,0,0,2.113-3.6,15.466,15.466,0,0,0,.825-4.413q0.137-2.513.163-2.863L80.522,43.8l0.025,2.675h-6l0.025,8,1.85-.025,0.025-1.475H86.672v1.475h1.9v-8l-6.15.025L82.4,43.8h7.95V41.977L82.4,42l0.025-2.6H80.547l-0.025,2.575H73.147L73.172,39.2H89.1V33.277H71.247v10.6a31.52,31.52,0,0,1-.15,3.738,12.718,12.718,0,0,1-.45,2.05,11.187,11.187,0,0,1-.837,1.962,10.623,10.623,0,0,1-1.312,1.9Zm3-19.55H87.2l0.025,2.3-14.075-.025V35.1Zm3.275,16.075L76.447,48.3l10.25-.025-0.025,2.9H76.422ZM95.8,54.427q0.75-.425,7.225-2.7,0.249,0.425.7,1.275t0.525,1q0.65-.3,1.7-0.925a20.911,20.911,0,0,0-2-3.275,11.073,11.073,0,0,0-1.8-1.825l-1.675.925a7.765,7.765,0,0,1,1.5,1.45L97.2,51.927v-4.2h7.3v-8.55H95.3L95.322,51.5a1.631,1.631,0,0,1-.3,1.063,2.082,2.082,0,0,1-.725.563Zm6.8-13.475,0.025,1.525-5.45-.025v-1.5H102.6Zm0,3.275v1.725H97.2V44.227h5.4ZM104.947,36l0.025-1.8-6.725.025q0.025-.05.15-0.425t0.225-.7q0.1-.325.15-0.525l-1.725-.65A11.069,11.069,0,0,1,93.3,38.2l1.475,1.25a11.765,11.765,0,0,0,1.688-1.75A8.563,8.563,0,0,0,97.6,36h1.825a12.378,12.378,0,0,1,1.7,2.85l0.375-.163q0.2-.087,1.3-0.687a9.223,9.223,0,0,0-1.325-2h3.475Zm10.725-.075V34.152l-7.375-.025q0.249-.85.425-1.7l-1.7-.625a10.819,10.819,0,0,1-1.288,3.338,8.848,8.848,0,0,1-2.412,2.637l1.6,1.275a9.464,9.464,0,0,0,2.6-3.125H109.7a11.071,11.071,0,0,1,1.575,2.8,4.273,4.273,0,0,0,.487-0.2q0.263-.125.663-0.362c0.266-.158.45-0.263,0.55-0.312a13.973,13.973,0,0,0-1.25-1.925h3.95Zm-3.5,4.95L112.2,48.1a0.671,0.671,0,0,1-.188.475,0.566,0.566,0,0,1-.487.175l-2.775-.15,0.825,1.95q0.375-.025,1.562,0a5.338,5.338,0,0,0,1.613-.125,2.971,2.971,0,0,0,.862-0.575,1.436,1.436,0,0,0,.375-0.712,3.394,3.394,0,0,0,.088-0.663V39.1l-7.875-.025V54.452h1.9l-0.025-13.575h4.1Zm17.05-.1H120.2v13.65l1.9,0.025q-0.025-2.825,0-5.225h5.2v2.35a0.809,0.809,0,0,1-.113.4,0.4,0.4,0,0,1-.287.225,6.346,6.346,0,0,1-1.388,0q-0.862-.075-1.237-0.1l0.7,1.925a17.266,17.266,0,0,0,2.7-.075,1.554,1.554,0,0,0,1.112-.587,3.126,3.126,0,0,0,.438-1.263V40.777Zm-7.1,3.325L122.1,42.577h5.2v1.5ZM122.1,45.9h5.225L127.3,47.427h-5.2V45.9Zm1.65-14.175q-1.525,2.6-2.05,3.325a14.778,14.778,0,0,1-1.013,1.262,9.431,9.431,0,0,1-.937.913,2.5,2.5,0,0,1-.525.462,5.721,5.721,0,0,0-.55.438l1.375,1.675q0.45-.05,2.612-0.338t3.5-.425q1.338-.137,2.263-0.187,0.45,1,.512,1.188c0.042,0.125.079,0.246,0.113,0.362a8.279,8.279,0,0,0,1.075-.425q0.649-.3.725-0.325a15.471,15.471,0,0,0-1.5-2.812,11.033,11.033,0,0,0-2.025-2.287l-1.675.925a15.924,15.924,0,0,1,1.55,1.65l-5.325.45a12.7,12.7,0,0,0,1.825-2.1,25.451,25.451,0,0,0,1.775-2.875ZM138.7,37.4q-0.55,3.375-1.175,3.375h-3.3a1.762,1.762,0,0,1-.863-0.212,0.607,0.607,0,0,1-.387-0.512V38.227a24.515,24.515,0,0,0,4.3-1.7,16.049,16.049,0,0,0,2.75-1.825l-1.15-1.425a16.045,16.045,0,0,1-2.938,1.863,17.012,17.012,0,0,1-2.962,1.212l-0.025-4.325-1.875.025,0.025,8.675a1.963,1.963,0,0,0,.712,1.288,2.312,2.312,0,0,0,1.588.563h4.45a1.57,1.57,0,0,0,1.1-.513,3.055,3.055,0,0,0,.75-1.112,27.223,27.223,0,0,0,.825-2.85Zm-7.675,5.875v8a1.891,1.891,0,0,0,.4,1.125,2.2,2.2,0,0,0,.95.775,2.618,2.618,0,0,0,.975.225l4.525-.025a2.849,2.849,0,0,0,.9-0.262,1.979,1.979,0,0,0,.725-0.562,4.067,4.067,0,0,0,.475-0.838,9.392,9.392,0,0,0,.462-1.5q0.237-.987.338-1.262L139,48.277a10.969,10.969,0,0,1-.6,2.625,1.1,1.1,0,0,1-.75.7H133.8a1.029,1.029,0,0,1-.688-0.187,0.566,0.566,0,0,1-.212-0.437l0.025-2.35a21.147,21.147,0,0,0,3.812-1.163,15.2,15.2,0,0,0,3.538-2.012L139,44.127a14.054,14.054,0,0,1-2.95,1.625,20.488,20.488,0,0,1-3.125,1l-0.025-3.5Zm35.125,9.2q-2.325-.05-4.888-0.337a42.343,42.343,0,0,1-4.512-.725,12.011,12.011,0,0,1-3.05-1.038,7.485,7.485,0,0,0,1.05-1.887,9.532,9.532,0,0,0,.575-2.213h7.3v-9.25h-6.95v-1.85l9.675,0.025V33.427H144.022V35.2l9.8-.025v1.85h-7.175l-0.025,9.25h6.8a7.923,7.923,0,0,1-.513,1.65,6.879,6.879,0,0,1-.862,1.5,29.47,29.47,0,0,1-3.65-2.85l-1.45.975a17.032,17.032,0,0,0,3.625,3.2,21.675,21.675,0,0,1-3.763,1.413,33.783,33.783,0,0,1-3.512.788l1.125,1.675a17.569,17.569,0,0,0,7.175-2.375l0.775-.525a23.327,23.327,0,0,0,4.775,1.663,45.425,45.425,0,0,0,7.825,1.012Zm-5.35-11.75h-5.1l0.025-1.925H160.8v1.925ZM148.5,38.8l5.325,0.025v1.9H148.5V38.8Zm12.325,3.7v1.975h-5.3l0.125-1.975h5.175Zm-12.325,0h5.275l-0.1,1.975-5.175-.025V42.5Zm21.475,4.725q2.274-2.325,3.037-3.2a16.709,16.709,0,0,0,1.188-1.5V54.452h1.975v-5.3l9.425,0.025v2.475a0.405,0.405,0,0,1-.138.288,0.458,0.458,0,0,1-.337.138,18.478,18.478,0,0,1-3.15-.125q0.225,0.575.875,1.925h1.437a9.979,9.979,0,0,0,1.888-.125,2.162,2.162,0,0,0,.887-0.625,1.687,1.687,0,0,0,.413-0.95V39.4H176.147q0.324-.675.9-2.325l13.45-.025v-1.8H177.772q0.6-2.05.825-3.1l-1.925-.425q-0.5,2.075-.688,2.663t-0.287.837h-5.95v1.825L175,37.077a16.649,16.649,0,0,1-2.563,4.538,32.679,32.679,0,0,1-4.212,4.462Zm15.575-6v2.05l-9.375-.025V41.227h9.375Zm-9.425,3.85,9.45,0.025v2.25h-9.45V45.077ZM216,52.977a13.787,13.787,0,0,1-4.825-4.775,18.678,18.678,0,0,0,1.862-4.462,22.714,22.714,0,0,0,.813-4.988h1.5v-1.8h-6.425a32.886,32.886,0,0,0,.225-4.675,5.874,5.874,0,0,0-1-.2q-0.6-.075-0.75-0.1,0,1.675-.175,3.7A16.944,16.944,0,0,1,203.9,44.7l1.675,0.9a19.657,19.657,0,0,0,1.625-2.675,21.052,21.052,0,0,0,1.85,5.225,17.965,17.965,0,0,1-5.2,4.925l1.475,1.325A22.867,22.867,0,0,0,208,52.177a20.321,20.321,0,0,0,2.1-2.3,16.849,16.849,0,0,0,2,2.4,19.836,19.836,0,0,0,2.45,2.15Zm-7.375-14.225h3.25a19.13,19.13,0,0,1-.3,3,17.121,17.121,0,0,1-.663,2.65,11.393,11.393,0,0,1-.737,1.725,14.7,14.7,0,0,1-.975-2.775q-0.525-1.925-.825-3.5Zm-7.85-2.95,0.7-.475a13.416,13.416,0,0,0-1.525-1.9,11.5,11.5,0,0,0-1.8-1.575l-1.55,1.075a12.04,12.04,0,0,1,1.775,1.45,7.644,7.644,0,0,1,1.175,1.45l-5.225.025V37.7h10.9v-1.85Zm4.625,6.325A10.622,10.622,0,0,0,202.1,38l-1.6.975a8.687,8.687,0,0,1,1.875,1.712,10.806,10.806,0,0,1,1.325,2.163Zm-9.95,2.275a15.014,15.014,0,0,0,2.175-2.612,15.544,15.544,0,0,0,1.45-3.087l-1.65-.625a14.354,14.354,0,0,1-.938,2.025,9.174,9.174,0,0,1-1.212,1.663,12.444,12.444,0,0,1-1.425,1.337ZM195,54.452a16.451,16.451,0,0,0,5.95-5.675,18.967,18.967,0,0,1,1.337,1.763,12.5,12.5,0,0,1,1.088,1.913l1.7-1.2a29.069,29.069,0,0,0-3.25-4.3,10.5,10.5,0,0,0,.7-1.763,15.866,15.866,0,0,0,.5-1.962l-1.675-.55a18.634,18.634,0,0,1-1,2.975,13.83,13.83,0,0,0-1.275-.925,13.622,13.622,0,0,0-1.525-.875l-1.4,1.15a16.776,16.776,0,0,1,1.837,1.138,11.9,11.9,0,0,1,1.538,1.262q-1.425,2.925-5.7,5.45Z"/>
</svg>
