<svg id="Frame_5" data-name="Frame 5" xmlns="http://www.w3.org/2000/svg" width="728" height="90" viewBox="0 0 728 90">
  <defs>
    <style>
      .cls-1 {
        fill: #4b286d;
        fill-rule: evenodd;
      }
    </style>
  </defs>
  <path id="智能家居安防_讓家庭生活更輕鬆_" data-name="智能家居安防 讓家庭生活更輕鬆 " class="cls-1" d="M316.859,24.011v2.9h3.775a9.914,9.914,0,0,1-4.025,3.425,13.178,13.178,0,0,1,2.375,2.725,10.856,10.856,0,0,0,1.65-1.2v9.125l3.45-.025V40.236h7.85v0.725h3.4V30.836h-8.375a4.952,4.952,0,0,1,.75-1,4.517,4.517,0,0,1,1.05-.825,8.959,8.959,0,0,1-1.5-.912,12.132,12.132,0,0,1-1.4-1.187h2.675v-2.9h-3.625l-0.025-.85h3.325l0.025-3.075h-5.85a6.265,6.265,0,0,0,.575-1.075l-3.25-.375a14.14,14.14,0,0,1-3.125,4.1,10.4,10.4,0,0,1,1.925,1.275h-1.65Zm7.225,10.35v-0.65h7.875v0.65h-7.875Zm0,2.95v-0.65h7.875v0.65h-7.875Zm8-7.75h2.975l-0.025.9h3.2V20.086h-9.375v10.4h3.225V29.561Zm-6.725,1.275h-3.75a14.483,14.483,0,0,0,1.475-1.9,15.1,15.1,0,0,0,2.275,1.9h0Zm-5.475-6.825,0.7-.825h0.85v0.825h-1.55Zm12.2-.85h2.95v3.275h-2.95V23.161Zm16.56,13.175v0.925a0.663,0.663,0,0,1-.075.375,0.292,0.292,0,0,1-.25.1,8.841,8.841,0,0,1-2,.025,6.657,6.657,0,0,1,.825,1.475,5.6,5.6,0,0,1,.4,1.575,9.836,9.836,0,0,0,2.05-.138,3.276,3.276,0,0,0,1.15-.387,2.1,2.1,0,0,0,.65-0.725,1.835,1.835,0,0,0,.25-0.9V27.336h-9.525V40.811h2.975V36.336h3.55Zm0-2.5h-3.55V33.261h3.55v0.575Zm0-3.075h-3.55V30.186h3.55v0.575Zm11.025-11.525-0.45.225-3.3,1.825-0.15.025V18.786h-3.125c-0.316,0-.475.1-0.475,0.3a0.618,0.618,0,0,0,.238.425,0.644,0.644,0,0,1,.237.325v5.45c-0.016.017-.033,0.009-0.05-0.025a0.07,0.07,0,0,0-.05-0.05q-1.374-2.925-2.425-4.7l-2.75,1.075a12.645,12.645,0,0,1,.975,1.725h-2.35q0.2-.4.95-1.825t1.1-2.175q-0.375-.1-1.475-0.387t-1.675-.413l-0.1.275-1.45,3.5-0.6,1.125h-2.125l1.025,3.325,7.05-.6,0.725-.125,0.425,1a16.731,16.731,0,0,1,2.25-1.087c0.284-.075.475-0.121,0.575-0.137a6.855,6.855,0,0,0,.15,1.3,2.8,2.8,0,0,0,.925,1.338,2.266,2.266,0,0,0,1.475.587h4.25l1.175-.075a2.5,2.5,0,0,0,.6-0.2,2.442,2.442,0,0,0,.475-0.312,2.741,2.741,0,0,0,.463-0.525,3.243,3.243,0,0,0,.4-0.812,20.921,20.921,0,0,0,.487-2.175l-0.4-.1a7.188,7.188,0,0,1-2.375-1.225,8.193,8.193,0,0,1-.275,1.45,2.579,2.579,0,0,1-.362.9,1.088,1.088,0,0,1-.488.275l-3.025-.025q-0.375,0-.375-0.775V24.586l1.025-.525q0.326-.175,2.425-1.187a33.355,33.355,0,0,0,3.05-1.613Zm-3.8,10.075h-3.125q-0.45,0-.45.225a0.545,0.545,0,0,0,.238.4,0.548,0.548,0,0,1,.237.4v6.725a4.219,4.219,0,0,0,.375,2,3.075,3.075,0,0,0,.938,1,2.128,2.128,0,0,0,1.212.4h4.875l0.775-.025a2.44,2.44,0,0,0,1-.612,2.96,2.96,0,0,0,.625-0.975,9.3,9.3,0,0,0,.413-1.4q0.188-.837.212-0.937-0.2-.075-1.025-0.325a4.3,4.3,0,0,1-1.125-.462q-0.3-.212-0.4-0.288l-0.3-.275a9.709,9.709,0,0,1-.375,1.525,0.976,0.976,0,0,1-.725.825h-2.875a0.5,0.5,0,0,1-.5-0.475v-1.55q2.425-1.075,6.625-3.5-0.324-.2-1.3-0.925a14.223,14.223,0,0,0-1.525-1.025,29.54,29.54,0,0,1-3.8,2.15V29.311Zm10.375-8.725v5.975h2.95v-3.05h14.75v2.95h3V20.586h-8.3c-0.066-.133-0.146-0.287-0.237-0.462s-0.413-.7-0.963-1.562l-3.725.45q0.126,0.175.563,0.663a3.9,3.9,0,0,1,.637.912h-8.675Zm17.15,6.25v-2.75H369.719l0.025,2.775,3.5,0.05a27.605,27.605,0,0,1-3.437.925,31.689,31.689,0,0,1-4.088.65,6.841,6.841,0,0,1,.963,1.375,5.313,5.313,0,0,1,.612,1.525,22.763,22.763,0,0,0,6.875-1.975,0.087,0.087,0,0,1,.138-0.013,0.223,0.223,0,0,1,.062.163,19.143,19.143,0,0,1-8.225,2.95,5.276,5.276,0,0,1,.9,1.212q0.375,0.688.8,1.663a22.028,22.028,0,0,0,7.775-3.4l0.1,0.25a15.251,15.251,0,0,1-2.275,1.513,36.506,36.506,0,0,1-3.775,1.837,21.723,21.723,0,0,1-4.2,1.35,7.6,7.6,0,0,1,1.125,1.5,10.922,10.922,0,0,1,.7,1.55,36.879,36.879,0,0,0,4-1.4l1.2-.525a6.141,6.141,0,0,1,.588,1.313,4.1,4.1,0,0,1,.212,1.413q0.75,0.025,1.7.025a8.861,8.861,0,0,0,1.95-.225,4.052,4.052,0,0,0,1.725-.825,2.3,2.3,0,0,0,.625-0.788,4.249,4.249,0,0,0,.338-1.013,15.92,15.92,0,0,0,.162-2.2,11.171,11.171,0,0,0,2.613,2.112,31.347,31.347,0,0,0,3.562,1.813h0.2a4.679,4.679,0,0,1,1.875-2.925,17.413,17.413,0,0,1-7.225-4.1,29.647,29.647,0,0,0,4.475-3.4l-2.975-1.775a18.347,18.347,0,0,1-3.525,2.85,13.948,13.948,0,0,0-1.05-1.762q-0.249-.287-0.35-0.387a9.335,9.335,0,0,0,.913-0.6,6.135,6.135,0,0,0,.862-0.75h4.225Zm-7.075,9.875a1.35,1.35,0,0,1-.35.625,1.246,1.246,0,0,1-.775.175,4.074,4.074,0,0,0-.65,0l-0.9-.075a15.84,15.84,0,0,0,2.725-1.9A3.975,3.975,0,0,1,376.319,36.711Zm30.423,4.1h3.325V32.636h-5.675V30.911h7.525v-2.95h-7.525v-1.6h6.075v-7H391.992v9.3a26.8,26.8,0,0,1-.525,5.5,12.615,12.615,0,0,1-1.825,4.45,4.843,4.843,0,0,1,2.875,1.975,11.569,11.569,0,0,0,1.637-3.525,29.473,29.473,0,0,0,.938-6.15h5.925v1.725h-5.4v8.15h3.325V40.061h7.8v0.75Zm0.425-17.25H395.192V22.236h11.975v1.325Zm-6.15,4.375h-5.825V26.361h5.825v1.575Zm5.725,9.175h-7.8v-1.55h7.8v1.55Zm8.53-9.9h3.35v-2.8h13.725v2.875h3.35v-5.95h-8.3q-0.75-1.825-1.225-2.7l-3.425.575a6.5,6.5,0,0,1,.5.888q0.2,0.438.525,1.237h-8.5v5.875Zm21.275,4.075V28.211H424.7q0.375-.85,1.05-2.825l-3.275-.8-1.425,3.625h-6.575l-0.025,3.1,5.15-.025-2.5,3.875a9.731,9.731,0,0,1,1.925.387,5.673,5.673,0,0,1,1.375.538l0.65-.8a26.917,26.917,0,0,1,2.7.95,13.587,13.587,0,0,1-4.013,1.075,25.514,25.514,0,0,1-5.212.125,8.117,8.117,0,0,1,1,1.675,4.569,4.569,0,0,1,.425,1.7,27.289,27.289,0,0,0,6.837-.725,13.863,13.863,0,0,0,4.888-2.175,27.393,27.393,0,0,1,5.575,3.05,9.188,9.188,0,0,1,.812-1.163,5.589,5.589,0,0,1,1.025-1.012,3.437,3.437,0,0,1,.888-0.5,53.593,53.593,0,0,0-5.9-3.075,17.76,17.76,0,0,0,2.25-3.925h4.225Zm-13.2,0h5.225a6.494,6.494,0,0,1-.675,1.25q-0.4.575-1.1,1.425l-4.3-1.35Zm29.717-3.35,0.05-2.475h7.825V22.336l-5.65-.05a7.921,7.921,0,0,1,1.475-.45A6.628,6.628,0,0,0,455.5,20.2a18.714,18.714,0,0,0-1.688-1.512l-2.825,1.175a9.3,9.3,0,0,1,2.075,2.475h-5.125q0.075-.2.425-0.937a10.737,10.737,0,0,0,.475-1.112l-1.425-1.05h-7.975v21.5h3.175v-6.65a2.722,2.722,0,0,1,.75,1.138,4.922,4.922,0,0,1,.4,1.538,7.914,7.914,0,0,0,1.975-.437,4.035,4.035,0,0,0,1.5-.913,4.08,4.08,0,0,0,.85-1.175,4.723,4.723,0,0,0,.45-2.325,6.255,6.255,0,0,0-.7-2.437,11.112,11.112,0,0,0-1.65-2.388q0.276-.575.725-1.812t0.6-1.612v1.825l2.45-.025v3.525q0,0.65-.012,1.188t-0.075,1.087a10.6,10.6,0,0,1-.188,1.113,6.889,6.889,0,0,1-.375,1.163,9.549,9.549,0,0,1-.587,1.175,10.922,10.922,0,0,1-.738,1.1,9.939,9.939,0,0,1-3.5,2.7,7.777,7.777,0,0,1,1.963,1.15,5.843,5.843,0,0,1,1.087,1.15,13.368,13.368,0,0,0,2.1-1.862,15.706,15.706,0,0,0,1.65-2.113,13.2,13.2,0,0,0,1.625-5.95l3.675-.025q0,2.9-.075,3.838t-0.175,1.537a1.524,1.524,0,0,1-.525.725,6.7,6.7,0,0,1-1.612.35,8.729,8.729,0,0,1-1.738.025,7.261,7.261,0,0,1,.963,1.613,6.785,6.785,0,0,1,.512,1.787l0.4-.025A8.326,8.326,0,0,0,457.614,40a3.008,3.008,0,0,0,1.5-1.538,6.928,6.928,0,0,0,.4-1.825q0.126-1.15.125-3.8l0.025-4.9h-6.6Zm-10.025-.55a8.833,8.833,0,0,1,2.4,4.25,2.851,2.851,0,0,1-.162.787,1.059,1.059,0,0,1-.163.238,2.19,2.19,0,0,1-1.075.538,9.353,9.353,0,0,1-1.425.137l0.025-10.925h2.2Zm-142.4,41.05a19.479,19.479,0,0,0,2.525-.85v1.425a0.446,0.446,0,0,1-.188.138c-0.092.042-.337,0.138-0.737,0.288l0.95,1.5q1.25-.5,5.025-1.55l-0.05-1.675q-0.975.2-3.15,0.775V66.461a7.89,7.89,0,0,0,1.6-1.55h0.6a9.288,9.288,0,0,0,.9,2,6.928,6.928,0,0,0,2.562,2.588,11.974,11.974,0,0,0,3.713,1.412l0.8-1.65a8.076,8.076,0,0,1-1.725-.362,9.691,9.691,0,0,1-2.075-1.013,10.668,10.668,0,0,0,2.5-1.95l-1.15-1.05h1.625l-0.025-1.675h-3.65V62.236h2.625V60.561h-2.625v-0.8h3.375v-1.65h-3.35v-1.05h2.725V52.836h-5.775v4.275l1.3-.025-0.025,1.025h-3.6a5.162,5.162,0,0,1,0-1.025h1.225v-4.25h-5.75v4.25h2.775v1.025h-3.35l0.025,1.65h3.35v0.775l-2.55.025v1.65h2.55v1h-3.525v1.7l4.25,0.05a11.122,11.122,0,0,1-4.725,1.975v-4.75h-5.675v8.275h1.8V68.736h2.1v1.7h1.775l0.05-3.225Zm8.325-6.2-0.025.975h-3.5V62.236h3.525Zm-0.025-2.475v0.8h-3.6v-0.8h3.6Zm3.65,5.1a10.517,10.517,0,0,1-2.475,1.975,5.394,5.394,0,0,1-.55-0.912,9.085,9.085,0,0,1-.475-1.062h3.5Zm-14.8-.975v3.15h-2.05l0.025-3.15h2.025Zm13.925-8.375h-2.325v-1.15h2.325v1.15Zm-9.225-1.15h2.375v1.2h-2.375v-1.2Zm-2.625-2.35-2.725-.05,0.95-.4a14.216,14.216,0,0,0-.988-1.825,8.836,8.836,0,0,0-1.162-1.5l-1.675.9a8.279,8.279,0,0,1,1.3,1.575,9.3,9.3,0,0,1,.625,1.3h-3.45l0.025,1.75h7.625V52.086l14.15,0.025v-1.75h-6.475a14.43,14.43,0,0,0-1.85-2.15l-1.725.9q1.224,1.025,1.3,1.113c0.05,0.059.091,0.1,0.125,0.137l-6.025-.025Zm0.15,3.175h-6.3v1.775l6.3-.025v-1.75Zm0,3.325h-6.3v1.775h6.3V58.511Zm37.957-7.1h-8.45a9.313,9.313,0,0,0-1.512-1.95,8.628,8.628,0,0,0-1.663-1.325l-1.575,1.175a18.584,18.584,0,0,1,1.963,1.575,3.7,3.7,0,0,1,.412.525h-9.025v4.65h1.925l-0.025-2.875h16.025v2.775h1.925v-4.55Zm1.2,16.075a6.942,6.942,0,0,1-2.162-1.35,11.707,11.707,0,0,1-1.913-2.225,9.825,9.825,0,0,1-1.275-2.6,18.291,18.291,0,0,0,2.775-2.5l-1.45-1.275a10.845,10.845,0,0,1-4.625,3.6,6.624,6.624,0,0,0-1.012-1.588,5.909,5.909,0,0,0-1.338-1.212,17.954,17.954,0,0,0,2.4-1.6h4.6V54.961h-14.1l-0.025,1.8,6.3,0.025a25.82,25.82,0,0,1-9.1,2.825l1.3,1.65a21.814,21.814,0,0,0,6.775-1.975,7.565,7.565,0,0,1,1.25.85,16.5,16.5,0,0,1-2.325,1.375,17.629,17.629,0,0,1-3.312,1.212,35.913,35.913,0,0,1-4.163.837l1.325,1.625a18.855,18.855,0,0,0,5.063-1.225,23.223,23.223,0,0,0,4.437-2.4,10.331,10.331,0,0,1,.675,1.45,16.527,16.527,0,0,1-5.25,3.038,34.5,34.5,0,0,1-6.75,1.638l1.375,1.725a40.377,40.377,0,0,0,4.163-1.013,25.883,25.883,0,0,0,3.8-1.462,13.822,13.822,0,0,0,3.062-1.975,20.919,20.919,0,0,1-.1,3.35,1.1,1.1,0,0,1-.275.475,1.373,1.373,0,0,1-.45.35,8.371,8.371,0,0,1-1.825-.162,20.892,20.892,0,0,1-2.375-.638l0.775,2.225a9.724,9.724,0,0,0,4.375.175,2.162,2.162,0,0,0,1.113-.862,4.849,4.849,0,0,0,.587-2.163,14.406,14.406,0,0,0-.012-2.462,18.658,18.658,0,0,0-.363-2.463l1.2-.5a14.887,14.887,0,0,0,1.025,2.237,12.2,12.2,0,0,0,1.913,2.563,7.771,7.771,0,0,0,2.662,1.875Zm3.14,3.075a11.116,11.116,0,0,0,2.363-4.25,18.815,18.815,0,0,0,.662-5.2v-8.65h18.05V50.636h-8.825l0.425-.425a8.779,8.779,0,0,0-1.825-1.475,7.789,7.789,0,0,0-2.075-.9q-0.5.525-1.425,1.35a6.467,6.467,0,0,1,3.025,1.45h-9.35V61.111a17.317,17.317,0,0,1-.55,4.712,8.718,8.718,0,0,1-2.1,3.563Zm21.95-2.7q-4.875.25-9,.1a10.7,10.7,0,0,1-1.875-.263,10.257,10.257,0,0,1-2.95-1.387,13.872,13.872,0,0,0,1.475-6.625h-3.1a15.056,15.056,0,0,0,1.6-1.812,18.208,18.208,0,0,0,1.425-2.112V55.036l1.225,1.575q0.949,0.025,1.988-.05a14.946,14.946,0,0,0,1.687-.2v2.775h-4.2v1.8h4.2l-0.025,3.675h-5.175v1.825h11.95V64.611h-4.875V60.936h4.25V59.111l-4.25.025v-3.1a19.057,19.057,0,0,0,4.275-1.65l-1.275-1.4q-3.276,1.9-9.775,1.775v-0.65h-5.925v1.8h3.625a31.732,31.732,0,0,1-3.375,3.75v1.85h3.825a9.286,9.286,0,0,1-.325,1.7,10.249,10.249,0,0,1-.625,1.65,14.069,14.069,0,0,1-1.625-2.85l-1.575.95a21.018,21.018,0,0,0,1.363,2.475,11.668,11.668,0,0,0,.837,1.15,15.274,15.274,0,0,1-1.687,1.588,10.773,10.773,0,0,1-1.838,1.212l1.325,1.425a16.627,16.627,0,0,0,1.988-1.413,15.813,15.813,0,0,0,1.687-1.587,9.345,9.345,0,0,0,5.725,1.9l8.225,0.1Zm6.053-17.475a15.326,15.326,0,0,1-.75,3.775,11.29,11.29,0,0,1-1.5,2.925,18.992,18.992,0,0,1-2.325,2.6l1.9,1.025a15.607,15.607,0,0,0,3.375-4.875h4.875l-0.025,4.65h-6.45v1.825h6.45l0.025,5.325h-8.925v1.85h20.625v-1.85h-9.775l0.025-5.35,6.975,0.025V60.486h-6.975V55.811l8.15,0.025v-1.85h-8.175V48.661h-1.95l0.025,5.325h-4.2c0.016-.083.075-0.316,0.175-0.7s0.183-.766.25-1.15a6.912,6.912,0,0,0,.1-1.175Zm37.977,20.525,1.925,0.025V61.611l-5.125.025v-4.2h7.075v-1.8l-7.075-.025v-3.5a26.45,26.45,0,0,0,5.925-2.075l-1.325-1.425a22.619,22.619,0,0,1-4.862,1.538,42.166,42.166,0,0,1-7.938.663l1,1.85q4-.15,5.275-0.35v3.3l-7.025.025v1.8h7.05l-0.025,4.2h-5.15l0.025,9.375h1.9l0.025-1.675h8.325v1.575Zm0-7.475v4.1h-8.325v-4.1h8.325Zm-11.025-10.65a9.569,9.569,0,0,0-2.037-1.9,10.1,10.1,0,0,0-2.438-1.3l-1.275,1.275a11.04,11.04,0,0,1,4.425,3.275Zm-1.925,5.825a10.281,10.281,0,0,0-4.175-3.5l-1.475,1.3a8.782,8.782,0,0,1,4.3,3.55Zm-3.55,11.7a20.721,20.721,0,0,0,4.6-8.625l-1.575-.75a20.27,20.27,0,0,1-4.55,8.275Zm44.588-1.4q-2.325-.05-4.888-0.338a42.3,42.3,0,0,1-4.512-.725,12.011,12.011,0,0,1-3.05-1.037,7.485,7.485,0,0,0,1.05-1.888,9.532,9.532,0,0,0,.575-2.213h7.3v-9.25H425.9v-1.85l9.675,0.025V49.861H414.251v1.775l9.8-.025v1.85h-7.175l-0.025,9.25h6.8a7.983,7.983,0,0,1-.513,1.65,6.879,6.879,0,0,1-.862,1.5,29.47,29.47,0,0,1-3.65-2.85l-1.45.975a17.032,17.032,0,0,0,3.625,3.2,21.675,21.675,0,0,1-3.763,1.412,33.84,33.84,0,0,1-3.512.787l1.125,1.675a17.569,17.569,0,0,0,7.175-2.375l0.775-.525a23.327,23.327,0,0,0,4.775,1.662,45.425,45.425,0,0,0,7.825,1.013Zm-5.35-11.75h-5.1l0.025-1.925h5.075v1.925Zm-12.3-1.925,5.325,0.025v1.9h-5.325V55.236Zm12.325,3.7v1.975h-5.3l0.125-1.975h5.175Zm-12.325,0H424l-0.1,1.975-5.175-.025v-1.95Zm19.7-6.05H442.8l0.025,1.4-3.5-.025,0.025,9.025h3.475v1.45h-4.85v1.775H442.9v4.45l1.75,0.05-0.025-4.5H448.9l-0.025-1.775h-4.225v-1.45h3.275V54.261l-3.275.025v-1.35l3.85-.05V51.111h-3.9l0.05-2.65h-1.9l0.025,2.65h-4.325Zm4.4,3.15v1.8h-1.7l0.025-1.8h1.675Zm3.325,5.525-1.55-.05,0.05-1.925,1.5,0.025v1.95Zm0-5.525v1.8H444.6l-0.025-1.8h1.575Zm-5,3.55,1.675,0.025v1.85l-1.675.025v-1.9Zm12.125,4.475v3.725H448.2v1.8h12.1V67.761h-5.15l0.025-3.725h3.8l-0.05-1.8-9.625.025v1.8h3.975ZM459.7,49.836H448.6v1.75l11.1-.025V49.836Zm0.125,10.95a16.927,16.927,0,0,0-2.525-4.175,20.928,20.928,0,0,0,2.325-3.875L458,51.761a16.694,16.694,0,0,1-2.95,4.975,9.381,9.381,0,0,1,1.762,2.125,26.478,26.478,0,0,1,1.438,2.85ZM451.3,51.811a14.393,14.393,0,0,1-2.975,5,10.014,10.014,0,0,1,3.125,4.925l1.625-.975q-0.6-1.275-1.2-2.325a8.264,8.264,0,0,0-1.3-1.75,16.072,16.072,0,0,0,2.3-3.75q-0.951-.725-1.575-1.125h0Zm5.125,8.975a13.9,13.9,0,0,0-2.425-4.2,12.009,12.009,0,0,0,1.2-1.8,15.537,15.537,0,0,0,1-2.15c-0.1-.05-0.33-0.166-0.688-0.35a5.244,5.244,0,0,0-.887-0.375,14.841,14.841,0,0,1-2.8,4.675v0.225a10.7,10.7,0,0,1,3,4.975Zm19.337-4v-1.6h-8.85V54.861h7.425V53.286h-7.375l-0.025-.35h7.425V51.361h-7.425v-0.4h8.125V49.236h-9.9l0.025,5.95h-1.975v1.6l3.3,0.05q-0.15.1-.65,0.5a6.512,6.512,0,0,1-.937.638q-0.438.238-.838,0.413l0.8,1.375,1.425-.1,6.925-.325a8.075,8.075,0,0,1,.7.8l1.375-1a7.55,7.55,0,0,0-1.35-1.312,11.082,11.082,0,0,0-1.5-1.038h3.3Zm0.05-4a21.761,21.761,0,0,0,7.9-3.45l-1.225-1.225a21.089,21.089,0,0,1-7.975,3.1Zm6.95-2.025a20.416,20.416,0,0,1-7.425,3.325l1.325,1.55a31.631,31.631,0,0,0,3.988-1.513,16.09,16.09,0,0,0,3.312-2.087Zm-11.4,6.075-0.925.625c0.216,0.084.413,0.163,0.588,0.238s0.3,0.134.375,0.175a0.191,0.191,0,1,1,.062.038q-1.9.125-3.975,0.075a6.355,6.355,0,0,0,1.425-1.2Zm14.15,7.475a9.071,9.071,0,0,1-1.462-1.05,8.457,8.457,0,0,1-1.475-1.687,10.417,10.417,0,0,1-1.113-2.113h-4.475v1.825h3.375a10.151,10.151,0,0,0,3.9,4.55Zm-10.275-4.925a13.281,13.281,0,0,1-.687,1.637,8.8,8.8,0,0,1-1.188,1.775,15.872,15.872,0,0,1-1.8,1.788l1.575,1.1a15.291,15.291,0,0,0,2.313-2.6,10.289,10.289,0,0,0,1.387-2.925Zm9.05,10.375a10.75,10.75,0,0,0-3.7-4.875l-1.55.875a8.251,8.251,0,0,1,1.063.9,8.457,8.457,0,0,1,.962,1.1l-5.25.225a9.093,9.093,0,0,0,2-2.138,11.4,11.4,0,0,0,1.5-2.962l-1.7-.85a12.388,12.388,0,0,1-1.812,3.537,13.227,13.227,0,0,1-2.838,2.863l1.15,1.65,2.8-.275,5.15-.35,0.475,1.175Zm-0.475-16.175a25.415,25.415,0,0,1-9.075,3.9l1.1,1.575q2.124-.6,3.813-1.225a19.615,19.615,0,0,0,3.062-1.425,18.3,18.3,0,0,0,2.3-1.55Zm-10.875,13.05a12.126,12.126,0,0,0-1.4-1.8,9.265,9.265,0,0,0-1.675-1.475l-0.3.225-0.025-.675h3.6l-0.025-1.8h-3.55v-1.3h-1.875l-0.025,1.3h-4.2l-0.025,1.8h3.95a7.153,7.153,0,0,1-1.85,2.537,15.877,15.877,0,0,1-3.025,2.213q0.225,0.3,1.225,1.35a14.264,14.264,0,0,0,2.375-1.675,6.923,6.923,0,0,0,1.55-1.75v5.275h1.875V65.136a7.2,7.2,0,0,1,.975,1.138,14.2,14.2,0,0,1,.85,1.463Z"/>
</svg>
