<svg id="hing" xmlns="http://www.w3.org/2000/svg" width="300" height="50" viewBox="0 0 300 50">
  <defs>
    <style>
      .cls-1 {
        fill: #58595b;
        fill-rule: evenodd;
      }
    </style>
  </defs>
  <path id="terms" class="cls-1" d="M149.212,41.939a6,6,0,0,0-.494.556l0.351,0.25a4.665,4.665,0,0,0,.386-0.633,7.381,7.381,0,0,0,.407.633l0.357-.25a4.932,4.932,0,0,0-.511-0.556,3.75,3.75,0,0,0,.74-0.165l-0.137-.418a5.155,5.155,0,0,0-.7.282q0.058-.438.068-0.73h-0.431q0,0.2.06,0.733a4.629,4.629,0,0,0-.687-0.285l-0.136.418q0.343,0.091.728,0.165h0Zm1.935,2.333a1.9,1.9,0,0,0,.734.8,2.072,2.072,0,0,0,1.1.294,2.183,2.183,0,0,0,1.058-.266,1.817,1.817,0,0,0,.757-0.784,2.524,2.524,0,0,0,.268-1.174,2.569,2.569,0,0,0-.254-1.158,1.875,1.875,0,0,0-.739-0.8,2.1,2.1,0,0,0-1.087-.285,1.992,1.992,0,0,0-1.5.608A2.331,2.331,0,0,0,150.9,43.2,2.407,2.407,0,0,0,151.147,44.272Zm0.786-2.458a1.481,1.481,0,0,1,1.053-.416,1.437,1.437,0,0,1,.777.216,1.377,1.377,0,0,1,.526.609,2.2,2.2,0,0,1,.179.919,1.822,1.822,0,0,1-.42,1.286,1.487,1.487,0,0,1-2.133,0,1.714,1.714,0,0,1-.424-1.228A1.845,1.845,0,0,1,151.933,41.814ZM156.3,45.3V43.59a1.051,1.051,0,0,1,.248-0.815,0.871,0.871,0,0,1,.59-0.215,0.708,0.708,0,0,1,.372.1,0.514,0.514,0,0,1,.222.256,1.431,1.431,0,0,1,.062.484v1.9h0.535V43.375a2.975,2.975,0,0,0-.03-0.515,1.01,1.01,0,0,0-.166-0.391,0.826,0.826,0,0,0-.358-0.266,1.33,1.33,0,0,0-.525-0.1,1.138,1.138,0,0,0-1,.515V42.171h-0.481V45.3H156.3Zm6.7,0h0.559a1.159,1.159,0,0,1-.135-0.375,7.389,7.389,0,0,1-.034-0.934V43.281a2.925,2.925,0,0,0-.027-0.488,0.825,0.825,0,0,0-.167-0.36,0.866,0.866,0,0,0-.371-0.237,1.913,1.913,0,0,0-.657-0.094,2.129,2.129,0,0,0-.716.11,1.029,1.029,0,0,0-.472.315,1.282,1.282,0,0,0-.235.537l0.523,0.071a0.8,0.8,0,0,1,.266-0.463,0.953,0.953,0,0,1,.557-0.131,0.9,0.9,0,0,1,.609.179,0.582,0.582,0,0,1,.152.456q0,0.029,0,.138a4.923,4.923,0,0,1-.954.182,3.84,3.84,0,0,0-.475.079,1.3,1.3,0,0,0-.385.174,0.863,0.863,0,0,0-.276.3,0.841,0.841,0,0,0-.106.419,0.825,0.825,0,0,0,.28.643,1.153,1.153,0,0,0,.8.252,1.663,1.663,0,0,0,.589-0.1,1.983,1.983,0,0,0,.572-0.353,1.128,1.128,0,0,0,.107.385h0Zm-0.151-1.374a1.275,1.275,0,0,1-.086.53,0.829,0.829,0,0,1-.354.366,1.111,1.111,0,0,1-.55.134,0.7,0.7,0,0,1-.473-0.141,0.465,0.465,0,0,1-.088-0.6,0.462,0.462,0,0,1,.211-0.172,2.024,2.024,0,0,1,.466-0.106,3.94,3.94,0,0,0,.874-0.2v0.194Zm3.586,0.865a1.732,1.732,0,0,1,.226-0.287q0.137-.143.618-0.543a8.581,8.581,0,0,0,.824-0.759,1.975,1.975,0,0,0,.355-0.527,1.289,1.289,0,0,0,.107-0.509,1.127,1.127,0,0,0-.365-0.853,1.391,1.391,0,0,0-.993-0.344,1.458,1.458,0,0,0-.989.319,1.335,1.335,0,0,0-.425.928l0.55,0.056a0.865,0.865,0,0,1,.234-0.636,0.841,0.841,0,0,1,.618-0.23,0.824,0.824,0,0,1,.593.216,0.7,0.7,0,0,1,.227.531,1.089,1.089,0,0,1-.249.637,5.909,5.909,0,0,1-.96.914,5.45,5.45,0,0,0-.7.653,1.949,1.949,0,0,0-.353.574,0.938,0.938,0,0,0-.062.368h2.879V44.787H166.44ZM170.585,44V43.469h-1.643V44h1.643Zm0.847,2.563a0.78,0.78,0,0,0,.44-0.122,1.046,1.046,0,0,0,.327-0.384,6.312,6.312,0,0,0,.3-0.709l1.2-3.178h-0.535l-0.674,1.821a7.013,7.013,0,0,0-.22.712c-0.067-.253-0.144-0.494-0.229-0.724l-0.656-1.809h-0.577l1.2,3.13q-0.033.085-.048,0.13a2.644,2.644,0,0,1-.163.394,0.485,0.485,0,0,1-.176.165,0.59,0.59,0,0,1-.285.059A1.2,1.2,0,0,1,171.028,46l0.059,0.5a1.085,1.085,0,0,0,.345.065h0Zm4.43-1.786a0.824,0.824,0,0,1-.5.153,0.881,0.881,0,0,1-.66-0.274,1.2,1.2,0,0,1-.294-0.788h2.353q0-.094,0-0.141a1.682,1.682,0,0,0-.4-1.2,1.355,1.355,0,0,0-1.034-.427,1.393,1.393,0,0,0-1.063.435,1.713,1.713,0,0,0-.41,1.224,1.641,1.641,0,0,0,.4,1.184,1.452,1.452,0,0,0,1.1.422,1.467,1.467,0,0,0,.9-0.265,1.332,1.332,0,0,0,.484-0.744l-0.552-.068A1.011,1.011,0,0,1,175.862,44.778Zm-1.148-2a0.853,0.853,0,0,1,.619-0.244,0.824,0.824,0,0,1,.663.306,1.053,1.053,0,0,1,.2.591h-1.762A0.96,0.96,0,0,1,174.714,42.78Zm4.834,2.516h0.558a1.183,1.183,0,0,1-.135-0.375,7.389,7.389,0,0,1-.034-0.934V43.281a2.925,2.925,0,0,0-.027-0.488,0.835,0.835,0,0,0-.166-0.36,0.864,0.864,0,0,0-.372-0.237,1.91,1.91,0,0,0-.656-0.094,2.125,2.125,0,0,0-.716.11,1.032,1.032,0,0,0-.473.315,1.269,1.269,0,0,0-.234.537l0.523,0.071a0.8,0.8,0,0,1,.265-0.463,0.954,0.954,0,0,1,.558-0.131,0.9,0.9,0,0,1,.609.179,0.581,0.581,0,0,1,.151.456q0,0.029,0,.138a4.923,4.923,0,0,1-.954.182,3.874,3.874,0,0,0-.475.079,1.3,1.3,0,0,0-.385.174,0.863,0.863,0,0,0-.276.3,0.851,0.851,0,0,0-.105.419,0.827,0.827,0,0,0,.279.643,1.153,1.153,0,0,0,.8.252,1.669,1.669,0,0,0,.59-0.1,2,2,0,0,0,.572-0.353,1.106,1.106,0,0,0,.107.385h0ZM179.4,43.922a1.275,1.275,0,0,1-.086.53,0.824,0.824,0,0,1-.354.366,1.107,1.107,0,0,1-.549.134,0.7,0.7,0,0,1-.474-0.141,0.465,0.465,0,0,1-.088-0.6,0.467,0.467,0,0,1,.211-0.172,2.036,2.036,0,0,1,.467-0.106,3.943,3.943,0,0,0,.873-0.2v0.194Zm1.855,1.374V43.66a2.057,2.057,0,0,1,.089-0.618,0.568,0.568,0,0,1,.2-0.29,0.513,0.513,0,0,1,.315-0.1,0.77,0.77,0,0,1,.392.115l0.184-.491a1.049,1.049,0,0,0-.549-0.171,0.6,0.6,0,0,0-.343.106,1.3,1.3,0,0,0-.341.438V42.171h-0.481V45.3h0.535Zm4.121-.453a0.359,0.359,0,0,1-.183-0.038,0.22,0.22,0,0,1-.092-0.1,0.91,0.91,0,0,1-.028-0.291V42.583h0.537V42.171h-0.537V41.08l-0.532.318v0.774h-0.392v0.412h0.392v1.8a1.9,1.9,0,0,0,.065.625,0.515,0.515,0,0,0,.226.24,0.922,0.922,0,0,0,.452.091,2.018,2.018,0,0,0,.4-0.047l-0.078-.468a1.755,1.755,0,0,1-.234.02h0Zm2.506-.065a0.824,0.824,0,0,1-.5.153,0.879,0.879,0,0,1-.66-0.274,1.2,1.2,0,0,1-.294-0.788h2.353q0-.094,0-0.141a1.686,1.686,0,0,0-.4-1.2,1.355,1.355,0,0,0-1.034-.427,1.4,1.4,0,0,0-1.064.435,1.718,1.718,0,0,0-.41,1.224,1.642,1.642,0,0,0,.406,1.184,1.45,1.45,0,0,0,1.1.422,1.467,1.467,0,0,0,.9-0.265,1.332,1.332,0,0,0,.484-0.744l-0.552-.068A1.018,1.018,0,0,1,187.878,44.778Zm-1.148-2a0.852,0.852,0,0,1,.619-0.244,0.825,0.825,0,0,1,.663.306,1.061,1.061,0,0,1,.2.591h-1.762A0.96,0.96,0,0,1,186.73,42.78Zm3.2,2.516V43.66a2.026,2.026,0,0,1,.089-0.618,0.562,0.562,0,0,1,.2-0.29,0.513,0.513,0,0,1,.315-0.1,0.773,0.773,0,0,1,.392.115l0.184-.491a1.05,1.05,0,0,0-.55-0.171,0.6,0.6,0,0,0-.343.106,1.3,1.3,0,0,0-.34.438V42.171H189.4V45.3h0.535Zm2.086,0V43.675a1.9,1.9,0,0,1,.087-0.653,0.669,0.669,0,0,1,.277-0.344,0.785,0.785,0,0,1,.418-0.118,0.5,0.5,0,0,1,.428.176,0.888,0.888,0,0,1,.13.53V45.3h0.535V43.481a0.958,0.958,0,0,1,.22-0.7,0.752,0.752,0,0,1,.553-0.219,0.6,0.6,0,0,1,.321.085,0.44,0.44,0,0,1,.188.225,1.426,1.426,0,0,1,.052.457V45.3h0.532V43.151a1.091,1.091,0,0,0-.253-0.793,0.965,0.965,0,0,0-.721-0.257,1.135,1.135,0,0,0-.975.547,0.773,0.773,0,0,0-.316-0.4,1.05,1.05,0,0,0-.575-0.144,1.114,1.114,0,0,0-.957.509V42.171h-0.478V45.3h0.534Zm5.215,0v-0.6h-0.609v0.6h0.609Zm5.342-.691a1.247,1.247,0,0,1-.82.277,1.426,1.426,0,0,1-.74-0.2,1.2,1.2,0,0,1-.5-0.613,2.609,2.609,0,0,1-.162-0.961,2.557,2.557,0,0,1,.136-0.828,1.264,1.264,0,0,1,.474-0.64,1.42,1.42,0,0,1,.84-0.238,1.182,1.182,0,0,1,.725.215,1.332,1.332,0,0,1,.439.685l0.568-.132a1.712,1.712,0,0,0-.621-0.927,1.8,1.8,0,0,0-1.1-.33,2.18,2.18,0,0,0-1.057.26,1.768,1.768,0,0,0-.739.762,2.513,2.513,0,0,0-.26,1.175,2.9,2.9,0,0,0,.23,1.156,1.773,1.773,0,0,0,.671.822,2.085,2.085,0,0,0,1.146.284A1.809,1.809,0,0,0,202.952,45a1.919,1.919,0,0,0,.652-1.073l-0.576-.144A1.415,1.415,0,0,1,202.573,44.6Zm1.908,0.341a1.427,1.427,0,0,0,1.071.421,1.556,1.556,0,0,0,.762-0.191,1.287,1.287,0,0,0,.532-0.537,2.047,2.047,0,0,0,.183-0.949,1.6,1.6,0,0,0-.413-1.166,1.423,1.423,0,0,0-1.064-.422,1.476,1.476,0,0,0-.992.347,1.6,1.6,0,0,0-.487,1.286A1.671,1.671,0,0,0,204.481,44.946Zm0.406-2.109a0.887,0.887,0,0,1,1.326,0,1.279,1.279,0,0,1,.266.878,1.355,1.355,0,0,1-.264.915,0.886,0.886,0,0,1-1.328,0A1.654,1.654,0,0,1,204.887,42.836Zm3.285,2.46V43.59a1.055,1.055,0,0,1,.248-0.815,0.871,0.871,0,0,1,.59-0.215,0.712,0.712,0,0,1,.373.1,0.516,0.516,0,0,1,.221.256,1.431,1.431,0,0,1,.062.484v1.9H210.2V43.375a2.975,2.975,0,0,0-.03-0.515,1.01,1.01,0,0,0-.166-0.391,0.826,0.826,0,0,0-.358-0.266,1.329,1.329,0,0,0-.524-0.1,1.139,1.139,0,0,0-1,.515V42.171h-0.481V45.3h0.535Zm5.361,0V40.983H213V42.53a1.057,1.057,0,0,0-.871-0.429,1.272,1.272,0,0,0-.7.2,1.231,1.231,0,0,0-.472.584,2.2,2.2,0,0,0-.158.849,1.969,1.969,0,0,0,.174.849,1.358,1.358,0,0,0,.49.575,1.246,1.246,0,0,0,.694.206,0.983,0.983,0,0,0,.882-0.465V45.3h0.5Zm-1.948-2.468a0.745,0.745,0,0,1,.6-0.288,0.772,0.772,0,0,1,.615.3,1.461,1.461,0,0,1,.249.941,1.3,1.3,0,0,1-.245.866,0.758,0.758,0,0,1-.595.284,0.775,0.775,0,0,1-.6-0.3,1.35,1.35,0,0,1-.255-0.9A1.416,1.416,0,0,1,211.585,42.828Zm3.261-1.236V40.983h-0.535v0.609h0.535Zm0,3.7V42.171h-0.535V45.3h0.535Zm1.7-.453a0.361,0.361,0,0,1-.183-0.038,0.22,0.22,0,0,1-.092-0.1,0.91,0.91,0,0,1-.028-0.291V42.583h0.537V42.171h-0.537V41.08l-0.532.318v0.774H215.32v0.412h0.392v1.8a1.9,1.9,0,0,0,.065.625,0.515,0.515,0,0,0,.226.24,0.924,0.924,0,0,0,.452.091,2.01,2.01,0,0,0,.4-0.047l-0.078-.468a1.755,1.755,0,0,1-.234.02h0Zm1.284-3.251V40.983H217.3v0.609h0.535Zm0,3.7V42.171H217.3V45.3h0.535Zm1.013-.35a1.424,1.424,0,0,0,1.071.421,1.562,1.562,0,0,0,.762-0.191,1.287,1.287,0,0,0,.532-0.537,2.048,2.048,0,0,0,.182-0.949,1.594,1.594,0,0,0-.413-1.166,1.42,1.42,0,0,0-1.063-.422,1.476,1.476,0,0,0-.992.347,1.6,1.6,0,0,0-.488,1.286A1.668,1.668,0,0,0,218.844,44.946Zm0.405-2.109a0.888,0.888,0,0,1,1.327,0,1.284,1.284,0,0,1,.266.878,1.349,1.349,0,0,1-.265.915,0.886,0.886,0,0,1-1.328,0A1.66,1.66,0,0,1,219.249,42.836Zm3.285,2.46V43.59a1.055,1.055,0,0,1,.248-0.815,0.873,0.873,0,0,1,.59-0.215,0.709,0.709,0,0,1,.373.1,0.507,0.507,0,0,1,.221.256,1.4,1.4,0,0,1,.063.484v1.9h0.534V43.375a3,3,0,0,0-.029-0.515,1.011,1.011,0,0,0-.167-0.391,0.82,0.82,0,0,0-.358-0.266,1.325,1.325,0,0,0-.524-0.1,1.137,1.137,0,0,0-1,.515V42.171H222V45.3h0.535Zm3-.182a1.492,1.492,0,0,0,.937.253,1.653,1.653,0,0,0,.666-0.128,1.007,1.007,0,0,0,.45-0.362,0.883,0.883,0,0,0,.156-0.5,0.772,0.772,0,0,0-.128-0.453,0.8,0.8,0,0,0-.352-0.278,6.617,6.617,0,0,0-.792-0.246c-0.261-.071-0.419-0.116-0.472-0.135a0.468,0.468,0,0,1-.205-0.141,0.287,0.287,0,0,1-.065-0.185,0.35,0.35,0,0,1,.157-0.283,0.881,0.881,0,0,1,.526-0.121,0.762,0.762,0,0,1,.483.135,0.565,0.565,0,0,1,.206.377l0.523-.071a1.12,1.12,0,0,0-.184-0.484,0.883,0.883,0,0,0-.415-0.287,1.84,1.84,0,0,0-.652-0.106,1.639,1.639,0,0,0-.462.063,1.111,1.111,0,0,0-.34.154,0.856,0.856,0,0,0-.263.3,0.8,0.8,0,0,0-.1.387,0.769,0.769,0,0,0,.462.716,5,5,0,0,0,.815.255,2.362,2.362,0,0,1,.547.179,0.321,0.321,0,0,1,.157.282,0.442,0.442,0,0,1-.178.349,0.842,0.842,0,0,1-.547.149,0.872,0.872,0,0,1-.569-0.168,0.734,0.734,0,0,1-.248-0.482l-0.529.082A1.176,1.176,0,0,0,225.53,45.114Zm6.7,0.182h0.559a1.162,1.162,0,0,1-.136-0.375,7.6,7.6,0,0,1-.034-0.934V43.281a3.076,3.076,0,0,0-.026-0.488,0.836,0.836,0,0,0-.167-0.36,0.866,0.866,0,0,0-.371-0.237A1.917,1.917,0,0,0,231.4,42.1a2.129,2.129,0,0,0-.716.11,1.029,1.029,0,0,0-.472.315,1.282,1.282,0,0,0-.235.537l0.523,0.071a0.8,0.8,0,0,1,.266-0.463,0.951,0.951,0,0,1,.557-0.131,0.9,0.9,0,0,1,.609.179,0.582,0.582,0,0,1,.152.456c0,0.02,0,.066,0,0.138a4.923,4.923,0,0,1-.954.182,3.863,3.863,0,0,0-.476.079,1.309,1.309,0,0,0-.384.174,0.875,0.875,0,0,0-.277.3,0.851,0.851,0,0,0-.105.419,0.827,0.827,0,0,0,.279.643,1.155,1.155,0,0,0,.8.252,1.669,1.669,0,0,0,.59-0.1,2,2,0,0,0,.572-0.353,1.128,1.128,0,0,0,.107.385h0Zm-0.151-1.374a1.257,1.257,0,0,1-.087.53,0.827,0.827,0,0,1-.353.366,1.114,1.114,0,0,1-.55.134,0.7,0.7,0,0,1-.474-0.141,0.463,0.463,0,0,1-.087-0.6,0.457,0.457,0,0,1,.211-0.172,2.024,2.024,0,0,1,.466-0.106,3.969,3.969,0,0,0,.874-0.2v0.194Zm1.857,2.571V44.972a1.1,1.1,0,0,0,.349.282,1.016,1.016,0,0,0,.48.112,1.321,1.321,0,0,0,1.2-.793,2.069,2.069,0,0,0,.174-0.864,2.1,2.1,0,0,0-.158-0.822,1.231,1.231,0,0,0-1.179-.787,1.077,1.077,0,0,0-.526.119,1.184,1.184,0,0,0-.389.357V42.171H233.4v4.322h0.535Zm0.213-3.662a0.771,0.771,0,0,1,.6-0.316,0.75,0.75,0,0,1,.593.3,1.373,1.373,0,0,1,.248.894,1.409,1.409,0,0,1-.254.925,0.776,0.776,0,0,1-.611.3,0.761,0.761,0,0,1-.6-0.288,1.352,1.352,0,0,1-.246-0.892A1.4,1.4,0,0,1,234.15,42.832Zm3.143,3.662V44.972a1.1,1.1,0,0,0,.349.282,1.016,1.016,0,0,0,.48.112,1.321,1.321,0,0,0,1.2-.793,2.069,2.069,0,0,0,.174-0.864,2.1,2.1,0,0,0-.158-0.822,1.231,1.231,0,0,0-1.179-.787,1.077,1.077,0,0,0-.526.119,1.184,1.184,0,0,0-.389.357V42.171h-0.488v4.322h0.535Zm0.213-3.662a0.771,0.771,0,0,1,.6-0.316,0.75,0.75,0,0,1,.593.3,1.373,1.373,0,0,1,.248.894,1.409,1.409,0,0,1-.254.925,0.776,0.776,0,0,1-.611.3,0.761,0.761,0,0,1-.6-0.288,1.352,1.352,0,0,1-.246-0.892A1.4,1.4,0,0,1,237.506,42.832Zm3.172-1.849h-0.535v3.4c0,0.139,0,.267.011,0.384a0.7,0.7,0,0,0,.08.3,0.479,0.479,0,0,0,.22.2,1.026,1.026,0,0,0,.432.072,1.567,1.567,0,0,0,.183-0.012c0.066-.008.139-0.02,0.218-0.035l-0.071-.471-0.125.016a0.911,0.911,0,0,1-.113.007,0.447,0.447,0,0,1-.165-0.025,0.18,0.18,0,0,1-.09-0.076,0.323,0.323,0,0,1-.037-0.134c0-.055-0.008-0.121-0.008-0.2V40.983Zm1.225,5.581a0.774,0.774,0,0,0,.439-0.122,1.046,1.046,0,0,0,.327-0.384,5.948,5.948,0,0,0,.3-0.709l1.2-3.178h-0.535l-0.675,1.821a7.009,7.009,0,0,0-.219.712q-0.1-.38-0.229-0.724l-0.657-1.809h-0.576l1.2,3.13c-0.022.057-.037,0.1-0.047,0.13a2.606,2.606,0,0,1-.164.394,0.482,0.482,0,0,1-.175.165,0.59,0.59,0,0,1-.285.059A1.2,1.2,0,0,1,241.5,46l0.059,0.5a1.085,1.085,0,0,0,.345.065h0Zm3.086-1.268v-0.6H244.38v0.6h0.609Z"/>
</svg>
