<svg id="hing" xmlns="http://www.w3.org/2000/svg" width="300" height="50" viewBox="0 0 300 50">
  <defs>
    <style>
      .cls-1 {
        fill: #452c6a;
        fill-rule: evenodd;
      }
    </style>
  </defs>
  <path id="txt1" class="cls-1" d="M156.248,13.049V12H149.4v9.869h6.793V20.812h-5.631V17.249h5.133V16.2h-5.133V13.049h5.687Zm5.962,8.816H163.5l-2.905-4.574,2.711-2.578h-1.466l-3.307,3.2V12h-1.106v9.869h1.106V19.218l1.273-1.192Zm7.333,0.166c1.757,0,2.836-.776,2.836-2.135,0-1.164-.706-1.76-2.463-2.107l-0.636-.125c-0.913-.18-1.439-0.43-1.439-1.109s0.54-1.053,1.494-1.053c1.093,0,1.744.3,1.8,1.414h1.107c-0.028-1.525-1-2.37-2.906-2.37-1.632,0-2.6.8-2.6,2.024,0,1.109.678,1.816,2.228,2.107l0.664,0.125c1.245,0.236,1.632.527,1.632,1.164,0,0.707-.511,1.109-1.715,1.109-1.259,0-1.785-.4-1.909-1.483h-1.121C166.624,21.269,167.73,22.032,169.543,22.032Zm8.647-7.319V18.76a2.035,2.035,0,0,1-1.965,2.273,1.433,1.433,0,0,1-1.632-1.594V14.713h-1.107V19.55A2.278,2.278,0,0,0,176,22.032a2.628,2.628,0,0,0,2.241-1.234v1.067H179.3V14.713H178.19Zm6.059-.166a2.628,2.628,0,0,0-2.241,1.234V14.713h-1.051v7.152h1.106V17.818a2.035,2.035,0,0,1,1.965-2.273,1.433,1.433,0,0,1,1.633,1.594v4.727h1.106V17.028A2.278,2.278,0,0,0,184.249,14.546Zm7.471,0a2.63,2.63,0,0,0-2.186,1.15V12h-1.107v9.869h1.107V17.818a2.035,2.035,0,0,1,1.965-2.273,1.433,1.433,0,0,1,1.632,1.594v4.727h1.107V17.028A2.278,2.278,0,0,0,191.72,14.546Zm10.4,3.743c0-2.051-1.148-3.743-3.279-3.743-1.978,0-3.293,1.5-3.293,3.743,0,2.315,1.37,3.743,3.321,3.743a2.979,2.979,0,0,0,3.071-2.343H200.8A1.834,1.834,0,0,1,198.9,21.02c-1.246,0-2.09-.735-2.2-2.343h5.423V18.289Zm-3.279-2.731a2.1,2.1,0,0,1,2.089,2.121h-4.206A2.1,2.1,0,0,1,198.845,15.558Zm7.942-.956a2.492,2.492,0,0,0-2.3,1.372V14.713h-1.052v7.152h1.107V17.79a2.035,2.035,0,0,1,2.338-2.107h0.277V14.616C207.008,14.6,206.9,14.6,206.787,14.6Zm1.964-.9A0.749,0.749,0,1,0,208,12.952,0.754,0.754,0,0,0,208.751,13.7ZM208.2,21.865H209.3V14.713H208.2v7.152Zm7.913,0.166c1.757,0,2.836-.776,2.836-2.135,0-1.164-.705-1.76-2.462-2.107l-0.637-.125c-0.913-.18-1.439-0.43-1.439-1.109s0.54-1.053,1.5-1.053c1.093,0,1.743.3,1.8,1.414h1.107c-0.028-1.525-1-2.37-2.905-2.37-1.633,0-2.6.8-2.6,2.024,0,1.109.677,1.816,2.227,2.107l0.664,0.125c1.245,0.236,1.633.527,1.633,1.164,0,0.707-.512,1.109-1.716,1.109-1.259,0-1.785-.4-1.909-1.483h-1.121C213.192,21.269,214.3,22.032,216.111,22.032Zm7.236-7.485a2.628,2.628,0,0,0-2.186,1.15V12h-1.107v9.869h1.107V17.818a2.034,2.034,0,0,1,1.964-2.273,1.433,1.433,0,0,1,1.633,1.594v4.727h1.107V17.028A2.278,2.278,0,0,0,223.347,14.546Zm8.6,0.166V18.76a2.034,2.034,0,0,1-1.964,2.273,1.433,1.433,0,0,1-1.633-1.594V14.713h-1.107V19.55a2.278,2.278,0,0,0,2.518,2.481,2.631,2.631,0,0,0,2.242-1.234v1.067h1.051V14.713h-1.107Zm6.115-.111a2.491,2.491,0,0,0-2.3,1.372V14.713h-1.052v7.152h1.107V17.79a2.035,2.035,0,0,1,2.338-2.107h0.277V14.616C238.289,14.6,238.178,14.6,238.067,14.6Zm6.046,0.111V18.76a2.035,2.035,0,0,1-1.965,2.273,1.433,1.433,0,0,1-1.632-1.594V14.713h-1.107V19.55a2.278,2.278,0,0,0,2.518,2.481,2.628,2.628,0,0,0,2.241-1.234v1.067h1.052V14.713h-1.107Zm8.6,6.252a0.327,0.327,0,0,1-.387-0.347V16.626c0-1.206-.706-2.079-2.684-2.079-2.089,0-2.822.984-2.905,2.37h1.106c0.07-1.067.581-1.414,1.8-1.414s1.605,0.374,1.605,1.123a1,1,0,0,1-1.121.984l-1.024.111c-1.964.208-2.642,1.1-2.642,2.218,0,1.345.968,2.093,2.518,2.093a2.614,2.614,0,0,0,2.324-1.151,1.025,1.025,0,0,0,1.2,1.026,4.2,4.2,0,0,0,.609-0.042v-0.9h-0.4Zm-3.68.125a1.184,1.184,0,0,1-1.425-1.178c0-.693.36-1.137,1.66-1.289l1.038-.125a1.843,1.843,0,0,0,.941-0.3v0.846A2.052,2.052,0,0,1,249.038,21.089ZM260,20.964a0.328,0.328,0,0,1-.387-0.347V16.626c0-1.206-.706-2.079-2.684-2.079-2.089,0-2.822.984-2.9,2.37h1.106c0.07-1.067.582-1.414,1.8-1.414s1.605,0.374,1.605,1.123a1,1,0,0,1-1.121.984l-1.024.111c-1.964.208-2.642,1.1-2.642,2.218,0,1.345.968,2.093,2.518,2.093a2.614,2.614,0,0,0,2.324-1.151,1.025,1.025,0,0,0,1.2,1.026,4.2,4.2,0,0,0,.609-0.042v-0.9H260Zm-3.68.125a1.184,1.184,0,0,1-1.425-1.178c0-.693.36-1.137,1.66-1.289l1.038-.125a1.84,1.84,0,0,0,.941-0.3v0.846A2.052,2.052,0,0,1,256.315,21.089Zm7.9-5.406v-0.97h-1.466V12.689h-1.107v2.024h-1.176v0.97h1.176v4.741c0,1.095.678,1.483,1.785,1.483q0.332,0,.788-0.042V20.936h-0.65c-0.636,0-.816-0.236-0.816-0.61V15.683h1.466Zm1.674,4.8a0.743,0.743,0,0,0-.775.749,0.721,0.721,0,0,0,.775.721h0.083a1.025,1.025,0,0,1-.761,1.081l-0.1.028v0.735l0.139-.028a1.879,1.879,0,0,0,1.549-2.107A0.972,0.972,0,0,0,265.889,20.479ZM152.623,29.906a2.628,2.628,0,0,0-2.241,1.234V30.073H149.33v7.152h1.107V33.178A2.035,2.035,0,0,1,152.4,30.9a1.433,1.433,0,0,1,1.632,1.594v4.727h1.107V32.388A2.278,2.278,0,0,0,152.623,29.906Zm10.016,6.418a0.328,0.328,0,0,1-.387-0.347V31.986c0-1.206-.706-2.079-2.684-2.079-2.089,0-2.822.984-2.905,2.37h1.106c0.07-1.067.582-1.414,1.8-1.414s1.6,0.374,1.6,1.123a1,1,0,0,1-1.121.984l-1.024.111c-1.964.208-2.642,1.1-2.642,2.218,0,1.345.968,2.093,2.518,2.093a2.614,2.614,0,0,0,2.324-1.151,1.025,1.025,0,0,0,1.2,1.026,4.2,4.2,0,0,0,.609-0.042v-0.9h-0.4Zm-3.68.125a1.184,1.184,0,0,1-1.425-1.178c0-.693.36-1.137,1.66-1.289l1.038-.125a1.84,1.84,0,0,0,.941-0.3V34.4A2.052,2.052,0,0,1,158.959,36.449Zm9.228-6.376-1.01,2.966c-0.359,1.04-.7,2.079-1.023,3.1-0.333-1.026-.665-2.051-1.024-3.091l-1.01-2.98H162.9l2.684,7.388c-0.083.222-.166,0.457-0.249,0.665a1.25,1.25,0,0,1-1.3.887h-0.651v0.929a5.51,5.51,0,0,0,.665.042,2.158,2.158,0,0,0,2.324-1.636l3.016-8.275h-1.2Zm7.914,3.576c0-2.051-1.148-3.742-3.279-3.742-1.979,0-3.293,1.5-3.293,3.742,0,2.315,1.37,3.743,3.321,3.743a2.979,2.979,0,0,0,3.071-2.343h-1.148a1.835,1.835,0,0,1-1.9,1.331c-1.245,0-2.089-.735-2.2-2.343H176.1V33.649Zm-3.279-2.731a2.1,2.1,0,0,1,2.089,2.121h-4.206A2.1,2.1,0,0,1,172.822,30.918Zm11.594,6.529c2.863,0,4.717-2.093,4.717-5.156s-1.854-5.156-4.717-5.156-4.718,2.093-4.718,5.156S181.552,37.447,184.416,37.447Zm0-1.067c-2.117,0-3.5-1.58-3.5-4.089s1.384-4.089,3.5-4.089,3.5,1.58,3.5,4.089S186.532,36.38,184.416,36.38Zm9.532-6.473a2.806,2.806,0,0,0-2.449,1.275V30.073h-1.051v9.869h1.106V36.2a2.8,2.8,0,0,0,2.394,1.192c2.006,0,3.32-1.456,3.32-3.743S195.954,29.906,193.948,29.906Zm-0.138,6.487c-1.384,0-2.3-1.012-2.3-2.745s0.913-2.744,2.3-2.744,2.3,0.956,2.3,2.689S195.193,36.394,193.81,36.394Zm7.484-5.351v-0.97h-1.466V28.049h-1.107v2.024h-1.176v0.97h1.176v4.741c0,1.095.678,1.483,1.785,1.483q0.332,0,.788-0.042V36.3h-0.65c-0.636,0-.816-0.236-0.816-0.61V31.043h1.466Zm1.729-1.982a0.749,0.749,0,1,0-.747-0.748A0.754,0.754,0,0,0,203.023,29.061Zm-0.553,8.164h1.107V30.073H202.47v7.152Zm7.554,0h1.287l-2.906-4.574,2.712-2.578H209.65l-3.306,3.2V27.356h-1.107v9.869h1.107V34.578l1.273-1.192Zm12.161-9.869h-7.9v1.054h3.348v8.816h1.2V28.409h3.348V27.356Zm7.789,0-2.241,6.252c-0.305.846-.595,1.677-0.844,2.453-0.249-.776-0.54-1.608-0.844-2.453l-2.283-6.251h-1.231l3.707,9.869h1.3l3.652-9.869h-1.217Zm2.967-.274a1.285,1.285,0,1,0,1.321,1.285A1.293,1.293,0,0,0,232.941,27.082Zm0,2.315a1.033,1.033,0,1,1,1.05-1.03A1.024,1.024,0,0,1,232.941,29.4Zm0.514-.77a0.273,0.273,0,0,0-.162-0.255,0.329,0.329,0,0,0,.2-0.325,0.4,0.4,0,0,0-.482-0.385h-0.584v1.377h0.238V28.486h0.373c0.136,0,.179.049,0.19,0.2l0.011,0.141a0.375,0.375,0,0,0,.054.212h0.243a0.4,0.4,0,0,1-.065-0.212Zm-0.422-.358h-0.368v-0.39h0.346a0.2,0.2,0,0,1,.239.2A0.189,0.189,0,0,1,233.033,28.27Zm9.69,8.956h1.287L241.1,32.651l2.712-2.578H242.35l-3.307,3.2V27.356h-1.107v9.869h1.107V34.578l1.273-1.192Zm7.928-3.576c0-2.051-1.149-3.742-3.279-3.742-1.979,0-3.293,1.5-3.293,3.742,0,2.315,1.37,3.743,3.32,3.743a2.98,2.98,0,0,0,3.072-2.343h-1.148a1.835,1.835,0,0,1-1.9,1.331c-1.245,0-2.089-.735-2.2-2.343h5.424V33.649Zm-3.279-2.731a2.1,2.1,0,0,1,2.089,2.121h-4.206A2.1,2.1,0,0,1,247.372,30.918Zm9.74,6.473c1.757,0,2.836-.776,2.836-2.135,0-1.164-.706-1.76-2.463-2.107l-0.636-.125c-0.913-.18-1.439-0.43-1.439-1.109s0.539-1.053,1.494-1.053c1.093,0,1.743.3,1.8,1.414h1.106c-0.027-1.525-1-2.37-2.905-2.37-1.633,0-2.6.8-2.6,2.024,0,1.109.678,1.816,2.227,2.107l0.665,0.125c1.245,0.236,1.632.527,1.632,1.164,0,0.707-.512,1.109-1.715,1.109-1.259,0-1.785-.4-1.91-1.483h-1.12C254.192,36.629,255.3,37.392,257.112,37.392Zm9.988-1.067a0.328,0.328,0,0,1-.387-0.347V31.986c0-1.206-.706-2.079-2.684-2.079-2.089,0-2.822.984-2.9,2.37h1.106c0.07-1.067.581-1.414,1.8-1.414s1.605,0.374,1.605,1.123a1,1,0,0,1-1.121.984l-1.024.111c-1.964.208-2.642,1.1-2.642,2.218,0,1.345.968,2.093,2.518,2.093a2.614,2.614,0,0,0,2.324-1.151,1.025,1.025,0,0,0,1.2,1.026,4.2,4.2,0,0,0,.609-0.042v-0.9h-0.4Zm-3.68.125A1.184,1.184,0,0,1,262,35.271c0-.693.36-1.137,1.66-1.289l1.038-.125a1.843,1.843,0,0,0,.941-0.3V34.4A2.052,2.052,0,0,1,263.42,36.449Zm10.957-.125a0.328,0.328,0,0,1-.387-0.347V31.986c0-1.206-.706-2.079-2.684-2.079-2.089,0-2.822.984-2.9,2.37h1.106c0.07-1.067.582-1.414,1.8-1.414s1.605,0.374,1.605,1.123a1,1,0,0,1-1.121.984l-1.024.111c-1.964.208-2.642,1.1-2.642,2.218,0,1.345.968,2.093,2.518,2.093a2.614,2.614,0,0,0,2.324-1.151,1.025,1.025,0,0,0,1.2,1.026,4.2,4.2,0,0,0,.609-0.042v-0.9h-0.4Zm-3.68.125a1.184,1.184,0,0,1-1.425-1.178c0-.693.36-1.137,1.66-1.289l1.038-.125a1.84,1.84,0,0,0,.941-0.3V34.4A2.052,2.052,0,0,1,270.7,36.449Zm7.9-5.406v-0.97h-1.466V28.049h-1.107v2.024h-1.176v0.97h1.176v4.741c0,1.095.678,1.483,1.785,1.483q0.331,0,.788-0.042V36.3h-0.65c-0.636,0-.816-0.236-0.816-0.61V31.043H278.6Zm4.469-1.137a2.628,2.628,0,0,0-2.186,1.15v-3.7h-1.107v9.869h1.107V33.178a2.034,2.034,0,0,1,1.964-2.273,1.433,1.433,0,0,1,1.633,1.594v4.727h1.107V32.388A2.278,2.278,0,0,0,283.066,29.906Zm4.8,7.416a0.8,0.8,0,0,0,.789-0.818,0.81,0.81,0,0,0-1.619,0A0.8,0.8,0,0,0,287.866,37.322Z"/>
</svg>
