<svg id="hing" xmlns="http://www.w3.org/2000/svg" width="300" height="50" viewBox="0 0 300 50">
  <defs>
    <style>
      .cls-1 {
        fill: #452c6a;
        fill-rule: evenodd;
      }
    </style>
  </defs>
  <path id="txt2" class="cls-1" d="M153.08,37.042a0.225,0.225,0,0,1-.266-0.237V34.069c0-.827-0.485-1.425-1.844-1.425-1.434,0-1.938.675-2,1.625h0.76c0.048-.732.4-0.969,1.235-0.969s1.1,0.256,1.1.77a0.683,0.683,0,0,1-.77.674l-0.7.076c-1.349.143-1.815,0.75-1.815,1.52a1.467,1.467,0,0,0,1.729,1.435,1.8,1.8,0,0,0,1.6-.788,0.7,0.7,0,0,0,.826.7,2.881,2.881,0,0,0,.418-0.029V37.042H153.08Zm-2.528.085a0.812,0.812,0,0,1-.978-0.807c0-.475.247-0.779,1.14-0.883l0.713-.086a1.264,1.264,0,0,0,.646-0.209v0.579A1.408,1.408,0,0,1,150.552,37.128Zm6.7-4.37v2.774A1.4,1.4,0,0,1,155.9,37.09,0.983,0.983,0,0,1,154.781,36V32.758h-0.76v3.315a1.563,1.563,0,0,0,1.729,1.7,1.806,1.806,0,0,0,1.539-.845V37.66h0.723v-4.9h-0.761Zm4.2-.076a1.712,1.712,0,0,0-1.577.941V32.758h-0.722v4.9h0.76V34.867a1.4,1.4,0,0,1,1.606-1.444h0.19V32.691C161.6,32.682,161.527,32.682,161.451,32.682Zm5.274-.038a1.928,1.928,0,0,0-1.682.874v-0.76h-0.722v6.764h0.76V36.957a1.926,1.926,0,0,0,1.644.817,2.28,2.28,0,0,0,2.28-2.565A2.28,2.28,0,0,0,166.725,32.644ZM166.63,37.09a1.619,1.619,0,0,1-1.577-1.881,1.619,1.619,0,0,1,1.577-1.881,1.586,1.586,0,0,1,1.577,1.843A1.653,1.653,0,0,1,166.63,37.09Zm7.193-.047a0.225,0.225,0,0,1-.266-0.237V34.069c0-.827-0.485-1.425-1.843-1.425-1.435,0-1.939.675-2,1.625h0.76c0.048-.732.4-0.969,1.236-0.969s1.1,0.256,1.1.77a0.683,0.683,0,0,1-.77.674l-0.7.076c-1.349.143-1.815,0.75-1.815,1.52a1.468,1.468,0,0,0,1.73,1.435,1.8,1.8,0,0,0,1.6-.788,0.7,0.7,0,0,0,.827.7,2.9,2.9,0,0,0,.418-0.029V37.042h-0.276Zm-2.527.085a0.812,0.812,0,0,1-.979-0.807c0-.475.247-0.779,1.14-0.883l0.713-.086a1.264,1.264,0,0,0,.646-0.209v0.579A1.408,1.408,0,0,1,171.3,37.128Zm7.525-.085a0.225,0.225,0,0,1-.266-0.237V34.069c0-.827-0.485-1.425-1.843-1.425-1.435,0-1.939.675-2,1.625h0.76c0.048-.732.4-0.969,1.236-0.969s1.1,0.256,1.1.77a0.683,0.683,0,0,1-.77.674l-0.7.076c-1.349.143-1.815,0.75-1.815,1.52a1.468,1.468,0,0,0,1.73,1.435,1.8,1.8,0,0,0,1.6-.788,0.7,0.7,0,0,0,.827.7,2.9,2.9,0,0,0,.418-0.029V37.042h-0.276Zm-2.527.085a0.812,0.812,0,0,1-.979-0.807c0-.475.247-0.779,1.14-0.883l0.713-.086a1.264,1.264,0,0,0,.646-0.209v0.579A1.408,1.408,0,0,1,176.294,37.128Zm6.338-4.37-0.694,2.033c-0.247.712-.485,1.425-0.7,2.128-0.228-.7-0.456-1.406-0.7-2.118l-0.694-2.042H179l1.843,5.063c-0.057.152-.114,0.314-0.171,0.456a0.858,0.858,0,0,1-.893.608h-0.447v0.636a3.8,3.8,0,0,0,.456.029,1.482,1.482,0,0,0,1.6-1.121l2.071-5.671h-0.826Zm5.435,2.451a2.275,2.275,0,1,0-4.514,0,2.291,2.291,0,0,0,2.281,2.565,2.045,2.045,0,0,0,2.109-1.605h-0.788a1.261,1.261,0,0,1-1.3.912,1.466,1.466,0,0,1-1.511-1.605h3.725V35.209Zm-2.252-1.872a1.438,1.438,0,0,1,1.435,1.453h-2.889A1.441,1.441,0,0,1,185.815,33.338Zm3.535-1.273a0.513,0.513,0,1,0-.513-0.513A0.517,0.517,0,0,0,189.35,32.065Zm-0.38,5.6h0.76v-4.9h-0.76v4.9Zm4.161-5.016a1.806,1.806,0,0,0-1.539.846V32.758H190.87v4.9h0.76V34.886a1.4,1.4,0,0,1,1.349-1.558,0.983,0.983,0,0,1,1.122,1.092V37.66h0.76V34.345A1.563,1.563,0,0,0,193.131,32.644Zm8.951,2.565a2.275,2.275,0,1,0-4.513,0,2.291,2.291,0,0,0,2.28,2.565,2.046,2.046,0,0,0,2.11-1.605H201.17a1.26,1.26,0,0,1-1.3.912,1.466,1.466,0,0,1-1.51-1.605h3.724V35.209Zm-2.252-1.872a1.437,1.437,0,0,1,1.435,1.453h-2.888A1.441,1.441,0,0,1,199.83,33.338Zm6.443,4.322h0.884l-2-3.135,1.862-1.767h-1.007l-2.271,2.194V30.9h-0.76V37.66h0.76V35.845l0.874-.817Zm8.314-5.614V30.9h-4.779V37.66h1.282V34.744h3.184v-1.1H211.09v-1.6h3.5Zm4.856,5.614h1.463l-1.8-2.688a1.957,1.957,0,0,0,1.577-1.995,2.093,2.093,0,0,0-2.394-2.08h-3.012V37.66h1.283V35.124h1.206Zm-2.879-5.709h1.662a1.073,1.073,0,1,1,0,2.137h-1.662V31.951Zm9.967,0.095V30.9h-4.988V37.66h4.969V36.51h-3.686V34.744h3.354v-1.1h-3.354v-1.6h3.705Zm5.778,0V30.9H227.32V37.66h4.97V36.51H228.6V34.744h3.354v-1.1H228.6v-1.6h3.706Zm5.33,1.624V32.758H236.67V31.333h-1.188v1.425h-0.76V33.67h0.76v2.774c0,0.9.494,1.254,1.53,1.254,0.19,0,.409-0.019.627-0.038V36.748h-0.408c-0.4,0-.561-0.1-0.561-0.428V33.67h0.969Zm3.392-1.026a1.8,1.8,0,0,0-1.491.77V30.9h-1.2V37.66h1.2V34.915a1.1,1.1,0,0,1,1.092-1.235,0.819,0.819,0,0,1,.922.931V37.66h1.2V34.411A1.6,1.6,0,0,0,241.031,32.644Zm7.317,2.651a2.4,2.4,0,0,0-2.423-2.651,2.359,2.359,0,0,0-2.423,2.565,2.364,2.364,0,0,0,2.442,2.565,2.189,2.189,0,0,0,2.28-1.634h-1.149a1.118,1.118,0,0,1-1.122.7,1.216,1.216,0,0,1-1.273-1.264h3.668V35.295Zm-2.433-1.719a1.213,1.213,0,0,1,1.236,1.168H244.69A1.184,1.184,0,0,1,245.915,33.575Zm8.8-.931a1.771,1.771,0,0,0-1.52.912,1.551,1.551,0,0,0-1.52-.912,1.6,1.6,0,0,0-1.4.817v-0.7h-1.159v4.9h1.2v-2.7a1.078,1.078,0,0,1,1.007-1.283,0.789,0.789,0,0,1,.855.931V37.66h1.188v-2.7a1.074,1.074,0,0,1,1.017-1.283,0.782,0.782,0,0,1,.845.931V37.66h1.2V34.421A1.606,1.606,0,0,0,254.714,32.644Zm7.307,2.651a2.394,2.394,0,0,0-2.423-2.651,2.359,2.359,0,0,0-2.422,2.565,2.363,2.363,0,0,0,2.441,2.565A2.189,2.189,0,0,0,261.9,36.14h-1.15a1.116,1.116,0,0,1-1.121.7,1.215,1.215,0,0,1-1.273-1.264h3.667V35.295Zm-2.432-1.719a1.212,1.212,0,0,1,1.235,1.168h-2.461A1.184,1.184,0,0,1,259.589,33.575Zm7.972-.931a1.769,1.769,0,0,0-1.568.817v-0.7h-1.149v6.764h1.2v-2.5a1.752,1.752,0,0,0,1.52.75c1.349,0,2.195-1.007,2.195-2.565S268.91,32.644,267.561,32.644Zm-0.285,4.142a1.31,1.31,0,0,1-1.264-1.577,1.31,1.31,0,0,1,1.264-1.577,1.277,1.277,0,0,1,1.264,1.539C268.54,36.206,268.055,36.786,267.276,36.786Zm7.583,0.874a1.856,1.856,0,0,1-.2-0.931V34.117c0-.884-0.579-1.473-2.043-1.473-1.529,0-2.138.637-2.2,1.672h1.178c0.048-.6.333-0.779,1.017-0.779s0.893,0.228.893,0.608c0,0.361-.237.5-0.694,0.56l-0.741.066c-1.387.133-1.881,0.712-1.881,1.529a1.52,1.52,0,0,0,1.767,1.472,1.825,1.825,0,0,0,1.578-.712,1.6,1.6,0,0,0,.133.6h1.2Zm-2.623-.741a0.684,0.684,0,0,1-.826-0.665c0-.389.218-0.627,0.883-0.7l0.646-.076a0.953,0.953,0,0,0,.561-0.2v0.446A1.151,1.151,0,0,1,272.236,36.919Zm5.493,0.855a2.147,2.147,0,0,0,2.3-1.938h-1.2a1.041,1.041,0,0,1-1.1.941c-0.694,0-1.2-.494-1.2-1.567s0.485-1.568,1.2-1.568a1.023,1.023,0,0,1,1.083.883h1.2a2.107,2.107,0,0,0-2.28-1.881,2.339,2.339,0,0,0-2.423,2.565A2.344,2.344,0,0,0,277.729,37.774Zm6.3-.114H285.4l-1.967-3.049,1.853-1.852h-1.426l-2,2.033V30.9h-1.178V37.66h1.178V36.121l0.741-.741Z"/>
</svg>
