<svg id="hing" xmlns="http://www.w3.org/2000/svg" width="300" height="50" viewBox="0 0 300 50">
  <defs>
    <style>
      .cls-1 {
        fill: #452c6a;
        fill-rule: evenodd;
      }
    </style>
  </defs>
  <path id="txt3" class="cls-1" d="M152.551,18.1c2.125,0,3.318-1.038,3.318-2.613,0-1.288-.72-2.088-2.758-2.538l-0.783-.175c-1.666-.375-2.076-0.8-2.076-1.65s0.659-1.375,1.939-1.375c1.765,0,2.3.688,2.386,1.838h1.069c-0.038-1.45-.845-2.788-3.455-2.788-1.839,0-3.02.9-3.02,2.325,0,1.625,1.181,2.238,2.684,2.575l0.783,0.175c1.566,0.35,2.15.763,2.15,1.613,0,1.1-.82,1.663-2.237,1.663-1.441,0-2.572-.538-2.6-2.188h-1.081C148.9,17.183,150.439,18.1,152.551,18.1Zm4.87-7.564a0.675,0.675,0,1,0-.671-0.675A0.679,0.679,0,0,0,157.421,10.532Zm-0.5,7.364h1V11.445h-1V17.9Zm7.357-6.451v0.938a2.584,2.584,0,0,0-2.2-1.088c-1.8,0-2.982,1.313-2.982,3.376s1.18,3.376,2.982,3.376a2.584,2.584,0,0,0,2.15-1.025v0.625a1.779,1.779,0,0,1-1.988,2,1.5,1.5,0,0,1-1.74-1.225h-0.994c0.137,1.25,1.093,2.075,2.734,2.075a2.658,2.658,0,0,0,2.982-2.851v-6.2h-0.944Zm-2.075,5.7c-1.243,0-2.063-.963-2.063-2.475s0.82-2.475,2.063-2.475,2.062,0.913,2.062,2.475S163.448,17.146,162.206,17.146Zm7.467-5.851a2.358,2.358,0,0,0-2.013,1.113V11.445h-0.945V17.9h1V14.246a1.832,1.832,0,0,1,1.764-2.05,1.29,1.29,0,0,1,1.467,1.438V17.9h0.994V13.533A2.051,2.051,0,0,0,169.673,11.3Zm10.338,0.15V15.1a1.832,1.832,0,0,1-1.765,2.05,1.29,1.29,0,0,1-1.466-1.438V11.445h-0.994v4.363a2.05,2.05,0,0,0,2.261,2.238,2.361,2.361,0,0,0,2.014-1.113V17.9h0.944V11.445h-0.994Zm5.628-.15a2.514,2.514,0,0,0-2.2,1.15v-1H182.5v8.9h0.994V16.971a2.515,2.515,0,0,0,2.15,1.075c1.8,0,2.983-1.313,2.983-3.376S187.441,11.3,185.639,11.3Zm-0.124,5.851c-1.243,0-2.063-.913-2.063-2.475s0.82-2.475,2.063-2.475,2.063,0.863,2.063,2.425S186.758,17.146,185.515,17.146Zm10.947,0.75h1.155l-2.609-4.126,2.435-2.325h-1.317l-2.97,2.888V8.995h-0.994v8.9h0.994V15.508l1.143-1.075Zm6.9-.813a0.3,0.3,0,0,1-.348-0.312v-3.6c0-1.088-.634-1.875-2.411-1.875-1.877,0-2.535.888-2.61,2.138h0.994c0.063-.963.522-1.275,1.616-1.275s1.442,0.338,1.442,1.013a0.9,0.9,0,0,1-1.007.888l-0.92.1c-1.764.188-2.373,0.988-2.373,2,0,1.213.87,1.888,2.261,1.888a2.345,2.345,0,0,0,2.088-1.038,0.922,0.922,0,0,0,1.081.925,3.737,3.737,0,0,0,.547-0.038V17.083h-0.36Zm-3.306.113a1.065,1.065,0,0,1-1.28-1.063c0-.625.323-1.025,1.491-1.163l0.933-.112a1.651,1.651,0,0,0,.845-0.275v0.763A1.847,1.847,0,0,1,200.052,17.2Zm7.542-5.851a2.237,2.237,0,0,0-2.062,1.238V11.445h-0.945V17.9h0.994V14.221a1.831,1.831,0,0,1,2.1-1.9h0.249V11.358C207.793,11.345,207.694,11.345,207.594,11.345Zm6.487,3.326c0-1.85-1.032-3.376-2.945-3.376-1.778,0-2.958,1.35-2.958,3.376,0,2.088,1.23,3.376,2.982,3.376a2.677,2.677,0,0,0,2.759-2.113h-1.031a1.649,1.649,0,0,1-1.7,1.2c-1.118,0-1.876-.663-1.976-2.113h4.872v-0.35Zm-2.945-2.463a1.886,1.886,0,0,1,1.876,1.913h-3.778A1.891,1.891,0,0,1,211.136,12.208Zm4.621-1.675a0.675,0.675,0,1,0-.671-0.675A0.678,0.678,0,0,0,215.757,10.532Zm-0.5,7.364h0.994V11.445H215.26V17.9Zm5.443-6.6a2.358,2.358,0,0,0-2.013,1.113V11.445h-0.945V17.9h0.994V14.246A1.833,1.833,0,0,1,220.5,12.2a1.29,1.29,0,0,1,1.467,1.438V17.9h0.994V13.533A2.051,2.051,0,0,0,220.7,11.3Zm9.518,0a2.359,2.359,0,0,0-2,1.075V11.445H226.7V17.9h1.565V14.283a1.449,1.449,0,0,1,1.43-1.625,1.074,1.074,0,0,1,1.2,1.225V17.9h1.566V13.62A2.1,2.1,0,0,0,230.221,11.3Zm9.281,6.6a2.465,2.465,0,0,1-.26-1.225V13.233c0-1.163-.759-1.938-2.672-1.938-2,0-2.8.838-2.883,2.2h1.541c0.062-.788.434-1.025,1.329-1.025s1.168,0.3,1.168.8c0,0.475-.31.663-0.907,0.738l-0.969.088c-1.815.175-2.461,0.938-2.461,2.013,0,1.25.945,1.938,2.312,1.938a2.378,2.378,0,0,0,2.063-.938,2.1,2.1,0,0,0,.174.788H239.5Zm-3.429-.975a0.9,0.9,0,0,1-1.082-.875c0-.512.286-0.825,1.156-0.925l0.845-.1a1.238,1.238,0,0,0,.733-0.263v0.588A1.509,1.509,0,0,1,236.073,16.921Zm8.238-5.476-0.522,1.625c-0.348,1.138-.7,2.313-1.032,3.588-0.323-1.263-.671-2.475-1.019-3.6l-0.522-1.613h-1.69l1.864,5.3a4.355,4.355,0,0,1,.3,1.3,0.961,0.961,0,0,1-1.057,1.038h-0.6v1.238a5.079,5.079,0,0,0,.683.037,2.465,2.465,0,0,0,2.759-1.938l2.473-6.976h-1.64Zm8.027,3.338c0-2.05-1.206-3.488-3.169-3.488A3.1,3.1,0,0,0,246,14.671a3.1,3.1,0,0,0,3.194,3.376,2.865,2.865,0,0,0,2.982-2.15h-1.5a1.462,1.462,0,0,1-1.467.925,1.594,1.594,0,0,1-1.665-1.663h4.8V14.783Zm-3.182-2.263a1.59,1.59,0,0,1,1.616,1.538h-3.219A1.553,1.553,0,0,1,249.156,12.52ZM260.165,18.1c2.647,0,4.412-1.85,4.412-4.651s-1.765-4.651-4.412-4.651-4.424,1.85-4.424,4.651S257.506,18.1,260.165,18.1Zm0-1.488c-1.615,0-2.672-1.2-2.672-3.163s1.057-3.163,2.672-3.163,2.672,1.2,2.672,3.163S261.781,16.608,260.165,16.608Zm8.959-5.313a2.308,2.308,0,0,0-2.051,1.075V11.445h-1.5v8.9h1.566V17.058a2.29,2.29,0,0,0,1.989.988c1.764,0,2.87-1.325,2.87-3.376S270.888,11.3,269.124,11.3Zm-0.373,5.451c-1.019,0-1.653-.713-1.653-2.075s0.634-2.075,1.653-2.075,1.653,0.663,1.653,2.025S269.77,16.746,268.751,16.746Zm7.244-4.1v-1.2h-1.268V9.57h-1.553v1.875H272.18v1.2h0.994V16.3c0,1.188.646,1.65,2,1.65,0.248,0,.534-0.025.82-0.05V16.7H275.46c-0.522,0-.733-0.138-0.733-0.563V12.645H276Zm1.7-1.975a0.869,0.869,0,1,0-.87-0.863A0.862,0.862,0,0,0,277.7,10.67ZM276.913,17.9h1.566V11.445h-1.566V17.9Zm7.208,0h1.789l-2.572-4.013,2.423-2.438H283.9l-2.61,2.675V8.995h-1.541v8.9h1.541V15.871l0.97-.975Zm-128.065,7.1H148.7v1.513h2.833V33.9h1.69V26.507h2.834V24.995Zm6.9,0-1.566,4.6c-0.286.875-.584,1.825-0.833,2.775-0.261-.95-0.559-1.9-0.845-2.775l-1.6-4.6h-1.789l3.243,8.9h1.964l3.168-8.9h-1.739Zm9.219,8.9h1.155l-2.609-4.126,2.435-2.325h-1.317l-2.97,2.888V24.995h-0.994v8.9h0.994V31.508l1.143-1.075Zm7.12-3.226c0-1.85-1.032-3.375-2.946-3.375-1.777,0-2.957,1.35-2.957,3.375,0,2.088,1.23,3.376,2.982,3.376a2.678,2.678,0,0,0,2.759-2.113H178.1a1.649,1.649,0,0,1-1.7,1.2c-1.118,0-1.876-.663-1.976-2.113h4.872v-0.35Zm-2.946-2.463a1.887,1.887,0,0,1,1.877,1.913h-3.778A1.891,1.891,0,0,1,176.345,28.208Zm7.927,5.726a6.256,6.256,0,0,0,.634-0.038V33.058h-0.472a0.5,0.5,0,0,1-.609-0.55V24.995h-0.994v7.6A1.217,1.217,0,0,0,184.272,33.934Zm2-7.4a0.675,0.675,0,1,0-.671-0.675A0.679,0.679,0,0,0,186.273,26.532Zm-0.5,7.364h0.994V27.445h-0.994V33.9Zm6.486-6.451-0.907,2.675c-0.323.938-.634,1.875-0.92,2.8-0.3-.925-0.6-1.85-0.919-2.788l-0.907-2.688h-1.094l2.411,6.664c-0.075.2-.149,0.413-0.224,0.6a1.123,1.123,0,0,1-1.168.8H187.95v0.838a4.929,4.929,0,0,0,.6.038,1.938,1.938,0,0,0,2.088-1.475l2.709-7.464h-1.081Zm7.108,3.226c0-1.85-1.032-3.375-2.946-3.375-1.777,0-2.957,1.35-2.957,3.375,0,2.088,1.23,3.376,2.982,3.376a2.678,2.678,0,0,0,2.759-2.113h-1.031a1.649,1.649,0,0,1-1.7,1.2c-1.118,0-1.876-.663-1.976-2.113h4.872v-0.35Zm-2.946-2.463A1.887,1.887,0,0,1,198.3,30.12h-3.778A1.891,1.891,0,0,1,196.424,28.208Zm4.187,5.776a0.716,0.716,0,0,0,.709-0.738,0.728,0.728,0,0,0-1.454,0A0.717,0.717,0,0,0,200.611,33.984ZM210.9,25.945v-0.95h-5.853v8.9h1.044V29.733H210.4v-0.95h-4.312V25.945H210.9Zm3.814,1.4a2.239,2.239,0,0,0-2.063,1.238V27.445h-0.944V33.9H212.7V30.221a1.831,1.831,0,0,1,2.1-1.9h0.249V27.358C214.913,27.345,214.814,27.345,214.714,27.345Zm3.69,6.7a3.083,3.083,0,0,0,3.107-3.376,3.118,3.118,0,1,0-6.214,0A3.083,3.083,0,0,0,218.4,34.046Zm0-.9c-1.242,0-2.063-.913-2.063-2.475S217.162,28.2,218.4,28.2s2.063,0.913,2.063,2.475S219.647,33.146,218.4,33.146ZM229.438,27.3a2.211,2.211,0,0,0-1.975,1.213,2.008,2.008,0,0,0-1.976-1.213,2.058,2.058,0,0,0-1.852,1.1v-0.95H222.69V33.9h1V30.371c0-1.55.857-2.175,1.64-2.175a1.229,1.229,0,0,1,1.342,1.425V33.9h0.994V30.371c0-1.55.833-2.175,1.641-2.175a1.224,1.224,0,0,1,1.342,1.425V33.9h0.994V29.52A2.045,2.045,0,0,0,229.438,27.3Zm15.78,1.85a2.107,2.107,0,0,0,1.242-1.913c0-1.525-1.23-2.438-3.106-2.438-2.076,0-3.169,1.038-3.207,2.788h1.616a1.365,1.365,0,0,1,1.578-1.413,1.257,1.257,0,0,1,1.491,1.2c0,0.825-.546,1.238-1.553,1.238h-0.646v1.238h0.659a1.438,1.438,0,0,1,1.69,1.438,1.407,1.407,0,0,1-1.628,1.388,1.569,1.569,0,0,1-1.79-1.725h-1.628c0,1.913,1.143,3.151,3.467,3.151,2.051,0,3.318-1.125,3.318-2.75A2.309,2.309,0,0,0,245.218,29.145Zm7.6,0.025a2.059,2.059,0,0,0,1.168-1.913c0-1.55-1.28-2.463-3.094-2.463s-3.095.913-3.095,2.463a2.06,2.06,0,0,0,1.169,1.913,2.222,2.222,0,0,0-1.529,2.2c0,1.638,1.33,2.726,3.455,2.726s3.467-1.088,3.467-2.726A2.218,2.218,0,0,0,252.822,29.17Zm-1.926-3.1a1.3,1.3,0,1,1-1.566,1.288A1.341,1.341,0,0,1,250.9,26.07Zm0,6.676a1.508,1.508,0,1,1,1.789-1.475C252.685,32.2,252.039,32.746,250.9,32.746Zm3.789,1.15H256.2l3.169-8.9h-1.516ZM266.7,27.3a2.313,2.313,0,0,0-1.988,1.2,2.028,2.028,0,0,0-1.989-1.2A2.082,2.082,0,0,0,260.9,28.37V27.445h-1.516V33.9h1.565v-3.55c0-1.213.659-1.688,1.318-1.688a1.035,1.035,0,0,1,1.118,1.225V33.9h1.554v-3.55c0-1.213.646-1.688,1.329-1.688a1.027,1.027,0,0,1,1.106,1.225V33.9h1.566V29.633A2.108,2.108,0,0,0,266.7,27.3Zm6.485,6.751a3.123,3.123,0,0,0,3.256-3.376,3.264,3.264,0,1,0-6.524,0A3.132,3.132,0,0,0,273.186,34.046Zm0-1.3c-1.019,0-1.665-.713-1.665-2.075s0.646-2.075,1.665-2.075,1.666,0.713,1.666,2.075S274.193,32.746,273.186,32.746Zm4.784,1.263a1.013,1.013,0,1,0-1.044-1.025A1.008,1.008,0,0,0,277.97,34.009Zm1.094-5.268,0.5-.677,0.5,0.677,0.389-.309-0.5-.694,0.812-.262-0.162-.467-0.783.251V26.414h-0.5v0.846l-0.777-.251-0.163.467,0.812,0.262-0.51.694Zm-39.655-.357c0-.963-0.6-1.35-1.727-1.563l-0.224-.038V25.521a0.7,0.7,0,0,1,.721.738h1.081a1.669,1.669,0,0,0-1.8-1.638V23.883h-0.435v0.725c-1.255.038-1.852,0.65-1.852,1.525,0,1.013.659,1.425,1.728,1.6l0.124,0.025v1.325a0.787,0.787,0,0,1-.87-0.85h-1.094A1.785,1.785,0,0,0,237.023,30v0.725h0.435V30C238.639,29.934,239.409,29.409,239.409,28.384Zm-3.107-2.3c0-.338.2-0.538,0.721-0.575V26.7C236.464,26.583,236.3,26.408,236.3,26.083Zm1.156,3.013V27.834c0.621,0.125.82,0.275,0.82,0.625C238.278,28.846,238.03,29.059,237.458,29.1Z"/>
</svg>
