<svg id="F2" xmlns="http://www.w3.org/2000/svg" width="300" height="600" viewBox="0 0 300 600">
  <defs>
    <style>
      .cls-1 {
        fill: #4b286c;
        fill-rule: evenodd;
      }
    </style>
  </defs>
  <g id="Bubble">
    <path id="One_FREE_theme_pack" data-name="One FREE theme  pack" class="cls-1" d="M236.568,258.368c2.917,0,4.842-2.124,4.842-5.267s-1.925-5.266-4.842-5.266-4.855,2.124-4.855,5.266S233.638,258.368,236.568,258.368Zm0-1.359c-2,0-3.307-1.5-3.307-3.908s1.312-3.907,3.307-3.907,3.294,1.5,3.294,3.907S238.55,257.009,236.568,257.009Zm9.742-6.343a2.659,2.659,0,0,0-2.261,1.26v-1.09H242.71v7.305h1.395v-4.119a1.883,1.883,0,0,1,1.814-2.11,1.352,1.352,0,0,1,1.521,1.529v4.7h1.4v-4.9A2.326,2.326,0,0,0,246.31,250.666Zm10.675,3.879c0-2.194-1.241-3.879-3.418-3.879-2.051,0-3.419,1.529-3.419,3.823,0,2.35,1.409,3.822,3.447,3.822a3.124,3.124,0,0,0,3.223-2.407h-1.409a1.751,1.751,0,0,1-1.786,1.218c-1.159,0-1.94-.68-2.066-2.166h5.428v-0.411Zm-3.418-2.689a1.987,1.987,0,0,1,1.981,1.982h-3.977A1.97,1.97,0,0,1,253.567,251.856ZM231.4,264.336V261.98h-9.651v13.86h2.59v-5.976h6.427v-2.258h-6.427v-3.27H231.4Zm12.319,9.889-0.115-2.064c-0.058-1.44-.461-2.472-1.976-2.959a3.3,3.3,0,0,0,2.283-3.309c0-2.336-1.669-3.913-4.816-3.913h-6.2v13.86h2.59v-5.431h3.377c1.381,0,2.11.487,2.187,2.258l0.058,1.519a3.4,3.4,0,0,0,.364,1.654h2.667A3.235,3.235,0,0,1,243.722,274.225Zm-8.231-5.879v-4.2h3.357c1.5,0,2.4.681,2.4,2.044a2.04,2.04,0,0,1-2.3,2.161h-3.453Zm20.34-4.01V261.98H245.757v13.86h10.035v-2.355h-7.444v-3.621h6.773v-2.258h-6.773v-3.27h7.483Zm11.762,0V261.98H257.52v13.86h10.035v-2.355h-7.444v-3.621h6.773v-2.258h-6.773v-3.27h7.482ZM230.564,282.5v-1.016h-1.27v-1.834h-1.221v1.834h-1.014V282.5h1.014v3.953c0,1.065.611,1.462,1.746,1.462,0.22,0,.477-0.012.745-0.037v-0.992h-0.549c-0.538,0-.721-0.173-0.721-0.545V282.5h1.27Zm4.189-1.165a2.313,2.313,0,0,0-1.93,1.029v-3.308H231.6v8.822h1.221V284.27a1.648,1.648,0,0,1,1.588-1.846,1.182,1.182,0,0,1,1.331,1.338v4.114h1.221v-4.287A2.036,2.036,0,0,0,234.753,281.333Zm9.342,3.395c0-1.92-1.087-3.395-2.992-3.395-1.8,0-2.993,1.339-2.993,3.346,0,2.057,1.234,3.345,3.017,3.345a2.734,2.734,0,0,0,2.821-2.106h-1.233a1.533,1.533,0,0,1-1.564,1.066,1.757,1.757,0,0,1-1.807-1.9H244.1v-0.36Zm-2.992-2.354a1.741,1.741,0,0,1,1.734,1.735h-3.481A1.725,1.725,0,0,1,241.1,282.374Zm11.027-1.041a2.192,2.192,0,0,0-1.954,1.2,1.967,1.967,0,0,0-1.942-1.2,2.02,2.02,0,0,0-1.82,1.1v-0.954h-1.172v6.394h1.221v-3.507c0-1.388.757-1.945,1.478-1.945a1.128,1.128,0,0,1,1.221,1.326v4.126h1.222v-3.507c0-1.388.732-1.945,1.477-1.945a1.12,1.12,0,0,1,1.209,1.326v4.126H254.3v-4.287A2.05,2.05,0,0,0,252.13,281.333Zm9.293,3.395c0-1.92-1.087-3.395-2.992-3.395-1.8,0-2.993,1.339-2.993,3.346,0,2.057,1.234,3.345,3.017,3.345a2.734,2.734,0,0,0,2.821-2.106h-1.233a1.533,1.533,0,0,1-1.564,1.066,1.757,1.757,0,0,1-1.807-1.9h4.751v-0.36Zm-2.992-2.354a1.741,1.741,0,0,1,1.734,1.735h-3.481A1.725,1.725,0,0,1,258.431,282.374Zm-23.471,11a2.369,2.369,0,0,0-2.1,1.115v-0.966h-1.173v8.822h1.222v-3.321a2.377,2.377,0,0,0,2.051,1.041c1.747,0,2.883-1.3,2.883-3.346S236.707,293.369,234.96,293.369Zm-0.232,5.625c-1.123,0-1.844-.818-1.844-2.28s0.721-2.28,1.844-2.28,1.844,0.769,1.844,2.231S235.852,298.994,234.728,298.994Zm9.574-.037a0.294,0.294,0,0,1-.342-0.322v-3.383c0-1.115-.684-1.883-2.491-1.883-1.893,0-2.6.855-2.675,2.143H240c0.062-.867.477-1.152,1.466-1.152s1.3,0.322,1.3.917a0.827,0.827,0,0,1-.941.805l-0.928.1c-1.759.173-2.369,0.954-2.369,1.982,0,1.227.891,1.9,2.247,1.9a2.291,2.291,0,0,0,2.052-1.016,1.009,1.009,0,0,0,1.221.9,4.661,4.661,0,0,0,.6-0.037v-0.954H244.3Zm-3.346.136a0.977,0.977,0,0,1-1.172-.966c0-.57.305-0.929,1.319-1.053l0.879-.1a1.473,1.473,0,0,0,.782-0.261v0.669A1.665,1.665,0,0,1,240.956,299.093Zm7.205,0.967a2.686,2.686,0,0,0,2.821-2.429h-1.246a1.5,1.5,0,0,1-1.575,1.351c-0.977,0-1.734-.719-1.734-2.268s0.733-2.267,1.734-2.267a1.5,1.5,0,0,1,1.563,1.3h1.246a2.641,2.641,0,0,0-2.809-2.379c-1.808,0-3,1.3-3,3.345S246.378,300.06,248.161,300.06Zm8.1-.149h1.4l-2.541-4.039,2.382-2.354h-1.527l-2.772,2.775v-5.2H252v8.822H253.2v-2.193l1.05-1.041Z"/>
  </g>
</svg>
