<svg id="F2" xmlns="http://www.w3.org/2000/svg" width="300" height="600" viewBox="0 0 300 600">
  <defs>
    <style>
      .cls-1 {
        fill: #fff;
        fill-rule: evenodd;
      }
    </style>
  </defs>
  <g id="CTA">
    <path id="Sign_up" data-name="Sign up" class="cls-1" d="M125.786,496.343c3.2,0,4.468-1.584,4.468-3.426,0-1.794-1.17-2.812-3.315-3.265l-2.03-.436c-1.446-.307-2.015-0.824-2.015-1.746,0-1.212.975-1.907,2.632-1.907,1.771,0,2.8.776,2.924,2.247H129.9c-0.179-2.231-1.755-3.475-4.322-3.475-2.665,0-4.111,1.325-4.111,3.265,0,1.842,1.365,2.618,3.25,3.006l1.624,0.339c1.8,0.372,2.454.97,2.454,2.053,0,1.309-.975,2.117-2.957,2.117-2,0-3.169-.824-3.331-2.748h-1.446C121.253,495.034,122.894,496.343,125.786,496.343Zm6.6-10.149h1.494v-1.6h-1.494v1.6Zm0,9.907h1.494v-8.34h-1.494v8.34Zm9.944-8.34v1.293a3,3,0,0,0-2.714-1.47c-2.128,0-3.623,1.7-3.623,4.218,0,2.586,1.381,4.477,3.656,4.477a3.085,3.085,0,0,0,2.632-1.39v1.082c0,1.746-.715,2.441-2.437,2.441-1.186,0-1.9-.323-2.129-1.261h-1.462c0.228,1.7,1.592,2.441,3.542,2.441,2.372,0,3.932-1.083,3.932-3.766v-8.065h-1.4ZM139.794,495c-1.446,0-2.307-1.261-2.307-3.2,0-1.907.894-2.942,2.34-2.942,1.4,0,2.4,1,2.4,2.974S141.191,495,139.794,495Zm10.741-7.451a3.2,3.2,0,0,0-2.81,1.39v-1.18h-1.4v8.34h1.5v-4.639a2.3,2.3,0,0,1,2.389-2.618,1.521,1.521,0,0,1,1.673,1.762v5.5h1.5v-5.786A2.574,2.574,0,0,0,150.535,487.551Zm15.389,0.21V492.4a2.294,2.294,0,0,1-2.388,2.618,1.522,1.522,0,0,1-1.674-1.762v-5.495h-1.494v5.786a2.574,2.574,0,0,0,2.843,2.764,3.2,3.2,0,0,0,2.811-1.39v1.18h1.4v-8.34h-1.5Zm8.142-.177a3.025,3.025,0,0,0-2.746,1.519v-1.342h-1.3V499.4h1.495v-4.315a3.063,3.063,0,0,0,2.486,1.2c2.275,0,3.672-1.956,3.672-4.542C177.673,489.216,176.194,487.584,174.066,487.584ZM173.855,495c-1.4,0-2.421-1.2-2.421-3.168s1.024-2.974,2.421-2.974c1.446,0,2.323.97,2.323,2.877C176.178,493.676,175.3,495,173.855,495Z"/>
  </g>
</svg>
