<svg id="F2" xmlns="http://www.w3.org/2000/svg" width="300" height="600" viewBox="0 0 300 600">
  <defs>
    <style>
      .cls-1 {
        fill: #4d4d4f;
        fill-rule: evenodd;
      }
    </style>
  </defs>
  <path id="_On_a_2-year_term._Conditions_apply." data-name="*On a 2-year term. Conditions apply." class="cls-1" d="M68.766,580.041a10.6,10.6,0,0,0-.845.962l0.6,0.432a8.17,8.17,0,0,0,.662-1.094,12.522,12.522,0,0,0,.7,1.094L70.491,581a8.574,8.574,0,0,0-.875-0.962,6.332,6.332,0,0,0,1.267-.284l-0.234-.723a8.832,8.832,0,0,0-1.2.489q0.1-.759.117-1.262H68.827q0,0.346.1,1.267a7.827,7.827,0,0,0-1.175-.494l-0.234.723q0.59,0.158,1.247.284h0Zm3.213,4.034a3.276,3.276,0,0,0,1.257,1.388,3.53,3.53,0,0,0,1.883.509,3.708,3.708,0,0,0,1.812-.46,3.127,3.127,0,0,0,1.3-1.356,4.391,4.391,0,0,0,.458-2.029,4.472,4.472,0,0,0-.435-2,3.226,3.226,0,0,0-1.265-1.376,3.582,3.582,0,0,0-1.863-.493,3.392,3.392,0,0,0-2.575,1.05,4.053,4.053,0,0,0-1,2.907A4.207,4.207,0,0,0,71.979,584.075Zm1.346-4.25a2.523,2.523,0,0,1,1.8-.719,2.445,2.445,0,0,1,1.331.373,2.373,2.373,0,0,1,.9,1.053,3.822,3.822,0,0,1,.308,1.59,3.165,3.165,0,0,1-.72,2.222,2.529,2.529,0,0,1-3.654.008,2.987,2.987,0,0,1-.725-2.124A3.214,3.214,0,0,1,73.325,579.825Zm7.4,6.02V582.9a1.83,1.83,0,0,1,.425-1.409,1.482,1.482,0,0,1,1.01-.371,1.208,1.208,0,0,1,.639.165,0.881,0.881,0,0,1,.379.442,2.466,2.466,0,0,1,.107.837v3.286H84.2v-3.322a5.251,5.251,0,0,0-.051-0.89,1.766,1.766,0,0,0-.285-0.676,1.411,1.411,0,0,0-.613-0.46,2.257,2.257,0,0,0-.9-0.176,1.944,1.944,0,0,0-1.72.89v-0.768H79.806v5.4h0.916Zm11.59,0h0.957a2.035,2.035,0,0,1-.231-0.649,12.92,12.92,0,0,1-.058-1.615v-1.22a5.165,5.165,0,0,0-.046-0.845,1.449,1.449,0,0,0-.285-0.623,1.481,1.481,0,0,0-.636-0.409,3.236,3.236,0,0,0-1.125-.163,3.614,3.614,0,0,0-1.226.191,1.757,1.757,0,0,0-.809.544,2.219,2.219,0,0,0-.4.928l0.9,0.122a1.383,1.383,0,0,1,.456-0.8,1.617,1.617,0,0,1,.954-0.226,1.532,1.532,0,0,1,1.043.31,1.012,1.012,0,0,1,.26.789c0,0.034,0,.113-0.005.239a8.376,8.376,0,0,1-1.633.315,6.635,6.635,0,0,0-.814.137,2.238,2.238,0,0,0-.659.3,1.5,1.5,0,0,0-.473.527,1.477,1.477,0,0,0-.181.725,1.434,1.434,0,0,0,.478,1.111,1.965,1.965,0,0,0,1.369.435,2.825,2.825,0,0,0,1.01-.178,3.422,3.422,0,0,0,.98-0.61,1.94,1.94,0,0,0,.183.666h0Zm-0.26-2.375a2.21,2.21,0,0,1-.148.915,1.423,1.423,0,0,1-.606.633,1.883,1.883,0,0,1-.941.232,1.2,1.2,0,0,1-.812-0.244,0.81,0.81,0,0,1-.15-1.046,0.8,0.8,0,0,1,.361-0.3,3.44,3.44,0,0,1,.8-0.183,6.762,6.762,0,0,0,1.5-.346v0.336Zm6.246,1.5a3,3,0,0,1,.387-0.5q0.234-.246,1.058-0.938a14.887,14.887,0,0,0,1.412-1.313,3.414,3.414,0,0,0,.609-0.91,2.239,2.239,0,0,0,.183-0.88,1.954,1.954,0,0,0-.626-1.475,2.364,2.364,0,0,0-1.7-.6,2.483,2.483,0,0,0-1.695.552,2.316,2.316,0,0,0-.728,1.6l0.941,0.1a1.5,1.5,0,0,1,.4-1.1,1.432,1.432,0,0,1,1.058-.4,1.4,1.4,0,0,1,1.015.374,1.22,1.22,0,0,1,.389.918,1.89,1.89,0,0,1-.427,1.1,10.147,10.147,0,0,1-1.644,1.579,9.456,9.456,0,0,0-1.2,1.129,3.364,3.364,0,0,0-.6.992,1.613,1.613,0,0,0-.107.636h4.931v-0.88H98.3Zm6.989-1.358v-0.921h-2.814v0.921h2.814Zm1.357,4.43a1.323,1.323,0,0,0,.753-0.211,1.815,1.815,0,0,0,.56-0.664,10.871,10.871,0,0,0,.514-1.226l2.056-5.493h-0.916l-1.156,3.149a12.247,12.247,0,0,0-.376,1.23q-0.174-.655-0.392-1.251l-1.125-3.128h-0.987l2.051,5.412c-0.038.1-.065,0.173-0.082,0.224a4.555,4.555,0,0,1-.279.681,0.846,0.846,0,0,1-.3.285,1,1,0,0,1-.488.1,2.044,2.044,0,0,1-.524-0.081l0.1,0.859a1.825,1.825,0,0,0,.591.112h0Zm7.5-3.087a1.4,1.4,0,0,1-.86.264,1.5,1.5,0,0,1-1.13-.473,2.075,2.075,0,0,1-.5-1.363h4.031c0-.109.005-0.19,0.005-0.244a2.927,2.927,0,0,0-.687-2.075,2.311,2.311,0,0,0-1.771-.738,2.377,2.377,0,0,0-1.822.753,2.985,2.985,0,0,0-.7,2.116,2.852,2.852,0,0,0,.694,2.047,2.472,2.472,0,0,0,1.881.73,2.5,2.5,0,0,0,1.547-.458,2.309,2.309,0,0,0,.829-1.287l-0.946-.117A1.769,1.769,0,0,1,114.141,584.95Zm-1.967-3.454a1.457,1.457,0,0,1,1.061-.422,1.4,1.4,0,0,1,1.135.529,1.831,1.831,0,0,1,.346,1.022H111.7A1.673,1.673,0,0,1,112.174,581.5Zm8.2,4.349h0.957a2.046,2.046,0,0,1-.232-0.649,12.982,12.982,0,0,1-.058-1.615v-1.22a5.1,5.1,0,0,0-.046-0.845,1.441,1.441,0,0,0-.285-0.623,1.485,1.485,0,0,0-.636-0.409,3.234,3.234,0,0,0-1.125-.163,3.616,3.616,0,0,0-1.226.191,1.754,1.754,0,0,0-.809.544,2.209,2.209,0,0,0-.4.928l0.9,0.122a1.382,1.382,0,0,1,.455-0.8,1.616,1.616,0,0,1,.954-0.226,1.533,1.533,0,0,1,1.043.31,1.013,1.013,0,0,1,.26.789c0,0.034,0,.113,0,0.239a8.383,8.383,0,0,1-1.634.315,6.639,6.639,0,0,0-.814.137,2.239,2.239,0,0,0-.659.3,1.5,1.5,0,0,0-.473.527,1.472,1.472,0,0,0-.181.725,1.437,1.437,0,0,0,.478,1.111,1.967,1.967,0,0,0,1.369.435,2.829,2.829,0,0,0,1.011-.178,3.427,3.427,0,0,0,.979-0.61,1.938,1.938,0,0,0,.183.666h0Zm-0.259-2.375a2.2,2.2,0,0,1-.148.915,1.426,1.426,0,0,1-.605.633,1.885,1.885,0,0,1-.942.232,1.2,1.2,0,0,1-.811-0.244,0.782,0.782,0,0,1-.278-0.611,0.79,0.79,0,0,1,.127-0.435,0.8,0.8,0,0,1,.362-0.3,3.434,3.434,0,0,1,.8-0.183,6.767,6.767,0,0,0,1.5-.346v0.336Zm3.094,2.375v-2.828a3.552,3.552,0,0,1,.153-1.068,0.973,0.973,0,0,1,.341-0.5,0.867,0.867,0,0,1,.539-0.181,1.306,1.306,0,0,1,.672.2l0.315-.85a1.789,1.789,0,0,0-.941-0.295,1.018,1.018,0,0,0-.588.183,2.234,2.234,0,0,0-.582.758v-0.819h-0.825v5.4h0.916Zm7.163-.783a0.6,0.6,0,0,1-.313-0.067,0.378,0.378,0,0,1-.158-0.178,1.6,1.6,0,0,1-.048-0.5v-3.159h0.921v-0.712h-0.921v-1.887l-0.911.55v1.337h-0.672v0.712h0.672v3.108a3.267,3.267,0,0,0,.112,1.081,0.879,0.879,0,0,0,.386.414,1.571,1.571,0,0,0,.774.158,3.412,3.412,0,0,0,.692-0.081l-0.132-.809a2.969,2.969,0,0,1-.4.036h0Zm4.2-.112a1.4,1.4,0,0,1-.86.264,1.5,1.5,0,0,1-1.13-.473,2.075,2.075,0,0,1-.5-1.363h4.031c0-.109,0-0.19,0-0.244a2.927,2.927,0,0,0-.687-2.075,2.31,2.31,0,0,0-1.771-.738,2.378,2.378,0,0,0-1.822.753,2.985,2.985,0,0,0-.7,2.116,2.852,2.852,0,0,0,.694,2.047,2.811,2.811,0,0,0,3.428.272,2.3,2.3,0,0,0,.829-1.287l-0.946-.117A1.762,1.762,0,0,1,134.575,584.95Zm-1.967-3.454a1.457,1.457,0,0,1,1.061-.422,1.4,1.4,0,0,1,1.135.529,1.831,1.831,0,0,1,.346,1.022h-3.018A1.673,1.673,0,0,1,132.608,581.5Zm5.4,4.349v-2.828a3.584,3.584,0,0,1,.152-1.068,0.979,0.979,0,0,1,.341-0.5,0.872,0.872,0,0,1,.54-0.181,1.306,1.306,0,0,1,.672.2l0.315-.85a1.794,1.794,0,0,0-.941-0.295,1.018,1.018,0,0,0-.588.183,2.234,2.234,0,0,0-.583.758v-0.819h-0.824v5.4h0.916Zm3.5,0v-2.8a3.362,3.362,0,0,1,.147-1.129,1.153,1.153,0,0,1,.476-0.6,1.328,1.328,0,0,1,.715-0.2,0.848,0.848,0,0,1,.733.3,1.543,1.543,0,0,1,.224.915v3.51h0.916v-3.138a1.668,1.668,0,0,1,.376-1.213,1.279,1.279,0,0,1,.947-0.379,1.01,1.01,0,0,1,.549.147,0.763,0.763,0,0,1,.323.389,2.487,2.487,0,0,1,.089.791v3.4h0.911v-3.708a1.9,1.9,0,0,0-.432-1.371,1.65,1.65,0,0,0-1.237-.445,1.941,1.941,0,0,0-1.669.946,1.339,1.339,0,0,0-.542-0.7,1.779,1.779,0,0,0-.985-0.249,1.9,1.9,0,0,0-.961.242,1.92,1.92,0,0,0-.677.638v-0.758H140.6v5.4h0.916Zm8.835,0V584.8H149.3v1.043h1.043Zm9.254-1.2a2.126,2.126,0,0,1-1.4.478,2.418,2.418,0,0,1-1.267-.351,2.069,2.069,0,0,1-.863-1.061,4.542,4.542,0,0,1-.277-1.66,4.454,4.454,0,0,1,.234-1.432,2.172,2.172,0,0,1,.812-1.106,2.409,2.409,0,0,1,1.437-.412,2,2,0,0,1,1.242.371,2.3,2.3,0,0,1,.753,1.185l0.972-.229a2.963,2.963,0,0,0-1.063-1.6,3.06,3.06,0,0,0-1.883-.57,3.7,3.7,0,0,0-1.809.45,3.054,3.054,0,0,0-1.268,1.318,4.4,4.4,0,0,0-.445,2.032,5.072,5.072,0,0,0,.4,2,3.058,3.058,0,0,0,1.15,1.421,3.542,3.542,0,0,0,1.961.491,3.08,3.08,0,0,0,1.972-.638,3.323,3.323,0,0,0,1.117-1.854l-0.987-.25A2.446,2.446,0,0,1,159.6,584.65Zm3.187,0.59a2.432,2.432,0,0,0,1.834.727,2.65,2.65,0,0,0,1.306-.331,2.215,2.215,0,0,0,.911-0.928,3.579,3.579,0,0,0,.312-1.64,2.775,2.775,0,0,0-.707-2.017,2.423,2.423,0,0,0-1.822-.73,2.513,2.513,0,0,0-1.7.6,2.783,2.783,0,0,0-.835,2.223A2.9,2.9,0,0,0,162.788,585.24Zm0.694-3.647a1.512,1.512,0,0,1,2.273,0,2.235,2.235,0,0,1,.455,1.518,2.354,2.354,0,0,1-.453,1.582,1.509,1.509,0,0,1-2.275,0A2.887,2.887,0,0,1,163.482,581.593Zm5.548,4.252V582.9a1.827,1.827,0,0,1,.425-1.409,1.481,1.481,0,0,1,1.01-.371,1.205,1.205,0,0,1,.638.165,0.885,0.885,0,0,1,.38.442,2.478,2.478,0,0,1,.106.837v3.286h0.916v-3.322a5.378,5.378,0,0,0-.05-0.89,1.788,1.788,0,0,0-.285-0.676,1.417,1.417,0,0,0-.614-0.46,2.255,2.255,0,0,0-.9-0.176,1.944,1.944,0,0,0-1.72.89v-0.768h-0.824v5.4h0.916Zm9.1,0v-7.457H177.22v2.676a1.8,1.8,0,0,0-1.491-.743,2.161,2.161,0,0,0-1.206.351,2.128,2.128,0,0,0-.81,1.01,3.852,3.852,0,0,0-.269,1.467,3.438,3.438,0,0,0,.3,1.467,2.345,2.345,0,0,0,.84,1,2.121,2.121,0,0,0,1.188.356,1.682,1.682,0,0,0,1.512-.8v0.682h0.85Zm-3.336-4.268a1.269,1.269,0,0,1,1.02-.5,1.316,1.316,0,0,1,1.054.519,2.544,2.544,0,0,1,.427,1.627,2.26,2.26,0,0,1-.42,1.5,1.294,1.294,0,0,1-1.02.491,1.319,1.319,0,0,1-1.033-.514,2.341,2.341,0,0,1-.438-1.551A2.463,2.463,0,0,1,174.8,581.577Zm5.5-2.136v-1.053h-0.916v1.053H180.3Zm0,6.4v-5.4h-0.916v5.4H180.3Zm2.829-.783a0.6,0.6,0,0,1-.312-0.067,0.378,0.378,0,0,1-.158-0.178,1.558,1.558,0,0,1-.049-0.5v-3.159h0.922v-0.712h-0.922v-1.887l-0.91.55v1.337h-0.672v0.712H181.7v3.108a3.3,3.3,0,0,0,.111,1.081,0.886,0.886,0,0,0,.387.414,1.569,1.569,0,0,0,.774.158,3.419,3.419,0,0,0,.692-0.081l-0.132-.809a2.968,2.968,0,0,1-.4.036h0Zm2.12-5.621v-1.053h-0.916v1.053h0.916Zm0,6.4v-5.4h-0.916v5.4h0.916Zm1.657-.605a2.434,2.434,0,0,0,1.835.727,2.643,2.643,0,0,0,1.305-.331,2.2,2.2,0,0,0,.911-0.928,3.565,3.565,0,0,0,.313-1.64,2.779,2.779,0,0,0-.707-2.017,2.425,2.425,0,0,0-1.822-.73,2.518,2.518,0,0,0-1.7.6,2.786,2.786,0,0,0-.834,2.223A2.908,2.908,0,0,0,186.9,585.24Zm0.695-3.647a1.51,1.51,0,0,1,2.272,0,2.23,2.23,0,0,1,.456,1.518,2.354,2.354,0,0,1-.453,1.582,1.509,1.509,0,0,1-2.275,0A2.887,2.887,0,0,1,187.6,581.593Zm5.547,4.252V582.9a1.831,1.831,0,0,1,.425-1.409,1.483,1.483,0,0,1,1.01-.371,1.206,1.206,0,0,1,.639.165,0.878,0.878,0,0,1,.379.442,2.474,2.474,0,0,1,.107.837v3.286h0.916v-3.322a5.238,5.238,0,0,0-.051-0.89,1.757,1.757,0,0,0-.285-0.676,1.407,1.407,0,0,0-.613-0.46,2.255,2.255,0,0,0-.9-0.176,1.944,1.944,0,0,0-1.72.89v-0.768h-0.825v5.4h0.916Zm5.048-.316a2.538,2.538,0,0,0,1.606.438,2.817,2.817,0,0,0,1.14-.221,1.737,1.737,0,0,0,.771-0.626,1.538,1.538,0,0,0,.267-0.862,1.339,1.339,0,0,0-.219-0.783,1.371,1.371,0,0,0-.6-0.481,11.289,11.289,0,0,0-1.356-.425q-0.672-.183-0.809-0.234a0.8,0.8,0,0,1-.352-0.244,0.509,0.509,0,0,1-.112-0.32,0.609,0.609,0,0,1,.27-0.489,1.5,1.5,0,0,1,.9-0.208,1.294,1.294,0,0,1,.827.234,0.981,0.981,0,0,1,.354.651l0.895-.122a1.955,1.955,0,0,0-.315-0.837,1.528,1.528,0,0,0-.71-0.5,3.133,3.133,0,0,0-1.117-.183,2.807,2.807,0,0,0-.792.109,1.86,1.86,0,0,0-.582.268,1.487,1.487,0,0,0-.451.511,1.393,1.393,0,0,0-.165.669,1.334,1.334,0,0,0,.791,1.238,8.578,8.578,0,0,0,1.4.44,3.987,3.987,0,0,1,.937.31,0.558,0.558,0,0,1,.269.489,0.768,0.768,0,0,1-.3.6,1.429,1.429,0,0,1-.936.257,1.482,1.482,0,0,1-.975-0.29,1.266,1.266,0,0,1-.425-0.834l-0.906.142A2.032,2.032,0,0,0,198.191,585.529Zm11.582,0.316h0.957a2.046,2.046,0,0,1-.232-0.649,12.982,12.982,0,0,1-.058-1.615v-1.22a5.1,5.1,0,0,0-.046-0.845,1.441,1.441,0,0,0-.285-0.623,1.485,1.485,0,0,0-.636-0.409,3.234,3.234,0,0,0-1.125-.163,3.616,3.616,0,0,0-1.226.191,1.754,1.754,0,0,0-.809.544,2.209,2.209,0,0,0-.4.928l0.9,0.122a1.388,1.388,0,0,1,.456-0.8,1.616,1.616,0,0,1,.954-0.226,1.533,1.533,0,0,1,1.043.31,1.013,1.013,0,0,1,.26.789c0,0.034,0,.113,0,0.239a8.383,8.383,0,0,1-1.634.315,6.639,6.639,0,0,0-.814.137,2.239,2.239,0,0,0-.659.3,1.5,1.5,0,0,0-.473.527,1.472,1.472,0,0,0-.181.725,1.437,1.437,0,0,0,.478,1.111,1.967,1.967,0,0,0,1.369.435,2.819,2.819,0,0,0,1.01-.178,3.417,3.417,0,0,0,.98-0.61,1.938,1.938,0,0,0,.183.666h0Zm-0.259-2.375a2.2,2.2,0,0,1-.148.915,1.426,1.426,0,0,1-.605.633,1.885,1.885,0,0,1-.942.232,1.2,1.2,0,0,1-.812-0.244,0.811,0.811,0,0,1-.15-1.046,0.8,0.8,0,0,1,.362-0.3,3.434,3.434,0,0,1,.8-0.183,6.767,6.767,0,0,0,1.5-.346v0.336Zm3.1,4.445v-2.63a1.866,1.866,0,0,0,.6.489,1.737,1.737,0,0,0,.822.193,2.265,2.265,0,0,0,2.058-1.371,3.6,3.6,0,0,0,.3-1.493,3.66,3.66,0,0,0-.27-1.421,2.18,2.18,0,0,0-.8-1,2.137,2.137,0,0,0-1.221-.356,1.838,1.838,0,0,0-.9.206,2.047,2.047,0,0,0-.666.618v-0.7H211.7v7.472h0.916Zm0.364-6.33a1.32,1.32,0,0,1,1.036-.547,1.281,1.281,0,0,1,1.015.514,2.388,2.388,0,0,1,.425,1.546,2.45,2.45,0,0,1-.435,1.6,1.325,1.325,0,0,1-1.046.516,1.3,1.3,0,0,1-1.023-.5,2.348,2.348,0,0,1-.422-1.541A2.448,2.448,0,0,1,212.977,581.585Zm5.3,6.33v-2.63a1.877,1.877,0,0,0,.6.489,1.737,1.737,0,0,0,.822.193,2.265,2.265,0,0,0,2.058-1.371,3.6,3.6,0,0,0,.3-1.493,3.66,3.66,0,0,0-.27-1.421,2.18,2.18,0,0,0-.8-1,2.137,2.137,0,0,0-1.221-.356,1.838,1.838,0,0,0-.9.206,2.047,2.047,0,0,0-.666.618v-0.7h-0.835v7.472h0.916Zm0.364-6.33a1.32,1.32,0,0,1,1.036-.547,1.281,1.281,0,0,1,1.015.514,2.388,2.388,0,0,1,.425,1.546,2.45,2.45,0,0,1-.435,1.6,1.325,1.325,0,0,1-1.046.516,1.3,1.3,0,0,1-1.023-.5,2.348,2.348,0,0,1-.422-1.541A2.448,2.448,0,0,1,218.645,581.585Zm5.348-3.2h-0.916v5.875q0,0.361.018,0.664a1.207,1.207,0,0,0,.137.521,0.817,0.817,0,0,0,.377.343,1.744,1.744,0,0,0,.74.125,2.784,2.784,0,0,0,.313-0.02c0.114-.014.238-0.034,0.374-0.061l-0.122-.814-0.214.028a1.66,1.66,0,0,1-.193.013,0.753,0.753,0,0,1-.283-0.044,0.307,0.307,0,0,1-.155-0.132,0.57,0.57,0,0,1-.064-0.231c-0.008-.1-0.012-0.209-0.012-0.341v-5.926Zm2,9.649a1.319,1.319,0,0,0,.753-0.211,1.805,1.805,0,0,0,.56-0.664,10.682,10.682,0,0,0,.514-1.226l2.056-5.493h-0.916l-1.155,3.149a12.251,12.251,0,0,0-.377,1.23q-0.172-.655-0.392-1.251l-1.124-3.128h-0.987l2.05,5.412c-0.037.1-.064,0.173-0.081,0.224a4.408,4.408,0,0,1-.28.681,0.835,0.835,0,0,1-.3.285,1,1,0,0,1-.489.1,2.051,2.051,0,0,1-.524-0.081l0.1,0.859a1.825,1.825,0,0,0,.59.112h0Zm5.154-2.192V584.8H230.1v1.043h1.044Z"/>
</svg>
