<svg id="F2" xmlns="http://www.w3.org/2000/svg" width="300" height="600" viewBox="0 0 300 600">
  <defs>
    <style>
      .cls-1 {
        fill: #4c286d;
        fill-rule: evenodd;
      }
    </style>
  </defs>
  <path id="Get_GMA_Pinoy_TV_Live_TV" data-name="Get GMA Pinoy TV + Live TV" class="cls-1" d="M34.68,142.449v2.268h6.776c0,4.057-3.313,6.832-7.253,6.832-4.507,0-7.462-3.4-7.462-8.8s2.925-8.8,7.462-8.8c3.343,0,6.119,1.939,6.686,5.131h2.6c-0.716-4.415-4.149-7.428-9.283-7.428-6.149,0-10.089,4.5-10.089,11.1s3.97,11.1,10.059,11.1a8.155,8.155,0,0,0,6.955-3.342l0.537,2.864h2.06V142.449H34.68Zm26.058,3.222c0-4.415-2.477-8.055-7.074-8.055-4.268,0-7.1,3.222-7.1,8.055,0,4.983,2.955,8.055,7.164,8.055a6.425,6.425,0,0,0,6.627-5.041H57.872a3.957,3.957,0,0,1-4.089,2.864c-2.686,0-4.507-1.582-4.746-5.042h11.7v-0.836Zm-7.074-5.877c2.746,0,4.268,2.029,4.507,4.565H49.1C49.485,141.316,51.246,139.794,53.663,139.794Zm16.8,0.269v-2.089H67.3v-4.355H64.916v4.355H62.379v2.089h2.537v10.2c0,2.357,1.463,3.192,3.85,3.192q0.716,0,1.7-.09v-2h-1.4c-1.373,0-1.761-.508-1.761-1.313v-9.994h3.164Zm18.625,1.849v3.252h5.552a5.642,5.642,0,0,1-5.94,5.161c-4,0-6.477-2.893-6.477-7.577s2.418-7.578,6.328-7.578c2.925,0,5.044,1.551,5.641,4.027h4.149c-0.716-4.594-4.447-7.547-9.82-7.547-6.477,0-10.507,4.415-10.507,11.1s4.03,11.1,10.149,11.1a8.134,8.134,0,0,0,6.925-3.282l0.567,2.8h2.925V141.912H89.093Zm29.58-9.785-3.552,10.113c-0.657,1.91-1.343,4.117-1.88,5.967-0.538-1.76-1.194-3.848-1.821-5.758l-3.672-10.322H101.9v21.241h3.88v-6.474c0-3.192-.029-6.652-0.119-10.471,0.478,1.581.955,3.013,1.582,4.833l4.328,12.112h3.313l4.3-12.112c0.656-1.85,1.134-3.282,1.611-4.893-0.089,3.849-.119,7.309-0.119,10.531v6.474h3.85V132.127h-5.85Zm24.715,21.241h4.268l-8.238-21.241H134.7l-8.089,21.241h4.149l1.641-4.683h9.313Zm-9.761-8.114,0.806-2.3c0.716-1.939,1.731-4.773,2.6-7.279,0.866,2.506,1.88,5.34,2.627,7.279l0.835,2.3h-6.865Zm32.057-13.127h-9.343v21.241h4.03V145.94h5.313c4.9,0,7.522-2.805,7.522-6.892C173.206,134.931,170.579,132.127,165.684,132.127Zm-0.179,10.352h-5.134v-6.891h5.134c2.358,0,3.641,1.253,3.641,3.46S167.863,142.479,165.505,142.479Zm12.088-6.354a2.074,2.074,0,1,0-2.089-2.059A2.064,2.064,0,0,0,177.593,136.125Zm-1.88,17.243h3.761V137.974h-3.761v15.394Zm15.4-15.752a5.677,5.677,0,0,0-4.805,2.566v-2.208h-3.642v15.394h3.761v-8.622c0-2.744,1.791-3.878,3.433-3.878,1.91,0,2.9.955,2.9,2.924v9.576h3.761v-10.2C196.517,139.5,194.338,137.616,191.114,137.616Zm15.76,16.11c4.687,0,7.821-3.162,7.821-8.055s-3.134-8.055-7.821-8.055-7.85,3.163-7.85,8.055S202.188,153.726,206.874,153.726Zm0-3.1c-2.447,0-4-1.7-4-4.953s1.552-4.952,4-4.952c2.418,0,4,1.7,4,4.952S209.292,150.624,206.874,150.624Zm20.387-12.65-1.254,3.879c-0.836,2.714-1.671,5.519-2.477,8.562-0.776-3.013-1.612-5.907-2.448-8.592l-1.254-3.849h-4.059l4.477,12.65a10.3,10.3,0,0,1,.717,3.1,2.3,2.3,0,0,1-2.537,2.477h-1.433v2.953a12.211,12.211,0,0,0,1.642.09c3.731,0,5.4-1.194,6.626-4.625l5.94-16.647h-3.94Zm28.893-5.847H238.483v3.61h6.806v17.631h4.059V135.737h6.806v-3.61Zm16.745,0-3.761,10.979c-0.687,2.088-1.4,4.355-2,6.623-0.627-2.268-1.343-4.535-2.03-6.623l-3.85-10.979h-4.3l7.791,21.241h4.716l7.611-21.241H272.9ZM102.435,175.71H97.3v-5.162H93.809v5.162H88.645v3.222h5.164v5.131H97.3v-5.131h5.134V175.71Zm13.492,8.622V166.7H111.9v21.241h14.148v-3.609H115.927ZM130.075,170.7a2.074,2.074,0,1,0-2.09-2.059A2.063,2.063,0,0,0,130.075,170.7Zm-1.881,17.243h3.761V172.547h-3.761v15.394Zm17.372-15.394-1.493,4.117c-0.805,2.566-1.641,5.281-2.417,7.876-0.776-2.565-1.612-5.31-2.418-7.846l-1.492-4.147h-4.03l5.7,15.394h4.328l5.731-15.394h-3.91Zm20.207,7.966c0-4.893-2.9-8.324-7.611-8.324-4.567,0-7.612,3.222-7.612,8.055,0,4.923,3.135,8.055,7.672,8.055,3.7,0,6.387-2,7.163-5.131h-3.611a3.511,3.511,0,0,1-3.523,2.208c-2.178,0-3.731-1.223-4-3.968h11.521v-0.895Zm-7.641-5.4c2.239,0,3.582,1.492,3.88,3.669h-7.73C154.64,176.247,156.132,175.113,158.132,175.113Zm33.43-8.413h-17.67v3.61H180.7v17.631h4.06V170.31h6.805V166.7Zm16.745,0-3.761,10.979c-0.686,2.088-1.4,4.355-2,6.623-0.627-2.268-1.343-4.535-2.03-6.623l-3.85-10.979h-4.3l7.79,21.241h4.716l7.612-21.241h-4.179Z"/>
</svg>
