<svg xmlns="http://www.w3.org/2000/svg" width="320" height="50" viewBox="0 0 320 50">
  <defs>
    <style>
      .cls-1 {
        fill: #4b286d;
        fill-rule: evenodd;
      }
    </style>
  </defs>
  <path id="Chalo_banayein_apni_communities_ko_stronger._" data-name="Chalo banayein apni communities ko stronger. " class="cls-1" d="M50.83,19.976a4.919,4.919,0,0,0,5.131-4.6h-1.4a3.626,3.626,0,0,1-3.727,3.309c-2.407,0-4.028-1.821-4.028-4.93s1.621-4.93,4.028-4.93a3.493,3.493,0,0,1,3.643,2.807h1.421A4.863,4.863,0,0,0,50.83,7.543c-3.175,0-5.5,2.356-5.5,6.216S47.654,19.976,50.83,19.976Zm10.508-9.091A3.177,3.177,0,0,0,58.7,12.272V7.81H57.36v11.9H58.7v-4.88a2.455,2.455,0,0,1,2.373-2.74,1.729,1.729,0,0,1,1.972,1.922v5.7h1.337V13.876A2.749,2.749,0,0,0,61.338,10.885Zm11.969,7.737a0.4,0.4,0,0,1-.468-0.418V13.392c0-1.454-.852-2.507-3.242-2.507-2.524,0-3.409,1.187-3.51,2.858h1.337c0.084-1.287.7-1.7,2.173-1.7s1.939,0.451,1.939,1.354c0,0.769-.485,1.086-1.354,1.186l-1.237.134c-2.373.251-3.192,1.32-3.192,2.674,0,1.621,1.17,2.523,3.042,2.523A3.161,3.161,0,0,0,71.6,18.522a1.237,1.237,0,0,0,1.454,1.237,5.09,5.09,0,0,0,.735-0.05V18.622H73.307Zm-4.446.15c-1.187,0-1.721-.568-1.721-1.42,0-.836.435-1.37,2.006-1.554l1.253-.15a2.225,2.225,0,0,0,1.136-.368V16.3A2.477,2.477,0,0,1,68.861,18.772Zm7.864,0.986a8.5,8.5,0,0,0,.852-0.05v-1.12H76.942a0.67,0.67,0,0,1-.819-0.735V7.81H74.786V17.97C74.786,19.29,75.522,19.758,76.725,19.758Zm5.326,0.15c2.423,0,4.178-1.755,4.178-4.512s-1.755-4.512-4.178-4.512S77.873,12.64,77.873,15.4,79.628,19.909,82.051,19.909Zm0-1.2c-1.671,0-2.774-1.22-2.774-3.309s1.1-3.309,2.774-3.309,2.774,1.22,2.774,3.309S83.722,18.706,82.051,18.706Zm13.168-7.821a3.388,3.388,0,0,0-2.891,1.437V7.81H90.991v11.9h1.27V18.371a3.39,3.39,0,0,0,2.958,1.537c2.423,0,4.011-1.755,4.011-4.512S97.643,10.885,95.219,10.885Zm-0.167,7.821c-1.671,0-2.774-1.22-2.774-3.309s1.1-3.309,2.774-3.309,2.774,1.153,2.774,3.242S96.723,18.706,95.052,18.706Zm12.656-.084a0.4,0.4,0,0,1-.468-0.418V13.392c0-1.454-.853-2.507-3.243-2.507-2.523,0-3.409,1.187-3.509,2.858h1.337c0.083-1.287.7-1.7,2.172-1.7s1.939,0.451,1.939,1.354c0,0.769-.485,1.086-1.354,1.186l-1.236.134c-2.374.251-3.193,1.32-3.193,2.674,0,1.621,1.17,2.523,3.042,2.523A3.161,3.161,0,0,0,106,18.522a1.236,1.236,0,0,0,1.454,1.237,5.078,5.078,0,0,0,.735-0.05V18.622h-0.484Zm-4.446.15c-1.187,0-1.721-.568-1.721-1.42,0-.836.434-1.37,2.005-1.554l1.254-.15a2.223,2.223,0,0,0,1.136-.368V16.3A2.477,2.477,0,0,1,103.262,18.772Zm9.988-7.888a3.177,3.177,0,0,0-2.707,1.487V11.085h-1.27v8.623h1.337v-4.88a2.454,2.454,0,0,1,2.373-2.74,1.729,1.729,0,0,1,1.972,1.922v5.7h1.337V13.876A2.749,2.749,0,0,0,113.25,10.885Zm11.969,7.737a0.4,0.4,0,0,1-.468-0.418V13.392c0-1.454-.852-2.507-3.242-2.507-2.524,0-3.41,1.187-3.51,2.858h1.337c0.084-1.287.7-1.7,2.173-1.7s1.939,0.451,1.939,1.354c0,0.769-.485,1.086-1.354,1.186l-1.237.134c-2.373.251-3.192,1.32-3.192,2.674,0,1.621,1.17,2.523,3.042,2.523a3.161,3.161,0,0,0,2.808-1.387,1.236,1.236,0,0,0,1.454,1.237,5.088,5.088,0,0,0,.735-0.05V18.622h-0.485Zm-4.445.15c-1.187,0-1.722-.568-1.722-1.42,0-.836.435-1.37,2.006-1.554l1.253-.15a2.227,2.227,0,0,0,1.137-.368V16.3A2.477,2.477,0,0,1,120.774,18.772Zm11.108-7.687-1.22,3.576c-0.435,1.253-.853,2.507-1.237,3.743-0.4-1.237-.8-2.473-1.237-3.727l-1.22-3.593H125.5l3.243,8.907c-0.1.267-.2,0.552-0.3,0.8a1.511,1.511,0,0,1-1.571,1.07h-0.786v1.12a6.656,6.656,0,0,0,.8.05,2.605,2.605,0,0,0,2.807-1.972l3.644-9.976h-1.454Zm9.595,4.311c0-2.473-1.387-4.512-3.961-4.512-2.39,0-3.977,1.8-3.977,4.512,0,2.791,1.654,4.512,4.011,4.512a3.6,3.6,0,0,0,3.71-2.824h-1.387a2.216,2.216,0,0,1-2.29,1.6c-1.5,0-2.523-.886-2.657-2.824h6.551V15.4ZM137.516,12.1a2.529,2.529,0,0,1,2.524,2.557h-5.081C135.177,12.957,136.163,12.1,137.516,12.1Zm6.023-2.239a0.9,0.9,0,1,0-.9-0.9A0.909,0.909,0,0,0,143.539,9.866Zm-0.669,9.843h1.337V11.085H142.87v8.623Zm7.15-8.823a3.177,3.177,0,0,0-2.708,1.487V11.085h-1.27v8.623h1.337v-4.88a2.455,2.455,0,0,1,2.373-2.74,1.729,1.729,0,0,1,1.972,1.922v5.7h1.338V13.876A2.749,2.749,0,0,0,150.02,10.885Zm15.274,7.737a0.4,0.4,0,0,1-.468-0.418V13.392c0-1.454-.852-2.507-3.242-2.507-2.524,0-3.41,1.187-3.51,2.858h1.337c0.083-1.287.7-1.7,2.173-1.7s1.938,0.451,1.938,1.354c0,0.769-.484,1.086-1.354,1.186l-1.236.134c-2.374.251-3.192,1.32-3.192,2.674,0,1.621,1.169,2.523,3.041,2.523a3.161,3.161,0,0,0,2.808-1.387,1.237,1.237,0,0,0,1.454,1.237,5.1,5.1,0,0,0,.736-0.05V18.622h-0.485Zm-4.446.15c-1.186,0-1.721-.568-1.721-1.42,0-.836.434-1.37,2-1.554l1.254-.15a2.223,2.223,0,0,0,1.136-.368V16.3A2.477,2.477,0,0,1,160.848,18.772Zm10.239-7.888a3.39,3.39,0,0,0-2.958,1.537V11.085h-1.27v11.9H168.2V18.472a3.388,3.388,0,0,0,2.891,1.437c2.424,0,4.011-1.755,4.011-4.512S173.511,10.885,171.087,10.885Zm-0.167,7.821c-1.671,0-2.774-1.22-2.774-3.309s1.1-3.309,2.774-3.309,2.775,1.153,2.775,3.242S172.591,18.706,170.92,18.706Zm9.626-7.821a3.177,3.177,0,0,0-2.708,1.487V11.085h-1.27v8.623h1.337v-4.88a2.455,2.455,0,0,1,2.373-2.74,1.729,1.729,0,0,1,1.972,1.922v5.7h1.338V13.876A2.749,2.749,0,0,0,180.546,10.885Zm5.541-1.019a0.9,0.9,0,1,0-.9-0.9A0.909,0.909,0,0,0,186.087,9.866Zm-0.669,9.843h1.337V11.085h-1.337v8.623ZM31.9,39.96a3.557,3.557,0,0,0,3.71-3.158h-1.37a2.265,2.265,0,0,1-2.34,1.955c-1.437,0-2.591-1.053-2.591-3.309s1.12-3.309,2.591-3.309a2.245,2.245,0,0,1,2.323,1.922h1.387a3.5,3.5,0,0,0-3.71-3.125c-2.39,0-3.994,1.738-3.994,4.512S29.545,39.96,31.9,39.96Zm8.752,0c2.423,0,4.178-1.755,4.178-4.512s-1.755-4.512-4.178-4.512-4.178,1.755-4.178,4.512S38.23,39.96,40.653,39.96Zm0-1.2c-1.671,0-2.774-1.22-2.774-3.309s1.1-3.309,2.774-3.309,2.774,1.22,2.774,3.309S42.324,38.756,40.653,38.756Zm14.695-7.821a2.979,2.979,0,0,0-2.657,1.621,2.7,2.7,0,0,0-2.657-1.621,2.77,2.77,0,0,0-2.49,1.471v-1.27h-1.27v8.623H47.61V35.047c0-2.072,1.153-2.908,2.206-2.908a1.647,1.647,0,0,1,1.8,1.9v5.715h1.337V35.047c0-2.072,1.12-2.908,2.206-2.908a1.641,1.641,0,0,1,1.8,1.9v5.715h1.337V33.91A2.741,2.741,0,0,0,55.348,30.936Zm13.9,0a2.979,2.979,0,0,0-2.657,1.621,2.7,2.7,0,0,0-2.657-1.621,2.77,2.77,0,0,0-2.49,1.471v-1.27h-1.27v8.623h1.337V35.047c0-2.072,1.153-2.908,2.206-2.908a1.647,1.647,0,0,1,1.8,1.9v5.715H66.86V35.047c0-2.072,1.12-2.908,2.206-2.908a1.641,1.641,0,0,1,1.805,1.9v5.715h1.337V33.91A2.741,2.741,0,0,0,69.25,30.936Zm10.468,0.2v4.88a2.455,2.455,0,0,1-2.373,2.741,1.73,1.73,0,0,1-1.972-1.922v-5.7H74.035v5.832a2.749,2.749,0,0,0,3.042,2.991,3.177,3.177,0,0,0,2.708-1.487v1.287h1.27V31.136H79.717Zm7.179-.2a3.177,3.177,0,0,0-2.707,1.487V31.136h-1.27v8.623h1.337V34.879a2.455,2.455,0,0,1,2.373-2.741A1.729,1.729,0,0,1,88.6,34.061v5.7h1.337V33.927A2.749,2.749,0,0,0,86.9,30.936Zm5.541-1.019a0.9,0.9,0,1,0-.9-0.9A0.91,0.91,0,0,0,92.437,29.916Zm-0.668,9.843h1.337V31.136H91.768v8.623Zm6.875-7.453v-1.17H96.872V28.7H95.535v2.44H94.115v1.17h1.421v5.715c0,1.32.819,1.788,2.156,1.788q0.4,0,.953-0.05v-1.12H97.858c-0.769,0-.986-0.284-0.986-0.735v-5.6h1.772Zm1.774-2.39a0.9,0.9,0,1,0-.9-0.9A0.91,0.91,0,0,0,100.418,29.916ZM99.75,39.759h1.338V31.136H99.75v8.623ZM110.4,35.448c0-2.473-1.387-4.512-3.961-4.512-2.39,0-3.977,1.8-3.977,4.512,0,2.791,1.654,4.512,4.011,4.512a3.6,3.6,0,0,0,3.71-2.824H108.8a2.216,2.216,0,0,1-2.29,1.6c-1.5,0-2.523-.886-2.657-2.824H110.4V35.448Zm-3.961-3.292a2.529,2.529,0,0,1,2.524,2.557h-5.081C104.1,33.008,105.086,32.156,106.439,32.156Zm8.446,7.8c2.123,0,3.426-.936,3.426-2.573,0-1.4-.852-2.122-2.975-2.54l-0.768-.15c-1.1-.217-1.739-0.518-1.739-1.337,0-.8.652-1.27,1.805-1.27,1.321,0,2.106.368,2.173,1.7h1.337c-0.033-1.838-1.2-2.858-3.51-2.858-1.972,0-3.142.969-3.142,2.44,0,1.337.819,2.189,2.691,2.54l0.8,0.15c1.5,0.284,1.973.635,1.973,1.4,0,0.852-.619,1.337-2.073,1.337-1.521,0-2.156-.485-2.306-1.788h-1.354C111.359,39.04,112.7,39.96,114.885,39.96Zm13.72-.2h1.554l-3.509-5.514,3.275-3.108h-1.771L124.159,35V27.861h-1.337v11.9h1.337V36.567L125.7,35.13Zm5.758,0.2c2.424,0,4.179-1.755,4.179-4.512s-1.755-4.512-4.179-4.512-4.178,1.755-4.178,4.512S131.94,39.96,134.363,39.96Zm0-1.2c-1.671,0-2.774-1.22-2.774-3.309s1.1-3.309,2.774-3.309,2.775,1.22,2.775,3.309S136.035,38.756,134.363,38.756Zm11.982,1.2c2.123,0,3.426-.936,3.426-2.573,0-1.4-.852-2.122-2.975-2.54l-0.769-.15c-1.1-.217-1.738-0.518-1.738-1.337,0-.8.652-1.27,1.805-1.27,1.321,0,2.106.368,2.173,1.7H149.6c-0.033-1.838-1.2-2.858-3.51-2.858-1.972,0-3.142.969-3.142,2.44,0,1.337.819,2.189,2.691,2.54l0.8,0.15c1.5,0.284,1.972.635,1.972,1.4,0,0.852-.618,1.337-2.072,1.337-1.521,0-2.156-.485-2.306-1.788h-1.354C142.819,39.04,144.156,39.96,146.345,39.96Zm8.479-7.654v-1.17h-1.771V28.7h-1.337v2.44h-1.421v1.17h1.421v5.715c0,1.32.819,1.788,2.156,1.788,0.267,0,.585-0.017.952-0.05v-1.12h-0.785c-0.769,0-.986-0.284-0.986-0.735v-5.6h1.771Zm5.2-1.3a3.01,3.01,0,0,0-2.774,1.654V31.136h-1.271v8.623h1.338V34.846c0-1.671,1.1-2.54,2.824-2.54h0.334V31.019C160.29,31,160.157,31,160.023,31Zm5.122,8.957c2.423,0,4.178-1.755,4.178-4.512s-1.755-4.512-4.178-4.512-4.178,1.755-4.178,4.512S162.721,39.96,165.145,39.96Zm0-1.2c-1.672,0-2.775-1.22-2.775-3.309s1.1-3.309,2.775-3.309,2.774,1.22,2.774,3.309S166.816,38.756,165.145,38.756Zm9.6-7.821a3.179,3.179,0,0,0-2.708,1.487V31.136h-1.27v8.623H172.1V34.879a2.455,2.455,0,0,1,2.374-2.741,1.73,1.73,0,0,1,1.972,1.922v5.7h1.337V33.927A2.749,2.749,0,0,0,174.742,30.936Zm11.452,0.2V32.39a3.479,3.479,0,0,0-2.958-1.454c-2.423,0-4.011,1.755-4.011,4.512s1.588,4.512,4.011,4.512a3.483,3.483,0,0,0,2.891-1.37v0.836a2.386,2.386,0,0,1-2.674,2.674c-1.353,0-2.172-.552-2.339-1.638h-1.338c0.184,1.671,1.471,2.774,3.677,2.774,2.725,0,4.012-1.571,4.012-3.81V31.136h-1.271Zm-2.791,7.62c-1.671,0-2.774-1.287-2.774-3.309s1.1-3.309,2.774-3.309,2.775,1.22,2.775,3.309S185.075,38.756,183.4,38.756Zm13.47-3.309c0-2.473-1.387-4.512-3.961-4.512-2.39,0-3.978,1.8-3.978,4.512,0,2.791,1.655,4.512,4.011,4.512a3.6,3.6,0,0,0,3.711-2.824h-1.388a2.214,2.214,0,0,1-2.289,1.6c-1.5,0-2.524-.886-2.658-2.824h6.552V35.448Zm-3.961-3.292a2.529,2.529,0,0,1,2.524,2.557h-5.081C190.572,33.008,191.558,32.156,192.912,32.156ZM202.359,31a3.013,3.013,0,0,0-2.775,1.654V31.136h-1.27v8.623h1.337V34.846c0-1.671,1.1-2.54,2.825-2.54h0.334V31.019C202.626,31,202.492,31,202.359,31Zm1.119,8.873a0.959,0.959,0,0,0,.952-0.986,0.978,0.978,0,0,0-1.955,0A0.962,0.962,0,0,0,203.478,39.876Z"/>
</svg>
