<svg xmlns="http://www.w3.org/2000/svg" width="320" height="50" viewBox="0 0 320 50">
  <defs>
    <style>
      .cls-1 {
        fill: #4b286d;
        fill-rule: evenodd;
      }
    </style>
  </defs>
  <path id="Last_year_our_team_volunteered_1.4_million_hours." data-name="Last year, our team volunteered 1.4 million hours." class="cls-1" d="M50.042,19.938V9.31h-1.4v11.9h7.387v-1.27H50.042Zm14.314,0.184a0.4,0.4,0,0,1-.468-0.418V14.892c0-1.454-.852-2.507-3.242-2.507-2.524,0-3.41,1.187-3.51,2.858h1.337c0.084-1.287.7-1.7,2.173-1.7s1.939,0.451,1.939,1.354c0,0.769-.485,1.086-1.354,1.186l-1.237.134c-2.373.251-3.192,1.32-3.192,2.674,0,1.621,1.17,2.523,3.042,2.523a3.161,3.161,0,0,0,2.808-1.387A1.237,1.237,0,0,0,64.1,21.258a5.09,5.09,0,0,0,.735-0.05V20.122H64.356Zm-4.446.15c-1.187,0-1.721-.568-1.721-1.42,0-.836.435-1.37,2.006-1.554l1.253-.15a2.225,2.225,0,0,0,1.137-.368V17.8A2.477,2.477,0,0,1,59.91,20.272Zm9.109,1.136c2.123,0,3.426-.936,3.426-2.573,0-1.4-.852-2.122-2.975-2.54l-0.769-.15c-1.1-.217-1.738-0.518-1.738-1.337,0-.8.652-1.27,1.805-1.27,1.32,0,2.106.368,2.173,1.7h1.337c-0.033-1.838-1.2-2.857-3.51-2.857-1.972,0-3.142.969-3.142,2.44,0,1.337.819,2.189,2.691,2.54l0.8,0.15c1.5,0.284,1.972.635,1.972,1.4,0,0.852-.618,1.337-2.072,1.337-1.521,0-2.156-.485-2.306-1.788H65.359C65.493,20.49,66.83,21.409,69.019,21.409ZM77.5,13.755v-1.17H75.727v-2.44H74.39v2.44H72.969v1.17H74.39V19.47c0,1.32.819,1.788,2.156,1.788q0.4,0,.953-0.05v-1.12H76.713c-0.769,0-.986-0.284-0.986-0.735v-5.6H77.5Zm10.06-1.17-1.22,3.576C85.9,17.415,85.486,18.668,85.1,19.9c-0.4-1.237-.8-2.473-1.237-3.727l-1.22-3.593H81.174l3.242,8.907c-0.1.267-.2,0.552-0.3,0.8a1.511,1.511,0,0,1-1.571,1.07H81.759v1.12a6.655,6.655,0,0,0,.8.05,2.606,2.606,0,0,0,2.808-1.972l3.643-9.976H87.558Zm9.6,4.311c0-2.473-1.387-4.512-3.961-4.512-2.39,0-3.978,1.8-3.978,4.512,0,2.791,1.655,4.512,4.011,4.512a3.6,3.6,0,0,0,3.71-2.824H95.55a2.216,2.216,0,0,1-2.29,1.6c-1.5,0-2.524-.886-2.657-2.824h6.551V16.9ZM93.193,13.6a2.529,2.529,0,0,1,2.524,2.557H90.636C90.853,14.457,91.839,13.6,93.193,13.6Zm12.395,6.517a0.4,0.4,0,0,1-.468-0.418V14.892c0-1.454-.852-2.507-3.242-2.507-2.524,0-3.41,1.187-3.51,2.858h1.337c0.084-1.287.7-1.7,2.173-1.7s1.939,0.451,1.939,1.354c0,0.769-.485,1.086-1.354,1.186l-1.237.134c-2.373.251-3.192,1.32-3.192,2.674,0,1.621,1.17,2.523,3.042,2.523a3.16,3.16,0,0,0,2.807-1.387,1.237,1.237,0,0,0,1.454,1.237,5.092,5.092,0,0,0,.736-0.05V20.122h-0.485Zm-4.446.15c-1.186,0-1.721-.568-1.721-1.42,0-.836.434-1.37,2.006-1.554l1.253-.15a2.23,2.23,0,0,0,1.137-.368V17.8A2.477,2.477,0,0,1,101.142,20.272ZM111.2,12.452a3.013,3.013,0,0,0-2.775,1.654V12.585h-1.27v8.623h1.337V16.3c0-1.671,1.1-2.54,2.825-2.54h0.334V12.468C111.465,12.452,111.331,12.452,111.2,12.452Zm0.932,7.085a0.9,0.9,0,0,0-.936.9,0.87,0.87,0,0,0,.936.869h0.1a1.237,1.237,0,0,1-.919,1.3l-0.117.033v0.886l0.167-.033a2.267,2.267,0,0,0,1.872-2.54A1.173,1.173,0,0,0,112.13,19.537Zm9.709,1.872c2.423,0,4.178-1.755,4.178-4.512s-1.755-4.512-4.178-4.512-4.178,1.755-4.178,4.512S119.415,21.409,121.839,21.409Zm0-1.2c-1.671,0-2.774-1.22-2.774-3.309s1.1-3.309,2.774-3.309,2.774,1.22,2.774,3.309S123.51,20.206,121.839,20.206Zm11.273-7.62v4.88a2.454,2.454,0,0,1-2.373,2.741,1.729,1.729,0,0,1-1.972-1.922v-5.7H127.43v5.832a2.749,2.749,0,0,0,3.042,2.991,3.177,3.177,0,0,0,2.707-1.487v1.287h1.27V12.585h-1.337Zm7.246-.134a3.01,3.01,0,0,0-2.774,1.654V12.585h-1.271v8.623h1.338V16.3c0-1.671,1.1-2.54,2.824-2.54h0.334V12.468C140.625,12.452,140.492,12.452,140.358,12.452Zm8.823,1.3v-1.17H147.41v-2.44h-1.337v2.44h-1.421v1.17h1.421V19.47c0,1.32.818,1.788,2.156,1.788q0.4,0,.952-0.05v-1.12H148.4c-0.769,0-.986-0.284-0.986-0.735v-5.6h1.771Zm8.458,3.142c0-2.473-1.387-4.512-3.961-4.512-2.39,0-3.978,1.8-3.978,4.512,0,2.791,1.655,4.512,4.011,4.512a3.6,3.6,0,0,0,3.711-2.824h-1.387a2.216,2.216,0,0,1-2.29,1.6c-1.5,0-2.524-.886-2.658-2.824h6.552V16.9ZM153.678,13.6a2.529,2.529,0,0,1,2.524,2.557h-5.081C151.338,14.457,152.324,13.6,153.678,13.6Zm12.4,6.517a0.4,0.4,0,0,1-.468-0.418V14.892c0-1.454-.852-2.507-3.242-2.507-2.524,0-3.41,1.187-3.51,2.858h1.337c0.084-1.287.7-1.7,2.173-1.7s1.938,0.451,1.938,1.354c0,0.769-.484,1.086-1.353,1.186l-1.237.134c-2.373.251-3.192,1.32-3.192,2.674,0,1.621,1.17,2.523,3.042,2.523a3.16,3.16,0,0,0,2.807-1.387,1.237,1.237,0,0,0,1.454,1.237,5.1,5.1,0,0,0,.736-0.05V20.122h-0.485Zm-4.446.15c-1.186,0-1.721-.568-1.721-1.42,0-.836.434-1.37,2-1.554l1.254-.15a2.223,2.223,0,0,0,1.136-.368V17.8A2.477,2.477,0,0,1,161.627,20.272Zm15.086-7.888a2.978,2.978,0,0,0-2.657,1.621,2.7,2.7,0,0,0-2.658-1.621,2.77,2.77,0,0,0-2.49,1.47v-1.27h-1.27v8.623h1.337V16.5c0-2.072,1.153-2.908,2.206-2.908a1.647,1.647,0,0,1,1.8,1.9v5.715h1.337V16.5c0-2.072,1.12-2.908,2.206-2.908a1.641,1.641,0,0,1,1.805,1.9v5.715h1.337V15.359A2.741,2.741,0,0,0,176.713,12.385ZM19.075,32.636l-1.421,3.827c-0.4,1.086-.852,2.273-1.22,3.359-0.368-1.086-.819-2.256-1.22-3.342l-1.421-3.843H12.34l3.376,8.623h1.4l3.393-8.623H19.075Zm5.783,8.823c2.423,0,4.178-1.755,4.178-4.512s-1.755-4.512-4.178-4.512S20.68,34.19,20.68,36.948,22.435,41.46,24.859,41.46Zm0-1.2c-1.671,0-2.774-1.22-2.774-3.309s1.1-3.309,2.774-3.309,2.774,1.22,2.774,3.309S26.53,40.256,24.859,40.256Zm7.55,1.053a8.477,8.477,0,0,0,.852-0.05v-1.12H32.626a0.67,0.67,0,0,1-.819-0.735V29.361H30.47v10.16C30.47,40.841,31.205,41.309,32.408,41.309Zm7.363-8.673v4.88A2.455,2.455,0,0,1,37.4,40.256a1.73,1.73,0,0,1-1.972-1.922v-5.7H34.089v5.832a2.749,2.749,0,0,0,3.042,2.991,3.177,3.177,0,0,0,2.708-1.487v1.287h1.27V32.636H39.772Zm7.179-.2a3.177,3.177,0,0,0-2.707,1.487V32.636h-1.27v8.623H44.31V36.379a2.455,2.455,0,0,1,2.373-2.741,1.73,1.73,0,0,1,1.972,1.922v5.7h1.337V35.427A2.749,2.749,0,0,0,46.951,32.436Zm8.5,1.37v-1.17H53.678V30.2H52.341v2.44H50.921v1.17h1.421v5.715c0,1.32.819,1.788,2.156,1.788q0.4,0,.953-0.05v-1.12H54.664c-0.769,0-.986-0.284-0.986-0.735v-5.6H55.45Zm8.458,3.142c0-2.473-1.387-4.512-3.961-4.512-2.39,0-3.978,1.8-3.978,4.512,0,2.791,1.655,4.512,4.011,4.512a3.6,3.6,0,0,0,3.71-2.824H62.3a2.215,2.215,0,0,1-2.29,1.6c-1.5,0-2.524-.886-2.657-2.824h6.552V36.948Zm-3.961-3.292a2.529,2.529,0,0,1,2.524,2.557H57.39C57.607,34.508,58.593,33.656,59.947,33.656Zm12.9,3.292c0-2.473-1.387-4.512-3.961-4.512-2.39,0-3.978,1.8-3.978,4.512,0,2.791,1.655,4.512,4.011,4.512a3.6,3.6,0,0,0,3.71-2.824H71.245a2.215,2.215,0,0,1-2.29,1.6c-1.5,0-2.524-.886-2.657-2.824H72.85V36.948Zm-3.961-3.292a2.529,2.529,0,0,1,2.524,2.557H66.332C66.549,34.508,67.535,33.656,68.889,33.656ZM78.336,32.5a3.012,3.012,0,0,0-2.774,1.654V32.636h-1.27v8.623h1.337V36.346c0-1.671,1.1-2.54,2.825-2.54h0.334V32.519C78.6,32.5,78.47,32.5,78.336,32.5Zm8.909,4.445c0-2.473-1.387-4.512-3.961-4.512-2.39,0-3.978,1.8-3.978,4.512,0,2.791,1.655,4.512,4.011,4.512a3.6,3.6,0,0,0,3.71-2.824H85.64a2.215,2.215,0,0,1-2.29,1.6c-1.5,0-2.524-.886-2.657-2.824h6.551V36.948Zm-3.961-3.292a2.529,2.529,0,0,1,2.524,2.557H80.727C80.944,34.508,81.93,33.656,83.284,33.656Zm11.867-4.295v4.512a3.388,3.388,0,0,0-2.891-1.437c-2.423,0-4.011,1.755-4.011,4.512s1.588,4.512,4.011,4.512a3.39,3.39,0,0,0,2.958-1.537v1.337h1.27v-11.9H95.151Zm-2.724,10.9c-1.671,0-2.774-1.153-2.774-3.242s1.1-3.376,2.774-3.376,2.774,1.22,2.774,3.309S94.1,40.256,92.426,40.256Zm13.119-10.9h-1.137c-0.3,1.437-1.17,1.8-2.708,1.905l-0.267.017v1.1h2.708v8.873h1.4v-11.9Zm2.833,12.015a0.96,0.96,0,0,0,.953-0.986,0.978,0.978,0,0,0-1.955,0A0.961,0.961,0,0,0,108.378,41.376Zm10.746-4.361h-1.6V29.361H116l-5.85,7.57v1.354h5.967v2.974h1.4V38.284h1.6v-1.27ZM116.116,31.2v5.815h-4.5Zm16.594,1.237a2.978,2.978,0,0,0-2.657,1.621,2.7,2.7,0,0,0-2.658-1.621,2.77,2.77,0,0,0-2.49,1.471v-1.27h-1.27v8.623h1.337V36.547c0-2.072,1.153-2.908,2.206-2.908a1.647,1.647,0,0,1,1.805,1.9v5.715h1.337V36.547c0-2.072,1.12-2.908,2.206-2.908a1.641,1.641,0,0,1,1.8,1.9v5.715h1.337V35.41A2.741,2.741,0,0,0,132.71,32.436Zm5.474-1.019a0.9,0.9,0,1,0-.9-0.9A0.909,0.909,0,0,0,138.184,31.416Zm-0.669,9.843h1.337V32.636h-1.337v8.623Zm5.081,0.05a8.476,8.476,0,0,0,.852-0.05v-1.12h-0.635a0.67,0.67,0,0,1-.819-0.735V29.361h-1.337v10.16C140.657,40.841,141.392,41.309,142.6,41.309Zm3.743,0a8.46,8.46,0,0,0,.852-0.05v-1.12h-0.635a0.67,0.67,0,0,1-.819-0.735V29.361H144.4v10.16C144.4,40.841,145.136,41.309,146.339,41.309Zm2.491-9.893a0.9,0.9,0,1,0-.9-0.9A0.909,0.909,0,0,0,148.83,31.416Zm-0.668,9.843H149.5V32.636h-1.337v8.623Zm6.89,0.2c2.424,0,4.179-1.755,4.179-4.512s-1.755-4.512-4.179-4.512-4.178,1.755-4.178,4.512S152.629,41.46,155.052,41.46Zm0-1.2c-1.671,0-2.774-1.22-2.774-3.309s1.1-3.309,2.774-3.309,2.775,1.22,2.775,3.309S156.724,40.256,155.052,40.256Zm9.6-7.821a3.176,3.176,0,0,0-2.707,1.487V32.636h-1.27v8.623h1.337V36.379a2.454,2.454,0,0,1,2.373-2.741,1.729,1.729,0,0,1,1.972,1.922v5.7h1.337V35.427A2.749,2.749,0,0,0,164.649,32.436Zm12.2,0a3.176,3.176,0,0,0-2.64,1.387V29.361h-1.337v11.9h1.337V36.379a2.454,2.454,0,0,1,2.373-2.741,1.729,1.729,0,0,1,1.972,1.922v5.7h1.337V35.427A2.749,2.749,0,0,0,176.848,32.436Zm8.633,9.024c2.424,0,4.178-1.755,4.178-4.512s-1.754-4.512-4.178-4.512S181.3,34.19,181.3,36.948,183.058,41.46,185.481,41.46Zm0-1.2c-1.671,0-2.774-1.22-2.774-3.309s1.1-3.309,2.774-3.309,2.775,1.22,2.775,3.309S187.152,40.256,185.481,40.256Zm11.274-7.62v4.88a2.455,2.455,0,0,1-2.374,2.741,1.73,1.73,0,0,1-1.972-1.922v-5.7h-1.337v5.832a2.749,2.749,0,0,0,3.042,2.991,3.179,3.179,0,0,0,2.708-1.487v1.287h1.27V32.636h-1.337ZM204,32.5a3.011,3.011,0,0,0-2.774,1.654V32.636h-1.27v8.623h1.337V36.346c0-1.671,1.1-2.54,2.824-2.54h0.335V32.519C204.268,32.5,204.134,32.5,204,32.5Zm4.729,8.957c2.123,0,3.427-.936,3.427-2.573,0-1.4-.853-2.122-2.975-2.54l-0.769-.15c-1.1-.217-1.738-0.518-1.738-1.337,0-.8.651-1.27,1.805-1.27,1.32,0,2.1.368,2.172,1.7h1.337c-0.033-1.838-1.2-2.858-3.509-2.858-1.973,0-3.142.969-3.142,2.44,0,1.337.819,2.189,2.69,2.54l0.8,0.15c1.5,0.284,1.972.635,1.972,1.4,0,0.852-.619,1.337-2.073,1.337-1.521,0-2.156-.485-2.306-1.788h-1.354C205.2,40.54,206.54,41.46,208.729,41.46Zm5.535-.084a0.959,0.959,0,0,0,.952-0.986,0.978,0.978,0,0,0-1.955,0A0.962,0.962,0,0,0,214.264,41.376Z"/>
</svg>
