<svg xmlns="http://www.w3.org/2000/svg" width="300" height="250" viewBox="0 0 300 250">
  <defs>
    <style>
      .cls-1 {
        fill: #248700;
        fill-rule: evenodd;
      }
    </style>
  </defs>
  <path id="cta" class="cls-1" d="M187.03,187.572h-1.608v4.377a2.454,2.454,0,0,1-2.67,2.77c-1.663,0-3.467-1.351-3.467-3.012,0-1.162.784-2.068,2.67-2.068H182.4v1.054h-0.448c-1.048,0-1.425.365-1.425,0.973a2.37,2.37,0,0,0,2.306,2.027c1.006,0,1.411-.676,1.411-1.757v-4.364H178v-1.027h9.03v1.027Zm-3.8-2.338a2.1,2.1,0,0,1-2.111-2.405h1.1c0,1.256.5,1.284,1.035,1.351a2.13,2.13,0,0,1,2.082,2.378h-1.09A1.17,1.17,0,0,0,183.23,185.234Zm11.686,2.338h-1.789V192a2.453,2.453,0,0,1-2.642,2.771c-1.706,0-3.5-1.352-3.5-3.027,0-1.149.783-2.054,2.67-2.054h2.292v-2.121h-6.066v-1.027h9.03v1.027Zm-2.964,4.418v-1.243H189.66c-1.048,0-1.426.365-1.426,0.973a2.363,2.363,0,0,0,2.321,2.027C191.533,193.747,191.952,193.071,191.952,191.99Zm15.982-4.418h-1.888v7.162h-1.16V191.4h-3.117a12.579,12.579,0,0,1-.489,3.339h-1.175a13.573,13.573,0,0,0,.546-3.339,2.712,2.712,0,0,0-.881-1.81l1.677-.568a8.219,8.219,0,0,1,.308,1.352h3.131v-2.8H198.26v-1.027h9.674v1.027Zm3.678,0h-2v3.9h-1.146v-3.9h-2.013v-1.027h5.158v1.027Zm8.388,0h-6.248c0.042,0.918.909,1.716,2.39,1.716a7.665,7.665,0,0,0,1.845-.19v0.974a6.53,6.53,0,0,1-1.607.242l-0.155,1.92-0.027.242a3.809,3.809,0,0,0-2.055-.729,1.554,1.554,0,0,0-1.3.54,2.941,2.941,0,0,0,2.824,1.568,4.09,4.09,0,0,0,2.935-1.189v1.094a4.184,4.184,0,0,1-3.131,1.135,3.81,3.81,0,0,1-3.858-2.608,2.536,2.536,0,0,1,2.53-1.526,2.973,2.973,0,0,1,1.1.189l0.069-.676a2.865,2.865,0,0,1-2.711-2.7h-2.279v-1.027H220v1.027Zm-4.624-2.338a2.1,2.1,0,0,1-2.111-2.405h1.1c0,1.256.5,1.284,1.035,1.351a2.13,2.13,0,0,1,2.082,2.378H216.4A1.17,1.17,0,0,0,215.376,185.234Z"/>
</svg>
