<svg xmlns="http://www.w3.org/2000/svg" width="300" height="250" viewBox="0 0 300 250">
  <defs>
    <style>
      .cls-1 {
        fill: #4c286c;
        fill-rule: evenodd;
      }
    </style>
  </defs>
  <path class="cls-1" d="M136.581,97.382h-3v6.093h-1.718V97.382h-3.623v11.174H126.5v-5.819h-1.99a17.262,17.262,0,0,1-1.633,4.3l-1.782-.8c2.179-3.964,2.3-5.313,1.174-6.557-1.257.126-2.325,1.391-4.023,4.934l-1.738-.8c1.466-3.247,1.633-5.186.523-6.43H114v-1.6h3.833c1.383,0.717,1.7,2.741,1.487,4.027a3.956,3.956,0,0,1,3.771-1.792,4.365,4.365,0,0,1,1.551,3.121H126.5V95.779h10.077v1.6Zm7.9,3.963a3.378,3.378,0,0,1,3.038,3.458,3.829,3.829,0,0,1-4.253,3.8c-3.456-.064-5.678-3.2-5.678-8.392a18.1,18.1,0,0,1,.231-2.825h-3.059v-1.6H138.2c0.88-2.91,2.765-5.208,6.1-5.208a6.521,6.521,0,0,1,2.619.485V92.6a6.267,6.267,0,0,0-2.619-.443c-2.471.042-3.771,1.581-4.42,3.626h11.313v1.6h-2.85A4.731,4.731,0,0,1,144.483,101.345Zm2.137-3.963h-7.1a15.01,15.01,0,0,0-.188,2.551V100.5h2.514C144.608,100.5,146.137,99.342,146.62,97.382Zm-4.777,4.638h-2.388c0.4,3.2,1.781,5,3.96,5a2.125,2.125,0,0,0,2.387-2.15C145.8,103.475,144.608,102.02,141.843,102.02Zm29.144-4.638h-2.534v11.174h-1.74v-1.2a8.273,8.273,0,0,1-2.45.358c-2.892,0-4.756-1.307-5.406-3.458a4.652,4.652,0,0,1,2.033-2.762,4.066,4.066,0,0,1-1.782-2.678,8.475,8.475,0,0,1-.062-1.434H156.49v-1.6h14.5v1.6Zm-4.274,8.391v-3.458h-2.974c-1.467,0-2.744.675-3.017,1.94,0.293,1.2,1.8,1.834,3.813,1.834A7.207,7.207,0,0,0,166.713,105.773Zm0-8.391h-5.929a5.708,5.708,0,0,0,.064,1.244c0.271,1.475,1.508,2.046,3.058,2.046h2.807v-3.29Zm16.825,0h-9.364c0.063,1.434,1.361,2.677,3.582,2.677a11.09,11.09,0,0,0,2.765-.295v1.518a9.443,9.443,0,0,1-2.408.38l-0.231,2.994-0.042.379a5.552,5.552,0,0,0-3.079-1.138,2.286,2.286,0,0,0-1.949.843,4.379,4.379,0,0,0,4.232,2.446,6.01,6.01,0,0,0,4.4-1.856v1.708a6.141,6.141,0,0,1-4.692,1.771,5.722,5.722,0,0,1-5.782-4.069,3.785,3.785,0,0,1,3.792-2.383,4.3,4.3,0,0,1,1.654.3l0.106-1.054a4.4,4.4,0,0,1-4.066-4.218h-3.414v-1.6h14.5v1.6Zm5.911,0h-3v6.093h-1.718V97.382h-3.017v-1.6h7.731v1.6Zm18.478,0H204.91v11.174h-1.739V97.382h-3.583v4.975h-4.4a3.957,3.957,0,0,0-3.876,2.4,4.576,4.576,0,0,0,4.3,2.425,6.026,6.026,0,0,0,4.42-1.856v1.708a6.22,6.22,0,0,1-4.693,1.771,5.878,5.878,0,0,1-5.866-4.048,6.282,6.282,0,0,1,2.157-3.036l-1.34-4.343h-2.66v-1.6h15.544v-1.94c0-1.623-.858-2.214-1.718-2.214s-1.738.59-1.738,2.214v0.633H198V93.839C198,91.52,199.253,90,201.453,90c2.179,0,3.457,1.518,3.457,3.837v1.94h3.017v1.6Zm-10.077,0h-5.74l1.089,3.584a7.231,7.231,0,0,1,1.991-.253h2.66V97.382Zm11.945,7.379a4.577,4.577,0,0,0,4.294,2.425,6.028,6.028,0,0,0,4.421-1.856v1.708a6.218,6.218,0,0,1-4.693,1.771,5.879,5.879,0,0,1-5.866-4.048,6.292,6.292,0,0,1,2.159-3.036l-1.341-4.343h-2.661v-1.6h10.223a3.072,3.072,0,0,0-3.519-3.247l-0.4-1.687a4.868,4.868,0,0,1,5.531,4.934h2.661v1.6H218.07v4.975h-4.4A3.958,3.958,0,0,0,209.8,104.761Zm1.885-3.8a7.229,7.229,0,0,1,1.99-.253h2.661V97.382h-5.74Zm36.832-3.584h-3v6.093H243.8V97.382h-3.624v11.174h-1.739v-5.819h-1.991a17.184,17.184,0,0,1-1.633,4.3l-1.781-.8c2.179-3.964,2.305-5.313,1.173-6.557-1.257.126-2.325,1.391-4.022,4.934l-1.738-.8c1.465-3.247,1.633-5.186.523-6.43H225.93v-1.6h3.833c1.383,0.717,1.7,2.741,1.487,4.027a3.956,3.956,0,0,1,3.771-1.792,4.369,4.369,0,0,1,1.551,3.121h1.864V95.779h10.076v1.6Zm11.9,0h-2.534v11.174h-1.739v-1.644a6.661,6.661,0,0,1-2.347.421c-2.367,0-4.566-1.222-4.944-3.479a8.846,8.846,0,0,0,1.32-4.237,5.487,5.487,0,0,0-.377-2.235h-2.911v-1.6h3.9a6.465,6.465,0,0,1,1.027,3.648,9.447,9.447,0,0,1-1.132,4.427c0.4,1.181,1.844,1.772,3.667,1.772a6.02,6.02,0,0,0,1.8-.253V95.779h4.273v1.6Zm12.677,0h-9.364c0.063,1.434,1.361,2.677,3.582,2.677a11.09,11.09,0,0,0,2.765-.295v1.518a9.443,9.443,0,0,1-2.408.38l-0.231,2.994-0.042.379a5.552,5.552,0,0,0-3.079-1.138,2.286,2.286,0,0,0-1.949.843,4.379,4.379,0,0,0,4.232,2.446,6.01,6.01,0,0,0,4.4-1.856v1.708a6.142,6.142,0,0,1-4.693,1.771,5.723,5.723,0,0,1-5.782-4.069,3.787,3.787,0,0,1,3.793-2.383,4.3,4.3,0,0,1,1.654.3l0.105-1.054a4.4,4.4,0,0,1-4.065-4.218H258.6v-1.6h14.5v1.6Zm5.911,0h-3.017v11.174h-1.739V97.382h-2.975v-1.6h2.975v-1.94c0-1.623-.859-2.214-1.718-2.214s-1.738.59-1.738,2.214v0.633h-1.719V93.839c0-2.319,1.257-3.837,3.457-3.837,2.179,0,3.457,1.518,3.457,3.837v1.94H279v1.6Zm-125.542,27.46h-2.2l-0.042,1.94a8.507,8.507,0,0,1-1.173,4.575,11.945,11.945,0,0,1,.46,3.373c0,0.422,0,.928-0.021,1.35h-1.717c0.021-.316.041-0.948,0.041-1.391a12.307,12.307,0,0,0-.125-1.814,5.766,5.766,0,0,1-3.583,1.181c-2.639,0-4.169-1.475-4.169-3.626a3.523,3.523,0,0,1,3.834-3.648,5.093,5.093,0,0,1,4.4,2.53,8.484,8.484,0,0,0,.335-2.424v-2.046H138.964v-1.6h14.5v1.6Zm-5.239,6.2a3.563,3.563,0,0,0-3.309-2.635,2,2,0,0,0-2.242,2c0,1.223.9,2,2.514,2A3.806,3.806,0,0,0,148.222,131.041Zm13.285-9.741v0.633h-1.718V121.3c0-1.623-.879-2.214-1.739-2.214s-1.717.591-1.717,2.214v1.94h2.974v1.6h-2.974v11.175h-1.739V124.842h-3.017v-1.6h3.017V121.3c0-2.319,1.277-3.837,3.456-3.837C160.25,117.463,161.507,118.981,161.507,121.3Zm9.806,3.542h-2.535v11.175h-1.739v-4.934h-4.421a23.959,23.959,0,0,1-1.487,3.479l-2.032-.906c1.194-1.9,2.178-3.036,2.178-4.829a8.014,8.014,0,0,0-1.151-3.985h-2.347v-1.6h3.31a9.527,9.527,0,0,1,1.823,5.735,3.59,3.59,0,0,1-.021.485h4.148v-6.22h4.274v1.6Zm7.837,3.964a3.368,3.368,0,0,1,3.038,3.5c0,2.087-1.635,3.8-4.254,3.753-3.456-.042-5.677-3.225-5.677-8.412a18.019,18.019,0,0,1,.21-2.805h-3.038v-1.6h3.394c0.817-2.91,2.577-5.187,5.594-5.208,3.037-.021,4.733,2.3,4.733,5.187v0.021h2.7v1.6h-2.87A4.757,4.757,0,0,1,179.15,128.806Zm2.116-3.964h-7.061a17.339,17.339,0,0,0-.209,2.741v0.38h2.514C179.233,127.963,180.763,126.782,181.266,124.842Zm-4.756,4.639H174.1c0.378,3.163,1.781,4.976,4,5a2.119,2.119,0,0,0,2.367-2.15C180.469,130.936,179.275,129.481,176.51,129.481Zm1.236,8.5a6.766,6.766,0,0,0,3.457-.78v1.434a6,6,0,0,1-3.373.865,6.129,6.129,0,0,1-3.4-.865V137.2A6.126,6.126,0,0,0,177.746,137.978Zm0,3.037a6.765,6.765,0,0,0,3.457-.781v1.434a6,6,0,0,1-3.373.865,6.129,6.129,0,0,1-3.4-.865v-1.434A6.126,6.126,0,0,0,177.746,141.015Zm-3.205-17.775h6.892c-0.042-2.193-1.048-3.669-3.122-3.627C176.3,119.656,175.149,121.216,174.541,123.24Zm19.423-1.94v0.633h-1.718V121.3c0-1.623-.88-2.214-1.739-2.214s-1.717.591-1.717,2.214v1.94h2.974v1.6H188.79v11.175h-1.739V124.842h-3.017v-1.6h3.017V121.3c0-2.319,1.277-3.837,3.456-3.837C192.707,117.463,193.964,118.981,193.964,121.3Zm3.96,3.542v2.467a4.372,4.372,0,0,1,3.938,4.491,3.97,3.97,0,0,1-3.811,4.006v-1.623a2.477,2.477,0,0,0,2.095-2.53,3.116,3.116,0,0,0-6.2,0,2.476,2.476,0,0,0,2.094,2.53v1.623a3.956,3.956,0,0,1-3.813-4.006,4.391,4.391,0,0,1,3.96-4.491v-2.467h-6.012v-1.6h13.532v1.6h-5.782Zm7.9,7.38a4.576,4.576,0,0,0,4.295,2.424,6.027,6.027,0,0,0,4.42-1.855V134.5a6.223,6.223,0,0,1-4.692,1.771,5.879,5.879,0,0,1-5.866-4.048,5.6,5.6,0,0,1,5.719-4.048h2.66v-3.332H202.137v-1.6h14.5v1.6H214.1v4.976h-4.4A3.958,3.958,0,0,0,205.824,132.222Zm16.721-7.38h-3.017v11.175h-1.739V124.842h-2.975v-1.6h2.975V121.3c0-1.623-.859-2.214-1.718-2.214s-1.738.591-1.738,2.214v0.633h-1.719V121.3c0-2.319,1.257-3.837,3.457-3.837,2.179,0,3.457,1.518,3.457,3.837v1.94h3.017v1.6Zm12.381,0H232.1v11.175h-1.739v-5.208h-4.671a20.4,20.4,0,0,1-.734,5.208H223.2a21.957,21.957,0,0,0,.817-5.208,4.307,4.307,0,0,0-1.32-2.825l2.514-.886a13.636,13.636,0,0,1,.461,2.109h4.692v-4.365h-9.93v-1.6h14.5v1.6Zm-5.907,9.446a1.1,1.1,0,0,1-1.09,1.1,1.087,1.087,0,1,1,0-2.173A1.1,1.1,0,0,1,229.019,134.288Zm18.9-9.446v2.467a4.372,4.372,0,0,1,3.938,4.491,3.97,3.97,0,0,1-3.812,4.006v-1.623a2.477,2.477,0,0,0,2.095-2.53,3.116,3.116,0,0,0-6.2,0,2.477,2.477,0,0,0,2.095,2.53v1.623a3.956,3.956,0,0,1-3.813-4.006,4.391,4.391,0,0,1,3.96-4.491v-2.467h-6.012v-1.6H253.7v1.6h-5.782Zm2.433,12.356v1.434a6,6,0,0,1-3.373.865,6.128,6.128,0,0,1-3.394-.865V137.2a6.124,6.124,0,0,0,3.311.78A6.762,6.762,0,0,0,250.351,137.2Zm0,3.036v1.434a6,6,0,0,1-3.373.865,6.128,6.128,0,0,1-3.394-.865v-1.434a6.123,6.123,0,0,0,3.311.781A6.761,6.761,0,0,0,250.351,140.234Zm-6.118-21.274a2.776,2.776,0,1,1,2.786,2.783A2.794,2.794,0,0,1,244.233,118.96Zm4.189,0a1.4,1.4,0,1,0-2.806,0A1.4,1.4,0,0,0,248.422,118.96ZM164.587,152.3h-2.409v6.832c0,2.635-1.278,4.321-4,4.321-2.493,0-5.2-2.108-5.2-4.7,0-1.813,1.174-3.226,4-3.226h0.671v1.645h-0.671c-1.57,0-2.136.569-2.136,1.518,0,1.708,1.906,3.162,3.456,3.162,1.509,0,2.116-1.053,2.116-2.74V152.3h-9.364v-1.6h13.533v1.6Zm-5.7-3.647c-1-.19-3.163-0.337-3.163-3.754h1.655c0,1.961.754,2,1.551,2.108,1.613,0.254,3.121.992,3.121,3.711H160.42A1.809,1.809,0,0,0,158.89,148.656Zm17.62,3.647h-2.682v6.916c0,2.635-1.3,4.322-3.959,4.322-2.556,0-5.238-2.109-5.238-4.723,0-1.792,1.173-3.205,4-3.205h3.436V152.3h-9.092v-1.6H176.51v1.6Zm-4.441,6.9v-1.94h-3.436c-1.572,0-2.137.569-2.137,1.519,0,1.707,1.886,3.161,3.478,3.161C171.44,161.938,172.069,160.885,172.069,159.2Zm23.781-6.9h-2.535v11.175h-1.739v-4.934h-4.421a23.959,23.959,0,0,1-1.487,3.479l-2.032-.907c1.194-1.9,2.178-3.036,2.178-4.828a8.014,8.014,0,0,0-1.151-3.985h-2.347v-1.6h3.31a9.527,9.527,0,0,1,1.823,5.735,3.6,3.6,0,0,1-.021.485h4.148V150.7h4.274v1.6Zm12.32,0h-2.829v11.175H203.6v-5.207h-4.672a20.432,20.432,0,0,1-.733,5.207h-1.76a22.016,22.016,0,0,0,.818-5.207,4.309,4.309,0,0,0-1.321-2.827l2.514-.884a13.37,13.37,0,0,1,.461,2.108H203.6V152.3h-9.93v-1.6h14.5v1.6Zm-5.908,9.446a1.1,1.1,0,0,1-1.089,1.1,1.086,1.086,0,1,1,0-2.172A1.1,1.1,0,0,1,202.262,161.749Zm18.291-9.446h-2.535v11.175h-1.739v-1.2a8.24,8.24,0,0,1-2.451.359c-2.89,0-4.755-1.308-5.4-3.458a4.641,4.641,0,0,1,2.032-2.762,4.059,4.059,0,0,1-1.781-2.678,8.485,8.485,0,0,1-.063-1.434h-2.556v-1.6h14.5v1.6Zm-4.274,8.392v-3.458h-2.974c-1.467,0-2.745.675-3.017,1.94,0.293,1.2,1.8,1.834,3.813,1.834A7.207,7.207,0,0,0,216.279,160.7Zm0-8.392h-5.928a5.722,5.722,0,0,0,.063,1.245c0.272,1.475,1.508,2.044,3.058,2.044h2.807V152.3Zm0.673,12.356v1.433a6,6,0,0,1-3.374.865,6.113,6.113,0,0,1-3.392-.865v-1.433a6.116,6.116,0,0,0,3.309.78A6.766,6.766,0,0,0,216.952,164.659Zm0,3.036v1.434a6.005,6.005,0,0,1-3.374.865,6.121,6.121,0,0,1-3.392-.865V167.7a6.116,6.116,0,0,0,3.309.78A6.766,6.766,0,0,0,216.952,167.7Zm11.312-10.943a3.173,3.173,0,0,1,1.174,2.572c0,2.361-1.969,4.027-4.818,4.027a6.754,6.754,0,0,1-4.19-1.285V160.42a7.583,7.583,0,0,0,4.023,1.287c1.78,0,3.246-.843,3.246-2.424,0-1.667-1.529-1.624-5.111-1.624v-1.6c3.9,0,5.133-.063,5.09-2.361V152.3h-9.071v-1.6H232.14v1.6h-2.723v1.2C229.417,155.719,228.789,156.394,228.264,156.752Zm8.717,5.82h-1.738v-11.45h1.738v11.45Z"/>
</svg>
