<svg xmlns="http://www.w3.org/2000/svg" width="300" height="250" viewBox="0 0 300 250">
  <defs>
    <style>
      .cls-1 {
        fill: #4c286c;
        fill-rule: evenodd;
      }
    </style>
  </defs>
  <path class="cls-1" d="M121.946,92.848v0.634h-1.721V92.848c0-1.627-.881-2.219-1.742-2.219s-1.719.592-1.719,2.219v1.944h2.978V96.4h-2.978v11.2h-1.743V96.4H112V94.792h3.021V92.848c0-2.325,1.28-3.846,3.462-3.846C120.687,89,121.946,90.523,121.946,92.848Zm9.717,3.55h-2.539v11.2h-1.741v-1.648a6.688,6.688,0,0,1-2.351.422c-2.371,0-4.575-1.225-4.952-3.487a8.875,8.875,0,0,0,1.322-4.248,5.507,5.507,0,0,0-.378-2.24h-2.917V94.792h3.9a6.484,6.484,0,0,1,1.027,3.656,9.491,9.491,0,0,1-1.133,4.438c0.4,1.184,1.847,1.775,3.672,1.775a6.031,6.031,0,0,0,1.806-.253V94.792h4.28V96.4Zm2.1,4.713c0,0.634.46,0.8,1.489,0.8H138.4c2.622,0,3.735,1.353,3.735,2.895,0,2.029-1.909,3-5.142,3-3.4,0-4.993-1.077-4.993-2.7a1.878,1.878,0,0,1,1.595-1.859,2.212,2.212,0,0,1-1.554-2.156c0-1.754,1.722-2.388,3.82-2.388h3.126V96.4h-9.149V94.792H144.36V96.4h-3.63v3.91h-5.2C134.183,100.308,133.764,100.5,133.764,101.111Zm1.7,2.43c-1.3,0-1.847.571-1.847,1.29,0,0.993,1.091,1.331,2.518,1.331h0.189v-2.621h-0.86Zm2.854,0h-0.546v2.621h0.168c1.049,0,2.476-.148,2.476-1.353C140.415,103.668,139.052,103.541,138.317,103.541Zm20.9-7.143h-4.26c0.02,0.233.042,0.486,0.042,0.761a7.382,7.382,0,0,1-.378,2.325,4.432,4.432,0,0,1,2.812,4.1,3.952,3.952,0,0,1-4.155,3.931V105.93a2.363,2.363,0,0,0,2.414-2.346,2.971,2.971,0,0,0-1.722-2.642,7.243,7.243,0,0,1-2.811,2.874,7.226,7.226,0,0,1-2.833-2.853,2.98,2.98,0,0,0-1.7,2.621,2.357,2.357,0,0,0,2.392,2.346v1.585a3.935,3.935,0,0,1-4.134-3.931,4.442,4.442,0,0,1,2.791-4.1,7.933,7.933,0,0,1-.357-2.346c0-.275.021-0.528,0.042-0.74h-4.595V94.792H159.22V96.4Zm-5.981,0h-4.155c-0.02.254-.042,0.528-0.042,0.824a5.42,5.42,0,0,0,2.12,4.671,5.66,5.66,0,0,0,2.119-4.692C153.281,96.926,153.26,96.652,153.239,96.4Zm1.6-1.585h-1.616a3.093,3.093,0,0,0-3.525-3.276l-0.4-1.691A4.873,4.873,0,0,1,154.837,94.813Zm23.8,1.585H176.1v11.2h-1.742v-4.945h-4.428a24.04,24.04,0,0,1-1.49,3.487l-2.036-.909c1.2-1.9,2.183-3.043,2.183-4.84a8.026,8.026,0,0,0-1.154-3.994h-2.35V94.792h13.556V96.4Zm-9.275,0a10.336,10.336,0,0,1,.861,4.142,3.435,3.435,0,0,1-.022.486h4.155V96.4h-4.994Zm15.132,0h-3v6.108h-1.72V96.4h-3.022V94.792h7.743V96.4Zm14.858,0h-4.26c0.021,0.233.042,0.486,0.042,0.761a7.382,7.382,0,0,1-.378,2.325,4.43,4.43,0,0,1,2.812,4.1,3.952,3.952,0,0,1-4.155,3.931V105.93a2.362,2.362,0,0,0,2.414-2.346,2.971,2.971,0,0,0-1.722-2.642,7.236,7.236,0,0,1-2.811,2.874,7.232,7.232,0,0,1-2.833-2.853,2.981,2.981,0,0,0-1.7,2.621,2.357,2.357,0,0,0,2.391,2.346v1.585a3.935,3.935,0,0,1-4.133-3.931,4.441,4.441,0,0,1,2.79-4.1,7.965,7.965,0,0,1-.356-2.346,7.136,7.136,0,0,1,.042-0.74H182.9V94.792h16.451V96.4Zm-5.981,0h-4.154c-0.021.254-.042,0.528-0.042,0.824a5.421,5.421,0,0,0,2.119,4.671A5.66,5.66,0,0,0,193.41,97.2C193.41,96.926,193.39,96.652,193.368,96.4Zm9.446,8.919-1.385,4.861h-1.553l1.2-4.861h1.741Zm20.9-8.919h-2.539v11.2h-1.741v-4.945h-4.428a24.04,24.04,0,0,1-1.49,3.487l-2.035-.909c1.2-1.9,2.183-3.043,2.183-4.84a8.038,8.038,0,0,0-1.155-3.994h-2.35V94.792h13.555V96.4Zm-9.275,0a10.317,10.317,0,0,1,.86,4.142,3.776,3.776,0,0,1-.02.486h4.155V96.4h-5Zm15.131,0h-3v6.108h-1.721V96.4H221.83V94.792h7.742V96.4Zm8,3.677a3.11,3.11,0,0,1,1.783,2.98c0,2.769-2.307,4.819-5.456,4.819-2.434,0-3.945-1.2-3.945-2.895,0-1.374.987-2.473,2.9-2.473a4.582,4.582,0,0,1,4.133,2.6,2.951,2.951,0,0,0,.63-1.9c0-1.712-1.259-2.282-3.5-2.261H231.8V99.209h2.309c2.581-.127,3.336-0.549,3.4-2.811h-9.757V94.792H241.3V96.4h-2.056C239.164,98.723,238.345,99.8,237.569,100.075Zm-3.589,6.172a4.98,4.98,0,0,0,1.847-.317,3.449,3.449,0,0,0-2.959-1.818,0.967,0.967,0,0,0-1.175.888C231.693,105.634,232.344,106.247,233.98,106.247ZM247.225,96.4H244.2v11.2h-1.742V96.4h-2.98V94.792h2.98V92.848c0-1.627-.86-2.219-1.721-2.219S239,91.22,239,92.848v0.634h-1.722V92.848c0-2.325,1.259-3.846,3.463-3.846,2.182,0,3.463,1.522,3.463,3.846v1.944h3.022V96.4Zm9,7.4a4.582,4.582,0,0,0,4.3,2.43,6.038,6.038,0,0,0,4.429-1.859v1.712a6.232,6.232,0,0,1-4.7,1.775,5.887,5.887,0,0,1-5.875-4.058,5.606,5.606,0,0,1,5.728-4.058h2.665V96.4h-10.24V94.792h14.521V96.4h-2.539v4.988H260.11A3.964,3.964,0,0,0,256.228,103.8Zm16.747-7.4h-3.021v11.2h-1.741V96.4h-2.98V94.792h2.98V92.848c0-1.627-.861-2.219-1.721-2.219s-1.742.592-1.742,2.219v0.634h-1.72V92.848c0-2.325,1.259-3.846,3.462-3.846,2.182,0,3.462,1.522,3.462,3.846v1.944h3.021V96.4ZM285,96.4h-2.539v11.2H280.72v-4.945h-4.428a24.012,24.012,0,0,1-1.489,3.487l-2.036-.909c1.2-1.9,2.182-3.043,2.182-4.84A8.026,8.026,0,0,0,273.8,96.4h-2.35V94.792h3.316a9.555,9.555,0,0,1,1.826,5.748,3.435,3.435,0,0,1-.022.486h4.155V94.792H285V96.4ZM130.227,123.923V126.4a4.383,4.383,0,0,1,3.945,4.5,3.981,3.981,0,0,1-3.82,4.015v-1.627a2.481,2.481,0,0,0,2.1-2.536,3.121,3.121,0,0,0-6.211,0,2.482,2.482,0,0,0,2.1,2.536v1.627a3.965,3.965,0,0,1-3.818-4.015,4.4,4.4,0,0,1,3.965-4.5v-2.473h-6.022v-1.606h13.556v1.606h-5.791Zm0-1.585h-1.616a3.093,3.093,0,0,0-3.525-3.275l-0.4-1.691A4.873,4.873,0,0,1,130.228,122.338ZM148.675,135h-1.763V123.776h-3.4v-1.395l0.336-.021c1.93-.127,3.021-0.592,3.4-2.41h1.427V135Zm2.2-1.1a1.229,1.229,0,0,1,2.456,0A1.228,1.228,0,1,1,150.879,133.9Zm14.46-2.663h-2.015V135h-1.763v-3.762h-7.49v-1.712l7.343-9.574h1.91v9.68h2.015v1.606Zm-9.422-1.606h5.644v-7.355Zm26.065-9.257v0.634h-1.72v-0.634c0-1.627-.882-2.219-1.743-2.219s-1.719.592-1.719,2.219v1.944h2.978v1.606H176.8v11.2h-1.742v-11.2h-3.022v-1.606h3.022v-1.944c0-2.325,1.279-3.846,3.461-3.846C180.723,116.527,181.982,118.048,181.982,120.373Zm9.822,3.55h-2.539v11.2h-1.742v-4.946H183.1a24.012,24.012,0,0,1-1.489,3.487l-2.036-.909c1.2-1.9,2.182-3.043,2.182-4.839a8.028,8.028,0,0,0-1.154-4h-2.35v-1.606h3.316a9.555,9.555,0,0,1,1.826,5.749,3.442,3.442,0,0,1-.022.486h4.155v-6.235H191.8v1.606Zm14.795,0H202.34c0.021,0.233.042,0.487,0.042,0.761a7.383,7.383,0,0,1-.378,2.325,4.429,4.429,0,0,1,2.812,4.1,3.951,3.951,0,0,1-4.155,3.931v-1.585a2.361,2.361,0,0,0,2.413-2.346,2.972,2.972,0,0,0-1.72-2.642,7.237,7.237,0,0,1-2.813,2.875,7.245,7.245,0,0,1-2.832-2.854,2.985,2.985,0,0,0-1.7,2.621,2.356,2.356,0,0,0,2.393,2.346v1.585a3.934,3.934,0,0,1-4.135-3.931,4.442,4.442,0,0,1,2.792-4.1,7.936,7.936,0,0,1-.357-2.346c0-.275.021-0.528,0.042-0.74h-4.6v-1.606H206.6v1.606Zm-5.98,0h-4.155c-0.021.254-.042,0.529-0.042,0.825a5.422,5.422,0,0,0,2.119,4.67,5.654,5.654,0,0,0,2.12-4.691C200.661,124.452,200.64,124.177,200.619,123.923Zm12.152,0H209.75v11.2h-1.741v-11.2h-2.98v-1.606h2.98v-1.944c0-1.627-.861-2.219-1.721-2.219s-1.742.592-1.742,2.219v0.634h-1.72v-0.634c0-2.325,1.259-3.846,3.462-3.846,2.182,0,3.462,1.521,3.462,3.846v1.944h3.021v1.606Zm15.006,0h-2.54v11.2H223.5v-5.833H221.5a17.247,17.247,0,0,1-1.638,4.311l-1.783-.8c2.182-3.973,2.308-5.326,1.175-6.573-1.259.127-2.33,1.395-4.029,4.946l-1.742-.8c1.47-3.254,1.638-5.2.525-6.446h-3.043v-1.606h3.84c1.385,0.719,1.7,2.748,1.491,4.037a3.959,3.959,0,0,1,3.777-1.8,4.383,4.383,0,0,1,1.552,3.128H223.5v-5.368h4.281v1.606Zm6.172,0V126.4a4.383,4.383,0,0,1,3.945,4.5,3.981,3.981,0,0,1-3.82,4.015v-1.627a2.481,2.481,0,0,0,2.1-2.536,3.121,3.121,0,0,0-6.211,0,2.482,2.482,0,0,0,2.1,2.536v1.627a3.965,3.965,0,0,1-3.818-4.015,4.4,4.4,0,0,1,3.966-4.5v-2.473h-6.023v-1.606H239.74v1.606h-5.791Zm28.185,0h-2.54v11.2h-1.741v-1.48a4.28,4.28,0,0,1-.713.064,3.105,3.105,0,0,1-2.875-1.9,3.036,3.036,0,0,1-2.833,1.924c-1.322,0-2.455-.74-3.777-3.3A7.294,7.294,0,0,0,249.208,126a5.149,5.149,0,0,0-.4-2.072h-3v-1.606h3.925a6.066,6.066,0,0,1,1.112,3.614,9.839,9.839,0,0,1-1.176,4.544c0.588,1.057,1.112,1.628,1.847,1.628,1.427,0,1.826-2.072,1.91-4.354-0.021-.254-0.021-0.529-0.021-0.8v-1.924h1.762v1.924c0,0.253,0,.507-0.021.76,0.043,3.065.419,4.417,2.393,4.417a0.679,0.679,0,0,0,.314-0.063v-9.743h4.281v1.606Zm-6.354-5.9a2.78,2.78,0,1,1,2.791,2.79A2.8,2.8,0,0,1,255.78,118.027Zm4.2,0a1.407,1.407,0,1,0-2.813,0A1.407,1.407,0,0,0,259.977,118.027Zm3.9,13.293a4.582,4.582,0,0,0,4.3,2.43,6.037,6.037,0,0,0,4.428-1.859V133.6a6.227,6.227,0,0,1-4.7,1.775,5.889,5.889,0,0,1-5.876-4.058,5.608,5.608,0,0,1,5.729-4.057h2.665v-3.34h-10.24v-1.606h14.521v1.606h-2.539v4.988H267.76A3.965,3.965,0,0,0,263.878,131.32Zm8.165-8.982h-1.615a3.093,3.093,0,0,0-3.525-3.275l-0.4-1.691A4.872,4.872,0,0,1,272.043,122.338ZM138.612,156.5c0,0.613.461,1.035,1.49,1.035h5.476v1.627h-5.624v0.064c0,1.057.5,2.219,2.707,2.219a7.793,7.793,0,0,0,3-.423v1.417a7.16,7.16,0,0,1-2.917.549c-3.756,0-4.406-2.389-4.406-3.762a2.978,2.978,0,0,1,.021-0.443,2.553,2.553,0,0,1-1.553-2.3c0-1.48,1.28-2.6,3.9-2.6h3.126v-2.431h-9.128v-1.606h13.556v1.606h-2.686v4.037h-5.2C139.639,155.486,138.612,155.591,138.612,156.5Zm3.694-8.707c-1.008-.19-3.168-0.338-3.168-3.763h1.657c0,1.966.755,2.008,1.554,2.114,1.615,0.253,3.126.993,3.126,3.719h-1.637A1.813,1.813,0,0,0,142.306,147.793Zm20.818,3.656h-4.26c0.02,0.233.042,0.486,0.042,0.761a7.377,7.377,0,0,1-.378,2.324,4.432,4.432,0,0,1,2.812,4.1,3.952,3.952,0,0,1-4.155,3.931v-1.584a2.363,2.363,0,0,0,2.414-2.347,2.97,2.97,0,0,0-1.722-2.641,7.256,7.256,0,0,1-2.811,2.874,7.226,7.226,0,0,1-2.833-2.853,2.98,2.98,0,0,0-1.7,2.62,2.358,2.358,0,0,0,2.392,2.347v1.584a3.935,3.935,0,0,1-4.134-3.931,4.442,4.442,0,0,1,2.791-4.1,7.929,7.929,0,0,1-.357-2.345c0-.275.021-0.529,0.042-0.74h-4.595v-1.606h16.452v1.606Zm-5.981,0h-4.155c-0.02.253-.042,0.528-0.042,0.825a5.42,5.42,0,0,0,2.12,4.67,5.662,5.662,0,0,0,2.119-4.692C157.185,151.977,157.164,151.7,157.143,151.449Zm-2.1-5.9a2.781,2.781,0,1,1,2.792,2.79A2.8,2.8,0,0,1,155.046,145.552Zm4.2,0a1.406,1.406,0,1,0-2.811,0A1.406,1.406,0,0,0,159.243,145.552Zm6,13.294a4.583,4.583,0,0,0,4.3,2.43,6.033,6.033,0,0,0,4.427-1.86v1.712a6.227,6.227,0,0,1-4.7,1.775,5.889,5.889,0,0,1-5.876-4.057,5.607,5.607,0,0,1,5.729-4.058h2.665v-3.339h-10.24v-1.606h14.521v1.606h-2.54v4.987h-4.406A3.963,3.963,0,0,0,165.246,158.846Zm16.748-7.4h-3.022v11.2H177.23v-11.2h-2.98v-1.606h2.98V147.9c0-1.626-.86-2.218-1.721-2.218s-1.741.592-1.741,2.218v0.634h-1.721V147.9c0-2.324,1.259-3.846,3.462-3.846,2.183,0,3.463,1.522,3.463,3.846v1.945h3.022v1.606Zm15,0H194.46v11.2h-1.743v-5.833h-1.994a17.226,17.226,0,0,1-1.635,4.311l-1.784-.8c2.182-3.973,2.308-5.326,1.175-6.573-1.259.128-2.329,1.4-4.029,4.946l-1.742-.8c1.468-3.253,1.636-5.2.525-6.445H180.19v-1.606h3.84c1.385,0.718,1.7,2.747,1.489,4.037a3.961,3.961,0,0,1,3.777-1.8,4.379,4.379,0,0,1,1.554,3.128h1.867v-5.368H197v1.606Zm11.943,0h-2.686v6.932c0,2.641-1.3,4.332-3.966,4.332-2.561,0-5.247-2.114-5.247-4.734,0-1.8,1.175-3.213,4.009-3.213h3.441v-3.317h-9.107v-1.606h13.556v1.606Zm-4.449,6.911v-1.944h-3.441c-1.575,0-2.141.57-2.141,1.521,0,1.712,1.889,3.17,3.484,3.17C203.862,161.107,204.492,160.051,204.492,158.36Zm24.428-6.911h-2.2l-0.042,1.944a8.533,8.533,0,0,1-1.175,4.586,12,12,0,0,1,.461,3.381c0,0.423,0,.93-0.02,1.353H224.22c0.021-.317.043-0.951,0.043-1.394a12.367,12.367,0,0,0-.127-1.819,5.768,5.768,0,0,1-3.588,1.184c-2.644,0-4.175-1.478-4.175-3.635a3.528,3.528,0,0,1,3.839-3.656,5.1,5.1,0,0,1,4.407,2.536,8.483,8.483,0,0,0,.336-2.431v-2.049H214.4v-1.606H228.92v1.606Zm-5.245,6.213a3.572,3.572,0,0,0-3.316-2.642,2,2,0,0,0-2.245,2.008c0,1.226.9,2.008,2.518,2.008A3.816,3.816,0,0,0,223.675,157.662Zm11.1-6.213h-3.021v11.2h-1.742v-11.2h-2.98v-1.606h2.98V147.9c0-1.626-.86-2.218-1.721-2.218s-1.741.592-1.741,2.218v0.634h-1.722V147.9c0-2.324,1.259-3.846,3.463-3.846,2.182,0,3.463,1.522,3.463,3.846v1.945h3.021v1.606Zm7.85,4.46a3.183,3.183,0,0,1,1.175,2.577c0,2.367-1.974,4.037-4.828,4.037a6.764,6.764,0,0,1-4.2-1.289v-1.649a7.6,7.6,0,0,0,4.029,1.29c1.785,0,3.253-.846,3.253-2.43,0-1.67-1.531-1.628-5.12-1.628v-1.606c3.9,0,5.141-.063,5.1-2.367v-1.395h-9.087v-1.606h13.556v1.606h-2.728v1.2C243.781,154.873,243.152,155.549,242.628,155.909Zm9.8-4.46h-3v6.107h-1.72v-6.107h-3.022v-1.606h7.743v1.606Zm4.848,10.293h-1.741V150.265h1.741v11.477Z"/>
</svg>
