<svg id="F2" xmlns="http://www.w3.org/2000/svg" width="300" height="600" viewBox="0 0 600 1200">
  <defs>
    <style>
      .cls-1 {
        fill: #fff;
        fill-rule: evenodd;
      }
    </style>
  </defs>
  <g id="BUTTON_copy" data-name="BUTTON copy">
    <path id="了解更多_" data-name="了解更多 " class="cls-1" d="M270.971,442.336H253.232v1.971H267.92a24.449,24.449,0,0,1-6.507,4.779v12.258a1.024,1.024,0,0,1-.148.54,0.5,0.5,0,0,1-.311.27h-4.293l0.972,2.16,3.969-.054a1.759,1.759,0,0,0,1.445-.7,2.329,2.329,0,0,0,.5-1.4V450.139a23.814,23.814,0,0,0,7.425-6.021v-1.782Zm26.781,16.821v-1.944h-4.536v-2.862h3.132v-1.944h-3.132v-2.7h-2.052v2.7H289.6a12.279,12.279,0,0,0,.189-1.917l-2.025-.162a8.052,8.052,0,0,1-.4,2.862,5.319,5.319,0,0,1-1.377,2.241l1.485,1.539a5.523,5.523,0,0,0,.986-1.283,4.491,4.491,0,0,0,.607-1.336h2.106v2.862h-4.941v1.944h4.941v5.913h2.052v-5.913h4.536Zm-11.394-17.091v1.944h2.97a6.289,6.289,0,0,1-.58,2.079,4.713,4.713,0,0,1-1.148,1.431,9.871,9.871,0,0,1-1.971,1.242V447.52h-2.835a29.262,29.262,0,0,0,1.4-4.293h-4.779a13.393,13.393,0,0,0,.351-1.674l-1.809-.729a18.464,18.464,0,0,1-1.579,4.6,14.154,14.154,0,0,1-2.8,3.74l1.647,1.35,0.648-.783v8.4a12.763,12.763,0,0,1-.378,2.011,9.789,9.789,0,0,1-.58,1.553,12.989,12.989,0,0,1-1.391,2.052l1.539,1.4a7.7,7.7,0,0,0,1.836-2.646,13.451,13.451,0,0,0,1-3.726h1.809v3.4h2.052v-3.4h1.809v3.429q0,0.486-.162.513a1.818,1.818,0,0,1-.3.027H281.5l0.675,1.944h1.3a2.151,2.151,0,0,0,1-.27,2.051,2.051,0,0,0,.837-0.864,2.416,2.416,0,0,0,.324-1.161l0.081-13.122,0.81,1.188a7.725,7.725,0,0,0,2.363-1.512,7.561,7.561,0,0,0,1.566-2.16,9.2,9.2,0,0,0,.823-2.781H294.3a15.283,15.283,0,0,1-.567,2.754,2.028,2.028,0,0,1-.256.634,0.45,0.45,0,0,1-.3.108,2.532,2.532,0,0,1-.446-0.013,8.589,8.589,0,0,1-.85-0.27q-0.607-.216-1.094-0.351l0.648,2.241a12.332,12.332,0,0,0,1.674.283,6.324,6.324,0,0,0,.729-0.013,1.542,1.542,0,0,0,.959-0.392,2.045,2.045,0,0,0,.58-0.769,14.3,14.3,0,0,0,.756-2.916q0.351-1.971.459-3.24H286.358Zm-4.671,3.105a11.115,11.115,0,0,1-1.08,2.349h-3.024a10.922,10.922,0,0,0,1.107-2.349h3Zm1.89,6.939h-1.809v-2.646h1.809v2.646Zm-3.861,0h-1.782v-2.646h1.782v2.646Zm3.861,4.725h-1.809v-2.781h1.809v2.781Zm-3.861,0h-1.782v-2.781h1.782v2.781Zm44.64,5.994q-2.511-.054-5.279-0.365a45.827,45.827,0,0,1-4.873-.783,12.976,12.976,0,0,1-3.294-1.12,8.107,8.107,0,0,0,1.134-2.039,10.322,10.322,0,0,0,.621-2.389h7.884V446.116H313.07V444.2h10.422v-1.971H300.461V444.2h10.557v1.917h-7.749v10.017h7.344a8.589,8.589,0,0,1-.554,1.782,7.448,7.448,0,0,1-.931,1.62,31.863,31.863,0,0,1-3.942-3.078l-1.566,1.053a18.376,18.376,0,0,0,3.915,3.456,23.431,23.431,0,0,1-4.064,1.525,36.707,36.707,0,0,1-3.793.851l1.215,1.809a18.986,18.986,0,0,0,7.749-2.565l0.837-.567a25.193,25.193,0,0,0,5.157,1.8,49.047,49.047,0,0,0,8.451,1.094Zm-5.751-12.717H313.07v-2.025h5.535v2.025Zm0,4.05h-5.724l0.135-2.079h5.589v2.079Zm-7.587-4.05h-5.7v-2.025h5.7v2.025Zm-0.027,1.971-0.108,2.079h-5.562v-2.079h5.67Zm38.645-.189h-7.29a13.013,13.013,0,0,0,1.431-1.944l-1.593-.864a22.682,22.682,0,0,0,3.807-3.834v-1.809h-7.614a19.868,19.868,0,0,0,1.971-2.16l-1.89-1a20.806,20.806,0,0,1-10.422,6.534l1.782,1.674a28.792,28.792,0,0,0,5.913-3h7.425a25.784,25.784,0,0,1-2.511,2.106,23.9,23.9,0,0,1-2.862,1.728,10.742,10.742,0,0,0-1.445-1.5,8.623,8.623,0,0,0-1.579-1.174l-1.89,1.215a9.441,9.441,0,0,1,3.024,2.268,31.035,31.035,0,0,1-3.767,1.242q-2.524.7-4.657,1.188l1.3,1.809a54.35,54.35,0,0,0,7.938-2.417,32.96,32.96,0,0,0,5.049-2.5,19.007,19.007,0,0,1-4.82,4.36,34.363,34.363,0,0,1-6.79,3.254l1.566,1.728a49.84,49.84,0,0,0,5.467-2.673,21.659,21.659,0,0,0,3.065-2.187h6.912a11.412,11.412,0,0,1-1.256,1.741,11.692,11.692,0,0,1-1.971,1.8,22.009,22.009,0,0,1-2.632,1.647,8.432,8.432,0,0,0-2.781-2.943l-1.944,1.107a9.66,9.66,0,0,1,2.97,2.7,53.654,53.654,0,0,1-12.1,3.186l1.35,1.863a72.952,72.952,0,0,0,7.857-1.782,33.473,33.473,0,0,0,4.765-1.877,20.429,20.429,0,0,0,3.888-2.457,15.918,15.918,0,0,0,2.727-2.74,18.739,18.739,0,0,0,1.607-2.484v-1.809Z"/>
  </g>
</svg>
