<svg id="F1" xmlns="http://www.w3.org/2000/svg" width="300" height="600" viewBox="0 0 600 1200">
  <defs>
    <style>
      .cls-1 {
        fill: #4b286d;
        fill-rule: evenodd;
      }
    </style>
  </defs>
  <path id="流量不够_全家不爽_" data-name="流量不够， 全家不爽？ " class="cls-1" d="M217.534,251.336v-3.8l-14.56-.1,0.832-.468a15.957,15.957,0,0,0-2.964-3.562,10.861,10.861,0,0,0-3.64-2.21l-3.328,2.392a12.829,12.829,0,0,1,5.668,3.952H186.23v3.8h10.712a18.407,18.407,0,0,1-4.6,6.344,22.182,22.182,0,0,1-6.266,4.108l2.6,3.484q3.691-.729,10.374-1.56t12.818-1.352a14.958,14.958,0,0,1,1.872,3.276l3.484-2.34a19.9,19.9,0,0,0-3.77-5.278,22.347,22.347,0,0,0-5.018-3.926l-3.848,2.6a12.811,12.811,0,0,1,4.472,2.34l-14.3,1.4a16.992,16.992,0,0,0,3.12-3.25,42.06,42.06,0,0,0,3.432-5.85h16.224Zm-1.56,24.336a37.794,37.794,0,0,1-.338,4.03,8.152,8.152,0,0,1-.65,2.678,1.113,1.113,0,0,1-.962.546,2.64,2.64,0,0,1-1.352-.078,1.709,1.709,0,0,1-.78-0.52,1.057,1.057,0,0,1-.182-0.78v-15.7h-3.952v16.328a3.824,3.824,0,0,0,1.794,3.536q1.794,1.092,5.642.728a3.441,3.441,0,0,0,2.106-1.04,5.022,5.022,0,0,0,1.326-2.08,27.45,27.45,0,0,0,1.092-6.292ZM186.022,250.5q-3.9-5.2-8.268-6.344l-2.912,2.808a12.694,12.694,0,0,1,8.112,6.4ZM202.61,287.58V265.844h-3.952V287.58h3.952ZM184.1,262.88a20.122,20.122,0,0,0-3.9-4.914,13.8,13.8,0,0,0-4.992-3.042l-3.016,2.86a15.428,15.428,0,0,1,5.174,2.938,13.749,13.749,0,0,1,3.51,4.6ZM190.65,266q-0.052.884,0,4.186a28.969,28.969,0,0,1-.39,5.668,11.528,11.528,0,0,1-1.716,4.29,11.178,11.178,0,0,1-3.094,3.146,17.979,17.979,0,0,1-3.8,1.95l2.86,3.38a17.309,17.309,0,0,0,4.862-2.99,14.657,14.657,0,0,0,2.86-3.458,15.816,15.816,0,0,0,1.56-3.822,21.613,21.613,0,0,0,.676-4.316q0.129-2.262.1-4.94T194.55,266h-3.9Zm-8.684,1.04A36.157,36.157,0,0,1,179,277.206a23.532,23.532,0,0,1-5.876,7.93l3.432,2.548q0.936-.936,2.236-2.5a26.722,26.722,0,0,0,2.834-4.446,31.412,31.412,0,0,0,2.47-6.188q0.936-3.3,1.456-6.006Zm81.224-9.516V243.952H232.822v13.572H263.19Zm6.032,4.576v-3.38H226.894v3.38h42.328Zm2.132,24.44v-3.8h-21.32v-1.508h16.848v-3.38H250.034V276.5h14.872V263.3H231.314V276.5h14.768v1.352h-16.64v3.38h16.64v1.508H224.918v3.8h46.436ZM259.238,249.2H236.774V247.54h22.464V249.2Zm0,4.94H236.774V252.22h22.464v1.924Zm1.716,14.144H250.086l-0.052-1.612h10.92v1.612Zm0,4.836h-10.92V271.2h10.92v1.924Zm-14.82-6.448-0.052,1.612H235.266v-1.612h10.868Zm-0.052,6.448H235.266l-0.052-1.924h10.868v1.924Zm76.284-3.068q-7.8-9-16.276-12.844l-2.756,2.756a33.435,33.435,0,0,1,8.294,5.2,53.031,53.031,0,0,1,7.566,7.592Zm-0.312-21.112v-3.952H278.582v3.952h21.684q-1.248,2.028-3.484,5.148a38.694,38.694,0,0,1-8.138,8.424,68.094,68.094,0,0,1-10.842,6.656l2.6,3.38q12.168-6.76,17.264-13.26V288.36h4.264V253.988q1.819-2.549,3.328-5.044h16.8Zm51.22,16.432h-9.828l1.144-2.652-2.184-1.352a45.076,45.076,0,0,0,9.776-11.336v-3.328H361.47l1.248-3.432-3.276-2.08a21.526,21.526,0,0,1-1.638,4.576,28.064,28.064,0,0,1-7.254,9.2q-0.053-.676,0-2.938t-0.052-3.77H337.342a13.132,13.132,0,0,0,.442-2.184q0.234-1.613.39-3.12l-3.536-1.352a54.269,54.269,0,0,1-2.548,10.764,31.546,31.546,0,0,1-5.252,8.684l3.068,2.5a10.335,10.335,0,0,0,2.236-2.7v16.172h3.692v-3.172h3.8v3.172h3.692v-19.5h-9.1a11.7,11.7,0,0,0,.988-2.158q0.624-1.638,1.092-3.3H346.65q-0.052,1.4-.1,8.034t-0.26,11.1a65.05,65.05,0,0,1-.676,7.306,16.447,16.447,0,0,1-1.092,4.134q-0.676,1.455-1.456,1.352-0.105,0-1.014-.182t-1.742-.39q-0.833-.209-1.638-0.494t-1.482-.546l0.988,4.368q4.471,1.4,6.916.832a3.222,3.222,0,0,0,1.534-.936,12.6,12.6,0,0,0,1.742-2.756,22.843,22.843,0,0,0,.65-2.938q0.493-2.626.65-4.446l1.04,1.456q7.279-4.473,10.244-8.788H368.7a41.014,41.014,0,0,1-5.408,7.072,9.274,9.274,0,0,0-1.378-2.288,22.285,22.285,0,0,0-1.9-2.236l-2.86,2.392a13.51,13.51,0,0,1,3.692,4.368,30.6,30.6,0,0,1-5.382,3.562,48.246,48.246,0,0,1-6.474,2.834q0.415,0.624,1.274,1.69t1.17,1.482a41.485,41.485,0,0,0,21.84-19.24v-3.432ZM367.138,250.5a25.89,25.89,0,0,1-4.732,5.772,33.955,33.955,0,0,0-3.484-3.38l-2.444,2.756a26.492,26.492,0,0,1,3.38,2.964q-5.409,4.471-9.464,5.564a30.736,30.736,0,0,0,.13-3.926q-0.027-2.835.026-3.25l1.56,1.768a38.264,38.264,0,0,0,4.368-4.082A25.068,25.068,0,0,0,359.7,250.5h7.436ZM355.958,269.2a24.653,24.653,0,0,1-5.928,4.55q0.051-.833.234-3.588t0.234-4l1.092,2.08a61.593,61.593,0,0,0,8.632-5.1A22.217,22.217,0,0,1,355.958,269.2Zm-16.328,1.066h-3.8v-9.152h3.8v9.152Zm67.028-9.568h-5.72v5.72h2.808a5.15,5.15,0,0,1-3.12,5.148l1.508,1.924a7.46,7.46,0,0,0,2.678-2.028,7.7,7.7,0,0,0,1.43-2.626,9.262,9.262,0,0,0,.416-2.678V260.7ZM218.73,320.9a57.549,57.549,0,0,1-6.682-2.73,41.691,41.691,0,0,1-6.6-3.874,30.992,30.992,0,0,1-4.732-4.108,24.569,24.569,0,0,1-2.834-3.692l0.936-1.56-3.8-1.716a38.066,38.066,0,0,1-5.8,7.488,43.386,43.386,0,0,1-7.644,6.11,42.89,42.89,0,0,1-9.386,4.394l2.34,3.536a56.547,56.547,0,0,0,6.5-2.86v1.872h12.48v7.176H182.746v3.8H193.51v7.644H175v3.8h41.236v-3.8H197.462v-7.644h10.764v-3.8H197.462v-7.176h12.22v-2.08q4.472,1.975,6.76,2.808Zm-34.58-1.04a35.348,35.348,0,0,0,11.128-9.932,31.538,31.538,0,0,0,11.8,10.036Zm84.916-2.548V307.8H251.49a18.075,18.075,0,0,0-3.12-4,18.475,18.475,0,0,0-3.484-2.756l-3.276,2.444a39.116,39.116,0,0,1,4.134,3.276,7.172,7.172,0,0,1,.806,1.04H227.778v9.724h3.952V311.6h33.384v5.72h3.952Zm2.5,23.972a14.486,14.486,0,0,1-4.5-2.808,24.43,24.43,0,0,1-3.978-4.628,20.507,20.507,0,0,1-2.652-5.408,38.06,38.06,0,0,0,5.772-5.2l-3.016-2.652q-4.992,5.979-9.62,7.488a13.721,13.721,0,0,0-2.106-3.3,12.258,12.258,0,0,0-2.782-2.522q0.156-.105,1.222-0.7t2-1.222a17.089,17.089,0,0,0,1.768-1.352h9.568v-3.8H233.914v3.8l13.052,0.052q-6.449,3.9-18.928,5.876l2.7,3.432a45.392,45.392,0,0,0,14.092-4.108,15.608,15.608,0,0,1,2.6,1.768,34.367,34.367,0,0,1-4.836,2.86,36.79,36.79,0,0,1-6.89,2.522,75.067,75.067,0,0,1-8.658,1.742l2.756,3.38a39.247,39.247,0,0,0,10.53-2.548,48.388,48.388,0,0,0,9.23-4.992,21.388,21.388,0,0,1,1.4,3.016,34.377,34.377,0,0,1-10.92,6.318,71.834,71.834,0,0,1-14.04,3.406l2.86,3.588a84.334,84.334,0,0,0,8.658-2.106,54.035,54.035,0,0,0,7.9-3.042,28.781,28.781,0,0,0,6.37-4.108,43.435,43.435,0,0,1-.208,6.968,2.278,2.278,0,0,1-.572.988,2.881,2.881,0,0,1-.936.728,17.472,17.472,0,0,1-3.8-.338,43.476,43.476,0,0,1-4.94-1.326l1.612,4.628q6.708,1.248,9.1.364a4.492,4.492,0,0,0,2.314-1.794,10.079,10.079,0,0,0,1.222-4.5,29.9,29.9,0,0,0-.026-5.122,38.675,38.675,0,0,0-.754-5.122l2.5-1.04a31.157,31.157,0,0,0,2.132,4.654,25.442,25.442,0,0,0,3.978,5.33,16.174,16.174,0,0,0,5.538,3.9Zm50.8-11.232q-7.8-9-16.276-12.844l-2.756,2.756a33.435,33.435,0,0,1,8.294,5.2,53.031,53.031,0,0,1,7.566,7.592Zm-0.312-21.112v-3.952H278.582v3.952h21.684q-1.248,2.028-3.484,5.148a38.694,38.694,0,0,1-8.138,8.424,68.094,68.094,0,0,1-10.842,6.656l2.6,3.38q12.168-6.76,17.264-13.26V348.36h4.264V313.988q1.819-2.549,3.328-5.044h16.8Zm50.18,12.9a25.738,25.738,0,0,0-4.836-4.16A15.653,15.653,0,0,0,369.062,315q0.571-1.223.78-1.742-0.209-.105-1.352-0.754a12.56,12.56,0,0,0-1.872-.91,16.963,16.963,0,0,1-2.5,4.16,23.533,23.533,0,0,0-6.448-1.924l-2.7,3.12a15.757,15.757,0,0,1,6.084,1.612,38.824,38.824,0,0,1-6.656,3.692l2.964,2.756a24.2,24.2,0,0,0,7.072-4.368,43.06,43.06,0,0,1,4.628,3.692Zm-4.108,7.54a11.981,11.981,0,0,0,2.08-4l-3.12-1.612a34.913,34.913,0,0,1-2.132,3.64,16.666,16.666,0,0,0-2.626-1.222,25.66,25.66,0,0,0-3.2-1.014,26.208,26.208,0,0,0-2.808,3.016,18.109,18.109,0,0,1,5.928,1.976,11.964,11.964,0,0,1-1.2.962q-0.885.649-4.16,2.678l2.912,2.756a27.729,27.729,0,0,0,3.172-1.95,17.86,17.86,0,0,0,2.652-2.21,33.5,33.5,0,0,1,4.576,4.368q0.415-.261.884-0.624t1.2-.988q0.728-.624,1.04-0.884a32.663,32.663,0,0,0-5.2-4.888h0Zm-0.884,12.792a21.522,21.522,0,0,1-7.956-5.122,24.141,24.141,0,0,1-5.408-7.982,30.745,30.745,0,0,0,.468-4.992v-12.74h19.136v-3.8H354.346v-5.98h-4.108q0,0.883.026,3.068a23.725,23.725,0,0,1-.078,2.912H330.894v3.8h19.344v13.052a22.552,22.552,0,0,1-.572,4.68,31.839,31.839,0,0,1-1.352,4.68,17.756,17.756,0,0,0-3.64-3.328,16.834,16.834,0,0,0,2.548-4.836,22.289,22.289,0,0,0-2.262-1.482q-0.495-.234-0.858-0.39a44.02,44.02,0,0,1-2.6,4.576,19.377,19.377,0,0,0-6.344-2.392l-2.756,3.068a14.969,14.969,0,0,1,6.292,2.028,27.655,27.655,0,0,1-7.332,3.848l2.86,2.964a28.67,28.67,0,0,0,5.98-3.12l1.768-1.4q0.051,0.051,1.248,1.144a25.084,25.084,0,0,1,2.132,2.184L348,334.372a24.479,24.479,0,0,1-7.332,6.526q-4.212,2.418-11.856,3.614l2.5,4.056a35.741,35.741,0,0,0,13.13-4.784,21.475,21.475,0,0,0,8.138-8.84,26.354,26.354,0,0,0,5.408,6.5,25.434,25.434,0,0,0,7.2,4.42,42.272,42.272,0,0,0,8.19,2.392,19.872,19.872,0,0,0,1.508-1.976q0.936-1.353,1.3-1.82a46.832,46.832,0,0,1-8.944-2.288h0Zm-17.056-20.28a13.969,13.969,0,0,0-1.17-1.248q-0.755-.729-3.666-3.068a20.715,20.715,0,0,0,2.392-4.732,12.958,12.958,0,0,1-1.612-.676,13.715,13.715,0,0,0-1.768-.728,15.193,15.193,0,0,1-2.444,4.16,17.4,17.4,0,0,0-5.98-1.768l-2.808,3.224a14.432,14.432,0,0,1,5.876,1.352,13,13,0,0,1-2.47,1.586q-1.482.753-4.186,2,0.156,0.156,1.2,1.17t1.378,1.3q0.338,0.285.494,0.39a28.051,28.051,0,0,0,7.176-4.472,59.958,59.958,0,0,1,4.784,4.316Zm53.768-8.632a9.68,9.68,0,0,0-2.5-3.25,11.538,11.538,0,0,0-3.822-2.132,14.637,14.637,0,0,0-4.758-.754,13.448,13.448,0,0,0-4.732.832,10.852,10.852,0,0,0-3.822,2.366,11.567,11.567,0,0,0-2.522,3.614,14.3,14.3,0,0,0-.988,3.952l4.68,0.52a11.84,11.84,0,0,1,1.56-4.342,6.108,6.108,0,0,1,2.7-2.522,7.9,7.9,0,0,1,3.172-.676,7.137,7.137,0,0,1,4,1.2,6.626,6.626,0,0,1,2.522,2.756,6.863,6.863,0,0,1,.7,2.756,5.8,5.8,0,0,1-.338,1.872,6.2,6.2,0,0,1-1.144,1.95,19.979,19.979,0,0,1-2.262,2.21,28.925,28.925,0,0,0-3.822,3.8,8.832,8.832,0,0,0-1.664,3.328,15.821,15.821,0,0,0-.442,3.848l0.052,1.248h4.368a25.827,25.827,0,0,1,.286-3.458,5.935,5.935,0,0,1,1.066-2.574,20.8,20.8,0,0,1,2.964-3.016q1.3-1.144,2.574-2.47a12.529,12.529,0,0,0,2.158-3.094,8.719,8.719,0,0,0,.884-3.952A9.262,9.262,0,0,0,403.954,313.26Zm-8.528,31.72v-5.2h-5.2v5.2h5.2Z"/>
</svg>
