<svg id="F2" xmlns="http://www.w3.org/2000/svg" width="300" height="600" viewBox="0 0 600 1200">
  <defs>
    <style>
      .cls-1 {
        fill: #4b286d;
        fill-rule: evenodd;
      }
    </style>
  </defs>
  <path id="TELUS家庭优惠计划_无限流量_节省更多_" data-name="TELUS家庭优惠计划 无限流量 节省更多 " class="cls-1" d="M96.821,248.568H67.132v3.951H79.715v33.069h4.524V252.519H96.821v-3.951Zm29.64,3.951v-3.951H100.723v37.02h25.53v-3.951H105.091V268.274h19.29v-3.952h-19.29v-11.8h21.37Zm9.05,29.118V248.568h-4.368v37.02h22.982v-3.951H135.511Zm35.255,4.731c9.255,0,14.559-5.251,14.559-14.506V248.568h-4.368v23.294c0,7.279-3.744,10.555-10.191,10.555s-10.191-3.276-10.191-10.555V248.568h-4.368v23.294C156.207,281.117,161.511,286.368,170.766,286.368Zm34.372,0.052c8.891,0,13.883-4.315,13.883-10.867,0-5.355-3.016-8.683-11.543-10.555l-3.276-.728c-6.967-1.56-8.683-3.327-8.683-6.863,0-3.484,2.755-5.72,8.111-5.72,7.383,0,9.619,2.86,9.983,7.644h4.472c-0.156-6.032-3.536-11.6-14.455-11.6-7.695,0-12.635,3.743-12.635,9.671,0,6.759,4.94,9.307,11.231,10.711l3.276,0.728c6.551,1.456,9,3.172,9,6.707,0,4.576-3.432,6.916-9.359,6.916-6.032,0-10.763-2.236-10.867-9.1h-4.524C189.851,282.625,196.3,286.42,205.138,286.42Zm62.141-28.5v-9.516H249.7a18.1,18.1,0,0,0-3.12-4,18.516,18.516,0,0,0-3.484-2.756l-3.276,2.444a39.4,39.4,0,0,1,4.134,3.276,7.284,7.284,0,0,1,.806,1.04H225.991v9.724h3.952V252.2h33.384v5.72h3.952Zm2.5,23.972a14.449,14.449,0,0,1-4.5-2.808,24.368,24.368,0,0,1-3.978-4.628,20.477,20.477,0,0,1-2.652-5.408,38.007,38.007,0,0,0,5.772-5.2L261.4,261.2q-4.992,5.981-9.62,7.488a13.74,13.74,0,0,0-2.106-3.3,12.282,12.282,0,0,0-2.782-2.522q0.156-.1,1.222-0.7t2-1.222a16.95,16.95,0,0,0,1.768-1.352h9.568v-3.8H232.127v3.8l13.052,0.052q-6.448,3.9-18.928,5.876l2.7,3.432a45.365,45.365,0,0,0,14.092-4.108,15.73,15.73,0,0,1,2.6,1.768,34.271,34.271,0,0,1-4.836,2.86,36.649,36.649,0,0,1-6.89,2.522,74.645,74.645,0,0,1-8.658,1.742l2.756,3.38a39.209,39.209,0,0,0,10.53-2.548,48.277,48.277,0,0,0,9.23-4.992,21.5,21.5,0,0,1,1.4,3.016,34.377,34.377,0,0,1-10.92,6.318,71.762,71.762,0,0,1-14.04,3.406l2.86,3.588a83.816,83.816,0,0,0,8.658-2.106,53.809,53.809,0,0,0,7.9-3.042,28.745,28.745,0,0,0,6.37-4.108,43.426,43.426,0,0,1-.208,6.968,2.273,2.273,0,0,1-.572.988,2.854,2.854,0,0,1-.936.728,17.41,17.41,0,0,1-3.8-.338,43.476,43.476,0,0,1-4.94-1.326l1.612,4.628q6.708,1.248,9.1.364a4.492,4.492,0,0,0,2.314-1.794,10.075,10.075,0,0,0,1.222-4.5,29.9,29.9,0,0,0-.026-5.122,38.7,38.7,0,0,0-.754-5.122l2.5-1.04a31.066,31.066,0,0,0,2.132,4.654,25.417,25.417,0,0,0,3.978,5.33,16.174,16.174,0,0,0,5.538,3.9Zm51.48-31.3v-3.8H302.9l0.884-.832a20.66,20.66,0,0,0-4.5-3.614,12.471,12.471,0,0,0-3.614-1.326l-2.964,2.808a16.922,16.922,0,0,1,3.9,1.274A7.1,7.1,0,0,1,299,246.8H279.967l-0.416,24.6a24.229,24.229,0,0,1-1.4,7.54,20.655,20.655,0,0,1-3.8,6.552l2.756,3.276a20.9,20.9,0,0,0,4.966-8.216,39.24,39.24,0,0,0,1.638-11.908l0.156-18.044h37.388Zm1.82,32.084q-10.5.521-18.72,0.208a22.254,22.254,0,0,1-3.9-.546,21.345,21.345,0,0,1-6.136-2.886q2.808-4.68,3.068-13.78h-6.448a32.673,32.673,0,0,0,3.354-3.77,36.187,36.187,0,0,0,2.99-4.394l0.1-1.508,2.392,3.276q1.976,0.052,4.108-.1a30.974,30.974,0,0,0,3.484-.416v5.72h-8.684v3.8h8.684v7.644H296.659v3.8h24.8v-3.8h-10.14v-7.644h8.84v-3.8h-8.84v-6.5a39.2,39.2,0,0,0,9-3.536l-2.756-2.7a21.417,21.417,0,0,1-3.744,1.586,44.122,44.122,0,0,1-6.942,1.508,55.337,55.337,0,0,1-9.594.6v-1.4H284.907v3.8h7.54a66,66,0,0,1-7.02,7.8v3.848h7.956a18.05,18.05,0,0,1-.728,3.978,20.1,20.1,0,0,1-1.248,2.99q-0.261-.416-1.17-1.872t-1.4-2.392q-0.5-.936-0.806-1.664l-3.276,1.976a29.309,29.309,0,0,0,4.472,7.228,33.6,33.6,0,0,1-6.864,6.032l2.392,3.068a17.755,17.755,0,0,0,4.446-3.068,30.172,30.172,0,0,0,3.25-3.172,19.363,19.363,0,0,0,11.856,3.952l17.108,0.208Zm45.812-30.16a42.18,42.18,0,0,0-3.718-4.238,28.773,28.773,0,0,0-4.03-3.406l-2.964,2.548a38.941,38.941,0,0,1,4.914,4.186,18.741,18.741,0,0,1,2.574,3.354Zm0.728,24.128a31.524,31.524,0,0,1-.52,5.512,2.545,2.545,0,0,1-.65,1.118,1.5,1.5,0,0,1-.806.182H360.2a0.792,0.792,0,0,1-.65-0.286,1.07,1.07,0,0,1-.234-0.7V261.1h-3.276l0.156-2.028h16.64v-3.8H356.3v-12.9h-3.952v12.9h-11.44v3.8h11.232q-0.052,1.769-.338,4.134a37.854,37.854,0,0,1-.65,3.926,33.213,33.213,0,0,1-4.55,11.492,23.946,23.946,0,0,1-7.566,7.176l2.652,3.12a24.5,24.5,0,0,0,6.24-5.044q5.564-6.291,7.28-16.9v16.9q0,3.379,3.536,3.38h10.712a2.774,2.774,0,0,0,2.366-1.768,20.061,20.061,0,0,0,1.638-5.876Zm-30.576-34.736a55.885,55.885,0,0,1-4.888,13.624,47.9,47.9,0,0,1-7.644,11.44l3.38,2.5a29.775,29.775,0,0,0,3.068-3.692q1.872-2.547,1.976-2.7v25.636h3.952V255.116q1.611-3.951,2.366-6.4t1.482-5.252Zm85.852,7.644v-3.744H404.559V241.6h-3.952v4.212h-20.28v3.744h20.28v1.82H386.879v15.652h13.728v2.444q-17.057.156-20.592,0.1l2.132,4q8.58-.26,18.772-0.364l-2.7,1.82a17.461,17.461,0,0,1,7.592,6.6l3.38-2.288q-0.156-.26-0.65-0.962a17.073,17.073,0,0,0-1.352-1.638,11.271,11.271,0,0,0-1.82-1.612q-0.963-.675-2.08-1.326T401.907,273q9.36,0,16.588-.312a22.839,22.839,0,0,1,2.392,3.016l3.484-2.288a21.34,21.34,0,0,0-7.072-6.4h1.092V251.372H404.559v-1.82h20.332Zm1.56,34.164a20.521,20.521,0,0,0-3.822-4.42,22.072,22.072,0,0,0-5.954-3.536L413.711,278a22.517,22.517,0,0,1,9.464,8.112Zm-15.34-5.772a14.747,14.747,0,0,0-.442,2.054,11.135,11.135,0,0,1-.468,2.028,1.757,1.757,0,0,1-.624.858,3,3,0,0,1-.7.364H398.631a1.919,1.919,0,0,1-.858-0.624,1.76,1.76,0,0,1-.442-0.884v-6.5h-4.108v5.616a12.368,12.368,0,0,0,.364,3.016,5.964,5.964,0,0,0,1.664,2.08,4.626,4.626,0,0,0,2.392,1.04h8.372q4.107,0.156,5.3-.364a4.137,4.137,0,0,0,1.3-.884,4.657,4.657,0,0,0,.91-1.274,9.45,9.45,0,0,0,.546-1.4q0.207-.7.442-1.924t0.338-1.638a34.131,34.131,0,0,0-3.744-1.56h0Zm-21.736-2.6a20.719,20.719,0,0,1-10.608,6.5l3.068,3.172a22.344,22.344,0,0,0,5.9-3.016,17.29,17.29,0,0,0,4.446-4.472q-0.573-.519-2.808-2.184h0Zm24.908-18.252h-9.724v-1.976h9.724v1.976Zm0,6.188h-9.724v-2.444h9.724v2.444Zm-9.724,5.98v-2.236l7.9,0.1-1.3.78a14.726,14.726,0,0,0,2.548,1.2Zm-3.952-12.168h-9.776v-1.976h9.776v1.976Zm0,6.188h-9.776v-2.444h9.776v2.444Zm76.44-1.716v-3.8H464.931V242.324h-3.952v15.444H448.863v3.8h12.116V289.02h3.952V261.564h12.116Zm-31.876-11.908a23.015,23.015,0,0,0-3.094-4.264,22.707,22.707,0,0,0-3.978-3.484l-2.808,2.392a24.122,24.122,0,0,1,6.6,7.852Zm6.344,32.812v-4.316l-7.8,4.264V256.468H432.171v3.8h7.592v22.308a2.488,2.488,0,0,1-.312,1.3,4.989,4.989,0,0,1-1.04,1.144l2.34,3.328Zm75.452-40.3h-3.952V283.56a1.182,1.182,0,0,1-.338,1.014,2.283,2.283,0,0,1-.858.338l-5.408-.156,1.4,4q0.519,0,2.34.052a15.373,15.373,0,0,0,2.756-.1,7.2,7.2,0,0,0,1.56-.416,3.957,3.957,0,0,0,2.5-3.952V242.168Zm-28.028,1.82q-0.677.676-2.912,2.444a19.23,19.23,0,0,1,7.54,7.54,13.766,13.766,0,0,0,1.716-1.326q1.039-.909,1.456-1.222a21.51,21.51,0,0,0-7.8-7.436h0Zm18.46,33.9V248.46h-3.952v29.432H517.4Zm-7.9-.52q-0.365,1.924-1.664,6.656a0.606,0.606,0,0,1-.468.39,1.225,1.225,0,0,1-.468-0.182,21.648,21.648,0,0,1-6.656-9,44.674,44.674,0,0,0,9.256-12.48l-3.12-2.288a56.2,56.2,0,0,1-3.536,5.694,44.372,44.372,0,0,1-4.16,5.122,60.306,60.306,0,0,1-2.548-11.7l15.444-2.288-0.52-3.848-15.34,2.34-0.468-7.488v-5.98h-4.108q-0.053,4.368.416,14.04l-7.332,1.092,0.52,3.744,7.332-1.04a69.293,69.293,0,0,0,1.3,7.124,60.091,60.091,0,0,0,1.976,6.812,47.05,47.05,0,0,1-12.688,7.02l3.068,3.276a36.243,36.243,0,0,0,4.576-2.158q2.287-1.273,6.6-4.29a47.7,47.7,0,0,0,4.524,6.916,11.038,11.038,0,0,0,2.808,2.834,8.153,8.153,0,0,0,2.392,1.014,3.245,3.245,0,0,0,2.366-.1,3.668,3.668,0,0,0,1.222-1.248,24,24,0,0,0,3.016-8.528ZM129.22,334.564a45.951,45.951,0,0,1-1.4,6.6,1.9,1.9,0,0,1-1.612,1.508h-9.828a1.988,1.988,0,0,1-1.066-.52,1.367,1.367,0,0,1-.442-1.04V324.424h16.38v-3.8H110.292q0.312-7.591.26-11.6h17.576V305.08H89.7v3.952h16.744q-0.052,1.353-.026,4.524t0,4.628q-0.027,1.456-.13,2.444h-19.4v3.8h18.772a30.27,30.27,0,0,1-7.046,12.792,39.867,39.867,0,0,1-13.026,8.528l3.12,3.224a50.88,50.88,0,0,0,10.79-6.526,27.66,27.66,0,0,0,6.318-7.54,43.217,43.217,0,0,0,4.056-10.478h1.04v17.992a3.646,3.646,0,0,0,1.144,2.548,5.058,5.058,0,0,0,2.756,1.508h11.7a4.836,4.836,0,0,0,2.392-.754,4.284,4.284,0,0,0,1.768-1.69,35.314,35.314,0,0,0,2.392-7.54Zm55.588,10.972a21.774,21.774,0,0,1-5.59-3.25,15.99,15.99,0,0,1-3.978-4.5q4.524-3.327,6.266-4.862t2.574-2.314l-2.964-2.7-7.54,6.656a18.042,18.042,0,0,1-1.274-3.328,38.09,38.09,0,0,1-.754-4.16h8.788V304.664H158.288v37.492a3.356,3.356,0,0,1-.728,2.288,5.713,5.713,0,0,1-1.768,1.352q0.727,0.624,1.95,1.586t1.326,1.014l11.128-4.888v-3.952q-0.052,0-3.432,1.352t-4.524,1.924V327.076h5.408a32.382,32.382,0,0,0,1.872,8.372,25.3,25.3,0,0,0,5.2,7.956,20.6,20.6,0,0,0,7.7,5.408Zm-28.132-18.07a10.432,10.432,0,0,0-1.482-4.03,19.8,19.8,0,0,0-3.354-4.056l4.368-10.972V304.56H141.6v44.512l3.952-.1V308.46H152q-1.041,3.381-4.576,11.6,4.472,3.952,5.3,7.9a5.334,5.334,0,0,1-.026,2.834,3.418,3.418,0,0,1-1.066,1.638,2.847,2.847,0,0,1-.572.312,2.907,2.907,0,0,1-.832.208,4.014,4.014,0,0,1-1.014-.026q-0.546-.078-3.042-0.6l0.936,4.316q3.536,0.52,5.044-.156a6.173,6.173,0,0,0,2.808-1.976,6.765,6.765,0,0,0,1.612-3.12A12.429,12.429,0,0,0,156.676,327.466Zm19.708-13.65H162.24V308.46h14.144v5.356Zm-0.052,3.8-0.1,5.616-13.988.1v-5.72h14.092Zm59.072-5.668v-3.8l-14.56-.1,0.832-.468a15.98,15.98,0,0,0-2.964-3.562,10.894,10.894,0,0,0-3.64-2.21l-3.328,2.392a12.837,12.837,0,0,1,5.668,3.952H204.1v3.8h10.712a18.4,18.4,0,0,1-4.6,6.344,22.139,22.139,0,0,1-6.266,4.108l2.6,3.484q3.691-.728,10.374-1.56t12.818-1.352a15,15,0,0,1,1.872,3.276l3.484-2.34a19.911,19.911,0,0,0-3.77-5.278A22.4,22.4,0,0,0,226.3,314.7l-3.848,2.6a12.845,12.845,0,0,1,4.472,2.34l-14.3,1.4a16.962,16.962,0,0,0,3.12-3.25,42.06,42.06,0,0,0,3.432-5.85H235.4Zm-1.56,24.336a37.773,37.773,0,0,1-.338,4.03,8.144,8.144,0,0,1-.65,2.678,1.109,1.109,0,0,1-.962.546,2.619,2.619,0,0,1-1.352-.078,1.7,1.7,0,0,1-.78-0.52,1.057,1.057,0,0,1-.182-0.78v-15.7h-3.952V342.78a3.823,3.823,0,0,0,1.794,3.536q1.794,1.092,5.642.728A3.436,3.436,0,0,0,235.17,346a5.016,5.016,0,0,0,1.326-2.08,27.431,27.431,0,0,0,1.092-6.292Zm-29.952-25.168q-3.9-5.2-8.268-6.344l-2.912,2.808a12.694,12.694,0,0,1,8.112,6.4Zm16.588,37.076V326.452h-3.952v21.736h3.952Zm-18.512-24.7a20.16,20.16,0,0,0-3.9-4.914,13.826,13.826,0,0,0-4.992-3.042l-3.016,2.86a15.445,15.445,0,0,1,5.174,2.938,13.749,13.749,0,0,1,3.51,4.6Zm6.552,3.12q-0.052.885,0,4.186a28.957,28.957,0,0,1-.39,5.668,11.514,11.514,0,0,1-1.716,4.29,11.152,11.152,0,0,1-3.094,3.146,17.886,17.886,0,0,1-3.8,1.95l2.86,3.38a17.286,17.286,0,0,0,4.862-2.99,14.618,14.618,0,0,0,2.86-3.458,15.783,15.783,0,0,0,1.56-3.822,21.6,21.6,0,0,0,.676-4.316q0.129-2.262.1-4.94t-0.026-3.094h-3.9Zm-8.684,1.04a36.148,36.148,0,0,1-2.964,10.166,23.512,23.512,0,0,1-5.876,7.93l3.432,2.548q0.936-.936,2.236-2.5a26.722,26.722,0,0,0,2.834-4.446,31.388,31.388,0,0,0,2.47-6.188q0.936-3.3,1.456-6.006Zm81.224-9.516V304.56H250.692v13.572H281.06Zm6.032,4.576v-3.38H244.764v3.38h42.328Zm2.132,24.44v-3.8H267.9v-1.508h16.848v-3.38H267.9v-1.352h14.872V323.9H249.184v13.208h14.768v1.352h-16.64v3.38h16.64v1.508H242.788v3.8h46.436Zm-12.116-37.336H254.644v-1.664h22.464v1.664Zm0,4.94H254.644v-1.924h22.464v1.924Zm1.716,14.144H267.956l-0.052-1.612h10.92V328.9Zm0,4.836H267.9v-1.924h10.92v1.924ZM264,327.284l-0.052,1.612H253.136v-1.612H264Zm-0.052,6.448H253.136l-0.052-1.924h10.868v1.924Zm89.856-21.684V308.3H341.016v-5.928h-3.952V308.3H326.2v-5.928h-3.952V308.3H309.712l-0.1,3.744h12.636v6.032H326.2v-6.032h10.868v6.032h3.952v-6.032h12.792Zm-41.236,6.968v3.744H325.52v25.792h3.952V322.76H343.98q-0.105,1.041-.26,4.6t-0.416,5.512a31.51,31.51,0,0,1-.624,3.406,1.266,1.266,0,0,1-.988.728,42.159,42.159,0,0,1-5.616-1.456l1.092,4.316q5.719,1.248,7.384.26a4.753,4.753,0,0,0,1.456-1.482,5.016,5.016,0,0,0,.78-1.9q0.415-3.015.754-8.346t0.442-9.386H312.572Zm93.86-3.744q-6.916-7.695-13.832-10.036l-3.068,2.7q7.28,2.549,13.52,10.088Zm-21.008.364v-13h-3.952v13h3.952ZM375.6,305.08a38.214,38.214,0,0,1-13.624,9.932l3.224,3.016a38.939,38.939,0,0,0,13.156-10.3Zm23.92,44.252V322.084l-15.964-.1a40.485,40.485,0,0,0,11.7-7.852l-2.912-2.652a31.6,31.6,0,0,1-5.668,4.628,33.488,33.488,0,0,1-6.578,3.172,54.46,54.46,0,0,1-8.294,2.184,112.2,112.2,0,0,1-11.6,1.248l2.028,3.952q5.719-.468,9.412-1.092v23.764H375.6v-3.068h19.968v3.068h3.952Zm-3.952-20.54H375.6V325.88h19.968v2.912Zm0,6.76H375.6V332.38h19.968v3.172Zm0,6.916H375.6V339.14h19.968v3.328Zm64.9,2.392q-4.836-.1-10.166-0.7a88,88,0,0,1-9.386-1.508,24.984,24.984,0,0,1-6.344-2.158,15.522,15.522,0,0,0,2.184-3.926,19.808,19.808,0,0,0,1.2-4.6h15.184V312.672h-14.4V308.98H458.8v-3.8H414.44v3.8h20.332v3.692H419.848v19.292h14.144a16.552,16.552,0,0,1-1.066,3.432,14.28,14.28,0,0,1-1.794,3.12,61.33,61.33,0,0,1-7.592-5.928l-3.016,2.028a35.45,35.45,0,0,0,7.54,6.656,45.049,45.049,0,0,1-7.826,2.938,70.282,70.282,0,0,1-7.306,1.638l2.34,3.484a36.526,36.526,0,0,0,14.924-4.94l1.612-1.092a48.537,48.537,0,0,0,9.932,3.458,94.493,94.493,0,0,0,16.276,2.106Zm-11.076-24.492h-10.66v-3.9h10.66v3.9Zm0,7.8H438.36l0.26-4h10.764v4Zm-14.612-7.8H423.8v-3.9h10.972v3.9Zm-0.052,3.8-0.208,4H423.8v-4h10.92Zm75.088-.364h-14.04a24.93,24.93,0,0,0,2.756-3.744l-3.068-1.664a43.495,43.495,0,0,0,7.332-7.384v-3.484H488.124a38.028,38.028,0,0,0,3.8-4.16l-3.64-1.924q-7.125,8.685-20.072,12.584l3.432,3.224a55.452,55.452,0,0,0,11.388-5.772h14.3a49.173,49.173,0,0,1-4.836,4.056,46.008,46.008,0,0,1-5.512,3.328,20.713,20.713,0,0,0-2.782-2.886,16.579,16.579,0,0,0-3.042-2.262l-3.64,2.34q4.315,2.34,5.824,4.368a59.491,59.491,0,0,1-7.254,2.392q-4.863,1.353-8.97,2.288l2.5,3.484A104.547,104.547,0,0,0,484.9,323.93a63.368,63.368,0,0,0,9.724-4.81,36.61,36.61,0,0,1-9.282,8.4,66.147,66.147,0,0,1-13.078,6.266l3.016,3.328a95.844,95.844,0,0,0,10.53-5.148,41.541,41.541,0,0,0,5.9-4.212h13.312a21.931,21.931,0,0,1-2.418,3.354,22.513,22.513,0,0,1-3.8,3.458,42.276,42.276,0,0,1-5.07,3.172,16.233,16.233,0,0,0-5.356-5.668L484.64,334.2a18.613,18.613,0,0,1,5.72,5.2q-8.373,3.641-23.3,6.136l2.6,3.588a140.5,140.5,0,0,0,15.132-3.432,64.416,64.416,0,0,0,9.178-3.614,39.337,39.337,0,0,0,7.488-4.732,30.636,30.636,0,0,0,5.252-5.278,35.893,35.893,0,0,0,3.094-4.784V323.8Z"/>
</svg>
