<svg id="Conversion" xmlns="http://www.w3.org/2000/svg" width="300" height="250" viewBox="0 0 300 250">
  <defs>
    <style>
      .cls-1 {
        fill: #462b69;
        fill-rule: evenodd;
      }
    </style>
  </defs>
  <g id="F1">
    <path id="Paayein_nayi_Galaxy_S23_Series_at_0_upfront_only_on_TELUS._" data-name="Paayein nayi Galaxy S23 Series at $0 upfront* only on TELUS. " class="cls-1" d="M43.954,88.893H38.922V101H40.35V96.339h3.6c2.686,0,4.012-1.547,4.012-3.723S46.64,88.893,43.954,88.893Zm0,6.154h-3.6V90.185h3.6A2.433,2.433,0,1,1,43.954,95.047Zm12.189,4.845a0.4,0.4,0,0,1-.476-0.425v-4.9c0-1.479-.867-2.55-3.3-2.55-2.567,0-3.468,1.207-3.57,2.907h1.36c0.085-1.309.714-1.734,2.21-1.734s1.972,0.459,1.972,1.377c0,0.782-.493,1.105-1.377,1.207l-1.258.136c-2.414.255-3.247,1.343-3.247,2.72,0,1.649,1.19,2.567,3.094,2.567A3.215,3.215,0,0,0,54.41,99.79a1.258,1.258,0,0,0,1.479,1.258A5.173,5.173,0,0,0,56.637,101v-1.1H56.144Zm-4.522.153c-1.207,0-1.751-.578-1.751-1.445,0-.85.442-1.394,2.04-1.581l1.275-.153a2.263,2.263,0,0,0,1.156-.374v1.037A2.519,2.519,0,0,1,51.622,100.045Zm13.549-.153a0.4,0.4,0,0,1-.476-0.425v-4.9c0-1.479-.867-2.55-3.3-2.55-2.567,0-3.468,1.207-3.57,2.907h1.36c0.085-1.309.714-1.734,2.21-1.734s1.972,0.459,1.972,1.377c0,0.782-.493,1.105-1.377,1.207l-1.258.136c-2.414.255-3.247,1.343-3.247,2.72,0,1.649,1.19,2.567,3.094,2.567a3.215,3.215,0,0,0,2.856-1.411,1.258,1.258,0,0,0,1.479,1.258A5.173,5.173,0,0,0,65.663,101v-1.1H65.17Zm-4.522.153c-1.207,0-1.751-.578-1.751-1.445,0-.85.442-1.394,2.04-1.581l1.275-.153a2.263,2.263,0,0,0,1.156-.374v1.037A2.519,2.519,0,0,1,60.648,100.045Zm11.424-7.82-1.241,3.638c-0.442,1.275-.867,2.55-1.258,3.808-0.408-1.258-.816-2.516-1.258-3.791l-1.241-3.655h-1.5l3.3,9.061c-0.1.272-.2,0.561-0.306,0.816a1.537,1.537,0,0,1-1.6,1.088h-0.8v1.139a6.782,6.782,0,0,0,.816.051,2.651,2.651,0,0,0,2.856-2.006l3.706-10.149H72.072Zm9.809,4.386c0-2.516-1.411-4.59-4.029-4.59-2.431,0-4.046,1.836-4.046,4.59,0,2.839,1.683,4.59,4.08,4.59a3.659,3.659,0,0,0,3.774-2.873H80.249A2.253,2.253,0,0,1,77.92,99.96c-1.53,0-2.567-.9-2.7-2.873h6.664V96.611Zm-4.029-3.349a2.572,2.572,0,0,1,2.567,2.6H75.251C75.472,94.129,76.475,93.262,77.852,93.262Zm6.409-2.278a0.918,0.918,0,1,0-.918-0.918A0.925,0.925,0,0,0,84.261,90.984ZM83.581,101h1.36V92.225h-1.36V101Zm7.531-8.976a3.232,3.232,0,0,0-2.754,1.513V92.225H87.066V101h1.36V96.033a2.5,2.5,0,0,1,2.414-2.788A1.759,1.759,0,0,1,92.846,95.2V101h1.36V95.064A2.8,2.8,0,0,0,91.112,92.021Zm12.58,0a3.232,3.232,0,0,0-2.754,1.513V92.225H99.646V101h1.36V96.033a2.5,2.5,0,0,1,2.414-2.788,1.759,1.759,0,0,1,2.006,1.955V101h1.36V95.064A2.8,2.8,0,0,0,103.692,92.021Zm12.393,7.871a0.4,0.4,0,0,1-.476-0.425v-4.9c0-1.479-.867-2.55-3.3-2.55-2.567,0-3.468,1.207-3.57,2.907h1.36c0.085-1.309.714-1.734,2.21-1.734s1.972,0.459,1.972,1.377c0,0.782-.493,1.105-1.377,1.207l-1.258.136c-2.414.255-3.247,1.343-3.247,2.72,0,1.649,1.19,2.567,3.094,2.567a3.215,3.215,0,0,0,2.856-1.411,1.258,1.258,0,0,0,1.479,1.258,5.173,5.173,0,0,0,.748-0.051v-1.1h-0.493Zm-4.522.153c-1.207,0-1.751-.578-1.751-1.445,0-.85.442-1.394,2.04-1.581l1.275-.153a2.263,2.263,0,0,0,1.156-.374v1.037A2.519,2.519,0,0,1,111.563,100.045Zm11.424-7.82-1.241,3.638c-0.442,1.275-.867,2.55-1.258,3.808-0.408-1.258-.816-2.516-1.258-3.791l-1.241-3.655h-1.5l3.3,9.061c-0.1.272-.2,0.561-0.306,0.816a1.537,1.537,0,0,1-1.6,1.088h-0.8v1.139a6.782,6.782,0,0,0,.816.051,2.651,2.651,0,0,0,2.856-2.006l3.706-10.149h-1.479Zm3.264-1.241a0.918,0.918,0,1,0-.918-0.918A0.925,0.925,0,0,0,126.251,90.984ZM125.571,101h1.36V92.225h-1.36V101ZM22.39,113.775v1.292h3.859a3.938,3.938,0,0,1-4.131,3.893c-2.567,0-4.25-1.938-4.25-5.015s1.666-5.015,4.25-5.015a3.644,3.644,0,0,1,3.808,2.924h1.479a4.981,4.981,0,0,0-5.287-4.233c-3.5,0-5.746,2.567-5.746,6.324s2.261,6.324,5.729,6.324a4.645,4.645,0,0,0,3.961-1.9L26.368,120h1.173v-6.222H22.39Zm14.365,5.117a0.4,0.4,0,0,1-.476-0.425v-4.9c0-1.479-.867-2.55-3.3-2.55-2.567,0-3.468,1.207-3.57,2.907h1.36c0.085-1.309.714-1.734,2.21-1.734s1.972,0.459,1.972,1.377c0,0.782-.493,1.105-1.377,1.207l-1.258.136c-2.414.255-3.247,1.343-3.247,2.72,0,1.649,1.19,2.567,3.094,2.567a3.215,3.215,0,0,0,2.856-1.411,1.258,1.258,0,0,0,1.479,1.258A5.173,5.173,0,0,0,37.248,120v-1.105H36.755Zm-4.522.153c-1.207,0-1.751-.578-1.751-1.445,0-.85.442-1.394,2.04-1.581l1.275-.153a2.263,2.263,0,0,0,1.156-.374v1.037A2.519,2.519,0,0,1,32.233,119.045Zm8.177,1A8.642,8.642,0,0,0,41.277,120v-1.139H40.631a0.681,0.681,0,0,1-.833-0.748V107.893h-1.36v10.336C38.438,119.572,39.186,120.048,40.41,120.048Zm9.316-1.156a0.4,0.4,0,0,1-.476-0.425v-4.9c0-1.479-.867-2.55-3.3-2.55-2.567,0-3.468,1.207-3.57,2.907h1.36c0.085-1.309.714-1.734,2.21-1.734s1.972,0.459,1.972,1.377c0,0.782-.493,1.105-1.377,1.207l-1.258.136c-2.414.255-3.247,1.343-3.247,2.72,0,1.649,1.19,2.567,3.094,2.567a3.215,3.215,0,0,0,2.856-1.411,1.258,1.258,0,0,0,1.479,1.258A5.173,5.173,0,0,0,50.219,120v-1.105H49.726Zm-4.522.153c-1.207,0-1.751-.578-1.751-1.445,0-.85.442-1.394,2.04-1.581l1.275-.153a2.263,2.263,0,0,0,1.156-.374v1.037A2.519,2.519,0,0,1,45.2,119.045Zm10.268-3.536,3.179-4.284H57.07l-0.663.935c-0.544.748-1.139,1.581-1.7,2.38-0.544-.8-1.122-1.6-1.7-2.38l-0.68-.935h-1.6l3.179,4.284L50.559,120H52.14l0.459-.646c0.68-.969,1.411-1.955,2.091-2.873,0.663,0.9,1.36,1.87,2.057,2.856L57.223,120h1.6Zm10.013-4.284-1.241,3.638c-0.442,1.275-.867,2.55-1.258,3.808-0.408-1.258-.816-2.516-1.258-3.791l-1.241-3.655h-1.5l3.3,9.061c-0.1.272-.2,0.561-0.306,0.816a1.537,1.537,0,0,1-1.6,1.088h-0.8v1.139a6.782,6.782,0,0,0,.816.051,2.651,2.651,0,0,0,2.856-2.006l3.706-10.149H65.485Zm10.505,9.044c2.907,0,4.539-1.411,4.539-3.553,0-1.751-.986-2.839-3.774-3.451l-1.071-.238c-2.278-.51-2.839-1.088-2.839-2.244,0-1.139.9-1.87,2.652-1.87,2.414,0,3.145.935,3.264,2.5h1.462c-0.051-1.972-1.156-3.791-4.726-3.791-2.516,0-4.131,1.224-4.131,3.162,0,2.21,1.615,3.043,3.672,3.5l1.071,0.238c2.142,0.476,2.941,1.037,2.941,2.193,0,1.5-1.122,2.261-3.06,2.261-1.972,0-3.519-.731-3.553-2.975H70.958C70.992,119.028,73.1,120.269,75.99,120.269Zm7.361-1.564c0.1-1.343.782-2.074,2.176-2.89l1.292-.748c1.938-1.122,2.754-2.4,2.754-3.944,0-2.057-1.564-3.5-3.859-3.5-2.5,0-4.012,1.394-3.978,3.893h1.411a2.291,2.291,0,0,1,2.533-2.6,2.152,2.152,0,0,1,2.4,2.21c0,1.275-.663,2.04-2.125,2.89l-1.53.884a4.956,4.956,0,0,0-2.635,4.437L81.754,120h7.99v-1.292H83.352Zm13.8-5.151A2.922,2.922,0,0,0,98.8,110.9c0-2.125-1.632-3.281-3.876-3.281-2.448,0-3.944,1.445-3.961,3.6H92.4a2.26,2.26,0,0,1,2.533-2.312c1.479,0,2.431.731,2.431,2.023s-0.884,2.057-2.516,2.057H94.028v1.19h0.9c1.7,0,2.754.952,2.754,2.414a2.371,2.371,0,0,1-2.669,2.38,2.5,2.5,0,0,1-2.822-2.635H90.781c-0.017,2.346,1.462,3.927,4.233,3.927,2.465,0,4.165-1.462,4.165-3.672A3.362,3.362,0,0,0,97.156,113.554Zm11.559,6.715c2.907,0,4.539-1.411,4.539-3.553,0-1.751-.986-2.839-3.774-3.451l-1.071-.238c-2.278-.51-2.839-1.088-2.839-2.244,0-1.139.9-1.87,2.652-1.87,2.414,0,3.145.935,3.264,2.5h1.462c-0.051-1.972-1.156-3.791-4.726-3.791-2.516,0-4.131,1.224-4.131,3.162,0,2.21,1.615,3.043,3.672,3.5l1.071,0.238c2.142,0.476,2.941,1.037,2.941,2.193,0,1.5-1.122,2.261-3.06,2.261-1.972,0-3.519-.731-3.553-2.975h-1.479C103.717,119.028,105.825,120.269,108.715,120.269Zm13.974-4.658c0-2.516-1.411-4.59-4.029-4.59-2.431,0-4.046,1.836-4.046,4.59,0,2.839,1.683,4.59,4.08,4.59a3.659,3.659,0,0,0,3.774-2.873h-1.411a2.253,2.253,0,0,1-2.329,1.632c-1.53,0-2.567-.9-2.7-2.873h6.664v-0.476Zm-4.029-3.349a2.572,2.572,0,0,1,2.567,2.6h-5.168C116.28,113.129,117.283,112.262,118.66,112.262Zm9.843-1.173a3.063,3.063,0,0,0-2.822,1.683v-1.547h-1.292V120h1.36v-5c0-1.7,1.122-2.584,2.873-2.584h0.34v-1.309C128.775,111.089,128.639,111.089,128.5,111.089Zm2.5-1.105a0.918,0.918,0,1,0-.918-0.918A0.925,0.925,0,0,0,131,109.984ZM130.322,120h1.36v-8.772h-1.36V120Zm11.135-4.386c0-2.516-1.411-4.59-4.029-4.59-2.431,0-4.046,1.836-4.046,4.59,0,2.839,1.683,4.59,4.08,4.59a3.659,3.659,0,0,0,3.774-2.873h-1.411a2.253,2.253,0,0,1-2.329,1.632c-1.53,0-2.567-.9-2.7-2.873h6.664v-0.476Zm-4.029-3.349a2.572,2.572,0,0,1,2.567,2.6h-5.168C135.048,113.129,136.051,112.262,137.428,112.262Zm8.738,7.939c2.159,0,3.485-.952,3.485-2.618,0-1.428-.867-2.159-3.026-2.584l-0.782-.153c-1.122-.221-1.768-0.527-1.768-1.36,0-.816.663-1.292,1.836-1.292,1.343,0,2.142.374,2.21,1.734h1.36c-0.034-1.87-1.224-2.907-3.57-2.907-2.006,0-3.2.986-3.2,2.482,0,1.36.833,2.227,2.737,2.584l0.816,0.153c1.53,0.289,2.006.646,2.006,1.428,0,0.867-.629,1.36-2.108,1.36-1.547,0-2.193-.493-2.346-1.819h-1.377C142.579,119.266,143.939,120.2,146.166,120.2ZM42.686,137.892a0.4,0.4,0,0,1-.476-0.425v-4.9c0-1.479-.867-2.55-3.3-2.55-2.567,0-3.468,1.207-3.57,2.907H36.7c0.085-1.309.714-1.734,2.21-1.734s1.972,0.459,1.972,1.377c0,0.782-.493,1.1-1.377,1.207l-1.258.136c-2.414.255-3.247,1.343-3.247,2.72,0,1.649,1.19,2.567,3.094,2.567a3.215,3.215,0,0,0,2.856-1.411,1.258,1.258,0,0,0,1.479,1.258A5.173,5.173,0,0,0,43.179,139v-1.105H42.686Zm-4.522.153c-1.207,0-1.751-.578-1.751-1.445,0-.85.442-1.394,2.04-1.581l1.275-.153a2.263,2.263,0,0,0,1.156-.374v1.037A2.519,2.519,0,0,1,38.164,138.045Zm9.792-6.63v-1.19h-1.8v-2.482h-1.36v2.482H43.349v1.19h1.445v5.814c0,1.343.833,1.819,2.193,1.819q0.408,0,.969-0.051v-1.139h-0.8c-0.782,0-1-.289-1-0.748v-5.7h1.8Zm9.941-.091c0-1.121-.674-1.765-2.34-2.092l-0.228-.04v-1.963a1.108,1.108,0,0,1,1.061,1.15h1.3a2.25,2.25,0,0,0-2.359-2.24v-1.011H54.615v0.991c-1.566.07-2.419,0.873-2.419,1.993,0,1.279.9,1.883,2.27,2.141l0.149,0.03v2.1a1.278,1.278,0,0,1-1.279-1.378H52.018c0.01,1.5.972,2.35,2.6,2.469v1.011h0.714v-1C56.925,133.405,57.9,132.642,57.9,131.324Zm-4.332-3.252a0.921,0.921,0,0,1,1.051-.862v1.824C53.822,128.835,53.565,128.578,53.565,128.072Zm1.765,4.332v-1.973c0.872,0.209,1.18.456,1.18,0.962A1.047,1.047,0,0,1,55.329,132.4Zm8.356,6.865c3.247,0,4.862-2.312,4.862-6.324s-1.632-6.324-4.862-6.324c-3.213,0-4.845,2.312-4.845,6.324S60.472,139.269,63.685,139.269Zm0-1.938c-1.564,0-2.448-1.309-2.448-4.386s0.884-4.386,2.448-4.386c1.581,0,2.465,1.309,2.465,4.386S65.283,137.331,63.685,137.331Zm15.759-7.106v4.964a2.5,2.5,0,0,1-2.414,2.788,1.759,1.759,0,0,1-2.006-1.955v-5.8h-1.36v5.933a2.8,2.8,0,0,0,3.094,3.043,3.232,3.232,0,0,0,2.754-1.513V139H80.8v-8.772h-1.36Zm7.786-.2a3.448,3.448,0,0,0-3.009,1.564v-1.36H82.929v12.1h1.36v-4.59A3.446,3.446,0,0,0,87.23,139.2c2.465,0,4.08-1.785,4.08-4.59S89.695,130.021,87.23,130.021Zm-0.17,7.956c-1.7,0-2.822-1.241-2.822-3.366s1.122-3.366,2.822-3.366,2.822,1.173,2.822,3.3S88.76,137.977,87.06,137.977Zm8.823-9.928h0.782v-1.156c-0.2-.017-0.612-0.034-0.867-0.034a2.168,2.168,0,0,0-2.448,2.465v0.9H91.9v1.19H93.35V139h1.36v-7.582h1.87v-1.19H94.71V129.29A1.079,1.079,0,0,1,95.883,128.049Zm6.256,2.04a3.064,3.064,0,0,0-2.822,1.683v-1.547H98.025V139h1.36v-5c0-1.7,1.122-2.584,2.873-2.584h0.34v-1.309C102.411,130.089,102.275,130.089,102.139,130.089Zm5.134,9.112c2.465,0,4.25-1.785,4.25-4.59s-1.785-4.59-4.25-4.59-4.25,1.785-4.25,4.59S104.808,139.2,107.273,139.2Zm0-1.224c-1.7,0-2.822-1.241-2.822-3.366s1.122-3.366,2.822-3.366,2.822,1.241,2.822,3.366S108.973,137.977,107.273,137.977Zm10-7.956a3.232,3.232,0,0,0-2.754,1.513v-1.309h-1.292V139h1.36v-4.964A2.5,2.5,0,0,1,117,131.245,1.759,1.759,0,0,1,119,133.2V139h1.36v-5.933A2.8,2.8,0,0,0,117.269,130.021Zm8.721,1.394v-1.19h-1.8v-2.482h-1.36v2.482h-1.445v1.19h1.445v5.814c0,1.343.833,1.819,2.193,1.819q0.408,0,.969-0.051v-1.139h-0.8c-0.782,0-1-.289-1-0.748v-5.7h1.8Zm1.957-1.251,0.942-1.3,0.941,1.3,0.5-.4-0.952-1.318,1.507-.486-0.208-.595-1.467.476v-1.566h-0.635v1.566l-1.467-.476-0.208.595,1.507,0.486-0.952,1.318ZM32.276,158.2c2.465,0,4.25-1.785,4.25-4.59s-1.785-4.59-4.25-4.59-4.25,1.785-4.25,4.59S29.811,158.2,32.276,158.2Zm0-1.224c-1.7,0-2.822-1.241-2.822-3.366s1.122-3.366,2.822-3.366,2.822,1.241,2.822,3.366S33.976,156.977,32.276,156.977Zm10-7.956a3.232,3.232,0,0,0-2.754,1.513v-1.309H38.226V158h1.36v-4.964A2.5,2.5,0,0,1,42,150.245a1.759,1.759,0,0,1,2.006,1.955V158h1.36v-5.933A2.8,2.8,0,0,0,42.272,149.021Zm7.191,9.027A8.642,8.642,0,0,0,50.33,158v-1.139H49.684a0.681,0.681,0,0,1-.833-0.748V145.893h-1.36v10.336C47.491,157.572,48.239,158.048,49.463,158.048Zm7.191-8.823-1.241,3.638c-0.442,1.275-.867,2.55-1.258,3.808-0.408-1.258-.816-2.516-1.258-3.791l-1.241-3.655h-1.5l3.3,9.061c-0.1.272-.2,0.561-0.306,0.816a1.537,1.537,0,0,1-1.6,1.088h-0.8v1.139a6.782,6.782,0,0,0,.816.051,2.651,2.651,0,0,0,2.856-2.006l3.706-10.149H56.654Zm9.809,8.976c2.465,0,4.25-1.785,4.25-4.59s-1.785-4.59-4.25-4.59-4.25,1.785-4.25,4.59S64,158.2,66.462,158.2Zm0-1.224c-1.7,0-2.822-1.241-2.822-3.366s1.122-3.366,2.822-3.366,2.822,1.241,2.822,3.366S68.162,156.977,66.462,156.977Zm10-7.956a3.232,3.232,0,0,0-2.754,1.513v-1.309H72.412V158h1.36v-4.964a2.5,2.5,0,0,1,2.414-2.788,1.759,1.759,0,0,1,2.006,1.955V158h1.36v-5.933A2.8,2.8,0,0,0,76.458,149.021Zm17.561-3.128H84.312v1.292h4.114V158H89.9V147.185h4.114v-1.292Zm9.775,1.292v-1.292H95.379V158h8.347v-1.292H96.807v-4.369h6.307v-1.292H96.807v-3.859h6.987Zm3.042,9.52V145.893h-1.428V158h7.514v-1.292h-6.086Zm11.612,1.547c3.026,0,4.76-1.717,4.76-4.743v-7.616H121.78v7.616c0,2.38-1.224,3.451-3.332,3.451s-3.332-1.071-3.332-3.451v-7.616h-1.428v7.616C113.688,156.535,115.422,158.252,118.448,158.252Zm11.322,0.017c2.907,0,4.539-1.411,4.539-3.553,0-1.751-.986-2.839-3.774-3.451l-1.071-.238c-2.278-.51-2.839-1.088-2.839-2.244,0-1.139.9-1.87,2.652-1.87,2.414,0,3.145.935,3.264,2.5H134c-0.051-1.972-1.156-3.791-4.726-3.791-2.516,0-4.131,1.224-4.131,3.162,0,2.21,1.615,3.043,3.672,3.5l1.071,0.238c2.142,0.476,2.941,1.037,2.941,2.193,0,1.5-1.122,2.261-3.06,2.261-1.972,0-3.519-.731-3.553-2.975h-1.479C124.772,157.028,126.88,158.269,129.77,158.269Zm6.833-.153a0.976,0.976,0,0,0,.969-1,1,1,0,0,0-1.989,0A0.978,0.978,0,0,0,136.6,158.116Z"/>
  </g>
</svg>
