<svg id="hing" xmlns="http://www.w3.org/2000/svg" width="300" height="250" viewBox="0 0 300 250">
  <defs>
    <style>
      .cls-1 {
        fill: #fff;
        fill-rule: evenodd;
      }
    </style>
  </defs>
  <g id="fr3">
    <path id="Sign_up" data-name="Sign up" class="cls-1" d="M235.639,232.673c1.87,0,2.61-.956,2.61-2.068,0-1.083-.684-1.7-1.936-1.97l-1.187-.263c-0.844-.186-1.176-0.5-1.176-1.054,0-.731.569-1.15,1.537-1.15a1.466,1.466,0,0,1,1.708,1.355h0.845a2.222,2.222,0,0,0-2.525-2.1c-1.556,0-2.4.8-2.4,1.97,0,1.112.8,1.58,1.9,1.814l0.95,0.2c1.053,0.224,1.433.585,1.433,1.239,0,0.79-.57,1.277-1.728,1.277a1.675,1.675,0,0,1-1.945-1.658h-0.845C232.991,231.883,233.95,232.673,235.639,232.673Zm3.854-6.125h0.874v-0.966h-0.874v0.966Zm0,5.978h0.874v-5.032h-0.874v5.032Zm5.809-5.032v0.78a1.741,1.741,0,0,0-1.585-.887c-1.243,0-2.116,1.024-2.116,2.545,0,1.561.807,2.7,2.135,2.7a1.79,1.79,0,0,0,1.538-.839v0.653a1.234,1.234,0,0,1-1.424,1.473,1.053,1.053,0,0,1-1.243-.761h-0.854c0.133,1.024.93,1.473,2.069,1.473a2.034,2.034,0,0,0,2.3-2.272v-4.867H245.3Zm-1.48,4.369c-0.845,0-1.348-.761-1.348-1.931,0-1.151.522-1.775,1.367-1.775,0.816,0,1.4.6,1.4,1.795S244.638,231.863,243.822,231.863Zm6.274-4.5a1.85,1.85,0,0,0-1.642.839v-0.712h-0.816v5.032h0.873v-2.8a1.365,1.365,0,0,1,1.4-1.58,0.905,0.905,0,0,1,.978,1.063v3.316h0.873v-3.491A1.528,1.528,0,0,0,250.1,227.367Zm8.989,0.127v2.8a1.364,1.364,0,0,1-1.395,1.58,0.9,0.9,0,0,1-.977-1.063v-3.316h-0.874v3.491a1.528,1.528,0,0,0,1.661,1.668,1.849,1.849,0,0,0,1.642-.839v0.712h0.816v-5.032h-0.873Zm4.756-.107a1.756,1.756,0,0,0-1.6.916v-0.809h-0.759v7.022h0.873v-2.6a1.77,1.77,0,0,0,1.452.722c1.329,0,2.145-1.18,2.145-2.741C265.948,228.372,265.085,227.387,263.841,227.387Zm-0.123,4.476c-0.816,0-1.414-.722-1.414-1.911s0.6-1.795,1.414-1.795c0.845,0,1.357.585,1.357,1.736C265.075,231.063,264.563,231.863,263.718,231.863Z"/>
  </g>
</svg>
