<svg id="hing" xmlns="http://www.w3.org/2000/svg" width="300" height="250" viewBox="0 0 300 250">
  <defs>
    <style>
      .cls-1 {
        fill: #58595b;
        fill-rule: evenodd;
      }
    </style>
  </defs>
  <g id="fr3">
    <path id="_On_a_2-year_term._Conditions_apply._" data-name="*On a 2-year term.  Conditions apply. " class="cls-1" d="M138.045,224.928L138.8,223.9l0.751,1.032,0.4-.315-0.759-1.048,1.2-.386-0.166-.473-1.17.378v-1.245h-0.506v1.245l-1.17-.378-0.166.473,1.2,0.386-0.759,1.048Zm3.146,1.183a2.477,2.477,0,0,0,.954,1.05,2.675,2.675,0,0,0,1.428.385,2.817,2.817,0,0,0,1.374-.348,2.37,2.37,0,0,0,.985-1.025,3.327,3.327,0,0,0,.347-1.536,3.372,3.372,0,0,0-.33-1.514,2.436,2.436,0,0,0-.959-1.04,2.718,2.718,0,0,0-1.413-.374,2.574,2.574,0,0,0-1.953.795,3.058,3.058,0,0,0-.757,2.2A3.177,3.177,0,0,0,141.191,226.111Zm1.021-3.215a1.921,1.921,0,0,1,1.369-.544,1.852,1.852,0,0,1,1.009.283,1.783,1.783,0,0,1,.683.8,2.879,2.879,0,0,1,.234,1.2,2.392,2.392,0,0,1-.546,1.681,1.925,1.925,0,0,1-2.772.006,2.259,2.259,0,0,1-.55-1.607A2.427,2.427,0,0,1,142.212,222.9Zm5.664,4.554v-2.232a1.384,1.384,0,0,1,.322-1.065,1.126,1.126,0,0,1,.767-0.281,0.911,0.911,0,0,1,.484.125,0.666,0.666,0,0,1,.288.334,1.863,1.863,0,0,1,.081.633v2.486h0.695v-2.513a3.912,3.912,0,0,0-.039-0.673,1.337,1.337,0,0,0-.216-0.512,1.081,1.081,0,0,0-.465-0.348,1.728,1.728,0,0,0-.682-0.133,1.475,1.475,0,0,0-1.3.674v-0.581h-0.626v4.086h0.695Zm8.712,0h0.726a1.555,1.555,0,0,1-.176-0.491,9.906,9.906,0,0,1-.044-1.221v-0.924a3.781,3.781,0,0,0-.035-0.638,1.09,1.09,0,0,0-.216-0.472,1.13,1.13,0,0,0-.482-0.309,2.47,2.47,0,0,0-.853-0.124,2.754,2.754,0,0,0-.931.145,1.334,1.334,0,0,0-.613.411,1.667,1.667,0,0,0-.305.7l0.679,0.092a1.05,1.05,0,0,1,.345-0.606,1.232,1.232,0,0,1,.724-0.171,1.17,1.17,0,0,1,.792.234,0.767,0.767,0,0,1,.2.6c0,0.026,0,.086,0,0.181a6.378,6.378,0,0,1-1.24.238,5.069,5.069,0,0,0-.617.1,1.688,1.688,0,0,0-.5.227,1.137,1.137,0,0,0-.5.947,1.082,1.082,0,0,0,.363.84,1.49,1.49,0,0,0,1.038.329,2.168,2.168,0,0,0,.766-0.134,2.591,2.591,0,0,0,.743-0.462,1.48,1.48,0,0,0,.139.5h0Zm-0.2-1.8a1.683,1.683,0,0,1-.112.693,1.084,1.084,0,0,1-.46.479,1.441,1.441,0,0,1-.714.175,0.91,0.91,0,0,1-.616-0.185,0.611,0.611,0,0,1-.113-0.791,0.607,0.607,0,0,1,.274-0.225,2.642,2.642,0,0,1,.606-0.138,5.114,5.114,0,0,0,1.135-.262v0.254Zm4.659,1.131a2.339,2.339,0,0,1,.293-0.375q0.177-.186.8-0.71a11.2,11.2,0,0,0,1.071-.992,2.562,2.562,0,0,0,.461-0.689,1.682,1.682,0,0,0,.139-0.666,1.48,1.48,0,0,0-.474-1.116,1.8,1.8,0,0,0-1.29-.45,1.882,1.882,0,0,0-1.285.418,1.75,1.75,0,0,0-.552,1.214l0.714,0.073a1.134,1.134,0,0,1,.3-0.831,1.087,1.087,0,0,1,.8-0.3,1.07,1.07,0,0,1,.77.282,0.924,0.924,0,0,1,.3.695,1.428,1.428,0,0,1-.324.833,7.689,7.689,0,0,1-1.247,1.2,7.127,7.127,0,0,0-.909.854,2.526,2.526,0,0,0-.457.75,1.209,1.209,0,0,0-.081.481h3.74v-0.666h-2.775Zm5.374-1.027v-0.7h-2.134v0.7h2.134Zm1.091,3.351a1.009,1.009,0,0,0,.571-0.159,1.37,1.37,0,0,0,.424-0.5,7.977,7.977,0,0,0,.39-0.927l1.56-4.155h-0.7l-0.876,2.381a9.314,9.314,0,0,0-.286.932c-0.087-.331-0.187-0.647-0.3-0.947l-0.853-2.366h-0.749l1.556,4.094c-0.029.074-.049,0.13-0.062,0.169a3.355,3.355,0,0,1-.213.515,0.625,0.625,0,0,1-.227.216,0.77,0.77,0,0,1-.371.077,1.55,1.55,0,0,1-.4-0.062l0.077,0.651a1.4,1.4,0,0,0,.448.084h0Zm5.745-2.335a1.069,1.069,0,0,1-.653.2,1.136,1.136,0,0,1-.856-0.358,1.564,1.564,0,0,1-.383-1.031h3.058c0-.082,0-0.144,0-0.185a2.211,2.211,0,0,0-.521-1.57,1.754,1.754,0,0,0-1.343-.558,1.805,1.805,0,0,0-1.382.57,2.255,2.255,0,0,0-.533,1.6,2.153,2.153,0,0,0,.527,1.548,2.138,2.138,0,0,0,2.6.206,1.745,1.745,0,0,0,.629-0.973l-0.718-.089A1.331,1.331,0,0,1,173.261,226.773Zm-1.492-2.613a1.1,1.1,0,0,1,.805-0.319,1.068,1.068,0,0,1,.861.4,1.384,1.384,0,0,1,.262.773h-2.289A1.26,1.26,0,0,1,171.769,224.16Zm6.271,3.29h0.726a1.531,1.531,0,0,1-.176-0.491,9.7,9.7,0,0,1-.044-1.221v-0.924a3.894,3.894,0,0,0-.035-0.638,1.09,1.09,0,0,0-.216-0.472,1.127,1.127,0,0,0-.483-0.309,2.47,2.47,0,0,0-.853-0.124,2.748,2.748,0,0,0-.93.145,1.338,1.338,0,0,0-.614.411,1.692,1.692,0,0,0-.3.7l0.679,0.092a1.045,1.045,0,0,1,.346-0.606,1.232,1.232,0,0,1,.724-0.171,1.166,1.166,0,0,1,.791.234,0.767,0.767,0,0,1,.2.6c0,0.026,0,.086,0,0.181a6.349,6.349,0,0,1-1.239.238,5.129,5.129,0,0,0-.618.1,1.688,1.688,0,0,0-.5.227,1.141,1.141,0,0,0-.359.4,1.124,1.124,0,0,0-.137.549,1.082,1.082,0,0,0,.363.84,1.491,1.491,0,0,0,1.039.329,2.172,2.172,0,0,0,.766-0.134,2.591,2.591,0,0,0,.743-0.462,1.48,1.48,0,0,0,.139.5h0Zm-0.2-1.8a1.667,1.667,0,0,1-.112.693,1.087,1.087,0,0,1-.459.479,1.447,1.447,0,0,1-.714.175,0.907,0.907,0,0,1-.616-0.185,0.613,0.613,0,0,1-.114-0.791,0.613,0.613,0,0,1,.274-0.225,2.669,2.669,0,0,1,.606-0.138,5.086,5.086,0,0,0,1.135-.262v0.254Zm2.4,1.8v-2.139a2.692,2.692,0,0,1,.116-0.808,0.741,0.741,0,0,1,.259-0.379,0.663,0.663,0,0,1,.409-0.137,0.992,0.992,0,0,1,.509.15l0.24-.642a1.358,1.358,0,0,0-.714-0.224,0.775,0.775,0,0,0-.446.139,1.679,1.679,0,0,0-.442.573v-0.619h-0.626v4.086h0.695Zm5.354-.593a0.454,0.454,0,0,1-.237-0.05,0.288,0.288,0,0,1-.12-0.134,1.219,1.219,0,0,1-.037-0.381V223.9h0.7v-0.538h-0.7v-1.428l-0.69.416v1.012H184V223.9h0.51v2.351a2.5,2.5,0,0,0,.084.818,0.673,0.673,0,0,0,.294.314,1.2,1.2,0,0,0,.587.119,2.6,2.6,0,0,0,.525-0.062l-0.1-.612a2.264,2.264,0,0,1-.3.027h0Zm3.246-.084a1.066,1.066,0,0,1-.652.2,1.138,1.138,0,0,1-.857-0.358,1.564,1.564,0,0,1-.382-1.031h3.057c0-.082,0-0.144,0-0.185a2.216,2.216,0,0,0-.521-1.57,1.758,1.758,0,0,0-1.344-.558,1.807,1.807,0,0,0-1.382.57,2.254,2.254,0,0,0-.532,1.6,2.149,2.149,0,0,0,.527,1.548,2.137,2.137,0,0,0,2.6.206,1.746,1.746,0,0,0,.63-0.973l-0.718-.089A1.339,1.339,0,0,1,188.843,226.773Zm-1.492-2.613a1.106,1.106,0,0,1,.805-0.319,1.065,1.065,0,0,1,.861.4,1.384,1.384,0,0,1,.262.773H186.99A1.264,1.264,0,0,1,187.351,224.16Zm4.148,3.29v-2.139a2.692,2.692,0,0,1,.115-0.808,0.741,0.741,0,0,1,.259-0.379,0.663,0.663,0,0,1,.409-0.137,1,1,0,0,1,.51.15l0.239-.642a1.358,1.358,0,0,0-.714-0.224,0.777,0.777,0,0,0-.446.139,1.691,1.691,0,0,0-.442.573v-0.619H190.8v4.086H191.5Zm2.7,0v-2.12a2.539,2.539,0,0,1,.112-0.854,0.871,0.871,0,0,1,.361-0.45,1.01,1.01,0,0,1,.543-0.154,0.646,0.646,0,0,1,.556.231,1.163,1.163,0,0,1,.169.692v2.655h0.695v-2.374a1.258,1.258,0,0,1,.286-0.918,0.971,0.971,0,0,1,.718-0.286,0.773,0.773,0,0,1,.417.111,0.585,0.585,0,0,1,.245.295,1.888,1.888,0,0,1,.067.6v2.574h0.691v-2.8a1.435,1.435,0,0,0-.328-1.037,1.252,1.252,0,0,0-.938-0.337,1.473,1.473,0,0,0-1.266.716,1.012,1.012,0,0,0-.411-0.527,1.348,1.348,0,0,0-.747-0.189,1.44,1.44,0,0,0-.729.183,1.463,1.463,0,0,0-.514.483v-0.573h-0.621v4.086H194.2Zm6.765,0v-0.789h-0.791v0.789h0.791ZM140.948,236a1.614,1.614,0,0,1-1.065.361,1.838,1.838,0,0,1-.961-0.265,1.569,1.569,0,0,1-.655-0.8,3.432,3.432,0,0,1-.21-1.256,3.341,3.341,0,0,1,.178-1.083,1.645,1.645,0,0,1,.615-0.837,1.84,1.84,0,0,1,1.091-.311,1.523,1.523,0,0,1,.942.281,1.744,1.744,0,0,1,.571.9l0.737-.173a2.237,2.237,0,0,0-.807-1.212,2.327,2.327,0,0,0-1.428-.431,2.813,2.813,0,0,0-1.372.34,2.315,2.315,0,0,0-.961,1,3.3,3.3,0,0,0-.338,1.537,3.831,3.831,0,0,0,.3,1.512,2.325,2.325,0,0,0,.872,1.076,2.7,2.7,0,0,0,1.489.371,2.338,2.338,0,0,0,1.5-.483,2.511,2.511,0,0,0,.848-1.4l-0.749-.189A1.852,1.852,0,0,1,140.948,236Zm2.47,0.446a1.846,1.846,0,0,0,1.392.55,2.017,2.017,0,0,0,.99-0.25,1.688,1.688,0,0,0,.691-0.7,2.7,2.7,0,0,0,.237-1.241,2.1,2.1,0,0,0-.536-1.526,1.844,1.844,0,0,0-1.382-.552,1.917,1.917,0,0,0-1.29.454,2.1,2.1,0,0,0-.633,1.682A2.192,2.192,0,0,0,143.418,236.448Zm0.527-2.759a1.15,1.15,0,0,1,1.724,0,1.686,1.686,0,0,1,.345,1.149,1.775,1.775,0,0,1-.344,1.2,1.145,1.145,0,0,1-1.725,0A2.177,2.177,0,0,1,143.945,233.689Zm4.258,3.217v-2.232a1.384,1.384,0,0,1,.322-1.066,1.129,1.129,0,0,1,.766-0.281,0.915,0.915,0,0,1,.485.126,0.664,0.664,0,0,1,.287.334,1.863,1.863,0,0,1,.081.633v2.486h0.695v-2.513a3.912,3.912,0,0,0-.039-0.673,1.331,1.331,0,0,0-.216-0.512,1.073,1.073,0,0,0-.465-0.348,1.706,1.706,0,0,0-.681-0.133,1.475,1.475,0,0,0-1.3.674V232.82h-0.625v4.086H148.2Zm6.955,0v-5.641h-0.691v2.024a1.369,1.369,0,0,0-1.131-.562,1.646,1.646,0,0,0-.915.266,1.6,1.6,0,0,0-.613.763,2.891,2.891,0,0,0-.2,1.11,2.588,2.588,0,0,0,.226,1.111,1.777,1.777,0,0,0,.637.752,1.614,1.614,0,0,0,.9.269,1.275,1.275,0,0,0,1.146-.608v0.516h0.645Zm-2.53-3.228a0.962,0.962,0,0,1,.774-0.377,1,1,0,0,1,.8.392,1.918,1.918,0,0,1,.324,1.231,1.708,1.708,0,0,1-.318,1.133,0.985,0.985,0,0,1-.774.372,1,1,0,0,1-.784-0.389,1.772,1.772,0,0,1-.332-1.174A1.854,1.854,0,0,1,152.628,233.678Zm4.227-1.616v-0.8H156.16v0.8h0.695Zm0,4.844V232.82H156.16v4.086h0.695Zm2.2-.593a0.454,0.454,0,0,1-.237-0.05,0.291,0.291,0,0,1-.12-0.135,1.218,1.218,0,0,1-.036-0.38v-2.39h0.7V232.82h-0.7v-1.428l-0.691.416v1.012h-0.51v0.538h0.51v2.351a2.463,2.463,0,0,0,.085.818,0.664,0.664,0,0,0,.293.313,1.185,1.185,0,0,0,.587.12,2.6,2.6,0,0,0,.525-0.062l-0.1-.612a2.264,2.264,0,0,1-.305.027h0Zm1.659-4.251v-0.8h-0.695v0.8h0.695Zm0,4.844V232.82h-0.695v4.086h0.695Zm1.307-.458a1.842,1.842,0,0,0,1.391.55,2.012,2.012,0,0,0,.99-0.25,1.676,1.676,0,0,0,.691-0.7,2.687,2.687,0,0,0,.238-1.241,2.1,2.1,0,0,0-.537-1.526,1.843,1.843,0,0,0-1.382-.552,1.913,1.913,0,0,0-1.289.454,2.1,2.1,0,0,0-.633,1.682A2.192,2.192,0,0,0,162.021,236.448Zm0.527-2.759a1.148,1.148,0,0,1,1.723,0,1.686,1.686,0,0,1,.346,1.149,1.775,1.775,0,0,1-.344,1.2,1.145,1.145,0,0,1-1.725,0A2.177,2.177,0,0,1,162.548,233.689Zm4.257,3.217v-2.232a1.384,1.384,0,0,1,.323-1.066,1.127,1.127,0,0,1,.766-0.281,0.909,0.909,0,0,1,.484.126,0.662,0.662,0,0,1,.288.334,1.863,1.863,0,0,1,.081.633v2.486h0.695v-2.513a3.912,3.912,0,0,0-.039-0.673,1.331,1.331,0,0,0-.216-0.512,1.073,1.073,0,0,0-.465-0.348,1.711,1.711,0,0,0-.682-0.133,1.475,1.475,0,0,0-1.3.674V232.82H166.11v4.086h0.695Zm3.882-.239a1.928,1.928,0,0,0,1.218.331,2.146,2.146,0,0,0,.865-0.167,1.314,1.314,0,0,0,.584-0.474,1.151,1.151,0,0,0,.2-0.652,1.008,1.008,0,0,0-.166-0.592,1.051,1.051,0,0,0-.457-0.364,8.768,8.768,0,0,0-1.029-.321c-0.34-.092-0.544-0.151-0.614-0.177a0.6,0.6,0,0,1-.266-0.185,0.378,0.378,0,0,1-.085-0.242,0.462,0.462,0,0,1,.2-0.37,1.145,1.145,0,0,1,.684-0.157,0.983,0.983,0,0,1,.627.177,0.74,0.74,0,0,1,.268.492l0.68-.092a1.466,1.466,0,0,0-.24-0.633,1.143,1.143,0,0,0-.538-0.375,2.365,2.365,0,0,0-.847-0.139,2.119,2.119,0,0,0-.6.083,1.425,1.425,0,0,0-.442.2,1.113,1.113,0,0,0-.341.387,1.046,1.046,0,0,0-.126.506,1.009,1.009,0,0,0,.6.936,6.459,6.459,0,0,0,1.06.333,3,3,0,0,1,.71.235,0.42,0.42,0,0,1,.2.369,0.578,0.578,0,0,1-.232.456,1.084,1.084,0,0,1-.71.195,1.127,1.127,0,0,1-.739-0.22,0.953,0.953,0,0,1-.322-0.631l-0.688.108A1.539,1.539,0,0,0,170.687,236.667Zm8.707,0.239h0.725a1.537,1.537,0,0,1-.175-0.491,9.629,9.629,0,0,1-.045-1.221V234.27a3.787,3.787,0,0,0-.035-0.639,1.091,1.091,0,0,0-.216-0.471,1.131,1.131,0,0,0-.482-0.31,2.472,2.472,0,0,0-.853-0.123,2.729,2.729,0,0,0-.931.145,1.334,1.334,0,0,0-.613.411,1.668,1.668,0,0,0-.305.7l0.679,0.093a1.045,1.045,0,0,1,.346-0.606,1.227,1.227,0,0,1,.723-0.171,1.17,1.17,0,0,1,.792.234,0.765,0.765,0,0,1,.2.6c0,0.025,0,.086,0,0.18a6.333,6.333,0,0,1-1.239.239,4.868,4.868,0,0,0-.618.1,1.688,1.688,0,0,0-.5.227,1.131,1.131,0,0,0-.359.4,1.12,1.12,0,0,0-.137.548,1.083,1.083,0,0,0,.363.841,1.5,1.5,0,0,0,1.038.329,2.146,2.146,0,0,0,.766-0.135,2.581,2.581,0,0,0,.744-0.461,1.436,1.436,0,0,0,.139.5h0Zm-0.2-1.8a1.675,1.675,0,0,1-.112.692,1.074,1.074,0,0,1-.46.479,1.431,1.431,0,0,1-.714.176,0.906,0.906,0,0,1-.615-0.185,0.609,0.609,0,0,1-.114-0.791,0.6,0.6,0,0,1,.274-0.225,2.642,2.642,0,0,1,.606-0.138,5.114,5.114,0,0,0,1.135-.262v0.254Zm2.4,3.363v-1.99a1.418,1.418,0,0,0,.453.37,1.318,1.318,0,0,0,.624.146,1.714,1.714,0,0,0,1.561-1.037,2.717,2.717,0,0,0,.226-1.129,2.762,2.762,0,0,0-.205-1.076,1.644,1.644,0,0,0-.606-0.759,1.618,1.618,0,0,0-.926-0.27,1.388,1.388,0,0,0-.683.156,1.556,1.556,0,0,0-.506.468V232.82h-0.633v5.652H181.6Zm0.276-4.789a1,1,0,0,1,.785-0.413,0.97,0.97,0,0,1,.77.388,1.8,1.8,0,0,1,.323,1.17,1.848,1.848,0,0,1-.33,1.21,1.008,1.008,0,0,1-.794.391,0.987,0.987,0,0,1-.776-0.377,1.778,1.778,0,0,1-.32-1.166A1.847,1.847,0,0,1,181.877,233.683Zm4.074,4.789v-1.99a1.418,1.418,0,0,0,.453.37,1.318,1.318,0,0,0,.624.146,1.714,1.714,0,0,0,1.561-1.037,2.717,2.717,0,0,0,.226-1.129,2.762,2.762,0,0,0-.2-1.076A1.644,1.644,0,0,0,188,233a1.618,1.618,0,0,0-.926-0.27,1.388,1.388,0,0,0-.683.156,1.556,1.556,0,0,0-.506.468V232.82h-0.633v5.652h0.695Zm0.276-4.789a1,1,0,0,1,.785-0.413,0.97,0.97,0,0,1,.77.388,1.8,1.8,0,0,1,.323,1.17,1.848,1.848,0,0,1-.33,1.21,1.008,1.008,0,0,1-.794.391,0.987,0.987,0,0,1-.776-0.377,1.778,1.778,0,0,1-.32-1.166A1.847,1.847,0,0,1,186.227,233.683Zm4.112-2.418h-0.695v4.444c0,0.182,0,.35.014,0.5a0.936,0.936,0,0,0,.1.395,0.626,0.626,0,0,0,.286.259,1.322,1.322,0,0,0,.561.095,2.1,2.1,0,0,0,.238-0.016c0.086-.01.181-0.025,0.284-0.046l-0.093-.616-0.162.022a1.286,1.286,0,0,1-.147.009,0.568,0.568,0,0,1-.214-0.033,0.23,0.23,0,0,1-.118-0.1,0.413,0.413,0,0,1-.048-0.175c-0.007-.071-0.01-0.157-0.01-0.257v-4.483Zm1.581,7.3a1,1,0,0,0,.571-0.16,1.368,1.368,0,0,0,.425-0.5,8.356,8.356,0,0,0,.39-0.927l1.559-4.155h-0.7l-0.876,2.381a9.3,9.3,0,0,0-.286.931q-0.131-.5-0.3-0.946l-0.853-2.366h-0.749l1.556,4.093c-0.028.075-.049,0.131-0.062,0.17a3.391,3.391,0,0,1-.212.515,0.629,0.629,0,0,1-.228.216,0.768,0.768,0,0,1-.37.077,1.556,1.556,0,0,1-.4-0.062l0.077,0.65a1.383,1.383,0,0,0,.448.085h0Zm4-1.658v-0.789h-0.791v0.789h0.791Z"/>
  </g>
</svg>
