<svg id="hing" xmlns="http://www.w3.org/2000/svg" width="300" height="250" viewBox="0 0 300 250">
  <defs>
    <style>
      .cls-1 {
        fill: #452c6a;
        fill-rule: evenodd;
      }
    </style>
  </defs>
  <path id="fr1" class="cls-1" d="M69.084,66.829v-1.7H58.005V81.05h10.99v-1.7H59.885V73.6h8.3v-1.7h-8.3V66.829h9.2ZM78.73,81.05h2.082l-4.7-7.379L80.5,69.513H78.126l-5.349,5.165V65.13H70.986V81.05h1.791V76.78l2.059-1.923Zm11.862,0.268c2.843,0,4.588-1.252,4.588-3.443,0-1.878-1.141-2.84-3.984-3.4l-1.03-.2c-1.477-.291-2.328-0.693-2.328-1.789,0-1.073.873-1.7,2.417-1.7,1.768,0,2.82.492,2.91,2.281h1.791c-0.045-2.46-1.611-3.824-4.7-3.824-2.641,0-4.208,1.3-4.208,3.265,0,1.789,1.1,2.929,3.6,3.4l1.074,0.2c2.014,0.38,2.641.85,2.641,1.878,0,1.14-.828,1.789-2.775,1.789-2.037,0-2.887-.648-3.089-2.392H85.691C85.87,80.089,87.66,81.319,90.592,81.319Zm13.989-11.806v6.529c0,2.549-1.679,3.667-3.179,3.667a2.315,2.315,0,0,1-2.641-2.571V69.513H96.971v7.8c0,2.549,1.5,4,4.073,4a4.255,4.255,0,0,0,3.626-1.99V81.05h1.7V69.513h-1.79Zm9.8-.268a4.255,4.255,0,0,0-3.626,1.99V69.513h-1.7V81.05h1.79V74.521c0-2.549,1.679-3.667,3.179-3.667a2.315,2.315,0,0,1,2.641,2.571V81.05h1.79v-7.8C118.457,70.7,116.958,69.244,114.384,69.244Zm12.086,0a4.257,4.257,0,0,0-3.537,1.856V65.13h-1.79V81.05h1.79V74.521c0-2.549,1.679-3.667,3.178-3.667a2.316,2.316,0,0,1,2.642,2.571V81.05h1.79v-7.8C130.543,70.7,129.043,69.244,126.47,69.244Zm16.83,6.037c0-3.309-1.857-6.037-5.3-6.037-3.2,0-5.327,2.415-5.327,6.037,0,3.734,2.216,6.037,5.372,6.037a4.816,4.816,0,0,0,4.968-3.779h-1.857a2.967,2.967,0,0,1-3.067,2.147c-2.014,0-3.379-1.185-3.558-3.779H143.3V75.281Zm-5.3-4.4c2.059,0,3.2,1.521,3.38,3.421h-6.8C134.863,72.017,136.183,70.877,138,70.877Zm12.847-1.543a4.033,4.033,0,0,0-3.715,2.214V69.513h-1.7V81.05h1.79V74.476c0-2.236,1.477-3.4,3.783-3.4h0.447V69.356C151.2,69.334,151.022,69.334,150.843,69.334Zm3.178-1.453a1.207,1.207,0,1,0-1.209-1.207A1.218,1.218,0,0,0,154.021,67.88Zm-0.895,13.17h1.79V69.513h-1.79V81.05Zm12.8,0.268c2.842,0,4.588-1.252,4.588-3.443,0-1.878-1.141-2.84-3.984-3.4l-1.03-.2c-1.477-.291-2.327-0.693-2.327-1.789,0-1.073.873-1.7,2.417-1.7,1.768,0,2.82.492,2.91,2.281h1.79c-0.045-2.46-1.611-3.824-4.7-3.824-2.641,0-4.208,1.3-4.208,3.265,0,1.789,1.1,2.929,3.6,3.4l1.074,0.2c2.014,0.38,2.641.85,2.641,1.878,0,1.14-.828,1.789-2.775,1.789-2.037,0-2.888-.648-3.089-2.392h-1.813C161.205,80.089,163,81.319,165.928,81.319Zm11.705-12.074A4.255,4.255,0,0,0,174.1,71.1V65.13h-1.791V81.05H174.1V74.521c0-2.549,1.679-3.667,3.178-3.667a2.315,2.315,0,0,1,2.641,2.571V81.05h1.791v-7.8C181.707,70.7,180.207,69.244,177.633,69.244Zm13.922,0.268v6.529c0,2.549-1.679,3.667-3.179,3.667a2.315,2.315,0,0,1-2.641-2.571V69.513h-1.79v7.8c0,2.549,1.5,4,4.073,4a4.255,4.255,0,0,0,3.626-1.99V81.05h1.7V69.513h-1.79Zm9.892-.179a4.033,4.033,0,0,0-3.715,2.214V69.513h-1.7V81.05h1.79V74.476c0-2.236,1.478-3.4,3.783-3.4h0.448V69.356C201.805,69.334,201.626,69.334,201.447,69.334Zm9.781,0.179v6.529c0,2.549-1.679,3.667-3.178,3.667a2.315,2.315,0,0,1-2.641-2.571V69.513h-1.791v7.8c0,2.549,1.5,4,4.073,4a4.255,4.255,0,0,0,3.626-1.99V81.05h1.7V69.513h-1.79ZM225.149,79.6a0.53,0.53,0,0,1-.627-0.559V72.6c0-1.945-1.141-3.354-4.342-3.354-3.379,0-4.566,1.588-4.7,3.824h1.791c0.112-1.722.94-2.281,2.909-2.281s2.6,0.6,2.6,1.811c0,1.029-.649,1.453-1.813,1.588l-1.657.179c-3.178.335-4.275,1.767-4.275,3.578,0,2.169,1.567,3.376,4.074,3.376a4.235,4.235,0,0,0,3.76-1.856,1.656,1.656,0,0,0,1.947,1.655,6.82,6.82,0,0,0,.985-0.067V79.6h-0.649Zm-5.954.2c-1.589,0-2.305-.76-2.305-1.9,0-1.118.582-1.834,2.686-2.079l1.679-.2a2.987,2.987,0,0,0,1.522-.492v1.364A3.316,3.316,0,0,1,219.2,79.8Zm17.726-.2a0.529,0.529,0,0,1-.626-0.559V72.6c0-1.945-1.142-3.354-4.342-3.354-3.38,0-4.566,1.588-4.7,3.824h1.79c0.112-1.722.94-2.281,2.91-2.281s2.6,0.6,2.6,1.811c0,1.029-.649,1.453-1.813,1.588l-1.656.179c-3.178.335-4.275,1.767-4.275,3.578,0,2.169,1.567,3.376,4.073,3.376a4.235,4.235,0,0,0,3.761-1.856,1.655,1.655,0,0,0,1.947,1.655,6.83,6.83,0,0,0,.985-0.067V79.6h-0.65Zm-5.953.2c-1.589,0-2.3-.76-2.3-1.9,0-1.118.582-1.834,2.685-2.079l1.679-.2a2.983,2.983,0,0,0,1.522-.492v1.364A3.316,3.316,0,0,1,230.968,79.8Zm12.78-8.72V69.513h-2.372V66.248h-1.791v3.265h-1.9v1.565h1.9v7.647c0,1.766,1.1,2.392,2.887,2.392q0.537,0,1.276-.067v-1.5H242.7c-1.03,0-1.32-.38-1.32-0.984V71.078h2.372Zm2.708,7.737a1.2,1.2,0,0,0-1.254,1.207,1.166,1.166,0,0,0,1.254,1.163h0.134a1.654,1.654,0,0,1-1.231,1.744l-0.157.045v1.185l0.224-.045c1.455-.291,2.507-1.275,2.507-3.4C247.933,79.485,247.374,78.814,246.456,78.814ZM45.488,96.076a4.256,4.256,0,0,0-3.626,1.99V96.344h-1.7v11.538h1.791v-6.529c0-2.549,1.679-3.667,3.178-3.667a2.315,2.315,0,0,1,2.641,2.571v7.625h1.791v-7.8C49.562,97.529,48.062,96.076,45.488,96.076Zm16.2,10.353a0.529,0.529,0,0,1-.627-0.559V99.43c0-1.945-1.142-3.354-4.342-3.354-3.38,0-4.566,1.588-4.7,3.824h1.791c0.112-1.722.94-2.281,2.91-2.281s2.6,0.6,2.6,1.811c0,1.029-.649,1.453-1.813,1.588l-1.656.178c-3.178.336-4.275,1.767-4.275,3.578,0,2.169,1.567,3.376,4.073,3.376a4.235,4.235,0,0,0,3.76-1.855,1.655,1.655,0,0,0,1.947,1.654,6.776,6.776,0,0,0,.985-0.067v-1.453H61.692Zm-5.954.2c-1.589,0-2.305-.76-2.305-1.9,0-1.118.582-1.833,2.686-2.079l1.679-.2a2.984,2.984,0,0,0,1.522-.492v1.364A3.316,3.316,0,0,1,55.739,106.63ZM70.667,96.344l-1.634,4.785c-0.582,1.677-1.141,3.354-1.656,5.009-0.537-1.655-1.074-3.309-1.656-4.986l-1.634-4.808h-1.97l4.342,11.918c-0.134.358-.269,0.738-0.4,1.074a2.024,2.024,0,0,1-2.1,1.431H62.9v1.5a9.09,9.09,0,0,0,1.074.067,3.49,3.49,0,0,0,3.76-2.639l4.879-13.349H70.667Zm12.8,5.769c0-3.309-1.858-6.037-5.3-6.037-3.2,0-5.327,2.415-5.327,6.037,0,3.734,2.216,6.037,5.372,6.037a4.816,4.816,0,0,0,4.969-3.778H81.321a2.966,2.966,0,0,1-3.066,2.146c-2.014,0-3.38-1.185-3.559-3.779h8.774v-0.626Zm-5.3-4.4c2.059,0,3.2,1.521,3.38,3.421h-6.8C75.031,98.849,76.352,97.708,78.165,97.708ZM96.92,108.24c4.633,0,7.633-3.376,7.633-8.318s-3-8.318-7.633-8.318-7.632,3.376-7.632,8.318S92.287,108.24,96.92,108.24Zm0-1.722c-3.424,0-5.663-2.549-5.663-6.6s2.238-6.6,5.663-6.6,5.663,2.549,5.663,6.6S100.345,106.518,96.92,106.518Zm15.421-10.442a4.54,4.54,0,0,0-3.961,2.057V96.344h-1.7v15.921h1.79v-6.037a4.54,4.54,0,0,0,3.872,1.922c3.246,0,5.372-2.347,5.372-6.037S115.587,96.076,112.341,96.076Zm-0.224,10.465c-2.238,0-3.715-1.633-3.715-4.428s1.477-4.427,3.715-4.427,3.716,1.543,3.716,4.338S114.356,106.541,112.117,106.541Zm12.109-8.631V96.344h-2.373V93.08h-1.79v3.265h-1.9V97.91h1.9v7.647c0,1.766,1.1,2.392,2.887,2.392q0.537,0,1.276-.067v-1.5h-1.052c-1.03,0-1.321-.38-1.321-0.984V97.91h2.373Zm2.8-3.2a1.207,1.207,0,1,0-1.208-1.208A1.217,1.217,0,0,0,127.023,94.712Zm-0.895,13.17h1.791V96.344h-1.791v11.538Zm12.22,0h2.082l-4.7-7.379,4.387-4.159h-2.373L132.4,101.51V91.962H130.6v15.92H132.4v-4.271l2.059-1.923Zm19.674-15.92h-12.78v1.7h5.416v14.221H152.6V93.661h5.417v-1.7Zm12.6,0L167,102.046c-0.493,1.364-.963,2.706-1.366,3.958-0.4-1.252-.873-2.594-1.365-3.958l-3.693-10.084h-1.992l6,15.92h2.1l5.909-15.92h-1.97Zm4.8-.442a2.074,2.074,0,1,0,2.136,2.073A2.088,2.088,0,0,0,175.422,91.52Zm0,3.734a1.666,1.666,0,1,1,1.7-1.662A1.656,1.656,0,0,1,175.422,95.255Zm0.832-1.242a0.439,0.439,0,0,0-.263-0.411,0.531,0.531,0,0,0,.324-0.525,0.654,0.654,0,0,0-.779-0.621h-0.945v2.222h0.385V93.785h0.6c0.219,0,.289.079,0.306,0.324l0.018,0.227a0.615,0.615,0,0,0,.087.341h0.394a0.631,0.631,0,0,1-.1-0.341Zm-0.683-.577h-0.595v-0.63h0.56a0.314,0.314,0,0,1,.385.315A0.3,0.3,0,0,1,175.571,93.436Zm15.676,14.447h2.082l-4.7-7.379,4.386-4.159h-2.372l-5.349,5.166V91.962H183.5v15.92h1.791v-4.271l2.059-1.923Zm12.825-5.769c0-3.309-1.858-6.037-5.3-6.037-3.2,0-5.327,2.415-5.327,6.037,0,3.734,2.216,6.037,5.371,6.037a4.816,4.816,0,0,0,4.969-3.778h-1.858a2.965,2.965,0,0,1-3.066,2.146c-2.014,0-3.379-1.185-3.559-3.779h8.774v-0.626Zm-5.3-4.4c2.059,0,3.2,1.521,3.379,3.421h-6.8C195.634,98.849,196.955,97.708,198.768,97.708Zm15.756,10.442c2.842,0,4.588-1.252,4.588-3.443,0-1.878-1.141-2.84-3.984-3.4l-1.029-.2c-1.477-.291-2.328-0.693-2.328-1.789,0-1.073.873-1.7,2.417-1.7,1.768,0,2.82.492,2.91,2.281h1.79c-0.044-2.46-1.611-3.824-4.7-3.824-2.641,0-4.208,1.3-4.208,3.265,0,1.788,1.1,2.929,3.6,3.4l1.074,0.2c2.015,0.38,2.641.849,2.641,1.878,0,1.14-.828,1.789-2.775,1.789-2.037,0-2.887-.649-3.089-2.393h-1.813C209.8,106.921,211.592,108.15,214.524,108.15Zm16.159-1.721a0.529,0.529,0,0,1-.626-0.559V99.43c0-1.945-1.142-3.354-4.342-3.354-3.38,0-4.566,1.588-4.7,3.824h1.79c0.112-1.722.94-2.281,2.91-2.281s2.6,0.6,2.6,1.811c0,1.029-.649,1.453-1.813,1.588l-1.656.178c-3.178.336-4.275,1.767-4.275,3.578,0,2.169,1.567,3.376,4.073,3.376A4.236,4.236,0,0,0,228.4,106.3a1.655,1.655,0,0,0,1.947,1.654,6.788,6.788,0,0,0,.985-0.067v-1.453h-0.65Zm-5.953.2c-1.589,0-2.3-.76-2.3-1.9,0-1.118.581-1.833,2.685-2.079l1.679-.2a2.985,2.985,0,0,0,1.522-.492v1.364A3.316,3.316,0,0,1,224.73,106.63Zm17.726-.2a0.529,0.529,0,0,1-.627-0.559V99.43c0-1.945-1.141-3.354-4.342-3.354-3.38,0-4.566,1.588-4.7,3.824h1.79c0.112-1.722.941-2.281,2.91-2.281s2.6,0.6,2.6,1.811c0,1.029-.649,1.453-1.813,1.588l-1.656.178c-3.178.336-4.275,1.767-4.275,3.578,0,2.169,1.567,3.376,4.074,3.376a4.236,4.236,0,0,0,3.76-1.855,1.655,1.655,0,0,0,1.947,1.654,6.778,6.778,0,0,0,.985-0.067v-1.453h-0.649Zm-5.954.2c-1.589,0-2.305-.76-2.305-1.9,0-1.118.582-1.833,2.686-2.079l1.678-.2a2.982,2.982,0,0,0,1.522-.492v1.364A3.316,3.316,0,0,1,236.5,106.63Zm12.78-8.72V96.344H246.91V93.08h-1.791v3.265h-1.9V97.91h1.9v7.647c0,1.766,1.1,2.392,2.888,2.392q0.537,0,1.275-.067v-1.5H248.23c-1.029,0-1.32-.38-1.32-0.984V97.91h2.372Zm7.229-1.834a4.256,4.256,0,0,0-3.536,1.856v-5.97h-1.79v15.92h1.79v-6.529c0-2.549,1.679-3.667,3.178-3.667a2.315,2.315,0,0,1,2.641,2.571v7.625h1.791v-7.8C260.585,97.529,259.085,96.076,256.511,96.076Zm7.767,11.963a1.285,1.285,0,0,0,1.275-1.32,1.31,1.31,0,0,0-2.618,0A1.287,1.287,0,0,0,264.278,108.039Z"/>
</svg>
