<svg id="hing" xmlns="http://www.w3.org/2000/svg" width="300" height="250" viewBox="0 0 300 250">
  <defs>
    <style>
      .cls-1 {
        fill: #452c6a;
        fill-rule: evenodd;
      }
    </style>
  </defs>
  <g id="fr2">
    <path id="fr2-3" class="cls-1" d="M97.984,167.677a0.473,0.473,0,0,1-.56-0.5v-5.759c0-1.74-1.02-3-3.879-3-3.019,0-4.079,1.42-4.2,3.42h1.6c0.1-1.54.84-2.04,2.6-2.04s2.32,0.54,2.32,1.62c0,0.919-.58,1.3-1.62,1.419l-1.48.16c-2.84.3-3.819,1.58-3.819,3.2,0,1.939,1.4,3.019,3.639,3.019a3.783,3.783,0,0,0,3.359-1.659,1.479,1.479,0,0,0,1.74,1.479,6.084,6.084,0,0,0,.88-0.06v-1.3h-0.58Zm-5.319.18c-1.42,0-2.06-.68-2.06-1.7,0-1,.52-1.64,2.4-1.86l1.5-.18a2.661,2.661,0,0,0,1.36-.44v1.22A2.964,2.964,0,0,1,92.665,167.857Zm14.1-9.2V164.5c0,2.28-1.5,3.28-2.839,3.28a2.07,2.07,0,0,1-2.36-2.3v-6.819h-1.6v6.979a3.289,3.289,0,0,0,3.64,3.579,3.8,3.8,0,0,0,3.239-1.779v1.539h1.52V158.658h-1.6Zm8.84-.16a3.6,3.6,0,0,0-3.319,1.98v-1.82h-1.52v10.318h1.6V163.1c0-2,1.32-3.039,3.379-3.039h0.4v-1.54C115.924,158.5,115.764,158.5,115.6,158.5Zm11.1-.08a4.054,4.054,0,0,0-3.539,1.84v-1.6h-1.52V172.9h1.6v-5.4a4.052,4.052,0,0,0,3.459,1.719c2.9,0,4.8-2.1,4.8-5.4S129.6,158.418,126.7,158.418Zm-0.2,9.359c-2,0-3.319-1.46-3.319-3.96s1.319-3.959,3.319-3.959,3.319,1.38,3.319,3.879S128.5,167.777,126.5,167.777Zm15.139-.1a0.473,0.473,0,0,1-.559-0.5v-5.759c0-1.74-1.02-3-3.88-3-3.019,0-4.079,1.42-4.2,3.42h1.6c0.1-1.54.839-2.04,2.6-2.04s2.32,0.54,2.32,1.62c0,0.919-.58,1.3-1.62,1.419l-1.48.16c-2.839.3-3.819,1.58-3.819,3.2,0,1.939,1.4,3.019,3.639,3.019a3.784,3.784,0,0,0,3.36-1.659,1.479,1.479,0,0,0,1.739,1.479,6.086,6.086,0,0,0,.88-0.06v-1.3h-0.58Zm-5.319.18c-1.419,0-2.059-.68-2.059-1.7,0-1,.52-1.64,2.4-1.86l1.5-.18a2.662,2.662,0,0,0,1.36-.44v1.22A2.964,2.964,0,0,1,136.324,167.857Zm15.839-.18a0.473,0.473,0,0,1-.56-0.5v-5.759c0-1.74-1.02-3-3.879-3-3.02,0-4.079,1.42-4.2,3.42h1.6c0.1-1.54.84-2.04,2.6-2.04s2.32,0.54,2.32,1.62c0,0.919-.58,1.3-1.62,1.419l-1.48.16c-2.839.3-3.819,1.58-3.819,3.2,0,1.939,1.4,3.019,3.639,3.019a3.784,3.784,0,0,0,3.36-1.659,1.478,1.478,0,0,0,1.739,1.479,6.086,6.086,0,0,0,.88-0.06v-1.3h-0.58Zm-5.319.18c-1.42,0-2.06-.68-2.06-1.7,0-1,.52-1.64,2.4-1.86l1.5-.18a2.662,2.662,0,0,0,1.36-.44v1.22A2.964,2.964,0,0,1,146.844,167.857Zm13.34-9.2-1.46,4.279c-0.52,1.5-1.02,3-1.48,4.48-0.48-1.48-.96-2.96-1.48-4.46l-1.459-4.3h-1.76l3.879,10.658c-0.12.32-.24,0.66-0.36,0.96a1.807,1.807,0,0,1-1.879,1.28h-0.94v1.34a7.979,7.979,0,0,0,.96.06,3.118,3.118,0,0,0,3.359-2.36l4.359-11.938h-1.739Zm11.439,5.159c0-2.959-1.66-5.4-4.739-5.4-2.86,0-4.759,2.16-4.759,5.4,0,3.34,1.979,5.4,4.8,5.4a4.3,4.3,0,0,0,4.439-3.379H169.7a2.651,2.651,0,0,1-2.739,1.92c-1.8,0-3.02-1.06-3.18-3.38h7.839v-0.56Zm-4.739-3.939a3.026,3.026,0,0,1,3.019,3.059h-6.079C164.084,160.9,165.264,159.878,166.884,159.878Zm7.44-2.68a1.08,1.08,0,1,0-1.08-1.08A1.088,1.088,0,0,0,174.324,157.2Zm-0.8,11.778h1.6V158.658h-1.6v10.318Zm8.76-10.558a3.8,3.8,0,0,0-3.24,1.78v-1.54h-1.52v10.318h1.6v-5.839c0-2.279,1.5-3.279,2.84-3.279a2.069,2.069,0,0,1,2.359,2.3v6.819h1.6V162A3.29,3.29,0,0,0,182.284,158.418Zm18.838,5.4c0-2.959-1.659-5.4-4.739-5.4-2.859,0-4.759,2.16-4.759,5.4,0,3.34,1.98,5.4,4.8,5.4a4.3,4.3,0,0,0,4.439-3.379H199.2a2.651,2.651,0,0,1-2.74,1.92c-1.8,0-3.019-1.06-3.179-3.38h7.838v-0.56Zm-4.739-3.939a3.026,3.026,0,0,1,3.02,3.059h-6.079C193.584,160.9,194.763,159.878,196.383,159.878Zm13.56,9.1H211.8l-4.2-6.6,3.919-3.719H209.4l-4.779,4.619v-8.538h-1.6v14.237h1.6v-3.819l1.839-1.72ZM81.184,181.158v-2.419H71.126v14.237h2.7v-6.139h6.7v-2.319h-6.7v-3.36h7.359ZM91.4,192.976h3.079L90.7,187.317a4.119,4.119,0,0,0,3.319-4.2c0-2.6-1.84-4.379-5.039-4.379H82.646v14.237h2.7v-5.339h2.54Zm-6.059-12.018h3.5a2.259,2.259,0,1,1,0,4.5h-3.5v-4.5Zm20.979,0.2v-2.419h-10.5v14.237h10.458v-2.419H98.525v-3.72h7.059v-2.319H98.525v-3.36h7.8Zm12.16,0v-2.419h-10.5v14.237h10.459v-2.419h-7.759v-3.72h7.059v-2.319h-7.059v-3.36h7.8Zm11.22,3.42v-1.92h-2.04v-3h-2.5v3h-1.6v1.92h1.6v5.839c0,1.9,1.04,2.639,3.219,2.639,0.4,0,.86-0.04,1.32-0.08v-1.919h-0.86c-0.84,0-1.18-.22-1.18-0.9v-5.579h2.04Zm7.14-2.16a3.783,3.783,0,0,0-3.14,1.62v-5.3h-2.519v14.237H133.7V187.2a2.323,2.323,0,0,1,2.3-2.6,1.723,1.723,0,0,1,1.94,1.959v6.419h2.519v-6.839A3.361,3.361,0,0,0,136.844,182.418Zm15.4,5.579c0-3.279-1.94-5.579-5.1-5.579-3.06,0-5.1,2.16-5.1,5.4,0,3.3,2.1,5.4,5.139,5.4a4.607,4.607,0,0,0,4.8-3.439h-2.42a2.35,2.35,0,0,1-2.359,1.48c-1.46,0-2.5-.82-2.68-2.66h7.719V188Zm-5.119-3.619a2.551,2.551,0,0,1,2.6,2.459h-5.179A2.493,2.493,0,0,1,147.124,184.378Zm18.518-1.96a3.728,3.728,0,0,0-3.2,1.92,3.264,3.264,0,0,0-3.2-1.92,3.356,3.356,0,0,0-2.94,1.72v-1.48h-2.44v10.318h2.52V187.3c0-1.939,1.06-2.7,2.12-2.7a1.659,1.659,0,0,1,1.8,1.959v6.419h2.5V187.3c0-1.939,1.04-2.7,2.14-2.7,1.2,0,1.779.64,1.779,1.959v6.419h2.52v-6.819C169.242,183.878,167.942,182.418,165.642,182.418ZM181.023,188c0-3.279-1.94-5.579-5.1-5.579-3.059,0-5.1,2.16-5.1,5.4,0,3.3,2.1,5.4,5.139,5.4a4.607,4.607,0,0,0,4.8-3.439h-2.42a2.351,2.351,0,0,1-2.36,1.48c-1.459,0-2.5-.82-2.679-2.66h7.719V188Zm-5.12-3.619a2.552,2.552,0,0,1,2.6,2.459h-5.179A2.492,2.492,0,0,1,175.9,184.378Zm16.78-1.96a3.721,3.721,0,0,0-3.3,1.72v-1.48h-2.419V196.9h2.519v-5.259a3.692,3.692,0,0,0,3.2,1.579c2.839,0,4.619-2.119,4.619-5.4S195.522,182.418,192.683,182.418Zm-0.6,8.719c-1.64,0-2.66-1.14-2.66-3.32s1.02-3.319,2.66-3.319,2.659,1.06,2.659,3.239S193.723,191.137,192.083,191.137Zm15.959,1.839a3.9,3.9,0,0,1-.42-1.959v-5.5c0-1.86-1.22-3.1-4.3-3.1-3.219,0-4.5,1.34-4.639,3.52h2.479c0.1-1.26.7-1.64,2.14-1.64,1.46,0,1.88.48,1.88,1.28,0,0.759-.5,1.059-1.46,1.179l-1.56.14c-2.919.28-3.959,1.5-3.959,3.22,0,2,1.52,3.1,3.719,3.1a3.836,3.836,0,0,0,3.32-1.5,3.359,3.359,0,0,0,.28,1.259h2.519Zm-5.519-1.559c-1.16,0-1.74-.54-1.74-1.4,0-.82.46-1.32,1.86-1.48l1.36-.16a2.006,2.006,0,0,0,1.18-.42v0.94A2.422,2.422,0,0,1,202.523,191.417Zm11.56,1.8a4.518,4.518,0,0,0,4.839-4.079H216.4a2.19,2.19,0,0,1-2.319,1.98c-1.46,0-2.52-1.04-2.52-3.3s1.02-3.3,2.52-3.3a2.151,2.151,0,0,1,2.279,1.859h2.52c-0.3-2.419-2.1-3.959-4.8-3.959-3.08,0-5.1,2.1-5.1,5.4S211.023,193.216,214.083,193.216Zm13.259-.24h2.88l-4.139-6.419,3.9-3.9h-3l-4.2,4.279v-8.2H220.3v14.237h2.479v-3.239l1.56-1.56Z"/>
  </g>
</svg>
