<svg id="hing" xmlns="http://www.w3.org/2000/svg" width="300" height="250" viewBox="0 0 300 250">
  <defs>
    <style>
      .cls-1 {
        fill: #452c6a;
        fill-rule: evenodd;
      }
    </style>
  </defs>
  <g id="fr2">
    <path id="fr2-2" class="cls-1" d="M91.532,125.915h-5.72v-5.758H81.922v5.758H76.169v3.594h5.753v5.725h3.891v-5.725h5.72v-3.594Zm14.695,9.618v-19.67h-4.489v23.7H117.5v-4.028H106.227Zm15.594-15.21a2.313,2.313,0,1,0-2.328-2.3A2.3,2.3,0,0,0,121.821,120.323Zm-2.095,19.238h4.19V122.386h-4.19v17.175Zm19.021-17.175-1.663,4.594c-0.9,2.862-1.829,5.891-2.694,8.786-0.864-2.862-1.795-5.924-2.693-8.753l-1.663-4.627h-4.489l6.351,17.175h4.822l6.385-17.175h-4.356Zm21.48,8.887c0-5.458-3.226-9.286-8.48-9.286-5.087,0-8.479,3.595-8.479,8.987,0,5.491,3.491,8.986,8.546,8.986,4.123,0,7.116-2.23,7.981-5.725h-4.024a3.91,3.91,0,0,1-3.924,2.463c-2.427,0-4.157-1.364-4.456-4.426h12.836v-1Zm-8.513-6.024c2.494,0,3.99,1.664,4.323,4.094h-8.613C147.823,126.514,149.486,125.249,151.714,125.249Zm36.908-9.386H168.936v4.027h7.582v19.671h4.522V119.89h7.582v-4.027Zm18.454,0-4.19,12.248c-0.765,2.33-1.563,4.86-2.228,7.389-0.7-2.529-1.5-5.059-2.261-7.389l-4.29-12.248h-4.789l8.68,23.7h5.254l8.479-23.7h-4.655Z"/>
  </g>
</svg>
