<svg id="hing" xmlns="http://www.w3.org/2000/svg" width="300" height="250" viewBox="0 0 300 250">
  <defs>
    <style>
      .cls-1 {
        fill: #452c6a;
        fill-rule: evenodd;
      }
    </style>
  </defs>
  <g id="fr3">
    <path id="fr3-2" data-name="fr3" class="cls-1" d="M27.2,71.767c2.822,0,4.406-1.37,4.406-3.449,0-1.7-.957-2.756-3.663-3.35l-1.04-.231c-2.211-.495-2.756-1.056-2.756-2.178,0-1.106.875-1.815,2.574-1.815,2.343,0,3.053.908,3.168,2.426h1.419c-0.05-1.914-1.122-3.68-4.588-3.68-2.442,0-4.01,1.188-4.01,3.069,0,2.145,1.568,2.954,3.564,3.4l1.04,0.231c2.079,0.462,2.855,1.007,2.855,2.129,0,1.452-1.089,2.195-2.97,2.195-1.914,0-3.416-.71-3.449-2.888H22.319C22.352,70.562,24.4,71.767,27.2,71.767Zm6.467-9.984a0.891,0.891,0,1,0-.891-0.891A0.9,0.9,0,0,0,33.671,61.783Zm-0.66,9.72h1.32V62.988h-1.32V71.5Zm9.769-8.515v1.238a3.436,3.436,0,0,0-2.921-1.436c-2.393,0-3.961,1.733-3.961,4.456S37.466,71.7,39.859,71.7a3.441,3.441,0,0,0,2.855-1.353v0.825a2.356,2.356,0,0,1-2.64,2.64c-1.337,0-2.145-.544-2.31-1.617h-1.32c0.182,1.65,1.452,2.739,3.631,2.739,2.69,0,3.961-1.551,3.961-3.763V62.988H42.78Zm-2.756,7.525c-1.65,0-2.739-1.271-2.739-3.267s1.089-3.268,2.739-3.268,2.739,1.2,2.739,3.268S41.674,70.513,40.024,70.513ZM49.94,62.79a3.137,3.137,0,0,0-2.673,1.469V62.988H46.013V71.5h1.32V66.684a2.424,2.424,0,0,1,2.343-2.706,1.708,1.708,0,0,1,1.947,1.9V71.5h1.32V65.744A2.715,2.715,0,0,0,49.94,62.79Zm13.728,0.2v4.819a2.424,2.424,0,0,1-2.343,2.706,1.708,1.708,0,0,1-1.947-1.9V62.988h-1.32v5.759a2.715,2.715,0,0,0,3,2.954,3.137,3.137,0,0,0,2.673-1.469V71.5h1.254V62.988h-1.32Zm7.474-.2a3.347,3.347,0,0,0-2.921,1.518v-1.32H66.967v11.75h1.32V70.282A3.345,3.345,0,0,0,71.143,71.7c2.393,0,3.96-1.733,3.96-4.456S73.535,62.79,71.143,62.79Zm-0.165,7.723c-1.65,0-2.739-1.2-2.739-3.267s1.089-3.268,2.739-3.268,2.739,1.139,2.739,3.2S72.628,70.513,70.977,70.513ZM85.514,71.5h1.535l-3.465-5.446,3.234-3.069H85.068L81.124,66.8V59.753H79.8V71.5h1.32V68.351l1.518-1.419Zm9.158-1.073a0.39,0.39,0,0,1-.462-0.413V65.265c0-1.436-.842-2.475-3.2-2.475-2.492,0-3.367,1.172-3.466,2.822h1.32c0.083-1.271.693-1.683,2.145-1.683s1.914,0.446,1.914,1.337c0,0.759-.479,1.073-1.337,1.172l-1.221.132c-2.343.248-3.152,1.3-3.152,2.64,0,1.6,1.155,2.492,3,2.492a3.121,3.121,0,0,0,2.772-1.37,1.221,1.221,0,0,0,1.436,1.221A5.021,5.021,0,0,0,95.15,71.5V70.43H94.672Zm-4.39.148c-1.172,0-1.7-.561-1.7-1.4,0-.825.429-1.353,1.98-1.535l1.238-.148a2.2,2.2,0,0,0,1.122-.363v1.007A2.446,2.446,0,0,1,90.282,70.579ZM100.3,62.856a2.974,2.974,0,0,0-2.74,1.634v-1.5H96.3V71.5h1.32V66.651c0-1.65,1.089-2.508,2.789-2.508h0.33V62.872C100.562,62.856,100.43,62.856,100.3,62.856Zm8.613,4.39c0-2.442-1.37-4.456-3.911-4.456-2.36,0-3.928,1.782-3.928,4.456,0,2.756,1.634,4.456,3.961,4.456a3.553,3.553,0,0,0,3.664-2.789h-1.37a2.187,2.187,0,0,1-2.261,1.584c-1.485,0-2.492-.875-2.624-2.789h6.469V67.245ZM105,63.994a2.5,2.5,0,0,1,2.492,2.525h-5.017C102.69,64.836,103.663,63.994,105,63.994Zm6.138-2.211a0.891,0.891,0,1,0-.892-0.891A0.9,0.9,0,0,0,111.138,61.783Zm-0.661,9.72H111.8V62.988h-1.321V71.5Zm7.228-8.713a3.136,3.136,0,0,0-2.673,1.469V62.988h-1.255V71.5H115.1V66.684a2.424,2.424,0,0,1,2.343-2.706,1.708,1.708,0,0,1,1.947,1.9V71.5h1.32V65.744A2.714,2.714,0,0,0,117.705,62.79Zm12.639,0a3.137,3.137,0,0,0-2.657,1.419V62.988h-2.013V71.5h2.079V66.734a1.917,1.917,0,0,1,1.9-2.145,1.422,1.422,0,0,1,1.6,1.617v5.3h2.08V65.859A2.774,2.774,0,0,0,130.344,62.79ZM142.67,71.5a3.224,3.224,0,0,1-.347-1.617V65.348c0-1.535-1.007-2.558-3.548-2.558-2.657,0-3.713,1.106-3.829,2.9h2.047c0.082-1.04.577-1.353,1.766-1.353,1.2,0,1.551.4,1.551,1.056,0,0.627-.413.875-1.205,0.974l-1.287.115c-2.409.231-3.268,1.238-3.268,2.657,0,1.65,1.255,2.558,3.07,2.558a3.163,3.163,0,0,0,2.739-1.238,2.772,2.772,0,0,0,.231,1.04h2.08Zm-4.555-1.287a1.189,1.189,0,0,1-1.436-1.155c0-.677.38-1.089,1.535-1.221l1.122-.132a1.657,1.657,0,0,0,.974-0.347v0.776A2,2,0,0,1,138.115,70.216Zm10.94-7.228-0.693,2.145c-0.462,1.5-.925,3.053-1.37,4.736-0.429-1.667-.891-3.267-1.353-4.753l-0.693-2.129H142.7l2.476,7a5.714,5.714,0,0,1,.4,1.716,1.272,1.272,0,0,1-1.4,1.37h-0.792V74.7a6.78,6.78,0,0,0,.907.05c2.063,0,2.987-.66,3.664-2.558l3.284-9.208h-2.178Zm10.659,4.406c0-2.706-1.6-4.6-4.208-4.6-2.525,0-4.208,1.782-4.208,4.456a4.105,4.105,0,0,0,4.241,4.456,3.8,3.8,0,0,0,3.961-2.838h-2a1.941,1.941,0,0,1-1.948,1.221,2.111,2.111,0,0,1-2.211-2.195h6.37v-0.5Zm-4.225-2.987a2.106,2.106,0,0,1,2.146,2.03h-4.274A2.057,2.057,0,0,1,155.489,64.407Zm14.619,7.36c3.515,0,5.859-2.442,5.859-6.139s-2.344-6.139-5.859-6.139c-3.531,0-5.874,2.442-5.874,6.139S166.577,71.767,170.108,71.767Zm0-1.964c-2.145,0-3.548-1.584-3.548-4.175s1.4-4.175,3.548-4.175,3.548,1.584,3.548,4.175S172.254,69.8,170.108,69.8Zm11.9-7.014a3.069,3.069,0,0,0-2.723,1.419V62.988h-2v11.75h2.079V70.4a3.046,3.046,0,0,0,2.641,1.3c2.343,0,3.812-1.749,3.812-4.456S184.348,62.79,182.005,62.79Zm-0.5,7.2c-1.354,0-2.195-.941-2.195-2.739s0.841-2.739,2.195-2.739,2.194,0.875,2.194,2.673S182.863,69.985,181.51,69.985Zm9.619-5.413V62.988h-1.683V60.512h-2.063v2.475h-1.32v1.584h1.32v4.819c0,1.568.858,2.178,2.657,2.178,0.33,0,.71-0.033,1.089-0.066V69.919H190.42c-0.694,0-.974-0.181-0.974-0.743v-4.6h1.683Zm2.26-2.607a1.147,1.147,0,1,0-1.155-1.139A1.141,1.141,0,0,0,193.389,61.965Zm-1.04,9.538h2.08V62.988h-2.08V71.5Zm9.571,0H204.3l-3.416-5.3,3.218-3.218h-2.475l-3.465,3.532V59.753h-2.047V71.5h2.047V68.83l1.287-1.287Zm16.022-11.75h-9.77v2h3.763V71.5h2.244V61.75h3.763v-2Zm9.157,0-2.079,6.073c-0.38,1.155-.776,2.409-1.106,3.663-0.346-1.254-.742-2.508-1.122-3.663l-2.129-6.073h-2.376l4.307,11.75H225.2l4.208-11.75H227.1ZM239.341,71.5h1.535l-3.465-5.446,3.234-3.069H238.9L234.952,66.8V59.753h-1.32V71.5h1.32V68.351l1.518-1.419Zm9.455-4.258c0-2.442-1.369-4.456-3.911-4.456-2.36,0-3.927,1.782-3.927,4.456,0,2.756,1.633,4.456,3.96,4.456a3.553,3.553,0,0,0,3.664-2.789h-1.37a2.187,2.187,0,0,1-2.261,1.584c-1.485,0-2.492-.875-2.624-2.789H248.8V67.245Zm-3.911-3.251a2.5,2.5,0,0,1,2.492,2.525H242.36C242.575,64.836,243.549,63.994,244.885,63.994Zm10.527,7.558a8.37,8.37,0,0,0,.841-0.049V70.4h-0.627a0.661,0.661,0,0,1-.808-0.726V59.753H253.5V69.787C253.5,71.09,254.224,71.553,255.412,71.553Zm2.656-9.769a0.891,0.891,0,1,0-.891-0.891A0.9,0.9,0,0,0,258.068,61.783Zm-0.66,9.72h1.32V62.988h-1.32V71.5Zm8.614-8.515-1.2,3.532c-0.429,1.238-.841,2.475-1.221,3.7-0.4-1.221-.792-2.442-1.221-3.68l-1.2-3.548h-1.452l3.2,8.8c-0.1.264-.2,0.545-0.3,0.792a1.491,1.491,0,0,1-1.551,1.056H260.3v1.106a6.576,6.576,0,0,0,.792.05,2.573,2.573,0,0,0,2.772-1.947l3.6-9.852h-1.436Zm9.438,4.258c0-2.442-1.37-4.456-3.911-4.456-2.36,0-3.928,1.782-3.928,4.456,0,2.756,1.634,4.456,3.961,4.456a3.551,3.551,0,0,0,3.663-2.789h-1.369a2.187,2.187,0,0,1-2.261,1.584c-1.485,0-2.492-.875-2.624-2.789h6.469V67.245Zm-3.911-3.251a2.5,2.5,0,0,1,2.492,2.525h-5.017C269.239,64.836,270.212,63.994,271.549,63.994Zm5.56,7.624a0.948,0.948,0,0,0,.941-0.974,0.966,0.966,0,0,0-1.931,0A0.95,0.95,0,0,0,277.109,71.619Z"/>
  </g>
</svg>
