<svg id="Frame_3" data-name="Frame 3" xmlns="http://www.w3.org/2000/svg" width="600" height="500" viewBox="0 0 600 500">
  <defs>
    <style>
      .cls-1 {
        fill: #4b286d;
        fill-rule: evenodd;
      }
    </style>
  </defs>
  <path id="Apne_ghar_ko_banayein_aur_bhi_energy_efficient_" data-name="Apne ghar ko banayein  aur bhi energy efficient " class="cls-1" d="M124.411,97.2h3.561L116.449,68.716h-3.76L101.326,97.2h3.521l3.281-8.282H121.09ZM109.328,85.88l0.12-.32c1.24-3.121,3.441-8.8,5.081-13.2,1.72,4.4,3.961,10.082,5.2,13.163l0.16,0.36H109.328Zm31.961-9.8a8.115,8.115,0,0,0-7.082,3.681v-3.2h-3.041v28.486h3.2v-10.8a8.109,8.109,0,0,0,6.922,3.441c5.8,0,9.6-4.2,9.6-10.8S147.09,76.078,141.289,76.078Zm-0.4,18.724c-4,0-6.642-2.921-6.642-7.922s2.641-7.922,6.642-7.922,6.641,2.761,6.641,7.762S144.889,94.8,140.889,94.8Zm23.519-18.724a7.605,7.605,0,0,0-6.481,3.561V76.558h-3.041V97.2h3.2V85.52c0-4.561,3-6.561,5.681-6.561,2.961,0,4.721,1.4,4.721,4.6V97.2h3.2V83.239C171.69,78.678,169.009,76.078,164.408,76.078Zm30.282,10.8c0-5.921-3.321-10.8-9.482-10.8-5.721,0-9.522,4.321-9.522,10.8,0,6.681,3.961,10.8,9.6,10.8a8.612,8.612,0,0,0,8.882-6.761h-3.321a5.3,5.3,0,0,1-5.481,3.841c-3.6,0-6.041-2.12-6.361-6.761H194.69V86.88ZM185.208,79c3.681,0,5.721,2.721,6.041,6.121H179.087C179.607,81.039,181.967,79,185.208,79Zm36.961-2.44v3a8.332,8.332,0,0,0-7.082-3.481c-5.8,0-9.6,4.2-9.6,10.8s3.8,10.8,9.6,10.8a8.342,8.342,0,0,0,6.922-3.281v2c0,4.281-2.281,6.4-6.4,6.4-3.24,0-5.2-1.32-5.6-3.92h-3.2c0.44,4,3.52,6.641,8.8,6.641,6.522,0,9.6-3.761,9.6-9.122V76.558h-3.041ZM215.487,94.8c-4,0-6.641-3.081-6.641-7.922s2.641-7.922,6.641-7.922,6.642,2.921,6.642,7.922S219.488,94.8,215.487,94.8Zm24.24-18.724a7.605,7.605,0,0,0-6.321,3.321V68.716h-3.2V97.2h3.2V85.52c0-4.561,3-6.561,5.681-6.561,2.961,0,4.721,1.4,4.721,4.6V97.2h3.2V83.239C247.009,78.678,244.328,76.078,239.727,76.078ZM268.889,94.6a0.946,0.946,0,0,1-1.12-1V82.079c0-3.481-2.041-6-7.762-6-6.041,0-8.162,2.841-8.4,6.841h3.2c0.2-3.081,1.68-4.081,5.2-4.081s4.641,1.08,4.641,3.241c0,1.84-1.16,2.6-3.241,2.841l-2.96.32c-5.682.6-7.642,3.161-7.642,6.4,0,3.881,2.8,6.041,7.281,6.041a7.567,7.567,0,0,0,6.722-3.321c0.16,1.96,1.2,2.961,3.481,2.961a12.171,12.171,0,0,0,1.76-.12V94.6h-1.16Zm-10.643.36c-2.84,0-4.12-1.36-4.12-3.4,0-2,1.04-3.281,4.8-3.721l3-.36a5.325,5.325,0,0,0,2.721-.88v2.441C264.648,93.121,261.327,94.962,258.246,94.962Zm24.481-18.724a7.208,7.208,0,0,0-6.641,3.961V76.558h-3.041V97.2h3.2V85.44c0-4,2.64-6.081,6.761-6.081h0.8V76.278C283.367,76.238,283.047,76.238,282.727,76.238ZM309.047,97.2h3.721l-8.4-13.2,7.842-7.442h-4.241L298.4,85.8V68.716h-3.2V97.2h3.2V89.561l3.681-3.441Zm15.519,0.48c5.8,0,10-4.2,10-10.8s-4.2-10.8-10-10.8-10,4.2-10,10.8S318.765,97.682,324.566,97.682Zm0-2.881c-4,0-6.642-2.921-6.642-7.922s2.641-7.922,6.642-7.922,6.641,2.921,6.641,7.922S328.567,94.8,324.566,94.8Zm31.919-18.724a8.109,8.109,0,0,0-6.921,3.441v-10.8h-3.2V97.2H349.4V94a8.114,8.114,0,0,0,7.081,3.681c5.8,0,9.6-4.2,9.6-10.8S362.287,76.078,356.485,76.078Zm-0.4,18.724c-4,0-6.641-2.921-6.641-7.922s2.64-7.922,6.641-7.922,6.642,2.761,6.642,7.762S360.086,94.8,356.085,94.8Zm30.882-.2a0.947,0.947,0,0,1-1.121-1V82.079c0-3.481-2.04-6-7.761-6-6.042,0-8.162,2.841-8.4,6.841h3.2c0.2-3.081,1.68-4.081,5.2-4.081s4.641,1.08,4.641,3.241c0,1.84-1.161,2.6-3.241,2.841l-2.961.32c-5.681.6-7.641,3.161-7.641,6.4,0,3.881,2.8,6.041,7.281,6.041a7.568,7.568,0,0,0,6.722-3.321c0.16,1.96,1.2,2.961,3.481,2.961a12.171,12.171,0,0,0,1.76-.12V94.6h-1.16Zm-10.643.36c-2.84,0-4.121-1.36-4.121-3.4,0-2,1.041-3.281,4.8-3.721l3-.36a5.328,5.328,0,0,0,2.721-.88v2.441C382.726,93.121,379.405,94.962,376.324,94.962Zm24.321-18.884a7.6,7.6,0,0,0-6.481,3.561V76.558h-3.041V97.2h3.2V85.52c0-4.561,3-6.561,5.681-6.561,2.96,0,4.721,1.4,4.721,4.6V97.2h3.2V83.239C407.926,78.678,405.246,76.078,400.645,76.078ZM429.806,94.6a0.946,0.946,0,0,1-1.12-1V82.079c0-3.481-2.04-6-7.762-6-6.041,0-8.161,2.841-8.4,6.841h3.2c0.2-3.081,1.681-4.081,5.2-4.081s4.641,1.08,4.641,3.241c0,1.84-1.16,2.6-3.24,2.841l-2.961.32c-5.681.6-7.642,3.161-7.642,6.4,0,3.881,2.8,6.041,7.282,6.041a7.565,7.565,0,0,0,6.721-3.321c0.16,1.96,1.2,2.961,3.481,2.961a12.171,12.171,0,0,0,1.76-.12V94.6h-1.16Zm-10.642.36c-2.841,0-4.121-1.36-4.121-3.4,0-2,1.04-3.281,4.8-3.721l3-.36a5.324,5.324,0,0,0,2.72-.88v2.441C425.565,93.121,422.245,94.962,419.164,94.962Zm27.881-18.4-2.92,8.562c-1.041,3-2.041,6-2.961,8.962-0.96-2.961-1.92-5.921-2.961-8.922l-2.92-8.6h-3.521l7.762,21.325c-0.24.64-.48,1.32-0.721,1.92a3.616,3.616,0,0,1-3.76,2.56h-1.881v2.681a15.974,15.974,0,0,0,1.921.12c3.28,0,5.4-1.08,6.721-4.721l8.722-23.885h-3.481ZM471.326,86.88c0-5.921-3.321-10.8-9.482-10.8-5.721,0-9.522,4.321-9.522,10.8,0,6.681,3.961,10.8,9.6,10.8a8.612,8.612,0,0,0,8.882-6.761h-3.321A5.3,5.3,0,0,1,462,94.762c-3.6,0-6.041-2.12-6.362-6.761h15.684V86.88ZM461.844,79c3.681,0,5.721,2.721,6.041,6.121H455.722C456.243,81.039,458.6,79,461.844,79Zm15.078-5.361a2.16,2.16,0,1,0-2.16-2.16A2.177,2.177,0,0,0,476.922,73.637Zm-1.6,23.565h3.2V76.558h-3.2V97.2Zm17.722-21.124a7.607,7.607,0,0,0-6.482,3.561V76.558h-3.04V97.2h3.2V85.52c0-4.561,3-6.561,5.682-6.561,2.96,0,4.721,1.4,4.721,4.6V97.2h3.2V83.239C500.325,78.678,497.645,76.078,493.044,76.078ZM121.691,142.6a0.947,0.947,0,0,1-1.121-1V130.079c0-3.481-2.04-6-7.761-6-6.042,0-8.162,2.84-8.4,6.841h3.2c0.2-3.08,1.68-4.081,5.2-4.081s4.641,1.081,4.641,3.241c0,1.84-1.161,2.6-3.241,2.841l-2.961.32c-5.681.6-7.641,3.16-7.641,6.4,0,3.881,2.8,6.041,7.281,6.041a7.569,7.569,0,0,0,6.722-3.32c0.16,1.96,1.2,2.96,3.48,2.96a12.175,12.175,0,0,0,1.761-.12v-2.6h-1.16Zm-10.643.36c-2.84,0-4.121-1.36-4.121-3.4,0-2,1.041-3.281,4.8-3.721l3-.36a5.329,5.329,0,0,0,2.721-.88v2.441C117.45,141.121,114.129,142.962,111.048,142.962Zm28.4-18.4V136.24c0,4.561-3,6.562-5.681,6.562-2.961,0-4.721-1.4-4.721-4.6V124.558h-3.2v13.963c0,4.561,2.68,7.161,7.281,7.161a7.607,7.607,0,0,0,6.482-3.56v3.08h3.04V124.558h-3.2Zm17.879-.32a7.209,7.209,0,0,0-6.642,3.961v-3.641h-3.04V145.2h3.2V133.44c0-4,2.641-6.082,6.762-6.082h0.8v-3.08C157.969,124.238,157.649,124.238,157.329,124.238Zm22.6-.16a8.111,8.111,0,0,0-6.922,3.44v-10.8h-3.2V145.2h3.04V142a8.117,8.117,0,0,0,7.082,3.68c5.8,0,9.6-4.2,9.6-10.8S185.729,124.078,179.928,124.078Zm-0.4,18.724c-4,0-6.642-2.921-6.642-7.922s2.641-7.922,6.642-7.922,6.641,2.761,6.641,7.762S183.529,142.8,179.528,142.8Zm23.52-18.724a7.606,7.606,0,0,0-6.322,3.32V116.716h-3.2V145.2h3.2V133.52c0-4.561,3-6.562,5.681-6.562,2.961,0,4.721,1.4,4.721,4.6V145.2h3.2V131.239C210.329,126.678,207.649,124.078,203.048,124.078Zm13.878-2.441a2.161,2.161,0,1,0-2.161-2.16A2.177,2.177,0,0,0,216.926,121.637Zm-1.6,23.565h3.2V124.558h-3.2V145.2Zm34-10.322c0-5.921-3.32-10.8-9.482-10.8-5.721,0-9.522,4.321-9.522,10.8,0,6.681,3.961,10.8,9.6,10.8a8.612,8.612,0,0,0,8.882-6.761h-3.32a5.305,5.305,0,0,1-5.482,3.841c-3.6,0-6.041-2.121-6.361-6.762h15.683v-1.12ZM239.846,127c3.681,0,5.722,2.721,6.042,6.122H233.725C234.245,129.039,236.606,127,239.846,127Zm23-2.92a7.6,7.6,0,0,0-6.482,3.561v-3.081h-3.04V145.2h3.2V133.52c0-4.561,3-6.562,5.681-6.562,2.961,0,4.721,1.4,4.721,4.6V145.2h3.2V131.239C270.128,126.678,267.448,124.078,262.847,124.078Zm30.281,10.8c0-5.921-3.321-10.8-9.482-10.8-5.721,0-9.522,4.321-9.522,10.8,0,6.681,3.961,10.8,9.6,10.8a8.612,8.612,0,0,0,8.882-6.761h-3.321a5.3,5.3,0,0,1-5.481,3.841c-3.6,0-6.041-2.121-6.361-6.762h15.683v-1.12ZM283.646,127c3.681,0,5.721,2.721,6.041,6.122H277.525C278.045,129.039,280.4,127,283.646,127Zm23.16-2.76a7.208,7.208,0,0,0-6.641,3.961v-3.641h-3.041V145.2h3.2V133.44c0-4,2.64-6.082,6.761-6.082h0.8v-3.08C307.446,124.238,307.126,124.238,306.806,124.238Zm20.361,0.32v3a8.33,8.33,0,0,0-7.081-3.481c-5.8,0-9.6,4.2-9.6,10.8s3.8,10.8,9.6,10.8a8.342,8.342,0,0,0,6.921-3.28v2c0,4.281-2.28,6.4-6.4,6.4-3.241,0-5.2-1.32-5.6-3.92h-3.2c0.44,4,3.521,6.641,8.8,6.641,6.521,0,9.6-3.761,9.6-9.122V124.558h-3.041ZM320.486,142.8c-4,0-6.642-3.081-6.642-7.922s2.641-7.922,6.642-7.922,6.641,2.921,6.641,7.922S324.487,142.8,320.486,142.8Zm27.8-18.244-2.92,8.562c-1.04,3-2.041,6-2.961,8.962-0.96-2.961-1.92-5.922-2.96-8.922l-2.921-8.6H333l7.762,21.324c-0.24.641-.48,1.321-0.72,1.921a3.617,3.617,0,0,1-3.761,2.56H334.4v2.681a15.987,15.987,0,0,0,1.921.12c3.281,0,5.4-1.08,6.721-4.721l8.722-23.885h-3.481Zm32.081,10.322c0-5.921-3.321-10.8-9.483-10.8-5.721,0-9.522,4.321-9.522,10.8,0,6.681,3.961,10.8,9.6,10.8a8.61,8.61,0,0,0,8.881-6.761h-3.32a5.3,5.3,0,0,1-5.481,3.841c-3.6,0-6.042-2.121-6.362-6.762h15.684v-1.12ZM370.884,127c3.681,0,5.722,2.721,6.042,6.122H364.763C365.283,129.039,367.644,127,370.884,127Zm21.04-7.561h1.841v-2.721c-0.48-.04-1.441-0.08-2.041-0.08-4.081,0-5.761,2.161-5.761,5.8v2.121h-3.4v2.8h3.4V145.2h3.2V127.358h4.4v-2.8h-4.4v-2.2C389.164,120.477,390.084,119.437,391.924,119.437Zm7.039,3v2.121h-3.4v2.8h3.4V145.2h3.2V127.358h4.4v-2.8h-4.4v-2.2c0-1.88.92-2.92,2.761-2.92h1.84v-2.721c-0.48-.04-1.44-0.08-2.04-0.08C400.643,116.636,398.963,118.8,398.963,122.437Zm12.4-.8a2.161,2.161,0,1,0-2.16-2.16A2.177,2.177,0,0,0,411.365,121.637Zm-1.6,23.565h3.2V124.558h-3.2V145.2Zm16.759,0.48a8.515,8.515,0,0,0,8.882-7.561h-3.281a5.423,5.423,0,0,1-5.6,4.681c-3.441,0-6.2-2.521-6.2-7.922s2.68-7.922,6.2-7.922a5.376,5.376,0,0,1,5.561,4.6h3.321c-0.64-4.561-3.961-7.481-8.882-7.481-5.721,0-9.562,4.161-9.562,10.8S420.883,145.682,426.524,145.682ZM440.6,121.637a2.161,2.161,0,1,0-2.16-2.16A2.177,2.177,0,0,0,440.6,121.637ZM439,145.2h3.2V124.558H439V145.2Zm26.2-10.322c0-5.921-3.321-10.8-9.482-10.8-5.722,0-9.522,4.321-9.522,10.8,0,6.681,3.96,10.8,9.6,10.8a8.612,8.612,0,0,0,8.882-6.761h-3.321a5.3,5.3,0,0,1-5.481,3.841c-3.6,0-6.042-2.121-6.362-6.762h15.684v-1.12ZM455.724,127c3.68,0,5.721,2.721,6.041,6.122H449.6C450.122,129.039,452.483,127,455.724,127Zm23-2.92a7.606,7.606,0,0,0-6.482,3.561v-3.081H469.2V145.2h3.2V133.52c0-4.561,3-6.562,5.682-6.562,2.96,0,4.721,1.4,4.721,4.6V145.2h3.2V131.239C486.005,126.678,483.325,124.078,478.724,124.078Zm21.319,3.28v-2.8H495.8v-5.841h-3.2v5.841h-3.4v2.8h3.4v13.683c0,3.161,1.96,4.281,5.161,4.281q0.96,0,2.28-.12v-2.68h-1.88c-1.84,0-2.361-.68-2.361-1.761v-13.4h4.241Z"/>
</svg>
