<svg id="Frame_4" data-name="Frame 4" xmlns="http://www.w3.org/2000/svg" width="600" height="500" viewBox="0 0 600 500">
  <defs>
    <style>
      .cls-1 {
        fill: #4b286d;
        fill-rule: evenodd;
      }
    </style>
  </defs>
  <path id="TELUS_smart_plugs_bulbs_ke_saath._" data-name="TELUS smart plugs  &amp; bulbs ke saath. " class="cls-1" d="M155.967,69.716H133.122v3.041H142.8V98.2h3.481V72.757h9.682V69.716Zm23.4,3.041V69.716h-19.8V98.2h19.645V95.162H162.923V84.879h14.843V81.839H162.923V72.757h16.444Zm7.156,22.4V69.716h-3.361V98.2h17.684V95.162H186.523ZM215.244,98.8c7.122,0,11.2-4.041,11.2-11.162V69.716h-3.36V87.64c0,5.6-2.881,8.122-7.842,8.122s-7.842-2.52-7.842-8.122V69.716h-3.36V87.64C204.042,94.762,208.123,98.8,215.244,98.8Zm26.64,0.04c6.841,0,10.682-3.321,10.682-8.362,0-4.121-2.32-6.681-8.882-8.122l-2.52-.56c-5.361-1.2-6.682-2.561-6.682-5.281,0-2.68,2.121-4.4,6.242-4.4,5.681,0,7.4,2.2,7.681,5.881h3.441c-0.12-4.641-2.721-8.922-11.122-8.922-5.922,0-9.722,2.881-9.722,7.442,0,5.2,3.8,7.162,8.641,8.242l2.521,0.56c5.041,1.12,6.921,2.441,6.921,5.161,0,3.521-2.64,5.321-7.2,5.321-4.641,0-8.282-1.72-8.362-7h-3.481C230.121,95.922,235.082,98.842,241.884,98.842Zm29.358-.16c5.082,0,8.2-2.24,8.2-6.161,0-3.361-2.04-5.081-7.121-6.081l-1.841-.36c-2.64-.52-4.161-1.24-4.161-3.2,0-1.92,1.561-3.041,4.321-3.041,3.161,0,5.041.88,5.2,4.081h3.2c-0.08-4.4-2.88-6.841-8.4-6.841-4.721,0-7.521,2.321-7.521,5.841,0,3.2,1.96,5.241,6.441,6.081l1.921,0.36c3.6,0.68,4.721,1.52,4.721,3.361,0,2.04-1.481,3.2-4.962,3.2-3.64,0-5.161-1.16-5.521-4.281h-3.24C262.8,96.482,266,98.682,271.242,98.682Zm33.323-21.6a7.13,7.13,0,0,0-6.361,3.881,6.464,6.464,0,0,0-6.361-3.881,6.633,6.633,0,0,0-5.962,3.521V77.558h-3.04V98.2h3.2V86.92c0-4.961,2.761-6.962,5.282-6.962,2.68,0,4.32,1.36,4.32,4.561V98.2h3.2V86.92c0-4.961,2.681-6.962,5.281-6.962,2.721,0,4.321,1.36,4.321,4.561V98.2h3.2v-14C311.647,80.2,309.366,77.078,304.565,77.078ZM333.524,95.6a0.946,0.946,0,0,1-1.12-1V83.079c0-3.481-2.04-6-7.762-6-6.041,0-8.161,2.841-8.4,6.841h3.2c0.2-3.081,1.681-4.081,5.2-4.081s4.641,1.08,4.641,3.241c0,1.84-1.16,2.6-3.24,2.841l-2.961.32c-5.681.6-7.642,3.161-7.642,6.4,0,3.881,2.8,6.041,7.282,6.041a7.565,7.565,0,0,0,6.721-3.321c0.16,1.96,1.2,2.961,3.481,2.961a12.171,12.171,0,0,0,1.76-.12V95.6h-1.16Zm-10.642.36c-2.841,0-4.121-1.36-4.121-3.4,0-2,1.04-3.281,4.8-3.721l3-.36a5.324,5.324,0,0,0,2.72-.88v2.441C329.283,94.121,325.963,95.962,322.882,95.962Zm24.481-18.724a7.21,7.21,0,0,0-6.642,3.961V77.558H337.68V98.2h3.2V86.44c0-4,2.641-6.081,6.762-6.081h0.8V77.278C348,77.238,347.683,77.238,347.363,77.238Zm13.719,3.121v-2.8h-4.241V71.717h-3.2v5.841h-3.4v2.8h3.4V94.041c0,3.161,1.961,4.281,5.161,4.281q0.962,0,2.281-.12V95.522H359.2c-1.841,0-2.361-.68-2.361-1.76v-13.4h4.241ZM382.6,77.078a8.114,8.114,0,0,0-7.081,3.681v-3.2h-3.041v28.486h3.2v-10.8a8.109,8.109,0,0,0,6.921,3.441c5.8,0,9.6-4.2,9.6-10.8S388.4,77.078,382.6,77.078ZM382.2,95.8c-4,0-6.641-2.921-6.641-7.922s2.64-7.922,6.641-7.922,6.642,2.761,6.642,7.762S386.2,95.8,382.2,95.8Zm18.639,2.52a20.333,20.333,0,0,0,2.04-.12V95.522h-1.52c-1.52,0-1.96-.68-1.96-1.76V69.716h-3.2V94.041C396.2,97.2,397.959,98.322,400.84,98.322Zm18.642-20.764V89.24c0,4.561-3,6.561-5.681,6.561-2.961,0-4.721-1.4-4.721-4.6V77.558h-3.2V91.521c0,4.561,2.681,7.162,7.282,7.162a7.605,7.605,0,0,0,6.481-3.561V98.2h3.041V77.558h-3.2Zm23.88,0v3a8.331,8.331,0,0,0-7.081-3.481c-5.8,0-9.6,4.2-9.6,10.8s3.8,10.8,9.6,10.8A8.342,8.342,0,0,0,443.2,95.4v2c0,4.281-2.28,6.4-6.4,6.4-3.241,0-5.2-1.32-5.6-3.92H428c0.44,4,3.521,6.641,8.8,6.641,6.521,0,9.6-3.761,9.6-9.122V77.558h-3.041ZM436.681,95.8c-4,0-6.642-3.081-6.642-7.922s2.641-7.922,6.642-7.922,6.641,2.921,6.641,7.922S440.681,95.8,436.681,95.8Zm22,2.881c5.081,0,8.2-2.24,8.2-6.161,0-3.361-2.041-5.081-7.122-6.081l-1.84-.36c-2.641-.52-4.161-1.24-4.161-3.2,0-1.92,1.56-3.041,4.321-3.041,3.161,0,5.041.88,5.2,4.081h3.2c-0.08-4.4-2.881-6.841-8.4-6.841-4.721,0-7.522,2.321-7.522,5.841,0,3.2,1.961,5.241,6.442,6.081l1.92,0.36c3.6,0.68,4.721,1.52,4.721,3.361,0,2.04-1.48,3.2-4.961,3.2-3.641,0-5.161-1.16-5.521-4.281h-3.241C450.238,96.482,453.439,98.682,458.68,98.682ZM179.448,146.2l-5.521-6.161a19.329,19.329,0,0,0,1.72-7.6h-3.241a15.387,15.387,0,0,1-.8,5l-5.921-6.6c3.6-2.08,5.841-4.681,5.841-7.6,0-4-3.32-6.161-6.961-6.161-4.441,0-7,2.881-7,6.281,0,2.281,1.04,4.2,3.4,6.922-4.241,2.36-6.641,4.6-6.641,8.642,0,4.281,3.2,7.921,8.6,7.921a11.474,11.474,0,0,0,9.2-4l3,3.36h4.321Zm-14.923-26.245a3.454,3.454,0,0,1,3.64,3.4c0,2.2-1.52,3.761-4.36,5.362-1.961-2.2-2.881-3.961-2.881-5.362A3.329,3.329,0,0,1,164.525,119.957Zm-1.4,23.845a5.086,5.086,0,0,1-5.4-5.041c0-3.121,2-4.681,5.121-6.362l7.162,8.042A8.216,8.216,0,0,1,163.124,143.8Zm36.84-18.724a8.108,8.108,0,0,0-6.921,3.44v-10.8h-3.2V146.2h3.041V143a8.114,8.114,0,0,0,7.081,3.68c5.8,0,9.6-4.2,9.6-10.8S205.765,125.078,199.964,125.078Zm-0.4,18.724c-4,0-6.641-2.921-6.641-7.922s2.64-7.922,6.641-7.922,6.641,2.761,6.641,7.762S203.565,143.8,199.564,143.8Zm27.6-18.244V137.24c0,4.561-3,6.562-5.682,6.562-2.96,0-4.721-1.4-4.721-4.6V125.558h-3.2v13.963c0,4.561,2.68,7.161,7.281,7.161a7.607,7.607,0,0,0,6.482-3.56v3.08h3.04V125.558h-3.2ZM240,146.322a20.335,20.335,0,0,0,2.041-.12v-2.68h-1.52c-1.521,0-1.961-.68-1.961-1.761V117.716h-3.2v24.325C235.361,145.2,237.122,146.322,240,146.322Zm15.162-21.244a8.11,8.11,0,0,0-6.922,3.44v-10.8h-3.2V146.2h3.041V143a8.115,8.115,0,0,0,7.082,3.68c5.8,0,9.6-4.2,9.6-10.8S260.965,125.078,255.164,125.078Zm-0.4,18.724c-4,0-6.642-2.921-6.642-7.922s2.641-7.922,6.642-7.922,6.641,2.761,6.641,7.762S258.764,143.8,254.764,143.8Zm21.279,2.88c5.081,0,8.2-2.24,8.2-6.161,0-3.361-2.041-5.081-7.122-6.081l-1.84-.36c-2.641-.52-4.161-1.241-4.161-3.2,0-1.92,1.56-3.041,4.321-3.041,3.16,0,5.041.881,5.2,4.081h3.2c-0.08-4.4-2.881-6.841-8.4-6.841-4.721,0-7.522,2.32-7.522,5.841,0,3.2,1.961,5.241,6.442,6.081l1.92,0.36c3.6,0.681,4.721,1.521,4.721,3.361,0,2.041-1.48,3.2-4.961,3.2-3.641,0-5.161-1.16-5.521-4.281h-3.241C267.6,144.482,270.8,146.682,276.043,146.682Zm33.241-.48H313L304.6,133l7.841-7.441H308.2l-9.562,9.242V117.716h-3.2V146.2h3.2v-7.641l3.681-3.441ZM333.8,135.88c0-5.921-3.32-10.8-9.482-10.8-5.721,0-9.522,4.321-9.522,10.8,0,6.681,3.961,10.8,9.6,10.8a8.612,8.612,0,0,0,8.882-6.761h-3.32a5.305,5.305,0,0,1-5.482,3.841c-3.6,0-6.041-2.121-6.361-6.762H333.8v-1.12ZM324.322,128c3.681,0,5.722,2.721,6.042,6.122H318.2C318.721,130.039,321.082,128,324.322,128Zm28.56,18.684c5.081,0,8.2-2.24,8.2-6.161,0-3.361-2.04-5.081-7.121-6.081l-1.841-.36c-2.64-.52-4.16-1.241-4.16-3.2,0-1.92,1.56-3.041,4.32-3.041,3.161,0,5.042.881,5.2,4.081h3.2c-0.08-4.4-2.88-6.841-8.4-6.841-4.721,0-7.521,2.32-7.521,5.841,0,3.2,1.96,5.241,6.441,6.081l1.921,0.36c3.6,0.681,4.721,1.521,4.721,3.361,0,2.041-1.481,3.2-4.961,3.2-3.641,0-5.162-1.16-5.522-4.281h-3.24C344.44,144.482,347.64,146.682,352.882,146.682Zm28.481-3.08a0.946,0.946,0,0,1-1.12-1V131.079c0-3.481-2.04-6-7.761-6-6.042,0-8.162,2.84-8.4,6.841h3.2c0.2-3.08,1.681-4.081,5.2-4.081s4.64,1.081,4.64,3.241c0,1.84-1.16,2.6-3.24,2.841l-2.961.32c-5.681.6-7.641,3.16-7.641,6.4,0,3.881,2.8,6.041,7.281,6.041a7.569,7.569,0,0,0,6.722-3.32c0.16,1.96,1.2,2.96,3.48,2.96a12.185,12.185,0,0,0,1.761-.12v-2.6h-1.161Zm-10.642.36c-2.84,0-4.121-1.36-4.121-3.4,0-2,1.04-3.281,4.8-3.721l3-.36a5.325,5.325,0,0,0,2.72-.88v2.441C377.122,142.121,373.8,143.962,370.721,143.962Zm31.682-.36a0.946,0.946,0,0,1-1.12-1V131.079c0-3.481-2.04-6-7.762-6-6.041,0-8.161,2.84-8.4,6.841h3.2c0.2-3.08,1.681-4.081,5.2-4.081s4.641,1.081,4.641,3.241c0,1.84-1.16,2.6-3.24,2.841l-2.961.32c-5.681.6-7.642,3.16-7.642,6.4,0,3.881,2.8,6.041,7.282,6.041a7.566,7.566,0,0,0,6.721-3.32c0.16,1.96,1.2,2.96,3.481,2.96a12.2,12.2,0,0,0,1.761-.12v-2.6H402.4Zm-10.642.36c-2.841,0-4.121-1.36-4.121-3.4,0-2,1.04-3.281,4.8-3.721l3-.36a5.325,5.325,0,0,0,2.72-.88v2.441C398.162,142.121,394.842,143.962,391.761,143.962Zm23.84-15.6v-2.8h-4.24v-5.841h-3.2v5.841h-3.4v2.8h3.4v13.683c0,3.161,1.96,4.281,5.161,4.281q0.96,0,2.28-.12v-2.68h-1.88c-1.84,0-2.36-.68-2.36-1.761v-13.4h4.24Zm13.12-3.28a7.606,7.606,0,0,0-6.321,3.32V117.716h-3.2V146.2h3.2V134.52c0-4.561,3-6.562,5.681-6.562,2.961,0,4.721,1.4,4.721,4.6V146.2H436V132.239C436,127.678,433.322,125.078,428.721,125.078Zm14.078,21.4a2.3,2.3,0,0,0,2.281-2.36,2.343,2.343,0,0,0-4.681,0A2.3,2.3,0,0,0,442.8,146.482Z"/>
</svg>
