<svg id="Frame_5" data-name="Frame 5" xmlns="http://www.w3.org/2000/svg" width="600" height="500" viewBox="0 0 600 500">
  <defs>
    <style>
      .cls-1 {
        fill: #4b286d;
        fill-rule: evenodd;
      }
    </style>
  </defs>
  <path id="SmartHome_Security_Make_home_life_easier." data-name="SmartHome Security Make home life easier." class="cls-1" d="M122.949,98.842c7.122,0,11.523-3.121,11.523-8.762,0-4.521-2.721-7.121-9.442-8.442l-2.481-.48c-4.241-.88-5.561-1.92-5.561-4.2,0-2.16,1.68-3.521,5.121-3.521,4.521,0,6.081,1.72,6.281,4.761h5.241c-0.2-5.361-3.6-9.122-11.6-9.122-6.841,0-10.562,3.321-10.562,8.042,0,5.161,3.641,7.6,9.162,8.642l2.4,0.48c4.361,0.88,5.841,1.88,5.841,4.121,0,2.681-2.04,4.121-5.761,4.121-3.961,0-6.961-1.2-7.041-5.681h-5.321C110.787,95.362,115.348,98.842,122.949,98.842Zm38.123-21.765a7.46,7.46,0,0,0-6.4,3.841,6.528,6.528,0,0,0-6.4-3.841,6.713,6.713,0,0,0-5.881,3.441V77.558h-4.881V98.2h5.041V86.84c0-3.881,2.12-5.4,4.241-5.4,2.4,0,3.6,1.28,3.6,3.921V98.2h5V86.84c0-3.881,2.081-5.4,4.281-5.4,2.4,0,3.561,1.28,3.561,3.921V98.2h5.041V84.559C168.273,80,165.673,77.078,161.072,77.078ZM191.11,98.2a7.818,7.818,0,0,1-.84-3.921v-11c0-3.721-2.441-6.2-8.6-6.2-6.441,0-9,2.681-9.282,7.041h4.961c0.2-2.521,1.4-3.281,4.281-3.281,2.921,0,3.761.96,3.761,2.561,0,1.52-1,2.12-2.921,2.361l-3.121.28c-5.841.56-7.921,3-7.921,6.441,0,4,3.04,6.2,7.441,6.2,3.041,0,5.282-1.08,6.642-3a6.722,6.722,0,0,0,.56,2.521h5.041Zm-11.042-3.121c-2.321,0-3.481-1.08-3.481-2.8,0-1.64.92-2.641,3.721-2.961l2.72-.32a4.012,4.012,0,0,0,2.361-.84v1.88C185.389,93.641,182.748,95.082,180.068,95.082Zm25.28-17.844a6.293,6.293,0,0,0-6.161,4V77.558h-4.882V98.2h5.042V87.72c0-3.921,2.24-5.761,5.961-5.761h1.28V77.318A6.462,6.462,0,0,0,205.348,77.238Zm15.16,4.161V77.558h-4.081v-6h-5v6h-3.2V81.4h3.2V93.081c0,3.8,2.08,5.281,6.441,5.281,0.8,0,1.72-.08,2.641-0.16V94.362h-1.721c-1.68,0-2.36-.44-2.36-1.8V81.4h4.081Zm22.081-11.683V81.159H229.346V69.716h-5.4V98.2h5.4V86.04h13.243V98.2h5.4V69.716h-5.4Zm19.558,28.966c6.281,0,10.482-4.241,10.482-10.8s-4.2-10.8-10.482-10.8-10.523,4.241-10.523,10.8S255.865,98.682,262.147,98.682Zm0-4.161c-3.281,0-5.361-2.281-5.361-6.641s2.08-6.641,5.361-6.641c3.24,0,5.361,2.28,5.361,6.641S265.387,94.522,262.147,94.522Zm37.4-17.444a7.458,7.458,0,0,0-6.4,3.841,6.529,6.529,0,0,0-6.4-3.841,6.716,6.716,0,0,0-5.882,3.441V77.558h-4.881V98.2h5.041V86.84c0-3.881,2.121-5.4,4.241-5.4,2.4,0,3.6,1.28,3.6,3.921V98.2h5V86.84c0-3.881,2.081-5.4,4.281-5.4,2.4,0,3.561,1.28,3.561,3.921V98.2h5.041V84.559C306.751,80,304.15,77.078,299.549,77.078ZM330.508,88.24c0-6.561-3.881-11.162-10.2-11.162-6.121,0-10.2,4.321-10.2,10.8,0,6.6,4.2,10.8,10.282,10.8,4.961,0,8.562-2.681,9.6-6.882h-4.841a4.7,4.7,0,0,1-4.721,2.961c-2.921,0-5-1.64-5.361-5.321h15.443v-1.2ZM320.266,81c3,0,4.8,2,5.2,4.921H315.105C315.585,82.519,317.585,81,320.266,81Zm33.639,17.844c7.122,0,11.523-3.121,11.523-8.762,0-4.521-2.721-7.121-9.442-8.442l-2.481-.48c-4.241-.88-5.561-1.92-5.561-4.2,0-2.16,1.681-3.521,5.121-3.521,4.521,0,6.082,1.72,6.282,4.761h5.241c-0.2-5.361-3.6-9.122-11.6-9.122-6.841,0-10.562,3.321-10.562,8.042,0,5.161,3.641,7.6,9.162,8.642l2.4,0.48c4.361,0.88,5.842,1.88,5.842,4.121,0,2.681-2.041,4.121-5.761,4.121-3.961,0-6.962-1.2-7.042-5.681H341.7C341.743,95.362,346.3,98.842,353.905,98.842Zm34.042-10.6c0-6.561-3.881-11.162-10.2-11.162-6.121,0-10.2,4.321-10.2,10.8,0,6.6,4.2,10.8,10.282,10.8,4.961,0,8.562-2.681,9.6-6.882h-4.841a4.7,4.7,0,0,1-4.721,2.961c-2.921,0-5-1.64-5.361-5.321h15.443v-1.2ZM377.705,81c3,0,4.8,2,5.2,4.921H372.544C373.024,82.519,375.024,81,377.705,81Zm22.96,17.684c5.281,0,9.122-3.121,9.682-8.162h-5.041a4.385,4.385,0,0,1-4.641,3.961c-2.921,0-5.042-2.081-5.042-6.6s2.041-6.6,5.042-6.6A4.308,4.308,0,0,1,405.226,85h5.041c-0.6-4.841-4.2-7.922-9.6-7.922-6.162,0-10.2,4.2-10.2,10.8S394.543,98.682,400.665,98.682Zm26.16-21.124V89.12c0,3.681-2.4,5.2-4.6,5.2-2.6,0-3.88-1.28-3.88-3.921V77.558H413.3V91.241c0,4.921,2.92,7.442,7.2,7.442a7.617,7.617,0,0,0,6.481-3.481v3h4.882V77.558h-5.042Zm20.36-.32a6.3,6.3,0,0,0-6.162,4V77.558h-4.881V98.2h5.041V87.72c0-3.921,2.241-5.761,5.962-5.761h1.28V77.318A6.462,6.462,0,0,0,447.185,77.238Zm6.918-2.16a2.781,2.781,0,1,0-2.8-2.761A2.766,2.766,0,0,0,454.1,75.077ZM451.582,98.2h5.041V77.558h-5.041V98.2Zm20.082-16.8V77.558h-4.081v-6h-5v6h-3.2V81.4h3.2V93.081c0,3.8,2.081,5.281,6.442,5.281,0.8,0,1.72-.08,2.64-0.16V94.362h-1.72c-1.68,0-2.361-.44-2.361-1.8V81.4h4.081Zm16.64-3.841-1.68,5.2c-1.12,3.641-2.24,7.4-3.321,11.482-1.04-4.041-2.16-7.922-3.28-11.522l-1.681-5.161H472.9l6,16.964a13.825,13.825,0,0,1,.961,4.161,3.084,3.084,0,0,1-3.4,3.321h-1.921v3.961a16.483,16.483,0,0,0,2.2.12c5,0,7.242-1.6,8.882-6.2l7.962-22.325H488.3ZM133.892,117.716L127.53,133.44c-1.16,2.8-2.48,6.361-3.36,8.681-0.84-2.2-2.081-5.4-3.241-8.2l-6.6-16.2h-4.4V146.2h3.28V137.08c0-3.8,0-9-.12-14.523,0.761,2.121,1.521,4.041,2.521,6.482l7.081,17.163h2.881l7.042-17.163c1-2.441,1.76-4.361,2.52-6.482-0.12,5.521-.12,10.723-0.12,14.523V146.2h3.281V117.716h-4.4ZM160.37,143.6a0.946,0.946,0,0,1-1.12-1V131.079c0-3.481-2.041-6-7.762-6-6.041,0-8.162,2.84-8.4,6.841h3.2c0.2-3.08,1.68-4.081,5.2-4.081s4.641,1.081,4.641,3.241c0,1.84-1.16,2.6-3.241,2.841l-2.96.32c-5.682.6-7.642,3.16-7.642,6.4,0,3.881,2.8,6.041,7.282,6.041a7.567,7.567,0,0,0,6.721-3.32c0.16,1.96,1.2,2.96,3.481,2.96a12.171,12.171,0,0,0,1.76-.12v-2.6h-1.16Zm-10.642.36c-2.841,0-4.121-1.36-4.121-3.4,0-2,1.04-3.281,4.8-3.721l3-.36a5.326,5.326,0,0,0,2.721-.88v2.441C156.129,142.121,152.808,143.962,149.728,143.962Zm28.641,2.24h3.721l-8.4-13.2,7.842-7.441h-4.241l-9.562,9.242V117.716h-3.2V146.2h3.2v-7.641l3.681-3.441ZM202.89,135.88c0-5.921-3.321-10.8-9.482-10.8-5.721,0-9.522,4.321-9.522,10.8,0,6.681,3.961,10.8,9.6,10.8a8.612,8.612,0,0,0,8.882-6.761h-3.321a5.3,5.3,0,0,1-5.481,3.841c-3.6,0-6.041-2.121-6.362-6.762H202.89v-1.12ZM193.408,128c3.681,0,5.721,2.721,6.041,6.122H187.286C187.807,130.039,190.167,128,193.408,128Zm30.8-2.92a7.606,7.606,0,0,0-6.321,3.32V117.716h-3.2V146.2h3.2V134.52c0-4.561,3-6.562,5.681-6.562,2.961,0,4.721,1.4,4.721,4.6V146.2h3.2V132.239C231.489,127.678,228.808,125.078,224.207,125.078Zm21.28,21.6c5.8,0,10-4.2,10-10.8s-4.2-10.8-10-10.8-10,4.2-10,10.8S239.686,146.682,245.487,146.682Zm0-2.88c-4,0-6.641-2.921-6.641-7.922s2.64-7.922,6.641-7.922,6.641,2.921,6.641,7.922S249.488,143.8,245.487,143.8Zm35.722-18.724a7.13,7.13,0,0,0-6.361,3.881,6.464,6.464,0,0,0-6.361-3.881,6.632,6.632,0,0,0-5.962,3.521v-3.041h-3.04V146.2h3.2V134.92c0-4.961,2.761-6.962,5.282-6.962,2.68,0,4.321,1.361,4.321,4.561V146.2h3.2V134.92c0-4.961,2.681-6.962,5.281-6.962,2.721,0,4.321,1.361,4.321,4.561V146.2h3.2v-14C288.291,128.2,286.01,125.078,281.209,125.078Zm30.08,10.8c0-5.921-3.321-10.8-9.483-10.8-5.721,0-9.522,4.321-9.522,10.8,0,6.681,3.961,10.8,9.6,10.8a8.611,8.611,0,0,0,8.882-6.761h-3.32a5.3,5.3,0,0,1-5.481,3.841c-3.6,0-6.042-2.121-6.362-6.762h15.684v-1.12ZM301.806,128c3.681,0,5.722,2.721,6.042,6.122H295.685C296.205,130.039,298.566,128,301.806,128Zm25.919,18.324a20.333,20.333,0,0,0,2.04-.12v-2.68h-1.52c-1.52,0-1.96-.68-1.96-1.761V117.716h-3.2v24.325C323.084,145.2,324.844,146.322,327.725,146.322Zm6.639-23.685a2.161,2.161,0,1,0-2.16-2.16A2.177,2.177,0,0,0,334.364,122.637Zm-1.6,23.565h3.2V125.558h-3.2V146.2Zm15.762-25.765h1.84v-2.721c-0.48-.04-1.44-0.08-2.041-0.08-4.08,0-5.761,2.161-5.761,5.8v2.121h-3.4v2.8h3.4V146.2h3.2V128.358h4.4v-2.8h-4.4v-2.2C345.765,121.477,346.685,120.437,348.526,120.437Zm23.441,15.443c0-5.921-3.32-10.8-9.482-10.8-5.721,0-9.522,4.321-9.522,10.8,0,6.681,3.961,10.8,9.6,10.8a8.611,8.611,0,0,0,8.882-6.761h-3.32a5.305,5.305,0,0,1-5.482,3.841c-3.6,0-6.041-2.121-6.361-6.762h15.683v-1.12ZM362.485,128c3.681,0,5.722,2.721,6.042,6.122H356.364C356.884,130.039,359.245,128,362.485,128Zm39.282,7.882c0-5.921-3.321-10.8-9.482-10.8-5.721,0-9.522,4.321-9.522,10.8,0,6.681,3.961,10.8,9.6,10.8a8.612,8.612,0,0,0,8.882-6.761h-3.321a5.3,5.3,0,0,1-5.481,3.841c-3.6,0-6.041-2.121-6.361-6.762h15.683v-1.12ZM392.285,128c3.681,0,5.721,2.721,6.041,6.122H386.164C386.684,130.039,389.044,128,392.285,128Zm30.362,15.6a0.947,0.947,0,0,1-1.121-1V131.079c0-3.481-2.04-6-7.761-6-6.042,0-8.162,2.84-8.4,6.841h3.2c0.2-3.08,1.68-4.081,5.2-4.081s4.641,1.081,4.641,3.241c0,1.84-1.161,2.6-3.241,2.841l-2.961.32c-5.681.6-7.641,3.16-7.641,6.4,0,3.881,2.8,6.041,7.281,6.041a7.569,7.569,0,0,0,6.722-3.32c0.16,1.96,1.2,2.96,3.48,2.96a12.175,12.175,0,0,0,1.761-.12v-2.6h-1.16Zm-10.643.36c-2.84,0-4.121-1.36-4.121-3.4,0-2,1.041-3.281,4.8-3.721l3-.36a5.329,5.329,0,0,0,2.721-.88v2.441C418.406,142.121,415.085,143.962,412,143.962Zm22.08,2.72c5.081,0,8.2-2.24,8.2-6.161,0-3.361-2.04-5.081-7.121-6.081l-1.841-.36c-2.64-.52-4.161-1.241-4.161-3.2,0-1.92,1.561-3.041,4.321-3.041,3.161,0,5.041.881,5.2,4.081h3.2c-0.08-4.4-2.881-6.841-8.4-6.841-4.721,0-7.521,2.32-7.521,5.841,0,3.2,1.96,5.241,6.441,6.081l1.92,0.36c3.6,0.681,4.721,1.521,4.721,3.361,0,2.041-1.48,3.2-4.961,3.2-3.64,0-5.161-1.16-5.521-4.281h-3.241C425.643,144.482,428.843,146.682,434.084,146.682Zm13.2-24.045a2.161,2.161,0,1,0-2.161-2.16A2.177,2.177,0,0,0,447.283,122.637Zm-1.6,23.565h3.2V125.558h-3.2V146.2Zm26.2-10.322c0-5.921-3.32-10.8-9.482-10.8-5.721,0-9.522,4.321-9.522,10.8,0,6.681,3.961,10.8,9.6,10.8a8.612,8.612,0,0,0,8.882-6.761h-3.32a5.305,5.305,0,0,1-5.482,3.841c-3.6,0-6.041-2.121-6.361-6.762h15.683v-1.12ZM462.4,128c3.681,0,5.722,2.721,6.042,6.122H456.283C456.8,130.039,459.164,128,462.4,128Zm23.16-2.76a7.208,7.208,0,0,0-6.641,3.961v-3.641h-3.041V146.2h3.2V134.44c0-4,2.641-6.082,6.762-6.082h0.8v-3.08C486.205,125.238,485.885,125.238,485.564,125.238Zm6.478,21.244a2.3,2.3,0,0,0,2.281-2.36,2.343,2.343,0,0,0-4.681,0A2.3,2.3,0,0,0,492.042,146.482Z"/>
</svg>
