<svg xmlns="http://www.w3.org/2000/svg" width="300" height="250" viewBox="0 0 300 250">
  <defs>
    <style>
      .cls-1 {
        fill: #fff;
        fill-rule: evenodd;
      }
    </style>
  </defs>
  <path id="Order_now" data-name="Order now" class="cls-1" d="M54.118,209.734c2.539,0,4.278-1.948,4.278-4.748,0-2.75-1.739-4.7-4.278-4.7s-4.265,1.947-4.265,4.7C49.853,207.761,51.592,209.734,54.118,209.734Zm0.013-1.057c-1.8,0-3.072-1.438-3.072-3.691,0-2.228,1.269-3.641,3.072-3.641s3.059,1.413,3.059,3.641C57.19,207.264,55.946,208.677,54.131,208.677Zm9.315-5.906a2.267,2.267,0,0,0-2.133,1.5v-1.324H60.221v6.569h1.168v-3.59a1.943,1.943,0,0,1,1.879-2.011c0.152,0,.279,0,0.419.012v-1.145A1.424,1.424,0,0,0,63.445,202.771Zm5.787-2.317v3.284a2.4,2.4,0,0,0-1.98-.929c-1.663,0-2.831,1.337-2.831,3.322,0,2.037,1.079,3.527,2.856,3.527a2.391,2.391,0,0,0,2.107-1.184v1.044H70.4v-9.064H69.233Zm-1.841,8.2c-1.13,0-1.8-.993-1.8-2.521,0-1.5.7-2.316,1.828-2.316,1.092,0,1.879.789,1.879,2.342S68.484,208.652,67.392,208.652Zm10.674-2.571c0-2.05-1.155-3.285-3-3.285-1.955,0-3.085,1.4-3.085,3.412s1.155,3.462,3.11,3.462a2.878,2.878,0,0,0,2.92-2.138l-1.066-.128a1.769,1.769,0,0,1-1.815,1.312c-1.181,0-1.942-.726-1.98-2.2h4.913v-0.432Zm-2.983-2.33a1.869,1.869,0,0,1,1.892,1.922H73.166A1.859,1.859,0,0,1,75.083,203.751Zm7.792-.98a2.267,2.267,0,0,0-2.133,1.5v-1.324H79.651v6.569h1.168v-3.59a1.943,1.943,0,0,1,1.879-2.011c0.152,0,.279,0,0.419.012v-1.145A1.424,1.424,0,0,0,82.875,202.771Zm8.16,0.013a2.493,2.493,0,0,0-2.2,1.094v-0.929H87.747v6.569h1.168v-3.654a1.8,1.8,0,0,1,1.866-2.062,1.194,1.194,0,0,1,1.307,1.387v4.329h1.168V204.96A2.018,2.018,0,0,0,91.035,202.784Zm6.914,6.9a3.21,3.21,0,0,0,3.161-3.5,3.087,3.087,0,0,0-3.123-3.4A3.462,3.462,0,0,0,97.949,209.683Zm0-.98c-1.231,0-1.98-.98-1.98-2.47s0.736-2.469,1.98-2.469c1.27,0,1.993.929,1.993,2.418S99.218,208.7,97.949,208.7Zm11.827-5.754-1.079,3.793-0.381,1.566L108,206.742l-0.939-3.793h-1.27l-0.939,3.793-0.343,1.566-0.393-1.566-1.029-3.793h-1.269l2.069,6.569h1.193l0.991-3.921,0.355-1.655,0.33,1.655,0.927,3.921h1.168l2.132-6.569h-1.206Z"/>
</svg>
