<svg xmlns="http://www.w3.org/2000/svg" width="300" height="250" viewBox="0 0 300 250">
  <defs>
    <style>
      .cls-1 {
        fill: #59595b;
        fill-rule: evenodd;
      }
    </style>
  </defs>
  <path id="_On_36_mo._plan._Conditions_apply." data-name="*On 36 mo. plan. Conditions apply." class="cls-1" d="M7.073,238.46a8.956,8.956,0,0,0-.732.786l0.52,0.354a6.633,6.633,0,0,0,.573-0.894,10.255,10.255,0,0,0,.6.894l0.529-.354a7.14,7.14,0,0,0-.758-0.786,5.67,5.67,0,0,0,1.1-.233l-0.2-.59a7.932,7.932,0,0,0-1.041.4,9.807,9.807,0,0,0,.1-1.031H7.126c0,0.188.032,0.534,0.088,1.035a7.061,7.061,0,0,0-1.019-.4l-0.2.59q0.511,0.129,1.08.233h0Zm3.044,3.3a2.737,2.737,0,0,0,1.089,1.136,3.2,3.2,0,0,0,1.632.416,3.366,3.366,0,0,0,1.57-.377,2.628,2.628,0,0,0,1.125-1.108,3.424,3.424,0,0,0,.4-1.659,3.483,3.483,0,0,0-.377-1.637,2.7,2.7,0,0,0-1.1-1.125,3.239,3.239,0,0,0-1.614-.4,3.032,3.032,0,0,0-2.231.858,3.2,3.2,0,0,0-.864,2.377A3.278,3.278,0,0,0,10.117,241.758Zm1.166-3.474a2.256,2.256,0,0,1,1.563-.589A2.21,2.21,0,0,1,14,238a1.972,1.972,0,0,1,.781.861,2.968,2.968,0,0,1,.267,1.3,2.5,2.5,0,0,1-.624,1.818,2.124,2.124,0,0,1-1.59.64,2.127,2.127,0,0,1-1.576-.634,2.358,2.358,0,0,1-.628-1.736A2.534,2.534,0,0,1,11.283,238.284Zm6.641,4.922v-2.412a1.443,1.443,0,0,1,.368-1.152,1.329,1.329,0,0,1,.875-0.3,1.1,1.1,0,0,1,.553.135,0.734,0.734,0,0,1,.328.362,1.91,1.91,0,0,1,.093.684v2.687h0.794V240.49a4.048,4.048,0,0,0-.044-0.728,1.4,1.4,0,0,0-.247-0.553,1.216,1.216,0,0,0-.531-0.376,2.052,2.052,0,0,0-.778-0.144,1.715,1.715,0,0,0-1.491.728v-0.628H17.13v4.417h0.794Zm7.254-.37a2.109,2.109,0,0,0,1.413.478,2.247,2.247,0,0,0,1.561-.555,1.754,1.754,0,0,0,.617-1.354,1.44,1.44,0,0,0-1.208-1.5,1.525,1.525,0,0,0,.666-0.516,1.234,1.234,0,0,0,.225-0.72,1.44,1.44,0,0,0-.236-0.786,1.618,1.618,0,0,0-.681-0.584,2.216,2.216,0,0,0-.975-0.214,1.985,1.985,0,0,0-1.283.414,1.894,1.894,0,0,0-.662,1.166l0.794,0.133a1.345,1.345,0,0,1,.4-0.823,1.119,1.119,0,0,1,.772-0.275,1.083,1.083,0,0,1,.763.271,0.884,0.884,0,0,1,.3.682,0.84,0.84,0,0,1-.406.769,1.711,1.711,0,0,1-.913.25,1.188,1.188,0,0,1-.128-0.009l-0.088.657a2.428,2.428,0,0,1,.56-0.083,1.277,1.277,0,0,1,.908.335,1.116,1.116,0,0,1,.357.851,1.2,1.2,0,0,1-.386.906,1.323,1.323,0,0,1-.946.366,1.186,1.186,0,0,1-.8-0.281,1.612,1.612,0,0,1-.465-0.917l-0.794.1A1.813,1.813,0,0,0,25.178,242.836Zm8.146-5.349a1.9,1.9,0,0,0-1.25-.4,2.043,2.043,0,0,0-1.627.7,3.9,3.9,0,0,0-.692,2.571,3.329,3.329,0,0,0,.626,2.268,2.228,2.228,0,0,0,2.659.427,1.852,1.852,0,0,0,.721-0.755,2.238,2.238,0,0,0,.262-1.067,1.914,1.914,0,0,0-.558-1.424,1.85,1.85,0,0,0-1.352-.551,1.978,1.978,0,0,0-.869.2,1.8,1.8,0,0,0-.7.612,3.731,3.731,0,0,1,.225-1.41,1.719,1.719,0,0,1,.591-0.753,1.137,1.137,0,0,1,.666-0.2,1.08,1.08,0,0,1,.794.321,1.372,1.372,0,0,1,.3.64l0.789-.058A1.682,1.682,0,0,0,33.323,237.487Zm-2.282,2.789a1.26,1.26,0,0,1,.913-0.364,1.206,1.206,0,0,1,.9.364,1.359,1.359,0,0,1,.357,1,1.453,1.453,0,0,1-.362,1.04,1.148,1.148,0,0,1-.864.382,1.266,1.266,0,0,1-.657-0.185,1.247,1.247,0,0,1-.487-0.538,1.657,1.657,0,0,1-.174-0.741A1.269,1.269,0,0,1,31.041,240.276Zm7.384,2.93v-2.292a2.59,2.59,0,0,1,.128-0.923,0.955,0.955,0,0,1,.412-0.487,1.2,1.2,0,0,1,.62-0.166,0.756,0.756,0,0,1,.635.249,1.21,1.21,0,0,1,.194.749v2.87h0.794V240.64a1.314,1.314,0,0,1,.326-0.992,1.142,1.142,0,0,1,.82-0.31,0.909,0.909,0,0,1,.476.121,0.634,0.634,0,0,1,.28.318,1.934,1.934,0,0,1,.077.646v2.783h0.789v-3.032a1.5,1.5,0,0,0-.375-1.121,1.474,1.474,0,0,0-1.072-.364,1.705,1.705,0,0,0-1.446.774,1.1,1.1,0,0,0-.47-0.57,1.612,1.612,0,0,0-.853-0.2,1.723,1.723,0,0,0-.834.2,1.62,1.62,0,0,0-.586.522v-0.62h-0.71v4.417h0.794Zm7.174-.495a2.175,2.175,0,0,0,1.59.595,2.412,2.412,0,0,0,1.131-.271,1.863,1.863,0,0,0,.789-0.759,2.78,2.78,0,0,0,.271-1.341,2.2,2.2,0,0,0-.613-1.649,2.168,2.168,0,0,0-1.579-.6,2.262,2.262,0,0,0-1.473.491A2.208,2.208,0,0,0,44.993,241,2.3,2.3,0,0,0,45.6,242.711Zm0.6-2.982a1.361,1.361,0,0,1,1.969,0,1.754,1.754,0,0,1,.395,1.241,1.852,1.852,0,0,1-.392,1.294,1.36,1.36,0,0,1-1.971,0A2.249,2.249,0,0,1,46.2,239.729Zm5.2,3.477v-0.853H50.5v0.853h0.9Zm4.773,1.692v-2.15a1.613,1.613,0,0,0,.518.4,1.571,1.571,0,0,0,.712.158,2.017,2.017,0,0,0,1.034-.289,1.869,1.869,0,0,0,.75-0.832,2.81,2.81,0,0,0,.258-1.221,2.848,2.848,0,0,0-.234-1.162,1.809,1.809,0,0,0-.692-0.822,1.933,1.933,0,0,0-1.058-.291,1.657,1.657,0,0,0-.78.169,1.737,1.737,0,0,0-.578.5v-0.574H55.382V244.9h0.794Zm0.315-5.175a1.166,1.166,0,0,1,.9-0.447,1.132,1.132,0,0,1,.88.42,1.872,1.872,0,0,1,.368,1.264,1.922,1.922,0,0,1-.377,1.308,1.175,1.175,0,0,1-.906.422,1.148,1.148,0,0,1-.886-0.408,1.84,1.84,0,0,1-.366-1.26A1.919,1.919,0,0,1,56.491,239.723Zm4.811,3.483v-6.1H60.508v6.1H61.3Zm4.535,0h0.829a1.6,1.6,0,0,1-.2-0.531,9.966,9.966,0,0,1-.051-1.32v-1a3.994,3.994,0,0,0-.04-0.691,1.151,1.151,0,0,0-.247-0.509,1.3,1.3,0,0,0-.551-0.335,2.989,2.989,0,0,0-.975-0.133,3.3,3.3,0,0,0-1.063.156,1.531,1.531,0,0,0-.7.445,1.768,1.768,0,0,0-.348.759l0.776,0.1a1.119,1.119,0,0,1,.395-0.655,1.471,1.471,0,0,1,.827-0.185,1.379,1.379,0,0,1,.9.254,0.8,0.8,0,0,1,.225.644c0,0.028,0,.093,0,0.2a7.72,7.72,0,0,1-1.415.257,6.12,6.12,0,0,0-.706.113,1.976,1.976,0,0,0-.571.245,1.248,1.248,0,0,0-.41.431,1.2,1.2,0,0,0,.258,1.5,1.77,1.77,0,0,0,1.186.356,2.587,2.587,0,0,0,.875-0.146,2.982,2.982,0,0,0,.849-0.5,1.517,1.517,0,0,0,.159.545h0Zm-0.225-1.942a1.714,1.714,0,0,1-.128.748,1.2,1.2,0,0,1-.525.518,1.718,1.718,0,0,1-.816.189,1.077,1.077,0,0,1-.7-0.2,0.625,0.625,0,0,1-.24-0.5,0.612,0.612,0,0,1,.11-0.355,0.678,0.678,0,0,1,.313-0.243,3.093,3.093,0,0,1,.692-0.15,6.134,6.134,0,0,0,1.3-.283v0.275Zm2.917,1.942v-2.412a1.443,1.443,0,0,1,.368-1.152,1.329,1.329,0,0,1,.875-0.3,1.1,1.1,0,0,1,.553.135,0.734,0.734,0,0,1,.328.362,1.91,1.91,0,0,1,.093.684v2.687h0.794V240.49a4.048,4.048,0,0,0-.044-0.728,1.4,1.4,0,0,0-.247-0.553,1.216,1.216,0,0,0-.531-0.376,2.052,2.052,0,0,0-.778-0.144,1.715,1.715,0,0,0-1.49.728v-0.628H67.736v4.417h0.794Zm5.389,0v-0.853h-0.9v0.853h0.9Zm8.019-.978a1.909,1.909,0,0,1-1.217.391,2.185,2.185,0,0,1-1.1-.287,1.711,1.711,0,0,1-.747-0.867,3.529,3.529,0,0,1-.24-1.358,3.446,3.446,0,0,1,.2-1.17,1.79,1.79,0,0,1,.7-0.905,2.179,2.179,0,0,1,1.246-.337,1.809,1.809,0,0,1,1.076.3,1.875,1.875,0,0,1,.653.969l0.842-.187a2.414,2.414,0,0,0-.922-1.31,2.76,2.76,0,0,0-1.632-.466,3.355,3.355,0,0,0-1.568.368,2.561,2.561,0,0,0-1.1,1.077,3.424,3.424,0,0,0-.386,1.661,3.941,3.941,0,0,0,.342,1.635,2.54,2.54,0,0,0,1,1.162,3.212,3.212,0,0,0,1.7.4,2.775,2.775,0,0,0,1.709-.522,2.7,2.7,0,0,0,.968-1.516l-0.855-.2A1.971,1.971,0,0,1,81.938,242.228Zm2.992,0.483a2.175,2.175,0,0,0,1.59.595,2.412,2.412,0,0,0,1.131-.271,1.863,1.863,0,0,0,.789-0.759,2.78,2.78,0,0,0,.271-1.341,2.2,2.2,0,0,0-.613-1.649,2.168,2.168,0,0,0-1.579-.6,2.262,2.262,0,0,0-1.473.491A2.208,2.208,0,0,0,84.324,241,2.3,2.3,0,0,0,84.93,242.711Zm0.6-2.982a1.362,1.362,0,0,1,1.969,0,1.754,1.754,0,0,1,.395,1.241,1.852,1.852,0,0,1-.392,1.294,1.36,1.36,0,0,1-1.971,0A2.25,2.25,0,0,1,85.532,239.729Zm5.034,3.477v-2.412a1.443,1.443,0,0,1,.368-1.152,1.329,1.329,0,0,1,.875-0.3,1.1,1.1,0,0,1,.553.135,0.733,0.733,0,0,1,.328.362,1.907,1.907,0,0,1,.093.684v2.687h0.794V240.49a4.058,4.058,0,0,0-.044-0.728,1.4,1.4,0,0,0-.247-0.553,1.216,1.216,0,0,0-.531-0.376,2.052,2.052,0,0,0-.778-0.144,1.715,1.715,0,0,0-1.49.728v-0.628H89.772v4.417h0.794Zm8.115,0v-6.1H97.892V239.3a1.552,1.552,0,0,0-.538-0.438,1.63,1.63,0,0,0-.754-0.169,1.96,1.96,0,0,0-1.045.287,1.762,1.762,0,0,0-.7.826,2.982,2.982,0,0,0-.234,1.2,2.674,2.674,0,0,0,.258,1.2,1.948,1.948,0,0,0,.728.813,1.918,1.918,0,0,0,1.03.292,1.48,1.48,0,0,0,1.31-.658v0.558h0.736Zm-2.891-3.49a1.127,1.127,0,0,1,.884-0.407,1.164,1.164,0,0,1,.913.424,1.991,1.991,0,0,1,.37,1.331,1.778,1.778,0,0,1-.364,1.225,1.151,1.151,0,0,1-.884.4,1.169,1.169,0,0,1-.9-0.42A1.841,1.841,0,0,1,95.435,241,1.932,1.932,0,0,1,95.79,239.716Zm5-1.746v-0.861H100v0.861h0.794Zm0,5.236v-4.417H100v4.417h0.794Zm2.685-.641a0.553,0.553,0,0,1-.271-0.054,0.319,0.319,0,0,1-.137-0.145,1.235,1.235,0,0,1-.042-0.412v-2.583h0.8v-0.582h-0.8v-1.543l-0.789.449v1.094h-0.582v0.582h0.582v2.541a2.531,2.531,0,0,0,.1.884,0.741,0.741,0,0,0,.335.339,1.426,1.426,0,0,0,.67.129,3.062,3.062,0,0,0,.6-0.067l-0.115-.661a2.623,2.623,0,0,1-.348.029h0Zm2.063-4.595v-0.861h-0.794v0.861h0.794Zm0,5.236v-4.417h-0.794v4.417h0.794Zm1.661-.495a2.178,2.178,0,0,0,1.59.595,2.409,2.409,0,0,0,1.131-.271,1.863,1.863,0,0,0,.79-0.759,2.79,2.79,0,0,0,.271-1.341,2.2,2.2,0,0,0-.613-1.649,2.169,2.169,0,0,0-1.579-.6,2.263,2.263,0,0,0-1.473.491A2.209,2.209,0,0,0,106.6,241,2.3,2.3,0,0,0,107.2,242.711Zm0.6-2.982a1.362,1.362,0,0,1,1.969,0,1.754,1.754,0,0,1,.395,1.241,1.85,1.85,0,0,1-.393,1.294,1.359,1.359,0,0,1-1.971,0A2.252,2.252,0,0,1,107.8,239.729Zm5.034,3.477v-2.412a1.444,1.444,0,0,1,.368-1.152,1.331,1.331,0,0,1,.876-0.3,1.1,1.1,0,0,1,.553.135,0.73,0.73,0,0,1,.328.362,1.9,1.9,0,0,1,.093.684v2.687h0.794V240.49a4.09,4.09,0,0,0-.044-0.728,1.411,1.411,0,0,0-.247-0.553,1.218,1.218,0,0,0-.532-0.376,2.048,2.048,0,0,0-.778-0.144,1.714,1.714,0,0,0-1.49.728v-0.628h-0.715v4.417h0.794Zm4.606-.258a2.3,2.3,0,0,0,1.391.358,2.57,2.57,0,0,0,.988-0.181,1.479,1.479,0,0,0,.668-0.512,1.2,1.2,0,0,0,.232-0.705,1.053,1.053,0,0,0-.19-0.64,1.182,1.182,0,0,0-.522-0.393,10.3,10.3,0,0,0-1.176-.348c-0.388-.1-0.621-0.163-0.7-0.191a0.7,0.7,0,0,1-.3-0.2,0.394,0.394,0,0,1-.1-0.262,0.49,0.49,0,0,1,.234-0.4,1.363,1.363,0,0,1,.78-0.17,1.167,1.167,0,0,1,.717.191,0.789,0.789,0,0,1,.306.532l0.776-.1a1.54,1.54,0,0,0-.273-0.684,1.32,1.32,0,0,0-.615-0.405,2.857,2.857,0,0,0-.968-0.15,2.522,2.522,0,0,0-.686.09,1.675,1.675,0,0,0-.5.218,1.236,1.236,0,0,0-.39.418,1.082,1.082,0,0,0-.143.547,1.063,1.063,0,0,0,.174.592,1.149,1.149,0,0,0,.511.42,7.582,7.582,0,0,0,1.211.36,3.578,3.578,0,0,1,.811.254,0.449,0.449,0,0,1,.234.4,0.615,0.615,0,0,1-.265.493,1.294,1.294,0,0,1-.811.21,1.34,1.34,0,0,1-.845-0.237,1.017,1.017,0,0,1-.368-0.682l-0.785.116A1.646,1.646,0,0,0,117.443,242.948Zm10.036,0.258h0.829a1.6,1.6,0,0,1-.2-0.531,9.927,9.927,0,0,1-.051-1.32v-1a3.924,3.924,0,0,0-.04-0.691,1.146,1.146,0,0,0-.247-0.509,1.3,1.3,0,0,0-.551-0.335,2.989,2.989,0,0,0-.974-0.133,3.3,3.3,0,0,0-1.063.156,1.526,1.526,0,0,0-.7.445,1.77,1.77,0,0,0-.349.759l0.777,0.1a1.117,1.117,0,0,1,.394-0.655,1.473,1.473,0,0,1,.827-0.185,1.379,1.379,0,0,1,.9.254,0.8,0.8,0,0,1,.225.644c0,0.028,0,.093,0,0.2a7.728,7.728,0,0,1-1.416.257,6.122,6.122,0,0,0-.706.113,1.983,1.983,0,0,0-.571.245,1.255,1.255,0,0,0-.41.431,1.2,1.2,0,0,0,.258,1.5,1.773,1.773,0,0,0,1.187.356,2.588,2.588,0,0,0,.875-0.146,2.981,2.981,0,0,0,.849-0.5,1.513,1.513,0,0,0,.158.545h0Zm-0.224-1.942a1.717,1.717,0,0,1-.128.748,1.2,1.2,0,0,1-.525.518,1.717,1.717,0,0,1-.816.189,1.075,1.075,0,0,1-.7-0.2,0.627,0.627,0,0,1-.241-0.5,0.61,0.61,0,0,1,.111-0.355,0.676,0.676,0,0,1,.313-0.243,3.091,3.091,0,0,1,.692-0.15,6.156,6.156,0,0,0,1.3-.283v0.275Zm2.916,3.634v-2.15a1.617,1.617,0,0,0,.519.4,1.569,1.569,0,0,0,.712.158,2.019,2.019,0,0,0,1.034-.289,1.867,1.867,0,0,0,.749-0.832,2.81,2.81,0,0,0,.258-1.221,2.845,2.845,0,0,0-.233-1.162,1.809,1.809,0,0,0-.693-0.822,1.929,1.929,0,0,0-1.058-.291,1.653,1.653,0,0,0-.78.169,1.731,1.731,0,0,0-.578.5v-0.574h-0.723V244.9h0.793Zm0.316-5.175a1.165,1.165,0,0,1,.9-0.447,1.134,1.134,0,0,1,.88.42,1.874,1.874,0,0,1,.368,1.264,1.924,1.924,0,0,1-.377,1.308,1.174,1.174,0,0,1-.906.422,1.149,1.149,0,0,1-.887-0.408,1.841,1.841,0,0,1-.366-1.26A1.92,1.92,0,0,1,130.487,239.723Zm4.824,5.175v-2.15a1.613,1.613,0,0,0,.518.4,1.569,1.569,0,0,0,.712.158,2.019,2.019,0,0,0,1.034-.289,1.869,1.869,0,0,0,.75-0.832,2.81,2.81,0,0,0,.258-1.221,2.845,2.845,0,0,0-.234-1.162,1.813,1.813,0,0,0-.692-0.822,1.935,1.935,0,0,0-1.059-.291,1.653,1.653,0,0,0-.78.169,1.731,1.731,0,0,0-.578.5v-0.574h-0.723V244.9h0.794Zm0.315-5.175a1.165,1.165,0,0,1,.9-0.447,1.134,1.134,0,0,1,.88.42,1.874,1.874,0,0,1,.368,1.264,1.919,1.919,0,0,1-.377,1.308,1.174,1.174,0,0,1-.906.422,1.147,1.147,0,0,1-.886-0.408,1.841,1.841,0,0,1-.366-1.26A1.92,1.92,0,0,1,135.626,239.723Zm4.811,3.483v-6.1h-0.794v6.1h0.794ZM142.226,245a1.2,1.2,0,0,0,.653-0.172,1.505,1.505,0,0,0,.485-0.543,8.532,8.532,0,0,0,.445-1l1.782-4.492H144.8l-1,2.574a9.776,9.776,0,0,0-.326,1.007,10.662,10.662,0,0,0-.34-1.023l-0.974-2.558H141.3l1.777,4.425c-0.032.08-.056,0.141-0.07,0.183a3.509,3.509,0,0,1-.243.557,0.694,0.694,0,0,1-.26.233,0.909,0.909,0,0,1-.423.083,1.887,1.887,0,0,1-.455-0.066l0.089,0.7a1.669,1.669,0,0,0,.511.091h0ZM147,243.206v-0.853h-0.9v0.853H147Z"/>
</svg>
