<svg xmlns="http://www.w3.org/2000/svg" width="300" height="250" viewBox="0 0 300 250">
  <defs>
    <style>
      .cls-1 {
        fill: #4b286c;
        fill-rule: evenodd;
      }
    </style>
  </defs>
  <path id="Palaki_ng_palaki_ang_selebrasyon_" data-name="Palaki ng palaki  ang selebrasyon " class="cls-1" d="M86.2,59.517H79.733V75.075H81.57V69.088H86.2c3.454,0,5.159-1.988,5.159-4.785S89.658,59.517,86.2,59.517Zm0,7.91H81.57v-6.25H86.2c2.186,0,3.257,1.158,3.257,3.125S88.39,67.427,86.2,67.427Zm15.714,6.228a0.517,0.517,0,0,1-.612-0.546V66.815c0-1.9-1.115-3.278-4.241-3.278-3.3,0-4.459,1.551-4.591,3.737h1.749c0.109-1.683.918-2.229,2.842-2.229s2.536,0.59,2.536,1.77c0,1.005-.634,1.42-1.771,1.552l-1.618.175c-3.1.328-4.175,1.726-4.175,3.5,0,2.12,1.53,3.3,3.979,3.3a4.135,4.135,0,0,0,3.672-1.814,1.617,1.617,0,0,0,1.9,1.617,6.654,6.654,0,0,0,.962-0.066v-1.42h-0.634Zm-5.815.2c-1.552,0-2.252-.743-2.252-1.857,0-1.093.568-1.792,2.623-2.032l1.639-.2a2.91,2.91,0,0,0,1.487-.481v1.333A3.239,3.239,0,0,1,96.1,73.852Zm10.137,1.289a11.113,11.113,0,0,0,1.115-.066V73.611h-0.831a0.876,0.876,0,0,1-1.071-.962V59.517H103.7V72.8C103.7,74.529,104.666,75.141,106.24,75.141Zm11.709-1.486a0.517,0.517,0,0,1-.612-0.546V66.815c0-1.9-1.115-3.278-4.241-3.278-3.3,0-4.46,1.551-4.591,3.737h1.749c0.109-1.683.918-2.229,2.842-2.229s2.536,0.59,2.536,1.77c0,1.005-.634,1.42-1.771,1.552l-1.618.175c-3.1.328-4.175,1.726-4.175,3.5,0,2.12,1.53,3.3,3.978,3.3a4.135,4.135,0,0,0,3.673-1.814,1.617,1.617,0,0,0,1.9,1.617,6.664,6.664,0,0,0,.962-0.066v-1.42h-0.634Zm-5.815.2c-1.552,0-2.252-.743-2.252-1.857,0-1.093.569-1.792,2.624-2.032l1.639-.2a2.913,2.913,0,0,0,1.487-.481v1.333A3.24,3.24,0,0,1,112.134,73.852Zm15.279,1.224h2.033l-4.591-7.211L129.14,63.8h-2.318L121.6,68.848V59.517h-1.749V75.075H121.6V70.9l2.011-1.879ZM131.425,62.2a1.18,1.18,0,1,0-1.181-1.18A1.19,1.19,0,0,0,131.425,62.2ZM130.55,75.075H132.3V63.8H130.55V75.075Zm13.728-11.538a4.156,4.156,0,0,0-3.541,1.945V63.8h-1.661V75.075h1.749V68.695c0-2.491,1.639-3.584,3.1-3.584a2.262,2.262,0,0,1,2.579,2.513v7.451h1.749V67.449C148.257,64.958,146.792,63.538,144.278,63.538ZM159.109,63.8v1.639a4.553,4.553,0,0,0-3.869-1.9c-3.17,0-5.247,2.294-5.247,5.9s2.077,5.9,5.247,5.9a4.56,4.56,0,0,0,3.782-1.792v1.093c0,2.338-1.247,3.5-3.5,3.5-1.771,0-2.842-.721-3.061-2.141h-1.748c0.24,2.185,1.923,3.627,4.809,3.627,3.563,0,5.246-2.054,5.246-4.982V63.8h-1.661Zm-3.651,9.964c-2.186,0-3.628-1.683-3.628-4.327s1.442-4.327,3.628-4.327,3.629,1.6,3.629,4.327S157.644,73.764,155.458,73.764Zm17.62-10.227a4.435,4.435,0,0,0-3.869,2.01V63.8h-1.661V79.358H169.3v-5.9a4.43,4.43,0,0,0,3.781,1.879c3.17,0,5.247-2.294,5.247-5.9S176.248,63.538,173.078,63.538ZM172.86,73.764c-2.186,0-3.629-1.6-3.629-4.327s1.443-4.327,3.629-4.327,3.628,1.508,3.628,4.239S175.046,73.764,172.86,73.764Zm16.4-.109a0.517,0.517,0,0,1-.612-0.546V66.815c0-1.9-1.115-3.278-4.241-3.278-3.3,0-4.459,1.551-4.59,3.737h1.748c0.11-1.683.918-2.229,2.842-2.229s2.536,0.59,2.536,1.77c0,1.005-.634,1.42-1.771,1.552l-1.617.175c-3.1.328-4.176,1.726-4.176,3.5,0,2.12,1.531,3.3,3.979,3.3a4.133,4.133,0,0,0,3.672-1.814,1.618,1.618,0,0,0,1.9,1.617,6.654,6.654,0,0,0,.962-0.066v-1.42h-0.634Zm-5.815.2c-1.552,0-2.251-.743-2.251-1.857,0-1.093.568-1.792,2.623-2.032l1.639-.2a2.913,2.913,0,0,0,1.487-.481v1.333A3.239,3.239,0,0,1,183.447,73.852Zm10.137,1.289a11.113,11.113,0,0,0,1.115-.066V73.611h-0.83a0.876,0.876,0,0,1-1.072-.962V59.517h-1.748V72.8C191.049,74.529,192.011,75.141,193.584,75.141Zm11.709-1.486a0.517,0.517,0,0,1-.612-0.546V66.815c0-1.9-1.115-3.278-4.241-3.278-3.3,0-4.459,1.551-4.591,3.737H197.6c0.11-1.683.918-2.229,2.842-2.229s2.536,0.59,2.536,1.77c0,1.005-.634,1.42-1.771,1.552l-1.617.175c-3.1.328-4.176,1.726-4.176,3.5,0,2.12,1.53,3.3,3.979,3.3a4.135,4.135,0,0,0,3.672-1.814,1.618,1.618,0,0,0,1.9,1.617,6.654,6.654,0,0,0,.962-0.066v-1.42h-0.634Zm-5.815.2c-1.552,0-2.251-.743-2.251-1.857,0-1.093.568-1.792,2.623-2.032l1.639-.2a2.913,2.913,0,0,0,1.487-.481v1.333A3.24,3.24,0,0,1,199.478,73.852Zm15.279,1.224h2.033L212.2,67.864l4.285-4.064h-2.317l-5.225,5.048V59.517h-1.749V75.075h1.749V70.9l2.011-1.879ZM218.769,62.2a1.18,1.18,0,1,0-1.181-1.18A1.189,1.189,0,0,0,218.769,62.2Zm-0.875,12.871h1.749V63.8h-1.749V75.075ZM84.423,99.879a0.517,0.517,0,0,1-.612-0.546V93.039c0-1.9-1.115-3.278-4.241-3.278-3.3,0-4.46,1.551-4.591,3.737h1.749c0.109-1.683.918-2.229,2.842-2.229s2.536,0.59,2.536,1.77c0,1.005-.634,1.42-1.771,1.551l-1.618.175c-3.1.328-4.175,1.726-4.175,3.5,0,2.119,1.53,3.3,3.979,3.3a4.135,4.135,0,0,0,3.672-1.813,1.618,1.618,0,0,0,1.9,1.617,6.609,6.609,0,0,0,.962-0.066v-1.42H84.423Zm-5.815.2c-1.552,0-2.252-.743-2.252-1.857,0-1.093.568-1.792,2.623-2.032l1.639-.2a2.912,2.912,0,0,0,1.487-.481v1.333A3.239,3.239,0,0,1,78.609,100.075ZM91.526,89.761a4.156,4.156,0,0,0-3.541,1.945V90.024H86.324V101.3h1.749V94.918c0-2.491,1.639-3.584,3.1-3.584a2.262,2.262,0,0,1,2.58,2.513V101.3H95.5V93.673C95.5,91.182,94.04,89.761,91.526,89.761Zm14.831,0.262v1.639a4.553,4.553,0,0,0-3.869-1.9c-3.17,0-5.247,2.294-5.247,5.9s2.077,5.9,5.247,5.9a4.556,4.556,0,0,0,3.781-1.792v1.093c0,2.338-1.246,3.5-3.5,3.5-1.771,0-2.842-.721-3.061-2.141H97.963c0.24,2.185,1.924,3.627,4.81,3.627,3.563,0,5.246-2.054,5.246-4.982V90.024h-1.661Zm-3.651,9.964c-2.186,0-3.629-1.683-3.629-4.327s1.443-4.327,3.629-4.327,3.629,1.6,3.629,4.327S104.892,99.988,102.706,99.988Zm16.068,1.573c2.776,0,4.481-1.223,4.481-3.365,0-1.835-1.114-2.775-3.891-3.321l-1.005-.2c-1.443-.284-2.274-0.677-2.274-1.748,0-1.049.853-1.661,2.361-1.661,1.727,0,2.755.481,2.842,2.229h1.749c-0.044-2.4-1.574-3.737-4.591-3.737-2.579,0-4.11,1.267-4.11,3.19,0,1.748,1.072,2.863,3.52,3.322l1.049,0.2c1.968,0.371,2.58.83,2.58,1.836,0,1.114-.809,1.749-2.711,1.749-1.989,0-2.82-.634-3.017-2.339h-1.77C114.162,100.359,115.91,101.561,118.774,101.561Zm15.88-5.9c0-3.234-1.815-5.9-5.181-5.9-3.126,0-5.2,2.36-5.2,5.9,0,3.649,2.164,5.9,5.247,5.9a4.706,4.706,0,0,0,4.853-3.693h-1.815a2.9,2.9,0,0,1-3,2.1c-1.967,0-3.3-1.158-3.475-3.693h8.569V95.661Zm-5.181-4.3c2.011,0,3.126,1.486,3.3,3.343h-6.646C126.413,92.471,127.7,91.357,129.473,91.357Zm9.4,10.008a11.056,11.056,0,0,0,1.115-.066V99.835h-0.831a0.876,0.876,0,0,1-1.071-.961V85.741h-1.749V99.027C136.342,100.753,137.3,101.365,138.878,101.365Zm11.785-5.7c0-3.234-1.814-5.9-5.181-5.9-3.126,0-5.2,2.36-5.2,5.9,0,3.649,2.165,5.9,5.247,5.9a4.705,4.705,0,0,0,4.853-3.693h-1.815a2.9,2.9,0,0,1-2.994,2.1c-1.968,0-3.3-1.158-3.476-3.693h8.569V95.661Zm-5.181-4.3c2.011,0,3.126,1.486,3.3,3.343h-6.646C142.422,92.471,143.711,91.357,145.482,91.357Zm12.448-1.6a4.432,4.432,0,0,0-3.782,1.879v-5.9H152.4V101.3h1.662V99.551a4.434,4.434,0,0,0,3.869,2.01c3.17,0,5.246-2.294,5.246-5.9S161.1,89.761,157.93,89.761Zm-0.219,10.227c-2.186,0-3.628-1.6-3.628-4.327s1.442-4.327,3.628-4.327,3.629,1.508,3.629,4.239S159.9,99.988,157.711,99.988ZM170.24,89.849a3.94,3.94,0,0,0-3.629,2.163V90.024H164.95V101.3H166.7V94.875c0-2.185,1.443-3.322,3.694-3.322h0.437V89.871C170.59,89.849,170.415,89.849,170.24,89.849ZM181.3,99.879a0.517,0.517,0,0,1-.612-0.546V93.039c0-1.9-1.115-3.278-4.241-3.278-3.3,0-4.46,1.551-4.591,3.737h1.749c0.109-1.683.918-2.229,2.842-2.229s2.536,0.59,2.536,1.77c0,1.005-.634,1.42-1.771,1.551l-1.618.175c-3.1.328-4.175,1.726-4.175,3.5,0,2.119,1.53,3.3,3.978,3.3a4.136,4.136,0,0,0,3.673-1.813,1.618,1.618,0,0,0,1.9,1.617,6.619,6.619,0,0,0,.962-0.066v-1.42H181.3Zm-5.815.2c-1.552,0-2.252-.743-2.252-1.857,0-1.093.569-1.792,2.624-2.032l1.639-.2a2.914,2.914,0,0,0,1.487-.481v1.333A3.239,3.239,0,0,1,175.489,100.075Zm11.77,1.486c2.776,0,4.481-1.223,4.481-3.365,0-1.835-1.115-2.775-3.891-3.321l-1-.2C185.4,94.394,184.57,94,184.57,92.93c0-1.049.853-1.661,2.361-1.661,1.727,0,2.754.481,2.842,2.229h1.749c-0.044-2.4-1.574-3.737-4.591-3.737-2.579,0-4.11,1.267-4.11,3.19,0,1.748,1.072,2.863,3.52,3.322l1.049,0.2c1.968,0.371,2.58.83,2.58,1.836,0,1.114-.809,1.749-2.711,1.749-1.989,0-2.82-.634-3.017-2.339h-1.77C182.647,100.359,184.4,101.561,187.259,101.561Zm12.975-11.537-1.6,4.676c-0.569,1.639-1.115,3.278-1.618,4.895-0.525-1.617-1.049-3.234-1.618-4.873l-1.595-4.7h-1.924l4.241,11.647c-0.131.349-.263,0.721-0.394,1.048a1.976,1.976,0,0,1-2.055,1.4h-1.027v1.464a8.676,8.676,0,0,0,1.049.066,3.409,3.409,0,0,0,3.673-2.579l4.765-13.045h-1.9Zm7.452,11.537c3.17,0,5.465-2.294,5.465-5.9s-2.3-5.9-5.465-5.9-5.465,2.294-5.465,5.9S204.516,101.561,207.686,101.561Zm0-1.573c-2.186,0-3.629-1.6-3.629-4.327s1.443-4.327,3.629-4.327,3.629,1.6,3.629,4.327S209.872,99.988,207.686,99.988Zm12.4-10.227a4.155,4.155,0,0,0-3.541,1.945V90.024h-1.662V101.3h1.749V94.918c0-2.491,1.64-3.584,3.1-3.584a2.262,2.262,0,0,1,2.58,2.513V101.3h1.749V93.673C224.069,91.182,222.6,89.761,220.09,89.761Z"/>
</svg>
