<svg xmlns="http://www.w3.org/2000/svg" width="320" height="50" viewBox="0 0 320 50">
  <defs>
    <style>
      .cls-1 {
        fill: #4b286d;
        fill-rule: evenodd;
      }
    </style>
  </defs>
  <path id="攜手讓我們的社區更強大_" data-name="攜手讓我們的社區更強大 " class="cls-1" d="M28.414,24.607l-0.986.451v-2.79h1.136v-1.2H27.428V17.823h-1.27v3.225l-1.721.017v1.2h1.721v3.242a17.6,17.6,0,0,1-1.989.969l0.869,0.969q0.167-.067.368-0.15t0.468-.217a2.769,2.769,0,0,1,.284-0.134v4.411l-0.1.15a2.2,2.2,0,0,1-.735.025q-0.518-.041-0.735-0.042a12.521,12.521,0,0,1,.468,1.22h0.61a4.481,4.481,0,0,0,.794-0.05,1.109,1.109,0,0,0,.6-0.368,1.348,1.348,0,0,0,.368-0.7V26.445q0.668-.384,1.2-0.635v-1a3.521,3.521,0,0,1,.635-0.518v2.49H39.31v-1.22H34.9V25.392l3.426-.017v-1.22H34.881V23.989h3.442V22.8H34.881V22.6h4.061l0.017-1.22H34.664a4.63,4.63,0,0,0-1.036-.952h4.947V18.174H37.321V19.21H34.38v-1.6H33.11v1.621l-2.858-.017V18.274H29V20.43h0.852a6.96,6.96,0,0,1-.518,1.47,4.932,4.932,0,0,1-.785,1.178,6.085,6.085,0,0,1-.886.81Zm5.214-1.988V22.8H30.536V22.6Zm0,1.37v0.167l-3.092.017V23.989h3.092Zm0,1.4v0.167H30.553l-0.017-.184ZM30.7,21.382a5.228,5.228,0,0,0,.334-0.652,7.376,7.376,0,0,0-.836-0.3l3.309,0.034a8.566,8.566,0,0,0-1,.718l0.384,0.2H30.7Zm1.337,6.75a1,1,0,0,1-.4.568,4.523,4.523,0,0,1-1.22.6l-0.451.117V28.133H32.04Zm3.81,3.626,0.033-.284a7.4,7.4,0,0,0,.4,1.019,5.911,5.911,0,0,0,1.471-.067,1.454,1.454,0,0,0,.66-0.476,1.162,1.162,0,0,0,.276-0.744l-0.017-4.277h-9.96l0.017,5.815h1.253l-0.017-2.807,0.518,0.6a5.176,5.176,0,0,0,1.053-.418l-0.017,1.637H35.85Zm-2.908-2.807a1.164,1.164,0,0,0,.234-0.459,1.741,1.741,0,0,0,.067-0.359H34.48a1.147,1.147,0,0,0,.1.819H32.943Zm2.791-.819H37.4v0.535l-1.471-.017a0.3,0.3,0,0,1-.2-0.217v-0.3Zm-2.958,2.406,0.017-.384h1.771l0.017,0.384h-1.8Zm3.075-.668H37.4v1.153a0.481,0.481,0,0,1-.2.284,2.036,2.036,0,0,1-.727.017q-0.526-.05-0.627-0.05v-1.4Zm12.1-7.268H42.936l0.017,1.22h5.013l-0.017,2.556h-6.4l0.017,1.2h6.384V31.09a0.575,0.575,0,0,1-.142.434,0.66,0.66,0,0,1-.426.15q-0.435.017-2.106-.134l0.468,1.37H48.05a1.12,1.12,0,0,0,1.186-1.337V27.581h6.15v-1.22l-6.133.017V23.822h4.763V22.6H49.253V20.129a22.38,22.38,0,0,0,5.4-1.32l-0.7-.952a25.247,25.247,0,0,1-5.565,1.153,48.476,48.476,0,0,1-6.367.3l0.752,1.237q3.81-.1,5.181-0.267V22.6Zm15.157,8.622a13.006,13.006,0,0,0,1.688-.568v0.952a0.294,0.294,0,0,1-.125.092q-0.092.042-.493,0.192l0.635,1q0.835-.334,3.359-1.036l-0.034-1.119q-0.652.134-2.106,0.518V29.9a5.261,5.261,0,0,0,1.07-1.036h0.4a6.224,6.224,0,0,0,.6,1.337,4.634,4.634,0,0,0,1.713,1.729,8,8,0,0,0,2.482.944l0.535-1.1a5.4,5.4,0,0,1-1.153-.242,6.48,6.48,0,0,1-1.387-.677,7.122,7.122,0,0,0,1.671-1.3l-0.769-.7h1.086l-0.017-1.119h-2.44V27.08h1.755V25.96H69.824V25.426H72.08v-1.1H69.841v-0.7h1.822V20.8H67.8v2.857l0.869-.017-0.017.685H66.248a3.484,3.484,0,0,1,0-.685h0.819V20.8H63.223v2.841h1.855v0.685H62.839l0.017,1.1H65.1v0.518l-1.7.017v1.1h1.7v0.668H62.739v1.136L65.58,28.9a7.435,7.435,0,0,1-3.158,1.32V27.046H58.628v5.531h1.2V31.424h1.4V32.56h1.187L62.455,30.4Zm5.565-4.144-0.017.652h-2.34V27.08h2.356Zm-0.017-1.654V25.96H66.248V25.426h2.406Zm2.44,3.409a7.015,7.015,0,0,1-1.654,1.32,3.617,3.617,0,0,1-.368-0.61,6.093,6.093,0,0,1-.318-0.71h2.34ZM61.2,28.183v2.105h-1.37l0.017-2.105H61.2Zm9.308-5.6H68.955V21.817h1.554v0.769Zm-6.166-.769h1.587v0.8H64.343v-0.8Zm-1.755-1.571-1.821-.033,0.635-.267a9.452,9.452,0,0,0-.66-1.22,5.889,5.889,0,0,0-.777-1l-1.12.6a5.523,5.523,0,0,1,.869,1.053,6.2,6.2,0,0,1,.418.869H57.826l0.017,1.17h5.1V20.3L72.4,20.313v-1.17H68.07a9.625,9.625,0,0,0-1.237-1.437l-1.153.6q0.819,0.685.869,0.744c0.033,0.039.061,0.07,0.084,0.092l-4.027-.017Zm0.1,2.122H58.477v1.186l4.211-.017v-1.17Zm0,2.222H58.477v1.186h4.211V24.59Zm20.087-6.717a49.639,49.639,0,0,0,.1,5.1l-3.108.017V20.263q0.217-.083.593-0.276t1.93-1.094l-0.836-.952A20.353,20.353,0,0,1,79.258,19a10.975,10.975,0,0,1-1.947.56,13.563,13.563,0,0,1-2.39.217,10.461,10.461,0,0,1,.785,1.253,11.205,11.205,0,0,0,1.421-.15,7.133,7.133,0,0,0,1.287-.3v2.406H75l0.017,1.253,3.409,0.017v2.79q-2.089.535-3.844,0.869l0.936,1.22,2.924-.785v2.724a0.424,0.424,0,0,1-.109.3,0.42,0.42,0,0,1-.276.134l-2.055-.05,0.468,1.3q0.234-.017.9,0a8.259,8.259,0,0,0,1.044-.025,2.7,2.7,0,0,0,.643-0.142,1.332,1.332,0,0,0,.719-1.153L79.8,27.982l2.557-.685L82.341,26.01l-2.54.652-0.017-2.406h3.209a20.556,20.556,0,0,0,.936,4.194,15.923,15.923,0,0,1-3.777,2.423l1.12,0.936A17.745,17.745,0,0,0,84.513,29.7a9.073,9.073,0,0,0,1.8,2.272,2.82,2.82,0,0,0,1.1.677,1.786,1.786,0,0,0,.618.008,1.181,1.181,0,0,0,.551-0.585,10.283,10.283,0,0,0,.568-2.757l-1.3-.5a9.507,9.507,0,0,1-.418,2.323q-0.067.184-.343-0.109a13.307,13.307,0,0,1-.927-1.211,7.591,7.591,0,0,1-.669-1.1,14.727,14.727,0,0,0,2.507-3.526l-1.136-.485A12.7,12.7,0,0,1,85,27.447a18.314,18.314,0,0,1-.668-3.208h4.328V22.986H84.213q-0.067-.818-0.109-2.414t-0.042-2.7H82.776Zm1.7,1.671a6.491,6.491,0,0,1,1.73,1.17,4.872,4.872,0,0,1,1.145,1.6,7.927,7.927,0,0,0,1.07-.919,5.463,5.463,0,0,0-1.237-1.613,8.139,8.139,0,0,0-1.638-1.211Zm13.135,2.891h1.771l0.017,1.4H97.615v-1.4Zm5.164,10.226a6.879,6.879,0,0,1,.743.008,3.424,3.424,0,0,0,.878-0.05,2.324,2.324,0,0,0,.585-0.209,1.509,1.509,0,0,0,.476-0.568,2.707,2.707,0,0,0,.159-1.086L105.6,18.692l-4.345-.033v6.4h3.025l0.017,5.831a0.569,0.569,0,0,1-.109.368,0.4,0.4,0,0,1-.276.15c-0.145.011-.4,0.011-0.752,0s-0.588-.017-0.693-0.017h-0.276Zm1.554-12.816L104.3,21.232h-1.789l0.017-1.37Zm-0.033,2.59v1.42l-1.789-.017v-1.4H104.3Zm-3.61-3.776H96.261l0.017,14.253,1.287,0.033,0.017-7.887h3.125ZM99.4,19.878l-0.017,1.37-1.721.017V19.9Zm-4.746-2.155q-0.535,1.638-1.1,3.024a21.715,21.715,0,0,1-1.195,2.49,20.705,20.705,0,0,1-1.195,1.888l1.17,0.635q0.184-.234.384-0.51t0.451-.643q0.251-.367.3-0.451v8.789h1.3V21.466a32.676,32.676,0,0,0,1.07-3.275Zm22.377,0.05a14.734,14.734,0,0,1-2.524,6.383l0.017-3.292H111.97a10.611,10.611,0,0,0,.9-2.473l-1.2-.485a10.176,10.176,0,0,1-1.019,2.957h-1.538V32.427h1.321V31.073l2.807-.017c0,0.056-.006.242-0.017,0.56a6.222,6.222,0,0,0,.017.81l1.287-.017v-7.7l0.869,0.551a13.5,13.5,0,0,0,1.938-3.492h3.56a52.962,52.962,0,0,1-.552,7.385,10.594,10.594,0,0,1-.551,1.972,0.619,0.619,0,0,1-.635.3,12.425,12.425,0,0,1-2.524-.7l0.218,1.4a16.48,16.48,0,0,0,2.2.518,2.931,2.931,0,0,0,.777,0,1.482,1.482,0,0,0,.7-0.418,2.42,2.42,0,0,0,.585-0.986,15.387,15.387,0,0,0,.585-2.381q0.2-1.228.276-2.264t0.108-1.913q0.033-.877.05-2.289t0.034-1.8h-4.512q0.066-.234.276-0.869t0.3-1c0.061-.245.109-0.462,0.142-0.652ZM113.19,22.05v3.258l-2.774-.017L110.4,22.05h2.791Zm-2.757,7.8V26.512l2.774-.017,0.016,3.375Zm9.458-1.654a12.4,12.4,0,0,0-.986-2.089,14.623,14.623,0,0,0-1.454-1.988l-1.036.685a14.633,14.633,0,0,1,2.273,3.927Zm6.183-9.741a7.906,7.906,0,0,1,1.688,2.724,6.034,6.034,0,0,0,.644-0.317q0.392-.217.543-0.284a6.7,6.7,0,0,0-.819-1.562,13,13,0,0,0-.969-1.161Zm9.108-.485-1.37.017V23.3h-3.593V24.54h3.593v5.965h-4.345l0.016,1.287,10.077-.017V30.522l-4.378-.017-0.034-5.965,3.794,0.017,0.033-1.22-3.827-.017ZM131.606,27.5a14.628,14.628,0,0,0-1.437-1.462,5.231,5.231,0,0,0-1.053-.71l-0.485.485-0.017-.585a15.354,15.354,0,0,0,1.805-2.874v-1.1l-5.531-.017-0.034,1.236h4.111a14.46,14.46,0,0,1-1.9,2.49,21.46,21.46,0,0,1-2.616,2.256l0.953,1.053a12.9,12.9,0,0,0,1.905-1.654v6.316h1.32v-6.5a5.756,5.756,0,0,1,.978.852q0.559,0.585,1.011,1.136Zm18.014-2.256-4.729-.017v4.628h4.729V25.242Zm4.362,3.358-2.239-.017V26.445L154,26.428Zm-3.509-3.375V29.8h4.779V25.225h-4.779Zm-2.139,1.2,0.016,2.222-2.206-.017V26.445Zm5.448-5.8h-7.5l-0.017,3.726,7.521-.017V20.63Zm-6.25,1.12h4.979V23.2h-4.979V21.75Zm8.506,9.19H144.891a0.751,0.751,0,0,1-.535-0.15,0.693,0.693,0,0,1-.15-0.5l-0.017-10.259h11.765V18.792l-14.088-.017v1.236l1.053,0.017V30.622a1.943,1.943,0,0,0,.184.852,1.131,1.131,0,0,0,.493.543,1.328,1.328,0,0,0,.61.159h11.832V30.94Zm17.162,0.6q-1.554-.033-3.267-0.226a28.3,28.3,0,0,1-3.016-.485,8.031,8.031,0,0,1-2.039-.694,5.008,5.008,0,0,0,.7-1.261,6.385,6.385,0,0,0,.384-1.479h4.88V21.215H166.2V19.979L172.665,20V18.809H158.411V20l6.55-.017v1.236h-4.8L160.149,27.4h4.545a5.292,5.292,0,0,1-.343,1.1,4.55,4.55,0,0,1-.576,1,19.664,19.664,0,0,1-2.44-1.9l-0.969.652a11.387,11.387,0,0,0,2.423,2.139,14.5,14.5,0,0,1-2.515.944,22.618,22.618,0,0,1-2.348.526l0.752,1.119a11.742,11.742,0,0,0,4.8-1.587l0.518-.351a15.621,15.621,0,0,0,3.192,1.111,30.385,30.385,0,0,0,5.231.677Zm-3.576-7.853h-3.409l0.016-1.287h3.393v1.287ZM161.4,22.4l3.559,0.017v1.27H161.4V22.4Zm8.238,2.473v1.32H166.1l0.083-1.32h3.459Zm-8.238,0h3.526l-0.067,1.32-3.459-.017v-1.3Zm24.766,4.495a12.334,12.334,0,0,1,1.069,1.036l-2.172.234V28.534h3.326V23.872h-3.276L185.1,22.418l2.708-.217a6.125,6.125,0,0,1,.735,1.119l1.069-.652a10.859,10.859,0,0,0-1.487-1.88,12.847,12.847,0,0,0-1.8-1.562l-1.1.735a6.96,6.96,0,0,1,1.688,1.186q-1.086.1-2.674,0.209t-2.339.125a10,10,0,0,0,1.7-1.479,14.614,14.614,0,0,0,1.278-1.562q-0.133-.083-0.484-0.334c-0.234-.167-0.424-0.295-0.568-0.384a13.871,13.871,0,0,1-4.145,4.077l0.685,1.086q1.722-.251,3.493-0.368v1.353h-3.376l0.017,4.662h3.326l0.016,2.239-1.437.15q-1.119.117-1.8,0.159t-1.253.042q0.066,0.134.276,0.543t0.359,0.66l8.005-.819a6.738,6.738,0,0,1,.568,1.337,4.987,4.987,0,0,0,.635-0.326q0.384-.226.551-0.309a10.831,10.831,0,0,0-2.189-3.242Zm1.019-4.277v2.222l-2.072-.017L185.1,25.091h2.089Zm-5.448-.017h2.106V27.33l-2.106-.017V25.075Zm-6.35,7.2a7.153,7.153,0,0,0,2.323.468,1.4,1.4,0,0,0,.7-0.351,1.561,1.561,0,0,0,.451-0.718,20.026,20.026,0,0,0,.735-5.748l-2.807.017q0.15-1.286.217-2.423l2.557-.017,0.017-4.812h-4.479v1.186h3.225v2.439h-2.573a35.481,35.481,0,0,1-.468,4.812l3.075-.017a18.408,18.408,0,0,1-.435,3.141q-0.166.769-.225,0.919a0.815,0.815,0,0,1-.151.251,0.393,0.393,0,0,1-.192.125,0.485,0.485,0,0,1-.2.008,9.039,9.039,0,0,1-1.939-.635Zm22.493-8.989a11.531,11.531,0,0,1-1.128,3.392,10.525,10.525,0,0,1-1.98,2.657,10.356,10.356,0,0,1-2.807,1.922l0.952,1.153a12.223,12.223,0,0,0,4.22-3.617,14.472,14.472,0,0,0,2.114-5.506,15.818,15.818,0,0,0,.894,3.567A10.48,10.48,0,0,0,201.5,29.3a10.311,10.311,0,0,0,1.747,1.8,18.645,18.645,0,0,0,1.988,1.4l0.9-1a12.963,12.963,0,0,1-2.791-2.122,9.706,9.706,0,0,1-1.788-2.556,14.327,14.327,0,0,1-1.086-3.526h4.913L205.369,22h-5.983a39.769,39.769,0,0,0,.084-4.01q-0.166-.033-0.618-0.084a6.405,6.405,0,0,1-.736-0.117A34.982,34.982,0,0,1,198,22h-5.213v1.287h5.1Z"/>
</svg>
