<svg xmlns="http://www.w3.org/2000/svg" width="320" height="50" viewBox="0 0 320 50">
  <defs>
    <style>
      .cls-1 {
        fill: #4b286d;
        fill-rule: evenodd;
      }
    </style>
  </defs>
  <path id="去年_我們投入了_140萬小時志願服務時間_" data-name="去年，我們投入了 140萬小時志願服務時間 " class="cls-1" d="M53.3,19.955a16.119,16.119,0,0,0,3.426-4.244h6.551V14.475H57.442V11.467h4.579v-1.2l-4.579-.033,0.033-2.857L56.1,7.39V10.23l-4.6-.033,0.017,1.27h4.6L56.1,14.508l-5.815-.033v1.236h4.9a16.657,16.657,0,0,1-1.93,2.54,12.6,12.6,0,0,1-2.431,2.089l0.8,1.2q2.323-.418,5.632-0.685t3.7-.3l0.577-.05a13.023,13.023,0,0,1,.936,1.7,3.875,3.875,0,0,0,.635-0.351q0.384-.251.535-0.334A14.079,14.079,0,0,0,61.87,18.8,8.573,8.573,0,0,0,59.848,17l-1.32.7a7.972,7.972,0,0,1,1.228.76,5.145,5.145,0,0,1,.894.877ZM69.507,7.223a10.892,10.892,0,0,1-3.091,5.547l1.053,0.852a8.113,8.113,0,0,0,1.278-1.512,17.71,17.71,0,0,0,1.028-1.83h3.442v2.139l-4.445.017v3.943L66.7,16.363v1.253h6.517v4.8h1.32V17.6L80.3,17.616V16.379H74.537V13.672H78.8V12.436H74.537L74.521,10.3l5.1-.033V9.044H70.259q0.217-.718.259-0.936t0.059-.368Zm3.71,6.45L73.2,16.379H70.059V13.672h3.158Zm17.647-.2H89.026V15.31h0.9a1.655,1.655,0,0,1-1,1.654l0.485,0.618a2.4,2.4,0,0,0,.861-0.652,2.47,2.47,0,0,0,.46-0.844,2.97,2.97,0,0,0,.134-0.86V13.472Zm16.745-6.1a49.524,49.524,0,0,0,.1,5.1l-3.108.017V9.763q0.216-.083.593-0.276t1.93-1.094l-0.835-.952a20.364,20.364,0,0,1-2.2,1.061,10.957,10.957,0,0,1-1.947.56,13.55,13.55,0,0,1-2.39.217,10.48,10.48,0,0,1,.786,1.253,11.193,11.193,0,0,0,1.42-.15,7.139,7.139,0,0,0,1.287-.3v2.406H99.838l0.017,1.253,3.409,0.017v2.79q-2.09.535-3.844,0.869l0.936,1.22,2.925-.785v2.724a0.426,0.426,0,0,1-.109.3,0.422,0.422,0,0,1-.276.134l-2.055-.05,0.468,1.3c0.156-.011.456-0.011,0.9,0a8.249,8.249,0,0,0,1.044-.025,2.7,2.7,0,0,0,.644-0.142,1.331,1.331,0,0,0,.718-1.153l0.017-3.459,2.557-.685-0.017-1.287-2.54.652-0.017-2.406h3.209a20.575,20.575,0,0,0,.936,4.194,15.937,15.937,0,0,1-3.777,2.423l1.12,0.936a17.76,17.76,0,0,0,3.242-2.105,9.062,9.062,0,0,0,1.805,2.272,2.819,2.819,0,0,0,1.1.677,1.79,1.79,0,0,0,.619.008,1.182,1.182,0,0,0,.551-0.585,10.256,10.256,0,0,0,.568-2.757l-1.3-.5a9.457,9.457,0,0,1-.418,2.323c-0.044.123-.159,0.086-0.342-0.109A13.353,13.353,0,0,1,111,19.32a7.527,7.527,0,0,1-.668-1.1,14.727,14.727,0,0,0,2.506-3.526l-1.136-.485a12.663,12.663,0,0,1-1.872,2.74,18.311,18.311,0,0,1-.668-3.208h4.328V12.486h-4.445q-0.068-.818-0.109-2.414t-0.041-2.7h-1.287Zm1.7,1.671a6.492,6.492,0,0,1,1.73,1.17,4.878,4.878,0,0,1,1.145,1.6,7.92,7.92,0,0,0,1.069-.919,5.47,5.47,0,0,0-1.236-1.612,8.154,8.154,0,0,0-1.638-1.211Zm13.135,2.891h1.772l0.016,1.4h-1.788v-1.4Zm5.164,10.226a6.9,6.9,0,0,1,.744.008,3.416,3.416,0,0,0,.877-0.05,2.324,2.324,0,0,0,.585-0.209,1.5,1.5,0,0,0,.476-0.568,2.707,2.707,0,0,0,.159-1.086L130.436,8.192l-4.345-.033v6.4h3.025l0.017,5.831a0.563,0.563,0,0,1-.109.368,0.391,0.391,0,0,1-.276.15q-0.216.017-.752,0t-0.693-.017h-0.276Zm1.554-12.816-0.033,1.387h-1.788l0.016-1.37Zm-0.033,2.59v1.42l-1.788-.017v-1.4h1.788Zm-3.61-3.776H121.1l0.016,14.253,1.287,0.033,0.017-7.887h3.125Zm-1.287,1.22-0.016,1.37-1.722.017V9.395ZM119.49,7.223q-0.534,1.638-1.1,3.024a21.849,21.849,0,0,1-1.2,2.49A20.88,20.88,0,0,1,116,14.625l1.17,0.635q0.183-.234.384-0.51T118,14.107c0.167-.245.268-0.4,0.3-0.451v8.789h1.3V10.966a32.46,32.46,0,0,0,1.07-3.275Zm15.993,13.534a0.319,0.319,0,0,1-.125.267,0.327,0.327,0,0,1-.259.117,11.372,11.372,0,0,1-1.755-.067l0.418,1.253q0.15,0,.76.017a6.7,6.7,0,0,0,.944-0.025,2.4,2.4,0,0,0,.552-0.125,1.241,1.241,0,0,0,.5-0.376,0.864,0.864,0,0,0,.234-0.56V16.48a8.5,8.5,0,0,1,.869-0.3,7.731,7.731,0,0,0,1-.368v-1.22l-1.872.618V11.868h1.922v-1.2h-1.922V7.557h-1.27v3.108h-2.172v1.2h2.172v3.776a26.5,26.5,0,0,1-2.724.769l0.786,1.1c0.066-.022.2-0.061,0.392-0.117s0.479-.147.853-0.276,0.6-.209.693-0.242v3.876Zm3.008-6.383a5.251,5.251,0,0,0,1.955-1.972,4.131,4.131,0,0,0,.36-1.036A13.671,13.671,0,0,0,141,9.445l3.142,0.017v2.389a1.8,1.8,0,0,0,.158.752,1.213,1.213,0,0,0,.493.551,2.079,2.079,0,0,0,.7.267h2.056v-1.17h-1.671a0.393,0.393,0,0,1-.468-0.418l-0.017-3.592h-5.7q-0.016,1.8-.092,2.364a7.107,7.107,0,0,1-.142.81,3.223,3.223,0,0,1-1.972,1.955Zm-0.251,7.937a13.909,13.909,0,0,0,2.424-1.044,12.312,12.312,0,0,0,2.022-1.378,18.187,18.187,0,0,0,2.164,1.479,8.937,8.937,0,0,0,2.247,1.011l0.819-1.17a10.146,10.146,0,0,1-4.261-2.155,7.332,7.332,0,0,0,2.289-4.779h-7.018v1.22h0.869a11.041,11.041,0,0,0,1.988,3.476,12.459,12.459,0,0,1-4.395,2.222Zm6.2-6.817a5.53,5.53,0,0,1-.66,1.378,8.224,8.224,0,0,1-1.028,1.228,4.015,4.015,0,0,1-.877-1.128,7.877,7.877,0,0,1-.727-1.479h3.292Zm6.3,6.416a15.75,15.75,0,0,0,3.978-2.941,13.439,13.439,0,0,0,2.707-4.161,10.435,10.435,0,0,0,1.019,2.231,13.07,13.07,0,0,0,1.454,1.972,15.81,15.81,0,0,0,1.68,1.621,15.436,15.436,0,0,0,1.746,1.262l0.8-1.1a14.918,14.918,0,0,1-4.111-3.852,11.155,11.155,0,0,1-1.821-4.453,18.865,18.865,0,0,1-.234-4.094l-4.228.017V9.662h2.891a21.774,21.774,0,0,0,.267,3.008,13.767,13.767,0,0,1-2.59,4.77,14.769,14.769,0,0,1-4.345,3.367Zm19.5-1.287,0.6,1.337,2.457-.033a1.111,1.111,0,0,0,.9-0.434,1.416,1.416,0,0,0,.318-0.869l0.016-7.435A14.48,14.48,0,0,0,179.1,9.462V8.342H168.12V9.6l9.091,0.017a15.172,15.172,0,0,1-4.044,2.924v7.586a0.673,0.673,0,0,1-.084.334,0.287,0.287,0,0,1-.183.167h-2.658ZM31.966,28.377H30.83c-0.3,1.437-1.17,1.8-2.707,1.905l-0.267.017v1.1h2.707v8.873h1.4v-11.9Zm10.311,7.654h-1.6V28.377H39.152l-5.85,7.57V37.3h5.967v2.974h1.4V37.3h1.6v-1.27Zm-3.008-5.815v5.815h-4.5Zm8.322,10.327c2.891,0,4.312-2.273,4.312-6.217s-1.421-6.216-4.312-6.216-4.312,2.273-4.312,6.216S44.7,40.542,47.591,40.542Zm0-1.27c-1.838,0-2.841-1.638-2.841-4.946s1-4.946,2.841-4.946,2.841,1.638,2.841,4.946S49.429,39.272,47.591,39.272Zm17.128-.184a2.137,2.137,0,0,1,.167.342q0.117,0.276.2,0.46l1.086-.6a6.81,6.81,0,0,0-.861-1.445,4.341,4.341,0,0,0-.861-0.777h1.955V39.49a0.549,0.549,0,0,1-.109.309,0.357,0.357,0,0,1-.242.175,6.2,6.2,0,0,1-.794.017q-0.41-.017-1.278-0.084a9.544,9.544,0,0,1,.351,1.22H65.4a8.39,8.39,0,0,0,1.27-.067,1.239,1.239,0,0,0,.969-1.17V35.914L61.979,35.9,62,35.145h4.6V30.166H56.1v4.979h4.612l-0.017.769H56.614L56.6,35.2h-1.32l0.017,0.718H54.358v1.153h0.936v4.344h1.32V37.067h4.078v1.186q-1.822.134-3.91,0.134A10.088,10.088,0,0,1,57.3,39.54Zm-4.027-7.753v0.719H57.366V31.336h3.326Zm4.646,1.888v0.752H62l-0.017-.752h3.359ZM65.3,31.336l0.017,0.719H62V31.336H65.3Zm-4.612,1.9v0.735H57.366V33.241h3.326Zm2.49,4.328L63.9,38.036l-0.894.067q-0.677.05-1.028,0.05L62,37.067,64.168,37.1Zm0.551-8.622V30.1h1.253L64.97,28.946h3.56v-1.17H64.97V26.34l-1.253.017v1.42l-2.189.017v1.153h2.206ZM54.024,27.81l-0.017,1.17h3.66V30.1l1.287,0.017,0.017-1.153L61.11,28.98l-0.017-1.17H58.971l-0.017-1.42-1.287.017v1.4H54.024Zm23.162-1.2V39.139a0.5,0.5,0,0,1-.134.326,0.389,0.389,0,0,1-.3.159q-1.3.034-2.457-.05l0.552,1.37q0.217-.017,1.3.008a3.344,3.344,0,0,0,1.755-.359,1.536,1.536,0,0,0,.635-1.454V26.607H77.186Zm-5.515,9.858A13.94,13.94,0,0,0,75.147,30.6l-1.12-.568a13.46,13.46,0,0,1-1.345,2.957A13.272,13.272,0,0,1,70.635,35.6Zm13.269-.652a10.9,10.9,0,0,0-1.429-3.041,14.461,14.461,0,0,0-2.381-2.757l-1.186.635A13.161,13.161,0,0,1,83.737,36.4Zm3.092-8.1V39.172h1.287V37.919h1.905l-0.017,1.22h1.27V27.727Zm3.175,4.378H89.318V28.9h1.888v3.191Zm-1.872,4.662V33.274h1.888l-0.017,3.475H89.335Zm8.606-5.13V29.431h3.075V28.245H97.925l-0.017-1.988H96.571v2.005l-3.008-.017v1.186h3.008V31.6l-3.593.017,0.017,1.17,8.673,0.017V31.6Zm1.7,4.16H102v-1.2l-2.373.017v-1.5l-1.354.017-0.017,1.47-5.381.017V35.78h5.381l0.017,3.993a0.368,0.368,0,0,1-.117.267,0.294,0.294,0,0,1-.251.1,2.842,2.842,0,0,1-.317.017q-0.167,0-1.571-.1,0.184,0.468.434,1.3h1.855a1.13,1.13,0,0,0,.7-0.259,1.552,1.552,0,0,0,.476-0.568,1.313,1.313,0,0,0,.142-0.526ZM93.58,37a3.834,3.834,0,0,1,1.362.969A6.534,6.534,0,0,1,96.07,39.54l1.07-.869A6.6,6.6,0,0,0,96.1,37.259a4.666,4.666,0,0,0-1.471-1.111Zm18.181-4.211V30.216h6.284V29h-6.267V26.473h-1.3V29h-6.267v1.22h6.25v2.557l-5.013-.033-0.017,1.253,11.313-.017v-1.2Zm1.321,4.194a14.3,14.3,0,0,0-2.708-2.807l-0.969.752A9.656,9.656,0,0,1,112,37.852Zm1.921-.8a11.833,11.833,0,0,1,2.758,3.442q0.3-.184,1.053-0.735a12.243,12.243,0,0,0-1.262-1.83,14.7,14.7,0,0,0-1.663-1.663Zm-10.327,3.76a11.058,11.058,0,0,0,2.573-3.96,11.211,11.211,0,0,0-1.086-.551,11.091,11.091,0,0,1-2.523,3.759Zm9.509-2.757q-0.067.184-.226,0.777a4.48,4.48,0,0,1-.309.877,1.153,1.153,0,0,1-.326.409,0.955,0.955,0,0,1-.309.159h-3.409a0.451,0.451,0,0,1-.318-0.15,0.758,0.758,0,0,1-.1-0.167V35.63h-1.27v3.893a1.254,1.254,0,0,0,.2.526,1.124,1.124,0,0,0,.51.409,1.746,1.746,0,0,0,.71.15l3.46-.017a2.691,2.691,0,0,0,.869-0.109,1.2,1.2,0,0,0,.484-0.309,3.034,3.034,0,0,0,.493-0.71,6.714,6.714,0,0,0,.41-1.069q0.2-.66.284-0.894Zm21.173-10.059H128.64l-0.017,1.186h3.008a4.127,4.127,0,0,1-.618,1.253h-1.721l-0.017,8.605,5.281,0.017V29.548l-2.056.017a5.827,5.827,0,0,0,.451-1.236h2.407v-1.2ZM133.3,33.19v1.3l-2.824-.017V33.19H133.3Zm0-2.473v1.32h-2.824v-1.32H133.3Zm-2.841,4.946H133.3v1.354h-2.824Zm-6.467.451a6.79,6.79,0,0,1-1.354,2.69,15.338,15.338,0,0,0,.243-1.763q0.092-1.044.092-1.9l0.016-6.767h2.54a4.026,4.026,0,0,1-.6,1.236h-1.454V35.58l1.955-.017,0.017,3.91a0.6,0.6,0,0,1-.084.309,0.478,0.478,0,0,1-.183.192,2.8,2.8,0,0,1-.9.033l-0.8-.067,0.451,1.27c0.1-.011.329-0.02,0.685-0.025a5.567,5.567,0,0,0,.819-0.058,2.042,2.042,0,0,0,.5-0.15,1.282,1.282,0,0,0,.509-0.476,1.222,1.222,0,0,0,.226-0.677l-0.017-4.244h1.772l0.016-5.965h-2.055q0.2-.4.535-1.236h1.6v-1.17l-6.818-.017V34.36a19.259,19.259,0,0,1-.326,3.676,7.275,7.275,0,0,1-.961,2.623l1.136,0.769a8.612,8.612,0,0,0,.552-1.044,7.335,7.335,0,0,0,.4-1.094l0.969,0.484a8.036,8.036,0,0,0,.978-1.5,9.415,9.415,0,0,0,.693-1.746ZM124.7,32l-0.017-1.236h2.49V32H124.7Zm2.473,1.17-0.017,1.237H124.7q-0.034-.869-0.017-1.253Zm-0.451,3.375a6.506,6.506,0,0,1,.9,1.4,8.463,8.463,0,0,1,.552,1.654l1.153-.6a8.26,8.26,0,0,0-1.471-2.891Zm8.974,3.893A9.394,9.394,0,0,0,133,38.237l-0.9.9a5.062,5.062,0,0,1,1.471.9,7.667,7.667,0,0,1,1.253,1.32Zm-6.751.936a6.688,6.688,0,0,0,2.807-2.289l-0.869-.836a6.577,6.577,0,0,1-1.253,1.3,6.813,6.813,0,0,1-1.554.936Zm9.675-14.186v7.7a19.422,19.422,0,0,1-.133,2.431,7.312,7.312,0,0,1-.477,1.871,6.855,6.855,0,0,1-.827,1.479l1.036,0.785a7.332,7.332,0,0,0,1.437-3.258q0.151-.9.234-2.105l2.273-.017v3.158a0.609,0.609,0,0,1-.108.334,0.417,0.417,0,0,1-.209.15,6.076,6.076,0,0,1-.97.033q-0.618-.016-0.852-0.017,0.435,1.119.485,1.287h1.487a1.464,1.464,0,0,0,.752-0.217,1.436,1.436,0,0,0,.518-0.468,0.871,0.871,0,0,0,.151-0.418V27.175Zm3.51,1.22v2.573H139.9V28.428Zm0,6.45H139.9V32.2l2.256-.017Zm4.244-.886a10.666,10.666,0,0,0,1.688,4.428,11.224,11.224,0,0,1-2.222,2.206q0.066,0.067.376,0.409t0.493,0.51q0.651-.535,1.286-1.153a10.333,10.333,0,0,0,.92-0.986,12.641,12.641,0,0,0,1.086.969,12.431,12.431,0,0,0,1.42.952l0.752-.952a18.09,18.09,0,0,1-1.938-1.4,7.171,7.171,0,0,1-.669-0.685,16.005,16.005,0,0,0,1.053-2.556,13.114,13.114,0,0,0,.585-2.974h-5.448l0.017-4.311h3.977q-0.033.385-.134,1.053a5.671,5.671,0,0,1-.2.952,0.289,0.289,0,0,1-.268.251,9.2,9.2,0,0,1-1.128-.134c-0.462-.078-0.766-0.128-0.91-0.15l0.367,1.337a7.949,7.949,0,0,0,1.889.117,1.6,1.6,0,0,0,.819-0.326,1.227,1.227,0,0,0,.5-0.71,20.451,20.451,0,0,0,.5-3.626h-6.7V41.445l1.287-.033V33.976h0.6Zm3.476-.017a17.79,17.79,0,0,1-.559,1.855q-0.294.786-.56,1.337a8.529,8.529,0,0,1-.752-1.746,9.316,9.316,0,0,1-.351-1.445h2.222Zm11.531-2.222h-2.289l0.351-.334-0.853-.8a11.273,11.273,0,0,0,2.022-2.289V27.192H154.86v1.236h4.211a6.808,6.808,0,0,1-1.487,1.437q-0.2-.117-0.577-0.317t-0.61-.317l-0.919.852A9.6,9.6,0,0,1,158,31.737h-3.76v1.236h2.24a11.878,11.878,0,0,1-1.045,2.983,7.538,7.538,0,0,1-1.813,2.264l0.969,0.869a8.812,8.812,0,0,0,2.022-2.632,13.4,13.4,0,0,0,1.137-3.484v6.7a0.462,0.462,0,0,1-.109.359,0.588,0.588,0,0,1-.376.092q-0.585.017-1.5-.05l0.451,1.353a10.209,10.209,0,0,0,1.621-.05,1.344,1.344,0,0,0,.9-0.434,1.486,1.486,0,0,0,.317-1V32.973h0.769l-0.234.8,0.719,0.167-0.7.234,0.7,1.1a15.3,15.3,0,0,0,3.994-2.038,10.921,10.921,0,0,0,2.03,1.261,12.891,12.891,0,0,0,2.2.827l0.7-1.17a12.321,12.321,0,0,1-2.222-.718,7.192,7.192,0,0,1-1.772-1.069,7.53,7.53,0,0,0,1.738-3.258h1.354V27.877l-4.779-.017a9.841,9.841,0,0,0,.4-1.3l-1.153-.384a10.529,10.529,0,0,1-1.312,2.949,8,8,0,0,1-1.58,1.7l1.17,0.718a6.234,6.234,0,0,0,1.137-1.2,8.987,8.987,0,0,0,.752,1.4q0.333,0.476.468,0.627a7.567,7.567,0,0,1-1.154.719,12.444,12.444,0,0,1-1.32.585Zm4.261-2.623a5.384,5.384,0,0,1-1.253,2.389,6.315,6.315,0,0,1-1.237-2.389h2.49Zm-5.615,12.348a6,6,0,0,0,2.073-1.019,5.375,5.375,0,0,0,1.554-1.8,6.223,6.223,0,0,0,.7-2.155h1.855q-0.051.6-.193,1.445a10.6,10.6,0,0,1-.275,1.278,0.475,0.475,0,0,1-.243.384,1.142,1.142,0,0,1-.409.067,7.532,7.532,0,0,1-1.755-.217l0.318,1.353a9.659,9.659,0,0,0,1.587.134,1.974,1.974,0,0,0,1.212-.326,1.471,1.471,0,0,0,.443-0.743,25.168,25.168,0,0,0,.568-4.612h-2.908a9.928,9.928,0,0,0,.034-1.186h-1.3a10.156,10.156,0,0,1-.033,1.186h-2.524v1.236h2.34a5.652,5.652,0,0,1-.485,1.362,4.364,4.364,0,0,1-.927,1.253,4.26,4.26,0,0,1-1.178.81,4.488,4.488,0,0,1-1.17.351ZM171.588,27.71V39.172h1.286V37.919h1.905l-0.016,1.22h1.27V27.727Zm3.175,4.378h-1.889V28.9h1.889v3.191Zm-1.872,4.662V33.274h1.888l-0.016,3.475h-1.872Zm8.606-5.13V29.431h3.075V28.245h-3.091l-0.017-1.988h-1.337v2.005l-3.008-.017v1.186h3.008V31.6l-3.593.017,0.017,1.17,8.673,0.017V31.6Zm1.7,4.16h2.356v-1.2l-2.373.017v-1.5l-1.353.017-0.017,1.47-5.381.017V35.78h5.381l0.017,3.993a0.372,0.372,0,0,1-.117.267,0.3,0.3,0,0,1-.251.1,2.837,2.837,0,0,1-.318.017q-0.166,0-1.57-.1,0.183,0.468.434,1.3h1.855a1.131,1.131,0,0,0,.7-0.259,1.551,1.551,0,0,0,.476-0.568,1.3,1.3,0,0,0,.142-0.526ZM177.136,37a3.841,3.841,0,0,1,1.362.969,6.54,6.54,0,0,1,1.128,1.571l1.069-.869a6.593,6.593,0,0,0-1.036-1.412,4.669,4.669,0,0,0-1.47-1.111Zm15.892-8.588v0.8h-3.259l0.017-.819Zm3.844,2h3.192v0.869h-3.192V30.417Zm3.225,2.055V39.49a0.474,0.474,0,0,1-.4.4,8.936,8.936,0,0,1-1.838-.084l0.518,1.337c0.133-.011.351-0.014,0.652-0.008s0.559,0,.777-0.008a2,2,0,0,0,.626-0.134,1.606,1.606,0,0,0,.644-0.493,1.233,1.233,0,0,0,.275-0.794V27.175l-5.782-.017,0.017,5.3Zm-0.033-4.094v0.8h-3.192v-0.8h3.192Zm-10.261,13-0.034-8.889H194.3V27.175l-5.782.017V41.378H189.8Zm3.225-10.961v0.852h-3.259l0.017-.852h3.242Zm-1.37,2.907v5.765h6.567l0.017-5.765h-6.584Zm5.281,1.2,0.016,1.036h-4.027V34.544Zm0,2.256,0.016,1.1h-4.01v-1.1h3.994Z"/>
</svg>
