<svg xmlns="http://www.w3.org/2000/svg" width="300" height="250" viewBox="0 0 300 250">
  <defs>
    <style>
      .cls-1 {
        fill: #248700;
        fill-rule: evenodd;
      }
    </style>
  </defs>
  <path id="cta" class="cls-1" d="M195.133,185a12.314,12.314,0,0,1-3.825,3.144v6.273a1.231,1.231,0,0,1-.258.733,0.9,0.9,0,0,1-.744.367l-2.045.028-0.5-1.128h2.212a0.261,0.261,0,0,0,.16-0.141,0.545,0.545,0,0,0,.077-0.282v-6.4a12.6,12.6,0,0,0,3.352-2.495h-7.567v-1.029h9.139V185Zm14.73-1.071q-0.055.663-.236,1.692a7.574,7.574,0,0,1-.39,1.522,1.06,1.06,0,0,1-.3.4,0.785,0.785,0,0,1-.494.2,3,3,0,0,1-.375.008,6.212,6.212,0,0,1-.862-0.149l-0.335-1.169c0.168,0.046.355,0.107,0.564,0.183a4.205,4.205,0,0,0,.438.14,1.2,1.2,0,0,0,.229.007,0.229,0.229,0,0,0,.154-0.056,1.061,1.061,0,0,0,.132-0.331,8.055,8.055,0,0,0,.292-1.438h-1.558a4.9,4.9,0,0,1-.424,1.452,3.809,3.809,0,0,1-2.024,1.917l-0.417-.62-0.042,6.851a1.273,1.273,0,0,1-.167.606,1.07,1.07,0,0,1-.431.451,1.091,1.091,0,0,1-.515.141h-0.668l-0.348-1.015h0.835a0.853,0.853,0,0,0,.153-0.014c0.056-.009.084-0.1,0.084-0.268v-1.79h-0.933v1.777h-1.057v-1.777h-0.932a7.093,7.093,0,0,1-.514,1.946,4.019,4.019,0,0,1-.946,1.381l-0.793-.733a6.706,6.706,0,0,0,.716-1.071,5.228,5.228,0,0,0,.3-0.811,6.884,6.884,0,0,0,.194-1.05v-4.384l-0.333.409-0.849-.705a7.345,7.345,0,0,0,1.439-1.953,9.712,9.712,0,0,0,.815-2.4l0.931,0.38a7.358,7.358,0,0,1-.18.874h2.462a15.537,15.537,0,0,1-.724,2.242h1.461v0.648a5.049,5.049,0,0,0,1.015-.648,2.449,2.449,0,0,0,.591-0.748,3.29,3.29,0,0,0,.3-1.085h-1.53v-1.015h5.272Zm-9.222,1.621a5.751,5.751,0,0,1-.571,1.227h1.559a5.881,5.881,0,0,0,.556-1.227h-1.544Zm0.528,2.241h-0.918v1.382h0.918V187.79Zm0,2.4h-0.918v1.452h0.918v-1.452Zm1.99-2.4h-0.933v1.382h0.933V187.79Zm0,2.4h-0.933v1.452h0.933v-1.452Zm4.966,2.664v3.088h-1.057v-3.088h-2.546v-1.015h2.546v-1.493h-1.086a2.4,2.4,0,0,1-.312.7,2.885,2.885,0,0,1-.509.67l-0.764-.8a2.776,2.776,0,0,0,.709-1.17,4.284,4.284,0,0,0,.209-1.494l1.043,0.084a6.427,6.427,0,0,1-.1,1h0.808v-1.41h1.057v1.41h1.614v1.016h-1.614v1.493h2.336v1.015h-2.336Zm16.024,3a24.939,24.939,0,0,1-4.353-.571,12.91,12.91,0,0,1-2.658-.937l-0.431.295a9.68,9.68,0,0,1-3.992,1.34l-0.626-.945a18.247,18.247,0,0,0,1.955-.444,11.962,11.962,0,0,0,2.093-.8,9.54,9.54,0,0,1-2.017-1.8l0.807-.55a16.33,16.33,0,0,0,2.031,1.607,3.929,3.929,0,0,0,.48-0.846,4.6,4.6,0,0,0,.285-0.93h-3.784v-5.23h3.992v-1h-5.439v-1.029h11.866v1.029h-5.37v1h3.854v5.23H218.78a5.421,5.421,0,0,1-.32,1.247,4.244,4.244,0,0,1-.584,1.065,6.664,6.664,0,0,0,1.7.585,23.369,23.369,0,0,0,2.511.408q1.425,0.164,2.719.19Zm-6.218-8.782H215v1.057h2.935v-1.057ZM215,189.158v1.086h2.866l0.056-1.086H215Zm6.844,0h-2.879l-0.07,1.086h2.949v-1.086Zm0-2.086h-2.852v1.057h2.852v-1.057ZM238,190a9.643,9.643,0,0,1-.828,1.3,8.193,8.193,0,0,1-1.405,1.432,10.481,10.481,0,0,1-2,1.282,16.97,16.97,0,0,1-2.455.98,36.86,36.86,0,0,1-4.048.93l-0.695-.973a27.274,27.274,0,0,0,6.231-1.663,5.029,5.029,0,0,0-1.53-1.41l1-.578a4.4,4.4,0,0,1,1.433,1.538,11.583,11.583,0,0,0,1.356-.86,6.055,6.055,0,0,0,1.663-1.847h-3.562a11.075,11.075,0,0,1-1.579,1.142,25.379,25.379,0,0,1-2.817,1.4l-0.806-.9a17.683,17.683,0,0,0,3.5-1.7,9.846,9.846,0,0,0,2.482-2.278,16.736,16.736,0,0,1-2.6,1.305,27.808,27.808,0,0,1-4.089,1.261l-0.668-.944q1.1-.254,2.4-0.62a15.618,15.618,0,0,0,1.94-.649,4.872,4.872,0,0,0-1.557-1.184l0.973-.635a4.472,4.472,0,0,1,.814.614,5.576,5.576,0,0,1,.745.783,12.332,12.332,0,0,0,1.474-.9,13.374,13.374,0,0,0,1.294-1.1h-3.825a14.766,14.766,0,0,1-3.047,1.565l-0.918-.874a10.7,10.7,0,0,0,5.37-3.411l0.973,0.521a10.3,10.3,0,0,1-1.015,1.128h3.922v0.944a10.009,10.009,0,0,1-.938,1.079,9.875,9.875,0,0,1-1.024.923l0.821,0.451a6.821,6.821,0,0,1-.737,1.016H238V190Z"/>
</svg>
