<svg xmlns="http://www.w3.org/2000/svg" width="300" height="250" viewBox="0 0 300 250">
  <defs>
    <style>
      .cls-1 {
        fill: #4c286c;
        fill-rule: evenodd;
      }
    </style>
  </defs>
  <path class="cls-1" d="M184.018,111.874v-1.588H171.067v1.742H169.4V94.744h16.287V111.83Zm0-15.543H171.067v12.3h12.951v-12.3Zm-10.6,9.833V98.778h8.165v7.386h-8.165Zm6.5-5.8h-4.829v4.211h4.829v-4.211ZM196.6,97.83a21.836,21.836,0,0,1-.868,2.436c-0.139.258-.23,0.43-0.273,0.518l-1.6-.639a6.306,6.306,0,0,0,.6-1.058,5.468,5.468,0,0,0,.384-1.036h-1.822a8.566,8.566,0,0,1-.417,1.323,15.6,15.6,0,0,1-.911,1.917,11.615,11.615,0,0,1-1.043,1.632l-1.426-1.08a10.621,10.621,0,0,0,2.041-3.572,19.2,19.2,0,0,0,.79-5.181l1.624,0.419a27.691,27.691,0,0,1-.285,2.932H196.6V97.83ZM192.314,111.3l-0.878-1.3a1.567,1.567,0,0,0,.857-0.816V100.85h1.668v7.7l2.634-1.411v1.874Zm10.581-5.049a5.641,5.641,0,0,1-.626,2.535,5.729,5.729,0,0,1-1.767,2.095,10.582,10.582,0,0,1-4.544,1.807l-0.834-1.741a7,7,0,0,0,5.071-2.05,5.386,5.386,0,0,0,.767-1.279,3.972,3.972,0,0,0,.265-1.521v-1.654H202.9v1.808Zm-6.805-4.475v-1.61h5.4V99.506h-4.3V94.744h4.3v-1.72h1.668v1.72h4.236v4.762h-4.236v0.661h5.553v1.61H196.09Zm9.724,6.9v-4.806h-7.047v5.2H197.1v-6.812h10.3v6.415h-1.58ZM201.49,96.353h-2.634V97.9h2.634V96.353Zm6.76,16.16a12.494,12.494,0,0,0-2.282-1.477,15.372,15.372,0,0,0-3.623-1.213l0.835-1.455a17.16,17.16,0,0,1,6.057,2.624Zm-2.436-16.16h-2.656V97.9h2.656V96.353Zm13.872,10.583q-0.594-.728-1.328-1.5a7.557,7.557,0,0,0-1.284-1.124v8.576H215.34v-8.333a17.069,17.069,0,0,1-2.5,2.182l-1.251-1.389a28.128,28.128,0,0,0,3.434-2.976,19.121,19.121,0,0,0,2.491-3.285h-5.4l0.044-1.609h7.265v1.455a20.383,20.383,0,0,1-2.37,3.793l0.022,0.771,0.636-.639a6.851,6.851,0,0,1,1.383.937,19.01,19.01,0,0,1,1.888,1.929ZM217.491,96.6q-0.2.089-.713,0.375a7.8,7.8,0,0,1-.846.419,10.43,10.43,0,0,0-2.217-3.593L215.142,93a16.983,16.983,0,0,1,1.273,1.532A8.859,8.859,0,0,1,217.491,96.6Zm0.7,14.772v-1.676H223.9v-7.87h-4.741v-1.61H223.9V93.157h1.734v7.055h5.027l-0.044,1.61h-4.983v7.87h5.8v1.676H218.193ZM251.93,104a21.271,21.271,0,0,1-2.315-1.433,17.847,17.847,0,0,1-2.119-1.7v0.905h-8.714v-0.861a22.652,22.652,0,0,1-1.756,1.467,28.147,28.147,0,0,1-2.393,1.576l-1.3-1.3a18.579,18.579,0,0,0,4.214-2.8,24.253,24.253,0,0,0,3.008-3.219,24.5,24.5,0,0,0,2.283-3.616l1.514,0.706-0.483.75q1.383,1.831,2.272,2.877a20.314,20.314,0,0,0,1.976,2.017,17.044,17.044,0,0,0,2.4,1.785l2.524,1.566Zm-1.844,8.312a10.494,10.494,0,0,0-1.163-1.323l-8.407,1.08-3.293.507-1.053-1.9a33.765,33.765,0,0,0,3.3-2.535,25.444,25.444,0,0,0,2.71-2.668h-6.958v-1.5h15.76v1.5h-8.055l1.031,0.772q-1.23,1.278-2.349,2.315a18.15,18.15,0,0,1-2.9,2.116l8.5-1.058a15.187,15.187,0,0,0-2.13-1.213l1.119-1.124a7.339,7.339,0,0,1,.759.364q0.469,0.253,2.029,1.246,0.923,0.794,1.427,1.256a7.354,7.354,0,0,1,.944,1.059Zm-3.205-12.126a23.081,23.081,0,0,1-1.9-1.752,20.59,20.59,0,0,1-1.943-2.37,18.715,18.715,0,0,1-1.581,2.039q-1.076,1.246-1.909,2.083h7.331ZM175.9,138.083h-8.34a13.666,13.666,0,0,1-2.81-.286,9.576,9.576,0,0,1-4-1.809,12.594,12.594,0,0,1-.955,1.258,22.3,22.3,0,0,1-1.547,1.675L157,137.709a18.089,18.089,0,0,0,2.546-2.933,15.935,15.935,0,0,1-2.129-3.506l1.339-.771q0.131,0.22.548,1.047t0.659,1.213a4.533,4.533,0,0,0,.438.606,8.249,8.249,0,0,0,.56-1.289,12.588,12.588,0,0,0,.451-2.679h-3.732v-1.39a19.671,19.671,0,0,0,2.1-2.6,17.674,17.674,0,0,0,1.525-2.689h-3.972V121.13H163.1v1.454a19.1,19.1,0,0,1-3.161,5.226h3.14a15.561,15.561,0,0,1-1.537,6.745,6.871,6.871,0,0,0,2.832,1.533,19.5,19.5,0,0,0,5.487.43q3.511-.045,6.695-0.221Zm-6.168-4.013v2.095H168.06V134.07H163.1v-1.587h4.961v-1.3h-4.127V129.6h4.127v-1.322h-3.709v-1.588h3.709V125.34H162.9v-1.588h5.158V122.54h-3.709v-1.587h3.709v-1.741h1.668v1.741h4.785v2.8h1.449v1.588h-1.449v2.933h-4.785V129.6h5.048v1.587h-5.048v1.3h6.234v1.587h-6.234Zm3.117-11.53h-3.117v1.212h3.117V122.54Zm0,2.8h-3.117v1.345h3.117V125.34Zm24.935,12.566H187.419a12.385,12.385,0,0,1-1.854-.352,6.876,6.876,0,0,1-1.6-.651,10.381,10.381,0,0,1-1.415-.98l-2.942,2.425-1.251-1.3A28.734,28.734,0,0,0,182,134.291v-6.062h-2.875v-1.61h4.543v8.113a6.681,6.681,0,0,0,4.654,1.565h7.616q0.7,0,2.5-.154Zm-14.729-13.6a6.992,6.992,0,0,0-1.195-1.962,9.677,9.677,0,0,0-1.636-1.72l1.361-.97a11.544,11.544,0,0,1,2.875,3.549Zm1.691,3.55v-1.61H190.3v-2.6h-2.59a8.934,8.934,0,0,1-1.777,2.071l-1.449-1.1a8.279,8.279,0,0,0,2.94-4.652l1.559,0.551a8.489,8.489,0,0,1-.461,1.521H190.3v-2.91h1.669v2.91h4.17v1.61h-4.17v2.6h5.662v1.61H184.742Zm9.438,7.65v-1.081h-6.3V135.5h-1.669v-6.747h9.636V135.5H194.18Zm0-5.137h-6.3v2.446h6.3v-2.446Zm25.528,8.444a39.75,39.75,0,0,1-6.87-.893,20.492,20.492,0,0,1-4.193-1.466l-0.68.463a15.386,15.386,0,0,1-6.3,2.094l-0.988-1.478a29.49,29.49,0,0,0,3.085-.693,19.089,19.089,0,0,0,3.3-1.246,14.972,14.972,0,0,1-3.183-2.823l1.273-.859a26,26,0,0,0,3.205,2.513,6.084,6.084,0,0,0,.757-1.323,7.031,7.031,0,0,0,.45-1.455H203.6v-8.178h6.3V121.9h-8.582v-1.61h18.723v1.61h-8.473v1.566h6.08v8.178h-6.409a8.419,8.419,0,0,1-.505,1.951,6.55,6.55,0,0,1-.922,1.665,10.557,10.557,0,0,0,2.678.915,36.937,36.937,0,0,0,3.962.639q2.25,0.254,4.291.3ZM209.9,125.075h-4.631v1.654H209.9v-1.654Zm-4.631,3.263v1.7h4.521l0.089-1.7h-4.61Zm10.8,0H211.52l-0.109,1.7h4.653v-1.7Zm0-3.263h-4.5v1.654h4.5v-1.654Zm14,4.366a42.512,42.512,0,0,1-1.076,8.025,2.917,2.917,0,0,1-.68,1,1.644,1.644,0,0,1-.966.562,4.1,4.1,0,0,1-.889-0.011q-0.494-.056-1.087-0.155l-0.724-.121-0.439-1.719,2.5,0.374a0.434,0.434,0,0,0,.428-0.143,1.659,1.659,0,0,0,.285-0.507,4.7,4.7,0,0,0,.209-0.826c0.058-.338.094-0.53,0.109-0.574,0.029-.161.085-0.47,0.165-0.926s0.16-1.08.241-1.874,0.136-1.3.165-1.521h-4.983l1.054-6.129h3.973v-2.778h-5.334v-1.587h7v5.953h-4.346l-0.5,2.954h4.9Zm10.755,9.59-1.053-1.609-8.934,1.168-0.9-1.654q1.779-.087,4.96-0.44v-3.329H232.35v1.388h-1.668v-7.539H234.9v-0.9H231.67v-5.357h8.407v5.357h-3.512v0.9h4.324v7.253h-1.668v-1.1h-2.656v3.174l1.954-.33-1.361-1.1,1.449-.75a12.852,12.852,0,0,1,2.041,1.8,8.2,8.2,0,0,1,1.558,2.171ZM234.9,128.6H232.35v2.976H234.9V128.6Zm3.513-6.261h-5.158v2.182h5.158v-2.182Zm0.812,6.261h-2.656v2.976h2.656V128.6Zm23.6,9.766a24.135,24.135,0,0,1-2.612-1.841,13.266,13.266,0,0,1-2.294-2.381,14.1,14.1,0,0,1-1.778-3.24,20.965,20.965,0,0,1-1.174-4.707,24.869,24.869,0,0,1-1.12,4.067,14.8,14.8,0,0,1-1.668,3.22,13.791,13.791,0,0,1-2.348,2.59,19.328,19.328,0,0,1-3.183,2.183l-1.251-1.522a13.749,13.749,0,0,0,3.062-1.973,13.067,13.067,0,0,0,2.294-2.536,14.35,14.35,0,0,0,1.536-2.9,16.628,16.628,0,0,0,.878-3.13h-6.694v-1.676h6.847a46.717,46.717,0,0,0,.154-5.555,8.346,8.346,0,0,0,.966.154q0.593,0.066.812,0.11a52.875,52.875,0,0,1-.11,5.291h7.88V126.2h-6.453a19.21,19.21,0,0,0,1.427,4.663,12.713,12.713,0,0,0,2.348,3.384,17.119,17.119,0,0,0,3.666,2.8Zm-65.783,10.359q-0.022.594-.044,2.624t-0.077,3.218q-0.055,1.191-.165,2.535t-0.383,2.845a21.808,21.808,0,0,1-.715,2.844,3.844,3.844,0,0,1-.657,1.179,1.729,1.729,0,0,1-1.032.65,3.758,3.758,0,0,1-1.021,0,21.525,21.525,0,0,1-2.886-.683l-0.286-1.852a16.207,16.207,0,0,0,3.315.926,0.84,0.84,0,0,0,.834-0.4,13.978,13.978,0,0,0,.724-2.6,37.369,37.369,0,0,0,.461-3.714q0.175-2.172.264-6.052H190.69a18.145,18.145,0,0,1-2.546,4.63L187,154.152v9.832h-1.733v-1.433h-3.644v1.786h-1.734V149.059h2.019a13.739,13.739,0,0,0,1.339-3.881l1.581,0.64a14.677,14.677,0,0,1-1.185,3.241H187v4.431A20.686,20.686,0,0,0,190.3,145l1.756,0.4c-0.044.25-.106,0.536-0.187,0.86s-0.212.764-.394,1.322-0.3.941-.363,1.147h5.927Zm-11.765,1.94h-3.644v4.255h3.644v-4.255Zm0,5.865h-3.644v4.408h3.644v-4.408Zm7.2,2.931a18.651,18.651,0,0,0-2.985-5.18l1.361-.905a19.358,19.358,0,0,1,1.91,2.624,16.633,16.633,0,0,1,1.3,2.756Zm16.243-.418q-0.593-.729-1.328-1.5a7.557,7.557,0,0,0-1.284-1.124V165h-1.734v-8.333a17.069,17.069,0,0,1-2.5,2.182l-1.251-1.389a28.128,28.128,0,0,0,3.434-2.976,19.05,19.05,0,0,0,2.492-3.285h-5.4l0.044-1.61h7.265v1.455a20.375,20.375,0,0,1-2.37,3.793l0.022,0.772,0.636-.64a6.851,6.851,0,0,1,1.383.937,19.01,19.01,0,0,1,1.888,1.929Zm-2.2-10.341c-0.131.059-.37,0.184-0.713,0.375a7.671,7.671,0,0,1-.846.419,10.439,10.439,0,0,0-2.216-3.593l1.426-.794a16.976,16.976,0,0,1,1.273,1.532A8.841,8.841,0,0,1,206.516,148.705Zm0.7,14.772V161.8h5.706V153.93h-4.741v-1.609h4.741v-7.054h1.734v7.054h5.027l-0.044,1.609h-4.983V161.8h5.8v1.676H207.219Zm17.164,0.551-0.022-17.5H241.2v1.587H226.029v14.331H241.92v1.587H224.383Zm13.807-2.293-0.352-.617a25.087,25.087,0,0,0-1.646-2.47q-0.987-1.321-1.932-2.381a21.323,21.323,0,0,1-2.151,2.514,30.235,30.235,0,0,1-3.687,3.086l-1.295-1.41a21.258,21.258,0,0,0,6.014-5.49q-1.077-1.191-2.59-2.568t-3.051-2.547l1.251-1.036a48.178,48.178,0,0,1,5.311,4.718,52.839,52.839,0,0,0,2.986-4.784l1.405,0.772q-1.186,2.337-2.108,3.769l-1.1,1.521q0.768,0.816,1.657,1.907a26.329,26.329,0,0,1,1.591,2.161q0.7,1.071,1.142,1.885Z"/>
</svg>
