<svg xmlns="http://www.w3.org/2000/svg" width="300" height="250" viewBox="0 0 300 250">
  <defs>
    <style>
      .cls-1 {
        fill: #4c286c;
        fill-rule: evenodd;
      }
    </style>
  </defs>
  <path class="cls-1" d="M163.507,92.966a42.424,42.424,0,0,1-1.788,4.726V111.74H160.13V100.969a16.689,16.689,0,0,1-1.555,2.055A9.807,9.807,0,0,1,157.2,104.4L156,103.211a11.122,11.122,0,0,0,1.6-1.616,16.056,16.056,0,0,0,1.8-2.869q0.948-1.847,2.714-6.529ZM175.2,111.85a15.7,15.7,0,0,1-3.145-2.22,20.431,20.431,0,0,1-2.593-2.792,20.832,20.832,0,0,1-2.813,2.726A17.544,17.544,0,0,1,163,111.74l-1.015-1.406a19.345,19.345,0,0,0,3.475-2.089,19.1,19.1,0,0,0,3.012-2.77,22.271,22.271,0,0,1-3.442-9.519h-1.61V94.373h10.79v1.473q-0.023.154-.1,0.648t-0.43,1.9a23.429,23.429,0,0,1-1.048,3.111,21.285,21.285,0,0,1-1.2,2.572q-0.507.869-.86,1.352a18.979,18.979,0,0,0,2.526,2.825,15.079,15.079,0,0,0,3.056,2.188ZM166.75,95.956a17.5,17.5,0,0,0,.729,3.693,18.951,18.951,0,0,0,2.029,4.331,16.254,16.254,0,0,0,1.182-2.066,17.965,17.965,0,0,0,1.1-2.9,19.693,19.693,0,0,0,.651-3.056H166.75Zm30.783,15.015-8.959-.066a7.176,7.176,0,0,1-2.9-.638,6.691,6.691,0,0,1-2.328-1.736q-0.066.045-1.6,1.286t-2.284,1.792l-1.1-1.275a50.385,50.385,0,0,0,4.193-3.166v-6.2H178.8V99.364h5.318v7.584a5.418,5.418,0,0,0,1.059,1.121,5.614,5.614,0,0,0,1.611.957,5.381,5.381,0,0,0,1.832.362l3.883,0.088,3.4-.088,2.251-.153ZM182.925,97.6a15.773,15.773,0,0,0-3.442-4.067l1.3-.879a14.535,14.535,0,0,1,3.488,3.891Zm12.137,0.2v9.563a2.666,2.666,0,0,1-.354.846,1.711,1.711,0,0,1-.706.649,5.326,5.326,0,0,1-.661.131,4.684,4.684,0,0,1-.63.044h-1.2l-0.6-1.736a17.029,17.029,0,0,0,2.251.132,0.5,0.5,0,0,0,.221-0.242V97.8h-8.364V96.286h8.364V92.307h1.677v3.979h2.67V97.8h-2.67Zm-4.458,7.3a16.766,16.766,0,0,0-4.215-4.265l1.281-1.1A18.068,18.068,0,0,1,190,101.716a14.852,14.852,0,0,1,1.908,2.352Zm29.327,5.716c-0.132.074-.368,0.22-0.706,0.44a5.131,5.131,0,0,1-.839.462,17.03,17.03,0,0,0-1.236-2.243q-0.242.023-.761,0.066t-4.888.4q-4.37.351-7.436,0.9l-1.059-1.583a16.586,16.586,0,0,0,3.211-2.748,21.935,21.935,0,0,0,2.548-3.341H202.3v-1.605H210V97.583h-6.068V95.912L210,95.956V92.2h1.787l-0.044,3.76L217.791,96v1.583h-6.047v3.979h7.7v1.605H210.8a21.231,21.231,0,0,1-4.523,5.584l9.709-.813a6.772,6.772,0,0,0-1.181-1.155,10.438,10.438,0,0,0-1.622-1l1.744-.923a11.286,11.286,0,0,1,2.67,2.374A18.5,18.5,0,0,1,219.931,110.817Zm4.435-8.156v-1.825h17.1v1.825h-17.1Zm32.019,2.99v6.332h-1.744v-6.332h-8.606v-1.6h2.759V98.858h5.847V96H250.1a18.6,18.6,0,0,1-1.578,2.737,12.222,12.222,0,0,1-1.467,1.682L245.66,99.3a14.312,14.312,0,0,0,4.083-7.3l1.412,0.682c-0.015.132-.041,0.293-0.077,0.483s-0.151.6-.342,1.231h12.357V96h-6.708v2.858h5.627v1.605h-5.627v3.583H264v1.6h-7.613Zm-1.744-5.188h-4.17v3.583h4.17v-3.583Zm-78.556,32.774a13.579,13.579,0,0,1-.75,3.627,1.565,1.565,0,0,1-.729.77,2.346,2.346,0,0,1-.816-0.012,3.712,3.712,0,0,1-1.457-.89,11.963,11.963,0,0,1-2.383-2.99,23.416,23.416,0,0,1-4.281,2.771l-1.479-1.232a21.032,21.032,0,0,0,4.987-3.187,27.006,27.006,0,0,1-1.235-5.519h-4.259v3.166l3.421-.857v1.692l-3.421.9v4.55a1.725,1.725,0,0,1-.927,1.518,3.594,3.594,0,0,1-.85.186,10.891,10.891,0,0,1-1.379.033q-0.882-.021-1.191,0l-0.618-1.714,2.714,0.065a0.553,0.553,0,0,0,.365-0.175,0.561,0.561,0,0,0,.143-0.4v-3.583L158.078,133l-1.236-1.605q2.406-.462,5.1-1.143v-3.672h-4.524v-1.67h4.524v-3.166a9.507,9.507,0,0,1-1.722.395,15.233,15.233,0,0,1-1.9.2,13.886,13.886,0,0,0-1.037-1.648,17.9,17.9,0,0,0,3.155-.286,14.485,14.485,0,0,0,2.571-.736,27,27,0,0,0,2.9-1.4l1.1,1.253q-2.052,1.186-2.548,1.44a8.552,8.552,0,0,1-.784.362v3.584h4.1a66.094,66.094,0,0,1-.132-6.727h1.7q0,1.451.055,3.55t0.143,3.177h5.871v1.67h-5.716a24.1,24.1,0,0,0,.883,4.2,16.7,16.7,0,0,0,2.471-3.605l1.5,0.638a19.38,19.38,0,0,1-3.31,4.638,9.888,9.888,0,0,0,.882,1.451,17.689,17.689,0,0,0,1.225,1.594q0.364,0.384.452,0.143a12.469,12.469,0,0,0,.552-3.056Zm-0.972-10.421a10.37,10.37,0,0,1-1.411,1.21,6.4,6.4,0,0,0-1.513-2.111,8.567,8.567,0,0,0-2.283-1.539l1.412-1.275a10.733,10.733,0,0,1,2.162,1.594A7.181,7.181,0,0,1,175.113,122.816Zm9.533-4.264a43.879,43.879,0,0,1-1.3,5.495v13.675h-1.677V127.455a10.285,10.285,0,0,1-.948,1.528,13.6,13.6,0,0,1-1.17,1.418l-1.28-1.143a18.139,18.139,0,0,0,3.034-4.683,25.787,25.787,0,0,0,1.8-6.507Zm3.112,4.4a9.057,9.057,0,0,0-2.56-3.451l1.368-.835a7.88,7.88,0,0,1,2.67,3.384Zm-2.3,14.774v-14.6h1.677v14.6h-1.677Zm11.894-1.715a1.462,1.462,0,0,1-1.236,1.385,11.057,11.057,0,0,1-2.626.066l-0.6-1.737,2.516,0.176a0.293,0.293,0,0,0,.2-0.111,0.622,0.622,0,0,0,.066-0.351v-14.4h-6.266v-1.605h7.944v16.576Zm19.683,0.967v-1.583H204.021v1.737h-1.677V119.893h16.373V136.93Zm0-15.5H204.021v12.266H217.04V121.476Zm-10.658,9.8v-7.365h8.209v7.365h-8.209Zm6.532-5.782h-4.855v4.2h4.855v-4.2Zm16.77-2.527a21.958,21.958,0,0,1-.872,2.429c-0.14.256-.231,0.428-0.275,0.516l-1.611-.637a6.349,6.349,0,0,0,.607-1.055,5.432,5.432,0,0,0,.386-1.034h-1.832a8.365,8.365,0,0,1-.419,1.32,15.5,15.5,0,0,1-.916,1.911,11.614,11.614,0,0,1-1.048,1.628l-1.434-1.077a10.588,10.588,0,0,0,2.052-3.562,19.025,19.025,0,0,0,.795-5.166l1.632,0.418a27.121,27.121,0,0,1-.287,2.923h3.222v1.386Zm-4.3,13.431-0.883-1.3a1.559,1.559,0,0,0,.861-0.814v-8.309h1.677v7.672l2.648-1.407v1.869Zm10.637-5.034a5.588,5.588,0,0,1-.629,2.528,5.736,5.736,0,0,1-1.777,2.089,10.694,10.694,0,0,1-4.568,1.8l-0.838-1.736a7.064,7.064,0,0,0,5.1-2.044,5.365,5.365,0,0,0,.772-1.276,3.929,3.929,0,0,0,.266-1.516v-1.65h1.677v1.8Zm-6.841-4.463v-1.6h5.428v-0.66H230.28v-4.748h4.325v-1.715h1.677v1.715h4.259v4.748h-4.259v0.66h5.583v1.6H229.177Zm9.775,6.881v-4.792h-7.084v5.188h-1.677v-6.793h10.35v6.4h-1.589ZM234.605,121.5h-2.648v1.539h2.648V121.5Zm6.8,16.114a12.593,12.593,0,0,0-2.295-1.472,15.387,15.387,0,0,0-3.642-1.209l0.84-1.451a17.3,17.3,0,0,1,6.089,2.616Zm-2.45-16.114h-2.67v1.539h2.67V121.5Zm23.1-.571a19.44,19.44,0,0,1-6.068,4.9v9.783a1.9,1.9,0,0,1-.408,1.144,1.44,1.44,0,0,1-1.182.57l-3.243.044-0.794-1.758h3.508a0.413,0.413,0,0,0,.254-0.22,0.829,0.829,0,0,0,.121-0.44v-9.98a19.962,19.962,0,0,0,5.318-3.891h-12v-1.605h14.5v1.451Zm-79.682,41.853V165H180.83v-2.244c-3.223-.263-5.474-1.913-5.518-5.475h1.92c0.044,2.507,1.544,3.562,3.6,3.783v-5.959l-0.222-.044c-2.67-.594-4.766-1.671-4.766-4.529,0-2.419,1.941-3.959,4.988-4.09v-2.2h1.544v2.265c3.708,0.351,4.9,2.506,4.965,4.837h-1.9c-0.132-1.737-.861-2.88-3.068-3.166v5.453l0.464,0.11c3.619,0.791,4.9,2.2,4.9,4.463C187.737,160.844,185.817,162.625,182.374,162.779Zm-1.544-9.5v-5.167c-2.031.11-3.068,1.034-3.068,2.419S178.38,152.666,180.83,153.281Zm4.987,4.925c0-1.429-.949-2.155-3.443-2.748v5.651C184.56,160.976,185.817,160.009,185.817,158.206Zm8.8,4.244h-1.854V150.775h-3.575v-1.452l0.353-.022c2.031-.132,3.178-0.616,3.576-2.506h1.5V162.45Zm2.317-1.144a1.292,1.292,0,0,1,2.582,0A1.291,1.291,0,1,1,196.938,161.306Zm14.653-.527v1.671H201.218l0.044-.858a6.407,6.407,0,0,1,3.421-5.738l1.986-1.144c1.9-1.1,2.76-2.088,2.76-3.737a2.789,2.789,0,0,0-3.112-2.859c-1.965,0-3.289.967-3.289,3.364H201.2c-0.044-3.232,1.921-5.035,5.165-5.035,2.978,0,5.009,1.869,5.009,4.53,0,2-1.059,3.649-3.575,5.1l-1.677.968c-1.81,1.055-2.693,2-2.825,3.738h8.3Zm12.026-3.255a5.106,5.106,0,0,1-5.451,5.277c-3.045,0-5.164-1.89-5.34-4.7h1.853a3.31,3.31,0,0,0,3.487,3.034,3.607,3.607,0,0,0,0-7.211,3.284,3.284,0,0,0-3.222,1.891h-1.722l1.325-9.015h8.121v1.671h-6.621l-0.75,4.925a4.5,4.5,0,0,1,2.98-1.143A4.991,4.991,0,0,1,223.617,157.524Zm8.627-12.684a26.281,26.281,0,0,1-1.92,6.53v12.487h-1.656v-9.674a7.757,7.757,0,0,1-.794,1.122,13.346,13.346,0,0,1-1.434,1.385l-1.082-1.319a16.258,16.258,0,0,0,4.7-7.87,31.632,31.632,0,0,0,.751-3.276Zm13.173,14.6a8.084,8.084,0,0,1-.905,2.671,1.317,1.317,0,0,1-1.081.583H233.3a1.241,1.241,0,0,1-.618-0.242,2.025,2.025,0,0,1-.595-0.572,2.813,2.813,0,0,1-.386-1.165,1.79,1.79,0,0,1,.187-1.122q2.052-2.792,4.921-6.408t4.568-5.484h-8.518v-1.606h11.011l-0.044,1.562q-1.876,1.977-4.181,4.748t-5.793,7.365c-0.03.044-.084,0.128-0.166,0.253a1.682,1.682,0,0,0-.176.34,0.559,0.559,0,0,0-.011.33,0.2,0.2,0,0,0,.055.132,1.98,1.98,0,0,0,.409.263h8.87a0.7,0.7,0,0,0,.6-0.373,4.217,4.217,0,0,0,.209-1.034c0.052-.468.092-0.791,0.122-0.967Z"/>
</svg>
