<svg id="Frame_3" data-name="Frame 3" xmlns="http://www.w3.org/2000/svg" width="600" height="500" viewBox="0 0 600 500">
  <defs>
    <style>
      .cls-1 {
        fill: #4b286d;
        fill-rule: evenodd;
      }
    </style>
  </defs>
  <path id="使用TELUS_智能插座及灯泡_" data-name="使用TELUS 智能插座及灯泡 " class="cls-1" d="M240.3,98.842q-9.761-1.119-15.4-4.36a15.422,15.422,0,0,0,1.3-2.82,27.048,27.048,0,0,0,.94-4.5h9.24V76.122h-9.12V73.4l10.8,0.08v-3.04h-10.8v-4.52H224.1v4.52h-10.48l1.04-3.36-2.8-1.04q-1.72,5.52-3.2,9.04a37.009,37.009,0,0,1-5.76,9.52l2.24,2q2.559-3.279,3.4-4.52v20.2h2.88V76.442l1.2-3.04,11.48,0.08v2.64h-9.04v11.16l8.88-.08a15.525,15.525,0,0,1-.64,3.32,11.869,11.869,0,0,1-1,2.12,24.541,24.541,0,0,1-4.48-4.84l-2.6,1.64a44.159,44.159,0,0,0,5.08,5.6q-2.441,2.52-8.04,4.48l2.36,2.68a34.454,34.454,0,0,0,5.18-2.84,22.965,22.965,0,0,0,3.14-2.48,25.284,25.284,0,0,0,7.32,3.18,38.178,38.178,0,0,0,8.2,1.66Zm-6.96-14.6h-6.08v-5.2h6.08v5.2Zm-9.24,0h-6.16v-5.08h6.16v5.08Zm51.92-16.4h-26.64v17.8a26.379,26.379,0,0,1-.44,4.76,19.022,19.022,0,0,1-1.32,4.36,25.471,25.471,0,0,1-3.72,5.6l2.56,1.92a24.227,24.227,0,0,0,4.28-6.64,28.178,28.178,0,0,0,1.56-7.04h8.8v9.56h3.04V88.6h8.72v8.6a0.682,0.682,0,0,1-.6.84,10.9,10.9,0,0,1-1.5.06q-0.78-.02-2.74-0.1l0.96,3.12,4.56-.08a2.6,2.6,0,0,0,1.1-.5,3.257,3.257,0,0,0,.98-1.24,3.47,3.47,0,0,0,.4-1.5V67.842Zm-3.16,8.76h-8.72v-5.84h8.72V76.6Zm0,9.08h-8.72v-6.16h8.72v6.16ZM261.1,76.6h-8.68v-5.84h8.68V76.6Zm0,9.08h-8.68v-6.16h8.68v6.16Zm43.845-14.806H282.1v3.041h9.682V99.362h3.481V73.917h9.682V70.876Zm23.4,3.041V70.876H308.544V99.362h19.645V96.322H311.9V86.039h14.843V83H311.9V73.917h16.444Zm7.156,22.4V70.876h-3.361V99.362h17.684V96.322H335.505Zm28.721,3.641c7.122,0,11.2-4.041,11.2-11.162V70.876h-3.36V88.8c0,5.6-2.881,8.122-7.842,8.122s-7.842-2.521-7.842-8.122V70.876h-3.36V88.8C353.024,95.921,357.1,99.962,364.226,99.962Zm26.64,0.04c6.841,0,10.682-3.32,10.682-8.361,0-4.121-2.32-6.681-8.882-8.122l-2.52-.56c-5.361-1.2-6.682-2.561-6.682-5.281,0-2.681,2.121-4.4,6.242-4.4,5.681,0,7.4,2.2,7.681,5.881h3.441c-0.12-4.641-2.721-8.922-11.122-8.922-5.922,0-9.722,2.881-9.722,7.442,0,5.2,3.8,7.162,8.641,8.242l2.521,0.56c5.041,1.12,6.921,2.441,6.921,5.161,0,3.521-2.64,5.321-7.2,5.321-4.641,0-8.282-1.72-8.362-7h-3.481C379.1,97.082,384.064,100,390.866,100ZM197,130.042V116.8H183.763v13.24H197Zm-3.761,19.88v-16.84L170.924,133a10.287,10.287,0,0,0,3.32-2.72,14.12,14.12,0,0,1,3,.44,32.775,32.775,0,0,1,4.76,1.8l1.6-2.44a15.173,15.173,0,0,0-3.14-1.44,28.483,28.483,0,0,0-4.78-1.04l0.32-.72h6.641v-2.92h-6.2a15.16,15.16,0,0,0,.2-3.52h4.68v-2.92h-9.24a8.135,8.135,0,0,0,.68-2.2l-2.92-1.12a16.06,16.06,0,0,1-1.48,4.76,10.736,10.736,0,0,1-2.96,3.56l2.8,1.24a15.371,15.371,0,0,0,1.759-1.62,8.728,8.728,0,0,0,1.281-1.7h2.4a13.332,13.332,0,0,1-.2,3.52H165.6v2.92h7.079a6.356,6.356,0,0,1-1.439,2.16,9.6,9.6,0,0,1-2.881,1.94,16.485,16.485,0,0,1-3.96,1.26l1.44,3a18.348,18.348,0,0,0,2.861-.92,11.249,11.249,0,0,0,1.86-.92v16.72H173.6v-2.56h16.6v2.36h3.039Zm0.72-22.8H186.8v-7.4h7.16v7.4Zm-3.759,11.76H173.6V136h16.6v2.88Zm0,5.76H173.6V141.8h16.6v2.84Zm45.12-21.2q-0.881,5.361-1.88,5.36h-5.28a3.041,3.041,0,0,1-1.42-.32,0.932,0.932,0,0,1-.62-0.8v-2.92a43.235,43.235,0,0,0,6.9-2.74,24.627,24.627,0,0,0,4.42-2.9l-1.84-2.28a25.417,25.417,0,0,1-4.72,2.98,27.73,27.73,0,0,1-4.76,1.94v-6.88h-3.04v13.84a3.16,3.16,0,0,0,1.18,2.08,3.794,3.794,0,0,0,2.58.92h7.12a2.511,2.511,0,0,0,1.76-.82,4.886,4.886,0,0,0,1.2-1.78,43.422,43.422,0,0,0,1.32-4.56Zm-12.84,2.28a19.29,19.29,0,0,0-5.36-7.6l-2.68,1.48a25.456,25.456,0,0,1,2.48,2.64l-8.52.72q2.76-2.319,5.76-7.96l-2.76-1.4a58.738,58.738,0,0,1-4.18,6.4,25.2,25.2,0,0,1-2.22,2.4,14.3,14.3,0,0,1-1.56,1.44l2.04,2.68q0.72-.08,4.18-0.54t5.6-.68q2.139-.219,3.62-0.3l0.72,1.92Zm13.32,15.12a19.471,19.471,0,0,1-.92,4,2.5,2.5,0,0,1-.56.88,1.229,1.229,0,0,1-.68.4h-6.16q-1.361,0-1.36-1V141.4a33.337,33.337,0,0,0,6.08-1.86,24.468,24.468,0,0,0,5.64-3.22l-2.04-2.12a26.329,26.329,0,0,1-9.68,4.2v-5.56h-3.04v12.8a3.026,3.026,0,0,0,.64,1.8,3.56,3.56,0,0,0,1.5,1.24,4.048,4.048,0,0,0,1.54.36h7.2a3.356,3.356,0,0,0,1.52-.36,2.73,2.73,0,0,0,1.12-1,10.917,10.917,0,0,0,1.14-2.34,27.28,27.28,0,0,0,.9-3.42Zm-15.64-12.8h-14.44v21.52h3.04V141.6h8.36v3.76a1.2,1.2,0,0,1-.2.64,0.69,0.69,0,0,1-.48.36,10.127,10.127,0,0,1-2.56,0q-1.56-.159-1.64-0.16l1.12,3.08a27.657,27.657,0,0,0,4.32-.12,2.691,2.691,0,0,0,1.7-1.06,3.482,3.482,0,0,0,.78-2.3v-17.76Zm-3.04,5.32h-8.36v-2.4h8.36v2.4Zm0,5.32h-8.36v-2.4h8.36v2.4Zm62-13.36V122.4h-10.84v-3.32a36.955,36.955,0,0,0,9.48-2.8l-2.08-2.36a31.036,31.036,0,0,1-7.56,2.28,85.2,85.2,0,0,1-13.36.96l1.6,3.08q3.641-.159,8.88-0.68v2.84h-9.72v-0.2h-3.04v-7.64h-3.04v7.64h-5.32v2.92h5.32v8.08q-3.8,1.761-6,2.64l2.08,2.28,3.92-1.84v9.88l-0.16.56a1.618,1.618,0,0,1-.4.34,3.132,3.132,0,0,1-1.6.14,8.458,8.458,0,0,0-1.92.04l1.24,2.92q0.441-.041,1.7-0.04a7.025,7.025,0,0,0,1.92-.2,2.84,2.84,0,0,0,1.1-.6,3.443,3.443,0,0,0,.86-1.28,4.113,4.113,0,0,0,.3-1.52v-11.64l3.44-1.56v-3.24q-2.96,1.641-3.44,1.84v-6.8h3.04v0.2h9.72v2.6l-1.84-2.16a10.152,10.152,0,0,1-2.3,2.22,14,14,0,0,1-4.1,1.82v20.4h3.04v-2.92h13.6v2.76h3.04V128h-7.6v2.92h4.56v4.8h-3.76v2.92h3.76v5.72h-5.36v-19.04h10.84Zm-13.88,19.04h-5.2v-5.72h3.88v-2.92h-3.88v-3.96a17.347,17.347,0,0,0,3.46-1.86,7.241,7.241,0,0,0,1.74-1.78v16.24Zm47.921-16.8a44.474,44.474,0,0,0,.4-4.52l-2.92-.44a19.836,19.836,0,0,1-.92,6.72,15.576,15.576,0,0,1-3.44,5.64v-13.12l-3.04-.08v11.32q-1.361-1.479-2.44-2.44a27.091,27.091,0,0,0-2.321-1.84,25.451,25.451,0,0,0,.681-5.52l-2.92-.52a15.029,15.029,0,0,1-.58,5.32,12.025,12.025,0,0,1-2,3.94,19.206,19.206,0,0,1-2.42,2.58v-13.72h27.4v-2.92h-13.2a25.118,25.118,0,0,0-1.761-2.38,17.553,17.553,0,0,0-1.959-2.06l-3.08,1.68a24.919,24.919,0,0,1,2.02,1.58,7.759,7.759,0,0,1,1.179,1.18H288.2v6.24q0,1.32.04,4.24t-0.02,5.26q-0.06,2.34-.3,4.98a16.56,16.56,0,0,1-1.78,5.74q-0.821,1.581-2.14,3.74l2.64,1.84a34.889,34.889,0,0,0,3.479-7,27.728,27.728,0,0,0,1.2-7.72l2.28,1.28a12.745,12.745,0,0,0,2.36-2.24,12.9,12.9,0,0,0,1.6-2.64,23.371,23.371,0,0,1,3.919,4l1.761-1.44v3.4H293.4v2.92h9.841v4.12h-12.08v2.92h27.88l0.079-2.92H306.284v-4.12H316.8v-2.92h-10.52V135.4l2.36,1.4a15.257,15.257,0,0,0,2.3-2.84,23.038,23.038,0,0,0,1.58-3.24,19.223,19.223,0,0,1,2.02,2.1q0.98,1.18,2.34,3.14a8.077,8.077,0,0,0,.68-0.48c0.239-.186.54-0.44,0.9-0.76s0.607-.533.741-0.64a26,26,0,0,0-6.04-6.52h0Zm46.28,19.56a33.854,33.854,0,0,1-11.84-5.6,33.732,33.732,0,0,0,5.08-6.72,21.049,21.049,0,0,0,2.52-8.28h-7.92q3.24-4.28,5.2-7.2v-2.64H327v3.04h5.36q0.12,3.561-.16,8.64-0.24,4.48-.54,6.56t-0.58,3.32q-1.041,5.081-6.16,10,0.079,0.039,1.34.8t1.9,1.08a31.029,31.029,0,0,0,5.08-7.8q1.719-3.84,2.28-12.52a36.2,36.2,0,0,0,3.08,6.42,30.519,30.519,0,0,0,4.28,5.42,30.707,30.707,0,0,1-11.44,5.68L333.4,150a29.743,29.743,0,0,0,11.8-6.28,36.394,36.394,0,0,0,12.36,6.28Zm-7.92-17.68a21.129,21.129,0,0,1-2.5,5.3,27.247,27.247,0,0,1-3.7,4.74,36.469,36.469,0,0,1-3.7-4.32,24.209,24.209,0,0,1-1.78-3.12,65.189,65.189,0,0,1-2.8-6.48q-0.8-2.319-1.28-4v-1.84h12.52q-1.84,2.76-5.28,7.08v2.64h8.52Zm48.279-9.56v-3.04h-22.44v3.04H387.4v25.64q0,1.68-1.16,1.56-2.518-.24-4.72-0.28l0.96,3.24H387.6a2.888,2.888,0,0,0,1.4-.4,3.188,3.188,0,0,0,1.22-1.34,3.94,3.94,0,0,0,.5-1.86v-26.56H399.8Zm-33.56,2.6a13.418,13.418,0,0,1-.34,4.6,14.866,14.866,0,0,1-1.82,4.44l3.2,1.08a10.07,10.07,0,0,0,1.359-3.18,19.8,19.8,0,0,0,.681-3.78,18.168,18.168,0,0,0,.039-2.64Zm13.72,20.6a16.581,16.581,0,0,0-6.56-6.24q0.2-2.12.2-7.6a17.122,17.122,0,0,0,5.2-4.72l-2.32-2.36q-1.4,2-1.9,2.6a5.22,5.22,0,0,1-1.019.96V114.8H370.4v13.8q0,4.24-.239,7.36a20.3,20.3,0,0,1-1.761,7.22,17.323,17.323,0,0,1-4.16,5.46l2.88,2.36a22.45,22.45,0,0,0,3.9-5.16,17.986,17.986,0,0,0,1.981-5.6,7.831,7.831,0,0,1,2.6,2.22,13.413,13.413,0,0,1,1.639,2.7Zm59.981-2.66q-0.981-.379-1.42-0.58l-0.36,2.2c-0.054.187-.16,0.607-0.321,1.26a3.65,3.65,0,0,1-.619,1.44,1.677,1.677,0,0,1-1.02.58H423.6l-1-.12a2.013,2.013,0,0,1-.84-0.54,1.39,1.39,0,0,1-.4-0.86v-6.16h8.96v-11.88H420.2a30.868,30.868,0,0,0,1.52-4.04h12.72q0,0.281-.14,4.08t-0.34,7.12a52.282,52.282,0,0,1-.561,5.44,0.9,0.9,0,0,1-.72.44,11.29,11.29,0,0,1-1.819-.22q-1.221-.219-1.78-0.3l0.759,3a11.4,11.4,0,0,0,4.721.12,3.6,3.6,0,0,0,2.08-2.84q0.679-6.519,1-19.88h-15.08a26,26,0,0,0,.559-4.6l-2.879-.72q-0.881,10.841-7.2,16.52l2.52,2.16q2.319-2.439,2.76-2.96v14.44l0.2,1.44a4.326,4.326,0,0,0,1.54,2.12,4.629,4.629,0,0,0,2.42,1H436a4.6,4.6,0,0,0,2.14-.4,4.442,4.442,0,0,0,1.259-1,16.157,16.157,0,0,0,2.041-5.6A14.4,14.4,0,0,0,439.944,140.422Zm-22.9-19.86a18.2,18.2,0,0,0-1.98-2.38,17.627,17.627,0,0,0-2.64-2.24,11.4,11.4,0,0,0-2.54-1.38l-2.24,1.88a17.034,17.034,0,0,1,3.8,2.56,16.563,16.563,0,0,1,3.16,3.52Zm-3.16,8.16a15.684,15.684,0,0,0-1.78-2.38,13.528,13.528,0,0,0-2.36-2.08,25.2,25.2,0,0,0-3.061-1.78l-2.519,1.84a25.106,25.106,0,0,1,2.78,1.52,11.957,11.957,0,0,1,2.3,1.98,19.384,19.384,0,0,1,2.04,2.66Zm-1.96,4.28a25.4,25.4,0,0,1-1.28,4.92,28,28,0,0,1-2.3,4.82,19.158,19.158,0,0,1-3.339,4.14l2.839,1.68q0.321-.441,1.441-1.92t1.9-2.68a19.962,19.962,0,0,0,1.421-2.6,25.928,25.928,0,0,0,1.18-3.16,27.038,27.038,0,0,0,.86-3.88q-1.041-.44-2.72-1.32h0Zm15.36,1.72h-5.92v-6.04h5.92v6.04Z"/>
</svg>
