<svg id="Frame_4" data-name="Frame 4" xmlns="http://www.w3.org/2000/svg" width="600" height="500" viewBox="0 0 600 500">
  <defs>
    <style>
      .cls-1 {
        fill: #4b286d;
        fill-rule: evenodd;
      }
    </style>
  </defs>
  <path id="家居节能更有效_" data-name="家居节能更有效 " class="cls-1" d="M195.52,109.483v-7.32H182a13.919,13.919,0,0,0-2.4-3.08,14.247,14.247,0,0,0-2.68-2.12l-2.52,1.88a30.355,30.355,0,0,1,3.18,2.52,5.634,5.634,0,0,1,.62.8H163.76v7.48h3.04v-4.56h25.68v4.4h3.04Zm1.92,18.44a11.11,11.11,0,0,1-3.46-2.16,18.732,18.732,0,0,1-3.06-3.56,15.739,15.739,0,0,1-2.04-4.16,29.24,29.24,0,0,0,4.44-4L191,112q-3.84,4.6-7.4,5.76a10.58,10.58,0,0,0-1.62-2.54,9.453,9.453,0,0,0-2.14-1.94q0.12-.079.94-0.54t1.54-.94a13.026,13.026,0,0,0,1.36-1.04h7.36v-2.92H168.48v2.92l10.04,0.04q-4.961,3-14.56,4.52l2.08,2.64a34.9,34.9,0,0,0,10.84-3.16,12.118,12.118,0,0,1,2,1.36,26.356,26.356,0,0,1-3.72,2.2,28.18,28.18,0,0,1-5.3,1.94,57.371,57.371,0,0,1-6.66,1.34l2.12,2.6a30.158,30.158,0,0,0,8.1-1.96,37.124,37.124,0,0,0,7.1-3.84,16.549,16.549,0,0,1,1.08,2.32,26.444,26.444,0,0,1-8.4,4.86,55.191,55.191,0,0,1-10.8,2.62l2.2,2.76a64.414,64.414,0,0,0,6.66-1.62,41.377,41.377,0,0,0,6.08-2.34,22.108,22.108,0,0,0,4.9-3.16,33.422,33.422,0,0,1-.16,5.36,1.749,1.749,0,0,1-.44.76,2.192,2.192,0,0,1-.72.56,13.387,13.387,0,0,1-2.92-.26,33.439,33.439,0,0,1-3.8-1.02l1.24,3.56q5.16,0.96,7,.28a3.456,3.456,0,0,0,1.78-1.38,7.752,7.752,0,0,0,.94-3.46,23.013,23.013,0,0,0-.02-3.94,29.8,29.8,0,0,0-.58-3.94l1.92-.8a23.863,23.863,0,0,0,1.64,3.58,19.537,19.537,0,0,0,3.06,4.1,12.44,12.44,0,0,0,4.26,3Zm39.36-11.6V113.4H224.12v-4.12h-3.04v4.12h-11.8v-4.44H234.8v-9.48H206.24v16.96a50.431,50.431,0,0,1-.24,5.98,20.343,20.343,0,0,1-.72,3.28,17.9,17.9,0,0,1-1.34,3.14,17.018,17.018,0,0,1-2.1,3.04l2.64,1.8a19.126,19.126,0,0,0,3.38-5.74,24.521,24.521,0,0,0,1.32-7.04q0.219-4.02.26-4.58h11.64v4.28h-9.56v12.76h3.04V131h16.36v2.36h3.04V120.6h-9.84v-4.28H236.8Zm-5.04-10.28H209.28V102.4h22.48v3.64Zm-0.84,22.04H214.56v-4.56h16.36v4.56Zm45.32-23.12v-2.88H266.4v-4.56h-3.04v4.56H255v-4.56h-3.04v4.56h-9.64l-0.08,2.88h9.72v4.64H255v-4.64h8.36v4.64h3.04v-4.64h9.84Zm-31.72,5.36v2.88h9.96v19.84h3.04V113.2h11.16q-0.081.8-.2,3.54t-0.32,4.24a24.307,24.307,0,0,1-.48,2.62,0.974,0.974,0,0,1-.76.56,32.388,32.388,0,0,1-4.32-1.12l0.84,3.32q4.4,0.96,5.68.2a3.655,3.655,0,0,0,1.12-1.14,3.858,3.858,0,0,0,.6-1.46q0.32-2.319.58-6.42t0.34-7.22H244.52Zm69.48-3.48q-0.88,5.361-1.88,5.36h-5.28a3.041,3.041,0,0,1-1.42-.32,0.932,0.932,0,0,1-.62-0.8v-2.92a43.235,43.235,0,0,0,6.9-2.74,24.627,24.627,0,0,0,4.42-2.9l-1.84-2.28a25.417,25.417,0,0,1-4.72,2.98,27.73,27.73,0,0,1-4.76,1.94v-6.88h-3.04v13.84a3.16,3.16,0,0,0,1.18,2.08,3.794,3.794,0,0,0,2.58.92h7.12a2.511,2.511,0,0,0,1.76-.82,4.886,4.886,0,0,0,1.2-1.78,43.422,43.422,0,0,0,1.32-4.56Zm-12.84,2.28a19.29,19.29,0,0,0-5.36-7.6L293.12,103a25.456,25.456,0,0,1,2.48,2.64l-8.52.72q2.76-2.319,5.76-7.96L290.08,97a58.749,58.749,0,0,1-4.18,6.4,25.2,25.2,0,0,1-2.22,2.4,14.3,14.3,0,0,1-1.56,1.44l2.04,2.68q0.72-.079,4.18-0.54t5.6-.68q2.139-.219,3.62-0.3l0.72,1.92Zm13.32,15.12a19.471,19.471,0,0,1-.92,4,2.5,2.5,0,0,1-.56.88,1.229,1.229,0,0,1-.68.4h-6.16q-1.361,0-1.36-1V124.8a33.337,33.337,0,0,0,6.08-1.86,24.468,24.468,0,0,0,5.64-3.22l-2.04-2.12a26.329,26.329,0,0,1-9.68,4.2v-5.56h-3.04v12.8a3.026,3.026,0,0,0,.64,1.8,3.56,3.56,0,0,0,1.5,1.24,4.048,4.048,0,0,0,1.54.36h7.2a3.356,3.356,0,0,0,1.52-.36,2.73,2.73,0,0,0,1.12-1,10.917,10.917,0,0,0,1.14-2.34,27.28,27.28,0,0,0,.9-3.42Zm-15.64-12.8H284.4v21.52h3.04V125h8.36v3.76a1.2,1.2,0,0,1-.2.64,0.69,0.69,0,0,1-.48.36,10.127,10.127,0,0,1-2.56,0q-1.56-.159-1.64-0.16l1.12,3.08a27.657,27.657,0,0,0,4.32-.12,2.691,2.691,0,0,0,1.7-1.06,3.482,3.482,0,0,0,.78-2.3v-17.76Zm-3.04,5.32h-8.36v-2.4h8.36v2.4Zm0,5.32h-8.36v-2.4h8.36v2.4Zm62.88,8.12q-3.72-.079-7.82-0.54a67.625,67.625,0,0,1-7.22-1.16,19.211,19.211,0,0,1-4.88-1.66,11.948,11.948,0,0,0,1.68-3.02,15.241,15.241,0,0,0,.92-3.54h11.68v-14.84H341.96V102.6H357.4v-2.92H323.28v2.92h15.64v2.84H327.44v14.84h10.88a12.736,12.736,0,0,1-.82,2.64,10.987,10.987,0,0,1-1.38,2.4,47.135,47.135,0,0,1-5.84-4.56l-2.32,1.56a27.262,27.262,0,0,0,5.8,5.12,34.637,34.637,0,0,1-6.02,2.26,54,54,0,0,1-5.62,1.26l1.8,2.68a28.111,28.111,0,0,0,11.48-3.8l1.24-.84a37.322,37.322,0,0,0,7.64,2.66,72.685,72.685,0,0,0,12.52,1.62Zm-8.52-18.84h-8.2v-3h8.2v3Zm0,6h-8.48l0.2-3.08h8.28v3.08Zm-11.24-6h-8.44v-3h8.44v3Zm-0.04,2.92-0.16,3.08h-8.24v-3.08h8.4Zm58.96-8.72v-2.92H377.48q0.96-3.279,1.32-4.96L375.72,97a55.294,55.294,0,0,1-1.56,5.64h-9.52v2.92h8.4a26.624,26.624,0,0,1-4.1,7.26,52.282,52.282,0,0,1-6.74,7.14l2.8,1.84q3.639-3.72,4.86-5.12a26.563,26.563,0,0,0,1.9-2.4v19.08h3.16v-8.44h15.04v3.96a0.655,0.655,0,0,1-.2.48,0.7,0.7,0,0,1-.52.2,29.54,29.54,0,0,1-5.04-.2q0.36,0.921,1.4,3.08h2.3a15.963,15.963,0,0,0,3.02-.2,3.463,3.463,0,0,0,1.42-1,2.7,2.7,0,0,0,.66-1.52v-20.44H374.88q0.519-1.08,1.44-3.72h21.52Zm-7.88,9.88H374.92V112.2h15.04v3.24Zm0,6.56H374.92v-3.64h15.04V122Zm48.88,9a22.062,22.062,0,0,1-7.72-7.64,29.923,29.923,0,0,0,2.98-7.14,36.3,36.3,0,0,0,1.3-7.98h2.4v-2.92H427.52a52.246,52.246,0,0,0,.36-7.44,9.4,9.4,0,0,0-1.6-.32q-0.96-.12-1.2-0.16,0,2.68-.28,5.92a27.106,27.106,0,0,1-5.32,14.44l2.68,1.44a31.417,31.417,0,0,0,2.6-4.28,33.7,33.7,0,0,0,2.96,8.36q-2.441,3.88-8.32,7.88l2.36,2.12a36.578,36.578,0,0,0,4.28-3.56,32.455,32.455,0,0,0,3.36-3.68,26.985,26.985,0,0,0,3.2,3.84,31.773,31.773,0,0,0,3.92,3.44Zm-17.24-24.48V103.6l-7.12-.08,1.12-.76a21.438,21.438,0,0,0-2.44-3.04,18.373,18.373,0,0,0-2.88-2.52l-2.48,1.72a18.456,18.456,0,0,1,2.82,2.3,11.677,11.677,0,0,1,1.9,2.38h-8.36v2.92H421.6Zm0.28,7.12a16.992,16.992,0,0,0-5.28-6.6l-2.56,1.56a13.9,13.9,0,0,1,3,2.74,17.279,17.279,0,0,1,2.12,3.46Zm-12.76-6.48a23.056,23.056,0,0,1-1.5,3.24,14.65,14.65,0,0,1-1.94,2.66,19.846,19.846,0,0,1-2.28,2.14l2.56,2.08a23.982,23.982,0,0,0,3.48-4.18,24.828,24.828,0,0,0,2.32-4.94Zm12.24,21.08a46.488,46.488,0,0,0-5.2-6.88,16.733,16.733,0,0,0,1.12-2.82,25.333,25.333,0,0,0,.8-3.14l-2.68-.88a29.781,29.781,0,0,1-1.6,4.76,22.117,22.117,0,0,0-2.04-1.48,21.779,21.779,0,0,0-2.44-1.4l-2.24,1.84a26.9,26.9,0,0,1,2.94,1.82,19.04,19.04,0,0,1,2.46,2.02q-2.28,4.68-9.12,8.72l1.88,2.56a26.32,26.32,0,0,0,9.52-9.08,30.522,30.522,0,0,1,2.14,2.82,19.964,19.964,0,0,1,1.74,3.06Zm10.88-20a30.558,30.558,0,0,1-.48,4.8,27.321,27.321,0,0,1-1.06,4.24,18.3,18.3,0,0,1-1.18,2.76,23.5,23.5,0,0,1-1.56-4.44q-0.84-3.079-1.32-5.6l0.4-1.76h5.2Z"/>
</svg>
