<svg id="Frame_5" data-name="Frame 5" xmlns="http://www.w3.org/2000/svg" width="600" height="500" viewBox="0 0 600 500">
  <defs>
    <style>
      .cls-1 {
        fill: #4b286d;
        fill-rule: evenodd;
      }
    </style>
  </defs>
  <path id="智能家居安防_让家庭生活更轻松_" data-name="智能家居安防 让家庭生活更轻松 " class="cls-1" d="M218.144,85.282v-16.6h-15v16.64h5.16v-1.48h4.72v1.44h5.12Zm-4.64,16.8v-16.2H200.1a15.751,15.751,0,0,1,2.879-2.92,20.584,20.584,0,0,1-4.64-3.36h4.28v-4.64h-5.759v-1.32h5.28v-4.96h-9.36a10.109,10.109,0,0,0,.92-1.72l-5.2-.6a22.648,22.648,0,0,1-5,6.56,25.743,25.743,0,0,1,3.08,2.04h-2.64V79.6h6.039a15.86,15.86,0,0,1-6.439,5.48,21.121,21.121,0,0,1,3.8,4.36,17.429,17.429,0,0,0,2.639-1.92v14.56h5.481v-1.16h12.56v1.16h5.48Zm-0.48-23.2H208.3v-5.24h4.72v5.24Zm-21.761-3.92h-2.479l1.119-1.32h1.36v1.32Zm16.761,16.6h-12.56v-1.04h12.56v1.04Zm-16.48-5.68a23.181,23.181,0,0,0,2.359-3.04l0.6,0.64a17.671,17.671,0,0,0,1.36,1.24,15.845,15.845,0,0,0,1.68,1.16h-6Zm16.48,10.4h-12.56v-1.04h12.56v1.04Zm48.48-20.72a21.981,21.981,0,0,1-2.04-1.28,11.733,11.733,0,0,1-.44,2.32,3.459,3.459,0,0,1-.62,1.4,2.077,2.077,0,0,1-.82.44h-4.76q-0.6,0-.6-1.24v-1.28l10.4-5.36-4.16-3.24q-2.28,1.32-6.24,3.32V66.6h-5q-0.76,0-.76.48a0.99,0.99,0,0,0,.38.68,1.032,1.032,0,0,1,.38.52l-0.08,8.68q-0.64-1.479-1.82-3.72t-2.14-3.88l-4.4,1.72a20.224,20.224,0,0,1,1.56,2.76h-3.76q0.32-.639,1.52-2.92t1.76-3.48l-5.04-1.28L226.384,74h-3.4l1.64,5.32,12.52-1.04,0.6,1.48a14.543,14.543,0,0,1,4.52-1.96,10.969,10.969,0,0,0,.24,2.08,4.464,4.464,0,0,0,1.48,2.14,3.62,3.62,0,0,0,2.36.94h8.48a2.7,2.7,0,0,0,2.32-1.44,13.16,13.16,0,0,0,1.36-5.12A8.7,8.7,0,0,1,256.5,75.562Zm-1.96,17.24a15.535,15.535,0,0,1-.6,2.44q-0.48,1.32-1.16,1.32h-4.6a0.8,0.8,0,0,1-.8-0.76v-2.48q3.879-1.719,10.6-5.6-2.921-1.92-4.52-3.12a61.053,61.053,0,0,1-6.08,3.44v-4.6h-5q-0.72,0-.72.36a0.872,0.872,0,0,0,.38.64,0.878,0.878,0,0,1,.38.64v10.76a6.75,6.75,0,0,0,.6,3.2,4.905,4.905,0,0,0,1.5,1.6,3.407,3.407,0,0,0,1.94.64h7.8l1.24-.04a3.915,3.915,0,0,0,1.6-.98,4.753,4.753,0,0,0,1-1.56,14.886,14.886,0,0,0,.66-2.24q0.3-1.34.34-1.5a21.583,21.583,0,0,1-4.56-2.16h0Zm-13.92-12.52h-15.24v21.56h4.76v-7.16h5.68v1.48a1.061,1.061,0,0,1-.12.6,0.468,0.468,0,0,1-.4.16,14.15,14.15,0,0,1-3.2.04,10.765,10.765,0,0,1,1.32,2.36,9,9,0,0,1,.64,2.52,15.768,15.768,0,0,0,3.28-.22,5.257,5.257,0,0,0,1.84-.62,3.382,3.382,0,0,0,1.04-1.16,2.949,2.949,0,0,0,.4-1.44V80.282Zm-4.8,5.48h-5.68v-0.92h5.68v0.92Zm0,4.92h-5.68v-0.92h5.68v0.92Zm62.159-11.8v-9.4H284.7q-0.161-.32-0.381-0.74t-1.539-2.5l-5.961.72a12.975,12.975,0,0,1,1.92,2.52H264.864v9.56h4.72v-4.88h23.6v4.72h4.8ZM292.924,92.2a19.022,19.022,0,0,1-4.741-3.4,47.449,47.449,0,0,0,7.16-5.44l-4.76-2.84a33,33,0,0,1-5.639,4.56,24.012,24.012,0,0,0-2.24-3.44,14.933,14.933,0,0,0,1.459-.96,9.757,9.757,0,0,0,1.38-1.2h6.76v-4.4h-21.84v4.44l5.56,0.08a61.438,61.438,0,0,1-6.68,1.8,33.107,33.107,0,0,1-5.32.72,10.993,10.993,0,0,1,1.541,2.2,8.5,8.5,0,0,1,.979,2.44,37.613,37.613,0,0,0,11.12-3.28l0.2,0.36a30.642,30.642,0,0,1-13.16,4.72,8.5,8.5,0,0,1,1.44,1.94q0.6,1.1,1.28,2.66a35.266,35.266,0,0,0,12.44-5.44l0.239,0.8a25.738,25.738,0,0,1-6.64,4.1,45.32,45.32,0,0,1-9.84,3.02,13.294,13.294,0,0,1,2.961,4.92q2.559-.72,4.459-1.44a41.138,41.138,0,0,0,3.821-1.68,9.821,9.821,0,0,1,.939,2.1,6.562,6.562,0,0,1,.341,2.26q1.2,0.039,2.72.04a14.181,14.181,0,0,0,3.119-.36,6.486,6.486,0,0,0,2.76-1.32,4.43,4.43,0,0,0,1.36-2.1,15.046,15.046,0,0,0,.44-4.3,20.07,20.07,0,0,0,9.28,5.4,11.5,11.5,0,0,1,1.28-2.56,11.8,11.8,0,0,1,1.88-2.28A29.767,29.767,0,0,1,292.924,92.2Zm-11.941,3.08a2.172,2.172,0,0,1-.559,1,3.092,3.092,0,0,1-1.661.38,14.327,14.327,0,0,1-2.14-.22,24.213,24.213,0,0,0,4.441-3.04A6.407,6.407,0,0,1,280.983,95.282ZM338.944,86v-4.72H326.9v-2.56h9.72v-11.2H307.064V82.4a42.874,42.874,0,0,1-.84,8.8,20.177,20.177,0,0,1-2.92,7.12,7.749,7.749,0,0,1,4.6,3.16,18.544,18.544,0,0,0,2.62-5.64,47.22,47.22,0,0,0,1.5-9.84h9.48v2.76h-8.64V101.8h5.319v-1.16h12.481v1.2h5.32V88.762H326.9V86h12.041Zm-7.6-11.76H312.184v-2.12h19.159v2.12Zm-9.839,7h-9.32v-2.52h9.32v2.52Zm9.16,14.68H318.183v-2.48h12.481v2.48Zm47.6-15.72v-9.52h-13.28q-1.2-2.919-1.96-4.32l-5.48.92a10.244,10.244,0,0,1,.8,1.42q0.321,0.7.84,1.98h-13.6v9.4h5.361V75.6H372.9v4.6h5.36Zm1.36,6.4v-4.92H360.3a41.862,41.862,0,0,0,1.84-4.2l-5.16-1.24-2.52,5.44h-10.2v4.96h8.12l-3.36,6.16a53.331,53.331,0,0,1,5.24,1.92l0.88-1.64q1.521,0.441,4,1.44a21.737,21.737,0,0,1-6.419,1.72,40.845,40.845,0,0,1-8.341.2,12.935,12.935,0,0,1,1.6,2.68,7.28,7.28,0,0,1,.681,2.72,43.665,43.665,0,0,0,10.939-1.16,22.161,22.161,0,0,0,7.82-3.48,43.786,43.786,0,0,1,8.92,4.88,13.346,13.346,0,0,1,4.36-4.28,85.515,85.515,0,0,0-9.44-4.92,28.321,28.321,0,0,0,3.6-6.28h6.76Zm-12.76,0a10.289,10.289,0,0,1-1.079,2q-0.64.921-1.761,2.28l-6.88-2.16,1.081-2.12h8.639Zm52.76-9.32v-5l-9.239-.08a21.05,21.05,0,0,1,2.56-.72,26.862,26.862,0,0,0-4.72-5.04l-4.52,1.88a22.258,22.258,0,0,1,3.319,3.96h-8.2q0.118-.32.68-1.5a17.79,17.79,0,0,0,.76-1.78l-2.28-1.68h-12.76v34.4H390.3V91.082a4.37,4.37,0,0,1,1.2,1.82,7.947,7.947,0,0,1,.64,2.46,13.037,13.037,0,0,0,3.18-.68,6.156,6.156,0,0,0,2.38-1.46,6.836,6.836,0,0,0,1.36-1.9,8.127,8.127,0,0,0,.4-5.42,14.521,14.521,0,0,0-3.44-6.02q0.6-1.239,2.121-5.48v2.88h3.92v5.64q0,1.041-.02,1.9t-0.12,1.74a17.017,17.017,0,0,1-.3,1.78,11.059,11.059,0,0,1-.6,1.86,15.2,15.2,0,0,1-.94,1.88,17.342,17.342,0,0,1-1.18,1.76,15.907,15.907,0,0,1-5.6,4.32,12.449,12.449,0,0,1,3.141,1.84,9.334,9.334,0,0,1,1.739,1.84q0.8-.6,2.021-1.66a18.3,18.3,0,0,0,2.379-2.54q1.161-1.479,1.6-2.16,2.041-3.12,2.6-9.52h5.88q0,4.6-.12,6.1t-0.28,2.46a2.456,2.456,0,0,1-.84,1.16,10.739,10.739,0,0,1-2.581.56,13.948,13.948,0,0,1-2.779.04,11.651,11.651,0,0,1,1.54,2.58,10.9,10.9,0,0,1,.82,2.86l0.64-.04a13.327,13.327,0,0,0,5.239-1.14,4.815,4.815,0,0,0,2.4-2.46,11.153,11.153,0,0,0,.639-2.92q0.2-1.839.2-6.08l0.039-7.84h-10.56l0.081-3.96h12.519Zm-25.059,11.14a1.65,1.65,0,0,1-.261.38,3.5,3.5,0,0,1-1.72.86,14.96,14.96,0,0,1-2.28.22V72.4h3.561l-2.88,7.96a14.133,14.133,0,0,1,3.84,6.8A4.582,4.582,0,0,1,394.564,88.422Zm-216.38,59.82v-2.72H165.9v-15h10.24V127.6H165.9v-12.96h-2.88v30.88h-9.64v2.72h24.8Zm-22.96-27.12a15.715,15.715,0,0,0-5.96-5.76L146.9,117a12.082,12.082,0,0,1,3.18,2.52,13.523,13.523,0,0,1,2.46,3.52Zm4.24,20.32-0.08-3.16q-1.2.561-3.8,1.8t-3.68,1.72v-17.24h-8.24v2.92h5.36v15.44a0.443,0.443,0,0,1-.24.36,3.337,3.337,0,0,1-.66.32q-0.42.16-.54,0.2l2,2.88Zm57.879-15.36v-7.32H203.824a13.955,13.955,0,0,0-2.4-3.08,14.251,14.251,0,0,0-2.68-2.12l-2.52,1.88a30.189,30.189,0,0,1,3.179,2.52,5.583,5.583,0,0,1,.621.8h-14.44v7.48h3.04v-4.56H214.3v4.4h3.039Zm1.921,18.44a11.11,11.11,0,0,1-3.46-2.16,18.732,18.732,0,0,1-3.06-3.56,15.739,15.739,0,0,1-2.04-4.16,29.24,29.24,0,0,0,4.44-4l-2.32-2.04q-3.841,4.6-7.4,5.76a10.58,10.58,0,0,0-1.62-2.54,9.453,9.453,0,0,0-2.14-1.94q0.12-.079.94-0.54t1.54-.94a13.132,13.132,0,0,0,1.36-1.04h7.36v-2.92H190.3v2.92l10.039,0.04q-4.959,3-14.559,4.52l2.08,2.64a34.9,34.9,0,0,0,10.84-3.16,12.118,12.118,0,0,1,2,1.36,26.315,26.315,0,0,1-3.721,2.2,28.142,28.142,0,0,1-5.3,1.94,57.371,57.371,0,0,1-6.66,1.34l2.12,2.6a30.158,30.158,0,0,0,8.1-1.96,37.116,37.116,0,0,0,7.1-3.84,16.419,16.419,0,0,1,1.081,2.32,26.444,26.444,0,0,1-8.4,4.86,55.191,55.191,0,0,1-10.8,2.62l2.2,2.76a64.414,64.414,0,0,0,6.66-1.62,41.377,41.377,0,0,0,6.08-2.34,22.108,22.108,0,0,0,4.9-3.16,33.292,33.292,0,0,1-.161,5.36,1.736,1.736,0,0,1-.439.76,2.2,2.2,0,0,1-.72.56,13.387,13.387,0,0,1-2.92-.26,33.439,33.439,0,0,1-3.8-1.02l1.239,3.56q5.162,0.96,7,.28a3.458,3.458,0,0,0,1.781-1.38,7.74,7.74,0,0,0,.939-3.46,22.906,22.906,0,0,0-.019-3.94,29.965,29.965,0,0,0-.58-3.94l1.92-.8a23.863,23.863,0,0,0,1.64,3.58,19.537,19.537,0,0,0,3.06,4.1,12.44,12.44,0,0,0,4.26,3Zm39.8-24.08v-2.92h-14.12l0.68-.64a15.9,15.9,0,0,0-3.46-2.78,9.6,9.6,0,0,0-2.78-1.02l-2.28,2.16a13.025,13.025,0,0,1,3,.98,5.465,5.465,0,0,1,1.84,1.3H227.3l-0.32,18.92a18.645,18.645,0,0,1-1.08,5.8,15.888,15.888,0,0,1-2.92,5.04l2.12,2.52a16.082,16.082,0,0,0,3.82-6.32,30.188,30.188,0,0,0,1.26-9.16l0.12-13.88h28.76Zm1.4,24.68q-8.081.4-14.4,0.16a17.087,17.087,0,0,1-3-.42,16.412,16.412,0,0,1-4.72-2.22q2.16-3.6,2.36-10.6h-4.96a25.135,25.135,0,0,0,2.58-2.9,27.856,27.856,0,0,0,2.3-3.38l0.08-1.16,1.84,2.52q1.519,0.04,3.16-.08a23.8,23.8,0,0,0,2.68-.32v4.4H241.7v2.92h6.68v5.88h-8.24v2.92h19.08v-2.92h-7.8v-5.88h6.8v-2.92h-6.8v-5a30.141,30.141,0,0,0,6.92-2.72l-2.12-2.08a16.479,16.479,0,0,1-2.88,1.22A33.927,33.927,0,0,1,248,123.7a42.554,42.554,0,0,1-7.38.46v-1.08H231.1V126h5.8a50.753,50.753,0,0,1-5.4,6v2.96h6.12a13.9,13.9,0,0,1-.56,3.06,15.471,15.471,0,0,1-.96,2.3q-0.2-.32-0.9-1.44t-1.08-1.84q-0.381-.72-0.62-1.28l-2.52,1.52a22.539,22.539,0,0,0,3.44,5.56,25.851,25.851,0,0,1-5.28,4.64l1.84,2.36a13.69,13.69,0,0,0,3.42-2.36,23.217,23.217,0,0,0,2.5-2.44,14.9,14.9,0,0,0,9.12,3.04l13.16,0.16Zm38.52,2.56v-2.92H283.3v-8.52h11.24v-2.92H283.3v-7.48h13.12v-2.92H283.3V114.4h-3.04v8.52h-6.72q0.039-.2.28-1.12t0.4-1.84a11.017,11.017,0,0,0,.16-1.88l-3.04-.92a24.5,24.5,0,0,1-1.2,6.04,18.039,18.039,0,0,1-2.4,4.68,30.354,30.354,0,0,1-3.72,4.16l3.04,1.64q4.239-4.519,5.4-7.84h7.8v7.48H269.9v2.92h10.36v8.52h-14.28v2.92h33Zm40.52-19.24v-2.88H328.183v-5.64a42.29,42.29,0,0,0,9.481-3.32l-2.12-2.28a36.2,36.2,0,0,1-7.78,2.46,67.43,67.43,0,0,1-12.7,1.06l1.6,2.96q6.44-.24,8.48-0.56v5.32h-11.28v2.88h11.28v6.72H316.9v15h3.041v-2.68h13.4v2.56h3.041v-14.88h-8.2v-6.72H339.5ZM315.664,121a15.315,15.315,0,0,0-3.26-3.04,16.171,16.171,0,0,0-3.9-2.08l-2.04,2.04a17.667,17.667,0,0,1,7.08,5.24Zm-3.08,9.32a16.448,16.448,0,0,0-6.68-5.6l-2.36,2.08a14.052,14.052,0,0,1,6.88,5.68Zm-0.84,3.72a32.426,32.426,0,0,1-7.28,13.24l2.44,1.76a33.151,33.151,0,0,0,7.36-13.8Zm21.6,10.56h-13.4v-6.56h13.4v6.56Zm47.161,2.2q-3.721-.079-7.821-0.54a67.667,67.667,0,0,1-7.22-1.16,19.225,19.225,0,0,1-4.88-1.66,11.887,11.887,0,0,0,1.68-3.02,15.191,15.191,0,0,0,.92-3.54h11.68v-14.84H363.784V119.2h15.44v-2.92H345.1v2.92h15.64v2.84h-11.48v14.84h10.88a12.676,12.676,0,0,1-.82,2.64,10.944,10.944,0,0,1-1.379,2.4,47.133,47.133,0,0,1-5.841-4.56l-2.319,1.56a27.282,27.282,0,0,0,5.8,5.12,34.6,34.6,0,0,1-6.019,2.26,54,54,0,0,1-5.62,1.26l1.8,2.68a28.116,28.116,0,0,0,11.481-3.8l1.239-.84a37.365,37.365,0,0,0,7.64,2.66,72.7,72.7,0,0,0,12.52,1.62Zm-8.521-18.84h-8.2v-3h8.2v3Zm0,6H363.5l0.2-3.08h8.28v3.08Zm-11.24-6H352.3v-3h8.44v3Zm-0.04,2.92-0.16,3.08H352.3v-3.08h8.4Zm58.961,0.64a16.216,16.216,0,0,0-2.72-3.08q-1.481-1.28-3.641-2.88a64.91,64.91,0,0,0,4-6.6v-2.8h-15.84v2.88h12.16a25.822,25.822,0,0,1-5.339,7.58,20,20,0,0,1-7.02,4.22v-1.08H395.5v-5.28h-3.041v5.28h-3.28l3-8.52h8.241v-2.88h-7.44l0.96-3.52-2.8-.92q-0.321,1.2-1.241,4.44h-4.44v2.88h3.56l-2.879,8.28v3.12h6.319V138q-5.279,1.24-8.2,1.64l1.84,2.96,6.359-1.64v8.32l3.041-.08v-8.92l4.64-1.24V136q-3.12.88-4.64,1.28v-4.64h5.72l0.84,1.2a23.364,23.364,0,0,0,5.239-2.6,24.007,24.007,0,0,0,4.081-3.36,26.2,26.2,0,0,1,5.84,5.64Zm0.079,16.4v-3H411.1v-7.6h7.6v-3h-17.72v3h7.08v7.6h-9.8v3h21.479Zm40.8-16.04a36.182,36.182,0,0,1-4.62-7.72,29.236,29.236,0,0,1-2.46-9.04l-3.16.88q1.279,6.2,2.04,8.5a23.738,23.738,0,0,0,1.76,4.1,22.118,22.118,0,0,0,2.06,3.12q1.059,1.32,2.06,2.36Zm-1.24,16.8a19.646,19.646,0,0,0-6.64-10.88l-2.72,1.6,3.76,3.88-9.76,1.08,1.12-1.36a21.874,21.874,0,0,0,3.12-5.36,34.577,34.577,0,0,0,2.12-8.96l-3.24-1a26.868,26.868,0,0,1-1.2,6.2,29.3,29.3,0,0,1-2.92,6.72,14.4,14.4,0,0,1-3.76,4.44l1.68,2.88q0.72-.081,3.36-0.48t3.96-.56l7-.76a11.6,11.6,0,0,1,.96,3.64Zm-15.12-32.36q-0.041.12-.52,3a40.744,40.744,0,0,1-.96,4.52,19.663,19.663,0,0,1-1.1,2.94,14.72,14.72,0,0,1-1.54,2.52,14.939,14.939,0,0,1-2,2.18,13.457,13.457,0,0,0-2.8-3l-0.44.2v-4.04h4.76v-2.92h-4.76v-7.68h-3.04v7.68h-5.76v2.92h5.6a27.707,27.707,0,0,1-1.62,5.78,23.8,23.8,0,0,1-2.68,5.02,24.051,24.051,0,0,1-2.98,3.52l2.28,2.16a17.811,17.811,0,0,0,2.2-2.3,18.312,18.312,0,0,0,1.98-2.86,11.087,11.087,0,0,0,.98-2.24v16.12h3.04l0.08-17.68q1,1.881,1.48,2.78a14.324,14.324,0,0,1,.88,2.06l2.64-1.44a11.02,11.02,0,0,0-1.32-3.28l1.84,1.32a16.62,16.62,0,0,0,2.94-3.76,23.162,23.162,0,0,0,2.02-4.7,60.96,60.96,0,0,0,1.64-8.1Z"/>
</svg>
