<svg xmlns="http://www.w3.org/2000/svg" width="300" height="600" viewBox="0 0 300 600">
  <defs>
    <style>
      .cls-1 {
        fill: #4b286d;
        fill-rule: evenodd;
      }
    </style>
  </defs>
  <path id="攜手讓我們_的社區更強大_" data-name="攜手讓我們 的社區更強大 " class="cls-1" d="M82.692,129.506l-1.77.81v-5.01h2.04v-2.16h-2.04v-5.82h-2.28v5.79l-3.09.03v2.16h3.09v5.82a31.59,31.59,0,0,1-3.57,1.74l1.56,1.74q0.3-.12.66-0.27t0.84-.39a4.9,4.9,0,0,1,.51-0.24v7.92l-0.18.27a3.953,3.953,0,0,1-1.32.045q-0.93-.075-1.32-0.075a22.4,22.4,0,0,1,.84,2.19h1.095a8.039,8.039,0,0,0,1.425-.09,2,2,0,0,0,1.08-.66,2.425,2.425,0,0,0,.66-1.26v-9.24q1.2-.69,2.16-1.14v-1.8a6.3,6.3,0,0,1,1.14-.93v4.47h18.03v-2.19h-7.92v-0.3l6.15-.03V128.7H94.3v-0.3h6.18v-2.13H94.3v-0.36h7.29l0.03-2.19h-7.71a8.3,8.3,0,0,0-1.86-1.71h8.88v-4.05h-2.25v1.86H93.4v-2.88h-2.28v2.91l-5.13-.03v-1.68h-2.25v3.87h1.53a12.522,12.522,0,0,1-.93,2.64,8.869,8.869,0,0,1-1.41,2.115,10.953,10.953,0,0,1-1.59,1.455Zm9.36-3.57v0.33H86.5v-0.36Zm0,2.46v0.3l-5.55.03V128.4h5.55Zm0,2.52v0.3h-5.52l-0.03-.33Zm-5.25-7.2a9.406,9.406,0,0,0,.6-1.17,13.109,13.109,0,0,0-1.5-.54l5.94,0.06a15.338,15.338,0,0,0-1.8,1.29l0.69,0.36H86.8Zm2.4,12.12a1.8,1.8,0,0,1-.72,1.02,8.132,8.132,0,0,1-2.19,1.08l-0.81.21v-2.31H89.2Zm6.84,6.51,0.06-.51a13.32,13.32,0,0,0,.72,1.83,10.641,10.641,0,0,0,2.64-.12,2.62,2.62,0,0,0,1.185-.855,2.086,2.086,0,0,0,.495-1.335l-0.03-7.68H83.232l0.03,10.44h2.25l-0.03-5.04,0.93,1.08a9.313,9.313,0,0,0,1.89-.75l-0.03,2.94h7.77Zm-5.22-5.04a2.092,2.092,0,0,0,.42-0.825,3.125,3.125,0,0,0,.12-0.645h2.22a2.061,2.061,0,0,0,.18,1.47h-2.94Zm5.01-1.47h3v0.96l-2.64-.03a0.532,0.532,0,0,1-.36-0.39v-0.54Zm-5.31,4.32,0.03-.69h3.18l0.03,0.69h-3.24Zm5.52-1.2h2.79v2.07a0.863,0.863,0,0,1-.36.51,3.656,3.656,0,0,1-1.305.03q-0.945-.09-1.125-0.09v-2.52Zm21.72-13.05h-9l0.03,2.19h9l-0.03,4.59h-11.49l0.03,2.16h11.46v6.3a1.031,1.031,0,0,1-.255.78,1.186,1.186,0,0,1-.765.27q-0.78.03-3.78-.24l0.84,2.46h4.14q2.13,0,2.13-2.4v-7.17h11.04v-2.19l-11.01.03V128.1h8.55v-2.19H120.1v-4.44a40.18,40.18,0,0,0,9.69-2.37l-1.26-1.71a45.347,45.347,0,0,1-9.99,2.07,87.065,87.065,0,0,1-11.43.54l1.35,2.22q6.84-.18,9.3-0.48v4.17Zm27.21,15.48a23.4,23.4,0,0,0,3.03-1.02v1.71a0.525,0.525,0,0,1-.225.165q-0.165.075-.885,0.345l1.14,1.8q1.5-.6,6.03-1.86l-0.06-2.01q-1.17.24-3.78,0.93v-2.43a9.45,9.45,0,0,0,1.92-1.86h0.72a11.2,11.2,0,0,0,1.08,2.4,8.324,8.324,0,0,0,3.075,3.1,14.411,14.411,0,0,0,4.455,1.695l0.96-1.98a9.7,9.7,0,0,1-2.07-.435,11.669,11.669,0,0,1-2.49-1.215,12.777,12.777,0,0,0,3-2.34l-1.38-1.26h1.95l-0.03-2.01h-4.38v-1.17h3.15v-2.01h-3.15v-0.96h4.05V129h-4.02v-1.26h3.27v-5.07H153.4v5.13l1.56-.03-0.03,1.23h-4.32a6.318,6.318,0,0,1,0-1.23h1.47v-5.1h-6.9v5.1h3.33V129h-4.02l0.03,1.98h4.02v0.93l-3.06.03v1.98h3.06v1.2h-4.23v2.04l5.1,0.06a13.345,13.345,0,0,1-5.67,2.37v-5.7h-6.81v9.93h2.16v-2.07h2.52v2.04h2.13l0.06-3.87Zm9.99-7.44-0.03,1.17h-4.2v-1.17h4.23Zm-0.03-2.97v0.96h-4.32v-0.96h4.32Zm4.38,6.12a12.6,12.6,0,0,1-2.97,2.37,6.534,6.534,0,0,1-.66-1.095,11,11,0,0,1-.57-1.275h4.2Zm-17.76-1.17v3.78h-2.46l0.03-3.78h2.43Zm16.71-10.05h-2.79V124.5h2.79v1.38Zm-11.07-1.38h2.85v1.44h-2.85V124.5Zm-3.15-2.82-3.27-.06,1.14-.48a16.9,16.9,0,0,0-1.185-2.19,10.537,10.537,0,0,0-1.4-1.8l-2.01,1.08a9.893,9.893,0,0,1,1.56,1.89,11.094,11.094,0,0,1,.75,1.56h-4.14l0.03,2.1h9.15v-2.01l16.98,0.03v-2.1h-7.77a17.22,17.22,0,0,0-2.22-2.58l-2.07,1.08q1.47,1.23,1.56,1.335t0.15,0.165l-7.23-.03Zm0.18,3.81h-7.56v2.13l7.56-.03v-2.1Zm0,3.99h-7.56v2.13h7.56v-2.13Zm36.06-12.06a89.318,89.318,0,0,0,.18,9.15l-5.58.03v-4.89q0.39-.15,1.065-0.5t3.465-1.965l-1.5-1.71a36.532,36.532,0,0,1-3.945,1.905,19.71,19.71,0,0,1-3.5,1,24.353,24.353,0,0,1-4.29.39,18.739,18.739,0,0,1,1.41,2.25,20.213,20.213,0,0,0,2.55-.27,12.835,12.835,0,0,0,2.31-.54v4.32h-6.12l0.03,2.25,6.12,0.03v5.01q-3.75.96-6.9,1.56l1.68,2.19,5.25-1.41v4.89a0.762,0.762,0,0,1-.195.54,0.754,0.754,0,0,1-.5.24l-3.69-.09,0.84,2.34q0.42-.031,1.62,0a15.069,15.069,0,0,0,1.875-.045,4.882,4.882,0,0,0,1.155-.255,2.391,2.391,0,0,0,1.29-2.07l0.03-6.21,4.59-1.23-0.03-2.31-4.56,1.17-0.03-4.32h5.76a36.927,36.927,0,0,0,1.68,7.53,28.6,28.6,0,0,1-6.78,4.35l2.01,1.68a31.874,31.874,0,0,0,5.82-3.78,16.311,16.311,0,0,0,3.24,4.08,5.084,5.084,0,0,0,1.98,1.215,3.227,3.227,0,0,0,1.11.015,2.126,2.126,0,0,0,.99-1.05,18.449,18.449,0,0,0,1.02-4.95l-2.34-.9a17.05,17.05,0,0,1-.75,4.17q-0.12.33-.615-0.195a23.956,23.956,0,0,1-1.665-2.175,13.686,13.686,0,0,1-1.2-1.98,26.427,26.427,0,0,0,4.5-6.33l-2.04-.87a22.8,22.8,0,0,1-3.36,4.92,32.919,32.919,0,0,1-1.2-5.76h7.77V126.6h-7.98q-0.12-1.47-.195-4.335t-0.075-4.845h-2.31Zm3.06,3a11.637,11.637,0,0,1,3.1,2.1,8.735,8.735,0,0,1,2.055,2.88,14.233,14.233,0,0,0,1.92-1.65,9.8,9.8,0,0,0-2.22-2.895,14.589,14.589,0,0,0-2.94-2.175Zm23.58,5.19h3.18l0.03,2.52h-3.21v-2.52Zm9.27,18.36a12.136,12.136,0,0,1,1.335.015,6.131,6.131,0,0,0,1.575-.09,4.211,4.211,0,0,0,1.05-.375,2.708,2.708,0,0,0,.855-1.02,4.868,4.868,0,0,0,.285-1.95l-0.03-21.66-7.8-.06v11.49h5.43l0.03,10.47a1.018,1.018,0,0,1-.195.66,0.707,0.707,0,0,1-.5.27q-0.39.03-1.35,0t-1.245-.03h-0.5Zm2.79-23.01-0.06,2.49h-3.21l0.03-2.46Zm-0.06,4.65v2.55l-3.21-.03v-2.52h3.21Zm-6.48-6.78h-7.95l0.03,25.59,2.31,0.06,0.03-14.16h5.61Zm-2.31,2.19-0.03,2.46-3.09.03v-2.46Zm-8.52-3.87q-0.96,2.94-1.98,5.43a38.952,38.952,0,0,1-2.145,4.47,37.1,37.1,0,0,1-2.145,3.39l2.1,1.14q0.33-.42.69-0.915t0.81-1.155q0.45-.66.54-0.81v15.78h2.34v-20.61a58.622,58.622,0,0,0,1.92-5.88Zm-124.83,36.09a26.469,26.469,0,0,1-4.53,11.46l0.03-5.91h-4.59a19.042,19.042,0,0,0,1.62-4.44l-2.16-.87a18.256,18.256,0,0,1-1.83,5.31h-2.76v20.76h2.37v-2.43l5.04-.03q0,0.15-.03,1a10.966,10.966,0,0,0,.03,1.455l2.31-.03v-13.83l1.56,0.99a24.276,24.276,0,0,0,3.48-6.27h6.39a95.3,95.3,0,0,1-.99,13.26,18.969,18.969,0,0,1-.99,3.54,1.112,1.112,0,0,1-1.14.54,22.282,22.282,0,0,1-4.53-1.26l0.39,2.52a29.692,29.692,0,0,0,3.945.93,5.259,5.259,0,0,0,1.395,0,2.67,2.67,0,0,0,1.26-.75,4.345,4.345,0,0,0,1.05-1.77,27.539,27.539,0,0,0,1.05-4.275q0.36-2.205.5-4.065t0.195-3.435q0.06-1.575.09-4.11t0.06-3.225h-8.1q0.12-.42.495-1.56t0.54-1.8q0.165-.66.255-1.17Zm-6.9,7.68v5.85l-4.98-.03-0.03-5.82h5.01Zm-4.95,14.01v-6l4.98-.03,0.03,6.06Zm16.98-2.97a22.407,22.407,0,0,0-1.77-3.75,26.324,26.324,0,0,0-2.61-3.57l-1.86,1.23a26.251,26.251,0,0,1,4.08,7.05Zm11.1-17.49a14.2,14.2,0,0,1,3.03,4.89,10.848,10.848,0,0,0,1.155-.57q0.7-.39.975-0.51a11.98,11.98,0,0,0-1.47-2.805,23.2,23.2,0,0,0-1.74-2.085Zm16.35-.87-2.46.03v9.54h-6.45v2.22h6.45V176.1H99.1l0.03,2.31,18.09-.03v-2.25l-7.86-.03-0.06-10.71,6.81,0.03,0.06-2.19-6.87-.03Zm-6.42,17.1a25.947,25.947,0,0,0-2.58-2.625,9.38,9.38,0,0,0-1.89-1.275l-0.87.87-0.03-1.05a27.632,27.632,0,0,0,3.24-5.16v-1.98l-9.93-.03-0.06,2.22H98.2a26.01,26.01,0,0,1-3.405,4.47,38.519,38.519,0,0,1-4.695,4.05l1.71,1.89a23.244,23.244,0,0,0,3.42-2.97v11.34H97.6v-11.67a10.245,10.245,0,0,1,1.755,1.53q1.005,1.05,1.815,2.04Zm32.34-4.05-8.49-.03v8.31h8.49v-8.28Zm7.83,6.03-4.02-.03v-3.84l4.05-.03Zm-6.3-6.06v8.22h8.58v-8.22h-8.58Zm-3.84,2.16,0.03,3.99-3.96-.03v-3.93Zm9.78-10.41h-13.47l-0.03,6.69,13.5-.03v-6.66Zm-11.22,2.01h8.94v2.61h-8.94v-2.61Zm15.27,16.5h-20.01a1.343,1.343,0,0,1-.96-0.27,1.242,1.242,0,0,1-.27-0.9l-0.03-18.42h21.12v-2.22l-25.29-.03v2.22l1.89,0.03v19.02a3.5,3.5,0,0,0,.33,1.53,2.029,2.029,0,0,0,.885.975,2.4,2.4,0,0,0,1.095.285H146.8v-2.22Zm30.81,1.08q-2.79-.06-5.865-0.405a50.931,50.931,0,0,1-5.415-.87,14.432,14.432,0,0,1-3.66-1.245,8.935,8.935,0,0,0,1.26-2.265,11.418,11.418,0,0,0,.69-2.655h8.76v-11.1h-8.34V157.2l11.61,0.03V155.1h-25.59v2.13l11.76-.03v2.22h-8.61l-0.03,11.1h8.16a9.54,9.54,0,0,1-.615,1.98,8.232,8.232,0,0,1-1.035,1.8,35.487,35.487,0,0,1-4.38-3.42l-1.74,1.17a20.471,20.471,0,0,0,4.35,3.84,26.031,26.031,0,0,1-4.515,1.695,40.714,40.714,0,0,1-4.215.945l1.35,2.01a21.088,21.088,0,0,0,8.61-2.85l0.93-.63a28.038,28.038,0,0,0,5.73,1.995,54.521,54.521,0,0,0,9.39,1.215Zm-6.42-14.1h-6.12l0.03-2.31h6.09v2.31Zm-14.76-2.31,6.39,0.03v2.28h-6.39v-2.31Zm14.79,4.44v2.37h-6.36l0.15-2.37h6.21Zm-14.79,0h6.33l-0.12,2.37-6.21-.03v-2.34Zm44.46,8.07a22.14,22.14,0,0,1,1.92,1.86l-3.9.42v-3.78h5.97v-8.37H199l-0.03-2.61,4.86-.39a10.911,10.911,0,0,1,1.32,2.01l1.92-1.17a19.529,19.529,0,0,0-2.67-3.375,23.148,23.148,0,0,0-3.24-2.805l-1.98,1.32a12.5,12.5,0,0,1,3.03,2.13q-1.95.18-4.8,0.375t-4.2.225a17.947,17.947,0,0,0,3.045-2.655,26.235,26.235,0,0,0,2.295-2.805q-0.24-.15-0.87-0.6t-1.02-.69a24.906,24.906,0,0,1-7.44,7.32l1.23,1.95q3.09-.45,6.27-0.66v2.43h-6.06l0.03,8.37h5.97l0.03,4.02-2.58.27q-2.01.21-3.24,0.285t-2.25.075q0.12,0.24.495,0.975t0.645,1.185l14.37-1.47a12.021,12.021,0,0,1,1.02,2.4,8.934,8.934,0,0,0,1.14-.585c0.46-.27.79-0.456,0.99-0.555a19.468,19.468,0,0,0-3.93-5.82Zm1.83-7.68v3.99l-3.72-.03-0.03-3.96h3.75Zm-9.78-.03h3.78v4.05l-3.78-.03v-4.02Zm-11.4,12.93a12.882,12.882,0,0,0,4.17.84,2.53,2.53,0,0,0,1.26-.63,2.8,2.8,0,0,0,.81-1.29,35.983,35.983,0,0,0,1.32-10.32l-5.04.03q0.27-2.31.39-4.35l4.59-.03,0.03-8.64h-8.04v2.13h5.79v4.38H182.2a63.6,63.6,0,0,1-.84,8.64l5.52-.03a33.012,33.012,0,0,1-.78,5.64q-0.3,1.38-.405,1.65a1.418,1.418,0,0,1-.27.45,0.711,0.711,0,0,1-.345.225,0.876,0.876,0,0,1-.36.015,16.287,16.287,0,0,1-3.48-1.14Zm40.38-16.14a20.689,20.689,0,0,1-2.025,6.09,18.907,18.907,0,0,1-3.555,4.77,18.586,18.586,0,0,1-5.04,3.45l1.71,2.07a21.928,21.928,0,0,0,7.575-6.5,25.955,25.955,0,0,0,3.8-9.885,28.537,28.537,0,0,0,1.6,6.405,18.845,18.845,0,0,0,2.43,4.4,18.438,18.438,0,0,0,3.135,3.225,33.546,33.546,0,0,0,3.57,2.5l1.62-1.8a23.33,23.33,0,0,1-5.01-3.81,17.41,17.41,0,0,1-3.21-4.59,25.774,25.774,0,0,1-1.95-6.33h8.82l-0.03-2.31h-10.74a71.687,71.687,0,0,0,.15-7.2q-0.3-.06-1.11-0.15a11.508,11.508,0,0,1-1.32-.21,63.261,63.261,0,0,1-.21,7.56h-9.36v2.31h9.15Z"/>
</svg>
