<svg xmlns="http://www.w3.org/2000/svg" width="300" height="600" viewBox="0 0 300 600">
  <defs>
    <style>
      .cls-1 {
        fill: #4b286d;
        fill-rule: evenodd;
      }
    </style>
  </defs>
  <path id="去年_我們投入了_140萬小時_志願服務時間_" data-name="去年，我們投入了 140萬小時 志願服務時間 " class="cls-1" d="M39.782,128.123a28.955,28.955,0,0,0,6.15-7.62h11.76v-2.22H47.222v-5.4h8.22v-2.16l-8.22-.06,0.06-5.13-2.46.03v5.1l-8.25-.06,0.03,2.28h8.25l-0.03,5.46-10.44-.06v2.22h8.79a29.907,29.907,0,0,1-3.465,4.56,22.615,22.615,0,0,1-4.365,3.75l1.44,2.16q4.17-.75,10.11-1.23t6.645-.54l1.035-.09a23.334,23.334,0,0,1,1.68,3.06,6.962,6.962,0,0,0,1.14-.63q0.69-.45.96-0.6a25.281,25.281,0,0,0-3.18-4.89,15.37,15.37,0,0,0-3.63-3.24l-2.37,1.26a14.282,14.282,0,0,1,2.2,1.365,9.233,9.233,0,0,1,1.605,1.575Zm29.1-22.86q-1.71,6.54-5.55,9.96l1.89,1.53a14.571,14.571,0,0,0,2.3-2.715,31.822,31.822,0,0,0,1.845-3.285h6.18v3.84l-7.98.03v7.08l-3.72-.03v2.25h11.7v8.61h2.37v-8.64l10.35,0.03V121.7H77.912v-4.86h7.65v-2.22h-7.65l-0.03-3.84,9.15-.06v-2.19h-16.8q0.39-1.29.465-1.68t0.105-.66Zm6.66,11.58-0.03,4.86h-5.64v-4.86h5.67Zm31.68-.36h-3.3v3.3h1.62a2.971,2.971,0,0,1-1.8,2.97l0.87,1.11a4.3,4.3,0,0,0,1.545-1.17,4.43,4.43,0,0,0,.825-1.515,5.334,5.334,0,0,0,.24-1.545v-3.15Zm30.06-10.95a89.318,89.318,0,0,0,.18,9.15l-5.58.03v-4.89q0.39-.15,1.065-0.495t3.465-1.965l-1.5-1.71a36.532,36.532,0,0,1-3.945,1.905,19.71,19.71,0,0,1-3.5,1,24.353,24.353,0,0,1-4.29.39,18.739,18.739,0,0,1,1.41,2.25,20.213,20.213,0,0,0,2.55-.27,12.835,12.835,0,0,0,2.31-.54v4.32h-6.12l0.03,2.25,6.12,0.03V122q-3.75.96-6.9,1.56l1.68,2.19,5.25-1.41v4.89a0.762,0.762,0,0,1-.195.54,0.754,0.754,0,0,1-.5.24l-3.69-.09,0.84,2.34q0.42-.03,1.62,0a15.069,15.069,0,0,0,1.875-.045,4.833,4.833,0,0,0,1.155-.255,2.391,2.391,0,0,0,1.29-2.07l0.03-6.21,4.59-1.23-0.03-2.31-4.56,1.17-0.03-4.32h5.76a36.927,36.927,0,0,0,1.68,7.53,28.6,28.6,0,0,1-6.78,4.35l2.01,1.68a31.874,31.874,0,0,0,5.82-3.78,16.311,16.311,0,0,0,3.24,4.08,5.084,5.084,0,0,0,1.98,1.215,3.2,3.2,0,0,0,1.11.015,2.122,2.122,0,0,0,.99-1.05,18.449,18.449,0,0,0,1.02-4.95l-2.34-.9a17.05,17.05,0,0,1-.75,4.17q-0.12.33-.615-0.2a23.956,23.956,0,0,1-1.665-2.175,13.686,13.686,0,0,1-1.2-1.98,26.427,26.427,0,0,0,4.5-6.33l-2.04-.87a22.8,22.8,0,0,1-3.36,4.92,32.919,32.919,0,0,1-1.2-5.76h7.77v-2.25h-7.98q-0.12-1.47-.195-4.335t-0.075-4.845h-2.31Zm3.06,3a11.637,11.637,0,0,1,3.1,2.1,8.735,8.735,0,0,1,2.055,2.88,14.233,14.233,0,0,0,1.92-1.65,9.8,9.8,0,0,0-2.22-2.895,14.589,14.589,0,0,0-2.94-2.175Zm23.58,5.19h3.18l0.03,2.52h-3.21v-2.52Zm9.27,18.36a12.4,12.4,0,0,1,1.335.015,6.131,6.131,0,0,0,1.575-.09,4.172,4.172,0,0,0,1.05-.375,2.7,2.7,0,0,0,.855-1.02,4.868,4.868,0,0,0,.285-1.95L178.262,107l-7.8-.06v11.49h5.43l0.03,10.47a1.018,1.018,0,0,1-.195.66,0.707,0.707,0,0,1-.5.27q-0.39.03-1.35,0t-1.245-.03h-0.5Zm2.79-23.01-0.06,2.49h-3.21l0.03-2.46Zm-0.06,4.65v2.55l-3.21-.03v-2.52h3.21Zm-6.48-6.78h-7.95l0.03,25.59,2.31,0.06,0.03-14.16h5.61Zm-2.31,2.19-0.03,2.46-3.09.03v-2.46Zm-8.52-3.87q-0.96,2.94-1.98,5.43a38.952,38.952,0,0,1-2.145,4.47,37.1,37.1,0,0,1-2.145,3.39l2.1,1.14q0.33-.42.69-0.915t0.81-1.155q0.45-.66.54-0.81v15.78h2.34v-20.61a58.622,58.622,0,0,0,1.92-5.88Zm28.71,24.3a0.57,0.57,0,0,1-.225.48,0.589,0.589,0,0,1-.465.21,20.452,20.452,0,0,1-3.15-.12l0.75,2.25q0.27,0,1.365.03a12.241,12.241,0,0,0,1.695-.045,4.285,4.285,0,0,0,.99-0.225,2.225,2.225,0,0,0,.9-0.675,1.551,1.551,0,0,0,.42-1v-8.58a15.1,15.1,0,0,1,1.56-.54,13.933,13.933,0,0,0,1.8-.66v-2.19l-3.36,1.11v-6h3.45v-2.16H189.6v-5.58h-2.28v5.58h-3.9v2.16h3.9v6.78a47.666,47.666,0,0,1-4.89,1.38l1.41,1.98q0.18-.06.7-0.21t1.53-.5q1.005-.345,1.245-0.435v6.96Zm5.4-11.46a9.43,9.43,0,0,0,3.51-3.54,7.392,7.392,0,0,0,.645-1.86,24.272,24.272,0,0,0,.345-3.45l5.64,0.03v4.29a3.237,3.237,0,0,0,.285,1.35,2.177,2.177,0,0,0,.885.99,3.731,3.731,0,0,0,1.26.48h3.69v-2.1h-3a0.705,0.705,0,0,1-.84-0.75l-0.03-6.45h-10.23q-0.03,3.24-.165,4.245a13.009,13.009,0,0,1-.255,1.455q-0.54,2.1-3.54,3.51Zm-0.45,14.25a24.916,24.916,0,0,0,4.35-1.875,22,22,0,0,0,3.63-2.475,32.861,32.861,0,0,0,3.885,2.655,16.048,16.048,0,0,0,4.035,1.815l1.47-2.1a18.213,18.213,0,0,1-7.65-3.87,13.173,13.173,0,0,0,4.11-8.58H193.5v2.19h1.56a19.817,19.817,0,0,0,3.57,6.24,22.386,22.386,0,0,1-7.89,3.99Zm11.13-12.24a9.946,9.946,0,0,1-1.185,2.475,14.875,14.875,0,0,1-1.845,2.205,7.174,7.174,0,0,1-1.575-2.025,14.109,14.109,0,0,1-1.305-2.655h5.91Zm11.31,11.52a28.3,28.3,0,0,0,7.14-5.28,24.127,24.127,0,0,0,4.86-7.47,18.707,18.707,0,0,0,1.83,4.005,23.458,23.458,0,0,0,2.61,3.54,28.389,28.389,0,0,0,3.015,2.91A27.75,27.75,0,0,0,237.3,131.6l1.44-1.98a26.784,26.784,0,0,1-7.38-6.915,20.053,20.053,0,0,1-3.27-8,33.915,33.915,0,0,1-.42-7.35l-7.59.03v2.25h5.19a39.05,39.05,0,0,0,.48,5.4,24.714,24.714,0,0,1-4.65,8.565,26.509,26.509,0,0,1-7.8,6.045Zm35.01-2.31,1.08,2.4,4.41-.06a1.994,1.994,0,0,0,1.62-.78,2.546,2.546,0,0,0,.57-1.56l0.03-13.35a26,26,0,0,0,8.19-6.69v-2.01h-19.71v2.25l16.32,0.03a27.224,27.224,0,0,1-7.26,5.25v13.62a1.214,1.214,0,0,1-.15.6,0.517,0.517,0,0,1-.33.3h-4.77ZM91.486,145.135h-2.04c-0.54,2.58-2.1,3.24-4.859,3.42l-0.48.03v1.98h4.859v15.928h2.52V145.135ZM110,158.874h-2.88V145.135h-2.729l-10.5,13.589v2.429H104.6v5.34h2.519v-5.34H110v-2.279Zm-5.4-10.439v10.439H96.527Zm14.94,18.538c5.189,0,7.739-4.08,7.739-11.159s-2.55-11.159-7.739-11.159-7.739,4.08-7.739,11.159S114.346,166.973,119.536,166.973Zm0-2.28c-3.3,0-5.1-2.94-5.1-8.879s1.8-8.879,5.1-8.879,5.1,2.94,5.1,8.879S122.835,164.693,119.536,164.693Zm30.751-.33a3.812,3.812,0,0,1,.3.615q0.209,0.495.36,0.825l1.95-1.08a12.238,12.238,0,0,0-1.545-2.6,7.805,7.805,0,0,0-1.545-1.395h3.51v4.35a0.985,0.985,0,0,1-.195.555,0.644,0.644,0,0,1-.435.315,11.184,11.184,0,0,1-1.425.03q-0.737-.03-2.295-0.15a17.153,17.153,0,0,1,.63,2.19h1.92a15.166,15.166,0,0,0,2.28-.12,2.225,2.225,0,0,0,1.74-2.1v-7.14l-10.17-.03,0.03-1.35h8.25v-8.94h-18.84v8.94h8.28l-0.03,1.38h-7.32l-0.03-1.29h-2.37l0.03,1.29h-1.68v2.07h1.68v7.8h2.37v-7.8h7.32v2.13q-3.27.24-7.02,0.24a18.042,18.042,0,0,1,.93,2.07Zm-7.23-13.92v1.29h-5.97v-1.29h5.97Zm8.34,3.39v1.35h-6l-0.03-1.35h6.03Zm-0.06-3.39,0.03,1.29H145.4v-1.29h5.94Zm-8.28,3.42v1.32h-5.97v-1.32h5.97Zm4.47,7.77,1.29,0.84-1.605.12q-1.215.09-1.845,0.09l0.03-1.95,3.9,0.06Zm0.99-15.48v2.07h2.25l-0.03-2.07h6.39v-2.1h-6.39v-2.58l-2.25.03v2.55l-3.93.03v2.07h3.96Zm-17.43-2.04-0.03,2.1h6.57v2.01l2.31,0.03,0.03-2.07,3.84,0.03-0.03-2.1h-3.81l-0.03-2.55-2.31.03v2.52h-6.54Zm41.58-2.16v22.5a0.9,0.9,0,0,1-.24.585,0.7,0.7,0,0,1-.54.285q-2.34.06-4.41-.09l0.99,2.46q0.388-.03,2.34.015a6,6,0,0,0,3.15-.645,2.757,2.757,0,0,0,1.14-2.61v-22.5h-2.43Zm-9.9,17.7a25.038,25.038,0,0,0,6.24-10.53L167,148.1a24.168,24.168,0,0,1-2.415,5.31,23.848,23.848,0,0,1-3.675,4.68Zm23.82-1.17a19.612,19.612,0,0,0-2.565-5.46,25.943,25.943,0,0,0-4.275-4.95l-2.13,1.14a23.633,23.633,0,0,1,6.81,10.32Zm5.55-14.55v20.58h2.31v-2.25h3.42l-0.03,2.19h2.28v-20.49Zm5.7,7.86h-3.39v-5.73h3.39v5.73Zm-3.36,8.37v-6.24h3.39l-0.03,6.24h-3.36Zm15.45-9.21v-3.93h5.52v-2.13H209.9l-0.03-3.57h-2.4v3.6l-5.4-.03v2.13h5.4v3.9l-6.45.03,0.03,2.1,15.57,0.03v-2.16Zm3.06,7.47h4.23v-2.16l-4.26.03v-2.7l-2.43.03-0.03,2.64-9.66.03v2.13h9.66l0.03,7.17a0.665,0.665,0,0,1-.21.48,0.529,0.529,0,0,1-.45.18,5.18,5.18,0,0,1-.57.03q-0.3,0-2.82-.18,0.33,0.839.78,2.34h3.33a2.032,2.032,0,0,0,1.26-.465,2.788,2.788,0,0,0,.855-1.02,2.373,2.373,0,0,0,.255-0.945Zm-10.89,2.19a6.88,6.88,0,0,1,2.445,1.74,11.759,11.759,0,0,1,2.025,2.82l1.92-1.56a11.857,11.857,0,0,0-1.86-2.535,8.382,8.382,0,0,0-2.64-2ZM76.712,189.053v-4.62h11.28v-2.19H76.742v-4.53H74.4v4.53H63.152v2.19h11.22v4.59l-9-.06-0.03,2.25,20.31-.03v-2.16Zm2.37,7.53a25.659,25.659,0,0,0-4.86-5.04l-1.74,1.35a17.342,17.342,0,0,1,4.65,5.25Zm3.45-1.44a21.258,21.258,0,0,1,4.95,6.18q0.54-.33,1.89-1.32a21.944,21.944,0,0,0-2.265-3.285,26.288,26.288,0,0,0-2.985-2.985Zm-18.54,6.75a19.852,19.852,0,0,0,4.62-7.11,20.031,20.031,0,0,0-1.95-.99,19.907,19.907,0,0,1-4.53,6.75Zm17.07-4.95q-0.12.33-.405,1.395a8.024,8.024,0,0,1-.555,1.575,2.079,2.079,0,0,1-.585.735,1.724,1.724,0,0,1-.555.285h-6.12a0.807,0.807,0,0,1-.57-0.27,1.384,1.384,0,0,1-.18-0.3v-6.21h-2.28v6.99a2.247,2.247,0,0,0,.36.945,2.008,2.008,0,0,0,.915.735,3.138,3.138,0,0,0,1.275.27l6.21-.03a4.817,4.817,0,0,0,1.56-.195,2.153,2.153,0,0,0,.87-0.555,5.462,5.462,0,0,0,.885-1.275,12,12,0,0,0,.735-1.92q0.36-1.185.51-1.6Zm38.01-18.06h-12.06l-0.03,2.13h5.4a7.4,7.4,0,0,1-1.11,2.25h-3.09l-0.03,15.45,9.48,0.03v-15.51l-3.69.03a10.477,10.477,0,0,0,.81-2.22h4.32v-2.16Zm-3.69,10.89v2.34l-5.07-.03v-2.31h5.07Zm0-4.44v2.37h-5.07v-2.37h5.07Zm-5.1,8.88h5.1v2.43h-5.07Zm-11.61.81a12.21,12.21,0,0,1-2.43,4.83,27.634,27.634,0,0,0,.435-3.165q0.165-1.875.165-3.405l0.03-12.15h4.56a7.27,7.27,0,0,1-1.08,2.22h-2.61v10.71l3.51-.03,0.03,7.02a1.075,1.075,0,0,1-.15.555,0.848,0.848,0,0,1-.33.345,5.028,5.028,0,0,1-1.62.06q-1.05-.09-1.44-0.12l0.81,2.28q0.27-.03,1.23-0.045a10.087,10.087,0,0,0,1.47-.1,3.665,3.665,0,0,0,.9-0.27,2.315,2.315,0,0,0,.915-0.855,2.2,2.2,0,0,0,.405-1.215l-0.03-7.62h3.18l0.03-10.71h-3.69q0.36-.72.96-2.22h2.88v-2.1L94.562,179v12.87a34.552,34.552,0,0,1-.585,6.6,13.031,13.031,0,0,1-1.725,4.71l2.04,1.38a15.551,15.551,0,0,0,.99-1.875,13.034,13.034,0,0,0,.72-1.965l1.74,0.87a14.346,14.346,0,0,0,1.755-2.685,16.9,16.9,0,0,0,1.245-3.135Zm1.26-7.38-0.03-2.22h4.47v2.22h-4.44Zm4.44,2.1-0.03,2.22h-4.41q-0.06-1.56-.03-2.25Zm-0.81,6.06a11.671,11.671,0,0,1,1.62,2.52,15.2,15.2,0,0,1,.99,2.97l2.07-1.08a14.833,14.833,0,0,0-2.64-5.19Zm16.11,6.99a16.855,16.855,0,0,0-4.83-3.96l-1.62,1.62a9.061,9.061,0,0,1,2.64,1.62,13.744,13.744,0,0,1,2.25,2.37Zm-12.12,1.68a12,12,0,0,0,5.04-4.11l-1.56-1.5a11.828,11.828,0,0,1-2.25,2.34,12.183,12.183,0,0,1-2.79,1.68ZM124.922,179v13.83a34.82,34.82,0,0,1-.24,4.365,13.113,13.113,0,0,1-.855,3.36,12.335,12.335,0,0,1-1.485,2.655l1.86,1.41a13.2,13.2,0,0,0,2.58-5.85q0.27-1.62.42-3.78l4.08-.03v5.67a1.094,1.094,0,0,1-.2.6,0.738,0.738,0,0,1-.375.27,10.916,10.916,0,0,1-1.74.06q-1.11-.03-1.53-0.03,0.78,2.009.87,2.31h2.67a2.633,2.633,0,0,0,1.35-.39,2.58,2.58,0,0,0,.93-0.84,1.556,1.556,0,0,0,.27-0.75v-22.89Zm6.3,2.19v4.62h-3.99v-4.59Zm0,11.58h-3.99V188l4.05-.03Zm7.62-1.59a19.15,19.15,0,0,0,3.03,7.95,20.158,20.158,0,0,1-3.99,3.96c0.08,0.079.305,0.325,0.675,0.735s0.665,0.715.885,0.915q1.17-.962,2.31-2.07a18.566,18.566,0,0,0,1.65-1.77,22.868,22.868,0,0,0,1.95,1.74,22.412,22.412,0,0,0,2.55,1.71l1.35-1.71a32.808,32.808,0,0,1-3.48-2.52,12.924,12.924,0,0,1-1.2-1.23,28.723,28.723,0,0,0,1.89-4.59,23.609,23.609,0,0,0,1.05-5.34h-9.78l0.03-7.74h7.14q-0.06.69-.24,1.89a10.36,10.36,0,0,1-.36,1.71,0.519,0.519,0,0,1-.48.45,16.545,16.545,0,0,1-2.025-.24q-1.245-.21-1.635-0.27l0.66,2.4a14.287,14.287,0,0,0,3.39.21,2.874,2.874,0,0,0,1.47-.585,2.2,2.2,0,0,0,.9-1.275,36.693,36.693,0,0,0,.9-6.51h-12.03v25.59l2.31-.06v-13.35h1.08Zm6.24-.03a31.642,31.642,0,0,1-1,3.33q-0.525,1.41-1,2.4a15.368,15.368,0,0,1-1.35-3.135,16.974,16.974,0,0,1-.63-2.595h3.99Zm20.7-3.99h-4.11l0.63-.6-1.53-1.44a20.219,20.219,0,0,0,3.63-4.11V179h-10.32v2.22h7.56a12.2,12.2,0,0,1-2.67,2.58q-0.36-.21-1.035-0.57t-1.095-.57l-1.65,1.53a17.265,17.265,0,0,1,4.53,2.97h-6.75v2.22h4.02a21.325,21.325,0,0,1-1.875,5.355,13.556,13.556,0,0,1-3.255,4.065l1.74,1.56a15.844,15.844,0,0,0,3.63-4.725,24.055,24.055,0,0,0,2.04-6.255v12.03a0.827,0.827,0,0,1-.195.645,1.058,1.058,0,0,1-.675.165q-1.05.03-2.7-.09l0.81,2.43a18.294,18.294,0,0,0,2.91-.09,2.411,2.411,0,0,0,1.62-.78,2.662,2.662,0,0,0,.57-1.8v-12.51h1.38l-0.42,1.44,1.29,0.3-1.26.42,1.26,1.98a27.433,27.433,0,0,0,7.17-3.66,19.694,19.694,0,0,0,3.645,2.265,23.159,23.159,0,0,0,3.945,1.485l1.26-2.1a22.185,22.185,0,0,1-3.99-1.29,12.919,12.919,0,0,1-3.18-1.92,13.523,13.523,0,0,0,3.12-5.85h2.43v-2.22l-8.58-.03a17.44,17.44,0,0,0,.72-2.34l-2.07-.69a18.82,18.82,0,0,1-2.355,5.295,14.379,14.379,0,0,1-2.835,3.045l2.1,1.29a11.158,11.158,0,0,0,2.04-2.16,16.247,16.247,0,0,0,1.35,2.5q0.6,0.855.84,1.125a13.58,13.58,0,0,1-2.07,1.29,22.521,22.521,0,0,1-2.37,1.05Zm7.65-4.71a9.669,9.669,0,0,1-2.25,4.29,11.332,11.332,0,0,1-2.22-4.29h4.47Zm-10.08,22.17a10.771,10.771,0,0,0,3.72-1.83,9.643,9.643,0,0,0,2.79-3.24,11.115,11.115,0,0,0,1.26-3.87h3.33q-0.09,1.08-.345,2.595a19.2,19.2,0,0,1-.5,2.3,0.851,0.851,0,0,1-.435.69,2.059,2.059,0,0,1-.735.12,13.535,13.535,0,0,1-3.15-.39l0.57,2.43a17.312,17.312,0,0,0,2.85.24,3.554,3.554,0,0,0,2.175-.585,2.637,2.637,0,0,0,.795-1.335,45.037,45.037,0,0,0,1.02-8.28h-5.22a18.011,18.011,0,0,0,.06-2.13H169.2a18.011,18.011,0,0,1-.06,2.13h-4.53v2.22h4.2a10.158,10.158,0,0,1-.87,2.445,7.835,7.835,0,0,1-1.665,2.25,7.642,7.642,0,0,1-2.115,1.455,8.07,8.07,0,0,1-2.1.63Zm20.76-24.69v20.58h2.31v-2.25h3.42l-0.03,2.19h2.28v-20.49Zm5.7,7.86h-3.39v-5.73h3.39v5.73Zm-3.36,8.37v-6.24h3.39l-0.03,6.24h-3.36Zm15.45-9.21v-3.93h5.52v-2.13h-5.55l-0.03-3.57h-2.4v3.6l-5.4-.03v2.13h5.4v3.9l-6.45.03,0.03,2.1,15.57,0.03v-2.16Zm3.06,7.47h4.23v-2.16l-4.26.03v-2.7l-2.43.03-0.03,2.64-9.66.03v2.13h9.66l0.03,7.17a0.661,0.661,0,0,1-.21.48,0.529,0.529,0,0,1-.45.18,5.166,5.166,0,0,1-.57.03q-0.3,0-2.82-.18,0.33,0.839.78,2.34h3.33a2.028,2.028,0,0,0,1.26-.465,2.788,2.788,0,0,0,.855-1.02,2.356,2.356,0,0,0,.255-0.945Zm-10.89,2.19a6.872,6.872,0,0,1,2.445,1.74,11.7,11.7,0,0,1,2.025,2.82l1.92-1.56a11.823,11.823,0,0,0-1.86-2.535,8.371,8.371,0,0,0-2.64-2Zm28.53-15.42v1.44h-5.85l0.03-1.47Zm6.9,3.6h5.73v1.56H229.5v-1.56Zm5.79,3.69v12.6a0.849,0.849,0,0,1-.72.72,16.056,16.056,0,0,1-3.3-.15l0.93,2.4c0.24-.02.63-0.026,1.17-0.015s1,0,1.395-.015a3.619,3.619,0,0,0,1.125-.24,2.883,2.883,0,0,0,1.155-.885,2.207,2.207,0,0,0,.5-1.425v-22.5l-10.38-.03,0.03,9.51Zm-0.06-7.35v1.44H229.5v-1.44h5.73Zm-18.42,23.34-0.06-15.96h8.13v-9.54L214.5,179v25.47h2.31Zm5.79-19.68v1.53h-5.85l0.03-1.53h5.82Zm-2.46,5.22v10.35h11.79l0.03-10.35h-11.82Zm9.48,2.16,0.03,1.86h-7.23V192.2Zm0,4.05,0.03,1.98h-7.2v-1.98h7.17Z"/>
</svg>
