<svg xmlns="http://www.w3.org/2000/svg" width="300" height="50" viewBox="0 0 300 50">
  <defs>
    <style>
      .cls-1 {
        fill: #232323;
        fill-rule: evenodd;
      }
    </style>
  </defs>
  <path class="cls-1" d="M6.45,39.983L7.224,38.79,6,38.35l0.169-.538,1.193,0.431V36.825H7.877v1.417l1.193-.431L9.239,38.35l-1.225.44,0.774,1.193-0.4.358L7.619,39.167,6.853,40.342Zm8-1.543H13.414v4.8h-0.54V41.1H11.06a8.294,8.294,0,0,1-.6,1.507L9.835,42.3a4.2,4.2,0,0,0,.814-2.09,3.655,3.655,0,0,0-.475-1.767H9.247V37.866h5.206V38.44Zm-3.667,0a4.527,4.527,0,0,1,.379,1.83c0,0.09,0,.171-0.008.261h1.717V38.44H10.786Zm1.459,3.9a0.41,0.41,0,0,1-.379.43,0.4,0.4,0,0,1-.379-0.43,0.4,0.4,0,0,1,.379-0.422A0.4,0.4,0,0,1,12.245,42.342Zm6.706-3.9H17.822v2.969c0,1.076-.475,1.839-1.435,1.839a2.087,2.087,0,0,1-1.958-2.009,1.258,1.258,0,0,1,1.467-1.3h1.378v-1.5h-3.53V37.866h5.206V38.44ZM17.274,41.4V40.512H15.9c-0.661,0-.9.269-0.9,0.708a1.557,1.557,0,0,0,1.426,1.462C17.016,42.683,17.274,42.163,17.274,41.4Zm4.594-1a1.248,1.248,0,0,1,.483,1.085,1.653,1.653,0,0,1-1.8,1.659,2.41,2.41,0,0,1-1.6-.547V42.028a2.746,2.746,0,0,0,1.555.547,1.148,1.148,0,0,0,1.306-1.121c0-.754-0.589-0.718-2.031-0.718V40.162c1.6,0,2.039-.054,2.023-1.068V38.44H18.25V37.866h5.206V38.44H22.344v0.574A1.486,1.486,0,0,1,21.868,40.4Zm3.82-1.965H24.48V41.1H23.94V38.44H22.715V37.866h2.974V38.44Zm-1.781-2.063a0.359,0.359,0,0,1,.339-0.386,0.37,0.37,0,0,1,.346.386,0.376,0.376,0,0,1-.346.386A0.364,0.364,0,0,1,23.908,36.377ZM33.78,38.44H32.1a1.912,1.912,0,0,1,.032.4,3.515,3.515,0,0,1-.153,1,1.826,1.826,0,0,1,1.088,1.7,1.536,1.536,0,0,1-1.531,1.624V42.611a1.008,1.008,0,0,0,.991-1.049,1.351,1.351,0,0,0-.75-1.2,3.043,3.043,0,0,1-1.056,1.229,2.868,2.868,0,0,1-1.064-1.22,1.342,1.342,0,0,0-.741,1.193,1,1,0,0,0,.983,1.049v0.565a1.53,1.53,0,0,1-1.523-1.623,1.8,1.8,0,0,1,1.08-1.7,3.529,3.529,0,0,1-.145-1.014,2.79,2.79,0,0,1,.024-0.4H27.462V37.866H33.78V38.44Zm-2.208,0h-1.7a3.287,3.287,0,0,0-.024.422,2.42,2.42,0,0,0,.878,2.063,2.594,2.594,0,0,0,.879-2.081A2.15,2.15,0,0,0,31.572,38.44Zm4.489,0H34.852V41.1h-0.54V38.44H33.087V37.866h2.974V38.44Zm6.077,0H41.01v4.852H40.47V38.44H39.027v3.023c0,1.166-.443,1.83-1.193,1.83a2.132,2.132,0,0,1-1.8-2.063A1.269,1.269,0,0,1,37.5,39.983h0.983V38.44H35.449V37.866h6.689V38.44Zm-3.651,3V40.557H37.5a0.771,0.771,0,0,0-.911.646,1.621,1.621,0,0,0,1.225,1.515C38.487,42.71,38.487,41.679,38.487,41.436Zm2.4,2.377v0.529a2.14,2.14,0,0,1-1.3.359,2.183,2.183,0,0,1-1.306-.359V43.813a2.181,2.181,0,0,0,1.273.332A2.4,2.4,0,0,0,40.889,43.813Zm0,1.292v0.529a2.144,2.144,0,0,1-1.3.359,2.187,2.187,0,0,1-1.306-.359V45.1a2.181,2.181,0,0,0,1.273.332A2.4,2.4,0,0,0,40.889,45.1Zm7.793-6.665H47.611v2.942c0,1.076-.459,1.838-1.475,1.838a2.1,2.1,0,0,1-1.918-2,1.26,1.26,0,0,1,1.467-1.309h0.258v0.574H45.685c-0.661,0-.9.269-0.9,0.708a1.562,1.562,0,0,0,1.4,1.462c0.621,0,.879-0.52.879-1.283V38.44H43.476V37.866h5.206V38.44Zm2.217,0v1.175a1.747,1.747,0,0,1,1.523,1.839,1.572,1.572,0,0,1-1.4,1.659V42.548a1.088,1.088,0,0,0,.87-1.139,1.257,1.257,0,0,0-2.514,0,1.088,1.088,0,0,0,.87,1.139v0.565a1.566,1.566,0,0,1-1.4-1.659,1.747,1.747,0,0,1,1.523-1.839V38.44H47.99V37.866H53.2V38.44H50.9ZM55,42.871h-0.54V37.982H55v4.889Z"/>
</svg>
