<svg xmlns="http://www.w3.org/2000/svg" width="300" height="50" viewBox="0 0 300 50">
  <defs>
    <style>
      .cls-1 {
        fill: #4b286c;
        fill-rule: evenodd;
      }
    </style>
  </defs>
  <path class="cls-1" d="M14.377,9.57c0,1.745-1.082,2.985-3.272,2.985H8.165v3.735H7v-9.7h4.1C13.3,6.585,14.377,7.825,14.377,9.57Zm-1.206,0A1.8,1.8,0,0,0,11.1,7.621H8.165v3.9H11.1A1.8,1.8,0,0,0,13.171,9.57Zm8.068-.313v7.033H20.185V15.24a2.647,2.647,0,0,1-2.246,1.213,2.262,2.262,0,0,1-2.524-2.439V9.257h1.109V13.9a1.423,1.423,0,0,0,1.636,1.567,2.016,2.016,0,0,0,1.969-2.235V9.257h1.109Zm5.129-.1v1.05H26.09c-1.428,0-2.343.709-2.343,2.072v4.007H22.637V9.257h1.054V10.5a2.5,2.5,0,0,1,2.3-1.349C26.1,9.147,26.214,9.147,26.367,9.161Zm6.6,3.993H27.53c0.111,1.581.957,2.3,2.2,2.3a1.836,1.836,0,0,0,1.9-1.308h1.151a2.975,2.975,0,0,1-3.078,2.3c-1.955,0-3.328-1.4-3.328-3.68,0-2.208,1.317-3.68,3.3-3.68,2.135,0,3.286,1.663,3.286,3.68v0.381Zm-5.408-.981h4.215A2.108,2.108,0,0,0,27.558,12.173Zm7.625-4.553v3.094h4.811V11.75H35.183v4.539H34.018v-9.7h6.531V7.621H35.183Zm5.739-.1a0.749,0.749,0,1,1,.749.736A0.748,0.748,0,0,1,40.921,7.525Zm0.194,1.731h1.109v7.033H41.115V9.257Zm9.345,3.516c0,2.249-1.317,3.68-3.328,3.68A2.826,2.826,0,0,1,44.678,15.2v1.09H43.624v-9.7h1.109v3.68a2.827,2.827,0,0,1,2.4-1.172C49.143,9.093,50.46,10.524,50.46,12.773ZM49.3,12.718c0-1.7-.915-2.644-2.3-2.644s-2.3,1-2.3,2.7,0.915,2.7,2.3,2.7S49.3,14.422,49.3,12.718Zm5.946-3.557v1.05H54.964c-1.428,0-2.343.709-2.343,2.072v4.007H51.512V9.257h1.054V10.5a2.5,2.5,0,0,1,2.3-1.349C54.978,9.147,55.089,9.147,55.242,9.161Zm6.6,3.993H56.405c0.111,1.581.957,2.3,2.2,2.3a1.836,1.836,0,0,0,1.9-1.308H61.66a2.975,2.975,0,0,1-3.078,2.3c-1.955,0-3.328-1.4-3.328-3.68,0-2.208,1.317-3.68,3.3-3.68,2.135,0,3.286,1.663,3.286,3.68v0.381Zm-5.408-.981h4.216A2.108,2.108,0,0,0,56.433,12.173Zm8.9-5.588H66.5v9.7H65.332v-9.7Zm8.457,4.948v4.757H72.68V11.642a1.424,1.424,0,0,0-1.636-1.568,2.016,2.016,0,0,0-1.969,2.236v3.98H67.966V9.257H69.02v1.049a2.646,2.646,0,0,1,2.246-1.213A2.262,2.262,0,0,1,73.79,11.533Zm2.785-1.322v4.566c0,0.368.18,0.6,0.818,0.6h0.652v0.913q-0.458.041-.79,0.041c-1.109,0-1.789-.382-1.789-1.459V10.21H74.287V9.257h1.179V7.267h1.109v1.99h1.47V10.21h-1.47Zm8.485,2.944H79.624c0.111,1.581.957,2.3,2.2,2.3a1.836,1.836,0,0,0,1.9-1.308H84.88a2.975,2.975,0,0,1-3.078,2.3c-1.955,0-3.328-1.4-3.328-3.68,0-2.208,1.317-3.68,3.3-3.68,2.135,0,3.286,1.663,3.286,3.68v0.381Zm-5.408-.981h4.216A2.108,2.108,0,0,0,79.652,12.173ZM89.841,9.161v1.05H89.564c-1.428,0-2.343.709-2.343,2.072v4.007H86.111V9.257h1.054V10.5a2.5,2.5,0,0,1,2.3-1.349C89.578,9.147,89.689,9.147,89.841,9.161Zm6.6,2.372v4.757H95.331V11.642a1.424,1.424,0,0,0-1.636-1.568,2.016,2.016,0,0,0-1.969,2.236v3.98H90.617V9.257H91.67v1.049a2.646,2.646,0,0,1,2.246-1.213A2.262,2.262,0,0,1,96.44,11.533Zm7.639,1.622H98.643c0.111,1.581.957,2.3,2.2,2.3a1.835,1.835,0,0,0,1.9-1.308H103.9a2.974,2.974,0,0,1-3.078,2.3c-1.955,0-3.328-1.4-3.328-3.68,0-2.208,1.317-3.68,3.3-3.68,2.136,0,3.287,1.663,3.287,3.68v0.381Zm-5.408-.981h4.215A2.108,2.108,0,0,0,98.671,12.173Zm7.708-1.963v4.566c0,0.368.18,0.6,0.818,0.6h0.651v0.913q-0.457.041-.79,0.041c-1.109,0-1.789-.382-1.789-1.459V10.21h-1.178V9.257h1.178V7.267h1.11v1.99h1.469V10.21h-1.469Zm3.8,5.874a1.854,1.854,0,0,1-1.552,2.071l-0.139.028V17.461l0.1-.027a1.012,1.012,0,0,0,.763-1.063h-0.084a0.717,0.717,0,0,1-.776-0.709,0.738,0.738,0,0,1,.776-0.736A0.96,0.96,0,0,1,110.176,16.085Zm10.856-8.464h-3.356v8.668H116.47V7.621h-3.355V6.585h7.917V7.621Zm8.761-1.036-3.66,9.7h-1.3l-3.716-9.7h1.234l2.288,6.147c0.3,0.831.6,1.649,0.846,2.412,0.249-.763.541-1.581,0.846-2.412l2.246-6.147h1.22Zm14.056,2.453h-1.788V16.33h-0.929v-3.8h-1.415a10.648,10.648,0,0,1-1.081,2.821l-0.957-.422c1.428-2.658,1.525-3.544.707-4.4-0.832.081-1.636,0.913-2.814,3.257l-0.915-.423c1-2.153,1.039-3.516.3-4.32h-2.108V8.166h2.551a2.746,2.746,0,0,1,.9,2.739,2.767,2.767,0,0,1,2.524-1.254,2.637,2.637,0,0,1,.971,2h1.331V8.166h2.717V9.038Zm4.685,2.985a1.832,1.832,0,0,1,.832,1.649c0,1.5-1.276,2.522-3.093,2.522a4.492,4.492,0,0,1-2.759-.831V14.49a5.12,5.12,0,0,0,2.676.831c1.206,0,2.246-.545,2.246-1.7s-1.012-1.091-3.494-1.091V11.655c2.746,0,3.508-.081,3.481-1.622V9.038h-6.115V8.166h8.957V9.038h-1.913V9.911C149.352,11.342,148.88,11.832,148.534,12.023Zm0.76-3.83h-0.873A2.186,2.186,0,0,0,145.953,5.9l-0.208-.872A3.144,3.144,0,0,1,149.294,8.193Zm5.5,4.893H156c0.028,1.8,1.29,2.385,2.9,2.385,1.581,0,2.5-.613,2.5-1.813,0-.927-0.652-1.377-2.4-1.758l-0.873-.191c-1.678-.369-3-1.036-3-2.808,0-1.553,1.317-2.535,3.369-2.535,2.912,0,3.813,1.458,3.855,3.039h-1.193c-0.1-1.254-.693-2-2.662-2-1.428,0-2.163.586-2.163,1.5s0.458,1.39,2.316,1.8l0.873,0.191c2.274,0.491,3.078,1.363,3.078,2.767,0,1.717-1.331,2.849-3.7,2.849S154.826,15.512,154.8,13.086Zm15.166,0.068h-5.435c0.111,1.581.957,2.3,2.205,2.3a1.835,1.835,0,0,0,1.9-1.308h1.152a2.976,2.976,0,0,1-3.079,2.3c-1.955,0-3.327-1.4-3.327-3.68,0-2.208,1.317-3.68,3.3-3.68,2.135,0,3.285,1.663,3.285,3.68v0.381Zm-5.407-.981h4.215A2.108,2.108,0,0,0,164.557,12.173Zm6.113,0.6c0-2.263,1.331-3.68,3.314-3.68a2.885,2.885,0,0,1,3.078,2.549h-1.151a1.855,1.855,0,0,0-1.927-1.568c-1.221,0-2.149.859-2.149,2.7s0.956,2.7,2.149,2.7a1.872,1.872,0,0,0,1.941-1.594h1.137a2.936,2.936,0,0,1-3.078,2.576C172.028,16.453,170.67,15.035,170.67,12.773ZM183.8,9.257v7.033h-1.054V15.24a2.646,2.646,0,0,1-2.246,1.213,2.262,2.262,0,0,1-2.524-2.439V9.257h1.109V13.9a1.423,1.423,0,0,0,1.636,1.567,2.016,2.016,0,0,0,1.97-2.235V9.257H183.8Zm5.128-.1v1.05H188.65c-1.429,0-2.344.709-2.344,2.072v4.007H185.2V9.257h1.053V10.5a2.5,2.5,0,0,1,2.3-1.349C188.664,9.147,188.775,9.147,188.927,9.161Zm0.581-1.635a0.749,0.749,0,1,1,.749.736A0.748,0.748,0,0,1,189.508,7.525ZM189.7,9.257h1.109v7.033H189.7V9.257Zm4.172,0.954v4.566c0,0.368.181,0.6,0.818,0.6h0.652v0.913c-0.305.027-.569,0.041-0.79,0.041-1.11,0-1.789-.382-1.789-1.459V10.21h-1.179V9.257h1.179V7.267h1.109v1.99h1.47V10.21h-1.47ZM202,9.257l-3.023,8.136A2.16,2.16,0,0,1,196.648,19a5.544,5.544,0,0,1-.666-0.041V18.048h0.652a1.252,1.252,0,0,0,1.3-.872c0.083-.2.167-0.436,0.25-0.654L195.5,9.257h1.22l1.012,2.93c0.361,1.022.693,2.031,1.026,3.04,0.319-1.009.666-2.031,1.026-3.053l1.013-2.917H202Z"/>
</svg>
