<svg xmlns="http://www.w3.org/2000/svg" width="300" height="50" viewBox="0 0 300 50">
  <defs>
    <style>
      .cls-1 {
        fill: #4b286c;
        fill-rule: evenodd;
      }
    </style>
  </defs>
  <path class="cls-1" d="M13.732,22.587v0.424H12.778V22.587c0-1.313-.722-1.666-1.315-1.666s-1.3.353-1.3,1.666v1.355h2.167v0.9H10.164V32.4H9.2V24.846H7v-0.9H9.2V22.587c0-1.553.766-2.569,2.268-2.569S13.732,21.035,13.732,22.587Zm6.428,2.259H18.3V32.4H17.328v-3.36h-3.25a12.128,12.128,0,0,1-1.083,2.372l-1.113-.494c0.809-1.27,1.459-2.089,1.459-3.289a5.22,5.22,0,0,0-.852-2.781H10.827v-0.9H20.16v0.9Zm-6.574,0a6.391,6.391,0,0,1,.679,2.88,3.882,3.882,0,0,1-.014.409h3.077V24.846H13.586Zm14.358,0H25.922V29.52c0,1.694-.852,2.894-2.571,2.894a3.529,3.529,0,0,1-3.511-3.162c0-1.144.751-2.047,2.629-2.047h2.47V24.846H18.612v-0.9h9.333v0.9Zm-3.005,4.659v-1.4h-2.47c-1.184,0-1.618.424-1.618,1.115a2.634,2.634,0,0,0,2.557,2.3C24.477,31.524,24.939,30.705,24.939,29.505Zm4.3-.184a2.035,2.035,0,0,0,.65,1.511,2.675,2.675,0,0,1,2.716-1.906,1.8,1.8,0,0,1,2.051,1.68c0,1.087-1.04,1.878-2.658,1.878-2.109,0-3.727-1.326-3.727-3.2,0-1.285.765-2.682,3.12-2.682h1.893V24.846h-6.6v-0.9h9.332v0.9H34.256V27.5H31.049A1.7,1.7,0,0,0,29.243,29.321Zm-0.549,2.273a0.682,0.682,0,0,1-.679.677,0.673,0.673,0,0,1-.679-0.677,0.662,0.662,0,0,1,.679-0.664A0.671,0.671,0,0,1,28.694,31.595Zm1.777-.353a3.606,3.606,0,0,0,1.589.339c0.953,0,1.633-.311,1.633-0.861a1.049,1.049,0,0,0-1.272-.889A2,2,0,0,0,30.471,31.242Zm14,1.327v1.426h-1.04v-1.44c-2.369-.169-3.771-1.384-3.785-3.515h1.921A1.839,1.839,0,0,0,43.426,31V28.009l-0.217-.043C41.216,27.6,39.9,26.738,39.9,24.917c0-1.6,1.242-2.739,3.525-2.837V20.667h1.04v1.44c2.355,0.226,3.366,1.468,3.438,3.19H46.012a1.592,1.592,0,0,0-1.546-1.638v2.8L44.8,26.512c2.427,0.466,3.41,1.383,3.41,2.979C48.208,31.368,46.792,32.456,44.466,32.569Zm-1.04-6.339v-2.6c-1.026.071-1.531,0.537-1.531,1.229C41.895,25.58,42.271,25.947,43.426,26.23Zm2.759,3.36c0-.72-0.448-1.073-1.719-1.37V31.03C45.579,30.945,46.185,30.451,46.185,29.59ZM52.9,32.357h-1.95V25.58H48.582V24.24l0.231-.014c1.329-.085,2.224-0.48,2.543-1.92H52.9V32.357Zm8.623-1.61v1.61H54.041l0.044-.748a4.065,4.065,0,0,1,2.7-3.967l1.011-.509c1.17-.55,1.647-1.073,1.647-1.948a1.475,1.475,0,0,0-1.69-1.5,1.6,1.6,0,0,0-1.777,1.836H54.1c-0.014-2.1,1.214-3.445,3.713-3.445,2.239,0,3.6,1.256,3.6,2.964,0,1.6-.91,2.556-2.716,3.431l-0.954.494c-0.968.509-1.444,0.918-1.517,1.779h5.3Zm8-1.651c0,2.09-1.575,3.487-3.843,3.487-2.08,0-3.655-1.172-3.8-3.092h1.864a1.821,1.821,0,0,0,1.936,1.553,1.95,1.95,0,1,0-1.806-2.88H62.086L63.039,22.3h5.952v1.61H64.571l-0.448,2.5A2.971,2.971,0,0,1,66,25.75,3.233,3.233,0,0,1,69.526,29.1ZM73.511,22.3h1.762L71.59,32.357H69.827ZM86.7,24.846H84.835V32.4H83.867v-3.36H80.616a12.128,12.128,0,0,1-1.084,2.372l-1.112-.494c0.809-1.27,1.459-2.089,1.459-3.289a5.221,5.221,0,0,0-.852-2.781H77.366v-0.9h2.181A6.124,6.124,0,0,1,80.8,27.726a3.882,3.882,0,0,1-.014.409h3.077V23.943H86.7v0.9Zm7.713,0H92.49v4.631c0,1.694-.824,2.894-2.644,2.894a3.545,3.545,0,0,1-3.438-3.149c0-1.158.751-2.061,2.629-2.061H89.5v0.9H89.037c-1.185,0-1.618.424-1.618,1.115a2.636,2.636,0,0,0,2.514,2.3c1.113,0,1.575-.819,1.575-2.019V24.846H85.078v-0.9h9.333v0.9Zm3.725,0h-2.2V32.4H94.973V24.846H92.805v-0.9h2.167V22.587c0-1.313-.708-1.666-1.3-1.666s-1.315.353-1.315,1.666v0.424H91.4V22.587c0-1.553.751-2.569,2.268-2.569s2.268,1.017,2.268,2.569v1.355h2.2v0.9Zm3.7,0V26.7a2.876,2.876,0,0,1,2.73,2.894A2.6,2.6,0,0,1,102.05,32.2V31.312a1.77,1.77,0,0,0,1.56-1.793,2.275,2.275,0,0,0-4.507,0,1.77,1.77,0,0,0,1.56,1.793V32.2A2.59,2.59,0,0,1,98.15,29.59a2.876,2.876,0,0,1,2.73-2.894v-1.85H96.619v-0.9h9.332v0.9h-4.117Zm7.929,0H107.6v4.193h-0.968V24.846h-2.2v-0.9h5.331v0.9Zm1.961,0.664,0.546-.72-0.868-.273,0.174-.485,0.83,0.261V23.415h0.533v0.878l0.836-.261,0.173,0.485-0.867.273,0.539,0.72-0.415.321-0.533-.7-0.533.7Zm10.558,2.428a1.9,1.9,0,0,1,.867,1.708c0,1.553-1.329,2.612-3.222,2.612a4.7,4.7,0,0,1-2.875-.861v-0.9a5.354,5.354,0,0,0,2.788.861c1.257,0,2.341-.565,2.341-1.765s-1.055-1.13-3.641-1.13v-0.9c2.86,0,3.655-.084,3.626-1.68v-1.03H115.8v-0.9h9.333v0.9h-1.994v0.9C123.134,27.232,122.643,27.741,122.282,27.938Zm-1.3-5.505A2.121,2.121,0,0,1,118.9,20h0.939c0,1.342.592,1.426,1.156,1.511a2.16,2.16,0,0,1,2.109,2.456h-0.939A1.325,1.325,0,0,0,120.98,22.432Zm2.5-.834a0.6,0.6,0,0,1,.606-0.607,0.618,0.618,0,0,1,.621.607,0.628,0.628,0,0,1-.621.607A0.605,0.605,0,0,1,123.478,21.6ZM128,31.82h-0.968V24.126H128V31.82Z"/>
</svg>
