<svg id="F1" xmlns="http://www.w3.org/2000/svg" width="728" height="90" viewBox="0 0 728 90">
  <defs>
    <style>
      .cls-1 {
        fill: #462b69;
        fill-rule: evenodd;
      }
    </style>
  </defs>
  <path id="Paayein_nayi_Galaxy_S23_Series_at_0_upfront_only_on_TELUS._" data-name="Paayein nayi Galaxy S23 Series at $0 upfront* only on TELUS. " class="cls-1" d="M272.124,18.676h-6.475V34.25h1.838V28.256h4.637c3.456,0,5.162-1.991,5.162-4.79S275.58,18.676,272.124,18.676Zm0,7.918h-4.637V20.338h4.637c2.187,0,3.259,1.159,3.259,3.128S274.311,26.594,272.124,26.594Zm15.684,6.234a0.517,0.517,0,0,1-.612-0.547v-6.3c0-1.9-1.116-3.281-4.244-3.281-3.3,0-4.462,1.553-4.593,3.74h1.75c0.109-1.684.918-2.231,2.843-2.231s2.537,0.59,2.537,1.772c0,1.006-.634,1.422-1.771,1.553l-1.619.175c-3.106.328-4.178,1.728-4.178,3.5,0,2.122,1.531,3.3,3.981,3.3a4.138,4.138,0,0,0,3.675-1.815,1.618,1.618,0,0,0,1.9,1.619,6.654,6.654,0,0,0,.962-0.066V32.828h-0.634Zm-5.818.2c-1.553,0-2.253-.744-2.253-1.859,0-1.094.568-1.794,2.625-2.034l1.64-.2a2.911,2.911,0,0,0,1.487-.481v1.334A3.241,3.241,0,0,1,281.99,33.025Zm17.433-.2a0.517,0.517,0,0,1-.612-0.547v-6.3c0-1.9-1.116-3.281-4.244-3.281-3.3,0-4.462,1.553-4.593,3.74h1.75c0.109-1.684.919-2.231,2.843-2.231s2.538,0.59,2.538,1.772c0,1.006-.635,1.422-1.772,1.553l-1.619.175c-3.106.328-4.177,1.728-4.177,3.5,0,2.122,1.531,3.3,3.98,3.3a4.136,4.136,0,0,0,3.675-1.815,1.619,1.619,0,0,0,1.9,1.619,6.678,6.678,0,0,0,.963-0.066V32.828h-0.635Zm-5.818.2c-1.553,0-2.253-.744-2.253-1.859,0-1.094.569-1.794,2.625-2.034l1.64-.2a2.911,2.911,0,0,0,1.488-.481v1.334A3.242,3.242,0,0,1,293.605,33.025Zm14.7-10.062-1.6,4.681c-0.569,1.641-1.116,3.281-1.619,4.9-0.525-1.619-1.05-3.237-1.618-4.878l-1.6-4.7h-1.925l4.244,11.659c-0.132.35-.263,0.722-0.394,1.05a1.978,1.978,0,0,1-2.056,1.4h-1.028v1.465a8.739,8.739,0,0,0,1.05.066,3.41,3.41,0,0,0,3.674-2.581l4.769-13.058h-1.9Zm12.621,5.643c0-3.237-1.815-5.906-5.184-5.906-3.128,0-5.206,2.362-5.206,5.906,0,3.653,2.166,5.906,5.25,5.906a4.709,4.709,0,0,0,4.856-3.7h-1.816a2.9,2.9,0,0,1-3,2.1c-1.969,0-3.3-1.159-3.478-3.7h8.574V28.606ZM315.742,24.3c2.013,0,3.128,1.487,3.3,3.347H312.4C312.68,25.413,313.97,24.3,315.742,24.3Zm8.247-2.931a1.181,1.181,0,1,0-1.181-1.181A1.19,1.19,0,0,0,323.989,21.366ZM323.114,34.25h1.75V22.963h-1.75V34.25ZM332.805,22.7a4.159,4.159,0,0,0-3.544,1.947V22.963H327.6V34.25h1.75V27.863c0-2.494,1.64-3.587,3.106-3.587a2.264,2.264,0,0,1,2.581,2.515V34.25h1.75V26.616C336.786,24.122,335.32,22.7,332.805,22.7Zm16.187,0a4.159,4.159,0,0,0-3.544,1.947V22.963h-1.662V34.25h1.75V27.863c0-2.494,1.64-3.587,3.106-3.587a2.264,2.264,0,0,1,2.581,2.515V34.25h1.75V26.616C352.973,24.122,351.507,22.7,348.992,22.7Zm15.946,10.127a0.517,0.517,0,0,1-.612-0.547v-6.3c0-1.9-1.116-3.281-4.244-3.281-3.3,0-4.462,1.553-4.593,3.74h1.75c0.109-1.684.918-2.231,2.843-2.231s2.538,0.59,2.538,1.772c0,1.006-.635,1.422-1.772,1.553l-1.619.175c-3.106.328-4.178,1.728-4.178,3.5,0,2.122,1.531,3.3,3.981,3.3a4.136,4.136,0,0,0,3.675-1.815,1.619,1.619,0,0,0,1.9,1.619,6.654,6.654,0,0,0,.962-0.066V32.828h-0.634Zm-5.818.2c-1.553,0-2.253-.744-2.253-1.859,0-1.094.569-1.794,2.625-2.034l1.64-.2a2.915,2.915,0,0,0,1.488-.481v1.334A3.242,3.242,0,0,1,359.12,33.025Zm14.7-10.062-1.6,4.681c-0.569,1.641-1.116,3.281-1.619,4.9-0.525-1.619-1.05-3.237-1.618-4.878l-1.6-4.7h-1.925l4.243,11.659c-0.131.35-.262,0.722-0.393,1.05a1.978,1.978,0,0,1-2.056,1.4h-1.029v1.465a8.739,8.739,0,0,0,1.05.066,3.411,3.411,0,0,0,3.675-2.581l4.769-13.058h-1.9Zm4.2-1.6a1.181,1.181,0,1,0-1.181-1.181A1.19,1.19,0,0,0,378.02,21.366ZM377.145,34.25h1.75V22.963h-1.75V34.25Zm15.946-8.006v1.662h4.965a5.067,5.067,0,0,1-5.315,5.009c-3.3,0-5.468-2.494-5.468-6.453s2.143-6.453,5.468-6.453a4.689,4.689,0,0,1,4.9,3.762h1.9c-0.525-3.237-3.041-5.446-6.8-5.446-4.506,0-7.393,3.3-7.393,8.137s2.909,8.137,7.371,8.137a5.978,5.978,0,0,0,5.1-2.45l0.393,2.1h1.51V26.244h-6.628Zm18.484,6.584a0.517,0.517,0,0,1-.612-0.547v-6.3c0-1.9-1.116-3.281-4.244-3.281-3.3,0-4.462,1.553-4.593,3.74h1.75c0.109-1.684.918-2.231,2.843-2.231s2.538,0.59,2.538,1.772c0,1.006-.635,1.422-1.772,1.553l-1.619.175c-3.106.328-4.178,1.728-4.178,3.5,0,2.122,1.531,3.3,3.981,3.3a4.136,4.136,0,0,0,3.675-1.815,1.619,1.619,0,0,0,1.9,1.619,6.654,6.654,0,0,0,.962-0.066V32.828h-0.634Zm-5.818.2c-1.553,0-2.253-.744-2.253-1.859,0-1.094.569-1.794,2.625-2.034l1.64-.2a2.915,2.915,0,0,0,1.488-.481v1.334A3.242,3.242,0,0,1,405.757,33.025Zm10.522,1.29a11.116,11.116,0,0,0,1.115-.066V32.784h-0.831a0.877,0.877,0,0,1-1.072-.963V18.676h-1.749v13.3C413.742,33.7,414.7,34.315,416.279,34.315Zm11.987-1.487a0.518,0.518,0,0,1-.613-0.547v-6.3c0-1.9-1.115-3.281-4.243-3.281-3.3,0-4.462,1.553-4.593,3.74h1.749c0.11-1.684.919-2.231,2.844-2.231s2.537,0.59,2.537,1.772c0,1.006-.634,1.422-1.771,1.553l-1.619.175c-3.106.328-4.178,1.728-4.178,3.5,0,2.122,1.531,3.3,3.981,3.3a4.138,4.138,0,0,0,3.675-1.815,1.618,1.618,0,0,0,1.9,1.619,6.654,6.654,0,0,0,.962-0.066V32.828h-0.634Zm-5.818.2c-1.553,0-2.253-.744-2.253-1.859,0-1.094.568-1.794,2.624-2.034l1.641-.2a2.911,2.911,0,0,0,1.487-.481v1.334A3.241,3.241,0,0,1,422.448,33.025Zm13.212-4.55,4.09-5.512h-2.034l-0.853,1.2c-0.7.962-1.466,2.034-2.187,3.062-0.7-1.028-1.444-2.056-2.188-3.062l-0.875-1.2h-2.056l4.09,5.512-4.309,5.775h2.035l0.59-.831c0.875-1.247,1.816-2.515,2.691-3.7,0.853,1.159,1.75,2.406,2.646,3.675l0.613,0.853h2.056Zm12.884-5.512-1.6,4.681c-0.568,1.641-1.115,3.281-1.618,4.9-0.525-1.619-1.05-3.237-1.619-4.878l-1.6-4.7h-1.925l4.244,11.659c-0.131.35-.263,0.722-0.394,1.05a1.977,1.977,0,0,1-2.056,1.4h-1.028v1.465A8.739,8.739,0,0,0,442,38.6a3.412,3.412,0,0,0,3.675-2.581l4.768-13.058h-1.9ZM462.062,34.6c3.741,0,5.841-1.815,5.841-4.572,0-2.253-1.269-3.653-4.856-4.44l-1.378-.306c-2.931-.656-3.653-1.4-3.653-2.887,0-1.466,1.159-2.406,3.412-2.406,3.106,0,4.047,1.2,4.2,3.215h1.881c-0.066-2.537-1.488-4.878-6.081-4.878-3.237,0-5.315,1.575-5.315,4.069,0,2.843,2.078,3.915,4.724,4.506l1.378,0.306c2.757,0.613,3.785,1.334,3.785,2.822,0,1.925-1.444,2.909-3.938,2.909-2.537,0-4.527-.941-4.571-3.828h-1.9C455.632,33,458.344,34.6,462.062,34.6Zm9.473-2.012c0.131-1.728,1.006-2.669,2.8-3.719L476,27.906c2.493-1.444,3.543-3.084,3.543-5.075,0-2.647-2.012-4.506-4.965-4.506-3.215,0-5.162,1.794-5.118,5.009h1.815c0-2.384,1.313-3.347,3.259-3.347a2.768,2.768,0,0,1,3.084,2.844c0,1.64-.853,2.625-2.734,3.718l-1.968,1.137a6.379,6.379,0,0,0-3.391,5.709l-0.043.853h10.28V32.587h-8.224ZM489.3,25.96a3.76,3.76,0,0,0,2.121-3.412c0-2.734-2.1-4.222-4.987-4.222-3.15,0-5.074,1.859-5.1,4.637h1.837c0.088-2.1,1.466-2.975,3.259-2.975,1.9,0,3.128.941,3.128,2.6s-1.137,2.647-3.237,2.647h-1.05v1.531h1.159c2.188,0,3.544,1.225,3.544,3.106s-1.356,3.062-3.434,3.062c-2.275,0-3.566-1.181-3.631-3.39h-1.816c-0.022,3.018,1.881,5.053,5.447,5.053,3.171,0,5.359-1.881,5.359-4.725A4.327,4.327,0,0,0,489.3,25.96Zm14.874,8.64c3.741,0,5.841-1.815,5.841-4.572,0-2.253-1.269-3.653-4.856-4.44l-1.378-.306c-2.931-.656-3.653-1.4-3.653-2.887,0-1.466,1.159-2.406,3.412-2.406,3.106,0,4.047,1.2,4.2,3.215h1.881c-0.066-2.537-1.488-4.878-6.081-4.878-3.237,0-5.315,1.575-5.315,4.069,0,2.843,2.078,3.915,4.724,4.506l1.378,0.306c2.757,0.613,3.785,1.334,3.785,2.822,0,1.925-1.444,2.909-3.938,2.909-2.537,0-4.527-.941-4.571-3.828h-1.9C497.741,33,500.453,34.6,504.171,34.6Zm17.981-5.993c0-3.237-1.815-5.906-5.184-5.906-3.128,0-5.206,2.362-5.206,5.906,0,3.653,2.166,5.906,5.25,5.906a4.709,4.709,0,0,0,4.856-3.7h-1.816a2.9,2.9,0,0,1-3,2.1c-1.969,0-3.3-1.159-3.478-3.7h8.574V28.606ZM516.968,24.3c2.013,0,3.128,1.487,3.3,3.347h-6.649C513.906,25.413,515.2,24.3,516.968,24.3Zm12.666-1.509A3.94,3.94,0,0,0,526,24.953v-1.99H524.34V34.25h1.75V27.819c0-2.187,1.444-3.325,3.7-3.325h0.437V22.81C529.984,22.788,529.809,22.788,529.634,22.788Zm3.216-1.422a1.181,1.181,0,1,0-1.182-1.181A1.19,1.19,0,0,0,532.85,21.366ZM531.975,34.25h1.749V22.963h-1.749V34.25ZM546.3,28.606c0-3.237-1.816-5.906-5.184-5.906-3.128,0-5.206,2.362-5.206,5.906,0,3.653,2.166,5.906,5.25,5.906a4.709,4.709,0,0,0,4.856-3.7H544.2a2.9,2.9,0,0,1-3,2.1c-1.968,0-3.3-1.159-3.477-3.7H546.3V28.606ZM541.118,24.3c2.012,0,3.128,1.487,3.3,3.347h-6.65C538.056,25.413,539.346,24.3,541.118,24.3Zm11.244,10.215c2.778,0,4.484-1.225,4.484-3.369,0-1.837-1.115-2.778-3.893-3.325l-1.007-.2c-1.443-.284-2.274-0.678-2.274-1.75,0-1.05.853-1.662,2.362-1.662,1.728,0,2.756.481,2.843,2.231h1.75c-0.043-2.406-1.575-3.74-4.593-3.74-2.581,0-4.112,1.269-4.112,3.194,0,1.75,1.071,2.865,3.521,3.325l1.05,0.2c1.969,0.372,2.581.831,2.581,1.837,0,1.116-.809,1.75-2.712,1.75-1.99,0-2.822-.634-3.019-2.341h-1.771C547.747,33.309,549.5,34.512,552.362,34.512ZM286.4,57.167a0.518,0.518,0,0,1-.613-0.547v-6.3c0-1.9-1.115-3.281-4.243-3.281-3.3,0-4.462,1.553-4.594,3.74h1.75c0.11-1.684.919-2.231,2.844-2.231s2.537,0.59,2.537,1.772c0,1.006-.634,1.422-1.772,1.553l-1.618.175c-3.106.328-4.178,1.728-4.178,3.5,0,2.122,1.531,3.3,3.981,3.3a4.139,4.139,0,0,0,3.675-1.815,1.618,1.618,0,0,0,1.9,1.619,6.654,6.654,0,0,0,.962-0.066V57.167H286.4Zm-5.819.2c-1.553,0-2.253-.744-2.253-1.859,0-1.094.569-1.794,2.625-2.034l1.641-.2a2.911,2.911,0,0,0,1.487-.481v1.334A3.242,3.242,0,0,1,280.58,57.363Zm12.6-8.531V47.3h-2.318V44.108h-1.75V47.3h-1.859v1.531h1.859v7.481c0,1.728,1.072,2.34,2.822,2.34q0.525,0,1.246-.066V57.123h-1.028c-1.006,0-1.29-.372-1.29-0.962V48.833h2.318Zm12.793-.118c0-1.441-.868-2.271-3.011-2.692l-0.293-.051V43.446a1.426,1.426,0,0,1,1.365,1.48h1.671c-0.064-1.556-.957-2.679-3.036-2.883v-1.3H301.75v1.276c-2.015.089-3.112,1.123-3.112,2.564,0,1.646,1.161,2.424,2.921,2.755l0.191,0.038v2.7a1.644,1.644,0,0,1-1.645-1.773h-1.7c0.013,1.926,1.25,3.023,3.342,3.176v1.3h0.919V51.5C304.723,51.393,305.973,50.411,305.973,48.714ZM300.4,44.53a1.186,1.186,0,0,1,1.352-1.11v2.347C300.73,45.513,300.4,45.181,300.4,44.53Zm2.271,5.575V47.566c1.122,0.268,1.518.587,1.518,1.237A1.348,1.348,0,0,1,302.669,50.1Zm10.751,8.834c4.178,0,6.256-2.975,6.256-8.137s-2.1-8.137-6.256-8.137c-4.134,0-6.234,2.975-6.234,8.137S309.286,58.938,313.42,58.938Zm0-2.494c-2.012,0-3.149-1.684-3.149-5.643s1.137-5.643,3.149-5.643c2.035,0,3.172,1.684,3.172,5.643S315.476,56.445,313.42,56.445ZM333.7,47.3v6.387c0,2.494-1.64,3.587-3.106,3.587a2.263,2.263,0,0,1-2.581-2.516V47.3h-1.75v7.634c0,2.494,1.466,3.915,3.981,3.915a4.159,4.159,0,0,0,3.544-1.947v1.684h1.662V47.3H333.7Zm10.019-.263a4.436,4.436,0,0,0-3.872,2.012V47.3h-1.662V62.876h1.75V56.97a4.433,4.433,0,0,0,3.784,1.881c3.171,0,5.249-2.3,5.249-5.906S346.888,47.039,343.717,47.039ZM343.5,57.276c-2.187,0-3.631-1.6-3.631-4.331s1.444-4.331,3.631-4.331,3.631,1.509,3.631,4.243S345.685,57.276,343.5,57.276ZM354.851,44.5h1.007V43.014c-0.263-.022-0.788-0.044-1.116-0.044-2.231,0-3.15,1.181-3.15,3.172V47.3h-1.859v1.531h1.859v9.756h1.75V48.833h2.406V47.3h-2.406V46.1A1.389,1.389,0,0,1,354.851,44.5Zm8.05,2.625a3.943,3.943,0,0,0-3.631,2.165V47.3h-1.662V58.588h1.75V52.158c0-2.187,1.443-3.325,3.7-3.325h0.438V47.149C363.251,47.127,363.076,47.127,362.9,47.127Zm6.606,11.724c3.172,0,5.469-2.3,5.469-5.906s-2.3-5.906-5.469-5.906-5.468,2.3-5.468,5.906S366.336,58.851,369.507,58.851Zm0-1.575c-2.187,0-3.631-1.6-3.631-4.331s1.444-4.331,3.631-4.331,3.631,1.6,3.631,4.331S371.7,57.276,369.507,57.276ZM382.37,47.039a4.159,4.159,0,0,0-3.544,1.947V47.3h-1.662V58.588h1.75V52.2c0-2.493,1.64-3.587,3.106-3.587a2.264,2.264,0,0,1,2.581,2.515v7.459h1.75V50.954C386.351,48.461,384.885,47.039,382.37,47.039Zm11.222,1.794V47.3h-2.319V44.108h-1.75V47.3h-1.859v1.531h1.859v7.481c0,1.728,1.072,2.34,2.822,2.34q0.525,0,1.247-.066V57.123h-1.028c-1.006,0-1.291-.372-1.291-0.962V48.833h2.319Zm2.519-1.611,1.211-1.671,1.212,1.671,0.638-.51-1.224-1.7,1.939-.625-0.268-.765-1.888.612V42.221h-0.817v2.015l-1.888-.612-0.268.765,1.939,0.625-1.224,1.7ZM409.18,58.851c3.171,0,5.468-2.3,5.468-5.906s-2.3-5.906-5.468-5.906-5.469,2.3-5.469,5.906S406.008,58.851,409.18,58.851Zm0-1.575c-2.188,0-3.631-1.6-3.631-4.331s1.443-4.331,3.631-4.331,3.631,1.6,3.631,4.331S411.367,57.276,409.18,57.276Zm12.862-10.237a4.159,4.159,0,0,0-3.544,1.947V47.3h-1.662V58.588h1.75V52.2c0-2.493,1.64-3.587,3.106-3.587a2.263,2.263,0,0,1,2.581,2.515v7.459h1.75V50.954C426.023,48.461,424.557,47.039,422.042,47.039ZM431.3,58.654a11.151,11.151,0,0,0,1.116-.066V57.123h-0.832a0.876,0.876,0,0,1-1.071-.962V43.014h-1.75v13.3C428.758,58.042,429.72,58.654,431.3,58.654ZM440.548,47.3l-1.6,4.681c-0.569,1.64-1.115,3.281-1.619,4.9-0.525-1.619-1.049-3.237-1.618-4.878l-1.6-4.7h-1.925l4.244,11.658c-0.132.35-.263,0.722-0.394,1.05a1.978,1.978,0,0,1-2.056,1.4h-1.028v1.466a8.739,8.739,0,0,0,1.05.066,3.41,3.41,0,0,0,3.674-2.581L442.451,47.3h-1.9Zm12.621,11.549c3.172,0,5.469-2.3,5.469-5.906s-2.3-5.906-5.469-5.906-5.468,2.3-5.468,5.906S450,58.851,453.169,58.851Zm0-1.575c-2.187,0-3.631-1.6-3.631-4.331s1.444-4.331,3.631-4.331,3.631,1.6,3.631,4.331S455.357,57.276,453.169,57.276Zm12.863-10.237a4.159,4.159,0,0,0-3.544,1.947V47.3h-1.662V58.588h1.75V52.2c0-2.493,1.64-3.587,3.106-3.587a2.264,2.264,0,0,1,2.581,2.515v7.459h1.75V50.954C470.013,48.461,468.547,47.039,466.032,47.039Zm22.6-4.025h-12.49v1.662h5.293V58.588h1.9V44.677h5.294V43.014Zm12.578,1.662V43.014H490.378V58.588h10.74V56.926h-8.9V51.3h8.115V49.642h-8.115V44.677h8.99Zm3.916,12.249V43.014h-1.838V58.588h9.669V56.926h-7.831Zm14.94,1.991c3.894,0,6.125-2.209,6.125-6.1v-9.8h-1.838v9.8c0,3.062-1.574,4.44-4.287,4.44s-4.287-1.378-4.287-4.44v-9.8h-1.837v9.8C513.938,56.707,516.169,58.916,520.062,58.916Zm14.569,0.022c3.74,0,5.84-1.815,5.84-4.572,0-2.253-1.268-3.653-4.856-4.44l-1.378-.306c-2.931-.656-3.653-1.4-3.653-2.887,0-1.466,1.16-2.406,3.413-2.406,3.106,0,4.046,1.2,4.2,3.215h1.881C540.012,45,538.59,42.664,534,42.664c-3.238,0-5.316,1.575-5.316,4.069,0,2.843,2.078,3.915,4.725,4.506l1.378,0.306c2.756,0.612,3.784,1.334,3.784,2.822,0,1.925-1.443,2.909-3.937,2.909-2.537,0-4.528-.941-4.572-3.828h-1.9C528.2,57.342,530.913,58.938,534.631,58.938Zm8.794-.2a1.257,1.257,0,0,0,1.247-1.291,1.281,1.281,0,0,0-2.559,0A1.258,1.258,0,0,0,543.425,58.741Z"/>
</svg>
