<svg xmlns="http://www.w3.org/2000/svg" width="300" height="600" viewBox="0 0 300 600">
  <defs>
    <style>
      .cls-1 {
        fill: #4b286d;
        fill-rule: evenodd;
      }
    </style>
  </defs>
  <path id="回饋社會_建造更強大_的社區_" data-name="回饋社會 建造更強大 的社區 " class="cls-1" d="M115.7,131.345v-23.28l-22.23.06-0.03,23.49h2.28v-2.37l17.73,0.03-0.03,2.13Zm-19.95-21.06h17.64l0.06,16.71-17.73.03Zm14.34,13.35v-10.08H98.932v10.11Zm-8.88-7.86h6.57l0.03,5.7h-6.57Zm47.04,0.24v-2.04h-7.02l-0.03-.81h5.55v-5.43h-5.52l-0.03-2.01h-2.22v2.04l-5.52-.03v5.43h5.52v0.81h-6.54v2.04h15.81Zm0.6,15-0.93-.81a12.724,12.724,0,0,0-2.715-1.4,21.465,21.465,0,0,0-3.285-.915h4.5l0.03-10.83h-12.72v10.86l3.72,0.06a17.572,17.572,0,0,1-3.57,1.9,13.881,13.881,0,0,1-2.85.735c0.06,0.081.25,0.4,0.57,0.945a9.288,9.288,0,0,0,.78,1.185,18.967,18.967,0,0,0,3.84-1.35,11.312,11.312,0,0,0,3.3-2.13l-1.17-1.38h3l-1.08,1.74a14.468,14.468,0,0,1,4.32,1.29,11.99,11.99,0,0,1,2.64,1.83Zm-19.71-5.85-1.77,1.23q0.27,0.212.87,0.6a3.926,3.926,0,0,1,.69.51l-3.24,1.32-0.03-4.23h6.3v-9.48l-7.89-.06q0.06-.029.24-0.135a5.22,5.22,0,0,0,.84-1.125h5.73l0.06-1.26,0.27,0.51,1.8-1.35a11.116,11.116,0,0,0-2.37-2.595,8,8,0,0,0-2.76-1.485,4,4,0,0,1,.12-0.495,2.4,2.4,0,0,0,.09-0.825l-2.01-.6a13.892,13.892,0,0,1-5.25,9.24l1.74,1.56a6.947,6.947,0,0,0,.9-0.66l-0.03,12.51a3.561,3.561,0,0,1-.72,2.25c0.12,0.1.4,0.33,0.84,0.69s0.78,0.62,1.02.78q3.03-1.68,5.85-2.94a8.84,8.84,0,0,1,.75,1.47,8.381,8.381,0,0,0,1.95-1.14,9.062,9.062,0,0,0-3.99-4.29h0Zm15.39-14.04H141.2v-1.32l3.33-.03v1.35Zm-5.55,0h-3.33v-1.35l3.33,0.03v1.32Zm5.19,8.82-8.19-.03,0.03-.87h8.16v0.9Zm0,2.82-8.19.03v-1.05h8.19v1.02Zm-17.82-11.07q0.06-.118.285-0.555c0.15-.289.29-0.57,0.42-0.84a6.549,6.549,0,0,0,.315-0.765,6.313,6.313,0,0,1,2.82,2.19Zm17.82,12.9-0.03,1.23h-8.16v-1.26Zm-14.34-5.76h-4.14v-1.56h4.14v1.56Zm0,3.66h-4.14v-1.71h4.14v1.71Zm24.18-15.69a14.2,14.2,0,0,1,3.03,4.89,10.64,10.64,0,0,0,1.155-.57q0.7-.388.975-0.51a11.992,11.992,0,0,0-1.47-2.8,23.292,23.292,0,0,0-1.74-2.085Zm16.35-.87-2.46.03v9.54h-6.45v2.22h6.45v10.71h-7.8l0.03,2.31,18.09-.03v-2.25l-7.86-.03-0.06-10.71,6.81,0.03,0.06-2.19-6.87-.03Zm-6.42,17.1a26.055,26.055,0,0,0-2.58-2.625,9.408,9.408,0,0,0-1.89-1.275l-0.87.87-0.03-1.05a27.594,27.594,0,0,0,3.24-5.16v-1.98l-9.93-.03-0.06,2.22h7.38a25.923,25.923,0,0,1-3.405,4.47,38.331,38.331,0,0,1-4.695,4.05l1.71,1.89a23.244,23.244,0,0,0,3.42-2.97v11.34h2.37v-11.67a10.312,10.312,0,0,1,1.755,1.53q1,1.052,1.815,2.04Zm35.76-11.37q0.84,0.572,2.025,1.245a18.4,18.4,0,0,0,1.755.915l-18.15-.06a29.527,29.527,0,0,0,4.56-2.43l0.03,1.23h9.78v-0.9Zm-6.03,4.29-0.03,2.73h-1.8a12.883,12.883,0,0,0-2.61-2.73h4.44Zm-4.89.06a8.122,8.122,0,0,0-1.56.78l0.945,0.81c0.49,0.42.795,0.7,0.915,0.825s0.2,0.216.24,0.255H186.2v-2.73Zm7.98-10.08-2.07-1.14a28.356,28.356,0,0,1-5.16,4.215,51.5,51.5,0,0,1-8.79,4.275l1.23,1.98a18.759,18.759,0,0,0,1.92-.81v6.36h21.72l0.03-6.06q1.74,0.54,2.01.6l1.44-1.98a21.251,21.251,0,0,1-5.58-1.98,48.512,48.512,0,0,1-7.32-4.98Zm3.15,9.99a11.818,11.818,0,0,1-2.04,2.79h-1.98l0.03-2.79h3.99Zm0.36,0h3l0.03,2.79h-2.58l1.08-1.89Zm-8.79-5.55q0.69-.45,1.35-0.945t2.07-1.635q0.78,0.752,3.12,2.64Zm-3.51,22.08v-1.47h13.56v1.47h2.37l-0.03-10.56-18.18.03v10.53h2.28Zm0.03-8.4h13.59v1.29l-13.59-.03v-1.26Zm13.56,4.8H188v-1.41h13.59Zm-107.64,36.15-0.03-2.85,8.55,0.03-0.03-2.19h-8.52l0.03-1.77h6.87v-2.19l-6.9.03v-1.8l6.54,0.03v-4.02h1.95v-2.16h-1.95v-3.81l-6.51-.03-0.03-2.34h-2.28v2.34l-5.07.03v2.16h5.07v1.62l-7.05.03v2.16l7.05,0.03,0.03,1.8h-5.1v2.19h5.1l-0.03,1.77h-5.64v2.16h5.67L91.612,160h-6.78v2.19h6.81v2.82h2.28Zm4.23-18.54v1.65h-4.26v-1.65h4.26Zm-4.26,5.67v-1.83l4.26-.03v1.83Zm9.33,13.05q-4.35.242-9.15,0.3a26.629,26.629,0,0,1-7.5-.585,9.4,9.4,0,0,1-3.87-2.085,21.1,21.1,0,0,0,2.1-9.18l-4.29-.03a25.758,25.758,0,0,0,4.32-7.08l-0.03-1.98-7.86-.03-0.03,2.19h5.46a24.076,24.076,0,0,1-2.085,3.66,26.8,26.8,0,0,1-2.865,3.54v1.89h5.1a17.1,17.1,0,0,1-.615,3.645,11.127,11.127,0,0,1-.765,1.755,6,6,0,0,1-.6-0.825q-0.331-.524-0.9-1.65t-0.75-1.425l-1.83,1.05a21.74,21.74,0,0,0,2.91,4.77,24.527,24.527,0,0,1-3.48,3.99l1.71,1.65a29.991,29.991,0,0,0,2.115-2.28,17.084,17.084,0,0,0,1.3-1.71,13.135,13.135,0,0,0,5.46,2.46,18.663,18.663,0,0,0,3.84.39h11.4Zm19.26-17.43v3.03h-7.56v2.19h7.59l-0.03,1.77h2.28v-1.8l7.77,0.03v-2.19h-7.77v-3.03h5.73v-2.19h-5.7l-0.03-3.87-2.28.03v3.84h-2.4a11.164,11.164,0,0,0,.54-2.04l-2.07-.75a10.534,10.534,0,0,1-3.87,6.33l1.83,1.47a12.557,12.557,0,0,0,2.46-2.85Zm0,17.34a28.121,28.121,0,0,1-5.31-.5,16.642,16.642,0,0,1-4.41-1.425,18.6,18.6,0,0,0,1.8-6.75h-3.93a22.864,22.864,0,0,0,3.87-5.67v-1.92l-7.68.03-0.03,2.16h5.04a24.085,24.085,0,0,1-4.35,5.58l-0.06,1.95h4.56q-0.51,4.2-5.61,8.67l1.83,1.53q0.54-.51,1.305-1.305t1.3-1.44q0.54-.644.81-1,0.12,0.061.51,0.27c0.26,0.141.48,0.255,0.66,0.345s0.395,0.195.645,0.315,0.555,0.251.915,0.39,0.8,0.285,1.3.435a14.16,14.16,0,0,0,1.665.375,15.8,15.8,0,0,0,1.68.2q0.78,0.045,1.38.045l11.31-.03,1.74-2.25h-10.95Zm7.65-9.78H116.9v9.09l2.31-.03v-1.41l8.64-.03v1.44l2.25,0.03Zm-2.28,2.19v3.27h-8.64l-0.03-3.27h8.67Zm-14.22-11.01a31.784,31.784,0,0,0-2.79-3.705,8.336,8.336,0,0,0-1.38-1.125l-2.07,1.56a11.471,11.471,0,0,1,4.11,4.59Zm49.98,19.8q-2.79-.058-5.865-0.405a50.425,50.425,0,0,1-5.415-.87,14.392,14.392,0,0,1-3.66-1.245,8.918,8.918,0,0,0,1.26-2.265,11.418,11.418,0,0,0,.69-2.655h8.76v-11.1h-8.34v-2.22l11.61,0.03v-2.13h-25.59v2.13l11.76-.03v2.22h-8.61l-0.03,11.1h8.16a9.5,9.5,0,0,1-.615,1.98,8.185,8.185,0,0,1-1.035,1.8,35.291,35.291,0,0,1-4.38-3.42l-1.74,1.17a20.443,20.443,0,0,0,4.35,3.84,25.869,25.869,0,0,1-4.515,1.695,40.2,40.2,0,0,1-4.215.945l1.35,2.01a21.073,21.073,0,0,0,8.61-2.85l0.93-.63a27.978,27.978,0,0,0,5.73,1.995,54.521,54.521,0,0,0,9.39,1.215Zm-6.42-14.1h-6.12l0.03-2.31h6.09v2.31Zm-14.76-2.31,6.39,0.03v2.28h-6.39v-2.31Zm14.79,4.44v2.37h-6.36l0.15-2.37h6.21Zm-14.79,0h6.33l-0.12,2.37-6.21-.03v-2.34Zm44.46,8.07a22.441,22.441,0,0,1,1.92,1.86l-3.9.42V160.9h5.97v-8.37H185l-0.03-2.61,4.86-.39a10.945,10.945,0,0,1,1.32,2.01l1.92-1.17a19.529,19.529,0,0,0-2.67-3.375,23.214,23.214,0,0,0-3.24-2.805l-1.98,1.32a12.53,12.53,0,0,1,3.03,2.13q-1.95.18-4.8,0.375t-4.2.225a17.859,17.859,0,0,0,3.045-2.655,26.136,26.136,0,0,0,2.295-2.805c-0.16-.1-0.45-0.3-0.87-0.6s-0.76-.529-1.02-0.69a24.9,24.9,0,0,1-7.44,7.32l1.23,1.95q3.09-.45,6.27-0.66v2.43h-6.06l0.03,8.37h5.97l0.03,4.02q-0.57.061-2.58,0.27t-3.24.285q-1.23.076-2.25,0.075,0.12,0.242.495,0.975t0.645,1.185l14.37-1.47a12.049,12.049,0,0,1,1.02,2.4,8.934,8.934,0,0,0,1.14-.585q0.69-.405.99-0.555a19.481,19.481,0,0,0-3.93-5.82Zm1.83-7.68v3.99l-3.72-.03-0.03-3.96h3.75Zm-9.78-.03h3.78v4.05l-3.78-.03v-4.02Zm-11.4,12.93a12.828,12.828,0,0,0,4.17.84,2.514,2.514,0,0,0,1.26-.63,2.794,2.794,0,0,0,.81-1.29,35.978,35.978,0,0,0,1.32-10.32l-5.04.03q0.27-2.309.39-4.35l4.59-.03,0.03-8.64h-8.04v2.13h5.79v4.38H168.2a63.6,63.6,0,0,1-.84,8.64l5.52-.03a33,33,0,0,1-.78,5.64q-0.3,1.381-.405,1.65a1.418,1.418,0,0,1-.27.45,0.711,0.711,0,0,1-.345.225,0.859,0.859,0,0,1-.36.015,16.173,16.173,0,0,1-3.48-1.14Zm40.38-16.14a20.679,20.679,0,0,1-2.025,6.09,18.907,18.907,0,0,1-3.555,4.77,18.564,18.564,0,0,1-5.04,3.45l1.71,2.07a21.917,21.917,0,0,0,7.575-6.495,25.949,25.949,0,0,0,3.8-9.885,28.523,28.523,0,0,0,1.6,6.405,18.825,18.825,0,0,0,2.43,4.4,18.4,18.4,0,0,0,3.135,3.225,33.4,33.4,0,0,0,3.57,2.5l1.62-1.8a23.266,23.266,0,0,1-5.01-3.81,17.377,17.377,0,0,1-3.21-4.59,25.761,25.761,0,0,1-1.95-6.33h8.82l-0.03-2.31h-10.74a71.671,71.671,0,0,0,.15-7.2c-0.2-.039-0.57-0.09-1.11-0.15a11.291,11.291,0,0,1-1.32-.21,63.261,63.261,0,0,1-.21,7.56h-9.36v2.31h9.15Zm-85.14,26.1a26.458,26.458,0,0,1-4.53,11.46l0.03-5.91h-4.59a18.977,18.977,0,0,0,1.62-4.44l-2.16-.87a18.25,18.25,0,0,1-1.83,5.31h-2.76v20.76h2.37v-2.43l5.04-.03c0,0.1-.01.435-0.03,1a11.047,11.047,0,0,0,.03,1.455l2.31-.03v-13.83l1.56,0.99a24.251,24.251,0,0,0,3.48-6.27h6.39a95.209,95.209,0,0,1-.99,13.26,18.9,18.9,0,0,1-.99,3.54,1.108,1.108,0,0,1-1.14.54,22.287,22.287,0,0,1-4.53-1.26l0.39,2.52a29.535,29.535,0,0,0,3.945.93,5.259,5.259,0,0,0,1.395,0,2.66,2.66,0,0,0,1.26-.75,4.333,4.333,0,0,0,1.05-1.77,27.516,27.516,0,0,0,1.05-4.275q0.36-2.205.5-4.065t0.2-3.435q0.06-1.575.09-4.11t0.06-3.225h-8.1q0.12-.418.5-1.56t0.54-1.8q0.165-.658.255-1.17Zm-6.9,7.68v5.85l-4.98-.03-0.03-5.82h5.01Zm-4.95,14.01v-6l4.98-.03,0.03,6.06Zm16.98-2.97a22.4,22.4,0,0,0-1.77-3.75,26.352,26.352,0,0,0-2.61-3.57l-1.86,1.23a26.268,26.268,0,0,1,4.08,7.05Zm11.1-17.49a14.2,14.2,0,0,1,3.03,4.89,10.64,10.64,0,0,0,1.155-.57q0.7-.388.975-0.51a11.992,11.992,0,0,0-1.47-2.805,23.292,23.292,0,0,0-1.74-2.085Zm16.35-.87-2.46.03v9.54h-6.45v2.22h6.45v10.71h-7.8l0.03,2.31,18.09-.03v-2.25l-7.86-.03-0.06-10.71,6.81,0.03,0.06-2.19-6.87-.03Zm-6.42,17.1a26.055,26.055,0,0,0-2.58-2.625,9.408,9.408,0,0,0-1.89-1.275l-0.87.87-0.03-1.05a27.594,27.594,0,0,0,3.24-5.16v-1.98l-9.93-.03-0.06,2.22h7.38a25.923,25.923,0,0,1-3.405,4.47,38.331,38.331,0,0,1-4.695,4.05l1.71,1.89a23.244,23.244,0,0,0,3.42-2.97v11.34h2.37v-11.67a10.312,10.312,0,0,1,1.755,1.53q1,1.052,1.815,2.04Zm32.34-4.05-8.49-.03v8.31h8.49v-8.28Zm7.83,6.03-4.02-.03v-3.84l4.05-.03Zm-6.3-6.06v8.22h8.58v-8.22h-8.58Zm-3.84,2.16,0.03,3.99-3.96-.03v-3.93Zm9.78-10.41h-13.47l-0.03,6.69,13.5-.03v-6.66Zm-11.22,2.01h8.94v2.61h-8.94v-2.61Zm15.27,16.5h-20.01a1.343,1.343,0,0,1-.96-0.27,1.242,1.242,0,0,1-.27-0.9l-0.03-18.42h21.12v-2.22l-25.29-.03v2.22l1.89,0.03v19.02a3.494,3.494,0,0,0,.33,1.53,2.02,2.02,0,0,0,.885.975,2.384,2.384,0,0,0,1.095.285H192.8v-2.22Z"/>
</svg>
