<svg xmlns="http://www.w3.org/2000/svg" width="300" height="600" viewBox="0 0 300 600">
  <defs>
    <style>
      .cls-1 {
        fill: #4b286d;
        fill-rule: evenodd;
      }
    </style>
  </defs>
  <path id="僅過去一年_我們回饋了_1.25億_" data-name="僅過去一年 我們回饋了 $1.25億 " class="cls-1" d="M93.071,115.8l-7.23.03v5.79h7.32l-0.03,1.86h-7.29v1.68h7.29l0.03,1.8h-6.42l0.03,1.65,6.42,0.03v2.01l-9.03.03v1.65l20.61,0.03v-1.68l-9.69-.03,0.03-2.01,6.33-.06V126.9l-6.39.06v-1.8l7.29-.03v-1.65h-7.32l-0.03-1.86,7.35-.03V115.8l-7.35.03,0.03-1.83,4.02,0.03v-3.6l4.98-.03v-1.68l-4.98.03-0.03-2.37h-1.89l-0.03,2.37-6.15-.03v-2.31h-1.95l-0.03,2.34-3.78-.03v1.68l3.78,0.03v3.6L93.1,114Zm7.29,1.68,0.03,2.43-5.4.03v-2.43Zm-12.6,0H93.1v2.46h-5.37Zm3.18-5.13v-1.92h6.15v1.92h-6.15Zm-7.8-6.18a44.909,44.909,0,0,1-2.385,7.74,22.449,22.449,0,0,1-3.855,6.21q0.24,0.12,1.56,1.08h0.12a23.049,23.049,0,0,0,2.67-3.78l-0.03,16.32,1.95-.03,0.03-20.73q0.18-.72.84-2.775a31.307,31.307,0,0,0,.87-3.105Zm34.56,23.04,0.03-11.19h12.75v8.22a1.116,1.116,0,0,1-.165.555,1.237,1.237,0,0,1-.405.435,9.517,9.517,0,0,1-1.89.09q-1.291-.03-1.41-0.03a17.265,17.265,0,0,1,.66,1.68,18.018,18.018,0,0,0,2.67-.045,5.423,5.423,0,0,0,1.08-.255,1.9,1.9,0,0,0,1.08-.825,2.707,2.707,0,0,0,.24-1.185v-10.41h-1.8v-8.52h-12.99l-0.03,8.55h-1.68v12.93h1.86Zm5.22-12.93h-3.51V109.5h9.27v2.34h-5.79Zm1.74-2.82h3.99v2.82h-3.99v-2.82Zm3.15,12.48v-5.97h-7.5l0.03,5.94Zm-1.74-4.35v2.67H121.9v-2.67h4.17Zm-16.05-15.09-1.32.87a13.744,13.744,0,0,1,3.15,4.38l1.5-1.05a12.557,12.557,0,0,0-3.15-4.14Zm0.21,15.15q1.019-1.23,2.22-3.015a31.489,31.489,0,0,0,1.86-3.075l-0.03-1.8h-6.72v1.65l4.77,0.03a26.03,26.03,0,0,1-4.44,6.18v1.71h4.5a13.775,13.775,0,0,1-1.725,4.965,15.516,15.516,0,0,1-3.405,4.125q0.869,0.81,1.35,1.17a23.324,23.324,0,0,0,1.83-1.86,15.493,15.493,0,0,0,1.53-2.01,11.791,11.791,0,0,0,3.87,1.965,15.212,15.212,0,0,0,4.56.615l13.11-.09q0.09-.242.405-0.9a9.947,9.947,0,0,0,.435-1.02q-4.2.21-5.04,0.24l-4.98.09q-3.15.06-5.025-.06a13.929,13.929,0,0,1-3.57-.69,8.122,8.122,0,0,1-2.985-1.77,21.586,21.586,0,0,0,1.59-6.45h-4.11Zm31.26-8.25h8.49l0.03,6.06h-10.83v1.8h9.27a34.185,34.185,0,0,1-2.655,3.75,25.468,25.468,0,0,1-2.94,3.1,24.66,24.66,0,0,1-2.595,2.025l1.29,1.89q0.27-.03,1.65-0.27t2.31-.33l8.91-.81,5.46-.48a28.119,28.119,0,0,1,1.74,3.06,6.291,6.291,0,0,0,.885-0.54,5.532,5.532,0,0,1,.825-0.51,23.487,23.487,0,0,0-3.12-4.77,16.013,16.013,0,0,0-3.57-3.24l-1.92,1.05a9.065,9.065,0,0,1,2.01,1.38,12.545,12.545,0,0,1,1.74,1.86l-12,1.08a22.26,22.26,0,0,1-2.7.15l1.56-1.26q0.419-.33.93-0.81a14.3,14.3,0,0,0,1.08-1.155,17.645,17.645,0,0,0,1.125-1.5q0.553-.825,1.365-2.16t0.9-1.515H162.7l0.03-1.8h-10.77V113.4l8.46,0.03,0.03-1.86-8.49.03-0.03-5.25h-1.98v5.25h-8.46v1.8Zm27.72,7.17,23.46-.03v-2.1h-23.49Zm43.53,2.4v-5.46l7.83-.03-0.03-1.83h-7.86l-0.03-4.41,9.42-.03v-1.8H204.7c0.039-.12.135-0.425,0.285-0.915a9.726,9.726,0,0,0,.285-1.095q0.059-.36.09-0.48a14.753,14.753,0,0,0-1.65-.78l-0.66,2.22a16.714,16.714,0,0,1-4.83,7.68l1.62,1.26a13.714,13.714,0,0,0,1.935-2.235,28.964,28.964,0,0,0,2.175-3.855h6.75v4.44h-8.22v7.32l-3.84-.03v1.83l12.12,0.03,0.03,8.88,1.92-.03,0.03-8.88,10.59,0.03v-1.83h-10.59Zm-1.98-5.49-0.03,5.49H204.4v-5.46Zm-126.3,36.15v5.58q-3.21.87-6.93,1.62l1.41,1.8,5.55-1.47v5.61a0.789,0.789,0,0,1-.225.5,0.932,0.932,0,0,1-.435.255l-3.75-.09,0.69,1.95q0.39-.03,1.56,0a14.367,14.367,0,0,0,1.83-.045,4.816,4.816,0,0,0,1.14-.255,2.327,2.327,0,0,0,1.2-1.89v-6.6l4.74-1.26-0.03-1.89-4.71,1.17-0.03-4.95,6.39-.03a37.226,37.226,0,0,0,1.8,8.07,28.322,28.322,0,0,1-6.84,4.47l1.68,1.35a33.748,33.748,0,0,0,3.135-1.83,30.465,30.465,0,0,0,2.925-2.16,15.15,15.15,0,0,0,3.36,4.44c0.1,0.06.345,0.229,0.735,0.51a5.309,5.309,0,0,0,1.11.63,1.958,1.958,0,0,0,1.125.09,1.916,1.916,0,0,0,.9-0.93,17.178,17.178,0,0,0,1.05-4.86l-1.95-.78a25.9,25.9,0,0,1-.54,4.17,0.385,0.385,0,0,1-.195.24,0.23,0.23,0,0,1-.165,0,10.9,10.9,0,0,1-2.25-2.1,19.361,19.361,0,0,1-1.71-2.85,29.2,29.2,0,0,0,4.62-6.36l-1.71-.69a14.25,14.25,0,0,1-1.62,2.67,29.2,29.2,0,0,1-2.07,2.46l-0.24-.81a29.45,29.45,0,0,1-1.11-5.76l8.01,0.03v-1.89l-8.25.03q-0.21-2.64-.21-5.01v-0.39l-0.03-4.02-1.95-.03q-0.15,3.24.21,9.42l-6.21.03-0.03-5.43a14.959,14.959,0,0,0,1.44-.66q0.75-.39,1.8-1t1.32-.765l-1.23-1.41a40.993,40.993,0,0,1-4.11,1.965,17.188,17.188,0,0,1-3.72,1.035,26.8,26.8,0,0,1-3.78.33,14.528,14.528,0,0,1,1.17,1.86,28,28,0,0,0,3.6-.48,10.886,10.886,0,0,1,1.5-.33v4.89l-6.3-.03v1.89h6.33Zm12.78-9.81a6.221,6.221,0,0,1-.735.66q-0.525.42-.7,0.6a11.912,11.912,0,0,1,2.97,2.07,8.391,8.391,0,0,1,2.04,2.79,8.82,8.82,0,0,0,1.59-1.38,8.336,8.336,0,0,0-1.695-2.325,13.854,13.854,0,0,0-3.315-2.385Zm27-.06h-7.71l0.03,25.89h1.95v-14.52h5.76Zm7.17,6.54v3.06h-3.78l-0.03-3.06h3.81Zm0-4.74v2.97H127.6l0.03-3Zm-12.87,4.74h3.78v3.03l-3.78.03V150.3Zm12.87,4.83-0.03,11.58a0.928,0.928,0,0,1-.51.6,19.4,19.4,0,0,1-3.21,0,8.728,8.728,0,0,1,.405.93,6.67,6.67,0,0,0,.435.96,11.307,11.307,0,0,1,1.275.015,5.651,5.651,0,0,0,1.515-.09,3.74,3.74,0,0,0,.99-0.375,2,2,0,0,0,.795-0.93,4.918,4.918,0,0,0,.285-1.92l0.03-22.14h-7.65l0.03,11.37h5.64Zm-9.09-9.57v3h-3.84l0.03-3.03Zm-10.98,24.15h1.98v-20.94a52.162,52.162,0,0,0,1.89-5.97l-1.74-.69-1.38,4.32-0.21.51a34.955,34.955,0,0,1-4.68,8.4v0.12l1.77,0.93a23.35,23.35,0,0,0,2.37-3.66v16.98Zm50.4-1.47-0.03-23.55h-22.47l0.03,23.79h1.89l-0.03-2.43,18.69,0.03v2.16h1.92Zm-20.58-21.72h18.66l-0.03,17.7h-18.66Zm14.76,13.8v-9.99l-11.01.03v9.93Zm-9.12-8.16,7.23,0.03-0.03,6.27-7.17.06Zm32.79-7.8v5.13h5.67v1.32l-7.08-.03v1.62l16.2,0.03-0.03-1.65h-7.23l-0.03-1.32h5.7l0.03-5.1h-5.7l-0.03-2.1h-1.8v2.1h-5.7Zm-8.46,21.84-0.03-4.95h6.48v-9.21H169.3v10.8q0,0.24.045,1.545a6.634,6.634,0,0,1-.18,2.055,3.564,3.564,0,0,1-.555,1.17c0.159,0.12.424,0.334,0.8,0.645s0.645,0.525.825,0.645a65.418,65.418,0,0,1,6.06-3.03,9.161,9.161,0,0,1,.84,1.5,9.108,9.108,0,0,0,1.59-.93,8.479,8.479,0,0,0-3.81-4.08l-1.44.96q0.119,0.09.555,0.375a5.15,5.15,0,0,1,.66.5,4.531,4.531,0,0,1,.375.39Zm15.96-18.36v-1.83l3.9-.03v1.86h-3.9Zm-1.8-1.83v1.83h-3.9v-1.86Zm-9.45,9.78h-4.71v-2.07h4.71v2.07Zm0,1.56v2.19l-4.71.03v-2.25Zm16.65-3.42-12.6.03v10.71h12.6v-10.74Zm-1.89,4.38v1.53h-8.88l0.03-1.53h8.85Zm0.03-1.38-8.91-.03,0.03-1.38h8.85Zm-0.03,4.32v1.74h-8.88v-1.77Zm-22.44-8.43a14.543,14.543,0,0,0,2.52-2.67l5.82-.03,0.09-1.59,0.51,0.72,1.47-1.14a10.518,10.518,0,0,0-2.31-2.445,8.445,8.445,0,0,0-2.88-1.485,3.23,3.23,0,0,1,.1-0.69,3.365,3.365,0,0,0,.105-0.69l-1.62-.51a16.093,16.093,0,0,1-1.785,5.19,12.728,12.728,0,0,1-3.465,4.05Zm3.48-4.38a22.614,22.614,0,0,0,1.29-2.76,4.7,4.7,0,0,1,1.785.975,17.382,17.382,0,0,1,1.785,1.815Zm12.9,17.22a5.3,5.3,0,0,0-.75-0.69,15.073,15.073,0,0,1-6.57,2.91c0.12,0.18.3,0.469,0.54,0.87a9.276,9.276,0,0,0,.57.87,14.626,14.626,0,0,0,4.02-1.62,16.252,16.252,0,0,0,2.67-1.83C185,166.153,184.841,165.983,184.541,165.663Zm2.25,0.84a12.667,12.667,0,0,1,6.75,3.06l1.35-1.44-0.78-.66a15.923,15.923,0,0,0-6.18-2.37Zm25.38-13.8a27,27,0,0,0,8.43-6.81l0.03-1.8H200.8v1.92l17.1-.03a29,29,0,0,1-7.77,5.79v14.34a0.794,0.794,0,0,1-.21.5,1.686,1.686,0,0,1-.48.405q-1.5.03-4.41-.03l0.72,1.92q1.558,0.06,4.35-.12a1.95,1.95,0,0,0,1.47-.735,2.982,2.982,0,0,0,.57-1.485Zm-92,45c0-3.089-1.74-5.009-6.66-6.089l-0.629-.15v-7.439c3,0.39,3.989,1.95,4.169,4.32h2.58c-0.09-3.18-1.71-6.12-6.749-6.6v-3.089h-2.1v3c-4.14.18-6.779,2.28-6.779,5.58,0,3.9,2.849,5.369,6.479,6.179l0.3,0.06V201.6c-2.79-.3-4.83-1.74-4.89-5.159h-2.609c0.06,4.859,3.119,7.109,7.5,7.469v3.059h2.1v-3.029C117.564,203.733,120.174,201.3,120.174,197.7Zm-13.559-10.468c0-1.89,1.41-3.15,4.17-3.3v7.049C107.455,190.144,106.615,189.125,106.615,187.235Zm6.27,14.428v-7.709c3.389,0.81,4.679,1.8,4.679,3.749C117.564,200.163,115.854,201.483,112.885,201.663Zm16.5-19.528h-2.04c-0.54,2.58-2.1,3.24-4.859,3.42l-0.48.03v1.98h4.859v15.928h2.52V182.135Zm4.8,21.568a1.723,1.723,0,0,0,1.71-1.77,1.756,1.756,0,0,0-3.509,0A1.726,1.726,0,0,0,134.185,203.7Zm6.69-2.49c0.18-2.37,1.38-3.66,3.84-5.1l2.28-1.32c3.419-1.98,4.859-4.23,4.859-6.959,0-3.63-2.76-6.18-6.809-6.18-4.41,0-7.079,2.46-7.019,6.87h2.489c0-3.27,1.8-4.59,4.47-4.59,2.729,0,4.229,1.65,4.229,3.9s-1.17,3.6-3.749,5.1l-2.7,1.56a8.746,8.746,0,0,0-4.649,7.829l-0.06,1.17h14.1v-2.28H140.875Zm20.219-11.639a6.1,6.1,0,0,0-4.049,1.56l1.02-6.719h9v-2.28H156.025l-1.8,12.3h2.34a4.464,4.464,0,0,1,4.379-2.58,4.922,4.922,0,0,1,0,9.839,4.5,4.5,0,0,1-4.739-4.14h-2.52c0.24,3.84,3.12,6.42,7.259,6.42,4.62,0,7.409-3.15,7.409-7.2S165.774,189.574,161.094,189.574Zm19.171-.751v8.25h14.67v-8.25h-14.67Zm12.72,3.24h-10.8v-1.53l10.77-.03Zm0.03,1.68v1.65l-10.83-.03v-1.62h10.83Zm-10.95,5.64-1.35-.93a13.9,13.9,0,0,1-1.515,2.22,12.564,12.564,0,0,1-1.905,1.89q0.36,0.39,1.29,1.2a13.385,13.385,0,0,0,3.48-4.38h0Zm9.78,0.75a4.1,4.1,0,0,1-1.77,2.46l-4.44-.03a0.913,0.913,0,0,1-.555-0.165,0.742,0.742,0,0,1-.285-0.345l-0.03-3.39-1.83-.03v3.9a2.218,2.218,0,0,0,.72,1.2,1.92,1.92,0,0,0,1.32.51l5.46,0.03a2.785,2.785,0,0,0,1.92-1.29q0.09-.15.465-0.825a7.3,7.3,0,0,0,.5-1.02q0.12-.345.15-0.465Zm-13.11-18.06h17.7v-1.71h-8.4a9.612,9.612,0,0,0-1.71-2.55l-1.8.87a5.44,5.44,0,0,1,.81.8,6.212,6.212,0,0,1,.66.915h-7.26v1.68Zm-4.38,23.55,1.86-.03-0.03-19.8q0.63-1.53,1.23-3.405t0.99-3.555l-1.71-.72a41.656,41.656,0,0,1-2.22,6.81,26.886,26.886,0,0,1-4.41,6.96,6.544,6.544,0,0,1,.93.465q0.6,0.345.84,0.465,0.27-.39,1.2-1.59t1.32-1.83v16.23Zm23.55-18.33-0.03-1.68h-6.45q0.51-.63,1-1.335t0.645-.975a9.415,9.415,0,0,0-1.59-.96,9.794,9.794,0,0,1-2.37,3.27h-3.15a13.914,13.914,0,0,0-2.46-3.18,13.778,13.778,0,0,0-1.71.93,9.833,9.833,0,0,1,1.14,1.065,6.918,6.918,0,0,1,.93,1.215H177.3l-0.03,1.68Zm-12.36,11.01a13.352,13.352,0,0,1,3.42,2.64,6.552,6.552,0,0,0,.795-0.6q0.5-.42.585-0.51l-1.11-1.05q-0.15-.12-0.63-0.48t-0.9-.63a3.868,3.868,0,0,0-.87-0.42Zm9.12-.09-1.32.93q0.39,0.33,1.17,1.065t0.87,0.795q0.63,0.75,1.71,2.31a5.143,5.143,0,0,1,.69-0.435,4.777,4.777,0,0,0,.72-0.465,14.156,14.156,0,0,0-1.6-2.19,17.344,17.344,0,0,0-2-1.95Z"/>
</svg>
