<svg xmlns="http://www.w3.org/2000/svg" width="728" height="90" viewBox="0 0 728 90">
  <defs>
    <style>
      .cls-1 {
        fill: #fff;
        fill-rule: evenodd;
      }
    </style>
  </defs>
  <path class="cls-1" d="M649.122,58a12.287,12.287,0,0,1-3.826,3.144v6.275a1.221,1.221,0,0,1-.257.733,0.9,0.9,0,0,1-.744.367l-2.045.028-0.5-1.128h2.212a0.262,0.262,0,0,0,.16-0.141A0.538,0.538,0,0,0,644.2,67V60.6a12.627,12.627,0,0,0,3.352-2.5h-7.567v-1.03h9.139V58Zm14.731-1.071q-0.055.662-.236,1.692a7.526,7.526,0,0,1-.39,1.523,1.06,1.06,0,0,1-.3.4,0.781,0.781,0,0,1-.493.2,3.075,3.075,0,0,1-.376.007,6.406,6.406,0,0,1-.863-0.148l-0.333-1.17q0.25,0.071.563,0.183a4.262,4.262,0,0,0,.438.141,1.24,1.24,0,0,0,.23.008,0.229,0.229,0,0,0,.153-0.057,1.079,1.079,0,0,0,.132-0.331,8.035,8.035,0,0,0,.292-1.438h-1.558a4.841,4.841,0,0,1-.424,1.453,3.808,3.808,0,0,1-2.024,1.917l-0.417-.62-0.042,6.852a1.275,1.275,0,0,1-.167.606,1.071,1.071,0,0,1-.431.451,1.087,1.087,0,0,1-.515.141h-0.668l-0.347-1.015h0.834a0.9,0.9,0,0,0,.153-0.014c0.056-.009.083-0.1,0.083-0.268V65.662h-0.931v1.776h-1.058V65.662h-0.932a7.121,7.121,0,0,1-.515,1.945,4.033,4.033,0,0,1-.945,1.382l-0.794-.733a6.765,6.765,0,0,0,.717-1.072,5.08,5.08,0,0,0,.3-0.81,6.644,6.644,0,0,0,.195-1.05V60.938l-0.334.409L652,60.642a7.382,7.382,0,0,0,1.44-1.952,9.8,9.8,0,0,0,.815-2.4l0.931,0.382a7.386,7.386,0,0,1-.18.873h2.461a15.368,15.368,0,0,1-.723,2.242h1.461V60.43a5.108,5.108,0,0,0,1.015-.648,2.466,2.466,0,0,0,.592-0.748,3.349,3.349,0,0,0,.3-1.086h-1.531V56.934h5.272Zm-9.222,1.622a5.754,5.754,0,0,1-.571,1.226h1.558a5.844,5.844,0,0,0,.557-1.226h-1.544Zm0.528,2.241h-0.918v1.382h0.918V60.8Zm0,2.4h-0.918v1.453h0.918V63.194Zm1.989-2.4h-0.931v1.382h0.931V60.8Zm0,2.4h-0.931v1.453h0.931V63.194Zm4.966,2.666v3.087h-1.056V65.859h-2.547V64.843h2.547V63.349h-1.085a2.37,2.37,0,0,1-.314.7,2.855,2.855,0,0,1-.507.67l-0.766-.8a2.779,2.779,0,0,0,.71-1.17,4.214,4.214,0,0,0,.208-1.494l1.044,0.085a6.471,6.471,0,0,1-.1,1h0.808v-1.41h1.056v1.41h1.614v1.015h-1.614v1.494h2.338v1.016h-2.338Zm16.026,3a25.031,25.031,0,0,1-4.354-.571,12.844,12.844,0,0,1-2.657-.938l-0.431.3a9.681,9.681,0,0,1-3.993,1.34l-0.626-.944a18.573,18.573,0,0,0,1.955-.445,11.863,11.863,0,0,0,2.093-.8A9.553,9.553,0,0,1,668.11,65l0.808-.55a16.356,16.356,0,0,0,2.03,1.607,3.831,3.831,0,0,0,.48-0.846,4.453,4.453,0,0,0,.285-0.931H667.93V59.048h3.992v-1h-5.439V57.018h11.865v1.029h-5.369v1h3.854V64.28h-4.062a5.536,5.536,0,0,1-.32,1.248,4.268,4.268,0,0,1-.585,1.064,6.63,6.63,0,0,0,1.7.585,23.322,23.322,0,0,0,2.511.409q1.425,0.162,2.719.19Zm-6.218-8.784h-2.936v1.057h2.936V60.078Zm-2.936,2.087V63.25h2.867l0.055-1.085h-2.922Zm6.845,0h-2.88l-0.07,1.085h2.95V62.165Zm0-2.087h-2.852v1.057h2.852V60.078ZM692,63.011a9.641,9.641,0,0,1-.827,1.3,8.251,8.251,0,0,1-1.4,1.431,10.514,10.514,0,0,1-2,1.282A17.076,17.076,0,0,1,685.3,68a37.337,37.337,0,0,1-4.048.931l-0.695-.973a27.33,27.33,0,0,0,6.231-1.664,4.987,4.987,0,0,0-1.53-1.411l1-.577a4.371,4.371,0,0,1,1.433,1.536,11.308,11.308,0,0,0,1.356-.86,6.011,6.011,0,0,0,1.016-.938,5.9,5.9,0,0,0,.646-0.909h-3.561a11.005,11.005,0,0,1-1.578,1.142,25.718,25.718,0,0,1-2.817,1.4l-0.807-.9a17.608,17.608,0,0,0,3.5-1.7,9.872,9.872,0,0,0,2.484-2.277,16.9,16.9,0,0,1-2.6,1.3,27.7,27.7,0,0,1-4.09,1.262l-0.668-.944q1.1-.254,2.4-0.621a15.7,15.7,0,0,0,1.941-.649,4.861,4.861,0,0,0-1.559-1.184l0.975-.634a4.49,4.49,0,0,1,.814.614,5.6,5.6,0,0,1,.744.782,12.286,12.286,0,0,0,1.474-.9,13.081,13.081,0,0,0,1.293-1.1h-3.825a14.729,14.729,0,0,1-3.047,1.565l-0.918-.874A10.7,10.7,0,0,0,686.236,56l0.975,0.521a10.4,10.4,0,0,1-1.016,1.128h3.923V58.6a11.813,11.813,0,0,1-1.962,2l0.821,0.451a6.717,6.717,0,0,1-.738,1.015H692v0.945Z"/>
</svg>
