<svg xmlns="http://www.w3.org/2000/svg" width="728" height="90" viewBox="0 0 728 90">
  <defs>
    <style>
      .cls-1 {
        fill: #4c286c;
        fill-rule: evenodd;
      }
    </style>
  </defs>
  <path class="cls-1" d="M236.963,47.155V41.688a10.484,10.484,0,0,1-1.449,1.436l-1.523-1.285,0.874-.806h-1.273v4.333l2.372-1.008a7.674,7.674,0,0,1,.025,1.1c-0.017.428-.025,0.727-0.025,0.894l-2.372,1.084v7.482a1.769,1.769,0,0,1-.512,1.2,2.606,2.606,0,0,1-1.161.769,13.787,13.787,0,0,1-2.123.05q-0.15-.328-0.374-0.982t-0.324-.933h2.172a0.489,0.489,0,0,0,.424-0.453v-6.2l-2.3.958L228,47.886q0.3-.127,1.71-0.706t1.985-.857v-5.29h-3.021V39.194h3.021V34.483h1.9v4.711h2.122l-0.025.957a14.9,14.9,0,0,0,1.448-2.62,16.493,16.493,0,0,0,1.124-3.5,13.082,13.082,0,0,1,1.672.705,14.3,14.3,0,0,1-.524,2.091h3.645a13.183,13.183,0,0,0-1.872-1.864,18.559,18.559,0,0,1,1.9-.857,11.178,11.178,0,0,1,1.123,1.386,6.367,6.367,0,0,1,.724,1.335H249.9v1.839h-4.944l0.025,0.983h4.245v1.839h-4.27v0.983h4.27v1.839h-4.27v1.008h5.718v1.839H236.963Zm12.983,4.107q-0.025.2-.1,1.638a7.792,7.792,0,0,1-.287,2.015,2.94,2.94,0,0,1-.424.831,2.51,2.51,0,0,1-.313.328,2.75,2.75,0,0,1-1.273.6,5.941,5.941,0,0,1-2.21-.076q-1.411-.252-1.46-0.252l-0.6-2.066q1.972,0.5,2.347.58a6.226,6.226,0,0,1,.7.088,2.563,2.563,0,0,0,.811.038,0.768,0.768,0,0,0,.412-0.2,1.168,1.168,0,0,0,.249-0.4,2.53,2.53,0,0,0,.138-0.7q0.037-.455.062-0.58H243.8V51.539a7.279,7.279,0,0,0,1.2-1.461h-3.82a7.917,7.917,0,0,1-.449,2.292,6.23,6.23,0,0,1-1.061,1.928,5.94,5.94,0,0,1-1.336,1.221,11.145,11.145,0,0,1-3.346,1.461l-1.248-1.738a13.882,13.882,0,0,0,2.709-.832,4.772,4.772,0,0,0,1.485-1.045,4.982,4.982,0,0,0,.924-1.424,6.65,6.65,0,0,0,.475-1.864h-3.346V48.238h11.235V49.85a9.541,9.541,0,0,1-.8,1.411h3.521Zm-6.892-12.6H238.86v0.983h4.194V38.665Zm0,2.822H238.86v0.983h4.194V41.487Zm0,2.821H238.86v1.008h4.194V44.308ZM265.6,48.792v6.022q0,2.015-1.773,2.015h-3.446l-0.7-2.067q2.494,0.227,3.145.2a0.8,0.8,0,0,0,.874-0.882v-5.29h-9.588V46.953H263.7V43.124h-7.515V41.285H263.7v-3.5q-2.022.252-7.765,0.4l-1.123-1.864a71.778,71.778,0,0,0,9.512-.454,37.406,37.406,0,0,0,8.315-1.738l1.049,1.436a34.436,34.436,0,0,1-8.09,1.99v3.728h7.141v1.839H265.6v3.829h9.188v1.839H265.6Zm16.7,5.9-1.248-1.815c0.05-.016.162-0.058,0.337-0.126a2.112,2.112,0,0,0,.412-0.2,0.28,0.28,0,0,0,.15-0.227V42.6h-3.346V40.756h5.143V51.614q0.675-.3,2.3-1.082t2.372-1.134l0.049,1.99Zm1.848-14.89a8.5,8.5,0,0,0-1.535-2.217,7.549,7.549,0,0,0-1.986-1.587l1.474-1.033a9.851,9.851,0,0,1,3.72,3.628Zm0.524,15.872V53.957h6.018V34.508h1.8v8.162h6.392V44.51h-6.392v9.447h7.666V55.67H284.676Zm40.549-4.257a15.685,15.685,0,0,1-.849,4.157,1.781,1.781,0,0,1-.824.882,2.667,2.667,0,0,1-.924-0.013,4.212,4.212,0,0,1-1.648-1.02,13.662,13.662,0,0,1-2.7-3.427,26.459,26.459,0,0,1-4.844,3.175l-1.672-1.411a23.731,23.731,0,0,0,5.642-3.653,31.258,31.258,0,0,1-1.4-6.323h-4.819v3.628l3.87-.982v1.94l-3.87,1.033v5.215a1.978,1.978,0,0,1-1.048,1.738,3.991,3.991,0,0,1-.961.215,12.274,12.274,0,0,1-1.561.037q-1-.025-1.348,0l-0.7-1.965,3.071,0.076a0.626,0.626,0,0,0,.412-0.2,0.641,0.641,0,0,0,.162-0.453V49.952l-4.37,1.184-1.4-1.839q2.721-.528,5.768-1.31V43.779H304.1V41.865h5.119V38.237a10.565,10.565,0,0,1-1.947.454,17.216,17.216,0,0,1-2.148.226,15.834,15.834,0,0,0-1.173-1.889,20.078,20.078,0,0,0,3.57-.327,16.3,16.3,0,0,0,2.909-.844,30.3,30.3,0,0,0,3.283-1.6l1.248,1.436q-2.32,1.36-2.883,1.65t-0.887.416v4.107h4.644a76.044,76.044,0,0,1-.149-7.709h1.922q0,1.662.063,4.068t0.162,3.641h6.642v1.915h-6.467a27.81,27.81,0,0,0,1,4.812,19.182,19.182,0,0,0,2.8-4.132l1.7,0.731a22.227,22.227,0,0,1-3.745,5.316,11.441,11.441,0,0,0,1,1.663A20.131,20.131,0,0,0,322.141,54q0.412,0.44.512,0.163a14.471,14.471,0,0,0,.624-3.5Zm-1.1-11.942a11.884,11.884,0,0,1-1.6,1.386,7.343,7.343,0,0,0-1.71-2.418,9.685,9.685,0,0,0-2.584-1.763l1.6-1.461a12.156,12.156,0,0,1,2.447,1.827A8.219,8.219,0,0,1,324.126,39.471Zm10.786-4.887a51.245,51.245,0,0,1-1.473,6.3v15.67h-1.9V44.787a11.736,11.736,0,0,1-1.073,1.751,15.473,15.473,0,0,1-1.324,1.625l-1.448-1.31a20.775,20.775,0,0,0,3.433-5.366,29.819,29.819,0,0,0,2.035-7.457Zm3.52,5.039a10.352,10.352,0,0,0-2.9-3.955l1.549-.957a9.016,9.016,0,0,1,3.021,3.88Zm-2.6,16.93V39.824h1.9V56.552h-1.9Zm13.457-1.965a1.669,1.669,0,0,1-1.4,1.587,12.3,12.3,0,0,1-2.971.076l-0.674-1.991,2.847,0.2a0.331,0.331,0,0,0,.224-0.126,0.735,0.735,0,0,0,.075-0.4v-16.5h-7.091V35.592h8.988v19Zm24.595-16.325q-0.026.681-.05,3t-0.088,3.678q-0.062,1.36-.187,2.9t-0.437,3.25a24.8,24.8,0,0,1-.812,3.249,4.362,4.362,0,0,1-.749,1.348,1.956,1.956,0,0,1-1.173.743,4.355,4.355,0,0,1-1.161,0,24.4,24.4,0,0,1-3.284-.781l-0.324-2.116a18.368,18.368,0,0,0,3.77,1.058,0.952,0.952,0,0,0,.949-0.454,16,16,0,0,0,.824-2.972q0.324-1.764.524-4.245T371.99,40h-5.318a20.753,20.753,0,0,1-2.9,5.29l-1.3-.832V55.7h-1.972V54.058H356.36V56.1h-1.973V38.64h2.3a15.749,15.749,0,0,0,1.523-4.434l1.8,0.731a16.72,16.72,0,0,1-1.348,3.7h3.82V43.7a23.705,23.705,0,0,0,3.745-9.7l2,0.454q-0.073.429-.212,0.983t-0.449,1.512q-0.312.957-.412,1.31h6.742Zm-13.383,2.217H356.36v4.862h4.145V40.479Zm0,6.7H356.36v5.038h4.145V47.181Zm8.189,3.351a21.36,21.36,0,0,0-3.4-5.921l1.548-1.033a22.142,22.142,0,0,1,2.173,3,18.951,18.951,0,0,1,1.473,3.149Zm18.476-.479q-0.672-.831-1.51-1.713a8.559,8.559,0,0,0-1.46-1.284v9.8h-1.973V47.331a19.384,19.384,0,0,1-2.846,2.495l-1.423-1.587a32.172,32.172,0,0,0,3.907-3.4,21.814,21.814,0,0,0,2.834-3.753h-6.143l0.051-1.839h8.264v1.663a23.219,23.219,0,0,1-2.7,4.333l0.026,0.882,0.723-.731a7.758,7.758,0,0,1,1.573,1.071,21.8,21.8,0,0,1,2.148,2.2Zm-2.5-11.815q-0.225.1-.812,0.428a8.93,8.93,0,0,1-.961.479,11.914,11.914,0,0,0-2.522-4.106L382,34.13a19.554,19.554,0,0,1,1.449,1.751A10.091,10.091,0,0,1,384.674,38.237Zm0.8,16.879V53.2h6.492V44.207h-5.393V42.368h5.393V34.307h1.972v8.061h5.717l-0.049,1.839h-5.668V53.2h6.591v1.915H385.473ZM405,55.746l-0.025-20h19.15v1.814H406.871V53.932h18.076v1.814H405Zm15.7-2.621-0.4-.7a28.589,28.589,0,0,0-1.873-2.822q-1.123-1.512-2.2-2.72a24.37,24.37,0,0,1-2.447,2.871,34.6,34.6,0,0,1-4.195,3.527l-1.473-1.612a24.2,24.2,0,0,0,6.841-6.274q-1.223-1.36-2.946-2.935t-3.471-2.91l1.423-1.184a54.88,54.88,0,0,1,6.042,5.391,60.717,60.717,0,0,0,3.4-5.467l1.6,0.882q-1.347,2.671-2.4,4.308l-1.249,1.738q0.874,0.933,1.886,2.179t1.81,2.469q0.8,1.222,1.3,2.154ZM449.616,56.7a45.036,45.036,0,0,1-7.815-1.021,23.16,23.16,0,0,1-4.769-1.676l-0.774.529a17.441,17.441,0,0,1-7.166,2.393l-1.123-1.688a33.47,33.47,0,0,0,3.508-.794,21.417,21.417,0,0,0,3.757-1.423,17.09,17.09,0,0,1-3.621-3.225l1.449-.982a29.516,29.516,0,0,0,3.645,2.872,6.918,6.918,0,0,0,.862-1.512,8.15,8.15,0,0,0,.512-1.662H431.29V39.169h7.165V37.38h-9.763V35.541h21.3V37.38h-9.638v1.788h6.917v9.347h-7.291a9.652,9.652,0,0,1-.574,2.229,7.547,7.547,0,0,1-1.049,1.9,11.89,11.89,0,0,0,3.047,1.045,41.848,41.848,0,0,0,4.506.731q2.559,0.289,4.881.34Zm-11.161-15.7h-5.268V42.9h5.268V41.008Zm-5.268,3.729v1.94h5.143l0.1-1.94h-5.243Zm12.284,0H440.3l-0.125,1.94h5.293v-1.94Zm0-3.729h-5.119V42.9h5.119V41.008ZM461.4,46q-0.549,7.18-1.224,9.17a3.318,3.318,0,0,1-.774,1.146,1.865,1.865,0,0,1-1.1.643,4.607,4.607,0,0,1-1.011-.013q-0.562-.063-1.236-0.176l-0.824-.139-0.5-1.965,2.846,0.428a0.5,0.5,0,0,0,.488-0.163,1.879,1.879,0,0,0,.324-0.58,5.461,5.461,0,0,0,.238-0.945q0.1-.579.124-0.655,0.051-.276.188-1.058t0.274-2.141q0.138-1.359.187-1.738h-5.667l1.2-7h4.519V37.632h-6.067V35.818h7.965v6.8h-4.944L455.833,46H461.4Zm12.234,10.959-1.2-1.839-10.162,1.335-1.023-1.889q2.022-.1,5.643-0.5v-3.8H464v1.587h-1.9V43.225h4.794V42.192h-3.671V36.07h9.563v6.121h-4v1.033h4.919v8.288h-1.9v-1.26h-3.021v3.627l2.222-.378-1.548-1.26,1.649-.856a14.613,14.613,0,0,1,2.321,2.053,9.372,9.372,0,0,1,1.773,2.482Zm-6.741-11.917H464v3.4h2.9v-3.4Zm3.994-7.155h-5.867v2.494h5.867V37.884Zm0.924,7.155h-3.021v3.4h3.021v-3.4ZM498.653,56.2a27.715,27.715,0,0,1-2.971-2.1,15.16,15.16,0,0,1-2.609-2.721,16.16,16.16,0,0,1-2.023-3.7,24.142,24.142,0,0,1-1.335-5.379,28.585,28.585,0,0,1-1.274,4.649,16.947,16.947,0,0,1-1.9,3.677,15.65,15.65,0,0,1-2.671,2.96,21.872,21.872,0,0,1-3.621,2.495l-1.423-1.739a15.619,15.619,0,0,0,3.483-2.254,14.9,14.9,0,0,0,2.609-2.9,16.33,16.33,0,0,0,1.748-3.313,19.02,19.02,0,0,0,1-3.578h-7.615V40.378h7.79a53.671,53.671,0,0,0,.175-6.348,9.53,9.53,0,0,0,1.1.176q0.675,0.075.924,0.126a60.453,60.453,0,0,1-.125,6.046h8.964v1.914h-7.341a22.023,22.023,0,0,0,1.623,5.329,14.524,14.524,0,0,0,2.672,3.866,19.392,19.392,0,0,0,4.17,3.2Z"/>
</svg>
