<svg id="Puffin" xmlns="http://www.w3.org/2000/svg" width="1517" height="188" viewBox="0 0 1517 188">
  <defs>
    <style>
      .cls-1 {
        fill: #4c286c;
        fill-rule: evenodd;
      }
    </style>
  </defs>
  <g id="SC">
    <path class="cls-1" d="M597.214,82.344q-0.47.26-1.668,1.045a12.221,12.221,0,0,1-1.983,1.1,40.541,40.541,0,0,0-2.921-5.331q-0.575.052-1.8,0.155t-11.552.941q-10.326.836-17.575,2.144l-2.5-3.763A39.449,39.449,0,0,0,564.8,72.1a52.041,52.041,0,0,0,6.022-7.947h-15.28V60.339h18.2V50.877H559.4V46.9l14.342,0.106V38.071h4.226l-0.106,8.939,14.292,0.1v3.763H577.864v9.462h18.2v3.814H575.623q-5.268,8.836-10.692,13.278L587.879,75.5a16.061,16.061,0,0,0-2.791-2.744,24.7,24.7,0,0,0-3.834-2.379l4.121-2.195a26.75,26.75,0,0,1,6.31,5.644A44.021,44.021,0,0,1,597.214,82.344Zm34-12.284V85.115H627.1V70.06h-20.34V66.244h6.519V53.909H627.1v-6.8H616.355a44.186,44.186,0,0,1-3.729,6.507,28.759,28.759,0,0,1-3.469,4l-3.284-2.665q6.673-5.96,9.648-17.353l3.337,1.619q-0.051.472-.183,1.15T617.868,43.3h29.207v3.816H631.219v6.8h13.3v3.816h-13.3v8.518h17.993V70.06H631.219ZM627.1,57.726h-9.858v8.518H627.1V57.726Zm55.074,4.913a9.336,9.336,0,0,1-.415,2.691,7.733,7.733,0,0,1-1.435,2.64,7.475,7.475,0,0,1-2.687,2.04l-1.512-1.936a5.174,5.174,0,0,0,3.13-5.174h-2.818V57.15h5.737v5.488Zm72.183,11.238a32.214,32.214,0,0,1-1.774,8.625,3.685,3.685,0,0,1-1.72,1.829,5.56,5.56,0,0,1-1.931-.026,8.792,8.792,0,0,1-3.441-2.117,28.358,28.358,0,0,1-5.633-7.108,55.378,55.378,0,0,1-10.117,6.585l-3.5-2.926a49.749,49.749,0,0,0,11.788-7.579,64.631,64.631,0,0,1-2.922-13.121H725.046v7.528l8.084-2.04v4.024l-8.084,2.144v10.82a4.1,4.1,0,0,1-2.192,3.608,8.457,8.457,0,0,1-2.007.443,25.694,25.694,0,0,1-3.26.08q-2.086-.055-2.817,0l-1.459-4.078,6.414,0.157a1.314,1.314,0,0,0,.861-0.419,1.328,1.328,0,0,0,.339-0.941v-8.52L711.8,73.3l-2.92-3.814q5.683-1.1,12.047-2.72V58.038H710.233V54.067h10.692V46.538a22.157,22.157,0,0,1-4.069.941,35.753,35.753,0,0,1-4.484.47,32.984,32.984,0,0,0-2.451-3.92,42.2,42.2,0,0,0,7.457-.678,34.316,34.316,0,0,0,6.077-1.752,63.488,63.488,0,0,0,6.857-3.32l2.608,2.981q-4.849,2.821-6.024,3.422a20.348,20.348,0,0,1-1.85.864v8.52h9.7a156.675,156.675,0,0,1-.312-16h4.015q0,3.449.131,8.441t0.338,7.555h13.874v3.971H739.283a57.656,57.656,0,0,0,2.086,9.985,39.681,39.681,0,0,0,5.843-8.574l3.545,1.517a46.032,46.032,0,0,1-7.824,11.028,23.793,23.793,0,0,0,2.087,3.451,41.517,41.517,0,0,0,2.895,3.79q0.861,0.916,1.069.339a29.784,29.784,0,0,0,1.3-7.265ZM752.061,49.1a24.866,24.866,0,0,1-3.338,2.875,15.207,15.207,0,0,0-3.573-5.019,20.236,20.236,0,0,0-5.4-3.659l3.337-3.032a25.473,25.473,0,0,1,5.112,3.79A17.072,17.072,0,0,1,752.061,49.1Zm22.533-10.142a105.75,105.75,0,0,1-3.079,13.068V84.539h-3.962V60.129a24.444,24.444,0,0,1-2.244,3.632,32.389,32.389,0,0,1-2.765,3.373l-3.025-2.72a43.128,43.128,0,0,0,7.172-11.132,61.619,61.619,0,0,0,4.252-15.473Zm7.352,10.454a21.541,21.541,0,0,0-6.048-8.206l3.233-1.987a18.669,18.669,0,0,1,6.309,8.051Zm-5.423,35.125V49.832h3.963V84.539h-3.963Zm28.111-4.076q0,2.352-2.92,3.291a25.759,25.759,0,0,1-6.207.157L794.1,79.783l5.945,0.419a0.7,0.7,0,0,0,.47-0.261,1.524,1.524,0,0,0,.157-0.837V44.866H785.858V41.05h18.776V80.463Zm20.758-28.332V62.585l5.84-1.934v3.816a24.024,24.024,0,0,1-3.129,1.15,26.543,26.543,0,0,0-2.711.941v14.95a2.71,2.71,0,0,1-.73,1.75,3.881,3.881,0,0,1-1.564,1.176,7.529,7.529,0,0,1-1.722.392,20.883,20.883,0,0,1-2.948.08c-1.269-.037-2.06-0.053-2.371-0.053l-1.3-3.92a35.34,35.34,0,0,0,5.476.208,1.011,1.011,0,0,0,.807-0.365,0.993,0.993,0,0,0,.391-0.835V67.812q-0.416.159-2.164,0.76t-2.66.862c-0.607.176-1.017,0.3-1.225,0.365l-2.451-3.449a82.855,82.855,0,0,0,8.5-2.405V52.131h-6.78V48.317h6.78v-9.67h3.965v9.67h6v3.814h-6ZM857.674,85.01a27.935,27.935,0,0,1-7.014-3.163,56.97,56.97,0,0,1-6.754-4.627,38.234,38.234,0,0,1-6.311,4.312,43.1,43.1,0,0,1-7.563,3.267l-2.658-3.5q9.124-2.925,13.717-6.952a34.522,34.522,0,0,1-6.208-10.871h-2.711V59.659h21.9a22.974,22.974,0,0,1-7.145,14.948q4.746,4.392,13.3,6.744Zm-5-28.069a5.443,5.443,0,0,1-2.712-1.2,3.89,3.89,0,0,1-1.253-1.883,7.113,7.113,0,0,1-.261-1.776V44.6h-9.8q-0.156,3.032-.442,5.174a12.023,12.023,0,0,1-1.277,4.027,16.42,16.42,0,0,1-6.1,6.166l-3.129-3.136q5.215-2.456,6.154-6.115a22.763,22.763,0,0,0,.444-2.534q0.236-1.752.288-7.4h17.836V52.027a1.228,1.228,0,0,0,1.461,1.307h5.215v3.608h-6.415Zm-13.56,6.534a24.664,24.664,0,0,0,2.267,4.625,12.53,12.53,0,0,0,2.738,3.528,25.894,25.894,0,0,0,3.209-3.841,17.361,17.361,0,0,0,2.06-4.312H839.109ZM907.8,83.6a45.313,45.313,0,0,1-7.068-5.619A48.88,48.88,0,0,1,893.9,69.9a39.412,39.412,0,0,1-4.563-8.676Q883.283,75.6,868.262,83.546l-2.868-3.294a46.38,46.38,0,0,0,13.613-10.374,42.023,42.023,0,0,0,8.031-14.662,12.632,12.632,0,0,0-1.355-3.659,17.047,17.047,0,0,0-2.634-3.739,11.518,11.518,0,0,0-3-2.4,8.2,8.2,0,0,0-2.661-.915l3.494-3.293a10.212,10.212,0,0,1,4.774,3.032,20.452,20.452,0,0,1,3.547,5.1,34.576,34.576,0,0,1,1.955,4.782,42.836,42.836,0,0,0,2.451,6.3,47.648,47.648,0,0,0,4.433,7.344,46.14,46.14,0,0,0,6.285,7.108,44.256,44.256,0,0,0,6.7,5.176ZM957.55,44.6a45.987,45.987,0,0,1-14.342,11.657v23.26a4.519,4.519,0,0,1-.964,2.718,3.4,3.4,0,0,1-2.791,1.36l-7.666.1-1.878-4.182H938.2A0.975,0.975,0,0,0,938.8,79a1.963,1.963,0,0,0,.288-1.045V54.222q8.343-4.545,12.57-9.251H923.285V41.154H957.55V44.6Zm-459.2,99.679h-4.378V116.536h-8.449v-3.449l0.835-.053c4.8-.312,7.508-1.462,8.447-5.958h3.545v37.208Zm32.177-9.3h-5.006v9.3h-4.38v-9.3H502.527v-4.235l18.25-23.673h4.745V131.01h5.006v3.974Zm-23.413-3.974h14.027V112.826Zm26.548-5.329c0-12.332,4.431-19.44,13.452-19.44s13.452,7.108,13.452,19.44-4.431,19.44-13.452,19.44S533.663,138.014,533.663,125.681Zm22.316,0c0-10.347-3.129-15.469-8.864-15.469s-8.864,5.122-8.864,15.469,3.129,15.469,8.864,15.469S555.979,136.027,555.979,125.681Zm30.152-16q0,3.343-.208,7.632h19.3q-0.889,13.905-1.7,19.209a27.209,27.209,0,0,1-2.062,7.761,6.044,6.044,0,0,1-1.876,2.04,6.17,6.17,0,0,1-2.661,1.15,10.628,10.628,0,0,1-2.113,0,23.724,23.724,0,0,1-4.875-1.36l-0.574-4.652a15.959,15.959,0,0,0,1.721.654q1.042,0.34,1.3.443A10.112,10.112,0,0,0,594.5,143a5.379,5.379,0,0,0,1.956-.078,1.675,1.675,0,0,0,1.043-.628,17.715,17.715,0,0,0,1.773-5.593,124.532,124.532,0,0,0,1.253-15.42H585.714q-0.261,2.352-.679,4.6a37.343,37.343,0,0,1-5.266,12.833,29.98,29.98,0,0,1-9.859,9.591l-3.441-3.4a29.888,29.888,0,0,0,4.745-3.344,28,28,0,0,0,4.825-5.358,32.706,32.706,0,0,0,3.626-6.56,24.133,24.133,0,0,0,1.147-3.972,45.742,45.742,0,0,0,.652-4.573q0.235-2.484.442-11.422h-14.29v-3.974h45.061v3.974H586.131Zm46.992,4.338a43.63,43.63,0,0,1-10.848,18.346l-3.233-2.717a41.594,41.594,0,0,0,6.389-8.153,42.236,42.236,0,0,0,4.2-9.254Zm10.535,26.709a7.66,7.66,0,0,1-.444,2.8,3.488,3.488,0,0,1-1.485,1.752,10.422,10.422,0,0,1-5.476,1.123q-3.393-.079-4.069-0.027l-1.721-4.286q3.6,0.264,7.666.158a1.29,1.29,0,0,0,.966-0.5,1.527,1.527,0,0,0,.442-1.021v-39.2h4.121v39.2Zm16.272-8.571a41.159,41.159,0,0,0-11.839-17.98l3.7-1.987a45.1,45.1,0,0,1,7.432,8.625,34.107,34.107,0,0,1,4.46,9.512ZM683.608,143.5v-3.867h-6.781V143.5h-3.962V109.055h14.707V143.5h-3.964Zm0-30.629h-6.781v9.564h6.781v-9.564Zm0,13.38h-6.781v9.566h6.781v-9.566Zm26.755-10.4v27.861a4,4,0,0,1-.964,2.691,2.912,2.912,0,0,1-2.269,1.123h-4.747l-1.512-4.233,4.694,0.365a0.645,0.645,0,0,0,.6-0.287,0.819,0.819,0,0,0,.237-0.654V115.85H690.18v-3.816H706.4V100.953h3.962v11.081h5.477v3.816h-5.477Zm-11.056,17.823a22.947,22.947,0,0,0-1.538-3.24,34.086,34.086,0,0,0-3.052-4.494,25.506,25.506,0,0,0-3.7-3.921l3.129-2.2a28.858,28.858,0,0,1,4.928,5.385,24.315,24.315,0,0,1,3.521,6.221Zm34-2.822a34.573,34.573,0,0,1-8.031,12.388l-3.233-2.352a34.674,34.674,0,0,0,7.874-11.761A34.848,34.848,0,0,1,733.311,130.851Zm14.031-18.033v8h15.593v3.816H727.678v-3.816h15.7v-8H723.819V109h19.558V101.11h3.965V109h19.663v3.816H747.342Zm11.213,22.791q-0.262.732-.888,2.795a20.781,20.781,0,0,1-1.277,3.346,9.511,9.511,0,0,1-1.539,2.222q-1.253,1.356-4.225,1.358H739.831a5.48,5.48,0,0,1-2.217-.47,3.506,3.506,0,0,1-1.591-1.28,3.939,3.939,0,0,1-.625-1.648V129.753h3.964v10.821a1.534,1.534,0,0,0,1.3.94h10.639a3.042,3.042,0,0,0,1.7-1.307,10.834,10.834,0,0,0,1.2-3.006q0.548-2.008.757-2.587Zm-10.431,1.1a30.213,30.213,0,0,0-8.084-9.147l3.024-2.352q3.392,2.352,8.45,8.781Zm21.279,3.24q-2.348,1.728-3.284,2.3a37.081,37.081,0,0,0-8.607-10.769l2.763-2.456a45.886,45.886,0,0,1,5.191,5.2A38.243,38.243,0,0,1,769.4,139.945Zm32.91-34.08-1.147,2.406h14.6v14.9h-12.1v5.854a3.107,3.107,0,0,1-2.139,3.293,18.3,18.3,0,0,1,2.9,2.352,13.235,13.235,0,0,1,2.163,2.665l-3.233,2.405a18.538,18.538,0,0,0-5.58-5.854l1.929-1.255h-4.38l-1.3-3.764,4.588,0.211a0.915,0.915,0,0,0,.758-0.211,0.876,0.876,0,0,0,.285-0.679v-5.017H787.4v-14.9h9.076a3.661,3.661,0,0,0,.6-1.125,8.3,8.3,0,0,1,.6-1.281H782.963v18.3a54.105,54.105,0,0,1-.626,8.286,39.523,39.523,0,0,1-1.955,7.657,26.587,26.587,0,0,1-3.572,6.638l-3.025-2.718a19.981,19.981,0,0,0,3.1-5.881,36.051,36.051,0,0,0,1.591-7.16,70.1,70.1,0,0,0,.468-8.441V102.049h41.516v3.816h-18.15Zm-11.788,29.744a20.527,20.527,0,0,1-2.5,5.435,19.693,19.693,0,0,1-3.912,4.286l-3.078-2.822a24.2,24.2,0,0,0,3.73-3.973,15.811,15.811,0,0,0,2.371-4.862Zm4.643-10.142a21.7,21.7,0,0,1-3.051,3.346,44.183,44.183,0,0,1-6.493,4.39l-2.816-3.032a29.942,29.942,0,0,0,5.815-3.371,17.806,17.806,0,0,0,3.312-3.371Zm16.637-13.59H791.361v2.2h20.444v-2.2Zm0,5.645H791.361v2.248h20.444v-2.248Zm1.1,21.378a24.516,24.516,0,0,1-1.2,3.816,6.2,6.2,0,0,1-1.3,2.248,4.745,4.745,0,0,1-2.815,1.464H796.994a4.216,4.216,0,0,1-3.079-1.176,4.032,4.032,0,0,1-1.2-3v-8.206h3.962v7.473a0.994,0.994,0,0,0,.391.759,1.174,1.174,0,0,0,.756.339h8.711a1.736,1.736,0,0,0,1.408-.968,12.163,12.163,0,0,0,1.043-4.312Zm4.015-5.488a26.994,26.994,0,0,0-11.681-7.108l2.607-2.718a27.35,27.35,0,0,1,11.786,7Zm1.2,11.134c-0.034-.035-0.3-0.558-0.808-1.569s-1.035-1.968-1.592-2.874a16.434,16.434,0,0,0-2.006-2.614,16.893,16.893,0,0,0-2.584-2.248l3.6-1.829a20.872,20.872,0,0,1,3.572,3.32,23.953,23.953,0,0,1,3.416,5.619Zm28.06-1.358a2.716,2.716,0,0,1-.471,1.307,4.486,4.486,0,0,1-1.615,1.462,4.561,4.561,0,0,1-2.347.679H837.1q-0.156-.523-1.512-4.024,0.731,0,2.659.053a18.707,18.707,0,0,0,3.025-.106,1.532,1.532,0,0,0,.939-1.515v-9.878H835.17q-0.261,3.761-.729,6.611A22.97,22.97,0,0,1,829.955,148l-3.233-2.456a21.533,21.533,0,0,0,2.581-4.627,23.613,23.613,0,0,0,1.512-5.854,57.336,57.336,0,0,0,.444-7.605v-24.1h14.917v39.832Zm-3.965-36.016h-6.987v8.051h6.987v-8.051Zm-6.987,11.865v8.312h6.934l0.106-8.312h-7.04Zm35.933,28.488a39.116,39.116,0,0,1-4.433-2.979,39.731,39.731,0,0,1-3.39-3.032,32.357,32.357,0,0,1-2.868,3.085q-1.984,1.932-4.016,3.606-0.575-.525-1.538-1.595t-1.174-1.28a35.1,35.1,0,0,0,6.935-6.9,33.435,33.435,0,0,1-5.266-13.9h-1.929v23.313l-3.965.1V103.356h20.915a64.166,64.166,0,0,1-1.565,11.344,3.855,3.855,0,0,1-1.564,2.222,5.015,5.015,0,0,1-2.557,1.019,24.773,24.773,0,0,1-5.894-.366l-1.147-4.181q0.678,0.1,2.842.469a28.545,28.545,0,0,0,3.52.419,0.9,0.9,0,0,0,.836-0.784,18.265,18.265,0,0,0,.625-3.006q0.315-2.117.418-3.32H853.478v13.54h17a41.108,41.108,0,0,1-1.826,9.3,49.882,49.882,0,0,1-3.286,8,23,23,0,0,0,2.086,2.144,57.2,57.2,0,0,0,6.051,4.39Zm-11.838-23a29.406,29.406,0,0,0,1.094,4.522,26.764,26.764,0,0,0,2.347,5.462q0.834-1.724,1.748-4.182a56.1,56.1,0,0,0,1.748-5.8h-6.937Zm64.2,2.719a107.677,107.677,0,0,1-11.395-3.085,48.382,48.382,0,0,1-9.361-4.233,43.4,43.4,0,0,1-10.484,4.835,80.279,80.279,0,0,1-12.725,3.057l-1.618-3.763a95.726,95.726,0,0,0,17.107-4.443l4.12-2.091q-0.522-.365-2.06-1.49t-2.815-2.222a13.844,13.844,0,0,1-2.166-2.3,26.328,26.328,0,0,1-4.329,4.1,22.594,22.594,0,0,1-5.216,3.006l-2.972-3.608a26.285,26.285,0,0,0,8.605-5.1,22.76,22.76,0,0,0,5.737-8.963l3.443,1.933-1.253,2.561H915.7v3.5a41.683,41.683,0,0,1-3.675,3.944,59.136,59.136,0,0,1-5.763,4.68,12.547,12.547,0,0,0,1.825.888q1.458,0.629,1.929.889a97.5,97.5,0,0,0,16.064,4.39Zm-5.945.889a56.369,56.369,0,0,1-2.243,15.942A5.179,5.179,0,0,1,914,146.244a4.762,4.762,0,0,1-2.059,1.281,9.065,9.065,0,0,1-1.877.261,13.388,13.388,0,0,1-2.921-.286c-1.218-.228-1.964-0.359-2.243-0.392l-0.99-4.549q3.8,1.1,4.824,1.256a6.839,6.839,0,0,0,2.06,0,2.708,2.708,0,0,0,.782-0.811,10.156,10.156,0,0,0,.782-2.952q1.042-6.169,1.147-8.1H902.242a16.485,16.485,0,0,1-1.279,3.632,16.837,16.837,0,0,1-2.946,4.208,24.17,24.17,0,0,1-4.329,3.71,25.608,25.608,0,0,1-5.711,2.64,44.8,44.8,0,0,1-6.442,1.752q-1.459-2.616-1.695-3.058a8.12,8.12,0,0,1-.391-0.862q7.25-1.152,10.928-3.085a17.165,17.165,0,0,0,5.814-4.756,11.117,11.117,0,0,0,1.983-4.181H883.257v-3.816H898.8c0.035-.419.061-1.089,0.078-2.014s0.044-1.768.079-2.534l3.859,0.523q0,0.785.026,2.091a11.682,11.682,0,0,1-.077,1.934h14.811Zm-22.74-18.871a17.1,17.1,0,0,0,2.477,2.405q1.435,1.149,5.346,3.659,2.087-1.359,4.172-3a34.16,34.16,0,0,0,3.443-3.059H894.835ZM944.381,143.5v-3.867H937.6V143.5h-3.962V109.055h14.707V143.5h-3.965Zm0-30.629H937.6v9.564h6.78v-9.564Zm0,13.38H937.6v9.566h6.78v-9.566Zm26.756-10.4v27.861a4,4,0,0,1-.963,2.691,2.915,2.915,0,0,1-2.27,1.123h-4.747l-1.512-4.233,4.694,0.365a0.645,0.645,0,0,0,.6-0.287,0.819,0.819,0,0,0,.237-0.654V115.85H950.954v-3.816h16.221V100.953h3.962v11.081h5.476v3.816h-5.476Zm-11.056,17.823a22.947,22.947,0,0,0-1.538-3.24,34.086,34.086,0,0,0-3.052-4.494,25.506,25.506,0,0,0-3.7-3.921l3.129-2.2a28.893,28.893,0,0,1,4.929,5.385,24.308,24.308,0,0,1,3.52,6.221Zm25.556,13.747V110H989.6V147.42h-3.964Zm11.787-35.856a31.174,31.174,0,0,0-8.084-8l3.181-2.144a25.369,25.369,0,0,1,4.121,3.267,30.214,30.214,0,0,1,3.858,4.366Zm14.136,28.8v-2.718H999.771v2.718h-3.964V114.333h19.713v26.031h-3.96Zm0-22.215H999.771v5.227h11.789v-5.227Zm0,9.043H999.771v6.638h11.789v-6.638Zm13.66,15.628a4.046,4.046,0,0,1-.91,2.64,3.414,3.414,0,0,1-2.37,1.281,35.312,35.312,0,0,1-4.8,0l-1.15-3.659a26.65,26.65,0,0,0,4.38.314,1.257,1.257,0,0,0,.76-0.288,2.587,2.587,0,0,0,.13-1.072V107.905h-17.68v-3.816h21.64V142.82Z"/>
  </g>
</svg>
