<svg xmlns="http://www.w3.org/2000/svg" width="300" height="50" viewBox="0 0 300 50">
  <defs>
    <style>
      .cls-1 {
        fill: #232323;
        fill-rule: evenodd;
      }
    </style>
  </defs>
  <path class="cls-1" d="M6.44,40.779l0.76-1L6,39.406l0.166-.452,1.172,0.362V38.123H7.842v1.192l1.172-.362L9.18,39.406l-1.2.37,0.76,1-0.4.3-0.752-.988-0.752.988Zm3.334,0.03A2.562,2.562,0,0,1,12.38,38a2.283,2.283,0,0,1,2.4,1.848H14.106a1.645,1.645,0,0,0-1.726-1.267,1.937,1.937,0,0,0-1.909,2.226,1.937,1.937,0,0,0,1.909,2.226,1.694,1.694,0,0,0,1.766-1.494h0.665a2.3,2.3,0,0,1-2.431,2.075A2.562,2.562,0,0,1,9.774,40.809Zm5.537,0.73a1.836,1.836,0,0,1,1.926-2.045,1.892,1.892,0,0,1,1.384.529,1.956,1.956,0,0,1,.537,1.461,2.481,2.481,0,0,1-.238,1.188,1.64,1.64,0,0,1-.692.672,2.1,2.1,0,0,1-.992.24,1.9,1.9,0,0,1-1.394-.526A2.043,2.043,0,0,1,15.312,41.539Zm0.715,0a1.613,1.613,0,0,0,.344,1.125,1.184,1.184,0,0,0,1.729,0,1.65,1.65,0,0,0,.344-1.146,1.566,1.566,0,0,0-.346-1.1,1.185,1.185,0,0,0-1.727,0A1.606,1.606,0,0,0,16.027,41.539Zm7.227-.677v2.633H22.621V40.922a0.8,0.8,0,0,0-.934-0.867,1.132,1.132,0,0,0-1.124,1.237v2.2H19.928V39.6h0.6v0.581a1.524,1.524,0,0,1,1.283-.671A1.274,1.274,0,0,1,23.254,40.862Zm4.657-2.739v5.372h-0.6v-0.6a1.63,1.63,0,0,1-1.4.694,2.042,2.042,0,0,1,0-4.074,1.631,1.631,0,0,1,1.37.649V38.123h0.634ZM27.3,41.548a1.309,1.309,0,0,0-1.315-1.494,1.335,1.335,0,0,0-1.314,1.524,1.283,1.283,0,0,0,1.314,1.463A1.309,1.309,0,0,0,27.3,41.548Zm1.449-2.9a0.428,0.428,0,1,1,.428.407A0.421,0.421,0,0,1,28.751,38.644ZM28.861,39.6H29.5v3.893H28.861V39.6ZM31.4,40.13v2.527c0,0.2.1,0.332,0.467,0.332h0.372v0.505q-0.261.023-.451,0.023a0.816,0.816,0,0,1-1.022-.807V40.13H30.089V39.6h0.673V38.5H31.4v1.1h0.84V40.13H31.4Zm1.4-1.486a0.428,0.428,0,1,1,.428.407A0.421,0.421,0,0,1,32.8,38.644ZM32.908,39.6h0.634v3.893H32.908V39.6Zm1.372,1.937a1.836,1.836,0,0,1,1.926-2.045,1.891,1.891,0,0,1,1.384.529,1.956,1.956,0,0,1,.538,1.461,2.481,2.481,0,0,1-.238,1.188,1.641,1.641,0,0,1-.692.672,2.1,2.1,0,0,1-.992.24,1.9,1.9,0,0,1-1.394-.526A2.044,2.044,0,0,1,34.28,41.539Zm0.715,0a1.613,1.613,0,0,0,.344,1.125,1.184,1.184,0,0,0,1.729,0,1.65,1.65,0,0,0,.344-1.146,1.566,1.566,0,0,0-.346-1.1,1.185,1.185,0,0,0-1.727,0A1.606,1.606,0,0,0,35,41.539Zm7.227-.677v2.633H41.589V40.922a0.8,0.8,0,0,0-.934-0.867,1.132,1.132,0,0,0-1.125,1.237v2.2H38.9V39.6h0.6v0.581a1.524,1.524,0,0,1,1.283-.671A1.274,1.274,0,0,1,42.223,40.862Zm0.657,1.4h0.641a0.873,0.873,0,0,0,1.093.808c0.689,0,.982-0.219.982-0.6,0-.347-0.222-0.505-0.934-0.634l-0.38-.068a1.215,1.215,0,0,1-1.275-1.146,1.239,1.239,0,0,1,1.489-1.1c1.093,0,1.647.46,1.663,1.29H45.525c-0.032-.6-0.4-0.77-1.03-0.77-0.546,0-.855.211-0.855,0.573s0.3,0.505.823,0.6l0.364,0.068c1.006,0.189,1.41.513,1.41,1.147,0,0.739-.618,1.162-1.623,1.162A1.45,1.45,0,0,1,42.88,42.258ZM51.948,43v0.49a2.509,2.509,0,0,1-.348.023,0.577,0.577,0,0,1-.689-0.558,1.522,1.522,0,0,1-1.331.626,1.205,1.205,0,0,1-1.441-1.139c0-.611.388-1.094,1.513-1.207l0.586-.06a0.559,0.559,0,0,0,.641-0.536c0-.407-0.222-0.611-0.919-0.611s-0.99.189-1.03,0.77H48.3c0.047-.755.467-1.29,1.663-1.29,1.133,0,1.536.475,1.536,1.132v2.173a0.184,0.184,0,0,0,.222.189h0.23Zm-1.069-1.049V41.5a1.091,1.091,0,0,1-.538.166l-0.594.068c-0.744.083-.95,0.324-0.95,0.7a0.666,0.666,0,0,0,.816.642A1.153,1.153,0,0,0,50.879,41.956Zm5.528-.408a1.847,1.847,0,0,1-1.9,2.037,1.632,1.632,0,0,1-1.37-.649v2.037H52.5V39.6h0.6v0.6a1.63,1.63,0,0,1,1.4-.694A1.847,1.847,0,0,1,56.406,41.548Zm-0.665-.03a1.284,1.284,0,0,0-1.315-1.464,1.506,1.506,0,0,0,0,2.987A1.334,1.334,0,0,0,55.741,41.518Zm5.322,0.03a1.847,1.847,0,0,1-1.9,2.037,1.632,1.632,0,0,1-1.37-.649v2.037H57.159V39.6h0.6v0.6a1.63,1.63,0,0,1,1.4-.694A1.847,1.847,0,0,1,61.063,41.548Zm-0.665-.03a1.284,1.284,0,0,0-1.315-1.464,1.506,1.506,0,0,0,0,2.987A1.334,1.334,0,0,0,60.4,41.518Zm1.418-3.4h0.634v5.372H61.816V38.123ZM66.678,39.6l-1.727,4.5a1.233,1.233,0,0,1-1.331.89,3.291,3.291,0,0,1-.38-0.023V44.468h0.372a0.715,0.715,0,0,0,.744-0.483c0.047-.113.1-0.241,0.143-0.362L62.964,39.6h0.7l0.578,1.622c0.206,0.566.4,1.124,0.586,1.682,0.182-.559.38-1.124,0.586-1.69L65.989,39.6h0.689Zm0.4,3.5a0.465,0.465,0,0,1,.927,0A0.464,0.464,0,0,1,67.074,43.1Z"/>
</svg>
