<svg xmlns="http://www.w3.org/2000/svg" width="300" height="50" viewBox="0 0 300 50">
  <defs>
    <style>
      .cls-1 {
        fill: #4b286c;
        fill-rule: evenodd;
      }
    </style>
  </defs>
  <path class="cls-1" d="M14.409,10.037c0,1.659-1.086,2.838-3.286,2.838H8.17v3.551H7V7.2h4.122C13.322,7.2,14.409,8.379,14.409,10.037Zm-1.211,0c0-1.166-.683-1.853-2.075-1.853H8.17V11.89h2.952C12.515,11.89,13.2,11.2,13.2,10.037Zm8.1-.3v6.686H20.241v-1a2.7,2.7,0,0,1-2.256,1.153,2.217,2.217,0,0,1-2.534-2.319V9.74h1.114v4.418a1.4,1.4,0,0,0,1.643,1.49,1.964,1.964,0,0,0,1.977-2.125V9.74H21.3Zm5.15-.091v1H26.171c-1.434,0-2.353.674-2.353,1.97v3.81H22.7V9.74h1.059v1.179a2.535,2.535,0,0,1,2.311-1.283C26.185,9.636,26.3,9.636,26.449,9.648Zm6.627,3.8H27.618a2.074,2.074,0,0,0,2.214,2.19,1.839,1.839,0,0,0,1.908-1.244H32.9a2.965,2.965,0,0,1-3.091,2.19,3.222,3.222,0,0,1-3.342-3.5,3.312,3.312,0,1,1,6.614,0v0.362Zm-5.431-.933h4.233A2.121,2.121,0,0,0,27.645,12.513ZM35.3,8.184v2.942h4.832v0.985H35.3v4.315h-1.17V7.2h6.559V8.184H35.3Zm5.763-.091a0.754,0.754,0,1,1,.752.7A0.733,0.733,0,0,1,41.065,8.094ZM41.26,9.74h1.114v6.686H41.26V9.74Zm9.385,3.343a3.207,3.207,0,0,1-3.342,3.5,2.888,2.888,0,0,1-2.465-1.192v1.037H43.78V7.2h1.114v3.5A2.9,2.9,0,0,1,47.3,9.584,3.207,3.207,0,0,1,50.645,13.083Zm-1.17-.052a2.227,2.227,0,0,0-2.311-2.514,2.269,2.269,0,0,0-2.312,2.566,2.269,2.269,0,0,0,2.312,2.565A2.313,2.313,0,0,0,49.475,13.031Zm5.971-3.382v1H55.168c-1.434,0-2.353.674-2.353,1.97v3.81H51.7V9.74h1.058v1.179a2.536,2.536,0,0,1,2.312-1.283C55.182,9.636,55.294,9.636,55.447,9.648Zm6.627,3.8H56.615a2.074,2.074,0,0,0,2.214,2.19,1.839,1.839,0,0,0,1.908-1.244h1.156a2.965,2.965,0,0,1-3.091,2.19,3.222,3.222,0,0,1-3.342-3.5,3.312,3.312,0,1,1,6.614,0v0.362Zm-5.431-.933h4.233A2.121,2.121,0,0,0,56.643,12.513ZM65.58,7.2h1.17v9.226H65.58V7.2Zm8.493,4.7v4.522H72.959V12.007a1.4,1.4,0,0,0-1.643-1.491,1.965,1.965,0,0,0-1.977,2.125v3.784H68.225V9.74h1.058v1a2.7,2.7,0,0,1,2.256-1.153A2.218,2.218,0,0,1,74.073,11.9Zm2.8-1.257v4.341c0,0.35.181,0.57,0.822,0.57h0.654v0.868q-0.459.039-.794,0.039c-1.114,0-1.8-.363-1.8-1.387V10.646H74.573V9.74h1.184V7.848h1.114V9.74h1.476v0.907H76.871Zm8.521,2.8H79.933a2.074,2.074,0,0,0,2.214,2.19,1.839,1.839,0,0,0,1.908-1.244H85.21a2.965,2.965,0,0,1-3.091,2.19,3.222,3.222,0,0,1-3.342-3.5,3.312,3.312,0,1,1,6.614,0v0.362Zm-5.431-.933h4.233A2.121,2.121,0,0,0,79.961,12.513ZM90.193,9.648v1H89.915c-1.434,0-2.353.674-2.353,1.97v3.81H86.448V9.74h1.058v1.179a2.536,2.536,0,0,1,2.312-1.283C89.929,9.636,90.04,9.636,90.193,9.648ZM96.82,11.9v4.522H95.706V12.007a1.4,1.4,0,0,0-1.643-1.491,1.965,1.965,0,0,0-1.977,2.125v3.784H90.972V9.74H92.03v1a2.7,2.7,0,0,1,2.256-1.153A2.218,2.218,0,0,1,96.82,11.9Zm7.671,1.542H99.032a2.074,2.074,0,0,0,2.214,2.19,1.84,1.84,0,0,0,1.908-1.244h1.156a2.965,2.965,0,0,1-3.091,2.19,3.222,3.222,0,0,1-3.342-3.5,3.312,3.312,0,1,1,6.614,0v0.362Zm-5.431-.933h4.233A2.121,2.121,0,0,0,99.06,12.513Zm7.741-1.866v4.341c0,0.35.181,0.57,0.821,0.57h0.655v0.868c-0.307.026-.571,0.039-0.794,0.039-1.114,0-1.8-.363-1.8-1.387V10.646H104.5V9.74h1.184V7.848H106.8V9.74h1.476v0.907H106.8Zm4.97,5.332a1.786,1.786,0,0,1-1.56,1.97l-0.139.026V17.287l0.1-.026a0.971,0.971,0,0,0,.766-1.011h-0.083a0.705,0.705,0,0,1-.78-0.674,0.724,0.724,0,0,1,.78-0.7A0.929,0.929,0,0,1,111.771,15.978Zm9.745-7.794h-3.37v8.242h-1.211V8.184h-3.37V7.2h7.951V8.184Zm8.8-.985-3.676,9.226H125.33L121.6,7.2h1.239l2.3,5.844c0.306,0.79.6,1.568,0.849,2.294,0.251-.725.543-1.5,0.849-2.293L129.089,7.2h1.226Zm9.438,8.384v0.842a4.58,4.58,0,0,1-.613.039,1.008,1.008,0,0,1-1.212-.959,2.7,2.7,0,0,1-2.339,1.075c-1.559,0-2.534-.7-2.534-1.957,0-1.049.682-1.879,2.659-2.073l1.031-.1a0.975,0.975,0,0,0,1.128-.92c0-.7-0.39-1.05-1.615-1.05s-1.741.324-1.811,1.322h-1.114c0.084-1.3.822-2.216,2.925-2.216,1.991,0,2.7.817,2.7,1.944V15.26a0.32,0.32,0,0,0,.39.323h0.4Zm-1.88-1.8v-0.79a1.954,1.954,0,0,1-.947.285l-1.044.116c-1.309.143-1.672,0.557-1.672,1.2s0.446,1.1,1.435,1.1A2.012,2.012,0,0,0,137.873,13.782Zm8.436-1.879v4.522H145.2V12.007a1.4,1.4,0,0,0-1.643-1.491,1.964,1.964,0,0,0-1.977,2.125v3.784h-1.114V9.74h1.058v1a2.7,2.7,0,0,1,2.256-1.153A2.218,2.218,0,0,1,146.309,11.9Zm7.921-4.7v9.226h-1.058V15.389a2.888,2.888,0,0,1-2.465,1.192,3.206,3.206,0,0,1-3.341-3.5,3.206,3.206,0,0,1,3.341-3.5,2.894,2.894,0,0,1,2.409,1.115V7.2h1.114Zm-1.072,5.883a2.27,2.27,0,0,0-2.312-2.566,2.313,2.313,0,0,0-2.311,2.617,2.227,2.227,0,0,0,2.311,2.514A2.269,2.269,0,0,0,153.158,13.083Zm4.439,0.3h1.212c0.027,1.711,1.294,2.268,2.91,2.268,1.587,0,2.506-.583,2.506-1.723,0-.881-0.654-1.309-2.409-1.671l-0.877-.182c-1.685-.35-3.008-0.985-3.008-2.669,0-1.477,1.323-2.41,3.384-2.41,2.924,0,3.829,1.386,3.871,2.889h-1.2c-0.1-1.192-.7-1.9-2.674-1.9-1.434,0-2.172.557-2.172,1.425s0.459,1.322,2.325,1.711l0.878,0.181c2.283,0.466,3.091,1.3,3.091,2.63,0,1.633-1.337,2.709-3.718,2.709S157.625,15.687,157.6,13.38Zm15.231,0.065H167.37a2.074,2.074,0,0,0,2.214,2.19,1.84,1.84,0,0,0,1.908-1.244h1.155a2.964,2.964,0,0,1-3.091,2.19,3.222,3.222,0,0,1-3.342-3.5,3.312,3.312,0,1,1,6.614,0v0.362Zm-5.43-.933h4.233A2.121,2.121,0,0,0,167.4,12.513Zm6.139,0.57a3.2,3.2,0,0,1,3.328-3.5,2.857,2.857,0,0,1,3.091,2.424H178.8a1.842,1.842,0,0,0-1.935-1.491c-1.226,0-2.159.817-2.159,2.566s0.961,2.565,2.159,2.565a1.857,1.857,0,0,0,1.949-1.516h1.142a2.908,2.908,0,0,1-3.091,2.449A3.218,3.218,0,0,1,173.537,13.083ZM186.721,9.74v6.686h-1.058v-1a2.7,2.7,0,0,1-2.255,1.153,2.218,2.218,0,0,1-2.535-2.319V9.74h1.114v4.418a1.4,1.4,0,0,0,1.643,1.49,1.965,1.965,0,0,0,1.978-2.125V9.74h1.113Zm5.15-.091v1h-0.278c-1.434,0-2.353.674-2.353,1.97v3.81h-1.114V9.74h1.058v1.179A2.536,2.536,0,0,1,191.5,9.636C191.607,9.636,191.719,9.636,191.871,9.648Zm0.584-1.555a0.754,0.754,0,1,1,.752.7A0.733,0.733,0,0,1,192.455,8.094Zm0.2,1.646h1.113v6.686h-1.113V9.74Zm4.19,0.907v4.341c0,0.35.181,0.57,0.821,0.57h0.655v0.868q-0.459.039-.794,0.039c-1.114,0-1.8-.363-1.8-1.387V10.646h-1.184V9.74h1.184V7.848h1.114V9.74h1.476v0.907h-1.476ZM205,9.74l-3.035,7.736A2.169,2.169,0,0,1,199.624,19a5.86,5.86,0,0,1-.668-0.039V18.1h0.655a1.256,1.256,0,0,0,1.308-.829c0.084-.194.168-0.415,0.251-0.622l-2.7-6.906h1.225l1.017,2.786c0.361,0.972.7,1.931,1.03,2.89,0.32-.959.668-1.931,1.03-2.9l1.017-2.773H205Z"/>
</svg>
