<svg xmlns="http://www.w3.org/2000/svg" width="300" height="600" viewBox="0 0 300 600">
  <defs>
    <style>
      .cls-1 {
        fill: #248700;
        fill-rule: evenodd;
      }
    </style>
  </defs>
  <path id="Learn_more" data-name="Learn more" class="cls-1" d="M117.169,271.871v-8.142h-1.2v9.187h5.987v-1.045h-4.787Zm12.037-2.439c0-2.077-1.174-3.329-3.045-3.329-1.987,0-3.135,1.42-3.135,3.458s1.174,3.51,3.161,3.51a2.925,2.925,0,0,0,2.968-2.168l-1.084-.129a1.8,1.8,0,0,1-1.845,1.329c-1.2,0-1.974-.735-2.013-2.232h4.993v-0.439Zm-3.032-2.361a1.9,1.9,0,0,1,1.923,1.948h-3.871A1.886,1.886,0,0,1,126.174,267.071Zm10.534,4.968a0.479,0.479,0,0,1-.581-0.581v-3.277c0-1.458-.955-2.129-2.606-2.129-1.716,0-2.658.7-2.774,2.167h1.174c0.077-.89.555-1.187,1.51-1.187,1.032,0,1.5.336,1.5,1.032v0.284a0.461,0.461,0,0,1-.477.5l-1.7.219c-1.613.206-2.271,0.98-2.271,2.077a1.941,1.941,0,0,0,2.232,1.936,2.826,2.826,0,0,0,2.413-1.149,0.993,0.993,0,0,0,1.148.981H136.9v-0.877h-0.193Zm-3.781.129a1.1,1.1,0,0,1-1.277-1.071,1.2,1.2,0,0,1,1.29-1.149l1.987-.3v0.929A1.871,1.871,0,0,1,132.927,272.168Zm8.564-6.091a2.306,2.306,0,0,0-2.168,1.523v-1.342h-1.109v6.658H139.4v-3.639a1.971,1.971,0,0,1,1.909-2.038c0.155,0,.284,0,0.426.013V266.09A1.468,1.468,0,0,0,141.491,266.077Zm4.832,0.013a2.535,2.535,0,0,0-2.232,1.11v-0.942h-1.11v6.658h1.187v-3.7a1.828,1.828,0,0,1,1.9-2.09,1.211,1.211,0,0,1,1.329,1.406v4.387h1.187V268.3A2.049,2.049,0,0,0,146.323,266.09Zm15.006,0a2.254,2.254,0,0,0-2.116,1.162,1.817,1.817,0,0,0-1.845-1.162,2.215,2.215,0,0,0-2.026,1.149l0.052-.981h-1.136v6.658h1.187v-3.548c0-1.716.852-2.245,1.626-2.245a1.091,1.091,0,0,1,1.148,1.238v4.555h1.187V269.3c0-1.716.852-2.18,1.626-2.18a1.091,1.091,0,0,1,1.148,1.238v4.555h1.188v-4.568C163.368,266.8,162.632,266.09,161.329,266.09Zm6.853,6.994a3.256,3.256,0,0,0,3.212-3.549,3.133,3.133,0,0,0-3.174-3.445A3.509,3.509,0,0,0,168.182,273.084Zm0-.994c-1.252,0-2.013-.993-2.013-2.5s0.748-2.5,2.013-2.5c1.29,0,2.025.942,2.025,2.451S169.472,272.09,168.182,272.09Zm8.113-6.013a2.306,2.306,0,0,0-2.168,1.523v-1.342h-1.11v6.658h1.188v-3.639a1.971,1.971,0,0,1,1.909-2.038c0.155,0,.284,0,0.426.013V266.09A1.468,1.468,0,0,0,176.3,266.077Zm7.191,3.355c0-2.077-1.175-3.329-3.046-3.329-1.987,0-3.135,1.42-3.135,3.458s1.174,3.51,3.161,3.51a2.925,2.925,0,0,0,2.968-2.168l-1.084-.129a1.8,1.8,0,0,1-1.845,1.329c-1.2,0-1.974-.735-2.013-2.232h4.994v-0.439Zm-3.033-2.361a1.9,1.9,0,0,1,1.923,1.948h-3.871A1.886,1.886,0,0,1,180.453,267.071Z"/>
</svg>
