<svg xmlns="http://www.w3.org/2000/svg" width="300" height="600" viewBox="0 0 300 600">
  <defs>
    <style>
      .cls-1 {
        fill: #4b286d;
        fill-rule: evenodd;
      }
    </style>
  </defs>
  <path id="Chalo_banayein_apni_communities_ko_stronger._" data-name="Chalo banayein apni communities ko stronger. " class="cls-1" d="M54.066,128.978c4.807,0,9.515-2.93,10.107-9.054H61.407a7.143,7.143,0,0,1-7.342,6.519c-4.741,0-7.934-3.589-7.934-9.712s3.194-9.713,7.934-9.713a6.882,6.882,0,0,1,7.177,5.531h2.8c-1.185-5.662-5.366-8.066-9.976-8.066-6.255,0-10.832,4.642-10.832,12.248S47.81,128.978,54.066,128.978Zm20.7-17.91a6.257,6.257,0,0,0-5.2,2.733V105.01H66.929v23.441h2.634v-9.613c0-3.754,2.469-5.4,4.675-5.4,2.436,0,3.885,1.153,3.885,3.786v11.227h2.634v-11.49C80.756,113.208,78.551,111.068,74.764,111.068Zm23.577,15.243a0.779,0.779,0,0,1-.922-0.823v-9.482c0-2.864-1.679-4.938-6.387-4.938-4.971,0-6.716,2.337-6.914,5.63h2.634c0.165-2.535,1.383-3.358,4.28-3.358s3.819,0.888,3.819,2.666c0,1.515-.955,2.14-2.667,2.338l-2.436.263c-4.675.494-6.288,2.6-6.288,5.268,0,3.193,2.3,4.971,5.992,4.971a6.228,6.228,0,0,0,5.531-2.732c0.132,1.613.988,2.436,2.864,2.436a9.995,9.995,0,0,0,1.449-.1v-2.14H98.342Zm-8.757.3c-2.338,0-3.391-1.119-3.391-2.8,0-1.646.856-2.7,3.951-3.062l2.469-.3a4.386,4.386,0,0,0,2.239-.724v2.008C94.852,125.093,92.119,126.607,89.584,126.607Zm15.491,1.943a16.72,16.72,0,0,0,1.68-.1v-2.206H105.5c-1.251,0-1.613-.559-1.613-1.448V105.01h-2.634v20.017C101.256,127.628,102.705,128.55,105.075,128.55Zm10.492,0.3c4.774,0,8.231-3.457,8.231-8.889s-3.457-8.889-8.231-8.889-8.231,3.457-8.231,8.889S110.793,128.846,115.567,128.846Zm0-2.37c-3.292,0-5.465-2.4-5.465-6.519s2.173-6.519,5.465-6.519,5.465,2.4,5.465,6.519S118.859,126.476,115.567,126.476Zm25.94-15.408a6.676,6.676,0,0,0-5.7,2.831V105.01h-2.634v23.441h2.5v-2.634a6.678,6.678,0,0,0,5.828,3.029c4.774,0,7.9-3.457,7.9-8.889S146.281,111.068,141.507,111.068Zm-0.329,15.408c-3.293,0-5.466-2.4-5.466-6.519s2.173-6.519,5.466-6.519,5.465,2.272,5.465,6.387S144.47,126.476,141.178,126.476Zm24.93-.165a0.779,0.779,0,0,1-.922-0.823v-9.482c0-2.864-1.679-4.938-6.387-4.938-4.971,0-6.716,2.337-6.914,5.63h2.634c0.165-2.535,1.383-3.358,4.28-3.358s3.819,0.888,3.819,2.666c0,1.515-.955,2.14-2.667,2.338l-2.436.263c-4.675.494-6.288,2.6-6.288,5.268,0,3.193,2.3,4.971,5.992,4.971a6.229,6.229,0,0,0,5.531-2.732c0.131,1.613.987,2.436,2.864,2.436a9.985,9.985,0,0,0,1.448-.1v-2.14h-0.954Zm-8.758.3c-2.337,0-3.391-1.119-3.391-2.8,0-1.646.856-2.7,3.951-3.062l2.469-.3a4.386,4.386,0,0,0,2.239-.724v2.008C162.618,125.093,159.885,126.607,157.35,126.607Zm19.676-15.539a6.258,6.258,0,0,0-5.333,2.93v-2.535h-2.5v16.988h2.633v-9.613c0-3.754,2.47-5.4,4.675-5.4,2.437,0,3.885,1.153,3.885,3.786v11.227h2.634v-11.49C183.018,113.208,180.812,111.068,177.026,111.068ZM200.6,126.311a0.779,0.779,0,0,1-.922-0.823v-9.482c0-2.864-1.679-4.938-6.387-4.938-4.971,0-6.716,2.337-6.913,5.63h2.633c0.165-2.535,1.383-3.358,4.28-3.358s3.819,0.888,3.819,2.666c0,1.515-.954,2.14-2.666,2.338l-2.437.263c-4.675.494-6.288,2.6-6.288,5.268,0,3.193,2.3,4.971,5.992,4.971a6.228,6.228,0,0,0,5.531-2.732c0.132,1.613.988,2.436,2.864,2.436a10,10,0,0,0,1.449-.1v-2.14H200.6Zm-8.757.3c-2.338,0-3.391-1.119-3.391-2.8,0-1.646.856-2.7,3.95-3.062l2.47-.3a4.382,4.382,0,0,0,2.238-.724v2.008C197.113,125.093,194.381,126.607,191.846,126.607Zm21.882-15.144-2.4,7.045c-0.856,2.47-1.679,4.939-2.436,7.375-0.79-2.436-1.58-4.872-2.436-7.342l-2.4-7.078h-2.9l6.387,17.548c-0.2.527-.4,1.086-0.593,1.58a2.974,2.974,0,0,1-3.094,2.107H202.3V134.9a13.117,13.117,0,0,0,1.581.1c2.7,0,4.444-.889,5.531-3.885l7.177-19.655h-2.864Zm18.9,8.494c0-4.873-2.733-8.889-7.8-8.889-4.708,0-7.836,3.556-7.836,8.889,0,5.5,3.26,8.889,7.9,8.889a7.087,7.087,0,0,0,7.309-5.564h-2.733a4.363,4.363,0,0,1-4.51,3.161c-2.963,0-4.972-1.745-5.235-5.564H232.63v-0.922Zm-7.8-6.486c3.029,0,4.708,2.239,4.971,5.037H219.79C220.218,115.15,222.16,113.471,224.827,113.471Zm11.863-4.411a1.778,1.778,0,1,0-1.777-1.778A1.792,1.792,0,0,0,236.69,109.06Zm-1.317,19.391h2.634V111.463h-2.634v16.988Zm14.084-17.383a6.258,6.258,0,0,0-5.333,2.93v-2.535h-2.5v16.988h2.634v-9.613c0-3.754,2.469-5.4,4.675-5.4,2.437,0,3.885,1.153,3.885,3.786v11.227h2.634v-11.49C255.449,113.208,253.243,111.068,249.457,111.068ZM42.487,165.814a0.779,0.779,0,0,1-.922-0.823v-9.482c0-2.864-1.679-4.938-6.387-4.938-4.971,0-6.716,2.337-6.914,5.63H30.9c0.165-2.536,1.383-3.359,4.28-3.359S39,153.731,39,155.509c0,1.515-.955,2.14-2.667,2.338l-2.436.263c-4.675.494-6.288,2.6-6.288,5.268,0,3.193,2.3,4.971,5.992,4.971a6.227,6.227,0,0,0,5.531-2.733c0.132,1.614.988,2.437,2.864,2.437a9.994,9.994,0,0,0,1.449-.1v-2.14H42.487Zm-8.757.3c-2.338,0-3.391-1.119-3.391-2.8,0-1.646.856-2.7,3.951-3.062l2.469-.3A4.376,4.376,0,0,0,39,159.229v2.009C39,164.6,36.264,166.11,33.729,166.11ZM53.9,150.571a6.677,6.677,0,0,0-5.827,3.029v-2.634h-2.5v23.441H48.2v-8.889a6.675,6.675,0,0,0,5.7,2.831c4.774,0,7.9-3.457,7.9-8.889S58.673,150.571,53.9,150.571ZM53.57,165.979c-3.292,0-5.465-2.4-5.465-6.519s2.173-6.519,5.465-6.519,5.465,2.272,5.465,6.387S56.862,165.979,53.57,165.979Zm18.961-15.408A6.258,6.258,0,0,0,67.2,153.5v-2.535H64.7v16.988h2.634v-9.613c0-3.754,2.469-5.4,4.675-5.4,2.436,0,3.885,1.152,3.885,3.786v11.227h2.634v-11.49C78.523,152.711,76.317,150.571,72.531,150.571Zm10.915-2.009a1.778,1.778,0,1,0-1.778-1.777A1.791,1.791,0,0,0,83.446,148.562Zm-1.317,19.392h2.634V150.966H82.129v16.988Zm19.884,0.395a7.006,7.006,0,0,0,7.308-6.222h-2.7a4.463,4.463,0,0,1-4.609,3.852c-2.832,0-5.1-2.075-5.1-6.519s2.206-6.519,5.1-6.519a4.423,4.423,0,0,1,4.576,3.786h2.732c-0.526-3.753-3.259-6.156-7.308-6.156-4.708,0-7.869,3.424-7.869,8.889S97.37,168.349,102.013,168.349Zm17.239,0c4.774,0,8.231-3.457,8.231-8.889s-3.457-8.889-8.231-8.889-8.231,3.457-8.231,8.889S114.478,168.349,119.252,168.349Zm0-2.37c-3.292,0-5.465-2.4-5.465-6.519s2.173-6.519,5.465-6.519,5.465,2.4,5.465,6.519S122.544,165.979,119.252,165.979ZM148.2,150.571a5.869,5.869,0,0,0-5.235,3.193,5.32,5.32,0,0,0-5.235-3.193,5.456,5.456,0,0,0-4.905,2.9v-2.5h-2.5v16.988h2.634V158.67c0-4.083,2.271-5.729,4.345-5.729,2.206,0,3.556,1.12,3.556,3.753v11.26h2.634V158.67c0-4.083,2.206-5.729,4.346-5.729,2.238,0,3.555,1.12,3.555,3.753v11.26h2.634V156.431C154.026,153.139,152.15,150.571,148.2,150.571Zm27.385,0a5.87,5.87,0,0,0-5.235,3.193,5.32,5.32,0,0,0-5.234-3.193,5.458,5.458,0,0,0-4.906,2.9v-2.5h-2.5v16.988h2.634V158.67c0-4.083,2.271-5.729,4.346-5.729,2.2,0,3.555,1.12,3.555,3.753v11.26h2.634V158.67c0-4.083,2.206-5.729,4.346-5.729,2.239,0,3.555,1.12,3.555,3.753v11.26h2.634V156.431C181.411,153.139,179.535,150.571,175.584,150.571Zm20.62,0.4v9.613c0,3.753-2.47,5.4-4.675,5.4-2.437,0-3.885-1.153-3.885-3.787V150.966H185.01v11.49c0,3.753,2.206,5.893,5.992,5.893a6.258,6.258,0,0,0,5.333-2.93v2.535h2.5V150.966H196.2Zm14.141-.4a6.258,6.258,0,0,0-5.333,2.93v-2.535h-2.5v16.988h2.634v-9.613c0-3.754,2.469-5.4,4.675-5.4,2.437,0,3.885,1.152,3.885,3.786v11.227h2.634v-11.49C216.337,152.711,214.131,150.571,210.345,150.571Zm10.915-2.009a1.778,1.778,0,1,0-1.778-1.777A1.791,1.791,0,0,0,221.26,148.562Zm-1.317,19.392h2.634V150.966h-2.634v16.988Zm13.544-14.684v-2.3H230v-4.807h-2.634v4.807h-2.8v2.3h2.8v11.26c0,2.6,1.613,3.523,4.247,3.523q0.79,0,1.877-.1v-2.206h-1.548c-1.514,0-1.942-.56-1.942-1.448V153.27h3.49Zm3.5-4.708a1.778,1.778,0,1,0-1.778-1.777A1.792,1.792,0,0,0,236.982,148.562Zm-1.317,19.392H238.3V150.966h-2.634v16.988Zm20.981-8.494c0-4.873-2.733-8.889-7.8-8.889-4.708,0-7.836,3.555-7.836,8.889,0,5.5,3.26,8.889,7.9,8.889a7.087,7.087,0,0,0,7.309-5.564h-2.733a4.364,4.364,0,0,1-4.51,3.161c-2.963,0-4.972-1.745-5.235-5.564h12.906V159.46Zm-7.8-6.486c3.029,0,4.708,2.239,4.971,5.037H243.806C244.234,154.653,246.176,152.974,248.843,152.974Zm16.637,15.375c4.181,0,6.749-1.844,6.749-5.07,0-2.766-1.679-4.181-5.86-5l-1.515-.3c-2.172-.428-3.423-1.02-3.423-2.633,0-1.581,1.284-2.5,3.555-2.5,2.6,0,4.148.725,4.28,3.359H271.9c-0.066-3.622-2.37-5.63-6.914-5.63-3.885,0-6.189,1.909-6.189,4.806,0,2.634,1.613,4.313,5.3,5l1.581,0.3c2.963,0.56,3.884,1.251,3.884,2.766,0,1.679-1.218,2.633-4.082,2.633-3,0-4.247-.954-4.543-3.522H258.27C258.533,166.538,261.167,168.349,265.48,168.349ZM81.012,207.457h3.062L77.16,196.592l6.453-6.123h-3.49l-7.869,7.605V184.016H69.621v23.441h2.634v-6.288l3.029-2.832Zm11.343,0.4c4.774,0,8.231-3.457,8.231-8.889s-3.457-8.889-8.231-8.889-8.231,3.456-8.231,8.889S87.581,207.852,92.355,207.852Zm0-2.371c-3.292,0-5.465-2.4-5.465-6.518s2.173-6.519,5.465-6.519,5.465,2.4,5.465,6.519S95.647,205.481,92.355,205.481Zm23.6,2.371c4.181,0,6.749-1.844,6.749-5.07,0-2.766-1.679-4.181-5.86-5l-1.514-.3c-2.173-.428-3.424-1.02-3.424-2.634,0-1.58,1.284-2.5,3.555-2.5,2.6,0,4.149.725,4.28,3.358h2.634c-0.066-3.621-2.37-5.629-6.914-5.629-3.884,0-6.189,1.909-6.189,4.806,0,2.634,1.613,4.313,5.3,5l1.58,0.3c2.963,0.56,3.885,1.251,3.885,2.765,0,1.679-1.218,2.634-4.083,2.634-3,0-4.247-.955-4.543-3.523h-2.667C109.011,206.041,111.644,207.852,115.957,207.852Zm16.7-15.079v-2.3h-3.489v-4.807h-2.634v4.807h-2.8v2.3h2.8v11.26c0,2.6,1.613,3.523,4.247,3.523q0.791,0,1.876-.1v-2.206h-1.547c-1.514,0-1.942-.56-1.942-1.449V192.773h3.489Zm10.241-2.568a5.933,5.933,0,0,0-5.465,3.26v-3h-2.5v16.988h2.634v-9.679c0-3.293,2.173-5,5.564-5h0.658v-2.535C143.428,190.205,143.165,190.205,142.9,190.205Zm10.089,17.647c4.774,0,8.231-3.457,8.231-8.889s-3.457-8.889-8.231-8.889-8.23,3.456-8.23,8.889S148.217,207.852,152.99,207.852Zm0-2.371c-3.292,0-5.465-2.4-5.465-6.518s2.173-6.519,5.465-6.519,5.466,2.4,5.466,6.519S156.283,205.481,152.99,205.481ZM171.9,190.074a6.259,6.259,0,0,0-5.334,2.93v-2.535h-2.5v16.988h2.634v-9.614c0-3.753,2.469-5.4,4.675-5.4,2.436,0,3.885,1.152,3.885,3.786v11.227h2.634v-11.49C177.888,192.214,175.682,190.074,171.9,190.074Zm22.559,0.395v2.469a6.855,6.855,0,0,0-5.827-2.864c-4.774,0-7.9,3.456-7.9,8.889s3.127,8.889,7.9,8.889a6.866,6.866,0,0,0,5.7-2.7V206.8c0,3.523-1.877,5.268-5.268,5.268-2.667,0-4.28-1.086-4.609-3.226h-2.634c0.362,3.292,2.9,5.465,7.243,5.465,5.366,0,7.9-3.095,7.9-7.507V190.469h-2.5Zm-5.5,15.012c-3.292,0-5.465-2.535-5.465-6.518s2.173-6.519,5.465-6.519,5.465,2.4,5.465,6.519S192.25,205.481,188.957,205.481Zm26.534-6.518c0-4.873-2.733-8.889-7.8-8.889-4.708,0-7.836,3.555-7.836,8.889,0,5.5,3.26,8.889,7.9,8.889a7.088,7.088,0,0,0,7.309-5.564H212.33a4.364,4.364,0,0,1-4.51,3.161c-2.963,0-4.972-1.745-5.235-5.564h12.906v-0.922Zm-7.8-6.486c3.029,0,4.708,2.239,4.971,5.037H202.651C203.079,194.156,205.021,192.477,207.688,192.477Zm18.609-2.272a5.933,5.933,0,0,0-5.465,3.26v-3h-2.5v16.988h2.634v-9.679c0-3.293,2.173-5,5.564-5h0.658v-2.535C226.824,190.205,226.561,190.205,226.3,190.205Zm2.205,17.482a1.891,1.891,0,0,0,1.876-1.942,1.928,1.928,0,0,0-3.852,0A1.894,1.894,0,0,0,228.5,207.687Z"/>
</svg>
