<svg xmlns="http://www.w3.org/2000/svg" width="300" height="600" viewBox="0 0 300 600">
  <defs>
    <style>
      .cls-1 {
        fill: #4b286d;
        fill-rule: evenodd;
      }
    </style>
  </defs>
  <path id="Last_year_our_team_volunteered_1.4_million_hours." data-name="Last year, our team volunteered  1.4 million hours." class="cls-1" d="M63.394,125.949V105.01H60.628v23.441H75.18v-2.5H63.394Zm28.2,0.362a0.779,0.779,0,0,1-.922-0.823v-9.482c0-2.864-1.679-4.938-6.387-4.938-4.971,0-6.716,2.337-6.914,5.63H80c0.165-2.535,1.383-3.358,4.28-3.358s3.819,0.888,3.819,2.666c0,1.515-.955,2.14-2.667,2.338L83,118.607c-4.675.494-6.288,2.6-6.288,5.268,0,3.193,2.3,4.971,5.992,4.971a6.228,6.228,0,0,0,5.531-2.732c0.132,1.613.988,2.436,2.864,2.436a9.995,9.995,0,0,0,1.449-.1v-2.14H91.59Zm-8.757.3c-2.338,0-3.391-1.119-3.391-2.8,0-1.646.856-2.7,3.951-3.062l2.469-.3a4.386,4.386,0,0,0,2.239-.724v2.008C88.1,125.093,85.368,126.607,82.832,126.607Zm17.945,2.239c4.181,0,6.749-1.843,6.749-5.07,0-2.765-1.679-4.181-5.861-5l-1.514-.3c-2.173-.428-3.424-1.021-3.424-2.634,0-1.581,1.284-2.5,3.556-2.5,2.6,0,4.148.724,4.28,3.358H107.2c-0.066-3.622-2.371-5.63-6.914-5.63-3.885,0-6.19,1.909-6.19,4.807,0,2.633,1.613,4.313,5.3,5l1.58,0.3c2.963,0.56,3.885,1.251,3.885,2.766,0,1.679-1.218,2.634-4.082,2.634-3,0-4.248-.955-4.544-3.523H93.567C93.83,127.035,96.464,128.846,100.777,128.846Zm16.7-15.078v-2.305h-3.49v-4.807h-2.634v4.807h-2.8v2.305h2.8v11.259c0,2.6,1.613,3.523,4.247,3.523q0.79,0,1.877-.1v-2.206h-1.548c-1.514,0-1.942-.559-1.942-1.448V113.768h3.49Zm19.817-2.305-2.4,7.045c-0.856,2.47-1.679,4.939-2.436,7.375-0.79-2.436-1.58-4.872-2.436-7.342l-2.4-7.078h-2.9l6.387,17.548c-0.2.527-.4,1.086-0.593,1.58a2.974,2.974,0,0,1-3.094,2.107h-1.548V134.9a13.117,13.117,0,0,0,1.581.1c2.7,0,4.444-.889,5.531-3.885l7.177-19.655H137.3Zm18.9,8.494c0-4.873-2.733-8.889-7.8-8.889-4.708,0-7.836,3.556-7.836,8.889,0,5.5,3.26,8.889,7.9,8.889a7.087,7.087,0,0,0,7.309-5.564h-2.733a4.363,4.363,0,0,1-4.51,3.161c-2.963,0-4.972-1.745-5.235-5.564H156.2v-0.922Zm-7.8-6.486c3.029,0,4.708,2.239,4.971,5.037H143.359C143.787,115.15,145.729,113.471,148.4,113.471Zm24.417,12.84a0.779,0.779,0,0,1-.922-0.823v-9.482c0-2.864-1.679-4.938-6.387-4.938-4.971,0-6.716,2.337-6.914,5.63h2.634c0.165-2.535,1.383-3.358,4.28-3.358s3.819,0.888,3.819,2.666c0,1.515-.955,2.14-2.667,2.338l-2.436.263c-4.675.494-6.288,2.6-6.288,5.268,0,3.193,2.3,4.971,5.992,4.971a6.229,6.229,0,0,0,5.531-2.732c0.131,1.613.987,2.436,2.864,2.436a10,10,0,0,0,1.449-.1v-2.14h-0.955Zm-8.758.3c-2.337,0-3.391-1.119-3.391-2.8,0-1.646.856-2.7,3.951-3.062l2.469-.3a4.386,4.386,0,0,0,2.239-.724v2.008C169.323,125.093,166.59,126.607,164.055,126.607ZM183.863,111.2a5.931,5.931,0,0,0-5.465,3.259v-3h-2.5v16.988h2.633v-9.679c0-3.292,2.173-5,5.564-5h0.659v-2.535C184.39,111.2,184.126,111.2,183.863,111.2Zm1.836,13.959a1.766,1.766,0,0,0-1.844,1.778,1.715,1.715,0,0,0,1.844,1.712h0.2c-0.131,1.646-.79,2.271-1.811,2.568l-0.23.065v1.745l0.329-.065c2.14-.428,3.688-1.877,3.688-5C187.872,126.147,187.048,125.159,185.7,125.159Zm19.126,3.687c4.774,0,8.23-3.457,8.23-8.889s-3.456-8.889-8.23-8.889-8.231,3.457-8.231,8.889S200.051,128.846,204.825,128.846Zm0-2.37c-3.292,0-5.465-2.4-5.465-6.519s2.173-6.519,5.465-6.519,5.465,2.4,5.465,6.519S208.117,126.476,204.825,126.476Zm22.207-15.013v9.613c0,3.754-2.469,5.4-4.675,5.4-2.436,0-3.885-1.153-3.885-3.786V111.463h-2.634v11.49c0,3.753,2.206,5.893,5.992,5.893a6.259,6.259,0,0,0,5.334-2.93v2.535h2.5V111.463h-2.634Zm14.273-.263a5.933,5.933,0,0,0-5.465,3.259v-3h-2.5v16.988h2.634v-9.679c0-3.292,2.173-5,5.564-5h0.658v-2.535C241.832,111.2,241.569,111.2,241.305,111.2ZM37.367,153.27v-2.3h-3.49v-4.807H31.243v4.807h-2.8v2.3h2.8v11.26c0,2.6,1.613,3.523,4.247,3.523q0.79,0,1.877-.1v-2.206H35.819c-1.514,0-1.942-.56-1.942-1.448V153.27h3.49Zm16.661,6.19c0-4.873-2.733-8.889-7.8-8.889-4.708,0-7.836,3.555-7.836,8.889,0,5.5,3.259,8.889,7.9,8.889a7.086,7.086,0,0,0,7.309-5.564H50.867a4.364,4.364,0,0,1-4.51,3.161c-2.963,0-4.971-1.745-5.235-5.564H54.027V159.46Zm-7.8-6.486c3.029,0,4.708,2.239,4.971,5.037H41.187C41.615,154.653,43.558,152.974,46.225,152.974Zm24.417,12.84a0.779,0.779,0,0,1-.922-0.823v-9.482c0-2.864-1.679-4.938-6.387-4.938-4.971,0-6.716,2.337-6.914,5.63h2.634c0.165-2.536,1.383-3.359,4.28-3.359s3.819,0.889,3.819,2.667c0,1.515-.955,2.14-2.667,2.338l-2.436.263c-4.675.494-6.288,2.6-6.288,5.268,0,3.193,2.3,4.971,5.992,4.971a6.227,6.227,0,0,0,5.531-2.733c0.132,1.614.988,2.437,2.864,2.437a9.993,9.993,0,0,0,1.449-.1v-2.14H70.641Zm-8.758.3c-2.337,0-3.391-1.119-3.391-2.8,0-1.646.856-2.7,3.951-3.062l2.469-.3a4.376,4.376,0,0,0,2.239-.725v2.009C67.152,164.6,64.419,166.11,61.884,166.11ZM91.6,150.571a5.868,5.868,0,0,0-5.235,3.193,5.32,5.32,0,0,0-5.235-3.193,5.457,5.457,0,0,0-4.906,2.9v-2.5h-2.5v16.988h2.634V158.67c0-4.083,2.272-5.729,4.346-5.729,2.206,0,3.556,1.12,3.556,3.753v11.26h2.634V158.67c0-4.083,2.206-5.729,4.346-5.729,2.239,0,3.556,1.12,3.556,3.753v11.26h2.634V156.431C97.429,153.139,95.552,150.571,91.6,150.571Zm27.486,0.4-2.8,7.539c-0.79,2.14-1.679,4.478-2.4,6.618-0.725-2.14-1.614-4.445-2.4-6.585l-2.8-7.572h-2.865l6.651,16.988h2.765l6.684-16.988h-2.832Zm11.393,17.383c4.774,0,8.231-3.457,8.231-8.889s-3.457-8.889-8.231-8.889-8.231,3.457-8.231,8.889S125.706,168.349,130.48,168.349Zm0-2.37c-3.292,0-5.465-2.4-5.465-6.519s2.173-6.519,5.465-6.519,5.465,2.4,5.465,6.519S133.772,165.979,130.48,165.979Zm14.872,2.074a16.686,16.686,0,0,0,1.679-.1v-2.206H145.78c-1.251,0-1.613-.56-1.613-1.448V144.513h-2.634V164.53C141.533,167.131,142.982,168.053,145.352,168.053Zm14.5-17.087v9.613c0,3.753-2.469,5.4-4.675,5.4-2.436,0-3.885-1.153-3.885-3.787V150.966h-2.634v11.49c0,3.753,2.206,5.893,5.992,5.893a6.259,6.259,0,0,0,5.334-2.93v2.535h2.5V150.966h-2.634Zm14.141-.4a6.258,6.258,0,0,0-5.333,2.93v-2.535h-2.5v16.988H168.8v-9.613c0-3.754,2.469-5.4,4.675-5.4,2.436,0,3.885,1.152,3.885,3.786v11.227h2.633v-11.49C179.99,152.711,177.785,150.571,174,150.571Zm16.743,2.7v-2.3h-3.49v-4.807h-2.634v4.807h-2.8v2.3h2.8v11.26c0,2.6,1.613,3.523,4.247,3.523q0.79,0,1.877-.1v-2.206h-1.548c-1.514,0-1.942-.56-1.942-1.448V153.27h3.49Zm16.661,6.19c0-4.873-2.733-8.889-7.8-8.889-4.708,0-7.836,3.555-7.836,8.889,0,5.5,3.26,8.889,7.9,8.889a7.087,7.087,0,0,0,7.309-5.564h-2.733a4.364,4.364,0,0,1-4.51,3.161c-2.963,0-4.972-1.745-5.235-5.564H207.4V159.46Zm-7.8-6.486c3.029,0,4.708,2.239,4.971,5.037H194.562C194.99,154.653,196.932,152.974,199.6,152.974Zm25.418,6.486c0-4.873-2.733-8.889-7.8-8.889-4.708,0-7.836,3.555-7.836,8.889,0,5.5,3.26,8.889,7.9,8.889a7.088,7.088,0,0,0,7.309-5.564h-2.733a4.364,4.364,0,0,1-4.51,3.161c-2.964,0-4.972-1.745-5.235-5.564h12.906V159.46Zm-7.8-6.486c3.029,0,4.708,2.239,4.971,5.037H212.177C212.605,154.653,214.547,152.974,217.214,152.974Zm18.609-2.272a5.933,5.933,0,0,0-5.465,3.26v-3h-2.5v16.988h2.634v-9.679c0-3.293,2.172-5,5.563-5h0.659v-2.535C236.35,150.7,236.086,150.7,235.823,150.7Zm17.55,8.758c0-4.873-2.733-8.889-7.8-8.889-4.708,0-7.836,3.555-7.836,8.889,0,5.5,3.26,8.889,7.9,8.889a7.087,7.087,0,0,0,7.309-5.564h-2.733a4.364,4.364,0,0,1-4.51,3.161c-2.963,0-4.972-1.745-5.235-5.564h12.906V159.46Zm-7.8-6.486c3.029,0,4.708,2.239,4.971,5.037H240.533C240.961,154.653,242.9,152.974,245.57,152.974Zm23.376-8.461V153.4a6.671,6.671,0,0,0-5.7-2.831c-4.774,0-7.9,3.457-7.9,8.889s3.128,8.889,7.9,8.889a6.676,6.676,0,0,0,5.827-3.029v2.634h2.5V144.513h-2.634Zm-5.366,21.466c-3.292,0-5.465-2.272-5.465-6.387s2.173-6.651,5.465-6.651,5.465,2.4,5.465,6.519S266.872,165.979,263.58,165.979ZM49.926,184.016H47.687c-0.593,2.831-2.3,3.555-5.334,3.753l-0.527.033v2.173H47.16v17.482h2.765V184.016Zm5.582,23.671a1.891,1.891,0,0,0,1.877-1.942,1.928,1.928,0,0,0-3.852,0A1.894,1.894,0,0,0,55.508,207.687Zm21.168-8.593h-3.16V184.016h-3L59,198.93V201.6H70.75v5.86h2.766V201.6h3.16v-2.5ZM70.75,187.637v11.457H61.894Zm32.688,2.437a5.866,5.866,0,0,0-5.234,3.193,5.319,5.319,0,0,0-5.235-3.193,5.457,5.457,0,0,0-4.905,2.9v-2.5h-2.5v16.988H88.2v-9.284c0-4.083,2.272-5.729,4.346-5.729,2.206,0,3.556,1.119,3.556,3.753v11.26h2.634v-9.284c0-4.083,2.206-5.729,4.345-5.729,2.239,0,3.556,1.119,3.556,3.753v11.26h2.634V195.934C109.266,192.642,107.389,190.074,103.438,190.074Zm10.783-2.009a1.778,1.778,0,1,0-1.778-1.778A1.792,1.792,0,0,0,114.221,188.065ZM112.9,207.457h2.634V190.469H112.9v16.988Zm10.008,0.1a16.719,16.719,0,0,0,1.679-.1v-2.206H123.34c-1.252,0-1.614-.56-1.614-1.449V184.016h-2.634v20.017C119.092,206.634,120.541,207.556,122.912,207.556Zm7.373,0a16.686,16.686,0,0,0,1.679-.1v-2.206h-1.251c-1.251,0-1.613-.56-1.613-1.449V184.016h-2.634v20.017C126.466,206.634,127.915,207.556,130.285,207.556Zm4.908-19.491a1.778,1.778,0,1,0-1.778-1.778A1.792,1.792,0,0,0,135.193,188.065Zm-1.317,19.392h2.634V190.469h-2.634v16.988Zm13.574,0.4c4.773,0,8.23-3.457,8.23-8.889s-3.457-8.889-8.23-8.889-8.231,3.456-8.231,8.889S142.676,207.852,147.45,207.852Zm0-2.371c-3.293,0-5.466-2.4-5.466-6.518s2.173-6.519,5.466-6.519,5.465,2.4,5.465,6.519S150.742,205.481,147.45,205.481Zm18.905-15.407a6.259,6.259,0,0,0-5.334,2.93v-2.535h-2.5v16.988h2.634v-9.614c0-3.753,2.469-5.4,4.675-5.4,2.436,0,3.885,1.152,3.885,3.786v11.227h2.634v-11.49C172.347,192.214,170.141,190.074,166.355,190.074Zm24.03,0a6.261,6.261,0,0,0-5.2,2.732v-8.79h-2.634v23.441h2.634v-9.614c0-3.753,2.47-5.4,4.675-5.4,2.437,0,3.885,1.152,3.885,3.786v11.227h2.634v-11.49C196.377,192.214,194.171,190.074,190.385,190.074Zm17.006,17.778c4.774,0,8.23-3.457,8.23-8.889s-3.456-8.889-8.23-8.889-8.231,3.456-8.231,8.889S202.617,207.852,207.391,207.852Zm0-2.371c-3.292,0-5.465-2.4-5.465-6.518s2.173-6.519,5.465-6.519,5.465,2.4,5.465,6.519S210.683,205.481,207.391,205.481ZM229.6,190.469v9.613c0,3.753-2.469,5.4-4.675,5.4-2.436,0-3.885-1.152-3.885-3.786V190.469H218.4v11.49c0,3.753,2.206,5.893,5.992,5.893a6.259,6.259,0,0,0,5.334-2.93v2.535h2.5V190.469H229.6Zm14.273-.264a5.933,5.933,0,0,0-5.465,3.26v-3h-2.5v16.988h2.634v-9.679c0-3.293,2.173-5,5.564-5h0.658v-2.535C244.4,190.205,244.135,190.205,243.871,190.205Zm9.316,17.647c4.181,0,6.749-1.844,6.749-5.07,0-2.766-1.679-4.181-5.86-5l-1.515-.3c-2.173-.428-3.424-1.02-3.424-2.634,0-1.58,1.284-2.5,3.556-2.5,2.6,0,4.148.725,4.28,3.358h2.634c-0.066-3.621-2.371-5.629-6.914-5.629-3.885,0-6.19,1.909-6.19,4.806,0,2.634,1.614,4.313,5.3,5l1.58,0.3c2.963,0.56,3.885,1.251,3.885,2.765,0,1.679-1.218,2.634-4.082,2.634-3,0-4.247-.955-4.544-3.523h-2.666C246.24,206.041,248.874,207.852,253.187,207.852Zm10.9-.165a1.891,1.891,0,0,0,1.876-1.942,1.928,1.928,0,0,0-3.852,0A1.9,1.9,0,0,0,264.089,207.687Z"/>
</svg>
