<svg xmlns="http://www.w3.org/2000/svg" width="728" height="90" viewBox="0 0 728 90">
  <defs>
    <style>
      .cls-1 {
        fill: #fff;
        fill-rule: evenodd;
      }
    </style>
  </defs>
  <path id="Order_now" data-name="Order now" class="cls-1" d="M636.223,67.428c2.375,0,4-1.8,4-4.39,0-2.542-1.627-4.343-4-4.343s-3.99,1.8-3.99,4.343C632.233,65.6,633.86,67.428,636.223,67.428Zm0.012-.977c-1.686,0-2.874-1.33-2.874-3.413,0-2.059,1.188-3.366,2.874-3.366s2.862,1.306,2.862,3.366C639.1,65.145,637.933,66.451,636.235,66.451Zm8.714-5.461a2.12,2.12,0,0,0-2,1.389V61.156h-1.022v6.072h1.093V63.909a1.807,1.807,0,0,1,1.758-1.859c0.142,0,.261,0,0.391.012V61A1.364,1.364,0,0,0,644.949,60.991Zm5.414-2.142v3.036a2.255,2.255,0,0,0-1.853-.859c-1.555,0-2.648,1.236-2.648,3.072,0,1.883,1.009,3.26,2.672,3.26a2.24,2.24,0,0,0,1.971-1.094v0.965h0.95V58.849h-1.092Zm-1.722,7.579c-1.057,0-1.686-.918-1.686-2.33,0-1.389.653-2.142,1.71-2.142,1.021,0,1.757.73,1.757,2.165S649.662,66.428,648.641,66.428Zm9.985-2.377a2.707,2.707,0,0,0-2.8-3.036c-1.828,0-2.885,1.294-2.885,3.154s1.08,3.2,2.909,3.2a2.689,2.689,0,0,0,2.731-1.977l-1-.118a1.653,1.653,0,0,1-1.7,1.212,1.792,1.792,0,0,1-1.853-2.036h4.6v-0.4ZM655.835,61.9a1.739,1.739,0,0,1,1.77,1.777h-3.563A1.729,1.729,0,0,1,655.835,61.9Zm7.29-.906a2.12,2.12,0,0,0-2,1.389V61.156h-1.022v6.072H661.2V63.909a1.806,1.806,0,0,1,1.757-1.859c0.143,0,.262,0,0.392.012V61A1.364,1.364,0,0,0,663.125,60.991ZM670.758,61a2.341,2.341,0,0,0-2.054,1.012V61.156h-1.021v6.072h1.092V63.85a1.674,1.674,0,0,1,1.746-1.906,1.11,1.11,0,0,1,1.223,1.283v4h1.092V63.015A1.878,1.878,0,0,0,670.758,61Zm6.468,6.378a2.981,2.981,0,0,0,2.957-3.236A2.869,2.869,0,0,0,677.262,61,3.2,3.2,0,0,0,677.226,67.381Zm0-.906c-1.152,0-1.853-.906-1.853-2.283s0.689-2.283,1.853-2.283c1.187,0,1.864.859,1.864,2.236S678.413,66.475,677.226,66.475Zm11.064-5.319-1.009,3.507-0.356,1.447-0.3-1.447-0.879-3.507h-1.187l-0.879,3.507-0.321,1.447-0.368-1.447-0.962-3.507h-1.187l1.935,6.072H683.9l0.926-3.625,0.332-1.53,0.309,1.53,0.867,3.625h1.093l2-6.072H688.29Z"/>
</svg>
