<svg xmlns="http://www.w3.org/2000/svg" width="728" height="90" viewBox="0 0 728 90">
  <defs>
    <style>
      .cls-1 {
        fill: #59595b;
        fill-rule: evenodd;
      }
    </style>
  </defs>
  <path id="_On_36_mo._plan._Conditions_apply." data-name="*On 36 mo. plan. Conditions apply." class="cls-1" d="M140.09,73.64a9.733,9.733,0,0,0-.749.887l0.532,0.4a7.5,7.5,0,0,0,.587-1.009,11.644,11.644,0,0,0,.619,1.009l0.542-.4a7.694,7.694,0,0,0-.777-0.887,5.43,5.43,0,0,0,1.124-.263l-0.207-.666a7.631,7.631,0,0,0-1.066.451q0.09-.7.1-1.164h-0.655q0,0.319.091,1.169a6.814,6.814,0,0,0-1.044-.455l-0.207.666q0.523,0.145,1.106.263h0Zm3.1,3.721a2.981,2.981,0,0,0,1.116,1.281,3.037,3.037,0,0,0,1.67.469,3.194,3.194,0,0,0,1.608-.425,2.841,2.841,0,0,0,1.151-1.251,4.185,4.185,0,0,0,.407-1.872,4.265,4.265,0,0,0-.386-1.847,2.937,2.937,0,0,0-1.123-1.269,3.075,3.075,0,0,0-1.652-.455,2.954,2.954,0,0,0-2.285.969,3.829,3.829,0,0,0-.885,2.682A4.006,4.006,0,0,0,143.19,77.362Zm1.195-3.921a2.194,2.194,0,0,1,1.6-.664,2.106,2.106,0,0,1,1.181.345,2.157,2.157,0,0,1,.8.971,3.646,3.646,0,0,1,.274,1.466,3,3,0,0,1-.639,2.051,2.188,2.188,0,0,1-3.243.007,2.828,2.828,0,0,1-.643-1.959A3.041,3.041,0,0,1,144.385,73.441Zm6.785,5.554V76.273a1.735,1.735,0,0,1,.377-1.3,1.287,1.287,0,0,1,.9-0.343,1.04,1.04,0,0,1,.567.152,0.8,0.8,0,0,1,.336.408,2.338,2.338,0,0,1,.095.772v3.032h0.813V75.93a5.041,5.041,0,0,0-.045-0.821,1.67,1.67,0,0,0-.253-0.624,1.266,1.266,0,0,0-.544-0.425,1.94,1.94,0,0,0-.8-0.162,1.7,1.7,0,0,0-1.526.821V74.011h-0.732v4.984h0.813Zm7.428-.418a2.033,2.033,0,0,0,1.447.54,2.175,2.175,0,0,0,1.6-.627,2.068,2.068,0,0,0,.633-1.528,1.825,1.825,0,0,0-.326-1.11,1.525,1.525,0,0,0-.912-0.584,1.584,1.584,0,0,0,.682-0.582,1.489,1.489,0,0,0,.23-0.812,1.744,1.744,0,0,0-.241-0.887,1.709,1.709,0,0,0-.7-0.659,2.1,2.1,0,0,0-1-.242,1.915,1.915,0,0,0-1.314.467,2.2,2.2,0,0,0-.677,1.316l0.813,0.15a1.579,1.579,0,0,1,.406-0.929,1.084,1.084,0,0,1,.79-0.31,1.039,1.039,0,0,1,1.084,1.075,0.976,0.976,0,0,1-.415.868,1.629,1.629,0,0,1-.935.282A1.182,1.182,0,0,1,159.634,75l-0.09.741a2.25,2.25,0,0,1,.573-0.094,1.24,1.24,0,0,1,.93.378,1.323,1.323,0,0,1,.366.96,1.424,1.424,0,0,1-.4,1.023,1.287,1.287,0,0,1-.969.413,1.15,1.15,0,0,1-.819-0.317,1.9,1.9,0,0,1-.477-1.035l-0.812.113A2.116,2.116,0,0,0,158.6,78.577Zm8.325-6.035a1.826,1.826,0,0,0-1.28-.455,2.007,2.007,0,0,0-1.666.788,4.722,4.722,0,0,0-.709,2.9,4.038,4.038,0,0,0,.641,2.56,2.049,2.049,0,0,0,1.657.777,1.957,1.957,0,0,0,1.066-.3,2.008,2.008,0,0,0,.738-0.852,2.732,2.732,0,0,0,.269-1.2,2.286,2.286,0,0,0-.571-1.607,1.811,1.811,0,0,0-1.384-.622,1.874,1.874,0,0,0-.89.225,1.915,1.915,0,0,0-.718.69,4.611,4.611,0,0,1,.23-1.591,1.925,1.925,0,0,1,.606-0.849,1.084,1.084,0,0,1,.681-0.225,1.058,1.058,0,0,1,.813.361,1.612,1.612,0,0,1,.307.723l0.808-.066A1.958,1.958,0,0,0,166.923,72.542Zm-2.337,3.147a1.233,1.233,0,0,1,.935-0.411,1.181,1.181,0,0,1,.921.411,1.629,1.629,0,0,1,.366,1.124,1.742,1.742,0,0,1-.37,1.173,1.13,1.13,0,0,1-.885.432,1.215,1.215,0,0,1-.673-0.209,1.367,1.367,0,0,1-.5-0.608,2.022,2.022,0,0,1-.178-0.835A1.513,1.513,0,0,1,164.586,75.689Zm7.561,3.306V76.409a3.212,3.212,0,0,1,.131-1.042,1.059,1.059,0,0,1,.423-0.549,1.146,1.146,0,0,1,.634-0.188,0.739,0.739,0,0,1,.65.282,1.464,1.464,0,0,1,.2.845v3.238H175V76.1a1.578,1.578,0,0,1,.334-1.119,1.114,1.114,0,0,1,.84-0.35,0.868,0.868,0,0,1,.487.136,0.7,0.7,0,0,1,.287.359,2.387,2.387,0,0,1,.079.73v3.14h0.808V75.574a1.8,1.8,0,0,0-.383-1.265,1.43,1.43,0,0,0-1.1-.411,1.71,1.71,0,0,0-1.481.873,1.22,1.22,0,0,0-.481-0.643,1.529,1.529,0,0,0-.873-0.23,1.638,1.638,0,0,0-.854.223,1.733,1.733,0,0,0-.6.589v-0.7h-0.727v4.984h0.812Zm7.331-.558a2.115,2.115,0,0,0,1.628.671,2.28,2.28,0,0,0,1.158-.305,2.007,2.007,0,0,0,.809-0.856,3.412,3.412,0,0,0,.277-1.514,2.624,2.624,0,0,0-.627-1.861,2.113,2.113,0,0,0-1.617-.674,2.18,2.18,0,0,0-1.508.554,2.622,2.622,0,0,0-.74,2.051A2.746,2.746,0,0,0,179.478,78.436Zm0.617-3.365a1.307,1.307,0,0,1,2.016,0,2.117,2.117,0,0,1,.4,1.4,2.232,2.232,0,0,1-.4,1.459,1.3,1.3,0,0,1-2.018,0A2.753,2.753,0,0,1,180.1,75.071Zm5.31,3.923V78.033h-0.926v0.962h0.926Zm4.887,1.91V78.478a1.686,1.686,0,0,0,.531.451,1.481,1.481,0,0,0,.729.178,1.917,1.917,0,0,0,1.059-.326,2.048,2.048,0,0,0,.768-0.939,3.446,3.446,0,0,0,.264-1.377,3.511,3.511,0,0,0-.239-1.312,2.008,2.008,0,0,0-.709-0.927,1.846,1.846,0,0,0-1.084-.328,1.573,1.573,0,0,0-.8.19,1.857,1.857,0,0,0-.592.57V74.011h-0.74V80.9h0.812Zm0.323-5.84a1.159,1.159,0,0,1,.919-0.5,1.121,1.121,0,0,1,.9.474,2.267,2.267,0,0,1,.377,1.427,2.327,2.327,0,0,1-.386,1.476,1.16,1.16,0,0,1-.928.476,1.135,1.135,0,0,1-.908-0.46,2.235,2.235,0,0,1-.374-1.422A2.323,2.323,0,0,1,190.615,75.064Zm4.912,3.93v-6.88h-0.813v6.88h0.813Zm4.629,0h0.849a1.922,1.922,0,0,1-.206-0.6,12.557,12.557,0,0,1-.052-1.49V75.78a4.976,4.976,0,0,0-.04-0.779,1.357,1.357,0,0,0-.253-0.575,1.318,1.318,0,0,0-.565-0.378,2.774,2.774,0,0,0-1-.15,3.094,3.094,0,0,0-1.089.176,1.566,1.566,0,0,0-.718.5,2.092,2.092,0,0,0-.356.856l0.794,0.113a1.292,1.292,0,0,1,.4-0.739,1.4,1.4,0,0,1,.847-0.209,1.328,1.328,0,0,1,.926.286,0.957,0.957,0,0,1,.23.727c0,0.031,0,.1,0,0.221a7.207,7.207,0,0,1-1.45.291,5.588,5.588,0,0,0-.722.127,1.939,1.939,0,0,0-.585.277,1.364,1.364,0,0,0-.42.486,1.4,1.4,0,0,0-.16.669,1.349,1.349,0,0,0,.424,1.025,1.7,1.7,0,0,0,1.215.4,2.424,2.424,0,0,0,.9-0.164,3.014,3.014,0,0,0,.869-0.563,1.85,1.85,0,0,0,.163.615h0Zm-0.23-2.192a2.117,2.117,0,0,1-.131.845,1.3,1.3,0,0,1-.538.584,1.625,1.625,0,0,1-.835.213,1.031,1.031,0,0,1-.72-0.225,0.768,0.768,0,0,1-.133-0.964,0.714,0.714,0,0,1,.32-0.275,2.985,2.985,0,0,1,.709-0.169,5.777,5.777,0,0,0,1.328-.319V76.8Zm2.972,2.192V76.273a1.73,1.73,0,0,1,.377-1.3,1.287,1.287,0,0,1,.9-0.343,1.04,1.04,0,0,1,.567.152,0.8,0.8,0,0,1,.336.408,2.365,2.365,0,0,1,.095.772v3.032h0.813V75.93a5.041,5.041,0,0,0-.045-0.821,1.687,1.687,0,0,0-.253-0.624,1.266,1.266,0,0,0-.544-0.425,1.94,1.94,0,0,0-.8-0.162,1.708,1.708,0,0,0-1.527.821V74.011h-0.731v4.984H202.9Zm5.5,0V78.033h-0.926v0.962H208.4Zm8.211-1.1a1.84,1.84,0,0,1-1.246.441,2.086,2.086,0,0,1-1.125-.324,1.892,1.892,0,0,1-.765-0.978,4.348,4.348,0,0,1-.246-1.532,4.241,4.241,0,0,1,.208-1.321,2,2,0,0,1,.72-1.021,2.081,2.081,0,0,1,1.275-.38,1.734,1.734,0,0,1,1.1.343,2.132,2.132,0,0,1,.668,1.093L218.065,74a2.737,2.737,0,0,0-.944-1.478A2.641,2.641,0,0,0,215.45,72a3.185,3.185,0,0,0-1.6.415,2.766,2.766,0,0,0-1.124,1.215,4.179,4.179,0,0,0-.4,1.875,4.826,4.826,0,0,0,.35,1.844,2.806,2.806,0,0,0,1.02,1.312,3.052,3.052,0,0,0,1.741.453,2.667,2.667,0,0,0,1.75-.589,3.089,3.089,0,0,0,.991-1.71l-0.876-.23A2.286,2.286,0,0,1,216.611,77.892Zm3.049,0.544a2.115,2.115,0,0,0,1.628.671,2.285,2.285,0,0,0,1.158-.305,2,2,0,0,0,.808-0.856,3.4,3.4,0,0,0,.278-1.514,2.62,2.62,0,0,0-.628-1.861,2.109,2.109,0,0,0-1.616-.674,2.18,2.18,0,0,0-1.508.554,2.623,2.623,0,0,0-.741,2.051A2.746,2.746,0,0,0,219.66,78.436Zm0.616-3.365a1.308,1.308,0,0,1,2.017,0,2.117,2.117,0,0,1,.4,1.4,2.232,2.232,0,0,1-.4,1.459,1.306,1.306,0,0,1-2.019,0A2.759,2.759,0,0,1,220.276,75.071Zm5.139,3.923V76.273a1.735,1.735,0,0,1,.377-1.3,1.287,1.287,0,0,1,.9-0.343,1.04,1.04,0,0,1,.567.152,0.81,0.81,0,0,1,.337.408,2.37,2.37,0,0,1,.094.772v3.032H228.5V75.93a5.041,5.041,0,0,0-.045-0.821,1.67,1.67,0,0,0-.253-0.624,1.26,1.26,0,0,0-.544-0.425,1.936,1.936,0,0,0-.8-0.162,1.706,1.706,0,0,0-1.526.821V74.011H224.6v4.984h0.813Zm8.3,0v-6.88H232.9v2.468a1.629,1.629,0,0,0-.551-0.5,1.548,1.548,0,0,0-.772-0.19,1.868,1.868,0,0,0-1.07.324,1.953,1.953,0,0,0-.718.932,3.678,3.678,0,0,0-.239,1.354,3.279,3.279,0,0,0,.264,1.354,2.137,2.137,0,0,0,.745.917,1.831,1.831,0,0,0,1.054.329,1.478,1.478,0,0,0,1.341-.741v0.629h0.755Zm-2.96-3.937a1.111,1.111,0,0,1,.905-0.46,1.153,1.153,0,0,1,.935.479,2.411,2.411,0,0,1,.379,1.5,2.142,2.142,0,0,1-.373,1.382,1.132,1.132,0,0,1-.905.453,1.157,1.157,0,0,1-.917-0.474,2.23,2.23,0,0,1-.388-1.431A2.331,2.331,0,0,1,230.751,75.057Zm5.106-1.971V72.115h-0.813v0.971h0.813Zm0,5.908V74.011h-0.813v4.984h0.813Zm2.733-.723a0.52,0.52,0,0,1-.277-0.061,0.343,0.343,0,0,1-.14-0.164,1.513,1.513,0,0,1-.043-0.465V74.668h0.817V74.011H238.13V72.27l-0.809.507v1.234h-0.6v0.657h0.6v2.867a3.107,3.107,0,0,0,.1,1,0.8,0.8,0,0,0,.343.382,1.343,1.343,0,0,0,.686.145,2.9,2.9,0,0,0,.614-0.075l-0.117-.746a2.546,2.546,0,0,1-.357.033h0Zm2.1-5.186V72.115h-0.813v0.971h0.813Zm0,5.908V74.011h-0.813v4.984h0.813Zm1.685-.558a2.115,2.115,0,0,0,1.628.671,2.286,2.286,0,0,0,1.159-.305,2.011,2.011,0,0,0,.808-0.856,3.412,3.412,0,0,0,.277-1.514,2.624,2.624,0,0,0-.627-1.861A2.111,2.111,0,0,0,244,73.9a2.182,2.182,0,0,0-1.508.554,2.622,2.622,0,0,0-.74,2.051A2.751,2.751,0,0,0,242.373,78.436Zm0.617-3.365a1.307,1.307,0,0,1,2.016,0,2.117,2.117,0,0,1,.4,1.4,2.232,2.232,0,0,1-.4,1.459,1.3,1.3,0,0,1-2.018,0A2.753,2.753,0,0,1,242.99,75.071Zm5.138,3.923V76.273a1.73,1.73,0,0,1,.378-1.3,1.287,1.287,0,0,1,.9-0.343,1.042,1.042,0,0,1,.567.152,0.8,0.8,0,0,1,.336.408,2.365,2.365,0,0,1,.095.772v3.032h0.813V75.93a5.009,5.009,0,0,0-.046-0.821,1.669,1.669,0,0,0-.252-0.624,1.264,1.264,0,0,0-.545-0.425,1.936,1.936,0,0,0-.8-0.162,1.706,1.706,0,0,0-1.526.821V74.011h-0.731v4.984h0.812Zm4.7-.291a2.193,2.193,0,0,0,1.425.4,2.407,2.407,0,0,0,1.011-.2,1.546,1.546,0,0,0,.684-0.577,1.459,1.459,0,0,0,.238-0.8,1.27,1.27,0,0,0-.195-0.723,1.224,1.224,0,0,0-.535-0.444,9.713,9.713,0,0,0-1.2-.392c-0.4-.113-0.637-0.184-0.718-0.216a0.72,0.72,0,0,1-.312-0.225,0.479,0.479,0,0,1-.1-0.3,0.567,0.567,0,0,1,.239-0.45,1.292,1.292,0,0,1,.8-0.192,1.116,1.116,0,0,1,.733.216,0.914,0.914,0,0,1,.314.6l0.8-.113a1.834,1.834,0,0,0-.28-0.772,1.356,1.356,0,0,0-.63-0.457,2.68,2.68,0,0,0-.991-0.169,2.371,2.371,0,0,0-.7.1,1.637,1.637,0,0,0-.517.246,1.352,1.352,0,0,0-.4.472,1.323,1.323,0,0,0-.147.617,1.293,1.293,0,0,0,.179.669,1.216,1.216,0,0,0,.523.474,7.4,7.4,0,0,0,1.24.406,3.459,3.459,0,0,1,.831.286,0.519,0.519,0,0,1,.239.451,0.717,0.717,0,0,1-.271.556,1.234,1.234,0,0,1-.831.237,1.278,1.278,0,0,1-.864-0.267,1.178,1.178,0,0,1-.377-0.77l-0.8.131A1.9,1.9,0,0,0,252.83,78.7Zm10.277,0.291h0.849a1.919,1.919,0,0,1-.205-0.6,12.329,12.329,0,0,1-.052-1.49V75.78A4.94,4.94,0,0,0,263.658,75a1.345,1.345,0,0,0-.253-0.575,1.308,1.308,0,0,0-.564-0.378,2.783,2.783,0,0,0-1-.15,3.093,3.093,0,0,0-1.088.176,1.56,1.56,0,0,0-.718.5,2.079,2.079,0,0,0-.357.856l0.8,0.113a1.286,1.286,0,0,1,.4-0.739,1.393,1.393,0,0,1,.847-0.209,1.323,1.323,0,0,1,.925.286,0.953,0.953,0,0,1,.231.727c0,0.031,0,.1,0,0.221a7.179,7.179,0,0,1-1.449.291,5.61,5.61,0,0,0-.723.127,1.939,1.939,0,0,0-.585.277,1.364,1.364,0,0,0-.42.486,1.416,1.416,0,0,0-.16.669,1.349,1.349,0,0,0,.425,1.025,1.7,1.7,0,0,0,1.214.4,2.433,2.433,0,0,0,.9-0.164,3.014,3.014,0,0,0,.869-0.563,1.85,1.85,0,0,0,.162.615h0Zm-0.23-2.192a2.117,2.117,0,0,1-.131.845,1.291,1.291,0,0,1-.537.584,1.628,1.628,0,0,1-.836.213,1.031,1.031,0,0,1-.72-0.225,0.732,0.732,0,0,1-.246-0.563,0.744,0.744,0,0,1,.113-0.4,0.711,0.711,0,0,1,.321-0.275,2.959,2.959,0,0,1,.709-0.169,5.78,5.78,0,0,0,1.327-.319V76.8Zm2.972,4.1V78.478a1.675,1.675,0,0,0,.531.451,1.481,1.481,0,0,0,.729.178,1.919,1.919,0,0,0,1.059-.326,2.052,2.052,0,0,0,.767-0.939,3.429,3.429,0,0,0,.265-1.377,3.492,3.492,0,0,0-.24-1.312,2,2,0,0,0-.709-0.927,1.843,1.843,0,0,0-1.083-.328,1.579,1.579,0,0,0-.8.19,1.855,1.855,0,0,0-.591.57V74.011h-0.741V80.9h0.813Zm0.323-5.84a1.157,1.157,0,0,1,.919-0.5,1.123,1.123,0,0,1,.9.474,2.267,2.267,0,0,1,.377,1.427,2.327,2.327,0,0,1-.386,1.476,1.161,1.161,0,0,1-.928.476,1.135,1.135,0,0,1-.908-0.46,2.228,2.228,0,0,1-.375-1.422A2.323,2.323,0,0,1,266.172,75.064ZM271.1,80.9V78.478a1.671,1.671,0,0,0,.53.451,1.485,1.485,0,0,0,.73.178,1.914,1.914,0,0,0,1.058-.326,2.048,2.048,0,0,0,.768-0.939,3.446,3.446,0,0,0,.264-1.377,3.511,3.511,0,0,0-.239-1.312,2.008,2.008,0,0,0-.709-0.927,1.844,1.844,0,0,0-1.084-.328,1.575,1.575,0,0,0-.8.19,1.857,1.857,0,0,0-.592.57V74.011h-0.74V80.9H271.1Zm0.323-5.84a1.156,1.156,0,0,1,.918-0.5,1.12,1.12,0,0,1,.9.474,2.26,2.26,0,0,1,.377,1.427,2.32,2.32,0,0,1-.386,1.476,1.158,1.158,0,0,1-.928.476,1.133,1.133,0,0,1-.907-0.46,2.228,2.228,0,0,1-.375-1.422A2.317,2.317,0,0,1,271.42,75.064Zm4.911,3.93v-6.88h-0.813v6.88h0.813Zm1.817,2.023a1.141,1.141,0,0,0,.668-0.195,1.655,1.655,0,0,0,.5-0.612,10.317,10.317,0,0,0,.456-1.131l1.824-5.068H280.78l-1.025,2.9a11.74,11.74,0,0,0-.334,1.136q-0.153-.605-0.348-1.154l-1-2.886H277.2L279.019,79q-0.05.136-.072,0.206a4.226,4.226,0,0,1-.248.629,0.754,0.754,0,0,1-.267.263A0.864,0.864,0,0,1,278,80.2a1.743,1.743,0,0,1-.465-0.075l0.09,0.793a1.575,1.575,0,0,0,.524.1h0Zm4.867-2.023V78.033H282.09v0.962h0.925Z"/>
</svg>
