<svg xmlns="http://www.w3.org/2000/svg" width="728" height="90" viewBox="0 0 728 90">
  <defs>
    <style>
      .cls-1 {
        fill: #4b286c;
        fill-rule: evenodd;
      }
    </style>
  </defs>
  <path id="Palaki_ng_palaki_ang_selebrasyon_" data-name="Palaki ng palaki  ang selebrasyon " class="cls-1" d="M308.5,19.135H300.14V39.243h2.373V31.505h5.99c4.464,0,6.667-2.57,6.667-6.185S312.967,19.135,308.5,19.135Zm0,10.223h-5.99V21.282h5.99c2.825,0,4.209,1.5,4.209,4.038S311.328,29.359,308.5,29.359Zm20.307,8.049a0.668,0.668,0,0,1-.791-0.706V28.568c0-2.457-1.441-4.236-5.481-4.236-4.266,0-5.763,2.005-5.933,4.829h2.26c0.142-2.175,1.187-2.881,3.673-2.881s3.278,0.762,3.278,2.287c0,1.3-.82,1.836-2.289,2.005l-2.091.226c-4.011.424-5.4,2.231-5.4,4.519,0,2.739,1.978,4.264,5.142,4.264a5.344,5.344,0,0,0,4.747-2.344c0.113,1.384.847,2.09,2.458,2.09a8.611,8.611,0,0,0,1.243-.085V37.407h-0.82Zm-7.515.254c-2.006,0-2.91-.96-2.91-2.4,0-1.412.735-2.316,3.39-2.626l2.119-.254a3.764,3.764,0,0,0,1.922-.621v1.723C325.816,36.363,323.471,37.662,321.3,37.662Zm13.1,1.666a14.344,14.344,0,0,0,1.44-.085V37.351h-1.073a1.132,1.132,0,0,1-1.385-1.243V19.135h-2.26V36.306C331.118,38.537,332.361,39.328,334.4,39.328Zm15.131-1.92a0.668,0.668,0,0,1-.791-0.706V28.568c0-2.457-1.44-4.236-5.481-4.236-4.266,0-5.763,2.005-5.933,4.829h2.261c0.141-2.175,1.186-2.881,3.672-2.881s3.278,0.762,3.278,2.287c0,1.3-.82,1.836-2.289,2.005l-2.09.226c-4.012.424-5.4,2.231-5.4,4.519,0,2.739,1.978,4.264,5.142,4.264a5.344,5.344,0,0,0,4.747-2.344c0.113,1.384.847,2.09,2.458,2.09a8.6,8.6,0,0,0,1.243-.085V37.407h-0.82Zm-7.515.254c-2.006,0-2.91-.96-2.91-2.4,0-1.412.735-2.316,3.391-2.626l2.119-.254a3.763,3.763,0,0,0,1.921-.621v1.723C346.533,36.363,344.188,37.662,342.012,37.662Zm19.746,1.581h2.627l-5.933-9.32,5.538-5.253h-3l-6.753,6.524V19.135h-2.26V39.243h2.26V33.849l2.6-2.429Zm5.184-16.634a1.525,1.525,0,1,0-1.526-1.525A1.537,1.537,0,0,0,366.942,22.609Zm-1.13,16.634h2.26V24.671h-2.26V39.243Zm17.742-14.911a5.37,5.37,0,0,0-4.577,2.513V24.671h-2.148V39.243h2.261V31c0-3.219,2.119-4.632,4.012-4.632,2.09,0,3.333.988,3.333,3.248v9.63H388.7V29.387C388.7,26.167,386.8,24.332,383.554,24.332Zm19.166,0.339v2.118a5.886,5.886,0,0,0-5-2.457c-4.1,0-6.781,2.965-6.781,7.625s2.684,7.625,6.781,7.625a5.892,5.892,0,0,0,4.888-2.316v1.412c0,3.022-1.611,4.519-4.521,4.519-2.288,0-3.673-.932-3.955-2.768h-2.26c0.31,2.824,2.486,4.688,6.215,4.688,4.6,0,6.781-2.655,6.781-6.439V24.671H402.72ZM398,37.549c-2.825,0-4.689-2.175-4.689-5.592s1.864-5.592,4.689-5.592,4.69,2.062,4.69,5.592S400.827,37.549,398,37.549Zm22.771-13.217a5.729,5.729,0,0,0-5,2.6V24.671h-2.148V44.779h2.261V37.153a5.725,5.725,0,0,0,4.887,2.429c4.1,0,6.781-2.965,6.781-7.625S424.869,24.332,420.772,24.332ZM420.49,37.549c-2.826,0-4.69-2.062-4.69-5.592s1.864-5.592,4.69-5.592,4.69,1.949,4.69,5.479S423.315,37.549,420.49,37.549Zm21.2-.141A0.668,0.668,0,0,1,440.9,36.7V28.568c0-2.457-1.441-4.236-5.481-4.236-4.266,0-5.763,2.005-5.933,4.829h2.26c0.142-2.175,1.187-2.881,3.673-2.881s3.277,0.762,3.277,2.287c0,1.3-.819,1.836-2.288,2.005l-2.091.226c-4.012.424-5.4,2.231-5.4,4.519,0,2.739,1.978,4.264,5.142,4.264a5.343,5.343,0,0,0,4.746-2.344c0.113,1.384.848,2.09,2.458,2.09a8.615,8.615,0,0,0,1.244-.085V37.407h-0.82Zm-7.515.254c-2.006,0-2.91-.96-2.91-2.4,0-1.412.735-2.316,3.39-2.626l2.119-.254a3.76,3.76,0,0,0,1.921-.621v1.723C438.692,36.363,436.347,37.662,434.172,37.662Zm13.1,1.666a14.362,14.362,0,0,0,1.441-.085V37.351H447.64a1.132,1.132,0,0,1-1.385-1.243V19.135H444V36.306C444,38.537,445.238,39.328,447.272,39.328Zm15.132-1.92a0.668,0.668,0,0,1-.791-0.706V28.568c0-2.457-1.441-4.236-5.481-4.236-4.266,0-5.763,2.005-5.933,4.829h2.26c0.142-2.175,1.187-2.881,3.673-2.881s3.278,0.762,3.278,2.287c0,1.3-.82,1.836-2.289,2.005l-2.091.226c-4.011.424-5.4,2.231-5.4,4.519,0,2.739,1.978,4.264,5.142,4.264a5.346,5.346,0,0,0,4.747-2.344c0.113,1.384.847,2.09,2.458,2.09a8.611,8.611,0,0,0,1.243-.085V37.407H462.4Zm-7.515.254c-2.006,0-2.91-.96-2.91-2.4,0-1.412.735-2.316,3.39-2.626l2.119-.254a3.764,3.764,0,0,0,1.922-.621v1.723C459.41,36.363,457.065,37.662,454.889,37.662Zm19.745,1.581h2.628l-5.933-9.32,5.537-5.253h-2.994l-6.753,6.524V19.135h-2.26V39.243h2.26V33.849l2.6-2.429Zm5.185-16.634a1.525,1.525,0,1,0-1.526-1.525A1.537,1.537,0,0,0,479.819,22.609Zm-1.131,16.634h2.261V24.671h-2.261V39.243ZM306.2,67.962a0.668,0.668,0,0,1-.791-0.706V59.123c0-2.457-1.441-4.236-5.481-4.236-4.266,0-5.764,2.005-5.933,4.829h2.26c0.141-2.175,1.187-2.881,3.673-2.881s3.277,0.763,3.277,2.288c0,1.3-.819,1.836-2.288,2.005l-2.091.226c-4.012.424-5.4,2.231-5.4,4.519,0,2.739,1.977,4.264,5.142,4.264a5.344,5.344,0,0,0,4.746-2.344c0.113,1.384.848,2.09,2.458,2.09a8.591,8.591,0,0,0,1.243-.085V67.962H306.2Zm-7.515.254c-2.006,0-2.91-.96-2.91-2.4,0-1.412.734-2.316,3.39-2.626l2.119-.254a3.76,3.76,0,0,0,1.921-.621v1.723C303.207,66.917,300.862,68.217,298.687,68.217Zm16.694-13.33A5.372,5.372,0,0,0,310.8,57.4V55.225h-2.147V69.8h2.26V61.552c0-3.22,2.119-4.632,4.012-4.632,2.09,0,3.334.988,3.334,3.248V69.8h2.26V59.942C320.523,56.722,318.63,54.887,315.381,54.887Zm19.166,0.339v2.118a5.884,5.884,0,0,0-5-2.457c-4.1,0-6.78,2.965-6.78,7.625s2.684,7.625,6.78,7.625a5.892,5.892,0,0,0,4.888-2.316v1.412c0,3.022-1.61,4.519-4.52,4.519-2.289,0-3.673-.932-3.956-2.768H323.7c0.311,2.824,2.486,4.688,6.216,4.688,4.605,0,6.78-2.655,6.78-6.439V55.225h-2.147ZM329.829,68.1c-2.825,0-4.69-2.175-4.69-5.592s1.865-5.592,4.69-5.592,4.69,2.062,4.69,5.592S332.654,68.1,329.829,68.1Zm20.765,2.033c3.588,0,5.791-1.581,5.791-4.349,0-2.372-1.441-3.587-5.029-4.293l-1.3-.254c-1.865-.367-2.938-0.876-2.938-2.259,0-1.356,1.1-2.146,3.051-2.146,2.232,0,3.56.621,3.673,2.881h2.26c-0.057-3.107-2.034-4.829-5.933-4.829-3.334,0-5.312,1.638-5.312,4.123,0,2.259,1.385,3.7,4.549,4.293l1.356,0.254c2.543,0.48,3.334,1.073,3.334,2.372,0,1.44-1.045,2.259-3.5,2.259-2.571,0-3.645-.819-3.9-3.022h-2.289C344.632,68.584,346.892,70.137,350.594,70.137Zm20.522-7.625c0-4.18-2.345-7.625-6.7-7.625-4.04,0-6.724,3.05-6.724,7.625,0,4.716,2.8,7.625,6.781,7.625a6.082,6.082,0,0,0,6.272-4.773H368.4a3.746,3.746,0,0,1-3.871,2.711c-2.543,0-4.266-1.5-4.492-4.773h11.075V62.512Zm-6.7-5.564c2.6,0,4.04,1.92,4.266,4.321H360.1C360.465,58.388,362.132,56.948,364.42,56.948Zm12.154,12.935a14.379,14.379,0,0,0,1.441-.085V67.906h-1.074a1.132,1.132,0,0,1-1.384-1.243V49.69H373.3V66.861C373.3,69.092,374.54,69.883,376.574,69.883Zm15.231-7.371c0-4.18-2.345-7.625-6.7-7.625-4.04,0-6.724,3.05-6.724,7.625,0,4.716,2.8,7.625,6.78,7.625a6.081,6.081,0,0,0,6.272-4.773h-2.344a3.746,3.746,0,0,1-3.871,2.711c-2.543,0-4.266-1.5-4.492-4.773h11.075V62.512Zm-6.7-5.564c2.6,0,4.04,1.92,4.266,4.321h-8.589C381.154,58.388,382.82,56.948,385.109,56.948ZM401.2,54.887a5.728,5.728,0,0,0-4.888,2.429V49.69h-2.26V69.8H396.2V67.539a5.731,5.731,0,0,0,5,2.6c4.1,0,6.78-2.965,6.78-7.625S405.292,54.887,401.2,54.887ZM400.913,68.1c-2.825,0-4.69-2.062-4.69-5.592s1.865-5.592,4.69-5.592,4.69,1.949,4.69,5.479S403.738,68.1,400.913,68.1ZM417.1,55a5.092,5.092,0,0,0-4.69,2.8v-2.57h-2.147V69.8h2.26V61.5c0-2.824,1.865-4.293,4.775-4.293h0.565V55.028C417.556,55,417.33,55,417.1,55Zm14.3,12.963a0.668,0.668,0,0,1-.791-0.706V59.123c0-2.457-1.441-4.236-5.481-4.236-4.266,0-5.763,2.005-5.933,4.829h2.261c0.141-2.175,1.186-2.881,3.672-2.881s3.278,0.763,3.278,2.288c0,1.3-.82,1.836-2.289,2.005l-2.09.226c-4.012.424-5.4,2.231-5.4,4.519,0,2.739,1.978,4.264,5.142,4.264a5.344,5.344,0,0,0,4.747-2.344c0.113,1.384.847,2.09,2.458,2.09a8.611,8.611,0,0,0,1.243-.085V67.962H431.4Zm-7.515.254c-2.006,0-2.91-.96-2.91-2.4,0-1.412.735-2.316,3.391-2.626l2.118-.254a3.764,3.764,0,0,0,1.922-.621v1.723C428.408,66.917,426.063,68.217,423.887,68.217Zm15.211,1.92c3.588,0,5.792-1.581,5.792-4.349,0-2.372-1.441-3.587-5.029-4.293l-1.3-.254c-1.864-.367-2.938-0.876-2.938-2.259,0-1.356,1.1-2.146,3.051-2.146,2.232,0,3.56.621,3.673,2.881h2.26c-0.056-3.107-2.034-4.829-5.933-4.829-3.334,0-5.311,1.638-5.311,4.123,0,2.259,1.384,3.7,4.548,4.293l1.357,0.254c2.542,0.48,3.333,1.073,3.333,2.372,0,1.44-1.045,2.259-3.5,2.259-2.571,0-3.645-.819-3.9-3.022h-2.288C433.137,68.584,435.4,70.137,439.1,70.137Zm16.768-14.911L453.8,61.269c-0.734,2.118-1.441,4.236-2.091,6.326-0.678-2.09-1.356-4.18-2.09-6.3l-2.063-6.072h-2.486l5.481,15.053c-0.169.452-.339,0.932-0.508,1.356a2.554,2.554,0,0,1-2.656,1.807h-1.328v1.892a11.267,11.267,0,0,0,1.356.085,4.406,4.406,0,0,0,4.747-3.332l6.159-16.86h-2.458Zm9.63,14.911c4.1,0,7.063-2.965,7.063-7.625s-2.966-7.625-7.063-7.625-7.063,2.965-7.063,7.625S461.4,70.137,465.5,70.137Zm0-2.033c-2.825,0-4.69-2.062-4.69-5.592s1.865-5.592,4.69-5.592,4.69,2.062,4.69,5.592S468.322,68.1,465.5,68.1Zm16.03-13.217a5.372,5.372,0,0,0-4.577,2.514V55.225H474.8V69.8h2.26V61.552c0-3.22,2.119-4.632,4.012-4.632,2.091,0,3.334.988,3.334,3.248V69.8h2.26V59.942C486.668,56.722,484.775,54.887,481.526,54.887Z"/>
</svg>
