<svg xmlns="http://www.w3.org/2000/svg" width="320" height="50" viewBox="0 0 320 50">
  <defs>
    <style>
      .cls-1 {
        fill: #4b286d;
        fill-rule: evenodd;
      }
    </style>
  </defs>
  <path id="回馈社会_建造更强大的社区_" data-name="回馈社会 建造更强大的社区 " class="cls-1" d="M94.666,21.6V9.2H82.792V21.747h1.216V20.483h9.441v1.152Zm-1.216-2.32H84.008V10.355h9.441v8.928Zm-1.776-1.792v-5.36H85.72v5.36h5.953Zm-1.216-1.152h-3.52V13.283h3.52v3.056Zm21-2.032V13.139H107.4v-0.48h3.089V9.2H107.4V7.955h-1.216V9.2h-3.136v3.456h3.136v0.48h-3.936v1.168h9.2Zm-0.96,5.008V14.659h-7.505V19.6H104.2V15.827h5.137v3.488h1.152ZM111.836,21a12.534,12.534,0,0,0-4.417-1.9l-0.608,1.056a11.206,11.206,0,0,1,2.641.88,9.162,9.162,0,0,1,1.664,1.072Zm-9.217-10.56h-2.337a19.859,19.859,0,0,0,.208-2.128L99.306,8a13.868,13.868,0,0,1-.576,3.76,7.7,7.7,0,0,1-1.488,2.592l1.04,0.784a8.417,8.417,0,0,0,.76-1.184,11.414,11.414,0,0,0,.664-1.392,6.079,6.079,0,0,0,.3-0.96h1.329a3.946,3.946,0,0,1-.281.752,4.457,4.457,0,0,1-.44.768l1.169,0.464c0.032-.064.1-0.189,0.2-0.376a16.116,16.116,0,0,0,.632-1.768V10.435Zm4.592,5.808H106v1.2a2.878,2.878,0,0,1-.192,1.1,3.915,3.915,0,0,1-.56.928,5.11,5.11,0,0,1-3.7,1.488l0.608,1.264a7.738,7.738,0,0,0,3.312-1.312,4.162,4.162,0,0,0,1.288-1.52,4.077,4.077,0,0,0,.456-1.84V16.243Zm-4.592,3.312V18.2L100.7,19.219V13.635H99.482v6.048a1.137,1.137,0,0,1-.624.592l0.64,0.944Zm6.721-8.064H107.4v-1.12h1.937v1.12Zm-3.153,0h-1.92v-1.12h1.92v1.12Zm21.827,9.776V20.051H123.79V14.339h3.632l0.032-1.168H123.79V8.051h-1.265v5.12h-3.456v1.168h3.456v5.712h-4.16v1.216h9.649ZM117.069,9.051a12.472,12.472,0,0,0-.928-1.112l-1.041.576a7.567,7.567,0,0,1,1.617,2.608,5.781,5.781,0,0,0,.616-0.3c0.25-.139.424-0.229,0.52-0.272A6.4,6.4,0,0,0,117.069,9.051Zm3.328,8.12a13.853,13.853,0,0,0-1.376-1.4,5.021,5.021,0,0,0-1.008-.68l-0.464.464L117.533,15a14.73,14.73,0,0,0,1.728-2.752V11.187h-5.3l-0.032,1.168h3.937a13.872,13.872,0,0,1-1.816,2.384,20.554,20.554,0,0,1-2.5,2.16l0.912,1.008a12.423,12.423,0,0,0,1.825-1.584v6.048h1.264V16.147a5.515,5.515,0,0,1,.936.816q0.535,0.56.968,1.088ZM143.776,15l-1.84-1.136a12.5,12.5,0,0,1-1.752-1.3,14.841,14.841,0,0,1-1.44-1.464q-0.648-.76-1.657-2.088l0.352-.544-1.1-.512a17.725,17.725,0,0,1-1.664,2.624,17.7,17.7,0,0,1-2.192,2.336,13.594,13.594,0,0,1-3.073,2.032l0.945,0.944a20.465,20.465,0,0,0,1.744-1.144,16.594,16.594,0,0,0,1.28-1.064v0.624h6.353V13.651a13.136,13.136,0,0,0,1.544,1.232,15.644,15.644,0,0,0,1.688,1.04Zm-1.232,6.16a5.337,5.337,0,0,0-.688-0.768q-0.368-.336-1.04-0.912-1.137-.72-1.48-0.9a5.432,5.432,0,0,0-.552-0.264l-0.816.816a11.034,11.034,0,0,1,1.552.88l-6.193.768a13.228,13.228,0,0,0,2.112-1.536q0.816-.752,1.712-1.68L136.4,17h5.873V15.907H130.783V17h5.072a18.582,18.582,0,0,1-1.976,1.936,24.75,24.75,0,0,1-2.408,1.84l0.768,1.376,2.4-.368L140.768,21a7.672,7.672,0,0,1,.848.96Zm-8.609-8q0.608-.608,1.392-1.512a13.525,13.525,0,0,0,1.152-1.48,14.93,14.93,0,0,0,1.417,1.72,16.738,16.738,0,0,0,1.384,1.272h-5.345ZM63.573,37.835V36.683H59.029V35.739h3.681V34.587H59.029v-0.96h3.489V31.5h1.056V30.347H62.517V28.315H59.029V27.051H57.813v1.264h-2.7v1.152h2.7v0.88H54.052V31.5h3.761v0.976h-2.7v1.152h2.7v0.96H54.8v1.152h3.008v0.944H54.2v1.152h3.617v1.52h1.216v-1.52h4.545Zm0.432,1.616q-2.32.128-4.881,0.16a14.236,14.236,0,0,1-4-.312,5.026,5.026,0,0,1-2.064-1.112,11.252,11.252,0,0,0,1.12-4.9H51.892A13.877,13.877,0,0,0,54.2,29.5V28.443H49.988V29.6h2.9a12.885,12.885,0,0,1-1.112,1.952,14.324,14.324,0,0,1-1.528,1.888v1.008h2.72a9.121,9.121,0,0,1-.328,1.944,5.959,5.959,0,0,1-.408.936,3.256,3.256,0,0,1-.32-0.44q-0.176-.28-0.48-0.88t-0.4-.76l-0.976.56A11.591,11.591,0,0,0,51.6,38.347a13.1,13.1,0,0,1-1.856,2.128l0.912,0.88a15.993,15.993,0,0,0,1.128-1.216,9.1,9.1,0,0,0,.7-0.912A7.007,7.007,0,0,0,55.4,40.539a9.968,9.968,0,0,0,2.048.208h6.081Zm-2.7-9.1H59.029v-0.88H61.3v0.88Zm0,2.128H59.029V31.5H61.3v0.976Zm18.067,0.848V32.155H75.239V30.267h3.04V29.1h-3.04V26.987H74.023V29.1h-1.3a6.218,6.218,0,0,0,.336-1.1l-1.136-.4a6.007,6.007,0,0,1-2.144,3.376l1.056,0.8a6.513,6.513,0,0,0,1.3-1.5h1.888v1.888H69.974v1.168h9.393Zm-9.6-3.376a8.39,8.39,0,0,0-2.1-2.576l-0.992.7a7.015,7.015,0,0,1,1.192,1.248,5.1,5.1,0,0,1,.872,1.424Zm8.305,8.928v-4.9H71.046v4.9h1.216V38.091h4.593v0.784h1.216Zm1.888,0.464q-1.312.112-1.824,0.112H72.583a4.884,4.884,0,0,1-3.392-1.136V32.427H65.878V33.6h2.1V38a20.925,20.925,0,0,1-2.656,2l0.912,0.944,2.144-1.76a7.579,7.579,0,0,0,1.032.712,4.985,4.985,0,0,0,1.168.472,9.072,9.072,0,0,0,1.352.256H79.48Zm-3.1-2.416H72.263V35.147h4.593v1.776Zm19.363,3.12q-1.488-.032-3.128-0.216a27.084,27.084,0,0,1-2.888-.464,7.691,7.691,0,0,1-1.952-.664,4.77,4.77,0,0,0,.672-1.208,6.1,6.1,0,0,0,.368-1.416h4.673V30.139H89.529V29h6.177V27.835H82.056V29h6.257v1.136H83.72v5.936h4.353a5.087,5.087,0,0,1-.328,1.056,4.391,4.391,0,0,1-.552.96,18.888,18.888,0,0,1-2.336-1.824l-0.928.624a10.911,10.911,0,0,0,2.32,2.048,13.863,13.863,0,0,1-2.408.9,21.649,21.649,0,0,1-2.248.5l0.72,1.072A11.245,11.245,0,0,0,86.9,39.9l0.5-.336a14.941,14.941,0,0,0,3.056,1.064,29.084,29.084,0,0,0,5.009.648Zm-3.409-7.536h-3.28v-1.2h3.28v1.2Zm0,2.4H89.417l0.08-1.232h3.312v1.232Zm-4.5-2.4H84.936v-1.2h3.376v1.2ZM88.3,33.675l-0.064,1.232h-3.3V33.675H88.3Zm23.571,7.1a5.977,5.977,0,0,0-1.136-1.576,9.394,9.394,0,0,0-1.488-1.3l-1.057.544,0.993,0.8-1.425.24v-2.3h1.937v0.8h1.216V32.715h-3.153V32.059h2.561V28.171h-6.129v3.888h2.352v0.656h-3.072v5.472h1.216V37.179h1.856V39.6q-2.32.256-3.616,0.32l0.656,1.2,6.513-.848,0.768,1.168Zm-12.418-6.3,0.368-2.144h3.169v-4.32h-5.1v1.152h3.889v2.016h-2.9l-0.768,4.448h3.633q-0.033.24-.12,1.1t-0.176,1.36l-0.12.672q-0.016.048-.081,0.416a3.262,3.262,0,0,1-.152.6,1.175,1.175,0,0,1-.208.368,0.319,0.319,0,0,1-.312.1l-1.824-.272,0.32,1.248,0.528,0.088q0.432,0.072.792,0.112a2.965,2.965,0,0,0,.648.008,1.2,1.2,0,0,0,.7-0.408,2.122,2.122,0,0,0,.5-0.728,30.818,30.818,0,0,0,.784-5.824H99.45Zm9.65-3.568h-3.761V29.323H109.1v1.584Zm0.592,5.12h-1.937v-2.16h1.937v2.16Zm-3.153,0h-1.856v-2.16h1.856v2.16ZM127.758,40a12.441,12.441,0,0,1-2.672-2.032,9.23,9.23,0,0,1-1.712-2.456,13.859,13.859,0,0,1-1.041-3.384h4.7V30.907h-5.745a38.032,38.032,0,0,0,.08-3.84c-0.106-.021-0.3-0.048-0.592-0.08a6.1,6.1,0,0,1-.7-0.112,33.668,33.668,0,0,1-.112,4.032h-4.993v1.216h4.881a12.009,12.009,0,0,1-.64,2.272,10.4,10.4,0,0,1-1.12,2.1,9.506,9.506,0,0,1-1.672,1.84,10.051,10.051,0,0,1-2.233,1.432l0.912,1.1a14.011,14.011,0,0,0,2.321-1.584,9.994,9.994,0,0,0,1.712-1.88,10.738,10.738,0,0,0,1.216-2.336,17.871,17.871,0,0,0,.816-2.952,15.235,15.235,0,0,0,.856,3.416,10.188,10.188,0,0,0,1.3,2.352,9.689,9.689,0,0,0,1.672,1.728,17.719,17.719,0,0,0,1.9,1.336Zm13.01-3.152a12.013,12.013,0,0,0-.944-2,14.089,14.089,0,0,0-1.392-1.9l-0.993.656a13.524,13.524,0,0,1,2.177,3.76Zm-2.144-7.28q0.063-.224.264-0.832t0.288-.96c0.058-.235.1-0.442,0.136-0.624l-1.28-.288a14.977,14.977,0,0,1-2.4,6.16V29.8h-2.448a10.618,10.618,0,0,0,.864-2.352l-1.152-.464a9.971,9.971,0,0,1-.976,2.816h-1.472V40.891h1.264V39.6h2.656v1.04h1.264V33.5l0.832,0.528a13.119,13.119,0,0,0,1.857-3.36h3.408q-0.065,2.816-.192,4.392a26.811,26.811,0,0,1-.336,2.7,10.191,10.191,0,0,1-.528,1.888,0.613,0.613,0,0,1-.608.288,11.875,11.875,0,0,1-2.416-.672l0.208,1.344a15.756,15.756,0,0,0,2.1.5,2.805,2.805,0,0,0,.744,0,1.256,1.256,0,0,0,.752-0.472,2.791,2.791,0,0,0,.48-0.856,15.76,15.76,0,0,0,.52-2.064q0.2-1.088.28-2.064t0.12-1.84q0.041-.864.056-2.336t0.032-1.9h-4.32Zm-4.257,4.5h-2.656V30.971h2.656v3.088Zm0,4.368h-2.656v-3.2h2.656v3.2Zm25.652,1.84V39.051h-4.225V33.339h3.633l0.032-1.168h-3.665v-5.12H154.53v5.12h-3.457v1.168h3.457v5.712h-4.161v1.216h9.65ZM149.073,28.051a12.311,12.311,0,0,0-.928-1.112l-1.04.576a7.565,7.565,0,0,1,1.616,2.608,5.781,5.781,0,0,0,.616-0.3q0.377-.208.52-0.272A6.4,6.4,0,0,0,149.073,28.051Zm3.329,8.12a13.843,13.843,0,0,0-1.377-1.4,4.965,4.965,0,0,0-1.008-.68l-0.464.464L149.537,34a14.73,14.73,0,0,0,1.728-2.752V30.187h-5.3l-0.032,1.168h3.936a13.872,13.872,0,0,1-1.816,2.384,20.538,20.538,0,0,1-2.5,2.16l0.912,1.008a12.4,12.4,0,0,0,1.824-1.584v6.048h1.264V35.147a5.439,5.439,0,0,1,.936.816q0.537,0.56.968,1.088Zm21.6,2.128q-0.321-.592-0.833-1.368a19,19,0,0,0-1.16-1.568q-0.648-.792-1.208-1.384l0.8-1.1q0.672-1.04,1.536-2.736l-1.024-.56a38.377,38.377,0,0,1-2.176,3.472,35.149,35.149,0,0,0-3.873-3.424l-0.912.752q1.12,0.848,2.225,1.848t1.888,1.864a15.456,15.456,0,0,1-4.385,3.984l0.944,1.024a22.072,22.072,0,0,0,2.689-2.24,15.483,15.483,0,0,0,1.568-1.824q0.689,0.768,1.408,1.728a18.121,18.121,0,0,1,1.2,1.792L172.948,39Zm1.664,2.368V39.515H164.083v-10.4h11.058V27.963H162.867l0.016,12.7h12.786Z"/>
</svg>
