<svg xmlns="http://www.w3.org/2000/svg" width="320" height="50" viewBox="0 0 320 50">
  <defs>
    <style>
      .cls-1 {
        fill: #4b286d;
        fill-rule: evenodd;
      }
    </style>
  </defs>
  <path id="仅过去一年_我们回馈了_1.25亿_" data-name="仅过去一年 我们回馈了$1.25亿 " class="cls-1" d="M91.656,21.235a10.909,10.909,0,0,1-2.216-1.592,13.841,13.841,0,0,1-1.832-2.056q0.256-.352.624-0.984a15.646,15.646,0,0,0,.872-1.872,17.108,17.108,0,0,0,.76-2.264q0.256-1.024.312-1.384t0.072-.472V9.539H82.423v1.152h1.168a16.248,16.248,0,0,0,2.5,6.928A13.9,13.9,0,0,1,83.9,19.635a14.06,14.06,0,0,1-2.52,1.52l0.736,1.024A12.737,12.737,0,0,0,84.767,20.6a15.171,15.171,0,0,0,2.04-1.984,14.761,14.761,0,0,0,1.88,2.032,11.417,11.417,0,0,0,2.28,1.616ZM81.479,7.955q-1.28,3.408-1.968,4.752a11.705,11.705,0,0,1-1.3,2.088,8.1,8.1,0,0,1-1.16,1.176l0.864,0.864a7.046,7.046,0,0,0,1-1,12.1,12.1,0,0,0,1.128-1.5v7.84h1.152V11.955a30.869,30.869,0,0,0,1.3-3.44Zm7.489,2.736a14.262,14.262,0,0,1-.472,2.224,13.062,13.062,0,0,1-.8,2.112,11.864,11.864,0,0,1-.856,1.5,13.86,13.86,0,0,1-1.472-3.152,12.829,12.829,0,0,1-.528-2.688h4.128Zm18.338,1.344v-1.1H105.37v-2.9h-1.216v2.9H98.089v1.1h6.065v6.832a0.367,0.367,0,0,1-.16.176,12.1,12.1,0,0,1-1.632-.1l0.432,1.264h0.872a3.428,3.428,0,0,0,.456-0.032,3.775,3.775,0,0,0,.48-0.1,1.247,1.247,0,0,0,.512-0.472A1.95,1.95,0,0,0,105.37,19v-6.96h1.936Zm-9.761-.912a10.56,10.56,0,0,0-2.528-2.832l-0.944.64a11.481,11.481,0,0,1,2.5,2.96Zm5.537,5.472a10.73,10.73,0,0,0-1.385-1.712,13.008,13.008,0,0,0-1.688-1.44l-0.928.8a12.189,12.189,0,0,1,3.057,3.1Zm4.528,3.76-1.632.112-2.464.064-2.817-.064a3.892,3.892,0,0,1-1.328-.264,4.057,4.057,0,0,1-1.168-.7,3.955,3.955,0,0,1-.768-0.816v-5.52H93.576v1.168H96.3v4.512a36.41,36.41,0,0,1-3.04,2.3l0.8,0.928q0.544-.4,1.656-1.3t1.16-.936a4.864,4.864,0,0,0,1.688,1.264,5.2,5.2,0,0,0,2.1.464l6.5,0.048Zm14.1-1.456a8.2,8.2,0,0,0-1.936-1.728l-1.264.672a7.69,7.69,0,0,1,1.176.728,4.924,4.924,0,0,1,.856.84L113.5,20a15.433,15.433,0,0,0,3.281-4.064h6.272V14.771h-5.584v-2.9h4.384V10.723l-4.384-.032L117.5,7.955h-1.3v2.736l-4.4-.032v1.216h4.4v2.9h-5.584v1.168h4.688a15.878,15.878,0,0,1-1.848,2.432,12.07,12.07,0,0,1-2.328,2l0.768,1.152q2.225-.4,5.393-0.656t3.544-.288l0.552-.048a12.326,12.326,0,0,1,.9,1.632,3.693,3.693,0,0,0,.608-0.336c0.246-.16.416-0.267,0.512-0.32a13.428,13.428,0,0,0-1.7-2.608h0Zm17.315-3.328V14.243h-12.4v1.328h12.4Zm16.338,2.176V16.579H149.84V13.971h4.081V12.8H149.84v-2.08h4.865V9.555h-8.961q0.207-.688.248-0.9c0.026-.139.045-0.256,0.056-0.352l-1.025-.5a10.432,10.432,0,0,1-2.96,5.312l1.008,0.816a8.73,8.73,0,0,0,1.064-1.224,13.478,13.478,0,0,0,1.144-1.992h3.3V12.8h-4.241v3.776h-2v1.168h6.241v4.608h1.264V17.747h5.521Zm-6.785-1.168h-3.024V13.971h3.024v2.608ZM63.8,28.787a7.792,7.792,0,0,0-1.568-1.16l-1.024.928a6.218,6.218,0,0,1,1.656,1.12,4.665,4.665,0,0,1,1.1,1.536,7.588,7.588,0,0,0,1.024-.88A5.233,5.233,0,0,0,63.8,28.787Zm0.64,8.648a9.106,9.106,0,0,1-.4,2.224q-0.064.176-.328-0.1a12.727,12.727,0,0,1-.888-1.16,7.271,7.271,0,0,1-.64-1.056,14.1,14.1,0,0,0,2.4-3.376L63.5,33.5a12.161,12.161,0,0,1-1.792,2.624,17.59,17.59,0,0,1-.64-3.056h4.145V31.851H60.956q-0.064-.784-0.1-2.312t-0.04-2.584H59.58a47.876,47.876,0,0,0,.1,4.9H56.7V29.243q0.208-.08.568-0.264t1.848-1.048l-0.8-.912a19.486,19.486,0,0,1-2.1,1.016,10.506,10.506,0,0,1-1.864.536,12.977,12.977,0,0,1-2.288.208,10,10,0,0,1,.752,1.2,11.139,11.139,0,0,0,1.376-.144,6.832,6.832,0,0,0,1.248-.288v2.3h-3.28v1.216h3.28v2.672q-1.953.5-3.7,0.832l0.9,1.168,2.8-.752V39.6a0.406,0.406,0,0,1-.1.288,0.4,0.4,0,0,1-.264.128L53.1,39.963l0.448,1.248q0.224-.016.864,0a7.9,7.9,0,0,0,1-.024,2.581,2.581,0,0,0,.616-0.136,1.255,1.255,0,0,0,.672-1.1V36.635l2.48-.656V34.747l-2.48.624v-2.3h3.089a19.673,19.673,0,0,0,.9,4.016,15.251,15.251,0,0,1-3.616,2.32l1.072,0.9a16.99,16.99,0,0,0,3.1-2.016,8.69,8.69,0,0,0,1.728,2.176,2.7,2.7,0,0,0,1.056.648,1.708,1.708,0,0,0,.592.008,1.13,1.13,0,0,0,.528-0.56,9.847,9.847,0,0,0,.544-2.64ZM75.23,29.771a5.727,5.727,0,0,0-1.936-2.464l-0.992.608a6.587,6.587,0,0,1,1.856,2.512Zm5.889-1.9H75.358v1.168H79.9v10.48a0.465,0.465,0,0,1-.048.256,0.214,0.214,0,0,1-.144.08l-1.824-.128,0.432,1.264a7.932,7.932,0,0,0,1.9-.048,1.063,1.063,0,0,0,.9-1.008V27.867ZM73.71,41.179V30.555H72.494V41.179H73.71Zm-2.928-14.3a18.827,18.827,0,0,1-1.3,4.736,13.2,13.2,0,0,1-2.2,3.408l0.928,0.832a9.872,9.872,0,0,0,.848-1.032,7.473,7.473,0,0,0,.688-1.112v7.472h1.216V31.227a32.24,32.24,0,0,0,.944-4ZM96.609,40.6V28.2H84.735V40.747h1.216V39.483h9.441v1.152Zm-1.216-2.32H85.952V29.355h9.441v8.928Zm-1.776-1.792v-5.36H87.664v5.36h5.953ZM92.4,35.339H88.88V32.283H92.4v3.056ZM113.4,33.307V32.139h-4.048v-0.48h3.088V28.2h-3.088V26.955h-1.216V28.2h-3.137v3.456h3.137v0.48h-3.937v1.168h9.2Zm-0.96,5.008V33.659h-7.5V38.6h1.216V34.827h5.137v3.488h1.152ZM113.779,40a12.529,12.529,0,0,0-4.416-1.9l-0.608,1.056a11.212,11.212,0,0,1,2.64.88,9.162,9.162,0,0,1,1.664,1.072Zm-9.217-10.56h-2.336a20.126,20.126,0,0,0,.208-2.128L101.25,27a13.824,13.824,0,0,1-.577,3.76,7.7,7.7,0,0,1-1.488,2.592l1.04,0.784a8.427,8.427,0,0,0,.761-1.184,11.487,11.487,0,0,0,.664-1.392,6.152,6.152,0,0,0,.3-0.96h1.328a3.93,3.93,0,0,1-.28.752,4.524,4.524,0,0,1-.44.768l1.168,0.464c0.032-.064.1-0.189,0.2-0.376a16.116,16.116,0,0,0,.632-1.768V29.435Zm4.593,5.808h-1.217v1.2a2.878,2.878,0,0,1-.192,1.1,3.882,3.882,0,0,1-.56.928,5.107,5.107,0,0,1-3.7,1.488l0.608,1.264a7.728,7.728,0,0,0,3.312-1.312A4.165,4.165,0,0,0,108.7,38.4a4.077,4.077,0,0,0,.456-1.84V35.243Zm-4.593,3.312V37.2l-1.92,1.024V32.635h-1.216v6.048a1.138,1.138,0,0,1-.624.592l0.64,0.944Zm6.721-8.064h-1.936v-1.12h1.936v1.12Zm-3.152,0H106.21v-1.12h1.921v1.12ZM128.037,27.9H117.524v1.168h8.7a14.49,14.49,0,0,1-3.857,2.832v7.264a0.6,0.6,0,0,1-.088.32,0.3,0.3,0,0,1-.184.16h-2.544l0.576,1.28,2.352-.032a1.042,1.042,0,0,0,.857-0.416,1.382,1.382,0,0,0,.3-0.832v-7.12a14.1,14.1,0,0,0,4.4-3.568V27.9Zm12.227,9.28c0-1.648-.928-2.672-3.553-3.248l-0.336-.08V29.883a2.217,2.217,0,0,1,2.224,2.3h1.377c-0.048-1.7-.913-3.264-3.6-3.52V27.018h-1.12v1.6c-2.209.1-3.617,1.216-3.617,2.976,0,2.08,1.52,2.864,3.457,3.3l0.16,0.032v4.336a2.587,2.587,0,0,1-2.609-2.752h-1.392c0.032,2.592,1.664,3.792,4,3.984v1.632h1.12V40.507C138.871,40.4,140.264,39.1,140.264,37.179Zm-7.234-5.584c0-1.008.752-1.68,2.225-1.76v3.76C133.478,33.147,133.03,32.6,133.03,31.595Zm3.345,7.7V35.179c1.808,0.432,2.5.96,2.5,2C138.871,38.491,137.959,39.2,136.375,39.291Zm8.8-10.417h-1.088c-0.288,1.376-1.12,1.728-2.593,1.824l-0.256.016v1.056h2.593v8.5h1.344V28.874Zm2.56,11.5a0.919,0.919,0,0,0,.912-0.944,0.937,0.937,0,0,0-1.872,0A0.92,0.92,0,0,0,147.736,40.379Zm3.569-1.328c0.1-1.264.736-1.952,2.048-2.72l1.216-.7c1.825-1.056,2.593-2.256,2.593-3.712a3.317,3.317,0,0,0-3.633-3.3c-2.352,0-3.777,1.312-3.745,3.664h1.329a2.156,2.156,0,0,1,2.384-2.448,2.026,2.026,0,0,1,2.257,2.08c0,1.2-.625,1.92-2,2.72l-1.44.832a4.665,4.665,0,0,0-2.481,4.176l-0.032.624h7.522V39.051h-6.017Zm10.785-6.209a3.254,3.254,0,0,0-2.16.832l0.544-3.584h4.8V28.874h-5.889l-0.961,6.561h1.249a2.381,2.381,0,0,1,2.336-1.376,2.625,2.625,0,0,1,0,5.248,2.4,2.4,0,0,1-2.528-2.208h-1.345a3.6,3.6,0,0,0,3.873,3.424,3.709,3.709,0,0,0,3.953-3.84A3.627,3.627,0,0,0,162.09,32.843Zm18.4,4.7c-0.021.128-.051,0.363-0.088,0.7a3.066,3.066,0,0,1-.152.752,0.508,0.508,0,0,1-.432.272h-6.433a1.5,1.5,0,0,1-.3-0.192,0.149,0.149,0,0,1-.04-0.1,0.407,0.407,0,0,1,.008-0.24,1.235,1.235,0,0,1,.128-0.248l0.12-.184q2.529-3.344,4.2-5.36T180.54,29.5l0.032-1.136h-7.985v1.168h6.177q-1.233,1.36-3.313,3.992t-3.568,4.664a1.3,1.3,0,0,0-.136.816,2.056,2.056,0,0,0,.28.848,1.473,1.473,0,0,0,.432.416,0.894,0.894,0,0,0,.448.176h7.345a0.954,0.954,0,0,0,.784-0.424,5.9,5.9,0,0,0,.656-1.944ZM171.1,27a23.389,23.389,0,0,1-.544,2.384,11.846,11.846,0,0,1-3.409,5.728l0.784,0.96a9.581,9.581,0,0,0,1.041-1.008,5.68,5.68,0,0,0,.576-0.816v7.04h1.2V32.2a19.156,19.156,0,0,0,1.392-4.752Z"/>
</svg>
